<svg xmlns="http://www.w3.org/2000/svg" viewBox="0 0 1452.78 518.24"><defs><style>.cls-1{fill:#f5d323;}.cls-2{fill:#fea524;}</style></defs><g id="Layer_2" data-name="Layer 2"><g id="Layer_1-2" data-name="Layer 1"><path class="cls-1" d="M1388.9,360.31c1.33-1,1.41-2.6,1.84-4q7.9-26.25,15.86-52.48a15,15,0,0,1,24-7.34,13.34,13.34,0,0,1,4.82,8.58c3.18,19.71,6.29,39.42,9.45,59.13,1,6.47,2.07,12.93,3.2,19.37a20.66,20.66,0,0,1,.34,5c-.37,5.67-3.93,9.56-9.51,9.86-7,.39-10.51-2.27-11.49-8-1.39-8.09-2.39-16.25-3.53-24.39-1.53-10.94-3-21.9-4.57-32.84-.15-1.08-.09-2.31-1.43-3.26-2.42,5.82-3.57,11.91-5.31,17.8-3.8,12.87-7.38,25.8-11.06,38.71-.37,1.29-.7,2.6-1.15,3.86-1.69,4.8-5.2,7.45-10.1,7.67-6.25.29-10.11-1.69-12.09-6.95-1.88-5-3.24-10.21-4.76-15.36q-6.12-20.74-12.16-41.52a6.09,6.09,0,0,0-1.84-3.46c-1.69.62-1.36,2.21-1.54,3.42-2.5,16.92-4.93,33.85-7.41,50.78a42,42,0,0,1-1.31,6.4c-1.71,5.43-5.46,7.38-12.42,6.68-4.74-.49-8-4-8.55-9.07-.33-3.4.6-6.68,1.16-10,3.53-20.65,7.21-41.27,10.86-61.9.61-3.46,1.37-6.89,1.94-10.36,1.39-8.41,5.85-13,13.14-13.49,7.73-.49,13.83,3.77,16.24,11.52,2.58,8.33,5,16.71,7.54,25.06q4.13,13.75,8.27,27.49C1387.67,358.37,1387.87,359.55,1388.9,360.31Z"/><path class="cls-1" d="M592.81,360.55c2.87-6.42,4.14-12.47,6-18.32,3.92-12.66,7.51-25.42,11.44-38.08,3.27-10.6,15.43-14.49,23.93-7.88a13.51,13.51,0,0,1,5,9c1.58,9.61,3.18,19.21,4.74,28.82,2.27,13.91,4.57,27.81,6.71,41.74.64,4.13,1.7,8.22,1.49,12.47-.29,5.87-4,9.92-9.68,10.24-6.51.37-10.43-2.51-11.34-8.77-2.42-16.76-4.67-33.54-7-50.3-.41-2.91-1-5.8-1.48-8.61-1.86,0-1.77,1.23-2,2.09q-7.53,26.38-15,52.79c-.37,1.29-.67,2.6-1.09,3.88-1.84,5.62-5.45,8.33-11.14,8.41-6.44.1-9.8-1.94-11.71-8.09-4.48-14.41-8.67-28.92-13-43.38q-2-6.75-4-13.51a7.6,7.6,0,0,0-1.73-3.3c-2.07,3.93-1.76,8-2.36,11.86-2.34,14.91-4.33,29.88-6.47,44.82a29.34,29.34,0,0,1-.83,3.94,11,11,0,0,1-16.54,6.4,9.2,9.2,0,0,1-4.54-7.94c-.25-5.95,1.35-11.65,2.33-17.41,3.46-20.33,7.14-40.62,10.75-60.93.29-1.65.66-3.28,1-4.93,1.3-7,5.31-11.24,11.55-12.22a15.39,15.39,0,0,1,15.82,7.49,28.57,28.57,0,0,1,2.49,6.57q7.27,24.09,14.49,48.19A15.23,15.23,0,0,0,592.81,360.55Z"/><path class="cls-1" d="M1269.3,395.16c-24.26,1.15-49.82-17.32-49.71-49.43.11-31.9,25.09-49.58,50-49.47,27.21.12,49.48,21.09,49.46,50C1319,372.91,1297.6,396.23,1269.3,395.16Zm-.12-15.86c15.6.44,27.4-9.49,31-23.57a37.48,37.48,0,0,0,.65-16.43c-2.26-12.12-8.42-21.19-20.44-25.15-12.4-4.09-24-2.23-33.54,7.09-8.29,8.09-10.23,18.43-9.14,29.64C1239.23,366.29,1251.46,379.68,1269.18,379.3Z"/><path class="cls-1" d="M845.37,346.21q0,21.68,0,43.36c0,4.34-.06,4.36-4.48,4.4-2.68,0-5.37,0-8.06,0-4.6,0-4.55.44-4.55-4.79q0-14.87,0-29.74c0-1.18-.06-2.36,0-3.53.14-2.34-.86-3.31-3.24-3.3-13.28.06-26.56.09-39.84,0-3,0-3.21,1.51-3.2,3.8,0,9.91,0,19.83,0,29.74,0,1.35,0,2.69,0,4-.1,3.67-.11,3.72-3.55,3.78s-6.73-.1-10.08.06c-2.48.11-3.35-.94-3.12-3.27.08-.83,0-1.68,0-2.52V304c0-1,0-2,0-3-.1-1.88.67-2.78,2.62-2.75,3.7.05,7.4.11,11.09,0,2.55-.1,3.08,1.15,3.06,3.38-.07,9.07,0,18.15,0,27.22,0,1.35,0,2.69,0,4,.1,3.79.11,3.87,4,3.88q19.15.06,38.32,0c3.79,0,3.88-.12,3.9-4,.06-10.08,0-20.17,0-30.25,0-4.11.07-4.14,4.16-4.19,2.86,0,5.72,0,8.58,0,4.27.06,4.32.08,4.33,4.59Q845.39,324.52,845.37,346.21Z"/><path class="cls-1" d="M949.6,346.18q0,21.66,0,43.33c0,4.4-.05,4.42-4.38,4.46-3,0-6.06-.14-9.07,0-2.64.15-3.49-.86-3.45-3.46.12-8.57,0-17.13,0-25.7,0-3-.1-6.05,0-9.07.09-2.43-1-3.19-3.3-3.17-13.26.06-26.53,0-39.8.06-3.26,0-3.45.27-3.47,4.05-.06,10.41,0,20.83,0,31.24,0,1.17,0,2.35,0,3.53.05,1.61-.55,2.5-2.32,2.48-4-.05-8.06,0-12.09,0-1.79,0-2.32-1-2.29-2.54,0-1,0-2,0-3q0-42.33,0-84.65c0-6-.16-5.5,5.42-5.51,2.35,0,4.7,0,7,0,4.16.06,4.22.07,4.24,4.12,0,9.07,0,18.14,0,27.21.05,8.18-1,7.13,7.29,7.16q17.64.08,35.27,0c3.88,0,4-.1,4-3.88,0-10.08,0-20.16,0-30.24,0-4.32.06-4.32,4.5-4.37,2.18,0,4.36,0,6.55,0,6.29,0,5.79-.5,5.8,5.59Q949.62,325,949.6,346.18Z"/><path class="cls-1" d="M1052.88,394c-4.72,0-9.58-.06-14.43,0-1.9,0-2.6-.95-3.16-2.54-1.82-5.23-3.74-10.42-5.64-15.62-1.59-4.36-1.6-4.4-6-4.42q-15.61,0-31.22,0c-4.45,0-4.5,0-6.08,4.33-1.86,5-3.73,10.07-5.38,15.18-.74,2.29-1.87,3.25-4.33,3.09-4.49-.29-9,.28-13.46-.31-.54-2,.53-3.45,1.09-5q15.83-43,31.77-85.87c1.7-4.6,1.75-4.59,6.76-4.6,3.86,0,7.74.19,11.58-.07,3.05-.21,4.4.95,5.43,3.79,6.62,18.3,13.44,36.52,20.19,54.77q6.2,16.75,12.37,33.52C1052.79,391.35,1053.51,392.39,1052.88,394Zm-44.46-77.24c-.7.28-.92.3-.95.39q-6.53,17.94-13,35.86c-.76,2.1.21,2.76,2.13,2.74,8.2-.08,16.41-.15,24.61-.26.22,0,.43-.43.9-.94C1017.58,342,1013.42,329.24,1008.42,316.73Z"/><path class="cls-1" d="M751.45,394c-4.8,0-9.63-.08-14.46,0-2.22.06-2.8-1.24-3.39-2.94-1.81-5.22-3.71-10.42-5.62-15.62-1.46-4-1.49-4-5.75-4-10.58,0-21.16.09-31.73-.07-3,0-4.58,1-5.5,3.84-1.63,5.11-3.81,10.05-5.32,15.19-.91,3.06-2.57,3.79-5.47,3.65-4.17-.2-8.36,0-12.43,0-.73-2.16.39-3.63.94-5.13q15.74-42.73,31.58-85.41c.35-.94.84-1.85,1.09-2.81a2.89,2.89,0,0,1,3.28-2.39c5.2.07,10.41.18,15.61,0,2.88-.11,3.22,1.89,3.91,3.73q8.22,22.17,16.42,44.36,8,21.72,16,43.43C751.1,391,751.88,392.13,751.45,394Zm-44.36-77.22-1.38.2q-6.39,18-12.79,35.94c-.92,2.55.52,2.86,2.49,2.85,7.38,0,14.76,0,22.14,0,.93,0,2,.3,3-1.3C716.14,342.07,711.61,329.41,707.09,316.74Z"/><path class="cls-2" d="M1018.71,86.82l-30.19,57.53c2,1.36,3.89.93,5.62.94,16.63,0,33.27,0,49.91.05,7.89,0,15.8.41,23.42,2.74,17.17,5.24,27.62,16.49,30.46,34.48a152.42,152.42,0,0,1,1.64,25.61c0,3,.08,6.05,0,9.07-.08,2.32.74,3.32,3.19,3.3q15.38-.12,30.75,0c2.52,0,3.25-1.13,3.11-3.37-.08-1.17,0-2.35,0-3.53q0-60.24,0-120.5c0-6.71-.38-6.34,6.25-6.33,6.05,0,12.1.08,18.15,0,2.54,0,3.8.77,3.51,3.46a34.62,34.62,0,0,0,0,3.53q0,60.26,0,120.5c0,6.77-.45,6.24,6.27,6.24q46.14,0,92.27,0c1,0,2,0,3,0,2,.11,3.08-.65,3.43-2.75,1.79-10.93,4-21.81,2-33-2.27-13.23-11.06-21.73-24.38-23.89a49.22,49.22,0,0,0-34.34,6.45c-.7.42-1.47.74-2.62,1.31-3.58-7.55-7.07-15-10.61-22.36-1-2,.66-2.31,1.75-2.89a88.92,88.92,0,0,1,22.9-8.92c11.27-2.46,22.64-3,33.92-.12,17.78,4.55,29.33,16.22,36.5,32.68,5.54,12.73,5.76,26.1,4.52,39.61-.31,3.33-.94,6.64-1.38,10-.46,3.52-.26,3.84,3.19,3.86q14.88.09,29.75,0c3.48,0,3.73-.24,3.08-3.92a58.15,58.15,0,0,1,1.08-23.46c5.06-21.68,22.46-42.38,50.42-45.81,33.77-4.13,62.1,19.11,66.72,50.45,2.89,19.6-2.26,36.73-16.14,50.8-11.94,12.1-26.64,18.58-43.82,18.36-15.21-.19-28.51-5.73-39.73-15.94a10.91,10.91,0,0,0-8.06-3.07q-77.89.14-155.79.12-108.14,0-216.29-.07-98.55,0-197.12.06-33,0-66-.1a9.51,9.51,0,0,0-7.23,2.6c-22,20.58-56.63,22.88-81.4.66a11.59,11.59,0,0,0-8.49-3.29c-19.15.14-38.31.06-57.47.06-1.18,0-2.36-.05-3.53,0-1.88.09-2.73-.69-2.71-2.64q.08-11.1,0-22.19c0-2,.92-2.67,2.76-2.6,1.17.05,2.35,0,3.53,0q21.42,0,42.85,0c4.84,0,4.91-.08,4.24-4.75a58.36,58.36,0,0,1,9.69-42.2c11.7-17.29,28.14-26.37,49.22-26.65,28.65-.39,55.6,21,59.49,51.64a58.62,58.62,0,0,1,0,17c-.8,4.88-.73,4.92,4.49,4.92h336.77c1.85,0,3.7,0,5.55,0,4.93,0,5,0,5-5,0-5.71,0-11.43,0-17.14a36.56,36.56,0,0,0-1.12-9c-2.34-9.74-10.28-16.28-20.34-16.33-26.22-.12-52.44-.16-78.66,0-4.14,0-6.41-1.32-8.32-4.84a58.8,58.8,0,0,1-6.39-20c-.33-2.37.66-4.23,1.72-6.15q12.65-22.93,25.28-45.9c1.29-2.35,2.65-4.68,3.85-7.08a4,4,0,0,1,4-2.37C1000.39,86.85,1009,86.82,1018.71,86.82ZM660,239.13c18.81.16,33.13-13.41,33-31.88-.11-21.77-16.3-32.58-32.27-32.82-17.89-.26-31.55,13.63-32.1,31.84C628.1,224.84,642.6,239.53,660,239.13Zm765-31.89c.42-19-13.75-32.45-32.14-32.79-18.09-.35-31.65,13.77-32.06,32.35a31.57,31.57,0,0,0,31.33,32.43C1408.84,239.26,1425.46,227,1425,207.24Z"/><path class="cls-1" d="M1181.27,395.14c-12.35.33-23.23-2.85-32.64-10.46-10.53-8.51-15.76-19.95-17.06-33.09-1.19-12.13.93-23.79,7.73-34.2,8.41-12.86,20.75-19.29,35.67-20.81a62.13,62.13,0,0,1,33.78,5.89c3.71,1.79,3.79,2.06,2.28,5.72-1.22,2.94-2.65,5.8-3.81,8.77-.77,2-1.8,2-3.46,1.09a50.92,50.92,0,0,0-14.63-5.12,39.2,39.2,0,0,0-17.93.84c-12.32,3.42-20.34,13.17-21.76,26.72-.75,7.24-.34,14.42,2.79,21.21,4.76,10.35,12.93,16,24.11,17.36a43.66,43.66,0,0,0,26.33-4.72c3.35-1.79,3.45-1.69,5,1.77,1.34,2.89,2.47,5.89,3.9,8.74,1,2,.25,3-1.53,3.88A59.89,59.89,0,0,1,1181.27,395.14Z"/><path class="cls-1" d="M1067.12,345.76q0-21.4,0-42.82c0-4.64,0-4.65,4.72-4.68,3.19,0,6.38,0,9.57,0,1.65,0,2.52.65,2.48,2.37,0,1.34,0,2.69,0,4v66c0,.84,0,1.68,0,2.52.07,5,.08,5,5.1,5,11.58,0,23.17,0,34.75,0,4.35,0,4.51.06,4.37,4.48-.11,3.62,1.64,8.22-.89,10.6-2.26,2.13-6.73.64-10.22.65-14.94.07-29.89,0-44.83,0-5,0-5.06,0-5.07-4.89Q1067.08,367.42,1067.12,345.76Z"/><path class="cls-1" d="M249.26.19c37.19-1.7,73.78,8.34,109,24.24a271.76,271.76,0,0,1,48.46,28.66c4.84,3.54,5.19,5.83,1.54,10.53q-5,6.51-10.35,12.78c-4.49,5.3-6.5,5.52-12.3,1.36a287,287,0,0,0-26.47-17c-26.48-14.88-54.59-25-84.75-29.27a247.74,247.74,0,0,0-59-1.64C173.67,33.88,136,48.35,102.8,74.07a192.77,192.77,0,0,0-57.08,70.61,199.35,199.35,0,0,0-18.44,68.59c-3.69,42.56,4.46,82.89,22.53,121.41A249.09,249.09,0,0,0,76,378.57a62.94,62.94,0,0,0,4.56,5.36c3.42,3.62,4.52,3.64,8.14.39q3.85-3.45,7.66-6.95c4.23-3.91,4.4-3.9,8,.39a339,339,0,0,0,23.45,25.67c18.66,18.17,39.35,33.46,63,44.52,22.9,10.7,46.82,17.62,72.1,19.64,50.61,4,95.61-10.18,135.54-41.23a214,214,0,0,0,54.14-61.85,218.33,218.33,0,0,0,28.5-86.37c4.33-38.6-1.3-75.85-14.59-112.13a222.93,222.93,0,0,0-38.11-66.55c-1.21-1.44-2.46-2.84-3.69-4.26a5.05,5.05,0,0,1-1.36-2.42,2.09,2.09,0,0,1,.67-2.13,1.6,1.6,0,0,1,2.12.29c2.62,2.24,5.3,4.42,7.81,6.77,18.08,16.93,31.78,37,42.52,59.22a255.94,255.94,0,0,1,22.74,70.88c6.37,39.52,2.1,78.05-11.77,115.54-15.2,41.08-39.7,75.88-71.87,105.37a277.22,277.22,0,0,1-81.14,51.92c-18.59,7.74-38,12.46-57.93,15.56-16.86,2.62-33.8,2.26-50.64,1.42-16.27-.82-32.2-4.68-47.89-9.16a272.09,272.09,0,0,1-99.43-52.53,245.81,245.81,0,0,1-25.74-24c-4-4.4-3.9-6.06.22-10.28,1.65-1.68,3.32-3.32,4.94-5,3.93-4.17,4.12-6.63.63-11.1a294.16,294.16,0,0,1-18.28-26.19A278.25,278.25,0,0,1,3.24,283,157.1,157.1,0,0,1,.2,247a121.68,121.68,0,0,0,0-12.23c-1-17.09,2-33.68,6.06-50.15,8.09-33.16,22-63.56,43-90.59a249.45,249.45,0,0,1,52.27-49.7C134.6,20.68,171.65,7.41,211.69,1.66,223.56,0,235.44.35,249.26.19Z"/><path class="cls-2" d="M262.24,438.5c-55.19-.77-104.58-21.16-147-59.16-1.75-1.57-3.54-3.11-5.2-4.76-2.91-2.91-2.93-3.54-.4-6.67,1.68-2.07,3.41-4.09,5.09-6.15,2.88-3.53,3-4.17.15-7.68a247.17,247.17,0,0,1-21.43-30.85C76.66,294.07,67.16,262.81,66,229.05c-1.1-31.08,5.17-60.52,19.77-87.89,22.44-42,56.7-70.31,101.94-85.15A189.06,189.06,0,0,1,258.6,47.2c33.43,2,64.47,12.08,93.45,28.74a228.58,228.58,0,0,1,23.12,15.27c2.71,2,2.74,2.15.67,4.75q-5.4,6.81-11,13.46c-2.14,2.54-2.28,2.58-4.93.56a245.52,245.52,0,0,0-23.34-15.79C301.86,73.54,264.46,64.5,224.11,67.93c-24.61,2.1-47.62,9-68.55,22.3-20.05,12.75-35.89,29.68-48.79,49.48a9.36,9.36,0,0,0-1.15,2c-.5,1.44,0,2.53,1.57,2.77a28.08,28.08,0,0,0,4.21.21c17.08.06,34.16.22,51.24.1A21.71,21.71,0,0,1,178,150.7a88.31,88.31,0,0,1,14.64,17.69c3.94,6,2.77,12.07-2.68,16.2a12.83,12.83,0,0,1-17.45-1.54,45.48,45.48,0,0,1-3-4.18c-4.14-5.71-9.66-8.76-16.79-8.75q-27,0-54.07,0c-4.47,0-4.72.19-5.83,4.4a164.8,164.8,0,0,0-4.62,57.29c2.84,31.12,13.6,59.35,30.72,85.29a176.51,176.51,0,0,0,13.38,17.57c2.94,3.43,4.35,3.53,7.85.65,1.81-1.49,3.49-3.15,5.26-4.69,3.84-3.35,4.37-3.34,7.45.48a173.17,173.17,0,0,0,20.79,21.68c28.23,24.66,60.73,40.11,98,45.07,33.11,4.41,64.79-.21,94-16.83,36.66-20.85,59.49-52.44,68.23-93.48,9.81-46,1.86-89.66-20.77-130.75a228.27,228.27,0,0,0-16.87-26c-.47-.63-.95-1.25-1.39-1.9a1.56,1.56,0,0,1,.06-2.13,1.81,1.81,0,0,1,2.53-.36,15.44,15.44,0,0,1,2.1,1.86c27.63,29.21,46.09,63.26,52.69,103.06,12.3,74.19-23.37,143.51-84.71,179.94a189.79,189.79,0,0,1-73.3,25A271.1,271.1,0,0,1,262.24,438.5Z"/><path class="cls-1" d="M305.72,295.88c-7.21-.56-11.74-2.49-14.82-6.89-4.57-6.54-9-13.18-13.4-19.84q-18.9-28.57-37.73-57.22a39.87,39.87,0,0,1-2.45-4,11.39,11.39,0,0,1,1.48-13.13c2.58-2.91,8.39-4.05,12.67-2.52,3.41,1.21,5.72,3.66,7.66,6.61q14.33,21.78,28.7,43.5,11.39,17.23,22.74,34.49,1.29,2,2.51,4C316.78,287,312.44,296.54,305.72,295.88Z"/><path class="cls-1" d="M197.85,202.48a11.45,11.45,0,0,1,7.54-10.59,11.16,11.16,0,0,1,12.73,3.42,43.51,43.51,0,0,1,2.67,3.87l52.32,78.62c2.13,3.2,3.92,6.42,2.77,10.5a11.84,11.84,0,0,1-9.34,8.92c-4.84,1.08-8.64-1.11-11.37-4.92-3.75-5.22-7.25-10.6-10.81-15.95q-21.57-32.49-43.11-65C199.51,208.72,197.77,206.11,197.85,202.48Z"/><path class="cls-1" d="M288.07,191.6c2.33.06,5.47,2.28,7.87,5.94,6.26,9.57,12.64,19.06,18.95,28.59q16.85,25.49,33.67,51c.52.78,1.07,1.55,1.53,2.37,3.5,6.15,2.19,12.4-3.37,16.06s-11.86,2.39-15.93-3.57c-6.27-9.19-12.33-18.51-18.47-27.78q-16.87-25.47-33.72-50.94a48,48,0,0,1-3.19-5.2C271.63,200.26,277.26,191.51,288.07,191.6Z"/><path class="cls-1" d="M379,295.94c-5,.18-8.71-2.25-11.52-6.47-12-18-24-35.92-35.94-53.93-5.45-8.22-10.75-16.54-16.06-24.85-2.88-4.51-3.76-9.18-.94-14.16,3.21-5.67,11.85-6.93,16.48-2.28a12.45,12.45,0,0,1,1.45,1.85c18.73,28.14,38.23,55.79,55.68,84.78a10,10,0,0,1,1.09,8.52C387.67,294.44,385.22,296,379,295.94Z"/><path class="cls-1" d="M397.77,265.83c-6.42-.17-11.12-2.49-14.46-7.42C372.43,242.32,362,226,351.56,209.59a14.8,14.8,0,0,1-1.77-3.83,11.15,11.15,0,0,1,2.69-11.34c2.77-2.83,6.46-2.81,10.11-1.95,4.41,1,7.4,4,9.82,7.56q14.25,21,27.79,42.43c1.83,2.91,3.71,5.81,5.37,8.82a10,10,0,0,1,0,9.89C403.83,264.69,401.17,266.36,397.77,265.83Z"/><path class="cls-2" d="M379.08,322.61A20,20,0,1,1,359,302.68,19.91,19.91,0,0,1,379.08,322.61Z"/><path class="cls-2" d="M291.35,302.68a19.91,19.91,0,1,1-20.18,19.72A19.85,19.85,0,0,1,291.35,302.68Z"/><path class="cls-1" d="M386.8,200.52c0-7.82,4.64-11.12,12-8.48a24.72,24.72,0,0,1,8.6,5.55C413.91,203.74,418.59,211,420,220a16.83,16.83,0,0,1,.27,1.85c.51,8.24-5.23,12.37-12.75,8.93-7.36-3.36-12.57-9.13-16.47-16.1C388.63,210.3,386.6,205.73,386.8,200.52Z"/></g></g></svg>