<svg xmlns:xlink="http://www.w3.org/1999/xlink" xmlns="http://www.w3.org/2000/svg" viewBox="0 0 350.00000000000006 67.92306330560847" preserveAspectRatio="xMidYMid meet" class="css-zmnp7k" id="eecabfhg" width="3600"  height="698.6372225719726" ><defs id="SvgjsDefs1001"></defs><g id="SvgjsG1007" featurekey="nameFeature-0" transform="matrix(1.9230767618471285,0,0,1.9230767618471285,-2.8461527272190703,-22.846152150822558)" fill="#FFFFFF"><path d="M11.84 44.28 l1 -0.36 c0.76 -0.28 1.32 -0.84 1.6 -1.6 l0.32 -1 l0.32 1 c0.28 0.76 0.88 1.32 1.64 1.6 l1 0.36 l-1 0.28 c-0.76 0.2 -1.4 0.92 -1.64 1.64 l-0.32 1 l-0.32 -1 c-0.24 -0.72 -0.84 -1.44 -1.6 -1.64 z M25.16 32.36 l3.24 0 c-2.32 4.56 -7.16 7.76 -12.64 7.76 c-7.88 0 -14.28 -6.36 -14.28 -14.2 s6.4 -14.04 14.28 -14.04 c5.44 0 10.16 3.04 12.52 7.52 l-5.48 0 c-2.32 -3.64 -5.8 -5.92 -9.16 -5.92 c-4.68 0 -7.28 4.04 -7.28 9.2 c0 8.6 5.96 16.04 11.52 16.04 c3.6 0 6.16 -2.92 7.28 -6.36 z M31.12 25.92 c0 -7.84 6.4 -14.04 14.24 -14.04 c7.88 0 14.28 6.2 14.28 14.04 s-6.4 14.2 -14.28 14.2 c-7.84 0 -14.24 -6.36 -14.24 -14.2 z M47.480000000000004 38.72 c5.04 0 7.76 -5.28 7.76 -10.12 c0 -8.56 -6.32 -15.16 -11.96 -15.16 c-4.76 0 -7.32 4.04 -7.32 9.2 c0 8.56 5.88 16.08 11.52 16.08 z M62.56 37.48 l0.72 -1.76 c1.52 0.56 5.52 1.88 9.16 1.88 c3.04 0 5.96 -1.32 5.96 -3.28 c0 -2.88 -6.16 -6.2 -8.36 -7.56 c-2.8 -1.72 -7.04 -4.32 -7.04 -7.88 c0 -6.36 6.88 -7 9.12 -7 c2.32 0 4.64 0.44 7.12 1.4 l-0.4 1.32 c-1.48 -0.64 -3.88 -1.48 -6.2 -1.48 c-2.08 0 -5.88 1.24 -5.88 3.8 c0.04 2.68 5.72 5.04 11.48 9 c3.52 2.44 5.16 5.36 5.16 7.88 c0 3.52 -3.28 6.32 -8.84 6.32 c-6.96 0 -11.68 -2.48 -12 -2.64 z M106.44 40 l4.6 -11.84 c-4.52 -0.52 -10.12 -0.76 -16.92 -0.76 l0 -1.8 c7.12 0 12.88 0.28 17.56 0.8 l5.6 -14.4 l4.28 0 l10.88 28 l-4.28 0 l-2.44 -6.24 c-1.68 -2.68 -5.76 -4.44 -12.96 -5.4 l-4.52 11.64 l-1.8 0 z M86.4 40 l0 -28 l17.56 0 l0 1.88 l-13.24 0 l0 24.28 l13.24 0 l0 1.84 l-17.56 0 z M124.2 29.84 l-6 -15.4 l-4.76 12.2 c4.84 0.68 8.36 1.76 10.76 3.2 z M135.64 40 l0 -28 l10.16 0 c4.68 0 8.52 3.8 8.52 8.52 c0 4.6 -3.72 8.48 -8.52 8.48 l-1.76 0 l3.56 0.6 l8.2 10.4 l-4.32 0 l-8.88 -11 l-2.64 0 l0 11 l-4.32 0 z M139.96 27.72 l4.48 0 c4.04 0 7.24 -3.2 7.24 -7.2 c0 -3.96 -3.2 -7.24 -7.24 -7.24 l-4.48 0 l0 14.44 z M157.48 40 l10.8 -28 l4.32 0 l10.88 28 l-4.28 0 l-3.48 -8.92 l-13 0 l-3.44 8.92 l-1.8 0 z M163.35999999999999 29.48 l11.72 0 l-5.88 -15.04 z" fill="#FFFFFF"></path></g></svg>