<svg xmlns="http://www.w3.org/2000/svg" fill="none" viewBox="0 0 154 56" height="56" width="154">
<g clip-path="url(#clip0_18553_3117)">
<path fill="black" d="M64.0937 34.6804L60.7649 29.3019H60.4019L58.2607 31.3692L57.9085 34.6804H51.2788L53.0721 17.821H59.7018L59.0919 23.5604H59.4956L65.1589 17.821H72.4952L64.9055 25.3263L70.8244 34.6783H64.0937V34.6804Z"></path>
<path fill="black" d="M69.5403 26.2499C70.1223 20.7716 74.2758 17.2588 80.3192 17.2588C86.3627 17.2588 89.7495 20.7716 89.1653 26.2499C88.5855 31.709 84.4298 35.241 78.4057 35.241C72.3816 35.241 68.9583 31.709 69.5381 26.2499H69.5403ZM82.5764 26.2499C82.8148 24.0021 81.3931 22.9387 79.7158 22.9387C78.0385 22.9387 76.3891 24.0021 76.1507 26.2499C75.9145 28.4785 77.3147 29.561 79.0135 29.561C80.7123 29.561 82.3423 28.4764 82.5785 26.2499H82.5764Z"></path>
<path fill="black" d="M89.3046 28.7587H95.2664C95.1762 29.6014 95.872 30.1023 98.0519 30.1235C99.8666 30.1638 100.599 29.7415 100.644 29.3212C100.657 29.2002 100.859 28.6399 99.4607 28.4785L97.253 28.1368C94.0895 27.655 89.7943 27.5743 90.2968 22.8389C90.6619 19.4068 93.6385 17.2588 99.4607 17.2588C104.634 17.2588 108.105 18.4623 107.366 23.7007H101.443C101.37 22.8581 100.635 22.3571 98.7756 22.3571C97.1993 22.3571 96.6903 22.7795 96.6473 23.1807C96.6345 23.3017 96.5357 23.8429 97.515 23.9639L99.2632 24.2441C102.661 24.8065 107.755 24.6049 107.222 29.6035C106.808 33.4983 103.668 35.2834 97.5064 35.2431C91.1816 35.224 88.5851 33.4156 89.3025 28.7608L89.3046 28.7587Z"></path>
<path fill="black" d="M108.043 28.7587H114.005C113.915 29.6014 114.61 30.1023 116.79 30.1235C118.605 30.1638 119.337 29.7415 119.382 29.3212C119.395 29.2002 119.597 28.6399 118.199 28.4785L115.991 28.1368C112.828 27.655 108.533 27.5743 109.035 22.8389C109.4 19.4068 112.377 17.2588 118.199 17.2588C123.373 17.2588 126.843 18.4623 126.104 23.7007H120.181C120.108 22.8581 119.374 22.3571 117.514 22.3571C115.938 22.3571 115.429 22.7795 115.386 23.1807C115.373 23.3017 115.274 23.8429 116.253 23.9639L118.001 24.2441C121.399 24.8065 126.493 24.6049 125.961 29.6035C125.546 33.4983 122.406 35.2834 116.245 35.2431C109.92 35.224 107.323 33.4156 108.041 28.7608L108.043 28.7587Z"></path>
<path fill="black" d="M126.886 26.2499C127.468 20.7716 131.622 17.2588 137.665 17.2588C143.708 17.2588 147.095 20.7716 146.511 26.2499C145.931 31.709 141.776 35.241 135.751 35.241C129.727 35.241 126.304 31.709 126.884 26.2499H126.886ZM139.922 26.2499C140.16 24.0021 138.739 22.9387 137.061 22.9387C135.384 22.9387 133.735 24.0021 133.496 26.2499C133.26 28.4785 134.66 29.561 136.359 29.561C138.058 29.561 139.688 28.4764 139.924 26.2499H139.922Z"></path>
<path fill="#59CBF4" d="M22.0153 28.531L20.1877 43.1638C20.1275 43.0662 20.0674 42.9664 20.0051 42.8688C18.5061 40.4448 17.007 38.0209 15.4994 35.6033C15.3125 35.304 15.218 35.0727 15.581 34.7288C16.9147 33.4744 18.2226 32.1903 19.5391 30.9167C20.3638 30.1208 21.1884 29.3248 22.0131 28.531H22.0153Z"></path>
<path fill="#59CBF4" d="M30.1463 25.6212L34.9183 37.6369L36.4195 25.6212H43.5883L40.9317 46.8784H33.1637L28.3831 34.92L26.8883 46.8784H19.7195V46.8699C17.8919 46.8699 16.0643 46.8678 14.2345 46.8763C13.8887 46.8763 13.7083 46.7214 13.558 46.4688C12.3768 44.5012 11.187 42.5378 10.0037 40.5702C9.66218 40.0014 9.57413 39.9823 9.03293 40.4832C8.34354 41.1221 7.66489 41.7737 6.9755 42.4126C6.75214 42.6185 6.66409 42.8562 6.63188 43.1321C6.50731 44.1807 6.35698 45.2313 6.24745 46.2799C6.20235 46.7086 6.04772 46.8806 5.58813 46.8784C4.06117 46.8678 2.53205 46.8763 1.00294 46.8784L0 55.8462H44.3421L50.6754 0H6.3355L4.57015 15.2101H44.7394L43.8417 22.9914H3.69392L3.39755 25.636C4.99538 25.636 6.59537 25.636 8.1932 25.636C8.79883 25.636 8.82031 25.6615 8.74514 26.2664C8.50031 28.2425 8.25119 30.2165 8.00851 32.1926C7.98488 32.3815 7.86462 32.6341 8.09441 32.7296C8.34998 32.8357 8.53253 32.615 8.70863 32.4409C10.8026 30.3587 12.9008 28.2807 14.984 26.19C15.3577 25.8143 15.7206 25.6191 16.2511 25.6254C18.2914 25.6467 20.3337 25.6424 22.3761 25.6403L30.1463 25.6254V25.6212Z"></path>
<path fill="black" d="M51.0338 36.7668H54.5473L56.0871 40.2924H56.3577L56.7336 36.7668H59.7231L58.8941 44.5587H55.4643L53.8493 41.0332H53.568L53.1921 44.5587H50.2026L51.0316 36.7668H51.0338Z"></path>
<path fill="black" d="M59.8262 41.0609L60.2836 36.7649H63.3762L62.9274 40.9866C62.8436 41.7656 63.0906 42.2665 63.9496 42.2665C64.8087 42.2665 65.1888 41.7656 65.2726 40.9866L65.7214 36.7649H68.7861L68.333 41.0312C68.0538 43.6653 66.5655 44.8157 63.679 44.8157C60.7926 44.8157 59.5513 43.6653 59.8283 41.0588L59.8262 41.0609Z"></path>
<path fill="black" d="M77.5852 39.299H74.8383L74.28 44.5587H71.2153L71.7737 39.299H69.0269L69.2953 36.7668H77.8536L77.5852 39.299Z"></path>
<path fill="black" d="M83.1064 44.5587L82.3826 42.7503H80.8041L80.6109 44.5587H77.5376L78.3666 36.7668H83.1128C85.3356 36.7668 86.5405 37.6583 86.3064 39.8658C86.199 40.8761 85.6921 41.5999 85.0543 42.0647L86.1152 44.5608H83.1064V44.5587ZM81.0447 40.4961H82.4836C82.9496 40.4961 83.1816 40.2542 83.2202 39.8933C83.2589 39.5325 83.0785 39.2905 82.6124 39.2905H81.1735L81.0447 40.4961Z"></path>
<path fill="black" d="M87.3803 36.7668H90.4535L89.6245 44.5587H86.5513L87.3803 36.7668Z"></path>
<path fill="black" d="M99.2565 39.299H96.5097L95.9513 44.5587H92.8867L93.4451 39.299H90.6982L90.9667 36.7668H99.525L99.2565 39.299Z"></path>
<path fill="black" d="M100.038 36.7668H103.112L102.283 44.5587H99.2095L100.038 36.7668Z"></path>
<path fill="black" d="M103.118 40.6613C103.387 38.1291 105.307 36.5054 108.101 36.5054C110.895 36.5054 112.458 38.1291 112.19 40.6613C111.921 43.185 110.002 44.8172 107.216 44.8172C104.431 44.8172 102.85 43.185 103.118 40.6613ZM109.145 40.6613C109.254 39.6234 108.597 39.131 107.822 39.131C107.046 39.131 106.284 39.6234 106.172 40.6613C106.063 41.6907 106.709 42.1917 107.495 42.1917C108.281 42.1917 109.035 41.6907 109.142 40.6613H109.145Z"></path>
<path fill="black" d="M113.023 36.7668H116.537L118.076 40.2924H118.347L118.723 36.7668H121.712L120.883 44.5587H117.454L115.839 41.0332H115.557L115.181 44.5587H112.192L113.021 36.7668H113.023Z"></path>
<path fill="black" d="M151.109 17.8528C153.023 17.8528 154.172 19.0435 153.98 20.8286C153.787 22.6518 152.383 23.8681 150.469 23.8681C148.556 23.8681 147.411 22.6518 147.604 20.8286C147.793 19.0435 149.196 17.8528 151.109 17.8528ZM151.021 18.6763C149.681 18.6763 148.697 19.5381 148.56 20.8286C148.418 22.1573 149.217 23.0445 150.557 23.0445C151.897 23.0445 152.883 22.1573 153.025 20.8286C153.162 19.536 152.361 18.6763 151.021 18.6763ZM149.217 22.4438L149.561 19.2133H151.174C151.964 19.2133 152.451 19.6187 152.387 20.2258C152.342 20.6567 152.033 20.9857 151.569 21.1448L152.095 22.4438H150.939L150.615 21.2404H150.366L150.237 22.4438H149.217ZM150.89 19.848H150.514L150.426 20.6715H150.802C151.083 20.6715 151.302 20.5251 151.33 20.2597C151.356 20.0135 151.221 19.848 150.89 19.848Z"></path>
<mask height="56" width="51" y="0" x="0" maskUnits="userSpaceOnUse" style="mask-type:luminance" id="mask0_18553_3117">
<path fill="white" d="M50.6754 0L0 55.8462H44.3421L50.6754 0Z"></path>
</mask>
<g mask="url(#mask0_18553_3117)">
<path fill="url(#paint0_linear_18553_3117)" d="M30.1467 25.6212L34.9187 37.6369L36.4199 25.6212H43.5887L40.932 46.8784H33.1641L28.3834 34.92L26.8887 46.8784H19.7199V46.8699C17.8923 46.8699 16.0646 46.8678 14.2349 46.8763C13.8891 46.8763 13.7087 46.7214 13.5584 46.4688C12.3772 44.5012 11.1874 42.5378 10.004 40.5702C9.66257 40.0014 9.57452 39.9823 9.03331 40.4832C8.34393 41.1221 7.66528 41.7737 6.97589 42.4126C6.75253 42.6185 6.66448 42.8562 6.63227 43.1321C6.5077 44.1807 6.35737 45.2313 6.24784 46.2799C6.20274 46.7086 6.04811 46.8806 5.58852 46.8784C4.06155 46.8678 2.53244 46.8763 1.00333 46.8784L-0.00390625 55.8462H44.3382L50.6758 0H6.33589L4.57054 15.2101H44.7398L43.8421 22.9914H3.69431L3.39794 25.636C4.99577 25.636 6.59576 25.636 8.19359 25.636C8.79922 25.636 8.8207 25.6615 8.74553 26.2664C8.5007 28.2425 8.25158 30.2165 8.0089 32.1926C7.98527 32.3815 7.865 32.6341 8.0948 32.7296C8.35037 32.8357 8.53292 32.615 8.70902 32.4409C10.803 30.3587 12.9012 28.2807 14.9844 26.19C15.3581 25.8143 15.721 25.6191 16.2515 25.6254C18.2917 25.6467 20.3341 25.6424 22.3765 25.6403L30.1467 25.6254V25.6212Z"></path>
</g>
</g>
<defs>
<linearGradient gradientUnits="userSpaceOnUse" y2="5.80965" x2="2.4769" y1="50.7223" x1="50.0766" id="paint0_linear_18553_3117">
<stop stop-color="#4FB3D7"></stop>
<stop stop-opacity="0.98" stop-color="#53B4D7" offset="0.01"></stop>
<stop stop-opacity="0.28" stop-color="#CDE9F3" offset="0.45"></stop>
<stop stop-opacity="0" stop-color="white" offset="0.64"></stop>
</linearGradient>
<clipPath id="clip0_18553_3117">
<rect fill="white" height="55.8462" width="154"></rect>
</clipPath>
</defs>
</svg>
