<svg xmlns="http://www.w3.org/2000/svg" fill="none" viewBox="0 0 217 31" height="31" width="217">
<path fill="#1D1D1D" d="M53.716 17.1546C53.6521 17 53.5804 16.8506 53.4948 16.7098C53.4715 16.672 53.4456 16.6377 53.4205 16.6007C53.3332 16.4694 53.2391 16.3423 53.1319 16.2238C53.1103 16.1997 53.0861 16.1774 53.0637 16.1542C52.947 16.0314 52.8217 15.9155 52.6843 15.809C52.674 15.8013 52.6627 15.7944 52.6524 15.7858C52.2195 15.457 51.6975 15.1985 51.0789 15.0371C52.5789 14.4523 53.5095 13.1377 53.5095 11.599C53.5095 10.4561 53.0671 9.48662 52.229 8.79453C51.3986 8.10931 50.2442 7.74695 48.8902 7.74695H44.1438C43.9848 7.74695 43.8448 7.87918 43.8448 8.03031V22.3461C43.8448 22.4981 43.9848 22.6312 44.1438 22.6312H49.0889C51.9801 22.6312 53.9986 20.9679 53.9986 18.5868C53.9986 18.1034 53.913 17.6586 53.7601 17.2533C53.7471 17.2181 53.7299 17.1872 53.7152 17.1529L53.716 17.1546ZM51.739 16.3569C52.4631 16.9021 52.8468 17.6655 52.8468 18.5662C52.8468 19.4593 52.483 20.2647 51.822 20.8348C51.1592 21.4067 50.2208 21.7219 49.1805 21.7219H44.8895V15.56H49.0466C50.1007 15.56 51.0564 15.8434 51.7399 16.3569H51.739ZM44.912 14.6284V8.69922H48.891C49.9418 8.69922 50.8171 8.9697 51.4236 9.48061C52.0328 9.99495 52.356 10.742 52.356 11.6419C52.356 13.4563 51.0564 14.6292 49.0466 14.6292H44.912V14.6284ZM52.8105 15.9241C52.8027 15.9172 52.7958 15.9104 52.7889 15.9043C52.7966 15.9112 52.8036 15.9181 52.8105 15.9241Z"></path>
<path fill="#1D1D1D" d="M86.3599 7.94444C86.3357 7.88004 86.2415 7.74781 86.105 7.74781H85.9944C85.8725 7.74781 85.7714 7.81908 85.7187 7.94444L78.8787 22.5367C78.8355 22.62 78.8321 22.6973 78.8692 22.754C78.9081 22.8132 78.9859 22.8459 79.0878 22.8459H79.6667C79.7972 22.8459 79.894 22.766 79.9182 22.6913L86.0004 9.50723H86.0332L92.0463 22.6904C92.0688 22.7531 92.1543 22.8459 92.2995 22.8459H92.9C93.0011 22.8459 93.0728 22.8192 93.1057 22.7686C93.1394 22.7179 93.1333 22.6441 93.0893 22.5573L86.3599 7.94444Z"></path>
<path fill="#1D1D1D" d="M112.237 7.74781H111.792C111.632 7.74781 111.492 7.88004 111.492 8.03117V20.8099H111.484L100.793 7.53657L100.79 7.53314H100.406C100.211 7.53314 100.063 7.65593 100.063 7.81822V22.347C100.063 22.5015 100.2 22.632 100.362 22.632H100.786C100.945 22.632 101.085 22.499 101.085 22.347V9.44025H101.094C107.951 18.0845 111.783 22.845 111.883 22.845H112.172C112.355 22.845 112.537 22.7566 112.537 22.5599V8.03117C112.537 7.88004 112.396 7.74781 112.237 7.74781Z"></path>
<path fill="#1D1D1D" d="M126.691 7.74781H121.968C121.823 7.74781 121.691 7.88262 121.691 8.03117V22.347C121.691 22.4964 121.823 22.632 121.968 22.632H126.691C128.788 22.632 130.759 21.8592 132.24 20.4553C133.724 19.0479 134.542 17.17 134.542 15.1676C134.542 11.076 131.02 7.74695 126.69 7.74695L126.691 7.74781ZM133.411 15.1685C133.411 16.9605 132.705 18.6152 131.421 19.8268C130.142 21.0341 128.398 21.7004 126.512 21.7004H122.757V8.67689H126.512C128.396 8.67689 130.14 9.3415 131.421 10.5471C132.704 11.7535 133.411 13.3944 133.411 15.1685Z"></path>
<path fill="#1D1D1D" d="M151.817 7.74781H142.881C142.722 7.74781 142.583 7.88004 142.583 8.03117V22.347C142.583 22.499 142.722 22.632 142.881 22.632H143.282C143.523 22.632 143.648 22.4886 143.648 22.347L143.67 16.0263H150.724C150.807 16.0263 150.872 16.0031 150.92 15.9567C150.948 15.9292 150.954 15.8829 150.968 15.8434C150.976 15.8219 150.99 15.8056 150.994 15.7824C151.016 15.6837 151.024 15.5763 151.021 15.4767C151.021 15.4501 151.02 15.4252 151.02 15.4012C151.02 15.2466 150.884 15.1161 150.723 15.1161H143.67V8.67603H151.815C151.977 8.67603 152.113 8.54637 152.113 8.39181V8.03117C152.113 7.87747 151.977 7.74781 151.815 7.74781H151.817ZM143.501 22.5556C143.457 22.5831 143.401 22.6011 143.334 22.6089C143.4 22.6011 143.456 22.584 143.501 22.5556ZM143.624 22.3813C143.617 22.4268 143.596 22.4698 143.562 22.5067C143.596 22.4698 143.617 22.4277 143.624 22.3813Z"></path>
<path fill="#1D1D1D" d="M160.591 7.74781H160.099C159.94 7.74781 159.801 7.88004 159.801 8.03117V22.347C159.801 22.499 159.94 22.632 160.099 22.632H160.568C160.725 22.632 160.889 22.5256 160.889 22.347V8.03117C160.889 7.87747 160.752 7.74781 160.592 7.74781H160.591Z"></path>
<path fill="#1D1D1D" d="M179.281 7.74781H170.346C170.185 7.74781 170.047 7.87747 170.047 8.03117V22.347C170.047 22.499 170.187 22.632 170.346 22.632H179.281C179.44 22.632 179.58 22.499 179.58 22.347V22.0069C179.58 21.8549 179.44 21.7219 179.281 21.7219H171.135V15.4518H178.188C178.349 15.4518 178.486 15.3222 178.486 15.1685V14.8087C178.486 14.6541 178.349 14.5236 178.188 14.5236H171.135V8.67603H179.281C179.442 8.67603 179.58 8.54637 179.58 8.39181V8.03117C179.58 7.88004 179.44 7.74781 179.281 7.74781Z"></path>
<path fill="#1D1D1D" d="M195.985 21.7219H188.886V8.03117C188.886 7.88262 188.753 7.74781 188.608 7.74781H188.119C187.958 7.74781 187.82 7.87747 187.82 8.03117V22.347C187.82 22.499 187.96 22.632 188.119 22.632H195.985C196.157 22.632 196.28 22.5307 196.28 22.3899V22.0069C196.28 21.8567 196.259 21.7219 195.985 21.7219Z"></path>
<path fill="#1D1D1D" d="M208.167 7.74781H203.443C203.3 7.74781 203.165 7.88519 203.165 8.03117V22.347C203.165 22.4938 203.3 22.632 203.443 22.632H208.167C210.264 22.632 212.234 21.8592 213.715 20.4553C215.199 19.0479 216.018 17.17 216.018 15.1676C216.018 11.076 212.496 7.74695 208.166 7.74695L208.167 7.74781ZM214.887 15.1685C214.887 16.9605 214.181 18.6152 212.898 19.8268C211.619 21.0341 209.876 21.7004 207.99 21.7004H204.233V8.67689H207.99C209.874 8.67689 211.617 9.3415 212.898 10.5471C214.181 11.7535 214.887 13.3944 214.887 15.1685Z"></path>
<path fill="#1D1D1D" d="M72.9926 12.2859C72.9926 12.2266 72.9771 12.1708 72.9745 12.1124C72.9667 11.9201 72.9468 11.7321 72.9148 11.5474C72.8958 11.4392 72.8751 11.3336 72.8483 11.228C72.8008 11.0408 72.7403 10.8588 72.6686 10.6819C72.628 10.5806 72.5848 10.481 72.5355 10.3831C72.45 10.2105 72.3523 10.0456 72.2443 9.88676C72.1812 9.79317 72.1156 9.70129 72.0439 9.61199C71.9203 9.45657 71.7864 9.30888 71.6421 9.16977C71.6006 9.12941 71.5703 9.08219 71.5271 9.04355C71.4822 9.00233 71.4269 8.97399 71.3802 8.93535C71.2359 8.81514 71.0847 8.70351 70.9257 8.59961C70.8151 8.52748 70.702 8.46051 70.5853 8.39697C70.4332 8.31367 70.276 8.23811 70.1135 8.17028C69.983 8.11532 69.8508 8.06723 69.7152 8.02258C69.5475 7.96763 69.3756 7.92126 69.2002 7.88262C69.0663 7.85343 68.9332 7.83024 68.7967 7.81135C68.6092 7.78559 68.4191 7.76842 68.2255 7.76155C68.1581 7.75897 68.0933 7.74437 68.0259 7.74437H62.514C62.3412 7.74437 62.2159 7.86373 62.2159 8.02859V22.31C62.2159 22.4612 62.355 22.5934 62.514 22.5934H62.9141C63.1309 22.5934 63.3012 22.4689 63.3012 22.31V8.73614H67.9602C69.0092 8.73614 69.9969 9.09936 70.74 9.75796C71.4917 10.4252 71.9065 11.3233 71.9065 12.2859C71.9065 13.2871 71.4926 14.2188 70.7417 14.9091C70.0029 15.5892 69.0222 15.9636 67.981 15.9636H67.6682L68.3275 17.1134L71.3949 22.3968C71.4675 22.5333 71.5634 22.5926 71.7164 22.5926H72.4042C72.4932 22.5926 72.5623 22.5582 72.5986 22.4964C72.6046 22.4852 72.6012 22.4698 72.6055 22.4577C72.6055 22.456 72.6055 22.4543 72.6064 22.4517C72.6306 22.3753 72.6219 22.2826 72.5658 22.1967L69.3272 16.7184C71.5185 16.1207 72.9892 14.3398 72.9892 12.2859H72.9926Z"></path>
<path fill="#1D1D1D" d="M15.9327 0C7.14675 0 0 6.81357 0 15.1899C0 23.5663 7.14675 30.379 15.9327 30.379C24.7186 30.379 31.8653 23.5646 31.8653 15.1899C31.8653 6.81529 24.7186 0 15.9327 0ZM15.9327 27.9172C8.57075 27.9172 2.58185 22.207 2.58185 15.1899C2.58185 8.17285 8.57075 2.46267 15.9327 2.46267C23.2946 2.46267 29.2835 8.17199 29.2835 15.1899C29.2835 22.2079 23.2937 27.9172 15.9327 27.9172Z"></path>
<path fill="#1D1D1D" d="M10.7871 10.1117C10.6376 10.1117 10.5866 10.1899 10.654 10.317L15.6605 21.1912C15.6777 21.2367 15.7434 21.3329 15.8428 21.3329H15.9249C16.0251 21.3329 16.0925 21.2676 16.1245 21.1912L21.2139 10.3324C21.2813 10.2071 21.2139 10.1117 21.0661 10.1117H10.7871Z"></path>
</svg>
