<svg height="38" viewBox="0 0 265 38" width="265" xmlns="http://www.w3.org/2000/svg" xmlns:xlink="http://www.w3.org/1999/xlink"><mask id="a" fill="#fff"><path d="m0 0h264.124v38h-264.124z" fill="#fff" fill-rule="evenodd"/></mask><g fill="#042034" mask="url(#a)"><g transform="translate(0 -.006948)"><path d="m69.903.00694784c3.3408605-.10344643 6.5870118 1.11880323 9.03 3.4 2.3725187 2.18926861 3.6865653 5.29473319 3.606 8.52199996.0819106 3.2217606-1.2476815 6.3185412-3.64 8.478-2.5075265 2.2685981-5.7995444 3.4722164-9.179 3.356-3.2677719.1002399-6.4404254-1.1077729-8.814-3.356-2.3223103-2.1735774-3.6047159-5.2362124-3.524-8.416-.0918832-3.23589574 1.1988298-6.35775554 3.549-8.58399996 2.4161983-2.28667346 5.6471612-3.51106867 8.972-3.4m.133 3.151c-2.4443543-.08876071-4.8220694.8072056-6.6 2.487-1.7224087 1.65441688-2.6619344 3.96197927-2.585 6.34899996-.0607902 2.3527508.8828898 4.6201284 2.595 6.235 1.7442801 1.6639087 4.0824713 2.559639 6.492 2.487 2.4307481.0696777 4.7867174-.8447298 6.534-2.536 1.7262014-1.6416212 2.677878-3.9365421 2.62-6.318.0472664-2.34272831-.905595-4.59468169-2.62-6.19199996-1.721297-1.66583941-4.0393352-2.57086148-6.434-2.512"/><path d="m98.282.33894784h12.48v2.951h-9.13v6.465h9.13v2.95099996h-9.13v10.795h-3.35z"/><path d="m142.214.33894784h3.367v13.14799996c.043895 1.3540682-.090593 2.7080252-.4 4.027-.213881.7971672-.540869 1.5595797-.971 2.264-.387178.6065664-.863522 1.1513457-1.413 1.616-2.052725 1.6498228-4.637244 2.493312-7.268 2.372-2.648641.1307706-5.254493-.7058599-7.332-2.354-.547085-.4747754-1.02386-1.0249518-1.416-1.634-.422358-.6882876-.743957-1.4335211-.955-2.213-.300488-1.3489841-.427183-2.7308653-.377-4.112v-13.11399996h3.367v13.14799996c-.118492 1.5523206.140195 3.110272.754 4.541.546769.8930426 1.344701 1.6050591 2.294 2.047 1.134408.5386897 2.379572.8031372 3.635.772 1.75084.0774808 3.472354-.4689528 4.858-1.542.635253-.5190645 1.126032-1.1930676 1.425-1.957.35521-1.254885.502161-2.5595407.435-3.862z"/><path d="m173.289.00694784c3.340861-.10344643 6.587012 1.11880323 9.03 3.4 2.372519 2.18926861 3.686565 5.29473319 3.606 8.52199996.082929 3.2228242-1.246763 6.3209329-3.64 8.481-2.507526 2.2685981-5.799544 3.4722164-9.179 3.356-3.268141.0991002-6.440728-1.1099671-8.814-3.359-2.32168-2.1738587-3.603359-5.2364965-3.522-8.416-.092269-3.235766 1.198091-6.35765249 3.548-8.58399996 2.416133-2.28613365 5.64656-3.51046209 8.971-3.4m.133 3.151c-2.444354-.08876071-4.822069.8072056-6.6 2.487-1.722872 1.65432549-2.663395 3.96165918-2.588 6.34899996-.0595 2.353518.886047 4.6210135 2.6 6.235 3.708808 3.3351379 9.342388 3.313946 13.026-.049 1.726201-1.6416212 2.677878-3.9365421 2.62-6.318.047266-2.34272831-.905595-4.59468169-2.62-6.19199996-1.721297-1.66583941-4.039335-2.57086148-6.434-2.512"/><path d="m220.242.33894784h3.132v23.16199996h-3.367v-18.02199996l-7.2 8.95099996h-.619l-7.277-8.95099996v18.02199996h-3.349v-23.16199996h3.17l7.785 9.516z"/><path d="m251.486.00694784c3.340915-.103775 6.587187 1.11852027 9.03 3.4 2.373148 2.188985 3.687922 5.29444671 3.608 8.52199996.082929 3.2228242-1.246763 6.3209329-3.64 8.481-2.508085 2.2689958-5.800878 3.4726352-9.181 3.356-3.267373.0996366-6.439492-1.1083098-8.813-3.356-2.32168-2.1738587-3.603359-5.2364965-3.522-8.416-.092752-3.23632949 1.196787-6.35907944 3.546-8.58699996 2.41638-2.2863842 5.647217-3.51073186 8.972-3.4m.135 3.151c-2.444465-.08943913-4.822434.80662273-6.6 2.487-1.722409 1.65441688-2.661934 3.96197927-2.585 6.34899996-.061562 2.3524916.881413 4.6199222 2.593 6.235 3.70911 3.3363472 9.344091 3.3151533 13.028-.049 1.725463-1.6421279 2.676998-3.9367063 2.62-6.318.046501-2.34258093-.906234-4.59423471-2.62-6.19199996-1.721483-1.66555026-4.039395-2.57052307-6.434-2.512"/><path d="m0 23.4569478v-23.19399996h7.419c1.9427203-.09986229 3.8512427.53928908 5.342 1.789 1.3446346 1.22818897 2.0750177 2.98967966 1.994 4.809.0226165 1.26871502-.3324197 2.51551856-1.02 3.58199996-.6717289 1.0306071-1.6516062 1.8229079-2.8 2.264-1.64193571.5369359-3.36708864.774047-5.093.7h-2.477v10.05zm6.833-20.24299996h-3.468v7.24499996h3.668c1.13053948.0737191 2.24952863-.2644643 3.15-.95199996.7598868-.69609017 1.1642262-1.69848433 1.1-2.727 0-2.37733333-1.485-3.566-4.455-3.566"/><path d="m29.359 23.4579478v-23.15999996h5.862c2.026043-.10937183 4.0247022.50720939 5.637 1.739 1.3911949 1.15897135 2.1631148 2.89985781 2.088 4.709.0311175 1.24449676-.326086 2.46779645-1.022 3.49999996-.727021 1.0173572-1.7502229 1.7856317-2.93 2.2.8214426.5555403 1.5589527 1.2260346 2.19 1.991 1.100587 1.3965088 2.107458 2.8643889 3.014 4.394.816 1.3166667 1.4696667 2.3063334 1.961 2.969l1.239 1.658h-3.986l-1.02-1.521c-.035-.056-.1-.148-.2-.281l-.652-.913-1.037-1.692-1.123-1.814c-.5706012-.807348-1.2060369-1.5668609-1.9-2.271-.4616856-.4750549-.9866212-.8842355-1.56-1.216-.741901-.2991693-1.5418537-.4266831-2.34-.373h-.871v10.08zm4.355-20.34299996h-1v7.31199996h1.272c1.1809744.0737881 2.3653833-.0723557 3.493-.43099996.6133318-.27143821 1.128048-.72539422 1.474-1.3.3562101-.59822024.5387001-1.2838562.527-1.98.0077183-.70461095-.1968201-1.39523277-.587-1.982-.3915494-.59247631-.9731108-1.03402564-1.649-1.252-1.1508332-.29521522-2.3391279-.4178866-3.526-.364"/><path d="m55.193 35.301948h153.779v2.705h-153.779z"/></g></g></svg>