<?xml version="1.0" encoding="UTF-8"?>
<svg xmlns="http://www.w3.org/2000/svg" id="Layer_1" data-name="Layer 1" version="1.1" viewBox="0 0 279 103">
  <defs>
    <style>
      .cls-1, .cls-2, .cls-3, .cls-4 {
        stroke-width: 0px;
      }

      .cls-1, .cls-3 {
        fill: #f23a11;
      }

      .cls-2, .cls-4 {
        fill: #520b4d;
      }

      .cls-3, .cls-4 {
        fill-rule: evenodd;
      }
    </style>
  </defs>
  <g>
    <path class="cls-2" d="M130.7,61.8c6.6.8,13-2.1,12.9-9.3-.1-4.4-3.3-8.4-7.6-9.1-1,0-3.4,0-7.3,0-.5,0-.8-.4-.7-.8v-.6c.2-.5.5-.8,1.1-.8,2.6.1,5.7-.2,8.1.4,7.4,1.9,11.4,10.7,7,17.2-3.9,5.7-9.3,5.5-15.2,5.4-.5,0-.9-.5-.9-1.1v-17c0-.2.1-.4.4-.4h1.5c.3,0,.4,0,.4.4v15.2c0,.2.2.4.5.5h0Z"></path>
    <path class="cls-2" d="M170.5,53.3h-7.6c-.5,0-.9-.3-.9-.8v-.5c0-.6.3-.9.9-.9h9c.7,0,1.3.6,1.3,1.2,0,2.4,0,4.8,0,7.1,0,1.4-.8,2.3-1.9,3-4.3,2.2-8.2,2.3-11.8.4-12.5-6.8-4.1-25.9,9.7-20.7,1.2.5,2.3,1.1,3,1.8.2.4.2.8,0,1.2l-.2.2c-.5.5-.9.5-1.4.1-4.2-3.3-10.4-2.3-13.3,2-5.2,7.8,2.3,17,11,14.1.9-.3,1.6-.8,2.3-1.4.2-.2.4-.5.4-.8v-5.4c0-.3-.2-.5-.5-.5h0Z"></path>
    <path class="cls-2" d="M177.2,41.4h.1c.3,0,.5.1.7.4.2.2.4.4.4.6v21.1c0,.2-.1.5-.4.7-.2.2-.4.2-.7.2h-.1c-.3,0-.5,0-.7-.2-.2-.2-.4-.5-.4-.7v-21.1c0-.2.1-.4.4-.6.2-.2.4-.4.7-.4Z"></path>
    <path class="cls-2" d="M195.4,43.3h-12.9c-.6,0-1-.4-1.1-1.1v-.2c0-.5.4-.8.8-.8h16.3c.8,0,1.3.9.8,1.6l-14.6,18.5c-.3.4-.2.6.4.6h13.2c.5,0,.7.4.7.8v.4c0,.7-.5,1.1-1.3,1.1h-15.7c-.9,0-1.5-1.1-.9-1.8l14.5-18.5c.3-.4.2-.6-.2-.6Z"></path>
    <path class="cls-4" d="M224.6,52.7c0,6.3-5.2,11.5-11.5,11.5s-11.6-5.2-11.6-11.5,5.2-11.6,11.6-11.6,11.5,5.2,11.5,11.6ZM222.4,52.7c0-5.2-4.1-9.3-9.3-9.3s-9.4,4.1-9.4,9.3,4.2,9.3,9.4,9.3,9.3-4.1,9.3-9.3Z"></path>
    <path class="cls-2" d="M229.7,46.3s0,.2.1.5c0,.2.1.3.1.4v15.9c0,.7-.4,1.1-1.1,1.2h-.4c-.5,0-.7-.2-.7-.7v-20.1c0-2.8.9-3.1,2.6-.9l13.2,17.1c.2.2.4.2.4-.1v-17.2c0-.6.4-.9.8-.9h.5c.6,0,.9.3.9.8v21c-.1.6-.5,1.1-.9,1.2-.5.2-.9,0-1.3-.6-4.4-5.7-9-11.6-13.7-17.6-.5-.6-.7-.5-.6.2Z"></path>
    <path class="cls-2" d="M251.8,62.2h11.6c.2,0,.5.2.5.5v1.2c0,.2-.2.5-.5.5h-13.9c-.2,0-.5-.2-.5-.5v-21.9c0-.4.2-.6.5-.6h13.9c.4,0,.6.4.6.6l-.2,1.3c-.1.2-.2.5-.5.5h-11.5c-.2-.2-.5,0-.5.4v17.7c0,.2.2.5.5.5Z"></path>
    <path class="cls-2" d="M149.5,41.4h.4c.2,0,.4.2.6.4.2.2.4.4.4.6v21.1c0,.2-.1.5-.4.7-.2.2-.4.2-.6.2h-.4c-.2,0-.5,0-.7-.2-.2-.2-.2-.5-.2-.7v-21.1c0-.2,0-.4.2-.6.2-.2.5-.3.7-.4Z"></path>
    <path class="cls-2" d="M253.2,51.8h7c.2,0,.3,0,.5.1,0,.2.1.3.1.5v.9c0,.2,0,.3-.1.5-.2,0-.3.1-.5.1h-7c-.2,0-.3,0-.5-.1,0-.2-.1-.3-.1-.5v-.9c0-.2,0-.3.1-.5.2,0,.3-.1.5-.1Z"></path>
    <path class="cls-1" d="M200.2,74.4v16c0,.2-.2.4-.4.4h-.9c-.1-.1-.3-.2-.3-.4v-16c0-.2-.1-.3-.3-.3h-5.2c-.1,0-.3-.2-.3-.4v-1c0-.2.2-.3.4-.3h12.5c.2,0,.4.1.4.3v1c0,.2-.1.4-.3.4h-5.3c-.2,0-.3.1-.3.3h0Z"></path>
    <path class="cls-1" d="M234.3,76.5v13.5c0,.6-.3.9-.9.8h-.2c-.3,0-.6-.3-.6-.7v-16.9c0-.2,0-.4.2-.6.4-.4.8-.4,1.2.1,3.8,4.7,7.5,9.5,11.1,14.1.3.3.5.3.5-.2v-13.5c-.1-.6.2-.8.7-.8h.3c.3.1.6.4.6.7v17.1c0,.2-.1.5-.3.6-.6.3-1,.1-1.4-.4-3.6-4.7-7.2-9.4-10.8-14-.3-.3-.4-.3-.4.2h0Z"></path>
    <path class="cls-1" d="M141.2,74.2c.6,0,.9-.3.9-.8v-.3c.1-.3-.2-.6-.5-.6h-8.9c-6.6.1-6.7,9.7-.4,10,2,0,5.2-.1,6.7.7,2.1,1.1,1.8,4.4-.3,5.5-2.1,1.1-7.7.3-10.2.3s-.9.4-.9.8v.3c0,.3.3.5.6.5,3.1,0,9.3.8,11.8-.6,3-1.8,2.8-6.8-.4-8.5-2.7-1.4-6.1.1-8.7-1.3-2-1.2-2-4.1-.2-5.4h0c1.9-1.2,8.1-.6,10.5-.6Z"></path>
    <path class="cls-1" d="M262.7,74.2c.6,0,.9-.3.9-.8v-.3c.1-.3-.2-.6-.5-.6h-8.9c-6.6.1-6.7,9.7-.4,10,2,0,5.2-.1,6.7.7,2.1,1.1,1.8,4.4-.3,5.5-2.1,1.1-7.7.3-10.2.3s-.9.4-.9.8v.3c0,.3.3.5.6.5,3.1,0,9.3.8,11.8-.6,3-1.8,2.8-6.8-.4-8.5-2.7-1.4-6.1.1-8.7-1.3-2-1.2-2-4.1-.2-5.4h0c1.9-1.2,8.1-.6,10.5-.6Z"></path>
    <path class="cls-3" d="M162.7,81.5c0,5.2-4.1,9.3-9.3,9.3s-9.2-4.1-9.2-9.3,4.1-9.2,9.2-9.2,9.3,4.1,9.3,9.2ZM161,81.7c0-4.2-3.3-7.5-7.5-7.5s-7.4,3.3-7.4,7.5,3.3,7.5,7.4,7.5,7.5-3.4,7.5-7.5Z"></path>
    <path class="cls-1" d="M167.4,89.2h8.4c.2,0,.4.1.4.3v1c0,.1-.1.3-.3.3h-10.1c-.2,0-.3-.2-.3-.3v-17.7c0-.1.1-.3.3-.3h1c.1,0,.3.1.3.3v16c0,.2.1.4.3.4Z"></path>
    <path class="cls-1" d="M181.1,87.7c2.3,2.1,5.9,1.7,7.3-1.1.5-.9.7-2.4.6-4.4v-9.2c0-.4.2-.6.7-.6h.3c.4,0,.6.2.6.6,0,3.3,0,6.7,0,10.2,0,2-.3,3.5-.9,4.6-3.4,5.6-11.7,2.8-11.7-3.8,0-3.6-.1-7.3-.1-10.8s.4-.8.8-.8h.2c.4,0,.7.3.7.6,0,4-.1,8-.1,12.1,0,1,.5,1.9,1.4,2.7Z"></path>
    <path class="cls-1" d="M208.7,72.4h.1c.2,0,.4,0,.5.2.1.2.2.4.2.6v16.8c0,.2,0,.4-.2.6-.1.1-.3.2-.5.2h-.1c-.2,0-.4,0-.5-.2-.2-.2-.3-.4-.3-.6v-16.8c0-.2.1-.4.3-.6.1-.1.3-.2.5-.2Z"></path>
    <path class="cls-3" d="M230.2,81.5c0,5.2-4.2,9.3-9.3,9.3s-9.3-4.1-9.3-9.3,4.1-9.2,9.3-9.2,9.3,4.1,9.3,9.2ZM228.3,81.7c0-4.2-3.3-7.5-7.4-7.5s-7.5,3.3-7.5,7.5,3.3,7.4,7.5,7.4,7.4-3.3,7.4-7.4Z"></path>
  </g>
  <g>
    <path class="cls-2" d="M26.9,64.8c.8,7.4,5.1,12,12.8,13.7,8.9,1.9,14.1-3.8,19-10.2,4-5.3,7.3-9.8,9.9-13.7.1-.2.2-.4.3-.6,0-.2.2-.4.4-.6,2.7-3.1,4.9-6.4,8.2-9.6,2.3-2.2,4.4-3.9,6.4-5,7.1-4.1,14.7-5.1,23-3.1,4.1.9,8.3,2.9,12.6,5.8.9.4,1.8,1.3,2.9,2.8,0,.2,0,.5,0,.7l-7.9,7.7c-.2.2-.5,0-.7,0-9.9-12.3-25.2-5.9-33.3,4.6-4.9,6.3-9.5,12.8-14,19.4-4,5.9-9.3,9.9-15.9,12-15.8,5.1-32.5-6-35.1-22.1-2-13.2,4.4-24.7,16.3-30.1,9.1-4.2,18.4-2.9,26.8,2.2.3.2.7,0,.7-.4V12.6c0-.2.3-.4.5-.4h10.8c.3,0,.5.2.5.5v29.4c0,2.9-.3,4.4-2,6.8-3.1,4.4-6,8.7-8.9,12.9-.5.7-.8.6-.9-.3-.9-16.4-22.6-21.8-30.4-7.1-1.5,3-2.2,6.5-1.9,10.4Z"></path>
    <path class="cls-1" d="M92.1,88.2c-7.1-3.4-11.8-8.9-14.1-16.5,0-.3,0-.4.2-.4h11.6c.2,0,.4.1.5.2,1.4,1.3,2.7,3.3,3.9,4.3,4.3,3.8,13.5,6.4,16.5-.6.9-2.3.2-3.7-2.1-4.4-3.5-1-7.1-1.9-10.7-2.8-7-1.7-11.2-3.4-15.8-7.5-.3-.3-.3-.5,0-.8l8.4-7.4c.4-.4,1-.4,1.5,0,5.1,3.4,11.9,4.4,17.8,6,5.4,1.4,10.7,3.7,13.2,8.8,3.5,7.1-.8,15.5-6.8,19.8-7,5.1-16.4,5.2-24.1,1.4Z"></path>
    <path class="cls-1" d="M60.8,87.2c4.9-2.9,7.8-6.4,10.7-11,.5-.8.7-.7.7.2v13.8c0,.2,0,.3-.3.3h-11c-.3,0-.4-.1-.4-.3v-2.4c0-.3,0-.5.3-.6Z"></path>
  </g>
</svg>
