<svg width="199" height="51" viewBox="0 0 199 51" fill="none" xmlns="http://www.w3.org/2000/svg">
<path d="M0 14H30.8671L34 10H0V14Z" fill="#AB2D7B"/>
<path d="M21.7748 0H13V3.9208H21.7748V0Z" fill="black"/>
<path d="M15.4062 3.88144V7.80225H19.3271V3.88144L15.4062 3.88144Z" fill="black"/>
<path d="M0 14L0 47H4L4 14H0Z" fill="#AB2D7B"/>
<path d="M21.256 39L15.592 31.56V39H11.488V22.152H15.592V29.544L21.208 22.152H26.032L19.504 30.408L26.272 39H21.256ZM38.8544 39L35.3504 32.64H34.3664V39H30.2624V22.152H37.1504C38.4784 22.152 39.6064 22.384 40.5344 22.848C41.4784 23.312 42.1824 23.952 42.6464 24.768C43.1104 25.568 43.3424 26.464 43.3424 27.456C43.3424 28.576 43.0224 29.576 42.3824 30.456C41.7584 31.336 40.8304 31.96 39.5984 32.328L43.4864 39H38.8544ZM34.3664 29.736H36.9104C37.6624 29.736 38.2224 29.552 38.5904 29.184C38.9744 28.816 39.1664 28.296 39.1664 27.624C39.1664 26.984 38.9744 26.48 38.5904 26.112C38.2224 25.744 37.6624 25.56 36.9104 25.56H34.3664V29.736ZM58.4466 36.024H52.1586L51.1506 39H46.8546L52.9506 22.152H57.7026L63.7986 39H59.4546L58.4466 36.024ZM57.3906 32.856L55.3026 26.688L53.2386 32.856H57.3906ZM58.1106 18.768L52.3266 21.192V18.36L58.1106 15.576V18.768ZM73.7899 39.168C72.5579 39.168 71.4539 38.968 70.4779 38.568C69.5019 38.168 68.7179 37.576 68.1259 36.792C67.5499 36.008 67.2459 35.064 67.2139 33.96H71.5819C71.6459 34.584 71.8619 35.064 72.2299 35.4C72.5979 35.72 73.0779 35.88 73.6699 35.88C74.2779 35.88 74.7579 35.744 75.1099 35.472C75.4619 35.184 75.6379 34.792 75.6379 34.296C75.6379 33.88 75.4939 33.536 75.2059 33.264C74.9339 32.992 74.5899 32.768 74.1739 32.592C73.7739 32.416 73.1979 32.216 72.4459 31.992C71.3579 31.656 70.4699 31.32 69.7819 30.984C69.0939 30.648 68.5019 30.152 68.0059 29.496C67.5099 28.84 67.2619 27.984 67.2619 26.928C67.2619 25.36 67.8299 24.136 68.9659 23.256C70.1019 22.36 71.5819 21.912 73.4059 21.912C75.2619 21.912 76.7579 22.36 77.8939 23.256C79.0299 24.136 79.6379 25.368 79.7179 26.952H75.2779C75.2459 26.408 75.0459 25.984 74.6779 25.68C74.3099 25.36 73.8379 25.2 73.2619 25.2C72.7659 25.2 72.3659 25.336 72.0619 25.608C71.7579 25.864 71.6059 26.24 71.6059 26.736C71.6059 27.28 71.8619 27.704 72.3739 28.008C72.8859 28.312 73.6859 28.64 74.7739 28.992C75.8619 29.36 76.7419 29.712 77.4139 30.048C78.1019 30.384 78.6939 30.872 79.1899 31.512C79.6859 32.152 79.9339 32.976 79.9339 33.984C79.9339 34.944 79.6859 35.816 79.1899 36.6C78.7099 37.384 78.0059 38.008 77.0779 38.472C76.1499 38.936 75.0539 39.168 73.7899 39.168ZM99.5716 39H95.4676L88.6036 28.608V39H84.4996V22.152H88.6036L95.4676 32.592V22.152H99.5716V39ZM108.69 25.44V28.848H114.186V32.016H108.69V35.712H114.906V39H104.586V22.152H114.906V25.44H108.69ZM142.553 22.152L136.577 39H131.441L125.465 22.152H129.833L134.009 34.872L138.209 22.152H142.553ZM154.276 39.168C152.692 39.168 151.236 38.8 149.908 38.064C148.596 37.328 147.548 36.304 146.764 34.992C145.996 33.664 145.612 32.176 145.612 30.528C145.612 28.88 145.996 27.4 146.764 26.088C147.548 24.776 148.596 23.752 149.908 23.016C151.236 22.28 152.692 21.912 154.276 21.912C155.86 21.912 157.308 22.28 158.62 23.016C159.948 23.752 160.988 24.776 161.74 26.088C162.508 27.4 162.892 28.88 162.892 30.528C162.892 32.176 162.508 33.664 161.74 34.992C160.972 36.304 159.932 37.328 158.62 38.064C157.308 38.8 155.86 39.168 154.276 39.168ZM154.276 35.424C155.62 35.424 156.692 34.976 157.492 34.08C158.308 33.184 158.716 32 158.716 30.528C158.716 29.04 158.308 27.856 157.492 26.976C156.692 26.08 155.62 25.632 154.276 25.632C152.916 25.632 151.828 26.072 151.012 26.952C150.212 27.832 149.812 29.024 149.812 30.528C149.812 32.016 150.212 33.208 151.012 34.104C151.828 34.984 152.916 35.424 154.276 35.424ZM154.252 19.224L150.532 21.192V18.36L154.252 16.464L157.972 18.36V21.192L154.252 19.224ZM182.287 39H178.183L171.319 28.608V39H167.215V22.152H171.319L178.183 32.592V22.152H182.287V39ZM191.406 25.44V28.848H196.902V32.016H191.406V35.712H197.622V39H187.302V22.152H197.622V25.44H191.406Z" fill="black"/>
<path d="M0 50.9208H34.0404L30.9038 47H0V50.9208Z" fill="#AB2D7B"/>
</svg>
