<svg id="Layer_1" data-name="Layer 1" xmlns="http://www.w3.org/2000/svg" xmlns:xlink="http://www.w3.org/1999/xlink" viewBox="0 0 1920 1080"><defs><linearGradient id="linear-gradient" x1="854.61" y1="567.66" x2="1039.36" y2="460.99" gradientUnits="userSpaceOnUse"><stop offset="0.1" stop-color="#f37021"/><stop offset="0.9" stop-color="#ffcb05"/></linearGradient></defs><title>Untitled-1</title><path d="M893,672.92v-7.11h.93l.11,1h0a2.66,2.66,0,0,1,2.49-1.32,2.25,2.25,0,0,1,2.26,1.43h0a3,3,0,0,1,2.68-1.43,2.35,2.35,0,0,1,2.46,2.66v4.73h-1.08v-4.66a1.58,1.58,0,0,0-1.71-1.75A2.17,2.17,0,0,0,899,669v4h-1.07v-4.66a1.59,1.59,0,0,0-1.72-1.75A2.17,2.17,0,0,0,894,669v4Z" fill="#fff"/><path d="M907.66,671.06c0-1.14.9-2,3.21-2.33l1.76-.22c.35,0,.58-.23.58-.55,0-.88-.85-1.46-2.09-1.46a2.17,2.17,0,0,0-2.33,1.71l-1-.41c.13-1.17,1.51-2.27,3.36-2.27s3.09,1,3.09,2.6v3.61c0,.28.16.48.38.48a.77.77,0,0,0,.58-.42l.58.67a1.82,1.82,0,0,1-1.44.74,1.15,1.15,0,0,1-1.17-1.15v-.32h0a3,3,0,0,1-2.76,1.47C908.79,673.21,907.66,672.33,907.66,671.06Zm5.52-1.18v-.51l-2.2.27c-1.72.21-2.25.76-2.25,1.41s.77,1.18,1.86,1.18A2.39,2.39,0,0,0,913.18,669.88Z" fill="#fff"/><path d="M924.59,667.74l-.93.31c-.11-1-.63-1.54-1.41-1.54-1.14,0-1.86,1-1.86,2.5v3.91h-1.07v-7.11h.92l.09,1.11h0a2.26,2.26,0,0,1,2.06-1.41A2.17,2.17,0,0,1,924.59,667.74Z" fill="#fff"/><path d="M928.39,672.92V662.57h1.07V669h0l3-3.21h1.42l-2.69,2.8,2.93,4.31h-1.29l-2.37-3.53-1,1.07v2.46Z" fill="#fff"/><path d="M936.75,669.29a3.57,3.57,0,0,1,3.63-3.76,3.49,3.49,0,0,1,3.48,3.77,3.24,3.24,0,0,1,0,.43h-6a2.87,2.87,0,0,0,5.28,1.15l.93.38a3.56,3.56,0,0,1-3.39,2A3.8,3.8,0,0,1,936.75,669.29Zm6-.51a2.28,2.28,0,0,0-2.35-2.27,2.49,2.49,0,0,0-2.5,2.27Z" fill="#fff"/><path d="M948.51,671V666.7H947v-.89h1.56V663.7l1.07-.26v2.37h3.18v.89h-3.18v4.19a1.26,1.26,0,0,0,1.27,1.39,1.58,1.58,0,0,0,1.52-1.44l.87.37a2.43,2.43,0,0,1-2.49,2A2.12,2.12,0,0,1,948.51,671Z" fill="#fff"/><path d="M956.82,675.88V665.81h.93l.11,1.23h0a3.17,3.17,0,0,1,2.77-1.51,3.85,3.85,0,0,1,0,7.68,3.21,3.21,0,0,1-2.76-1.47h0v4.14Zm6.37-6.51a2.67,2.67,0,1,0-2.67,2.85A2.69,2.69,0,0,0,963.19,669.37Z" fill="#fff"/><path d="M968.22,672.92V662.57h1.07v10.35Z" fill="#fff"/><path d="M973.09,671.06c0-1.14.9-2,3.21-2.33l1.76-.22c.35,0,.58-.23.58-.55,0-.88-.85-1.46-2.09-1.46a2.17,2.17,0,0,0-2.33,1.71l-1-.41c.12-1.17,1.5-2.27,3.35-2.27s3.1,1,3.1,2.6v3.61c0,.28.15.48.38.48a.77.77,0,0,0,.57-.42l.58.67a1.82,1.82,0,0,1-1.44.74,1.15,1.15,0,0,1-1.17-1.15v-.32h0a3,3,0,0,1-2.76,1.47C974.22,673.21,973.09,672.33,973.09,671.06Zm5.52-1.18v-.51l-2.2.27c-1.71.21-2.25.76-2.25,1.41s.78,1.18,1.86,1.18A2.39,2.39,0,0,0,978.61,669.88Z" fill="#fff"/><path d="M983.77,669.37a3.55,3.55,0,0,1,3.55-3.84,3.26,3.26,0,0,1,3.26,2.43l-1,.25a2.28,2.28,0,0,0-2.22-1.7,2.58,2.58,0,0,0-2.48,2.86,2.66,2.66,0,0,0,2.69,2.86,2.5,2.5,0,0,0,2.56-2.05l1,.21a3.52,3.52,0,0,1-3.6,2.82A3.65,3.65,0,0,1,983.77,669.37Z" fill="#fff"/><path d="M994.66,669.29a3.57,3.57,0,0,1,3.63-3.76c2.09,0,3.45,1.58,3.48,3.77a3.24,3.24,0,0,1,0,.43h-6a2.87,2.87,0,0,0,5.28,1.15l.93.38a3.56,3.56,0,0,1-3.39,2A3.8,3.8,0,0,1,994.66,669.29Zm6-.51a2.28,2.28,0,0,0-2.35-2.27,2.49,2.49,0,0,0-2.5,2.27Z" fill="#fff"/><path d="M845,642.26V600.37h13.48v21.34h.06l10.95-8.42h16.56l-14.49,10.89,14.66,18.08H871l-8.76-11.46-3.71,2.76v8.7Z" fill="#fff"/><path d="M883.5,627.72c0-9,9.43-15.39,23-15.39,13.25,0,21.95,6.12,21.95,15.5a11.36,11.36,0,0,1-.39,2.92H897.65c1.52,3.48,6.57,4.83,12,4.83,5.78,0,11.62-1.24,14.6-2.92l3.59,6.34c-3.93,2.47-11.34,4.16-19.09,4.16C893.72,643.16,883.5,637.15,883.5,627.72Zm31.39-2.59c-.17-3.31-3.87-5.56-8.54-5.56s-8.42,2.25-8.92,5.56Z" fill="#fff"/><path d="M932.47,603.68c0-3.81,3.09-6.51,7.41-6.51s7.36,2.7,7.36,6.51-3.09,6.57-7.36,6.57S932.47,607.56,932.47,603.68Zm.67,38.58v-29h13.42v29Z" fill="#fff"/><path d="M951.79,642.26V600.37h13.47v21.34h.06l10.95-8.42h16.56l-14.48,10.89L993,642.26H977.73L969,630.8l-3.71,2.76v8.7Z" fill="#fff"/><path d="M990.25,627.72c0-9,9.44-15.39,23-15.39,13.25,0,22,6.12,22,15.5a11.4,11.4,0,0,1-.4,2.92H1004.4c1.52,3.48,6.57,4.83,12,4.83,5.78,0,11.62-1.24,14.6-2.92l3.59,6.34c-3.93,2.47-11.34,4.16-19.09,4.16C1000.47,643.16,990.25,637.15,990.25,627.72Zm31.39-2.59c-.17-3.31-3.87-5.56-8.53-5.56s-8.43,2.25-8.93,5.56Z" fill="#fff"/><path d="M1039.22,603.68c0-3.81,3.09-6.51,7.41-6.51s7.36,2.7,7.36,6.51-3.09,6.57-7.36,6.57S1039.22,607.56,1039.22,603.68Zm.68,38.58v-29h13.42v29Z" fill="#fff"/><rect x="846.31" y="449.48" width="7.48" height="7.48" fill="#f58220"/><rect x="861.66" y="454.46" width="10.8" height="10.8" fill="#f15a22"/><rect x="849.86" y="471.05" width="11.71" height="11.71" fill="#faa61a"/><rect x="881.43" y="446.36" width="13.71" height="13.71" fill="#ffcb05"/><rect x="869.33" y="473.09" width="18.45" height="18.45" fill="#f58220"/><path d="M1011.1,530l-2.34,53.73L876.06,565.1l3-12.54c19-3.93,48.25-15.19,79.71-31.35l-.49-1.06c-2.36.81-4.76,1.65-7.17,2.53h0c-57,20.78-107,29.1-111.75,18.58-3.45-7.65,18-23.13,51.78-39l4.05-16.88h14v10.51h12.37V483.5H911.09V468H899.38l7.42-30.9,25.44,3.57,1.57-11.16a28.72,28.72,0,0,1,33.08-24.3c15.45,2.54,25.83,17.31,23.65,32.82L989,448.7l25.45,3.57-1.44,33c-18.38,5.07-41.39,13.64-65.66,24.86l.56,1.23c56.26-20.33,105.36-28.38,110.06-18C1061.3,500.62,1042.08,515,1011.1,530ZM889.73,508.18c-9.79,6.16-15.06,11.56-13.57,14.84.9,2,4.19,3,9.27,3.07Zm30.5-58.3h-7.47v7.47h7.47ZM932,462.42H920.56v11.47H932Zm39.14-3.64H965V465h6.2Zm-32-17.09,42.91,6,1.57-11.16a21.67,21.67,0,1,0-42.91-6Zm-1.36,43.58h15.29V470H937.83Zm47,64.54L999,547.86l-30.53-25.45.11,39.74,10.53-9.65L986,567.29l5.73-2.69Zm36.43-38.24c-.89-2-4.16-3-9.2-3.07l-.68,15.47C1018.75,518.84,1022.53,514.42,1021.24,511.57Z" fill="url(#linear-gradient)"/></svg>