<svg width="2992" height="723" viewBox="0 0 2992 723" fill="none" xmlns="http://www.w3.org/2000/svg">
<path d="M387.02 649.96C387.78 672.19 403.88 702.84 414.61 716.64C416.14 718.93 415.37 722.77 411.54 722.77C356.36 722 0 722.77 0 722.77V711.27L54.41 686.75L55.1801 488.26L54.41 200.1L0 176.34V165.62C0 165.62 356.36 164.85 411.54 164.85C415.37 164.85 416.14 167.91 414.61 170.21C403.88 184.77 387.78 214.66 387.02 236.89C386.25 291.3 385.48 347.25 386.25 351.84C380.89 351.84 375.52 351.84 367.86 351.84C359.43 292.83 331.07 202.4 274.36 182.48C247.54 172.51 197.72 174.81 188.53 206.23C186.23 215.43 184.7 227.69 184.7 246.85V449.17C237.58 350.31 322.64 350.31 316.51 403.96C310.38 457.6 318.04 566.43 318.04 566.43H308.85C299.65 509.72 275.13 364.11 184.7 469.86V640C184.7 659.16 186.23 671.42 188.53 680.62C197.72 712.04 247.54 714.34 274.36 705.14C331.07 684.45 359.43 594.78 367.86 535.01C374.76 535.01 380.12 535.01 386.25 535.01C385.48 539.6 386.25 595.55 387.02 649.96Z" fill="#FF5757"/>
<path d="M584.54 251.32L585.33 480.89C585.33 618.32 603.6 671.54 745.8 645.33C801.4 635 862.57 622.29 902.29 622.29C934.86 623.09 943.59 631.03 953.13 665.98L967.43 720C924.53 687.43 811.73 720 750.56 720C687.81 720 613.14 682.66 585.33 611.17C585.33 647.71 585.33 684.25 585.33 720H495.57C495.57 720 503.51 679.49 503.51 632.62V251.32C503.51 204.45 495.57 163.94 495.57 163.94H592.48C592.48 163.94 584.54 204.45 584.54 251.32ZM1337.25 163.94L1536.64 642.15C1552.52 679.49 1573.18 715.23 1576.35 720H1480.24L1290.38 264.83C1280.85 241.79 1264.17 200.48 1249.07 176.65C1227.63 282.3 1117.21 419.73 1073.52 523C1030.62 624.68 1062.4 669.16 1119.59 641.36C1165.66 618.32 1231.6 540.47 1268.93 499.96C1288.79 478.51 1315.8 464.21 1341.22 476.13C1356.31 482.48 1381.73 511.88 1394.44 523.79C1370.61 518.23 1340.43 535.71 1314.21 558.74C1255.43 609.58 1187.11 720 1108.47 720C1066.37 720 1037.77 701.73 1024.27 669.16C986.14 575.42 1092.58 444.35 1141.04 369.68C1169.64 325.2 1240.34 213.19 1241.92 163.94H1337.25ZM1769.1 185.39L1694.43 575.42C1680.13 646.92 1699.99 720 1699.99 720H1647.56C1647.56 720 1663.45 679.49 1672.19 632.62L1762.75 163.94H1844.57L1971.66 571.45L2098.76 163.94H2180.58L2268.76 619.91C2275.11 654.07 2282.26 687.43 2294.97 720H2197.27C2201.24 699.35 2197.27 674.72 2191.71 645.33L2102.74 186.18L1940.68 706.5H1931.95L1769.1 185.39ZM2463.6 163.94C2463.6 163.94 2455.65 204.45 2455.65 251.32V632.62C2455.65 679.49 2463.6 720 2463.6 720H2366.68C2366.68 720 2374.63 679.49 2374.63 632.62V251.32C2374.63 204.45 2366.68 163.94 2366.68 163.94H2463.6ZM2623.99 632.62C2623.99 679.49 2631.94 720 2631.94 720H2535.02C2535.02 720 2542.97 679.49 2542.97 632.62V251.32C2542.97 204.45 2535.02 163.94 2535.02 163.94H2817.02C2905.2 163.94 2983.84 209.22 2983.84 304.54C2983.84 393.51 2922.67 424.49 2851.18 443.56C2824.97 450.71 2794.78 457.06 2766.98 465.8H2810.67C2834.5 465.8 2841.65 468.18 2853.56 489.63L2929.82 623.88C2944.92 650.89 2976.69 703.32 2991.79 720H2918.7C2894.08 720 2884.55 709.67 2873.42 689.81L2768.57 504.73C2751.09 474.54 2720.9 478.51 2698.66 500.75C2689.92 510.29 2681.98 522.2 2678.01 534.12C2680.39 499.96 2710.58 476.92 2745.53 458.65C2821 418.93 2897.25 410.99 2897.25 304.54C2897.25 200.48 2829.73 175.06 2739.97 175.06H2624.79C2624.79 327.58 2623.99 480.1 2623.99 632.62Z" fill="#FF5757"/>
<path d="M1099.57 228.34C1011.89 236.31 961.52 243.63 930.59 267.85C894.24 296.2 885.64 348.14 876.07 452C866.19 344.31 857.26 292.7 817.41 264.98C786.48 243.32 736.42 236.31 652.57 228.66C739.93 220.69 790.62 213.37 821.23 189.47C857.9 160.8 866.51 109.18 876.07 5C885 100.9 892.97 152.19 922.62 181.82C952.27 211.45 1003.92 219.74 1099.57 228.34Z" fill="#FF3131" stroke="#FF3131" stroke-width="10" stroke-linejoin="round"/>
</svg>
