<svg width="2994" height="1098" viewBox="0 0 2994 1098" fill="none" xmlns="http://www.w3.org/2000/svg">
<path d="M389.06 649.96C389.82 672.19 405.92 702.84 416.65 716.64C418.18 718.93 417.41 722.77 413.58 722.77C358.4 722 2.04004 722.77 2.04004 722.77V711.27L56.4501 686.75L57.2201 488.26L56.4501 200.1L2.04004 176.34V165.62C2.04004 165.62 358.4 164.85 413.58 164.85C417.41 164.85 418.18 167.91 416.65 170.21C405.92 184.77 389.82 214.66 389.06 236.89C388.29 291.3 387.52 347.25 388.29 351.84C382.93 351.84 377.56 351.84 369.9 351.84C361.47 292.83 333.11 202.4 276.4 182.48C249.58 172.51 199.76 174.81 190.57 206.23C188.27 215.43 186.74 227.69 186.74 246.85V449.17C239.62 350.31 324.68 350.31 318.55 403.96C312.42 457.6 320.08 566.43 320.08 566.43H310.89C301.69 509.72 277.17 364.11 186.74 469.86V640C186.74 659.16 188.27 671.42 190.57 680.62C199.76 712.04 249.58 714.34 276.4 705.14C333.11 684.45 361.47 594.78 369.9 535.01C376.8 535.01 382.16 535.01 388.29 535.01C387.52 539.6 388.29 595.55 389.06 649.96Z" fill="#FF5757"/>
<path d="M586.58 251.32L587.37 480.89C587.37 618.32 605.64 671.54 747.84 645.33C803.44 635 864.61 622.29 904.33 622.29C936.9 623.09 945.63 631.03 955.17 665.98L969.47 720C926.57 687.43 813.77 720 752.6 720C689.85 720 615.18 682.66 587.37 611.17C587.37 647.71 587.37 684.25 587.37 720H497.61C497.61 720 505.55 679.49 505.55 632.62V251.32C505.55 204.45 497.61 163.94 497.61 163.94H594.52C594.52 163.94 586.58 204.45 586.58 251.32ZM1339.29 163.94L1538.68 642.15C1554.56 679.49 1575.22 715.23 1578.39 720H1482.28L1292.42 264.83C1282.89 241.79 1266.21 200.48 1251.11 176.65C1229.67 282.3 1119.25 419.73 1075.56 523C1032.66 624.68 1064.44 669.16 1121.63 641.36C1167.7 618.32 1233.64 540.47 1270.97 499.96C1290.83 478.51 1317.84 464.21 1343.26 476.13C1358.35 482.48 1383.77 511.88 1396.48 523.79C1372.65 518.23 1342.47 535.71 1316.25 558.74C1257.47 609.58 1189.15 720 1110.51 720C1068.41 720 1039.81 701.73 1026.31 669.16C988.18 575.42 1094.62 444.35 1143.08 369.68C1171.68 325.2 1242.38 213.19 1243.96 163.94H1339.29ZM1771.14 185.39L1696.47 575.42C1682.17 646.92 1702.03 720 1702.03 720H1649.6C1649.6 720 1665.49 679.49 1674.23 632.62L1764.79 163.94H1846.61L1973.7 571.45L2100.8 163.94H2182.62L2270.8 619.91C2277.15 654.07 2284.3 687.43 2297.01 720H2199.31C2203.28 699.35 2199.31 674.72 2193.75 645.33L2104.78 186.18L1942.72 706.5H1933.99L1771.14 185.39ZM2465.64 163.94C2465.64 163.94 2457.69 204.45 2457.69 251.32V632.62C2457.69 679.49 2465.64 720 2465.64 720H2368.72C2368.72 720 2376.67 679.49 2376.67 632.62V251.32C2376.67 204.45 2368.72 163.94 2368.72 163.94H2465.64ZM2626.03 632.62C2626.03 679.49 2633.98 720 2633.98 720H2537.06C2537.06 720 2545.01 679.49 2545.01 632.62V251.32C2545.01 204.45 2537.06 163.94 2537.06 163.94H2819.06C2907.24 163.94 2985.88 209.22 2985.88 304.54C2985.88 393.51 2924.71 424.49 2853.22 443.56C2827.01 450.71 2796.82 457.06 2769.02 465.8H2812.71C2836.54 465.8 2843.69 468.18 2855.6 489.63L2931.86 623.88C2946.96 650.89 2978.73 703.32 2993.83 720H2920.74C2896.12 720 2886.59 709.67 2875.46 689.81L2770.61 504.73C2753.13 474.54 2722.94 478.51 2700.7 500.75C2691.96 510.29 2684.02 522.2 2680.05 534.12C2682.43 499.96 2712.62 476.92 2747.57 458.65C2823.04 418.93 2899.29 410.99 2899.29 304.54C2899.29 200.48 2831.77 175.06 2742.01 175.06H2626.83C2626.83 327.58 2626.03 480.1 2626.03 632.62Z" fill="#FF5757"/>
<path d="M92.87 1062.46C89.18 1071.84 83.35 1079.22 75.26 1084.9C66.88 1090.58 57.94 1093.42 48.14 1093.42C34.65 1093.42 23.29 1088.59 13.92 1078.65C4.54004 1069 0 1057.49 0 1043.86C0 1037.19 1.14006 1030.8 3.69006 1024.83C6.11006 1018.87 9.51004 1013.47 13.92 1008.93C23.29 999.13 34.65 994.16 48.14 994.16C57.94 994.16 66.88 997 75.12 1002.68C83.21 1008.36 89.03 1015.75 92.73 1024.83H81.79C76.54 1015.32 68.73 1009.07 58.36 1005.95C54.95 1004.95 51.1201 1004.39 46.7201 1004.39C42.1701 1004.39 37.6301 1005.52 33.0901 1007.65C28.4001 1009.78 24.28 1012.62 20.87 1016.17C13.49 1023.84 9.94006 1033.07 9.94006 1043.86C9.94006 1054.65 13.49 1063.88 20.87 1071.41C28.4 1079.36 37.49 1083.2 48.14 1083.2C55.24 1083.2 61.91 1081.35 67.88 1077.52C73.84 1073.82 78.5301 1068.71 81.9301 1062.46H92.87ZM300.69 1043.44C300.69 1032.64 296.71 1023.27 289.04 1015.46C281.23 1007.79 271.86 1003.82 260.93 1003.82C249.99 1003.82 240.62 1007.79 232.81 1015.46C225.14 1023.27 221.17 1032.64 221.17 1043.44C221.17 1054.51 225.14 1063.88 232.81 1071.55C240.62 1079.36 249.99 1083.2 260.93 1083.2C271.86 1083.2 281.23 1079.36 289.04 1071.55C296.71 1063.88 300.69 1054.51 300.69 1043.44ZM310.63 1043.44C310.63 1050.25 309.21 1056.78 306.65 1062.75C304.1 1068.85 300.55 1074.11 296 1078.65C291.46 1083.2 286.2 1086.75 280.1 1089.3C274.13 1091.86 267.6 1093.28 260.79 1093.28C253.97 1093.28 247.58 1091.86 241.62 1089.3C235.65 1086.75 230.4 1083.2 225.85 1078.65C221.31 1074.11 217.76 1068.85 215.2 1062.75C212.65 1056.78 211.23 1050.25 211.23 1043.44C211.23 1036.62 212.65 1030.23 215.2 1024.12C217.76 1018.16 221.31 1012.91 225.85 1008.36C230.4 1003.96 235.65 1000.41 241.62 997.85C247.58 995.3 253.97 994.02 260.79 994.02C267.6 994.02 274.13 995.3 280.1 997.85C286.2 1000.41 291.46 1003.96 296 1008.36C300.55 1012.91 304.1 1018.16 306.65 1024.12C309.21 1030.23 310.63 1036.62 310.63 1043.44ZM462.29 1046.56C442.7 1042.02 432.76 1033.5 432.76 1021.14C432.76 1012.05 436.02 1005.38 442.27 1000.84C448.66 996.29 456.19 994.02 464.71 994.02C483.45 994.02 494.67 1001.12 498.22 1015.04H487.43C485.44 1006.8 477.91 1002.54 464.71 1002.54C455.33 1002.54 448.8 1005.38 445.11 1010.92C443.69 1012.91 443.12 1015.6 443.12 1018.73C442.98 1024.69 446.25 1029.24 452.78 1032.5C455.76 1034.06 462.15 1036.19 472.09 1038.75C481.89 1041.31 488.99 1044.15 493.39 1047.27C499.64 1051.53 502.76 1057.64 502.76 1065.59C502.76 1075.24 498.79 1082.63 491.12 1087.6C484.73 1091.86 476.78 1093.85 467.26 1093.85C445.96 1093.85 433.61 1085.75 430.2 1069.42H441.84C443.69 1079.65 452.21 1084.76 467.26 1084.76C478.05 1084.76 485.72 1081.78 489.98 1075.81C491.69 1073.54 492.54 1070.27 492.54 1066.3C492.54 1062.32 490.98 1059.06 487.85 1056.5C483.31 1052.81 474.79 1049.54 462.29 1046.56ZM714.09 1092L699.04 1023.27L670.07 1097.68L640.96 1023.27L626.05 1092H615.83L638.4 989.05L670.07 1071.69L701.74 989.05L724.17 1092H714.09ZM901.56 1092H844.19V995.44H901.56V1004.67H854.13V1039.03H900.14V1048.41H854.13V1082.77H901.56V1092ZM1022.93 1004.39V995.16H1046.36H1056.3H1079.73V1004.39H1056.3V1091.72H1046.36V1004.39H1022.93ZM1211.14 1092H1201.2V995.44H1211.14V1092ZM1428.93 1062.46C1425.24 1071.84 1419.41 1079.22 1411.32 1084.9C1402.94 1090.58 1394 1093.42 1384.2 1093.42C1370.71 1093.42 1359.35 1088.59 1349.98 1078.65C1340.6 1069 1336.06 1057.49 1336.06 1043.86C1336.06 1037.19 1337.2 1030.8 1339.75 1024.83C1342.17 1018.87 1345.57 1013.47 1349.98 1008.93C1359.35 999.13 1370.71 994.16 1384.2 994.16C1394 994.16 1402.94 997 1411.18 1002.68C1419.27 1008.36 1425.09 1015.75 1428.79 1024.83H1417.85C1412.6 1015.32 1404.79 1009.07 1394.42 1005.95C1391.01 1004.95 1387.18 1004.39 1382.78 1004.39C1378.23 1004.39 1373.69 1005.52 1369.15 1007.65C1364.46 1009.78 1360.34 1012.62 1356.93 1016.17C1349.55 1023.84 1346 1033.07 1346 1043.86C1346 1054.65 1349.55 1063.88 1356.93 1071.41C1364.46 1079.36 1373.55 1083.2 1384.2 1083.2C1391.3 1083.2 1397.97 1081.35 1403.94 1077.52C1409.9 1073.82 1414.59 1068.71 1417.99 1062.46H1428.93ZM1578.38 1046.56C1558.79 1042.02 1548.85 1033.5 1548.85 1021.14C1548.85 1012.05 1552.11 1005.38 1558.36 1000.84C1564.75 996.29 1572.28 994.02 1580.8 994.02C1599.54 994.02 1610.76 1001.12 1614.31 1015.04H1603.52C1601.53 1006.8 1594 1002.54 1580.8 1002.54C1571.43 1002.54 1564.89 1005.38 1561.2 1010.92C1559.78 1012.91 1559.21 1015.6 1559.21 1018.73C1559.07 1024.69 1562.34 1029.24 1568.87 1032.5C1571.85 1034.06 1578.24 1036.19 1588.18 1038.75C1597.98 1041.31 1605.08 1044.15 1609.48 1047.27C1615.73 1051.53 1618.85 1057.64 1618.85 1065.59C1618.85 1075.24 1614.88 1082.63 1607.21 1087.6C1600.82 1091.86 1592.87 1093.85 1583.35 1093.85C1562.05 1093.85 1549.7 1085.75 1546.29 1069.42H1557.94C1559.78 1079.65 1568.3 1084.76 1583.35 1084.76C1594.15 1084.76 1601.81 1081.78 1606.07 1075.81C1607.78 1073.54 1608.63 1070.27 1608.63 1066.3C1608.63 1062.32 1607.07 1059.06 1603.94 1056.5C1599.4 1052.81 1590.88 1049.54 1578.38 1046.56ZM1767.84 1043.01C1762.31 1046.99 1758.61 1049.97 1756.48 1052.1C1751.8 1056.78 1749.53 1061.04 1749.53 1065.02C1749.53 1069.85 1751.23 1074.11 1754.64 1077.8C1758.05 1081.63 1762.31 1083.48 1767.13 1083.48C1772.25 1083.48 1778.07 1080.64 1784.32 1074.68C1786.02 1073.11 1787.58 1071.55 1789 1070.13L1767.84 1043.01ZM1766.99 1027.25C1768.13 1028.38 1769.12 1029.66 1770.26 1030.8C1771.68 1029.8 1773.1 1028.81 1774.66 1027.67C1776.22 1026.54 1777.64 1025.4 1779.06 1023.98C1782.04 1021 1783.61 1017.73 1783.61 1014.18C1783.61 1010.78 1782.33 1007.94 1780.06 1005.95C1777.64 1003.96 1774.94 1002.97 1772.1 1002.82C1769.26 1002.68 1766.57 1003.53 1764.29 1005.38C1761.88 1007.37 1760.74 1010.35 1760.74 1014.47C1760.74 1018.73 1762.73 1022.85 1766.99 1027.25ZM1814.99 1054.37C1813.57 1056.36 1809.31 1061.75 1802.07 1070.42L1818.68 1092.14L1805.62 1092.43L1795.11 1078.65C1790.42 1083.34 1786.73 1086.6 1783.75 1088.31C1777.93 1092 1772.96 1093.85 1768.41 1093.85C1764.01 1093.85 1760.03 1093.14 1756.63 1091.72C1753.22 1090.3 1750.24 1088.45 1747.68 1085.89C1742.28 1080.5 1739.73 1073.82 1739.73 1065.87C1739.73 1056.5 1744.27 1048.41 1753.5 1041.73C1756.06 1039.74 1758.9 1037.76 1761.74 1035.63C1754.92 1027.82 1751.51 1020.86 1751.51 1014.89C1751.51 1008.93 1753.36 1003.96 1757.19 999.98C1760.89 996.01 1766 994.02 1772.25 994.02C1778.21 994.02 1783.04 995.87 1786.87 999.56C1790.85 1003.39 1792.84 1008.22 1792.84 1014.04C1792.84 1020.29 1789.14 1026.54 1781.76 1032.64C1779.77 1034.35 1777.78 1035.77 1776.08 1037.19L1795.96 1062.61C1797.81 1060.33 1799.65 1058.06 1801.5 1055.79L1806.89 1048.97L1814.99 1054.37ZM2036 1092L2020.95 1023.27L1991.98 1097.68L1962.87 1023.27L1947.96 1092H1937.74L1960.32 989.05L1991.98 1071.69L2023.65 989.05L2046.09 1092H2036ZM2181.72 1056.5H2216.8L2199.33 1012.05L2181.72 1056.5ZM2241.65 1092H2230.86L2220.49 1065.73H2178.03L2167.67 1092H2156.87L2199.33 988.77L2241.65 1092ZM2371.61 1092H2361.67V995.44H2371.61V1040.88L2404.12 995.44H2416.9L2381.4 1043.72L2416.9 1092H2404.12L2371.61 1046.7V1092ZM2594.21 1092H2536.84V995.44H2594.21V1004.67H2546.78V1039.03H2592.79V1048.41H2546.78V1082.77H2594.21V1092ZM2793.25 1060.05C2793.25 1070.56 2789.7 1078.79 2782.89 1084.76C2776.5 1090.44 2767.98 1093.28 2757.33 1093.28C2746.53 1093.28 2737.87 1090.44 2731.48 1084.76C2724.67 1078.79 2721.26 1070.56 2721.26 1060.05V995.44H2731.2V1061.47C2731.2 1068.85 2733.75 1074.39 2739.01 1078.23C2743.55 1081.63 2749.66 1083.34 2757.33 1083.34C2769.11 1083.34 2777.06 1079.36 2781.18 1071.41C2782.6 1068.71 2783.31 1065.45 2783.31 1061.47V995.44H2793.25V1060.05ZM2930.28 1044.15H2952.71C2958.25 1044.15 2962.79 1042.3 2966.49 1038.61C2970.18 1034.77 2972.02 1030.09 2972.02 1024.27C2972.02 1018.59 2970.18 1014.04 2966.77 1010.35C2963.22 1006.8 2958.53 1004.95 2952.71 1004.95H2930.28V1044.15ZM2981.96 1024.55C2981.96 1033.07 2978.84 1040.03 2972.88 1045.71C2967.05 1051.1 2959.81 1053.8 2951.29 1053.8H2930.28V1092H2920.34V995.44H2951.29C2959.81 995.44 2966.91 998.14 2972.88 1003.53C2978.84 1009.07 2981.96 1016.03 2981.96 1024.55Z" fill="#E31D1D"/>
<path d="M1101.61 228.34C1013.93 236.31 963.56 243.63 932.63 267.85C896.28 296.2 887.68 348.14 878.11 452C868.23 344.31 859.3 292.7 819.45 264.98C788.52 243.32 738.46 236.31 654.61 228.66C741.97 220.69 792.66 213.37 823.27 189.47C859.94 160.8 868.55 109.18 878.11 5C887.04 100.9 895.01 152.19 924.66 181.82C954.31 211.45 1005.96 219.74 1101.61 228.34Z" fill="#FF3131" stroke="#FF3131" stroke-width="10" stroke-linejoin="round"/>
</svg>
