<svg id="SvgjsSvg1001" width="288" height="288" xmlns="http://www.w3.org/2000/svg" version="1.1" xmlns:xlink="http://www.w3.org/1999/xlink" xmlns:svgjs="http://svgjs.com/svgjs"><defs id="SvgjsDefs1002"></defs><g id="SvgjsG1008"><svg xmlns="http://www.w3.org/2000/svg" enable-background="new 0 0 512 512" viewBox="0 0 512 512" width="288" height="288"><circle cx="256" cy="60" r="60" fill="#ffffff" class="svgShape color000000-0 selectable"></circle><path d="M181 255h150c8.284 0 15-6.716 15-15v-45c0-26.855-11.827-50.996-30.541-67.5-34 29.985-84.873 30.025-118.918 0-18.714 16.504-30.541 40.645-30.541 67.5v45c0 8.284 6.716 15 15 15zM226.206 360.33l-47.604-47.1c-21.559-21.378-54.788-23.828-79.022-7.393-5.18 3.513-5.84 10.902-1.415 15.327l59.695 59.695c5.219 5.219 4.938 13.762-.612 18.627-5.074 4.447-12.732 4.179-17.482-.613l-63.766-64.335v-147.038c0-16.845-13.655-30.5-30.5-30.5-16.845 0-30.5 13.655-30.5 30.5v144.233c0 18.726 7.503 36.671 20.831 49.824l75.442 74.449v40.994c0 8.284 6.716 15 15 15h99.727c8.284 0 15-6.716 15-15v-101.166c0-13.334-5.326-26.115-14.794-35.504zM285.794 360.33l47.604-47.1c21.559-21.378 54.788-23.828 79.022-7.393 5.18 3.513 5.84 10.902 1.415 15.327l-59.695 59.695c-5.219 5.219-4.938 13.762.612 18.627 5.074 4.447 12.732 4.179 17.482-.613l63.766-64.335v-147.038c0-16.845 13.655-30.5 30.5-30.5 16.845 0 30.5 13.655 30.5 30.5v144.233c0 18.726-7.503 36.671-20.831 49.824l-75.442 74.449v40.994c0 8.284-6.716 15-15 15h-99.727c-8.284 0-15-6.716-15-15v-101.166c0-13.334 5.326-26.115 14.794-35.504z" fill="#ffffff" class="svgShape color000000-1 selectable"></path></svg></g></svg>