<svg xmlns="http://www.w3.org/2000/svg" version="1.1" xmlns:xlink="http://www.w3.org/1999/xlink" width="512" height="512" x="0" y="0" viewBox="0 0 98 98" style="enable-background:new 0 0 512 512" xml:space="preserve" class=""><g><path d="M63 9v3c0 .6-.4 1-1 1h-9c-.6 0-1-.4-1-1V9c0-.6.4-1 1-1h9c.6 0 1 .4 1 1zM23.5 39c.4-.6.7-1.3.7-2 0-1.9-1.5-3.4-3.4-3.4s-3.4 1.5-3.4 3.4.3 1.4.7 2h5.5zm65 12-4.8 33c-.5 3.4-3.5 6-6.9 6H21.2c-3.4 0-6.4-2.6-6.9-6L9.5 51h79.1zm-61.6 8c0-1.1-.9-2-2-2s-2 .9-2 2v23c0 1.1.9 2 2 2s2-.9 2-2zm12 0c0-1.1-.9-2-2-2s-2 .9-2 2v23c0 1.1.9 2 2 2s2-.9 2-2zm12 0c0-1.1-.9-2-2-2s-2 .9-2 2v23c0 1.1.9 2 2 2s2-.9 2-2zm12 0c0-1.1-.9-2-2-2s-2 .9-2 2v23c0 1.1.9 2 2 2s2-.9 2-2zm12 0c0-1.1-.9-2-2-2s-2 .9-2 2v23c0 1.1.9 2 2 2s2-.9 2-2zM28.5 36.2V39h4.7l2.3-8.6-1.6-6.4c.1-.2.2-.4.2-.6v-3.2c0-.6-.4-1-1-1H14.4c-.6 0-1 .4-1 1v3.2c0 .4.2.7.5.9L11 36v3h2v-2.7l3-11.9h15.5L28.6 36v.2zm10.8 7.1 7.8-29c.4-1.3-.4-2.7-1.8-3.1-1.3-.4-2.7.4-3.1 1.8l-7.8 29c-.4 1.3.4 2.7 1.8 3.1 1.3.4 2.7-.4 3.1-1.8zM89.9 41h-1.4l-27.2 6.4c-.3 0-.7.1-1 .1-2.1 0-3.9-1.4-4.4-3.5-.3-1.1 0-2.1.4-3H42l-.7 2.8c-.5 2-2.3 3.3-4.3 3.3s-.8 0-1.2-.2c-1.2-.3-2.1-1.1-2.7-2.1s-.8-2.3-.4-3.4v-.5H8.1c-1.7 0-3 1.3-3 3v2c0 1.7 1.3 3 3 3h82c1.7 0 3-1.3 3-3v-2c0-1.7-1.3-3-3-3zm-32.1 2.6c.3 1.3 1.7 2.2 3 1.9L90 38.6c1.3-.3 2.2-1.7 1.9-3-.3-1.3-1.7-2.2-3-1.9l-29.2 6.9c-1.3.3-2.2 1.7-1.9 3zm11.9-9.2-1 1.6c-.2-1.4-.8-2.8-1.5-4L66 30.1c-2.7-4.2-4.1-9-4.1-14V15h-9v1.1c0 5-1.4 9.8-4.1 14L47.6 32c-1.1 1.8-1.7 3.8-1.7 5.9V39h4c0-2.1.6-4.1 1.7-5.9.3-.5.9-.6 1.4-.3s.6.9.3 1.4c-.9 1.4-1.4 3.1-1.4 4.8h6.4c.3-.2.6-.3 1-.4l9.6-2.3 3-.7-2.1-1.2zm21.1-14.3-.9-.5c-2.3-1.3-5-1.7-7.6-1s-4.7 2.3-6.1 4.6l-1.5 2.6 3.9 2.3c.7.4 1 1.3.5 2.1s-1.3 1-2.1.5l-3.9-2.3-2 3.5 3.9 2.3c.3.2.5.4.6.7l12.7-3h.2l3.6-6.1c1.1-1.9.5-4.4-1.4-5.5z" fill="#ffffff" opacity="1" data-original="#000000" class=""></path></g></svg>