<svg xmlns="http://www.w3.org/2000/svg" version="1.1" xmlns:xlink="http://www.w3.org/1999/xlink" width="512" height="512" x="0" y="0" viewBox="0 0 512 512" style="enable-background:new 0 0 512 512" xml:space="preserve"><g><path fill-rule="evenodd" d="m494.552 327.239.066-3.401c.048-2.481-2.03-4.511-4.511-4.511H231.373v7.912zM96.274 388.637a77.29 77.29 0 0 1-.058.831 142.818 142.818 0 0 1 22.262-17.784 7.975 7.975 0 0 1 8.687 13.375 127.336 127.336 0 0 0-30.393 27.545c25.3-6.17 43.901-28.077 45.927-54.027-19.503 1.951-36.68 13.141-46.425 30.06zm-42.817-27.285a7.978 7.978 0 0 1 15.938-.75c.592 11.712 2.847 23.35 6.616 34.453a76.271 76.271 0 0 1 4.451-10.757c.166-20.054-9.657-39.052-26.247-50.424-8.393 18.145-6.731 39.925 3.81 56.872a143.226 143.226 0 0 1-4.568-29.394zm115.895-65.487H17.381v161.202h151.971a5.013 5.013 0 0 0 5.003-5.003V300.868a5.013 5.013 0 0 0-5.003-5.003zM80.681 430.276a7.988 7.988 0 0 1-7.302-4.041c-34.633-18.434-49.618-60.171-34.756-96.467 1.139.438 5.105-19.742 16.111-14.143 19.725 10.053 34.047 28.165 39.413 49.588 14.89-15.184 35.307-23.388 56.505-22.867a7.979 7.979 0 0 1 8.086 7.572c2.315 44.29-33.603 81.322-78.057 80.358zm101.745-271.61H50.328c-9.537 0-17.34 7.803-17.34 17.34v22.601c0 9.538 7.803 17.341 17.34 17.341h132.098c9.537 0 17.34-7.803 17.34-17.341v-22.601c0-9.537-7.803-17.34-17.34-17.34zM117.164 16C98.239 16 82.79 29.389 82.79 48.8v93.866h67.175V48.801c0-18.066-14.736-32.801-32.801-32.801zM60.133 231.949H172.62c23.712 15.668 42.753 29.44 42.753 62.146V456.46c0 21.747-17.793 39.54-39.54 39.54H56.921c-15.825 0-29.553-9.423-35.858-22.933h148.29c11.586 0 21.003-9.416 21.003-21.003V300.868c0-11.586-9.416-21.002-21.003-21.002H18.765c4.782-22.897 21.421-34.737 41.368-47.917zm434.033 111.29c-2.06 37.112-12.344 58.224-53.977 81.613-7.788 4.375-15.445 6.378-24.378 6.378H271.107c-15.645 0-27.321-7.313-39.734-15.883v-72.108zM364.257 163.552c-7.231-12.411-14.629-24.864-20.441-32.996-6.469 8.439-14.901 22.171-22.907 35.121-10.263 16.6-25.453 37.174-25.525 58.228-.106 30.367 21.345 55.864 47.911 56.949s48.187-22.653 48.292-53.02c.074-21.523-16.785-46.184-27.33-64.282zm-12.297 104.38c-24.705 0-44.735-20.031-44.735-44.736a8 8 0 0 1 16 0c0 15.872 12.864 28.736 28.736 28.736a8 8 0 1 1-.001 16z" clip-rule="evenodd" fill="#ffffff" opacity="1" data-original="#000000"></path></g></svg>