<svg xmlns="http://www.w3.org/2000/svg" version="1.1" xmlns:xlink="http://www.w3.org/1999/xlink" width="512" height="512" x="0" y="0" viewBox="0 0 512 512" style="enable-background:new 0 0 512 512" xml:space="preserve" class=""><g><circle cx="256" cy="60" r="60" fill="#ffffff" opacity="1" data-original="#000000" class=""></circle><path d="M181 255h150c8.284 0 15-6.716 15-15v-45c0-26.855-11.827-50.996-30.541-67.5-34 29.985-84.873 30.025-118.918 0C177.827 144.004 166 168.145 166 195v45c0 8.284 6.716 15 15 15zM226.206 360.33l-47.604-47.1c-21.559-21.378-54.788-23.828-79.022-7.393-5.18 3.513-5.84 10.902-1.415 15.327l59.695 59.695c5.219 5.219 4.938 13.762-.612 18.627-5.074 4.447-12.732 4.179-17.482-.613L76 334.538V187.5c0-16.845-13.655-30.5-30.5-30.5S15 170.655 15 187.5v144.233a70 70 0 0 0 20.831 49.824l75.442 74.449V497c0 8.284 6.716 15 15 15H226c8.284 0 15-6.716 15-15V395.834a50 50 0 0 0-14.794-35.504zM285.794 360.33l47.604-47.1c21.559-21.378 54.788-23.828 79.022-7.393 5.18 3.513 5.84 10.902 1.415 15.327l-59.695 59.695c-5.219 5.219-4.938 13.762.612 18.627 5.074 4.447 12.732 4.179 17.482-.613L436 334.538V187.5c0-16.845 13.655-30.5 30.5-30.5s30.5 13.655 30.5 30.5v144.233a70 70 0 0 1-20.831 49.824l-75.442 74.449V497c0 8.284-6.716 15-15 15H286c-8.284 0-15-6.716-15-15V395.834a50 50 0 0 1 14.794-35.504z" fill="#ffffff" opacity="1" data-original="#000000" class=""></path></g></svg>