<svg xmlns="http://www.w3.org/2000/svg" id="Layer_1" data-name="Layer 1" viewBox="0 0 885.79 455.44"><defs><style>.cls-1,.cls-2,.cls-3{fill:#edbe38;}.cls-1{fill-rule:evenodd;}.cls-3{font-size:93.77px;font-family:HelveticaNeue-Bold, Helvetica Neue;font-weight:700;}</style></defs><title>jcim</title><path class="cls-1" d="M364.14,136.87C227.34,9.19,250.74-108.61,252.54-108.61c51.58,0,50.4-53,50.4-53H426.4s-1.2,53,50.4,53c1.79,0,25.19,117.8-111.61,245.48Zm0-41.37c-90-89.91-86.4-182.51-83.7-183.41,44.57-14.87,45-46.78,45-46.78h77.7s.44,31.91,45,46.78c2.7.9,6.29,93.5-83.69,183.41Z" transform="translate(367.22 161.65)"></path><path class="cls-1" d="M391.3-49.92a26.76,26.76,0,0,1-26.75,26.75A26.77,26.77,0,0,1,337.8-49.92a26.77,26.77,0,0,1,26.75-26.76A26.76,26.76,0,0,1,391.3-49.92M364.55-73.23a23.3,23.3,0,0,0-23.29,23.31,23.31,23.31,0,0,0,23.29,23.31,23.31,23.31,0,0,0,23.3-23.31,23.3,23.3,0,0,0-23.3-23.31" transform="translate(367.22 161.65)"></path><path class="cls-1" d="M403.06-49.92a38.51,38.51,0,0,1-38.51,38.51A38.51,38.51,0,0,1,326-49.92a38.51,38.51,0,0,1,38.51-38.53,38.51,38.51,0,0,1,38.51,38.53M364.55-83.85a33.91,33.91,0,0,0-33.89,33.93A33.91,33.91,0,0,0,364.55-16a33.91,33.91,0,0,0,33.89-33.9,33.91,33.91,0,0,0-33.89-33.93" transform="translate(367.22 161.65)"></path><path class="cls-1" d="M415.1-49.92A50.56,50.56,0,0,1,364.55.65,50.58,50.58,0,0,1,314-49.92a50.59,50.59,0,0,1,50.57-50.6,50.57,50.57,0,0,1,50.55,50.6m-50.55-46.3a46.29,46.29,0,0,0-46.29,46.3A46.26,46.26,0,0,0,364.55-3.66a46.26,46.26,0,0,0,46.27-46.26,46.29,46.29,0,0,0-46.27-46.3" transform="translate(367.22 161.65)"></path><path class="cls-1" d="M429.64-49.92a65.09,65.09,0,0,1-65.09,65.09,65.11,65.11,0,0,1-65.1-65.09A65.12,65.12,0,0,1,364.55-115a65.1,65.1,0,0,1,65.09,65.12M364.55-110.1A60.16,60.16,0,0,0,304.4-49.92a60.14,60.14,0,0,0,60.15,60.15,60.15,60.15,0,0,0,60.14-60.15,60.16,60.16,0,0,0-60.14-60.18" transform="translate(367.22 161.65)"></path><rect class="cls-2" x="669.01" y="109.94" width="125.52" height="3.92"></rect><rect class="cls-2" x="729.81" y="49.11" width="3.92" height="125.57"></rect><polygon class="cls-1" points="777.54 68.91 688.78 157.68 686.01 154.91 774.76 66.12 777.54 68.91"></polygon><polygon class="cls-1" points="688.78 66.12 777.54 154.9 774.76 157.68 686.01 68.9 688.78 66.12"></polygon><path class="cls-2" d="M-191.62,29.18c-7,54.73-35.26,81.78-93.65,81.78-60.06,0-80.17-32.36-81.8-62.41a186.67,186.67,0,0,1,3.64-43.39h65.73c-.86,8.68-4.37,23.68-3.9,32.38C-301,47.88-295,54.22-285,54.22c13,0,17.29-7.34,19-19.36L-239.47-133h73.4Z" transform="translate(367.22 161.65)"></path><path class="cls-2" d="M68.72,14.83C65.7,39.2,50.91,111-48.18,111-117.24,111-153,66.24-156.49,2.48c-4.2-77.09,40.36-141.17,121.43-141.17,53.06,0,101.69,23,106.92,94.46H2.45C1.91-66.6-9.47-79.28-32.15-79.28c-40.71,0-52.84,46.72-51,80.43,1.07,19.69,7.42,50.41,41.11,50.41,23,0,35.19-15.7,38.72-36.73Z" transform="translate(367.22 161.65)"></path><polygon class="cls-2" points="492.1 28.63 565.5 28.63 529.07 266.94 455.66 266.94 492.1 28.63"></polygon><path class="cls-1" d="M393.88-88.45a22.36,22.36,0,0,1-2.05-4.72c-.31-1.37.15-2.82-.29-4.1,2.3-.91,5.15,9.46,7,11.37,3.49,3.59,9.1,6.48,13.76,8.35-.09,3-5.1,1.44-6.64.49-2.92-1.82-3.66-2.29-7.42-2.28-1.23,0-3.26.39-4.35-.22-1.82-1-.91-1.42-1.22-3-.57-2.72-.1-5.25-.88-7.93" transform="translate(367.22 161.65)"></path><path class="cls-1" d="M389.17-81.7c-1.86-.2-5.07-3.22-4.2.59.42,1.82,3.54,3.35,4.78,4.43,3.22,2.77,6.13,9,11.4,8.18-2.58-2.68-5.32-4.92-7.58-7.82A28.15,28.15,0,0,0,388.3-82" transform="translate(367.22 161.65)"></path><path class="cls-1" d="M373.6-37.91c-2.08-.26-5,3.42-6.1,5-1.49,2-2.9,5.78-2.5,8.23,1.45,8.72,10.48,6.53,16.47,5.33,1.76,3.72,4.71,2.18,7.93,2.59,2.93.4,5.34,3.3,8.07,3.48,4.92.31.84-11.08-.65-13.83s-4.74-3.76-6.49-6.09-1.78-5.93-3.23-8.6c-2.76-5.05-10.4-.71-13.57,2.34a4.32,4.32,0,0,0-1.4,1.86" transform="translate(367.22 161.65)"></path><path class="cls-1" d="M403.28-29.08c-2.43,2.5-4.21,7.52.17,9.11,2.49.9,2.37-.11,4.55-2.07,1.86-1.65,1.89-1.73,4.65-1.79.79-5.47-7.95-2.87-10.54-5" transform="translate(367.22 161.65)"></path><path class="cls-1" d="M386.24-41.43c3.61-3.06,7.16-6.92,11.67-8.53-1.72-4.26-5.35-5.93-7.86-9.76-2.65-4-4.76-8.63-8.16-12-4.33-4.36-8-1.08-9.83,3.82-.79,2.08-1.94,4.29-2.27,6.53-.41,2.78.8,3.64,2.23,6.13-2.9,1.42-.58,5-.19,7.36-2.55.14-1.66,2.54-1.81,4.4-1.3.8-1.87,3.77,0,4.44.62-3.19,1.63-1.71,3-1.16a4.21,4.21,0,0,0,.91,1.17c.63.35,2.52,0,3.27,0" transform="translate(367.22 161.65)"></path><path class="cls-1" d="M334.52-44.66c1.7.58,5.1.85,6.49,2s2.4,4.89,3.85,6.56c2.37,2.76,6.24,3.76,5.51,8.12-2.48,1.29-4.86,0-7.06,1.16-.52.29-.28,1.23-.84,1.62-1.61,1.12-4.05,1.21-5.92,1.36-5.89.53-7-2.88-11.12-6.22,2.13-3.34,9.32-7.21,6.78-11.89,1.31-1.14,3.07-.69,3.18-2.73" transform="translate(367.22 161.65)"></path><path class="cls-1" d="M351.18-54.62c.72-5.11-.39-11.44,2.35-16.1,2-3.48,11.53-6.53,15.33-4.53-.9-.47-4.89,9.25-5.28,10.06-2.47,5-2,2.42-6.12,1.68A8.87,8.87,0,0,0,350-60.86c-2.27,2.75-.44,3.85,1.19,6.24" transform="translate(367.22 161.65)"></path><path class="cls-1" d="M355.38-59.36c-5,5.72,5.13,9.35,8.84,11.24,2.31-4-.42-7.44-2.45-10.59-3-4.61-3.33-.62-6.63.58,0,.35-.11.39-.35.53" transform="translate(367.22 161.65)"></path><polygon class="cls-2" points="850.71 246.81 843.78 246.81 843.78 244.31 860.64 244.31 860.64 246.81 853.68 246.81 853.68 267.08 850.71 267.08 850.71 246.81"></polygon><path class="cls-2" d="M515.13,95.43c-.17-3.18-.37-7-.34-9.83h-.1c-.78,2.67-1.72,5.5-2.87,8.65l-4,11h-2.23l-3.68-10.84c-1.08-3.21-2-6.15-2.63-8.85h-.07c-.07,2.84-.24,6.65-.44,10.07l-.61,9.76h-2.8l1.59-22.77h3.74l3.89,11c.94,2.81,1.72,5.31,2.3,7.67h.1c.57-2.3,1.38-4.8,2.39-7.67l4.06-11h3.75l1.42,22.77H515.7Z" transform="translate(367.22 161.65)"></path><text class="cls-3" transform="translate(166.11 410.33)">Malaysia</text></svg>