<svg xmlns="http://www.w3.org/2000/svg" xmlns:xlink="http://www.w3.org/1999/xlink" width="191" zoomAndPan="magnify" viewBox="0 0 143.25 44.249999" height="59" preserveAspectRatio="xMidYMid meet" version="1.0"><defs><g/></defs><g fill="#6cd3df" fill-opacity="1"><g transform="translate(2.05801, 33.924998)"><g><path d="M 7.046875 -17.21875 C 7.046875 -17.425781 7.003906 -17.566406 6.921875 -17.640625 C 6.847656 -17.722656 6.707031 -17.765625 6.5 -17.765625 L 1.421875 -17.765625 C 0.804688 -17.765625 0.5 -18.066406 0.5 -18.671875 L 0.5 -22.6875 C 0.5 -23.289062 0.804688 -23.59375 1.421875 -23.59375 L 19.078125 -23.59375 C 19.390625 -23.59375 19.617188 -23.519531 19.765625 -23.375 C 19.910156 -23.226562 19.984375 -23 19.984375 -22.6875 L 19.984375 -18.671875 C 19.984375 -18.359375 19.910156 -18.128906 19.765625 -17.984375 C 19.617188 -17.835938 19.390625 -17.765625 19.078125 -17.765625 L 13.984375 -17.765625 C 13.785156 -17.765625 13.644531 -17.722656 13.5625 -17.640625 C 13.488281 -17.566406 13.453125 -17.425781 13.453125 -17.21875 L 13.453125 -0.90625 C 13.453125 -0.59375 13.378906 -0.363281 13.234375 -0.21875 C 13.085938 -0.0703125 12.851562 0 12.53125 0 L 7.953125 0 C 7.640625 0 7.410156 -0.0703125 7.265625 -0.21875 C 7.117188 -0.363281 7.046875 -0.59375 7.046875 -0.90625 Z M 7.046875 -17.21875 "/></g></g></g><g fill="#6cd3df" fill-opacity="1"><g transform="translate(22.544261, 33.924998)"><g><path d="M 1.171875 -11.734375 C 1.171875 -14.109375 1.71875 -16.226562 2.8125 -18.09375 C 3.90625 -19.957031 5.414062 -21.414062 7.34375 -22.46875 C 9.28125 -23.53125 11.460938 -24.0625 13.890625 -24.0625 C 16.335938 -24.0625 18.523438 -23.535156 20.453125 -22.484375 C 22.390625 -21.441406 23.898438 -19.988281 24.984375 -18.125 C 26.078125 -16.257812 26.625 -14.148438 26.625 -11.796875 C 26.625 -9.410156 26.078125 -7.289062 24.984375 -5.4375 C 23.898438 -3.582031 22.382812 -2.132812 20.4375 -1.09375 C 18.5 -0.0507812 16.289062 0.46875 13.8125 0.46875 C 11.414062 0.46875 9.253906 -0.046875 7.328125 -1.078125 C 5.410156 -2.109375 3.90625 -3.550781 2.8125 -5.40625 C 1.71875 -7.257812 1.171875 -9.367188 1.171875 -11.734375 Z M 13.859375 -5.390625 C 15.003906 -5.390625 16.046875 -5.648438 16.984375 -6.171875 C 17.929688 -6.703125 18.671875 -7.453125 19.203125 -8.421875 C 19.742188 -9.390625 20.015625 -10.503906 20.015625 -11.765625 C 20.015625 -13.046875 19.742188 -14.164062 19.203125 -15.125 C 18.671875 -16.09375 17.9375 -16.84375 17 -17.375 C 16.070312 -17.90625 15.035156 -18.171875 13.890625 -18.171875 C 12.722656 -18.171875 11.675781 -17.90625 10.75 -17.375 C 9.832031 -16.84375 9.109375 -16.09375 8.578125 -15.125 C 8.046875 -14.164062 7.78125 -13.046875 7.78125 -11.765625 C 7.78125 -10.503906 8.046875 -9.390625 8.578125 -8.421875 C 9.109375 -7.453125 9.832031 -6.703125 10.75 -6.171875 C 11.675781 -5.648438 12.710938 -5.390625 13.859375 -5.390625 Z M 13.859375 -5.390625 "/></g></g></g><g fill="#6cd3df" fill-opacity="1"><g transform="translate(50.342211, 33.924998)"><g><path d="M 2.359375 -22.6875 C 2.359375 -23 2.429688 -23.226562 2.578125 -23.375 C 2.722656 -23.519531 2.953125 -23.59375 3.265625 -23.59375 L 11.359375 -23.59375 C 14.953125 -23.59375 17.625 -22.945312 19.375 -21.65625 C 21.132812 -20.363281 22.015625 -18.359375 22.015625 -15.640625 C 22.015625 -12.828125 20.71875 -10.789062 18.125 -9.53125 L 23.21875 -1.078125 C 23.351562 -0.847656 23.421875 -0.65625 23.421875 -0.5 C 23.421875 -0.164062 23.140625 0 22.578125 0 L 17.765625 0 C 17.265625 0 16.894531 -0.0664062 16.65625 -0.203125 C 16.425781 -0.335938 16.1875 -0.617188 15.9375 -1.046875 L 10.71875 -10.3125 C 10.601562 -10.539062 10.546875 -10.707031 10.546875 -10.8125 C 10.546875 -11.0625 10.78125 -11.234375 11.25 -11.328125 C 12.488281 -11.484375 13.488281 -11.859375 14.25 -12.453125 C 15.019531 -13.046875 15.40625 -13.875 15.40625 -14.9375 C 15.40625 -16.050781 15.039062 -16.875 14.3125 -17.40625 C 13.582031 -17.9375 12.484375 -18.203125 11.015625 -18.203125 L 9.296875 -18.203125 C 9.078125 -18.203125 8.929688 -18.164062 8.859375 -18.09375 C 8.796875 -18.03125 8.765625 -17.882812 8.765625 -17.65625 L 8.765625 -0.90625 C 8.765625 -0.59375 8.691406 -0.363281 8.546875 -0.21875 C 8.398438 -0.0703125 8.15625 0 7.8125 0 L 3.265625 0 C 2.953125 0 2.722656 -0.0703125 2.578125 -0.21875 C 2.429688 -0.363281 2.359375 -0.59375 2.359375 -0.90625 Z M 2.359375 -22.6875 "/></g></g></g><g fill="#6cd3df" fill-opacity="1"><g transform="translate(73.86096, 33.924998)"><g><path d="M 1.578125 -22.6875 C 1.578125 -23 1.648438 -23.226562 1.796875 -23.375 C 1.941406 -23.519531 2.175781 -23.59375 2.5 -23.59375 L 17.484375 -23.59375 C 18.117188 -23.59375 18.4375 -23.289062 18.4375 -22.6875 L 18.4375 -18.9375 C 18.4375 -18.601562 18.363281 -18.367188 18.21875 -18.234375 C 18.070312 -18.097656 17.828125 -18.03125 17.484375 -18.03125 L 2.5 -18.03125 C 2.175781 -18.03125 1.941406 -18.097656 1.796875 -18.234375 C 1.648438 -18.367188 1.578125 -18.601562 1.578125 -18.9375 Z M 1.578125 -13.6875 C 1.578125 -14 1.648438 -14.234375 1.796875 -14.390625 C 1.941406 -14.546875 2.175781 -14.625 2.5 -14.625 L 17.484375 -14.625 C 18.117188 -14.625 18.4375 -14.3125 18.4375 -13.6875 L 18.4375 -10.015625 C 18.4375 -9.691406 18.359375 -9.457031 18.203125 -9.3125 C 18.046875 -9.164062 17.804688 -9.09375 17.484375 -9.09375 L 2.5 -9.09375 C 2.175781 -9.09375 1.941406 -9.164062 1.796875 -9.3125 C 1.648438 -9.457031 1.578125 -9.691406 1.578125 -10.015625 Z M 1.546875 -4.65625 C 1.546875 -4.988281 1.617188 -5.222656 1.765625 -5.359375 C 1.910156 -5.492188 2.140625 -5.5625 2.453125 -5.5625 L 17.53125 -5.5625 C 17.84375 -5.5625 18.078125 -5.492188 18.234375 -5.359375 C 18.390625 -5.222656 18.46875 -4.988281 18.46875 -4.65625 L 18.46875 -0.90625 C 18.46875 -0.300781 18.15625 0 17.53125 0 L 2.453125 0 C 2.140625 0 1.910156 -0.0703125 1.765625 -0.21875 C 1.617188 -0.363281 1.546875 -0.59375 1.546875 -0.90625 Z M 1.546875 -4.65625 "/></g></g></g><g fill="#6cd3df" fill-opacity="1"><g transform="translate(93.841789, 33.924998)"><g><path d="M 2.1875 -13.25 C 2.1875 -15.601562 2.644531 -17.585938 3.5625 -19.203125 C 4.488281 -20.828125 5.773438 -22.039062 7.421875 -22.84375 C 9.078125 -23.65625 10.992188 -24.0625 13.171875 -24.0625 C 15.304688 -24.0625 17.179688 -23.660156 18.796875 -22.859375 C 20.421875 -22.066406 21.679688 -20.859375 22.578125 -19.234375 C 23.472656 -17.617188 23.921875 -15.625 23.921875 -13.25 L 23.921875 -0.90625 C 23.921875 -0.59375 23.847656 -0.363281 23.703125 -0.21875 C 23.554688 -0.0703125 23.316406 0 22.984375 0 L 18.4375 0 C 18.125 0 17.894531 -0.0703125 17.75 -0.21875 C 17.601562 -0.363281 17.53125 -0.59375 17.53125 -0.90625 L 17.53125 -12.90625 C 17.53125 -14.59375 17.144531 -15.890625 16.375 -16.796875 C 15.613281 -17.710938 14.503906 -18.171875 13.046875 -18.171875 C 11.585938 -18.171875 10.476562 -17.710938 9.71875 -16.796875 C 8.96875 -15.890625 8.59375 -14.59375 8.59375 -12.90625 L 8.59375 -0.90625 C 8.59375 -0.59375 8.519531 -0.363281 8.375 -0.21875 C 8.226562 -0.0703125 7.988281 0 7.65625 0 L 3.09375 0 C 2.78125 0 2.550781 -0.0703125 2.40625 -0.21875 C 2.257812 -0.363281 2.1875 -0.59375 2.1875 -0.90625 Z M 2.1875 -13.25 "/></g></g></g><g fill="#6cd3df" fill-opacity="1"><g transform="translate(119.955011, 33.924998)"><g><path d="M 7.046875 -17.21875 C 7.046875 -17.425781 7.003906 -17.566406 6.921875 -17.640625 C 6.847656 -17.722656 6.707031 -17.765625 6.5 -17.765625 L 1.421875 -17.765625 C 0.804688 -17.765625 0.5 -18.066406 0.5 -18.671875 L 0.5 -22.6875 C 0.5 -23.289062 0.804688 -23.59375 1.421875 -23.59375 L 19.078125 -23.59375 C 19.390625 -23.59375 19.617188 -23.519531 19.765625 -23.375 C 19.910156 -23.226562 19.984375 -23 19.984375 -22.6875 L 19.984375 -18.671875 C 19.984375 -18.359375 19.910156 -18.128906 19.765625 -17.984375 C 19.617188 -17.835938 19.390625 -17.765625 19.078125 -17.765625 L 13.984375 -17.765625 C 13.785156 -17.765625 13.644531 -17.722656 13.5625 -17.640625 C 13.488281 -17.566406 13.453125 -17.425781 13.453125 -17.21875 L 13.453125 -0.90625 C 13.453125 -0.59375 13.378906 -0.363281 13.234375 -0.21875 C 13.085938 -0.0703125 12.851562 0 12.53125 0 L 7.953125 0 C 7.640625 0 7.410156 -0.0703125 7.265625 -0.21875 C 7.117188 -0.363281 7.046875 -0.59375 7.046875 -0.90625 Z M 7.046875 -17.21875 "/></g></g></g></svg>