<svg xmlns="http://www.w3.org/2000/svg" xmlns:xlink="http://www.w3.org/1999/xlink" width="500" zoomAndPan="magnify" viewBox="0 0 375 374.999991" height="500" preserveAspectRatio="xMidYMid meet" version="1.0"><path fill="#3a7d44" d="M 173.839844 304.285156 C 165.308594 284.644531 152.632812 246.410156 165.085938 205.582031 C 185.511719 138.597656 265.667969 90.566406 362.132812 96.789062 C 374.945312 178.507812 343.375 255.066406 283.894531 289.222656 C 243.832031 312.234375 202.324219 309.550781 182.667969 306.808594 C 202.796875 291.554688 225.386719 271.953125 247.96875 247.140625 C 282.828125 208.84375 306.097656 170.84375 321.496094 140.519531 C 299.371094 171.378906 272.785156 204.714844 241.023438 238.773438 C 218.105469 263.351562 195.46875 285.113281 173.839844 304.285156 Z M 173.839844 304.285156 " fill-opacity="1" fill-rule="nonzero"/><path fill="#3a7d44" d="M 148.125 306.421875 C 133.070312 310.96875 104.097656 316.960938 75.375 304.398438 C 28.253906 283.789062 0.0507812 221.222656 12.808594 151.386719 C 73.511719 149.007812 126.667969 178.558594 146.515625 224.855469 C 159.882812 256.042969 154.394531 286.089844 150.714844 300.195312 C 141.300781 284.214844 128.929688 266.066406 112.753906 247.476562 C 87.789062 218.785156 62.054688 198.574219 41.246094 184.757812 C 61.871094 203.523438 83.921875 225.757812 106.0625 251.832031 C 122.039062 270.644531 135.980469 289.011719 148.125 306.421875 Z M 148.125 306.421875 " fill-opacity="1" fill-rule="nonzero"/></svg>