<?xml version="1.0" encoding="UTF-8"?><svg id="Layer_1" xmlns="http://www.w3.org/2000/svg" viewBox="0 0 643.62 215.52"><defs><style>.cls-1{fill:#111212;}.cls-1,.cls-2,.cls-3,.cls-4,.cls-5{stroke-width:0px;}.cls-2{fill:#0b0b0b;}.cls-3{fill:#fbb145;}.cls-4{fill:#ed2348;}.cls-5{fill:#ec3130;}</style></defs><path class="cls-4" d="M508.8,170.29v-10.12c-2.31,1.91-4.35,3.37-6.12,5.11-4.78,4.68-10.29,5.45-16.45,3.49-14.33-4.56-22.65-14.73-26.02-28.92-4.33-18.23-.47-34.6,13-48.08,7.91-7.92,17.81-11.6,28.94-12.08,1.06-.04,2.14.1,3.19.27,1.05.17,2.07.47,3.55.82,0-1.63,0-3.13,0-4.62,0-6.73.02-13.46-.04-20.18-.06-7.11-1.09-8.27-8.12-8.97-1.6-.16-2.87-.41-2.25-2.27.56-1.66-1.86-4.32,2.01-4.97,10.45-1.75,20.85-3.76,31.25-5.8,2.27-.45,3.11-.31,3.01,2.41-.24,6.62-.08,13.26-.08,19.89,0,30.03,0,60.06,0,90.09,0,.78,0,1.56,0,2.34.07,5.6,1.3,6.84,6.86,7.07,1.2.05,3.13-.55,3.43.7.49,2.01.21,4.24.08,6.37-.04.65-.95.46-1.51.54-11.53,1.7-23.06,3.45-34.72,6.91ZM508.87,123.38c0-8.38-.05-16.76.02-25.14.03-4.04-2.63-6.13-5.6-7.83-2.8-1.6-5.64-.97-8.19.92-3.2,2.38-4.87,5.77-6.05,9.41-2.62,8.1-2.77,16.49-2.3,24.86.42,7.5,1.71,14.88,5.81,21.42,1.73,2.76,3.84,5.16,6.92,6.49,4.85,2.09,9.39-.75,9.39-5.87,0-8.09,0-16.18,0-24.26Z"/><path class="cls-4" d="M43.38,167.46c-13.07,0-26.14-.08-39.22.07-2.53.03-3.32-.73-2.92-3.09.09-.57.09-1.18,0-1.75-.31-2.08.39-2.79,2.65-2.93,7.62-.47,9.88-2.77,10.94-10.21.32-2.23.45-4.46.45-6.7,0-24.97,0-49.93,0-74.9,0-2.44-.2-4.86-.51-7.28-.85-6.61-2.81-8.9-9.22-9.55-2.25-.23-2.67-.95-2.62-2.99.12-4.76.02-4.76,4.71-4.76,23.61,0,47.22.04,70.82-.06,2.4-.01,3.07.58,3.17,2.97.37,8.47.78,16.95,1.63,25.38.38,3.73-1.8,3.35-4.04,3.79-2.49.48-3.46-.3-3.73-2.84-.24-2.29-1-4.54-1.65-6.78-2.66-9.09-6.11-11.9-15.58-12.44-3.79-.22-7.61-.06-11.41-.07-2.3,0-3.44,1.26-3.44,3.45-.03,12.87,0,25.75-.04,38.62,0,1.27.44,1.69,1.7,1.68,5.07-.01,10.15.1,15.2-.5,3.42-.41,5.76-2.29,6.53-5.75.5-2.27,1-4.58,1.14-6.89.13-2.03.89-2.59,2.87-2.56,4.79.08,4.79-.01,4.79,4.68,0,12.39-.07,24.77.06,37.15.02,2.38-.49,3.25-3.01,3.08-4.41-.3-4.48.85-4.74-4.31-.09-1.83-.45-3.67-.85-5.47-1.34-6.03-3.4-7.83-9.59-8.1-4.09-.18-8.19,0-12.29-.09-1.41-.03-1.82.42-1.81,1.82.06,12.38-.11,24.77.14,37.15.16,7.86,2.83,10.15,10.67,10.22,4.86.04,9.74.25,14.51-1.13,4.14-1.2,7.26-3.54,9.31-7.39,2.48-4.66,4.18-9.62,5.58-14.67.48-1.73,1.07-2.11,2.81-1.73,4.82,1.06,4.98.99,4.42,5.72-1.09,9.17-2.79,18.25-4.66,27.3-.39,1.87-1.49,1.88-2.95,1.88-13.27-.03-26.53-.02-39.8-.02Z"/><path class="cls-4" d="M209.27,102.78c.31,13.38,1.92,25.86,7.34,37.58,2.23,4.81,5,9.25,8.8,12.97,10.85,10.62,25.7,9.43,35.32-2.83,4.31-5.48,7.48-11.63,9.94-18.09,1.09-2.85,2.35-3.85,5.42-3.06,2.39.61,3.51.94,2.81,4-2.29,9.93-4.41,19.9-7.6,29.6-.42,1.29-.91,2.25-2.35,2.62-11.91,3.02-23.79,5.64-36.29,4.4-26.14-2.6-44.56-17.41-51.23-42.73-5.83-22.16-3.33-43.38,10.41-62.29,10.61-14.61,25.61-21.89,43.38-23.98,12.16-1.43,23.85.51,35.42,4.05,1.66.51,2.28,1.22,2.5,2.93,1.24,9.57,1.71,19.21,2.68,28.8.16,1.62-.59,2.06-1.9,2.24-1.06.14-2.14.23-3.17.5-1.54.4-2.21,0-2.61-1.68-1.52-6.36-3.62-12.51-7.55-17.86-7.89-10.74-22.45-12.91-33.11-4.87-8.53,6.43-12.56,15.66-15.36,25.53-2.11,7.44-2.76,15.11-2.86,22.18Z"/><path class="cls-4" d="M398.25,91.51c3.5-2.76,6.55-5.01,9.43-7.46,10.42-8.89,32.99-4.79,35.68,15.34.38,2.82.55,5.62.55,8.45-.02,14.14-.01,28.29,0,42.43,0,6.95.84,8.06,7.5,9.53,1.12.25,1.37.67,1.47,1.68.6,5.98.63,5.98-5.25,5.98-11.42,0-22.83-.06-34.25.05-2.21.02-3.28-.44-2.87-2.82.12-.66.09-1.37,0-2.04-.21-1.77.09-2.82,2.28-3.05,3.1-.33,4.8-2.32,4.94-5.52.11-2.33.36-4.67.36-7,.04-11.9.02-23.8.02-35.7,0-2.84-.21-5.65-1-8.38-1.95-6.77-8.13-9.27-14.23-5.7-2.97,1.74-4.81,3.93-4.74,7.91.26,14.53.1,29.06.15,43.6,0,2.04.31,4.08.48,6.11.21,2.41,1.44,4.13,3.82,4.54,2.1.36,2.21,1.54,2.19,3.26-.07,4.76,0,4.76-4.72,4.76-11.9,0-23.81-.05-35.71.05-2.07.02-2.87-.55-2.52-2.59.02-.09,0-.19,0-.29q-.02-4.33,4.12-5.21c4.94-1.04,6.45-2.69,6.47-7.78.07-17.07.06-34.14,0-51.21-.02-4.85-1.58-6.37-6.48-6.74-1.8-.13-3.36-.29-2.94-2.74.31-1.82-1.07-4.03,2.68-4.45,10.04-1.14,19.93-3.37,29.67-6.1,2.47-.69,3.17-.25,2.95,2.34-.23,2.69-.05,5.42-.05,8.77Z"/><path class="cls-4" d="M349.04,123.56c0,6.73-.02,13.45.01,20.18,0,1.36.08,2.74.33,4.06,1.07,5.72,2.39,6.56,7.87,4.74,1.35-.45,1.57-.08,1.97,1.04,1.77,4.99,1.81,4.96-2.74,7.39-4.29,2.29-8.56,4.6-12.84,6.9-4.81,2.58-9.74,1.94-13.82-1.78-1.39-1.26-2.69-2.67-3.28-4.42-.86-2.52-1.89-2.14-3.57-.76-2.41,1.97-5.1,3.61-7.45,5.64-3.96,3.43-8.25,3.73-13.07,2.3-10.12-3.01-15.22-10.22-17.2-20.09-.61-3.06-.79-6.16-.47-9.31.87-8.48,5.88-13.71,13.29-17.05,7.79-3.51,15.58-7.02,23.43-10.39,2.28-.98,3.11-2.26,3.03-4.8-.13-4.03-.2-7.98-2.35-11.56-1.58-2.62-3.57-4.72-6.91-4.6-3.38.12-4.8,2.61-5.85,5.34-1.44,3.72-2.34,7.6-3.13,11.5-1.22,6.04-4.9,8.34-10.85,6.74-2.08-.56-4.01-1.5-5.71-2.84-4.2-3.32-5.05-8.15-2.21-12.71,1.88-3.03,4.44-5.44,7.33-7.46,8.21-5.76,17.23-9.81,27.06-11.8,13.96-2.83,26.63,7.79,27.06,22.66.2,7.01.03,14.04.03,21.06,0,0,.02,0,.02,0ZM324.45,120.5c-5.05,2.48-10.24,4.27-12.5,9.5-2.76,6.4-2.47,12.86,1.08,19,1.03,1.79,2.52,3.23,4.44,4.08,2.99,1.33,6.96-.32,6.97-2.92.03-9.72.01-19.44.01-29.66Z"/><path class="cls-4" d="M631.86,33.53v3.77c0,37.16,0,74.32,0,111.48,0,.98-.03,1.95.01,2.93.21,5.2,1.64,7.13,6.72,7.88,2.29.34,2.83,1.1,2.77,3.24-.13,4.64-.02,4.64-4.55,4.64-12.49,0-24.98-.08-37.47.07-2.52.03-3.33-.7-2.9-3.07.08-.47.04-.98-.01-1.46-.19-1.93-.03-3.08,2.57-3.38,5.06-.6,6.21-2.06,6.85-7.1.23-1.83.22-3.7.22-5.55,0-29.94,0-59.89-.01-89.83,0-.68,0-1.37-.02-2.05-.25-6.03-1.1-6.99-7.02-7.89-1.76-.27-3.74.04-3.37-2.94.28-2.25-.39-4.16,3.22-4.71,10.95-1.65,21.8-3.93,33.01-6.02Z"/><path class="cls-4" d="M130.05,93.69c0,18.72,0,37.45.01,56.17,0,1.36.14,2.72.28,4.07.4,3.99,3.23,5.42,6.64,5.71,2.26.19,2.61,1.11,2.56,3.09-.11,4.72-.02,4.73-4.76,4.73-12.49,0-24.97-.06-37.46.05-2.18.02-3.07-.53-2.7-2.73.09-.57.09-1.18-.02-1.75-.43-2.31.44-3.1,2.82-3.46,4.88-.73,5.95-2.06,6.58-7.04.23-1.83.23-3.7.23-5.55,0-30.04,0-60.07-.01-90.11,0-.39,0-.78,0-1.17-.15-6.66-1.01-7.73-7.57-8.58-1.88-.24-3.19-.45-2.8-2.83.32-1.97-.9-4.14,2.84-4.69,10.38-1.54,20.68-3.63,30.96-5.72,2.36-.48,2.43.26,2.42,2.17-.06,19.21-.04,38.42-.04,57.64Z"/><path class="cls-4" d="M583.86,79.77c0,1.3,0,2.37,0,3.43,0,21.74.02,43.49.03,65.23,0,1.17,0,2.34.12,3.51.57,5.53,1.77,7.05,7.22,7.75,2.3.29,2.33,1.31,2.32,3.02-.02,4.75.02,4.76-4.75,4.76-12.48,0-24.97-.05-37.45.05-2.08.02-3.17-.36-2.74-2.66.07-.38.07-.79,0-1.17-.47-2.65.44-3.82,3.29-4.28,4.81-.77,6.14-2.78,6.15-8.29.04-15.11.02-30.23.02-45.34,0-1.76.05-3.51-.02-5.26-.2-4.61-1.41-5.91-5.89-6.91-1.16-.26-3,.15-3.36-1.07-.48-1.62-.22-3.48-.11-5.23.07-1.01,1.13-.98,1.84-1.09,11.06-1.67,21.96-4.11,33.33-6.44Z"/><path class="cls-3" d="M572.88,68.07c-4.82-1.13-8.92-2.5-12.68-4.78-6.37-3.85-8.76-10.43-6.4-17.56,2.26-6.83,6.55-12.53,10.32-18.52,1.56-2.47,3.14-4.91,4.67-7.39,2.95-4.8,5.51-9.75,5.36-16.41,3.76,5.24,5.19,10.27,4.67,15.88-.7,7.53-3.67,14.44-5.87,21.56-2.74,8.89-4.26,17.78-.08,27.22Z"/><path class="cls-2" d="M310.24,191.41c2.86-2.09,5.23-3.35,7.92-3.86,2.75-.52,5.41-.15,7.08,2.2,1.24,1.75,1.99,1.12,3.34.32,3.27-1.94,6.67-3.58,10.68-2.18,2.19.76,3.61,2.06,4.06,4.44.88,4.65.37,9.33.4,13.99.01,2.02.28,3.21,2.62,2.71,2.34-.5,2.03,1.05,2.18,2.56.19,1.96-.64,2.31-2.32,2.15-2.49-.24-5.81,1.05-7.27-.52-1.23-1.33-.41-4.6-.43-7.02-.03-3.31.03-6.63-.02-9.94-.05-3.44-1.67-4.73-5.06-4.15-4.59.77-6.38,2.89-6.38,7.54,0,1.66.02,3.31,0,4.97-.04,2.47-.73,5.22,3.57,4.51,2-.33.88,1.69,1.06,2.62.16.82.46,2.03-1.21,1.99-2.44-.06-4.88-.07-7.31,0-1.65.05-1.26-1.1-1.27-1.99-.02-4.68,0-9.36-.01-14.04-.03-5.74-2.15-6.94-7.56-4.64-2.81,1.19-4.4,2.67-3.97,6.01.33,2.59.16,5.26.03,7.89-.08,1.63.39,2.35,2.07,2.07,2.03-.34,2.79.23,2.82,2.56.04,2.69-1.53,2.11-2.97,2.12-3.32.02-6.64-.1-9.94.05-1.8.08-2.15-.64-1.99-2.19.13-1.27-.46-2.97,1.87-2.54,2.49.47,3.1-.58,2.96-2.97-.22-3.69-.18-7.41,0-11.11.09-1.97-.57-2.65-2.42-2.31-2.11.39-2.25-.77-2.31-2.48-.06-1.84.5-2.42,2.29-2.24,1.55.15,3.13.16,4.67,0,2.2-.23,3.68.11,2.84,3.49Z"/><path class="cls-2" d="M47.42,191.6c7.1-5.67,14.67-5.53,19.92.05,4.31,4.58,4.31,13.3,0,18.21-4.13,4.71-12.17,6.68-19.87.5.78,3.66-1.43,3.53-3.73,3.37-1.26-.09-2.55-.15-3.8.01-2.07.27-2.61-.49-2.57-2.53.03-1.82.51-2.51,2.29-2.19,1.97.36,2.63-.32,2.59-2.44-.14-7.5-.13-15.01,0-22.51.03-1.96-.34-2.96-2.48-2.55-1.96.38-2.35-.53-2.39-2.37-.04-1.98.62-2.49,2.46-2.34,2.41.19,5.56-.74,7.06.47,1.6,1.29.39,4.56.49,6.96.1,2.31.02,4.64.02,7.38ZM65.05,200.77c.03-5.39-3.28-8.71-8.68-8.72-5.18,0-8.81,3.58-8.87,8.77-.05,5.11,3.63,8.8,8.8,8.79,5.14,0,8.72-3.63,8.75-8.83Z"/><path class="cls-2" d="M561.53,190.91c2.82-1.68,5.17-2.79,7.74-3.38,4.76-1.09,8.63,1.75,8.77,6.58.12,4.09.15,8.2.02,12.29-.06,1.91.26,3.05,2.46,2.62,2.17-.43,2.21.82,2.28,2.48.07,1.8-.43,2.44-2.26,2.24-2.41-.26-5.58,1-7.05-.47-1.45-1.46-.32-4.62-.42-7.03-.16-3.7.21-7.4-.23-11.1-.28-2.3-1.44-3.23-3.7-3.1-2.64.15-4.79,1.41-6.93,2.79-.87.56-.59,1.36-.6,2.09-.03,3.32.11,6.64-.06,9.95-.1,1.9.57,2.47,2.29,2.15,2.13-.4,2.45.59,2.53,2.54.1,2.31-1.06,2.2-2.63,2.17-3.51-.06-7.03-.13-10.54.02-2.27.09-1.55-1.43-1.62-2.52-.07-1.12-.36-2.57,1.6-2.19,2.85.55,3.32-.85,3.19-3.33-.19-3.5-.17-7.03,0-10.53.1-1.99-.37-2.95-2.5-2.54-1.99.39-2.32-.57-2.38-2.39-.06-2.02.66-2.48,2.48-2.33,1.65.14,3.33.17,4.97,0,2.04-.22,3.18.27,2.59,3Z"/><path class="cls-2" d="M370.39,210.94c-4.11,2.17-7.6,4.34-11.95,2.85-2.43-.84-3.86-2.31-4.27-4.95-.72-4.66-.26-9.34-.35-14-.03-1.44-.05-2.51-1.95-2.2-2.41.39-1.66-1.43-1.77-2.62-.11-1.28-.03-2.06,1.76-2.12,7.15-.21,7.15-.3,7.15,6.67,0,3.7-.05,7.41.06,11.11.09,3.17,1.29,4.16,4.41,3.94,4.57-.33,6.98-2.83,6.99-7.26,0-1.75-.09-3.51.02-5.26.18-2.78.33-5.25-3.81-4.51-1.83.32-1.11-1.44-1.13-2.31-.01-.88-.71-2.33,1.19-2.32,2.53.01,5.07.05,7.6-.02,1.63-.04,1.29,1.09,1.29,1.99.02,5.55.07,11.11-.03,16.66-.03,1.78.27,2.81,2.32,2.44,1.86-.34,2.49.36,2.47,2.33-.02,1.91-.52,2.6-2.45,2.39-1.54-.17-3.13-.14-4.67,0-1.9.17-3.29-.08-2.88-2.8Z"/><path class="cls-2" d="M279.66,208.18c-5.63,7.38-18.19,8.27-24.95,1.7-3.6-3.49-4.22-7.86-3.22-12.37,1.13-5.08,4.9-8.07,9.69-9.52,8.16-2.48,17.5,2.83,18.58,11.39.25,2.01.1,2.71-2.13,2.66-6.23-.14-12.47.02-18.7-.09-1.9-.03-2.1.61-1.56,2.19,1.98,5.81,9.57,8.3,15.01,4.38,2.71-1.95,4.78-2.33,7.28-.35ZM274.19,198.42c-.83-4.36-4.27-7-8.97-6.95-4.22.05-7.17,2.62-7.91,6.95h16.88Z"/><path class="cls-1" d="M585.58,200.64c.03-7.56,6.22-13.29,14.34-13.28,8.04.02,14.31,5.85,14.37,13.37.07,7.61-6.3,13.58-14.48,13.57-8.24-.01-14.26-5.79-14.24-13.66ZM600.02,209.6c5.09-.03,8.65-3.73,8.58-8.93-.07-5.14-3.69-8.63-8.9-8.62-4.98.02-8.84,3.99-8.7,8.94.14,5.08,3.87,8.64,9.03,8.61Z"/><path class="cls-1" d="M97.23,200.76c0-7.62,6.11-13.36,14.22-13.4,8.15-.04,14.55,5.93,14.5,13.54-.05,7.52-6.3,13.36-14.35,13.4-8.25.04-14.37-5.73-14.36-13.54ZM111.7,192.05c-5.12-.06-8.89,3.52-9.05,8.59-.16,4.97,3.66,8.91,8.68,8.96,5.23.05,8.84-3.42,8.92-8.59.08-5.18-3.47-8.9-8.55-8.96Z"/><path class="cls-2" d="M457.79,192.93c3.2-5.96,13.55-6.96,18.86-3.78,2,1.2,2.96,3.03,2.99,5.33.05,3.99.18,7.98.05,11.97-.07,1.99.42,2.97,2.52,2.56,2.26-.45,2.1.96,2.22,2.53.14,1.88-.54,2.37-2.29,2.2-1.45-.15-2.94-.17-4.38,0-2.12.25-3.17-.39-2.58-3.06-2.76,1.95-5.29,3.51-8.36,3.6-3.05.09-5.71-.94-7.81-3.19-2.2-2.36-2.39-6.45-.51-9.16,2.83-4.07,8.18-4.85,15.86-2.14.05-2.61.94-5.31-1.63-7.14-2.51-1.78-5.69-2.08-7.92-.24-2.49,2.06-4.53,1.53-7.03.53ZM467.23,210.19c2.25.18,4.19-.65,5.98-1.86,2.04-1.37,1.91-3.53-.25-4.82-1.78-1.06-3.69-1.62-5.8-1.52-2.89.14-5.07,1.91-5.04,4.19.03,2.36,2.1,3.99,5.1,4.01Z"/><path class="cls-2" d="M221.99,210.91c-6.58,4.3-11.46,4.47-15.48.65-2.4-2.28-2.97-6.2-1.31-9.08,2.53-4.38,7.25-5.22,16.31-2.78-.15-2.77.91-5.76-2.39-7.51-2.65-1.41-6.06-.91-8.89,1.33-1.86,1.47-3.48-.43-5.29-.31,1.54-4.64,9.19-6.54,13.78-5.66,6.65,1.26,8,2.98,8.06,9.81.03,3.11.13,6.24-.04,9.34-.11,1.98.59,2.68,2.45,2.33,2.13-.4,2.25.77,2.29,2.46.04,1.75-.36,2.49-2.23,2.26-1.44-.17-2.92-.03-4.38-.03q-2.6,0-2.88-2.8ZM214.58,210.19c2.04.16,3.98-.71,5.77-1.92,1.86-1.27,1.76-3.45-.17-4.65-1.76-1.09-3.65-1.7-5.76-1.63-3.07.11-5.34,1.92-5.23,4.29.11,2.35,2.17,3.91,5.41,3.92Z"/><path class="cls-2" d="M130.63,209.36c0-.82-.12-1.43.03-1.98.22-.86-.85-2.51,1.03-2.39,1.33.09,3.07-1.15,3.94,1.46,1.29,3.86,7.78,5.18,10.96,2.57.83-.68,1.14-1.53,1.03-2.57-.16-1.52-1.29-2.11-2.51-2.49-3.39-1.05-7-1.26-10.23-2.94-2.66-1.38-4.29-3.43-4.11-6.44.17-2.96,1.85-5.01,4.63-6.16,1.9-.79,3.92-1.42,5.9-.99,2.88.62,5.66,1.55,8.66.56,1.3-.43,1.97.21,1.8,1.69-.12,1.06.13,2.17-.07,3.2-.21,1.09,1,2.87-.8,3.17-1.48.24-3.3.98-4.29-1.7-1.06-2.87-6.6-3.86-9.31-2.18-1.09.67-1.62,1.59-1.51,2.91.12,1.39,1.21,1.74,2.19,1.99,2.98.75,6.02,1.23,8.99,2.02,4.21,1.13,6.19,3.78,6.05,7.72-.12,3.46-2.66,6-6.61,7.01-3.24.83-6.32.58-9.3-.82-.96-.45-1.27-.49-2.14.45-.65.69-2.98.75-3.83.11-1.27-.95-.2-2.91-.49-4.17Z"/><path class="cls-2" d="M618.39,209.21c0-.49-.15-1.04.03-1.45.4-.92-1.07-2.71.95-2.75,1.42-.03,3.23-1.07,4.13,1.62,1.25,3.76,8.1,4.96,10.99,2.25,1.75-1.64,1.04-4.1-1.57-4.89-2.76-.83-5.66-1.23-8.39-2.13-5.24-1.73-7.37-5.93-5.29-10.01,1.56-3.07,6.4-5.27,10.32-4.44,2.4.51,4.56,1.72,7.22.62,1.76-.73,3.2,0,2.73,2.44-.16.84.1,1.77-.06,2.62-.2,1.02.82,2.73-.73,2.92-1.43.17-3.34,1.2-4.32-1.62-1.02-2.94-6.93-3.96-9.54-2.14-.93.66-1.41,1.52-1.34,2.73.09,1.39,1.14,1.78,2.13,2.03,2.98.75,6.02,1.26,8.98,2.05,4.29,1.15,6.24,3.69,6.13,7.64-.1,3.46-2.64,6.07-6.53,7.08-3.34.86-6.49.54-9.58-.87-.47-.21-1.04-.88-1.44-.19-1.15,1.95-3.03,1.06-4.3.78-1.1-.24-.32-2.04-.49-3.14-.06-.38,0-.78,0-1.17Z"/><path class="cls-2" d="M383.58,209.19c0-.68-.11-1.39.03-2.04.16-.79-.73-2.32.97-2.16,1.34.13,3.09-1.13,3.97,1.41,1.35,3.89,7.7,5.24,10.95,2.64.95-.76,1.25-1.73,1.03-2.85-.28-1.45-1.49-1.99-2.72-2.33-3.52-.97-7.22-1.29-10.49-3.11-2.31-1.29-3.63-3.27-3.63-5.88,0-2.75,1.43-4.84,3.83-6.11,2.07-1.1,4.39-1.8,6.7-1.35,2.89.56,5.65,1.61,8.66.56,1.28-.45,1.97.2,1.8,1.68-.12,1.06.13,2.17-.07,3.21-.21,1.09,1.01,2.87-.8,3.17-1.48.25-3.3.97-4.29-1.71-1.07-2.88-6.61-3.86-9.31-2.17-1.08.68-1.62,1.6-1.5,2.92.13,1.39,1.24,1.73,2.21,1.98,2.98.75,6.03,1.23,8.99,2.02,4.21,1.13,6.18,3.79,6.03,7.75-.13,3.44-2.69,5.98-6.66,6.98-3.35.85-6.49.53-9.56-.97-.64-.31-.94-.73-1.64.39-.77,1.23-2.72.58-4.05.34-.95-.17-.35-1.52-.45-2.33-.08-.67-.02-1.36-.02-2.04Z"/><path class="cls-2" d="M512.06,192.78c.34.96.63,1.87,1,2.76,1.53,3.64,3.08,7.28,4.83,11.39,2.07-4.95,3.94-9.43,5.74-13.75-.99-1.46-3.41.88-3.65-1.9-.21-2.46.26-3.71,3.16-3.4,2.8.3,5.66.17,8.48.03,1.87-.09,1.77,1.01,1.69,2.22-.08,1.14.54,2.85-1.66,2.48-2.2-.37-2.97.77-3.68,2.62-2.17,5.59-4.62,11.07-6.8,16.65-.62,1.58-1.5,1.96-3.03,1.85-1.44-.1-2.65.15-3.39-1.78-2.18-5.69-4.78-11.21-7.02-16.88-.77-1.94-1.78-2.85-3.83-2.44-2.07.41-2.08-.82-2.09-2.35,0-1.54.02-2.54,2.1-2.4,3.01.21,6.05.1,9.07.03,1.51-.04,2.57-.05,2.43,2.06-.12,1.72,0,3.14-2.37,2.66-.26-.05-.56.07-.99.13Z"/><path class="cls-1" d="M199.08,192.87c0,.58.13,1.21-.03,1.74-.34,1.1,1.12,3.01-1.12,3.23-1.66.17-3.46.72-4.32-2-1.04-3.26-5.48-4.67-9.15-3.51-3.87,1.23-6.36,5.25-5.63,9.42.59,3.39,1.93,6.45,5.61,7.46,3.8,1.05,7.29.46,10.05-2.69.99-1.13,4.02-.97,4.94.2.64.81-.21,1.26-.49,1.73-2.53,4.25-9.04,6.78-14.28,5.63-6.19-1.36-10.58-5.6-11.28-10.95-.7-5.32.65-9.87,5.19-13.07,4.47-3.15,9.23-3.66,14.14-1.08,1,.52,1.26.78,1.92-.6.53-1.11,2.49-.5,3.76-.33,1.3.17.54,1.43.66,2.19.13.86.03,1.75.03,2.63Z"/><path class="cls-1" d="M452.62,192.79c0,.68.14,1.4-.03,2.04-.29,1.04,1.03,2.84-1.03,3.02-1.63.14-3.49.82-4.37-1.91-1.07-3.3-5.4-4.75-9.11-3.62-3.86,1.18-6.39,5.2-5.72,9.37.57,3.53,2.03,6.67,5.81,7.63,3.65.93,7.13.37,9.81-2.72,1.08-1.25,3.79-1.13,4.94.08.77.82-.12,1.25-.39,1.71-2.47,4.25-9.02,6.85-14.24,5.73-6.33-1.36-10.71-5.7-11.39-11.18-.66-5.37.83-9.87,5.39-12.99,4.38-3,9.07-3.51,13.91-1.02.78.4,1.31,1.3,1.95-.47.45-1.23,2.45-.5,3.71-.41,1.34.09.64,1.37.74,2.12.11.86.03,1.75.03,2.63Z"/><path class="cls-1" d="M251.62,182.08c-1.9-.33-4.29,1.64-5.58-1.44-.11-.27-1.19-.44-1.6-.23-2.72,1.37-1.1,3.94-1.53,5.95-.35,1.65.78,1.58,1.93,1.6,2.57.04,3.38,1.26,2.74,3.75-.39,1.53-1.59.95-2.36.87-1.98-.21-2.44.57-2.37,2.43.14,3.89.16,7.79,0,11.68-.08,1.98.58,2.59,2.44,2.33,1.71-.24,2.86-.11,2.81,2.29-.05,2.19-.84,2.51-2.73,2.43-3.3-.14-6.63-.18-9.93.01-2.16.13-1.77-1.18-1.76-2.39.01-1.18-.44-2.76,1.73-2.35,2.11.39,2.34-.75,2.3-2.48-.1-3.89-.08-7.79,0-11.68.03-1.45-.09-2.57-1.95-2.22-2.03.39-2.16-.74-2.11-2.32.04-1.45-.09-2.79,2.04-2.39,1.76.34,2.16-.61,2.02-2.15-.09-.96-.02-1.95.03-2.92.22-3.99,2.59-6.39,6.58-6.63,3.5-.21,7.36,1.98,7.31,5.84Z"/><path class="cls-2" d="M84.66,193.09c2.22-4.24,5.78-5.59,10.08-5.78,1.98-.09,2.08.96,1.84,2.31-.2,1.16,1.04,3.21-1.69,3.02-.87-.06-1.76-.03-2.63.04-4.36.38-6.48,2.53-6.71,6.88-.12,2.14.06,4.3-.23,6.41-.37,2.69.71,3.37,3.18,3.08,1.38-.16,3.07-.71,3,2.03-.06,2.21-.6,2.77-2.76,2.67-3.98-.19-7.99-.18-11.97,0-2.03.09-2.35-.68-2.36-2.48,0-1.73.36-2.61,2.23-2.26,2.89.55,3.9-.51,3.62-3.52-.3-3.28-.25-6.63-.01-9.92.18-2.46-.58-3.38-3.01-2.96-1.95.34-2.99-.1-2.86-2.53.09-1.9.69-2.38,2.37-2.16.67.08,1.36.01,2.04.01q5.24,0,5.85,5.15Z"/><path class="cls-1" d="M13.64,193.13c0,4.48.07,8.95-.03,13.43-.04,1.74.21,2.86,2.31,2.46,2.2-.42,1.92,1.1,1.98,2.47.06,1.45-.06,2.35-1.95,2.26-3.5-.15-7.02-.2-10.51,0-2.33.14-1.79-1.29-1.89-2.57-.12-1.46.06-2.54,1.93-2.18,2.42.47,3.06-.49,3-2.93-.18-7.39-.13-14.79-.02-22.18.03-1.85-.39-2.75-2.36-2.39-1.96.36-2.58-.32-2.64-2.43-.07-2.44,1.14-2.41,2.81-2.27,2.4.21,5.58-1.05,6.97.51,1.18,1.32.36,4.43.39,6.75.03,3.02,0,6.03,0,9.05Z"/><path class="cls-2" d="M30.75,198.55c0,2.73.09,5.46-.03,8.18-.07,1.66.22,2.67,2.16,2.29,2.1-.41,2.26.75,2.31,2.47.06,1.82-.47,2.34-2.27,2.26-3.31-.15-6.63-.14-9.93,0-1.89.07-1.74-1.04-1.67-2.23.07-1.15-.51-2.83,1.66-2.47,2.47.41,2.86-.77,2.77-2.91-.15-3.79-.12-7.6-.01-11.39.05-1.62-.38-2.42-2.08-2.1-2.33.44-2.32-.93-2.42-2.69-.13-2.18,1.08-2.01,2.52-2.02,6.99-.05,6.99-.07,6.99,6.82,0,1.27,0,2.53,0,3.8Z"/><path class="cls-2" d="M418.97,198.78c0,2.73.11,5.46-.04,8.18-.09,1.69.47,2.35,2.1,2.05,2.38-.44,2.26.99,2.38,2.71.15,2.2-1.09,2.02-2.51,2-3.12-.04-6.24-.11-9.35.03-1.75.08-2.18-.61-2.04-2.18.11-1.31-.35-2.94,1.93-2.54,2.09.37,2.62-.53,2.54-2.55-.16-3.79-.12-7.6-.01-11.39.05-1.77-.25-2.85-2.32-2.45-1.99.38-2.16-.73-2.16-2.34,0-1.61.17-2.39,2.16-2.4,7.34-.06,7.34-.15,7.34,7.1,0,1.27,0,2.53,0,3.8Z"/><path class="cls-2" d="M544.27,198.71c0,2.24.12,4.49-.03,6.72-.17,2.42-.02,4.14,3.2,3.65,1.85-.28,1.16,1.41,1.16,2.28,0,.87.74,2.34-1.15,2.34-3.8,0-7.6.04-11.4-.01-2.06-.03-1.03-1.69-1.19-2.64-.18-1.07-.2-2.33,1.5-2.02,2.61.47,3.02-.79,2.91-3.06-.18-3.69-.15-7.4,0-11.1.07-1.79-.43-2.58-2.25-2.24-2.24.42-2.13-.97-2.24-2.56-.14-1.98.74-2.16,2.38-2.17,7.12-.04,7.12-.09,7.12,7,0,1.27,0,2.53,0,3.8Z"/><path class="cls-5" d="M572.57,63.08c-1.98-6.58-.92-12.99,1.06-19.35,2.37-7.59,5.59-14.91,6.98-22.8.73-4.12.75-8.25.47-12.44,2.28,2.83,2.89,6.14,3.02,9.61.23,6.19-1.87,11.82-4.17,17.41-2.72,6.64-5.88,13.12-6.92,20.34-.35,2.42-.07,4.82-.45,7.23Z"/><path class="cls-1" d="M371.95,176.24c-3.51,2.86-4.98,8.34-10.99,8.34,1.31-2.72,2.4-4.96,3.47-7.21.36-.76.79-1.2,1.75-1.16,1.92.09,3.85.03,5.77.03Z"/><path class="cls-2" d="M261.52,184.62c.59-1.28.9-1.98,1.24-2.66q2.96-6.04,10.53-5.53c-4.16,2.72-5.74,7.93-11.77,8.19Z"/><path class="cls-4" d="M163.25,207.42c3.36-.98,3.03,1.09,3.29,3.26.42,3.52-1.76,2.82-3.84,3.1-2.97.4-2.87-1.17-3.01-3.34-.21-3.05.97-3.86,3.56-3.02Z"/><path class="cls-4" d="M289.87,213.6c-3.22.93-2.87-1.15-3.13-3.32-.43-3.55,1.81-2.79,3.85-3.08,3.01-.43,2.81,1.22,3,3.34.29,3.17-1.22,3.58-3.72,3.06Z"/><path class="cls-4" d="M493.4,207.38c2.74-.79,3.31.38,3.41,3.05.12,3.03-1.03,3.31-3.62,3.39-2.81.08-3.22-.92-3.29-3.42-.08-2.81.82-3.73,3.49-3.02Z"/><path class="cls-1" d="M544.67,179.43c-.33,1.8-1.63,2.73-3.43,2.61-1.69-.11-2.97-1.25-2.88-3,.09-1.72,1.39-2.81,3.12-2.76,1.78.05,3.11.94,3.19,3.15Z"/><path class="cls-1" d="M419.37,179.31c-.27,1.9-1.59,2.8-3.38,2.74-1.71-.06-2.98-1.21-2.94-2.94.04-1.73,1.34-2.83,3.06-2.82,1.78.02,3.11.9,3.26,3.02Z"/><path class="cls-1" d="M27.87,176.16c1.72.42,3.28.93,3.23,3.07-.04,1.94-1.43,2.74-3.04,2.81-1.87.09-3.21-1.09-3.21-2.95,0-1.76,1.43-2.56,3.03-2.93Z"/></svg>