<?xml version="1.0" encoding="utf-8"?>
<!-- Generator: Adobe Illustrator 28.2.0, SVG Export Plug-In . SVG Version: 6.00 Build 0)  -->
<svg version="1.1" xmlns="http://www.w3.org/2000/svg" xmlns:xlink="http://www.w3.org/1999/xlink" x="0px" y="0px"
	 viewBox="0 0 792 288" style="enable-background:new 0 0 792 288;" xml:space="preserve">
<style type="text/css">
	.st0{fill:#FEFDFD;}
	.st1{fill:#ED2348;}
	.st2{fill:#FBB145;}
	.st3{fill:#EC3130;}
	.st4{fill:#EB2046;}
	.st5{fill:#EE2147;}
</style>
<g id="Layer_1_copy">
	<g>
		<g>
			<path class="st0" d="M575.9,196.3c11.7-3.5,23.2-5.2,34.7-6.9c0.6-0.1,1.5,0.1,1.5-0.5c0.1-2.1,0.4-4.4-0.1-6.4
				c-0.3-1.2-2.2-0.6-3.4-0.7c-5.6-0.2-6.8-1.5-6.9-7.1c0-0.8,0-1.6,0-2.3c0-30,0-60.1,0-90.1c0-6.6-0.2-13.3,0.1-19.9
				c0.1-2.7-0.7-2.9-3-2.4c-10.4,2-20.8,4-31.2,5.8c-3.9,0.6-1.5,3.3-2,5c-0.6,1.9,0.7,2.1,2.2,2.3c7,0.7,8.1,1.9,8.1,9
				c0.1,6.7,0,13.5,0,20.2c0,1.5,0,3,0,4.6c-1.5-0.3-2.5-0.7-3.5-0.8c-1.1-0.2-2.1-0.3-3.2-0.3c-11.1,0.5-21,4.2-28.9,12.1
				c-13.5,13.5-17.3,29.9-13,48.1c3.4,14.2,11.7,24.4,26,28.9c6.2,2,11.7,1.2,16.5-3.5c1.8-1.7,3.8-3.2,6.1-5.1
				C575.9,189.8,575.9,192.9,575.9,196.3z M110.5,193.5c13.3,0,26.5,0,39.8,0c1.5,0,2.6,0,3-1.9c1.9-9,3.6-18.1,4.7-27.3
				c0.6-4.7,0.4-4.7-4.4-5.7c-1.7-0.4-2.3,0-2.8,1.7c-1.4,5.1-3.1,10-5.6,14.7c-2,3.9-5.2,6.2-9.3,7.4c-4.8,1.4-9.6,1.2-14.5,1.1
				c-7.8-0.1-10.5-2.4-10.7-10.2c-0.3-12.4-0.1-24.8-0.1-37.2c0-1.4,0.4-1.8,1.8-1.8c4.1,0.1,8.2-0.1,12.3,0.1
				c6.2,0.3,8.3,2.1,9.6,8.1c0.4,1.8,0.8,3.6,0.8,5.5c0.3,5.2,0.3,4,4.7,4.3c2.5,0.2,3-0.7,3-3.1c-0.1-12.4-0.1-24.8-0.1-37.2
				c0-4.7,0-4.6-4.8-4.7c-2,0-2.7,0.5-2.9,2.6c-0.1,2.3-0.6,4.6-1.1,6.9c-0.8,3.5-3.1,5.3-6.5,5.8c-5,0.6-10.1,0.5-15.2,0.5
				c-1.3,0-1.7-0.4-1.7-1.7c0-12.9,0-25.7,0-38.6c0-2.2,1.1-3.5,3.4-3.4c3.8,0,7.6-0.1,11.4,0.1c9.5,0.5,12.9,3.4,15.6,12.4
				c0.7,2.2,1.4,4.5,1.7,6.8c0.3,2.5,1.2,3.3,3.7,2.8c2.2-0.4,4.4-0.1,4-3.8c-0.9-8.4-1.3-16.9-1.6-25.4c-0.1-2.4-0.8-3-3.2-3
				c-23.6,0.1-47.2,0.1-70.8,0.1c-4.7,0-4.6,0-4.7,4.8c-0.1,2,0.4,2.8,2.6,3c6.4,0.7,8.4,2.9,9.2,9.6c0.3,2.4,0.5,4.8,0.5,7.3
				c0,25,0,49.9,0,74.9c0,2.2-0.1,4.5-0.5,6.7c-1.1,7.4-3.3,9.7-10.9,10.2c-2.3,0.1-3,0.8-2.6,2.9c0.1,0.6,0.1,1.2,0,1.8
				c-0.4,2.4,0.4,3.1,2.9,3.1C84.4,193.4,97.4,193.5,110.5,193.5z M276.4,128.8c0.1-7.1,0.8-14.7,2.9-22.2
				c2.8-9.9,6.8-19.1,15.4-25.5c10.7-8,25.2-5.9,33.1,4.9c3.9,5.3,6,11.5,7.6,17.9c0.4,1.7,1.1,2.1,2.6,1.7c1-0.3,2.1-0.4,3.2-0.5
				c1.3-0.2,2.1-0.6,1.9-2.2c-1-9.6-1.4-19.2-2.7-28.8c-0.2-1.7-0.8-2.4-2.5-2.9c-11.6-3.5-23.3-5.5-35.4-4
				c-17.8,2.1-32.8,9.4-43.4,24c-13.7,18.9-16.2,40.1-10.4,62.3c6.7,25.3,25.1,40.1,51.2,42.7c12.5,1.2,24.4-1.4,36.3-4.4
				c1.4-0.4,1.9-1.3,2.3-2.6c3.2-9.7,5.3-19.7,7.6-29.6c0.7-3.1-0.4-3.4-2.8-4c-3.1-0.8-4.3,0.2-5.4,3.1c-2.5,6.5-5.6,12.6-9.9,18.1
				c-9.6,12.3-24.5,13.4-35.3,2.8c-3.8-3.7-6.6-8.2-8.8-13C278.3,154.6,276.7,142.2,276.4,128.8z M465.4,117.5
				c0-3.3-0.2-6.1,0.1-8.8c0.2-2.6-0.5-3-3-2.3c-9.7,2.7-19.6,5-29.7,6.1c-3.7,0.4-2.4,2.6-2.7,4.5c-0.4,2.5,1.1,2.6,2.9,2.7
				c4.9,0.4,6.5,1.9,6.5,6.7c0.1,17.1,0.1,34.1,0,51.2c0,5.1-1.5,6.7-6.5,7.8c-4.1,0.9-4.1,0.9-4.1,5.2c0,0.1,0,0.2,0,0.3
				c-0.4,2,0.4,2.6,2.5,2.6c11.9-0.1,23.8-0.1,35.7-0.1c4.7,0,4.6,0,4.7-4.8c0-1.7-0.1-2.9-2.2-3.3c-2.4-0.4-3.6-2.1-3.8-4.5
				c-0.2-2-0.5-4.1-0.5-6.1c0-14.5,0.1-29.1-0.1-43.6c-0.1-4,1.8-6.2,4.7-7.9c6.1-3.6,12.3-1.1,14.2,5.7c0.8,2.7,1,5.5,1,8.4
				c0,11.9,0,23.8,0,35.7c0,2.3-0.3,4.7-0.4,7c-0.1,3.2-1.8,5.2-4.9,5.5c-2.2,0.2-2.5,1.3-2.3,3.1c0.1,0.7,0.1,1.4,0,2
				c-0.4,2.4,0.7,2.8,2.9,2.8c11.4-0.1,22.8-0.1,34.2-0.1c5.9,0,5.9,0,5.3-6c-0.1-1-0.3-1.4-1.5-1.7c-6.7-1.5-7.5-2.6-7.5-9.5
				c0-14.1,0-28.3,0-42.4c0-2.8-0.2-5.6-0.5-8.4c-2.7-20.1-25.3-24.2-35.7-15.3C471.9,112.5,468.9,114.8,465.4,117.5z M416.2,149.6
				C416.2,149.6,416.2,149.6,416.2,149.6c0-7,0.1-14-0.1-21.1c-0.4-14.9-13.1-25.5-27.1-22.7c-9.8,2-18.8,6-27.1,11.8
				c-2.9,2-5.4,4.4-7.3,7.5c-2.8,4.6-2,9.4,2.2,12.7c1.7,1.3,3.6,2.3,5.7,2.8c5.9,1.6,9.6-0.7,10.9-6.7c0.8-3.9,1.7-7.8,3.1-11.5
				c1.1-2.7,2.5-5.2,5.9-5.3c3.3-0.1,5.3,2,6.9,4.6c2.2,3.6,2.2,7.5,2.3,11.6c0.1,2.5-0.7,3.8-3,4.8c-7.9,3.4-15.6,6.9-23.4,10.4
				c-7.4,3.3-12.4,8.6-13.3,17c-0.3,3.1-0.1,6.3,0.5,9.3c2,9.9,7.1,17.1,17.2,20.1c4.8,1.4,9.1,1.1,13.1-2.3c2.3-2,5-3.7,7.4-5.6
				c1.7-1.4,2.7-1.8,3.6,0.8c0.6,1.7,1.9,3.2,3.3,4.4c4.1,3.7,9,4.4,13.8,1.8c4.3-2.3,8.6-4.6,12.8-6.9c4.5-2.4,4.5-2.4,2.7-7.4
				c-0.4-1.1-0.6-1.5-2-1c-5.5,1.8-6.8,1-7.9-4.7c-0.2-1.3-0.3-2.7-0.3-4.1C416.2,163,416.2,156.3,416.2,149.6z M699,59.5
				c-11.2,2.1-22.1,4.4-33,6c-3.6,0.5-2.9,2.5-3.2,4.7c-0.4,3,1.6,2.7,3.4,2.9c5.9,0.9,6.8,1.9,7,7.9c0,0.7,0,1.4,0,2
				c0,29.9,0,59.9,0,89.8c0,1.9,0,3.7-0.2,5.5c-0.6,5-1.8,6.5-6.8,7.1c-2.6,0.3-2.8,1.5-2.6,3.4c0,0.5,0.1,1,0,1.5
				c-0.4,2.4,0.4,3.1,2.9,3.1c12.5-0.1,25-0.1,37.5-0.1c4.5,0,4.4,0,4.6-4.6c0.1-2.1-0.5-2.9-2.8-3.2c-5.1-0.7-6.5-2.7-6.7-7.9
				c0-1,0-2,0-2.9c0-37.2,0-74.3,0-111.5C699,62.1,699,61,699,59.5z M197.2,119.7c0-19.2,0-38.4,0-57.6c0-1.9-0.1-2.6-2.4-2.2
				c-10.3,2.1-20.6,4.2-31,5.7c-3.7,0.6-2.5,2.7-2.8,4.7c-0.4,2.4,0.9,2.6,2.8,2.8c6.6,0.9,7.4,1.9,7.6,8.6c0,0.4,0,0.8,0,1.2
				c0,30,0,60.1,0,90.1c0,1.8,0,3.7-0.2,5.5c-0.6,5-1.7,6.3-6.6,7c-2.4,0.4-3.3,1.1-2.8,3.5c0.1,0.6,0.1,1.2,0,1.7
				c-0.4,2.2,0.5,2.7,2.7,2.7c12.5-0.1,25-0.1,37.5-0.1c4.7,0,4.6,0,4.8-4.7c0-2-0.3-2.9-2.6-3.1c-3.4-0.3-6.2-1.7-6.6-5.7
				c-0.1-1.4-0.3-2.7-0.3-4.1C197.2,157.2,197.2,138.4,197.2,119.7z M651,105.8c-11.4,2.3-22.3,4.8-33.3,6.4
				c-0.7,0.1-1.8,0.1-1.8,1.1c-0.1,1.7-0.4,3.6,0.1,5.2c0.4,1.2,2.2,0.8,3.4,1.1c4.5,1,5.7,2.3,5.9,6.9c0.1,1.8,0,3.5,0,5.3
				c0,15.1,0,30.2,0,45.3c0,5.5-1.3,7.5-6.2,8.3c-2.9,0.5-3.8,1.6-3.3,4.3c0.1,0.4,0.1,0.8,0,1.2c-0.4,2.3,0.7,2.7,2.7,2.7
				c12.5-0.1,25,0,37.5,0c4.8,0,4.7,0,4.7-4.8c0-1.7,0-2.7-2.3-3c-5.4-0.7-6.6-2.2-7.2-7.8c-0.1-1.2-0.1-2.3-0.1-3.5
				c0-21.7,0-43.5,0-65.2C651,108.1,651,107.1,651,105.8z M640,94.1c-4.2-9.4-2.7-18.3,0.1-27.2c2.2-7.1,5.2-14,5.9-21.6
				c0.5-5.6-0.9-10.6-4.7-15.9c0.1,6.7-2.4,11.6-5.4,16.4c-1.5,2.5-3.1,4.9-4.7,7.4c-3.8,6-8.1,11.7-10.3,18.5
				c-2.4,7.1,0,13.7,6.4,17.6C631.1,91.6,635.2,93,640,94.1z M639.7,89.1c0.4-2.4,0.1-4.8,0.4-7.2c1-7.2,4.2-13.7,6.9-20.3
				c2.3-5.6,4.4-11.2,4.2-17.4c-0.1-3.5-0.7-6.8-3-9.6c0.3,4.2,0.3,8.3-0.5,12.4c-1.4,7.9-4.6,15.2-7,22.8
				C638.8,76.1,637.7,82.5,639.7,89.1z"/>
			<path class="st1" d="M575.9,196.3c0-3.4,0-6.5,0-10.1c-2.3,1.9-4.4,3.4-6.1,5.1c-4.8,4.7-10.3,5.4-16.5,3.5
				c-14.3-4.6-22.7-14.7-26-28.9c-4.3-18.2-0.5-34.6,13-48.1c7.9-7.9,17.8-11.6,28.9-12.1c1.1,0,2.1,0.1,3.2,0.3
				c1,0.2,2.1,0.5,3.5,0.8c0-1.6,0-3.1,0-4.6c0-6.7,0-13.5,0-20.2c-0.1-7.1-1.1-8.3-8.1-9c-1.6-0.2-2.9-0.4-2.2-2.3
				c0.6-1.7-1.9-4.3,2-5c10.4-1.8,20.9-3.8,31.2-5.8c2.3-0.4,3.1-0.3,3,2.4c-0.2,6.6-0.1,13.3-0.1,19.9c0,30,0,60.1,0,90.1
				c0,0.8,0,1.6,0,2.3c0.1,5.6,1.3,6.8,6.9,7.1c1.2,0,3.1-0.5,3.4,0.7c0.5,2,0.2,4.2,0.1,6.4c0,0.7-1,0.5-1.5,0.5
				C599.1,191.1,587.6,192.8,575.9,196.3z M576,149.4c0-8.4,0-16.8,0-25.1c0-4-2.6-6.1-5.6-7.8c-2.8-1.6-5.6-1-8.2,0.9
				c-3.2,2.4-4.9,5.8-6,9.4c-2.6,8.1-2.8,16.5-2.3,24.9c0.4,7.5,1.7,14.9,5.8,21.4c1.7,2.8,3.8,5.2,6.9,6.5c4.8,2.1,9.4-0.7,9.4-5.9
				C576,165.6,576,157.5,576,149.4z"/>
			<path class="st1" d="M110.5,193.5c-13.1,0-26.1-0.1-39.2,0.1c-2.5,0-3.3-0.7-2.9-3.1c0.1-0.6,0.1-1.2,0-1.8
				c-0.3-2.1,0.4-2.8,2.6-2.9c7.6-0.5,9.9-2.8,10.9-10.2c0.3-2.2,0.5-4.5,0.5-6.7c0-25,0-49.9,0-74.9c0-2.4-0.2-4.9-0.5-7.3
				c-0.9-6.6-2.8-8.9-9.2-9.6c-2.2-0.2-2.7-0.9-2.6-3c0.1-4.8,0-4.8,4.7-4.8c23.6,0,47.2,0,70.8-0.1c2.4,0,3.1,0.6,3.2,3
				c0.4,8.5,0.8,16.9,1.6,25.4c0.4,3.7-1.8,3.4-4,3.8c-2.5,0.5-3.5-0.3-3.7-2.8c-0.2-2.3-1-4.5-1.7-6.8c-2.7-9.1-6.1-11.9-15.6-12.4
				c-3.8-0.2-7.6-0.1-11.4-0.1c-2.3,0-3.4,1.3-3.4,3.4c0,12.9,0,25.7,0,38.6c0,1.3,0.4,1.7,1.7,1.7c5.1,0,10.2,0.1,15.2-0.5
				c3.4-0.4,5.8-2.3,6.5-5.8c0.5-2.3,1-4.6,1.1-6.9c0.1-2,0.9-2.6,2.9-2.6c4.8,0.1,4.8,0,4.8,4.7c0,12.4-0.1,24.8,0.1,37.2
				c0,2.4-0.5,3.2-3,3.1c-4.4-0.3-4.5,0.9-4.7-4.3c-0.1-1.8-0.4-3.7-0.8-5.5c-1.3-6-3.4-7.8-9.6-8.1c-4.1-0.2-8.2,0-12.3-0.1
				c-1.4,0-1.8,0.4-1.8,1.8c0.1,12.4-0.1,24.8,0.1,37.2c0.2,7.9,2.8,10.2,10.7,10.2c4.9,0,9.7,0.3,14.5-1.1c4.1-1.2,7.3-3.5,9.3-7.4
				c2.5-4.7,4.2-9.6,5.6-14.7c0.5-1.7,1.1-2.1,2.8-1.7c4.8,1.1,5,1,4.4,5.7c-1.1,9.2-2.8,18.3-4.7,27.3c-0.4,1.9-1.5,1.9-3,1.9
				C137.1,193.5,123.8,193.5,110.5,193.5z"/>
			<path class="st1" d="M276.4,128.8c0.3,13.4,1.9,25.9,7.3,37.6c2.2,4.8,5,9.2,8.8,13c10.8,10.6,25.7,9.4,35.3-2.8
				c4.3-5.5,7.5-11.6,9.9-18.1c1.1-2.9,2.3-3.9,5.4-3.1c2.4,0.6,3.5,0.9,2.8,4c-2.3,9.9-4.4,19.9-7.6,29.6c-0.4,1.3-0.9,2.3-2.3,2.6
				c-11.9,3-23.8,5.6-36.3,4.4c-26.1-2.6-44.6-17.4-51.2-42.7c-5.8-22.2-3.3-43.4,10.4-62.3c10.6-14.6,25.6-21.9,43.4-24
				c12.2-1.4,23.8,0.5,35.4,4c1.7,0.5,2.3,1.2,2.5,2.9c1.2,9.6,1.7,19.2,2.7,28.8c0.2,1.6-0.6,2.1-1.9,2.2c-1.1,0.1-2.1,0.2-3.2,0.5
				c-1.5,0.4-2.2,0-2.6-1.7c-1.5-6.4-3.6-12.5-7.6-17.9c-7.9-10.7-22.4-12.9-33.1-4.9c-8.5,6.4-12.6,15.7-15.4,25.5
				C277.2,114.1,276.5,121.7,276.4,128.8z"/>
			<path class="st1" d="M465.4,117.5c3.5-2.8,6.5-5,9.4-7.5c10.4-8.9,33-4.8,35.7,15.3c0.4,2.8,0.6,5.6,0.5,8.4
				c0,14.1,0,28.3,0,42.4c0,6.9,0.8,8.1,7.5,9.5c1.1,0.2,1.4,0.7,1.5,1.7c0.6,6,0.6,6-5.3,6c-11.4,0-22.8-0.1-34.2,0.1
				c-2.2,0-3.3-0.4-2.9-2.8c0.1-0.7,0.1-1.4,0-2c-0.2-1.8,0.1-2.8,2.3-3.1c3.1-0.3,4.8-2.3,4.9-5.5c0.1-2.3,0.4-4.7,0.4-7
				c0-11.9,0-23.8,0-35.7c0-2.8-0.2-5.6-1-8.4c-2-6.8-8.1-9.3-14.2-5.7c-3,1.7-4.8,3.9-4.7,7.9c0.3,14.5,0.1,29.1,0.1,43.6
				c0,2,0.3,4.1,0.5,6.1c0.2,2.4,1.4,4.1,3.8,4.5c2.1,0.4,2.2,1.5,2.2,3.3c-0.1,4.8,0,4.8-4.7,4.8c-11.9,0-23.8-0.1-35.7,0.1
				c-2.1,0-2.9-0.6-2.5-2.6c0-0.1,0-0.2,0-0.3c0-4.3,0-4.3,4.1-5.2c4.9-1,6.5-2.7,6.5-7.8c0.1-17.1,0.1-34.1,0-51.2
				c0-4.9-1.6-6.4-6.5-6.7c-1.8-0.1-3.4-0.3-2.9-2.7c0.3-1.8-1.1-4,2.7-4.5c10-1.1,19.9-3.4,29.7-6.1c2.5-0.7,3.2-0.2,3,2.3
				C465.2,111.4,465.4,114.2,465.4,117.5z"/>
			<path class="st1" d="M416.2,149.6c0,6.7,0,13.5,0,20.2c0,1.4,0.1,2.7,0.3,4.1c1.1,5.7,2.4,6.6,7.9,4.7c1.4-0.4,1.6-0.1,2,1
				c1.8,5,1.8,5-2.7,7.4c-4.3,2.3-8.6,4.6-12.8,6.9c-4.8,2.6-9.7,1.9-13.8-1.8c-1.4-1.3-2.7-2.7-3.3-4.4c-0.9-2.5-1.9-2.1-3.6-0.8
				c-2.4,2-5.1,3.6-7.4,5.6c-4,3.4-8.2,3.7-13.1,2.3c-10.1-3-15.2-10.2-17.2-20.1c-0.6-3.1-0.8-6.2-0.5-9.3
				c0.9-8.5,5.9-13.7,13.3-17c7.8-3.5,15.6-7,23.4-10.4c2.3-1,3.1-2.3,3-4.8c-0.1-4-0.2-8-2.3-11.6c-1.6-2.6-3.6-4.7-6.9-4.6
				c-3.4,0.1-4.8,2.6-5.9,5.3c-1.4,3.7-2.3,7.6-3.1,11.5c-1.2,6-4.9,8.3-10.9,6.7c-2.1-0.6-4-1.5-5.7-2.8c-4.2-3.3-5.1-8.1-2.2-12.7
				c1.9-3,4.4-5.4,7.3-7.5c8.2-5.8,17.2-9.8,27.1-11.8c14-2.8,26.6,7.8,27.1,22.7C416.3,135.5,416.2,142.6,416.2,149.6
				C416.2,149.6,416.2,149.6,416.2,149.6z M391.6,146.5c-5.1,2.5-10.2,4.3-12.5,9.5c-2.8,6.4-2.5,12.9,1.1,19c1,1.8,2.5,3.2,4.4,4.1
				c3,1.3,7-0.3,7-2.9C391.6,166.5,391.6,156.7,391.6,146.5z"/>
			<path class="st1" d="M699,59.5c0,1.4,0,2.6,0,3.8c0,37.2,0,74.3,0,111.5c0,1,0,2,0,2.9c0.2,5.2,1.6,7.1,6.7,7.9
				c2.3,0.3,2.8,1.1,2.8,3.2c-0.1,4.6,0,4.6-4.6,4.6c-12.5,0-25-0.1-37.5,0.1c-2.5,0-3.3-0.7-2.9-3.1c0.1-0.5,0-1,0-1.5
				c-0.2-1.9,0-3.1,2.6-3.4c5.1-0.6,6.2-2.1,6.8-7.1c0.2-1.8,0.2-3.7,0.2-5.5c0-29.9,0-59.9,0-89.8c0-0.7,0-1.4,0-2
				c-0.3-6-1.1-7-7-7.9c-1.8-0.3-3.7,0-3.4-2.9c0.3-2.3-0.4-4.2,3.2-4.7C676.9,63.9,687.8,61.6,699,59.5z"/>
			<path class="st1" d="M197.2,119.7c0,18.7,0,37.4,0,56.2c0,1.4,0.1,2.7,0.3,4.1c0.4,4,3.2,5.4,6.6,5.7c2.3,0.2,2.6,1.1,2.6,3.1
				c-0.1,4.7,0,4.7-4.8,4.7c-12.5,0-25-0.1-37.5,0.1c-2.2,0-3.1-0.5-2.7-2.7c0.1-0.6,0.1-1.2,0-1.7c-0.4-2.3,0.4-3.1,2.8-3.5
				c4.9-0.7,6-2.1,6.6-7c0.2-1.8,0.2-3.7,0.2-5.5c0-30,0-60.1,0-90.1c0-0.4,0-0.8,0-1.2c-0.1-6.7-1-7.7-7.6-8.6
				c-1.9-0.2-3.2-0.4-2.8-2.8c0.3-2-0.9-4.1,2.8-4.7c10.4-1.5,20.7-3.6,31-5.7c2.4-0.5,2.4,0.3,2.4,2.2
				C197.2,81.3,197.2,100.5,197.2,119.7z"/>
			<path class="st1" d="M651,105.8c0,1.3,0,2.4,0,3.4c0,21.7,0,43.5,0,65.2c0,1.2,0,2.3,0.1,3.5c0.6,5.5,1.8,7.1,7.2,7.8
				c2.3,0.3,2.3,1.3,2.3,3c0,4.8,0,4.8-4.7,4.8c-12.5,0-25,0-37.5,0c-2.1,0-3.2-0.4-2.7-2.7c0.1-0.4,0.1-0.8,0-1.2
				c-0.5-2.6,0.4-3.8,3.3-4.3c4.8-0.8,6.1-2.8,6.2-8.3c0-15.1,0-30.2,0-45.3c0-1.8,0.1-3.5,0-5.3c-0.2-4.6-1.4-5.9-5.9-6.9
				c-1.2-0.3-3,0.1-3.4-1.1c-0.5-1.6-0.2-3.5-0.1-5.2c0.1-1,1.1-1,1.8-1.1C628.7,110.5,639.6,108.1,651,105.8z"/>
			<path class="st2" d="M640,94.1c-4.8-1.1-8.9-2.5-12.7-4.8c-6.4-3.9-8.8-10.4-6.4-17.6c2.3-6.8,6.5-12.5,10.3-18.5
				c1.6-2.5,3.1-4.9,4.7-7.4c3-4.8,5.5-9.8,5.4-16.4c3.8,5.2,5.2,10.3,4.7,15.9c-0.7,7.5-3.7,14.4-5.9,21.6
				C637.4,75.8,635.8,84.6,640,94.1z"/>
			<path class="st3" d="M639.7,89.1c-2-6.6-0.9-13,1.1-19.4c2.4-7.6,5.6-14.9,7-22.8c0.7-4.1,0.7-8.2,0.5-12.4
				c2.3,2.8,2.9,6.1,3,9.6c0.2,6.2-1.9,11.8-4.2,17.4c-2.7,6.6-5.9,13.1-6.9,20.3C639.8,84.3,640.1,86.7,639.7,89.1z"/>
			<path class="st0" d="M576,149.4c0,8.1,0,16.2,0,24.3c0,5.1-4.5,8-9.4,5.9c-3.1-1.3-5.2-3.7-6.9-6.5c-4.1-6.5-5.4-13.9-5.8-21.4
				c-0.5-8.4-0.3-16.8,2.3-24.9c1.2-3.6,2.8-7,6-9.4c2.6-1.9,5.4-2.5,8.2-0.9c3,1.7,5.6,3.8,5.6,7.8C576,132.6,576,141,576,149.4z"
				/>
			<path class="st0" d="M391.6,146.5c0,10.2,0,19.9,0,29.7c0,2.6-4,4.2-7,2.9c-1.9-0.9-3.4-2.3-4.4-4.1c-3.5-6.1-3.8-12.6-1.1-19
				C381.3,150.8,386.5,149,391.6,146.5z"/>
		</g>
	</g>
</g>
<g id="outlined">
	<g>
		<path d="M85.1,235.2v4.5H71.6v-4.5h4.5v-27.9h-4.5v-4.4h9.6v32.3H85.1z"/>
		<path d="M102.8,235.2v4.5h-13v-4.5h4v-16.7h-4v-4.5h9.1v21.2H102.8z M99.1,205.4c0,0.8-0.3,1.5-0.9,2.1c-0.6,0.6-1.3,0.9-2.1,0.9
			s-1.5-0.3-2.1-0.9c-0.6-0.6-0.9-1.3-0.9-2.1s0.3-1.5,0.9-2.1c0.6-0.6,1.3-0.9,2.1-0.9c0.9,0,1.6,0.3,2.2,0.9
			S99.1,204.6,99.1,205.4z"/>
		<path d="M125.5,213.4c2.4,0,4.5,0.6,6.4,1.8c1.9,1.2,3.4,2.8,4.5,4.8c1.1,2,1.6,4.2,1.6,6.6c0,2.4-0.5,4.7-1.6,6.8
			c-1.1,2.1-2.6,3.7-4.5,4.9c-1.9,1.2-4,1.8-6.4,1.8c-1.9,0-3.6-0.4-5.3-1.1s-3-1.8-4-3.1v3.9h-9.4v-4.5h4.5v-27.9h-4.5v-4.4h9.4
			v14.8C118.7,214.8,121.8,213.4,125.5,213.4z M124.5,235.7c1.6,0,3-0.4,4.3-1.3c1.3-0.9,2.2-2,2.9-3.4c0.7-1.4,1-2.9,1-4.5
			c0-1.6-0.4-3-1-4.3c-0.7-1.3-1.7-2.3-2.9-3.1c-1.2-0.8-2.6-1.1-4.2-1.1s-3,0.4-4.2,1.2c-1.2,0.8-2.2,1.9-2.9,3.2
			c-0.7,1.4-1,2.9-1,4.6c0,1.6,0.4,3.1,1.1,4.4c0.7,1.3,1.7,2.4,2.9,3.1C121.6,235.3,123,235.7,124.5,235.7z"/>
		<path d="M153,229.4v5.8h5.6v4.5h-15.7v-4.5h5.2v-16.7h-5.2v-4.5h9.2v5.8c1-2.3,2.3-3.9,3.8-4.8c1.5-0.9,3.7-1.4,6.5-1.4h1.1v5.1
			h-1.1c-2.7,0-4.8,0.4-6.1,1.1c-1.3,0.7-2.2,1.8-2.6,3.2C153.2,224.6,153,226.7,153,229.4z"/>
		<path d="M192.2,226.9c0,2.5-0.6,4.8-1.8,6.8c-1.2,2.1-2.8,3.7-4.9,4.9s-4.3,1.8-6.8,1.8c-2.6,0-4.9-0.6-7-1.8
			c-2.1-1.2-3.7-2.8-4.8-4.9c-1.1-2.1-1.7-4.3-1.7-6.8c0-2.6,0.6-4.9,1.7-7s2.7-3.7,4.8-4.8c2.1-1.2,4.4-1.7,7-1.7
			c2.5,0,4.8,0.6,6.9,1.8c2.1,1.2,3.7,2.9,4.8,4.9C191.6,222.2,192.2,224.5,192.2,226.9z M178.7,235.6c1.5,0,2.9-0.4,4.1-1.2
			c1.3-0.8,2.2-1.8,2.9-3.1c0.7-1.3,1-2.8,1-4.3c0-1.5-0.4-3-1-4.3c-0.7-1.3-1.7-2.4-2.9-3.2c-1.3-0.8-2.6-1.2-4.2-1.2
			c-1.5,0-2.9,0.4-4.1,1.2c-1.3,0.8-2.2,1.9-3,3.2c-0.7,1.3-1.1,2.8-1.1,4.3c0,1.5,0.4,3,1.1,4.3c0.7,1.3,1.7,2.4,3,3.2
			S177.2,235.6,178.7,235.6z"/>
		<path d="M212.9,215.2v-1.1h4.4v8.5h-4.4V221c-1.5-2.1-3.5-3.1-6-3.1c-1.3,0-2.4,0.3-3.3,0.9c-0.8,0.6-1.3,1.3-1.3,2.3
			c0,0.8,0.3,1.5,1,2c0.6,0.5,2.1,0.9,4.3,1.2l3.4,0.7c5.1,0.9,7.6,3.4,7.6,7.4c0,2.4-0.9,4.3-2.7,5.7c-1.8,1.4-4.3,2.1-7.3,2.1
			c-1.2,0-2.4-0.2-3.6-0.5c-1.2-0.3-2.1-0.8-2.9-1.3v1.4h-4.5v-8.8h4.5v0.9c0.2,1.2,0.9,2.2,2.1,3c1.1,0.7,2.4,1.1,3.9,1.1
			c1.6,0,2.9-0.3,3.9-0.9c0.9-0.6,1.4-1.4,1.4-2.6c0-0.8-0.4-1.5-1.1-1.9c-0.7-0.4-2.3-0.8-4.5-1.3l-2.6-0.6
			c-2.6-0.5-4.5-1.4-5.7-2.7c-1.2-1.3-1.8-2.9-1.8-4.9c0-1.6,0.4-3,1.3-4.1c0.9-1.1,2-2,3.4-2.6c1.4-0.6,2.8-0.9,4.3-0.9
			C209.2,213.7,211.3,214.2,212.9,215.2z"/>
		<path class="st4" d="M227.1,239.7v-6.5h6.5v6.5H227.1z"/>
		<path d="M261.9,215.9v-1.9h4.5v9.7h-4.5c-0.2-1.9-0.9-3.3-2.2-4.3c-1.3-1-2.8-1.5-4.5-1.5c-1.5,0-2.8,0.4-3.9,1.2
			c-1.2,0.8-2.1,1.8-2.7,3.2c-0.6,1.3-1,2.8-1,4.4c0,2.7,0.7,4.9,2.1,6.6c1.4,1.7,3.3,2.6,5.7,2.6c3.6,0,6.2-1.7,7.7-5.1l4.2,2
			c-2.4,5.1-6.4,7.7-12.1,7.7c-2.6,0-4.8-0.6-6.8-1.8c-2-1.2-3.5-2.9-4.6-5c-1.1-2.1-1.6-4.4-1.6-7c0-2.5,0.5-4.8,1.6-6.8
			s2.6-3.7,4.5-4.8c1.9-1.1,4.1-1.7,6.4-1.7C257.5,213.4,259.9,214.2,261.9,215.9z"/>
		<path d="M294.1,223.1v12.1h4.3v4.5h-8.7v-3.1c-2.4,2.4-5.2,3.6-8.2,3.6c-1.6,0-3-0.4-4.3-1.1c-1.3-0.7-2.4-1.7-3.1-2.9
			c-0.8-1.2-1.2-2.6-1.2-4.1c0-1.6,0.4-3,1.3-4.3c0.9-1.3,2-2.2,3.5-2.9c1.5-0.7,3-1,4.5-1c2.5,0,4.8,0.7,7,2.2v-2.8
			c0-2-0.4-3.4-1.3-4.3c-0.8-0.9-2.2-1.3-4.2-1.3c-1.4,0-2.5,0.2-3.4,0.7c-0.9,0.5-1.7,1.2-2.3,2.3l-4.8-1.2c1.1-2,2.6-3.6,4.4-4.6
			c1.9-1,4.1-1.5,6.6-1.5c3.4,0,5.9,0.8,7.5,2.3S294.1,219.8,294.1,223.1z M282.2,236.3c2.5,0,4.8-1,7-3.1v-3
			c-2.2-1.7-4.4-2.6-6.6-2.6c-1.3,0-2.5,0.4-3.5,1.3c-1,0.8-1.5,1.9-1.5,3.2c0,1.2,0.4,2.2,1.3,3
			C279.7,235.9,280.8,236.3,282.2,236.3z"/>
		<path d="M319.9,208.1l-4.5,0.7c-0.1-1.7-0.8-2.5-1.9-2.5c-0.8,0-1.3,0.3-1.6,0.9c-0.3,0.6-0.4,1.6-0.4,3.1v3.9h4.4v4.5h-4.4v16.7
			h4.8v4.5h-13.6v-4.5h3.8v-16.7h-3.8v-4.5h3.8v-4c0-2.3,0.6-4.2,1.7-5.7s2.8-2.2,5.1-2.2c1.9,0,3.3,0.5,4.5,1.5
			C318.9,204.6,319.6,206.1,319.9,208.1z"/>
		<path d="M346.9,228.2h-21.5c0.3,2.5,1.3,4.4,2.9,5.8c1.6,1.4,3.5,2.1,5.9,2.1c1.7,0,3.3-0.3,4.7-1c1.4-0.7,2.7-1.8,3.6-3.2l4.4,2
			c-1.4,2.2-3.2,3.8-5.5,4.9c-2.3,1.1-4.7,1.7-7.4,1.7c-2.8,0-5.2-0.6-7.4-1.7s-3.8-2.8-5-4.8c-1.2-2.1-1.8-4.4-1.8-7
			c0-2.6,0.6-4.9,1.8-7c1.2-2.1,2.8-3.7,4.8-4.8c2.1-1.2,4.3-1.7,6.8-1.7c2.7,0,5.1,0.6,7.1,1.8c2,1.2,3.6,2.9,4.7,5.1
			C346.2,222.5,346.8,225.2,346.9,228.2z M333.3,217.6c-1.9,0-3.6,0.6-5,1.9c-1.4,1.3-2.4,3-2.8,5.1h16.1c-0.5-2.1-1.5-3.8-3-5.1
			C337.1,218.2,335.3,217.6,333.3,217.6z M331.2,210.7l3.8-8.4h7.3l-7.6,8.4H331.2z"/>
		<path class="st5" d="M355.4,239.7v-6.5h6.5v6.5H355.4z"/>
		<path d="M374.2,235.2v-16.7h-4.3v-4.5h9.4v3.2c3-2.4,6-3.6,8.9-3.6c3,0,5,1.3,6.1,4c3.3-2.7,6.4-4,9.3-4c2.1,0,3.7,0.6,4.9,1.8
			c1.2,1.2,1.8,3.1,1.8,5.6v14.1h4.5v4.5h-9.5v-16.3c0-1.1-0.1-2-0.2-2.7c-0.1-0.7-0.4-1.3-0.9-1.8c-0.5-0.5-1.2-0.7-2.3-0.7
			c-0.9,0-2,0.3-3.2,0.8c-1.2,0.6-2.5,1.4-3.9,2.5v13.7h4.3v4.5h-9.4v-16.9c0-1.6-0.2-2.8-0.7-3.5c-0.5-0.7-1.3-1.1-2.5-1.1
			c-1.9,0-4.3,1.1-7.3,3.3v13.7h4.5v4.5h-14.2v-4.5H374.2z"/>
		<path d="M430.8,235.8c2.3,0,4.7-1.1,7.3-3.3v-13.9h-4.5v-4.5h9.6v21.2h4.4v4.5h-9.4v-3c-3,2.3-5.8,3.4-8.4,3.4
			c-2.4,0-4.2-0.7-5.3-2.1c-1.1-1.4-1.7-3.8-1.7-7.1v-12.3h-3.6v-4.5h8.6v17.9c0,1.3,0.2,2.3,0.7,2.9
			C428.9,235.5,429.7,235.8,430.8,235.8z M430,210.7l3.8-8.4h7.3l-7.6,8.4H430z"/>
		<path d="M468.1,215.2v-1.1h4.4v8.5h-4.4V221c-1.5-2.1-3.5-3.1-6-3.1c-1.3,0-2.4,0.3-3.3,0.9c-0.8,0.6-1.3,1.3-1.3,2.3
			c0,0.8,0.3,1.5,1,2c0.6,0.5,2.1,0.9,4.3,1.2l3.4,0.7c5.1,0.9,7.6,3.4,7.6,7.4c0,2.4-0.9,4.3-2.7,5.7c-1.8,1.4-4.3,2.1-7.3,2.1
			c-1.2,0-2.4-0.2-3.6-0.5c-1.2-0.3-2.1-0.8-2.9-1.3v1.4h-4.5v-8.8h4.5v0.9c0.2,1.2,0.9,2.2,2.1,3c1.1,0.7,2.4,1.1,3.9,1.1
			c1.6,0,2.9-0.3,3.9-0.9c0.9-0.6,1.4-1.4,1.4-2.6c0-0.8-0.4-1.5-1.1-1.9c-0.7-0.4-2.3-0.8-4.5-1.3l-2.6-0.6
			c-2.6-0.5-4.5-1.4-5.7-2.7c-1.2-1.3-1.8-2.9-1.8-4.9c0-1.6,0.4-3,1.3-4.1c0.9-1.1,2-2,3.4-2.6c1.4-0.6,2.8-0.9,4.3-0.9
			C464.3,213.7,466.4,214.2,468.1,215.2z"/>
		<path d="M491.8,235.2v4.5h-13v-4.5h4v-16.7h-4v-4.5h9.1v21.2H491.8z M488.2,205.4c0,0.8-0.3,1.5-0.9,2.1c-0.6,0.6-1.3,0.9-2.1,0.9
			s-1.5-0.3-2.1-0.9c-0.6-0.6-0.9-1.3-0.9-2.1s0.3-1.5,0.9-2.1c0.6-0.6,1.3-0.9,2.1-0.9c0.9,0,1.6,0.3,2.2,0.9
			S488.2,204.6,488.2,205.4z"/>
		<path d="M516,215.9v-1.9h4.5v9.7H516c-0.2-1.9-0.9-3.3-2.2-4.3c-1.3-1-2.8-1.5-4.5-1.5c-1.5,0-2.8,0.4-3.9,1.2
			c-1.2,0.8-2.1,1.8-2.7,3.2c-0.6,1.3-1,2.8-1,4.4c0,2.7,0.7,4.9,2.1,6.6c1.4,1.7,3.3,2.6,5.7,2.6c3.6,0,6.2-1.7,7.7-5.1l4.2,2
			c-2.4,5.1-6.4,7.7-12.1,7.7c-2.6,0-4.8-0.6-6.8-1.8c-2-1.2-3.5-2.9-4.6-5c-1.1-2.1-1.6-4.4-1.6-7c0-2.5,0.5-4.8,1.6-6.8
			c1.1-2.1,2.6-3.7,4.5-4.8c1.9-1.1,4.1-1.7,6.4-1.7C511.6,213.4,514,214.2,516,215.9z"/>
		<path d="M548.2,223.1v12.1h4.3v4.5h-8.7v-3.1c-2.4,2.4-5.2,3.6-8.2,3.6c-1.6,0-3-0.4-4.3-1.1c-1.3-0.7-2.4-1.7-3.2-2.9
			c-0.8-1.2-1.2-2.6-1.2-4.1c0-1.6,0.4-3,1.3-4.3c0.9-1.3,2-2.2,3.5-2.9c1.5-0.7,3-1,4.5-1c2.5,0,4.8,0.7,7,2.2v-2.8
			c0-2-0.4-3.4-1.3-4.3c-0.8-0.9-2.2-1.3-4.2-1.3c-1.4,0-2.5,0.2-3.4,0.7c-0.9,0.5-1.7,1.2-2.3,2.3l-4.8-1.2c1.1-2,2.6-3.6,4.4-4.6
			c1.9-1,4.1-1.5,6.6-1.5c3.4,0,5.9,0.8,7.5,2.3C547.4,217.3,548.2,219.8,548.2,223.1z M536.3,236.3c2.5,0,4.8-1,7-3.1v-3
			c-2.2-1.7-4.4-2.6-6.6-2.6c-1.3,0-2.5,0.4-3.5,1.3c-1,0.8-1.5,1.9-1.5,3.2c0,1.2,0.4,2.2,1.3,3C533.9,235.9,535,236.3,536.3,236.3
			z"/>
		<path class="st5" d="M560,239.7v-6.5h6.5v6.5H560z"/>
		<path d="M579.6,218.6l5.5,14.6l5.5-14.6h-3.6v-4.5h12.3v4.5h-3.9l-8.2,21.6h-4.6l-8.3-21.6h-4.5v-4.5H583v4.5H579.6z"/>
		<path d="M616.3,235.2v4.5h-13v-4.5h4v-16.7h-4v-4.5h9.1v21.2H616.3z M612.7,205.4c0,0.8-0.3,1.5-0.9,2.1c-0.6,0.6-1.3,0.9-2.1,0.9
			s-1.5-0.3-2.1-0.9c-0.6-0.6-0.9-1.3-0.9-2.1s0.3-1.5,0.9-2.1c0.6-0.6,1.3-0.9,2.1-0.9c0.9,0,1.6,0.3,2.2,0.9
			S612.7,204.6,612.7,205.4z"/>
		<path d="M645.7,222.5v12.8h4.3v4.5h-9.4v-16.9c0-1.6-0.2-2.8-0.7-3.5c-0.5-0.7-1.2-1-2.3-1c-2.2,0-4.8,1.1-7.6,3.3v13.6h4.4v4.5
			h-13.9v-4.5h4.5v-16.7h-4.5v-4.5h9.5v3.1c3.1-2.3,6.1-3.4,8.9-3.4c2.3,0,4,0.7,5.1,2.1C645.1,217.3,645.7,219.5,645.7,222.5z"/>
		<path d="M681.7,226.9c0,2.5-0.6,4.8-1.8,6.8c-1.2,2.1-2.8,3.7-4.9,4.9s-4.3,1.8-6.8,1.8c-2.6,0-4.9-0.6-7-1.8
			c-2.1-1.2-3.7-2.8-4.8-4.9c-1.1-2.1-1.7-4.3-1.7-6.8c0-2.6,0.6-4.9,1.7-7c1.1-2.1,2.7-3.7,4.8-4.8c2.1-1.2,4.4-1.7,7-1.7
			c2.5,0,4.8,0.6,6.9,1.8c2.1,1.2,3.7,2.9,4.8,4.9C681.1,222.2,681.7,224.5,681.7,226.9z M668.2,235.6c1.5,0,2.9-0.4,4.1-1.2
			c1.3-0.8,2.2-1.8,2.9-3.1c0.7-1.3,1-2.8,1-4.3c0-1.5-0.4-3-1-4.3c-0.7-1.3-1.7-2.4-2.9-3.2c-1.3-0.8-2.6-1.2-4.2-1.2
			c-1.5,0-2.9,0.4-4.1,1.2c-1.3,0.8-2.2,1.9-3,3.2c-0.7,1.3-1.1,2.8-1.1,4.3c0,1.5,0.4,3,1.1,4.3c0.7,1.3,1.7,2.4,3,3.2
			S666.7,235.6,668.2,235.6z"/>
		<path d="M702.5,215.2v-1.1h4.4v8.5h-4.4V221c-1.5-2.1-3.5-3.1-6-3.1c-1.3,0-2.4,0.3-3.3,0.9c-0.8,0.6-1.3,1.3-1.3,2.3
			c0,0.8,0.3,1.5,1,2c0.6,0.5,2.1,0.9,4.3,1.2l3.4,0.7c5.1,0.9,7.6,3.4,7.6,7.4c0,2.4-0.9,4.3-2.7,5.7c-1.8,1.4-4.3,2.1-7.3,2.1
			c-1.2,0-2.4-0.2-3.6-0.5c-1.2-0.3-2.1-0.8-2.9-1.3v1.4h-4.5v-8.8h4.5v0.9c0.2,1.2,0.9,2.2,2.1,3c1.1,0.7,2.4,1.1,3.9,1.1
			c1.6,0,2.9-0.3,3.9-0.9c0.9-0.6,1.4-1.4,1.4-2.6c0-0.8-0.4-1.5-1.1-1.9c-0.7-0.4-2.3-0.8-4.5-1.3l-2.6-0.6
			c-2.6-0.5-4.5-1.4-5.7-2.7c-1.2-1.3-1.8-2.9-1.8-4.9c0-1.6,0.4-3,1.3-4.1c0.9-1.1,2-2,3.4-2.6c1.4-0.6,2.8-0.9,4.3-0.9
			C698.7,213.7,700.8,214.2,702.5,215.2z"/>
	</g>
</g>
</svg>
