<?xml version="1.0" encoding="utf-8"?>
<!-- Generator: Adobe Illustrator 22.0.0, SVG Export Plug-In . SVG Version: 6.00 Build 0)  -->
<svg version="1.1" id="Layer_1" xmlns="http://www.w3.org/2000/svg" xmlns:xlink="http://www.w3.org/1999/xlink" x="0px" y="0px"
	 viewBox="0 0 1200 1200" style="enable-background:new 0 0 1200 1200;" xml:space="preserve">
<style type="text/css">
	.st0{fill:#1E3287;}
	.st1{fill:url(#SVGID_1_);}
	.st2{fill:url(#SVGID_2_);}
	.st3{fill:url(#SVGID_3_);}
	.st4{fill:url(#SVGID_4_);}
	.st5{fill:url(#SVGID_5_);}
</style>
<g>
	<g>
		<g>
			<path class="st0" d="M382.2,588.9h42.3c5.4,0,9.8,4.4,9.8,9.8c0,5.4-4.4,9.8-9.8,9.8h-42.3v37.2c0,5.4-4.4,9.8-9.8,9.8h0
				c-5.4,0-9.8-4.4-9.8-9.8V545.2c0-5.4,4.4-9.8,9.8-9.8h59.4c5.4,0,9.8,4.4,9.8,9.8s-4.4,9.8-9.8,9.8h-49.6V588.9z"/>
			<path class="st0" d="M497.5,595.5c0-8.7-8.8-13.1-18.3-12.9c-4.9,0-9.8,1.2-13.9,3.6c-3.1,1.8-6.9,1.4-9.4-1.2l-0.2-0.3
				c-3.3-3.4-2.8-8.9,1.1-11.7c7.7-5.6,16.1-7.1,24.8-7.1c17.1,0,34.6,9.2,34.6,29v56.4c-8.1,3.1-20.4,5.9-33.3,5.9
				c-18.3,0-35.8-5.9-35.8-26.8c0-19.4,16.3-28.2,32.6-28.2c6.3,0,12.7,1.2,17.8,3.4V595.5z M497.5,620.3c-3.7-1.7-9.5-3.1-15.1-3.1
				c-10.9,0-17,5.4-17,13.1c0,8.3,7.8,11.4,16.3,11.4c6.1,0,11.7-0.8,15.8-1.9V620.3z"/>
			<path class="st0" d="M577.9,574.3L577.9,574.3c0,4.5-3.5,8-8,8.3c-8.4,0.5-17.1,5-17.1,13.9v49.7c0,5.2-4.2,9.3-9.3,9.3
				c-5.2,0-9.3-4.2-9.3-9.3v-50.1c0-12.6,7-21.6,16.3-26.5c5.4-2.9,14.9-3.7,17.5-3.7c0.7,0,1.3,0,2,0
				C574.4,566.1,577.9,569.8,577.9,574.3"/>
			<path class="st0" d="M589.8,575.3c7.6-5.4,19.2-9.2,29.9-9.3c10.5,0,20.4,2.9,25.6,11.7c5.1-7.6,14.4-11.5,24.1-11.7
				c16-0.2,32.6,9.5,32.6,29v51.4c0,5.1-4.1,9.2-9.2,9.2h-0.2c-5.1,0-9.2-4.1-9.2-9.2v-50.8c0-8-6.8-11.5-14.1-11.5
				c-7.3,0-14.8,4.1-14.8,10.9v51.4c0,5.1-4.1,9.2-9.2,9.2c-5.1,0-9.2-4.1-9.2-9.2v-46.7c0-12.4-7.1-15.7-15.7-15.6
				c-4.3,0-8.8,1.2-12.5,3.6v58.7c0,5.1-4.1,9.2-9.2,9.2s-9.2-4.1-9.2-9.2V575.3z"/>
			<path class="st0" d="M766.9,595.5c0-8.7-8.8-13.1-18.3-12.9c-4.9,0-9.8,1.2-13.9,3.6c-3.1,1.8-6.9,1.4-9.4-1.2l-0.2-0.3
				c-3.3-3.4-2.8-8.9,1.1-11.7c7.7-5.6,16.1-7.1,24.8-7.1c17.1,0,34.6,9.2,34.6,29v56.4c-8.1,3.1-20.4,5.9-33.3,5.9
				c-18.3,0-35.8-5.9-35.8-26.8c0-19.4,16.3-28.2,32.6-28.2c6.3,0,12.7,1.2,17.8,3.4V595.5z M766.9,620.3c-3.7-1.7-9.5-3.1-15.1-3.1
				c-10.9,0-17,5.4-17,13.1c0,8.3,7.8,11.4,16.3,11.4c6.1,0,11.7-0.8,15.8-1.9V620.3z"/>
			<path class="st0" d="M802.6,572.4c0-25.6,23.1-38.7,46.5-38.7c13.9,0,28.2,5.7,37.8,17.2c4.1,4.9,2.5,12.2-3.1,15l-0.4,0.2
				c-4,2-8.7,1-11.7-2.4c-6.1-6.9-14.8-10.4-23.1-10.4c-13.2,0-26.5,6.3-26.5,19v46.2c0,12.7,13.2,19,26.5,19
				c8.5,0,17.3-3.4,23.3-10.3c2.9-3.3,7.6-4.3,11.5-2.5c5.8,2.7,7.5,10.2,3.3,15.2c-9.8,11.6-24.2,17.4-38.1,17.4
				c-22.9,0-46-12.9-46-38.7V572.4z"/>
			<path class="st0" d="M915.3,533.7c7,0,11.9,5.1,11.9,11.9c0,6.6-4.9,11.9-11.9,11.9c-6.6,0-11.7-5.3-11.7-11.9
				C903.6,538.8,908.7,533.7,915.3,533.7 M925,577v69.3c0,5.2-4.2,9.3-9.3,9.3s-9.3-4.2-9.3-9.3V577c0-5.2,4.2-9.3,9.3-9.3
				S925,571.8,925,577"/>
			<path class="st0" d="M982,650.3c0,3.8-3.1,7-6.9,7h-0.1c-17.3,0-31.1-9.2-31.1-31.4v-71.9c0-3.9,3.1-7,7-7h4.5c3.9,0,7,3.1,7,7
				l0,13.7h9.8c3.9,0,7,3.1,7,7v3c0,3.9-3.1,7-7,7h-9.8v41.1c0,11,5.8,13.8,13.3,14.5c3.6,0.3,6.2,3.4,6.2,7V650.3z"/>
			<path class="st0" d="M1033.4,657.2l-6.1,0c1.2,0.1,2.4,0.2,3.6,0.2C1031.7,657.3,1032.6,657.2,1033.4,657.2"/>
			<path class="st0" d="M1064.9,576.9v67.2c-6.4,4.8-12.4,8-17.8,10.1c0,0,0-0.1,0-0.1c-4.3,1.7-8.9,2.7-13.6,3.1l-6.1,0
				c-3.9-0.3-7.7-1.1-11.3-2.4c0,0,0,0,0,0c0,0,0,0,0,0v0c-12-4.3-21.3-13.9-21.3-28.2v-49.7c0-5.1,4.1-9.3,9.3-9.3h0.2
				c5.1,0,9.3,4.1,9.3,9.3v49.8c0.5,9.2,9.8,13.6,19,13.6c5.3,0,10.5-1.4,14.1-3.9v-59.5c0-5.1,4.1-9.3,9.3-9.3
				C1060.7,567.7,1064.9,571.8,1064.9,576.9"/>
			<path class="st0" d="M1033.4,657.2h1.5c-3.9,0.4-7.2,0.3-10,0h2.4L1033.4,657.2z"/>
			<path class="st0" d="M1063.5,664.8L1063.5,664.8c0,0.3,0,0.5,0,0.8c0,0.3-0.1,0.6-0.2,0.9c-3.3,18.6-19.6,32.6-39,32.6
				c-10.9,0-21.3-4.5-28.7-12.3c-0.3-0.3-0.5-0.5-0.8-0.8c-1-1.3-1.7-2.9-1.7-4.7c0-4.2,3.4-7.5,7.5-7.5c1.9,0,3.7,0.7,5.1,2
				c0.3,0.3,0.6,0.7,0.9,1c4.6,4.7,10.9,7.4,17.6,7.4c12,0,22-8.6,24.2-20v0c0.1-0.3,0.1-0.6,0.2-0.9c0,0,0,0,0,0
				c0.8-3.3,3.8-5.8,7.3-5.8c3.6,0,6.6,2.5,7.3,5.8C1063.5,663.7,1063.5,664.3,1063.5,664.8"/>
			<path class="st0" d="M1063.5,664.8L1063.5,664.8c0,0.3,0,0.5,0,0.8c0,0.3-0.1,0.6-0.2,0.9c-3.3,18.6-19.6,32.6-39,32.6
				c-10.9,0-21.3-4.5-28.7-12.3c-0.3-0.3-0.5-0.5-0.8-0.8c-1-1.3-1.7-2.9-1.7-4.7c0-4.2,3.4-7.5,7.5-7.5c1.9,0,3.7,0.7,5.1,2
				c0.3,0.3,0.6,0.7,0.9,1c4.6,4.7,10.9,7.4,17.6,7.4c12,0,22-8.6,24.2-20v0c0.1-0.3,0.1-0.6,0.2-0.9c0,0,0,0,0,0
				c0.8-3.3,3.8-5.8,7.3-5.8c3.6,0,6.6,2.5,7.3,5.8C1063.5,663.7,1063.5,664.3,1063.5,664.8z"/>
		</g>
		<g>
			<g>
				<linearGradient id="SVGID_1_" gradientUnits="userSpaceOnUse" x1="197.7386" y1="631.7485" x2="197.7386" y2="480.3398">
					<stop  offset="0" style="stop-color:#00B8AC"/>
					<stop  offset="0.2167" style="stop-color:#00ABB6"/>
					<stop  offset="0.6123" style="stop-color:#008ACF"/>
					<stop  offset="1" style="stop-color:#0064EC"/>
				</linearGradient>
				<path class="st1" d="M271.6,558.2c-0.5,8.7-7.5,15.5-16,15.5c-3.7,0-7.4-1.4-10.2-3.8c-3.4-2.9-5.5-7.4-5.3-11.9
					c0-0.8,0.1-1.7,0.2-2.5c0-0.5,0-1.1,0-1.6c0-1,0-2-0.1-2.9c-0.1-0.2-0.1-0.4-0.1-0.7l0-0.1c-0.1-0.7-0.1-1.2-0.2-1.8
					c-2.8-21-20.9-36.9-42.1-36.9c-5.5,0-10.8,1-15.9,3.1c-0.2,0.1-0.4,0.2-0.6,0.3l-0.4,0.2c-0.8,0.3-1.6,0.7-2.5,1.2
					c-0.9,0.5-1.7,0.9-2.4,1.4c-0.9,0.6-1.8,1.2-2.7,1.8c-0.3,0.2-0.5,0.4-0.8,0.6c-0.9,0.7-1.7,1.3-2.4,1.9
					c-1.5,1.3-2.9,2.7-4.3,4.3c-6.7,7.7-10.4,17.6-10.4,27.8v29.9h59.1c4.2,0,8.2,1.6,11.1,4.6c3,3,4.6,7,4.6,11.2
					c0,8.7-7.1,15.8-15.8,15.8h-59.1V644c0,8.7-7.1,15.8-15.8,15.8c-8.7,0-15.8-7.1-15.8-15.8v-90.1c0-40.8,33.2-74,74-74
					c5.7,0,11.4,0.7,16.9,2c0.6,0.1,1.3,0.3,1.9,0.5c0.6,0.1,1.2,0.3,1.8,0.5c0.5,0.1,1,0.3,1.5,0.4c0.6,0.2,1.2,0.4,1.7,0.6
					c0.5,0.2,1.1,0.4,1.7,0.6c0.9,0.3,1.8,0.7,2.7,1.1l1.3,0.5c0.1,0,0.3,0.1,0.4,0.2c0.4,0.2,0.8,0.4,1.3,0.6
					c0.3,0.1,0.5,0.3,0.8,0.4l0.7,0.4c0.7,0.4,1.4,0.7,2,1c0.7,0.4,1.3,0.7,2,1.1c1.2,0.7,2.4,1.4,3.6,2.2c0.6,0.4,1.2,0.8,1.7,1.2
					c1,0.7,2.1,1.5,3.2,2.3c0.5,0.4,1,0.8,1.4,1.1c14.8,12,24.3,28.9,26.7,47.6c0.1,1.1,0.3,2.2,0.4,3.3
					C271.6,549.8,271.8,555.9,271.6,558.2z"/>
				<linearGradient id="SVGID_2_" gradientUnits="userSpaceOnUse" x1="233.9223" y1="598.7891" x2="295.9276" y2="601.0438">
					<stop  offset="0" style="stop-color:#00B8AC"/>
					<stop  offset="0.2167" style="stop-color:#00ABB6"/>
					<stop  offset="0.6123" style="stop-color:#008ACF"/>
					<stop  offset="1" style="stop-color:#0064EC"/>
				</linearGradient>
				<path class="st2" d="M256.1,583.8c-8.7,0-15.8,7.1-15.8,15.8c0,8.7,7.1,15.8,15.8,15.8s15.8-7.1,15.8-15.8
					C271.9,590.9,264.8,583.8,256.1,583.8z"/>
				<path class="st0" d="M271.3,637.8c-0.9-7.9-7.6-13.8-15.6-13.8c-6.8,0-13.1,4.6-15,11c-0.3,0.9-0.5,2-0.6,3
					c-0.2,1.8-0.1,3.7,0.2,6.1c0.2,1.4,0.1,2.9,0,4.4l-0.1,0.9c-0.1,1.3-0.1,2.5-0.4,3.6l0,0.2c-0.1,0.5-0.2,1.1-0.3,1.6
					c-3.7,20.1-21.3,34.6-41.7,34.6c-11.3,0-22.4-4.7-30.4-12.8c-0.5-0.5-1-1-1.5-1.7l-0.2-0.2c-2.9-2.6-6.7-4.1-10.6-4.1
					c-8.7,0-15.8,7.1-15.8,15.8c0,2.2,0.4,4.3,1.3,6.3l0.1,0.3l0.2,0.2c14.1,17.1,34.9,26.9,57,26.9c17.8,0,35-6.4,48.5-18.1
					c13.3-11.6,22-27.5,24.6-44.8c0.5-3.6,0.8-7.2,0.8-10.9c0-2.7-0.1-5.4-0.4-8C271.3,638.1,271.3,637.9,271.3,637.8z M269.2,638.3
					L269.2,638.3L269.2,638.3L269.2,638.3z"/>
			</g>
			<g>
				<linearGradient id="SVGID_3_" gradientUnits="userSpaceOnUse" x1="248.6164" y1="554.2929" x2="210.3733" y2="510.8564">
					<stop  offset="0" style="stop-color:#00439B;stop-opacity:0"/>
					<stop  offset="1" style="stop-color:#003899"/>
				</linearGradient>
				<path class="st3" d="M262.2,572.3c-2,0.9-4.2,1.4-6.5,1.4c-3.7,0-7.4-1.4-10.2-3.8c-2.8-2.4-4.7-5.9-5.2-9.5
					c-0.2-1.6,0-3.2,0.1-4.9c0-0.5,0-1.1,0-1.6c0-1,0-2-0.1-2.9c-0.1-0.2-0.1-0.4-0.1-0.7l0-0.1c-0.1-0.7-0.1-1.2-0.2-1.8
					c-2.6-19.8-18.8-35.1-38.4-36.7c1.3-0.1,2.7-0.2,4.1-0.2c23.4,0,43.4,15.9,46.5,36.9c0.1,0.6,0.2,1.2,0.2,1.8l0,0.1
					c0,0.2,0.1,0.4,0.2,0.7c0.1,0.9,0.1,1.9,0.1,2.9c0,0.5,0,1.1,0,1.6c0,1-0.1,2-0.2,2.9l0,0.2l0,0.2
					C252.4,564.8,256.5,569.9,262.2,572.3z"/>
				<linearGradient id="SVGID_4_" gradientUnits="userSpaceOnUse" x1="205.9324" y1="694.521" x2="253.8804" y2="638.5817">
					<stop  offset="0" style="stop-color:#080844"/>
					<stop  offset="1" style="stop-color:#1E3287"/>
				</linearGradient>
				<path class="st4" d="M262.2,625.4c-4.4,1.8-8,5.3-9.4,9.6c-0.3,0.9-0.5,1.9-0.6,3c-0.2,1.8-0.1,3.7,0.2,6.1
					c0.2,1.4,0.1,2.9,0,4.4l-0.1,0.9c-0.1,1.3-0.2,2.5-0.4,3.6l0,0.2c-0.1,0.5-0.2,1.1-0.3,1.6c-4.1,20.1-23.5,34.6-46.1,34.6
					c-1.4,0-2.7-0.1-4-0.2c18.8-1.6,34.6-15.6,38.1-34.4c0.1-0.5,0.2-1.1,0.3-1.6l0-0.2c0.3-1.1,0.3-2.3,0.4-3.6l0.1-0.9
					c0.1-1.5,0.2-3,0-4.4c-0.3-2.4-0.3-4.3-0.2-6.1c0.1-1,0.3-2,0.6-3c1.9-6.4,8.2-11,15-11C258,623.9,260.2,624.4,262.2,625.4z"/>
			</g>
			<linearGradient id="SVGID_5_" gradientUnits="userSpaceOnUse" x1="139.5614" y1="615.3645" x2="139.5614" y2="662.5099">
				<stop  offset="0" style="stop-color:#0064EC"/>
				<stop  offset="1" style="stop-color:#00B8AC"/>
			</linearGradient>
			<path class="st5" d="M155.3,615.4V644c0,8.7-7.1,15.8-15.8,15.8c-8.7,0-15.8-7.1-15.8-15.8v-5.7
				C123.8,615.8,155.3,615.4,155.3,615.4z"/>
		</g>
	</g>
</g>
</svg>
