<svg id="_x33_0" enable-background="new 0 0 64 64" height="512" viewBox="0 0 64 64" width="512" xmlns="http://www.w3.org/2000/svg"><g><g><g><path d="m36 8.11v5.8c0 9.62 6.28 17.73 15.15 20.32l-.78 3.93c-10.68-2.99-18.37-12.78-18.37-24.25v-3.08-.01c1.17-.4 2-1.51 2-2.82.68 0 1.34.04 2 .11z" fill="#fcd770"/></g><g><path d="m32 13.91c0 11.47-7.69 21.26-18.37 24.25l-.78-3.93c7.39-2.16 12.97-8.14 14.64-15.63.9-.51 1.51-1.48 1.51-2.6 0-.77-.29-1.47-.76-2v-.02c1.55-.11 2.76-1.4 2.76-2.98.35 0 .69-.06 1-.18v.01z" fill="#fcd770"/></g><g><path d="m34 4c9.74 0 18.02 6.36 20.9 15.14-.28-.09-.59-.14-.9-.14-1.24 0-2.3.75-2.76 1.82-1.44-4.79-4.83-8.75-9.24-10.94-1.84-.92-3.87-1.53-6-1.77-.66-.07-1.32-.11-2-.11 0-1.66-1.34-3-3-3 0-.35-.06-.69-.18-1h.01z" fill="#fcd770"/></g><g><path d="m51 28c0 .87.37 1.65.96 2.2l-.81 4.03c-8.87-2.59-15.15-10.7-15.15-20.32v-5.8c2.13.24 4.16.85 6 1.77v4.03c0 5.08 2.44 9.57 6.26 12.32h.01c.46 1.04 1.51 1.77 2.73 1.77z" fill="#ffeaa7"/></g><g><path d="m48 25c0 .44.1.86.27 1.23h-.01c-3.82-2.75-6.26-7.24-6.26-12.32v-4.03c4.41 2.19 7.8 6.15 9.24 10.94-.15.36-.24.76-.24 1.18-1.66 0-3 1.34-3 3z" fill="#ffeaa7"/></g><g><path d="m27.49 18.6c-1.67 7.49-7.25 13.47-14.64 15.63l-.81-4.03c.59-.55.96-1.33.96-2.2 1.66 0 3-1.34 3-3 0-.54-.14-1.04-.39-1.47.84-.53 1.39-1.47 1.39-2.53 1.31 0 2.42-.84 2.83-2.01.06.01.11.01.17.01 0 1.66 1.34 3 3 3s3-1.34 3-3c.54 0 1.05-.15 1.49-.4z" fill="#ffeaa7"/></g><g><path d="m58.19 27.76 2.81 26.24h-1.7c-1.28 0-2.48-.57-3.3-1.54v-.01c-.1-.12-.19-.24-.28-.37-.47-.7-.72-1.53-.72-2.38v-1.7-17.17-.01c1.17-.4 2-1.51 2-2.82.42 0 .83-.09 1.19-.25z" fill="#ffeaa7"/></g><g><path d="m55 30.83v17.17h-.39c-.91 0-1.8-.18-2.61-.53-.2-.08-.39-.17-.57-.27-.97-.52-1.81-1.26-2.43-2.2l1.37-6.84.78-3.93.81-4.03c.53.49 1.25.8 2.04.8.35 0 .69-.06 1-.18z" fill="#ffeaa7"/></g><g><path d="m7 28c0 1.31.83 2.42 2 2.82v.01 17.17 1.7c0 .85-.25 1.68-.72 2.38-.09.13-.18.25-.28.37v.01c-.82.97-2.02 1.54-3.3 1.54h-1.7l2.81-26.24v-.01c.36.16.77.25 1.19.25z" fill="#ffeaa7"/></g><g><path d="m9 30.82c.31.12.65.18 1 .18.79 0 1.51-.3 2.04-.8l.81 4.03.78 3.93 1.37 6.84c-.62.94-1.46 1.68-2.43 2.2-.18.1-.37.19-.57.27-.81.35-1.7.53-2.61.53h-.39v-17.17z" fill="#ffeaa7"/></g><g><path d="m12 47.48v10.52h-4v-5.54-.01c.1-.12.19-.24.28-.37.47-.7.72-1.53.72-2.38v-1.7h.39c.91 0 1.8-.18 2.61-.53z" fill="#aab2bd"/></g><g><path d="m54.61 48h.39v1.7c0 .85.25 1.68.72 2.38.09.13.18.25.28.37v.01 5.54h-4v-10.52-.01c.81.35 1.7.53 2.61.53z" fill="#aab2bd"/></g><g><path d="m62 59v2c0 .55-.45 1-1 1h-14c-.55 0-1-.45-1-1v-2c0-.55.45-1 1-1h5 4 5c.55 0 1 .45 1 1z" fill="#838f9b"/></g><g><path d="m18 59v2c0 .55-.45 1-1 1h-14c-.55 0-1-.45-1-1v-2c0-.55.45-1 1-1h5 4 5c.55 0 1 .45 1 1z" fill="#838f9b"/></g><g><path d="m14 5c-1.31 0-2.42.83-2.82 2h-.01-.17c-1.62 0-3.22.26-4.74.77-.11.04-.21.07-.32.11-.62-1.28-.94-2.69-.94-4.12v-1.76h1.76c2.71 0 5.32 1.08 7.24 3z" fill="#a0d468"/></g><g><path d="m14 11c0 .35.06.69.18 1h-.01c-.06 0-.11 0-.17 0-.21 0-.42.02-.62.06-1.36.29-2.38 1.49-2.38 2.94-.86 0-1.64.36-2.19.95-2.48-.67-4.61-2.28-5.93-4.49l-.88-1.46c1.21-.91 2.54-1.61 3.94-2.12.11-.04.21-.07.32-.11 1.52-.51 3.12-.77 4.74-.77h.17.01c-.12.31-.18.65-.18 1 0 1.66 1.34 3 3 3z" fill="#b4dd7f"/></g><g><path d="m31 11c0 1.58-1.21 2.87-2.76 2.98-.08.02-.16.02-.24.02-1.66 0-3-1.34-3-3-.89 0-1.69-.38-2.22-1-.49-.53-.78-1.23-.78-2 0-.62.19-1.19.5-1.67.54-.8 1.46-1.33 2.5-1.33 0-1.66 1.34-3 3-3 1.31 0 2.42.83 2.82 2 .12.31.18.65.18 1 1.66 0 3 1.34 3 3 0 1.31-.83 2.42-2 2.82-.31.12-.65.18-1 .18z" fill="#e6e9ed"/></g><g><path d="m28.24 14c.47.53.76 1.23.76 2 0 1.12-.61 2.09-1.51 2.6-.44.25-.95.4-1.49.4 0 1.66-1.34 3-3 3s-3-1.34-3-3c-.06 0-.11 0-.17-.01-1.58-.08-2.83-1.39-2.83-2.99 0-.84.34-1.6.9-2.13.54-.54 1.28-.87 2.1-.87 0-1.58 1.22-2.87 2.77-2.99l.01-.01c.53.62 1.33 1 2.22 1 0 1.66 1.34 3 3 3 .08 0 .16 0 .24-.02z" fill="#ff826e"/></g><g><path d="m14.18 12c.4 1.17 1.51 2 2.82 2 .31 0 .61-.05.89-.14l.01.01c-.56.53-.9 1.29-.9 2.13 0 1.6 1.25 2.91 2.83 2.99-.41 1.17-1.52 2.01-2.83 2.01 0 1.06-.55 2-1.39 2.53-.51-.91-1.49-1.53-2.61-1.53 0-1.66-1.34-3-3-3-.59 0-1.15.17-1.61.47-.25-.43-.39-.94-.39-1.47 0-.8.31-1.52.81-2.05.55-.59 1.33-.95 2.19-.95 0-1.45 1.02-2.65 2.38-2.94.2-.04.41-.06.62-.06h.17z" fill="#e6e9ed"/></g><g><path d="m14 11c-1.66 0-3-1.34-3-3 0-.35.06-.69.18-1 .4-1.17 1.51-2 2.82-2 0-1.66 1.34-3 3-3s3 1.34 3 3c1.04 0 1.95.52 2.49 1.32l.01.01c-.31.48-.5 1.05-.5 1.67 0 .77.29 1.47.78 2l-.01.01c-1.55.12-2.77 1.41-2.77 2.99-.82 0-1.56.33-2.1.87l-.01-.01c-.28.09-.58.14-.89.14-1.31 0-2.42-.83-2.82-2-.12-.31-.18-.65-.18-1z" fill="#ff826e"/></g><g><path d="m13 28c0 .87-.37 1.65-.96 2.2-.53.5-1.25.8-2.04.8-.35 0-.69-.06-1-.18-1.17-.4-2-1.51-2-2.82-.42 0-.83-.09-1.19-.25-1.07-.45-1.81-1.51-1.81-2.75 0-1.66 1.34-3 3-3 0-1.07.55-2 1.39-2.53.46-.3 1.02-.47 1.61-.47 1.66 0 3 1.34 3 3 1.12 0 2.1.62 2.61 1.53.25.43.39.93.39 1.47 0 1.66-1.34 3-3 3z" fill="#ff826e"/></g><g><path d="m48 25c0-1.66 1.34-3 3-3 0-.42.09-.82.24-1.18.46-1.07 1.52-1.82 2.76-1.82.31 0 .62.05.9.14 1.22.38 2.1 1.51 2.1 2.86 1.66 0 3 1.34 3 3 0 1.24-.74 2.3-1.81 2.75-.36.16-.77.25-1.19.25 0 1.31-.83 2.42-2 2.82-.31.12-.65.18-1 .18-.79 0-1.51-.31-2.04-.8-.59-.55-.96-1.33-.96-2.2-1.22 0-2.27-.73-2.73-1.77-.17-.37-.27-.79-.27-1.23z" fill="#ff826e"/></g><g><circle cx="17" cy="8" fill="#fc6e51" r="2"/></g><g><circle cx="28" cy="8" fill="#ccd1d9" r="2"/></g><g><circle cx="23" cy="16" fill="#fc6e51" r="2"/></g><g><circle cx="14" cy="18" fill="#ccd1d9" r="2"/></g><g><circle cx="10" cy="25" fill="#fc6e51" r="2"/></g><g><circle cx="54" cy="25" fill="#fc6e51" r="2"/></g></g><path d="m61 57h-4v-2.534c.708.341 1.49.534 2.303.534h2.81l-2.862-26.707c1.052-.721 1.749-1.924 1.749-3.293 0-1.896-1.327-3.489-3.102-3.898-.278-1.207-1.11-2.194-2.207-2.711-3.238-9.221-11.889-15.391-21.691-15.391h-2.548c-.693-1.192-1.976-2-3.452-2-1.897 0-3.489 1.327-3.898 3.102-.599.138-1.141.42-1.604.795-.47-.378-1.009-.659-1.599-.795-.409-1.775-2.002-3.102-3.899-3.102-1.561 0-2.905.906-3.563 2.214-1.924-1.43-4.239-2.214-6.68-2.214h-2.757v2.764c0 1.212.221 2.426.633 3.568-1.144.494-2.233 1.118-3.233 1.868l-.722.541 1.343 2.238c1.237 2.061 3.087 3.624 5.286 4.51-.191.468-.307.975-.307 1.511 0 .401.068.798.185 1.178-.523.522-.912 1.179-1.083 1.923-1.775.41-3.102 2.003-3.102 3.899 0 1.369.697 2.572 1.749 3.293l-2.862 26.707h2.81c.813 0 1.595-.193 2.303-.534v2.534h-4c-1.103 0-2 .897-2 2v2c0 1.103.897 2 2 2h14c1.103 0 2-.897 2-2v-2c0-1.103-.897-2-2-2h-4v-8.893c1.124-.592 2.103-1.46 2.832-2.553l.23-.345-1.275-6.376c8.46-2.702 14.859-9.52 17.213-17.846 2.355 8.326 8.753 15.144 17.213 17.846l-1.275 6.376.23.345c.729 1.093 1.708 1.961 2.832 2.553v8.893h-4c-1.103 0-2 .897-2 2v2c0 1.103.897 2 2 2h14c1.103 0 2-.897 2-2v-2c0-1.103-.897-2-2-2zm-24-47.719c1.391.254 2.732.683 4 1.263v3.37c0 5.125 2.421 9.956 6.483 12.98.539.997 1.485 1.744 2.618 2.005.137.592.414 1.127.781 1.587l-.487 2.436c-8.052-2.826-13.395-10.323-13.395-19.009zm14.78 17.719h-.78c-1.103 0-2-.897-2-2s.897-2 2-2h.78c-.48.532-.78 1.229-.78 2s.301 1.468.78 2zm-1.678-5.898c-1.432.33-2.56 1.438-2.947 2.848-2.622-2.628-4.155-6.234-4.155-10.037v-2.302c3.339 2.096 5.941 5.33 7.188 9.223-.028.09-.065.175-.086.268zm1.898 6.898v-.78c.532.48 1.229.78 2 .78s1.468-.301 2-.78v.78c0 1.103-.897 2-2 2s-2-.897-2-2zm1-3c0-.552.449-1 1-1s1 .448 1 1-.449 1-1 1-1-.448-1-1zm6.303 28c-1.107 0-2.134-.55-2.748-1.471-.363-.545-.555-1.177-.555-1.832v-18.238c.588-.342 1.078-.829 1.428-1.413l2.459 22.954zm-2.303-30c1.103 0 2 .897 2 2s-.897 2-2 2h-.78c.48-.532.78-1.229.78-2s-.301-1.468-.78-2zm-1-.22c-.532-.48-1.229-.78-2-.78s-1.468.301-2 .78v-.78c0-1.103.897-2 2-2s2 .897 2 2zm-2.569-4.731c-.689.099-1.32.371-1.849.775-2.783-6.774-9.355-11.444-16.714-11.788-.2-.799-.628-1.508-1.228-2.036h.36c8.59 0 16.216 5.188 19.431 13.049zm-22.431-8.049h-.78c.479-.532.78-1.229.78-2s-.301-1.468-.78-2h.78c1.103 0 2 .897 2 2s-.897 2-2 2zm-17-4h.78c-.479.532-.78 1.229-.78 2s.301 1.468.78 2h-.78c-1.103 0-2-.897-2-2s.897-2 2-2zm8.46 5.075c.471.39 1.027.681 1.642.823.388 1.684 1.846 2.951 3.615 3.077.183.308.283.661.283 1.025 0 1.103-.897 2-2 2h-.78c.48-.532.78-1.229.78-2 0-1.654-1.346-3-3-3-.771 0-1.468.301-2 .78v-.78c0-.906.616-1.687 1.46-1.925zm-1.46 7.145c.532.48 1.229.78 2 .78s1.468-.301 2-.78v.78c0 1.103-.897 2-2 2s-2-.897-2-2zm1-2.22c0-.552.449-1 1-1s1 .448 1 1-.449 1-1 1-1-.448-1-1zm-1.22 2h-.78c-1.103 0-2-.897-2-2s.897-2 2-2h.78c-.48.532-.78 1.229-.78 2s.301 1.468.78 2zm-6.882 3.102c-.009-.04-.027-.076-.037-.116.047.002.091.014.139.014.771 0 1.468-.301 2-.78v.78c0 .38-.115.737-.308 1.049-.5-.456-1.112-.79-1.794-.947zm-1.678 1.898h.78c1.103 0 2 .897 2 2s-.897 2-2 2h-.78c.48-.532.78-1.229.78-2s-.301-1.468-.78-2zm.78-5c0-.552.449-1 1-1s1 .448 1 1-.449 1-1 1-1-.448-1-1zm3.943.567c.351.417.788.754 1.28 1.001-.344.268-.767.432-1.223.432h-.78c.359-.398.617-.886.723-1.433zm-.925-2.772c-.534-.489-1.239-.795-2.018-.795-.771 0-1.468.301-2 .78v-.78c0-.956.675-1.755 1.573-1.952.562.936 1.494 1.62 2.594 1.855-.082.286-.133.584-.149.892zm-4.018 6.205v.78c-.532-.48-1.229-.78-2-.78s-1.468.301-2 .78v-.78c0-1.103.897-2 2-2s2 .897 2 2zm-1 3c0 .552-.449 1-1 1s-1-.448-1-1 .449-1 1-1 1 .448 1 1zm-3 3v-.78c.532.479 1.229.78 2 .78s1.468-.301 2-.78v.78c0 1.103-.897 2-2 2s-2-.897-2-2zm5.117 2.485c.367-.46.645-.995.781-1.587 1.775-.409 3.102-2.002 3.102-3.898 0-.406-.072-.794-.185-1.164.538-.533.916-1.201 1.085-1.938.623-.144 1.195-.439 1.676-.844.7 1.163 1.97 1.946 3.424 1.946.811 0 1.559-.254 2.19-.67-2.238 4.922-6.402 8.774-11.585 10.599zm14.883-17.485c-1.103 0-2-.897-2-2v-.78c.532.48 1.229.78 2 .78s1.468-.301 2-.78v.78c0 1.103-.897 2-2 2zm-1-5c0-.552.449-1 1-1s1 .448 1 1-.449 1-1 1-1-.448-1-1zm1-5c1.103 0 2 .897 2 2v.78c-.532-.479-1.229-.78-2-.78s-1.468.301-2 .78v-.78c0-1.103.897-2 2-2zm-3 3h.78c-.479.532-.78 1.229-.78 2s.301 1.468.78 2h-.78c-1.103 0-2-.897-2-2s.897-2 2-2zm-5 0c.487 0 .948.18 1.307.491-.192.467-.307.973-.307 1.509 0 .497.096.971.262 1.411-1.074.525-1.884 1.509-2.159 2.69-.62.142-1.179.436-1.652.83-.149.035-.298.069-.451.069-1.103 0-2-.897-2-2v-.78c.532.48 1.229.78 2 .78 1.654 0 3-1.346 3-3 0-.771-.301-1.468-.78-2zm-4 2c0-.552.449-1 1-1s1 .448 1 1-.449 1-1 1-1-.448-1-1zm1-5c1.103 0 2 .897 2 2v.78c-.532-.479-1.229-.78-2-.78s-1.468.301-2 .78v-.78c0-1.103.897-2 2-2zm-11 .764v-.764h.757c1.872 0 3.658.555 5.174 1.584-.58.353-1.065.846-1.403 1.436-1.36.04-2.708.258-4.011.64-.337-.927-.517-1.912-.517-2.896zm-2.264 7.186-.399-.666c1.988-1.297 4.3-2.075 6.666-2.247.009 1.008.399 1.921 1.025 2.621l-3.864-.644-.329 1.973 3.959.66c-.322.43-.569.918-.693 1.456-.562.13-1.07.388-1.515.727-2.029-.676-3.741-2.032-4.85-3.88zm5.264 7.05c0-1.103.897-2 2-2h.78c-.48.532-.78 1.229-.78 2 0 .05.012.096.015.145-.326-.086-.663-.145-1.015-.145-.341 0-.666.056-.982.137-.004-.046-.018-.091-.018-.137zm-2 5h.78c-.479.532-.78 1.229-.78 2s.301 1.468.78 2h-.78c-1.103 0-2-.897-2-2s.897-2 2-2zm-2.303 30h-.584l2.459-22.954c.35.584.84 1.071 1.428 1.413v18.238c0 .654-.192 1.287-.555 1.832-.613.921-1.641 1.471-2.748 1.471zm12.304 8h-14.001v-2h14zm-6.001-4h-2v-4.217c.035-.049.076-.093.109-.144.583-.874.891-1.892.891-2.942v-.735c.339-.026.672-.073 1-.143zm-1-10.035v-14.965c.468 0 .917-.082 1.334-.23l2.6 13.001c-.959 1.243-2.379 2.03-3.934 2.194zm4.392-10.104-.392-1.958c7.155-2.417 12.586-8.331 14.364-15.695.987-.729 1.636-1.89 1.636-3.208 0-.488-.09-.966-.259-1.414.479-.234.91-.55 1.259-.946v.273c0 10.436-6.782 19.708-16.608 22.948zm18.608-22.948v-2.461c.901-.524 1.571-1.388 1.849-2.417.05.003.101.004.151.007v4.871c0 9.643 5.995 17.952 15.001 20.984l-.393 1.964c-9.826-3.24-16.608-12.512-16.608-22.948zm17.065 30.858 2.6-13.001c.418.148.867.23 1.335.23v14.965c-1.555-.164-2.975-.951-3.935-2.194zm2.935 4.049c.328.069.661.116 1 .143v.735c0 1.05.308 2.067.891 2.941.034.051.074.095.109.144v4.217h-2zm8 12.18h-14v-2h14z"/></g></svg>