<svg enable-background="new 0 0 512 512" viewBox="0 0 512 512" xmlns="http://www.w3.org/2000/svg" xmlns:xlink="http://www.w3.org/1999/xlink"><linearGradient id="lg1"><stop offset="0" stop-color="#b1bbd6"/><stop offset="1" stop-color="#f3fdff"/></linearGradient><linearGradient id="XMLID_2_" gradientTransform="matrix(.731 -.682 .682 .731 190.749 1140.243)" gradientUnits="userSpaceOnUse" x1="569.903" x2="886.59" xlink:href="#lg1" y1="-424.765" y2="-424.765"/><linearGradient id="XMLID_3_" gradientTransform="matrix(.731 -.682 .682 .731 91.887 889.268)" gradientUnits="userSpaceOnUse" x1="202.43" x2="535.453" xlink:href="#lg1" y1="-415.514" y2="-415.514"/><linearGradient id="XMLID_4_" gradientTransform="matrix(.731 -.682 .682 .731 343.189 935.236)" gradientUnits="userSpaceOnUse" x1="448.356" x2="656.208" xlink:href="#lg1" y1="-720.094" y2="-720.094"/><linearGradient id="XMLID_5_" gradientTransform="matrix(.731 -.682 .682 .731 233.333 978.51)" gradientUnits="userSpaceOnUse" x1="508.543" x2="624.468" y1="-572.973" y2="-572.973"><stop offset="0" stop-color="#d92b00"/><stop offset="1" stop-color="#ff6d2b"/></linearGradient><linearGradient id="XMLID_6_" gradientTransform="matrix(.731 -.682 .682 .731 86.758 1036.247)" gradientUnits="userSpaceOnUse" x1="446.566" x2="659.004" y1="-344.633" y2="-344.633"><stop offset="0" stop-color="#5757a7"/><stop offset="1" stop-color="#9999e9"/></linearGradient><linearGradient id="XMLID_7_" gradientTransform="matrix(.731 -.682 .682 .731 233.333 978.51)" gradientUnits="userSpaceOnUse" x1="253.276" x2="733.393" y1="-495.8" y2="-495.8"><stop offset="0" stop-color="#c3c9d6"/><stop offset="1" stop-color="#fff"/></linearGradient><g id="_x34_4_Hotel"><g id="XMLID_2224_"><g id="XMLID_2225_"><g id="XMLID_2245_"><path id="XMLID_2253_" d="m503.514 175.655v327.357h-127.75v-351.31z" fill="url(#XMLID_2_)"/><path id="XMLID_2252_" d="m136.235 151.702v351.31h-127.749v-327.357z" fill="url(#XMLID_3_)"/><path id="XMLID_2251_" d="m136.235 7.984h239.53v47.906h-239.53z" fill="url(#XMLID_4_)"/><path id="XMLID_2250_" d="m320.533 172.162c0 8.543-2.715 17.096-8.144 24.222-1.088 1.427-2.276 2.804-3.583 4.112l-52.806 52.797-52.796-52.796c-1.307-1.307-2.505-2.675-3.593-4.102-5.429-7.136-8.144-15.689-8.144-24.232 0-10.25 3.902-20.5 11.737-28.324 14.412-14.412 37.087-15.539 52.796-3.383 15.719-12.156 38.385-11.028 52.806 3.383 7.825 7.823 11.727 18.073 11.727 28.323z" fill="url(#XMLID_5_)"/><path id="XMLID_2249_" d="m200.109 311.388h111.78v191.624h-111.78z" fill="url(#XMLID_6_)"/><path id="XMLID_2246_" d="m375.764 151.702v351.31h-63.874v-191.624h-111.78v191.624h-63.875v-351.31-95.812h239.53v95.812zm-63.375 44.682c5.429-7.126 8.144-15.679 8.144-24.222 0-10.25-3.902-20.5-11.727-28.324-14.422-14.412-37.087-15.539-52.806-3.383-15.709-12.156-38.385-11.028-52.796 3.383-7.835 7.825-11.737 18.075-11.737 28.324 0 8.543 2.715 17.096 8.144 24.232 1.088 1.427 2.286 2.795 3.593 4.102l52.796 52.797 52.806-52.796c1.307-1.308 2.495-2.686 3.583-4.113z" fill="url(#XMLID_7_)"/></g><g id="XMLID_2226_"><g id="XMLID_2244_"><path id="XMLID_1602_" d="m375.765 159.686c-4.409 0-7.984-3.575-7.984-7.984v-135.733h-223.561v135.733c0 4.41-3.575 7.984-7.984 7.984s-7.984-3.575-7.984-7.984v-143.718c0-4.41 3.575-7.984 7.984-7.984h239.53c4.409 0 7.984 3.575 7.984 7.984v143.718c-.001 4.41-3.576 7.984-7.985 7.984z"/></g><g id="XMLID_2243_"><path id="XMLID_1601_" d="m200.11 510.996h-63.875c-4.409 0-7.984-3.575-7.984-7.984s3.575-7.984 7.984-7.984h63.875c4.409 0 7.984 3.575 7.984 7.984s-3.575 7.984-7.984 7.984z"/></g><g id="XMLID_2242_"><path id="XMLID_1600_" d="m375.765 510.996h-63.875c-4.409 0-7.984-3.575-7.984-7.984s3.575-7.984 7.984-7.984h63.875c4.409 0 7.984 3.575 7.984 7.984s-3.575 7.984-7.984 7.984z"/></g><g id="XMLID_2241_"><path id="XMLID_1597_" d="m136.235 510.996h-127.749c-4.409 0-7.984-3.575-7.984-7.984v-327.357c0-3.842 2.737-7.139 6.513-7.847l127.749-23.953c2.334-.441 4.743.187 6.571 1.703 1.827 1.517 2.885 3.769 2.885 6.144v351.31c0 4.409-3.575 7.984-7.985 7.984zm-119.765-15.968h111.78v-333.705l-111.78 20.959z"/></g><g id="XMLID_2240_"><path id="XMLID_1561_" d="m503.514 510.996h-127.749c-4.409 0-7.984-3.575-7.984-7.984v-351.31c0-2.375 1.057-4.627 2.885-6.144s4.239-2.143 6.571-1.703l127.749 23.953c3.776.708 6.513 4.005 6.513 7.847v327.357c-.001 4.409-3.576 7.984-7.985 7.984zm-119.765-15.968h111.78v-312.746l-111.78-20.959z"/></g><g id="XMLID_2239_"><path id="XMLID_1553_" d="m311.89 510.996h-111.78c-4.409 0-7.984-3.575-7.984-7.984v-191.624c0-4.409 3.575-7.984 7.984-7.984h111.78c4.409 0 7.984 3.575 7.984 7.984v191.624c.001 4.409-3.574 7.984-7.984 7.984zm-103.796-15.968h95.812v-175.655h-95.812z"/></g><g id="XMLID_2238_"><path id="XMLID_1552_" d="m96.314 255.498h-47.906c-4.409 0-7.984-3.575-7.984-7.984 0-4.41 3.575-7.984 7.984-7.984h47.906c4.409 0 7.984 3.575 7.984 7.984 0 4.41-3.575 7.984-7.984 7.984z"/></g><g id="XMLID_2237_"><path id="XMLID_1551_" d="m96.314 319.373h-47.906c-4.409 0-7.984-3.575-7.984-7.984s3.575-7.984 7.984-7.984h47.906c4.409 0 7.984 3.575 7.984 7.984s-3.575 7.984-7.984 7.984z"/></g><g id="XMLID_2236_"><path id="XMLID_1550_" d="m96.314 383.247h-47.906c-4.409 0-7.984-3.575-7.984-7.984s3.575-7.984 7.984-7.984h47.906c4.409 0 7.984 3.575 7.984 7.984s-3.575 7.984-7.984 7.984z"/></g><g id="XMLID_2234_"><path id="XMLID_1549_" d="m96.314 447.122h-47.906c-4.409 0-7.984-3.575-7.984-7.984s3.575-7.984 7.984-7.984h47.906c4.409 0 7.984 3.575 7.984 7.984s-3.575 7.984-7.984 7.984z"/></g><g id="XMLID_2233_"><path id="XMLID_1547_" d="m463.592 255.498h-47.906c-4.409 0-7.984-3.575-7.984-7.984 0-4.41 3.575-7.984 7.984-7.984h47.906c4.409 0 7.984 3.575 7.984 7.984.001 4.41-3.574 7.984-7.984 7.984z"/></g><g id="XMLID_2232_"><path id="XMLID_1546_" d="m463.592 319.373h-47.906c-4.409 0-7.984-3.575-7.984-7.984s3.575-7.984 7.984-7.984h47.906c4.409 0 7.984 3.575 7.984 7.984s-3.574 7.984-7.984 7.984z"/></g><g id="XMLID_2231_"><path id="XMLID_1545_" d="m463.592 383.247h-47.906c-4.409 0-7.984-3.575-7.984-7.984s3.575-7.984 7.984-7.984h47.906c4.409 0 7.984 3.575 7.984 7.984s-3.574 7.984-7.984 7.984z"/></g><g id="XMLID_2230_"><path id="XMLID_1544_" d="m463.592 447.122h-47.906c-4.409 0-7.984-3.575-7.984-7.984s3.575-7.984 7.984-7.984h47.906c4.409 0 7.984 3.575 7.984 7.984.001 4.409-3.574 7.984-7.984 7.984z"/></g><g id="XMLID_2229_"><path id="XMLID_1501_" d="m256 261.277c-2.044 0-4.087-.78-5.646-2.338l-52.797-52.797c-1.555-1.555-3-3.207-4.297-4.908-6.306-8.288-9.778-18.611-9.778-29.072 0-12.84 5-24.906 14.079-33.973 15.64-15.639 39.842-18.399 58.441-7.369 18.602-11.022 42.805-8.262 58.448 7.371 9.072 9.071 14.067 21.135 14.067 33.972 0 10.465-3.472 20.785-9.777 29.061-1.346 1.765-2.788 3.42-4.289 4.92l-52.805 52.796c-1.559 1.557-3.603 2.337-5.646 2.337zm-24.444-121.175c-8.264 0-16.494 3.169-22.706 9.381-6.062 6.055-9.399 14.107-9.399 22.679 0 6.988 2.313 13.877 6.514 19.397.863 1.132 1.835 2.241 2.886 3.292l47.15 47.15 47.16-47.152c.999-.999 1.968-2.112 2.88-3.308 4.196-5.507 6.508-12.391 6.508-19.38 0-8.571-3.334-16.625-9.388-22.678-11.387-11.378-29.562-12.547-42.276-2.713-2.876 2.225-6.894 2.223-9.77-.001-5.776-4.469-12.679-6.667-19.559-6.667z"/></g><g id="XMLID_2228_"><path id="XMLID_1500_" d="m375.765 63.875h-239.53c-4.409 0-7.984-3.575-7.984-7.984s3.575-7.984 7.984-7.984h239.53c4.409 0 7.984 3.575 7.984 7.984s-3.575 7.984-7.984 7.984z"/></g><g id="XMLID_2227_"><path id="XMLID_1499_" d="m279.953 439.138c-4.409 0-7.984-3.575-7.984-7.984v-23.954c0-4.409 3.575-7.984 7.984-7.984s7.984 3.575 7.984 7.984v23.953c0 4.41-3.575 7.985-7.984 7.985z"/></g></g></g></g></g><g id="Layer_1"/></svg>