<?xml version="1.0" encoding="UTF-8" standalone="no"?>
<!-- Created with Inkscape (http://www.inkscape.org/) -->

<svg
   version="1.1"
   id="svg2532"
   xml:space="preserve"
   width="682.66669"
   height="682.66669"
   viewBox="0 0 682.66669 682.66669"
   xmlns="http://www.w3.org/2000/svg"
   xmlns:svg="http://www.w3.org/2000/svg"><defs
     id="defs2536"><clipPath
       clipPathUnits="userSpaceOnUse"
       id="clipPath2546"><path
         d="M 0,512 H 512 V 0 H 0 Z"
         id="path2544" /></clipPath></defs><g
     id="g2538"
     transform="matrix(1.3333333,0,0,-1.3333333,0,682.66667)"><g
       id="g2540"><g
         id="g2542"
         clip-path="url(#clipPath2546)"><g
           id="g2548"
           transform="translate(255.937,352.4551)"><path
             d="m 0,0 c 0,0 3.989,-138.452 -164.604,-192.789 l -24.502,-1.663 V 39.076 H 0.063 Z"
             style="fill:#ff3d80;fill-opacity:1;fill-rule:nonzero;stroke:none"
             id="path2550" /></g><g
           id="g2552"
           transform="translate(256.063,352.4551)"><path
             d="m 0,0 c 0,0 -1.322,-140.115 167.27,-194.452 h 21.837 V 39.076 H -0.063 Z"
             style="fill:#ff3d80;fill-opacity:1;fill-rule:nonzero;stroke:none"
             id="path2554" /></g><g
           id="g2556"
           transform="translate(444.8857,158.0034)"><path
             d="m 0,0 c 0,0 -155.17,27.997 -155.17,208.997 h -67.432 C -222.602,27.997 -377.771,0 -377.771,0 -265.369,3.464 -213.043,72.493 -188.886,130.283 -164.729,72.493 -112.403,3.464 0,0"
             style="fill:#ffb3cd;fill-opacity:1;fill-rule:nonzero;stroke:none"
             id="path2558" /></g><g
           id="g2560"
           transform="translate(283.1094,455.3584)"><path
             d="M 0,0 C 39.439,0 6.104,57.67 -13.615,23.556 6.104,57.67 -60.567,57.67 -40.848,23.556 -60.567,57.67 -93.903,0 -54.464,0 Z"
             style="fill:#ff3d80;fill-opacity:1;fill-rule:nonzero;stroke:none"
             id="path2562" /></g><g
           id="g2564"
           transform="translate(374.3447,455.3584)"><path
             d="m 0,0 c 39.439,0 6.104,57.67 -13.616,23.556 19.72,34.114 -46.952,34.114 -27.233,0 C -60.568,57.67 -93.903,0 -54.464,0 Z"
             style="fill:#ffb3cd;fill-opacity:1;fill-rule:nonzero;stroke:none"
             id="path2566" /></g><g
           id="g2568"
           transform="translate(465.5791,455.3584)"><path
             d="M 0,0 C 39.439,0 6.104,57.67 -13.615,23.556 6.104,57.67 -60.567,57.67 -40.848,23.556 -60.567,57.67 -93.903,0 -54.464,0 Z"
             style="fill:#ff3d80;fill-opacity:1;fill-rule:nonzero;stroke:none"
             id="path2570" /></g><g
           id="g2572"
           transform="translate(191.875,455.3584)"><path
             d="m 0,0 c 39.439,0 6.104,57.67 -13.616,23.556 19.72,34.114 -46.952,34.114 -27.232,0 C -60.568,57.67 -93.904,0 -54.464,0 Z"
             style="fill:#ffb3cd;fill-opacity:1;fill-rule:nonzero;stroke:none"
             id="path2574" /></g><g
           id="g2576"
           transform="translate(100.854,455.3584)"><path
             d="m 0,0 c 39.439,0 6.104,57.67 -13.616,23.556 19.72,34.114 -46.952,34.114 -27.232,0 C -60.568,57.67 -93.904,0 -54.464,0 Z"
             style="fill:#ff3d80;fill-opacity:1;fill-rule:nonzero;stroke:none"
             id="path2578" /></g><g
           id="g2580"
           transform="translate(78.5405,228.5781)"><path
             d="m 0,0 h 32.824 c 9.709,0 17.579,7.861 17.579,17.559 0,23.107 18.753,41.838 41.886,41.838 0,23.29 18.901,42.169 42.217,42.169 17.765,0.61 31.252,9.747 42.953,22.311 12.513,-12.499 24.81,-21.436 42.954,-22.311 23.316,0 42.217,-18.879 42.217,-42.169 23.133,0 41.886,-18.731 41.886,-41.838 C 304.516,7.861 312.386,0 322.094,0 h 32.824 V 162.953 H 0 Z"
             style="fill:#ffffff;fill-opacity:1;fill-rule:nonzero;stroke:none"
             id="path2582" /></g><g
           id="g2584"
           transform="translate(119.9722,7.5)"><path
             d="m 0,0 h -104.716 v 27.332 c 0,6.627 5.373,12 12,12 H -12 c 6.627,0 12,-5.373 12,-12 z"
             style="fill:#ffc338;fill-opacity:1;fill-rule:nonzero;stroke:none"
             id="path2586" /></g><g
           id="g2588"
           transform="translate(496.7432,7.5)"><path
             d="m 0,0 h -104.716 v 27.332 c 0,6.627 5.373,12 12,12 H -12 c 6.628,0 12,-5.373 12,-12 z"
             style="fill:#ffc338;fill-opacity:1;fill-rule:nonzero;stroke:none"
             id="path2590" /></g><g
           id="g2592"
           transform="translate(484.7432,46.8315)"><path
             d="m 0,0 h -30 c 6.628,0 12,-5.373 12,-12 V -39.332 H 12 V -12 C 12,-5.373 6.628,0 0,0"
             style="fill:#f7b723;fill-opacity:1;fill-rule:nonzero;stroke:none"
             id="path2594" /></g><path
           d="M 93.49,228.578 H 41.739 V 391.531 H 93.49 Z"
           style="fill:#fff5ee;fill-opacity:1;fill-rule:nonzero;stroke:none"
           id="path2596" /><path
           d="m 63.49,228.578 h 30 v 162.953 h -30 z"
           style="fill:#fcf0e8;fill-opacity:1;fill-rule:nonzero;stroke:none"
           id="path2598" /><path
           d="m 84.369,46.832 h -33.51 v 122.746 h 33.51 z"
           style="fill:#fff5ee;fill-opacity:1;fill-rule:nonzero;stroke:none"
           id="path2600" /><path
           d="m 64.322,46.832 h 20 v 122.746 h -20 z"
           style="fill:#fcf0e8;fill-opacity:1;fill-rule:nonzero;stroke:none"
           id="path2602" /><g
           id="g2604"
           transform="translate(85.2007,169.5771)"><path
             d="m 0,0 h -35.173 l -9.818,17.388 V 59.001 H 9.818 V 17.388 Z"
             style="fill:#fff5ee;fill-opacity:1;fill-rule:nonzero;stroke:none"
             id="path2606" /></g><g
           id="g2608"
           transform="translate(64.9717,228.5781)"><path
             d="M 0,0 V -41.613 -59.001 H 20.182 L 30,-41.613 V 0 Z"
             style="fill:#fcf0e8;fill-opacity:1;fill-rule:nonzero;stroke:none"
             id="path2610" /></g><g
           id="g2612"
           transform="translate(84.6724,169.5771)"><path
             d="m 0,0 h -34.116 c -6.399,0 -11.587,-5.182 -11.587,-11.574 0,-6.391 5.188,-11.573 11.587,-11.573 H 0 c 6.399,0 11.586,5.182 11.586,11.573 C 11.586,-5.182 6.399,0 0,0"
             style="fill:#ffc338;fill-opacity:1;fill-rule:nonzero;stroke:none"
             id="path2614" /></g><g
           id="g2616"
           transform="translate(95.9126,228.5781)"><path
             d="m 0,0 h -56.597 c -6.399,0 -11.586,-5.182 -11.586,-11.574 0,-6.391 5.187,-11.573 11.586,-11.573 H 0 c 6.399,0 11.587,5.182 11.587,11.573 C 11.587,-5.182 6.399,0 0,0"
             style="fill:#ffc338;fill-opacity:1;fill-rule:nonzero;stroke:none"
             id="path2618" /></g><g
           id="g2620"
           transform="translate(95.9126,69.9785)"><path
             d="m 0,0 h -56.597 c -6.399,0 -11.586,-5.182 -11.586,-11.574 v -11.573 h 79.77 v 11.573 C 11.587,-5.182 6.399,0 0,0"
             style="fill:#ffee92;fill-opacity:1;fill-rule:nonzero;stroke:none"
             id="path2622" /></g><path
           d="M 470.262,228.578 H 418.51 v 162.953 h 51.752 z"
           style="fill:#fff5ee;fill-opacity:1;fill-rule:nonzero;stroke:none"
           id="path2624" /><path
           d="m 440.262,228.578 h 30 v 162.953 h -30 z"
           style="fill:#fcf0e8;fill-opacity:1;fill-rule:nonzero;stroke:none"
           id="path2626" /><path
           d="m 461.141,46.832 h -33.51 v 122.746 h 33.51 z"
           style="fill:#fff5ee;fill-opacity:1;fill-rule:nonzero;stroke:none"
           id="path2628" /><path
           d="m 441.141,46.832 h 20 v 122.746 h -20 z"
           style="fill:#fcf0e8;fill-opacity:1;fill-rule:nonzero;stroke:none"
           id="path2630" /><g
           id="g2632"
           transform="translate(461.9717,169.5771)"><path
             d="M 0,0 H -35.173 L -44.99,17.388 V 59.001 H 9.818 V 17.388 Z"
             style="fill:#fff5ee;fill-opacity:1;fill-rule:nonzero;stroke:none"
             id="path2634" /></g><g
           id="g2636"
           transform="translate(441.79,228.5781)"><path
             d="M 0,0 V -41.613 -59.001 H 20.182 L 30,-41.613 V 0 Z"
             style="fill:#fcf0e8;fill-opacity:1;fill-rule:nonzero;stroke:none"
             id="path2638" /></g><g
           id="g2640"
           transform="translate(461.4434,169.5771)"><path
             d="m 0,0 h -34.115 c -6.4,0 -11.587,-5.182 -11.587,-11.574 0,-6.391 5.187,-11.573 11.587,-11.573 H 0 c 6.399,0 11.587,5.182 11.587,11.573 C 11.587,-5.182 6.399,0 0,0"
             style="fill:#ffc338;fill-opacity:1;fill-rule:nonzero;stroke:none"
             id="path2642" /></g><g
           id="g2644"
           transform="translate(461.4434,169.5771)"><path
             d="m 0,0 h -20 c 6.399,0 11.587,-5.182 11.587,-11.574 0,-6.391 -5.188,-11.573 -11.587,-11.573 H 0 c 6.399,0 11.587,5.182 11.587,11.573 C 11.587,-5.182 6.399,0 0,0"
             style="fill:#f7b723;fill-opacity:1;fill-rule:nonzero;stroke:none"
             id="path2646" /></g><g
           id="g2648"
           transform="translate(84.6724,169.5771)"><path
             d="m 0,0 h -20 c 6.399,0 11.586,-5.182 11.586,-11.574 0,-6.391 -5.187,-11.573 -11.586,-11.573 H 0 c 6.399,0 11.586,5.182 11.586,11.573 C 11.586,-5.182 6.399,0 0,0"
             style="fill:#f7b723;fill-opacity:1;fill-rule:nonzero;stroke:none"
             id="path2650" /></g><g
           id="g2652"
           transform="translate(472.6836,228.5781)"><path
             d="m 0,0 h -56.597 c -6.398,0 -11.586,-5.182 -11.586,-11.574 0,-6.391 5.188,-11.573 11.586,-11.573 H 0 c 6.399,0 11.587,5.182 11.587,11.573 C 11.587,-5.182 6.399,0 0,0"
             style="fill:#ffc338;fill-opacity:1;fill-rule:nonzero;stroke:none"
             id="path2654" /></g><g
           id="g2656"
           transform="translate(472.6836,228.5781)"><path
             d="m 0,0 h -30 c 6.399,0 11.587,-5.182 11.587,-11.574 0,-6.391 -5.188,-11.573 -11.587,-11.573 H 0 c 6.399,0 11.587,5.182 11.587,11.573 C 11.587,-5.182 6.399,0 0,0"
             style="fill:#f7b723;fill-opacity:1;fill-rule:nonzero;stroke:none"
             id="path2658" /></g><g
           id="g2660"
           transform="translate(472.6973,69.9785)"><path
             d="m 0,0 h -56.623 c -6.392,0 -11.573,-5.182 -11.573,-11.574 V -23.147 H 0 c 6.392,0 11.573,5.182 11.573,11.573 C 11.573,-5.182 6.392,0 0,0"
             style="fill:#ffee92;fill-opacity:1;fill-rule:nonzero;stroke:none"
             id="path2662" /></g><g
           id="g2664"
           transform="translate(472.6836,69.9785)"><path
             d="m 0,0 h -30 c 6.399,0 11.587,-5.182 11.587,-11.573 0,-6.392 0.473,-11.574 0.473,-11.574 h 30 c 0,0 -0.473,5.182 -0.473,11.574 C 11.587,-5.182 6.399,0 0,0"
             style="fill:#ffe666;fill-opacity:1;fill-rule:nonzero;stroke:none"
             id="path2666" /></g><g
           id="g2668"
           transform="translate(107.9253,46.8315)"><path
             d="m 0,0 h -30 c 6.627,0 12,-5.373 12,-12 V -39.332 H 12 V -12 C 12,-5.373 6.627,0 0,0"
             style="fill:#f7b723;fill-opacity:1;fill-rule:nonzero;stroke:none"
             id="path2670" /></g><g
           id="g2672"
           transform="translate(95.8657,228.5781)"><path
             d="m 0,0 h -30 c 6.399,0 11.586,-5.182 11.586,-11.574 0,-6.391 -5.187,-11.573 -11.586,-11.573 H 0 c 6.399,0 11.586,5.182 11.586,11.573 C 11.586,-5.182 6.399,0 0,0"
             style="fill:#f7b723;fill-opacity:1;fill-rule:nonzero;stroke:none"
             id="path2674" /></g><g
           id="g2676"
           transform="translate(95.8657,69.9785)"><path
             d="m 0,0 h -30 c 6.399,0 11.586,-5.182 11.586,-11.573 v -11.574 h 30.048 c 0,0 -0.048,5.182 -0.048,11.574 C 11.586,-5.182 6.399,0 0,0"
             style="fill:#ffe666;fill-opacity:1;fill-rule:nonzero;stroke:none"
             id="path2678" /></g><g
           id="g2680"
           transform="translate(22.103,458.0186)"><path
             d="m 0,0 v -40.997 l 19.636,-25.49 h 428.491 l 19.636,25.49 V 0 Z"
             style="fill:#ffee92;fill-opacity:1;fill-rule:nonzero;stroke:none"
             id="path2682" /></g><g
           id="g2684"
           transform="translate(459.8662,458.019)"><path
             d="m 0,0 v -40.998 l -19.636,-25.49 h 30 L 30,-40.998 V 0 Z"
             style="fill:#ffe666;fill-opacity:1;fill-rule:nonzero;stroke:none"
             id="path2686" /></g><g
           id="g2688"
           transform="translate(418.8613,165.8823)"><path
             d="M 0,0 C -40.001,15.417 -113.409,57.979 -126.963,165.255"
             style="fill:none;stroke:#000000;stroke-width:15;stroke-linecap:round;stroke-linejoin:round;stroke-miterlimit:10;stroke-dasharray:none;stroke-opacity:1"
             id="path2690" /></g><g
           id="g2692"
           transform="translate(339.1465,187.2646)"><path
             d="M 0,0 C 23.854,-14.265 49.854,-23.265 76.864,-26.794"
             style="fill:none;stroke:#000000;stroke-width:15;stroke-linecap:round;stroke-linejoin:round;stroke-miterlimit:10;stroke-dasharray:none;stroke-opacity:1"
             id="path2694" /></g><g
           id="g2696"
           transform="translate(95.9912,160.4707)"><path
             d="m 0,0 c 31.701,4.553 62.363,15.765 88.485,34.47 32.471,23.253 56.226,56.751 71.524,93.346 10.849,-25.953 25.86,-50.419 45.419,-70.734"
             style="fill:none;stroke:#000000;stroke-width:15;stroke-linecap:round;stroke-linejoin:round;stroke-miterlimit:10;stroke-dasharray:none;stroke-opacity:1"
             id="path2698" /></g><g
           id="g2700"
           transform="translate(220.0669,330.8594)"><path
             d="M 0,0 C -13.646,-107.069 -86.959,-149.572 -126.925,-164.976"
             style="fill:none;stroke:#000000;stroke-width:15;stroke-linecap:round;stroke-linejoin:round;stroke-miterlimit:10;stroke-dasharray:none;stroke-opacity:1"
             id="path2702" /></g><g
           id="g2704"
           transform="translate(296.4512,458.9028)"><path
             d="m 0,0 c 16.173,12.015 -10.269,48.883 -26.957,20.011 19.72,34.115 -46.952,34.115 -27.232,0 C -71.27,49.56 -98.566,10.248 -79.937,-0.804"
             style="fill:none;stroke:#000000;stroke-width:15;stroke-linecap:round;stroke-linejoin:round;stroke-miterlimit:10;stroke-dasharray:none;stroke-opacity:1"
             id="path2706" /></g><g
           id="g2708"
           transform="translate(386.4697,458.0952)"><path
             d="m 0,0 c 18.642,11.046 -8.658,50.371 -25.741,20.819 19.72,34.115 -46.952,34.115 -27.233,0 -17.127,29.63 -44.525,-9.979 -25.592,-20.905"
             style="fill:none;stroke:#000000;stroke-width:15;stroke-linecap:round;stroke-linejoin:round;stroke-miterlimit:10;stroke-dasharray:none;stroke-opacity:1"
             id="path2710" /></g><g
           id="g2712"
           transform="translate(478.5596,458.6436)"><path
             d="m 0,0 c 16.92,11.732 -9.785,49.353 -26.596,20.271 19.72,34.114 -46.952,34.114 -27.232,0 -17.085,29.556 -44.392,-9.785 -25.733,-20.824"
             style="fill:none;stroke:#000000;stroke-width:15;stroke-linecap:round;stroke-linejoin:round;stroke-miterlimit:10;stroke-dasharray:none;stroke-opacity:1"
             id="path2714" /></g><g
           id="g2716"
           transform="translate(203.8525,458.0088)"><path
             d="m 0,0 c 18.933,10.926 -8.466,50.535 -25.594,20.905 19.72,34.115 -46.951,34.115 -27.232,0 C -69.953,50.535 -97.352,10.926 -78.419,0"
             style="fill:none;stroke:#000000;stroke-width:15;stroke-linecap:round;stroke-linejoin:round;stroke-miterlimit:10;stroke-dasharray:none;stroke-opacity:1"
             id="path2718" /></g><g
           id="g2720"
           transform="translate(112.835,458.0112)"><path
             d="m 0,0 c 18.925,10.929 -8.471,50.531 -25.597,20.903 19.72,34.115 -46.952,34.115 -27.232,0 -17.128,29.63 -44.526,-9.979 -25.593,-20.905"
             style="fill:none;stroke:#000000;stroke-width:15;stroke-linecap:round;stroke-linejoin:round;stroke-miterlimit:10;stroke-dasharray:none;stroke-opacity:1"
             id="path2722" /></g><g
           id="g2724"
           transform="translate(418.5098,228.5781)"><path
             d="m 0,0 h -17.875 c -9.708,0 -17.578,7.861 -17.578,17.559 0,23.107 -18.753,41.838 -41.886,41.838 0,23.29 -18.901,42.169 -42.218,42.169 -18.143,0.875 -30.44,9.812 -42.953,22.311 -11.701,-12.564 -25.188,-21.701 -42.953,-22.311 -23.316,0 -42.218,-18.879 -42.218,-42.169 -23.132,0 -41.885,-18.731 -41.885,-41.838 C -289.566,7.861 -297.437,0 -307.145,0 h -15.452"
             style="fill:none;stroke:#000000;stroke-width:15;stroke-linecap:round;stroke-linejoin:round;stroke-miterlimit:10;stroke-dasharray:none;stroke-opacity:1"
             id="path2726" /></g><g
           id="g2728"
           transform="translate(121.9263,299.8359)"><path
             d="m 0,0 c 11.431,9.767 22.763,10.754 22.763,10.754 6.541,30.392 32.971,47.877 58.028,47.877"
             style="fill:none;stroke:#000000;stroke-width:15;stroke-linecap:round;stroke-linejoin:round;stroke-miterlimit:10;stroke-dasharray:none;stroke-opacity:1"
             id="path2730" /></g><g
           id="g2732"
           transform="translate(390.0732,299.8364)"><path
             d="M 0,0 C -11.432,9.766 -22.762,10.754 -22.762,10.754 -29.304,41.145 -55.733,58.631 -80.79,58.631"
             style="fill:none;stroke:#000000;stroke-width:15;stroke-linecap:round;stroke-linejoin:round;stroke-miterlimit:10;stroke-dasharray:none;stroke-opacity:1"
             id="path2734" /></g><g
           id="g2736"
           transform="translate(119.9722,7.5)"><path
             d="m 0,0 h -104.716 v 27.332 c 0,6.627 5.373,12 12,12 H -12 c 6.627,0 12,-5.373 12,-12 z"
             style="fill:none;stroke:#000000;stroke-width:15;stroke-linecap:round;stroke-linejoin:round;stroke-miterlimit:10;stroke-dasharray:none;stroke-opacity:1"
             id="path2738" /></g><g
           id="g2740"
           transform="translate(496.7432,7.5)"><path
             d="m 0,0 h -104.716 v 27.332 c 0,6.627 5.373,12 12,12 H -12 c 6.628,0 12,-5.373 12,-12 z"
             style="fill:none;stroke:#000000;stroke-width:15;stroke-linecap:round;stroke-linejoin:round;stroke-miterlimit:10;stroke-dasharray:none;stroke-opacity:1"
             id="path2742" /></g><g
           id="g2744"
           transform="translate(95.0186,391.5312)"><path
             d="M 0,0 V -162.953"
             style="fill:none;stroke:#000000;stroke-width:15;stroke-linecap:round;stroke-linejoin:round;stroke-miterlimit:10;stroke-dasharray:none;stroke-opacity:1"
             id="path2746" /></g><g
           id="g2748"
           transform="translate(84.3691,146.4302)"><path
             d="M 0,0 V -76.452"
             style="fill:none;stroke:#000000;stroke-width:15;stroke-linecap:round;stroke-linejoin:round;stroke-miterlimit:10;stroke-dasharray:none;stroke-opacity:1"
             id="path2750" /></g><g
           id="g2752"
           transform="translate(50.8594,69.9785)"><path
             d="M 0,0 V 76.452"
             style="fill:none;stroke:#000000;stroke-width:15;stroke-linecap:round;stroke-linejoin:round;stroke-miterlimit:10;stroke-dasharray:none;stroke-opacity:1"
             id="path2754" /></g><g
           id="g2756"
           transform="translate(95.0186,205.4312)"><path
             d="M 0,0 V -18.466 L -9.818,-35.854"
             style="fill:none;stroke:#000000;stroke-width:15;stroke-linecap:round;stroke-linejoin:round;stroke-miterlimit:10;stroke-dasharray:none;stroke-opacity:1"
             id="path2758" /></g><g
           id="g2760"
           transform="translate(40.21,358.6631)"><path
             d="M 0,0 V 32.868"
             style="fill:none;stroke:#000000;stroke-width:15;stroke-linecap:round;stroke-linejoin:round;stroke-miterlimit:10;stroke-dasharray:none;stroke-opacity:1"
             id="path2762" /></g><g
           id="g2764"
           transform="translate(40.21,229.6665)"><path
             d="M 0,0 V 83.731"
             style="fill:none;stroke:#000000;stroke-width:15;stroke-linecap:round;stroke-linejoin:round;stroke-miterlimit:10;stroke-dasharray:none;stroke-opacity:1"
             id="path2766" /></g><g
           id="g2768"
           transform="translate(50.0278,169.5771)"><path
             d="M 0,0 -9.818,17.388 V 35.423"
             style="fill:none;stroke:#000000;stroke-width:15;stroke-linecap:round;stroke-linejoin:round;stroke-miterlimit:10;stroke-dasharray:none;stroke-opacity:1"
             id="path2770" /></g><g
           id="g2772"
           transform="translate(84.6724,169.5771)"><path
             d="m 0,0 h -34.116 c -6.399,0 -11.587,-5.182 -11.587,-11.574 0,-6.391 5.188,-11.573 11.587,-11.573 H 0 c 6.399,0 11.586,5.182 11.586,11.573 C 11.586,-5.182 6.399,0 0,0 Z"
             style="fill:none;stroke:#000000;stroke-width:15;stroke-linecap:round;stroke-linejoin:round;stroke-miterlimit:10;stroke-dasharray:none;stroke-opacity:1"
             id="path2774" /></g><g
           id="g2776"
           transform="translate(95.9126,228.5781)"><path
             d="m 0,0 h -56.597 c -6.399,0 -11.586,-5.182 -11.586,-11.574 0,-6.391 5.187,-11.573 11.586,-11.573 H 0 c 6.399,0 11.587,5.182 11.587,11.573 C 11.587,-5.182 6.399,0 0,0 Z"
             style="fill:none;stroke:#000000;stroke-width:15;stroke-linecap:round;stroke-linejoin:round;stroke-miterlimit:10;stroke-dasharray:none;stroke-opacity:1"
             id="path2778" /></g><g
           id="g2780"
           transform="translate(95.9126,69.9785)"><path
             d="m 0,0 h -56.597 c -6.399,0 -11.586,-5.182 -11.586,-11.574 v -11.573 h 79.77 v 11.573 C 11.587,-5.182 6.399,0 0,0 Z"
             style="fill:none;stroke:#000000;stroke-width:15;stroke-linecap:round;stroke-linejoin:round;stroke-miterlimit:10;stroke-dasharray:none;stroke-opacity:1"
             id="path2782" /></g><g
           id="g2784"
           transform="translate(418.5098,228.5781)"><path
             d="M 0,0 V 162.953"
             style="fill:none;stroke:#000000;stroke-width:15;stroke-linecap:round;stroke-linejoin:round;stroke-miterlimit:10;stroke-dasharray:none;stroke-opacity:1"
             id="path2786" /></g><g
           id="g2788"
           transform="translate(470.2617,391.5312)"><path
             d="M 0,0 V -162.953"
             style="fill:none;stroke:#000000;stroke-width:15;stroke-linecap:round;stroke-linejoin:round;stroke-miterlimit:10;stroke-dasharray:none;stroke-opacity:1"
             id="path2790" /></g><g
           id="g2792"
           transform="translate(427.6309,69.9785)"><path
             d="M 0,0 V 76.452"
             style="fill:none;stroke:#000000;stroke-width:15;stroke-linecap:round;stroke-linejoin:round;stroke-miterlimit:10;stroke-dasharray:none;stroke-opacity:1"
             id="path2794" /></g><g
           id="g2796"
           transform="translate(461.1406,146.4302)"><path
             d="M 0,0 V -76.452"
             style="fill:none;stroke:#000000;stroke-width:15;stroke-linecap:round;stroke-linejoin:round;stroke-miterlimit:10;stroke-dasharray:none;stroke-opacity:1"
             id="path2798" /></g><g
           id="g2800"
           transform="translate(426.7988,169.5771)"><path
             d="M 0,0 -9.817,17.388 V 35.854"
             style="fill:none;stroke:#000000;stroke-width:15;stroke-linecap:round;stroke-linejoin:round;stroke-miterlimit:10;stroke-dasharray:none;stroke-opacity:1"
             id="path2802" /></g><g
           id="g2804"
           transform="translate(471.79,205.4312)"><path
             d="M 0,0 V -18.466 L -9.818,-35.854"
             style="fill:none;stroke:#000000;stroke-width:15;stroke-linecap:round;stroke-linejoin:round;stroke-miterlimit:10;stroke-dasharray:none;stroke-opacity:1"
             id="path2806" /></g><g
           id="g2808"
           transform="translate(461.4434,169.5771)"><path
             d="m 0,0 h -34.115 c -6.4,0 -11.587,-5.182 -11.587,-11.574 0,-6.391 5.187,-11.573 11.587,-11.573 H 0 c 6.399,0 11.587,5.182 11.587,11.573 C 11.587,-5.182 6.399,0 0,0 Z"
             style="fill:none;stroke:#000000;stroke-width:15;stroke-linecap:round;stroke-linejoin:round;stroke-miterlimit:10;stroke-dasharray:none;stroke-opacity:1"
             id="path2810" /></g><g
           id="g2812"
           transform="translate(472.6836,228.5781)"><path
             d="m 0,0 h -56.597 c -6.398,0 -11.586,-5.182 -11.586,-11.574 0,-6.391 5.188,-11.573 11.586,-11.573 H 0 c 6.399,0 11.587,5.182 11.587,11.573 C 11.587,-5.182 6.399,0 0,0 Z"
             style="fill:none;stroke:#000000;stroke-width:15;stroke-linecap:round;stroke-linejoin:round;stroke-miterlimit:10;stroke-dasharray:none;stroke-opacity:1"
             id="path2814" /></g><g
           id="g2816"
           transform="translate(472.6973,69.9785)"><path
             d="m 0,0 h -56.623 c -6.392,0 -11.573,-5.182 -11.573,-11.574 v -11.573 h 79.769 v 11.573 C 11.573,-5.182 6.392,0 0,0 Z"
             style="fill:none;stroke:#000000;stroke-width:15;stroke-linecap:round;stroke-linejoin:round;stroke-miterlimit:10;stroke-dasharray:none;stroke-opacity:1"
             id="path2818" /></g><g
           id="g2820"
           transform="translate(22.103,458.0186)"><path
             d="m 0,0 v -40.997 l 19.636,-25.49 h 428.491 l 19.636,25.49 V 0 Z"
             style="fill:none;stroke:#000000;stroke-width:15;stroke-linecap:round;stroke-linejoin:round;stroke-miterlimit:10;stroke-dasharray:none;stroke-opacity:1"
             id="path2822" /></g><g
           id="g2824"
           transform="translate(98.0669,419.8335)"><path
             d="M 0,0 C -10.912,10.899 -28.571,10.899 -39.483,0"
             style="fill:none;stroke:#000000;stroke-width:15;stroke-linecap:round;stroke-linejoin:round;stroke-miterlimit:10;stroke-dasharray:none;stroke-opacity:1"
             id="path2826" /></g><g
           id="g2828"
           transform="translate(137.5503,419.8335)"><path
             d="M 0,0 C -10.912,10.899 -28.571,10.899 -39.483,0"
             style="fill:none;stroke:#000000;stroke-width:15;stroke-linecap:round;stroke-linejoin:round;stroke-miterlimit:10;stroke-dasharray:none;stroke-opacity:1"
             id="path2830" /></g><g
           id="g2832"
           transform="translate(177.0337,419.8335)"><path
             d="M 0,0 C -10.912,10.899 -28.571,10.899 -39.483,0"
             style="fill:none;stroke:#000000;stroke-width:15;stroke-linecap:round;stroke-linejoin:round;stroke-miterlimit:10;stroke-dasharray:none;stroke-opacity:1"
             id="path2834" /></g><g
           id="g2836"
           transform="translate(216.5166,419.8335)"><path
             d="M 0,0 C -10.912,10.899 -28.571,10.899 -39.483,0"
             style="fill:none;stroke:#000000;stroke-width:15;stroke-linecap:round;stroke-linejoin:round;stroke-miterlimit:10;stroke-dasharray:none;stroke-opacity:1"
             id="path2838" /></g><g
           id="g2840"
           transform="translate(256,419.8335)"><path
             d="M 0,0 C -10.912,10.899 -28.571,10.899 -39.483,0"
             style="fill:none;stroke:#000000;stroke-width:15;stroke-linecap:round;stroke-linejoin:round;stroke-miterlimit:10;stroke-dasharray:none;stroke-opacity:1"
             id="path2842" /></g><g
           id="g2844"
           transform="translate(295.4834,419.8335)"><path
             d="M 0,0 C -10.912,10.899 -28.571,10.899 -39.483,0"
             style="fill:none;stroke:#000000;stroke-width:15;stroke-linecap:round;stroke-linejoin:round;stroke-miterlimit:10;stroke-dasharray:none;stroke-opacity:1"
             id="path2846" /></g><g
           id="g2848"
           transform="translate(334.9668,419.8335)"><path
             d="M 0,0 C -10.912,10.899 -28.571,10.899 -39.483,0"
             style="fill:none;stroke:#000000;stroke-width:15;stroke-linecap:round;stroke-linejoin:round;stroke-miterlimit:10;stroke-dasharray:none;stroke-opacity:1"
             id="path2850" /></g><g
           id="g2852"
           transform="translate(374.4492,419.8335)"><path
             d="M 0,0 C -10.911,10.899 -28.571,10.899 -39.482,0"
             style="fill:none;stroke:#000000;stroke-width:15;stroke-linecap:round;stroke-linejoin:round;stroke-miterlimit:10;stroke-dasharray:none;stroke-opacity:1"
             id="path2854" /></g><g
           id="g2856"
           transform="translate(413.9326,419.8335)"><path
             d="M 0,0 C -10.911,10.899 -28.571,10.899 -39.483,0"
             style="fill:none;stroke:#000000;stroke-width:15;stroke-linecap:round;stroke-linejoin:round;stroke-miterlimit:10;stroke-dasharray:none;stroke-opacity:1"
             id="path2858" /></g><g
           id="g2860"
           transform="translate(453.416,419.8335)"><path
             d="M 0,0 C -10.912,10.899 -28.571,10.899 -39.483,0"
             style="fill:none;stroke:#000000;stroke-width:15;stroke-linecap:round;stroke-linejoin:round;stroke-miterlimit:10;stroke-dasharray:none;stroke-opacity:1"
             id="path2862" /></g><g
           id="g2864"
           transform="translate(121.9263,328.2983)"><path
             d="M 0,0 C 9.652,0 9.668,15 0,15 -9.651,15 -9.667,0 0,0"
             style="fill:#000000;fill-opacity:1;fill-rule:nonzero;stroke:none"
             id="path2866" /></g><g
           id="g2868"
           transform="translate(121.9263,354.6802)"><path
             d="M 0,0 C 9.652,0 9.668,15 0,15 -9.651,15 -9.667,0 0,0"
             style="fill:#000000;fill-opacity:1;fill-rule:nonzero;stroke:none"
             id="path2870" /></g><g
           id="g2872"
           transform="translate(147.0347,354.6802)"><path
             d="M 0,0 C 9.652,0 9.668,15 0,15 -9.651,15 -9.667,0 0,0"
             style="fill:#000000;fill-opacity:1;fill-rule:nonzero;stroke:none"
             id="path2874" /></g><g
           id="g2876"
           transform="translate(390.043,328.2983)"><path
             d="M 0,0 C 9.651,0 9.668,15 0,15 -9.652,15 -9.668,0 0,0"
             style="fill:#000000;fill-opacity:1;fill-rule:nonzero;stroke:none"
             id="path2878" /></g><g
           id="g2880"
           transform="translate(390.043,354.6802)"><path
             d="M 0,0 C 9.651,0 9.668,15 0,15 -9.652,15 -9.668,0 0,0"
             style="fill:#000000;fill-opacity:1;fill-rule:nonzero;stroke:none"
             id="path2882" /></g><g
           id="g2884"
           transform="translate(364.9346,354.6802)"><path
             d="M 0,0 C 9.651,0 9.668,15 0,15 -9.652,15 -9.668,0 0,0"
             style="fill:#000000;fill-opacity:1;fill-rule:nonzero;stroke:none"
             id="path2886" /></g></g></g></g></svg>
