<svg id="a" height="512" viewBox="0 0 512 512" width="512" xmlns="http://www.w3.org/2000/svg"><path d="m343.9879 247.9179 42.9084 32.0821 34.7179 13.8872c25.8029 10.3212 39.7619 38.3533 32.4498 65.1646l-21.3433 78.2589c-8.162 29.9274-35.3446 50.6893-66.365 50.6893h-155.4594l-16-104-72 16 24-88 8.2509-15.1129 63.7491-26.16 29.9117-17.1465 41.0741 27.1135z" fill="#e6e5e0"/><path d="m282.8963 288-32 40-32.7254-56.7796 33.8248-22.8786z" fill="#d6d5d0"/><path d="m386.8963 280-42.0605 35.7463-31.3707-45.7842 36.0339-22.892z" fill="#d6d5d0"/><path d="m377.0109 179.027 7.082-21.3286c1.8567-5.5702 2.8033-11.4032 2.8033-17.2747v-8.5078c0-14.4881-5.7554-28.3828-16-38.6274l-12.662-11.0022-11.338 43.0021 2.7738 49.4016 27.3409 4.3369z" fill="#5b3719"/><path d="m346.8963 125.2885 15.4309-19.2886c9.4328-11.791 8.4914-28.7891-2.1858-39.4663-18.9312-18.9312-43.7417-30.8558-70.3507-33.8123-20.2502-2.25-40.7378.786-59.4652 8.812-17.9095 7.6755-37.6448 10.0526-56.8647 6.8493-8.4228-1.4038-15.313 6.6596-12.6127 14.7604l5.1489 15.4467c7.9768 23.9304 28.1646 41.7518 52.8996 46.6988h128z" fill="#7a4922"/><path d="m362.8963 236.3383-46.0416 43.6617h-49.9584l-40-43.6617-8-111.0498 24-16h87.8181l32.1819 32z" fill="#e6af89"/><path d="m253.5966 265.1542-24.5977-26.2019 19.2504.5347z" fill="#d3976e"/><path d="m282.7144 189.2885v14.7038c0 5.1341 4.162 9.2962 9.2962 9.2962h5.1168" fill="none" stroke="#000" stroke-linecap="round" stroke-linejoin="round" stroke-width="16"/><path d="m382.6122 173.8339h6.5758v39.4545h-6.5758c-10.8878 0-19.7273-8.8395-19.7273-19.7273 0-10.8878 8.8395-19.7273 19.7273-19.7273z" fill="#d3976e" transform="matrix(-1 0 0 -1 752.073 387.122)"/><path d="m218.896 133.289h48v32h-48z" fill="#6a6c65"/><path d="m178.896 168.289h128v72h-128z" fill="#6a6c65"/><path d="m218.8963 133.2886h48l8-24h-64z" fill="#4a4b46"/><path d="m210.896 77.289h64v32h-64z" fill="#ecab2c"/><path d="m338.561 420.2038 9.9294 31.4843c4.0546 12.8565 13.6642 23.2153 26.1807 28.2219 12.7427 5.0971 27.1355 3.9438 38.904-3.1173 13.2275-7.9365 21.3211-22.2313 21.3211-37.6571 0-14.6231-6.6471-28.4533-18.0658-37.5882l-21.9342-17.5474-56.3353 36.2038z" fill="#d6d5d0"/><path d="m242.8963 240 16 40 24 8 54.6232 136.5581c5.682 14.2051 19.3234 23.6221 34.6203 23.8991 18.8479.3414 35.1012-13.1764 38.2003-31.7708l.2116-1.2693c1.5416-9.2495-.3885-18.7425-5.4196-26.6557l-74.2358-116.7615v-48l-24-16v32h-64z" fill="#e6af89"/><circle cx="242.896" cy="197.289" fill="#a1dcff" r="40"/><path d="m202.8963 200-24-20.5022-41.5031 61.0886-72.9603 117.6143c-7.578 12.2159-7.3615 27.7232.5544 39.7229 10.3411 15.676 30.8155 21.0695 47.5376 12.5228 10.3915-5.3112 18.2251-14.5605 21.7532-25.6845l40.6927-128.3036 27.9254-20.2969v-36.1613z" fill="#e6af89"/><g><path d="m424.585 286.459-33.6172-13.4463-29.3418-23.4746 7.1592-7.7852c1.3574-1.4766 2.1113-3.4092 2.1113-5.415v-15.0869c14.6245-.7495 26.292-12.8828 26.292-27.6895 0-8.3745-3.7368-15.8877-9.625-20.9761l4.1191-12.3579c2.1328-6.3994 3.2139-13.0625 3.2139-19.8037v-8.5078c0-16.5974-6.4204-32.2053-18.0747-44.0024.1099-9.8123-3.6021-19.6152-11.0239-27.0376-20.1387-20.1377-46.8184-32.9609-75.124-36.1064-21.5859-2.3965-43.541.8555-63.5 9.4102-16.5352 7.0879-34.6543 9.2686-52.3975 6.3125-6.7461-1.1279-13.4316 1.3076-17.875 6.5088-4.4443 5.2012-5.8066 12.1816-3.6436 18.6719l5.1494 15.4463c7.9629 23.8877 27.0723 42.5918 51.1182 50.0332.0813.0251.1631.0334.2446.0559l1.1265 3.3796v22.7002h-32c-4.418 0-8 3.582-8 8v11.7493l-40.1201 59.0525c-.0625.0918-.123.1846-.1807.2793l-72.9609 117.6143c-9.1904 14.8154-8.9258 33.792.6748 48.3457 8.5664 12.9863 22.8008 20.1729 37.4424 20.1729 6.8975-.001 13.8877-1.5967 20.415-4.9326 5.2827-2.7004 10.0327-6.3091 14.0615-10.5898l58.0684-13.2656 14.6924 95.5029c.6006 3.9023 3.959 6.7832 7.9072 6.7832h155.459c8.207 0 16.3057-1.2998 24.0713-3.8643.8174-.27 1.5596-.6621 2.2183-1.1448 8.7476-.2864 17.4111-2.7573 25.0464-7.3376 15.5469-9.3291 25.2051-26.3867 25.2051-44.5176 0-2.5535-.1909-5.0762-.5249-7.5645.2563-.4949.4819-1.0117.6343-1.5713l18.7754-68.8428c8.3867-30.748-7.6045-62.8613-37.1963-74.6982zm-26.2041 106.5947c3.9795 6.2588 5.499 13.7334 4.2803 21.0459l-.2129 1.2715c-2.3984 14.3936-15.0811 25.0918-29.626 25.0918-.1787 0-.3584-.001-.5381-.0049-12.1094-.2188-22.8398-7.626-27.3369-18.8701l-54.623-136.5586c-.874-2.1855-2.665-3.875-4.8975-4.6191l-20.4805-6.8262-10.2334-25.584h52.1836c4.418 0 8-3.582 8-8v-17.0518l8 5.333v43.7188c0 1.5205.4336 3.0088 1.249 4.292zm-43.4844-248.4385v88.6035l-16 17.3994v-26.6182c0-2.6748-1.3369-5.1729-3.5625-6.6562l-20.4375-13.625v-38.4307h4.5039c5.1582 0 10.0088 2.0088 13.6582 5.6572 1.5615 1.5615 3.6094 2.3428 5.6562 2.3428s4.0957-.7812 5.6572-2.3438c3.124-3.124 3.124-8.1895-.001-11.3135-6.6709-6.6699-15.5391-10.3428-24.9707-10.3428h-4.6855c-4.418 0-8 3.582-8 8h-31.8184v-22.7002l5.7666-17.2998h46.751l27.4824 27.3271zm-112 20.6729c17.6445 0 32 14.3555 32 32s-14.3555 32-32 32-32-14.3555-32-32 14.3555-32 32-32zm-20.9009-48h41.8018l-2.6665 8h-36.4688zm76.9009 112h-20.2612c7.6177-8.4988 12.2612-19.7153 12.2612-32 0-8.7397-2.3594-16.9341-6.4575-24h14.4575zm-32-128h-48v-16h48zm-40 40h32v10.752c-5.0078-1.7759-10.3911-2.752-16-2.752s-10.9922.9761-16 2.752zm-22.9104 104h32.4097l2.0085 5.0217-64.7537 36.7742 8.1501-25.6973 22.1853-16.0986zm40.4155 20.0146 7.0671 17.668c.874 2.1855 2.665 3.875 4.8975 4.6191l13.1157 4.3716-17.479 21.8491-22.79-39.8818zm85.6902 162.2266c1.4849 3.7122 3.415 7.1494 5.7119 10.2646.0605.3481.1357.6965.2451 1.043l4.8115 15.2578c3.2861 10.4194 9.6006 19.3862 18.0122 25.9053h-59.9761v-130.4592l31.1953 77.9885zm44.9316-146.7822-17.5732 18.1077-16.8306-26.4729 10.1499-11.0378 24.2539 19.4031zm-4.127-75.5562v-23.2598c5.7905.7112 10.292 5.6504 10.292 11.6304s-4.5015 10.9182-10.292 11.6294zm8-73.2749v8.5078c0 5.0186-.8057 9.9795-2.3936 14.7451l-3.6274 10.8828c-.6538-.0806-1.312-.1465-1.979-.1807v-24.583c0-2.1299-.8486-4.1709-2.3594-5.6729l-10.9482-10.8862 10.9854-13.7319c1.0928-1.3662 2.0737-2.7881 2.9482-4.2522 4.7935 7.4436 7.374 16.1072 7.374 25.1711zm-205.3096-55.8564-5.1494-15.4473c-.5186-1.5537.1709-2.6816.6279-3.2168.4561-.5352 1.4658-1.3965 3.0801-1.1211 20.7705 3.459 41.9785.9062 61.3311-7.3877 17.4229-7.4678 36.5918-10.3086 55.4307-8.2148 24.708 2.7461 47.998 13.9395 65.5771 31.5176 7.8057 7.8066 8.4912 20.1934 1.5957 28.8125l-9.9033 12.3789-9.8213-9.7656c-1.499-1.4902-3.5264-2.3271-5.6406-2.3271h-47.8184v-24c0-4.418-3.582-8-8-8h-64c-4.418 0-8 3.582-8 8v32c0 .395.0381.78.0935 1.1597.0105.0723.0203.1438.033.2158.0295.1704.0649.3386.1052.5054-13.8069-7.46-24.4941-19.9663-29.5413-35.1094zm27.7671 97.2285c-2.0625 3.5562-3.6829 7.3965-4.7827 11.4517l-9.6748-8.7832v-2.6685zm-92.4692 230.0342c-13.1133 6.7021-29.1123 2.4863-37.2197-9.8037-6.1758-9.3623-6.3467-21.5703-.4346-31.1016l72.874-117.4727 36.2334-53.333 13.916 12.6338 7.4072 22.9619s-33.7988 25.2021-34.3164 26.832l-40.6924 128.3037c-2.8613 9.0244-9.3379 16.6709-17.7676 20.9795zm93.9189-20.5391c-.3379-2.1953-1.5742-4.1523-3.4111-5.4004-1.8389-1.249-4.1113-1.6758-6.2783-1.1816l-51.48 11.7612c.0876-.2615.1865-.5186.27-.7817l24.6292-77.6558 48.7661-27.6948 28.6506 50.1387c1.3145 2.3008 3.6826 3.8008 6.3242 4.0068.209.0166.416.0244.623.0244 2.418 0 4.7217-1.0967 6.2461-3.0029l23.4233-29.2803 2.0122 5.0308.3032 171.2524h-65.1226l-14.9561-97.2168zm206.6562 87.1494c-9.5664 5.7393-21.4609 6.6934-31.8174 2.5498-8.7422-3.4968-15.6909-10.0962-19.6533-18.4702 4.4355 1.5059 9.1465 2.3557 14.0049 2.4438.2764.0049.5498.0068.8252.0068 22.293-.001 41.7354-16.4014 45.4111-38.459l.2119-1.2715c.1045-.6274.1914-1.2561.27-1.8848 5.2676 6.9055 8.1841 15.3721 8.1841 24.2881 0 12.543-6.6816 24.3438-17.4365 30.7969zm36.8857-112.9854-13.6172 49.9302c-2.9746-4.2251-20.0811-21.2051-20.8457-22.4077l-17.0386-26.7991 7.48-18.7c1.6406-4.1016-.3545-8.7578-4.457-10.3984-4.1035-1.6436-8.7588.3555-10.3984 4.457l-3.2017 8.0044-17.9917-28.2983 22.6284-23.3164 29.7397 11.8955c22.0381 8.8154 33.9473 32.7324 27.7021 55.6328z"/><path d="m326.1938 177.1565c-4.8901 0-8.854 5.9463-8.854 13.2815s3.9639 13.2815 8.854 13.2815 8.8545-5.9463 8.8545-13.2815-3.9644-13.2815-8.8545-13.2815z"/></g></svg>