<?xml version="1.0" encoding="UTF-8" standalone="no"?>
<!-- Created with Inkscape (http://www.inkscape.org/) -->

<svg
   version="1.1"
   id="svg9447"
   xml:space="preserve"
   width="682.66669"
   height="682.66669"
   viewBox="0 0 682.66669 682.66669"
   xmlns="http://www.w3.org/2000/svg"
   xmlns:svg="http://www.w3.org/2000/svg"><defs
     id="defs9451"><clipPath
       clipPathUnits="userSpaceOnUse"
       id="clipPath9465"><path
         d="M 0,512 H 512 V 0 H 0 Z"
         id="path9463" /></clipPath></defs><g
     id="g9453"
     transform="matrix(1.3333333,0,0,-1.3333333,0,682.66667)"><g
       id="g9455"
       transform="translate(33.9092,56.0713)"><path
         d="M 0,0 216.822,-22.499 443.993,0 V 258.515 L 225.241,299.433 0,258.515 Z"
         style="fill:#fe93d3;fill-opacity:1;fill-rule:evenodd;stroke:none"
         id="path9457" /></g><g
       id="g9459"><g
         id="g9461"
         clip-path="url(#clipPath9465)"><g
           id="g9467"
           transform="translate(30.5938,56.0713)"><path
             d="m 0,0 c -12.383,0 -22.499,-10.116 -22.499,-22.499 v -17.398 c 0,-2.806 2.296,-5.101 5.101,-5.101 h 485.419 c 2.806,0 5.073,2.295 5.073,5.101 v 17.398 C 473.094,-10.116 462.979,0 450.624,0 Z"
             style="fill:#f9f6f6;fill-opacity:1;fill-rule:evenodd;stroke:none"
             id="path9469" /></g><g
           id="g9471"
           transform="translate(434.1514,500.9268)"><path
             d="m 0,0 h -356.492 c -2.663,0 -3.769,-2.408 -4.846,-4.846 L -381.343,-49.447 -163.101,-75.318 24.851,-49.447 4.846,-4.846 C 3.769,-2.408 2.664,0 0,0"
             style="fill:#ffbc85;fill-opacity:1;fill-rule:evenodd;stroke:none"
             id="path9473" /></g><g
           id="g9475"
           transform="translate(438.9971,496.0811)"><path
             d="m 0,0 c -1.077,2.438 -2.182,4.846 -4.846,4.846 h -47.377 c 2.663,0 3.769,-2.408 4.874,-4.846 l 19.977,-44.602 H 8.359 20.005 Z"
             style="fill:#f5a96c;fill-opacity:1;fill-rule:evenodd;stroke:none"
             id="path9477" /></g><g
           id="g9479"
           transform="translate(459.002,451.4795)"><path
             d="m 0,0 h -406.193 -35.732 c -5.27,0 -9.577,-4.307 -9.577,-9.577 v -24.653 -34.203 -34.23 -24.653 c 0,-5.271 4.307,-9.578 9.577,-9.578 H -425.093 18.9 35.731 c 5.186,0 9.464,4.194 9.579,9.351 v 0.227 117.739 0.226 C 45.195,-4.193 40.917,0 35.731,0 Z"
             style="fill:#f9f6f6;fill-opacity:1;fill-rule:evenodd;stroke:none"
             id="path9481" /></g><g
           id="g9483"
           transform="translate(494.7334,451.4795)"><path
             d="m 0,0 h -35.731 -11.646 c 5.214,0 9.464,-4.193 9.577,-9.351 0.425,-39.246 0,-78.719 0,-117.965 -0.056,-5.299 -4.25,-9.578 -9.577,-9.578 H -16.831 0 c 5.186,0 9.464,4.194 9.578,9.351 0.425,39.246 0,78.72 0,117.966 C 9.521,-4.278 5.327,0 0,0"
             style="fill:#dddaec;fill-opacity:1;fill-rule:evenodd;stroke:none"
             id="path9485" /></g><g
           id="g9487"
           transform="translate(52.8086,451.4795)"><path
             d="m 0,0 h 406.193 l -20.005,44.602 c -1.077,2.437 -2.181,4.845 -4.845,4.845 H 24.851 c -2.664,0 -3.769,-2.408 -4.846,-4.845 z"
             style="fill:none;stroke:#000000;stroke-width:15;stroke-linecap:round;stroke-linejoin:round;stroke-miterlimit:10;stroke-dasharray:none;stroke-opacity:1"
             id="path9489" /></g><g
           id="g9491"
           transform="translate(164.8203,368.9922)"><path
             d="m 0,0 h 30.716 m -37.177,-13.517 20.714,54.35 c 0.425,1.048 1.898,1.048 2.323,0 l 20.516,-54.35"
             style="fill:none;stroke:#000000;stroke-width:15;stroke-linecap:round;stroke-linejoin:round;stroke-miterlimit:10;stroke-dasharray:none;stroke-opacity:1"
             id="path9493" /></g><g
           id="g9495"
           transform="translate(382.1553,355.3906)"><path
             d="M 0,0 V 55.199 L 37.318,1.133 c 0.709,-0.991 1.446,-0.51 1.446,0.709 l -0.51,53.442"
             style="fill:none;stroke:#000000;stroke-width:15;stroke-linecap:round;stroke-linejoin:round;stroke-miterlimit:10;stroke-dasharray:none;stroke-opacity:1"
             id="path9497" /></g><g
           id="g9499"
           transform="translate(239.8535,410.6182)"><path
             d="m 0,0 v -55.114 c 0.595,-0.114 19.297,0 19.297,0"
             style="fill:none;stroke:#000000;stroke-width:15;stroke-linecap:round;stroke-linejoin:round;stroke-miterlimit:10;stroke-dasharray:none;stroke-opacity:1"
             id="path9501" /></g><g
           id="g9503"
           transform="translate(124.8672,404.9229)"><path
             d="m 0,0 c 0,0 -9.89,8.331 -21.563,4.817 -10.711,-3.23 -12.213,-15.585 -4.45,-20.629 0,0 7.594,-3.4 16.038,-6.517 20.317,-7.482 11.561,-27.118 -4.789,-27.118 -8.188,0 -15.046,3.57 -19.211,8.161"
             style="fill:none;stroke:#000000;stroke-width:15;stroke-linecap:round;stroke-linejoin:round;stroke-miterlimit:10;stroke-dasharray:none;stroke-opacity:1"
             id="path9505" /></g><g
           id="g9507"
           transform="translate(345.4326,383.0469)"><path
             d="M 0,0 C 0,15.16 -12.411,27.571 -27.571,27.571 -42.759,27.571 -55.142,15.16 -55.142,0 c 0,-15.188 12.383,-27.571 27.571,-27.571 C -12.411,-27.571 0,-15.188 0,0 Z"
             style="fill:none;stroke:#000000;stroke-width:15;stroke-linecap:round;stroke-linejoin:round;stroke-miterlimit:10;stroke-dasharray:none;stroke-opacity:1"
             id="path9509" /></g><g
           id="g9511"
           transform="translate(482.0107,383.0469)"><path
             d="M 0,0 H 22.301"
             style="fill:none;stroke:#000000;stroke-width:15;stroke-linecap:round;stroke-linejoin:round;stroke-miterlimit:10;stroke-dasharray:none;stroke-opacity:1"
             id="path9513" /></g><g
           id="g9515"
           transform="translate(482.0107,417.249)"><path
             d="M 0,0 H 22.301"
             style="fill:none;stroke:#000000;stroke-width:15;stroke-linecap:round;stroke-linejoin:round;stroke-miterlimit:10;stroke-dasharray:none;stroke-opacity:1"
             id="path9517" /></g><g
           id="g9519"
           transform="translate(482.0107,348.8164)"><path
             d="M 0,0 H 22.301"
             style="fill:none;stroke:#000000;stroke-width:15;stroke-linecap:round;stroke-linejoin:round;stroke-miterlimit:10;stroke-dasharray:none;stroke-opacity:1"
             id="path9521" /></g><g
           id="g9523"
           transform="translate(284.7939,246.4932)"><path
             d="m 0,0 c -3.315,0 -6.007,-2.068 -6.007,-4.562 v -106.545 c 0,-2.523 2.692,-4.563 6.007,-4.563 H 193.108 V 0 Z"
             style="fill:#9dc6fb;fill-opacity:1;fill-rule:evenodd;stroke:none"
             id="path9525" /></g><g
           id="g9527"
           transform="translate(477.9023,246.4932)"><path
             d="M 0,0 H -17.682 -35.873 V -14.396 -82.687 -115.67 H 0 Z"
             style="fill:#80b4fb;fill-opacity:1;fill-rule:evenodd;stroke:none"
             id="path9529" /></g><g
           id="g9531"
           transform="translate(447.3564,314.5859)"><path
             d="M 0,0 H -413.447 V -35.364 H -5.327 V -68.093 H 12.864 30.546 V -54.123 0 Z"
             style="fill:#fe4eb7;fill-opacity:1;fill-rule:evenodd;stroke:none"
             id="path9533" /></g><g
           id="g9535"
           transform="translate(7.5,383.0469)"><path
             d="M 0,0 H 22.271"
             style="fill:none;stroke:#000000;stroke-width:15;stroke-linecap:round;stroke-linejoin:round;stroke-miterlimit:10;stroke-dasharray:none;stroke-opacity:1"
             id="path9537" /></g><g
           id="g9539"
           transform="translate(7.5,417.249)"><path
             d="M 0,0 H 22.271"
             style="fill:none;stroke:#000000;stroke-width:15;stroke-linecap:round;stroke-linejoin:round;stroke-miterlimit:10;stroke-dasharray:none;stroke-opacity:1"
             id="path9541" /></g><g
           id="g9543"
           transform="translate(7.5,348.8164)"><path
             d="M 0,0 H 22.271"
             style="fill:none;stroke:#000000;stroke-width:15;stroke-linecap:round;stroke-linejoin:round;stroke-miterlimit:10;stroke-dasharray:none;stroke-opacity:1"
             id="path9545" /></g><g
           id="g9547"
           transform="translate(80.4365,56.0713)"><path
             d="m 0,0 h 136.068 v 179.909 c 0,5.78 -4.732,10.513 -10.512,10.513 H 10.484 C 4.731,190.422 0,185.689 0,179.909 Z"
             style="fill:#ffbc85;fill-opacity:1;fill-rule:evenodd;stroke:none"
             id="path9549" /></g><g
           id="g9551"
           transform="translate(205.9922,246.4932)"><path
             d="m 0,0 h -115.071 c -5.753,0 -10.485,-4.732 -10.485,-10.513 v -12.156 h 105.381 c 5.78,0 10.512,-4.704 10.512,-10.485 V -190.422 H 10.513 V -10.513 C 10.513,-4.732 5.78,0 0,0"
             style="fill:#f5a96c;fill-opacity:1;fill-rule:evenodd;stroke:none"
             id="path9553" /></g><g
           id="g9555"
           transform="translate(80.4365,56.0713)"><path
             d="m 0,0 h 136.068 v 179.909 c 0,5.78 -4.732,10.513 -10.512,10.513 H 10.484 C 4.731,190.422 0,185.689 0,179.909 Z"
             style="fill:none;stroke:#000000;stroke-width:15;stroke-linecap:round;stroke-linejoin:round;stroke-miterlimit:10;stroke-dasharray:none;stroke-opacity:1"
             id="path9557" /></g><g
           id="g9559"
           transform="translate(115.2891,146.5781)"><path
             d="M 0,0 V -15.755"
             style="fill:none;stroke:#000000;stroke-width:15;stroke-linecap:round;stroke-linejoin:round;stroke-miterlimit:10;stroke-dasharray:none;stroke-opacity:1"
             id="path9561" /></g><path
           d="M 477.902,130.823 H 442.029 V 56.071 h 35.873 z"
           style="fill:#fe4eb7;fill-opacity:1;fill-rule:evenodd;stroke:none"
           id="path9563" /><g
           id="g9565"
           transform="translate(481.2178,56.0713)"><path
             d="m 0,0 h -3.315 -35.873 c 12.382,0 22.498,-10.116 22.498,-22.499 v -17.398 c 0,-2.806 -2.295,-5.101 -5.073,-5.101 h 39.16 c 2.806,0 5.073,2.295 5.073,5.101 v 17.398 C 22.47,-10.116 12.354,0 0,0"
             style="fill:#dddaec;fill-opacity:1;fill-rule:evenodd;stroke:none"
             id="path9567" /></g><g
           id="g9569"
           transform="translate(284.7939,246.4932)"><path
             d="M 0,0 H 193.108 V -115.67 H 0 c -3.315,0 -6.007,2.04 -6.007,4.563 V -4.562 C -6.007,-2.068 -3.315,0 0,0 Z"
             style="fill:none;stroke:#000000;stroke-width:15;stroke-linecap:round;stroke-linejoin:round;stroke-miterlimit:10;stroke-dasharray:none;stroke-opacity:1"
             id="path9571" /></g><g
           id="g9573"
           transform="translate(331.4346,56.0713)"><path
             d="m 0,0 h -300.841 c -12.383,0 -22.499,-10.116 -22.499,-22.499 v -17.398 c 0,-2.806 2.296,-5.101 5.101,-5.101 h 485.42 c 2.805,0 5.072,2.295 5.072,5.101 v 17.398 C 172.253,-10.116 162.138,0 149.783,0 H 34.626"
             style="fill:none;stroke:#000000;stroke-width:15;stroke-linecap:round;stroke-linejoin:round;stroke-miterlimit:10;stroke-dasharray:none;stroke-opacity:1"
             id="path9575" /></g><g
           id="g9577"
           transform="translate(271.5898,314.5859)"><path
             d="m 0,0 h 223.144 c 5.27,0 9.578,4.307 9.578,9.577 v 117.739 c 0,5.271 -4.308,9.578 -9.578,9.578 h -477.657 c -5.27,0 -9.577,-4.307 -9.577,-9.578 V 9.577 c 0,-5.27 4.307,-9.577 9.577,-9.577 h 219.914"
             style="fill:none;stroke:#000000;stroke-width:15;stroke-linecap:round;stroke-linejoin:round;stroke-miterlimit:10;stroke-dasharray:none;stroke-opacity:1"
             id="path9579" /></g><g
           id="g9581"
           transform="translate(33.9092,56.0713)"><path
             d="m 0,0 v 258.515 m 443.993,0 V 0"
             style="fill:none;stroke:#000000;stroke-width:15;stroke-linecap:round;stroke-linejoin:round;stroke-miterlimit:10;stroke-dasharray:none;stroke-opacity:1"
             id="path9583" /></g></g></g></g></svg>
