<svg id="Layer_1" viewBox="0 0 128 128" xmlns="http://www.w3.org/2000/svg" data-name="Layer 1"><path d="m77.83 127.99h7.67l2.667-19.157h3.75l1.683 19.167h8.1l1.133-17.833-25.75-.084z" fill="#e1ebf4"/><path d="m39.03613 95.97754c-.86621-.64941-1.75-1.28809-2.63916-1.92969-3.94287-2.84863-8.01953-5.79395-11.31885-9.88379a18.94585 18.94585 0 0 1 -4.46582-11.07129c-.01215-.31073-.007-.61859-.00092-.92615h-10.44469l2.94611 55.83 7.78076-.00977 3.27313-25.32019 4.741 25.33289 7.97949-.00293 3.1593-31.42517a5.92922 5.92922 0 0 1 -1.01035-.59391z" fill="#e1ebf4"/><path d="m26.98682 91.77124a1.99976 1.99976 0 0 0 -1.98682-1.77142h-.001a1.99991 1.99991 0 0 0 -1.98633 1.77338l-3.87988 33.99976a2.00018 2.00018 0 1 0 3.97461.45313l1.90039-16.65417 1.91555 16.65608a2.00011 2.00011 0 0 0 1.98438 1.77148 2.05252 2.05252 0 0 0 .231-.0127 2.00049 2.00049 0 0 0 1.75828-2.21578z" fill="#2d4356"/><path d="m27.74 27.76a58.40188 58.40188 0 0 1 -2.74 17.22 58.40188 58.40188 0 0 1 -2.74-17.22 15.76135 15.76135 0 0 0 5.48 0z" fill="#ffdb80"/><g fill="#e1ebf4"><path d="m20.03 42.11a83.20753 83.20753 0 0 1 -7.56-17.44h2.8a15.72536 15.72536 0 0 0 3.02 1.84 55.94428 55.94428 0 0 0 1.74 15.6z"/><path d="m29.97 42.11a55.94428 55.94428 0 0 0 1.74-15.6 15.72536 15.72536 0 0 0 3.02-1.84h2.8a83.20753 83.20753 0 0 1 -7.56 17.44z"/><path d="m40.25 22.67s-2.67 11.66-4.75 14.25c-2.08 2.58-11.17 11.58-11.17 11.58s-14.58-20.17-13.66-23.67c.91-3.5 1.25-2.16 1.25-2.16h1.19a7.76864 7.76864 0 0 0 .63.65c.17.18.35.35.53.50995.19.17.38.34.58.51l.42.33h-2.8a83.20753 83.20753 0 0 0 7.56 17.44005 55.94428 55.94428 0 0 1 -1.74-15.6 15.92284 15.92284 0 0 0 1.92.75h.03c.32.11.65.2.98.28h.02c.34.09.68.16 1.02.22a58.40188 58.40188 0 0 0 2.74 17.22 58.40188 58.40188 0 0 0 2.74-17.22c.34-.06.68-.13 1.02-.22h.02c.33-.08.66-.17.98-.28h.03a15.92284 15.92284 0 0 0 1.92-.75 55.94428 55.94428 0 0 1 -1.74 15.6 83.20753 83.20753 0 0 0 7.56-17.44h-2.8l.42-.33c.2-.17.39-.34.58-.51.18-.16.36-.33.53-.50995a7.76864 7.76864 0 0 0 .63-.65z"/></g><path d="m25 0a12 12 0 1 0 12 12 12.00952 12.00952 0 0 0 -12-12zm0 20a8 8 0 1 1 8-8 8.01066 8.01066 0 0 1 -8 8z" fill="#2d4356"/><path d="m33 12a8 8 0 1 1 -8-8 8.01066 8.01066 0 0 1 8 8z" fill="#e1ebf4"/><path d="m106.16669 79.33331c-1.16669-11.83331-1.83338-18-2.33338-25.83331s-8-7.5-10.83331-5.66669a14.47151 14.47151 0 0 1 -4.66669 2.16669s-2.5-4.16669-9.5-2.5c0 0-4.16663.83331-3.5 8 .20972 2.25409.51807 5.99316.68188 10.37494a15.44653 15.44653 0 0 1 9.3725 14.81549 18.93779 18.93779 0 0 1 -4.46387 11.07031c-3.29883 4.08984-7.37354 7.03418-11.31445 9.88086-.26855.194-.52325.38391-.78857.57617-2.01941 4.21448-1.88464 5.44885 1.84589 5.44885 5.33331.00001 6.33331 4.50001 12.66662 3.33338s7.33337-1.66669 11.83337-.33337 10.5-4 16.16663-2.5-4-17-5.16662-28.83332z" fill="#feaca4"/><path d="m56.6 58.93a13.98355 13.98355 0 0 0 -1.4-.69 15.39057 15.39057 0 0 0 -6.15-1.29 14.58127 14.58127 0 0 0 -3.3.37l-5-11.07v11.42a14.65753 14.65753 0 0 0 -4.53-.72 15.73955 15.73955 0 0 0 -15.21 12.05 13.66849 13.66849 0 0 0 -.33 2c-.04.42-.06.83-.07 1.25h-3.36c-8.5-.37-5.87 2.13-8.13 6-2.24 3.87-6.62-.87-6.62-.87s-.25-31.88-.12-43.13c.12-11.25 7.12-11.13 7.12-11.13s3.25 5.5 3.88 10.13c.62 4.63 11.74 18 11.74 18s8.88-13.37 11.76-17.5c2.87-4.13.12-11.63 5.62-10.25s10.12 20.88 10.12 20.88z" fill="#81d9e3"/><path d="m125 67.625c-1.125-.75-19.25-26.625-19.25-26.625l-8.875-2.125-.875-4h-11.375l-3.875 4.75-8.375 3-10.875 15.875-1.21027 3.25262a15.45346 15.45346 0 0 1 2.9256 4.20636l.13184.06152a14.63473 14.63473 0 0 1 2.66241-.96777l10.24042-12.55273s.875-6.625 6.875-5.625 6.875 5 6.875 5 1.125-5.125 7.25-4.125 7 4.5 7.375 7.875 1-1.75 4.625 4 9 14.25 13.5 14.25 3.375-5.5 2.25-6.25z" fill="#e1ebf4"/><path d="m74.35 69.51a10.966 10.966 0 0 0 -10.99 1.15 10.92794 10.92794 0 0 0 -3.22-1.61 11.57927 11.57927 0 0 0 -6.52-7.14 10.94649 10.94649 0 0 0 -10.98 1.16 10.96763 10.96763 0 0 0 -10.99-1.16 11.47947 11.47947 0 0 0 -7.04 11.03 14.937 14.937 0 0 0 3.58 8.71c2.96 3.67 6.82 6.46 10.55 9.15.91.66 1.81 1.31 2.69 1.97a2.01216 2.01216 0 0 0 1.2.4h.01a2.01216 2.01216 0 0 0 1.2-.4c.87994-.66 1.78-1.31 2.69-1.97.77-.55 1.53-1.11 2.3-1.67l.09.12c2.96 3.68 6.82 6.46 10.55 9.16.91.65 1.81006 1.3 2.69 1.96a2.0121 2.0121 0 0 0 1.2.4h.01a2.0121 2.0121 0 0 0 1.2-.4c.88-.66 1.78-1.31 2.69-1.96 3.73-2.7 7.59-5.49 10.55-9.16a14.93869 14.93869 0 0 0 3.58-8.72 11.47528 11.47528 0 0 0 -7.04-11.02zm-29.01 11.02a13.29065 13.29065 0 0 0 1.35 5.2c-.83.62-1.67 1.23-2.5 1.83-.52.38-1.04.75-1.55 1.13-.52-.38-1.04-.75-1.56-1.13-3.51-2.54-7.15-5.16-9.77-8.42a11.21469 11.21469 0 0 1 -2.7-6.36 7.50381 7.50381 0 0 1 4.62-7.2 7.72122 7.72122 0 0 1 2.99-.63 6.893 6.893 0 0 1 4.98 2.15 2.07158 2.07158 0 0 0 2.87 0 6.96352 6.96352 0 0 1 7.97-1.52 7.7223 7.7223 0 0 1 3.54 3.07 11.70354 11.70354 0 0 0 -3.2.86 11.47523 11.47523 0 0 0 -7.04 11.02zm4.59 2.65a8.63147 8.63147 0 0 1 -.59-2.8 7.50375 7.50375 0 0 1 4.62-7.2 7.829 7.829 0 0 1 2.7-.62 1.61321 1.61321 0 0 1 0 .22 11.27524 11.27524 0 0 1 -2.69 6.36 30.84337 30.84337 0 0 1 -4.04 4.04zm24.77 3.56c-2.63 3.26-6.27 5.88-9.78 8.42-.52.38-1.04.75-1.56 1.13-.51-.38-1.02-.75-1.54-1.13-3.52-2.54-7.16-5.16-9.79-8.42-.01-.02-.03-.04-.04-.06a35.58557 35.58557 0 0 0 5.09-5.03 15.37561 15.37561 0 0 0 3.52-8.02 7.42718 7.42718 0 0 1 1.33 1.07 2.0717 2.0717 0 0 0 2.87 0 6.94755 6.94755 0 0 1 7.97-1.52 7.50375 7.50375 0 0 1 4.62 7.2 11.27588 11.27588 0 0 1 -2.69 6.36z" fill="#2d4356"/><path d="m55.58 68.65a11.70354 11.70354 0 0 0 -3.2.86 11.47523 11.47523 0 0 0 -7.04 11.02 13.29065 13.29065 0 0 0 1.35 5.2c-.83.62-1.67 1.23-2.5 1.83-.52.38-1.04.75-1.55 1.13-.52-.38-1.04-.75-1.56-1.13-3.51-2.54-7.15-5.16-9.77-8.42a11.21469 11.21469 0 0 1 -2.7-6.36 7.50381 7.50381 0 0 1 4.62-7.2 7.72122 7.72122 0 0 1 2.99-.63 6.893 6.893 0 0 1 4.98 2.15 2.07158 2.07158 0 0 0 2.87 0 6.96352 6.96352 0 0 1 7.97-1.52 7.7223 7.7223 0 0 1 3.54 3.07z" fill="#fc785e"/><path d="m56.66 72.56a1.61321 1.61321 0 0 1 0 .22 11.27524 11.27524 0 0 1 -2.69 6.36 30.84337 30.84337 0 0 1 -4.04 4.04 8.63147 8.63147 0 0 1 -.59-2.8 7.50375 7.50375 0 0 1 4.62-7.2 7.829 7.829 0 0 1 2.7-.62z" fill="#fc785e"/><path d="m77.39 80.38a11.27588 11.27588 0 0 1 -2.69 6.36c-2.63 3.26-6.27 5.88-9.78 8.42-.52.38-1.04.75-1.56 1.13-.51-.38-1.02-.75-1.54-1.13-3.52-2.54-7.16-5.16-9.79-8.42-.01-.02-.03-.04-.04-.06a35.58557 35.58557 0 0 0 5.09-5.03 15.37561 15.37561 0 0 0 3.52-8.02 7.42718 7.42718 0 0 1 1.33 1.07 2.0717 2.0717 0 0 0 2.87 0 6.94755 6.94755 0 0 1 7.97-1.52 7.50375 7.50375 0 0 1 4.62 7.2z" fill="#fc785e"/><path d="m83.19092 65.459a7.192 7.192 0 0 0 6.80908-.72755 6.95584 6.95584 0 0 0 4.05225 1.26563 7.05241 7.05241 0 0 0 2.75684-.53809 2.00006 2.00006 0 0 0 -1.61816-3.6582 3.08647 3.08647 0 0 1 -3.63281-1.05469 2.0694 2.0694 0 0 0 -3.11621 0 3.09665 3.09665 0 0 1 -3.65381 1.0459 1.99989 1.99989 0 0 0 -1.59717 3.667z" fill="#2d4356"/><path d="m126.84 66.56-18.48-25.05a6.00239 6.00239 0 0 0 -3.1-2.17l-6.1-1.79a1.965 1.965 0 0 1 -1.3-1.27l-.3-.92a14.2876 14.2876 0 0 0 5.43-11.1 2.92811 2.92811 0 0 0 1.01-2.14 49.63082 49.63082 0 0 0 -.38-6.57c-.68-3.13-3.18-5.72-6.62-7.2v-1.47a6.89248 6.89248 0 0 0 -6.88-6.88h-.24a6.89248 6.89248 0 0 0 -6.88 6.88v1.47c-3.44 1.48-5.94 4.07-6.62 7.21a50.93367 50.93367 0 0 0 -.38 6.55 2.9498 2.9498 0 0 0 1.01 2.15 14.28759 14.28759 0 0 0 5.43 11.1l-.3.92a1.93024 1.93024 0 0 1 -1.3 1.26l-6.11 1.8a6.06844 6.06844 0 0 0 -3.11 2.17l-12.81 17.39-9.31-29.67a.22771.22771 0 0 0 -.03-.11 11.74223 11.74223 0 0 0 -9.86-8.36l-.89-.57a15.4147 15.4147 0 0 1 -1.83 2.48 7.76864 7.76864 0 0 1 -.63.65c-.17.18-.35.35-.53.50995-.19.17-.38.34-.58.51l-.42.33h2.8a83.20753 83.20753 0 0 1 -7.56 17.44005 55.94428 55.94428 0 0 0 1.74-15.6 15.92284 15.92284 0 0 1 -1.92.75h-.03c-.32.1-.65.19-.98.28h-.02q-.51.12-1.02.21v.01a58.40188 58.40188 0 0 1 -2.74 17.22 58.40188 58.40188 0 0 1 -2.74-17.22v-.01q-.51-.09-1.02-.21h-.02c-.33-.09-.66-.18-.98-.28h-.03a15.92284 15.92284 0 0 1 -1.92-.75 55.94428 55.94428 0 0 0 1.74 15.6 83.20753 83.20753 0 0 1 -7.56-17.44h2.8l-.42-.33c-.2-.17-.39-.34-.58-.51-.18-.16-.36-.33-.53-.50995a7.76864 7.76864 0 0 1 -.63-.65 15.4147 15.4147 0 0 1 -1.83-2.48l-.89.57a11.94775 11.94775 0 0 0 -10.39 11.90995v42.33a6.009 6.009 0 0 0 6 6 6.09614 6.09614 0 0 0 2.42-.51l2.58 45.62a2.003 2.003 0 0 0 4-.22l-2.88-50.89h8.7a17.69958 17.69958 0 0 1 -.21-1.91 14.55878 14.55878 0 0 1 .08-2.09h-8.69v-21a2 2 0 0 0 -4 0v25a2.00591 2.00591 0 0 1 -2 2 1.98051 1.98051 0 0 1 -2-2v-42.33a8.02508 8.02508 0 0 1 4.51-7.25c1.47 4.85 6.51 19.83 14.49 26.54v8.62a2.00511 2.00511 0 0 0 1.33 1.88c.19-.21.36-.43.56-.64a16.5936 16.5936 0 0 1 2.11-1.82v-8.04c7.98-6.71 13.02-21.69 14.49-26.54a7.87667 7.87667 0 0 1 4.12 4.74.73618.73618 0 0 0 .04.14l8.65 27.6a15.65625 15.65625 0 0 1 3.94 2.08c.05.04.1.08.14.11.37.27.73.55 1.07.85.32.28.63.57.93.88.24.25.46.5.68.75995l13.78-18.68995a1.94381 1.94381 0 0 1 1.02-.71l6.11-1.8a5.93167 5.93167 0 0 0 3.98-3.87l.06-.19a12.046 12.046 0 0 0 7.98 0l.06.19a5.912 5.912 0 0 0 3.98 3.87l6.1 1.8a1.944 1.944 0 0 1 1.02.71l18.48 25.05a1.84934 1.84934 0 0 1 .37 1.13 1.883 1.883 0 0 1 -.79 1.55 1.94979 1.94979 0 0 1 -2.72-.42l-14.42-19.34a9.14608 9.14608 0 0 0 -16.09-3.31 9.15174 9.15174 0 0 0 -16.12 3.4l-10.49 14.07a14.86973 14.86973 0 0 1 6.07-1.45l4.35-5.83c.01.17.02.35.03.52a58.75149 58.75149 0 0 1 .18 5.9 16.01663 16.01663 0 0 1 3.89 1.7 49.04438 49.04438 0 0 0 -.08-7.87c-.1-1.6-.21-3.26-.21-4.92a5.13543 5.13543 0 0 1 10.27 0 2.00591 2.00591 0 0 0 2 2h.22a2.00591 2.00591 0 0 0 2-2 5.1354 5.1354 0 0 1 10.27 0c0 1.66-.11 3.32-.21 4.92a36.65959 36.65959 0 0 0 .47 11.32c2.25 9.43 6.4 28.8 7.88 35.76-.31-.02-.61-.04-.92-.06a16.9989 16.9989 0 0 0 -3.42.11c-.03.01-.05.01-.08.02a13.837 13.837 0 0 0 -4.18 1.6c-.24005.12-.46.24-.69.35h-.27l-.01.14a7.308 7.308 0 0 1 -2.07.72 3.11825 3.11825 0 0 1 -.32.04h-.01c-.05 0-.1.01-.14.01a10.89089 10.89089 0 0 1 -3.21-.75l-.75-.25a13.72132 13.72132 0 0 0 -3.57-.74h-.01a2.61706 2.61706 0 0 0 -.28-.01h-.11a12.79875 12.79875 0 0 0 -3.78.68l-.64.2-.35.11a10.49048 10.49048 0 0 1 -3.52.73h-.01a9.71572 9.71572 0 0 1 -3.63-1.32 14.46427 14.46427 0 0 0 -4.23-1.61.12659.12659 0 0 0 -.06-.01 23.19594 23.19594 0 0 0 -4.78-.12c.29-1.4.65-3.07 1.04-4.92-.3.22-.6.44-.9.65-.93.68-1.79 1.3-2.63 1.93a6.14663 6.14663 0 0 1 -1.25.7c-.25 1.18005-.46 2.21-.62994 3.05-.01.05-.02.11-.03.16a2.42031 2.42031 0 0 0 -.06.47v.04a2.00426 2.00426 0 0 0 1.96 2c.83.01 1.71-.03 2.56-.07.02 0 .03-.01.04-.01h.04a19.91551 19.91551 0 0 1 3.96.06h.03c.00995 0 .02.01.04.01.15.03.31.07.46.11.17.05.33.11.5.17l1.11 15.88a1.99991 1.99991 0 0 0 3.99-.28l-.95-13.68a11.6882 11.6882 0 0 0 1.87.6 7.89121 7.89121 0 0 0 1.27.18h.03a10.70186 10.70186 0 0 0 3.58-.45l-1.66 13.24a2.00067 2.00067 0 0 0 3.97.5l1.87-14.92a.14911.14911 0 0 1 .07-.00995l1.88 14.93a2.00357 2.00357 0 0 0 1.97994 1.74995 2.27216 2.27216 0 0 0 .26-.02 1.98886 1.98886 0 0 0 1.73-2.23l-1.73-13.69a13.38875 13.38875 0 0 0 4.4.94c.17 0 .36-.01.54-.02a8.75227 8.75227 0 0 0 1.82-.33l-.92 13.21a1.98873 1.98873 0 0 0 1.86 2.13.61446.61446 0 0 0 .14.01 1.99822 1.99822 0 0 0 1.99-1.86l1.07-15.34a9.43722 9.43722 0 0 1 1.3-.54 5.02533 5.02533 0 0 1 .68-.18005.03692.03692 0 0 0 .03-.00995 8.2585 8.2585 0 0 1 1.25-.09c.88-.01 1.82.05 2.75.12.34.02.69.05 1.03.07.39.02.78.04 1.16.05a2.05851 2.05851 0 0 0 1.32-.46c.06995-.06.12994-.12.18994-.18005a2.001 2.001 0 0 0 .53-1.25v-.12995a1.67876 1.67876 0 0 0 -.07-.5c-.58-2.86-5.92-27.83-8.42-38.32a33.02727 33.02727 0 0 1 -.37-10.12c.01-.19.02-.39.03-.57l11.11 14.9a5.94223 5.94223 0 0 0 10.72006-3.52 5.758 5.758 0 0 0 -1.16-3.51zm-39.84-59.68a2.88072 2.88072 0 0 1 2.88-2.88h.24a2.88072 2.88072 0 0 1 2.88 2.88v.34a17.95679 17.95679 0 0 0 -2.77-.22h-.45a18.08719 18.08719 0 0 0 -2.78.22zm-6.71 9.52c.67-3.08 4.74-5.4 9.49-5.4h.45c4.74 0 8.81 2.32 9.48 5.37.05.29.15 1.47.22 2.82-.99-1.16-1.94-2.25-2.38-2.75a1.99475 1.99475 0 0 0 -1.48-.67h-.02a1.97573 1.97573 0 0 0 -1.46.64 7.40572 7.40572 0 0 1 -9.17 0 2.07524 2.07524 0 0 0 -1.49-.64 1.97341 1.97341 0 0 0 -1.47.67c-.45.5-1.4 1.59-2.39 2.75.07-1.35.17-2.52.22-2.79zm9.71 17.6c-4.91 0-8.9-4.37-8.99-9.8.08-.08.16-.16.24-.25.89-1.03 2.05-2.38 2.96-3.44a11.99468 11.99468 0 0 0 11.58 0c.91 1.06 2.07 2.41 2.96 3.45.07.08.16.15.24.23-.09 5.43-4.08 9.81-8.99 9.81z" fill="#2d4356"/><path d="m93 6.88v.34a17.95679 17.95679 0 0 0 -2.77-.22h-.45a18.08719 18.08719 0 0 0 -2.78.22v-.34a2.88072 2.88072 0 0 1 2.88-2.88h.24a2.88072 2.88072 0 0 1 2.88 2.88z" fill="#e1ebf4"/><path d="m99.93 19.19c-.99-1.16-1.94-2.25-2.38-2.75a1.99475 1.99475 0 0 0 -1.48-.67h-.02a1.97573 1.97573 0 0 0 -1.46.64 7.40572 7.40572 0 0 1 -9.17 0 2.07524 2.07524 0 0 0 -1.49-.64 1.97341 1.97341 0 0 0 -1.47.67c-.45.5-1.4 1.59-2.39 2.75.07-1.35.17-2.52.22-2.79.67-3.08 4.74-5.4 9.49-5.4h.45c4.74 0 8.81 2.32 9.48 5.37.05.29.15 1.47.22 2.82z" fill="#d68751"/><path d="m98.99 24.19c-.09 5.43-4.08 9.81-8.99 9.81s-8.9-4.37-8.99-9.8c.08-.08.16-.16.24-.25.89-1.03 2.05-2.38 2.96-3.44a11.99468 11.99468 0 0 0 11.58 0c.91 1.06 2.07 2.41 2.96 3.45.07.08.16.15.24.23z" fill="#e1ebf4"/><path d="m48.6333 56.98065-6.77978-16.73144a1.99984 1.99984 0 0 0 -3.85352.75586l.04083 16.07306a14.79418 14.79418 0 0 1 4.00281 1.09772l-.01727-6.84961 2.56793 6.33765a14.78034 14.78034 0 0 1 4.039-.68324z" fill="#2d4356"/><path d="m36.78937 94.33423-1.78595 31.552a1.99989 1.99989 0 0 0 1.88379 2.11035c.03809.002.07666.00293.11475.00293a1.99932 1.99932 0 0 0 1.99463-1.88672l1.65875-29.30426a5.68331 5.68331 0 0 1 -1.62115-.83514c-.73384-.54859-1.4886-1.09302-2.24482-1.63916z" fill="#2d4356"/><path d="m77.39 80.38a11.27588 11.27588 0 0 1 -2.69 6.36c-2.63 3.26-6.27 5.88-9.78 8.42-.52.38-1.04.75-1.56 1.13-.51-.38-1.02-.75-1.54-1.13-3.52-2.54-7.16-5.16-9.79-8.42-.01-.02-.03-.04-.04-.06.33-.28.66-.55.99-.84a57.23317 57.23317 0 0 0 8.84 7.32c.52.38 1.03.75 1.54 1.13.52-.38 1.04-.75 1.56-1.13 3.51-2.54 7.15-5.16 9.78-8.42a11.69888 11.69888 0 0 0 2.63-5.67 7.11 7.11 0 0 1 .06 1.31z" fill="#a54b3f" opacity=".5"/><path d="m8.51 25.42c.15.48.33 1.07.54 1.74-.17.07-.35.16-.54.26a8.02508 8.02508 0 0 0 -4.51 7.25v-2a8.02508 8.02508 0 0 1 4.51-7.25z" fill="#e8fbfc" opacity=".3"/><path d="m99.93 19.19-.15-.18c-.03-.31-.05-.53-.07-.64-.67-3.05-4.74-5.37-9.48-5.37h-.45c-4.75 0-8.82 2.32-9.49005 5.4-.02.1-.04.31-.07.61l-.15.18c.07-1.35.17-2.52.22-2.79.67005-3.08 4.74005-5.4 9.49005-5.4h.45c4.74 0 8.81 2.32 9.48 5.37.05.29.15 1.47.22 2.82z" fill="#e5d0c3" opacity=".3"/><path d="m124 70.07a1.90558 1.90558 0 0 1 -.28 1c-.03-.04-.06-.09-.09-.13l-18.48-25.05a1.944 1.944 0 0 0 -1.02-.71l-6.1-1.8a5.912 5.912 0 0 1 -3.98-3.87l-.06-.19a12.046 12.046 0 0 1 -7.98 0l-.06.19a5.93167 5.93167 0 0 1 -3.98 3.87l-6.11 1.8a1.94381 1.94381 0 0 0 -1.02.71l-13.78 18.69c-.22-.25995-.44-.50995-.68-.75995-.3-.31-.61-.6-.93-.88-.34-.3-.7-.58-1.07-.85-.04-.03-.09-.07-.14-.11a15.65625 15.65625 0 0 0 -3.94-2.08005l-8.65-27.6a.73618.73618 0 0 1 -.04-.14 7.87667 7.87667 0 0 0 -4.12-4.74 4.23225 4.23225 0 0 0 -.54-.25c.21-.67.39-1.26.54-1.75a7.87667 7.87667 0 0 1 4.12 4.74.73618.73618 0 0 0 .04.14l8.65 27.6a15.65625 15.65625 0 0 1 3.94 2.08c.05.04.1.08.14.11.08.06.15.11.23.17l.2.64.23-.31c.14.12.28.23.41.35.32.28.63.57.93.88.24.25.46.5.68.75995l13.78-18.68995a1.94381 1.94381 0 0 1 1.02-.71l6.11-1.8a5.93167 5.93167 0 0 0 3.98-3.87l.06-.19a12.046 12.046 0 0 0 7.98 0l.06.19a5.912 5.912 0 0 0 3.98 3.87l6.1 1.8a1.944 1.944 0 0 1 1.02.71l18.48 25.05a1.84934 1.84934 0 0 1 .37 1.13z" fill="#e8fbfc" opacity=".3"/><path d="m102.36 54.07c0 .5-.01.99-.03 1.48a5.137 5.137 0 0 0 -10.24.52 2.00591 2.00591 0 0 1 -2 2h-.22a2.00591 2.00591 0 0 1 -2-2 5.137 5.137 0 0 0 -10.24-.52c-.02-.49-.03-.98-.03-1.48a5.13543 5.13543 0 0 1 10.27 0 2.00591 2.00591 0 0 0 2 2h.22a2.00591 2.00591 0 0 0 2-2 5.1354 5.1354 0 0 1 10.27 0z" fill="#ffdedc" opacity=".3"/><path d="m77.39 80.38q-.015.345-.06.69a7.549 7.549 0 0 0 -4.56-5.89 6.94755 6.94755 0 0 0 -7.97 1.52 2.0717 2.0717 0 0 1 -2.87 0 14.82087 14.82087 0 0 0 -1.65-1.28 12.71206 12.71206 0 0 0 .32-1.79 7.42718 7.42718 0 0 1 1.33 1.07 2.0717 2.0717 0 0 0 2.87 0 6.94755 6.94755 0 0 1 7.97-1.52 7.50375 7.50375 0 0 1 4.62 7.2z" fill="#f9dbd7" opacity=".3"/><path d="m55.58 68.65a12.14179 12.14179 0 0 0 -1.44.27 7.84235 7.84235 0 0 0 -2.1-1.34 6.96352 6.96352 0 0 0 -7.97 1.52 2.07158 2.07158 0 0 1 -2.87 0 6.893 6.893 0 0 0 -4.98-2.15 7.72122 7.72122 0 0 0 -2.99.62994 7.54913 7.54913 0 0 0 -4.56 5.89q-.045-.345-.06-.69a7.50381 7.50381 0 0 1 4.62-7.2 7.72122 7.72122 0 0 1 2.99-.62994 6.893 6.893 0 0 1 4.98 2.15 2.07158 2.07158 0 0 0 2.87 0 6.96352 6.96352 0 0 1 7.97-1.52 7.7223 7.7223 0 0 1 3.54 3.07z" fill="#f9dbd7" opacity=".3"/><path d="m46.69 85.73c-.83.62-1.67 1.23-2.5 1.83-.52.38-1.04.75-1.55 1.13-.52-.38-1.04-.75-1.56-1.13-3.51-2.54-7.15-5.16-9.77-8.42a11.21469 11.21469 0 0 1 -2.7-6.36 7.11 7.11 0 0 1 .06-1.31 11.6172 11.6172 0 0 0 2.64 5.67c2.62 3.26 6.26 5.88 9.77 8.42.52.38 1.04.75 1.56 1.13.51-.38 1.03-.75 1.55-1.13.62-.45 1.25-.9 1.87-1.37a13.47161 13.47161 0 0 0 .63 1.54z" fill="#a54b3f" opacity=".5"/><path d="m21.01 69a13.66849 13.66849 0 0 0 -.33 2h-8.68v-2z" fill="#0f423c" opacity=".25"/><path d="m20.03 42.11a83.20753 83.20753 0 0 1 -7.56-17.44h.64a84.172 84.172 0 0 0 6.21 14.25l.01.01c.21 1.11.45 2.17.7 3.18z" fill="#9fa5aa" opacity=".5"/><path d="m37.53 24.67a83.20753 83.20753 0 0 1 -7.56 17.44c.25-1.01.49005-2.07.7-3.18l.01-.01a84.172 84.172 0 0 0 6.21-14.25z" fill="#9fa5aa" opacity=".5"/><path d="m98.99 24.19c-.09 5.43-4.08 9.81-8.99 9.81s-8.9-4.37-8.99-9.8c.06-.06.12-.12006.18-.19.83 4.56 4.46 7.99 8.81 7.99 4.34 0 7.97-3.43 8.81-7.98.05.06.12.11.18.17z" fill="#9fa5aa" opacity=".5"/><path d="m110.5 106.07c-.31-.02-.61-.04-.92-.06a16.9989 16.9989 0 0 0 -3.42.11c-.03.01-.05.01-.08.02a13.837 13.837 0 0 0 -4.18 1.6c-.24005.12-.46.24-.69.35h-.27l-.01.14a7.308 7.308 0 0 1 -2.07.72 3.11825 3.11825 0 0 1 -.32.04h-.01c-.05 0-.1.01-.14.01a10.89089 10.89089 0 0 1 -3.21-.75l-.75-.25a13.72132 13.72132 0 0 0 -3.57-.74h-.01a2.61706 2.61706 0 0 0 -.28-.01h-.11a12.79875 12.79875 0 0 0 -3.78.68l-.64.2-.35.11a10.49048 10.49048 0 0 1 -3.52.73h-.01a9.71572 9.71572 0 0 1 -3.63-1.32 14.46427 14.46427 0 0 0 -4.23-1.61.12659.12659 0 0 0 -.06-.01 23.19594 23.19594 0 0 0 -4.78-.12c.13-.62.27-1.3.42-2.02a21.22945 21.22945 0 0 1 4.36.14.12659.12659 0 0 1 .06.01 14.46427 14.46427 0 0 1 4.23 1.61 9.71572 9.71572 0 0 0 3.63 1.32h.01a10.49048 10.49048 0 0 0 3.52-.73l.35-.11.64-.2a12.79875 12.79875 0 0 1 3.78-.68h.11a2.61706 2.61706 0 0 1 .28.01h.01a13.72132 13.72132 0 0 1 3.57.74l.75.25a10.89089 10.89089 0 0 0 3.21.75c.04 0 .09-.01.14-.01h.01a3.11825 3.11825 0 0 0 .32-.04 7.308 7.308 0 0 0 2.07-.72l.01-.14h.27c.23-.11.45-.23.69-.35a13.837 13.837 0 0 1 4.18-1.6c.03-.01.05-.01.08-.02a16.9989 16.9989 0 0 1 3.42-.11c.17.00995.33.02.49.03.16.76.3 1.44.43 2.03z" fill="#aa7371" opacity=".5"/><path d="m33 12a8.267 8.267 0 0 1 -.06 1 8.00312 8.00312 0 0 0 -15.88 0 8.267 8.267 0 0 1 -.06-1 8 8 0 0 1 16 0z" fill="#fff" opacity=".5"/><path d="m33 12a8 8 0 0 1 -16 0 8.26549 8.26549 0 0 1 .06-1 8.00312 8.00312 0 0 0 15.88 0 8.26549 8.26549 0 0 1 .06 1z" fill="#9fa5aa" opacity=".5"/></svg>