<svg xmlns="http://www.w3.org/2000/svg" xmlns:xlink="http://www.w3.org/1999/xlink" xml:space="preserve" id="Calque_1" x="0" y="0" version="1.1" viewBox="0 0 404.78 271.52"><style>.st0,.st2{fill:#f4c420}.st2{fill-rule:evenodd;clip-rule:evenodd}.st3{fill:#fff}</style><g id="g1822" transform="translate(-51.55 -171.02)"><path id="path1820" d="M416.22 288.77c-32.48-6.86-54.98-18.94-87.96-21.92-6.72-33.75-38.06-59.29-75.72-59.29s-69 25.54-75.72 59.28c-33 2.97-56.26 15.05-88.76 21.92v52.22c54.11 23.83 104.49 42.77 164.45 42.16 59.97.61 109.6-18.33 163.71-42.16v-52.21" class="st0"/></g><g id="g1837" transform="translate(-51.55 -171.02)"><defs><path id="SVGID_1_" d="M182.76 274.61a755.05 755.05 0 0 0-92.95 14.75v72.87c51.13 23.83 107.81 42.77 164.48 42.16 56.67.61 113.34-18.32 164.48-42.16v-72.87a755.7 755.7 0 0 0-92.89-14.75 72.86 72.86 0 0 0-71.56-59.29 72.87 72.87 0 0 0-71.56 59.29"/></defs><clipPath id="SVGID_00000084507417220570800940000012043424619052107915_"><use xlink:href="#SVGID_1_" overflow="visible"/></clipPath><radialGradient id="polygon1835_00000057144219192047140710000004051330179416738489_" cx="-163.24" cy="11.2" r="1" gradientTransform="rotate(.92 98726.47 1915498.99) scale(186.5794)" gradientUnits="userSpaceOnUse"><stop offset="0" stop-color="#a31b67"/><stop offset="1" stop-color="#591b41"/></radialGradient><path id="polygon1835" fill="url(#polygon1835_00000057144219192047140710000004051330179416738489_)" d="m418.69 410.28-331.91-5.33 3.12-194.9 331.92 5.33z" clip-path="url(#SVGID_00000084507417220570800940000012043424619052107915_)"/></g><g id="g1871"><g transform="translate(-51.55 -171.02)"><path id="path1845" d="m218.57 285.09.12.6c.78 3.76 1.75 7.53 3.45 10.94a24.88 24.88 0 0 0 2.76 4.27 20.6 20.6 0 0 0 3.26 3.17c3.08 2.36 7.22 4.13 12.86 5.02-10.38-5.35-16.18-17-15.76-28.71.35-9.65-2.1-17.97-12.44-21.34a18.26 18.26 0 0 0-6.18-.86c8.66 4.12 9.92 8.92 11.17 22.06l.76 4.85z" class="st0"/></g><g transform="translate(-51.55 -171.02)"><path id="path1847" d="M271.17 256.03c1.21 2.07 1.52 3.63 1.28 4.7 2.53.05 4.24-2.08 1.24-6.52-3.42-5.07-3.56-9.49-.46-12.58-5 2.94-5.69 8.18-2.06 14.4" class="st0"/></g><g transform="translate(-51.55 -171.02)"><path id="path1849" d="M274.59 240.49c1.12-.78 2.5-1.45 4.15-1.98-41.62-3.78-12.87 55.78-48 46.96 35.53 14.7 8.33-47.73 43.85-44.98" class="st0"/></g><g transform="translate(-51.55 -171.02)"><path id="path1851" d="M267.56 261.48a6.24 6.24 0 0 1-1.34-1.37c-.51-.71-.97-1.61-1.38-2.68 0 .79.09 1.6.25 2.45.1.56.24 1.14.39 1.72 1.02 3.86 3.1 8.27 4.93 13.05 2.11 5.51 3.9 11.5 3.35 17.68-.52 5.9-3.17 11.97-9.65 17.98l.15-.11c8.46-6.39 11.83-12.87 12.47-19.15s-1.45-12.36-3.93-17.95c-1.86-4.19-3.93-8.1-5.24-11.62" class="st0"/></g><g transform="translate(-51.55 -171.02)"><path id="path1853" d="M215.38 290.23a38.05 38.05 0 0 1-2.27-6.99c-.82-3.52-1.28-7.1-2.06-10.61-.57-2.54-1.39-5.44-3.06-7.48-2.97-3.62-6.72-3.62-10.66-3.42.51.08.99.19 1.45.31.12.03.23.08.35.12.32.1.65.2.94.31l.43.2c.24.11.5.22.72.34.15.08.28.18.42.27.2.13.42.25.61.39.14.1.26.21.38.32.17.14.35.28.51.43.13.12.24.25.36.38.15.15.3.3.43.46.11.13.21.28.31.42l.38.51c.1.15.18.3.27.46l.32.55c.09.16.16.33.24.5.09.19.19.38.27.58l.21.53a11 11 0 0 1 .41 1.18l.2.63.16.59.17.65.14.61.15.68.12.6.14.73.11.6.13.76.1.58.23 1.39.11.68.12.69.12.72.12.67.14.72.14.67.15.7.16.66.17.69.18.65.2.67.21.64.23.65.25.62.26.63.29.6c.1.2.2.41.31.6l.34.57c.12.19.23.39.36.58l.39.54c.13.18.26.37.41.55l.44.51.46.51.5.47c.17.16.34.32.53.47l.56.43.6.43.63.38.67.38c.23.12.47.22.71.33.18.08.35.18.54.25l-.05-.04.47.21a23.66 23.66 0 0 1-3.33-5.41" class="st2"/></g><g transform="translate(-51.55 -171.02)"><path id="path1855" d="m254.3 242.54.14.02c.39.06.79.1 1.18.11l.35.01c.44.01.88-.01 1.31-.07a19.05 19.05 0 0 1 5.5-4.37 22.62 22.62 0 0 1 7.06-2.36c.68-.11 1.37-.2 2.06-.27.45-1.18.58-2.37.37-3.49-.62-3.33-4.29-5.98-11.77-5.64h-.05c1.1.27 1.89 1.03 2.37 2.29.62 1.72.04 2.41-1.73 2.07-4.15-.79-3.3-2.06-9.39-1.43 5.4 3.46.53 7.36-7.62 4.16.99 4.64 5.65 8.21 10.22 8.97" class="st2"/></g><g transform="translate(-51.55 -171.02)"><path id="path1857" d="M154.92 317.24c.28-2.88.17-5.53-.34-7.85-.5-2.3-1.32-4.24-2.44-5.78a9.74 9.74 0 0 0-4.11-3.33c-1.63-.7-3.5-.96-5.56-.79-2.54.14-5.11.68-7.68 1.63a45.1 45.1 0 0 0-7.45 3.55 56.84 56.84 0 0 0-6.93 4.84 73.97 73.97 0 0 0-6.17 5.59 60.15 60.15 0 0 0-5.12 5.92 46.7 46.7 0 0 0-3.86 5.96 4.48 4.48 0 0 0-.96 2.85c.05 1 .29 1.84.74 2.56.43.7.97 1.17 1.62 1.44.32.13.75.22 1.37-.17.2-1.02.62-2.13 1.26-3.39a32.97 32.97 0 0 1 2.7-4.32 64.73 64.73 0 0 1 3.82-4.76 102.9 102.9 0 0 1 9.9-9.9 58.75 58.75 0 0 1 5.56-4.27c.35-.24.82-.2 1.13.09s.36.76.14 1.11a490.53 490.53 0 0 0-5.79 9.44c-2.01 3.34-3.96 6.61-5.85 9.81a424.91 424.91 0 0 0-5.24 9.1 107.1 107.1 0 0 0-3.95 7.67c.03-.05-.02.22.28 1.03a13.41 13.41 0 0 0 2.13 3.67c1.35-2.34 2.8-4.79 4.38-7.38a746.03 746.03 0 0 1 11.47-18.32c2.11-3.28 4.3-6.63 6.56-10.04.15-.36.2-.87.09-1.44a6.02 6.02 0 0 0-.73-1.87 8.6 8.6 0 0 0-1.25-1.62 5.1 5.1 0 0 0-1.24-.98.88.88 0 0 1-.05-1.55 26.5 26.5 0 0 1 4.32-2.13 14.5 14.5 0 0 1 4.18-.96c1.54.08 2.82.52 3.92 1.32a8.9 8.9 0 0 1 2.68 3.22 13.9 13.9 0 0 1 1.32 4.67c.2 1.76.15 3.66-.14 5.67a38.36 38.36 0 0 1-2.8 9.53 54.23 54.23 0 0 1-5.03 9.05 51.04 51.04 0 0 1-6.49 7.71 41.18 41.18 0 0 1-7.17 5.64 27.7 27.7 0 0 1-7.18 3.16c-2.31.62-4.5.76-6.49.42a8.45 8.45 0 0 1-3-1.49 10.65 10.65 0 0 1-2.34-2.59 12.3 12.3 0 0 1-1.96-7.31c-.24-.22-.58-.4-1.03-.53a5.15 5.15 0 0 0-2-.16c-.64.07-1.18.27-1.64.6-.23.17-.5.45-.49 1.14.23 1.49.74 3.01 1.5 4.41a19.88 19.88 0 0 0 6.16 6.88 16.72 16.72 0 0 0 9.76 3.01 22 22 0 0 0 6.53-1.04c2.22-.7 4.44-1.76 6.6-3.12a40.34 40.34 0 0 0 6.33-5.03 53.1 53.1 0 0 0 5.74-6.61 60.54 60.54 0 0 0 4.8-7.66 57.3 57.3 0 0 0 3.53-8.19c.95-2.8 1.6-5.51 1.96-8.11" class="st3"/></g><g transform="translate(-51.55 -171.02)"><path id="path1859" d="M206.2 346.59a4.33 4.33 0 0 0-.64-1.25c-.2-.26-.4-.46-.6-.61a70.97 70.97 0 0 1-1.93 3.6c-.84 1.47-1.73 2.97-2.67 4.45l-.09.24a25.63 25.63 0 0 1-4.98 6.11c-.87.77-1.66 1.33-2.4 1.71-.89.46-1.64.6-2.28.44a1.45 1.45 0 0 1-1.05-.6 1.2 1.2 0 0 1-.16-1.02c.07-.58.32-1.38.74-2.34.4-.9.88-1.82 1.43-2.74.54-.89 1.1-1.78 1.68-2.65l1.55-2.32a158.02 158.02 0 0 1 3.73-5.35c1.08-1.59 2.13-3.18 3.14-4.75a44.8 44.8 0 0 0 2.52-4.42 20.17 20.17 0 0 0 1.46-3.8c.26-1.05.28-1.95.04-2.69a9.85 9.85 0 0 0-2-2.54 44.63 44.63 0 0 1-3.31 3.12c-.88.74-1.77 1.47-2.68 2.2-.92.73-1.74 1.36-2.47 1.89-.76.55-1.34.93-1.74 1.15-.61.33-1.1.31-1.45-.06-.16-.17-.47-.63-.01-1.33l2.36-3.27a9.4 9.4 0 0 0 .54-1.6l.29-1.45c.1-.82.07-1.6-.08-2.28a5.72 5.72 0 0 0-.74-1.8c-.34-.53-.74-1-1.2-1.4l-.58-.5c-.28.68-.55 1.3-.82 1.83l-1.12 2.18-2.29 4.13a10.64 10.64 0 0 0-1.18 3.77 5.44 5.44 0 0 0 .1 2.64.9.9 0 0 1-.07.72l-2.06 3.62c-.52.92-1.15 1.99-1.83 3.11-.1.17-.26.3-.44.37a6.5 6.5 0 0 1-1.15 1.83c-.76 1.33-1.64 2.83-2.58 4.37a47.38 47.38 0 0 1-2.97 4.33 25.4 25.4 0 0 1-3.22 3.48 8.55 8.55 0 0 1-3.66 2.03.97.97 0 0 1-.38.01l-.4-.07a.89.89 0 0 1-.47-1.5l.01-.01c.11-.68.3-1.38.57-2.15a96.05 96.05 0 0 1 3.59-8.53c.18-.4.38-.8.57-1.19l.52-1.08a3.8 3.8 0 0 0 .14-1.62 9.11 9.11 0 0 0-1.51-3.89c-.41-.59-.85-1.11-1.32-1.56-.05-.05-.09-.09-.12-.15a.76.76 0 0 1-.29-.16 4.67 4.67 0 0 0-1.27-.82l-.01-.01.02.26c.01.09 0 .17-.01.26-.21 1-.57 2.17-1.06 3.48a95.5 95.5 0 0 1-1.6 4.01 52.48 52.48 0 0 1-5.38 6.95 31 31 0 0 1-2.83 2.66 5.3 5.3 0 0 1-2.61 1.35c-.78.08-1.4 0-1.9-.24a2.44 2.44 0 0 1-1.16-1.21 3.7 3.7 0 0 1-.32-1.59c.01-.51.05-1.02.14-1.55a17.48 17.48 0 0 1 1.04-4.11 48.14 48.14 0 0 1 2.71-5.63 47.03 47.03 0 0 1 3.81-5.85 25.07 25.07 0 0 1 4.41-4.57c1.67-1.3 3.33-1.86 4.95-1.65a2.7 2.7 0 0 1 1.64.92c.35.43.59.94.73 1.54.12.54.18 1.11.17 1.71a19.4 19.4 0 0 1-.11 2.01c.03.28.01.55-.06.8l.06.1.18.09c.14.1.31.15.51.17.3.03.58.04.84 0 .21-.02.38-.07.52-.15.23-1.23.38-2.48.45-3.74.07-1.23.03-2.42-.12-3.51-.14-1.06-.42-2-.83-2.79a3.6 3.6 0 0 0-1.63-1.62c-.44-.19-.88-.36-1.29-.48-.39-.11-.8-.18-1.21-.21-1.48-.11-3 .19-4.53.89a22.04 22.04 0 0 0-4.74 3.01 36.7 36.7 0 0 0-4.5 4.42 56.85 56.85 0 0 0-3.94 5.15 44.52 44.52 0 0 0-3.07 5.27 25.05 25.05 0 0 0-1.83 4.84c-.2.6-.36 1.32-.51 2.21-.11.94-.15 2.03-.11 3.2.04 1.13.24 2.25.61 3.32a9.39 9.39 0 0 0 1.67 2.96 7.12 7.12 0 0 0 2.97 2.05c1.23.27 2.63-.01 4.14-.89a26.22 26.22 0 0 0 4.96-3.81.91.91 0 0 1 1.02-.16c.34.16.54.52.5.89-.2 1.93.02 3.56.67 4.99a4.98 4.98 0 0 0 3.2 2.75c.59.17 1.18.21 1.77.11.63-.1 1.23-.28 1.76-.53a9.98 9.98 0 0 0 2.74-1.84 33.4 33.4 0 0 0 5.78-6.49c1.72-2.5 3.4-5.13 5.01-7.82l.08-.21 1.62-2.74.05-.16 1.65-2.81c.92-1.56 1.9-3.16 2.93-4.81a.9.9 0 0 1 .83-.42l.56.04c.59.09 1.04.09 1.41.01l1.47-.35c.23-.08.58-.15.97-.21.33-.05.74-.13 1.24-.24a.9.9 0 0 1 1.06.64.9.9 0 0 1-.6 1.08 6.1 6.1 0 0 0-2.09.97c-.43.35-.77.75-1.02 1.19l-1.69 2.52a.73.73 0 0 1-.19.2l-1.18 1.73c-.83 1.23-1.63 2.43-2.39 3.61a57.05 57.05 0 0 0-2.12 3.54 26.08 26.08 0 0 0-2.83 8.12c-.15 1.03-.2 2.07-.14 3.07.06.97.23 1.86.51 2.65.27.75.66 1.39 1.15 1.89.48.49 1.05.79 1.75.95 1.34.31 2.65.16 4.02-.45 1.46-.65 2.9-1.6 4.26-2.83 1.38-1.24 2.73-2.72 4-4.38s2.45-3.34 3.51-4.99a.9.9 0 0 1 .18-.21l2.59-4.82 2.04-3.74c.07-.14.06-.33-.02-.59" class="st3"/></g><g transform="translate(-51.55 -171.02)"><path id="path1861" d="M238.24 361.47a90 90 0 0 1 1.84-5.42c.72-1.95 1.51-3.97 2.37-6.07.85-2.09 1.67-4.1 2.47-6.01s1.54-3.65 2.23-5.21l1.99-4.6c.69-1.57 1.41-3.24 2.16-5.02l2.18-5.15c.69-1.65 1.3-3.15 1.83-4.47.52-1.3.89-2.31 1.11-3 .24-.87.23-1.77-.03-2.73a8.68 8.68 0 0 0-1.18-2.65 5 5 0 0 0-1.61-1.58c-.29-.16-.48-.2-.62-.17-.37 1.35-.82 2.8-1.33 4.33a262.6 262.6 0 0 1-6.16 16.28l-2.64 5.96c-1.85 4.3-3.67 8.71-5.4 13.07l-.11.27-1.63 3.35a68.45 68.45 0 0 1-1.82 3.48 43.23 43.23 0 0 1-3.63 5.47 25.66 25.66 0 0 1-3.51 3.72 10.8 10.8 0 0 1-3.24 1.99 4.24 4.24 0 0 1-2.81.14c-1.07-.4-1.75-1.33-2.02-2.78a14.28 14.28 0 0 1-.17-3.78.9.9 0 0 1 .57-.76 23.57 23.57 0 0 0 8.29-5.58 35.73 35.73 0 0 0 6.76-10.05c.54-1.03.95-2.01 1.24-2.91.29-.89.48-1.79.58-2.67.24-1.93.06-3.45-.54-4.53-.54-.98-1.26-1.45-2.29-1.5a7.36 7.36 0 0 0-3.55.84c-1.32.64-2.6 1.49-3.81 2.52a33.14 33.14 0 0 0-6.08 6.97 61.7 61.7 0 0 0-4.75 9.36 33.05 33.05 0 0 0-2.13 8.78c-.33 3.36.03 6.07 1.07 8.07a5.52 5.52 0 0 0 4.81 3.09c.38.03.9.04 1.57.02a7.62 7.62 0 0 0 2.13-.42c.82-.27 1.74-.72 2.72-1.33s2.01-1.52 3.08-2.71a55.65 55.65 0 0 0 3.17-4.24.9.9 0 0 1 1.07-.33.9.9 0 0 1 .56.97l-.17 1.14a22.04 22.04 0 0 0-.12 3.18c.04.92.18 1.75.4 2.47.21.65.5 1.17.86 1.56.31.33.71.52 1.22.57.43.03.95-.08 1.47-.27a9.51 9.51 0 0 0 3.01-1.9c.43-.4.78-.78 1.06-1.12a44.67 44.67 0 0 0 4.87-7.07 162.8 162.8 0 0 0 4.32-8.13l1.62-3.2a1.2 1.2 0 0 0-.11-.44 2.65 2.65 0 0 0-.95-1.22l-.47.85c-.17.3-.33.61-.48.92a.92.92 0 0 1-.08.27c-.72 1.47-1.47 2.97-2.26 4.51a55.81 55.81 0 0 1-2.5 4.37 30.88 30.88 0 0 1-2.74 3.68 9.9 9.9 0 0 1-3.1 2.46.97.97 0 0 1-.41.08c-.33-.01-.81-.21-.95-.5-.15-.3-.29-.65-.09-.92a.5.5 0 0 0-.1.21l-.02.1.02-.1c.01-.15.03-.3.1-.47.08-1.1.37-2.39.86-4.04m-18.35-6.68a50.93 50.93 0 0 1 5.04-10.08c1.05-1.6 2.18-3 3.37-4.18a8.75 8.75 0 0 1 3.89-2.4 1.22 1.22 0 0 1 1.21.14c.61.45.53 1.25.5 1.52l-.24 1.08c-.11.47-.27.92-.5 1.34l-.09.14a31.58 31.58 0 0 1-5.16 8.14 24.18 24.18 0 0 1-6.76 5.39.9.9 0 0 1-.42.1.94.94 0 0 1-.59-.22.87.87 0 0 1-.25-.97" class="st3"/></g><g transform="translate(-51.55 -171.02)"><path id="path1863" d="M296.74 337.95c.26-.48.54-1.08.83-1.83.29-.74.58-1.54.88-2.39a22.18 22.18 0 0 0 .92-3.7c-.99.33-2.02.63-3.07.92l-4.03 1.1-3.65 1.03c-1.19.34-2.39.72-3.61 1.15a.9.9 0 0 1-1.13-1.19 211.64 211.64 0 0 1 7.17-14.95c.2-.65.24-1.46.07-2.29a8.56 8.56 0 0 0-.92-2.45c-.14-.24-.15-.53-.04-.79s.34-.44.61-.51c2.83-.7 5.68-1.3 8.47-1.79l14.63-2.46c.09-.11.31-.42.64-1.21a37.35 37.35 0 0 0 2-7.54c.11-.7.17-1.33.19-1.89-.99.42-2.1.77-3.3 1.03-1.69.36-3.65.75-5.89 1.15-2.48.45-5.25.97-8.3 1.55a96.54 96.54 0 0 0-9.29 2.28 74.79 74.79 0 0 0-9.42 3.51c-3.08 1.39-6 3.12-8.69 5.16a35.4 35.4 0 0 0-7.1 7.25 30.54 30.54 0 0 0-4.66 9.72 45.59 45.59 0 0 0-.82 3.25c-.2.93-.35 1.8-.44 2.59a13.65 13.65 0 0 0 0 3.5c.15 1.11.36 2.32.65 3.6a3.7 3.7 0 0 0 1.85 1.87c.88.37 1.66.55 2.35.54a1.98 1.98 0 0 0 1.49-.62c.37-.4.52-.84.47-1.39l-.12-.44a11.45 11.45 0 0 1-2.14-4.13 11.38 11.38 0 0 1-.35-4.02c.23-2.08 1-4.1 2.29-6.01a29.65 29.65 0 0 1 4.39-5.14 37.47 37.47 0 0 1 5.17-4.07 40.36 40.36 0 0 1 4.59-2.65 58.82 58.82 0 0 1 5.28-1.88c.33-.1.7 0 .93.26.23.26.29.63.15.94-1.39 3.16-2.9 6.67-4.53 10.54a497.81 497.81 0 0 0-4.93 12.15.93.93 0 0 1-.38.45c-2.27 1.32-4.54 2.99-6.73 4.97s-4.36 4.48-6.45 7.44c-.42.62-.9 1.44-1.42 2.44a38.56 38.56 0 0 0-2.75 7.07 21.8 21.8 0 0 0-.82 6.31c.02.79.15 1.52.39 2.25.06.11.25.27.54.39.38.15.75.2 1.13.16.32-.04.58-.16.79-.38.17-.18.25-.49.23-.94l-.1-.35a5 5 0 0 1-.58-2.01c-.06-.71-.05-1.43.01-2.13.1-.91.27-1.81.51-2.71.23-.89.51-1.73.84-2.51a22.83 22.83 0 0 1 1.91-3.64 30.84 30.84 0 0 1 3.61-4.24 35.78 35.78 0 0 1 3.98-3.37.9.9 0 0 1 1.07.01c.32.23.44.65.3 1.02a281.28 281.28 0 0 0-2.87 8.14c-.89 2.66-.01-.29-.73 2.16-.72 2.42-1.36 4.78-1.89 7.02-.52 2.2-.89 4.23-1.1 6.02a11.15 11.15 0 0 0-.39 4.39 7.1 7.1 0 0 0 .88 2.86c.4.6.65.56.75.54 0 0 .43-.12.93-1.67a88.18 88.18 0 0 1 1.98-8.36 186.4 186.4 0 0 1 3.12-9.94c1.2-3.5.81-1.61 2.21-5.3 1.42-3.71 2.91-7.46 4.44-11.14.09-.23.28-.4.51-.49a42.53 42.53 0 0 1 6.85-1.98c2.19-.43 4.25-.83 6.18-1.19l1.74-.26c.48-.07.96-.16 1.44-.27.03-.1.13-.24.28-.51" class="st3"/></g><g transform="translate(-51.55 -171.02)"><path id="path1865" d="M364.19 336.35c.05-.4.08-.74.09-1.03.01-.35.05-.71.11-1.07-.03-.72-.11-1.52-.25-2.22a4.04 4.04 0 0 0-.58-1.51.86.86 0 0 1-.15-.44 8.32 8.32 0 0 0-.97-3.51 2.7 2.7 0 0 0-2.2-1.44 8.87 8.87 0 0 0-3.59 1.1 17.94 17.94 0 0 0-3.89 2.9 30.16 30.16 0 0 0-3.7 4.38 38.7 38.7 0 0 0-3.13 5.34 42.94 42.94 0 0 0-2.3 5.76l-.1.36c-.59 1.24-1.14 2.35-1.72 3.51a58.94 58.94 0 0 1-2.38 4.32 35.16 35.16 0 0 1-2.62 3.8 12.44 12.44 0 0 1-2.95 2.78.95.95 0 0 1-.33.13l-.33.06a.9.9 0 0 1-.91-.39.88.88 0 0 1-.1-.77c.01-.14.04-.29.11-.47.09-.96.36-2.2.82-3.78a84.64 84.64 0 0 1 1.71-5.24c.68-1.88 1.42-3.83 2.23-5.85a330.78 330.78 0 0 1 4.46-10.64l6.04-13.54a500.9 500.9 0 0 0 1.75-3.98c.5-1.15.85-2.02 1.05-2.63.21-.7.19-1.42-.07-2.18a6.73 6.73 0 0 0-1.18-2.16 4.53 4.53 0 0 0-1.61-1.28c-.33-.15-.55-.16-.7-.13a85.94 85.94 0 0 1-1.24 3.79 214.98 214.98 0 0 1-3.73 9.71c-.7 1.72-1.4 3.41-2.11 5.08l-2.51 5.6a348.62 348.62 0 0 0-5.1 12.55l-.25.7-.18.51-.12.25-.12.23c-.16.3-.32.6-.46.9a.77.77 0 0 1-.07.26l-2.16 4.45a60.62 60.62 0 0 1-2.39 4.4c-.84 1.4-1.73 2.7-2.64 3.84a11.94 11.94 0 0 1-2.98 2.78.82.82 0 0 1-.34.12c-.35.05-.88-.07-1.07-.37-.14-.22-.27-.47-.25-.71l-.02.06c0-.18.03-.37.11-.57.1-.98.38-2.28.83-3.87a87.49 87.49 0 0 1 1.73-5.36c.68-1.93 1.43-3.92 2.24-5.98.81-2.05 1.59-4.01 2.35-5.87s1.47-3.54 2.12-5.04l1.9-4.4 2.07-4.75 2.09-4.82c.66-1.54 1.25-2.91 1.75-4.13.5-1.19.85-2.1 1.06-2.73.21-.75.2-1.52-.07-2.32a7.16 7.16 0 0 0-1.19-2.28 4.74 4.74 0 0 0-1.61-1.35c-.32-.15-.54-.17-.68-.14a89.64 89.64 0 0 1-1.25 3.94 219.03 219.03 0 0 1-3.74 10.04c-.7 1.77-1.4 3.52-2.11 5.24l-2.52 5.75a373.76 373.76 0 0 0-5.13 12.85l-.09.24-.03.06-1.54 3.35a73.45 73.45 0 0 1-1.74 3.56 52.81 52.81 0 0 1-3.49 5.77 33.1 33.1 0 0 1-3.39 4.15 13.41 13.41 0 0 1-3.13 2.47c-.91.48-1.75.69-2.49.63-.09.02-.18.01-.28 0-.79-.15-1.81-.7-2.2-2.5a13.55 13.55 0 0 1-.25-3.71c.02-.3.19-.58.46-.72a30.58 30.58 0 0 0 8.22-6.8 42.4 42.4 0 0 0 6.5-10.39c.01-.06.04-.11.06-.17.52-1.06.91-2.01 1.19-2.9.27-.88.45-1.74.52-2.57.2-1.82 0-3.21-.59-4.14a2.3 2.3 0 0 0-2.09-1.17h-.17a8.01 8.01 0 0 0-3.56 1.13c-1.31.75-2.57 1.7-3.76 2.82a36.95 36.95 0 0 0-5.93 7.52 67.78 67.78 0 0 0-4.56 9.94c-1.06 3-1.71 6.08-1.96 9.15-.26 3.43.14 6.08 1.21 7.86.98 1.64 2.52 2.3 4.71 2.03.37-.05.89-.14 1.56-.29a9.03 9.03 0 0 0 2.16-.85c.82-.42 1.74-1.05 2.72-1.85.97-.79 2-1.88 3.05-3.24a70.54 70.54 0 0 0 3.08-4.64.9.9 0 0 1 1.07-.37c.4.14.65.54.59.96l-.15 1.11c-.1 1.11-.12 2.15-.06 3.04.06.86.21 1.61.44 2.24.2.54.48.96.81 1.23.28.22.65.3 1.13.26.45-.08.98-.27 1.5-.56a12.17 12.17 0 0 0 3.01-2.41c.43-.47.77-.89 1.04-1.26a54.88 54.88 0 0 0 3.69-5.6.9.9 0 0 1 1.07-.4.9.9 0 0 1 .61.96l-.07.51c-.1 1.08-.12 2.08-.05 2.95.06.83.2 1.55.43 2.14.2.51.46.89.79 1.14.27.2.64.27 1.12.2.45-.09.98-.3 1.51-.61a12.61 12.61 0 0 0 3-2.46c.43-.47.77-.89 1.04-1.26a56.64 56.64 0 0 0 4.68-7.33l.33-.62a.9.9 0 0 1 1.69.36c.2 3.1.88 5.27 2.03 6.45 1.17 1.21 2.62 1.6 4.41 1.2a8.36 8.36 0 0 0 3.13-1.65 22.1 22.1 0 0 0 3.36-3.35 37.26 37.26 0 0 0 3.16-4.54 46.58 46.58 0 0 0 4.68-10.51c.54-1.78.9-3.5 1.08-5.11l-.08.01m-62.62 16.44a56.95 56.95 0 0 1 4.81-10.53 28.86 28.86 0 0 1 3.26-4.43 9.72 9.72 0 0 1 3.79-2.71 1.2 1.2 0 0 1 1.26.06c.41.28.6.77.54 1.47l-.04.23-.17.83a5.43 5.43 0 0 1-.55 1.47 36.17 36.17 0 0 1-4.96 8.44 29.98 29.98 0 0 1-6.58 6.18.91.91 0 0 1-1.04-.03.87.87 0 0 1-.32-.98m61.09-17.51-.07.22c-.11 1.13-.37 2.4-.76 3.77a45.98 45.98 0 0 1-3.48 8.56 33.92 33.92 0 0 1-2.33 3.79 18.08 18.08 0 0 1-2.55 2.89 5.9 5.9 0 0 1-2.85 1.51c-.19.03-.37.04-.55.04a2.58 2.58 0 0 1-2.57-1.85 9.51 9.51 0 0 1-.28-4.26c.11-1.19.35-2.54.74-3.97a41.73 41.73 0 0 1 3.4-8.62 28.52 28.52 0 0 1 2.42-3.84c.86-1.1 1.79-2.06 2.76-2.85a7.56 7.56 0 0 1 2.79-1.57c.55-.09 1.02-.12 1.4.13a.89.89 0 0 1 .05 1.45 14.87 14.87 0 0 0-1.65 1.68c-.32.39-.61.83-.87 1.32-.25.45-.4.89-.47 1.32l-.18 1.53a12.88 12.88 0 0 0-.03 2.33l.33-.3c.11-.33.27-.69.48-1.08.25-.47.54-.93.86-1.37.33-.45.68-.85 1.05-1.2a2.6 2.6 0 0 1 1.35-.76.9.9 0 0 1 .83.28c.2.24.27.56.18.85" class="st3"/></g><g transform="translate(-51.55 -171.02)"><path id="path1867" d="m406.86 315.42-1.03-.5a31.64 31.64 0 0 0-3.15 3.38 52.48 52.48 0 0 0-2.24 3.08c-.23.32-.43.59-.6.86a82.67 82.67 0 0 0-4.09 5.99c-.71 1.15-1.41 2.34-2.1 3.53l-.2.34c-.03.06-.11.16-.16.21l-.75 1.33-1.32 2.16c-.03.06-.08.11-.12.16a13.6 13.6 0 0 0-2.49 3.71c-.28.6-.49 1.19-.7 1.79a36.97 36.97 0 0 1-2.7 3.72 14.26 14.26 0 0 1-2.89 2.69c-.08.05-.17.09-.26.12l-.47.14a.89.89 0 0 1-1.09-1.16l.15-.39c.13-.86.44-1.99.92-3.37.49-1.4 1.08-2.93 1.75-4.53a199.4 199.4 0 0 1 4.11-9.17l.04-.08.93-1.96.63-1.35c.22-.61.24-1.2.05-1.77a4.21 4.21 0 0 0-.98-1.63 3.38 3.38 0 0 0-1.43-.91c-.41-.13-.67-.08-.83-.01l-.41.55a64 64 0 0 1-1.6 4.38 1664 1664 0 0 1-2.31 5.8l-1.32 3.38-.44.76-.17.3a.62.62 0 0 1-.09.26l-2.13 3.95a60.2 60.2 0 0 1-2.35 3.97 37.74 37.74 0 0 1-2.59 3.57 13.57 13.57 0 0 1-2.88 2.71.72.72 0 0 1-.27.12l-.43.11a.87.87 0 0 1-.89-.26.85.85 0 0 1-.18-.9l.14-.4c.1-.87.38-2.03.84-3.47a121.37 121.37 0 0 1 3.73-9.66 318.43 318.43 0 0 1 1.96-4.42c.42-.92.79-1.73 1.09-2.43l.69-1.6c.21-.64.23-1.3.03-1.95a4.86 4.86 0 0 0-1.02-1.82c-.45-.5-.92-.83-1.45-1.02-.39-.14-.62-.11-.77-.04l-.38.58c-.39 1.2-.91 2.69-1.56 4.49l-2.14 5.88c-.45 1.29-.92 2.61-1.41 3.95l-1.4 3.9a81.2 81.2 0 0 0-2.1 6.73c-.11.42-.2.87-.26 1.35l-.18 1.44a9.44 9.44 0 0 0 .37 4.4c.27.68.69 1.07 1.78.82a6 6 0 0 0 1.54-.72 14.83 14.83 0 0 0 2.99-2.52 34.73 34.73 0 0 0 2.74-3.5c.55-.8 1.11-1.63 1.66-2.5a.9.9 0 0 1 1.01-.38.9.9 0 0 1 .65.85c-.2 1.92-.08 3.31.36 4.29.22.48.55.97 1.81.63.48-.16 1-.41 1.55-.76a15.93 15.93 0 0 0 4-3.72 44.3 44.3 0 0 0 1.58-2.1l.17-.23a.9.9 0 0 1 1.6.3c.17.65.41 1.15.73 1.51.38.42.89.69 1.56.83.71.15 1.63.07 2.71-.23 1.08-.33 2.17-.9 3.2-1.68s1.98-1.73 2.82-2.81a15.97 15.97 0 0 0 3.15-7.55l.45-4.9a25.59 25.59 0 0 1 1.23-6.01 16.24 16.24 0 0 1 1.95-4l.77-1.09a16.02 16.02 0 0 1 2.01-2.45c.04-.1.11-.19.2-.27.4-.35.62-.67.59-.88a1.64 1.64 0 0 0-.5-.96 6.8 6.8 0 0 0-1.41-.96m-8.88 14.9-.17.83-.12.74c-.15.85-.24 1.6-.27 2.3l-.13 2.19a64.15 64.15 0 0 1-.23 3.77c-.1.71-.26 1.37-.46 1.99a8.8 8.8 0 0 1-.82 1.78 7.07 7.07 0 0 1-1.15 1.45 3.4 3.4 0 0 1-2.47.96c-.33 0-.65-.04-.97-.12a2.38 2.38 0 0 1-1.61-1.33 5.5 5.5 0 0 1-.24-.95 2.97 2.97 0 0 1-.01-.89c.12-.61.39-1.23.84-1.86.42-.6.9-1.11 1.45-1.54.6-.47 1.22-.75 1.83-.82.28-.03.54-.01.77.07l.08-.33a11.88 11.88 0 0 0 .13-3.78 8.47 8.47 0 0 0-.18-1.15.87.87 0 0 1 .16-.79l1.94-3.18a.9.9 0 0 1 1.1-.36c.39.17.62.6.53 1.02" class="st3"/></g><g transform="translate(-51.55 -171.02)"><path id="path1869" d="m256.96 406.2-2.69-.01c-48.87.54-102.99-13.32-165.22-42.33l-1.04-.48v-75.45l1.4-.31a758.02 758.02 0 0 1 91.84-14.66 74.63 74.63 0 0 1 146.12 0 759.62 759.62 0 0 1 91.78 14.65l1.4.31v75.45l-1.04.48c-61.07 28.49-114.29 42.35-162.55 42.35m-2.68-3.6c48.18.55 101.41-13.06 162.71-41.51v-70.3a755.5 755.5 0 0 0-91.26-14.4l-1.34-.13-.25-1.32a71.04 71.04 0 0 0-139.6-.01l-.25 1.32-1.34.13a755.84 755.84 0 0 0-91.32 14.4v70.3c61.28 28.46 114.51 42.03 162.65 41.52" class="st0"/></g></g></svg>