<?xml version="1.0" encoding="UTF-8"?>
<svg id="Layer_1" data-name="Layer 1" xmlns="http://www.w3.org/2000/svg" viewBox="0 0 1080 1080">
  <defs>
    <style>
      .cls-1 {
        stroke-width: 0px;
      }
    </style>
  </defs>
  <g>
    <path class="cls-1" d="m394.1,814.87h19.68c3.42,0,6.26,1.03,8.52,3.09,2.26,2.06,3.39,4.85,3.39,8.36,0,4.21-1.69,7.26-5.07,9.15,2.02.83,3.63,2.15,4.84,3.95,1.21,1.8,1.81,3.91,1.81,6.32,0,3.51-1.19,6.37-3.55,8.59-2.37,2.21-5.24,3.32-8.62,3.32h-20.99v-42.77Zm4.94,18.69h14.02c2.28,0,4.11-.63,5.5-1.91,1.38-1.27,2.07-2.98,2.07-5.13s-.69-3.81-2.07-5.1c-1.38-1.29-3.22-1.94-5.5-1.94h-14.02v14.08Zm0,19.48h15.4c2.32,0,4.2-.73,5.63-2.21,1.42-1.47,2.14-3.28,2.14-5.43s-.72-4.01-2.17-5.46c-1.45-1.45-3.31-2.17-5.59-2.17h-15.4v15.27Z"/>
    <path class="cls-1" d="m446.94,814.87h27.7v4.61h-22.77v14.54h21.39v4.61h-21.39v14.41h22.77v4.61h-27.7v-42.77Z"/>
    <path class="cls-1" d="m493.73,857.64l17.57-42.77h3.82l17.57,42.77h-5.26l-4.28-10.53h-19.87l-4.28,10.53h-5.26Zm27.51-15.13l-8.09-19.94-8.03,19.94h16.12Z"/>
    <path class="cls-1" d="m554.48,814.87v27.44c0,3.46,1.01,6.16,3.03,8.09,2.02,1.93,4.72,2.89,8.09,2.89s6.08-.96,8.09-2.89c2.02-1.93,3.03-4.63,3.03-8.09v-27.44h5v27.9c0,4.47-1.45,8.16-4.34,11.06-2.89,2.89-6.82,4.34-11.78,4.34s-8.87-1.45-11.75-4.34c-2.87-2.9-4.31-6.58-4.31-11.06v-27.9h4.94Z"/>
    <path class="cls-1" d="m601.79,814.87h32.84v4.61h-13.95v38.17h-4.94v-38.17h-13.95v-4.61Z"/>
    <path class="cls-1" d="m657.99,814.87l12.04,18.89,12.04-18.89h5.73l-15.27,24.02v18.76h-4.94v-18.62l-15.4-24.15h5.79Z"/>
  </g>
  <path class="cls-1" d="m649.21,330.09l-86.6-108.26h-21.65l-108.26,86.6v21.65s86.6,108.26,86.6,108.26h21.65l108.26-86.6v-21.65Zm-107.99,97.7c-.09.71-.17,1.42-.25,2.12-6.36-50.42-44.71-92.57-97.72-99.55-.71-.09-1.42-.17-2.12-.25,50.42-6.36,92.57-44.71,99.55-97.72.09-.71.17-1.42.25-2.12,6.36,50.42,44.71,92.57,97.72,99.55.71.09,1.42.17,2.12.25-50.42,6.36-92.57,44.71-99.55,97.72Z"/>
  <g>
    <path class="cls-1" d="m861.46,696.72c-5.55,0-10.06-4.51-10.06-10.06v-80.75c0-7.06-.85-13.71-2.51-19.77-2.8-10.2-7.59-18.89-14.23-25.84-22.95-24.03-65.23-25.99-102.82-4.77l-.59.34-11.94,27.46h10.14l.61-.73c25.83-31.09,64.12-36.06,83.67-21.19,14.2,10.8,16.74,29.97,17.13,38.6-5.05.03-11.32.18-18.64.43-8.31.29-17.31,1.14-26.75,2.51-9.41,1.37-18.91,3.36-28.23,5.91-9.42,2.58-18.07,6.15-25.69,10.61-7.74,4.52-14.12,10.29-18.95,17.14-4.46,6.32-6.93,13.95-7.32,22.66-.03.48-.05.89-.07,1.32-.77,1.03-1.62,2.12-2.68,3.29,0,0-3.26,3.41-7.3,6.54-9.13,7.06-28.4,18.23-35.01,12.85-9.24-7.54,8.32-45.96,17.68-66.43,4.19-9.17,5.75-12.29,9.55-21.2,5.03-11.8,16.8-39.43,6.59-49.76-5.47-5.54-15.18-4.13-19.33-3.52-38.71,5.62-88.04,84.73-107.44,118.48l-.56-.3c7.42-15.28,32.08-67.22,37.96-93.8,1.35-6.11,2.86-16.94-2.15-20.93-.19-.15-4.82-3.78-11.43-4.04,0,0-.75-.03-1.5,0-19.89.76-41.99,19.97-42.21,20.16-9.24,8.11-15.19,15.71-17.43,18.56-.28.36-.5.64-.65.82-25.36,30.95-55.67,79.49-55.93,79.93h0s-.02.03-.03.04l-.52-.36s.04-.07.1-.15c1.56-2.83,22.35-48.42,29.13-64.92,7.5-18.23,12.8-34.49,8.42-44.77-.51-1.19-1.92-4.51-5.3-6.83-6.07-4.18-13.95-2.04-17.46-1.09-9.19,2.49-15.13,7.99-16.75,9.52-24.02,22.74-48.32,61.43-56.39,74.37-.79,1.27-1.53,2.46-2.28,3.65v-87.3h-32.27v9.92h2.03c5.55,0,10.06,4.51,10.06,10.06v54.74c0,11.74-1.43,33.22-4.01,41.34-2.65,8.31-6.41,15.37-11.19,20.99-4.76,5.6-10.48,9.91-17.01,12.8-6.54,2.9-13.86,4.37-21.75,4.37s-14.32-1.21-19.19-3.61c-4.84-2.37-8.68-5.51-11.41-9.32-2.76-3.85-4.66-8.33-5.67-13.29-1.04-5.12-1.57-10.41-1.57-15.72v-112.28h-32.27v9.92h2.03c5.55,0,10.06,4.51,10.06,10.06v87.9c0,19.98,4.32,34.75,12.85,43.89,8.57,9.18,22.78,13.83,42.23,13.83,9.99,0,18.69-1.53,25.85-4.56,7.14-3.02,13.16-6.85,17.91-11.4,4.74-4.54,8.53-9.56,11.25-14.9.68-1.33,1.31-2.65,1.88-3.95v12.48c0,5.55-4.52,10.06-10.06,10.06h-2.03v9.92h44.36v-9.92h-2.03c-5.55,0-10.06-4.51-10.06-10.06v-42.95c11.42-18.65,24.02-36.8,37.6-54.02,11.65-13.87,23.85-23.07,30.56-23.07.11,0,.22,0,.33,0,5.91.27,8.67,3.14,8.78,3.27.91.98,1.59,2.17,2.04,3.52,2.82,8.49-1.58,18.68-5.12,26.86-.65,1.51-1.27,2.94-1.82,4.31-4.24,10.49-8.84,21-13.67,31.25-5.86,12.43-11.93,25.01-17.8,37.18-3.07,6.37-6.15,12.74-9.21,19.12l-1.14,2.37c-1.65,3.42-3.94,7.73-5.45,11.27h24.74c13.39-24.08,47.61-83.51,73.18-111.91,6.4-7.11,11.97-12.4,17.51-16.64,4.5-3.44,9.92-7.12,16.05-8.24,4.84-.89,11.19.48,14.48,5.56,4.67,7.21.32,17.44-2.02,22.94-11.74,27.57-47.03,101.82-50.12,108.31l26.02-.05c1.65-2.95,25.4-45.4,39.54-68.73,17.24-28.43,48.66-68.32,68.31-68.32,1.14,0,2.25.13,3.3.42,4.03,1.07,7.12,3.29,8.47,6.1,3.36,7.01-.46,17.95-1.91,21.25-8.98,20.43-28.72,61.14-34,85.39-1.21,5.55-2.53,14.24,2.37,20.44.6.76,3.22,3.87,7.6,5.23,10.42,3.24,22.37-6.79,38.91-20.67,5.32-4.46,12.49-10.83,16.33-14.33,1.94,10.48,6.91,18.82,14.79,24.77,10.28,7.76,24.49,11.69,42.26,11.69s33.01-3.69,45.57-10.97c9.77-5.66,17.31-13.03,22.45-21.93v10.58c0,5.55-4.51,10.06-10.06,10.06h-2.03v9.92h44.36v-9.92h-2.03Zm-67.57-3.85c-7.37,2.55-15.14,3.85-23.08,3.85s-15.15-.9-20.78-2.69c-5.58-1.77-10.17-4.2-13.65-7.22-3.45-2.99-6.02-6.61-7.65-10.78-1.66-4.25-2.5-8.84-2.5-13.63,0-10.37,3.08-18.98,9.14-25.59,6.2-6.77,14.38-12.17,24.3-16.04,10.07-3.93,21.64-6.75,34.4-8.38,12.21-1.56,24.71-2.39,37.14-2.47v36.95c0,7.05-1.64,13.68-4.89,19.7-3.29,6.1-7.7,11.41-13.12,15.8-5.46,4.43-11.96,7.96-19.32,10.51Z"/>
    <path class="cls-1" d="m250.68,686.65v-194.19l-32.27,11.07v7.78h2.03c5.55,0,10.06,4.51,10.06,10.06v165.27c0,5.55-4.51,10.06-10.06,10.06h-2.03v9.92h44.36v-9.92h-2.03c-5.55,0-10.06-4.51-10.06-10.06Z"/>
  </g>
</svg>