<?xml version="1.0" encoding="utf-8"?>
<!-- Generator: Adobe Illustrator 26.0.3, SVG Export Plug-In . SVG Version: 6.00 Build 0)  -->
<svg version="1.1" id="Layer_1" xmlns="http://www.w3.org/2000/svg" xmlns:xlink="http://www.w3.org/1999/xlink" x="0px" y="0px"
	 viewBox="0 0 4251.97 882.06" style="enable-background:new 0 0 4251.97 882.06;" xml:space="preserve">
<style type="text/css">
	.st0{display:none;stroke:#000000;stroke-width:11;stroke-miterlimit:10;}
	.st1{display:none;}
	.st2{fill:none;stroke:#000000;stroke-width:20;stroke-miterlimit:10;}
	.st3{fill:none;stroke:#000000;stroke-width:18;stroke-miterlimit:10;}
	.st4{fill:#FFFFFF;}
</style>
<g>
	<path class="st4" d="M411.81,846.41c-63.66,0-127.32,0.01-190.99,0c-12.82,0-25.62-0.9-38.12-3.66
		c-45.73-10.08-77.16-36.7-92.76-81.24c-3.93-11.21-6.07-22.83-7.56-34.57c-1.85-14.58-3.64-29.17-5.41-43.76
		c-0.92-7.61-1.7-15.24-2.62-22.86c-0.92-7.61-1.93-15.21-2.89-22.82c-0.84-6.66-1.7-13.31-2.48-19.98
		c-2.15-18.41-4.24-36.82-6.4-55.23c-1.89-16.18-3.84-32.36-5.75-48.54c-1.91-16.18-3.77-32.37-5.71-48.55
		c-1.63-13.64-3.41-27.27-4.99-40.91c-1.58-13.65-2.96-27.32-4.51-40.97c-0.93-8.25-2.04-16.49-3.02-24.74
		c-0.79-6.66-1.56-13.33-2.27-20c-0.85-7.94-1.62-15.89-2.46-23.84c-0.91-8.58-2.01-17.14-2.72-25.74
		c-0.47-5.72-0.64-11.5-0.5-17.24c0.09-3.48,0.8-6.99,1.63-10.38c1.55-6.29,5.39-10.78,11.46-13.22c4.77-1.92,9.69-3.3,14.84-3.54
		c11.18-0.51,22.37-1.14,33.56-1.24c23.03-0.22,46.07-0.12,69.1-0.16c1.92,0,3.84,0.01,5.76-0.01c6.25-0.06,7.34-0.11,7.24-6.85
		c-0.05-3.58,1.1-6.93,1.88-10.35c15.45-67.39,58.93-126.82,120.56-160.95c22.26-12.33,45.95-20.72,70.9-25.49
		c8.15-1.56,16.44-2.26,24.72-3.03c7.99-0.74,15.96-1.11,23.96-0.74c48.56,2.25,92.74,17.27,131.75,46.39
		c47.35,35.35,78.09,81.99,92.85,139.15c1.6,6.18,2.76,12.47,4.13,18.7c0.36,1.63,1.71,2.91,3.31,2.98
		c2.87,0.12,5.75,0.18,8.63,0.19c25.59,0.05,51.19,0.11,76.78,0.09c9.92-0.01,19.82,0.46,29.72,1.12c4.21,0.28,8.24,1.29,12.14,2.62
		c8.67,2.96,13.68,9.23,14.84,18.28c0.57,4.42,0.7,8.93,0.57,13.39c-0.2,7.02-0.69,14.03-1.74,21.01
		c-1.19,7.89-1.78,15.88-2.65,23.82c-0.83,7.62-1.66,15.25-2.53,22.87c-1.08,9.52-2.18,19.05-3.3,28.56
		c-0.97,8.25-1.98,16.5-2.96,24.75c-0.75,6.35-1.53,12.69-2.23,19.04c-1.51,13.66-2.95,27.32-4.49,40.97
		c-0.9,7.94-1.95,15.85-2.91,23.78c-0.77,6.34-1.54,12.69-2.25,19.04c-1.53,13.65-2.95,27.32-4.54,40.97
		c-1.56,13.33-3.34,26.63-4.92,39.96c-1.58,13.33-3.01,26.67-4.57,40c-0.89,7.62-1.94,15.21-2.9,22.82
		c-0.8,6.34-1.6,12.68-2.34,19.03c-1.49,12.69-2.71,25.42-4.48,38.08c-1.82,12.97-2.85,26.04-5.29,38.93
		c-2.46,12.95-6.43,25.39-12.44,37.12c-15.21,29.68-39.04,49.29-70.62,59.55c-10.34,3.36-20.99,5.31-31.87,6.32
		c-14.06,1.3-28.13,1.03-42.19,1.06C523.77,846.47,467.79,846.41,411.81,846.41z M489.87,226.57c3.4,1.09,6.62,0.65,9.8,0.65
		c37.11,0.03,74.23,0.02,111.34,0.02c2.24,0,4.48-0.02,6.72-0.08c2.1-0.05,2.94-1,2.4-3.02c-1.32-4.93-2.55-9.9-4.21-14.72
		c-19.16-55.49-53.97-98.08-105.33-126.85c-27.18-15.22-56.55-23.47-87.52-25.85c-19.23-1.48-38.37,0.1-57.22,4.13
		c-21.69,4.63-42.31,12.31-61.5,23.51c-52.74,30.77-87.27,75.84-105.01,134.03c-3.09,10.15-4.5,20.43-4.49,31.13
		c0.15,167.89,0.11,335.77,0.11,503.66c0,2.24-0.01,4.48,0,6.72c0.01,1.28,0.01,2.56,0.06,3.84c0.12,3.12,0.92,4.08,3.72,4.53
		c2.21,0.36,4.41,0.78,6.62,1.07c7.6,0.99,15.13,2.52,22.84,2.51c22.08-0.03,44.15,0,66.23-0.03c2.55,0,5.13-0.08,7.65-0.42
		c7.28-0.97,14.54-2.09,21.81-3.16c2.97-0.44,4.02-1.47,4.1-4.22c0.09-3.2,0.08-6.39,0.08-9.59c0-80.27,0-160.53,0.01-240.8
		c0-3.2-0.01-6.4,0.08-9.59c0.08-2.95,1.17-4.07,4.03-4.15c2.56-0.08,5.12-0.07,7.68-0.07c18.56-0.01,37.11,0,55.67,0
		c32.96,0,65.91,0.01,98.87-0.01c2.87,0,5.75-0.05,8.61-0.32c0.78-0.07,1.67-0.89,2.17-1.61c0.52-0.75,0.73-1.77,0.88-2.7
		c1.29-8.21,2.7-16.4,3.75-24.64c0.96-7.61,1.75-15.25,2.22-22.9c1.56-25.63-0.09-51.12-4.08-76.47c-0.48-3.07-0.82-6.25-2.3-9.01
		c-3.47-0.96-6.68-0.58-9.85-0.58c-53.43-0.02-106.86,0-160.3,0c-2.56,0-5.12-0.03-7.68-0.11c-1.69-0.05-3.11-1.35-3.19-2.9
		c-0.11-2.23-0.2-4.47-0.2-6.7c-0.03-32.3-0.05-64.6-0.05-96.89c0-3.2,0-6.41,0.26-9.59c0.45-5.41,1.02-10.8,2.57-16.06
		c3.63-12.29,10.33-22.63,19.77-31.18c15-13.58,32.94-20.63,52.87-22.45c9.21-0.84,18.47-0.46,27.69,1.41
		c14.04,2.85,26.82,8.25,38.16,16.97c9.29,7.13,16.55,15.94,21.46,26.62C488.08,222.7,489.01,224.71,489.87,226.57z M408.91,227.24
		c17.59,0,35.18,0.01,52.77-0.02c1.9,0,3.82-0.17,5.7-0.45c0.35-0.05,0.92-1.07,0.8-1.47c-1.03-3.46-3.36-6.14-5.69-8.75
		c-11.83-13.3-26.96-20.13-44.41-22.03c-5.06-0.55-10.22-0.38-15.33-0.21c-13.46,0.43-25.63,4.9-36.71,12.39
		c-6.15,4.16-11.38,9.3-15.28,15.68c-0.49,0.8-0.91,1.71-1.06,2.61c-0.08,0.48,0.44,1.52,0.75,1.54c3.81,0.32,7.64,0.66,11.46,0.68
		C377.57,227.28,393.24,227.24,408.91,227.24z"/>
	<path class="st4" d="M2233.87,520.86c0-76.42,0-152.83,0-229.25c0-3.2,0.01-6.39,0.1-9.59c0.07-2.58,1.41-3.92,4.14-4.35
		c0.32-0.05,0.63-0.11,0.95-0.15c7.95-0.81,15.9-1.58,23.84-2.44c8.58-0.93,17.14-1.96,25.71-2.92c2.54-0.29,5.09-0.49,7.63-0.74
		c3.81-0.39,7.63-0.81,11.44-1.18c2.86-0.28,5.73-0.5,8.6-0.77c3.82-0.36,7.64-0.73,11.45-1.11c0.95-0.09,1.9-0.3,2.85-0.36
		c11.81-0.76,23.6-1.81,35.42-2.19c21.42-0.69,42.86-0.68,64.29-0.09c4.47,0.12,8.93,0.6,13.39,0.95c2.55,0.2,5.09,0.51,7.64,0.71
		c37.84,3.09,74.44,11.21,109.17,26.9c19.92,9,38.43,20.23,54.98,34.6c26.19,22.75,44.76,50.63,56.09,83.34
		c5.66,16.33,9.49,33.1,12.19,50.19c4.07,25.73,4.55,51.6,3.08,77.47c-1.66,29.13-6.85,57.69-16.75,85.28
		c-10.65,29.66-26.89,55.74-49.43,77.82c-14.03,13.75-29.89,25-47.16,34.3c-20.63,11.11-42.43,19.25-65.1,25.03
		c-14.24,3.62-28.66,6.31-43.26,8.19c-14.6,1.88-29.2,3.28-43.92,3.8c-13.11,0.46-26.2,1.3-39.32,0.92
		c-16.31-0.48-32.64-0.63-48.91-1.65c-11.15-0.7-22.32-1.4-33.44-2.82c-7.6-0.97-15.26-1.46-22.87-2.47
		c-8.86-1.17-17.74-2.26-26.61-3.36c-2.54-0.31-5.11-0.4-7.63-0.8c-2.19-0.34-4.35-0.96-6.51-1.48c-1.06-0.25-1.53-1.16-1.77-2.05
		c-0.24-0.91-0.23-1.9-0.24-2.86c-0.03-3.2-0.04-6.39-0.04-9.59C2233.87,672.41,2233.87,596.64,2233.87,520.86z M2394.72,402.36
		c-0.3,0.78-0.86,1.64-0.93,2.53c-0.18,2.55-0.19,5.11-0.19,7.66c-0.01,72.24-0.01,144.48,0,216.73c0,2.56,0.07,5.11,0.15,7.67
		c0.04,1.39,0.96,2.46,2.17,2.7c7.55,1.51,15.15,2.32,22.86,2.1c3.52-0.1,7.04,0.04,10.55-0.09c11.87-0.44,23.55-2.29,34.8-6.1
		c23.03-7.79,39.75-22.62,49.2-45.21c1.96-4.7,3.65-9.54,5.12-14.42c5.01-16.65,6.48-33.84,7.31-51.09
		c0.64-13.44-0.08-26.86-1.84-40.18c-1.59-12.06-4.39-23.85-9.26-35.08c-9.44-21.74-25.42-36.39-47.77-44.16
		c-10.02-3.48-20.32-5.53-30.96-5.67C2422.18,399.56,2408.42,399.11,2394.72,402.36z"/>
	<path class="st4" d="M2769.31,761.94c-0.18-1.5-0.44-2.75-0.46-4.01c-0.07-3.2-0.06-6.39-0.06-9.59c0-151.88,0-303.76,0.01-455.65
		c0-3.83,0.1-7.67,0.22-11.5c0.05-1.51,1.49-3.01,3.03-3.3c1.25-0.24,2.52-0.43,3.79-0.58c4.12-0.51,8.24-1.05,12.37-1.49
		c7.94-0.86,15.89-1.66,23.84-2.49c3.5-0.37,6.99-0.74,10.49-1.11c2.54-0.26,5.09-0.51,7.63-0.76c4.77-0.46,9.54-0.94,14.32-1.36
		c2.87-0.25,5.74-0.39,8.61-0.61c4.46-0.35,8.92-0.72,13.38-1.11c1.27-0.11,2.54-0.38,3.81-0.41c16-0.27,31.9-2.39,47.91-2.35
		c19.19,0.05,38.39-0.01,57.58,0.02c6.08,0.01,12.15,0.29,18.17,1.25c2.52,0.4,5.1,0.38,7.65,0.64c30.02,2.98,59.34,8.9,87.12,21.09
		c18.92,8.3,35.93,19.44,50.51,34.2c17.99,18.2,29.71,39.82,35.61,64.65c2.52,10.6,4.03,21.34,4.22,32.25
		c0.24,13.76,0.26,27.48-2.12,41.11c-4.3,24.62-13.21,47.3-28.16,67.45c-4.01,5.41-8.56,10.34-13.61,14.81
		c-4.31,3.81-8.56,7.7-12.81,11.58c-1.38,1.26-1.65,2.7-0.85,4.31c1.43,2.86,2.9,5.69,4.38,8.52
		c31.99,61.15,63.99,122.29,95.97,183.44c1.48,2.83,2.87,5.7,4.26,8.57c0.6,1.23-0.14,2.47-1.59,2.79
		c-2.18,0.48-4.35,1.08-6.56,1.39c-6.64,0.94-13.3,1.78-19.95,2.61c-2.85,0.36-5.72,0.59-8.58,0.91c-1.59,0.18-3.17,0.55-4.76,0.6
		c-18.86,0.62-37.67,2.56-56.57,1.75c-11.82-0.51-23.68-0.69-35.46-1.66c-13.68-1.13-27.4-2.24-40.82-5.43
		c-0.92-0.22-1.8-0.61-3.06-1.04c-1.33-2.65-2.82-5.46-4.18-8.33c-19.44-41.33-38.86-82.68-58.3-124.02
		c-12.92-27.46-25.87-54.91-38.78-82.37c-0.95-2.01-1.8-4.07-2.54-6.16c-0.16-0.45,0.18-1.36,0.58-1.69c1.23-1,2.56-1.89,3.92-2.7
		c5.5-3.26,11.1-6.34,16.52-9.73c8.15-5.09,15.81-10.85,22.74-17.55c14.88-14.36,23-31.94,25.32-52.38
		c0.8-7.04,0.8-14.01-0.16-21.03c-1.29-9.4-4.75-17.87-10.5-25.38c-4.35-5.68-9.74-10.13-16.33-13.02
		c-5.87-2.57-11.98-4.19-18.36-5.16c-12.81-1.96-25.53-0.92-38.28,0.29c-2.11,0.2-3.28,1.52-3.34,3.85
		c-0.08,3.2-0.09,6.39-0.09,9.59c0,114.15,0,228.3,0,342.45c0,3.2,0.02,6.4-0.03,9.59c-0.06,4.28-0.31,5.41-5.49,6.2
		c-11.68,1.78-23.34,3.55-35.13,4.73c-18.85,1.88-37.7,1.62-56.56,1.4c-5.74-0.07-11.48-0.76-17.22-1.16
		c-7.65-0.54-15.29-1.19-22.86-2.51c-5.35-0.93-10.74-1.59-16.08-2.56C2772.13,763.53,2770.76,762.59,2769.31,761.94z"/>
	<path class="st4" d="M3485.91,775.49c-11.26-0.59-22.49-0.71-33.61-1.84c-26.5-2.68-52.33-8.3-76.91-18.92
		c-26.47-11.43-49.89-27.2-69.48-48.47c-17.52-19.03-30.9-40.67-40.67-64.57c-7.16-17.5-12.3-35.58-15.71-54.19
		c-3.59-19.55-5.68-39.21-5.63-59.09c0.02-8.95-0.14-17.92,0.34-26.86c1.96-36.31,8.64-71.64,22.97-105.26
		c10.51-24.65,24.82-46.82,43.58-66.06c20.41-20.94,44.55-36.24,71.57-47.1c16.35-6.56,33.31-10.87,50.69-13.88
		c18.69-3.24,37.49-4.02,56.37-3.89c6.4,0.05,12.8,0.12,19.19,0.36c3.83,0.15,7.65,0.57,11.46,1.01c6.98,0.8,13.97,1.46,20.92,2.64
		c39.52,6.69,75.43,21.44,106.55,47.06c22.84,18.8,40.21,41.9,53.28,68.31c9.83,19.87,16.59,40.79,21.24,62.43
		c6.61,30.82,8.74,62.03,7.24,93.44c-1.37,28.5-5.8,56.54-14.8,83.75c-7.37,22.31-17.47,43.22-31.14,62.36
		c-22.94,32.12-53.14,54.98-89.58,69.74c-16.32,6.61-33.27,11.01-50.64,14.08C3524.14,773.89,3504.99,774.48,3485.91,775.49z
		 M3568.05,519.87c-0.34-5.83-0.86-13.8-1.27-21.77c-0.67-12.81-2.86-25.38-6.27-37.7c-3.42-12.37-8.36-24.11-16.03-34.55
		c-7.77-10.57-17.67-18.3-30.11-22.73c-10.37-3.69-21.07-5.05-32-4.72c-3.5,0.1-6.98,0.78-10.46,1.27
		c-16.15,2.27-29.65,9.41-40.26,21.88c-4.58,5.39-8.15,11.41-11.24,17.75c-5.5,11.29-8.89,23.25-11.05,35.53
		c-2.6,14.79-3.86,29.74-3.97,44.79c-0.07,10.87,0.53,21.69,1.57,32.51c1.29,13.4,3.76,26.53,8.03,39.29
		c3.46,10.34,8.15,20.09,14.83,28.81c6.34,8.29,14.26,14.61,23.74,18.89c8.21,3.72,16.94,5.7,25.91,6.23
		c7.97,0.47,15.89,0.1,23.83-1.44c15-2.9,27.52-9.82,37.57-21.27c5.1-5.8,9.03-12.35,12.34-19.3c5.67-11.91,9.1-24.51,11.29-37.45
		C3566.98,551.38,3567.66,536.71,3568.05,519.87z"/>
	<path class="st4" d="M1218.34,742.08c-1.87,1.82-4.05,2.34-6.18,2.92c-18.48,5.04-37.08,9.6-55.81,13.63
		c-10.92,2.35-21.83,4.79-32.82,6.82c-10.67,1.97-21.43,3.46-32.2,4.91c-10.48,1.41-21.04,1.58-31.52,2.86
		c-4.43,0.54-8.94,0.61-13.41,0.65c-12.8,0.1-25.6,0.11-38.39,0.07c-7.04-0.02-14.07-0.21-21.06-1.29c-2.21-0.34-4.46-0.32-6.7-0.52
		c-25.86-2.3-51.28-6.73-75.82-15.45c-12.69-4.51-24.82-10.21-36.17-17.48c-31.02-19.87-51.08-47.75-60.46-83.31
		c-3.68-13.96-5.66-28.19-5.8-42.64c-0.08-7.35-0.19-14.72,0.2-22.06c0.76-14.11,3.43-27.89,8.31-41.19
		c6.04-16.48,15.91-30.55,27.83-43.26c9.69-10.34,20.75-18.98,32.96-26.14c18.04-10.57,37.28-18.19,57.6-23.03
		c11.5-2.74,23.14-4.65,34.87-6.21c17.47-2.32,34.96-3.69,52.59-3.51c15.36,0.15,30.72,0.04,46.07,0.02c2.56,0,5.11-0.14,7.67-0.23
		c0.72-0.03,1.69-1.28,1.65-2.03c-1-16.51-8.88-29.04-22.34-38.26c-8.29-5.69-17.63-9.01-27.33-11.19
		c-11.24-2.52-22.65-4.02-34.21-4.05c-6.4-0.02-12.8-0.12-19.19,0.09c-4.78,0.16-9.56,0.64-14.32,1.19
		c-6.03,0.69-12.06,1.3-18.08,2.17c-17.75,2.56-35.16,6.46-52.29,11.69c-5.8,1.77-11.55,3.69-17.33,5.53
		c-1.34,0.43-2.64-0.04-3.36-1.14c-0.18-0.27-0.41-0.5-0.55-0.78c-7.95-15.3-16.27-30.45-21.05-47.17c-3.88-13.57-6.24-27.4-7-41.5
		c-0.31-5.75-0.5-11.5-0.69-17.25c-0.07-2.23-0.11-4.48,0.05-6.71c0.12-1.61,0.71-3.09,2.5-3.69c1.51-0.51,2.97-1.18,4.5-1.65
		c20.15-6.17,40.43-11.77,61.08-16.07c12.83-2.68,25.75-4.77,38.66-6.86c7.87-1.27,15.9-1.6,23.81-2.64
		c20.08-2.64,40.23-1.95,60.38-1.67c5.12,0.07,10.2,0.61,15.29,1.19c6.99,0.8,13.98,1.5,20.91,2.69
		c22.45,3.84,44.21,9.88,64.65,20.19c33.51,16.9,58.12,42.32,73.75,76.46c7.37,16.09,12.3,32.86,15.26,50.27
		c2.8,16.43,4.01,32.98,3.95,49.64c-0.09,23.34-0.02,46.69-0.02,70.03c0,65.24,0.01,130.48-0.02,195.71
		C1218.78,735.31,1219.19,738.84,1218.34,742.08z M1071.97,650.32c0.14-1.71,0.33-2.97,0.33-4.23c0.02-30.63,0.02-61.26,0.01-91.89
		c0-0.96-0.06-1.91-0.13-2.87c-0.12-1.74-1.33-3.1-2.93-3.19c-1.91-0.11-3.82-0.2-5.73-0.2c-10.54-0.02-21.07,0.04-31.61-0.02
		c-9.9-0.06-19.76,0.2-29.63,1.34c-13.17,1.53-25.54,5.3-37.02,11.93c-4.16,2.4-8.05,5.19-11.44,8.61
		c-6.47,6.53-10.55,14.21-12.1,23.37c-1.08,6.41-0.73,12.67,0.12,19.03c1.23,9.23,5.17,16.99,11.69,23.53
		c4.31,4.33,9.11,8.03,14.69,10.55c4.06,1.83,8.2,3.49,12.42,4.92c10.58,3.59,24.72,4.78,37.73,5.65
		c11.86,0.79,23.54-1.44,35.29-2.42c3.17-0.26,6.3-0.93,9.47-1.33C1066.01,652.74,1068.76,652.02,1071.97,650.32z"/>
	<path class="st4" d="M3966.63,762.13c-1.64,0.6-3.37,1.6-5.2,1.86c-11.69,1.66-23.34,3.53-35.12,4.71
		c-20.13,2.02-40.25,1.75-60.37,1.13c-10.19-0.31-20.4-1.26-30.5-3.04c-5.66-1-11.37-1.64-17.04-2.56c-1.87-0.3-3.74-0.83-5.49-1.55
		c-0.74-0.3-1.36-1.29-1.68-2.11c-0.33-0.86-0.3-1.88-0.32-2.83c-0.04-2.88-0.04-5.75-0.04-8.63c0-152.46,0-304.92,0.01-457.37
		c0-3.51,0.07-7.03,0.17-10.54c0.04-1.36,1.61-3,3.03-3.34c0.62-0.15,1.24-0.36,1.87-0.42c12.08-1.2,24.02-3.47,36.13-4.45
		c8.91-0.73,17.77-2.02,26.66-3c2.54-0.28,5.1-0.32,7.65-0.52c4.46-0.35,8.92-0.73,13.38-1.11c1.27-0.11,2.54-0.37,3.81-0.39
		c16.63-0.25,33.17-2.4,49.81-2.35c19.51,0.06,39.01-0.06,58.52,0.08c5.1,0.04,10.19,0.72,15.29,1.13c1.27,0.1,2.54,0.33,3.81,0.41
		c14.05,0.9,27.89,3.25,41.71,5.81c12.59,2.33,24.88,5.69,36.86,10.13c12.91,4.78,25.14,10.96,36.86,18.2
		c31.83,19.68,59.28,55.3,68.84,96.72c3.6,15.61,5.83,31.4,5.97,47.44c0.09,9.91,0.27,19.83-0.24,29.71
		c-0.97,18.89-4.01,37.5-10.53,55.33c-12.92,35.31-34.73,63.68-66.48,84.23c-19.52,12.63-40.72,21.21-63.26,26.53
		c-9.31,2.2-18.72,4.21-28.19,5.43c-9.17,1.17-18.34,2.71-27.66,2.59c-13.43-0.16-26.86,0.03-40.28-0.2
		c-4.77-0.08-9.52-0.94-14.29-1.44c-1.31-0.14-2.62,0.8-2.66,2.04c-0.12,3.19-0.26,6.38-0.26,9.57
		c-0.02,30.68,0.01,61.37-0.04,92.05C3967.36,754.88,3967.87,758.42,3966.63,762.13z M3968.39,388.64c-0.3,0.94-0.78,1.81-0.84,2.71
		c-0.15,2.22-0.15,4.46-0.15,6.69c-0.01,39.89-0.02,79.78,0,119.66c0.01,11.73-0.78,10.35,9.92,11.21c1.27,0.1,2.55,0.22,3.81,0.37
		c12.21,1.49,24.23-0.02,36.06-2.86c9.69-2.33,18.57-6.61,26.56-12.71c5.16-3.94,9.28-8.72,12.5-14.32
		c2.56-4.45,4.45-9.17,5.75-14.12c4.04-15.36,4.83-30.86,1.57-46.43c-2.33-11.14-7.13-21.13-15.11-29.4
		c-11.01-11.4-24.53-18.24-40.02-20.9c-9.76-1.68-19.7-1.92-29.6-1.4C3975.35,387.33,3971.84,387.52,3968.39,388.64z"/>
	<path class="st4" d="M1453.83,775.5c-15.86-0.67-29-0.82-42.06-1.93c-8.89-0.75-17.8-1.7-26.68-2.92
		c-14.58-2-28.99-4.74-43.25-8.27c-16.74-4.14-33.18-9.31-49.4-15.2c-2.39-0.87-3.24-2.36-3.15-4.19c0.22-4.47,0.36-8.96,0.98-13.39
		c2.15-15.51,4.95-30.9,8.94-46.06c5.61-21.37,13.04-42.08,21.9-62.3c0.51-1.17,1.09-2.31,1.67-3.45c0.43-0.84,2.41-1.53,3.4-1.16
		c1.49,0.56,2.97,1.16,4.43,1.79c11.45,4.93,23.11,9.27,35.09,12.72c13.51,3.89,27.2,6.87,41.13,8.95
		c17.13,2.55,34.29,3.77,51.6,3.62c9.31-0.08,18.55-0.81,27.71-2.19c8.9-1.34,17.37-4.19,24.75-9.66c4.28-3.18,7.16-7.22,8.24-12.5
		c1.54-7.54-0.48-13.91-6.2-19.04c-2.4-2.15-5.25-3.6-8.17-4.95c-8.42-3.91-17.09-7.09-26.03-9.58
		c-20.29-5.66-40.55-11.42-60.85-17.05c-17.63-4.89-34.5-11.55-50.24-20.95c-12.14-7.25-23.22-15.84-33.33-25.73
		c-15.51-15.19-25.37-33.55-30.63-54.44c-4.65-18.47-5.8-37.34-3.85-56.2c4.61-44.49,25.6-79.69,61.71-105.99
		c17.22-12.54,36.27-21.41,56.43-27.98c13.69-4.46,27.74-7.58,41.99-9.47c11.08-1.47,22.21-2.77,33.45-2.55
		c11.19,0.22,22.39,0.16,33.59,0.36c3.51,0.06,7.01,0.56,10.51,0.9c1.59,0.15,3.17,0.49,4.76,0.59c9.91,0.58,19.66,2.29,29.46,3.73
		c16.77,2.46,33.29,6.04,49.72,10.09c13.33,3.29,26.48,7.21,39.51,11.51c1.2,0.4,2.42,0.89,3.43,1.62c0.69,0.5,1.44,1.48,1.45,2.25
		c0.02,3.19-0.01,6.41-0.41,9.57c-1.99,15.55-4.96,30.91-9.26,45.99c-5.61,19.68-12.3,38.98-20.77,57.63
		c-0.79,1.75-1.57,3.5-2.4,5.22c-2.3,4.73-3.13,5.1-8.15,3.18c-22.43-8.57-45.55-14.76-69.01-19.61
		c-11.56-2.39-23.24-4.41-35.11-4.72c-2.55-0.07-5.11-0.38-7.65-0.68c-9.96-1.17-19.84-0.05-29.64,1.36
		c-5.34,0.77-10.53,2.56-15.19,5.59c-5.82,3.79-8.8,9.23-9.2,15.98c-0.34,5.77,1.91,10.69,6.51,14.24c2.25,1.74,4.86,3.06,7.41,4.38
		c8.56,4.44,17.77,7.06,27.05,9.48c19.45,5.07,38.92,10.1,58.33,15.33c16.37,4.41,32.28,10.15,47.6,17.43
		c13.68,6.49,26.11,14.79,36.95,25.45c16.4,16.13,26.94,35.61,32.49,57.75c4.85,19.37,5.95,39.09,4.43,59.02
		c-1.35,17.73-5.65,34.64-12.88,50.83c-10.54,23.59-26.61,42.75-47.17,58.25c-15.42,11.62-32.34,20.51-50.3,27.52
		c-17.61,6.87-35.71,11.84-54.4,14.81c-12.33,1.96-24.66,3.52-37.16,3.89C1468.98,774.6,1460.04,775.19,1453.83,775.5z"/>
	<path class="st4" d="M2020.36,761.39c-2.17,2.05-4.73,2.37-7.23,2.71c-9.5,1.28-18.98,2.64-28.5,3.71
		c-21.97,2.48-44.03,3.3-66.08,1.92c-9.54-0.59-19.13-1.25-28.61-2.86c-6.61-1.12-13.3-1.72-19.95-2.56
		c-1.58-0.2-3.19-0.35-4.73-0.71c-4.15-0.99-4.6-1.88-4.68-5.94c-0.06-3.2-0.04-6.39-0.04-9.59c0-108.37,0-216.74-0.01-325.11
		c0-3.51-0.15-7.02-0.28-10.53c-0.05-1.24-1.27-2.55-2.39-2.59c-3.19-0.11-6.39-0.23-9.58-0.23c-38.7-0.02-77.4-0.01-116.1-0.02
		c-2.88,0-5.75-0.04-8.62-0.2c-1.38-0.08-2.35-1.07-2.73-2.33c-0.63-2.14-1.05-4.33-1.57-6.5c-3.05-12.79-4.57-25.82-5.02-38.91
		c-0.43-12.45-0.41-24.94-0.04-37.39c0.44-14.72,2.67-29.25,6.03-43.6c0.14-0.61,0.32-1.3,0.71-1.76c0.58-0.7,1.27-1.44,2.08-1.79
		c0.84-0.37,1.86-0.41,2.81-0.43c2.88-0.06,5.76-0.05,8.64-0.05c137.53,0,275.07,0,412.6,0c3.2,0,6.4,0.02,9.59,0.11
		c2.29,0.07,3.71,1.17,4.18,3.2c3.08,13.08,5.29,26.31,6,39.74c0.83,15.65,0.83,31.32-0.05,46.97c-0.76,13.42-2.84,26.67-5.98,39.75
		c-0.48,2.01-1.9,3.06-4.23,3.12c-2.88,0.07-5.76,0.08-8.63,0.08c-38.06,0-76.12-0.05-114.19,0.03
		c-14.62,0.03-12.95-1.84-12.95,12.51c-0.04,109.33-0.02,218.66-0.04,327.99C2020.76,753.95,2021.1,757.79,2020.36,761.39z"/>
</g>
</svg>
