<svg width="1835" height="2297" viewBox="0 0 1835 2297" fill="none" xmlns="http://www.w3.org/2000/svg">
<g clip-path="url(#clip0_5370_1263)">
<path d="M123.344 1870.05C99.9304 1870.05 78.9225 1865.07 60.3202 1855.12C41.7178 1845.18 27.1246 1830.9 16.5405 1812.29C6.27712 1793.68 1.14543 1771.69 1.14543 1746.34C1.14543 1720.99 6.43748 1699.17 17.0216 1680.88C27.9264 1662.27 42.68 1647.99 61.2824 1638.05C80.2055 1627.78 101.213 1622.64 124.306 1622.64C148.04 1622.64 169.208 1627.78 187.811 1638.05C206.734 1647.99 221.648 1662.27 232.552 1680.88C243.457 1699.17 248.91 1720.83 248.91 1745.86C248.91 1771.53 243.297 1793.68 232.071 1812.29C221.166 1830.9 206.092 1845.18 186.848 1855.12C167.925 1865.07 146.757 1870.05 123.344 1870.05ZM123.344 1806.51C131.683 1806.51 139.701 1804.26 147.398 1799.77C155.096 1795.28 161.19 1788.7 165.68 1780.04C170.491 1771.05 172.897 1759.82 172.897 1746.34C172.897 1732.87 170.491 1721.8 165.68 1713.13C161.19 1704.15 155.256 1697.41 147.88 1692.92C140.503 1688.42 132.645 1686.18 124.306 1686.18C115.325 1686.18 107.307 1688.42 100.251 1692.92C93.1951 1697.41 87.4219 1704.15 82.9317 1713.13C78.7622 1721.8 76.6774 1732.87 76.6774 1746.34C76.6774 1759.82 78.7622 1771.05 82.9317 1780.04C87.1012 1788.7 92.714 1795.28 99.77 1799.77C106.826 1804.26 114.684 1806.51 123.344 1806.51Z" fill="white"/>
<path d="M286.461 1626.01H350.447L355.258 1657.78C361.352 1649.44 368.568 1642.54 376.907 1637.08C385.567 1631.31 395.029 1627.46 405.292 1625.53C415.876 1623.61 427.422 1623.77 439.931 1626.01V1692.44C431.592 1689.55 422.611 1688.75 412.99 1690.03C403.368 1690.99 394.227 1694.2 385.567 1699.66C376.907 1704.79 369.851 1712.49 364.399 1722.76C359.267 1733.03 356.701 1746.02 356.701 1761.75V1866.68H286.461V1626.01Z" fill="white"/>
<path d="M642.269 1663.07L632.647 1663.56V1520.12H702.887V1866.68H639.383L635.053 1836.35C628.638 1845.66 619.177 1853.68 606.668 1860.42C594.16 1866.84 580.208 1870.05 564.813 1870.05C544.607 1870.05 526.486 1865.07 510.449 1855.12C494.733 1844.86 482.385 1830.42 473.405 1811.81C464.424 1793.19 459.934 1771.37 459.934 1746.34C459.934 1720.99 464.424 1699.17 473.405 1680.88C482.385 1662.27 494.733 1647.99 510.449 1638.05C526.165 1627.78 544.286 1622.64 564.813 1622.64C583.094 1622.64 598.81 1626.65 611.96 1634.68C625.11 1642.38 635.213 1651.84 642.269 1663.07ZM535.466 1746.34C535.466 1763.99 539.956 1778.27 548.937 1789.18C557.917 1799.77 569.624 1805.07 584.057 1805.07C592.716 1805.07 600.735 1802.82 608.111 1798.33C615.488 1793.84 621.422 1787.26 625.912 1778.59C630.402 1769.93 632.647 1759.18 632.647 1746.34C632.647 1733.51 630.402 1722.76 625.912 1714.1C621.422 1705.43 615.488 1698.85 608.111 1694.36C600.735 1689.55 592.716 1687.14 584.057 1687.14C569.303 1687.14 557.436 1692.6 548.456 1703.51C539.796 1714.42 535.466 1728.7 535.466 1746.34Z" fill="white"/>
<path d="M862.972 1870.05C838.276 1870.05 816.787 1864.91 798.505 1854.64C780.223 1844.05 765.951 1829.29 755.688 1810.36C745.745 1791.43 740.774 1769.29 740.774 1743.94C740.774 1720.51 745.745 1699.66 755.688 1681.36C765.63 1663.07 779.582 1648.79 797.543 1638.53C815.504 1627.94 835.87 1622.64 858.642 1622.64C882.697 1622.64 903.544 1627.62 921.184 1637.56C938.825 1647.19 952.616 1660.99 962.559 1678.96C972.501 1696.93 977.473 1717.79 977.473 1741.53C977.473 1745.38 977.312 1749.39 976.991 1753.56C976.671 1757.74 976.19 1762.39 975.548 1767.52H815.824C817.428 1776.19 820.475 1783.73 824.965 1790.15C829.455 1796.24 835.068 1801.06 841.804 1804.59C848.86 1807.79 856.878 1809.4 865.858 1809.4C875.801 1809.4 884.781 1807.31 892.8 1803.14C900.818 1798.97 906.752 1793.03 910.6 1785.33L973.624 1802.66C964.002 1824.16 949.569 1840.85 930.325 1852.72C911.081 1864.27 888.63 1870.05 862.972 1870.05ZM900.978 1721.8C900.658 1713.77 898.573 1706.71 894.724 1700.62C890.875 1694.52 885.904 1689.71 879.81 1686.18C873.716 1682.65 866.981 1681.04 859.604 1681.36C852.227 1681.69 845.492 1683.61 839.398 1687.14C833.625 1690.35 828.654 1695 824.484 1701.1C820.315 1706.88 817.749 1713.77 816.787 1721.8H900.978Z" fill="white"/>
<path d="M1015.28 1626.01H1079.27L1084.08 1657.78C1090.17 1649.44 1097.39 1642.54 1105.73 1637.08C1114.39 1631.31 1123.85 1627.46 1134.11 1625.53C1144.7 1623.61 1156.24 1623.77 1168.75 1626.01V1692.44C1160.41 1689.55 1151.43 1688.75 1141.81 1690.03C1132.19 1690.99 1123.05 1694.2 1114.39 1699.66C1105.73 1704.79 1098.67 1712.49 1093.22 1722.76C1088.09 1733.03 1085.52 1746.02 1085.52 1761.75V1866.68H1015.28V1626.01Z" fill="white"/>
<path d="M1208.48 1626.01H1278.72V1866.68H1208.48V1626.01ZM1243.6 1601.46C1230.45 1601.46 1219.71 1597.61 1211.37 1589.91C1203.35 1581.89 1199.34 1572.26 1199.34 1561.03C1199.34 1549.48 1203.35 1539.85 1211.37 1532.15C1219.71 1524.13 1230.45 1520.12 1243.6 1520.12C1256.43 1520.12 1266.85 1524.13 1274.87 1532.15C1283.21 1539.85 1287.38 1549.48 1287.38 1561.03C1287.38 1572.26 1283.21 1581.89 1274.87 1589.91C1266.85 1597.61 1256.43 1601.46 1243.6 1601.46Z" fill="white"/>
<path d="M1335.95 1626.01H1399.45L1404.26 1652C1412.28 1643.34 1421.74 1636.28 1432.65 1630.83C1443.55 1625.37 1455.42 1622.64 1468.25 1622.64C1487.17 1622.64 1503.05 1626.65 1515.87 1634.68C1529.02 1642.7 1538.97 1654.41 1545.7 1669.81C1552.76 1685.22 1556.29 1703.99 1556.29 1726.13V1866.68H1486.05V1734.79C1486.05 1718.75 1482.68 1706.55 1475.94 1698.21C1469.53 1689.87 1459.75 1685.7 1446.6 1685.7C1433.13 1685.7 1423.02 1690.03 1416.29 1698.69C1409.55 1707.04 1406.19 1719.23 1406.19 1735.27V1866.68H1335.95V1626.01Z" fill="white"/>
<path d="M1771.08 1626.01H1834.59V1832.02C1834.59 1859.3 1827.85 1882.56 1814.38 1901.81C1800.91 1921.39 1781.51 1936.47 1756.17 1947.06C1730.83 1957.65 1699.88 1962.94 1663.32 1962.94L1653.22 1904.7C1689.46 1904.38 1717.04 1898.28 1735.96 1886.41C1754.89 1874.86 1764.35 1858.01 1764.35 1835.87V1834.91L1774.45 1829.13C1767.4 1840.04 1757.29 1849.67 1744.14 1858.01C1730.99 1866.04 1715.28 1870.05 1697 1870.05C1676.47 1870.05 1658.19 1865.07 1642.15 1855.12C1626.44 1844.86 1614.09 1830.42 1605.11 1811.81C1596.13 1793.19 1591.64 1771.37 1591.64 1746.34C1591.64 1720.99 1596.13 1699.17 1605.11 1680.88C1614.09 1662.27 1626.44 1647.99 1642.15 1638.05C1658.19 1627.78 1676.47 1622.64 1697 1622.64C1707.26 1622.64 1716.88 1624.25 1725.86 1627.46C1734.84 1630.34 1742.86 1634.35 1749.92 1639.49C1756.97 1644.3 1762.59 1649.92 1766.75 1656.34L1771.08 1626.01ZM1667.17 1746.34C1667.17 1763.99 1671.66 1778.27 1680.64 1789.18C1689.62 1800.09 1701.33 1805.55 1715.76 1805.55C1724.42 1805.55 1732.44 1803.14 1739.81 1798.33C1747.19 1793.51 1753.12 1786.78 1757.61 1778.11C1762.1 1769.13 1764.35 1758.54 1764.35 1746.34C1764.35 1733.51 1762.1 1722.76 1757.61 1714.1C1753.12 1705.43 1747.19 1698.85 1739.81 1694.36C1732.44 1689.87 1724.58 1687.62 1716.24 1687.62C1701.49 1687.62 1689.62 1693.08 1680.64 1703.99C1671.66 1714.58 1667.17 1728.7 1667.17 1746.34Z" fill="white"/>
<path d="M182.44 2090.01L172.818 2090.5V1947.06H243.058V2293.62H179.554L175.224 2263.29C168.809 2272.6 159.348 2280.62 146.839 2287.36C134.331 2293.78 120.379 2296.99 104.984 2296.99C84.7778 2296.99 66.6565 2292.01 50.62 2282.06C34.9042 2271.8 22.5561 2257.36 13.5757 2238.75C4.59521 2220.13 0.10498 2198.31 0.10498 2173.28C0.10498 2147.93 4.59521 2126.11 13.5757 2107.82C22.5561 2089.21 34.9042 2074.93 50.62 2064.98C66.3358 2054.72 84.4571 2049.58 104.984 2049.58C123.265 2049.58 138.981 2053.59 152.131 2061.62C165.281 2069.32 175.384 2078.78 182.44 2090.01ZM75.637 2173.28C75.637 2190.93 80.1272 2205.21 89.1077 2216.12C98.0881 2226.71 109.795 2232.01 124.228 2232.01C132.887 2232.01 140.906 2229.76 148.282 2225.27C155.659 2220.78 161.593 2214.2 166.083 2205.53C170.573 2196.87 172.818 2186.12 172.818 2173.28C172.818 2160.45 170.573 2149.7 166.083 2141.04C161.593 2132.37 155.659 2125.79 148.282 2121.3C140.906 2116.49 132.887 2114.08 124.228 2114.08C109.474 2114.08 97.607 2119.54 88.6266 2130.45C79.9669 2141.36 75.637 2155.64 75.637 2173.28Z" fill="white"/>
<path d="M300.669 2052.95H370.909V2293.62H300.669V2052.95ZM335.789 2028.4C322.639 2028.4 311.895 2024.55 303.556 2016.85C295.538 2008.83 291.529 1999.2 291.529 1987.97C291.529 1976.42 295.538 1966.79 303.556 1959.09C311.895 1951.07 322.639 1947.06 335.789 1947.06C348.619 1947.06 359.042 1951.07 367.061 1959.09C375.4 1966.79 379.569 1976.42 379.569 1987.97C379.569 1999.2 375.4 2008.83 367.061 2016.85C359.042 2024.55 348.619 2028.4 335.789 2028.4Z" fill="white"/>
<path d="M428.133 2052.95H492.119L496.93 2084.72C503.024 2076.38 510.24 2069.48 518.579 2064.02C527.239 2058.25 536.701 2054.4 546.964 2052.47C557.548 2050.54 569.094 2050.71 581.603 2052.95V2119.38C573.264 2116.49 564.283 2115.68 554.662 2116.97C545.04 2117.93 535.899 2121.14 527.239 2126.6C518.579 2131.73 511.523 2139.43 506.071 2149.7C500.939 2159.97 498.373 2172.96 498.373 2188.69V2293.62H428.133V2052.95Z" fill="white"/>
<path d="M723.804 2296.99C699.108 2296.99 677.619 2291.85 659.337 2281.58C641.056 2270.99 626.783 2256.23 616.52 2237.3C606.577 2218.37 601.606 2196.23 601.606 2170.88C601.606 2147.45 606.577 2126.6 616.52 2108.3C626.463 2090.01 640.414 2075.73 658.375 2065.47C676.336 2054.88 696.703 2049.58 719.474 2049.58C743.529 2049.58 764.377 2054.56 782.017 2064.5C799.657 2074.13 813.448 2087.93 823.391 2105.9C833.334 2123.87 838.305 2144.73 838.305 2168.47C838.305 2172.32 838.145 2176.33 837.824 2180.5C837.503 2184.68 837.022 2189.33 836.381 2194.46H676.657C678.261 2203.13 681.308 2210.67 685.798 2217.09C690.288 2223.18 695.901 2228 702.636 2231.53C709.692 2234.73 717.71 2236.34 726.691 2236.34C736.634 2236.34 745.614 2234.25 753.632 2230.08C761.65 2225.91 767.584 2219.97 771.433 2212.27L834.456 2229.6C824.834 2251.1 810.401 2267.79 791.158 2279.66C771.914 2291.21 749.463 2296.99 723.804 2296.99ZM761.811 2148.74C761.49 2140.71 759.405 2133.65 755.557 2127.56C751.708 2121.46 746.736 2116.65 740.643 2113.12C734.549 2109.59 727.813 2107.98 720.437 2108.3C713.06 2108.63 706.324 2110.55 700.231 2114.08C694.457 2117.29 689.486 2121.94 685.317 2128.04C681.147 2133.82 678.581 2140.71 677.619 2148.74H761.811Z" fill="white"/>
<path d="M984.363 2296.99C960.949 2297.31 940.262 2292.33 922.301 2282.06C904.34 2271.48 890.389 2257.04 880.446 2238.75C870.503 2220.13 865.532 2198.47 865.532 2173.77C865.532 2149.38 870.503 2127.88 880.446 2109.27C890.389 2090.33 904.34 2075.73 922.301 2065.47C940.262 2054.88 960.949 2049.58 984.363 2049.58C1010.98 2049.58 1034.24 2056.32 1054.12 2069.8C1074.33 2082.95 1088.44 2101.08 1096.46 2124.19L1030.07 2140.55C1026.86 2131.89 1021.57 2125.15 1014.19 2120.34C1006.81 2115.52 998.314 2113.12 988.693 2113.12C979.071 2113.12 970.571 2115.68 963.194 2120.82C955.818 2125.95 950.044 2133.17 945.875 2142.48C942.026 2151.46 940.102 2161.89 940.102 2173.77C940.102 2191.74 944.592 2206.18 953.573 2217.09C962.553 2228 974.26 2233.45 988.693 2233.45C997.994 2233.45 1006.33 2231.2 1013.71 2226.71C1021.09 2221.9 1026.86 2215.16 1031.03 2206.5L1096.94 2223.34C1088.92 2245.48 1074.65 2263.29 1054.12 2276.77C1033.92 2289.93 1010.66 2296.67 984.363 2296.99Z" fill="white"/>
<path d="M1153.64 2052.95V1985.57H1225.32V2052.95H1274.87V2115.04H1225.32V2201.68C1225.32 2212.59 1227.73 2220.29 1232.54 2224.79C1237.67 2229.28 1244.08 2231.69 1251.78 2232.01C1259.48 2232.01 1267.18 2231.36 1274.87 2230.08V2291.21C1258.52 2294.1 1242.96 2294.9 1228.21 2293.62C1213.45 2292.65 1200.46 2288.8 1189.24 2282.06C1178.33 2275.33 1169.67 2265.38 1163.26 2252.22C1156.84 2239.07 1153.64 2222.22 1153.64 2201.68V2115.04H1119.96V2052.95H1153.64Z" fill="white"/>
<path d="M170.219 451.85H1423.28L0 1343.3L520.544 670.043L170.219 451.85Z" fill="white"/>
<path d="M904.136 889.779L1204.44 1077.43L770.906 1348.43L885.752 1092.66H578.714L904.136 889.779Z" fill="white"/>
<path fill-rule="evenodd" clip-rule="evenodd" d="M539.523 0H965.362L1186.55 182.386L965.362 364.703H593.009L732.087 182.386L539.523 0ZM906.319 122.132L990.705 183.61H854.086L906.319 122.132Z" fill="white"/>
</g>
<defs>
<clipPath id="clip0_5370_1263">
<rect width="1835" height="2297" fill="white"/>
</clipPath>
</defs>
</svg>
