<svg width="306" height="82" viewBox="0 0 306 82" fill="none" xmlns="http://www.w3.org/2000/svg">
<path fill-rule="evenodd" clip-rule="evenodd" d="M66.4123 45.8843C66.2875 45.8329 66.1702 45.7816 66.0674 45.7302C65.8474 45.6202 65.6493 45.5028 65.4659 45.378C65.2824 45.2533 65.121 45.1213 64.9816 44.9745C64.9303 44.9305 64.8716 44.8718 64.8276 44.8205C64.6882 44.6737 64.5708 44.5343 64.4828 44.3729C64.4314 44.2996 64.3874 44.2262 64.3507 44.1528C64.248 43.9768 64.1673 43.8007 64.1086 43.6173C64.0719 43.5146 64.0426 43.4192 64.0206 43.3238C63.9912 43.2284 63.9765 43.1331 63.9619 43.0377C63.9472 42.9423 63.9325 42.8396 63.9252 42.7516C63.9252 42.7029 63.9214 42.6562 63.9176 42.6104V42.6103V42.6103C63.914 42.5663 63.9105 42.5232 63.9105 42.4801C63.9105 42.3407 63.9105 42.216 63.9325 42.0913C63.9325 42.0252 63.9472 41.9666 63.9619 41.9079C63.9619 41.8602 63.9764 41.8126 63.9897 41.7689C63.9928 41.7587 63.9958 41.7488 63.9985 41.7391C64.011 41.6892 64.0259 41.6416 64.0404 41.595C64.0515 41.5595 64.0624 41.5246 64.0719 41.4897C64.1013 41.4163 64.1306 41.3429 64.1599 41.2843C64.204 41.1889 64.2553 41.1155 64.314 41.0568C64.3287 41.0348 64.3434 41.0201 64.3654 41.0055C64.3874 40.9835 64.4021 40.9688 64.4241 40.9615C64.4353 40.9615 64.4508 40.9529 64.464 40.9456C64.4681 40.9433 64.472 40.9412 64.4754 40.9394C64.5048 40.9248 64.5414 40.9248 64.5781 40.9394H64.6148C64.358 41.365 64.3067 41.9152 64.3947 42.4801C64.4241 42.6489 64.4607 42.8103 64.5121 42.979C64.6075 43.3091 64.7615 43.6393 64.9376 43.9254C65.0249 44.0597 65.1183 44.1817 65.2067 44.297L65.2067 44.2971L65.2067 44.2971L65.2311 44.3289C65.2824 44.3949 65.3411 44.4536 65.3997 44.5122L65.3998 44.5123C65.4365 44.5564 65.4732 44.593 65.5099 44.6224C65.5282 44.637 65.5465 44.6535 65.5648 44.67L65.5649 44.67L65.565 44.6701C65.5833 44.6866 65.6016 44.7031 65.6199 44.7178C65.8474 44.9085 66.0895 45.0332 66.3462 45.0993C68.1877 45.5615 70.2786 42.3994 69.0974 39.274C68.461 37.5839 66.8613 36.5137 66.027 35.9555C65.7169 35.7481 65.5125 35.6113 65.5025 35.5397C65.4943 35.4859 65.5958 35.2522 65.6924 35.0297C65.767 34.858 65.8387 34.693 65.8547 34.6227C67.2095 27.5716 63.7557 24.2715 62.3726 22.9499C62.0705 22.6613 61.8671 22.467 61.8343 22.3487C61.8189 22.2936 61.8277 22.1476 61.8407 21.9299C61.9024 20.899 62.0603 18.2613 60.2129 16.0686C58.1732 13.6496 55.5907 13.9345 54.6588 14.0373C54.4912 14.0558 54.3771 14.0684 54.329 14.0584C54.2451 14.0425 54.0543 13.9031 53.7653 13.6918C52.7146 12.9239 50.3655 11.2067 47.1318 11.0284C45.1678 10.9216 44.106 11.3475 43.6708 11.522C43.5679 11.5633 43.5001 11.5905 43.4636 11.5933C43.3356 11.6043 42.9963 11.5515 42.6381 11.4957C42.2776 11.4396 41.8979 11.3805 41.6955 11.3805C40.444 11.3805 38.7589 11.4749 37.626 11.5384C36.9723 11.575 36.5025 11.6013 36.4058 11.5933C36.3682 11.5933 36.2383 11.5534 36.047 11.4947C35.5667 11.3472 34.6994 11.0808 33.9334 11.0284C29.7377 10.7337 27.0709 12.8104 25.948 13.6848C25.6729 13.899 25.4905 14.041 25.401 14.0584C25.3535 14.0685 25.2403 14.0552 25.0738 14.0356C24.1603 13.9278 21.6434 13.6309 19.5832 15.9952C17.6312 18.2566 17.9432 20.7739 18.072 21.8123C18.1019 22.0541 18.122 22.2157 18.1012 22.2753C18.0718 22.3589 17.9037 22.5018 17.6491 22.7182C16.6307 23.5838 14.229 25.6251 13.7946 29.7512C13.588 31.767 13.8868 33.6478 14.0561 34.7136C14.1333 35.1993 14.1835 35.5157 14.1468 35.5984C14.1234 35.656 13.9543 35.7615 13.6999 35.9202C12.9161 36.4092 11.3227 37.4033 10.6913 39.0539C9.6128 41.8785 11.3222 45.8402 13.6552 44.8792C14.9391 44.3436 15.8268 42.7369 15.35 41.387C14.9116 40.4981 14.9384 40.6169 15.0364 41.0507C15.1172 41.4082 15.2463 41.9797 15.2032 42.3774C15.0785 43.5879 13.4131 45.1946 12.7015 44.7324C14.9685 44.2409 15.8195 40.5066 13.2297 40.0444C14.7044 40.624 14.7557 42.0326 14.1468 43.3238C12.9583 45.8329 11.5276 44.3216 11.0434 42.3774C10.2026 39.0359 12.324 37.4376 13.9057 36.2459C14.4494 35.8363 14.9293 35.4747 15.2032 35.1069C16.1016 33.901 16.0469 32.2443 15.992 30.5812C15.9473 29.229 15.9026 27.8725 16.3697 26.7506C16.2147 27.7552 16.2744 29.0145 16.3341 30.2729C16.41 31.8723 16.4857 33.4703 16.1203 34.542C15.7874 35.5093 14.9488 36.135 14.119 36.7543C13.2116 37.4315 12.3145 38.1009 12.0999 39.2007C11.8165 40.653 12.5165 41.388 13.0722 41.9713L13.0722 41.9714L13.0722 41.9714L13.0722 41.9714L13.0722 41.9714L13.0723 41.9714C13.2071 42.113 13.3334 42.2456 13.4351 42.3774C13.4825 42.4315 13.4893 42.5215 13.4958 42.6078C13.5035 42.7087 13.5107 42.8046 13.5819 42.8323C13.7461 42.4589 13.4105 42.0754 13.1021 41.723C12.956 41.5561 12.816 41.3962 12.7382 41.2476C11.6303 39.1787 13.1563 37.6453 14.8878 36.6989C14.8017 37.7803 15.5796 38.4158 16.1163 38.8544C16.3116 39.0139 16.4749 39.1474 16.5532 39.2667C16.9181 39.8567 16.6119 39.5437 16.3287 39.2543C16.1963 39.1191 16.069 38.989 16.0176 38.9586C15.3646 38.5331 13.6185 37.9828 13.5892 39.208C16.4651 41.1962 16.9567 44.3216 13.3764 45.7962C13.1806 45.8776 12.9187 45.9664 12.6269 46.0654C10.9727 46.6263 8.35947 47.5125 11.4029 49.2151C10.8012 50.6628 11.7525 51.0268 12.1509 51.1793L12.151 51.1793L12.151 51.1793L12.151 51.1793C12.2432 51.2146 12.3058 51.2385 12.3126 51.2619C12.3287 51.3134 12.2571 51.3947 12.1413 51.5263C11.7284 51.9956 10.7531 53.104 11.1828 55.7739C11.5915 58.2847 13.255 59.0202 13.9651 59.3343C14.1473 59.4148 14.2667 59.4676 14.2862 59.5156C14.3002 59.5466 14.3026 59.6189 14.306 59.72C14.3273 60.3605 14.3871 62.1554 17.6757 61.9146C15.9882 63.3232 16.92 66.1258 18.3433 67.373C19.0393 67.9883 19.6936 68.191 20.2087 68.3506L20.2087 68.3506C20.4429 68.4231 20.6483 68.4867 20.8157 68.5762C20.8647 68.6021 20.9818 68.704 21.1236 68.8275C21.3426 69.0182 21.6207 69.2603 21.7988 69.3539C24.7439 70.913 27.449 69.9832 28.5103 69.6185C28.7074 69.5507 28.8479 69.5024 28.9226 69.4932C29.0076 69.4828 29.1629 69.5084 29.3753 69.5435C30.3545 69.7052 32.5457 70.0671 34.6377 68.0113C37.7117 72.0023 41.9816 71.9657 45.1436 68.0846C47.4332 70.2128 49.6597 69.6753 50.4831 69.4766C50.6333 69.4403 50.7368 69.4153 50.7854 69.4199C50.8321 69.4249 50.9303 69.4672 51.0768 69.5303C51.7833 69.8347 53.614 70.6232 56.2145 70.0582C57.4723 69.7854 58.1939 69.2256 58.6292 68.888C58.7676 68.7805 58.8771 68.6956 58.9657 68.6495C59.1466 68.5541 59.374 68.4646 59.6242 68.3661C60.1047 68.1771 60.6696 67.9549 61.152 67.5931C63.0301 66.1698 63.617 63.2865 62.2158 62.164C62.089 62.0627 62.0008 62.0033 61.9463 61.9666C61.9219 61.9502 61.9043 61.9383 61.893 61.9293C61.9737 61.9586 62.3478 62.0833 63.0668 62.0173C65.2214 61.8326 65.3357 60.4496 65.386 59.8402C65.3956 59.7234 65.4029 59.635 65.4218 59.5889C65.4472 59.5335 65.5881 59.4586 65.7981 59.3469C66.5611 58.9412 68.2361 58.0506 68.5986 55.8473C69.0239 53.3072 68.1698 52.1274 67.8208 51.6454L67.8208 51.6454C67.7363 51.5288 67.6815 51.453 67.6815 51.4087C67.6815 51.3769 67.7642 51.3189 67.8681 51.246C68.0038 51.1509 68.1757 51.0303 68.2464 50.9098C68.7428 50.1061 68.43 49.5595 68.2972 49.3274C68.2651 49.2713 68.2435 49.2336 68.2464 49.2151C68.2564 49.1752 68.3524 49.1498 68.4905 49.1132C68.7595 49.0419 69.1878 48.9283 69.4496 48.5841C70.5501 47.1024 68.1987 46.4039 66.9719 46.0394C66.7348 45.969 66.5396 45.911 66.4196 45.8623L66.4123 45.8843ZM68.8773 41.8345C68.7013 43.4999 66.8451 46.6253 65.1357 43.7347C63.8916 41.6215 64.9223 40.7158 65.4887 40.218C65.6203 40.1023 65.7269 40.0087 65.774 39.927C66.7791 38.1662 63.8885 37.6894 64.2627 39.6776C63.8545 38.8667 63.9509 38.7461 64.2735 38.3427C64.3858 38.2022 64.5255 38.0275 64.6808 37.7774C67.3332 38.588 66.6719 39.5375 65.9147 40.6249C65.1848 41.6731 64.3656 42.8493 66.3389 44.1528C64.7013 42.326 65.4544 41.466 66.1586 40.6618C66.71 40.032 67.2315 39.4365 66.5517 38.4377C66.1474 37.8401 65.6185 37.6871 65.2094 37.5689C64.7649 37.4404 64.462 37.3528 64.6148 36.7796C66.7497 37.3665 67.9676 39.5308 67.9016 41.6437H67.9597L67.9524 41.7366C67.927 42.0294 67.9076 42.188 67.8942 42.2013C67.9076 42.208 67.927 42.0512 67.9524 41.7366L67.9603 41.6437H67.9597L67.9603 41.6364C68.1947 38.685 66.5567 37.4783 65.2964 36.5499C64.8212 36.1998 64.3997 35.8893 64.1526 35.5397C63.3531 34.4022 63.4209 32.8291 63.4863 31.3111C63.5103 30.7536 63.534 30.2035 63.5143 29.6852C63.5034 29.3702 63.4566 29.0521 63.4096 28.7321C63.3306 28.195 63.2509 27.6525 63.3383 27.1101C63.8407 28.4205 63.8436 29.8597 63.8463 31.2147C63.8495 32.7881 63.8524 34.2479 64.6368 35.261C64.8545 35.5404 65.2495 35.8377 65.7143 36.1876C67.1289 37.2527 69.1903 38.8047 68.87 41.8198L68.8773 41.8345ZM58.7529 40.9541C61.5408 40.9174 61.3354 43.7787 59.7434 45.3927C60.6678 43.5659 61.1226 41.7391 58.7529 40.9541ZM59.8534 43.4559C59.8424 43.5532 59.7494 43.7127 59.6297 43.9181C59.1899 44.6726 58.3892 46.0463 59.9634 47.2342C61.412 48.3206 63.2485 47.8129 63.8991 47.633L63.8991 47.633L63.8993 47.6329C64.013 47.6015 64.0905 47.5801 64.1233 47.579C64.6209 47.5698 65.2806 48.0091 65.8988 48.4208C66.2649 48.6647 66.6164 48.8988 66.9111 49.0243C66.2495 48.894 65.7249 49.1814 65.232 49.4515C65.0034 49.5767 64.7816 49.6982 64.5561 49.7726C63.0888 50.2275 61.5261 50.2935 60.0075 50.0808C62.1057 50.8144 63.8005 51.5701 63.0741 54.1379C62.8901 51.0436 60.411 50.4517 58.5531 50.0081C58.0411 49.8859 57.5762 49.7749 57.2196 49.6259C54.5638 48.5254 53.3606 45.2607 55.4588 43.7053C56.0751 43.2468 55.9791 43.3946 55.803 43.6655L55.803 43.6655C55.7171 43.7978 55.6121 43.9594 55.5615 44.0942C54.9673 45.6422 55.3268 47.3222 56.6547 48.364C57.8632 49.0311 57.8378 49.0077 57.4729 48.6721C57.1556 48.3803 56.5815 47.8522 56.3392 47.3369C55.7303 46.031 55.8477 44.4316 57.2929 43.7787C55.899 47.645 60.1982 50.1468 63.6391 49.4938C63.9957 49.4237 64.3321 49.2827 64.6682 49.1418C65.141 48.9435 65.6133 48.7455 66.1408 48.7455C65.8518 48.7455 65.6136 48.5914 65.3773 48.4386C65.1219 48.2734 64.8687 48.1096 64.5561 48.1439C64.5097 48.1493 64.3958 48.1973 64.2288 48.2678C63.2611 48.6758 60.5078 49.8368 58.7309 47.8284C57.1638 46.0545 58.7191 44.3876 59.2693 43.798C59.363 43.6976 59.4276 43.6284 59.4426 43.5953C59.7757 42.8078 59.3587 42.8369 58.5405 42.894C57.9714 42.9337 57.2083 42.9869 56.3685 42.7882C53.8419 42.1878 53.8948 40.3761 53.9489 38.5212C53.9742 37.6563 53.9997 36.7819 53.7641 36.0166C54.5538 36.6334 54.6708 37.4391 54.7968 38.3072C54.9166 39.1326 55.0446 40.0145 55.767 40.8441C56.5083 41.6943 57.4893 41.8918 58.3065 42.0564C59.2523 42.2469 59.9788 42.3932 59.8607 43.4559H59.8534ZM59.6773 52.091C59.3241 51.7758 58.7437 51.613 58.0399 51.4155C56.7119 51.043 54.9444 50.5471 53.4339 48.6721C51.7299 46.5538 51.9987 44.7511 52.1615 43.6591C52.2034 43.3782 52.2382 43.1444 52.2307 42.9643C52.2181 42.6475 52.0278 42.1385 51.8715 41.7203C51.7564 41.4122 51.6596 41.1533 51.6658 41.0568C51.6782 40.7522 52.1802 40.0803 52.6652 39.4313C53.0445 38.9236 53.4134 38.4299 53.5293 38.1369C53.6932 38.2114 53.3461 39.1699 53.0934 39.868C52.9727 40.2013 52.8735 40.4752 52.8617 40.5653C52.7378 41.5093 53.0267 42.1781 53.1522 42.4686C53.1827 42.5394 53.2036 42.5877 53.2065 42.6122C53.2471 42.9543 53.1488 43.3507 53.0366 43.8028C52.7639 44.9016 52.4095 46.3295 53.7714 48.1072C54.9052 49.5826 56.6955 50.1776 58.1346 50.6559C58.921 50.9172 59.6026 51.1437 60.0148 51.46C61.4968 52.5972 61.1373 54.5047 59.0684 54.1746C60.3229 53.9765 60.5944 52.9273 59.67 52.091H59.6773ZM55.3414 54.8789C56.2585 57.1385 56.1998 60.1832 54.6298 62.142C52.5169 64.7905 48.0342 64.2916 47.6527 61.4304C45.2243 62.8463 48.2837 65.1647 51.321 64.6071C46.1561 66.0818 43.2948 64.1156 42.6859 58.8626C42.6859 65.7149 47.6161 67.7912 53.4413 64.7465C51.3283 67.3583 45.87 67.2703 43.9184 64.5337C43.0454 63.2939 42.0109 59.8677 42.1503 58.3931C42.5905 53.9838 51.5778 56.0087 45.5692 62.098C45.1321 61.3756 45.1613 61.3606 45.459 61.2079C45.6511 61.1094 45.955 60.9535 46.3175 60.5133C48.7752 57.5053 44.4907 55.253 43.0674 57.6961C42.3717 58.8972 43.0206 59.6501 43.3774 60.0642C43.4609 60.1611 43.5284 60.2394 43.559 60.3006C43.6889 60.5604 43.8095 60.8371 43.9331 61.1204C44.4028 62.1973 44.9144 63.3703 46.1341 64.0789C46.9778 64.5631 49.4282 65.2894 47.0511 64.1522C45.3244 62.2694 46.4742 61.5184 47.8917 60.5926C48.6062 60.1259 49.3887 59.6148 49.9051 58.8919C51.7365 56.3392 50.6256 54.4578 49.4621 52.4872C48.6493 51.1107 47.8108 49.6906 47.9315 47.9678C48.2695 49.9589 49.4311 51.5742 50.5798 53.1717C50.8025 53.4813 51.0247 53.7903 51.2403 54.1012C50.9316 53.4433 50.6157 52.8689 50.3233 52.3375L50.3233 52.3374C49.2398 50.3678 48.4808 48.9878 49.6189 46.1337C49.8113 45.654 50.0862 45.2024 50.3608 44.7514L50.3608 44.7513C50.8925 43.8779 51.4229 43.0064 51.3504 41.9372C51.6581 42.6773 51.5873 43.3119 51.5071 44.032C51.4362 44.6683 51.3578 45.3714 51.5264 46.2731C52.084 49.2151 55.4808 51.7168 58.2981 52.2671C54.2703 52.4285 50.3746 48.6061 50.8295 44.505C49.5408 48.1093 51.4586 50.1585 53.2354 52.057C54.0987 52.9795 54.9288 53.8664 55.3414 54.8789ZM20.268 63.7305H20.268C20.3456 63.7266 20.4269 63.7226 20.4269 63.7634C20.4269 63.8048 20.3391 63.8024 20.2514 63.8C20.2148 63.7989 20.1783 63.7979 20.1481 63.8001C19.0182 63.8735 19.2677 62.9124 19.6859 62.817C22.981 63.2078 23.7737 64.2293 24.5783 65.2662C24.8611 65.6306 25.1455 65.997 25.5404 66.3385C27.734 68.2387 34.3149 67.5124 36.2958 64.3283C36.7826 63.5478 37.1253 62.2129 37.3186 61.4602C37.4632 60.8969 37.5241 60.6597 37.499 61.225C37.2569 66.4119 33.4199 68.0773 28.7171 67.7471C26.0591 67.5651 25.1937 66.5915 24.2905 65.5753C23.3738 64.544 22.418 63.4687 19.5098 63.1325C19.4144 63.5506 19.8106 63.646 20.1481 63.7267C20.1733 63.7351 20.2199 63.7328 20.268 63.7305ZM21.8795 59.6403C21.9455 59.6361 22.1092 59.6041 22.3109 59.5647C22.8262 59.4639 23.5898 59.3145 23.6109 59.4569C19.1063 61.5551 13.4058 58.3564 14.7557 53.008C14.3815 57.3806 17.7343 59.8457 21.8795 59.6403ZM19.8986 58.8699C16.2083 59.0607 13.5378 53.9765 16.4798 51.0712C15.0859 50.521 13.5158 51.2399 12.4594 52.201C13.1197 51.1372 14.3449 50.4403 15.5994 50.4036C15.9324 50.394 16.2765 50.45 16.6233 50.5065H16.6233H16.6233H16.6234H16.6234H16.6234H16.6235H16.6235H16.6235C17.0713 50.5795 17.5235 50.6531 17.9618 50.587C14.6677 51.6875 14.8584 57.4907 18.556 57.8135C20.2654 57.9675 22.2463 57.1385 23.1414 55.6272C21.7181 57.1972 18.8202 57.9162 17.4629 55.9427C17.5541 55.0096 18.0058 55.2681 18.4171 55.5034C18.5685 55.59 18.7144 55.6735 18.8348 55.6932C19.7812 55.8546 22.4077 54.7028 23.2808 54.0645C25.0562 56.6176 22.4517 58.7305 19.8986 58.8699ZM14.1541 49.5525C14.1451 49.5238 14.1301 49.4858 14.112 49.4402C13.9826 49.113 13.6973 48.3922 14.3669 47.8578C14.9195 47.4197 15.6269 47.559 16.4286 47.7167C17.3724 47.9025 18.447 48.114 19.5538 47.4396C21.4782 46.2577 20.4487 44.3505 20.0659 43.6413C19.9949 43.5096 19.9461 43.4193 19.9426 43.3825C19.8529 42.4929 20.5745 42.3098 21.5058 42.0735C22.4024 41.8461 23.4933 41.5693 24.2419 40.5653C24.8113 39.8072 24.9422 39.0423 25.0684 38.3047C25.2024 37.5219 25.3311 36.77 25.9733 36.09C26.0124 36.1242 26.0491 36.1585 26.0833 36.1927C25.825 36.94 25.8685 37.7609 25.9116 38.5739C25.9824 39.9077 26.052 41.22 24.7848 42.15C23.6041 43.0177 22.2028 42.946 21.2662 42.8981C20.5557 42.8617 20.1127 42.8391 20.2361 43.2505C24.3519 47.6084 18.7541 50.5136 14.7704 48.7088C14.604 48.19 15.1796 48.3874 15.8681 48.6236C16.4549 48.8249 17.1237 49.0543 17.4849 48.8922C17.1609 48.8521 16.7695 48.6563 16.3711 48.457C15.8223 48.1824 15.2603 47.9013 14.8437 48.0119C13.978 48.5181 14.5943 49.5085 15.2986 49.8753C14.7837 50.087 14.5875 49.9188 14.2145 49.599L14.1688 49.5599L14.1541 49.5525ZM19.8326 45.1873C18.3359 43.4705 18.9009 41.1375 20.3975 41.0201C20.8422 40.9869 20.7101 41.0714 20.444 41.2415C20.2403 41.3717 19.9581 41.5522 19.7959 41.7685C19.0053 42.7858 19.4833 44.0644 19.7335 44.7336C19.8315 44.9959 19.8946 45.1646 19.8326 45.1873ZM17.2942 33.2654C17.3421 33.2654 17.3637 33.4329 17.3982 33.6995C17.4746 34.2899 17.6138 35.3665 18.2406 36.1854C18.9669 37.1391 20.7277 38.1075 21.8061 37.2125L21.9088 37.3152C19.6125 39.0393 16.9787 35.5691 17.2942 33.2654ZM17.1607 29.9376L17.1607 29.9377C17.5196 31.7898 17.9191 33.8513 19.6492 34.8868C17.5289 34.1458 17.0227 31.1672 17.008 29.1716C17.0605 29.4204 17.1102 29.6768 17.1607 29.9373L17.1607 29.9376ZM19.6492 34.8868C19.6776 34.8963 19.7151 34.8996 19.7559 34.9033C19.8416 34.9109 19.9417 34.9199 20.0013 34.9895C19.8857 35.0776 19.8031 35.0086 19.7256 34.9439C19.6999 34.9224 19.6748 34.9014 19.6492 34.8868ZM18.8788 35.8405C18.9131 35.8014 18.9498 35.7647 18.9889 35.7305C19.8253 36.5595 21.9088 36.7429 21.7401 35.1656C22.8552 37.4399 19.8913 37.3959 18.8862 35.8405H18.8788ZM17.9911 30.8664C19.1063 33.6396 21.0578 34.1752 23.8163 34.498C21.1238 34.7914 18.5414 33.713 17.9911 30.8664ZM18.6294 30.6536C20.5369 33.3535 22.7966 33.9257 25.9953 33.867C23.1487 34.7694 19.8693 33.4122 18.6294 30.6536ZM56.3612 33.2654C54.5784 33.8303 50.4553 33.8303 50.514 31.0718C52.2894 33.6616 56.1411 33.4782 58.5842 32.0255C58.1733 32.3263 56.684 33.1627 56.3612 33.2654ZM60.1615 31.9228C60.2007 31.9375 60.2373 31.9497 60.2716 31.9595C58.4081 33.9917 55.3414 34.6153 52.7957 33.5149C55.3121 34.1972 58.166 33.5809 60.1615 31.9228ZM51.952 36.9704C50.6425 38.1788 50.7611 38.0147 51.1763 37.4404L51.1763 37.4404C51.4845 37.0141 51.9561 36.3618 52.128 35.8772C52.2209 36.1675 52.1208 36.4624 52.0241 36.7473L52.0241 36.7474C51.9986 36.8225 51.9734 36.8969 51.952 36.9704ZM56.8601 31.9228C54.9012 32.4731 51.0129 32.4584 50.646 29.8099C52.0033 31.1085 53.9695 31.4973 55.7963 31.578C55.999 31.5857 56.3232 31.5706 56.6502 31.5553C57.5658 31.5126 58.5034 31.4688 56.8601 31.9228ZM50.58 28.2546C51.8397 29.1963 53.3249 29.7604 54.7871 30.3158L54.7872 30.3158C55.1134 30.4397 55.4384 30.5632 55.7596 30.6903C53.8448 30.8884 51.3063 30.2868 50.58 28.2546ZM48.2177 26.1783C51.255 26.8093 54.7985 27.0587 57.3516 24.9385C57.4103 24.9482 57.469 24.9605 57.5277 24.9751C54.9893 27.4035 51.233 28.2032 48.2177 26.1783ZM48.0709 57.6301C48.0951 57.5987 48.1861 57.5967 48.309 57.594C48.5595 57.5886 48.9426 57.5803 49.1641 57.3146C49.5382 57.2852 48.2177 59.3101 48.0342 59.5009C48.4158 58.4474 48.1918 57.9508 48.0998 57.747C48.0733 57.6883 48.0578 57.6538 48.0709 57.6374V57.6301ZM47.5427 52.4431L47.5529 52.4711L47.5354 52.4505L47.5427 52.4431ZM47.5529 52.4711C47.7093 52.8961 47.9041 53.3022 48.0982 53.7067C48.4616 54.4641 48.8223 55.2157 48.922 56.0747C48.6146 55.7724 48.3286 55.5084 48.07 55.2695L48.0699 55.2694C46.4767 53.7981 45.9187 53.2828 47.7555 50.6824C48.0691 51.4365 48.46 52.0492 48.833 52.6337C49.603 53.8404 50.2962 54.9269 50.0738 56.8891C49.8551 55.1459 48.9417 54.0853 47.8802 52.8527C47.7724 52.7276 47.6632 52.6007 47.5529 52.4711ZM44.6594 47.0141C40.7417 50.5356 37.3669 49.78 34.0435 45.9943C31.2556 42.8176 29.3628 36.787 30.0597 32.6271C30.5383 32.9732 30.9895 33.5284 31.3785 34.007C31.6574 34.3502 31.9044 34.6541 32.1066 34.8134C33.816 36.1487 36.2298 35.5764 37.1101 33.6102C39.5585 37.4803 38.4801 39.2725 38.0579 39.9742C37.9702 40.1199 37.9109 40.2186 37.9172 40.2792C37.9318 40.3965 39.7366 41.6291 39.854 41.6511C39.9787 41.6731 41.7542 40.624 41.7982 40.2792C41.8044 40.219 41.7523 40.1005 41.6756 39.926C41.3027 39.0782 40.3484 36.9082 42.6786 33.6836C43.9698 35.9286 46.4275 36.1487 48.2103 34.2852C48.2974 34.193 48.3237 33.9972 48.3391 33.8824V33.8823V33.8823V33.8823V33.8822V33.8822V33.8822V33.8821V33.8821V33.882V33.882C48.3458 33.8325 48.3504 33.7981 48.357 33.7937C48.4061 33.7446 48.5143 33.6731 48.6544 33.5804C48.975 33.3685 49.4632 33.0458 49.795 32.6271C50.4113 37.3152 48.2103 43.8154 44.6521 47.0141H44.6594ZM25.5771 63.2719C25.0959 62.5852 25.5838 63.0799 26.0301 63.5324C26.2371 63.7423 26.4352 63.9431 26.5235 64.0129C28.2843 65.3848 32.202 66.3825 34.2122 65.2821C36.017 64.2916 37.4256 61.0122 37.2128 59.0387C36.7873 55.0183 31.1969 56.5883 33.2658 60.2419C33.3919 60.4679 33.5728 60.6562 33.7477 60.8381C34.112 61.2172 34.4501 61.569 34.2122 62.1787C33.9885 61.8423 33.7321 61.5284 33.4783 61.2178L33.4783 61.2178C32.7416 60.3162 32.0274 59.4422 32.202 58.1216C32.3487 57.0651 33.4565 56.0674 34.491 55.972C35.7749 55.8473 37.2862 56.625 37.565 57.9822C37.9392 59.9044 36.5819 64.4237 34.3516 65.7736C32.2167 67.0575 27.9541 67.0575 26.3474 64.8272C26.3817 64.7881 26.4184 64.7514 26.4575 64.7172C28.2916 65.8176 30.8814 66.742 32.9797 65.957C30.4632 66.1918 27.1031 65.4655 25.5771 63.2719ZM28.9666 46.3465C28.6438 49.4792 24.7701 52.5458 21.63 52.1937C24.0804 51.7462 27.3379 49.5599 28.1155 47.1168C28.519 45.8462 28.4012 44.9011 28.2979 44.0724C28.2002 43.2886 28.1155 42.609 28.497 41.8565C28.4508 43.1038 29.043 44.139 29.6374 45.1783C30.1759 46.1197 30.7163 47.0644 30.786 48.1733C30.8908 49.6719 30.3139 50.7577 29.7157 51.8836C29.3505 52.571 28.9773 53.2734 28.7465 54.0938C29.1251 53.4028 29.5252 52.8041 29.9118 52.2255C30.7239 51.0102 31.4771 49.8829 31.8498 48.1733C31.9255 49.8073 31.1689 51.0961 30.4165 52.3778C29.5642 53.8296 28.7172 55.2723 29.0913 57.1972C29.4542 59.046 31.0889 60.1114 32.2646 60.8775C32.8477 61.2576 33.3179 61.564 33.4639 61.8559C34.4543 63.8368 31.2556 65.8983 28.1742 64.5411C31.417 65.1427 34.579 62.905 32.3707 61.401C32.0128 61.1552 32.0153 61.1786 32.0372 61.3796C32.0669 61.6524 32.1322 62.2521 31.3803 62.9491C29.5755 64.6218 26.1934 63.8514 24.9315 61.8559C23.6623 59.8604 23.6843 56.8817 24.5793 54.7321C24.9244 53.9 25.6729 53.1066 26.4801 52.2511L26.4801 52.2511C28.2988 50.3234 30.4154 48.0801 28.8859 44.3656C28.8859 44.6289 28.9085 44.8933 28.9313 45.1584C28.9649 45.551 28.9987 45.945 28.9592 46.3391L28.9666 46.3465ZM17.7857 54.9082C16.4945 55.099 16.854 56.8377 19.2677 57.2339C15.8782 57.2045 15.9736 54.4827 18.3506 54.3433C18.5207 54.334 18.7425 54.3609 19.0114 54.3935C19.5894 54.4637 20.3849 54.5602 21.3513 54.38C19.4022 55.1481 18.5371 55.007 18.084 54.9331C17.9572 54.9124 17.8627 54.897 17.7857 54.9082ZM20.6029 54.9889C19.4804 55.4144 20.3462 54.8862 20.8817 54.7101C21.1312 54.7028 20.757 54.9302 20.6029 54.9889ZM14.7557 48.9216C14.7221 48.9552 14.6862 48.9888 14.6479 49.0223C15.1713 50.2687 17.674 50.202 19.2611 50.1597C19.5159 50.153 19.747 50.1468 19.9426 50.1468C17.749 50.5356 15.9809 51.8048 16.7292 54.1966C16.7292 51.087 19.4336 50.4225 21.3602 49.9492C21.9018 49.8161 22.3819 49.6981 22.7232 49.5452C25.1956 48.4521 26.795 45.1139 23.9924 43.4852L23.8897 43.5879C25.357 45.4367 24.4399 48.0485 22.2977 48.8482C22.2534 48.8309 22.3444 48.7384 22.5022 48.578C22.9457 48.1271 23.9168 47.14 23.8897 45.7816C23.8677 44.9965 23.2588 43.742 22.4811 43.8741C24.3372 48.1879 17.9398 50.8878 14.7557 48.9216ZM21.3146 54.2112C18.6441 54.7468 18.1599 52.5018 20.1114 51.2473C20.5147 50.9919 21.0951 50.8048 21.7543 50.5924C23.1213 50.1518 24.8271 49.6021 25.9953 48.1072C27.5873 46.0897 27.1545 44.3509 25.357 42.6855C25.6578 42.2233 26.5162 43.4779 26.9124 44.1602C26.4935 43.0778 26.6554 42.6365 26.797 42.2505C26.8464 42.1159 26.8934 41.9879 26.9124 41.8418C27.0439 40.8209 26.8388 40.2041 26.611 39.5193C26.4705 39.0969 26.3214 38.6485 26.2374 38.0635C26.3446 38.3468 26.8633 39.0837 27.3381 39.7579L27.3381 39.758C27.7731 40.3758 28.171 40.9411 28.1816 41.0568C28.1816 41.0867 28.1081 41.2566 28.014 41.4739L28.014 41.4739L28.014 41.474C27.8542 41.8432 27.6351 42.3495 27.6167 42.5388C27.5883 42.782 27.6329 43.1043 27.6865 43.4916C27.8545 44.7044 28.1107 46.5541 26.4868 48.6061C24.9307 50.5672 22.7816 51.1279 21.5609 51.4464C21.2335 51.5319 20.9728 51.5999 20.8084 51.6728C19.1503 52.4138 19.0402 54.2846 21.2999 54.2112H21.3146ZM22.4077 32.8032C24.7627 33.4488 27.7927 33.2287 29.2821 31.0131C29.2014 34.4319 24.55 33.6836 22.4077 32.8032ZM28.2916 37.572C27.8954 37.1611 27.5873 36.5962 27.7267 36.0166C28.0688 36.733 28.5002 37.3046 28.7527 37.639C29.0742 38.065 29.1053 38.1062 28.2916 37.572ZM31.8939 59.5669C31.7325 59.3762 30.3459 57.4246 30.5513 57.3073C31.1581 57.8164 31.5162 57.6117 31.7039 57.5045C31.784 57.4587 31.833 57.4307 31.8572 57.4833C31.434 58.2212 31.713 58.9872 31.8454 59.351C31.8921 59.4791 31.9206 59.5574 31.8939 59.5669ZM31.0502 56.038C31.038 54.9106 31.7095 53.5972 32.0549 52.9217C32.3343 52.3751 32.4003 52.2462 31.7178 52.9714C30.676 54.0865 29.8836 55.5612 29.7809 57.1018C29.4921 54.8633 30.4175 53.4589 31.4761 51.8522L31.4762 51.852L31.4763 51.852L31.4766 51.8515L31.4767 51.8512L31.4768 51.8512L31.4768 51.8511L31.4769 51.851L31.4769 51.851L31.477 51.8509L31.477 51.8508L31.477 51.8508L31.4771 51.8507L31.4771 51.8506L31.4772 51.8506L31.4772 51.8505C31.7089 51.4989 31.9469 51.1376 32.18 50.7557C33.6952 53.2664 33.3597 53.6011 32.2919 54.6663C31.9431 55.0143 31.5162 55.4402 31.0502 56.0454V56.038ZM37.0368 59.1487C37.4183 59.3321 36.5159 64.7245 32.312 65.1353C31.2817 65.2406 31.4357 65.1807 31.966 64.9746C32.3231 64.8358 32.8508 64.6307 33.3025 64.365C34.9469 63.3885 35.3709 62.4091 35.8527 61.2961C36.1384 60.6363 36.4443 59.9296 37.0368 59.1487ZM34.2122 60.2786C33.053 59.6403 33.4419 57.52 34.7038 57.3146C37.0514 56.9331 36.4792 59.9337 34.2122 60.2786ZM32.2387 61.4744C33.4639 63.0884 31.0061 64.0202 29.7736 64.2329C29.8849 64.1806 30.0043 64.127 30.1284 64.0711C31.2399 63.5715 32.7336 62.8999 32.2387 61.4744ZM37.2862 32.5905C35.1366 30.9691 32.8476 31.0131 30.4119 31.9155C30.4119 30.7563 31.4463 30.0007 32.5248 29.8759C34.2856 29.6632 36.5599 30.4115 37.499 32.0255C35.8849 30.3675 34.0361 30.3235 31.8939 30.859C33.816 30.7783 36.061 30.859 37.2862 32.5905ZM31.7104 32.0989C31.8753 32.0874 32.0441 32.0459 32.2117 32.0046C32.3649 31.967 32.517 31.9295 32.6642 31.9155C33.7133 31.8201 35.4447 31.9155 36.2958 32.5171C34.1904 33.8765 33.6749 33.507 31.9858 32.2959L31.9852 32.2955C31.897 32.2322 31.8055 32.1667 31.7104 32.0989ZM31.9232 33.4415C31.3289 33.2067 30.676 32.7519 30.4779 32.1429C30.9621 32.5782 31.4439 33.0111 31.9232 33.4415ZM36.6846 33.4782C35.951 35.5471 33.3905 35.3563 32.136 33.7937C33.9114 34.8061 35.166 35.0702 36.6846 33.4782ZM46.699 30.5142C45.6279 30.4115 44.0872 30.6316 43.1775 31.2259C43.0641 31.3014 42.841 31.5127 42.6369 31.706L42.6369 31.706L42.6368 31.706L42.6368 31.7061C42.2463 32.0758 41.9255 32.3796 42.5759 31.5413C43.2361 30.6976 44.8135 29.9787 45.8553 29.8833C47.3519 29.7365 49.2301 30.1401 49.3842 31.9228C47.3299 31.0131 43.8598 31.0278 42.3338 32.8399C42.2751 32.8301 42.2139 32.8179 42.1503 32.8032C42.8253 32.0842 43.4929 31.4826 44.4393 31.1452C45.2008 30.8818 46.2609 30.7739 46.9055 30.7082C47.5899 30.6385 47.806 30.6165 46.699 30.5069V30.5142ZM48.0049 32.1723C46.2302 33.441 45.3351 33.8887 43.4219 32.4528C43.4991 32.3225 45.1984 31.9445 45.4298 31.9228C45.6572 31.9082 47.9976 31.9448 48.0049 32.1723ZM47.4767 33.757C46.4496 35.5397 43.8231 35.4004 42.9647 33.4048C44.4613 34.8208 45.8039 35.1142 47.4767 33.757ZM49.3108 32.1356C49.345 32.1698 49.3817 32.2041 49.4208 32.2383C47.8655 33.9771 47.2199 33.8523 49.3108 32.1356ZM48.2958 29.4936C48.6565 29.6409 48.9121 29.7452 48.9217 29.6333C47.8379 27.4555 45.7429 26.6238 43.8356 25.8666C41.8818 25.0909 40.125 24.3934 39.854 22.4073C39.7914 24.2986 38.0145 25.0107 36.0161 25.8115C34.0299 26.6074 31.8249 27.491 30.8667 29.7072C33.0017 28.592 36.5746 28.8048 37.9172 31.0498C38.8709 32.6198 39.201 37.1171 38.981 38.9439C38.9432 39.2484 38.847 39.4333 38.7759 39.5701C38.5985 39.9113 38.5764 39.9538 40.0007 40.8074C41.1851 39.8867 41.1779 39.8606 41.021 39.2888C40.9466 39.0177 40.8384 38.6237 40.8078 37.9535C40.6097 33.5002 41.2406 28.2913 47.0511 29.0983C47.4778 29.1597 47.9384 29.3478 48.2958 29.4936ZM22.5765 25.3713C25.3497 27.066 28.7465 26.7506 31.7765 26.1123C28.8419 27.9831 25.1809 27.5356 22.5765 25.3713ZM29.3848 28.2179L29.2873 28.19C28.1556 29.0069 26.8594 29.5284 25.5669 30.0484L25.5669 30.0485L25.5668 30.0485L25.5667 30.0485L25.5667 30.0485L25.5666 30.0486L25.5666 30.0486L25.5665 30.0486L25.5665 30.0486L25.5664 30.0487L25.5663 30.0487L25.5663 30.0487L25.5662 30.0487L25.5662 30.0487L25.5661 30.0488L25.5661 30.0488L25.566 30.0488L25.5659 30.0488C25.0495 30.2566 24.5336 30.4642 24.0291 30.6903C26.2447 30.9104 28.2329 30.1914 29.3848 28.2179ZM29.1353 29.7365C29.1744 29.7708 29.2111 29.8075 29.2454 29.8466C28.5851 32.5831 23.9777 32.8986 22.1216 31.3286C24.5133 31.5633 27.3379 31.5927 29.1353 29.7365ZM37.6384 60.0951C37.7484 59.2001 38.6508 58.0703 39.5752 57.9455C40.7271 57.7915 42.0183 58.8112 42.1503 59.9557C42.1988 60.3628 42.1668 60.8002 42.132 61.2748V61.2748C42.0193 62.8105 41.8781 64.7367 44.344 67.2923C41.6368 70.557 38.0712 70.4397 35.3127 67.2923C37.9379 64.8182 37.7915 63.0189 37.6658 61.474C37.6267 60.9941 37.5897 60.5386 37.6384 60.0951ZM57.7698 63.2352C58.4815 62.9857 60.8292 62.3254 60.3816 63.7267C60.3816 62.7069 57.8285 63.7121 57.2783 64.0055C56.4979 64.4286 55.997 64.9852 55.4969 65.541C54.6006 66.5372 53.7067 67.5305 51.211 67.7471C46.4275 68.158 42.209 66.61 42.3924 61.1223C43.0968 65.1207 44.8208 66.8154 48.8779 67.2556C53.2951 67.7371 54.2524 66.5093 55.2558 65.2225C55.8423 64.4703 56.4445 63.698 57.7625 63.2352H57.7698ZM50.9615 64.1889C49.4722 64.4457 46.7137 63.624 47.396 61.6872C47.3299 63.4113 49.4942 64.2329 50.9615 64.1889ZM54.0282 63.4479L52.9717 64.5778C51.4017 65.6269 49.4942 65.9424 47.6454 65.6049C49.8904 65.6049 52.3701 65.062 54.0209 63.4479H54.0282ZM44.7255 59.9264C43.4856 59.2881 43.3682 57.5053 44.5861 57.3146C46.8604 56.9771 46.9778 61.0856 44.7255 59.9264ZM54.4537 42.6489C54.6767 42.6237 54.5165 42.7707 54.2322 43.0315L54.2322 43.0316C53.8523 43.3802 53.2507 43.9322 53.0451 44.549C53.0157 43.7127 53.7201 43.0083 54.4537 42.6489ZM63.4116 48.9216L64.8202 48.43C66.4196 48.5914 64.6222 49.0316 64.0426 49.1343C62.2084 49.4645 59.8681 49.3178 63.4043 48.9216H63.4116ZM55.4075 34.2118C55.4075 34.1277 55.648 34.1372 56.0412 34.1527C57.3284 34.2033 60.2518 34.3183 61.7242 31.424C61.196 33.9991 57.6524 34.9235 55.4075 34.2118ZM57.9826 35.3123C58.3127 36.9557 60.1762 36.5302 61.0859 35.5911C61.2547 35.6498 59.9121 37.2051 58.6869 36.9997C58.0119 36.8823 57.4177 35.8626 57.9826 35.305V35.3123ZM62.2818 34.8134C61.7762 36.528 59.4044 38.6964 57.8417 37.0791C57.8277 37.1358 57.816 37.1925 57.8065 37.2492C59.2445 39.0833 62.1277 36.5669 62.2818 34.8134ZM59.9561 35.0262C62.1791 33.5442 62.5386 31.9522 62.6339 29.3844C62.9788 31.512 62.2524 34.3292 59.9561 35.0262ZM62.9861 35.3783C63.9252 37.1538 63.2135 41.5704 62.6339 41.5117L62.5312 41.409C63.3882 40.0961 63.213 38.0834 63.0651 36.3845V36.3844C63.0344 36.0326 63.005 35.6943 62.9861 35.3783ZM65.2458 35.4517C64.2818 34.3921 64.2772 32.9894 64.2721 31.4298C64.2674 29.9983 64.2622 28.4346 63.5143 26.8826C63.4043 26.3838 63.8591 27.3228 64.0059 27.7263C64.5799 29.2742 64.6681 30.7556 64.7581 32.2675V32.2675C64.8085 33.1132 64.8595 33.9685 64.9963 34.8501C65.4512 29.5018 64.6221 26.934 61.5041 22.6861C65.1064 26.083 66.5737 30.6316 65.2458 35.4517ZM56.5006 30.4482C56.1044 30.2354 54.9746 29.0689 55.3708 28.6141C57.1169 30.4115 60.7705 30.118 61.6142 27.5209C62.0098 26.2882 61.7423 25.2258 61.4559 24.0885C61.3758 23.7705 61.2943 23.4467 61.2253 23.1117C65.3631 28.3133 59.7213 32.1209 56.5006 30.4555V30.4482ZM57.8808 27.8137L57.881 27.8135C59.1406 26.6298 60.4412 25.4075 60.8658 23.6692C60.7411 25.6868 59.3545 27.4842 57.4837 28.1885C57.6148 28.0637 57.7475 27.9391 57.8806 27.8139L57.8808 27.8137ZM58.9657 28.5334C60.5504 27.1614 60.7998 25.8115 61.0859 23.8086C61.4968 25.6868 60.7998 27.7043 58.9657 28.5334ZM54.9453 14.6453C56.8307 14.4472 58.7529 15.489 59.9561 16.9049C58.5842 15.7091 56.9481 14.9314 55.092 15.2102C53.6611 15.427 52.9136 16.1955 52.1939 16.9354C51.4522 17.6978 50.7401 18.43 49.3401 18.497C50.5993 18.7565 51.4807 17.9834 52.3637 17.2088C52.8287 16.801 53.2941 16.3927 53.8154 16.1346C58.2027 13.941 63.0668 18.585 59.9194 23.86C58.7896 25.7528 55.6496 28.6801 53.2872 28.5847C57.4544 26.9413 62.9127 22.0258 59.1711 17.4112C61.8856 21.9305 57.6084 26.0316 53.1111 26.3617C50.7233 26.5358 48.95 25.8085 47.4453 25.1913C46.6661 24.8718 45.959 24.5817 45.2757 24.4616C44.7924 24.3771 44.2325 24.3654 43.6763 24.3538C42.4932 24.3291 41.3264 24.3048 40.9471 23.5812C40.3969 22.5614 41.3286 21.5783 42.1137 21.0061C45.0766 18.8396 48.4328 20.419 50.8212 21.5431C51.579 21.8998 52.2394 22.2106 52.759 22.3413C52.9791 22.3974 53.2912 22.4421 53.5678 22.4817L53.5679 22.4817C54.2318 22.5768 54.6915 22.6426 53.1845 22.7668C51.7204 22.8821 50.3262 22.3967 48.8775 21.8922C47.2845 21.3375 45.6255 20.7598 43.735 20.9327C40.7711 21.1968 40.3676 24.0581 41.7615 22.6274C43.4989 22.5047 43.3761 22.5347 42.832 22.6678C42.3031 22.7972 41.3763 23.024 41.3727 23.3024C41.5889 23.529 41.9402 23.476 42.4602 23.3977C43.0514 23.3085 43.8609 23.1865 44.9382 23.4051C45.4651 23.5147 46.0706 23.8035 46.7839 24.1436C48.5538 24.9876 50.987 26.148 54.5271 25.6721C59.8167 24.9458 62.3625 16.6188 55.4735 16.6041C60.3449 17.3011 59.4866 22.334 54.9819 22.6715C56.1264 22.2093 57.7405 21.0868 57.447 19.7148C55.9504 20.852 53.2505 19.8176 53.2872 19.5681C54.9673 17.8147 57.5717 17.4772 58.1146 20.2431C58.6282 18.3869 56.728 17.6239 55.158 17.9174C54.7149 18.0002 54.2347 18.2617 53.7581 18.5213C53.2641 18.7903 52.7741 19.0571 52.3335 19.1206C51.4819 19.2377 50.39 19.0238 49.1954 18.7897C46.201 18.2029 42.5617 17.4898 40.4483 21.549C41.7746 15.7229 46.0647 16.7247 48.2622 17.2379C48.6659 17.3321 48.999 17.4099 49.2301 17.4258C50.4646 17.5049 51.2319 16.854 52.0479 16.1618C52.8226 15.5046 53.6412 14.8102 54.9453 14.6673V14.6453ZM41.5121 22.334C44.0456 20.5331 46.9146 21.5762 49.7433 22.6045C52.9763 23.7799 56.1567 24.9361 58.7236 21.8058C59.5306 19.3627 59.5233 20.4852 58.9363 21.8058C58.3494 23.1043 56.6693 24.0874 55.3047 24.2415C52.9229 24.5004 50.9436 23.6886 49.0407 22.9082C46.6297 21.9194 44.3413 20.9809 41.5121 22.334ZM45.7086 18.5923C44.4548 18.6944 42.9692 19.4193 42.0578 20.2706C44.8215 18.8356 47.397 19.7934 49.7841 20.6811C51.9849 21.4995 54.0256 22.2585 55.9063 21.0281C53.7269 21.2103 52.0643 20.4749 50.4538 19.7625C48.9523 19.0984 47.4961 18.4543 45.7086 18.5923ZM45.7819 15.5624C46.0656 15.5134 46.3468 15.467 46.6256 15.423C48.7407 15.6517 48.6895 15.6494 47.9273 15.6147C47.394 15.5904 46.5128 15.5503 45.7819 15.5624ZM49.2374 16.4061C50.147 16.7519 49.4078 16.6358 48.5447 16.5003C48.0711 16.4259 47.5602 16.3457 47.2639 16.3327C44.8282 16.2373 42.8033 16.8389 41.1672 18.6951C42.0403 17.2571 43.7497 16.1566 45.4371 15.9805C46.4202 15.8705 48.313 16.0466 49.2448 16.3987L49.2374 16.4061ZM48.3204 14.6453C44.9969 14.1537 42.1137 15.1442 40.595 18.2769C41.3286 15.9879 43.2875 14.1758 45.7819 14.1537C46.046 14.1537 48.5551 14.5132 48.3204 14.6453ZM46.4129 11.8207C48.7752 11.7107 51.5998 12.7965 53.5 14.1831C53.2065 14.1635 52.5186 14.5058 52.0643 14.7319L52.0643 14.7319C51.8371 14.845 51.6683 14.929 51.6365 14.9241C51.6055 14.9241 51.5001 14.8248 51.3516 14.685C51.1131 14.4603 50.7634 14.1309 50.4333 13.941C48.4891 12.7891 45.3564 11.9454 43.2435 13.0239C45.8039 12.459 48.988 13.2807 50.8955 15.1075C50.8564 15.1662 50.8197 15.2249 50.7854 15.2836C47.7921 14.073 43.4856 13.0019 40.9765 15.6357C41.6735 13.244 43.9991 11.9308 46.4055 11.8281L46.4129 11.8207ZM40.0769 11.8941C40.288 11.8951 42.7886 12.0048 42.7886 12.1435C41.1945 13.3588 40.6127 15.342 40.064 17.2124C39.9965 17.4423 39.9296 17.6705 39.8613 17.8954C39.3698 15.7825 38.7315 13.5888 37.0148 12.1435C37.0659 11.9975 39.7476 11.8951 40.0769 11.8941ZM32.8036 15.8411C35.1953 15.7751 37.587 16.927 38.8342 18.9812C37.4403 17.2644 35.4301 16.3474 33.2291 16.2667C32.6899 16.244 31.8236 16.3244 31.1172 16.3901C29.9974 16.4941 29.2794 16.5608 30.9034 16.1199C31.2482 16.0246 32.4588 15.8485 32.8036 15.8411ZM32.312 15.423C32.8036 15.401 33.2731 15.4523 33.7573 15.5257C32.9699 15.5599 32.1824 15.5966 31.395 15.6357C30.9401 15.555 32.0846 15.4303 32.312 15.423ZM31.0428 14.7187C31.6224 14.5132 32.5688 14.2711 33.1631 14.2271C36.5085 13.985 38.3647 15.8045 39.3331 18.8491C37.6824 14.9608 35.0412 14.2565 31.0428 14.7187ZM27.3746 13.3761C28.5264 12.6938 30.4266 11.9454 31.7471 11.8207C34.8138 11.5419 37.6751 12.5544 38.8342 15.599C36.1417 13.0826 32.0112 13.9777 28.9959 15.3496C28.9813 15.2665 28.969 15.1833 28.9592 15.1002C30.4486 13.3907 33.4492 12.5837 35.6208 12.8699C35.706 12.8834 35.8718 12.9266 36.0459 12.9719C36.5315 13.0983 37.0811 13.2413 36.1197 12.8038C33.8601 11.7767 29.9643 13.112 28.2183 14.7774C27.6568 14.5689 27.1871 14.4591 26.8505 14.3804C26.0259 14.1877 25.9992 14.1814 27.3746 13.3687V13.3761ZM18.8788 19.7589C19.1136 17.7046 20.8524 15.7898 22.9359 15.5624C25.063 15.3355 26.1474 16.2094 27.1888 17.0486C28.0331 17.7291 28.8492 18.3867 30.1698 18.4163C29.0173 18.1424 28.2398 17.4516 27.477 16.7739C26.074 15.5275 24.7206 14.3251 21.1752 15.8411C20.6249 16.3254 19.1796 17.3158 20.5442 16.1199C21.2706 15.4817 22.7599 14.726 23.7136 14.638C25.9154 14.445 27.3974 15.7752 28.2613 16.5506L28.2613 16.5506C28.5143 16.7777 28.7143 16.9572 28.8639 17.037C29.8248 17.5495 30.6865 17.3007 31.5667 17.0465C31.9969 16.9223 32.4315 16.7968 32.8843 16.7582C36.1857 16.4648 38.9956 18.2549 39.4065 21.659C37.2887 17.231 33.0995 18.1697 30.2489 18.8085C29.406 18.9973 28.6802 19.16 28.1596 19.1499C27.3544 19.1361 26.6762 18.8016 26.0023 18.4693C25.2454 18.096 24.494 17.7254 23.5742 17.8147C22.3197 17.9394 21.1605 19.1426 21.7401 20.4265C21.9675 17.4699 24.9095 17.6606 26.5088 19.6195C25.3056 20.2431 23.3541 20.6099 22.3417 19.5461C22.1509 21.0794 23.6549 22.2239 24.9535 22.7228C20.735 22.422 19.4878 17.9908 23.8237 16.5821C18.5414 16.8096 19.3264 23.3978 24.5647 23.7426C26.6671 23.8821 28.5061 23.1868 30.2822 22.5152C32.7082 21.5979 35.0168 20.7249 37.7191 22.0845C35.1803 21.0745 32.8283 22.0353 30.4707 22.9983C29.0606 23.5742 27.6486 24.151 26.1934 24.3075C23.0093 24.645 20.8084 23.5739 19.9867 20.3605C19.9867 22.8622 22.5911 25.1512 24.9168 25.5841C28.3444 26.2145 30.8061 25.0875 32.7397 24.2022C33.6411 23.7895 34.4278 23.4294 35.1439 23.3244C36.1683 23.1751 36.9133 23.3479 37.4574 23.4741C38.0629 23.6146 38.4197 23.6974 38.6361 23.2144C38.7609 21.7691 37.2495 21.0281 35.9876 20.9254C34.3005 20.7836 32.6764 21.3283 31.0717 21.8667C29.4385 22.4145 27.8253 22.9556 26.186 22.7595C25.3689 22.6616 25.5048 22.6353 26.048 22.5302C26.4411 22.4542 27.0477 22.3369 27.6607 22.1212C28.2838 21.9054 28.8979 21.6019 29.5325 21.2883C31.184 20.4722 32.9741 19.5876 35.4227 20.001C36.6993 20.2211 39.6339 22.0038 38.8416 23.5665C38.478 24.2842 37.537 24.2939 36.4118 24.3054C35.7887 24.3118 35.109 24.3188 34.4396 24.4469C33.6643 24.5932 32.948 24.8902 32.1859 25.2063C30.655 25.8412 28.9388 26.5529 26.186 26.2737C21.8722 25.8482 17.793 21.5123 20.757 17.3231C16.8173 21.6957 22.1803 27.2201 26.5088 28.4967C22.7819 28.4967 18.4973 23.3024 18.8862 19.7515L18.8788 19.7589ZM36.6186 19.7955C34.2697 19.0891 32.084 19.9115 30.0305 20.6841C27.8188 21.5163 25.7604 22.2909 23.8163 21.0354C25.8559 21.2914 27.6962 20.4743 29.4266 19.7061C30.7212 19.1313 31.9542 18.5839 33.1631 18.5337C34.601 18.4676 36.105 19.0105 37.2569 19.8689C38.1727 20.5511 37.8833 20.403 37.4121 20.1619C37.1435 20.0245 36.8157 19.8568 36.6186 19.7955ZM38.2693 22.8622C38.3844 23.2258 38.2281 23.1332 37.8366 22.9015C37.604 22.7638 37.2884 22.5769 36.8974 22.4073C37.477 22.378 37.8951 22.3927 38.2693 22.8622ZM18.9082 23.8893C19.7666 25.7968 20.779 27.0734 22.5104 28.2546C20.5662 27.8437 19.2897 26.0536 18.9816 24.1681C18.8715 25.5474 19.3704 27.4109 20.5002 28.2913L20.3902 28.4013C18.8055 27.5283 18.4753 25.5327 18.9082 23.8893ZM24.3446 28.6067C24.4522 28.6899 24.5573 28.773 24.66 28.8562C21.5053 33.7276 13.9854 28.6874 18.7028 23.1043C18.674 23.5933 18.5201 24.0664 18.3664 24.5392C18.2064 25.0312 18.0465 25.5228 18.0278 26.0316C17.8957 29.7292 21.8648 30.8517 24.3446 28.6067ZM14.8584 29.5605C14.765 30.2529 14.7797 30.9477 14.7945 31.6422C14.8052 32.1471 14.8159 32.6519 14.7851 33.1554C14.7649 33.4371 14.6873 33.8698 14.6203 34.2438C14.5162 34.8242 14.4376 35.2631 14.6383 34.7768C15.0496 33.7931 15.1053 32.5896 15.1626 31.3496C15.2332 29.8242 15.3064 28.2436 16.0469 26.9487C16.0313 27.344 15.9133 27.7309 15.7955 28.1173C15.6925 28.4552 15.5896 28.7927 15.5554 29.135C15.498 29.6838 15.5173 30.2784 15.5371 30.8879C15.5881 32.4619 15.6423 34.1355 14.3889 35.3783C13.7653 29.9346 14.1541 26.5965 18.2626 22.7595C18.1661 22.8975 18.0687 23.0362 17.9707 23.1757C16.6145 25.1057 15.1521 27.1868 14.8511 29.5678L14.8584 29.5605ZM16.7292 35.5251C16.7401 36.8374 16.8191 38.1496 16.898 39.4619C16.9259 39.9251 16.9538 40.3882 16.9787 40.8514C16.9787 40.8609 16.9921 40.8843 17.0116 40.9185C17.0974 41.0687 17.3022 41.427 17.0154 41.7318C16.7518 41.3412 16.8083 40.9415 16.8652 40.5385C16.897 40.3134 16.929 40.0872 16.9053 39.861C16.8848 39.6424 16.82 39.3953 16.7458 39.1125C16.5288 38.2847 16.2316 37.1511 16.7292 35.5324V35.5251ZM11.8578 50.6824C11.049 50.0485 11.9262 48.1338 12.6498 50.2561C12.0177 48.3608 12.3961 47.6851 13.6919 46.2438C11.6558 47.4222 11.9394 48.5543 12.0524 49.0055C12.0815 49.1217 12.0993 49.1927 12.0632 49.2077C9.63125 47.7117 10.9118 47.1632 12.684 46.4041C14.4404 45.6519 16.6797 44.6927 16.267 42.3994C16.2305 42.1999 16.11 42.01 16.0354 41.8925C15.9153 41.7034 15.9144 41.7019 16.5752 42.15C17.5407 42.1698 17.7029 41.3387 17.8632 40.5178C18.0586 39.5172 18.2511 38.5316 19.8913 39.12C20.6401 39.0204 20.5871 39.0051 20.267 38.9129C20.0446 38.8488 19.6932 38.7476 19.3924 38.5551C19.1356 38.3863 17.9031 36.9557 18.3359 37.1465L18.4445 37.2723C19.3576 38.3325 20.4015 39.5446 21.7914 38.4157C22.5471 37.7994 22.9433 36.4935 22.4664 35.6278L22.5691 35.4517C25.7899 38.0488 22.2683 41.6951 19.0109 40.2131C18.999 40.0521 19.2646 40.0644 19.6669 40.083C20.2543 40.1102 21.1332 40.1508 21.8648 39.6849C22.5413 39.2535 22.1893 39.3822 21.7959 39.5261L21.7959 39.5261C21.6005 39.5975 21.3948 39.6727 21.2999 39.6849C20.6381 39.7676 20.2127 39.5912 19.8579 39.4441C19.4576 39.2781 19.1471 39.1493 18.6881 39.4721C18.3294 39.7276 18.2535 40.1924 18.1738 40.6809C18.0383 41.5112 17.8916 42.41 16.3257 42.4654C16.8385 43.7706 16.4065 44.9514 16.2472 45.3868C16.1557 45.6367 16.1541 45.6411 16.4725 45.2827C16.7292 43.9327 16.9053 44.7911 16.5458 45.4294C16.3377 45.7906 15.7597 46.0279 15.1358 46.284C14.594 46.5064 14.0175 46.7431 13.6185 47.0875C12.8629 47.7331 12.3273 48.9729 13.0903 49.802C13.5892 50.3425 13.3924 49.9479 13.2273 49.617C13.1593 49.4808 13.0967 49.3554 13.0903 49.3104C12.8363 47.7297 14.0141 47.236 15.1865 46.7445C16.2833 46.2847 17.3755 45.8269 17.2868 44.483L17.2986 44.5168C17.589 45.3524 17.917 46.2959 18.9449 46.3538C17.9488 47.334 17.1502 47.2452 16.3552 47.1568C15.6804 47.0818 15.0083 47.007 14.2201 47.5863C13.2884 48.276 13.1857 49.0903 14.0734 49.846C14.2491 49.9938 14.3569 50.0335 14.3844 50.0436C14.3892 50.0453 14.3915 50.0462 14.3915 50.0466C14.3914 50.047 14.3889 50.0469 14.3839 50.0468C14.3466 50.0456 14.1688 50.0401 13.824 50.1982C13.6271 50.2889 13.4445 50.4029 13.2698 50.512C12.7804 50.8176 12.3533 51.0844 11.8504 50.6897L11.8578 50.6824ZM12.1439 55.1943C12.1292 56.8671 12.9509 58.2023 14.4036 59.002C12.5694 58.9286 11.8725 56.7277 12.1439 55.1943ZM16.3037 61.4744C15.6948 61.4304 15.0272 61.1443 14.719 60.594C14.2702 59.7996 14.4858 59.9525 14.8435 60.206C15.0706 60.3669 15.3548 60.5684 15.5627 60.594C15.1959 60.281 14.8315 59.9655 14.4696 59.6476C17.2061 60.8655 20.2288 60.6747 23.1047 60.1758C22.3417 60.5647 21.5273 60.9682 20.6763 61.1296C20.3241 61.1883 16.5238 61.4964 16.3037 61.4744ZM19.3997 61.6872C20.5736 61.6211 21.1458 61.9146 19.2603 61.8999C16.4211 63.5066 18.9742 66.3532 20.5296 67.8939C17.3895 67.0355 15.5701 61.8779 19.3924 61.6872H19.3997ZM32.0993 68.7376C31.3436 68.9723 28.9299 69.3465 30.9695 68.7376C30.1285 68.3274 29.3055 68.6877 28.4904 69.0445C28.1393 69.1982 27.7896 69.3513 27.4406 69.4419C23.3908 70.4983 20.4122 68.8476 19.7519 64.6438C19.6262 65.0517 19.7632 65.6352 19.8608 66.0508C19.9968 66.6295 20.0563 66.8828 19.2237 65.8837C18.1745 64.6144 18.0498 62.817 18.9742 62.3181C19.1609 62.2193 19.5033 62.2026 19.94 62.1814C20.9626 62.1316 22.5025 62.0567 23.7723 60.8435C23.9997 61.8119 22.4077 62.4795 21.6594 62.6042C21.1919 62.6829 20.7412 62.6558 20.3414 62.6317C19.4738 62.5794 18.8457 62.5415 18.8055 63.6314C19.2966 64.3076 19.6652 64.1861 20.149 64.0267C20.6626 63.8575 21.306 63.6455 22.3637 64.299C23.0105 64.7 23.4478 65.2242 23.8941 65.7591C24.8602 66.9171 25.8685 68.1256 29.1353 68.246C31.8205 68.3561 34.4103 67.6078 36.4352 65.8176C35.5988 66.9108 33.3685 68.3487 32.1066 68.7449L32.0993 68.7376ZM34.9532 67.7105L35.2026 67.461C37.8365 70.7771 41.7542 70.6157 44.52 67.5344L44.7695 67.7838C41.6441 71.0559 37.9979 71.1953 34.9605 67.7105H34.9532ZM56.7134 69.3759C54.028 70.3806 51.7668 69.284 50.8439 68.8365C50.6347 68.735 50.4943 68.6669 50.4333 68.6642C50.3722 68.6642 50.2013 68.7149 50.0051 68.7731L50.0051 68.7731C49.7534 68.8478 49.4601 68.9348 49.3035 68.943C46.9998 69.053 44.7548 67.4463 43.2728 65.803C45.4591 67.7031 47.9976 68.4148 50.8588 68.2314C53.8355 68.0505 55.0804 66.6713 56.125 65.5139C56.7333 64.8399 57.2737 64.2412 58.0486 63.9982C58.9807 63.7117 59.5714 63.9361 60.0197 64.1063C60.3406 64.2282 60.5886 64.3224 60.8365 64.1816C61.3379 62.612 60.3279 62.6024 59.1039 62.5908C57.8562 62.579 56.3862 62.565 56.0677 60.8948C57.4836 62.0828 58.9996 62.1317 59.9547 62.1625C60.2913 62.1734 60.5582 62.182 60.7264 62.2374C62.5973 62.8463 60.6971 65.869 59.9194 66.7127H59.7727C60.2789 65.6856 59.9928 63.2572 59.8461 65.6562C59.3692 67.2336 58.3127 68.7596 56.706 69.3612L56.7134 69.3759ZM59.3912 67.8939C60.8072 66.2798 63.8005 62.6262 60.1028 61.8266C63.9619 61.5771 62.8981 66.3679 59.3912 67.8939ZM64.2553 61.335C63.5437 61.5184 57.6598 61.1956 56.75 60.2419C57.0554 60.2679 57.3633 60.2968 57.673 60.3258L57.674 60.3259L57.6749 60.326L57.6757 60.3261L57.6763 60.3261L57.6768 60.3262L57.6772 60.3262H57.6773C60.0751 60.5512 62.5798 60.7862 64.8202 59.7797C65.3411 59.5522 64.7175 61.2176 64.2553 61.335ZM56.3245 59.6036C56.3588 59.496 56.3954 59.3908 56.4346 59.2881C60.8072 60.6234 65.84 57.8355 65.1797 52.876C66.537 58.1656 60.9319 61.2763 56.3245 59.6109V59.6036ZM63.4116 51.0345C65.3631 53.2868 64.7982 56.3902 62.4285 58.0849C59.4426 60.2272 54.5124 57.6154 56.3612 54.1379L56.461 54.1859L56.461 54.1859L56.4611 54.186C57.6487 54.7578 60.0969 55.9366 61.1593 55.4731C60.477 56.8964 58.5328 56.1481 57.491 55.5465C57.2591 55.4135 56.9986 55.1815 56.8087 55.0125C56.5481 54.7805 56.4209 54.6672 56.684 55.0916C57.6598 56.6543 61.3354 57.6447 61.6582 55.0549C62.2084 55.0256 62.4432 55.3998 62.2598 55.9353C62.0472 56.1002 61.8433 56.2542 61.6627 56.3905C60.8706 56.9885 60.5268 57.2481 61.8709 56.6029C63.2502 55.9427 62.5899 54.9449 62.1497 54.8422C62.045 54.8155 61.8472 54.8427 61.5872 54.8786C60.8457 54.9807 59.5977 55.1526 58.5548 54.3433C59.0244 54.5208 59.6884 54.467 60.3707 54.4117C61.4366 54.3254 62.547 54.2354 63.0301 55.0183C64.0939 56.735 59.8461 58.261 57.2783 56.1848C57.1955 56.1144 57.0618 55.982 56.9331 55.8546L56.933 55.8545L56.9329 55.8544C56.6055 55.5302 56.3099 55.2376 56.9628 56.0747C58.7969 58.4371 62.3332 58.173 63.595 56.5002C64.4901 55.3044 64.314 52.7806 63.3823 51.6361C62.9883 51.1507 62.3749 50.8874 62.0227 50.7362C61.5551 50.5355 61.5479 50.5324 63.1255 50.4696C65.0917 50.3962 66.3756 50.6163 67.5348 52.3404C66.3389 51.2399 65.055 50.719 63.4043 51.0345H63.4116ZM67.8576 55.5465C67.9456 56.8524 67.2413 58.0776 66.2362 58.8626C65.3283 59.3268 65.3547 59.3016 65.7339 58.9385C66.3015 58.3951 67.6596 57.0947 67.8576 55.5465ZM67.5421 48.9509C68.6646 49.2811 67.9456 51.1812 67.366 51.1079C67.3323 51.1026 67.2624 51.0486 67.1551 50.9658C66.8191 50.7065 66.1158 50.1638 65.0037 49.9414C65.2786 49.8852 65.5285 49.7432 65.7765 49.6024C66.1439 49.3938 66.5069 49.1876 66.9405 49.2664C68.085 50.2128 67.3587 49.3104 66.8011 48.7749C64.9985 47.0472 64.1361 47.1007 63.2783 47.1539C62.6243 47.1944 61.973 47.2348 60.9099 46.4859C61.5776 46.3746 61.7029 45.8985 61.7561 45.6961C61.7696 45.645 61.7784 45.6114 61.7902 45.6055C61.9467 45.7818 62.0434 45.9051 62.1018 45.9795C62.1502 46.0412 62.1721 46.0692 62.1798 46.0657C62.1861 46.0628 62.1825 46.0383 62.176 45.9933C62.1474 45.7963 62.0621 45.2079 62.5019 44.3363C62.6289 45.7664 63.4015 46.1803 64.4487 46.7414C65.2763 47.1848 66.2755 47.7201 67.2633 48.9216C66.7163 47.6219 65.7829 47.0034 64.9895 46.4777C64.4528 46.1221 63.9801 45.809 63.7344 45.356C63.2462 44.4475 63.3918 43.3522 63.4732 42.7399C63.5325 42.294 63.5578 42.1042 63.2796 42.4288C61.7737 42.2584 61.6813 41.4116 61.5963 40.6324C61.5459 40.1701 61.498 39.7316 61.1593 39.4721C60.6904 39.1026 60.3463 39.2647 59.923 39.4641C59.5649 39.6328 59.15 39.8283 58.5548 39.7509C58.5105 39.7449 58.3754 39.6912 58.2226 39.6306C57.8192 39.4704 57.2929 39.2614 57.9899 39.7509C58.6722 40.2278 59.626 40.2498 60.3816 39.9637C60.0882 41.2916 55.5469 40.4846 55.9797 37.2492C56.0898 36.3981 57.3443 35.0482 57.3883 35.415C56.574 37.0657 58.1293 39.5455 60.0295 38.5551C62.6119 35.8772 60.7998 38.5404 59.8167 38.9072C59.7969 38.9146 59.7239 38.9212 59.6351 38.9292L59.6351 38.9292L59.635 38.9292C59.4603 38.945 59.2248 38.9662 59.2151 39.0099C59.1984 39.1272 59.4227 39.0969 59.7482 39.0531C60.4208 38.9625 61.5253 38.8136 61.8269 39.7876C61.8547 39.8734 61.8717 40.0356 61.8926 40.2348C61.988 41.1423 62.1641 42.819 63.8005 41.5557C63.2429 43.1184 63.8225 44.7324 65.2458 45.6055C65.4934 45.7579 65.9349 45.9416 66.4327 46.1487C68.2353 46.8987 70.7771 47.9564 67.5348 48.9509H67.5421ZM63.0595 43.4926C63.1108 44.571 63.2649 45.356 63.9032 46.2438C62.9274 45.6642 62.766 44.5123 63.0595 43.4926ZM14.631 38.0929H14.6677C14.7704 38.1149 14.8584 38.1442 14.9391 38.1736C14.9566 38.1779 14.9714 38.1849 14.9853 38.1914C14.9947 38.1958 15.0036 38.1999 15.0125 38.2029C15.0347 38.2124 15.0555 38.2233 15.0755 38.2337L15.0755 38.2338L15.0756 38.2338C15.1019 38.2476 15.1269 38.2606 15.1519 38.2689C15.1815 38.2862 15.207 38.3019 15.2275 38.3144L15.2276 38.3145L15.2277 38.3145C15.2679 38.3392 15.2888 38.352 15.2839 38.3423C15.2815 38.3349 15.26 38.311 15.2165 38.2625C15.1303 38.1666 14.9577 37.9743 14.675 37.6233H14.3229C13.5452 37.704 12.4814 39.0906 12.6648 40.1985C12.7088 40.4552 12.7382 40.5726 12.7602 40.5873C12.7849 40.6038 12.8016 40.4855 12.8286 40.2938C12.8975 39.8042 13.0338 38.8354 13.5452 38.4083C13.7946 38.2029 14.0294 38.1075 14.2568 38.0782C14.3889 38.0562 14.5136 38.0709 14.631 38.0855V38.0929ZM26.7436 54.7028C26.7436 54.7028 26.7436 54.7175 26.7363 54.7175V54.7028H26.7436ZM26.7363 54.7028C24.8728 58.4371 25.7385 63.5433 30.8961 62.5969C26.2521 62.5015 25.5918 58.4591 26.7363 54.7028ZM49.8023 47.2929V47.3222H49.802L49.8023 47.2929ZM49.8019 47.3566L49.802 47.3222H49.7981L49.795 47.2929V47.3222H49.7981L49.8019 47.3566ZM49.8019 47.3566C49.7965 49.7853 51.2541 51.4877 52.4397 52.8725L52.4398 52.8726L52.4399 52.8727L52.4399 52.8727L52.44 52.8729C52.9291 53.4442 53.372 53.9614 53.6467 54.4533C55.4441 57.6667 54.2776 62.2301 50.7781 62.8463C50.2792 62.9344 49.729 62.9417 49.1347 62.8463C50.0958 63.1618 50.9689 63.2205 51.7245 63.0664C55.026 62.4282 56.3099 58.0042 54.5638 54.6588C54.1186 53.806 53.4118 53.0787 52.6757 52.3214L52.6757 52.3214C51.4098 51.0189 50.0576 49.6276 49.8019 47.3566ZM49.6189 62.0687C52.8397 60.5353 53.3899 56.9771 51.8492 53.9398H51.8272C52.7663 57.1532 51.9666 61.3423 48.159 61.8192C47.74 61.4701 48.0707 61.2428 48.6645 60.8348C49.1313 60.5142 49.7605 60.0818 50.3159 59.3908C52.084 57.1752 51.9153 54.3433 50.9835 51.8048C50.9909 51.8122 50.9909 51.8195 50.9909 51.8195V51.8048C53.0744 55.1943 54.7619 60.7481 49.6189 62.0687ZM44.5861 58.2317C44.4785 58.3637 44.3733 58.4909 44.2706 58.6132C44.498 59.3615 44.8649 59.5963 45.1363 59.5669C45.5838 59.5229 45.7599 58.7159 44.5934 58.2317H44.5861ZM41.1672 67.4977C40.9178 67.5637 40.661 67.6151 40.3969 67.6444L40.3896 67.6371C40.6377 67.6026 40.8793 67.5617 41.1144 67.5021L41.1672 67.4977ZM41.1599 67.4904L41.1144 67.5021C40.0114 67.5942 39.1911 67.6249 38.1006 67.3216C39.201 67.6224 40.0301 67.5857 41.1599 67.4904ZM67.0872 39.054C67.3319 40.5818 67.0937 41.0304 66.5122 42.1252C66.4487 42.2448 66.3811 42.3722 66.3096 42.5095C67.2633 41.5484 67.975 40.3012 67.0872 39.054ZM55.9343 66.1969C56.7937 65.2635 57.6535 64.3298 58.5475 64.2916L58.5548 64.299C60.0662 64.2403 58.8997 67.8719 57.2122 68.8183C56.7427 69.0751 56.1118 69.2218 55.4368 69.2878C54.2996 69.3905 53.0451 69.2658 52.2014 69.0237C51.002 68.684 51.1456 68.6594 51.823 68.5435C52.3596 68.4517 53.2312 68.3025 54.0355 67.8939C54.6771 67.5622 55.3056 66.8797 55.9343 66.1969L55.9343 66.1969ZM67.366 49.2004C67.4687 49.1046 67.2905 48.9513 67.2601 48.9252L67.256 48.9216L67.2615 48.9268C67.2959 48.9585 67.4542 49.1049 67.3587 49.2004H67.366ZM66.0895 46.3832C66.7057 47.1462 67.1973 47.9458 67.5714 48.8482C68.041 47.8211 66.8965 46.86 66.0895 46.3832ZM20.823 64.2916C20.0087 64.5484 20.9698 67.8572 22.5838 68.8109C23.5155 69.3612 25.0782 69.4199 26.3621 69.2218C26.7876 69.1558 27.1911 69.0604 27.5213 68.9503C28.6031 68.5833 28.4865 68.5682 27.8766 68.4895C27.3283 68.4186 26.3813 68.2963 25.5478 67.8205C24.9577 67.4869 24.436 66.8796 23.9048 66.2613C23.0227 65.2345 22.1143 64.1772 20.823 64.2916ZM53.1845 54.6294C54.9012 57.9162 54.1382 62.2301 50.58 62.6629L50.5727 62.6776C50.0665 62.7436 49.5016 62.7216 48.8779 62.6116C48.8535 62.5676 48.829 62.5211 48.8046 62.4722C49.3548 62.5235 49.8537 62.5015 50.3086 62.4062C53.5 61.7459 54.3877 57.7254 53.1772 54.6368C53.1808 54.6386 53.1835 54.6404 53.1856 54.6422C53.1845 54.6372 53.1845 54.6333 53.1845 54.6294ZM24.9388 55.4438C23.5889 59.0533 25.5257 63.7414 29.5975 63.1105C29.869 63.0664 30.1478 63.0004 30.4412 62.9124C25.8119 63.5653 24.3079 58.0336 26.1347 54.5927C26.4329 54.0279 26.9267 53.4658 27.4647 52.8534C28.6736 51.4772 30.106 49.8467 30.0451 47.3589C29.8495 49.5783 28.5377 50.9353 27.2522 52.2652C26.3194 53.2302 25.4004 54.1809 24.9315 55.4364L24.9388 55.4438ZM29.2014 61.8192C25.2983 60.1978 27.0077 54.4753 28.9226 51.8782V51.8856C26.6809 57.594 29.9667 60.0247 31.2455 60.9707C31.4985 61.1578 31.6729 61.2869 31.7105 61.3717C31.8425 61.6725 31.7398 61.8412 31.505 61.8853C30.8007 62.0247 28.8492 61.0709 28.1082 59.2514C27.1943 57.0257 27.7813 55.0955 28.0564 54.1911C28.1567 53.8613 28.2155 53.6679 28.1449 53.6463C26.8096 56.0674 26.7583 59.4715 28.9959 61.401C29.108 61.4944 29.3005 61.6221 29.479 61.7404C29.7212 61.901 29.9375 62.0444 29.891 62.0613C29.8616 62.076 29.6709 62.0173 29.2014 61.8192ZM23.2147 54.9082C22.5471 55.5905 21.4393 56.1848 20.3828 56.2948C19.5611 56.3829 18.7615 56.1701 18.2112 55.4731C18.3579 56.5369 19.3264 56.8304 20.3828 56.6763C21.564 56.5076 22.8626 55.7666 23.2221 54.9082H23.2147ZM34.7771 57.5934C35.1806 57.52 35.8996 57.6594 36.017 58.1216L36.0097 58.1289C36.1323 58.6605 35.9793 58.4915 35.7787 58.2701L35.7787 58.2701C35.6554 58.1339 35.5142 57.978 35.4081 57.9529C34.2489 57.6741 33.6913 59.5669 34.601 59.3982C34.3736 57.0358 36.8607 59.1781 34.2856 59.7797C33.2218 59.2955 33.9481 57.7474 34.7771 57.5934ZM45.4665 59.743C45.5471 59.743 45.6132 59.7283 45.6792 59.7137L45.6792 59.7136C46.6183 59.4349 45.914 57.3366 44.52 57.5934C44.1385 57.6667 43.713 58.4224 44.0212 58.349C44.1239 58.327 44.2999 58.2096 44.5934 57.9455C45.5031 57.7988 46.3248 59.1341 45.4738 59.7356L45.4665 59.743ZM39.9235 42.9889C39.7616 42.792 39.0528 42.1354 38.8709 42.15C38.838 42.1549 38.7707 42.2256 38.6696 42.3319L38.6696 42.3319C38.3202 42.699 37.5675 43.49 36.4352 43.4559C36.81 43.6171 37.0761 43.9415 37.3334 44.2552C37.5092 44.4695 37.6809 44.6789 37.8805 44.8278C38.1368 45.0171 38.3439 45.0804 38.505 45.1296C38.8372 45.2312 38.9739 45.273 38.9443 46.2364C41.0134 46.3138 40.9813 46.2061 40.8848 45.8827C40.8441 45.7463 40.7919 45.5715 40.8811 45.356C40.8945 45.3227 40.9534 45.3018 41.0521 45.2669C41.3872 45.1483 42.181 44.8674 43.2068 43.3825C42.1972 43.3694 41.6962 42.9228 41.3324 42.5986C40.8853 42.2001 40.6454 41.9864 39.9235 42.9889ZM37.9538 44.1895C37.7631 44.4096 40.1988 45.4808 41.8642 44.2996C41.349 44.0162 40.8121 44.0766 40.2688 44.1376L40.2687 44.1376C40.0383 44.1635 39.8068 44.1895 39.5752 44.1895C39.5633 44.1895 39.5294 44.1795 39.4783 44.1643C39.2789 44.1052 38.8175 43.9683 38.3794 44.0501C38.3739 44.0501 38.3559 44.0595 38.3293 44.0735C38.248 44.116 38.0864 44.2006 37.9538 44.1895ZM43.9845 67.1456C41.5054 65.3396 41.6829 63.423 41.8314 61.8194C41.9743 60.2766 42.0903 59.0235 39.788 58.4371C37.7875 59.2772 37.891 60.4066 38.0166 61.7782C38.1587 63.3292 38.3291 65.1899 35.5181 67.2923C39.92 72.0684 44.0652 67.7398 43.9771 67.1456H43.9845ZM39.7806 59.0754C41.3433 58.958 43.2068 62.2007 39.9274 63.514C36.8314 62.2081 38.4307 59.1781 39.7806 59.0754ZM37.2495 65.847C37.2916 65.8423 37.3876 65.8985 37.5339 65.9842C38.0766 66.3019 39.312 67.0252 41.0572 66.5513C41.4726 66.441 41.7108 66.2594 41.8917 66.1215C42.2763 65.8283 42.4017 65.7326 43.4196 66.9401C41.2626 69.3098 38.3133 69.3025 36.083 67.0135C36.1676 66.9526 36.4034 66.7015 36.6417 66.4477L36.6418 66.4476L36.6418 66.4476C36.9203 66.151 37.2021 65.8509 37.2495 65.847ZM40.0668 63.0958C42.033 62.1934 41.7909 59.9631 39.854 59.1487C37.9392 60.2272 37.8585 62.4135 40.0668 63.0958ZM39.7153 60.2649C39.7932 60.0805 39.8456 59.9566 39.7806 59.9264C38.7682 60.8361 38.7829 61.8412 39.9274 62.6042C40.7344 62.1274 41.1599 61.1809 40.529 60.3813C40.0294 59.7476 40.0784 60.021 40.1654 60.5069C40.2688 61.0842 40.426 61.9613 39.7806 61.9733C39.2588 61.3461 39.5468 60.664 39.7153 60.2649Z" fill="#121212"/>
<g clip-path="url(#clip0_8425_1492)">
<path fill-rule="evenodd" clip-rule="evenodd" d="M227.15 41.005C227.15 46.645 230.43 51.155 236.36 51.155C242.32 51.155 245.6 46.645 245.6 41.005C245.6 35.365 242.29 30.855 236.36 30.855C230.43 30.855 227.15 35.365 227.15 41.005ZM230.49 38.665C230.49 35.525 231.69 31.765 235.47 31.765V31.755C240.51 31.755 242.23 39.435 242.23 43.305C242.23 46.475 241.09 50.235 237.31 50.235C232.27 50.235 230.49 42.535 230.49 38.665ZM140.73 45.565C140.73 49.345 137.34 51.015 133.66 51.015C132.169 51.015 131.202 50.7461 130.369 50.5143C129.739 50.339 129.186 50.185 128.54 50.185C128.008 50.185 127.7 50.3012 127.503 50.3752C127.411 50.4097 127.344 50.435 127.29 50.435C127.18 50.435 127.1 50.355 127.1 50.245C127.1 48.965 126.99 46.855 126.88 45.595C126.88 45.485 126.96 45.405 127.07 45.405C127.18 45.405 127.29 45.485 127.32 45.595C128.38 48.825 130.41 50.185 133.33 50.185C136 50.185 137.92 49.045 137.92 46.795C137.92 44.4903 135.525 43.3957 132.953 42.2196C129.966 40.8545 126.74 39.3797 126.74 35.775C126.73 32.155 129.79 30.875 133.05 30.875C134.512 30.875 135.497 31.1354 136.363 31.3645C137.044 31.5444 137.652 31.705 138.36 31.705C138.897 31.705 139.211 31.5866 139.407 31.5128C139.496 31.4793 139.56 31.455 139.61 31.455C139.72 31.455 139.81 31.535 139.81 31.645C139.81 32.925 139.92 35.035 140.03 36.295C140.03 36.405 139.95 36.485 139.84 36.485C139.73 36.485 139.62 36.405 139.59 36.295C138.56 33.155 136.25 31.705 133.3 31.705C131.16 31.705 129.54 32.485 129.54 34.625C129.54 36.8163 131.86 37.8536 134.387 38.9832C137.406 40.3331 140.72 41.8147 140.72 45.555L140.73 45.565ZM87.32 50.325C86.06 50.265 84.31 49.625 84.31 46.955V35.635C84.31 35.465 84.34 35.465 84.42 35.605L91.58 50.485C91.66 50.625 91.8 50.735 91.97 50.735C92.14 50.735 92.3 50.625 92.36 50.485L99.23 35.515C99.31 35.375 99.34 35.375 99.34 35.545V46.955C99.34 49.635 97.58 50.265 96.33 50.325C96.22 50.325 96.14 50.405 96.14 50.515V50.545C96.14 50.655 96.22 50.735 96.33 50.735H105.68C105.79 50.735 105.87 50.655 105.87 50.545C105.87 50.405 105.79 50.325 105.68 50.325C104.43 50.265 102.68 49.625 102.68 46.955V35.045C102.68 32.375 104.43 31.735 105.68 31.675C105.79 31.675 105.87 31.595 105.87 31.455C105.87 31.345 105.79 31.265 105.68 31.265H100.23C100.06 31.265 99.92 31.375 99.84 31.515L93.26 45.815C93.18 45.955 93.12 45.955 93.04 45.815L86.17 31.515C86.09 31.375 85.95 31.265 85.78 31.265H80.19C80.08 31.265 80 31.345 80 31.455V31.485C80 31.595 80.08 31.675 80.19 31.675C81.45 31.735 83.2 32.375 83.19 35.045V46.955C83.19 49.635 81.44 50.265 80.19 50.325C80.08 50.325 80 50.405 80 50.515V50.545C80 50.655 80.08 50.735 80.19 50.735H87.32C87.43 50.735 87.51 50.655 87.51 50.545C87.51 50.405 87.43 50.325 87.32 50.325ZM111.62 50.325C111.51 50.325 111.43 50.405 111.43 50.515V50.545C111.43 50.655 111.51 50.735 111.62 50.735H120.97C121.08 50.735 121.16 50.655 121.16 50.545C121.16 50.405 121.08 50.325 120.97 50.325C119.72 50.265 117.97 49.625 117.97 46.955V35.045C117.97 32.375 119.72 31.735 120.97 31.675C121.08 31.675 121.16 31.595 121.16 31.455C121.16 31.345 121.08 31.265 120.97 31.265H111.62C111.51 31.265 111.43 31.345 111.43 31.455V31.485C111.43 31.595 111.51 31.675 111.62 31.675C112.87 31.735 114.62 32.375 114.62 35.045V46.955C114.62 49.635 112.87 50.265 111.62 50.325ZM146.87 35.575C147.31 33.405 148.84 32.095 151.29 32.095H151.3C151.61 32.095 152.22 32.125 152.83 32.235C153 32.255 153.11 32.395 153.11 32.565V46.945C153.11 49.625 151.35 50.255 150.1 50.315C149.97 50.315 149.91 50.395 149.91 50.505V50.535C149.91 50.645 149.99 50.725 150.1 50.725H159.45C159.56 50.725 159.64 50.645 159.64 50.535C159.64 50.395 159.56 50.315 159.45 50.315C158.2 50.255 156.45 49.615 156.45 46.945V32.565C156.45 32.405 156.56 32.265 156.73 32.235C157.37 32.125 157.98 32.095 158.29 32.095C160.73 32.095 162.27 33.405 162.71 35.575C162.74 35.685 162.85 35.765 162.96 35.765C163.09 35.765 163.15 35.685 163.15 35.575C163.036 34.1685 163.002 33.2247 162.961 32.0987L162.96 32.0973C162.951 31.8388 162.941 31.5706 162.93 31.285C162.93 31.175 162.86 31.095 162.74 31.095C162.697 31.095 162.652 31.1026 162.58 31.1147C162.451 31.1365 162.234 31.1728 161.79 31.205C160.969 31.2767 160.269 31.2722 159.527 31.2675C159.338 31.2662 159.147 31.265 158.95 31.265H150.63C150.464 31.265 150.302 31.2656 150.143 31.2661C149.363 31.2689 148.646 31.2715 147.79 31.205C147.329 31.1721 147.111 31.1349 146.985 31.1133C146.919 31.102 146.878 31.095 146.84 31.095C146.73 31.095 146.65 31.175 146.65 31.285L146.643 31.4844C146.597 32.9079 146.564 33.9307 146.43 35.575C146.43 35.685 146.48 35.765 146.62 35.765C146.73 35.765 146.84 35.685 146.87 35.575ZM168.43 50.515C168.43 50.405 168.51 50.325 168.62 50.325C169.87 50.265 171.62 49.635 171.62 46.955V35.045C171.62 32.375 169.87 31.735 168.62 31.675C168.51 31.675 168.43 31.595 168.43 31.485V31.455C168.43 31.345 168.51 31.265 168.62 31.265H177.97C178.08 31.265 178.16 31.345 178.16 31.455C178.16 31.595 178.08 31.675 177.97 31.675C176.72 31.735 174.97 32.375 174.97 35.045V46.955C174.97 49.625 176.72 50.265 177.97 50.325C178.08 50.325 178.16 50.405 178.16 50.545C178.16 50.655 178.08 50.735 177.97 50.735H168.62C168.51 50.735 168.43 50.655 168.43 50.545V50.515ZM183.73 50.545C183.73 50.655 183.81 50.735 183.92 50.735L183.9 50.725H193.25C193.36 50.725 193.44 50.645 193.44 50.535V50.505C193.44 50.395 193.39 50.315 193.25 50.315C192 50.255 190.25 49.615 190.25 46.945V41.435C190.25 41.265 190.36 41.125 190.53 41.095C191.37 40.985 193.01 40.985 193.01 40.985C196.9 40.985 197.4 42.735 197.46 43.985C197.46 44.125 197.54 44.175 197.65 44.175H197.68C197.79 44.175 197.87 44.095 197.87 43.985V37.145C197.87 37.035 197.79 36.955 197.68 36.955C197.54 36.955 197.46 37.035 197.46 37.145C197.4 38.405 196.9 40.155 193.48 40.155C193.06 40.155 191.37 40.155 190.53 40.045C190.36 40.025 190.25 39.885 190.25 39.715V32.675C190.25 32.505 190.36 32.365 190.53 32.335C191.45 32.165 192.76 32.085 193.98 32.085L194.069 32.0849C195.508 32.0832 199.205 32.0789 199.91 35.565C199.94 35.675 200.05 35.755 200.16 35.755C200.3 35.755 200.36 35.675 200.36 35.565C200.25 34.2118 200.214 33.199 200.174 32.0835C200.164 31.7811 200.153 31.4712 200.14 31.145C200.14 31.035 200.06 30.955 199.95 30.955C199.917 30.955 199.882 30.9699 199.828 30.993C199.698 31.0478 199.46 31.1487 198.89 31.205C198.291 31.2769 197.525 31.2722 196.747 31.2674C196.551 31.2662 196.355 31.265 196.16 31.265H183.92C183.81 31.265 183.73 31.345 183.73 31.455V31.485C183.73 31.595 183.78 31.675 183.92 31.675C185.17 31.735 186.92 32.375 186.92 35.045V46.955C186.92 49.635 185.17 50.265 183.92 50.325C183.79 50.325 183.73 50.405 183.73 50.515V50.545ZM215.11 31.455V31.485C215.11 31.595 215.05 31.675 214.92 31.675C213.67 31.735 211.92 32.375 211.92 35.045V49.315C211.92 49.485 212.03 49.625 212.2 49.645C213.12 49.835 214.45 49.895 215.68 49.895L215.784 49.8951C217.449 49.8968 221.145 49.9005 221.86 46.415C221.89 46.305 222 46.225 222.11 46.225C222.25 46.225 222.3 46.305 222.3 46.415C222.167 48.048 222.133 49.0861 222.087 50.4963L222.08 50.725C222.08 50.835 222 50.915 221.89 50.915C221.839 50.915 221.782 50.9044 221.688 50.8869C221.58 50.8667 221.423 50.8373 221.17 50.805C220.368 50.7141 219.464 50.7188 218.627 50.7232C218.451 50.7241 218.278 50.725 218.11 50.725H205.59C205.48 50.725 205.4 50.645 205.4 50.535V50.505C205.4 50.395 205.46 50.315 205.59 50.315C206.84 50.255 208.59 49.625 208.59 46.945V35.045C208.59 32.375 206.84 31.735 205.59 31.675C205.45 31.675 205.4 31.595 205.4 31.485V31.455C205.4 31.345 205.48 31.265 205.59 31.265H214.94C215.05 31.265 215.13 31.345 215.13 31.455H215.11ZM257.42 46.955C257.42 49.625 259.17 50.265 260.42 50.325C260.53 50.325 260.61 50.405 260.61 50.545C260.61 50.655 260.53 50.735 260.42 50.735H251.07C250.96 50.735 250.88 50.655 250.88 50.545V50.515C250.88 50.405 250.94 50.325 251.07 50.325C252.32 50.265 254.07 49.635 254.07 46.955V35.045C254.07 32.375 252.32 31.735 251.07 31.675C250.96 31.675 250.88 31.595 250.88 31.455C250.88 31.345 250.96 31.265 251.07 31.265H263.25C266.64 31.265 268.73 32.875 268.73 35.935C268.73 38.995 266.67 40.855 264.56 41.725C264.42 41.805 264.37 41.915 264.48 42.055L267.73 46.955C269.43 49.515 271.43 50.265 272.68 50.325C272.82 50.325 272.87 50.405 272.87 50.545C272.87 50.655 272.79 50.735 272.68 50.735H267.9C266.95 50.735 266.01 50.235 265.48 49.455L260.75 42.385C260.64 42.245 260.47 42.165 260.31 42.165H257.69C257.52 42.165 257.41 42.275 257.41 42.445V46.955H257.42ZM257.42 40.355C257.42 40.525 257.53 40.715 257.67 40.775C258.34 41.105 259.62 41.335 260.79 41.335C263.43 41.335 265.24 40.275 265.24 37.305C265.24 34.495 263.63 32.105 260.09 32.105C259.73 32.105 258.62 32.135 257.7 32.245C257.53 32.275 257.42 32.415 257.42 32.575V40.355ZM295.81 50.3151C294.56 50.2551 293.33 49.6251 292.36 47.1451V47.1551L286.3 31.5251C286.22 31.3851 286.08 31.2751 285.91 31.2751H284.32C284.15 31.2751 284.01 31.3851 283.93 31.5251L277.95 47.1551C277 49.6551 275.72 50.2651 274.47 50.3251C274.34 50.3251 274.28 50.4051 274.28 50.5451C274.28 50.6551 274.36 50.7351 274.47 50.7351H281.09C281.2 50.7351 281.28 50.6551 281.28 50.5451C281.28 50.4051 281.23 50.3251 281.09 50.3251C279.84 50.2651 278.19 49.6551 279.14 47.1551L279.97 44.9251C280.05 44.7851 280.19 44.6751 280.36 44.6751H287.54C287.71 44.6751 287.87 44.7851 287.93 44.9251L288.85 47.2851C289.82 49.7551 288.46 50.2551 287.21 50.3151C287.1 50.3151 287.02 50.3951 287.02 50.5351C287.02 50.6451 287.1 50.7251 287.21 50.7251H295.81C295.92 50.7251 296 50.6451 296 50.5351C296 50.3951 295.92 50.3151 295.81 50.3151ZM287.32 43.4251C287.4 43.5651 287.32 43.6751 287.15 43.6751H280.76C280.59 43.6751 280.51 43.5651 280.59 43.4251L283.82 34.9451C283.9 34.8051 283.98 34.8051 284.04 34.9451L287.32 43.4251Z" fill="#121212"/>
</g>
<defs>
<clipPath id="clip0_8425_1492">
<rect width="216" height="20.31" fill="white" transform="translate(80 30.845)"/>
</clipPath>
</defs>
</svg>
