<svg xmlns="http://www.w3.org/2000/svg" fill="none" viewBox="0 0 24 24" height="24" width="24">
<g clip-path="url(#clip0_937_6330)">
<circle stroke-width="0.3" stroke="#FF6D1F" fill="#FFEDE8" r="11.85" cy="12" cx="12"></circle>
<path fill="#FC9F02" d="M5.74902 6.62621H18.5008V20H5.74902V6.62621Z"></path>
<path fill="#FFD92E" d="M12.1253 10.1953L12.8847 11.7341L14.5827 11.9809L13.354 13.1785L13.644 14.8696L12.1253 14.0711L10.6065 14.8696L10.8966 13.1785L9.66797 11.9809L11.366 11.7341L12.1253 10.1953Z"></path>
<path fill="#FB7817" d="M5.74902 20.0003L8.46733 17.282H15.7825L18.5008 20.0003H5.74902Z"></path>
<path fill="black" d="M15.3904 8.67741C15.3183 8.67741 15.2491 8.64874 15.198 8.59771C15.147 8.54667 15.1183 8.47745 15.1183 8.40527V5.53784C15.1183 4.7439 14.8029 3.98247 14.2415 3.42107C13.6801 2.85967 12.9187 2.54428 12.1248 2.54428C11.3308 2.54428 10.5694 2.85967 10.008 3.42107C9.44659 3.98247 9.1312 4.7439 9.1312 5.53784V8.40527C9.1312 8.47745 9.10252 8.54667 9.05149 8.59771C9.00045 8.64874 8.93123 8.67741 8.85906 8.67741C8.78688 8.67741 8.71766 8.64874 8.66662 8.59771C8.61559 8.54667 8.58691 8.47745 8.58691 8.40527V5.53784C8.58691 4.59954 8.95965 3.69968 9.62312 3.03621C10.2866 2.37274 11.1865 2 12.1248 2C13.063 2 13.9629 2.37274 14.6264 3.03621C15.2899 3.69968 15.6626 4.59954 15.6626 5.53784V8.40527C15.6626 8.47745 15.6339 8.54667 15.5829 8.59771C15.5318 8.64874 15.4626 8.67741 15.3904 8.67741Z"></path>
</g>
<defs>
<clipPath id="clip0_937_6330">
<rect fill="white" height="24" width="24"></rect>
</clipPath>
</defs>
</svg>
