<?xml version="1.0" encoding="UTF-8"?>
<svg id="Layer_1" data-name="Layer 1" xmlns="http://www.w3.org/2000/svg" viewBox="0 0 1872.62 269.4">
  <defs>
    <style>
      .cls-1 {
        fill: #007bc4;
      }

      .cls-2 {
        fill: #242424;
      }
    </style>
  </defs>
  <path class="cls-2" d="M0,0h69.45l111.12,189.71L291.33,0h65.43l-150.97,251.12c-6.95,11.33-15.35,18.28-27.42,18.28s-20.84-6.95-27.42-18.28L0,0Z"/>
  <path class="cls-2" d="M381.61,265.75V0h241.26v57.02h-184.6v151.7h184.96v57.02h-241.62ZM471.54,153.16v-44.96h141.1v44.96h-141.1Z"/>
  <path class="cls-2" d="M659.42,265.75V0h241.26v57.02h-184.6v151.7h184.96v57.02h-241.62ZM749.34,153.16v-44.96h141.1v44.96h-141.1Z"/>
  <path class="cls-1" d="M1169.34,0h55.56v148.41c0,82.25-41.31,120.99-145.85,120.99s-145.85-38.75-145.85-120.99V0h58.85v148.41c0,47.15,20.47,65.07,88.83,65.07s88.46-17.91,88.46-65.07V0Z"/>
  <path class="cls-1" d="M1521.71,265.75l-100.52-101.99-99.06,101.99h-73.84l138.9-138.17L1258.52,0h78.59l89.92,91.38L1515.86,0h73.84l-128.3,127.57,140,138.17h-79.69Z"/>
  <path class="cls-1" d="M1631,265.75V0h241.26v57.02h-184.6v151.7h184.96v57.02h-241.62ZM1720.92,153.16v-44.96h141.1v44.96h-141.1Z"/>
</svg>