<svg xmlns="http://www.w3.org/2000/svg" viewBox="0 0 2048 1752" width="512" height="438"><path transform="translate(0)" d="m0 0h2048v1752h-2048z" fill="#FDFDFD"></path><path transform="translate(1051,168)" d="m0 0h166l6 4 5 7 3 9 8 43 7 34 2 6 31 11 28 12 19 10 4-1 17-12 19-13 21-14 12-7 4-1h20l9 4 10 9 31 31 7 8 50 50 7 10 3 7v17l-4 10-10 16-9 13-12 19-12 18 1 7 8 18 6 13 13 35 4 9 8 3 57 11 23 6 8 5 4 6 1 26v143l-6 9-10 5-22 5-50 10-13 3-3 7-10 29-13 31-6 12v5l28 42 9 6v2h37l19 4 18 5 20 10 17 11 13 10 8 8 9 11 9 13 12 23 7 21 3 14 1 9v54l-3 21-5 17-11 24-7 11-9 12-9 10-9 9-16 11-15 9-10 5-14 5-15 4-12 3h-1150l-20-5-21-7-17-9-18-12-10-9-13-13-12-17-11-20-8-22-4-17-2-15v-43l5-27 5-16 7-16 11-19 9-12 19-19 15-11 17-10 16-7 8-2-5-5-8-6-7-8-7-14-1-5v-39l13-50 5-19 9-31 8-31 11-42 12-47 14-50 5-18 6-12 8-9 13-9 16-8 20-6 26-5 7-1-3-5-9-11-8-15-4-13-2-11v-46l3-14 8-19 7-11 13-13 14-10 17-8 12-3h51l16 4 16 8 11 8 15 15 8 13 7 16 2 9 1 10v39l-2 3-1 13-7 17-9 13-8 9-1 3h8l30 6 16 6 9 3 5-3 2-9 11-25 7-14-1-6-8-11-9-16-3-7-5-4-12-18-8-13-1-3v-20l4-10 10-11 1-2h2l2-4 89-89 4-2h22l9 2 16 10 15 11 36 24 6-1 25-12 25-10 25-9 2-1 8-42 8-38 4-12 6-8z" fill="#010101"></path><path transform="translate(0)" d="m0 0h2048v1752h-2048zm292 43-72 1-16 3-22 7-17 7-20 11-15 10-18 14-8 7-9 8-7 8-10 13-14 21-9 17-8 19-7 24-4 16-1 16v1250l1 21 3 19 5 19 8 21 12 25 11 16 13 17 12 13 14 12 16 12 16 10 18 10 19 8 19 6 14 3 11 1h1591l13-1 24-6 19-7 22-11 14-8 10-7 14-11 14-12 9-9 8-10 11-15 11-18 9-19 9-24 4-15 2-12 1-14v-1268l-1-14-8-31-10-25-8-16-10-16-9-12-9-11-6-7-8-7-9-8-16-12-18-11-14-8-21-9-22-7-14-3-120-1z" fill="#AFD174"></path><path transform="translate(1199,952)" d="m0 0 8 1 5 3 67-1 2-1h32l6 1 5-1h94l5 1h15l4-2 103 2 8 1 11 1 16 5 13 6 11 6 13 9 13 12 13 17 9 15 6 14 5 15 2 10v35l-4 17-8 19-8 14-9 12-9 10-5 5-8 7-16 10-16 8-9 3-14 4-18 1-54 1h-269l-31-1-1 1-297 1h-77l-365-1-2-1h-15l-11-4-12-3-19-9-14-9-10-8-7-7-11-14-8-13-8-15-7-18v-8l-2-6v-23l2-12 3-13 8-20 6-12 8-11 11-13 9-9 16-11 16-8 9-4 6-2 10-1 16-2 1-1 309-1h267l8 2h103l3-1 21-1 2 1 19 1 8-3z" fill="#FDFDFC"></path><path transform="translate(1076,209)" d="m0 0h115l2 5 16 81 2 10 9 4 36 12 28 12 23 12 12 7 4 1h14l15-9 11-8 27-18 11-8 7-5 5 1 8 8 10 8 7 8 9 9 7 8 35 35 3 2-1 4-9 13-15 24-12 17-7 11-4 10v12l4 9 14 27 9 20 9 25 7 23 2 8 12 3 54 11 30 7 1 1v116l-16 4-79 16-2 1-8 28-9 25-13 30-11 20-4 8-1 11 3 9 16 24 7 11v3h-105l-4-4h-40l-1-290h-295l-1 289-11 1h-30l-1 4-4 1h-135l2-4 9-9 6-14 1-5v-35l-7-29-9-32-6-25-15-59-7-24-10-38-9-32-3-14-7-27 1-5v-14l10-24 11-23 10-19 3-6 1-5v-10l-3-8-11-17-26-39-7-10-1-4 70-70 7-8 2-2 5 1 13 9 57 38h16l28-15 27-13 25-9 30-9 6-27 11-55z" fill="#FDFDFD"></path><path transform="translate(0)" d="m0 0h2048v1752h-2048zm215 18-25 6-27 9-20 9-16 9-16 11-18 14-17 16-10 11-14 19-11 18-11 21-8 20-8 25-3 14-1 8v1299l5 21 6 20 10 24 12 23 14 21 10 13 11 12 14 14 20 15 15 10 22 12 18 8 27 9 21 5h1616l18-4 20-6 21-8 19-9 21-13 15-11 16-13 18-18 12-16 12-18 14-27 9-21 7-21 4-18 1-11v-1285l-1-14-8-30-10-26-10-21-12-20-10-13-8-10-9-10-7-7-8-7-15-12-19-13-18-10-21-9-33-11-19-4z" fill="#FEFEFE"></path><path transform="translate(1141,407)" d="m0 0h44l26 3 25 6 23 8 25 12 19 12 14 10 13 12 9 8 9 11 11 13 10 15 7 12 11 23 6 17 4 14 4 17 3 21 2 21v20l-4 37-6 26-8 24-10 21-10 18-7 10-1 8v104l-12 1h-28l-1-290h-295l-1 289-11 1h-17l-11-1-1-91-6-9-10-13-11-17-12-22-6-14-8-26-5-26-2-18v-44l2-18 6-29 6-21 9-21 12-23 10-15 8-10 12-14 13-13 14-11 18-13 22-12 23-10 25-7 26-5z" fill="#94C54B"></path><path transform="translate(1051,168)" d="m0 0h166l6 4 5 7 3 9 8 43 7 34 2 6 31 11 28 12 19 10 4-1 17-12 19-13 21-14 12-7 4-1h20l9 4 10 9 31 31 7 8 50 50 7 10 3 7v17l-4 10-10 16-9 13-12 19-12 18 1 7 8 18 6 13 13 35 4 9 8 3 57 11 23 6 8 5 4 6 1 26v143l-6 9-10 5-22 5-50 10-13 3-3 7-10 29-13 31-6 12v5l28 42-2 4-3 1h-45l-2 2-5-10-9-13-10-15-3-9 1-11 6-12 10-18 12-28 10-28 7-25 7-3 89-18h2l-1-116-30-7-58-12-8-2-3-9-8-26-8-22-11-24-8-15-7-14-1-3v-12l4-10 7-11 14-20 16-26 7-9v-3l-8-7-36-36-7-8-9-9v-2l-4-2-15-14-6 1-10 8-33 22-19 13-7 4h-14l-8-3-21-12-21-10-23-9-38-13-2-2-18-91-1-5h-115l-5 26-13 64-3 9-30 9-17 6-16 7-25 12-22 12h-16l-57-38-13-9-5-1-7 7-7 8-64 64 2 5 32 48 12 19 2 6v10l-3 9-8 15-8 16-9 20-7 17-1 5-30-30v-2l-4-2 2-10 11-25 7-14-1-6-8-11-9-16-3-7-5-4-12-18-8-13-1-3v-20l4-10 10-11 1-2h2l2-4 89-89 4-2h22l9 2 16 10 15 11 36 24 6-1 25-12 25-10 25-9 2-1 8-42 8-38 4-12 6-8z" fill="#95C54B"></path><path transform="translate(585,551)" d="m0 0h43l6 1 15 1 26 3 19 4 12 4 17 8 10 9 5 10 7 23 8 30 7 27 2 6 1 7 5 15 6 12 2 3v13l8 32 6 16 4 13 3 23 5 20 8 29v6l-6 6-5-1-5-6-17-67-15-56-9-34-3-7-6-27-5-16-1-4-15-3-3-1h-15l-7 3-4 8-1 252-2 1h-157l-1-1-1-254-2-4-7-4-4-1h-20l-8 3-4 4-4 13-16 61-11 42-15 56-9 34-6 9h-4l-6-6v-7l10-36 11-44 7-25 15-57 13-49 14-52 3-10 6-8 11-8 16-7 19-5 21-4 17-1z" fill="#FDFDFC"></path><path transform="translate(1155,449)" d="m0 0h18l27 4 20 5 25 10 15 8 21 14 10 8 10 9 11 11 9 11 10 14 14 25 8 19 2 9-7-6-8-6-10-3h-309l-13 2-14 7-7 10-2 10-1 125-3-3-6-16-6-21-5-27-1-17 3-27 5-23 6-18 9-21 8-14 10-15 13-16 18-18 14-11 15-10 16-9 11-5 24-8 22-5z" fill="#FEFEFE"></path><path transform="translate(1072,1452)" d="m0 0h35l9 2 11 2 13 7 10 9 7 11 5 11 1 5-25 5-21 4-2-1-5-10-7-6-7-2h-17l-8 3-8 6-4 5-4 9-2 9v32l4 16 5 8 7 6 7 3 5 1h14l14-3 11-5h2v-14l-32-1-1-1v-35h76v68l-1 3-24 14-19 7-3 1-11 1-5 2h-28l-7-2-13-2-14-6-12-9-7-7-7-11-6-13-5-21v-31l4-17 5-12 7-12 12-12 10-7 12-6 17-3z" fill="#010101"></path><path transform="translate(1097,1009)" d="m0 0h26l14 4 13 7 10 8 8 9 8 14 4 11 2 11v17l-4 16-7 14-8 10-7 7-14 9-13 5-8 2h-25l-16-5-11-6-9-7-9-10-8-15-4-14v-26l4-16 8-15 12-13 12-9 11-5z" fill="#010101"></path><path transform="translate(899,1008)" d="m0 0 18 2 13 5 12 7 11 10 9 13 5 11 3 10 1 9v12l-3 16-5 11-6 10-11 12-13 9-15 6-9 2h-24l-16-5-10-5-10-8-9-10-7-12-5-16v-28l4-15 7-13 8-10 7-7 10-7 11-5 10-3z" fill="#010101"></path><path transform="translate(332,1456)" d="m0 0h94l18 6 9 6 6 7 6 12 3 15v14l-4 17-6 11-7 8-10 6-9 3-14 3h-37v56h-49z" fill="#010101"></path><path transform="translate(1300,1008)" d="m0 0h9l16 2 16 7 12 9 8 8 9 14 5 13 2 11v17l-3 14-5 12-7 11-12 12-11 7-12 5-12 3h-19l-16-4-12-6-9-7-6-5-9-12-6-12-4-16v-21l3-12 5-12 7-10 9-10 12-9 13-6 8-2z" fill="#010101"></path><path transform="translate(679,1008)" d="m0 0h10l14 2 13 5 10 6 10 9 7 8 8 14 4 12 1 6v20l-3 14-6 13-7 10-4 5-11 9-16 8-15 4h-18l-16-4-14-7-10-8-7-7-9-14-5-13-2-11v-17l3-14 8-16 8-11 11-10 14-8 13-4z" fill="#010101"></path><path transform="translate(1507,1008)" d="m0 0 18 2 13 5 11 6 12 11 9 13 6 13 3 13v18l-3 14-5 12-7 11-11 11-14 9-13 5-10 2h-18l-15-4-16-8-10-9-9-10-7-12-4-12-1-5v-24l4-15 7-13 8-10 11-10 14-8 13-4z" fill="#010101"></path><path transform="translate(464,1009)" d="m0 0h25l12 3 16 8 12 10 9 12 7 14 3 11 1 14-1 13-5 16-8 14-11 12-10 7-12 6-16 4h-18l-16-4-14-7-11-9-9-10-8-15-4-13-1-10v-9l2-14 5-13 6-10 9-10 7-7 14-8 11-4z" fill="#010101"></path><path transform="translate(823,1456)" d="m0 0h44v164h-40l-1-1v-14l-5 5-8 7-12 5-7 2h-12l-15-5-9-7-7-9-6-12-4-16-1-5v-23l4-18 7-14 6-7 10-7 13-5h17l15 5 10 7 1-2z" fill="#010101"></path><path transform="translate(1491,1456)" d="m0 0h44v164h-40l-1-1v-14l-5 5-7 6-9 5-10 3h-14l-14-5-10-8-6-8-6-12-4-16-1-6v-22l4-18 7-14 11-11 12-6 6-2h16l16 5 10 7 1-2z" fill="#010101"></path><path transform="translate(643,1496)" d="m0 0h23l16 4 14 7 10 9 7 10 5 12 3 14v17l-4 16-5 10-7 9-10 9-14 7-12 2-2 2h-23l-21-6-14-9-7-7-7-11-4-10-3-13v-14l3-16 8-16 7-8 8-7 14-7z" fill="#010101"></path><path transform="translate(1613,1496)" d="m0 0h25l21 5 11 6 10 9 6 10 5 13 2 9 1 23-1 1-88 1 2 7 5 7 8 4h13l8-2 6-4 1-1h8l7 2h12l16 2-2 5-7 9-8 9-9 6-9 4-11 1-6 2h-25l-5-2-12-2-13-7-9-8-8-12-5-14-2-10v-17l4-18 7-13 9-10 8-6 10-5z" fill="#010101"></path><path transform="translate(1234,1499)" d="m0 0 3 1 1 77 4 7 7 3h7l7-2 6-8 1-3 1-51 1-23 3-1 41 1v119l-1 1h-40l-1-6 1-13h-2l-2 4-10 10-9 5-12 4h-14l-12-4-9-6-6-8-4-10-1-6v-90z" fill="#010101"></path><path transform="translate(608,377)" d="m0 0h10l12 5 10 6 14 14 7 12 5 15-1 7-4 10-10 14-9 9-11 7-16 6-9-1-16-8-10-8-8-9-8-16-3-9 1-7 6-15 8-11 8-8 14-9z" fill="#FCFDFB"></path><path transform="translate(560,1495)" d="m0 0 10 1 14 7-1 6-11 24-3 2-5-2h-11l-6 4-5 9-3 15-2 59h-42l-1-74v-46h41v18h2l2-6 7-9 5-4 5-3z" fill="#010101"></path><path transform="translate(1343,1500)" d="m0 0h44v119l-1 1h-43z" fill="#010101"></path><path transform="translate(468,1040)" d="m0 0h10l12 3 9 6 8 9 5 12 1 4v9l-4 13-6 9-8 7-8 4-9 2h-9l-10-3-9-5-8-9-5-10-2-12 2-13 5-10 9-9 12-6z" fill="#FBFCFA"></path><path transform="translate(1099,1046)" d="m0 0h14l9 3 7 4 5 4 7 10 3 8 1 5v9l-3 12-6 9-7 7-10 5-12 2-13-2-10-5-6-5-6-9-4-11v-14l3-10 6-9 9-8 9-4z" fill="#FCFCFA"></path><path transform="translate(1500,1042)" d="m0 0 13 1 9 4 8 6 6 7 5 11 1 5v9l-3 12-6 10-8 7-11 5-4 1h-13l-10-3-9-6-7-8-5-10-1-4v-15l3-10 8-11 8-6 10-4z" fill="#FCFCFA"></path><path transform="translate(1298,1038)" d="m0 0h16l11 4 9 7 6 9 4 10 1 11-3 12-5 9-6 7-10 6-7 2h-16l-11-4-8-6-7-9-4-11-1-12 3-12 6-9 8-8 10-5z" fill="#FCFDFA"></path><path transform="translate(888,1046)" d="m0 0h15l12 5 7 5 8 11 3 8 1 6v8l-2 9-6 11-7 7-14 7h-19l-10-4-9-7-6-9-4-11v-15l4-11 6-8 8-7 9-4z" fill="#FCFCFA"></path><path transform="translate(677,1038)" d="m0 0h16l11 4 10 8 7 11 3 12-1 13-5 12-9 10-12 6-3 1h-17l-11-4-9-7-7-11-3-9v-15l4-11 6-8 8-7z" fill="#FCFDFA"></path><path transform="translate(648,1528)" d="m0 0h12l8 4 5 6 3 8 1 6v16l-3 12-6 8-5 3-5 1h-9l-8-4-6-9-2-5-1-7v-15l3-12 9-10z" fill="#FBFCF8"></path><path transform="translate(1466,1528)" d="m0 0h10l6 3 6 7 3 9v27l-4 9-6 7-7 2h-7l-5-2-6-7-3-7-1-6v-21l3-12 5-6z" fill="#FBFCF9"></path><path transform="translate(798,1528)" d="m0 0h10l6 3 6 7 3 9v27l-4 9-6 7-6 2h-7l-7-3-5-6-3-7-1-6v-21l3-12 5-6z" fill="#FBFCF8"></path><path transform="translate(1343,1456)" d="m0 0h44v31l-1 1h-43z" fill="#010101"></path><path transform="translate(879,1636)" d="m0 0h114v11l-1 1h-112l-1-1z" fill="#010101"></path><path transform="translate(381,1492)" d="m0 0h26l6 3 6 7 1 3v10l-4 7-5 4-2 1-10 1h-17l-1-1z" fill="#FAFBF7"></path><path transform="translate(1023,619)" d="m0 0 4 1-3 1-1 217h-1l-1 9-2-2-1-58v-36l-1-2h2l-1-4v-16l1-16-1-15v-72z" fill="#ADD070"></path><path transform="translate(1620,1528)" d="m0 0h15l6 3 5 5 3 7v5h-42l-3-3 5-10 8-6z" fill="#F6F9F0"></path><path transform="translate(741,872)" d="m0 0 2 2 6 23 5 9 5 4 1 4-18-1-1-1z" fill="#EDF4E0"></path><path transform="translate(484,872)" d="m0 0h1v26l-1 14-16 2h-3v-2l5-4 5-7 4-11z" fill="#F1F7E8"></path><path transform="translate(1359,618)" d="m0 0 2 1 2 13v36l-2 17-2 1z" fill="#FEFEFE"></path><path transform="translate(1358,614)" d="m0 0 4 4 2 10v45l-2 13-4 1-1-3v-69zm1 4v68l2-1 2-17v-36l-2-13z" fill="#B0D275"></path><path transform="translate(1358,809)" d="m0 0h1l1 77v24h-4l2-5z" fill="#B0D275"></path><path transform="translate(759,524)" d="m0 0 7 6 9 9 6 3v3l2 2h5l1 3-1 5-29-29z" fill="#ACD06F"></path><path transform="translate(1358,886)" d="m0 0h2v24h-4l2-5z" fill="#AED172"></path><path transform="translate(1347,589)" d="m0 0 7 6v-5l2 3 1 6-4-2-6-6z" fill="#B0D275"></path><path transform="translate(1208,290)" d="m0 0 2 4 3 12 2 1-4-1-2-5z" fill="#B0D275"></path><path transform="translate(999,586)" d="m0 0 2 1-10 9-2 1 2-5z" fill="#A7CE67"></path></svg>