<svg xmlns="http://www.w3.org/2000/svg" viewBox="0 0 1065.8 468.2" xmlns:v="https://vecta.io/nano"><g fill="#242424"><path d="M0 304.4h77.5c51.2-4.7 73.8 53.7 33.6 76.9 47 23.6 25.6 88.1-33.6 83.3H0V304.4zm78.2 64.5c29.7 2 29.2-39.3 0-37.3H31.1v37.3h47.1zm2.1 68c32.8 2 33.2-43.7.2-41.6H31.1v41.6h49.2zm76-39.5v-93h31.8v92.5c-2.7 56.7 80.7 56.9 78.1 0v-92.5h32v93c5.3 94.5-147.3 94.4-141.9 0zm150.5-93l112.6 160.4H457L343.9 304.4z"/><path d="M381.9 358.3l37.2-53.9H457l-58.5 84.1"/></g><path d="M356 395l18.7 26.5-29.7 43.3h-38.2z" fill="#94be57"/><path d="M470.9 304.4h118.3v28.4H539v132h-31.6v-132h-55.8l19.3-28.4zm124 80.1c-4-111.5 160.2-111.7 156.2 0 4 111.7-160.2 111.5-156.2 0zm78.2 55.3c64 2.5 64-113 0-110.4-64.2-2.6-64.2 112.9 0 110.4h0zm98.7-135.4h28.4l80.2 107.7-.2-45.6v-62.1h31.6v160.4h-28.7L803 357.3l.5 47.7v59.8h-31.6V304.4h-.1zm159 140.7l16.4-23.4c17.8 17.9 82.8 29 86-3.4 0-12-11.2-18.4-36.2-21.3-126.5-14.9-41.6-144.8 60.8-76.2l-15.4 22.3c-55.4-40.8-118.5 16.3-41.7 26.3 131.9 16.9 39.9 151.9-69.9 75.7zM434.2.1L562 0c6.6 0 12.6 1.9 18.6 4 10.1 3.6 19.2 9.6 26.6 17.4 3.9 4.1 7.3 8.7 10.2 13.6 7.7 12.6 9.8 26.5 8.7 41-.4 5.2-1.1 10.4-3.4 15.2-2.6 5.5-7.2 8.9-12 12.2l-23.1 15.9-20.1 13.6-21.7 14.7-9.6 6.5v54.5h4.8c10.2.2 20.2-.3 30-3.2s18.7-7.4 25.7-15.2c5.8-6.4 8.2-14.2 9.7-22.4 1.4-7.3 1-14.9-1-22.1-1.5-5.1-4-9.9-7.4-13.9-1.2-1.3-2.5-2.4-3.8-3.5l21.9-14.7c3 2.1 5.1 5.1 7.1 8.2 1.9 3.2 3.5 6.6 4.9 10 5.2 11.9 6.3 24.4 5.3 37.1-.5 6.4-1.9 12.7-4.3 18.7-2.5 6.2-5.3 12.3-9.8 17.4-6 7.1-13.2 13-21.3 17.6-10.8 5.8-22.6 9.7-34.7 11.3-4.2.6-8.4 1-12.6 1H436.2h-1.9v-82.6l26.7 18.1v38h41v-23.5l-67.7-46.7L434.2.1z" fill="#242424"/><path d="M502.1 150.1L461 122.4V25.3c-.9 0 61.5-.2 88.3-.3a64.81 64.81 0 0 1 15.2 1.5c8 1.8 15.2 4.9 21.3 10.5 7.5 7 10.2 15.8 10.9 25.6.3 4.9.5 9.8-1.8 14.4-1.9 3.7-11.9 10.8-13.6 12l-24.8 16.7-19.4 13c-.2.2-.5.3-1 .5V61.4l-34 22.8v65.9z" fill="#94be57"/></svg>