<svg id="Layer_1" enable-background="new 0 0 512 512" viewBox="0 0 512 512" xmlns="http://www.w3.org/2000/svg" xmlns:xlink="http://www.w3.org/1999/xlink"><clipPath id="SVGID_2_"><path id="SVGID_69_" d="m273.1 273.9v143.6h-181.4c-5.6 0-10.1-4.5-10.1-10.1v-133.5c0-17.9 2.7-33.2 8.9-50l14.3-38.8h191.4c-9.6 26.8-24.6 59.9-23.1 88.8z"/></clipPath><clipPath id="SVGID_4_"><path id="SVGID_71_" d="m222 293.8h-21.9v95.7c0 6 4.9 10.9 10.9 10.9s10.9-4.9 10.9-10.9v-95.7z"/></clipPath><clipPath id="SVGID_6_"><path id="SVGID_73_" d="m211 251.8c-32.7.9-32.7 61.3 0 62.2 32.7-.9 32.7-61.3 0-62.2z"/></clipPath><clipPath id="SVGID_8_"><path id="SVGID_75_" d="m154.6 293.8h-21.9v95.7c0 6 4.9 10.9 10.9 10.9s10.9-4.9 10.9-10.9v-95.7z"/></clipPath><clipPath id="SVGID_10_"><path id="SVGID_77_" d="m168.5 276.6v12.7c.2 23.3-31.2 33.6-44.7 14.7-6.1-6.8-5-18.9-5-27.4 0-.2 0-16.4 0-16.6.1-10.8 16.5-10.8 16.6 0 .1-10.8 16.5-10.8 16.6 0 .1-10.8 16.5-10.8 16.6 0-.1.1-.1 16.6-.1 16.6z"/></clipPath><clipPath id="SVGID_12_"><path id="SVGID_79_" d="m22.1 430.5 20.6-11.9c3.3-1.9 7.5-.8 9.4 2.5l39.4 68.3c1.9 3.3.8 7.5-2.5 9.4l-20.6 11.9c-3.3 1.9-7.5.8-9.4-2.5l-39.4-68.3c-2-3.3-.8-7.5 2.5-9.4z"/></clipPath><g><g><path clip-rule="evenodd" d="m273.1 273.9v143.6h-181.4c-5.6 0-10.1-4.5-10.1-10.1v-133.5c0-17.9 2.7-33.2 8.9-50l14.3-38.8h191.4c-9.6 26.8-24.6 59.9-23.1 88.8z" fill="#fed2a5" fill-rule="evenodd"/></g><g><g clip-path="url(#SVGID_2_)"><g><path clip-rule="evenodd" d="m157.2 376.4c-28.2-7.5-49.3-6.1-64.9 11.6-10.6 12.1-27.1 24.4-36.6 31.1l30 51.9c9.4-6.3 25.8-14.2 44.6-9.2 29 7.8 67.4 26 110.8.8 39.7-24.3 119.4-73.6 102.2-92.1-5-5-11.6-9.5-36.5 7.2-11 7.3-35.5 21.6-59.5 35.3 7.7-12.8-6.3-28-22.5-27.9-13.6 0-39.4-1.1-67.6-8.7z" fill="#eac198" fill-rule="evenodd"/></g></g></g><g><path clip-rule="evenodd" d="m104.9 185.1h191.4v-16.1c0-8.9-7.2-16.1-16.1-16.1h-159.2c-8.9 0-16.1 7.2-16.1 16.1z" fill="#fcb97e" fill-rule="evenodd"/></g><g><path clip-rule="evenodd" d="m273.1 417.5h46.5v-143.6c0-17.9-2.7-33.2-8.9-50l-14.3-38.8-14.4 38.8c-6.2 16.8-8.9 32.1-8.9 50z" fill="#fcb97e" fill-rule="evenodd"/></g><g><path clip-rule="evenodd" d="m222 293.8h-21.9v95.7c0 6 4.9 10.9 10.9 10.9s10.9-4.9 10.9-10.9v-95.7z" fill="#dadde8" fill-rule="evenodd"/></g><g><g clip-path="url(#SVGID_4_)"><g><path clip-rule="evenodd" d="m216.5 308.7h-21.9v95.7c0 6 4.9 10.9 10.9 10.9s10.9-4.9 10.9-10.9v-95.7z" fill="#eff0f8" fill-rule="evenodd"/></g><g><path clip-rule="evenodd" d="m157.2 376.4c-28.2-7.5-49.3-6.1-64.9 11.6-10.6 12.1-27.1 24.4-36.6 31.1l30 51.9c9.4-6.3 25.8-14.2 44.6-9.2 29 7.8 67.4 26 110.8.8 39.7-24.3 119.4-73.6 102.2-92.1-5-5-11.6-9.5-36.5 7.2-11 7.3-35.5 21.6-59.5 35.3 7.7-12.8-6.3-28-22.5-27.9-13.6 0-39.4-1.1-67.6-8.7z" fill="#dadce4" fill-rule="evenodd"/></g><g><path clip-rule="evenodd" d="m211 321c32.7-1 32.7-61.3 0-62.2-32.7.9-32.7 61.2 0 62.2z" fill="#dadde8" fill-rule="evenodd"/></g></g></g><g><path clip-rule="evenodd" d="m211 251.8c-32.7.9-32.7 61.3 0 62.2 32.7-.9 32.7-61.3 0-62.2z" fill="#dadde8" fill-rule="evenodd"/></g><g><g clip-path="url(#SVGID_6_)"><g><path clip-rule="evenodd" d="m203.6 314c32.7-1 32.7-61.3 0-62.2-32.7.9-32.6 61.2 0 62.2z" fill="#eff0f8" fill-rule="evenodd"/></g></g></g><g><path clip-rule="evenodd" d="m154.6 293.8h-21.9v95.7c0 6 4.9 10.9 10.9 10.9s10.9-4.9 10.9-10.9v-95.7z" fill="#dadde8" fill-rule="evenodd"/></g><g><g clip-path="url(#SVGID_8_)"><g><path clip-rule="evenodd" d="m149.2 318.7h-21.9v95.7c0 6 4.9 10.9 10.9 10.9s10.9-4.9 10.9-10.9v-95.7z" fill="#eff0f8" fill-rule="evenodd"/></g><g><path clip-rule="evenodd" d="m157.2 376.4c-28.2-7.5-49.3-6.1-64.9 11.6-10.6 12.1-27.1 24.4-36.6 31.1l30 51.9c9.4-6.3 25.8-14.2 44.6-9.2 29 7.8 67.4 26 110.8.8 39.7-24.3 119.4-73.6 102.2-92.1-5-5-11.6-9.5-36.5 7.2-11 7.3-35.5 21.6-59.5 35.3 7.7-12.8-6.3-28-22.5-27.9-13.6 0-39.4-1.1-67.6-8.7z" fill="#dadce4" fill-rule="evenodd"/></g><g><path clip-rule="evenodd" d="m168.5 283.6v12.7c.2 23.3-31.2 33.6-44.7 14.7-6.1-6.8-5-18.9-5-27.4 0-.2 0-16.4 0-16.6.1-10.8 16.5-10.8 16.6 0 .1-10.8 16.5-10.8 16.6 0 .1-10.8 16.5-10.8 16.6 0-.1.1-.1 16.6-.1 16.6z" fill="#dadde8" fill-rule="evenodd"/></g></g></g><g><path clip-rule="evenodd" d="m168.5 276.6v12.7c.2 23.3-31.2 33.6-44.7 14.7-6.1-6.8-5-18.9-5-27.4 0-.2 0-16.4 0-16.6.1-10.8 16.5-10.8 16.6 0 .1-10.8 16.5-10.8 16.6 0 .1-10.8 16.5-10.8 16.6 0-.1.1-.1 16.6-.1 16.6z" fill="#dadde8" fill-rule="evenodd"/></g><g><g clip-path="url(#SVGID_10_)"><g><path clip-rule="evenodd" d="m163.4 276.6v12.5c.1 13.5-11.4 25-24.8 24.8-13.4.1-25-11.3-24.8-24.8v-12.5c0-.2 0-16.4 0-16.6 0-4.6 3.7-8.3 8.3-8.3s8.3-8.6 8.3-4c.1-10.8 16.5-10.8 16.6 0 0-4.6 3.7 4 8.3 4s8.3 3.7 8.3 8.3v16.6z" fill="#eff0f8" fill-rule="evenodd"/></g></g></g><g><path d="m135.4 298c-2.3 0-4.1-1.9-4.1-4.1v-28.4c0-2.3 1.9-4.1 4.1-4.1 2.3 0 4.1 1.9 4.1 4.1v28.4c0 2.2-1.8 4.1-4.1 4.1z" fill="#dadce4"/></g><g><path clip-rule="evenodd" d="m157.2 384.9c-28.2-7.5-49.3-6.1-64.9 11.6-10.6 12.1-27.1 24.4-36.6 31.1l30 51.9c9.4-6.3 25.8-14.2 44.6-9.2 29 7.8 67.4 26 110.8.8 39.7-24.3 119.4-73.6 102.2-92.1-5-5-11.6-9.5-36.5 7.2-11 7.3-35.5 21.6-59.5 35.3 7.7-12.8-6.3-28-22.5-27.9-13.6-.1-39.4-1.2-67.6-8.7z" fill="#fccec0" fill-rule="evenodd"/></g><g><path d="m158.9 444.6c-3.7.1-5.7-5.1-2.6-7.4 10.1-8.2 35-14 60.6-14 13.6 0 21.1-.8 25.1-2.7 4.8-2.4 8.5 5.2 3.6 7.5-5.3 2.6-13.3 3.6-28.6 3.6-29.2-.3-47.4 7-58.1 13z" fill="#eabeb0"/></g><g><path clip-rule="evenodd" d="m22.1 430.5 20.6-11.9c3.3-1.9 7.5-.8 9.4 2.5l39.4 68.3c1.9 3.3.8 7.5-2.5 9.4l-20.6 11.9c-3.3 1.9-7.5.8-9.4-2.5l-39.4-68.3c-2-3.3-.8-7.5 2.5-9.4z" fill="#ef4145" fill-rule="evenodd"/></g><g><g clip-path="url(#SVGID_12_)"><g><path clip-rule="evenodd" d="m7.7 438.8 20.6-11.9c3.3-1.9 7.5-.8 9.4 2.5l39.4 68.3c1.9 3.3.8 7.5-2.5 9.4l-20.6 11.9c-3.3 1.9-7.5.8-9.4-2.5l-39.4-68.3c-1.9-3.3-.8-7.5 2.5-9.4z" fill="#f04d4e" fill-rule="evenodd"/></g></g></g><g><path d="m151.9 298c-2.3 0-4.1-1.9-4.1-4.1v-28.4c0-2.3 1.9-4.1 4.1-4.1 2.3 0 4.1 1.9 4.1 4.1v28.4c.1 2.2-1.8 4.1-4.1 4.1z" fill="#dadce4"/></g><g><path clip-rule="evenodd" d="m156.1 57.5h228.9c5.5 0 9.9 4.5 9.9 9.9v119.4c0 5.5-4.5 9.9-9.9 9.9h-228.9c-5.5 0-9.9-4.5-9.9-9.9v-119.4c0-5.5 4.5-9.9 9.9-9.9z" fill="#59bb5f" fill-rule="evenodd"/></g><g><path clip-rule="evenodd" d="m191.3 78h158.5c0 11.4 9.4 20.8 20.8 20.8v56.6c-11.4 0-20.8 9.4-20.8 20.8h-158.5c0-11.4-9.4-20.8-20.8-20.8v-56.6c11.4 0 20.8-9.4 20.8-20.8z" fill="#a9d48d" fill-rule="evenodd"/></g><g><path clip-rule="evenodd" d="m270.6 160.5c44.2-1.4 44.2-65.5 0-66.9-44.2 1.5-44.2 65.5 0 66.9z" fill="#59bb5f" fill-rule="evenodd"/></g><g><path d="m270.6 150.8c-2.7 0-4.5-2.5-4.1-5h-3.1c-5.4 0-5.4-8.3 0-8.3h7.3c1.7 0 3.1-1.4 3.1-3.1s-1.4-3.1-3.1-3.1c-12.5.2-15.7-17.8-4.1-22.1-1.2-7.1 8.7-8 8.3-.8h3.1c5.4 0 5.4 8.3 0 8.3h-7.3c-1.7 0-3.1 1.4-3.1 3.1s1.4 3.1 3.1 3.1c12.5-.2 15.7 17.8 4.1 22.1.3 2.8-1.1 5.9-4.2 5.8z" fill="#a9d48d"/></g><g><path clip-rule="evenodd" d="m458.9 89s-37 22.3-52.3 26.4-51.6 1.5-82.4 1.5-28.9-8.2-28.9-12.2c0-4.1 2.2-13.7 17.8-16 15.6-2.2 46-4.1 52.3-8.5 6.3-4.5 13-22.6 13-22.6h-127.4c12.5-18.9 66.7-61.3 104-45.8 26.8 7.2 102 21.5 102 21.5z" fill="#fccec0" fill-rule="evenodd"/></g><g><path clip-rule="evenodd" d="m489.9 81.5-20.6 11.9c-3.3 1.9-7.5.8-9.4-2.5l-39.4-68.3c-1.9-3.3-.8-7.5 2.5-9.4l20.6-11.9c3.3-1.9 7.5-.8 9.4 2.5l39.4 68.3c2 3.3.8 7.5-2.5 9.4z" fill="#f04d4e" fill-rule="evenodd"/></g></g></svg>