<svg id="Capa_1" enable-background="new 0 0 512 512" viewBox="0 0 512 512" xmlns="http://www.w3.org/2000/svg"><g><g><g><path d="m140.254 232.657c0-9.902 8.056-17.958 17.958-17.958h214.535v-135.04c0-10.47-8.488-18.957-18.957-18.957h-327.333c-10.47 0-18.957 8.488-18.957 18.957v199.685c0 10.47 8.488 18.957 18.957 18.957h113.797z" fill="#e2dee2"/><g><g><path d="m7.5 263v16.343c0 10.47 8.488 18.957 18.957 18.957h113.797v-35.3z" fill="#cbc4cc"/></g><path d="m353.789 60.701h-18.543v153.998h37.5v-135.04c0-10.47-8.488-18.958-18.957-18.958z" fill="#cbc4cc"/></g><path d="m485.543 451.299h-327.332c-10.47 0-18.957-8.488-18.957-18.957v-199.685c0-10.47 8.488-18.957 18.957-18.957h327.331c10.47 0 18.957 8.488 18.957 18.957v199.685c.001 10.469-8.487 18.957-18.956 18.957z" fill="#26a6fe"/><path d="m485.543 213.699h-18.297v190.301c0 5.523-4.477 10-10 10h-317.992v18.341c0 10.47 8.488 18.957 18.957 18.957h327.331c10.47 0 18.957-8.488 18.957-18.957v-199.684c.001-10.47-8.487-18.958-18.956-18.958z" fill="#0593fc"/><path d="m255.581 365.775h-65.468c-2.761 0-5-2.239-5-5v-42c0-2.761 2.239-5 5-5h65.468c2.761 0 5 2.239 5 5v42c0 2.761-2.238 5-5 5z" fill="#ffd15b"/><path d="m453.641 298.911h-71c-2.761 0-5-2.239-5-5v-33c0-2.761 2.239-5 5-5h71c2.761 0 5 2.239 5 5v33c0 2.762-2.239 5-5 5z" fill="#fff"/><path d="m453.641 255.911h-16.641v19.089c0 2.761-2.239 5-5 5h-54.359v13.911c0 2.761 2.239 5 5 5h71c2.761 0 5-2.239 5-5v-33c0-2.761-2.239-5-5-5z" fill="#f3f0f3"/><path d="m7.5 111.886h365.246v41.706h-365.246z" fill="#7a6d79"/><path d="m335.246 111.886h37.5v41.706h-37.5z" fill="#685e68"/></g></g><g><path d="m268.082 318.775c0-6.893-5.607-12.5-12.5-12.5h-65.468c-6.893 0-12.5 5.607-12.5 12.5v42c0 6.893 5.607 12.5 12.5 12.5h65.468c6.893 0 12.5-5.607 12.5-12.5zm-75.469 2.5h25.887v11h-25.887zm0 37v-11h25.887v11zm60.469 0h-19.582v-37h19.582z"/><path d="m185.113 401.587c-4.142 0-7.5 3.358-7.5 7.5s3.358 7.5 7.5 7.5h75.468c4.142 0 7.5-3.358 7.5-7.5s-3.358-7.5-7.5-7.5z"/><path d="m260.582 248.411h-75.468c-4.142 0-7.5 3.358-7.5 7.5s3.358 7.5 7.5 7.5h75.468c4.142 0 7.5-3.358 7.5-7.5s-3.358-7.5-7.5-7.5z"/><path d="m296.345 401.587c-4.142 0-7.5 3.358-7.5 7.5s3.358 7.5 7.5 7.5h91.905c4.142 0 7.5-3.358 7.5-7.5s-3.358-7.5-7.5-7.5z"/><path d="m422.168 401.587c-4.142 0-7.5 3.358-7.5 7.5s3.358 7.5 7.5 7.5h36.473c4.142 0 7.5-3.358 7.5-7.5s-3.358-7.5-7.5-7.5z"/><path d="m86.949 216.5h-36.472c-4.142 0-7.5 3.358-7.5 7.5s3.358 7.5 7.5 7.5h36.473c4.142 0 7.5-3.358 7.5-7.5s-3.359-7.5-7.501-7.5z"/><path d="m86.949 250.417h-36.472c-4.142 0-7.5 3.358-7.5 7.5s3.358 7.5 7.5 7.5h36.473c4.142 0 7.5-3.358 7.5-7.5s-3.359-7.5-7.501-7.5z"/><path d="m485.542 206.199h-42.542c-4.142 0-7.5 3.358-7.5 7.5s3.358 7.5 7.5 7.5h42.542c6.318 0 11.458 5.14 11.458 11.458v199.685c0 6.318-5.14 11.458-11.458 11.458h-327.331c-6.318 0-11.458-5.14-11.458-11.458v-27.342c0-4.142-3.358-7.5-7.5-7.5s-7.5 3.358-7.5 7.5v27.341c0 14.589 11.869 26.458 26.458 26.458h327.331c14.589 0 26.458-11.869 26.458-26.458v-199.684c0-14.589-11.869-26.458-26.458-26.458z"/><path d="m131.754 370c0 4.142 3.358 7.5 7.5 7.5s7.5-3.358 7.5-7.5v-137.343c0-6.318 5.14-11.458 11.458-11.458h249.788c4.142 0 7.5-3.358 7.5-7.5s-3.358-7.5-7.5-7.5h-27.754v-126.54c0-14.589-11.869-26.458-26.458-26.458h-252.788c-4.142 0-7.5 3.358-7.5 7.5s3.358 7.5 7.5 7.5h252.789c6.318 0 11.458 5.14 11.458 11.458v24.728h-350.247v-24.728c0-6.318 5.14-11.458 11.458-11.458h39.542c4.142 0 7.5-3.358 7.5-7.5s-3.358-7.5-7.5-7.5h-39.542c-14.589 0-26.458 11.869-26.458 26.458v199.685c0 14.589 11.869 26.458 26.458 26.458h105.296zm233.492-250.614v26.706h-350.246v-26.706zm-338.788 171.415c-6.318 0-11.458-5.14-11.458-11.458v-118.251h350.246v45.107h-207.035c-14.589 0-26.458 11.869-26.458 26.458v58.144z"/><path d="m466.141 260.911c0-6.893-5.607-12.5-12.5-12.5h-71c-6.893 0-12.5 5.607-12.5 12.5v33c0 6.893 5.607 12.5 12.5 12.5h71c6.893 0 12.5-5.607 12.5-12.5zm-15 30.5h-66v-28h66z"/></g></g><g/><g/><g/><g/><g/><g/><g/><g/><g/><g/><g/><g/><g/><g/><g/></svg>