<svg xmlns="http://www.w3.org/2000/svg" xmlns:xlink="http://www.w3.org/1999/xlink" viewBox="0 0 1000 219.21"><defs><style>.cls-1{fill:url(#radial-gradient);}.cls-2{fill:url(#radial-gradient-2);}.cls-3{fill:url(#radial-gradient-3);}.cls-4{fill:url(#radial-gradient-4);}.cls-5{fill:url(#radial-gradient-5);}.cls-6{fill:url(#radial-gradient-6);}.cls-7{fill:url(#radial-gradient-7);}.cls-8{fill:url(#radial-gradient-8);}.cls-9{fill:url(#radial-gradient-9);}.cls-10{fill:none;}.cls-11{fill:#2c2623;}.cls-12{fill:#6fc8e7;}.cls-13{fill:#4985c5;}.cls-14{fill:#38388a;}.cls-15{fill:#2c3080;}.cls-16{fill:#e2161b;}.cls-17{fill:#6ea6d9;}.cls-18{fill:#fff;}.cls-19{clip-path:url(#clip-path);}.cls-20{mask:url(#mask);}.cls-21{fill:url(#radial-gradient-10);}.cls-22{clip-path:url(#clip-path-2);}.cls-23{mask:url(#mask-2);}.cls-24{fill:url(#radial-gradient-11);}.cls-25{clip-path:url(#clip-path-3);}.cls-26{mask:url(#mask-3);}.cls-27{fill:url(#radial-gradient-12);}.cls-28{clip-path:url(#clip-path-4);}.cls-29{mask:url(#mask-4);}.cls-30{fill:url(#radial-gradient-13);}.cls-31{clip-path:url(#clip-path-5);}.cls-32{mask:url(#mask-5);}.cls-33{fill:url(#radial-gradient-14);}.cls-34{clip-path:url(#clip-path-6);}.cls-35{mask:url(#mask-6);}.cls-36{fill:url(#radial-gradient-15);}.cls-37{clip-path:url(#clip-path-7);}.cls-38{mask:url(#mask-7);}.cls-39{fill:url(#radial-gradient-16);}.cls-40{clip-path:url(#clip-path-8);}.cls-41{mask:url(#mask-8);}.cls-42{fill:url(#radial-gradient-17);}.cls-43{clip-path:url(#clip-path-9);}.cls-44{mask:url(#mask-9);}.cls-45{fill:url(#radial-gradient-18);}</style><radialGradient id="radial-gradient" cx="1768.57" cy="638.95" r="4.31" gradientTransform="matrix(0, 10.28, 10.28, 0, -5688.95, -18099.32)" gradientUnits="userSpaceOnUse"><stop offset="0" stop-color="gray"/><stop offset="0.14" stop-color="#7a7a7a"/><stop offset="0.34" stop-color="#676767"/><stop offset="0.57" stop-color="#4a4a4a"/><stop offset="0.83" stop-color="#202020"/><stop offset="1"/></radialGradient><radialGradient id="radial-gradient-2" cx="2235.96" cy="358.13" r="4.31" gradientTransform="matrix(-3.29, 0, 0, 3.29, 8246.18, -1079.87)" gradientUnits="userSpaceOnUse"><stop offset="0" stop-color="#333"/><stop offset="0.12" stop-color="#383838"/><stop offset="0.26" stop-color="#464646"/><stop offset="0.41" stop-color="#5e5e5e"/><stop offset="0.57" stop-color="#7f7f7f"/><stop offset="0.73" stop-color="#aaa"/><stop offset="0.9" stop-color="#ddd"/><stop offset="1" stop-color="#fff"/></radialGradient><radialGradient id="radial-gradient-3" cx="1723.47" cy="700.93" r="4.31" gradientTransform="matrix(6.94, 0, 0, -6.94, -11105.11, 4976.22)" gradientUnits="userSpaceOnUse"><stop offset="0" stop-color="gray"/><stop offset="0.26" stop-color="#5d5d5d"/><stop offset="1"/></radialGradient><radialGradient id="radial-gradient-4" cx="1812.92" cy="659.53" r="4.31" gradientTransform="matrix(13.58, 0, 0, -13.58, -23741.03, 8987.63)" xlink:href="#radial-gradient"/><radialGradient id="radial-gradient-5" cx="2086.01" cy="348.42" r="4.31" gradientTransform="matrix(-4.29, 0, 0, 4.29, 9872.5, -1473.13)" xlink:href="#radial-gradient-2"/><radialGradient id="radial-gradient-6" cx="1794.76" cy="713.71" r="4.31" gradientTransform="matrix(9.17, 0, 0, -9.17, -15563.1, 6583.85)" xlink:href="#radial-gradient-3"/><radialGradient id="radial-gradient-7" cx="1883.8" cy="672.93" r="4.31" gradientTransform="matrix(20.07, 0, 0, -20.07, -36938.91, 13582.77)" xlink:href="#radial-gradient"/><radialGradient id="radial-gradient-8" cx="1862.87" cy="398.75" r="4.31" gradientTransform="matrix(-6.43, 0, 0, 6.43, 12896.08, -2501.18)" xlink:href="#radial-gradient-2"/><radialGradient id="radial-gradient-9" cx="1901.36" cy="706.21" r="4.31" gradientTransform="matrix(13.55, 0, 0, -13.55, -24869.6, 9650.16)" xlink:href="#radial-gradient-3"/><clipPath id="clip-path" transform="translate(0 6.74)"><path class="cls-10" d="M878.65,103.73a17.83,17.83,0,0,1-17.78-6.36,15,15,0,1,0,29.13,1,13,13,0,0,0-.53-1.85,17.73,17.73,0,0,1-10.82,7.2"/></clipPath><mask id="mask" x="858.13" y="100.41" width="35.58" height="27.23" maskUnits="userSpaceOnUse"><g transform="translate(0 6.74)"><rect class="cls-1" x="863.77" y="90.52" width="24.29" height="33.52" transform="translate(689.77 969.9) rotate(-84.81)"/></g></mask><radialGradient id="radial-gradient-10" cx="1768.57" cy="638.95" r="4.31" gradientTransform="matrix(0, 10.28, 10.28, 0, -5688.95, -18099.32)" gradientUnits="userSpaceOnUse"><stop offset="0" stop-color="#8faedb"/><stop offset="0.26" stop-color="#94b4df"/><stop offset="0.63" stop-color="#a1c7e9"/><stop offset="1" stop-color="#b4e0f7"/></radialGradient><clipPath id="clip-path-2" transform="translate(0 6.74)"><path class="cls-10" d="M876.16,89.26a15.43,15.43,0,0,1,5.38,3.52,15.66,15.66,0,0,1,4.3,14.09l3.16.94a15,15,0,0,0-11.73-21Zm-3.37-2.41-.33,1.48a16.74,16.74,0,0,1,2.09.4l.57-2.09a15.17,15.17,0,0,0-2.33.21"/></clipPath><mask id="mask-2" x="866.4" y="87.93" width="31.15" height="32.07" maskUnits="userSpaceOnUse"><g transform="translate(0 6.74)"><rect class="cls-2" x="869.72" y="84.27" width="24.51" height="25.91" transform="translate(11.43 268.91) rotate(-17.45)"/></g></mask><radialGradient id="radial-gradient-11" cx="2235.96" cy="358.13" r="4.31" gradientTransform="matrix(-3.29, 0, 0, 3.29, 8246.18, -1079.87)" gradientUnits="userSpaceOnUse"><stop offset="0" stop-color="#e4f3fb"/><stop offset="1" stop-color="#e4f3fb"/></radialGradient><clipPath id="clip-path-3" transform="translate(0 6.74)"><path class="cls-10" d="M860,112.84l-.31.33a19.41,19.41,0,0,0,33.83-4.78A27.8,27.8,0,0,0,860,112.84"/></clipPath><mask id="mask-3" x="856.72" y="105.9" width="39.8" height="29.31" maskUnits="userSpaceOnUse"><g transform="translate(0 6.74)"><rect class="cls-3" x="858.43" y="102.02" width="36.39" height="23.61" transform="translate(-6.74 146.81) rotate(-9.54)"/></g></mask><radialGradient id="radial-gradient-12" cx="1723.47" cy="700.93" r="4.31" gradientTransform="matrix(6.94, 0, 0, -6.94, -11105.11, 4976.22)" gradientUnits="userSpaceOnUse"><stop offset="0" stop-color="#53408e"/><stop offset="0.15" stop-color="#53519b"/><stop offset="1" stop-color="#55afe3"/></radialGradient><clipPath id="clip-path-4" transform="translate(0 6.74)"><path class="cls-10" d="M923.21,27.22a23.54,23.54,0,0,1-24.86-2.11,19.88,19.88,0,1,0,37.56-8.57,19.07,19.07,0,0,0-1.31-2.18,23.51,23.51,0,0,1-11.39,12.86"/></clipPath><mask id="mask-4" x="892.66" y="14.06" width="53.85" height="48.02" maskUnits="userSpaceOnUse"><g transform="translate(0 6.74)"><rect class="cls-4" x="895.72" y="11.03" width="47.72" height="40.6" transform="translate(7.75 154.48) rotate(-9.64)"/></g></mask><radialGradient id="radial-gradient-13" cx="1812.92" cy="659.53" r="4.31" gradientTransform="matrix(13.58, 0, 0, -13.58, -23741.03, 8987.63)" xlink:href="#radial-gradient-10"/><clipPath id="clip-path-5" transform="translate(0 6.74)"><path class="cls-10" d="M911.27,7.65l.07,2a22,22,0,0,1,2.81-.19l0-2.87a20.18,20.18,0,0,0-2.9,1.07M915.7,6l-.57,3.56A20.69,20.69,0,0,1,933.45,28.8l4.36.13A19.83,19.83,0,0,0,918.29,5.84,20.37,20.37,0,0,0,915.7,6"/></clipPath><mask id="mask-5" x="900.84" y="0" width="48.71" height="48.25" maskUnits="userSpaceOnUse"><g transform="translate(0 6.74)"><rect class="cls-5" x="907.26" y="0.19" width="35.89" height="34.4" transform="translate(133.74 496.86) rotate(-32.28)"/></g></mask><radialGradient id="radial-gradient-14" cx="2086.01" cy="348.42" r="4.31" gradientTransform="matrix(-4.29, 0, 0, 4.29, 9872.5, -1473.13)" xlink:href="#radial-gradient-11"/><clipPath id="clip-path-6" transform="translate(0 6.74)"><path class="cls-10" d="M902.49,45.17l-.29.51a25.31,25.31,0,0,0,3.17,2.17,25.67,25.67,0,0,0,38.44-19.72,36.74,36.74,0,0,0-41.32,17"/></clipPath><mask id="mask-6" x="891.64" y="17.97" width="62.74" height="59.38" maskUnits="userSpaceOnUse"><g transform="translate(0 6.74)"><rect class="cls-6" x="898.26" y="19.54" width="49.5" height="42.77" transform="translate(65.38 384.56) rotate(-24.37)"/></g></mask><radialGradient id="radial-gradient-15" cx="1794.76" cy="713.71" r="4.31" gradientTransform="matrix(9.17, 0, 0, -9.17, -15563.1, 6583.85)" xlink:href="#radial-gradient-12"/><clipPath id="clip-path-7" transform="translate(0 6.74)"><path class="cls-10" d="M925.4,71.42A34.86,34.86,0,0,1,898.09,96.2,29.37,29.37,0,1,0,926.63,47a28.44,28.44,0,0,0-3.68-.79,34.74,34.74,0,0,1,2.45,25.26"/></clipPath><mask id="mask-7" x="869.77" y="28.48" width="109.85" height="110.55" maskUnits="userSpaceOnUse"><g transform="translate(0 6.74)"><rect class="cls-7" x="884.29" y="37.84" width="80.8" height="78.36" transform="translate(352.63 807.59) rotate(-56.7)"/></g></mask><radialGradient id="radial-gradient-16" cx="1883.8" cy="672.93" r="4.31" gradientTransform="matrix(20.07, 0, 0, -20.07, -36938.91, 13582.77)" xlink:href="#radial-gradient-10"/><clipPath id="clip-path-8" transform="translate(0 6.74)"><path class="cls-10" d="M890.94,66l2.23,1.93a31,31,0,0,1,2.62-3.22l-3.08-2.91a28.71,28.71,0,0,0-1.77,4.2m19.28-18.8a29.16,29.16,0,0,0-15.32,11l3.29,4.2a30.55,30.55,0,0,1,39.22-.47L942,57.36a29.25,29.25,0,0,0-31.73-10.17"/></clipPath><mask id="mask-8" x="886.94" y="43.39" width="59.01" height="40.54" maskUnits="userSpaceOnUse"><g transform="translate(0 6.74)"><rect class="cls-8" x="900.92" y="29.82" width="31.05" height="54.2" transform="translate(690.99 947.03) rotate(-79.34)"/></g></mask><radialGradient id="radial-gradient-17" cx="1862.87" cy="398.75" r="4.31" gradientTransform="matrix(-6.43, 0, 0, 6.43, 12896.08, -2501.18)" xlink:href="#radial-gradient-11"/><clipPath id="clip-path-9" transform="translate(0 6.74)"><path class="cls-10" d="M923.94,111.91c.09.28.19.55.28.83a37.93,37.93,0,0,0,22.9-62.68,54.33,54.33,0,0,0-23.18,61.85"/></clipPath><mask id="mask-9" x="897.73" y="43.38" width="82.29" height="89.51" maskUnits="userSpaceOnUse"><g transform="translate(0 6.74)"><rect class="cls-9" x="902.09" y="50.35" width="73.57" height="62.1" transform="translate(562.72 945.47) rotate(-71.43)"/></g></mask><radialGradient id="radial-gradient-18" cx="1901.36" cy="706.21" r="4.31" gradientTransform="matrix(13.55, 0, 0, -13.55, -24869.6, 9650.16)" xlink:href="#radial-gradient-12"/></defs><g id="Layer_2" data-name="Layer 2"><g id="Layer_1-2" data-name="Layer 1"><path class="cls-11" d="M66,77.1A3.08,3.08,0,0,0,68.53,74c.09-1.6-.36-2.64-1.36-3.09a14.05,14.05,0,0,0-5.28-.68q-7.66,0-22.42,2.71c-7.23,1.3-13.41,2.62-18.53,3.92q0-5.73,1.2-19T24.71,40.4q10.23-2.11,20.4-3.77A113.38,113.38,0,0,1,58,35a97,97,0,0,1,10.17.83c4.57.56,9.61,1.18,15.13,1.89,1.31,0,2.06-.2,2.27-.61a8.45,8.45,0,0,0,.29-2.85q0-2.26-11.22-4.37A108.69,108.69,0,0,0,55,27.75c-3.91,0-9.36.39-16.33,1.13s-11.73,1.59-14.23,2.49a6.52,6.52,0,0,0-2.27-3.69A8.35,8.35,0,0,0,17,26.4a4.1,4.1,0,0,0-3.4,2,8.54,8.54,0,0,0-1.42,5,15,15,0,0,0-5,1.88c-1.9,1-2.86,2.13-2.86,3.23,0,1.71,1,2.91,3,3.62A29.17,29.17,0,0,0,11.9,43l-.44,14.6q0,4.37-.15,11.88c-.11,5-.15,8.53-.15,10.53a54.44,54.44,0,0,0-7.09,2.86C1.36,84.32,0,85.83,0,87.33c0,1.32,1.31,2,3.93,2a13.08,13.08,0,0,0,3.38-.52,40.47,40.47,0,0,0,3.85-1.29c-.11,4.32-.16,9,2,14.15V118c-2.14.4-2.22,1.72-2.37,4s-.22,4.28-.22,6.09a9.68,9.68,0,0,0,1.13,5A3.7,3.7,0,0,0,15.07,135c2.21,0,3.65-2.08,4.36-6.25a125.24,125.24,0,0,0,1.18-17.52V97.41a42.7,42.7,0,0,1,0-5.78q.15-5.05.3-6.4,6.16-1.8,17.54-4t19-3A80.19,80.19,0,0,0,66,77.1Z" transform="translate(0 6.74)"/><path class="cls-11" d="M111.46,118.9A33,33,0,0,0,117,101a38.22,38.22,0,0,0-.81-7.09,35,35,0,0,0-2-7l2.19.59h9.09a14.73,14.73,0,0,0,6.88-1.4,4.68,4.68,0,0,0,2.64-4.46c0-1.17-1.57-1.76-4.69-1.76-1.08.1-2.15.15-3.22.15h-3.22q-2.37,0-6.08-.29t-6.23-.59a25.14,25.14,0,0,1-2.79-4.68c-1.08-1.17-3.71-1.76-7.91-1.76a3.78,3.78,0,0,0-3.52,1.69,9.15,9.15,0,0,0-1,4.75c0,1.47.93,2.78,2.79,4a24.16,24.16,0,0,0,5.28,2.2,15.91,15.91,0,0,1,1.83,5.93,77.62,77.62,0,0,1,.66,11.34,23.06,23.06,0,0,1-3.52,12q-3.51,5.86-7.47,5.86a8.84,8.84,0,0,1-6.74-2.63,8.67,8.67,0,0,1-2.5-6.15A87.44,87.44,0,0,1,87.51,100a49.84,49.84,0,0,1,2.27-10.18c.78-1.76,1.61-3.6,2.48-5.56a12.24,12.24,0,0,0,1.32-4.68q0-3.52-3.66-3.52-1.76,0-4.84,3.81A21.88,21.88,0,0,0,81,87a69.54,69.54,0,0,0-2.11,8.71,54.16,54.16,0,0,0-.66,9.14c0,2.36.16,5.53.51,9.53a14.83,14.83,0,0,0,5.56,10.31,17.75,17.75,0,0,0,12,4.32Q105,129,111.46,118.9Z" transform="translate(0 6.74)"/><path class="cls-11" d="M358.5,107.05q0-2-4.07-2l-15.06,10.53a34.84,34.84,0,0,1-17.31,4.67,18.68,18.68,0,0,1-14-6.17q-4.37-4.52-9.34-14.9a35,35,0,0,1-2.86-6.92c-1-3.11-2.71-4.66-5.11-4.66s-3.78.75-4.37,2.26c-.6,2.2-1.16,4.36-1.66,6.46a43,43,0,0,1-2.57,7.22c-1.59,3.22-3.25,4.82-5,4.82q-1.67,0-2.86-5.72c-1.2-5.32-1.86-8.13-2-8.42a12.44,12.44,0,0,0-5-6.85A13.07,13.07,0,0,0,260,84.93c-1.81,0-4.06,1.5-6.77,4.51a54.23,54.23,0,0,0-6,8.73,59.3,59.3,0,0,0-1.5-12.79q-2-8.58-5-8.57a4,4,0,0,0-3.53,2,9,9,0,0,0-1.29,4.89c.22,2.81.49,6.12.83,9.92.34,3.64.51,7.12.52,10.48A1.52,1.52,0,0,0,237,104a22.13,22.13,0,0,0-3.62,2.7,83.35,83.35,0,0,1-13.25,9.63,54.25,54.25,0,0,1-15.81,6.32,46.68,46.68,0,0,1-9.8.9c-3.81,0-6.31-1.4-7.53-4.21-.69-1.61-1.05-4.77-1.05-9.47q0-2.26.46-10.69t.45-12.48a11.73,11.73,0,0,0-1.52-5.95q-1.5-2.62-3.15-2.34a17.66,17.66,0,0,0-5-3.75,18.61,18.61,0,0,0-6.79-.9q-12.48,0-21.52,16.39-7.23,13.25-7.23,23.62c0,5.23.68,9,2,11.29s4.09,3.46,8.21,3.46q6.78,0,14.45-10.69a103.15,103.15,0,0,0,8.29-14.29q0,14.74,3.76,22t11,7.3a57.1,57.1,0,0,0,16.72-2.63,90.21,90.21,0,0,0,18.06-8,67.63,67.63,0,0,0,11.6-8.58c.52-.48.92-.89,1.36-1.32v1.47a29,29,0,0,0,.67,7.16,2.9,2.9,0,0,0,2.93,2.47q3.92,0,6.48-4.36.47-.75,3.61-8.73a103.34,103.34,0,0,1,5-10.76c1.56-2.75,2.95-4.13,4.15-4.13a2.92,2.92,0,0,1,2.71,2.1c.3,1.41.7,3.06,1.21,5s1,3.81,1.58,5.72a19.85,19.85,0,0,0,2,4.82,16.42,16.42,0,0,0,4.15,4.73,7.93,7.93,0,0,0,4.73,1.58q4.06,0,8.43-4.51a37.59,37.59,0,0,0,5.89-8.43q1.49,2.11,8,12.5,8.15,9.16,21.54,9.17,12.35,0,26.2-9.17Q358.5,110.95,358.5,107.05ZM171.07,88.24q-3.47,6-6.92,12-9.93,17.15-13.71,17.16c-.8,0-1.37-.81-1.73-2.41a27.16,27.16,0,0,1-.53-5.72q0-6.47,6.86-16.93t13-10.45q3.47,0,3.47,4.06A6.51,6.51,0,0,1,171.07,88.24Z" transform="translate(0 6.74)"/><path class="cls-11" d="M456.15,131.57a3.25,3.25,0,0,0,2.26-1,.88.88,0,0,0,.29-.9q-.15-1.65-12.34-11.74-17.64-14.58-21.69-18.35-11.3-10.69-13.85-13.09a75,75,0,0,1-5.73-5.73c3.21,0,6.16,0,8.81-.14a62.76,62.76,0,0,0,7.76-.76q13.09-2.1,18.83-6c3.81-2.6,5.72-6,5.72-10.23q0-15-16.57-28.89Q414,21.59,399.22,21.58a40.61,40.61,0,0,0-4.13.24c-1.56.15-3.15,1.12-4.76,2.93a10.52,10.52,0,0,0-2.4,7.22q.15,13.08.37,24.82c.15,7.83.23,15-3.28,21.52l7.47,40V121c-4.26,5.72-3.31,8.58-1.4,8.58q2.27,0,3.61-3.17a21.56,21.56,0,0,0,1.35-8.42c.22-2.51.46-7,.76-13.32s.46-11.66.46-15.87q3.45,3,13.86,10.69c5.91,4.4,9.42,7,10.53,7.81q10.09,8,20.18,15.8Q452.84,131.57,456.15,131.57ZM400,55.44l-.31-19.86a5.5,5.5,0,0,1,1.51-4.07,2.92,2.92,0,0,1,2.1-.9q10.85,0,23,10.61t12.13,20.39c0,2.71-.61,4.76-1.81,6.16-2,2.32-5.81,3.87-11.37,4.67S414.91,73.77,411.1,74s-7.28.37-10.39.37Z" transform="translate(0 6.74)"/><path class="cls-11" d="M506.67,87.58h5.86a14.69,14.69,0,0,0,6.89-1.4,4.67,4.67,0,0,0,2.65-4.46c0-1.17-1.58-1.76-4.7-1.76-1.08.1-2.15.15-3.22.15h-3.23q-2.34,0-6.08-.29t-6.22-.59a25.7,25.7,0,0,1-2.78-4.68q-1.62-1.76-7.92-1.76a3.76,3.76,0,0,0-3.51,1.69,9.15,9.15,0,0,0-1,4.75c0,1.47.93,2.78,2.79,4a23.82,23.82,0,0,0,5.27,2.2,15.73,15.73,0,0,1,1.83,5.93,76.23,76.23,0,0,1,.66,11.34,23.06,23.06,0,0,1-3.52,12q-3.51,5.86-7.46,5.86a8.84,8.84,0,0,1-6.74-2.63,8.67,8.67,0,0,1-2.5-6.15,90.74,90.74,0,0,1,.8-11.78,51.15,51.15,0,0,1,2.28-10.18c.78-1.76,1.61-3.6,2.49-5.56a12.19,12.19,0,0,0,1.31-4.68c0-2.35-1.21-3.52-3.65-3.52q-1.77,0-4.84,3.81A21.7,21.7,0,0,0,468,87a71.73,71.73,0,0,0-2.13,8.71,56.33,56.33,0,0,0-.66,9.14c0,2.36.18,5.53.51,9.53a14.92,14.92,0,0,0,5.57,10.31A17.76,17.76,0,0,0,483.23,129q8.79,0,15.25-10.1A33.1,33.1,0,0,0,504,101a39.1,39.1,0,0,0-.81-7.09,34.25,34.25,0,0,0-2-7c.4.1,1.13.29,2.2.59Z" transform="translate(0 6.74)"/><path class="cls-11" d="M671.93,129.76a35,35,0,0,0,13.93-3.23A80.56,80.56,0,0,0,700.7,118a50.54,50.54,0,0,0,6.55-5.48c2-2,3-3.23,3.08-3.84.2-1.91-1-3-3.47-3.31a31.51,31.51,0,0,0-4.13,2.86,65.39,65.39,0,0,1-6,4.06,86.25,86.25,0,0,1-11.9,6.77,28.15,28.15,0,0,1-11.29,2.56q-7.38,0-9.78-14.14-1.23-6.93-1.22-21.22a177.38,177.38,0,0,1,1.59-20.45q1.58-12.94,3.23-25.59,0-5.41-1.35-7.29A4.67,4.67,0,0,0,662,31.07c-1.61,0-3,1.51-4.23,4.5a39.94,39.94,0,0,0-1.95,7.53q-.92,5-2,19.26-.45,8.11-1.5,21.21-2.11-2.85-4.22-5.72c-3.11-4.11-6.43-6.17-9.93-6.17q-6.94,0-13.86,13.17-6.11,11.6-6.82,22.07a86.27,86.27,0,0,1-13,9.46,54.53,54.53,0,0,1-15.82,6.31,47.27,47.27,0,0,1-9.79.91c-3.82,0-6.32-1.4-7.53-4.21-.7-1.61-1.06-4.77-1.06-9.49q0-2.25.46-10.67t.45-12.5a11.78,11.78,0,0,0-1.5-5.94q-1.5-2.62-3.17-2.33a17.47,17.47,0,0,0-5-3.77,18.78,18.78,0,0,0-6.77-.9q-12.49,0-21.54,16.41Q526,103.43,526,113.81q0,7.83,2,11.28c1.37,2.32,4.09,3.47,8.21,3.47q6.78,0,14.46-10.69A104.29,104.29,0,0,0,559,103.58q0,14.76,3.76,22t11,7.29a56.69,56.69,0,0,0,16.72-2.64,88.85,88.85,0,0,0,18.07-8,65.09,65.09,0,0,0,9.2-6.6,31.26,31.26,0,0,0,3.07,11.27c2.25,4.31,5.6,6.48,10,6.48q8.58,0,15-9.34,3.33-4.82,8.14-16.69,1.35,9.33,4.52,14.59Q663.2,129.76,671.93,129.76ZM558.09,88.24l-6.93,12q-9.93,17.14-13.71,17.15c-.79,0-1.37-.81-1.72-2.42a26.26,26.26,0,0,1-.53-5.7c0-4.33,2.28-10,6.85-16.93s8.92-10.45,13-10.45c2.3,0,3.46,1.35,3.46,4.06A6.25,6.25,0,0,1,558.09,88.24Zm84.48,26.48q-6.93,9.93-11,9.93-3,0-4.06-5.57a61.67,61.67,0,0,1-.46-9.33q0-6.16,4-17.15t7.16-11c1.69,0,4.16,2,7.37,5.94s5.16,7.26,5.88,9.86A66.76,66.76,0,0,1,642.57,114.72Z" transform="translate(0 6.74)"/><path class="cls-11" d="M16.2,163,0,201.78H4.67l4.45-10.91H27.21l4.5,10.91h4.72L20.38,163Zm-5.77,24.32,7.7-19.45,7.76,19.45Z" transform="translate(0 6.74)"/><path class="cls-11" d="M74.25,166.14a15.55,15.55,0,0,1,13.21,7.49h4.67a20,20,0,1,0-17.82,28.83c8.54,0,15.3-5.14,17.82-11.12H87.46a15.78,15.78,0,0,1-13.21,7.28c-9,0-15.87-7.11-15.87-16.29C58.38,173.31,65.19,166.14,74.25,166.14Z" transform="translate(0 6.74)"/><rect class="cls-11" x="97.77" y="169.72" width="3.88" height="38.79"/><path class="cls-11" d="M132.16,176.77a15,15,0,0,0-25.16,11c0,7,5.08,14.83,14.89,14.83a14.71,14.71,0,0,0,8-2.31,14.9,14.9,0,0,0,5.7-6.87h-4a10.43,10.43,0,0,1-9.69,5.83c-4.77,0-10.8-3.35-11-10.43h25.67A14.67,14.67,0,0,0,132.16,176.77Zm-10.27-.68c5.81-.15,10.58,4.67,10.84,9.59h-21.8A10.68,10.68,0,0,1,121.89,176.09Z" transform="translate(0 6.74)"/><path class="cls-11" d="M166.51,179.5c-1.36-3.2-5.51-6.7-11.54-6.7-8.59,0-14.62,6.6-14.62,14.88,0,7.75,5.46,14.88,14.62,14.88,5,0,9.33-2.36,11.54-6.6v5.81h3.88V173.58h-3.88Zm-.85,12.58A10.52,10.52,0,0,1,155.5,199c-7.76,0-11.27-6.14-11.32-11.22v0a11,11,0,0,1,11.21-11.32,10.87,10.87,0,0,1,10.33,6.75,10.26,10.26,0,0,1,.89,4.52A10.59,10.59,0,0,1,165.66,192.08Z" transform="translate(0 6.74)"/><path class="cls-11" d="M192.06,172.79c-5-.1-8.86,2.15-10.49,5.83.06-1.89.06-3.47.06-5H178v28.2h3.88V185.84c0-5.87,3.35-9.38,9.16-9.44,6.35-.09,9.08,4,9.08,10.12v15.26h3.82v-16C203.9,178.88,200.8,172.9,192.06,172.79Z" transform="translate(0 6.74)"/><path class="cls-11" d="M245,166.14a15.57,15.57,0,0,1,13.22,7.49h4.66a20,20,0,1,0-17.82,28.83c8.55,0,15.3-5.14,17.82-11.12h-4.66A15.78,15.78,0,0,1,245,198.62c-9,0-15.87-7.11-15.87-16.29C229.15,173.31,236,166.14,245,166.14Z" transform="translate(0 6.74)"/><path class="cls-11" d="M293,179.5c-1.38-3.2-5.51-6.7-11.54-6.7-8.59,0-14.62,6.6-14.62,14.88,0,7.75,5.44,14.88,14.62,14.88,5,0,9.33-2.36,11.54-6.6v5.81h3.86V173.58H293Zm-.85,12.58A10.54,10.54,0,0,1,282,199c-7.76,0-11.28-6.14-11.33-11.22v0a11.06,11.06,0,0,1,11.22-11.32,10.88,10.88,0,0,1,10.32,6.75,10,10,0,0,1,.89,4.52A10.74,10.74,0,0,1,292.12,192.08Z" transform="translate(0 6.74)"/><path class="cls-11" d="M308.08,178.2v-4.62h-3.67v28.2h3.82V186.42c0-6.4,3-9.8,8.5-9.8h.37v-3.83C313.79,172.9,310.12,174,308.08,178.2Z" transform="translate(0 6.74)"/><rect class="cls-11" x="336.41" y="169.72" width="3.88" height="5.39"/><rect class="cls-11" x="336.41" y="180.31" width="3.88" height="28.2"/><path class="cls-11" d="M356.39,185.32c-3.42-1-5.45-2.1-5.56-4.77-.11-2.46,1.78-4.56,4.88-4.56,2.82,0,4.81,1.67,4.81,4.66h3.83c-.26-5.71-4.67-7.85-8.6-7.85-4.77,0-8.8,3-8.8,8.06.11,4.46,3.25,6.08,7.28,7.3,4.88,1.4,7,2.71,7.08,5.92a5.22,5.22,0,0,1-5.45,5.28,5.58,5.58,0,0,1-5.87-5.6h-3.83c0,5.92,5.09,8.8,9.65,8.8,5.33,0,9.53-3.77,9.32-9C364.92,187.57,360.42,186.42,356.39,185.32Z" transform="translate(0 6.74)"/><path class="cls-11" d="M396.77,163l-16.2,38.79h4.67l4.45-10.91h18.09l4.5,10.91H417L401,163ZM391,187.31l7.7-19.45,7.76,19.45Z" transform="translate(0 6.74)"/><polygon class="cls-11" points="459.44 186.97 440.73 186.97 440.73 169.72 436.43 169.72 436.43 208.51 440.73 208.51 440.73 190.8 459.44 190.8 459.44 208.51 463.79 208.51 463.79 169.72 459.44 169.72 459.44 186.97"/><path class="cls-11" d="M495.89,179.5c-1.36-3.2-5.51-6.7-11.54-6.7-8.59,0-14.62,6.6-14.62,14.88,0,7.75,5.45,14.88,14.62,14.88,5,0,9.33-2.36,11.54-6.6v5.81h3.88V173.58h-3.88ZM495,192.08A10.52,10.52,0,0,1,484.88,199c-7.76,0-11.27-6.14-11.32-11.22v0a11,11,0,0,1,11.21-11.32,10.87,10.87,0,0,1,10.33,6.75,10.26,10.26,0,0,1,.89,4.52A10.75,10.75,0,0,1,495,192.08Z" transform="translate(0 6.74)"/><path class="cls-11" d="M522.8,172.79a13,13,0,0,0-11.8,6.66v-5.87h-3.67v38.88h3.88V196c1.32,2.93,5.35,6.56,11.59,6.56,8.75,0,14.46-6.93,14.46-14.79C537.26,180.5,532.28,172.79,522.8,172.79Zm10.58,14.89a11,11,0,0,1-11.22,11.26A11,11,0,0,1,511,187.73a11.58,11.58,0,0,1,3.14-8.07,11.17,11.17,0,0,1,8-3.31c7.61,0,11.32,6,11.32,11.27Z" transform="translate(0 6.74)"/><path class="cls-11" d="M558.67,172.79a13,13,0,0,0-11.79,6.66v-5.87h-3.67v38.88h3.88V196c1.31,2.93,5.35,6.56,11.58,6.56,8.76,0,14.47-6.93,14.47-14.79C573.14,180.5,568.15,172.79,558.67,172.79Zm10.59,14.89A11,11,0,0,1,558,198.94a11,11,0,0,1-11.21-11.21,11.62,11.62,0,0,1,3.14-8.07,11.17,11.17,0,0,1,8-3.31c7.61,0,11.33,6,11.33,11.27Z" transform="translate(0 6.74)"/><polygon class="cls-11" points="587.68 203.11 578.82 180.31 574.68 180.31 585.58 207.99 580.76 219.21 584.96 219.21 601.04 180.31 596.8 180.31 587.68 203.11"/><path class="cls-11" d="M638.5,166.14a15.56,15.56,0,0,1,13.21,7.49h4.66a20,20,0,1,0-17.82,28.83c8.55,0,15.3-5.14,17.82-11.12h-4.66a15.78,15.78,0,0,1-13.21,7.28c-9,0-15.88-7.11-15.88-16.29A15.8,15.8,0,0,1,638.5,166.14Z" transform="translate(0 6.74)"/><path class="cls-11" d="M686.44,179.5c-1.38-3.2-5.51-6.7-11.54-6.7-8.59,0-14.62,6.6-14.62,14.88,0,7.75,5.44,14.88,14.62,14.88,5,0,9.33-2.36,11.54-6.6v5.81h3.86V173.58h-3.86Zm-.85,12.58A10.53,10.53,0,0,1,675.43,199c-7.76,0-11.28-6.14-11.33-11.22v0a11.06,11.06,0,0,1,11.22-11.32,10.88,10.88,0,0,1,10.32,6.75,10,10,0,0,1,.89,4.52A10.74,10.74,0,0,1,685.59,192.08Z" transform="translate(0 6.74)"/><path class="cls-11" d="M701.55,178.2v-4.62h-3.67v28.2h3.82V186.42c0-6.4,3-9.8,8.5-9.8h.37v-3.83C707.26,172.9,703.59,174,701.55,178.2Z" transform="translate(0 6.74)"/><path class="cls-10" d="M913.62,39.22A218.64,218.64,0,0,1,926.78,7.93l22.89,21.66a231,231,0,0,0-19.47,24Z" transform="translate(0 6.74)"/><path class="cls-12" d="M999.55,159c-2.84-1.3-5.71-2.49-8.67-3.51a53.8,53.8,0,0,0-10-2.46c-1.54-.22-3.1-.38-4.65-.48a36.5,36.5,0,0,0-6.6.32A53.35,53.35,0,0,0,960,155a99.5,99.5,0,0,0-11.37,4.56,74,74,0,0,1-14.89,5.17,49.5,49.5,0,0,1-14.9,1.06,56,56,0,0,1-8-1.28,74.08,74.08,0,0,1-13.87-4.93,84.8,84.8,0,0,0-11.82-4.5,60.5,60.5,0,0,0-16.37-2.37,53.85,53.85,0,0,0-6.83.41,60.44,60.44,0,0,0-7.91,1.44,81.24,81.24,0,0,0-14.14,5.19A72.74,72.74,0,0,1,828.63,164a51,51,0,0,1-11.08,1.92,44.28,44.28,0,0,1-6.2-.1,49,49,0,0,1-6.28-1,74.21,74.21,0,0,1-15.32-5.41,87,87,0,0,0-10.42-4.1A56.94,56.94,0,0,0,767,152.88a45.74,45.74,0,0,0-6.52-.1,62.77,62.77,0,0,0-6.72.75,68.88,68.88,0,0,0-16.88,5.54c-.15.07-.37.09-.4.31,1.21,1.09,2.53,2,3.68,3.14a14.65,14.65,0,0,1,1.95,1.56.92.92,0,0,0,1.14.15,60.89,60.89,0,0,1,8.57-3.3,36.76,36.76,0,0,1,13.43-1.64,42.46,42.46,0,0,1,6,.91,61.91,61.91,0,0,1,12.25,4.46,93.14,93.14,0,0,0,15,5.52,64.06,64.06,0,0,0,13.4,2.18,60.59,60.59,0,0,0,7.74-.09,64.4,64.4,0,0,0,8-1.07,84.4,84.4,0,0,0,16.63-5.34c2.68-1.17,5.31-2.48,8.07-3.49a47.16,47.16,0,0,1,16-3.1,44.22,44.22,0,0,1,10.07,1.12,62.42,62.42,0,0,1,12.43,4.44,87.08,87.08,0,0,0,17.56,6.07,67.91,67.91,0,0,0,13.25,1.63,63.34,63.34,0,0,0,8.37-.42,67,67,0,0,0,8.76-1.56A94.58,94.58,0,0,0,956,164.28c2.36-1.09,4.74-2.1,7.19-3a36.09,36.09,0,0,1,9.16-2.12,28.82,28.82,0,0,1,9,.68,61.53,61.53,0,0,1,11,3.91c.51.22,1,.69,1.55.6.77-.13,1.23-1.29,2-1.3l4.1-3.58v-.36a.88.88,0,0,1-.45-.14" transform="translate(0 6.74)"/><path class="cls-13" d="M999.55,179.29a93,93,0,0,0-8.67-3.51,53.8,53.8,0,0,0-10-2.46c-1.54-.22-3.1-.38-4.65-.48a35.62,35.62,0,0,0-6.6.32A53.35,53.35,0,0,0,960,175.3a96,96,0,0,0-11.37,4.56A74.6,74.6,0,0,1,933.73,185a49.37,49.37,0,0,1-8.29,1.15,48.64,48.64,0,0,1-6.61-.09,56,56,0,0,1-8-1.28,73.41,73.41,0,0,1-13.87-4.94,86,86,0,0,0-11.82-4.49A60.5,60.5,0,0,0,868.75,173a52.06,52.06,0,0,0-6.83.41,60.44,60.44,0,0,0-7.91,1.44,80.43,80.43,0,0,0-14.14,5.19,73.78,73.78,0,0,1-11.24,4.21,51,51,0,0,1-11.08,1.92,44.28,44.28,0,0,1-6.2-.1,49,49,0,0,1-6.28-1,74.21,74.21,0,0,1-15.32-5.41,87,87,0,0,0-10.42-4.1A56.36,56.36,0,0,0,767,173.16a44.31,44.31,0,0,0-6.52-.1,60.31,60.31,0,0,0-6.72.75,69.28,69.28,0,0,0-16.88,5.53c-.15.08-.37.1-.4.32,1.21,1.09,2.53,2,3.68,3.13a14.73,14.73,0,0,1,1.95,1.57.93.93,0,0,0,1.14.15,60.89,60.89,0,0,1,8.57-3.3,37,37,0,0,1,13.43-1.65,44,44,0,0,1,6,.92,62.52,62.52,0,0,1,12.25,4.45,92.23,92.23,0,0,0,15,5.53,65.4,65.4,0,0,0,13.4,2.18,60.59,60.59,0,0,0,7.74-.09,64.4,64.4,0,0,0,8-1.07,83.78,83.78,0,0,0,16.63-5.35c2.68-1.16,5.31-2.47,8.07-3.48a47.16,47.16,0,0,1,16-3.1,44.22,44.22,0,0,1,10.07,1.11,62.45,62.45,0,0,1,12.43,4.45,87.08,87.08,0,0,0,17.56,6.07,68.68,68.68,0,0,0,13.25,1.63,63.34,63.34,0,0,0,8.37-.42,68.68,68.68,0,0,0,8.76-1.56A94.94,94.94,0,0,0,956,184.56c2.35-1.09,4.73-2.1,7.18-3a35.67,35.67,0,0,1,9.16-2.12,28.82,28.82,0,0,1,9,.68,61.5,61.5,0,0,1,11,3.9c.51.23,1,.69,1.55.6.77-.13,1.23-1.28,2-1.29l4.1-3.59v-.35a.88.88,0,0,1-.45-.14" transform="translate(0 6.74)"/><path class="cls-14" d="M999.55,198.93c-2.84-1.29-5.71-2.49-8.67-3.5a54.63,54.63,0,0,0-10-2.47c-1.54-.21-3.1-.38-4.65-.47a36.49,36.49,0,0,0-6.6.31A54.24,54.24,0,0,0,960,195a97.64,97.64,0,0,0-11.37,4.55,74,74,0,0,1-14.89,5.17,47.4,47.4,0,0,1-8.29,1.15,50.31,50.31,0,0,1-6.61-.08,54.67,54.67,0,0,1-8-1.29,73.38,73.38,0,0,1-13.87-4.93A83.51,83.51,0,0,0,885.12,195a60.51,60.51,0,0,0-16.37-2.38,55.77,55.77,0,0,0-6.83.41,60.47,60.47,0,0,0-7.91,1.45,81.2,81.2,0,0,0-14.14,5.18,72.78,72.78,0,0,1-11.24,4.22,50.42,50.42,0,0,1-11.08,1.91,42.8,42.8,0,0,1-6.2-.09,50.88,50.88,0,0,1-6.28-.95,74.8,74.8,0,0,1-15.32-5.41,87,87,0,0,0-10.42-4.1A55.78,55.78,0,0,0,767,192.81a44.31,44.31,0,0,0-6.52-.1,60.31,60.31,0,0,0-6.72.75A69.28,69.28,0,0,0,736.83,199c-.15.07-.37.1-.4.32,1.21,1.08,2.53,2,3.68,3.13a15.5,15.5,0,0,1,1.95,1.56.92.92,0,0,0,1.14.16,60.93,60.93,0,0,1,8.57-3.31,37,37,0,0,1,13.43-1.64,42.48,42.48,0,0,1,6,.92,61.26,61.26,0,0,1,12.25,4.45,91.27,91.27,0,0,0,15,5.52,64.06,64.06,0,0,0,13.4,2.18,58.81,58.81,0,0,0,7.74-.08,62.57,62.57,0,0,0,8-1.08,83.75,83.75,0,0,0,16.63-5.34c2.68-1.16,5.31-2.47,8.07-3.48a46.68,46.68,0,0,1,16-3.1,44.22,44.22,0,0,1,10.07,1.11,63.05,63.05,0,0,1,12.43,4.44,87.73,87.73,0,0,0,17.56,6.08,67.9,67.9,0,0,0,13.25,1.62,61.68,61.68,0,0,0,8.37-.42,68.5,68.5,0,0,0,8.77-1.55A94.94,94.94,0,0,0,956,204.19c2.34-1.08,4.71-2.08,7.15-2.95a36.07,36.07,0,0,1,9.16-2.11,28.82,28.82,0,0,1,9,.68,60.73,60.73,0,0,1,11,3.9c.51.23,1,.69,1.55.6.77-.13,1.23-1.29,2-1.29l4.1-3.59v-.36a.73.73,0,0,1-.45-.14" transform="translate(0 6.74)"/><path class="cls-15" d="M952.63,85.35c-.09.11-.14.14-.15.19a3.59,3.59,0,0,0-.12.47,31.41,31.41,0,0,1-4.05,10C942,106.13,932.77,111.59,921,112.7a33.47,33.47,0,0,1-12.3-1.2,35.19,35.19,0,0,1-13.43-7.15c-.2-.17-.43-.34-.65-.51a1.36,1.36,0,0,0-.15.22c0,.19-.05.38-.08.56a18.34,18.34,0,0,1-3.28,8.32,19.44,19.44,0,0,1-27.18,4.37c-6.11-4.51-8.71-10.66-7.52-18.22a17.8,17.8,0,0,1,2.2-6.15L802.4,118.88h10c.29,0,.58,0,.31.05v1.9H799.06l-6.43,2.55a1.28,1.28,0,0,1,.91,1.38c0,4.79,0,9.58,0,14.37a18.74,18.74,0,0,0,.13,2.25,4,4,0,0,0,3.57,3.89,14.8,14.8,0,0,0,2.73.29c4.6,0,9.2,0,13.8,0a15.58,15.58,0,0,0,3.11-.4,3.64,3.64,0,0,0,3-3.16,15.66,15.66,0,0,0,.25-2.73c0-4.76,0-9.52,0-14.29,0-.36,0-.73.05-1.55H914c0,.82,0,1.16,0,1.5,0,4.9,0,9.8,0,14.7,0,.51,0,1,.07,1.52.27,2.4,1.34,3.67,3.54,4.11a15.57,15.57,0,0,0,2.8.3c4.58,0,9.15,0,13.73,0a15.67,15.67,0,0,0,3.26-.43,3.61,3.61,0,0,0,2.92-3,13.75,13.75,0,0,0,.29-2.56q0-7.46,0-14.93a1.13,1.13,0,0,1,.79-1.21c1.09-.45,2.14-1,3.22-1.5a10,10,0,0,0,3.49-2.67,15.21,15.21,0,0,0,2.56-4.45,38.59,38.59,0,0,0,2.19-11.45,133.13,133.13,0,0,0,0-13.55c-.06-1.47-.19-2.93-.29-4.47" transform="translate(0 6.74)"/><path class="cls-16" d="M787.17,121.09c.15.07.3.12.44.2a14.93,14.93,0,0,0,1.38.84c1.16.57,2.34,1.15,3.55,1.65l6.49-3h-11.7l-.16.26" transform="translate(0 6.74)"/><path class="cls-17" d="M889.06,87.9a19.42,19.42,0,1,0,0,27.46,19.41,19.41,0,0,0,0-27.46" transform="translate(0 6.74)"/><path class="cls-18" d="M889.06,87.9a19.42,19.42,0,1,0,0,27.46,19.41,19.41,0,0,0,0-27.46m-26.89,26.89a18.61,18.61,0,1,1,26.32,0,18.6,18.6,0,0,1-26.32,0" transform="translate(0 6.74)"/><g class="cls-19"><g class="cls-20"><rect class="cls-21" x="863.77" y="90.52" width="24.29" height="33.52" transform="translate(689.77 976.63) rotate(-84.81)"/></g></g><g class="cls-22"><g class="cls-23"><rect class="cls-24" x="869.72" y="84.27" width="24.51" height="25.91" transform="translate(11.43 275.65) rotate(-17.45)"/></g></g><g class="cls-25"><g class="cls-26"><rect class="cls-27" x="858.43" y="102.02" width="36.39" height="23.61" transform="translate(-6.74 153.55) rotate(-9.54)"/></g></g><path class="cls-17" d="M931.15,3.48a25.66,25.66,0,1,0,9.3,35.08,25.65,25.65,0,0,0-9.3-35.08" transform="translate(0 6.74)"/><path class="cls-18" d="M931.15,3.48a25.66,25.66,0,1,0,9.3,35.08,25.65,25.65,0,0,0-9.3-35.08M905.9,46.93A24.6,24.6,0,1,1,939.53,38a24.6,24.6,0,0,1-33.63,8.91" transform="translate(0 6.74)"/><g class="cls-28"><g class="cls-29"><rect class="cls-30" x="895.72" y="11.03" width="47.72" height="40.6" transform="translate(7.75 161.22) rotate(-9.64)"/></g></g><g class="cls-31"><g class="cls-32"><rect class="cls-33" x="907.26" y="0.19" width="35.89" height="34.4" transform="translate(133.74 503.6) rotate(-32.28)"/></g></g><g class="cls-34"><g class="cls-35"><rect class="cls-36" x="898.26" y="19.54" width="49.5" height="42.77" transform="translate(65.38 391.3) rotate(-24.37)"/></g></g><path class="cls-17" d="M907.71,38.94A37.92,37.92,0,1,0,955,64.19a37.9,37.9,0,0,0-47.3-25.25" transform="translate(0 6.74)"/><path class="cls-18" d="M907.71,38.94A37.92,37.92,0,1,0,955,64.19a37.89,37.89,0,0,0-47.31-25.25M929.29,110A36.34,36.34,0,1,1,953.5,64.65,36.34,36.34,0,0,1,929.29,110" transform="translate(0 6.74)"/><g class="cls-37"><g class="cls-38"><rect class="cls-39" x="884.29" y="37.84" width="80.8" height="78.36" transform="translate(352.63 814.32) rotate(-56.7)"/></g></g><g class="cls-40"><g class="cls-41"><rect class="cls-42" x="900.92" y="29.82" width="31.05" height="54.2" transform="translate(690.99 953.76) rotate(-79.34)"/></g></g><g class="cls-43"><g class="cls-44"><rect class="cls-45" x="902.09" y="50.35" width="73.57" height="62.1" transform="translate(562.72 952.21) rotate(-71.43)"/></g></g><path class="cls-16" d="M892.33,22H824.85s-.54-.43-.8-.39a24.09,24.09,0,0,0-5.89,1.58,29.82,29.82,0,0,0-5.3,2.88,16.89,16.89,0,0,0-5.89,6.3c-.85,1.66-1.62,3.39-2.4,5.09-.55,1.23-1.05,2.47-1.6,3.7-.87,1.93-1.78,3.84-2.64,5.77-1.1,2.45-2.16,4.91-3.24,7.36-1.51,3.39-3,6.76-4.55,10.15-.13.29-.25.63-.37.95h5.29v2.54H791c-.08.12-.19.17-.24.35-.17.58-.48,1.13-.71,1.71a2,2,0,0,1-.9,1.08l-.05,0h8.32v3.33H785.39a11.13,11.13,0,0,0-1.88,2.66,1.92,1.92,0,0,0-.1.61H805.5c.59,0,1.19,0,1.79,0l5.44,0v1.9h-29.9a23.45,23.45,0,0,0-.8,4.82h22.9V87H781.42a18.94,18.94,0,0,0-.27,3.57h22.22V93.2H781c0,1.38,0,2.73.05,4.09h22.29v2.59h-22.3a45.15,45.15,0,0,0,.29,5.34h13.91c1.47,0,2.93,0,4.39,0l5.27,0v2.6H781.68a19.19,19.19,0,0,0,.82,2.61h26.12a14.77,14.77,0,0,1-.23,2,2,2,0,0,1-1.66.79c-7.64,0-15.28,0-22.92,0-.31,0-.62,0-1,.06.4,1,.72,1.92,1.12,2.79a21.64,21.64,0,0,0,1.16,2.11,1.43,1.43,0,0,0,1.4.72c5,0,15.17-.71,15.17-.71h-.2l57.14-26A19.74,19.74,0,0,1,875.1,82a18,18,0,0,1,5.14.43l4.28-2a34.81,34.81,0,0,1,.68-11,3.44,3.44,0,0,0,0-.61h-80a2,2,0,0,1-2-2.91c.3-.74.66-1.47,1-2.21,1-2.21,1.92-4.42,2.91-6.62,1.06-2.38,2.17-4.74,3.25-7.11.82-1.84,1.64-3.69,2.43-5.54,1-2.38,2-4.77,3-7.16a9.81,9.81,0,0,1,2.41-3.49,16.42,16.42,0,0,1,3.08-2.2,15.47,15.47,0,0,1,7.44-1.77c5.79,0,11.58,0,17.37,0h46.07s.52-1.74.77-1.75c.11-2.16.22-4.26.34-6.46a2.58,2.58,0,0,0-.92.41M819.94,88.21a9.48,9.48,0,0,1,4.74,5.14,7.65,7.65,0,0,1,.59,2.74,8.75,8.75,0,0,1-2.18,5.66,10.28,10.28,0,0,1-4.61,3.13,12,12,0,0,1-10-.74,9.9,9.9,0,0,1-3.42-2.87,8.08,8.08,0,0,1-1.46-7.07,9.34,9.34,0,0,1,4.72-5.85,12.44,12.44,0,0,1,4.5-1.4,11.92,11.92,0,0,1,7.08,1.26" transform="translate(0 6.74)"/></g></g></svg>