<?xml version="1.0" encoding="utf-8"?>
<!-- Generator: Adobe Illustrator 19.2.1, SVG Export Plug-In . SVG Version: 6.00 Build 0)  -->
<svg version="1.1" id="Layer_1" xmlns="http://www.w3.org/2000/svg" xmlns:xlink="http://www.w3.org/1999/xlink" x="0px" y="0px"
	 viewBox="0 0 260 75" style="enable-background:new 0 0 260 75;" xml:space="preserve">
<style type="text/css">
	
  /*.verdeOscuroHoja{fill:#505050;}
    .letrasGreen{fill:#86B53C;}
    .letrasSoft{fill:#2A9D46;}
    .sombraHoja{fill:#DAE5C2;}
    .st5{fill:url(#SVGID_1_);}
    .st1{fill:none;stroke:#231F20;stroke-width:1.4514;}
	
	*/
  .verdeOscuroHoja{fill:#505050;}
	.letrasGreen{fill:#a0a0a0;}
	.letrasSoft{fill:#909090;}
	.sombraHoja{fill:#e0e0e0;}
 .linea{fill:url(#SVGID_1_);}
</style>
<g>
	<path class="verdeOscuroHoja" d="M19.1,58.3c0,0,14.4-7.2,4-18.6c-2.8-3.7-8.9-8.9-12-13.7c0,0-6.5-9.5,2.3-17.8c0,0,6.1-6.3,19.7-4.9
		c0,0-23.3-6.7-28.6,10.5c0,0-3.3,9.2,8.9,20C17.8,38.6,31.5,47.3,19.1,58.3z"/>
	<path class="verdeOscuroHoja" d="M23.5,39.3"/>
	<path class="letrasGreen" d="M25.8,26.1c-3.4-3.8-10.7-15,7.3-22.8C19.5,1.9,13.4,8.2,13.4,8.2C4.1,16.6,11.1,26,11.1,26
		c3.1,4.9,9.2,10,12,13.7c9.8,11.6-4,18.6-4,18.6S36.3,55.7,34.3,41C34.3,41,33.6,35,25.8,26.1z"/>
	<g>
		<path class="letrasGreen" d="M73.3,50.3c0,1.9-1.2,3.3-3.7,4.2c-1.7,0.6-3.7,1-6,1h-1.5c-0.9,0-1.4-0.6-1.4-1.7c0-0.9,0.5-1.4,1.4-1.4h2.7
			c0.6,0,1.5-0.2,2.6-0.5c1.3-0.4,2.1-0.8,2.1-1.2H59.4c-2.4,0-4.3-0.3-5.9-0.9c-2.2-0.9-3.4-2.3-3.4-4.3v-6.2
			c0-3.5,3.5-5.3,10.4-5.3c0.5,0,1.1,0,1.8,0c0.7,0,1.2,0,1.5,0c2.3,0,4.3,0.3,6,1c2.3,0.9,3.5,2.3,3.5,4.3V50.3z M69.5,47.6v-8.1
			c0-0.8-0.7-1.5-2.1-1.9c-1-0.3-2-0.4-3-0.4h-5.8c-1.4,0-2.3,0.1-2.9,0.2c-1.2,0.3-1.8,0.9-1.8,1.8v6.2c0,1.4,1.8,2.1,5.5,2.1H69.5
			z"/>
		<path class="letrasGreen" d="M87.1,35.9c0,0.9-0.5,1.4-1.4,1.4c-0.1,0-0.3,0-0.7,0c-0.4,0-0.6,0-0.9,0c-2.8,0-4.2,0.7-4.2,2.1v10.2
			c0,0.7-0.3,1.1-0.8,1.3c-0.2,0.1-0.7,0.1-1.6,0.1c-0.9,0-1.4-0.5-1.4-1.4l0.1-10.2c0-3.5,3.2-5.2,9.5-5.2
			C86.7,34.1,87.1,34.7,87.1,35.9z"/>
		<path class="letrasGreen" d="M112.7,42.8c0,1-0.3,1.5-1,1.5H93.3c-0.1,2.4,1.8,3.5,5.6,3.5c0.2,0,0.6,0,1,0c0.4,0,0.7,0,0.9,0
			c0.9,0,1.4,0.6,1.4,1.7c0,0.9-0.5,1.4-1.4,1.4c-2.4,0-4,0-4.8-0.1c-2-0.2-3.5-0.7-4.5-1.4c-1.4-1.1-2-2.3-2-3.7v-6.2
			c0-1.9,1.1-3.4,3.2-4.3c1.5-0.7,3.4-1,5.7-1h6.9c1.8,0,3.4,0.3,4.8,1c1.8,0.8,2.7,2,2.7,3.7V42.8z M109.1,41.1v-2
			c0-1.2-2.5-1.9-7.5-1.9c-0.6,0-1.3,0-1.9,0c-0.7,0-1,0-0.9,0c-3.7,0-5.6,0.6-5.6,1.9v1.9H109.1z"/>
		<path class="letrasGreen" d="M138.7,42.8c0,1-0.3,1.5-1,1.5h-18.3c-0.1,2.4,1.8,3.5,5.6,3.5c0.2,0,0.6,0,1,0c0.4,0,0.7,0,0.9,0
			c0.9,0,1.4,0.6,1.4,1.7c0,0.9-0.5,1.4-1.4,1.4c-2.4,0-4,0-4.8-0.1c-2-0.2-3.5-0.7-4.5-1.4c-1.4-1.1-2-2.3-2-3.7v-6.2
			c0-1.9,1.1-3.4,3.2-4.3c1.5-0.7,3.4-1,5.7-1h6.9c1.8,0,3.4,0.3,4.8,1c1.8,0.8,2.7,2,2.7,3.7V42.8z M135.1,41.1v-2
			c0-1.2-2.5-1.9-7.5-1.9c-0.6,0-1.3,0-1.9,0c-0.7,0-1,0-0.9,0c-3.7,0-5.6,0.6-5.6,1.9v1.9H135.1z"/>
		<path class="letrasGreen" d="M164.4,49.5c0,0.9-0.5,1.4-1.4,1.4c-0.9,0-1.4,0-1.6-0.1c-0.5-0.2-0.8-0.6-0.8-1.3V38.8
			c0-0.8-0.6-1.3-1.9-1.5c-0.5-0.1-1.4-0.1-2.8-0.1h-6c-1.4,0-2.4,0-2.8,0.1c-1.3,0.2-1.9,0.7-1.9,1.5v10.6c0,0.9-0.5,1.4-1.4,1.4
			c-0.8,0-1.4,0-1.6-0.1c-0.5-0.2-0.7-0.6-0.7-1.3V38.9c0-3.2,2.8-4.8,8.4-4.8h6c5.6,0,8.4,1.6,8.4,4.7V49.5z"/>
		<path class="letrasSoft" d="M185.5,46.7c0,0.9-0.1,1.6-0.4,2.1c-0.8,1.3-3,2-6.8,2h-10.4c-0.7,0-1-0.4-1-1.1c0-0.5,0-0.8,0.1-1
			c0.2-0.3,0.5-0.4,0.9-0.4h10.4c2.8,0,4.2-0.5,4.2-1.6v-1.4c0-1-1.4-1.6-4.1-1.7c-4.6-0.1-7.1-0.2-7.5-0.3
			c-2.7-0.5-4.1-1.7-4.1-3.6v-1.2c0-2,1.1-3.2,3.2-3.8c1-0.3,2.9-0.4,5.6-0.4c0.7,0,1.1,0.4,1.1,1v0.3c0,0.7-0.4,1.1-1.1,1.1
			c-0.1,0-0.3,0-0.6,0c-0.3,0-0.6,0-0.8,0c-3,0-4.4,0.6-4.4,1.7v1.2c0,0.7,0.6,1.2,1.8,1.4c0.5,0.1,1.4,0.1,2.6,0.1h4
			c1.8,0,3.3,0.2,4.5,0.7c1.7,0.7,2.6,1.8,2.6,3.3V46.7z"/>
		<path class="letrasSoft" d="M207.7,46.4c0,3-2.5,4.4-7.6,4.4h-4.7c-2,0-3.6-0.3-4.9-0.8c-1.8-0.7-2.7-2-2.7-3.6v-7.6c0-3,2.5-4.5,7.6-4.5
			h4.7c2.3,0,4,0.2,5.1,0.6c1.7,0.7,2.6,1.9,2.6,3.8V46.4z M204.7,46.3v-7.5c0-1.4-1.5-2.1-4.6-2.1h-4.8c-3.1,0-4.6,0.7-4.6,2.1v7.5
			c0,1.3,1.5,2,4.6,2h4.8C203.2,48.3,204.7,47.6,204.7,46.3z"/>
		<path class="letrasSoft" d="M227.4,43.9h-14.4v5.8c0,0.7-0.4,1.1-1.1,1.1c-0.7,0-1.2,0-1.3-0.1c-0.4-0.1-0.6-0.5-0.6-1V38.2
			c0-1.3,0.9-2.3,2.6-3c1.3-0.5,2.7-0.8,4.2-0.8h2.2c0.5,0,0.8,0.1,0.9,0.4c0.1,0.2,0.2,0.5,0.2,1c0,0.7-0.4,1.1-1.1,1.1
			c-4,0-6.1,0.5-6.1,1.5v3.2h14.4c0.7,0,1.1,0.4,1.1,1.2C228.6,43.5,228.2,43.9,227.4,43.9z"/>
		<path class="letrasSoft" d="M247.8,35.7c0,0.7-0.3,1.1-1.1,1.1h-6.7v13c0,0.7-0.4,1.1-1,1.1c-0.7,0-1.2,0-1.3-0.1c-0.4-0.1-0.6-0.5-0.6-1
			v-13h-6.6c-0.7,0-1.1-0.4-1.1-1.1c0-0.5,0.1-0.8,0.2-1c0.2-0.3,0.5-0.4,0.9-0.4h16.3c0.4,0,0.7,0.1,0.9,0.4
			C247.7,34.9,247.8,35.2,247.8,35.7z"/>
	</g>
	<ellipse class="sombraHoja" cx="24" cy="70.6" rx="15.4" ry="1.4"/>
	<g>
		<path class="letrasSoft" d="M77,66.7c0,0.3,0.1,0.6,0.2,0.7c0.1,0.1,0.4,0.2,0.7,0.2H80c0.3,0,0.5,0,0.6-0.1c0.2-0.1,0.3-0.3,0.3-0.5
			c0-0.3-0.1-0.5-0.3-0.5c-0.1-0.1-0.4-0.1-0.7-0.1h-2.1c-0.5,0-0.8-0.1-1-0.3c-0.2-0.2-0.3-0.5-0.3-0.9c0-0.5,0.2-0.8,0.7-1
			c0.3-0.1,0.7-0.1,1.3-0.1H80c0.5,0,0.8,0.1,1,0.3c0.2,0.2,0.3,0.5,0.4,0.9h-0.6v0c0-0.3-0.1-0.5-0.3-0.5c-0.1-0.1-0.3-0.1-0.7-0.1
			h-1.7c-0.7,0-1,0.2-1,0.6c0,0.2,0.1,0.4,0.2,0.5c0.1,0.1,0.3,0.1,0.5,0.1l2.2,0.1c0.5,0,0.9,0.1,1.1,0.2c0.3,0.2,0.4,0.5,0.4,1
			c0,0.4-0.1,0.7-0.3,0.9c-0.2,0.1-0.5,0.2-0.9,0.3c-0.2,0-0.3,0-0.3,0l-2.2,0c-0.5,0-0.9-0.1-1.1-0.3c-0.2-0.2-0.3-0.6-0.3-1.1H77z
			"/>
		<path class="letrasSoft" d="M87.3,63.9h0.6c0.8,0,1.4,0.1,1.7,0.3c0.4,0.3,0.6,0.8,0.6,1.6c0,0.8-0.1,1.4-0.4,1.7
			c-0.3,0.4-0.9,0.6-1.6,0.6c-0.1,0-0.3,0-0.6,0c-0.3,0-0.5,0-0.6,0c-0.8,0-1.4-0.1-1.7-0.4c-0.3-0.3-0.5-0.9-0.5-1.7
			c0-0.9,0.2-1.4,0.7-1.7C85.7,64,86.3,63.9,87.3,63.9z M89.5,66.1c0-0.7-0.1-1.2-0.3-1.4c-0.2-0.2-0.7-0.3-1.4-0.3h-0.5
			c-0.8,0-1.3,0.1-1.5,0.2c-0.3,0.2-0.4,0.7-0.4,1.4c0,0.6,0.1,1.1,0.4,1.3c0.2,0.2,0.7,0.2,1.3,0.2h0.5c0.7,0,1.2-0.1,1.4-0.2
			C89.3,67.2,89.5,66.8,89.5,66.1z"/>
		<path class="letrasSoft" d="M93.6,62.2h0.6v5.8h-0.6V62.2z"/>
		<path class="letrasSoft" d="M97.7,64h0.6v2.5c0,0.5,0.2,0.8,0.5,1c0.2,0.1,0.6,0.2,1.1,0.2c0.7,0,1.2-0.1,1.4-0.2
			c0.4-0.2,0.5-0.6,0.5-1.3V64h0.6v4.1h-0.6v-0.7c-0.2,0.3-0.5,0.5-0.8,0.6c-0.2,0.1-0.6,0.1-1,0.1c-0.8,0-1.3-0.1-1.6-0.3
			c-0.5-0.3-0.7-0.7-0.7-1.4V64z"/>
		<path class="letrasSoft" d="M111.1,65.4h-0.6v0c0-0.3-0.1-0.5-0.3-0.7c-0.2-0.1-0.6-0.2-1.1-0.2c0,0-0.1,0-0.3,0c-0.1,0-0.2,0-0.3,0
			c-0.6,0-1,0.1-1.3,0.2c-0.3,0.2-0.5,0.5-0.5,1.1v0.1c0,0.8,0.1,1.2,0.3,1.4c0.2,0.2,0.7,0.3,1.4,0.3c0,0,0.1,0,0.3,0
			c0.2,0,0.2,0,0.3,0c0.4,0,0.8-0.1,1-0.2c0.3-0.2,0.4-0.4,0.4-0.8h0.6v0.1c0,0.9-0.6,1.4-1.8,1.4h-1.5c-0.7,0-1.2-0.2-1.4-0.6
			c-0.2-0.3-0.3-0.9-0.3-1.6c0-0.7,0.1-1.2,0.4-1.5c0.3-0.3,0.7-0.5,1.4-0.5h1.5c1,0,1.6,0.4,1.6,1.3
			C111.1,65.3,111.1,65.3,111.1,65.4z"/>
		<path class="letrasSoft" d="M114.5,62.2h0.6V63h-0.6V62.2z M114.5,64h0.6v4.1h-0.6V64z"/>
		<path class="letrasSoft" d="M121.1,63.9h0.6c0.8,0,1.4,0.1,1.7,0.3c0.4,0.3,0.6,0.8,0.6,1.6c0,0.8-0.1,1.4-0.4,1.7
			c-0.3,0.4-0.8,0.6-1.6,0.6c-0.1,0-0.3,0-0.6,0c-0.3,0-0.5,0-0.6,0c-0.8,0-1.4-0.1-1.7-0.4c-0.3-0.3-0.5-0.9-0.5-1.7
			c0-0.9,0.2-1.4,0.7-1.7C119.5,64,120.1,63.9,121.1,63.9z M123.3,66.1c0-0.7-0.1-1.2-0.3-1.4c-0.2-0.2-0.7-0.3-1.4-0.3h-0.5
			c-0.8,0-1.3,0.1-1.5,0.2c-0.3,0.2-0.4,0.7-0.4,1.4c0,0.6,0.1,1.1,0.4,1.3c0.2,0.2,0.7,0.2,1.3,0.2h0.5c0.7,0,1.2-0.1,1.4-0.2
			C123.1,67.2,123.3,66.8,123.3,66.1z"/>
		<path class="letrasSoft" d="M127.5,63.9h0.6v0.7c0.2-0.3,0.5-0.5,0.8-0.6c0.2-0.1,0.6-0.1,1-0.1c0.8,0,1.3,0.1,1.7,0.3
			c0.4,0.2,0.6,0.7,0.6,1.5v2.4h-0.6c0-0.5,0-1.3,0-2.4c0-0.5-0.2-0.8-0.5-1c-0.2-0.1-0.6-0.2-1.2-0.2c-0.7,0-1.2,0.1-1.4,0.2
			c-0.3,0.2-0.5,0.6-0.5,1.3v2.1h-0.6V63.9z"/>
		<path class="letrasSoft" d="M141,65.6v0.5h-4.5c0,0,0,0.1,0,0.1c0,0.7,0.2,1.1,0.7,1.2c0,0,0.2,0,0.5,0.1c0.1,0,0.2,0,0.1,0l1.6,0
			c0.3,0,0.5-0.1,0.7-0.2c0.1-0.1,0.2-0.3,0.3-0.5h0.6v0c0,0.5-0.3,0.9-0.8,1.1c-0.3,0.1-0.8,0.2-1.5,0.2c-0.7,0-1.2,0-1.5-0.1
			c-0.5-0.1-0.8-0.3-1-0.6c-0.2-0.3-0.3-0.8-0.3-1.4c0-0.8,0.1-1.3,0.5-1.6c0.3-0.3,0.8-0.5,1.6-0.5c0,0,0.1,0,0.2,0
			c0.1,0,0.2,0,0.2,0h0.4c0.8,0,1.4,0.1,1.7,0.3C140.8,64.4,141,64.9,141,65.6z M140.3,65.6v-0.1c0-0.5-0.2-0.8-0.5-0.9
			c-0.2-0.1-0.6-0.1-1.1-0.1h-0.5c-0.6,0-1,0.1-1.2,0.2c-0.4,0.2-0.5,0.5-0.5,1H140.3z"/>
		<path class="letrasSoft" d="M144.7,66.7c0,0.3,0.1,0.6,0.2,0.7c0.1,0.1,0.4,0.2,0.7,0.2h2.1c0.3,0,0.5,0,0.6-0.1c0.2-0.1,0.3-0.3,0.3-0.5
			c0-0.3-0.1-0.5-0.3-0.5c-0.1-0.1-0.4-0.1-0.7-0.1h-2.1c-0.5,0-0.8-0.1-1-0.3c-0.2-0.2-0.3-0.5-0.3-0.9c0-0.5,0.2-0.8,0.7-1
			c0.3-0.1,0.7-0.1,1.3-0.1h1.5c0.5,0,0.8,0.1,1,0.3c0.2,0.2,0.3,0.5,0.4,0.9h-0.6v0c0-0.3-0.1-0.5-0.3-0.5
			c-0.1-0.1-0.3-0.1-0.7-0.1h-1.7c-0.7,0-1,0.2-1,0.6c0,0.2,0.1,0.4,0.2,0.5c0.1,0.1,0.3,0.1,0.5,0.1l2.2,0.1c0.5,0,0.9,0.1,1.1,0.2
			c0.3,0.2,0.4,0.5,0.4,1c0,0.4-0.1,0.7-0.3,0.9c-0.2,0.1-0.5,0.2-0.9,0.3c-0.2,0-0.3,0-0.3,0l-2.2,0c-0.5,0-0.9-0.1-1.1-0.3
			c-0.2-0.2-0.3-0.6-0.3-1.1H144.7z"/>
		<path class="letrasSoft" d="M157.7,62.2h0.6V63h-0.6V62.2z M157.7,64h0.6v4.1h-0.6V64z"/>
		<path class="letrasSoft" d="M161.8,63.9h0.6v0.7c0.2-0.3,0.5-0.5,0.8-0.6c0.2-0.1,0.6-0.1,1.1-0.1c0.8,0,1.3,0.1,1.6,0.3
			c0.4,0.2,0.6,0.7,0.6,1.5v2.4H166c0-0.5,0-1.3,0-2.4c0-0.5-0.2-0.8-0.5-1c-0.2-0.1-0.6-0.2-1.1-0.2c-0.7,0-1.2,0.1-1.4,0.2
			c-0.3,0.2-0.5,0.6-0.5,1.3v2.1h-0.6V63.9z"/>
		<path class="letrasSoft" d="M170.1,64h0.9l0-0.5c0-0.2,0-0.4,0.1-0.5c0.1-0.3,0.4-0.5,0.7-0.6c0.2-0.1,0.5-0.1,1-0.1h0.6v0.5h-0.6
			c-0.5,0-0.8,0.1-0.9,0.2c-0.1,0.1-0.2,0.5-0.2,0.9V64h1.7v0.5h-1.7v3.6H171v-3.6h-0.9V64z"/>
		<path class="letrasSoft" d="M178.9,63.9h0.6c0.8,0,1.4,0.1,1.7,0.3c0.4,0.3,0.6,0.8,0.6,1.6c0,0.8-0.1,1.4-0.4,1.7
			c-0.3,0.4-0.9,0.6-1.6,0.6c-0.1,0-0.3,0-0.6,0c-0.3,0-0.5,0-0.6,0c-0.8,0-1.4-0.1-1.7-0.4c-0.3-0.3-0.5-0.9-0.5-1.7
			c0-0.9,0.2-1.4,0.7-1.7C177.4,64,178,63.9,178.9,63.9z M181.2,66.1c0-0.7-0.1-1.2-0.3-1.4c-0.2-0.2-0.7-0.3-1.4-0.3H179
			c-0.8,0-1.3,0.1-1.5,0.2c-0.3,0.2-0.4,0.7-0.4,1.4c0,0.6,0.1,1.1,0.4,1.3c0.2,0.2,0.7,0.2,1.3,0.2h0.5c0.7,0,1.2-0.1,1.4-0.2
			C181,67.2,181.2,66.8,181.2,66.1z"/>
		<path class="letrasSoft" d="M185.4,64h0.6v0.6c0.3-0.3,0.5-0.5,0.8-0.6c0.2-0.1,0.5-0.1,1-0.1c0.7,0,1.1,0.1,1.4,0.4
			c0.2,0.2,0.3,0.7,0.3,1.4c0,0,0,0,0,0.1h-0.6v-0.1c0-0.5-0.1-0.8-0.2-1c-0.2-0.2-0.5-0.2-1-0.2c-0.6,0-1,0.1-1.2,0.3
			c-0.3,0.2-0.4,0.6-0.4,1.2v2.2h-0.6V64z"/>
		<path class="letrasSoft" d="M193.4,64h0.6v0.6c0.2-0.3,0.4-0.5,0.8-0.6c0.2-0.1,0.5-0.1,1-0.1c0.6,0,1,0,1.2,0.1c0.4,0.1,0.7,0.3,1,0.6
			c0.2-0.3,0.5-0.5,0.8-0.6c0.2-0.1,0.6-0.1,1.1-0.1c0.8,0,1.3,0.1,1.6,0.2c0.5,0.2,0.7,0.7,0.7,1.4v2.5h-0.6v-2.5
			c0-0.5-0.2-0.8-0.5-1c-0.2-0.1-0.6-0.1-1.2-0.1c-0.6,0-1.1,0.1-1.3,0.3c-0.3,0.2-0.4,0.6-0.4,1.2v2.1h-0.6v-2.6
			c0-0.4-0.2-0.7-0.5-0.9c-0.2-0.1-0.6-0.1-1-0.1c-0.6,0-1,0-1.2,0.1c-0.4,0.2-0.7,0.5-0.7,0.9v2.5h-0.6V64z"/>
		<path class="letrasSoft" d="M210.2,65.5c0-0.5-0.2-0.8-0.5-0.9c-0.2-0.1-0.6-0.1-1.1-0.1c0,0-0.1,0-0.3,0c-0.2,0-0.3,0-0.3,0
			c-0.9,0-1.3,0.2-1.3,0.7h-0.7V65c0-0.5,0.2-0.8,0.7-1c0.3-0.1,0.7-0.2,1.3-0.2c0.1,0,0.2,0,0.4,0h0.4c1,0,1.7,0.2,1.9,0.7
			c0.1,0.2,0.2,0.6,0.2,1.2c0,0.2,0,0.6,0,1.1v1.1h-0.6v-0.4c-0.1,0.1-0.1,0.1-0.2,0.2c-0.2,0.2-0.8,0.3-1.6,0.3h-0.3
			c0,0-0.1,0-0.2,0c-0.1,0-0.1,0-0.1,0c-0.7,0-1.2-0.1-1.4-0.2c-0.4-0.2-0.7-0.6-0.7-1.2c0-0.5,0.2-0.8,0.6-1
			c0.3-0.1,0.7-0.2,1.2-0.2c0.1,0,0.3,0,0.6,0c0.3,0,0.5,0,0.6,0c0.4,0,0.6,0,0.7,0.1c0.2,0.1,0.4,0.2,0.6,0.4L210.2,65.5z
			 M208.7,67.6c1,0,1.5-0.3,1.5-0.8c0-0.5-0.5-0.7-1.6-0.7c-0.1,0-0.2,0-0.5,0c-0.2,0-0.4,0-0.5,0c-0.4,0-0.7,0-0.8,0.1
			c-0.3,0.1-0.4,0.3-0.4,0.7c0,0.5,0.4,0.7,1.2,0.7c0,0,0.1,0,0.3,0c0.1,0,0.2,0,0.3,0c0,0,0.1,0,0.2,0
			C208.5,67.6,208.6,67.6,208.7,67.6z M209.1,62.4l0.2,0.6l-1.7,0.4l-0.1-0.4L209.1,62.4z"/>
		<path class="letrasSoft" d="M213.8,64h1v-0.9h0.6V64h2.8v0.5h-2.8v2.2c0,0.4,0.1,0.6,0.4,0.7c0.2,0.1,0.5,0.1,0.8,0.1
			c0.6,0,0.9-0.1,1-0.3c0.1-0.1,0.1-0.5,0.1-1.1h0.6l0,0.4c0,0.5-0.1,0.9-0.4,1.1c-0.2,0.2-0.7,0.3-1.3,0.3c-0.7,0-1.2-0.1-1.5-0.3
			c-0.3-0.2-0.5-0.7-0.5-1.3v-2h-1V64z"/>
		<path class="letrasSoft" d="M221.6,62.2h0.6V63h-0.6V62.2z M221.6,64h0.6v4.1h-0.6V64z"/>
		<path class="letrasSoft" d="M230.5,65.4h-0.6v0c0-0.3-0.1-0.5-0.3-0.7c-0.2-0.1-0.6-0.2-1.1-0.2c0,0-0.1,0-0.3,0c-0.2,0-0.2,0-0.3,0
			c-0.6,0-1,0.1-1.3,0.2c-0.3,0.2-0.5,0.5-0.5,1.1v0.1c0,0.8,0.1,1.2,0.3,1.4c0.2,0.2,0.7,0.3,1.4,0.3c0,0,0.1,0,0.3,0
			c0.1,0,0.2,0,0.3,0c0.4,0,0.8-0.1,1-0.2c0.3-0.2,0.4-0.4,0.4-0.8h0.6v0.1c0,0.9-0.6,1.4-1.8,1.4h-1.5c-0.7,0-1.2-0.2-1.4-0.6
			c-0.2-0.3-0.3-0.9-0.3-1.6c0-0.7,0.1-1.2,0.4-1.5c0.3-0.3,0.7-0.5,1.4-0.5h1.5c1,0,1.6,0.4,1.6,1.3
			C230.5,65.3,230.5,65.3,230.5,65.4z"/>
		<path class="letrasSoft" d="M238.3,65.5c0-0.5-0.2-0.8-0.5-0.9c-0.2-0.1-0.6-0.1-1.1-0.1c0,0-0.1,0-0.3,0c-0.2,0-0.3,0-0.3,0
			c-0.9,0-1.3,0.2-1.3,0.7h-0.7V65c0-0.5,0.2-0.8,0.7-1c0.3-0.1,0.7-0.2,1.3-0.2c0.1,0,0.2,0,0.4,0h0.4c1,0,1.7,0.2,1.9,0.7
			c0.1,0.2,0.2,0.6,0.2,1.2c0,0.2,0,0.6,0,1.1v1.1h-0.6v-0.4c-0.1,0.1-0.1,0.1-0.2,0.2c-0.2,0.2-0.8,0.3-1.6,0.3h-0.3
			c0,0-0.1,0-0.2,0c-0.1,0-0.1,0-0.1,0c-0.7,0-1.2-0.1-1.4-0.2c-0.4-0.2-0.7-0.6-0.7-1.2c0-0.5,0.2-0.8,0.6-1
			c0.3-0.1,0.7-0.2,1.2-0.2c0.1,0,0.3,0,0.6,0c0.3,0,0.5,0,0.6,0c0.4,0,0.6,0,0.7,0.1c0.2,0.1,0.4,0.2,0.6,0.4L238.3,65.5z
			 M236.8,67.6c1,0,1.5-0.3,1.5-0.8c0-0.5-0.5-0.7-1.6-0.7c-0.1,0-0.2,0-0.5,0c-0.2,0-0.4,0-0.5,0c-0.4,0-0.7,0-0.8,0.1
			c-0.3,0.1-0.4,0.3-0.4,0.7c0,0.5,0.4,0.7,1.2,0.7c0,0,0.1,0,0.3,0c0.1,0,0.2,0,0.3,0c0,0,0.1,0,0.2,0
			C236.7,67.6,236.8,67.6,236.8,67.6z"/>
		<path class="letrasSoft" d="M242.9,66.7c0,0.3,0.1,0.6,0.2,0.7c0.1,0.1,0.4,0.2,0.7,0.2h2.1c0.3,0,0.5,0,0.6-0.1c0.2-0.1,0.3-0.3,0.3-0.5
			c0-0.3-0.1-0.5-0.3-0.5c-0.1-0.1-0.4-0.1-0.7-0.1h-2.1c-0.5,0-0.8-0.1-1-0.3c-0.2-0.2-0.3-0.5-0.3-0.9c0-0.5,0.2-0.8,0.7-1
			c0.3-0.1,0.7-0.1,1.3-0.1h1.5c0.5,0,0.8,0.1,1,0.3c0.2,0.2,0.3,0.5,0.4,0.9h-0.6v0c0-0.3-0.1-0.5-0.3-0.5
			c-0.1-0.1-0.3-0.1-0.7-0.1H244c-0.7,0-1,0.2-1,0.6c0,0.2,0.1,0.4,0.2,0.5c0.1,0.1,0.3,0.1,0.5,0.1l2.2,0.1c0.5,0,0.9,0.1,1.1,0.2
			c0.3,0.2,0.4,0.5,0.4,1c0,0.4-0.1,0.7-0.3,0.9c-0.2,0.1-0.5,0.2-0.9,0.3c-0.2,0-0.3,0-0.3,0l-2.2,0c-0.5,0-0.9-0.1-1.1-0.3
			c-0.2-0.2-0.3-0.6-0.3-1.1H242.9z"/>
	</g>
	<linearGradient id="SVGID_1_" gradientUnits="userSpaceOnUse" x1="76.1953" y1="55.48" x2="256" y2="55.48">
		<stop  offset="5.618000e-003" style="stop-color:#a0a0a0"/>
		<stop  offset="1" style="stop-color:#f0f0f0"/>
	</linearGradient>
	<rect x="76.2" y="55.2" class="linea" width="179.8" height="0.6"/>
</g>

</svg>
