<?xml version="1.0" encoding="UTF-8" standalone="no"?>
<!DOCTYPE svg PUBLIC "-//W3C//DTD SVG 1.1//EN" "http://www.w3.org/Graphics/SVG/1.1/DTD/svg11.dtd">
<!-- Generado por Microsoft Visio, SVG Export logo_greensoftColor.svg Layer_1 -->
<svg xmlns="http://www.w3.org/2000/svg" xmlns:xlink="http://www.w3.org/1999/xlink" xmlns:ev="http://www.w3.org/2001/xml-events"
		xmlns:v="http://schemas.microsoft.com/visio/2003/SVGExtensions/" width="3.93701in" height="1.1811in"
		viewBox="0 0 283.465 85.0394" xml:space="preserve" color-interpolation-filters="sRGB" class="st6">
	<v:documentProperties v:langID="12298" v:viewMarkup="false"/>

	<style type="text/css">
	<![CDATA[
		.st1 {fill:#279442;stroke:none;stroke-linecap:butt;stroke-width:2.35385}
		.st2 {fill:#86b53c;stroke:none;stroke-linecap:butt;stroke-width:2.35385}
		.st3 {fill:#2a9d46;stroke:none;stroke-linecap:butt;stroke-width:2.35385}
		.st4 {fill:#dae5c2;stroke:none;stroke-linecap:butt;stroke-width:2.35385}
		.st5 {fill:url(#grad0-76);stroke:none;stroke-linecap:butt;stroke-width:2.35385}
		.st6 {fill:none;fill-rule:evenodd;font-size:12px;overflow:visible;stroke-linecap:square;stroke-miterlimit:3}
	]]>
	</style>

	<defs id="Patterns_And_Gradients">
		<linearGradient id="grad0-76" x1="0" y1="0" x2="1" y2="0" gradientTransform="rotate(0 0.5 0.5)">
			<stop offset="0.005" stop-color="#86b53c" stop-opacity="1"/>
			<stop offset="1" stop-color="#2a9d46" stop-opacity="1"/>
		</linearGradient>
	</defs>
	<g v:mID="0" v:index="1" v:groupContext="foregroundPage">
		<title>Layer_1</title>
		<v:pageProperties v:drawingScale="0.393701" v:pageScale="0.393701" v:drawingUnits="6" v:shadowOffsetX="9"
				v:shadowOffsetY="-9"/>
		<g id="group1-1" transform="translate(2.83465,-1.41732)" v:mID="1" v:groupContext="group">
			<title>Hoja.1</title>
			<g id="shape2-2" v:mID="2" v:groupContext="shape" transform="translate(-5.53557E-13,-14.9364)">
				<title>Hoja.2</title>
				<path d="M19.52 85.04 C19.52 85.04 35.22 77.19 23.88 64.76 C20.82 60.73 14.17 55.06 10.79 49.82 C10.79 49.82 3.71
							 39.47 13.3 30.42 C13.3 30.42 19.95 23.55 34.78 25.08 C34.78 25.08 9.38 17.77 3.6 36.52 C3.6 36.52 0
							 46.55 13.3 58.33 C18.1 63.56 33.03 73.05 19.52 85.04 Z" class="st1"/>
			</g>
			<g id="shape3-4" v:mID="3" v:groupContext="shape" transform="translate(24.3125,-35.6511)">
				<title>Hoja.3</title>
			</g>
			<g id="shape4-5" v:mID="4" v:groupContext="shape" transform="translate(3.16172,-14.9364)">
				<title>Hoja.4</title>
				<path d="M23.66 49.93 C19.95 45.79 11.99 33.58 31.62 25.08 C16.79 23.55 10.14 30.42 10.14 30.42 C0 39.58 7.63 49.82
							 7.63 49.82 C11.01 55.17 17.66 60.73 20.71 64.76 C31.4 77.41 16.35 85.04 16.35 85.04 C16.35 85.04 35.11
							 82.2 32.93 66.18 C32.93 66.18 32.16 59.64 23.66 49.93 Z" class="st2"/>
			</g>
			<g id="group5-7" transform="translate(53.3131,-17.9891)" v:mID="5" v:groupContext="group">
				<title>Hoja.5</title>
				<g id="shape6-8" v:mID="6" v:groupContext="shape">
					<title>Hoja.6</title>
					<path d="M25.29 79.37 C25.29 81.44 23.99 82.97 21.26 83.95 C19.41 84.6 17.23 85.04 14.72 85.04 L13.08 85.04 C12.1
								 85.04 11.56 84.39 11.56 83.19 C11.56 82.2 12.1 81.66 13.08 81.66 L16.03 81.66 C16.68 81.66 17.66
								 81.44 18.86 81.11 C20.28 80.68 21.15 80.24 21.15 79.81 L10.14 79.81 C7.52 79.81 5.45 79.48 3.71
								 78.82 C1.31 77.84 0 76.32 0 74.14 L0 67.38 C0 63.56 3.82 61.6 11.34 61.6 C11.88 61.6 12.54 61.6
								 13.3 61.6 C14.06 61.6 14.61 61.6 14.94 61.6 C17.44 61.6 19.62 61.93 21.48 62.69 C23.99 63.67 25.29
								 65.2 25.29 67.38 L25.29 79.37 ZM21.15 76.43 L21.15 67.6 C21.15 66.72 20.39 65.96 18.86 65.52 C17.77
								 65.2 16.68 65.09 15.59 65.09 L9.27 65.09 C7.74 65.09 6.76 65.2 6.11 65.31 C4.8 65.63 4.14 66.29
								 4.14 67.27 L4.14 74.03 C4.14 75.55 6.11 76.32 10.14 76.32 L21.15 76.32 L21.15 76.43 Z" class="st2"/>
				</g>
				<g id="shape7-10" v:mID="7" v:groupContext="shape" transform="translate(28.3465,-4.90612)">
					<title>Hoja.7</title>
					<path d="M11.99 68.58 C11.99 69.56 11.45 70.1 10.47 70.1 C10.36 70.1 10.14 70.1 9.7 70.1 C9.27 70.1 9.05 70.1
								 8.72 70.1 C5.67 70.1 4.14 70.87 4.14 72.39 L4.14 83.51 C4.14 84.28 3.82 84.71 3.27 84.93 C3.05 85.04
								 2.51 85.04 1.53 85.04 C0.55 85.04 0 84.49 0 83.51 L0.11 72.39 C0.11 68.58 3.6 66.72 10.47 66.72
								 C11.56 66.61 11.99 67.27 11.99 68.58 Z" class="st2"/>
				</g>
				<g id="shape8-12" v:mID="8" v:groupContext="shape" transform="translate(42.9558,-5.01514)">
					<title>Hoja.8</title>
					<path d="M25.29 76.21 C25.29 77.3 24.97 77.84 24.2 77.84 L4.14 77.84 C4.03 80.46 6.11 81.66 10.25 81.66 C10.47
								 81.66 10.9 81.66 11.34 81.66 C11.77 81.66 12.1 81.66 12.32 81.66 C13.3 81.66 13.85 82.31 13.85 83.51
								 C13.85 84.49 13.3 85.04 12.32 85.04 C9.7 85.04 7.96 85.04 7.09 84.93 C4.91 84.71 3.27 84.17 2.18
								 83.4 C0.65 82.2 0 80.9 0 79.37 L0 72.61 C0 70.54 1.2 68.9 3.49 67.92 C5.12 67.16 7.2 66.83 9.7 66.83
								 L17.23 66.83 C19.19 66.83 20.93 67.16 22.46 67.92 C24.42 68.79 25.4 70.1 25.4 71.96 L25.4 76.21
								 L25.29 76.21 ZM21.37 74.35 L21.37 72.17 C21.37 70.87 18.64 70.1 13.19 70.1 C12.54 70.1 11.77 70.1
								 11.12 70.1 C10.36 70.1 10.03 70.1 10.14 70.1 C6.11 70.1 4.03 70.76 4.03 72.17 L4.03 74.25 L21.37
								 74.25 L21.37 74.35 Z" class="st2"/>
				</g>
				<g id="shape9-14" v:mID="9" v:groupContext="shape" transform="translate(71.4113,-5.01514)">
					<title>Hoja.9</title>
					<path d="M25.18 76.21 C25.18 77.3 24.86 77.84 24.09 77.84 L4.14 77.84 C4.03 80.46 6.11 81.66 10.25 81.66 C10.47
								 81.66 10.9 81.66 11.34 81.66 C11.77 81.66 12.1 81.66 12.32 81.66 C13.3 81.66 13.85 82.31 13.85 83.51
								 C13.85 84.49 13.3 85.04 12.32 85.04 C9.7 85.04 7.96 85.04 7.09 84.93 C4.91 84.71 3.27 84.17 2.18
								 83.4 C0.65 82.2 0 80.9 0 79.37 L0 72.61 C0 70.54 1.2 68.9 3.49 67.92 C5.12 67.16 7.2 66.83 9.7 66.83
								 L17.23 66.83 C19.19 66.83 20.93 67.16 22.46 67.92 C24.42 68.79 25.4 70.1 25.4 71.96 L25.4 76.21
								 L25.18 76.21 ZM21.26 74.35 L21.26 72.17 C21.26 70.87 18.53 70.1 13.08 70.1 C12.43 70.1 11.67 70.1
								 11.01 70.1 C10.25 70.1 9.92 70.1 10.03 70.1 C6 70.1 3.92 70.76 3.92 72.17 L3.92 74.25 L21.26 74.25
								 L21.26 74.35 Z" class="st2"/>
				</g>
				<g id="shape10-16" v:mID="10" v:groupContext="shape" transform="translate(99.6487,-5.01514)">
					<title>Hoja.10</title>
					<path d="M24.97 83.51 C24.97 84.49 24.42 85.04 23.44 85.04 C22.46 85.04 21.91 85.04 21.7 84.93 C21.15 84.71 20.82
								 84.28 20.82 83.51 L20.82 71.85 C20.82 70.98 20.17 70.43 18.75 70.21 C18.21 70.1 17.23 70.1 15.7
								 70.1 L9.16 70.1 C7.63 70.1 6.54 70.1 6.11 70.21 C4.69 70.43 4.03 70.98 4.03 71.85 L4.03 83.4 C4.03
								 84.39 3.49 84.93 2.51 84.93 C1.64 84.93 0.98 84.93 0.76 84.82 C0.22 84.6 0 84.17 0 83.4 L0 71.96
								 C0 68.47 3.05 66.72 9.16 66.72 L15.7 66.72 C21.8 66.72 24.86 68.47 24.86 71.85 L24.86 83.51 L24.97
								 83.51 Z" class="st2"/>
				</g>
				<g id="shape11-18" v:mID="11" v:groupContext="shape" transform="translate(127.232,-5.12417)">
					<title>Hoja.11</title>
					<path d="M20.39 80.57 C20.39 81.55 20.28 82.31 19.95 82.86 C19.08 84.28 16.68 85.04 12.54 85.04 L1.2 85.04 C0.44
								 85.04 0.11 84.6 0.11 83.84 C0.11 83.29 0.11 82.97 0.22 82.75 C0.44 82.42 0.76 82.31 1.2 82.31 L12.54
								 82.31 C15.59 82.31 17.12 81.77 17.12 80.57 L17.12 79.04 C17.12 77.95 15.59 77.3 12.65 77.19 C7.63
								 77.08 4.91 76.97 4.47 76.86 C1.53 76.32 0 75.01 0 72.94 L0 71.63 C0 69.45 1.2 68.14 3.49 67.49 C4.58
								 67.16 6.65 67.05 9.59 67.05 C10.36 67.05 10.79 67.49 10.79 68.14 L10.79 68.47 C10.79 69.23 10.36
								 69.67 9.59 69.67 C9.49 69.67 9.27 69.67 8.94 69.67 C8.61 69.67 8.29 69.67 8.07 69.67 C4.8 69.67
								 3.27 70.32 3.27 71.52 L3.27 72.83 C3.27 73.59 3.92 74.14 5.23 74.35 C5.78 74.46 6.76 74.46 8.07
								 74.46 L12.43 74.46 C14.39 74.46 16.03 74.68 17.33 75.23 C19.19 75.99 20.17 77.19 20.17 78.82 L20.17
								 80.57 L20.39 80.57 Z" class="st3"/>
				</g>
				<g id="shape12-20" v:mID="12" v:groupContext="shape" transform="translate(150.127,-5.12417)">
					<title>Hoja.12</title>
					<path d="M21.7 80.24 C21.7 83.51 18.97 85.04 13.41 85.04 L8.29 85.04 C6.11 85.04 4.36 84.71 2.94 84.17 C0.98
								 83.4 0 81.99 0 80.24 L0 71.96 C0 68.69 2.73 67.05 8.29 67.05 L13.41 67.05 C15.92 67.05 17.77 67.27
								 18.97 67.7 C20.82 68.47 21.8 69.78 21.8 71.85 L21.8 80.24 L21.7 80.24 ZM18.43 80.13 L18.43 71.96
								 C18.43 70.43 16.79 69.67 13.41 69.67 L8.18 69.67 C4.8 69.67 3.16 70.43 3.16 71.96 L3.16 80.13 C3.16
								 81.55 4.8 82.31 8.18 82.31 L13.41 82.31 C16.79 82.31 18.43 81.55 18.43 80.13 Z" class="st3"/>
				</g>
				<g id="shape13-22" v:mID="13" v:groupContext="shape" transform="translate(174.331,-5.12417)">
					<title>Hoja.13</title>
					<path d="M18.97 77.52 L3.27 77.52 L3.27 83.84 C3.27 84.6 2.83 85.04 2.07 85.04 C1.31 85.04 0.76 85.04 0.65 84.93
								 C0.22 84.82 0 84.39 0 83.84 L0 71.3 C0 69.88 0.98 68.79 2.83 68.03 C4.25 67.49 5.78 67.16 7.41 67.16
								 L9.81 67.16 C10.36 67.16 10.68 67.27 10.79 67.6 C10.9 67.81 11.01 68.14 11.01 68.69 C11.01 69.45
								 10.58 69.88 9.81 69.88 C5.45 69.88 3.16 70.43 3.16 71.52 L3.16 75.01 L18.86 75.01 C19.62 75.01 20.06
								 75.45 20.06 76.32 C20.28 77.08 19.84 77.52 18.97 77.52 Z" class="st3"/>
				</g>
				<g id="shape14-24" v:mID="14" v:groupContext="shape" transform="translate(195.482,-5.01514)">
					<title>Hoja.14</title>
					<path d="M20.06 68.47 C20.06 69.23 19.73 69.67 18.86 69.67 L11.56 69.67 L11.56 83.84 C11.56 84.6 11.12 85.04
								 10.47 85.04 C9.7 85.04 9.16 85.04 9.05 84.93 C8.61 84.82 8.39 84.39 8.39 83.84 L8.39 69.67 L1.2
								 69.67 C0.44 69.67 0 69.23 0 68.47 C0 67.92 0.11 67.6 0.22 67.38 C0.44 67.05 0.76 66.94 1.2 66.94
								 L18.97 66.94 C19.41 66.94 19.73 67.05 19.95 67.38 C19.95 67.6 20.06 67.92 20.06 68.47 Z"
							class="st3"/>
				</g>
			</g>
			<g id="shape15-26" v:mID="15" v:groupContext="shape" transform="translate(8.06784,0)">
				<title>Hoja.15</title>
				<ellipse cx="16.7898" cy="83.513" rx="16.7898" ry="1.52635" class="st4"/>
			</g>
			<g id="group16-28" transform="translate(81.9867,-3.92489)" v:mID="16" v:groupContext="group">
				<title>Hoja.16</title>
				<g id="shape17-29" v:mID="17" v:groupContext="shape">
					<title>Hoja.17</title>
					<path d="M0.65 83.19 C0.65 83.51 0.76 83.84 0.87 83.95 C0.98 84.06 1.31 84.17 1.64 84.17 L3.92 84.17 C4.25 84.17
								 4.47 84.17 4.58 84.06 C4.8 83.95 4.91 83.73 4.91 83.51 C4.91 83.19 4.8 82.97 4.58 82.97 C4.47 82.86
								 4.14 82.86 3.82 82.86 L1.53 82.86 C0.98 82.86 0.65 82.75 0.44 82.53 C0.22 82.31 0.11 81.99 0.11
								 81.55 C0.11 81.01 0.33 80.68 0.87 80.46 C1.2 80.35 1.64 80.35 2.29 80.35 L3.92 80.35 C4.47 80.35
								 4.8 80.46 5.02 80.68 C5.23 80.9 5.34 81.22 5.45 81.66 L4.8 81.66 C4.8 81.33 4.69 81.11 4.47 81.11
								 C4.36 81.01 4.14 81.01 3.71 81.01 L1.85 81.01 C1.09 81.01 0.76 81.22 0.76 81.66 C0.76 81.88 0.87
								 82.1 0.98 82.2 C1.09 82.31 1.31 82.31 1.53 82.31 L3.92 82.42 C4.47 82.42 4.91 82.53 5.12 82.64 C5.45
								 82.86 5.56 83.19 5.56 83.73 C5.56 84.17 5.45 84.49 5.23 84.71 C5.02 84.82 4.69 84.93 4.25 85.04
								 C4.03 85.04 3.92 85.04 3.92 85.04 L1.53 85.04 C0.98 85.04 0.55 84.93 0.33 84.71 C0.11 84.49 0 84.06
								 0 83.51 L0.65 83.51 L0.65 83.19 Z" class="st3"/>
				</g>
				<g id="shape18-31" v:mID="18" v:groupContext="shape" transform="translate(9.15809,-0.327075)">
					<title>Hoja.18</title>
					<path d="M2.73 80.46 L3.38 80.46 C4.25 80.46 4.91 80.57 5.23 80.79 C5.67 81.11 5.89 81.66 5.89 82.53 C5.89 83.4
								 5.78 84.06 5.45 84.39 C5.12 84.82 4.47 85.04 3.71 85.04 C3.6 85.04 3.38 85.04 3.05 85.04 C2.73 85.04
								 2.51 85.04 2.4 85.04 C1.53 85.04 0.87 84.93 0.55 84.6 C0.22 84.28 0 83.62 0 82.75 C0 81.77 0.22
								 81.22 0.76 80.9 C0.98 80.57 1.64 80.46 2.73 80.46 ZM5.12 82.86 C5.12 82.1 5.02 81.55 4.8 81.33 C4.58
								 81.11 4.03 81.01 3.27 81.01 L2.73 81.01 C1.85 81.01 1.31 81.11 1.09 81.22 C0.76 81.44 0.65 81.99
								 0.65 82.75 C0.65 83.4 0.76 83.95 1.09 84.17 C1.31 84.39 1.85 84.39 2.51 84.39 L3.05 84.39 C3.82
								 84.39 4.36 84.28 4.58 84.17 C4.91 84.06 5.12 83.62 5.12 82.86 Z" class="st3"/>
				</g>
				<g id="shape19-33" v:mID="19" v:groupContext="shape" transform="translate(18.7523,-0.436099)">
					<title>Hoja.19</title>
					<path d="M0 78.72 L0.65 78.72 L0.65 85.04 L0 85.04 L0 78.72 Z" class="st3"/>
				</g>
				<g id="shape20-35" v:mID="20" v:groupContext="shape" transform="translate(23.2223,-0.327075)">
					<title>Hoja.20</title>
					<path d="M0 80.57 L0.65 80.57 L0.65 83.29 C0.65 83.84 0.87 84.17 1.2 84.39 C1.42 84.49 1.85 84.6 2.4 84.6 C3.16
								 84.6 3.71 84.49 3.92 84.39 C4.36 84.17 4.47 83.73 4.47 82.97 L4.47 80.57 L5.12 80.57 L5.12 85.04
								 L4.47 85.04 L4.47 84.28 C4.25 84.6 3.92 84.82 3.6 84.93 C3.38 85.04 2.94 85.04 2.51 85.04 C1.64
								 85.04 1.09 84.93 0.76 84.71 C0.22 84.39 0 83.95 0 83.19 L0 80.57 Z" class="st3"/>
				</g>
				<g id="shape21-37" v:mID="21" v:groupContext="shape" transform="translate(32.2714,-0.327075)">
					<title>Hoja.21</title>
					<path d="M5.56 82.1 L4.91 82.1 C4.91 81.77 4.8 81.55 4.58 81.33 C4.36 81.22 3.92 81.11 3.38 81.11 C3.38 81.11
								 3.27 81.11 3.05 81.11 C2.94 81.11 2.83 81.11 2.73 81.11 C2.07 81.11 1.64 81.22 1.31 81.33 C0.98
								 81.55 0.76 81.88 0.76 82.53 L0.76 82.64 C0.76 83.51 0.87 83.95 1.09 84.17 C1.31 84.39 1.85 84.49
								 2.62 84.49 C2.62 84.49 2.73 84.49 2.94 84.49 C3.16 84.49 3.16 84.49 3.27 84.49 C3.71 84.49 4.14
								 84.39 4.36 84.28 C4.69 84.06 4.8 83.84 4.8 83.4 L5.45 83.4 L5.45 83.51 C5.45 84.49 4.8 85.04 3.49
								 85.04 L1.85 85.04 C1.09 85.04 0.55 84.82 0.33 84.39 C0.11 84.06 0 83.4 0 82.64 C0 81.88 0.11 81.33
								 0.44 81.01 C0.76 80.68 1.2 80.46 1.96 80.46 L3.6 80.46 C4.69 80.46 5.34 80.9 5.34 81.88 C5.56 81.99
								 5.56 81.99 5.56 82.1 Z" class="st3"/>
				</g>
				<g id="shape22-39" v:mID="22" v:groupContext="shape" transform="translate(41.5385,-0.327075)">
					<title>Hoja.22</title>
					<path d="M0 78.61 L0.65 78.61 L0.65 79.48 L0 79.48 L0 78.61 ZM0 80.57 L0.65 80.57 L0.65 85.04 L0 85.04 L0 80.57
								 Z" class="st3"/>
				</g>
				<g id="shape23-41" v:mID="23" v:groupContext="shape" transform="translate(46.0085,-0.327075)">
					<title>Hoja.23</title>
					<path d="M2.73 80.46 L3.38 80.46 C4.25 80.46 4.91 80.57 5.23 80.79 C5.67 81.11 5.89 81.66 5.89 82.53 C5.89 83.4
								 5.78 84.06 5.45 84.39 C5.12 84.82 4.58 85.04 3.71 85.04 C3.6 85.04 3.38 85.04 3.05 85.04 C2.73 85.04
								 2.51 85.04 2.4 85.04 C1.53 85.04 0.87 84.93 0.55 84.6 C0.22 84.28 0 83.62 0 82.75 C0 81.77 0.22
								 81.22 0.76 80.9 C0.98 80.57 1.64 80.46 2.73 80.46 ZM5.12 82.86 C5.12 82.1 5.02 81.55 4.8 81.33 C4.58
								 81.11 4.03 81.01 3.27 81.01 L2.73 81.01 C1.85 81.01 1.31 81.11 1.09 81.22 C0.76 81.44 0.65 81.99
								 0.65 82.75 C0.65 83.4 0.76 83.95 1.09 84.17 C1.31 84.39 1.85 84.39 2.51 84.39 L3.05 84.39 C3.82
								 84.39 4.36 84.28 4.58 84.17 C4.91 84.06 5.12 83.62 5.12 82.86 Z" class="st3"/>
				</g>
				<g id="shape24-43" v:mID="24" v:groupContext="shape" transform="translate(55.6027,-0.327075)">
					<title>Hoja.24</title>
					<path d="M0.11 80.46 L0.76 80.46 L0.76 81.22 C0.98 80.9 1.31 80.68 1.64 80.57 C1.85 80.46 2.29 80.46 2.73 80.46
								 C3.6 80.46 4.14 80.57 4.58 80.79 C5.02 81.01 5.23 81.55 5.23 82.42 L5.23 85.04 L4.58 85.04 C4.58
								 84.49 4.58 83.62 4.58 82.42 C4.58 81.88 4.36 81.55 4.03 81.33 C3.82 81.22 3.38 81.11 2.73 81.11
								 C1.96 81.11 1.42 81.22 1.2 81.33 C0.87 81.55 0.65 81.99 0.65 82.75 L0.65 85.04 L0 85.04 L0 80.46
								 L0.11 80.46 Z" class="st3"/>
				</g>
				<g id="shape25-45" v:mID="25" v:groupContext="shape" transform="translate(64.8698,-0.327075)">
					<title>Hoja.25</title>
					<path d="M5.56 82.31 L5.56 82.86 L0.65 82.86 C0.65 82.86 0.65 82.97 0.65 82.97 C0.65 83.73 0.87 84.17 1.42 84.28
								 C1.42 84.28 1.64 84.28 1.96 84.39 C2.07 84.39 2.18 84.39 2.07 84.39 L3.82 84.39 C4.14 84.39 4.36
								 84.28 4.58 84.17 C4.69 84.06 4.8 83.84 4.91 83.62 L5.56 83.62 C5.56 84.17 5.23 84.6 4.69 84.82 C4.36
								 84.93 3.82 85.04 3.05 85.04 C2.29 85.04 1.74 85.04 1.42 84.93 C0.87 84.82 0.55 84.6 0.33 84.28 C0.11
								 83.95 0 83.4 0 82.75 C0 81.88 0.11 81.33 0.55 81.01 C0.87 80.68 1.42 80.46 2.29 80.46 C2.29 80.46
								 2.4 80.46 2.51 80.46 C2.62 80.46 2.73 80.46 2.73 80.46 L3.16 80.46 C4.03 80.46 4.69 80.57 5.02 80.79
								 C5.34 81.01 5.56 81.55 5.56 82.31 ZM4.8 82.31 L4.8 82.2 C4.8 81.66 4.58 81.33 4.25 81.22 C4.03 81.11
								 3.6 81.11 3.05 81.11 L2.51 81.11 C1.85 81.11 1.42 81.22 1.2 81.33 C0.76 81.55 0.65 81.88 0.65 82.42
								 L4.8 82.42 L4.8 82.31 Z" class="st3"/>
				</g>
				<g id="shape26-47" v:mID="26" v:groupContext="shape" transform="translate(73.8098,-2.84217E-14)">
					<title>Hoja.26</title>
					<path d="M0.65 83.19 C0.65 83.51 0.76 83.84 0.87 83.95 C0.98 84.06 1.31 84.17 1.64 84.17 L3.92 84.17 C4.25 84.17
								 4.47 84.17 4.58 84.06 C4.8 83.95 4.91 83.73 4.91 83.51 C4.91 83.19 4.8 82.97 4.58 82.97 C4.47 82.86
								 4.14 82.86 3.82 82.86 L1.53 82.86 C0.98 82.86 0.65 82.75 0.44 82.53 C0.22 82.31 0.11 81.99 0.11
								 81.55 C0.11 81.01 0.33 80.68 0.87 80.46 C1.2 80.35 1.64 80.35 2.29 80.35 L3.92 80.35 C4.47 80.35
								 4.8 80.46 5.02 80.68 C5.23 80.9 5.34 81.22 5.45 81.66 L4.8 81.66 C4.8 81.33 4.69 81.11 4.47 81.11
								 C4.36 81.01 4.14 81.01 3.71 81.01 L1.85 81.01 C1.09 81.01 0.76 81.22 0.76 81.66 C0.76 81.88 0.87
								 82.1 0.98 82.2 C1.09 82.31 1.31 82.31 1.53 82.31 L3.92 82.42 C4.47 82.42 4.91 82.53 5.12 82.64 C5.45
								 82.86 5.56 83.19 5.56 83.73 C5.56 84.17 5.45 84.49 5.23 84.71 C5.02 84.82 4.69 84.93 4.25 85.04
								 C4.03 85.04 3.92 85.04 3.92 85.04 L1.53 85.04 C0.98 85.04 0.55 84.93 0.33 84.71 C0.11 84.49 0 84.06
								 0 83.51 L0.65 83.51 L0.65 83.19 Z" class="st3"/>
				</g>
				<g id="shape27-49" v:mID="27" v:groupContext="shape" transform="translate(88.6372,-0.327075)">
					<title>Hoja.27</title>
					<path d="M0 78.61 L0.65 78.61 L0.65 79.48 L0 79.48 L0 78.61 ZM0 80.57 L0.65 80.57 L0.65 85.04 L0 85.04 L0 80.57
								 Z" class="st3"/>
				</g>
				<g id="shape28-51" v:mID="28" v:groupContext="shape" transform="translate(93.1072,-0.327075)">
					<title>Hoja.28</title>
					<path d="M0 80.46 L0.65 80.46 L0.65 81.22 C0.87 80.9 1.2 80.68 1.53 80.57 C1.74 80.46 2.18 80.46 2.73 80.46 C3.6
								 80.46 4.14 80.57 4.47 80.79 C4.91 81.01 5.12 81.55 5.12 82.42 L5.12 85.04 L4.58 85.04 C4.58 84.49
								 4.58 83.62 4.58 82.42 C4.58 81.88 4.36 81.55 4.03 81.33 C3.82 81.22 3.38 81.11 2.83 81.11 C2.07
								 81.11 1.53 81.22 1.31 81.33 C0.98 81.55 0.76 81.99 0.76 82.75 L0.76 85.04 L0.11 85.04 L0.11 80.46
								 L0 80.46 Z" class="st3"/>
				</g>
				<g id="shape29-53" v:mID="29" v:groupContext="shape" transform="translate(102.156,-0.327075)">
					<title>Hoja.29</title>
					<path d="M0 80.57 L0.98 80.57 L0.98 80.02 C0.98 79.81 0.98 79.59 1.09 79.48 C1.2 79.15 1.53 78.93 1.85 78.82
								 C2.07 78.72 2.4 78.72 2.94 78.72 L3.6 78.72 L3.6 79.26 L2.94 79.26 C2.4 79.26 2.07 79.37 1.96 79.48
								 C1.85 79.59 1.74 80.02 1.74 80.46 L1.74 80.57 L3.6 80.57 L3.6 81.11 L1.74 81.11 L1.74 85.04 L0.98
								 85.04 L0.98 81.11 L0 81.11 L0 80.57 Z" class="st3"/>
				</g>
				<g id="shape30-55" v:mID="30" v:groupContext="shape" transform="translate(109.025,-0.327075)">
					<title>Hoja.30</title>
					<path d="M2.73 80.46 L3.38 80.46 C4.25 80.46 4.91 80.57 5.23 80.79 C5.67 81.11 5.89 81.66 5.89 82.53 C5.89 83.4
								 5.78 84.06 5.45 84.39 C5.12 84.82 4.47 85.04 3.71 85.04 C3.6 85.04 3.38 85.04 3.05 85.04 C2.73 85.04
								 2.51 85.04 2.4 85.04 C1.53 85.04 0.87 84.93 0.55 84.6 C0.22 84.28 0 83.62 0 82.75 C0 81.77 0.22
								 81.22 0.76 80.9 C1.09 80.57 1.74 80.46 2.73 80.46 ZM5.23 82.86 C5.23 82.1 5.12 81.55 4.91 81.33
								 C4.69 81.11 4.14 81.01 3.38 81.01 L2.83 81.01 C1.96 81.01 1.42 81.11 1.2 81.22 C0.87 81.44 0.76
								 81.99 0.76 82.75 C0.76 83.4 0.87 83.95 1.2 84.17 C1.42 84.39 1.96 84.39 2.62 84.39 L3.16 84.39 C3.92
								 84.39 4.47 84.28 4.69 84.17 C5.02 84.06 5.23 83.62 5.23 82.86 Z" class="st3"/>
				</g>
				<g id="shape31-57" v:mID="31" v:groupContext="shape" transform="translate(118.837,-0.21805)">
					<title>Hoja.31</title>
					<path d="M0 80.46 L0.65 80.46 L0.65 81.11 C0.98 80.79 1.2 80.57 1.53 80.46 C1.74 80.35 2.07 80.35 2.62 80.35
								 C3.38 80.35 3.82 80.46 4.14 80.79 C4.36 81.01 4.47 81.55 4.47 82.31 C4.47 82.31 4.47 82.31 4.47
								 82.42 L3.82 82.42 L3.82 82.31 C3.82 81.77 3.71 81.44 3.6 81.22 C3.38 81.01 3.05 81.01 2.51 81.01
								 C1.85 81.01 1.42 81.11 1.2 81.33 C0.87 81.55 0.76 81.99 0.76 82.64 L0.76 85.04 L0.11 85.04 L0.11
								 80.46 L0 80.46 Z" class="st3"/>
				</g>
				<g id="shape32-59" v:mID="32" v:groupContext="shape" transform="translate(127.559,-0.436099)">
					<title>Hoja.32</title>
					<path d="M0 80.68 L0.65 80.68 L0.65 81.33 C0.87 81.01 1.09 80.79 1.53 80.68 C1.74 80.57 2.07 80.57 2.62 80.57
								 C3.27 80.57 3.71 80.57 3.92 80.68 C4.36 80.79 4.69 81.01 5.02 81.33 C5.23 81.01 5.56 80.79 5.89
								 80.68 C6.11 80.57 6.54 80.57 7.09 80.57 C7.96 80.57 8.5 80.68 8.83 80.79 C9.38 81.01 9.59 81.55
								 9.59 82.31 L9.59 85.04 L8.94 85.04 L8.94 82.31 C8.94 81.77 8.72 81.44 8.39 81.22 C8.18 81.11 7.74
								 81.11 7.09 81.11 C6.43 81.11 5.89 81.22 5.67 81.44 C5.34 81.66 5.23 82.1 5.23 82.75 L5.23 85.04
								 L4.58 85.04 L4.58 82.2 C4.58 81.77 4.36 81.44 4.03 81.22 C3.82 81.11 3.38 81.11 2.94 81.11 C2.29
								 81.11 1.85 81.11 1.64 81.22 C1.2 81.44 0.87 81.77 0.87 82.2 L0.87 84.93 L0.22 84.93 L0.22 80.68
								 L0 80.68 Z" class="st3"/>
				</g>
				<g id="shape33-61" v:mID="33" v:groupContext="shape" transform="translate(141.078,-0.436099)">
					<title>Hoja.33</title>
					<path d="M4.8 82.31 C4.8 81.77 4.58 81.44 4.25 81.33 C4.03 81.22 3.6 81.22 3.05 81.22 C3.05 81.22 2.94 81.22
								 2.73 81.22 C2.51 81.22 2.4 81.22 2.4 81.22 C1.42 81.22 0.98 81.44 0.98 81.99 L0.22 81.99 L0.22 81.77
								 C0.22 81.22 0.44 80.9 0.98 80.68 C1.31 80.57 1.74 80.46 2.4 80.46 C2.51 80.46 2.62 80.46 2.83 80.46
								 L3.27 80.46 C4.36 80.46 5.12 80.68 5.34 81.22 C5.45 81.44 5.56 81.88 5.56 82.53 C5.56 82.75 5.56
								 83.19 5.56 83.73 L5.56 84.93 L4.91 84.93 L4.91 84.49 C4.8 84.6 4.8 84.6 4.69 84.71 C4.47 84.93 3.82
								 85.04 2.94 85.04 L2.62 85.04 C2.62 85.04 2.51 85.04 2.4 85.04 C2.29 85.04 2.29 85.04 2.29 85.04
								 C1.53 85.04 0.98 84.93 0.76 84.82 C0.33 84.6 0 84.17 0 83.51 C0 82.97 0.22 82.64 0.65 82.42 C0.98
								 82.31 1.42 82.2 1.96 82.2 C2.07 82.2 2.29 82.2 2.62 82.2 C2.94 82.2 3.16 82.2 3.27 82.2 C3.71 82.2
								 3.92 82.2 4.03 82.31 C4.25 82.42 4.47 82.53 4.69 82.75 L4.8 82.31 ZM3.16 84.6 C4.25 84.6 4.8 84.28
								 4.8 83.73 C4.8 83.19 4.25 82.97 3.05 82.97 C2.94 82.97 2.83 82.97 2.51 82.97 C2.29 82.97 2.07 82.97
								 1.96 82.97 C1.53 82.97 1.2 82.97 1.09 83.08 C0.76 83.19 0.65 83.4 0.65 83.84 C0.65 84.39 1.09 84.6
								 1.96 84.6 C1.96 84.6 2.07 84.6 2.29 84.6 C2.4 84.6 2.51 84.6 2.62 84.6 C2.62 84.6 2.73 84.6 2.83
								 84.6 C2.94 84.6 3.05 84.6 3.16 84.6 ZM3.6 78.93 L3.82 79.59 L1.96 80.02 L1.85 79.59 L3.6 78.93 Z"
							class="st3"/>
				</g>
				<g id="shape34-63" v:mID="34" v:groupContext="shape" transform="translate(149.582,-0.545124)">
					<title>Hoja.34</title>
					<path d="M0.22 80.79 L1.31 80.79 L1.31 79.81 L1.96 79.81 L1.96 80.79 L5.02 80.79 L5.02 81.33 L1.96 81.33 L1.96
								 83.73 C1.96 84.17 2.07 84.39 2.4 84.49 C2.62 84.6 2.94 84.6 3.27 84.6 C3.92 84.6 4.25 84.49 4.36
								 84.28 C4.47 84.17 4.47 83.73 4.47 83.08 L5.12 83.08 L5.12 83.51 C5.12 84.06 5.02 84.49 4.69 84.71
								 C4.47 84.93 3.92 85.04 3.27 85.04 C2.51 85.04 1.96 84.93 1.64 84.71 C1.31 84.49 1.09 83.95 1.09
								 83.29 L1.09 81.11 L0 81.11 L0 80.79 L0.22 80.79 Z" class="st3"/>
				</g>
				<g id="shape35-65" v:mID="35" v:groupContext="shape" transform="translate(158.304,-0.327075)">
					<title>Hoja.35</title>
					<path d="M0 78.61 L0.65 78.61 L0.65 79.48 L0 79.48 L0 78.61 ZM0 80.57 L0.65 80.57 L0.65 85.04 L0 85.04 L0 80.57
								 Z" class="st3"/>
				</g>
				<g id="shape36-67" v:mID="36" v:groupContext="shape" transform="translate(162.447,-0.327075)">
					<title>Hoja.36</title>
					<path d="M5.56 82.1 L4.91 82.1 C4.91 81.77 4.8 81.55 4.58 81.33 C4.36 81.22 3.92 81.11 3.38 81.11 C3.38 81.11
								 3.27 81.11 3.05 81.11 C2.83 81.11 2.83 81.11 2.73 81.11 C2.07 81.11 1.64 81.22 1.31 81.33 C0.98
								 81.55 0.76 81.88 0.76 82.53 L0.76 82.64 C0.76 83.51 0.87 83.95 1.09 84.17 C1.31 84.39 1.85 84.49
								 2.62 84.49 C2.62 84.49 2.73 84.49 2.94 84.49 C3.05 84.49 3.16 84.49 3.27 84.49 C3.71 84.49 4.14
								 84.39 4.36 84.28 C4.69 84.06 4.8 83.84 4.8 83.4 L5.45 83.4 L5.45 83.51 C5.45 84.49 4.8 85.04 3.49
								 85.04 L1.85 85.04 C1.09 85.04 0.55 84.82 0.33 84.39 C0.11 84.06 0 83.4 0 82.64 C0 81.88 0.11 81.33
								 0.44 81.01 C0.76 80.68 1.2 80.46 1.96 80.46 L3.6 80.46 C4.69 80.46 5.34 80.9 5.34 81.88 C5.56 81.99
								 5.56 81.99 5.56 82.1 Z" class="st3"/>
				</g>
				<g id="shape37-69" v:mID="37" v:groupContext="shape" transform="translate(171.714,-0.436099)">
					<title>Hoja.37</title>
					<path d="M4.8 82.31 C4.8 81.77 4.58 81.44 4.25 81.33 C4.03 81.22 3.6 81.22 3.05 81.22 C3.05 81.22 2.94 81.22
								 2.73 81.22 C2.51 81.22 2.4 81.22 2.4 81.22 C1.42 81.22 0.98 81.44 0.98 81.99 L0.22 81.99 L0.22 81.77
								 C0.22 81.22 0.44 80.9 0.98 80.68 C1.31 80.57 1.74 80.46 2.4 80.46 C2.51 80.46 2.62 80.46 2.83 80.46
								 L3.27 80.46 C4.36 80.46 5.12 80.68 5.34 81.22 C5.45 81.44 5.56 81.88 5.56 82.53 C5.56 82.75 5.56
								 83.19 5.56 83.73 L5.56 84.93 L4.91 84.93 L4.91 84.49 C4.8 84.6 4.8 84.6 4.69 84.71 C4.47 84.93 3.82
								 85.04 2.94 85.04 L2.62 85.04 C2.62 85.04 2.51 85.04 2.4 85.04 C2.29 85.04 2.29 85.04 2.29 85.04
								 C1.53 85.04 0.98 84.93 0.76 84.82 C0.33 84.6 0 84.17 0 83.51 C0 82.97 0.22 82.64 0.65 82.42 C0.98
								 82.31 1.42 82.2 1.96 82.2 C2.07 82.2 2.29 82.2 2.62 82.2 C2.94 82.2 3.16 82.2 3.27 82.2 C3.71 82.2
								 3.92 82.2 4.03 82.31 C4.25 82.42 4.47 82.53 4.69 82.75 L4.8 82.31 ZM3.16 84.6 C4.25 84.6 4.8 84.28
								 4.8 83.73 C4.8 83.19 4.25 82.97 3.05 82.97 C2.94 82.97 2.83 82.97 2.51 82.97 C2.29 82.97 2.07 82.97
								 1.96 82.97 C1.53 82.97 1.2 82.97 1.09 83.08 C0.76 83.19 0.65 83.4 0.65 83.84 C0.65 84.39 1.09 84.6
								 1.96 84.6 C1.96 84.6 2.07 84.6 2.29 84.6 C2.4 84.6 2.51 84.6 2.62 84.6 C2.62 84.6 2.73 84.6 2.83
								 84.6 C3.05 84.6 3.16 84.6 3.16 84.6 Z" class="st3"/>
				</g>
				<g id="shape38-71" v:mID="38" v:groupContext="shape" transform="translate(180.872,-2.84217E-14)">
					<title>Hoja.38</title>
					<path d="M0.65 83.19 C0.65 83.51 0.76 83.84 0.87 83.95 C0.98 84.06 1.31 84.17 1.64 84.17 L3.92 84.17 C4.25 84.17
								 4.47 84.17 4.58 84.06 C4.8 83.95 4.91 83.73 4.91 83.51 C4.91 83.19 4.8 82.97 4.58 82.97 C4.47 82.86
								 4.14 82.86 3.82 82.86 L1.53 82.86 C0.98 82.86 0.65 82.75 0.44 82.53 C0.22 82.31 0.11 81.99 0.11
								 81.55 C0.11 81.01 0.33 80.68 0.87 80.46 C1.2 80.35 1.64 80.35 2.29 80.35 L3.92 80.35 C4.47 80.35
								 4.8 80.46 5.02 80.68 C5.23 80.9 5.34 81.22 5.45 81.66 L4.8 81.66 C4.8 81.33 4.69 81.11 4.47 81.11
								 C4.36 81.01 4.14 81.01 3.71 81.01 L1.85 81.01 C1.09 81.01 0.76 81.22 0.76 81.66 C0.76 81.88 0.87
								 82.1 0.98 82.2 C1.09 82.31 1.31 82.31 1.53 82.31 L3.92 82.42 C4.47 82.42 4.91 82.53 5.12 82.64 C5.45
								 82.86 5.56 83.19 5.56 83.73 C5.56 84.17 5.45 84.49 5.23 84.71 C5.02 84.82 4.69 84.93 4.25 85.04
								 C4.03 85.04 3.92 85.04 3.92 85.04 L1.53 85.04 C0.98 85.04 0.55 84.93 0.33 84.71 C0.11 84.49 0 84.06
								 0 83.51 L0.65 83.51 L0.65 83.19 Z" class="st3"/>
				</g>
			</g>
			<g id="shape39-73" v:mID="39" v:groupContext="shape" transform="translate(81.7686,-17.662)">
				<title>Hoja.39</title>
				<rect x="0" y="84.3852" width="196.027" height="0.654149" class="st5"/>
			</g>
		</g>
	</g>
</svg>
