<?xml version="1.0" encoding="UTF-8" standalone="no"?>
<!DOCTYPE svg PUBLIC "-//W3C//DTD SVG 1.1//EN" "http://www.w3.org/Graphics/SVG/1.1/DTD/svg11.dtd">
<!-- Generado por Microsoft Visio, SVG Export logo_BlancoNegro - Orion.svg Página-1 -->
<svg xmlns="http://www.w3.org/2000/svg" xmlns:xlink="http://www.w3.org/1999/xlink" xmlns:ev="http://www.w3.org/2001/xml-events"
		xmlns:v="http://schemas.microsoft.com/visio/2003/SVGExtensions/" width="2.59158in" height="1.10231in"
		viewBox="0 0 186.594 79.3663" xml:space="preserve" color-interpolation-filters="sRGB" class="st6">
	<v:documentProperties v:langID="12298" v:metric="true" v:viewMarkup="false"/>

	<style type="text/css">
	<![CDATA[
		.st1 {fill:#a53c37;stroke:none;stroke-linecap:butt;stroke-width:0.515106}
		.st2 {fill:#262324;stroke:none;stroke-linecap:butt;stroke-width:0.515106}
		.st3 {fill:none}
		.st4 {stroke:#ffffff;stroke-linecap:butt;stroke-width:1.22204}
		.st5 {fill:#a53c37;stroke:#ffffff;stroke-linecap:butt;stroke-width:1.52404}
		.st6 {fill:none;fill-rule:evenodd;font-size:12px;overflow:visible;stroke-linecap:square;stroke-miterlimit:3}
	]]>
	</style>

	<g v:mID="0" v:index="1" v:groupContext="foregroundPage">
		<title>Página-1</title>
		<v:pageProperties v:drawingScale="0.393701" v:pageScale="0.393701" v:drawingUnits="6" v:shadowOffsetX="9"
				v:shadowOffsetY="-9"/>
		<g id="group72-1" transform="translate(0.515106,-0.515106)" v:mID="72" v:groupContext="group">
			<title>Hoja.72</title>
			<g id="shape3-2" v:mID="3" v:groupContext="shape">
				<title>svg_1</title>
				<path d="M71.26 68.98 C71.26 74.72 67.25 79.37 62.3 79.37 L8.95 79.37 C4.01 79.37 0 74.72 0 68.98 L0 11.42 C0 5.68
							 4.01 1.03 8.95 1.03 L62.3 1.03 C67.25 1.03 71.26 5.68 71.26 11.42 L71.26 68.98 Z" class="st1"/>
			</g>
			<g id="shape4-4" v:mID="4" v:groupContext="shape" transform="translate(79.2369,-26.9413)">
				<title>svg_5</title>
				<path d="M23.28 74.71 C23.28 76.32 22.87 77.48 22.06 78.17 C21.15 78.97 19.52 79.37 17.18 79.37 L6.1 79.37 C3.76
							 79.37 2.12 78.97 1.17 78.17 C0.39 77.48 0 76.32 0 74.71 L0 68.49 C0 66.87 0.39 65.72 1.17 65.03 C2.12
							 64.23 3.76 63.83 6.1 63.83 L17.18 63.83 C19.52 63.83 21.15 64.23 22.06 65.03 C22.87 65.72 23.28 66.87
							 23.28 68.49 L23.28 74.71 ZM17.16 74.96 L17.16 68.43 C17.16 67.49 16.81 66.87 16.09 66.58 C15.57 66.36
							 14.59 66.25 13.16 66.25 L10.18 66.25 C8.74 66.25 7.77 66.36 7.25 66.58 C6.49 66.87 6.12 67.49 6.12 68.43
							 L6.12 74.96 C6.12 75.79 6.49 76.35 7.25 76.63 C7.8 76.84 8.78 76.95 10.18 76.95 L13.16 76.95 C14.52
							 76.95 15.49 76.84 16.04 76.63 C16.79 76.35 17.16 75.79 17.16 74.96 Z" class="st2"/>
			</g>
			<g id="shape5-6" v:mID="5" v:groupContext="shape" transform="translate(105.397,-26.9413)">
				<title>svg_6</title>
				<path d="M17.16 66.25 L10.15 66.25 C8.73 66.25 7.76 66.36 7.24 66.58 C6.49 66.88 6.12 67.5 6.12 68.45 L6.12 79.37
							 L0 79.37 L0 68.49 C0 66.87 0.39 65.72 1.17 65.03 C2.11 64.23 3.75 63.83 6.09 63.83 L17.16 63.83 L17.16
							 66.25 L17.16 66.25 L17.16 66.25 Z" class="st2"/>
			</g>
			<g id="shape6-8" v:mID="6" v:groupContext="shape" transform="translate(124.609,-27.0079)">
				<title>svg_10</title>
				<path d="M6.12 79.37 L0 79.37 L0 63.9 L6.12 63.9 L6.12 79.37 Z" class="st2"/>
			</g>
			<g id="shape7-10" v:mID="7" v:groupContext="shape" transform="translate(134.512,-26.9413)">
				<title>svg_12</title>
				<path d="M23.28 74.71 C23.28 76.32 22.87 77.48 22.06 78.17 C21.15 78.97 19.52 79.37 17.18 79.37 L6.1 79.37 C3.76
							 79.37 2.11 78.97 1.17 78.17 C0.39 77.48 0 76.32 0 74.71 L0 68.49 C0 66.87 0.39 65.72 1.17 65.03 C2.12
							 64.23 3.76 63.83 6.1 63.83 L17.18 63.83 C19.52 63.83 21.15 64.23 22.06 65.03 C22.87 65.72 23.28 66.87
							 23.28 68.49 L23.28 74.71 ZM17.16 74.96 L17.16 68.43 C17.16 67.49 16.8 66.87 16.09 66.58 C15.56 66.36
							 14.59 66.25 13.15 66.25 L10.17 66.25 C8.74 66.25 7.76 66.36 7.24 66.58 C6.49 66.87 6.12 67.49 6.12 68.43
							 L6.12 74.96 C6.12 75.79 6.49 76.35 7.24 76.63 C7.79 76.84 8.77 76.95 10.17 76.95 L13.15 76.95 C14.52
							 76.95 15.48 76.84 16.04 76.63 C16.79 76.35 17.16 75.79 17.16 74.96 Z" class="st2"/>
			</g>
			<g id="shape8-12" v:mID="8" v:groupContext="shape" transform="translate(161.533,-26.9413)">
				<title>svg_13</title>
				<path d="M23.28 79.37 L15.89 79.37 L6.12 67.84 L6.12 79.37 L0 79.37 L0 63.83 L7.02 63.83 L17.16 75.8 L17.16 63.83
							 L23.28 63.83 L23.28 79.37 L23.28 79.37 L23.28 79.37 L23.28 79.37 Z" class="st2"/>
			</g>
			<g id="shape9-14" v:mID="9" v:groupContext="shape" transform="translate(81.0388,-15.4061)">
				<title>svg_14</title>
				<path d="M0.27 78.24 C0.72 78.48 1.38 78.67 2.08 78.67 C3.12 78.67 3.72 78.23 3.72 77.56 C3.72 76.97 3.3 76.61 2.24
							 76.29 C0.96 75.9 0.16 75.35 0.16 74.44 C0.16 73.44 1.18 72.69 2.71 72.69 C3.5 72.69 4.1 72.84 4.43 73.01
							 L4.15 73.69 C3.91 73.56 3.38 73.38 2.67 73.38 C1.6 73.38 1.19 73.91 1.19 74.35 C1.19 74.95 1.67 75.25
							 2.75 75.6 C4.08 76.03 4.75 76.55 4.75 77.5 C4.75 78.49 3.86 79.37 2.01 79.37 C1.25 79.37 0.42 79.18
							 0 78.94 L0.27 78.24 L0.27 78.24 L0.27 78.24 L0.27 78.24 Z" class="st2"/>
			</g>
			<g id="shape10-16" v:mID="10" v:groupContext="shape" transform="translate(87.1768,-15.5114)">
				<title>svg_15</title>
				<path d="M1.03 72.9 L1.03 79.37 L0 79.37 L0 72.9 L1.03 72.9 Z" class="st2"/>
			</g>
			<g id="shape11-18" v:mID="11" v:groupContext="shape" transform="translate(89.5791,-15.4061)">
				<title>svg_16</title>
				<path d="M0.27 78.24 C0.72 78.48 1.38 78.67 2.08 78.67 C3.12 78.67 3.72 78.23 3.72 77.56 C3.72 76.97 3.3 76.61 2.24
							 76.29 C0.96 75.9 0.16 75.35 0.16 74.44 C0.16 73.44 1.18 72.69 2.71 72.69 C3.5 72.69 4.1 72.84 4.43 73.01
							 L4.16 73.69 C3.91 73.56 3.38 73.38 2.67 73.38 C1.6 73.38 1.19 73.91 1.19 74.35 C1.19 74.95 1.67 75.25
							 2.75 75.6 C4.08 76.03 4.75 76.55 4.75 77.5 C4.75 78.49 3.86 79.37 2.01 79.37 C1.25 79.37 0.42 79.18
							 0 78.94 L0.27 78.24 L0.27 78.24 L0.27 78.24 L0.27 78.24 Z" class="st2"/>
			</g>
			<g id="shape12-20" v:mID="12" v:groupContext="shape" transform="translate(94.8316,-15.5114)">
				<title>svg_17</title>
				<path d="M2.39 73.61 L0 73.61 L0 72.9 L5.82 72.9 L5.82 73.61 L3.42 73.61 L3.42 79.37 L2.39 79.37 L2.39 73.61 L2.39
							 73.61 Z" class="st2"/>
			</g>
			<g id="shape13-22" v:mID="13" v:groupContext="shape" transform="translate(101.517,-15.5124)">
				<title>svg_18</title>
				<path d="M4.07 76.33 L1.03 76.33 L1.03 78.67 L4.43 78.67 L4.43 79.37 L0 79.37 L0 72.9 L4.26 72.9 L4.26 73.6 L1.03
							 73.6 L1.03 75.64 L4.07 75.64 L4.07 76.33 L4.07 76.33 Z" class="st2"/>
			</g>
			<g id="shape14-24" v:mID="14" v:groupContext="shape" transform="translate(107.06,-15.5124)">
				<title>svg_19</title>
				<path d="M6.84 76.53 C6.78 75.62 6.71 74.53 6.71 73.73 L6.69 73.73 C6.41 74.48 6.09 75.3 5.69 76.19 L4.3 79.33 L3.54
							 79.33 L2.25 76.25 C1.88 75.33 1.57 74.5 1.35 73.73 L1.33 73.73 C1.31 74.54 1.25 75.61 1.18 76.59 L0.97
							 79.37 L0 79.37 L0.55 72.9 L1.84 72.9 L3.19 76.03 C3.51 76.82 3.77 77.53 3.98 78.21 L4 78.21 C4.21 77.55
							 4.49 76.84 4.84 76.03 L6.24 72.9 L7.54 72.9 L8.03 79.37 L7.02 79.37 L6.84 76.53 L6.84 76.53 Z"
						class="st2"/>
			</g>
			<g id="shape15-26" v:mID="15" v:groupContext="shape" transform="translate(116.056,-15.5114)">
				<title>svg_20</title>
				<path d="M1.87 77.33 L1.05 79.37 L0 79.37 L2.67 72.9 L3.9 72.9 L6.58 79.37 L5.5 79.37 L4.65 77.33 L1.87 77.33 ZM4.45
							 76.68 L3.66 74.82 C3.5 74.4 3.38 74.01 3.27 73.64 L3.23 73.64 C3.13 74.01 3 74.41 2.85 74.81 L2.08 76.68
							 L4.45 76.68 L4.45 76.68 L4.45 76.68 Z" class="st2"/>
			</g>
			<g id="shape16-28" v:mID="16" v:groupContext="shape" transform="translate(126.254,-15.5124)">
				<title>svg_21</title>
				<path d="M0 72.9 L4.24 72.9 L4.24 73.6 L1.03 73.6 L1.03 75.75 L3.99 75.75 L3.99 76.44 L1.03 76.44 L1.03 79.37 L0
							 79.37 L0 72.9 L0 72.9 Z" class="st2"/>
			</g>
			<g id="shape17-30" v:mID="17" v:groupContext="shape" transform="translate(131.936,-15.5114)">
				<title>svg_22</title>
				<path d="M1.03 72.9 L1.03 79.37 L0 79.37 L0 72.9 L1.03 72.9 Z" class="st2"/>
			</g>
			<g id="shape18-32" v:mID="18" v:groupContext="shape" transform="translate(134.737,-15.5114)">
				<title>svg_23</title>
				<path d="M0 79.37 L0 72.9 L1.12 72.9 L3.63 76.17 C4.2 76.93 4.67 77.6 5.03 78.27 L5.06 78.26 C4.97 77.4 4.95 76.61
							 4.95 75.61 L4.95 72.9 L5.9 72.9 L5.9 79.37 L4.88 79.37 L2.38 76.08 C1.83 75.37 1.3 74.63 0.92 73.93
							 L0.89 73.94 C0.94 74.75 0.95 75.53 0.95 76.6 L0.95 79.37 L0 79.37 L0 79.37 L0 79.37 Z" class="st2"/>
			</g>
			<g id="shape19-34" v:mID="19" v:groupContext="shape" transform="translate(141.819,-15.5114)">
				<title>svg_24</title>
				<path d="M1.87 77.33 L1.05 79.37 L0 79.37 L2.67 72.9 L3.9 72.9 L6.58 79.37 L5.5 79.37 L4.66 77.33 L1.87 77.33 L1.87
							 77.33 ZM4.45 76.68 L3.66 74.82 C3.5 74.4 3.39 74.01 3.27 73.64 L3.23 73.64 C3.13 74.01 3 74.41 2.85
							 74.81 L2.08 76.68 L4.45 76.68 L4.45 76.68 Z" class="st2"/>
			</g>
			<g id="shape20-36" v:mID="20" v:groupContext="shape" transform="translate(149.555,-15.5114)">
				<title>svg_25</title>
				<path d="M0 79.37 L0 72.9 L1.12 72.9 L3.63 76.17 C4.2 76.93 4.67 77.6 5.03 78.27 L5.07 78.26 C4.97 77.4 4.95 76.61
							 4.95 75.61 L4.95 72.9 L5.91 72.9 L5.91 79.37 L4.88 79.37 L2.38 76.08 C1.83 75.37 1.31 74.63 0.92 73.93
							 L0.89 73.94 C0.95 74.75 0.96 75.53 0.96 76.6 L0.96 79.37 L0 79.37 L0 79.37 L0 79.37 Z" class="st2"/>
			</g>
			<g id="shape21-38" v:mID="21" v:groupContext="shape" transform="translate(156.766,-15.4061)">
				<title>svg_26</title>
				<path d="M5.95 79.06 C5.59 79.21 4.83 79.37 3.87 79.37 C1.66 79.37 0 78.22 0 76.09 C0 74.05 1.67 72.69 4.11 72.69
							 C5.08 72.69 5.71 72.86 5.97 72.98 L5.72 73.66 C5.34 73.5 4.8 73.39 4.14 73.39 C2.3 73.39 1.07 74.36
							 1.07 76.06 C1.07 77.65 2.18 78.66 4.08 78.66 C4.71 78.66 5.34 78.55 5.75 78.39 L5.95 79.06 L5.95 79.06
							 Z" class="st2"/>
			</g>
			<g id="shape22-40" v:mID="22" v:groupContext="shape" transform="translate(163.989,-15.5114)">
				<title>svg_27</title>
				<path d="M1.03 72.9 L1.03 79.37 L0 79.37 L0 72.9 L1.03 72.9 Z" class="st2"/>
			</g>
			<g id="shape23-42" v:mID="23" v:groupContext="shape" transform="translate(166.777,-15.5124)">
				<title>svg_28</title>
				<path d="M4.07 76.33 L1.03 76.33 L1.03 78.67 L4.43 78.67 L4.43 79.37 L0 79.37 L0 72.9 L4.26 72.9 L4.26 73.6 L1.03
							 73.6 L1.03 75.64 L4.07 75.64 L4.07 76.33 L4.07 76.33 Z" class="st2"/>
			</g>
			<g id="shape24-44" v:mID="24" v:groupContext="shape" transform="translate(172.53,-15.5123)">
				<title>svg_29</title>
				<path d="M0 72.99 C0.51 72.91 1.26 72.85 1.95 72.85 C3.03 72.85 3.75 73.02 4.24 73.39 C4.62 73.67 4.85 74.11 4.85
							 74.62 C4.85 75.46 4.19 76.03 3.37 76.26 L3.37 76.29 C3.97 76.46 4.33 76.92 4.53 77.59 C4.78 78.49 4.97
							 79.12 5.12 79.37 L4.07 79.37 C3.94 79.18 3.77 78.63 3.56 77.82 C3.33 76.93 2.89 76.59 1.97 76.56 L1.01
							 76.56 L1.01 79.37 L0 79.37 L0 72.99 L0 72.99 L0 72.99 L0 72.99 L0 72.99 ZM1.02 75.93 L2.05 75.93 C3.14
							 75.93 3.83 75.44 3.83 74.7 C3.83 73.87 3.09 73.5 2.02 73.5 C1.53 73.5 1.19 73.54 1.01 73.58 L1.01 75.93
							 L1.02 75.93 L1.02 75.93 Z" class="st2"/>
			</g>
			<g id="shape25-46" v:mID="25" v:groupContext="shape" transform="translate(178.376,-15.4061)">
				<title>svg_30</title>
				<path d="M3.54 79.37 C1.45 79.37 0 78.04 0 76.09 C0 74.03 1.54 72.69 3.64 72.69 C5.8 72.69 7.19 74.04 7.19 75.96
							 C7.19 78.18 5.54 79.37 3.55 79.37 L3.54 79.37 L3.54 79.37 ZM3.58 78.69 C5.19 78.69 6.1 77.47 6.1 76
							 C6.1 74.71 5.29 73.37 3.59 73.37 C1.9 73.37 1.06 74.66 1.06 76.07 C1.06 77.43 1.97 78.69 3.57 78.69
							 L3.58 78.69 L3.58 78.69 L3.58 78.69 L3.58 78.69 Z" class="st2"/>
			</g>
			<g id="group26-48" transform="translate(3.54329,-21.329)" v:mID="26" v:groupContext="group">
				<title>svg_31</title>
				<g id="shape27-49" v:mID="27" v:groupContext="shape" transform="translate(2.56083,-7.46984)">
					<title>svg_32</title>
					<path d="M55.5 74.42 C48.93 77.47 39.6 79.37 29.25 79.37 C17.2 79.37 6.53 76.79 0 72.84 L55.5 74.42 Z"
							class="st3"/>
					<path d="M55.5 74.42 C48.93 77.47 39.6 79.37 29.25 79.37 C17.2 79.37 6.53 76.79 0 72.84" class="st4"/>
				</g>
				<g id="shape28-52" v:mID="28" v:groupContext="shape" transform="translate(-3.17746E-13,-4.43094)">
					<title>svg_33</title>
					<path d="M15.75 71.89 C15.75 76.02 12.22 79.37 7.87 79.37 C3.52 79.37 0 76.02 0 71.89 C0 67.77 3.52 64.43 7.87
								 64.43 C12.22 64.43 15.75 67.77 15.75 71.89 Z" class="st5"/>
				</g>
				<g id="shape29-54" v:mID="29" v:groupContext="shape" transform="translate(23.9346,0)">
					<title>svg_34</title>
					<ellipse cx="7.87399" cy="71.8974" rx="7.87399" ry="7.46894" class="st5"/>
				</g>
				<g id="shape30-56" v:mID="30" v:groupContext="shape" transform="translate(48.2282,-4.1185)">
					<title>svg_35</title>
					<ellipse cx="7.87488" cy="71.8965" rx="7.87488" ry="7.46984" class="st5"/>
				</g>
			</g>
		</g>
	</g>
</svg>
