<?xml version="1.0" encoding="UTF-8" standalone="no"?>
<!-- Created with Keyshape -->
<svg xmlns="http://www.w3.org/2000/svg" viewBox="0 0 145 95" text-rendering="geometricPrecision" shape-rendering="geometricPrecision" style="white-space: pre;">
    <defs>
        <linearGradient id="Gradient-0" x1="0" y1="0" x2="143.562" y2="92.7437" gradientUnits="userSpaceOnUse">
            <stop offset="0" stop-color="#cc9416"/>
            <stop offset="0.09" stop-color="#f4c857"/>
            <stop offset="0.26" stop-color="#dfb038"/>
            <stop offset="0.39" stop-color="#bd8b15"/>
            <stop offset="0.53" stop-color="#cea12f"/>
            <stop offset="0.63" stop-color="#fada89"/>
            <stop offset="0.72" stop-color="#d59d40"/>
            <stop offset="1" stop-color="#d89e16"/>
        </linearGradient>
        <mask id="Mask-1" clip-rule="evenodd" fill-rule="evenodd" stroke-linecap="round" stroke-linejoin="round" stroke-miterlimit="1.5" style="mask-type: alpha;">
            <g id="rz" transform="translate(75.9192,50.2689) translate(-74.1275,-49.6635)">
                <g clip-path="url(#ClipPath-2)" transform="translate(67.3475,79.149) translate(-73.0245,-87.934)">
                    <path d="M101.963,93.71C101.882,93.853,101.851,94.059,101.814,94.307C101.728,94.89,101.604,95.708,101.294,96.452C100.985,97.195,100.488,97.864,99.72,98.571C98.952,99.276,97.91,100.02,96.931,100.826C95.952,101.632,95.035,102.499,93.56,103.057C92.084,103.614,90.052,103.864,88.242,103.677C86.433,103.491,84.846,102.87,83.992,102.573C83.136,102.276,83.013,102.3,82.653,102.573C82.293,102.847,81.698,103.366,80.942,103.75C80.187,104.135,79.269,104.384,77.869,104.495C76.469,104.607,74.584,104.583,72.787,104.247C70.99,103.913,69.279,103.268,68.4,102.946C67.83,102.737,67.608,102.664,67.476,102.678C66.522,102.067,50.581,91.847,49.371,89.914C49.463,89.81,49.514,89.713,49.498,89.635C49.424,89.262,49.424,89.064,49.4,88.953C49.375,88.847,48.878,88.654,48.96,88.56C50.32,86.986,47.582,84.984,46.26,84.151L46.104,83.869L45.894,83.487L45.893,83.462C45.884,83.115,45.891,82.641,45.911,82.178C46.279,80.688,47.035,78.456,48.477,76.874L48.477,76.874C48.65,76.874,48.803,76.766,49.028,76.608C49.4,76.348,49.97,75.95,50.626,75.654C51.284,75.355,52.027,75.158,52.771,75.096C53.515,75.035,54.258,75.108,55.125,75.281C55.583,75.372,56.074,75.491,56.551,75.607C57.501,75.993,58.321,76.332,59.43,76.038C59.532,76.03,59.634,76.017,59.737,76.001C60.356,75.901,61.026,75.654,61.62,75.307C62.215,74.959,62.736,74.514,63.182,74.117C63.629,73.719,64,73.374,64.409,73.187C64.818,73.001,70.041,71.364,70.445,71.155C71.14,70.796,71.958,70.423,73.433,69.977C74.908,69.532,77.039,69.011,79.059,68.788C81.079,68.565,82.987,68.639,84.749,68.912C86.508,69.184,88.12,69.655,88.962,69.891C89.455,70.028,89.685,70.085,89.784,70.012L94.176,72.491C94.229,72.549,94.284,72.608,94.343,72.668C94.937,73.275,95.829,73.968,96.636,74.861C97.44,75.755,98.16,76.845,98.432,77.948C98.704,79.051,98.53,80.167,98.259,81.095C97.986,82.025,97.614,82.769,97.466,83.228C97.386,83.473,97.37,83.636,97.503,83.731L97.481,83.77L101.419,86.648C101.524,86.791,101.665,86.93,101.814,87.044C102.124,87.28,102.47,87.403,102.595,87.614C102.719,87.825,102.62,88.122,102.483,88.531C102.347,88.94,102.174,89.462,102.124,89.833C102.104,89.985,102.104,90.112,102.186,90.225L101.963,93.71ZM76.753,99.996C75.006,99.849,72.849,99.6,70.457,98.905C68.065,98.212,65.437,97.072,62.871,95.621C60.306,94.171,57.803,92.411,55.758,90.392C53.712,88.37,52.126,86.09,51.271,84.244C50.415,82.396,50.292,80.983,50.28,80.116C50.267,79.249,50.366,78.927,50.589,78.703C50.812,78.48,51.159,78.356,52.337,78.281C53.514,78.207,55.522,78.182,57.17,78.145C58.819,78.108,60.108,78.058,61.062,77.885C62.016,77.712,62.636,77.414,63.863,76.684C65.09,75.952,66.925,74.787,68.648,73.968C70.369,73.151,71.981,72.681,73.803,72.543C75.625,72.407,77.658,72.606,79.778,72.914C81.897,73.225,84.103,73.647,86.037,74.353C87.97,75.059,89.631,76.052,90.882,77.044C92.135,78.034,92.977,79.026,93.412,80.09C93.845,81.157,93.87,82.298,93.87,83.091C93.87,83.884,93.845,84.331,93.412,84.441C93.155,84.507,92.759,84.458,92.326,84.408C92.023,84.373,91.704,84.338,91.403,84.343C90.672,84.354,90.052,84.602,89.494,85.148C88.936,85.693,88.441,86.536,88.081,87.354C87.721,88.172,87.499,88.966,87.164,89.771C86.83,90.577,86.384,91.395,85.665,92.957C84.946,94.518,83.955,96.824,83.359,98.112C82.765,99.402,82.566,99.674,82.269,99.861C81.971,100.046,81.574,100.145,80.707,100.17C80.565,100.174,80.412,100.176,80.246,100.176C79.393,100.176,78.216,100.121,76.753,99.996ZM85.763,100.033C85.639,99.971,85.937,99.774,86.594,98.708C87.251,97.641,88.267,95.708,89.048,93.898C89.828,92.089,90.374,90.402,90.746,89.288C91.118,88.172,91.316,87.626,91.526,87.39C91.738,87.155,91.96,87.229,92.716,87.354C93.472,87.477,94.761,87.651,95.815,87.689C96.363,87.708,96.848,87.69,97.274,87.672C97.666,87.656,98.008,87.639,98.306,87.651C98.925,87.676,99.347,87.825,99.558,88.109C99.769,88.395,99.769,88.818,99.608,89.274C99.446,89.733,99.124,90.23,98.852,90.651C98.579,91.073,98.356,91.419,98.269,91.903C98.183,92.385,98.232,93.007,98.071,93.823C97.91,94.641,97.538,95.659,96.831,96.563C96.125,97.467,95.084,98.26,93.881,98.794C92.679,99.327,91.316,99.6,90.139,99.749C88.961,99.897,87.97,99.923,87.2,99.971C86.642,100.008,86.201,100.057,85.954,100.057C85.862,100.057,85.797,100.05,85.763,100.033Z" transform="translate(102.652,104.555) scale(0,0) translate(-102.652,-104.555)" style="animation: 10s linear infinite both a0_t;"/>
                </g>
                <g clip-path="url(#ClipPath-3)" transform="translate(102.206,51.012) translate(-107.883,-59.797)">
                    <path d="M108.076,84.662C107.369,84.783,106.744,84.91,106.077,85.024C104.775,85.247,103.314,85.421,102.434,85.594C101.554,85.767,101.256,85.941,101.244,86.202C101.237,86.336,101.307,86.494,101.419,86.648L97.481,83.77L97.503,83.731C97.604,83.804,97.789,83.837,98.095,83.837C98.142,83.837,98.192,83.837,98.246,83.835C99.102,83.809,100.738,83.587,102.498,83.139C104.258,82.694,106.141,82.025,108.384,80.663C110.628,79.297,113.23,77.241,115.635,74.44C118.04,71.637,120.246,68.093,121.312,64.934C122.378,61.772,122.303,58.997,121.944,55.787C121.585,52.577,120.94,48.933,120.11,45.822C119.279,42.711,118.263,40.133,117.73,38.695C117.196,37.257,117.148,36.96,116.949,37.184C116.751,37.406,116.403,38.15,115.858,38.942C115.313,39.737,114.57,40.578,113.28,41.683C111.992,42.786,110.157,44.149,108.062,45.724C105.968,47.298,103.614,49.082,101.592,50.879C99.573,52.676,97.886,54.485,96.498,56.841C95.11,59.196,94.019,62.095,93.474,64.313C92.929,66.532,92.929,68.069,92.966,69.073C93.003,70.078,93.078,70.548,93.263,71.043C93.431,71.491,93.69,71.958,94.176,72.491L89.784,70.012C89.854,69.961,89.858,69.843,89.843,69.643C89.806,69.16,89.656,68.193,89.608,67.202C89.557,66.21,89.608,65.193,89.793,64.004C89.978,62.813,90.302,61.451,90.946,59.864C91.59,58.278,92.557,56.468,93.09,55.464C93.623,54.46,93.666,54.11,93.662,54.103C95.673,51.135,98.566,47.869,102.702,44.417C102.788,44.372,103.052,44.2,103.078,44.105C106.845,41.006,111.62,37.758,117.656,34.442C117.825,34.46,118.011,34.572,118.324,34.839C118.832,35.273,119.674,36.115,120.617,37.641C121.558,39.164,122.6,41.371,123.467,43.701C124.335,46.031,125.029,48.485,125.438,51.052C125.846,53.617,125.97,56.293,125.86,58.487C125.747,60.683,125.401,62.392,125.289,63.173C125.043,65.463,124.299,67.526,124.299,67.526C124.063,67.819,123.898,68.13,123.441,68.9C122.846,69.903,121.757,71.687,120.616,73.323C119.476,74.961,118.286,76.446,117.332,77.524C116.377,78.603,115.658,79.272,115.274,79.608C115.03,79.82,108.076,84.662,108.076,84.662Z" transform="translate(89.5893,86.648) scale(0,0) translate(-89.5893,-86.648)" style="animation: 10s linear infinite both a1_t;"/>
                </g>
                <g clip-path="url(#ClipPath-4)" transform="translate(120.237,65.488) translate(-125.914,-74.273)">
                    <path d="M125.262,63.639C125.305,63.826,125.515,63.634,126.008,63.233C126.715,62.664,128.003,61.673,129.664,60.631C131.325,59.591,133.358,58.5,135.415,57.694C137.472,56.889,139.555,56.368,141.513,55.946C143.472,55.524,145.306,55.203,146.744,55.079C148.181,54.954,149.223,55.029,149.805,55.141C150.387,55.253,150.512,55.401,150.512,55.698C150.512,55.997,150.387,56.442,149.433,58.153C148.478,59.862,146.693,62.837,145.381,65.204C144.067,67.573,143.223,69.332,142.479,71.043C141.737,72.753,141.091,74.415,139.89,76.409C138.688,78.405,136.928,80.736,134.932,82.905C132.937,85.073,130.705,87.08,128.487,88.754C126.268,90.428,124.062,91.766,121.769,92.72C119.476,93.675,117.097,94.245,114.519,94.542C111.941,94.839,109.165,94.864,107.045,94.566C104.926,94.27,103.463,93.651,102.707,93.513C102.273,93.435,102.072,93.516,101.963,93.71L102.186,90.225C102.303,90.389,102.59,90.524,103.227,90.663C104.156,90.867,105.833,91.077,107.889,91.077C108.218,91.077,108.557,91.072,108.904,91.06C111.42,90.973,114.369,90.552,117.221,89.944C120.071,89.338,122.821,88.544,124.954,87.515C127.085,86.487,128.597,85.222,130.246,83.499C131.895,81.777,133.679,79.594,134.659,78.38C135.637,77.167,135.812,76.919,135.712,77.003C135.613,77.092,135.24,77.514,133.568,78.455C131.895,79.397,128.92,80.86,126.057,81.876C123.194,82.891,120.443,83.462,117.728,83.784C115.014,84.106,112.336,84.181,110.428,84.354C109.251,84.461,108.366,84.606,107.556,84.754L107.571,84.749L114.887,79.906C114.954,79.861,115.022,79.816,115.089,79.77C114.989,79.863,114.981,79.9,115.124,79.9C115.236,79.9,115.442,79.878,115.77,79.843C116.7,79.744,118.607,79.546,120.963,78.963C123.318,78.38,126.119,77.414,128.474,76.198C130.829,74.984,132.737,73.522,134.337,72.06C135.935,70.597,137.224,69.134,138.488,67.673C139.753,66.21,140.991,64.748,141.996,63.434C143,62.12,143.769,60.954,144.512,59.988C145.256,59.02,145.975,58.253,146.185,57.905C146.396,57.559,146.098,57.633,144.115,58.128C142.133,58.623,138.463,59.541,135.229,60.855C131.994,62.169,129.192,63.879,127.433,65.045C125.672,66.21,124.954,66.829,124.546,67.251C124.274,67.531,124.139,67.723,123.905,68.113L123.937,68.048L125.262,63.639Z" transform="translate(101.963,94.7775) rotate(30) scale(0,0) translate(-101.963,-94.7775)" style="animation: 10s linear infinite both a2_t;"/>
                </g>
                <g clip-path="url(#ClipPath-1)" transform="translate(33.6095,83.0275) translate(-39.2865,-91.8125)">
                    <path d="M67.476,102.678C67.404,102.686,67.358,102.72,67.297,102.772C67.124,102.921,66.825,103.218,65.984,103.614C65.139,104.012,63.752,104.507,61.831,104.866C59.91,105.226,57.455,105.449,54.345,105.276C51.233,105.102,47.466,104.532,44.057,103.578C40.649,102.624,37.599,101.285,34.96,99.76C32.32,98.236,30.089,96.526,27.821,94.951C25.553,93.378,23.247,91.938,21.562,91.121C19.876,90.303,18.81,90.105,18.016,89.957C17.223,89.808,16.703,89.708,16.579,89.56C16.455,89.411,16.728,89.213,17.397,88.643C18.066,88.073,19.132,87.131,20.533,86.189C21.933,85.247,23.668,84.303,25.218,83.66C26.767,83.015,28.131,82.669,29.469,82.409C30.808,82.148,32.985,81.713,32.65,81.599C41.632,80.888,36.96,84.72,36.96,84.72C36.96,84.72,36.807,84.85,36.572,84.739C36.337,84.628,36.113,84.628,34.849,84.602C33.584,84.577,31.279,84.528,29.308,84.838C27.338,85.147,25.701,85.817,24.648,86.312C23.595,86.809,23.124,87.131,23.012,87.254C22.969,87.302,22.98,87.321,23.084,87.321C23.248,87.321,23.644,87.275,24.424,87.229C25.701,87.155,28.007,87.081,30.188,87.268C32.37,87.452,34.427,87.9,36.46,88.469C38.492,89.04,40.5,89.733,42.211,90.179C43.921,90.626,45.333,90.824,46.239,90.861C46.729,90.882,47.07,90.855,47.329,90.828C47.548,90.806,47.708,90.782,47.85,90.788C48.095,90.796,49.026,90.304,49.371,89.914C50.583,91.849,66.524,102.069,67.476,102.678ZM52.089,100.418C49.4,99.897,45.805,98.954,42.421,97.74C39.038,96.526,35.865,95.037,33.51,93.823C31.155,92.609,29.618,91.667,28.304,90.899C26.991,90.131,25.9,89.536,25.206,89.238C24.513,88.94,24.215,88.94,24.636,88.94C25.057,88.94,26.197,88.94,27.523,89.125C28.85,89.313,30.362,89.684,32.333,90.366C34.304,91.048,36.733,92.039,39.36,92.944C41.988,93.849,44.814,94.667,47.391,95.261C49.969,95.856,52.3,96.229,53.564,96.426C54.828,96.625,55.026,96.649,55.461,96.909C55.894,97.17,56.563,97.665,57.332,98.249C58.1,98.831,58.967,99.501,59.513,99.923C60.059,100.344,60.281,100.518,60.033,100.679C59.785,100.839,59.067,100.988,57.815,101.013C57.704,101.015,57.588,101.016,57.468,101.016C56.239,101.016,54.539,100.892,52.089,100.418ZM46.104,83.869L46.26,84.151C46.125,84.066,46.005,83.994,45.906,83.935C45.906,83.821,45.898,83.673,45.894,83.487L46.104,83.869Z" transform="translate(67.476,105.336) rotate(-30) scale(0,0) translate(-67.476,-105.336)" style="animation: 10s linear infinite both a3_t;"/>
                </g>
                <g clip-path="url(#ClipPath-5)" transform="translate(84.823,44.715) scale(0,0) translate(-90.5,-53.5)" style="animation: 10s linear infinite both a4_t;">
                    <path d="M106.746,40.768C107.152,40.761,107.684,40.427,108.174,40.108C108.818,39.686,109.389,39.29,109.958,38.657C110.529,38.025,111.099,37.158,111.558,36.104C112.016,35.051,112.363,33.81,112.524,32.423C112.685,31.035,112.66,29.499,112.413,28.258C112.164,27.019,111.694,26.078,111.458,25.111C111.223,24.143,111.223,23.152,111.359,22.185C111.496,21.219,111.768,20.276,112.003,19.521C112.239,18.764,112.437,18.195,112.524,17.909C112.611,17.624,112.586,17.624,111.941,17.736C111.298,17.848,110.033,18.07,108.657,18.505C107.282,18.938,105.794,19.583,104.306,20.4C102.819,21.219,101.333,22.21,100.155,23.103C98.978,23.995,98.109,24.788,97.552,25.446C96.994,26.102,96.746,26.623,96.523,27.019C96.3,27.415,96.102,27.689,95.953,27.987C95.804,28.284,95.705,28.606,95.643,28.333C95.582,28.06,95.557,27.193,95.663,26.34C95.769,25.485,96.005,24.644,96.53,23.719C96.935,23,97.511,22.23,98.053,21.407C99.135,20.225,100.509,19.075,102.075,17.959C103.761,16.756,105.669,15.591,107.862,14.785C110.057,13.98,112.535,13.534,114.135,13.298C115.042,13.165,115.667,13.099,116.114,13.099C116.454,13.099,116.691,13.137,116.873,13.212C117.295,13.385,117.419,13.757,117.493,14.587C117.568,15.418,117.592,16.706,117.382,18.763C117.171,20.822,116.725,23.648,116.402,26.398C116.08,29.15,115.882,31.828,115.672,33.377C115.46,34.926,115.238,35.348,115.312,35.46C115.367,35.543,110.601,38.606,106.619,41.441L106.746,40.768Z" transform="translate(106.569,27.27) translate(-106.569,-27.27)"/>
                </g>
                <path d="M61.557,13.844C60.654,15.144,58.868,17.722,57.393,20.127C55.918,22.532,54.753,24.763,54.096,26.734C53.44,28.704,53.291,30.414,53.316,31.889C53.34,33.364,53.538,34.603,53.663,35.15C53.787,35.695,53.836,35.545,54.133,34.653C54.431,33.761,54.977,32.125,55.646,30.613C56.315,29.101,57.109,27.712,58.1,26.337C59.091,24.962,60.281,23.597,61.286,22.272C62.289,20.946,63.108,19.656,63.578,18.591C64.049,17.525,64.174,16.681,64.297,16.359C64.421,16.037,64.545,16.235,65.326,16.756C66.106,17.276,67.545,18.12,68.97,18.974C70.395,19.83,71.808,20.697,73.482,21.739C75.155,22.779,77.088,23.994,78.414,24.9C78.705,25.098,78.968,25.282,79.206,25.455C80.011,26.002,80.815,26.55,81.46,26.983C82.369,27.589,82.964,27.96,83.249,28.06C83.534,28.159,83.508,27.985,83.559,27.725C83.608,27.465,83.733,27.118,83.931,26.852C84.129,26.586,84.401,26.398,84.237,25.907C84.148,25.639,83.93,25.28,83.718,24.895C82.991,23.931,82.031,22.752,80.88,21.578C79.121,19.78,76.914,17.995,74.461,16.62C72.006,15.244,69.304,14.277,67.272,13.657C65.238,13.038,63.876,12.765,63.182,12.641C63.026,12.613,62.904,12.592,62.798,12.592C62.432,12.592,62.26,12.835,61.557,13.844Z" transform="translate(69.323,43.715) scale(0,0) translate(-75,-52.5)" style="animation: 10s linear infinite both a5_t;"/>
                <g clip-path="url(#ClipPath-6)" transform="translate(47.791,56.2015) translate(-53.468,-64.9865)">
                    <path d="M36.485,67.003C36.542,66.899,36.518,66.621,36.46,66.198C36.361,65.465,36.163,64.302,36.015,62.9C35.865,61.5,35.766,59.864,35.866,58.253C35.965,56.642,36.263,55.056,36.522,53.978C36.783,52.899,37.005,52.329,37.142,52.043C37.279,51.758,37.329,51.758,38.183,51.869C39.039,51.981,40.699,52.204,41.802,52.404C42.905,52.602,43.451,52.775,43.947,52.924C44.435,53.069,48.604,54.263,50.212,54.7C50.468,54.699,56.449,56.531,56.651,56.741C57.462,57.153,57.679,57.286,58.251,57.67C58.82,58.055,59.365,58.475,59.824,58.76C60.112,58.939,63.788,61.778,63.827,61.846C63.926,62.02,64.149,62.169,64.533,62.529C64.917,62.888,65.463,63.457,66.17,64.535C66.875,65.615,67.744,67.202,68.215,68.441C68.685,69.681,68.761,70.572,68.761,71.142C68.761,71.712,68.685,71.96,68.934,71.911C69.037,71.889,68.839,72.954,66.96,72.48C66.931,72.473,66.902,72.466,66.873,72.459C66.863,72.27,66.795,71.991,66.652,71.565C66.355,70.672,65.735,69.134,64.855,67.783C63.976,66.433,62.834,65.267,61.014,64.028C59.191,62.788,56.687,61.475,54.172,60.396C51.656,59.317,49.127,58.475,47.144,57.942C45.16,57.41,43.723,57.187,42.683,56.876C41.641,56.567,40.997,56.171,40.513,55.749C40.029,55.327,39.707,54.879,39.597,55.117C39.485,55.352,39.583,56.27,39.758,57.781C39.93,59.294,40.179,61.4,40.476,63.185C40.774,64.97,41.12,66.433,41.703,67.995C42.285,69.556,43.104,71.216,43.934,72.419C44.764,73.622,45.607,74.365,46.338,75.071C47.07,75.777,47.689,76.446,48.086,76.72C48.242,76.828,48.364,76.874,48.477,76.874C47.035,78.456,46.263,79.988,46.338,79.753C46.411,79.518,46.326,79.744,45.743,79.272C45.16,78.801,43.946,77.96,42.991,77.19C42.038,76.423,41.343,75.727,40.935,75.27C40.525,74.81,40.402,74.588,40.365,74.341C40.327,74.093,40.377,73.819,39.633,73.138C39.391,72.916,39.066,72.651,38.678,72.356C37.91,70.656,37.158,68.919,36.485,67.003Z" transform="translate(68.9559,79.777) scale(0,0) translate(-68.9559,-79.777)" style="animation: 10s linear infinite both a6_t;"/>
                </g>
                <g clip-path="url(#ClipPath-7)" transform="translate(26.1115,63.397) translate(-31.7885,-72.182)">
                    <path d="M14.491,54.859C14.494,54.868,14.5,54.875,14.51,54.881C14.555,54.907,14.673,54.893,14.877,54.879C15.062,54.865,15.321,54.852,15.663,54.869C16.382,54.907,17.473,55.081,19.481,55.91C21.489,56.741,24.414,58.227,27.066,59.838C29.718,61.451,32.098,63.186,33.635,64.487C35.171,65.787,35.865,66.655,36.213,66.94C36.443,67.13,36.52,67.063,36.517,66.784L40.126,73.67C40.022,73.525,39.867,73.351,39.633,73.138C38.89,72.456,37.353,71.365,35.667,70.251C33.981,69.134,32.147,67.995,30.425,66.803C28.702,65.615,27.09,64.375,25.628,63.347C24.165,62.317,22.851,61.5,21.624,60.868C20.397,60.235,19.257,59.79,18.824,59.629C18.389,59.467,18.663,59.591,19.356,60.21C20.05,60.831,21.165,61.946,22.529,63.384C23.892,64.822,25.503,66.581,27.276,68.54C29.049,70.498,30.982,72.655,32.816,74.588C34.651,76.52,36.385,78.233,38.319,79.719C40.253,81.206,42.385,82.471,43.699,83.228C45.013,83.983,45.509,84.231,45.732,84.243L45.748,84.243C45.879,84.243,50.458,86.826,48.96,88.56C48.878,88.654,48.779,88.732,48.663,88.794L48.582,88.791C47.899,88.768,46.627,88.746,45.318,88.55C41.73,87.46,36.96,84.72,36.96,84.72C36.96,84.72,32.564,81.57,32.518,81.554C32.097,81.405,31.502,81.157,30.61,80.426C29.716,79.693,28.526,78.479,26.792,76.471C25.057,74.463,22.776,71.663,20.842,68.848C18.909,66.036,17.322,63.21,16.17,61.5C15.436,60.41,14.877,59.773,14.284,59.281C13.667,58.008,13.423,56.657,13.734,55.188C13.977,55.066,14.23,54.957,14.491,54.859ZM40.372,74.383L40.404,74.503C40.39,74.462,40.38,74.423,40.372,74.383Z" transform="translate(57.5,88.5) scale(0,0) translate(-57.5,-88.5)" style="animation: 10s linear infinite both a7_t;"/>
                </g>
                <g clip-path="url(#ClipPath-8)" transform="translate(24.9415,35.6025) translate(-30.6185,-44.3875)">
                    <path d="M9.457,56.5C8.361,55.912,7.626,55.472,7.247,55.216C6.863,54.954,6.836,54.879,7.259,54.522C7.68,54.162,8.547,53.519,10.158,52.726C11.77,51.93,14.126,50.989,16.938,50.146C19.752,49.303,23.024,48.56,25.528,48.251C28.032,47.94,29.767,48.063,30.696,48.127C31.626,48.188,31.749,48.188,31.775,48.051C31.799,47.915,31.725,47.643,31.65,47.147C31.576,46.651,31.502,45.932,31.49,45.078C31.477,44.222,31.526,43.23,31.737,42.115C31.947,40.999,32.32,39.759,32.865,38.544C33.411,37.331,34.129,36.141,34.799,35.285C35.467,34.431,36.087,33.909,36.422,33.699C36.757,33.489,36.807,33.588,37.055,33.737C37.302,33.885,37.748,34.083,38.591,34.343C39.434,34.603,40.674,34.926,42.073,35.348C43.475,35.769,45.037,36.289,46.623,36.983C48.209,37.678,49.821,38.544,50.663,39.004C51.182,39.285,51.409,39.413,51.557,39.411L50.239,41.617C50.11,41.453,49.824,41.296,49.289,41.062C48.582,40.752,47.441,40.306,46.512,40.045C45.583,39.785,44.863,39.712,44.157,39.723C43.451,39.736,42.756,39.835,42.075,39.835C41.394,39.835,40.724,39.736,40.006,39.439C39.286,39.14,38.518,38.644,37.961,38.261C37.403,37.877,37.056,37.604,36.882,37.529C36.709,37.455,36.709,37.58,36.622,38.15C36.535,38.72,36.361,39.736,36.064,40.727C35.766,41.719,35.345,42.685,35.048,43.59C34.75,44.495,34.576,45.339,34.539,46.069C34.502,46.799,34.601,47.42,34.836,48.065C35.073,48.71,35.444,49.379,35.779,49.924C36.114,50.469,36.411,50.89,36.474,51.077C36.513,51.198,36.453,51.219,36.091,51.219C35.897,51.219,35.618,51.213,35.221,51.213C34.081,51.213,31.974,51.262,29.818,51.436C27.661,51.61,25.454,51.907,23.385,52.255C21.315,52.602,19.382,52.997,17.969,53.37C16.556,53.741,15.663,54.087,15.13,54.36C14.616,54.624,14.437,54.816,14.502,54.875L14.6463,59.454Z" transform="translate(41.5,57) scale(0,0) translate(-41.5,-57)" style="animation: 10s linear infinite both a8_t;"/>
                </g>
                <g clip-path="url(#ClipPath-9)" transform="translate(70.6725,37.0895) translate(-76.3495,-45.8745)">
                    <path d="M60.521,59.016C60.613,58.987,60.67,58.898,60.679,58.723C60.704,58.253,60.381,57.162,60.221,55.626C60.06,54.088,60.06,52.107,60.369,50.358C60.679,48.61,61.299,47.098,61.807,46.044C62.315,44.99,62.712,44.397,62.96,44.16C63.207,43.925,63.306,44.05,63.642,44.334C63.976,44.619,64.545,45.065,65.525,45.747C66.505,46.429,67.892,47.346,69.107,48.374C70.322,49.403,71.363,50.544,71.945,51.262C72.528,51.981,72.652,52.279,72.726,52.08C72.801,51.883,72.825,51.189,72.962,50.333C73.098,49.478,73.347,48.462,73.768,47.444C74.189,46.429,74.783,45.411,75.341,44.656C75.899,43.901,76.42,43.405,76.73,43.181C77.039,42.959,77.138,43.008,77.486,43.144C77.833,43.28,78.427,43.503,79.109,43.863C79.791,44.222,80.559,44.718,81.167,45.203C81.774,45.685,82.22,46.156,82.444,46.069C82.666,45.982,82.666,45.339,82.654,44.259C82.642,43.181,82.616,41.67,82.58,40.765C82.543,39.86,82.492,39.562,82.629,39.377C82.765,39.191,83.088,39.117,83.658,39.078C84.228,39.042,85.047,39.042,86.026,39.103C87.004,39.165,88.144,39.29,89.297,39.599C90.45,39.91,91.615,40.405,92.656,41.112C93.696,41.818,94.614,42.736,95.123,43.331C95.631,43.925,95.73,44.198,95.717,43.814C95.705,43.429,95.582,42.388,95.334,41.384C95.085,40.38,94.713,39.413,94.206,38.273C93.696,37.133,93.053,35.819,92.074,34.381C91.095,32.944,89.781,31.382,88.815,30.389C87.847,29.399,87.227,28.977,86.893,28.94C86.558,28.903,86.509,29.25,86.297,29.845C86.087,30.44,85.716,31.282,85.53,31.766C85.344,32.249,85.344,32.374,85.517,32.634C85.691,32.893,86.037,33.291,86.348,33.837C86.657,34.381,86.93,35.076,87.054,35.695C87.178,36.315,87.153,36.861,86.955,37.121C86.757,37.381,86.385,37.356,85.852,37.343C85.318,37.331,84.624,37.331,84.129,37.406C83.634,37.481,83.336,37.629,83.187,37.666C83.038,37.704,83.038,37.629,83.013,37.319C82.988,37.01,82.939,36.464,82.828,35.856C82.716,35.25,82.543,34.58,82.319,33.936C82.096,33.291,81.824,32.671,81.46,32.249C81.096,31.828,80.641,31.604,80.366,31.136C80.092,30.668,79.998,29.952,79.998,29.54C79.998,29.39,80.01,29.28,80.012,29.189C80.275,29.181,80.544,29.164,80.8,29.184C81.434,29.235,81.987,29.521,82.558,30.039C83.128,30.555,83.715,31.303,84.071,31.504C84.426,31.703,84.551,31.357,84.723,30.824C84.897,30.29,85.121,29.572,85.344,28.88C85.569,28.186,85.793,27.521,86.177,26.852C86.4,26.463,86.677,26.073,86.955,25.705C87.028,25.679,87.111,25.659,87.202,25.642C87.697,25.556,88.491,25.606,89.593,26.039C90.207,26.28,90.915,26.64,91.555,26.993C92.163,27.37,92.76,27.72,93.219,28.013C93.838,28.412,94.201,28.707,94.606,29.152C95.011,29.598,95.458,30.192,95.841,30.824C96.226,31.456,96.548,32.126,96.747,32.299C96.944,32.473,97.019,32.15,97.13,31.642C97.242,31.134,97.391,30.44,97.514,29.845C97.639,29.25,97.737,28.754,98.259,28.742C98.779,28.73,99.721,29.201,100.6,29.845C101.481,30.489,102.299,31.307,103.03,32.212C103.762,33.117,104.405,34.109,104.853,35.124C105.298,36.141,105.547,37.183,105.72,38.236C105.893,39.29,105.992,40.356,106.402,40.666C106.5,40.74,106.617,40.77,106.746,40.768L106.619,41.441C105.278,42.396,104.027,43.325,103.078,44.105C103.112,43.978,103.106,43.76,103.092,43.306C103.067,42.512,103.018,41.001,102.819,39.636C102.621,38.273,102.274,37.059,101.766,36.067C101.257,35.076,100.588,34.307,100.031,33.824C99.474,33.34,99.026,33.143,98.791,33.44C98.556,33.737,98.53,34.531,98.544,35.919C98.556,37.307,98.605,39.29,98.667,40.827C98.729,42.363,98.804,43.454,98.828,44.334C98.853,45.214,98.828,45.883,98.667,46.59C98.507,47.296,98.208,48.039,98.16,48.288C98.146,48.355,98.15,48.385,98.172,48.386C98.231,48.386,95.673,51.133,93.662,54.103C93.599,53.98,93.383,53.902,92.681,53.691C91.937,53.468,90.648,53.097,89.681,52.899C88.715,52.7,88.071,52.676,87.339,52.763C86.608,52.849,85.79,53.047,84.711,53.926C83.634,54.807,82.294,56.369,81.116,57.93C79.94,59.493,78.923,61.053,78.167,62.703C77.411,64.351,76.916,66.084,76.643,67.065C76.535,67.454,76.461,67.724,76.404,67.895L76.161,68.004C76.038,67.755,75.87,67.163,75.825,66.297C75.776,65.342,75.875,64.053,76.172,62.442C76.47,60.832,76.965,58.897,78.044,57.088C79.122,55.278,80.781,53.591,81.699,52.651C82.616,51.71,82.79,51.511,82.592,51.262C82.394,51.015,81.824,50.717,81.229,50.307C80.633,49.9,80.014,49.379,79.358,48.808C78.701,48.239,78.006,47.618,77.634,47.221C77.262,46.825,77.213,46.651,77.015,46.775C76.816,46.899,76.47,47.321,76.16,47.866C75.849,48.413,75.577,49.082,75.291,50.01C75.006,50.94,74.709,52.132,74.573,53.556C74.436,54.981,74.462,56.642,74.424,57.732C74.387,58.823,74.288,59.344,74.176,59.529C74.143,59.585,74.109,59.611,74.072,59.611C73.985,59.611,73.885,59.467,73.755,59.232C73.569,58.897,73.32,58.376,72.95,57.745C72.577,57.112,72.082,56.369,71.35,55.278C70.62,54.186,69.652,52.751,68.624,51.436C67.595,50.122,66.505,48.932,65.922,48.288C65.339,47.643,65.265,47.544,65.191,47.68C65.116,47.817,65.041,48.188,64.818,48.722C64.596,49.254,64.224,49.949,63.95,50.903C63.678,51.858,63.505,53.072,63.492,54.844C63.48,56.617,63.629,58.946,63.69,60.212C63.728,60.977,63.734,61.351,63.755,61.566L60.521,59.016ZM51.557,39.411C51.649,39.41,51.71,39.359,51.791,39.263C52.002,39.016,52.349,38.471,52.597,38.175C52.845,37.876,52.994,37.827,53.229,37.863C53.465,37.901,53.788,38.023,54.27,38.185C54.753,38.346,55.398,38.544,56.03,38.893C56.662,39.239,57.282,39.736,57.579,39.946C57.877,40.156,57.852,40.082,57.815,39.71C57.777,39.337,57.728,38.669,57.766,37.666C57.803,36.662,57.927,35.322,58.187,34.281C58.447,33.241,58.844,32.497,59.364,31.641C59.884,30.786,60.529,29.82,61.212,29.101C61.892,28.383,62.611,27.911,62.971,27.712C63.33,27.514,63.33,27.588,63.529,27.861C63.727,28.134,64.124,28.605,64.78,29.273C65.437,29.944,66.355,30.811,66.85,31.282C67.345,31.753,67.42,31.828,67.52,31.432C67.619,31.034,67.742,30.166,67.916,29.324C68.09,28.482,68.313,27.663,68.697,26.807C69.081,25.953,69.627,25.06,69.937,24.614C70.247,24.167,70.321,24.167,70.569,24.254C70.817,24.341,71.238,24.515,71.808,24.911C72.378,25.308,73.097,25.928,73.853,26.547C74.609,27.167,75.402,27.787,76.419,28.729C77.435,29.67,78.675,30.935,79.381,31.691C79.779,32.117,80.008,32.383,80.141,32.51L80.166,32.571C80.426,33.216,80.543,33.861,80.601,34.58C80.659,35.299,80.659,36.092,80.572,36.501C80.485,36.91,80.312,36.934,79.94,36.786C79.567,36.637,78.998,36.315,77.92,35.285C76.841,34.258,75.254,32.522,73.892,31.246C72.528,29.968,71.387,29.15,70.755,28.903C70.123,28.655,69.999,28.977,69.69,30.044C69.379,31.109,68.883,32.919,68.674,33.91C68.462,34.902,68.537,35.076,68.81,35.411C69.082,35.745,69.553,36.241,69.888,36.464C70.223,36.686,70.421,36.637,70.792,36.39C71.165,36.141,71.71,35.695,72.032,35.398C72.355,35.101,72.454,34.951,72.714,35.062C72.974,35.175,73.396,35.547,74.164,36.254C74.932,36.96,76.047,38,76.668,38.795C77.287,39.587,77.411,40.132,77.449,40.616C77.486,41.099,77.436,41.522,77.287,41.62C77.138,41.719,76.891,41.496,76.518,41.174C76.147,40.852,75.651,40.431,75.045,39.884C74.437,39.339,73.717,38.669,73.259,38.508C72.801,38.348,72.602,38.695,72.219,39.129C71.834,39.562,71.264,40.082,70.743,40.801C70.223,41.522,69.751,42.438,69.417,43.429C69.082,44.421,68.883,45.486,68.773,46.12C68.661,46.751,68.636,46.949,68.388,46.553C68.14,46.156,67.669,45.164,67.496,44.21C67.322,43.255,67.447,42.338,67.608,41.545C67.768,40.752,67.966,40.082,67.496,39.165C67.025,38.248,65.886,37.085,65.03,35.932C64.175,34.779,63.604,33.638,63.319,32.883C63.034,32.126,63.034,31.754,62.984,31.691C62.934,31.63,62.836,31.878,62.612,32.225C62.39,32.573,62.043,33.018,61.709,33.626C61.374,34.233,61.051,35.001,60.791,35.771C60.53,36.537,60.332,37.307,60.134,38.385C59.935,39.463,59.737,40.852,59.676,42.079C59.612,43.306,59.687,44.371,59.725,45.09C59.761,45.809,59.761,46.18,59.625,46.304C59.489,46.429,59.217,46.304,58.721,45.908C58.225,45.511,57.506,44.842,56.787,44.111C56.068,43.38,55.349,42.585,54.916,42.09C54.482,41.594,54.333,41.397,54.196,41.447C54.061,41.496,53.937,41.793,53.714,42.376C53.49,42.959,53.168,43.826,52.995,45.065C52.821,46.304,52.796,47.917,52.958,49.206C53.119,50.494,53.465,51.459,53.949,52.612C54.432,53.765,55.051,55.104,55.498,55.799C55.632,56.007,55.751,56.158,55.863,56.272C54.732,56.013,53.614,55.736,52.533,55.367C52.656,55.24,52.453,54.901,52.053,54.311C51.582,53.617,50.838,52.577,50.367,51.536C49.895,50.494,49.698,49.453,49.574,48.337C49.45,47.221,49.4,46.031,49.487,45.065C49.574,44.098,49.796,43.355,49.995,42.834C50.194,42.315,50.367,42.016,50.317,41.781C50.305,41.724,50.28,41.67,50.239,41.617L51.557,39.411ZM44.924,52.982C44.925,52.979,44.925,52.975,44.926,52.972C44.963,52.751,44.592,52.18,44.356,51.523C44.121,50.866,44.021,50.122,44.133,49.354C44.244,48.587,44.565,47.792,44.939,47.136C45.31,46.478,45.732,45.959,46.028,45.624C46.327,45.289,46.5,45.139,46.599,45.127C46.698,45.115,46.723,45.239,46.933,45.772C47.145,46.304,47.541,47.246,47.765,48.053C47.987,48.858,48.037,49.527,48.049,50.122C48.062,50.717,48.037,51.237,48.11,51.82C48.185,52.404,48.359,53.047,48.793,53.592C49.138,54.027,49.648,54.397,50.212,54.7C48.604,54.263,46.546,53.684,44.924,52.982ZM84.935,49.218C84.873,49.056,84.922,48.661,84.984,47.891C85.047,47.123,85.121,45.982,85.071,44.817C85.021,43.653,84.848,42.463,84.959,41.941C85.071,41.422,85.468,41.57,85.976,41.806C86.484,42.041,87.103,42.363,88.095,42.983C89.087,43.602,90.449,44.52,91.64,45.537C92.83,46.553,93.846,47.669,94.453,48.448C95.061,49.23,95.259,49.676,95.345,49.924C95.433,50.171,95.407,50.221,95.309,50.333C95.209,50.444,95.037,50.618,94.578,50.557C94.119,50.494,93.375,50.196,92.582,49.9C91.788,49.601,90.946,49.305,89.732,49.192C88.517,49.082,86.93,49.156,86.05,49.23C85.557,49.272,85.285,49.314,85.131,49.314C85.01,49.314,84.962,49.288,84.935,49.218Z" transform="translate(85,79) scale(0,0) translate(-85,-79)" style="animation: 10s linear infinite both a9_t;"/>
                </g>
            </g>
        </mask>
        <clipPath id="ClipPath-2">
            <path d="M97.481,83.77L101.364,76.985L95.743,73.375L88.323,69.188L87.064,67.756L42.713,67.756L42.713,106.367L102.2,108.112L101.957,93.8L102.2,90L103.336,87.233L101.662,86.825L97.481,83.77Z" stroke="#000" stroke-width="0.24px" transform="translate(73.0245,87.934) translate(-73.0245,-87.934)"/>
        </clipPath>
        <clipPath id="ClipPath-3">
            <path d="M97.896,88.372L107.928,84.762L115.07,79.935C118.482,77.136,121.569,73.356,124.153,68.048L125.391,63.628L130.699,31.222L85.067,31.222L85.067,88.372L97.896,88.372Z" transform="translate(107.883,59.797) translate(-107.883,-59.797)"/>
        </clipPath>
        <clipPath id="ClipPath-4">
            <path d="M97.896,88.372L107.571,84.749L114.887,79.906C118.615,77.438,121.353,73.356,123.937,68.048L125.265,63.628L125.265,52.546L153.932,53.322L153.932,96L97.896,96L97.896,88.372Z" transform="translate(125.914,74.273) translate(-125.914,-74.273)"/>
        </clipPath>
        <clipPath id="ClipPath-1">
            <path d="M67.52,102.707C67.52,102.707,50.207,91.645,49.333,89.845C48.458,88.046,42.288,76.988,42.288,76.988L11.053,76.988L11.053,105.335L67.52,106.637L67.52,102.707Z" stroke="#000" stroke-width="0.24px" transform="translate(39.2865,91.8125) translate(-39.2865,-91.8125)"/>
        </clipPath>
        <clipPath id="ClipPath-5">
            <path d="M92.939,23.964L96.354,30.106L101.172,23.964L107.58,36.328L105.934,45.087L120.62,40.606L123.296,18.287L121.752,8.785L107.58,10.44L92.939,23.964Z" transform="translate(108.118,26.936) translate(-108.118,-26.936)"/>
        </clipPath>
        <clipPath id="ClipPath-6">
            <path d="M39.225,73.558C37.935,70.734,36.649,67.902,35.659,64.395L33.362,54.258L39.225,49.82L63.36,57.384L73,73.558L44.977,80.153L39.225,73.558Z" transform="translate(53.468,64.9865) translate(-53.468,-64.9865)"/>
        </clipPath>
        <clipPath id="ClipPath-7">
            <path d="M40.242,73.892L36.501,66.752C31.213,62.018,24.673,57.658,17.54,54.103C16.177,54.343,14.849,54.627,13.734,55.188C13.29,57.285,13.977,59.144,15.267,60.876C20.602,70.05,27.035,78.816,35.177,86.947L49.19,90.261L49.978,84.301L41.514,78.693L40.242,73.892Z" transform="translate(31.7885,72.182) translate(-31.7885,-72.182)"/>
        </clipPath>
        <clipPath id="ClipPath-8">
            <path d="M29.127,56.656L55.56,39.145L37.016,32.119L5.677,54.754L14,59L13.7774,55.1097L16.754,54.149L29.127,56.656Z" transform="translate(39,53) translate(-39,-53)"/>
        </clipPath>
        <clipPath id="ClipPath-9">
            <path d="M42.489,52.525C45.907,52.942,49.035,54.896,52.639,55.537C56.909,56.297,60.519,58.63,63.747,61.549C67.46,64.907,72.223,66.755,76.274,68.694L93.705,54.007C98.963,46.279,104.471,41.727,110.21,40.101L110.21,23.055L42.489,23.055L42.489,52.525Z" transform="translate(76.3495,45.8745) translate(-76.3495,-45.8745)"/>
        </clipPath>
    </defs>
    <style>
@keyframes a0_t { 0% { transform: translate(102.652px,104.555px) scale(0,0) translate(-102.652px,-104.555px); animation-timing-function: cubic-bezier(0,0,0.58,1); } 4% { transform: translate(102.652px,104.555px) scale(1,1) translate(-102.652px,-104.555px); } 100% { transform: translate(102.652px,104.555px) scale(1,1) translate(-102.652px,-104.555px); } }
@keyframes a1_t { 0% { transform: translate(89.5893px,86.648px) scale(0,0) translate(-89.5893px,-86.648px); } 2.4% { transform: translate(89.5893px,86.648px) scale(0,0) translate(-89.5893px,-86.648px); animation-timing-function: cubic-bezier(0,0,0.58,1); } 5.6% { transform: translate(89.5893px,86.648px) scale(1,1) translate(-89.5893px,-86.648px); } 100% { transform: translate(89.5893px,86.648px) scale(1,1) translate(-89.5893px,-86.648px); } }
@keyframes a2_t { 0% { transform: translate(101.963px,94.7775px) rotate(30deg) scale(0,0) translate(-101.963px,-94.7775px); } 4% { transform: translate(101.963px,94.7775px) rotate(30deg) scale(0,0) translate(-101.963px,-94.7775px); animation-timing-function: cubic-bezier(0,0,0.58,1); } 7.2% { transform: translate(101.963px,94.7775px) rotate(0deg) scale(1,1) translate(-101.963px,-94.7775px); } 100% { transform: translate(101.963px,94.7775px) rotate(0deg) scale(1,1) translate(-101.963px,-94.7775px); } }
@keyframes a3_t { 0% { transform: translate(67.476px,105.336px) rotate(-30deg) scale(0,0) translate(-67.476px,-105.336px); } 4% { transform: translate(67.476px,105.336px) rotate(-30deg) scale(0,0) translate(-67.476px,-105.336px); animation-timing-function: cubic-bezier(0,0,0.58,1); } 7.2% { transform: translate(67.476px,105.336px) rotate(0deg) scale(1,1) translate(-67.476px,-105.336px); } 100% { transform: translate(67.476px,105.336px) rotate(0deg) scale(1,1) translate(-67.476px,-105.336px); } }
@keyframes a4_t { 0% { transform: translate(84.823px,44.715px) scale(0,0) translate(-90.5px,-53.5px); } 6.4% { transform: translate(84.823px,44.715px) scale(0,0) translate(-90.5px,-53.5px); animation-timing-function: cubic-bezier(0,0,0.58,1); } 9.6% { transform: translate(84.823px,44.715px) scale(1,1) translate(-90.5px,-53.5px); } 100% { transform: translate(84.823px,44.715px) scale(1,1) translate(-90.5px,-53.5px); } }
@keyframes a5_t { 0% { transform: translate(69.323px,43.715px) scale(0,0) translate(-75px,-52.5px); } 8% { transform: translate(69.323px,43.715px) scale(0,0) translate(-75px,-52.5px); animation-timing-function: cubic-bezier(0,0,0.58,1); } 11.2% { transform: translate(69.323px,43.715px) scale(1,1) translate(-75px,-52.5px); } 100% { transform: translate(69.323px,43.715px) scale(1,1) translate(-75px,-52.5px); } }
@keyframes a6_t { 0% { transform: translate(68.9559px,79.777px) scale(0,0) translate(-68.9559px,-79.777px); } 9.6% { transform: translate(68.9559px,79.777px) scale(0,0) translate(-68.9559px,-79.777px); animation-timing-function: cubic-bezier(0,0,0.58,1); } 13.6% { transform: translate(68.9559px,79.777px) scale(1,1) translate(-68.9559px,-79.777px); } 100% { transform: translate(68.9559px,79.777px) scale(1,1) translate(-68.9559px,-79.777px); } }
@keyframes a7_t { 0% { transform: translate(57.5px,88.5px) scale(0,0) translate(-57.5px,-88.5px); } 11.2% { transform: translate(57.5px,88.5px) scale(0,0) translate(-57.5px,-88.5px); animation-timing-function: cubic-bezier(0,0,0.58,1); } 14.4% { transform: translate(57.5px,88.5px) scale(1,1) translate(-57.5px,-88.5px); } 100% { transform: translate(57.5px,88.5px) scale(1,1) translate(-57.5px,-88.5px); } }
@keyframes a8_t { 0% { transform: translate(41.5px,57px) scale(0,0) translate(-41.5px,-57px); } 12.8% { transform: translate(41.5px,57px) scale(0,0) translate(-41.5px,-57px); animation-timing-function: cubic-bezier(0,0,0.58,1); } 16% { transform: translate(41.5px,57px) scale(1,1) translate(-41.5px,-57px); } 100% { transform: translate(41.5px,57px) scale(1,1) translate(-41.5px,-57px); } }
@keyframes a9_t { 0% { transform: translate(85px,79px) scale(0,0) translate(-85px,-79px); } 14.4% { transform: translate(85px,79px) scale(0,0) translate(-85px,-79px); animation-timing-function: cubic-bezier(0,0,0.58,1); } 20% { transform: translate(85px,79px) scale(1,1) translate(-85px,-79px); } 100% { transform: translate(85px,79px) scale(1,1) translate(-85px,-79px); } }
    </style>
    <g clip-rule="evenodd" fill-rule="evenodd" stroke-linecap="round" stroke-linejoin="round" stroke-miterlimit="1.5" mask="url(#Mask-1)" transform="translate(71.9727,93.6036) translate(-74.3187,-96.8879)">
        <rect width="143.562" height="92.7437" fill="url(#Gradient-0)" stroke-miterlimit="1.5" stroke-linecap="round" stroke-linejoin="round" stroke="none" transform="translate(79.035,54.5986) translate(-75.97,-50.1862)"/>
    </g>
</svg>
