<svg version="1.1" id="Layer_1" xmlns="http://www.w3.org/2000/svg" xmlns:xlink="http://www.w3.org/1999/xlink" x="0px" y="0px"
	 width="100%" viewBox="0 0 872 187" enable-background="new 0 0 872 187" xml:space="preserve">
<path fill="#FEFEFE" opacity="1.000000" stroke="none" 
	d="
M873.000000,34.000000 
	C873.000000,85.313301 873.000000,136.626602 873.000000,187.945099 
	C582.333313,187.950317 291.666656,187.950317 1.000000,187.950317 
	C1.000000,161.244446 1.000000,134.588272 1.334613,107.638596 
	C2.445830,109.382217 3.871908,111.411690 3.895943,113.457642 
	C4.082644,129.350327 3.942541,145.246689 4.082994,161.140305 
	C4.097673,162.801437 5.277401,164.452255 6.042045,166.311096 
	C6.363324,166.773117 6.604083,166.979477 7.024354,167.325195 
	C7.367136,167.758759 7.619407,167.938828 8.002181,168.402527 
	C11.180224,169.165039 14.270401,169.931335 17.363659,169.943970 
	C41.776180,170.043747 66.189316,170.021118 90.602196,169.987015 
	C98.016869,169.976654 99.938576,167.987961 99.994469,160.515884 
	C100.061546,151.549301 100.088379,142.582397 100.450165,133.752136 
	C115.258728,146.924026 129.697250,160.018723 144.289993,172.939240 
	C146.869644,175.223297 148.456924,177.513046 147.911926,181.012405 
	C147.856537,181.367950 148.192612,181.784454 148.474625,182.493530 
	C149.708771,181.515640 150.682022,180.744476 151.565781,180.044220 
	C153.110519,181.047623 154.370667,181.866165 155.236664,182.428680 
	C155.977066,179.689438 155.847794,176.382202 157.426971,174.919632 
	C170.963211,162.382950 184.808624,150.180099 198.782852,137.679581 
	C211.050568,151.297333 226.086746,158.722488 244.197418,158.709564 
	C262.437164,158.696548 277.578735,151.163696 289.882904,137.562134 
	C298.488770,145.311707 306.769318,152.770081 315.051849,160.226196 
	C323.392212,167.734299 331.734558,175.240143 341.103821,183.671921 
	C341.103821,175.981079 341.103821,169.704208 341.103821,162.503296 
	C342.957153,165.345642 344.191803,167.239151 345.593414,169.388718 
	C355.946747,160.080597 366.077393,150.972687 376.318604,141.765381 
	C380.242340,146.541306 383.767181,151.195633 387.724182,155.447845 
	C389.083282,156.908340 391.512848,158.133743 393.469482,158.157806 
	C410.463165,158.366913 427.460541,158.278000 444.456818,158.277771 
	C448.896576,158.277710 453.336365,158.277756 458.324524,158.277756 
	C458.324524,153.959854 458.324524,150.142334 458.324524,145.624435 
	C467.916168,154.262100 476.832062,162.280685 485.734863,170.313782 
	C489.248688,173.484329 493.797272,176.097885 491.177765,183.192093 
	C493.588776,181.512253 494.753021,180.701096 495.850891,179.936157 
	C497.308136,180.825775 498.585175,181.605392 500.812988,182.965424 
	C499.052521,176.779129 502.098267,173.783066 505.695251,170.713654 
	C513.676819,163.902634 521.390198,156.777420 529.222290,149.790848 
	C533.760132,145.742874 538.316345,141.715363 542.957825,137.595581 
	C553.731262,151.838974 568.013000,157.666519 584.859070,158.221924 
	C601.664368,158.775970 616.749207,154.599060 628.704895,142.120636 
	C651.188416,164.269608 685.620911,163.661789 705.867126,142.790268 
	C709.253540,146.926086 712.391724,151.248672 716.079773,155.035690 
	C717.684509,156.683517 720.405273,158.105164 722.642029,158.139572 
	C739.301086,158.395859 755.965881,158.278137 772.628906,158.277771 
	C777.249084,158.277679 781.869263,158.277756 786.468262,158.277756 
	C786.684631,157.358887 786.889526,156.893677 786.890076,156.428238 
	C786.910095,139.098892 786.916931,121.769531 786.899658,104.440193 
	C786.898743,103.471375 786.803650,102.466164 786.534790,101.541107 
	C785.808044,99.040474 784.963745,96.573990 784.166138,94.093956 
	C785.026428,93.781006 785.886658,93.468063 786.746948,93.155113 
	C787.410217,94.601685 788.624817,96.039375 788.648254,97.496239 
	C788.814453,107.824638 788.557800,118.162460 788.875305,128.483765 
	C788.945557,130.765686 790.231445,133.554657 791.884888,135.147644 
	C798.478516,141.500305 805.432434,147.479523 812.263916,153.584747 
	C823.256531,163.408661 834.257812,173.222931 846.125000,183.817642 
	C846.125000,153.042267 846.125000,123.375259 846.125000,93.310593 
	C853.796753,93.310593 860.898743,93.310593 867.992432,93.310593 
	C867.992432,73.944077 867.992432,54.983669 868.185181,35.735962 
	C869.918640,34.965775 871.459351,34.482887 873.000000,34.000000 
z"/>
<path fill="#FFFFFF" opacity="1.000000" stroke="none" 
	d="
M873.000000,33.533020 
	C871.459351,34.482887 869.918640,34.965775 867.717163,35.749199 
	C825.790833,36.181507 784.525452,36.325397 743.259888,36.438465 
	C728.778198,36.478142 714.295898,36.393600 699.815002,36.509178 
	C698.212341,36.521973 696.617188,37.480293 694.636475,37.994568 
	C691.333069,36.895447 688.482910,35.497162 685.470520,34.793175 
	C682.403870,34.076500 679.094238,33.752048 676.546631,37.187206 
	C673.063232,37.098209 670.032288,36.956203 666.941040,36.498749 
	C665.920288,36.409828 664.959717,36.636356 663.603149,36.977692 
	C659.804749,37.713570 656.402283,38.334641 652.999023,38.583595 
	C652.772522,37.236961 652.546936,36.262432 652.321289,35.287903 
	C651.741760,35.137856 651.162292,34.987812 650.582764,34.837765 
	C649.721497,36.850594 648.860229,38.863422 647.719971,41.075607 
	C645.999146,41.949486 644.557312,42.624008 642.933594,43.007812 
	C638.254700,42.519447 635.346069,44.240215 634.912720,49.404270 
	C633.185303,50.487144 631.583679,51.268551 629.987854,51.598648 
	C629.993652,48.569550 629.993652,45.991760 629.993652,42.940777 
	C626.777649,43.766537 624.439270,44.366940 621.776367,44.866028 
	C618.907898,42.363056 616.363953,39.961403 613.839111,37.175575 
	C612.919373,36.189541 611.980530,35.587673 610.709473,34.876343 
	C608.872986,33.274303 607.368591,31.781731 606.250488,30.173058 
	C606.526550,28.946465 606.416443,27.835970 606.306396,26.725471 
	C605.478577,27.335674 604.650757,27.945879 603.518555,28.408127 
	C601.798767,26.869360 600.383301,25.478548 598.981689,23.709431 
	C598.995483,21.700214 598.995483,20.069302 598.995483,18.438389 
	C598.518555,18.413256 598.041565,18.388121 597.564636,18.362986 
	C597.268188,19.582668 596.971680,20.802351 596.375366,21.917645 
	C595.346436,21.072268 594.617432,20.331278 593.901489,19.216511 
	C593.283508,18.228483 592.652344,17.614235 591.916748,16.622322 
	C591.601440,14.518506 591.390686,12.792356 590.761414,11.046026 
	C588.857544,11.444424 587.372192,11.862998 585.484619,12.137418 
	C583.492737,15.990200 583.010254,20.708715 578.107849,22.203945 
	C576.304138,20.700781 574.637024,19.439209 572.788086,18.559858 
	C572.262878,18.310101 570.466980,19.340916 570.503418,19.502451 
	C571.903503,25.706465 567.200012,25.939930 562.996277,26.657862 
	C562.996277,28.295965 563.285950,29.703362 562.920166,30.912457 
	C562.498291,32.306881 561.497986,33.526295 560.748779,34.821701 
	C559.336731,33.848305 557.701233,33.072605 556.598022,31.825876 
	C555.957336,31.101858 555.904907,29.587168 556.045898,28.486992 
	C556.763977,22.885792 557.631653,17.303766 558.470825,11.551207 
	C557.084656,12.535025 553.457397,8.101553 551.533691,13.591756 
	C513.636108,13.706923 476.193207,13.706923 438.005524,13.706923 
	C438.005524,21.111677 438.005524,28.055586 437.774475,35.127533 
	C437.359161,35.549911 437.174866,35.844246 436.539520,36.274628 
	C385.281921,36.410675 334.475433,36.410675 283.488007,36.410675 
	C283.348511,39.409328 283.195251,42.704781 282.655090,46.008316 
	C281.452698,46.504944 280.637115,46.993481 279.462799,47.318359 
	C278.121552,46.312099 277.139069,45.469494 276.539246,44.481022 
	C277.554321,43.997665 278.186768,43.660175 278.819244,43.322685 
	C278.384094,42.982021 277.948944,42.641354 277.513794,42.300686 
	C277.031982,43.110798 276.550201,43.920906 275.713226,44.702999 
	C274.193817,43.904709 273.029602,43.134438 271.898743,41.989204 
	C271.793823,40.566093 271.655579,39.517941 271.392487,37.523556 
	C270.222961,39.216789 269.612061,40.101246 268.729736,40.998871 
	C268.307007,40.912350 268.155701,40.812664 267.995117,40.349579 
	C267.151947,38.713390 266.318115,37.440601 265.484253,36.167809 
	C264.598877,37.003242 263.713501,37.838684 262.413757,38.634247 
	C250.395020,34.786572 238.728638,35.420246 226.957520,37.728706 
	C222.212082,34.758968 219.912781,35.886322 218.864471,41.453094 
	C215.908203,43.196926 213.154816,44.670116 209.976257,46.104820 
	C208.130325,46.042946 206.709595,46.019550 205.201019,45.565720 
	C205.172134,43.091255 205.231079,41.047222 205.627380,38.945320 
	C206.338577,37.512928 206.712433,36.138409 207.086304,34.763889 
	C206.057709,35.131126 205.029114,35.498363 203.538498,35.949585 
	C168.720917,35.977051 134.365356,35.920525 100.006958,35.404030 
	C100.004852,27.962860 100.005577,20.981667 100.380524,14.000328 
	C101.503151,14.000122 102.251579,14.000061 103.008385,14.369465 
	C103.660400,15.401746 104.304039,16.064560 104.947678,16.727375 
	C105.221199,16.227503 105.494720,15.727633 105.768242,15.227763 
	C104.845497,14.818508 103.922745,14.409254 103.004448,13.630196 
	C104.283287,10.878524 106.738304,8.355238 106.475052,6.157551 
	C106.246231,4.247171 102.944023,2.704928 101.000000,0.999999 
	C358.333344,1.000000 615.666687,1.000000 873.000000,1.000000 
	C873.000000,11.744208 873.000000,22.405121 873.000000,33.533020 
M110.359657,11.674754 
	C111.039658,11.946469 111.719658,12.218185 112.399666,12.489901 
	C112.468834,11.920117 112.538002,11.350334 112.607162,10.780550 
	C111.947533,10.881848 111.287903,10.983148 110.359657,11.674754 
z"/>
<path fill="#FEFEFE" opacity="1.000000" stroke="none" 
	d="
M103.004448,13.630196 
	C102.251579,14.000061 101.503151,14.000122 100.378677,13.589573 
	C100.218864,8.758309 98.885834,5.788158 93.735260,5.721353 
	C88.795624,5.657285 83.862862,5.110590 78.922783,5.025553 
	C57.742573,4.660962 36.561169,4.323925 15.378887,4.198684 
	C13.585340,4.188079 11.782092,5.818349 9.675452,6.799402 
	C8.933242,6.947925 8.498930,6.983364 7.838533,7.087347 
	C7.324040,7.309201 7.109441,7.533216 6.864219,8.072528 
	C6.489012,8.540112 6.218239,8.763102 5.652781,9.234921 
	C4.905415,11.713813 4.065978,13.942629 4.058788,16.174128 
	C3.968739,44.120663 3.983570,72.067612 4.024590,100.014374 
	C4.028399,102.609726 4.163214,105.088776 1.000000,106.000000 
	C1.000000,71.074844 1.000000,36.149681 1.000000,1.000000 
	C34.020554,1.000000 67.041618,1.000000 100.531342,0.999999 
	C102.944023,2.704928 106.246231,4.247171 106.475052,6.157551 
	C106.738304,8.355238 104.283287,10.878524 103.004448,13.630196 
z"/>
<path fill="#FEF9F2" opacity="1.000000" stroke="none" 
	d="
M1.000000,106.250000 
	C4.163214,105.088776 4.028399,102.609726 4.024590,100.014374 
	C3.983570,72.067612 3.968739,44.120663 4.058788,16.174128 
	C4.065978,13.942629 4.905415,11.713813 5.645881,9.704758 
	C5.870254,11.917744 5.753436,13.909665 5.751335,15.901708 
	C5.711726,53.459679 5.651139,91.017693 5.676327,128.575638 
	C5.684683,141.035934 5.920835,153.496078 6.017354,165.992889 
	C5.981868,166.029510 5.916586,166.107864 5.916585,166.107864 
	C5.277401,164.452255 4.097673,162.801437 4.082994,161.140305 
	C3.942541,145.246689 4.082644,129.350327 3.895943,113.457642 
	C3.871908,111.411690 2.445830,109.382217 1.334613,107.172554 
	C1.000000,107.000000 1.000000,106.500000 1.000000,106.250000 
z"/>
<path fill="#060404" opacity="1.000000" stroke="none" 
	d="
M438.005524,34.999496 
	C438.005524,28.055586 438.005524,21.111677 438.005524,13.706923 
	C476.193207,13.706923 513.636108,13.706923 551.951050,13.753018 
	C553.178040,15.449810 553.819153,17.096930 553.839844,18.751806 
	C553.944580,27.124130 553.888062,35.498474 553.888062,45.061604 
	C562.627380,36.975864 570.401367,29.783205 578.175415,22.590549 
	C583.010254,20.708715 583.492737,15.990200 585.616028,12.427860 
	C587.826416,12.263706 589.503174,11.664955 591.179932,11.066204 
	C591.390686,12.792356 591.601440,14.518506 591.867859,16.970528 
	C592.578430,18.327698 593.233398,18.958998 593.888367,19.590294 
	C594.617432,20.331278 595.346436,21.072268 596.472717,22.166504 
	C597.569214,23.042412 598.268555,23.565071 598.967834,24.087734 
	C600.383301,25.478548 601.798767,26.869360 603.614624,28.619867 
	C604.631409,29.416096 605.247803,29.852631 605.864258,30.289160 
	C607.368591,31.781731 608.872986,33.274303 610.831055,35.175987 
	C612.129944,36.243305 612.974976,36.901520 613.820007,37.559742 
	C616.363953,39.961403 618.907898,42.363056 621.909058,45.168655 
	C624.904907,47.731720 627.443481,49.890842 629.982056,52.049957 
	C631.583679,51.268551 633.185303,50.487144 635.234619,49.300720 
	C638.160034,47.029980 640.637756,45.164257 643.115540,43.298531 
	C644.557312,42.624008 645.999146,41.949486 648.060791,41.088699 
	C650.120422,40.253525 651.560181,39.604610 652.999878,38.955700 
	C656.402283,38.334641 659.804749,37.713570 663.976379,37.044106 
	C665.497498,36.935204 666.249390,36.874699 667.001282,36.814198 
	C670.032288,36.956203 673.063232,37.098209 676.860229,37.406494 
	C683.419678,39.158779 689.213074,40.744797 695.288147,42.407925 
	C695.197144,40.919830 695.107788,39.459965 695.018555,38.000099 
	C696.617188,37.480293 698.212341,36.521973 699.815002,36.509178 
	C714.295898,36.393600 728.778198,36.478142 743.259888,36.438465 
	C784.525452,36.325397 825.790833,36.181507 867.524414,36.036507 
	C867.992432,54.983669 867.992432,73.944077 867.992432,93.310593 
	C860.898743,93.310593 853.796753,93.310593 846.125000,93.310593 
	C846.125000,123.375259 846.125000,153.042267 846.125000,183.817642 
	C834.257812,173.222931 823.256531,163.408661 812.263916,153.584747 
	C805.432434,147.479523 798.478516,141.500305 791.884888,135.147644 
	C790.231445,133.554657 788.945557,130.765686 788.875305,128.483765 
	C788.557800,118.162460 788.814453,107.824638 788.648254,97.496239 
	C788.624817,96.039375 787.410217,94.601685 786.746948,93.155113 
	C785.886658,93.468063 785.026428,93.781006 784.166138,94.093956 
	C784.963745,96.573990 785.808044,99.040474 786.534790,101.541107 
	C786.803650,102.466164 786.898743,103.471375 786.899658,104.440193 
	C786.916931,121.769531 786.910095,139.098892 786.890076,156.428238 
	C786.889526,156.893677 786.684631,157.358887 786.468262,158.277756 
	C781.869263,158.277756 777.249084,158.277679 772.628906,158.277771 
	C755.965881,158.278137 739.301086,158.395859 722.642029,158.139572 
	C720.405273,158.105164 717.684509,156.683517 716.079773,155.035690 
	C712.391724,151.248672 709.253540,146.926086 705.867126,142.790268 
	C685.620911,163.661789 651.188416,164.269608 628.704895,142.120636 
	C616.749207,154.599060 601.664368,158.775970 584.859070,158.221924 
	C568.013000,157.666519 553.731262,151.838974 542.957825,137.595581 
	C538.316345,141.715363 533.760132,145.742874 529.222290,149.790848 
	C521.390198,156.777420 513.676819,163.902634 505.695251,170.713654 
	C502.098267,173.783066 499.052521,176.779129 500.812988,182.965424 
	C498.585175,181.605392 497.308136,180.825775 495.850891,179.936157 
	C494.753021,180.701096 493.588776,181.512253 491.177765,183.192093 
	C493.797272,176.097885 489.248688,173.484329 485.734863,170.313782 
	C476.832062,162.280685 467.916168,154.262100 458.324524,145.624435 
	C458.324524,150.142334 458.324524,153.959854 458.324524,158.277756 
	C453.336365,158.277756 448.896576,158.277710 444.456818,158.277771 
	C427.460541,158.278000 410.463165,158.366913 393.469482,158.157806 
	C391.512848,158.133743 389.083282,156.908340 387.724182,155.447845 
	C383.767181,151.195633 380.242340,146.541306 376.318604,141.765381 
	C366.077393,150.972687 355.946747,160.080597 345.593414,169.388718 
	C344.191803,167.239151 342.957153,165.345642 341.103821,162.503296 
	C341.103821,169.704208 341.103821,175.981079 341.103821,183.671921 
	C331.734558,175.240143 323.392212,167.734299 315.051849,160.226196 
	C306.769318,152.770081 298.488770,145.311707 289.882904,137.562134 
	C277.578735,151.163696 262.437164,158.696548 244.197418,158.709564 
	C226.086746,158.722488 211.050568,151.297333 198.782852,137.679581 
	C184.808624,150.180099 170.963211,162.382950 157.426971,174.919632 
	C155.847794,176.382202 155.977066,179.689438 155.236664,182.428680 
	C154.370667,181.866165 153.110519,181.047623 151.565781,180.044220 
	C150.682022,180.744476 149.708771,181.515640 148.474625,182.493530 
	C148.192612,181.784454 147.856537,181.367950 147.911926,181.012405 
	C148.456924,177.513046 146.869644,175.223297 144.289993,172.939240 
	C129.697250,160.018723 115.258728,146.924026 100.371475,133.521545 
	C99.616081,132.829590 99.256882,132.504745 98.907494,131.696838 
	C98.789375,117.085648 98.661446,102.957542 98.548309,88.371109 
	C98.550621,73.014252 98.538147,58.115742 98.683701,42.796333 
	C98.920677,40.294434 98.999611,38.213436 99.317711,36.087364 
	C99.556877,36.042297 100.009796,35.864002 100.009796,35.864002 
	C134.365356,35.920525 168.720917,35.977051 203.868286,36.110107 
	C204.870056,37.125492 205.080048,38.064339 205.290039,39.003185 
	C205.231079,41.047222 205.172134,43.091255 205.112488,45.926643 
	C205.111786,47.693642 205.111786,48.669292 205.111786,50.478504 
	C207.204437,48.763451 208.802933,47.453381 210.401428,46.143307 
	C213.154816,44.670116 215.908203,43.196926 219.230499,41.417320 
	C222.210800,40.109337 224.622208,39.107773 227.033615,38.106209 
	C238.728638,35.420246 250.395020,34.786572 262.683838,38.785828 
	C264.913666,39.555847 266.459045,40.134411 268.004425,40.712975 
	C268.155701,40.812664 268.307007,40.912350 268.948822,41.239388 
	C270.248047,41.765877 271.056702,42.065022 271.865387,42.364166 
	C273.029602,43.134438 274.193817,43.904709 275.755310,44.669758 
	C276.152588,44.664532 276.156616,44.626884 276.156616,44.626888 
	C277.139069,45.469494 278.121552,46.312099 279.668274,47.573471 
	C281.106842,48.575500 281.981171,49.158756 283.330109,50.058598 
	C283.203064,48.269253 283.122498,47.134743 283.041962,46.000233 
	C283.195251,42.704781 283.348511,39.409328 283.488007,36.410675 
	C334.475433,36.410675 385.281921,36.410675 436.880005,36.310753 
	C437.782867,35.807053 437.894196,35.403275 438.005524,34.999496 
M348.972076,101.434967 
	C348.621552,101.252579 348.271057,101.070183 347.667938,100.255913 
	C339.316071,86.311600 330.993622,72.349426 322.562439,58.453239 
	C321.800354,57.197147 320.388275,55.553017 319.191376,55.478302 
	C313.959747,55.151749 308.696106,55.337791 303.316101,55.337791 
	C303.316101,77.489418 303.308960,98.953339 303.339935,120.417206 
	C303.341309,121.362556 303.358795,122.661049 303.929993,123.197449 
	C309.294800,128.235504 314.782013,133.143204 321.129822,138.901321 
	C321.129822,122.412910 321.129822,107.246078 321.129822,92.079239 
	C321.433044,91.989815 321.736267,91.900383 322.039490,91.810959 
	C331.303223,107.213799 340.566956,122.616638 350.165466,138.576157 
	C356.029449,133.206970 361.504944,128.193512 367.734222,122.692841 
	C367.734222,100.275833 367.734222,77.858826 367.734222,55.273842 
	C361.715851,55.273842 355.970367,55.273842 350.163879,55.273842 
	C350.163879,70.446182 350.163879,85.361458 350.102112,100.747475 
	C350.089508,101.064240 350.097260,101.380508 349.507812,101.857803 
	C349.315704,101.949265 349.123566,102.040726 348.942871,102.055809 
	C348.942871,102.055809 348.867554,102.038773 348.972076,101.434967 
M480.678253,41.595051 
	C480.678253,38.982521 480.678253,36.369987 480.678253,33.690174 
	C472.900299,33.690174 465.684052,33.690174 458.293182,33.690174 
	C458.293182,61.499477 458.286835,88.979118 458.320251,116.458710 
	C458.321381,117.396812 458.401947,118.679283 458.984741,119.219681 
	C465.957245,125.685028 473.031982,132.040176 480.912415,139.178146 
	C480.912415,123.642845 480.912415,109.528214 480.912415,95.158310 
	C491.072174,95.158310 500.969727,95.158310 511.324097,95.158310 
	C511.324097,109.604851 511.324097,123.813332 511.324097,139.113358 
	C518.262939,132.883591 524.299988,127.235405 530.611938,121.913239 
	C533.006348,119.894279 533.919006,117.876289 533.902527,114.739189 
	C533.768311,89.249146 533.828064,63.758076 533.828735,38.267319 
	C533.828735,36.688953 533.828796,35.110588 533.828796,33.694992 
	C525.936646,33.694992 518.858398,33.694992 511.378662,33.694992 
	C511.378662,46.790092 511.378662,59.561562 511.378662,72.597137 
	C501.053284,72.597137 491.141571,72.597137 480.679047,72.597137 
	C480.679047,62.459118 480.679047,52.515476 480.678253,41.595051 
M211.698212,121.809807 
	C221.581604,134.883835 234.621597,140.718140 250.896744,138.218887 
	C271.311981,135.083862 286.892487,114.651260 283.911194,90.983437 
	C280.247742,61.900730 246.436325,45.888512 222.299316,62.435474 
	C203.290894,75.466560 198.592422,100.472343 211.698212,121.809807 
M157.501190,104.497429 
	C160.750107,104.497429 163.999008,104.497429 167.587708,104.497429 
	C167.587708,116.182831 167.587708,127.083817 167.587708,138.850845 
	C173.026047,134.016068 178.012772,129.915741 182.548111,125.365471 
	C184.081955,123.826599 185.236221,121.159256 185.265396,118.990150 
	C185.487167,102.503830 185.386795,86.013184 185.386795,69.523880 
	C185.386795,65.226463 185.386795,60.929043 185.386795,56.507805 
	C179.204788,56.507805 173.510803,56.507805 167.254486,56.507805 
	C167.254486,66.788269 167.254486,76.675949 167.254486,86.898232 
	C157.887360,86.898232 149.081635,86.742523 140.286087,86.973625 
	C136.685989,87.068207 135.747604,85.791763 135.830750,82.369232 
	C136.039780,73.767288 135.899887,65.156860 135.899887,56.408661 
	C129.768051,56.408661 124.210884,56.408661 118.315598,56.408661 
	C118.315598,78.167397 118.308601,99.621269 118.344162,121.075058 
	C118.345428,121.839722 118.527931,122.861496 119.030296,123.328339 
	C124.407242,128.325119 129.865799,133.234085 136.169220,138.954117 
	C136.169220,126.710854 136.169220,115.783470 136.169220,104.497124 
	C143.215439,104.497124 149.858704,104.497124 157.501190,104.497429 
M386.350464,81.499863 
	C386.349640,93.831825 386.347290,106.163788 386.349060,118.495750 
	C386.349518,121.809212 396.768860,137.414444 399.774506,138.547256 
	C400.219208,138.714859 400.765320,138.633148 401.264526,138.633301 
	C413.411865,138.637024 425.559174,138.636215 438.030609,138.636215 
	C438.030609,132.778946 438.030609,127.195847 438.030609,121.038223 
	C431.217346,121.038223 424.594757,121.040039 417.972137,121.037842 
	C402.945496,121.032860 402.943481,121.031898 404.182159,106.009300 
	C404.207153,105.706223 404.441864,105.420433 404.899078,104.438789 
	C414.933990,104.438789 425.300110,104.438789 435.648499,104.438789 
	C435.648499,98.319710 435.648499,92.899185 435.648499,87.024269 
	C428.692902,87.024269 422.063263,87.021400 415.433594,87.024887 
	C403.255768,87.031288 403.252533,87.032593 404.239349,74.953934 
	C404.263000,74.664352 404.571320,74.398018 405.007263,73.709625 
	C410.216370,73.709625 415.689331,73.787498 421.157196,73.654236 
	C422.504181,73.621414 424.314758,73.319885 425.093018,72.427483 
	C429.519684,67.351524 433.697998,62.059029 438.106781,56.661469 
	C420.566681,56.661469 403.534241,56.661469 386.350494,56.661469 
	C386.350494,64.850746 386.350494,72.675308 386.350464,81.499863 
M715.297180,114.411591 
	C713.196960,125.566742 722.742249,130.562759 727.807495,137.913330 
	C728.159790,138.424591 729.273193,138.609055 730.033813,138.611694 
	C742.148987,138.653763 754.264343,138.641312 766.619873,138.641312 
	C766.619873,132.643112 766.619873,127.079239 766.619873,120.902771 
	C755.294250,120.902771 744.236206,120.902771 733.046570,120.902771 
	C733.046570,115.204613 733.046570,110.122223 733.046570,104.457878 
	C743.694397,104.457878 754.091919,104.457878 764.519043,104.457878 
	C764.519043,98.426430 764.519043,92.982635 764.519043,86.914444 
	C753.926514,86.914444 743.542969,86.914444 733.115723,86.914444 
	C733.115723,82.215416 733.115723,78.152679 733.115723,73.710579 
	C738.750305,73.710579 744.054565,73.774162 749.355347,73.667740 
	C750.753723,73.639664 752.678589,73.562469 753.445923,72.696388 
	C757.999329,67.557327 762.283325,62.179676 766.854919,56.643623 
	C749.245239,56.643623 732.360535,56.643623 715.297363,56.643623 
	C715.297363,75.805672 715.297363,94.621475 715.297180,114.411591 
M563.559753,63.093056 
	C562.672546,63.848042 561.654297,64.494415 560.922180,65.377899 
	C558.519226,68.277611 554.139526,69.494827 554.239136,74.528214 
	C554.473022,86.341942 554.037170,98.171967 554.399292,109.979240 
	C554.724609,120.586800 558.991333,129.304779 568.870544,134.362732 
	C578.308594,139.194809 588.347595,139.589447 598.460693,137.301346 
	C611.439453,134.364883 619.823486,125.718262 620.825256,112.610374 
	C621.824280,99.536629 621.360779,86.349701 621.461853,73.211815 
	C621.468811,72.309708 621.093079,71.119446 620.459106,70.542519 
	C615.135498,65.697746 609.709961,60.965019 603.630432,55.593647 
	C603.630432,59.965191 603.648376,63.256790 603.627319,66.548134 
	C603.540894,80.027321 603.632568,93.511467 603.275330,106.983620 
	C603.069702,114.739830 598.618347,119.410988 591.674194,120.242531 
	C578.239441,121.851326 571.879333,116.361977 571.779114,102.833160 
	C571.677979,89.184570 571.756042,75.534653 571.755554,61.885311 
	C571.755493,60.012276 571.755554,58.139236 571.755554,55.420605 
	C568.658997,58.316338 566.364746,60.461750 563.559753,63.093056 
M664.836914,57.037422 
	C661.194458,58.120422 657.309326,58.713459 653.953613,60.375366 
	C642.424622,66.084984 637.796814,78.968277 643.292908,89.820641 
	C647.910767,98.938866 655.862610,103.640785 665.618225,105.734421 
	C668.355713,106.321930 671.490784,106.582199 673.607483,108.133415 
	C676.004517,109.890099 678.843994,112.840225 679.011475,115.431679 
	C679.279785,119.582550 674.983643,120.686577 671.491577,121.133972 
	C664.727600,122.000542 658.642517,120.384720 653.899292,114.741722 
	C649.153748,117.861496 644.651001,120.821625 640.137329,123.788948 
	C648.956970,136.282166 663.276062,141.443054 677.626221,137.582199 
	C690.277161,134.178497 697.898010,123.166008 695.920654,111.146118 
	C694.208313,100.738174 683.986816,91.498978 672.053223,89.245789 
	C668.673462,88.607658 665.117981,87.768021 662.233093,86.037277 
	C660.287476,84.870079 658.139893,81.841812 658.354797,79.897095 
	C658.564270,78.001411 661.581543,75.086716 663.508850,74.969589 
	C668.470215,74.668098 673.510620,75.668808 678.519653,76.146423 
	C679.829285,76.271301 681.482971,76.955475 682.391235,76.408089 
	C686.575623,73.886230 690.552429,71.019753 694.797241,68.145790 
	C686.748718,59.197994 676.950500,56.251373 664.836914,57.037422 
M808.357361,95.499924 
	C808.358521,103.655945 808.321167,111.812317 808.397705,119.967636 
	C808.410889,121.373215 808.416199,123.296280 809.261414,124.092155 
	C814.498169,129.023163 819.973816,133.700378 826.245850,139.234497 
	C826.245850,116.631500 826.245850,95.377686 826.245850,73.654953 
	C833.863220,73.654953 841.101196,73.654953 848.406372,73.654953 
	C848.406372,67.615524 848.406372,62.054802 848.406372,56.394581 
	C827.568176,56.394581 807.016663,56.394581 786.328674,56.394581 
	C786.328674,62.253773 786.328674,67.803093 786.328674,73.762573 
	C793.733521,73.762573 800.818237,73.762573 808.357422,73.762573 
	C808.357422,80.945229 808.357422,87.722580 808.357361,95.499924 
z"/>
<path fill="#FEF9F2" opacity="1.000000" stroke="none" 
	d="
M98.897682,132.179916 
	C99.256882,132.504745 99.616081,132.829590 100.053963,133.385025 
	C100.088379,142.582397 100.061546,151.549301 99.994469,160.515884 
	C99.938576,167.987961 98.016869,169.976654 90.602196,169.987015 
	C66.189316,170.021118 41.776180,170.043747 17.363659,169.943970 
	C14.270401,169.931335 11.180224,169.165039 8.053932,168.355621 
	C8.019242,167.963318 8.115210,167.861801 8.574150,167.894196 
	C35.310093,168.001770 61.587067,168.094101 87.864113,168.143661 
	C98.231987,168.163223 98.150574,168.104202 98.248405,157.941864 
	C98.331093,149.353256 98.671394,140.767136 98.897682,132.179916 
z"/>
<path fill="#FEF9F2" opacity="1.000000" stroke="none" 
	d="
M6.889782,167.133408 
	C6.604083,166.979477 6.363324,166.773117 6.042046,166.311096 
	C5.916586,166.107864 5.981868,166.029510 6.241510,166.098724 
	C6.768870,166.389053 6.930614,166.670975 6.961987,167.043427 
	C6.937590,167.073151 6.889782,167.133408 6.889782,167.133408 
z"/>
<path fill="#FEF9F2" opacity="1.000000" stroke="none" 
	d="
M7.967492,168.010223 
	C7.619407,167.938828 7.367136,167.758759 7.024354,167.325195 
	C6.889782,167.133408 6.937590,167.073151 7.197487,167.116302 
	C7.779842,167.296921 7.999117,167.531036 8.115210,167.861801 
	C8.115210,167.861801 8.019242,167.963318 7.967492,168.010223 
z"/>
<path fill="#FEFEFE" opacity="1.000000" stroke="none" 
	d="
M578.107849,22.203941 
	C570.401367,29.783205 562.627380,36.975864 553.888062,45.061604 
	C553.888062,35.498474 553.944580,27.124130 553.839844,18.751806 
	C553.819153,17.096930 553.178040,15.449810 552.405701,13.637851 
	C553.457397,8.101553 557.084656,12.535025 558.470825,11.551207 
	C557.631653,17.303766 556.763977,22.885792 556.045898,28.486992 
	C555.904907,29.587168 555.957336,31.101858 556.598022,31.825876 
	C557.701233,33.072605 559.336731,33.848305 560.748779,34.821701 
	C561.497986,33.526295 562.498291,32.306881 562.920166,30.912457 
	C563.285950,29.703362 562.996277,28.295965 562.996277,26.657862 
	C567.200012,25.939930 571.903503,25.706465 570.503418,19.502451 
	C570.466980,19.340916 572.262878,18.310101 572.788086,18.559858 
	C574.637024,19.439209 576.304138,20.700781 578.107849,22.203941 
z"/>
<path fill="#FEF9F2" opacity="1.000000" stroke="none" 
	d="
M100.006958,35.404030 
	C100.009796,35.864002 99.556877,36.042297 99.047676,35.763027 
	C98.421448,28.178885 98.436005,20.867939 98.099182,13.573214 
	C98.009766,11.636621 96.840797,9.749874 95.849197,7.547746 
	C92.561371,7.081337 89.592140,6.762660 86.622246,6.756233 
	C61.076015,6.700949 35.529663,6.702049 9.983351,6.686319 
	C11.782092,5.818349 13.585340,4.188079 15.378887,4.198684 
	C36.561169,4.323925 57.742573,4.660962 78.922783,5.025553 
	C83.862862,5.110590 88.795624,5.657285 93.735260,5.721353 
	C98.885834,5.788158 100.218864,8.758309 100.004471,13.589718 
	C100.005577,20.981667 100.004852,27.962860 100.006958,35.404030 
z"/>
<path fill="#FEFEFE" opacity="1.000000" stroke="none" 
	d="
M694.636475,37.994568 
	C695.107788,39.459965 695.197144,40.919830 695.288147,42.407925 
	C689.213074,40.744797 683.419678,39.158779 677.312683,37.353477 
	C679.094238,33.752048 682.403870,34.076500 685.470520,34.793175 
	C688.482910,35.497162 691.333069,36.895447 694.636475,37.994568 
z"/>
<path fill="#FEFEFE" opacity="1.000000" stroke="none" 
	d="
M629.987854,51.598648 
	C627.443481,49.890842 624.904907,47.731720 622.233643,45.269974 
	C624.439270,44.366940 626.777649,43.766537 629.993652,42.940777 
	C629.993652,45.991760 629.993652,48.569550 629.987854,51.598648 
z"/>
<path fill="#FEFEFE" opacity="1.000000" stroke="none" 
	d="
M226.957520,37.728706 
	C224.622208,39.107773 222.210800,40.109337 219.433380,41.146675 
	C219.912781,35.886322 222.212082,34.758968 226.957520,37.728706 
z"/>
<path fill="#FEFEFE" opacity="1.000000" stroke="none" 
	d="
M642.933594,43.007812 
	C640.637756,45.164257 638.160034,47.029980 635.360352,48.999252 
	C635.346069,44.240215 638.254700,42.519447 642.933594,43.007812 
z"/>
<path fill="#FEFEFE" opacity="1.000000" stroke="none" 
	d="
M652.999023,38.583588 
	C651.560181,39.604610 650.120422,40.253525 648.339844,40.889347 
	C648.860229,38.863422 649.721497,36.850594 650.582764,34.837765 
	C651.162292,34.987812 651.741760,35.137856 652.321289,35.287903 
	C652.546936,36.262432 652.772522,37.236961 652.999023,38.583588 
z"/>
<path fill="#FEFEFE" opacity="1.000000" stroke="none" 
	d="
M267.995117,40.349579 
	C266.459045,40.134411 264.913666,39.555847 263.098206,38.825703 
	C263.713501,37.838684 264.598877,37.003242 265.484253,36.167809 
	C266.318115,37.440601 267.151947,38.713390 267.995117,40.349579 
z"/>
<path fill="#FEFEFE" opacity="1.000000" stroke="none" 
	d="
M205.627380,38.945320 
	C205.080048,38.064339 204.870056,37.125492 204.330292,36.026123 
	C205.029114,35.498363 206.057709,35.131126 207.086304,34.763889 
	C206.712433,36.138409 206.338577,37.512928 205.627380,38.945320 
z"/>
<path fill="#FEFEFE" opacity="1.000000" stroke="none" 
	d="
M598.981689,23.709431 
	C598.268555,23.565071 597.569214,23.042412 596.772583,22.270893 
	C596.971680,20.802351 597.268188,19.582668 597.564636,18.362986 
	C598.041565,18.388121 598.518555,18.413256 598.995483,18.438389 
	C598.995483,20.069302 598.995483,21.700214 598.981689,23.709431 
z"/>
<path fill="#FEFEFE" opacity="1.000000" stroke="none" 
	d="
M209.976257,46.104828 
	C208.802933,47.453381 207.204437,48.763451 205.111786,50.478504 
	C205.111786,48.669292 205.111786,47.693642 205.200317,46.357071 
	C206.709595,46.019550 208.130325,46.042946 209.976257,46.104828 
z"/>
<path fill="#FEFEFE" opacity="1.000000" stroke="none" 
	d="
M606.250488,30.173061 
	C605.247803,29.852631 604.631409,29.416096 603.918945,28.767822 
	C604.650757,27.945879 605.478577,27.335674 606.306396,26.725471 
	C606.416443,27.835970 606.526550,28.946465 606.250488,30.173061 
z"/>
<path fill="#FEFEFE" opacity="1.000000" stroke="none" 
	d="
M590.761414,11.046026 
	C589.503174,11.664955 587.826416,12.263706 586.018250,12.572015 
	C587.372192,11.862998 588.857544,11.444424 590.761414,11.046026 
z"/>
<path fill="#FEFEFE" opacity="1.000000" stroke="none" 
	d="
M103.008385,14.369465 
	C103.922745,14.409254 104.845497,14.818508 105.768242,15.227763 
	C105.494720,15.727633 105.221199,16.227503 104.947678,16.727375 
	C104.304039,16.064560 103.660400,15.401746 103.008385,14.369465 
z"/>
<path fill="#FEFEFE" opacity="1.000000" stroke="none" 
	d="
M282.655090,46.008316 
	C283.122498,47.134743 283.203064,48.269253 283.330109,50.058598 
	C281.981171,49.158756 281.106842,48.575500 280.027039,47.737129 
	C280.637115,46.993481 281.452698,46.504944 282.655090,46.008316 
z"/>
<path fill="#FEFEFE" opacity="1.000000" stroke="none" 
	d="
M271.898743,41.989204 
	C271.056702,42.065022 270.248047,41.765877 269.220276,41.226215 
	C269.612061,40.101246 270.222961,39.216789 271.392487,37.523556 
	C271.655579,39.517941 271.793823,40.566093 271.898743,41.989204 
z"/>
<path fill="#FEFEFE" opacity="1.000000" stroke="none" 
	d="
M110.493965,11.379601 
	C111.287903,10.983148 111.947533,10.881848 112.607162,10.780550 
	C112.538002,11.350334 112.468834,11.920117 112.399658,12.489901 
	C111.719658,12.218185 111.039658,11.946469 110.493965,11.379601 
z"/>
<path fill="#FEFEFE" opacity="1.000000" stroke="none" 
	d="
M666.941040,36.498749 
	C666.249390,36.874699 665.497498,36.935204 664.372437,36.929298 
	C664.959717,36.636356 665.920288,36.409828 666.941040,36.498749 
z"/>
<path fill="#FEFEFE" opacity="1.000000" stroke="none" 
	d="
M276.539246,44.481018 
	C276.156616,44.626884 276.152588,44.664532 276.110504,44.697773 
	C276.550201,43.920906 277.031982,43.110798 277.513794,42.300686 
	C277.948944,42.641354 278.384094,42.982021 278.819244,43.322685 
	C278.186768,43.660175 277.554321,43.997665 276.539246,44.481018 
z"/>
<path fill="#FEFEFE" opacity="1.000000" stroke="none" 
	d="
M613.839111,37.175568 
	C612.974976,36.901520 612.129944,36.243305 611.163269,35.285446 
	C611.980530,35.587673 612.919373,36.189541 613.839111,37.175568 
z"/>
<path fill="#FEFEFE" opacity="1.000000" stroke="none" 
	d="
M593.901489,19.216515 
	C593.233398,18.958998 592.578430,18.327698 591.972290,17.348190 
	C592.652344,17.614235 593.283508,18.228483 593.901489,19.216515 
z"/>
<path fill="#FEFEFE" opacity="1.000000" stroke="none" 
	d="
M437.774475,35.127533 
	C437.894196,35.403275 437.782867,35.807053 437.331085,36.174706 
	C437.174866,35.844246 437.359161,35.549911 437.774475,35.127533 
z"/>
<path fill="#DC8C49" opacity="1.000000" stroke="none" 
	d="
M9.675452,6.799402 
	C35.529663,6.702049 61.076015,6.700949 86.622246,6.756233 
	C89.592140,6.762660 92.561371,7.081337 95.781807,7.612926 
	C96.032707,7.970600 95.898987,8.101299 95.440643,8.068777 
	C81.569405,8.025980 68.155830,7.949059 54.744434,8.085846 
	C52.975044,8.103892 51.216782,9.212681 49.453365,9.816305 
	C49.608128,10.268415 49.762886,10.720527 49.917645,11.172638 
	C60.127422,8.334392 60.973396,8.778432 60.606060,16.988918 
	C58.649704,16.245169 57.080166,15.498392 55.010910,14.513855 
	C55.237736,19.376188 58.790394,17.547951 61.468925,17.989704 
	C70.206177,17.995632 78.477097,17.900772 86.741173,18.095787 
	C88.123940,18.128420 89.477043,19.418732 90.406738,20.045670 
	C65.820602,19.731359 41.669556,19.610231 17.524315,19.170353 
	C12.887114,19.085873 12.060636,20.803314 12.076573,24.980576 
	C12.223423,63.470703 12.168532,101.961586 12.188490,140.452255 
	C12.189398,142.202072 12.344491,143.951813 12.422466,145.590134 
	C13.546875,145.779205 14.037364,145.933426 14.527996,145.933868 
	C38.521652,145.955780 62.515343,145.979004 86.508896,145.932739 
	C87.739342,145.930374 88.968605,145.319504 90.545227,145.075134 
	C91.386917,147.856689 91.387428,147.965240 88.398155,147.979340 
	C77.770920,148.029434 67.143311,147.998901 56.323338,147.998901 
	C56.183926,149.755783 56.095001,150.876419 55.663197,151.875122 
	C51.362762,149.101135 47.237915,149.408096 44.782627,153.191605 
	C43.411770,155.304047 43.199654,159.466995 44.383953,161.678543 
	C47.161499,166.865326 53.235706,166.266769 57.968010,161.375916 
	C57.717842,164.567047 58.412659,166.121643 61.735382,166.065445 
	C71.879532,165.893875 82.031532,165.859497 92.173576,166.083878 
	C95.333702,166.153778 96.642799,164.512207 96.716492,162.101151 
	C96.891083,156.389008 96.510490,150.662415 96.499298,144.941376 
	C96.487793,139.060699 96.759125,133.178726 96.708572,127.299019 
	C96.625092,117.589241 96.381599,107.880844 96.207474,98.171837 
	C96.165138,95.811119 95.213028,94.782028 92.888527,95.505920 
	C94.815590,93.058205 96.674553,90.943825 98.533516,88.829445 
	C98.661446,102.957542 98.789375,117.085648 98.907494,131.696838 
	C98.671394,140.767136 98.331093,149.353256 98.248405,157.941864 
	C98.150574,168.104202 98.231987,168.163223 87.864113,168.143661 
	C61.587067,168.094101 35.310093,168.001770 8.574150,167.894196 
	C7.999117,167.531036 7.779842,167.296921 7.221883,167.086578 
	C6.930614,166.670975 6.768870,166.389053 6.276996,166.062103 
	C5.920835,153.496078 5.684683,141.035934 5.676327,128.575638 
	C5.651139,91.017693 5.711726,53.459679 5.751335,15.901708 
	C5.753436,13.909665 5.870254,11.917744 5.940567,9.455929 
	C6.218239,8.763102 6.489012,8.540112 7.098226,8.019870 
	C7.736584,7.568866 7.945901,7.334261 8.064618,7.018804 
	C8.498930,6.983364 8.933242,6.947925 9.675452,6.799402 
M16.286642,17.362297 
	C24.320879,17.362297 32.355118,17.362297 40.371735,17.362297 
	C42.145641,15.304049 39.102936,10.592894 44.472736,10.214696 
	C44.857063,12.756173 45.213810,15.115273 45.570557,17.474371 
	C48.076206,9.516501 47.001041,8.054705 39.368755,8.009695 
	C33.228031,7.973481 27.086847,8.020396 20.946033,7.993168 
	C18.860392,7.983920 16.764948,7.847117 16.343113,10.648778 
	C13.770308,9.463717 11.314353,9.865594 11.298586,12.868568 
	C11.291893,14.143553 14.126240,15.433454 16.286642,17.362297 
M52.013031,17.757898 
	C51.882881,16.302629 51.752731,14.847362 51.622585,13.392094 
	C50.927582,13.591587 50.232582,13.791080 49.537582,13.990573 
	C50.135975,15.301689 50.734371,16.612804 52.013031,17.757898 
z"/>
<path fill="#FEF9F2" opacity="1.000000" stroke="none" 
	d="
M7.838533,7.087347 
	C7.945901,7.334261 7.736584,7.568866 7.202661,7.775275 
	C7.109441,7.533216 7.324040,7.309201 7.838533,7.087347 
z"/>
<path fill="#F8F3EC" opacity="1.000000" stroke="none" 
	d="
M480.678650,42.083443 
	C480.679047,52.515476 480.679047,62.459118 480.679047,72.597137 
	C491.141571,72.597137 501.053284,72.597137 511.378662,72.597137 
	C511.378662,59.561562 511.378662,46.790092 511.378662,33.694992 
	C518.858398,33.694992 525.936646,33.694992 533.828796,33.694992 
	C533.828796,35.110588 533.828735,36.688953 533.828735,38.267319 
	C533.828064,63.758076 533.768311,89.249146 533.902527,114.739189 
	C533.919006,117.876289 533.006348,119.894279 530.611938,121.913239 
	C524.299988,127.235405 518.262939,132.883591 511.324097,139.113358 
	C511.324097,123.813332 511.324097,109.604851 511.324097,95.158310 
	C500.969727,95.158310 491.072174,95.158310 480.912415,95.158310 
	C480.912415,109.528214 480.912415,123.642845 480.912415,139.178146 
	C473.031982,132.040176 465.957245,125.685028 458.984741,119.219681 
	C458.401947,118.679283 458.321381,117.396812 458.320251,116.458710 
	C458.286835,88.979118 458.293182,61.499477 458.293182,33.690174 
	C465.684052,33.690174 472.900299,33.690174 480.678253,33.690174 
	C480.678253,36.369987 480.678253,38.982521 480.678650,42.083443 
z"/>
<path fill="#FDFAF6" opacity="1.000000" stroke="none" 
	d="
M98.548309,88.371109 
	C96.674553,90.943825 94.815590,93.058205 92.913094,95.533325 
	C92.869560,95.894066 92.902496,95.830429 92.645683,95.921219 
	C92.220932,96.324219 92.053001,96.636421 91.924805,96.956879 
	C91.964546,96.965134 91.946106,96.886078 91.687988,96.966263 
	C91.246750,97.344986 91.063622,97.643532 90.921158,97.950798 
	C90.961830,97.959526 90.940559,97.879097 90.678360,97.954567 
	C90.233116,98.331612 90.050064,98.633186 89.916107,98.940117 
	C89.965210,98.945465 89.898987,98.872185 89.598373,98.986938 
	C88.370262,100.005234 87.442749,100.908768 86.359268,101.823189 
	C86.203300,101.834076 85.991318,102.063950 85.736572,102.102554 
	C85.285858,102.409981 85.089890,102.678810 84.932587,102.959183 
	C84.971260,102.970711 84.952995,102.892105 84.682693,102.947052 
	C84.199074,103.279556 83.985756,103.557106 83.814529,103.805023 
	C83.856613,103.775383 83.768730,103.721771 83.449982,103.776535 
	C82.057213,104.530975 80.983200,105.230659 79.944527,105.952545 
	C79.979866,105.974747 79.966446,105.892357 79.656570,105.895531 
	C78.850403,106.222115 78.354118,106.545532 77.899094,106.888931 
	C77.940353,106.908920 77.938721,106.817245 77.592766,106.824326 
	C76.652863,107.159065 76.058914,107.486740 75.212677,107.784271 
	C74.644440,107.870743 74.328491,107.987350 73.621056,108.066254 
	C71.175644,108.445381 69.121719,108.862206 66.665375,109.210831 
	C65.181648,109.205002 64.100334,109.267372 62.644638,109.233025 
	C61.506802,109.206955 60.743351,109.277611 59.659737,109.258072 
	C58.898556,109.178909 58.457535,109.189949 57.628578,109.089020 
	C54.696613,108.580475 52.152584,108.183907 49.608559,107.787338 
	C49.465065,108.182091 49.321571,108.576836 49.178078,108.971588 
	C51.041313,110.394951 52.904549,111.818321 54.789688,113.245346 
	C54.811596,113.249008 54.793430,113.208626 54.912338,113.505989 
	C56.335056,114.895706 57.638870,115.988068 58.968178,117.048485 
	C58.993668,117.016541 58.915108,117.039116 58.998466,117.292130 
	C59.380169,117.715958 59.678516,117.886765 59.985516,118.028152 
	C59.994167,117.998741 59.946075,118.036812 60.084877,118.329910 
	C61.419849,119.492867 62.616024,120.362732 63.848110,121.199776 
	C63.884026,121.166946 63.793224,121.131973 63.872993,121.397675 
	C64.265846,121.839279 64.578941,122.015175 64.901443,122.141533 
	C64.910851,122.091995 64.812141,122.112625 64.897568,122.375298 
	C65.298615,122.807045 65.614227,122.976120 65.935486,123.103081 
	C65.941132,123.060966 65.857445,123.075775 65.947174,123.330109 
	C66.344345,123.753189 66.651802,123.921944 66.971298,124.053780 
	C66.983337,124.016853 66.910393,124.043541 66.992455,124.296341 
	C67.376381,124.714325 67.678238,124.879501 67.989571,125.021469 
	C67.999039,124.998253 67.954697,125.021667 68.044540,125.263542 
	C68.422066,125.676399 68.709740,125.847382 69.098511,126.258957 
	C69.501251,126.658218 69.802879,126.816879 70.174210,127.198181 
	C70.432045,127.712120 70.698990,127.844322 71.048584,127.882469 
	C71.052422,127.947495 71.179413,127.918427 71.293922,128.190430 
	C71.904716,128.772446 72.401001,129.082443 72.960068,129.573273 
	C73.182396,129.980011 73.400352,130.097809 73.812515,130.360138 
	C74.281288,130.784225 74.614258,130.955704 74.949821,131.086441 
	C74.952408,131.045715 74.872452,131.062149 74.954666,131.321838 
	C75.340347,131.760071 75.643806,131.938629 75.955437,132.077057 
	C75.963608,132.036911 75.884178,132.056992 75.979599,132.303802 
	C76.377357,132.716446 76.679695,132.882263 76.991333,133.023727 
	C77.000633,132.999390 76.952477,133.019257 77.033936,133.268738 
	C77.408836,133.687714 77.702293,133.857208 78.100166,134.262238 
	C78.502678,134.651749 78.800774,134.805725 79.216156,135.228180 
	C79.842323,135.751053 80.351196,136.005447 80.878326,136.200195 
	C80.896591,136.140549 80.772812,136.156036 80.855919,136.422028 
	C81.259399,136.853119 81.579773,137.018219 81.909073,137.135284 
	C81.917992,137.087250 81.822166,137.106308 81.907822,137.367172 
	C82.305885,137.799591 82.618301,137.971161 82.936661,138.100891 
	C82.942612,138.059067 82.859322,138.073181 82.943588,138.331635 
	C83.337807,138.759338 83.647758,138.928619 83.967789,139.059967 
	C83.977867,139.022018 83.902962,139.045578 83.991394,139.294907 
	C84.379158,139.713882 84.678497,139.883545 84.988602,140.026901 
	C84.999367,140.000610 84.947418,140.023605 85.028687,140.271301 
	C85.404022,140.683258 85.698090,140.847519 85.996078,141.005890 
	C86.000000,141.000000 85.988190,141.008301 86.078293,141.240326 
	C86.379333,141.760986 86.663345,141.914154 87.011749,141.963272 
	C87.003075,141.994736 87.062111,141.966904 87.171616,142.251755 
	C88.202003,143.302582 89.122887,144.068573 90.043251,144.912384 
	C90.042732,144.990234 90.198418,144.991943 90.198418,144.991943 
	C88.968605,145.319504 87.739342,145.930374 86.508896,145.932739 
	C62.515343,145.979004 38.521652,145.955780 14.527996,145.933868 
	C14.037364,145.933426 13.546875,145.779205 12.422466,145.590134 
	C12.344491,143.951813 12.189398,142.202072 12.188490,140.452255 
	C12.168532,101.961586 12.223423,63.470703 12.076573,24.980576 
	C12.060636,20.803314 12.887114,19.085873 17.524315,19.170353 
	C41.669556,19.610231 65.820602,19.731359 90.437309,20.015202 
	C90.904991,20.066965 90.823631,20.045084 90.668289,20.303120 
	C89.618538,21.655699 88.724121,22.750240 87.909485,23.871923 
	C87.989258,23.899063 87.851395,23.802122 87.557014,23.859787 
	C86.724808,24.452358 86.186974,24.987265 85.605835,25.547142 
	C85.562523,25.572111 85.463165,25.583296 85.162186,25.622208 
	C83.850586,26.253546 82.839981,26.845974 81.459007,27.655512 
	C84.312073,28.611382 86.625908,29.386593 89.056778,30.379711 
	C89.423325,30.839954 89.721970,30.964394 90.216797,31.229900 
	C90.874512,31.787657 91.385162,32.086449 91.957756,32.565315 
	C92.177216,32.969261 92.392540,33.090225 92.783310,33.373055 
	C93.215485,33.837685 93.530037,34.037540 93.820038,34.267113 
	C93.795494,34.296829 93.778061,34.371922 93.853615,34.708580 
	C95.461342,37.769234 96.993515,40.493233 98.525681,43.217232 
	C98.538147,58.115742 98.550621,73.014252 98.548309,88.371109 
M23.896196,43.531952 
	C23.896084,62.698387 24.839024,81.927391 23.573038,101.009842 
	C22.690350,114.314758 26.087416,124.092896 37.296345,131.270523 
	C40.198288,133.128784 42.573261,135.809998 46.162136,138.968491 
	C46.162136,125.910347 46.162136,114.343941 46.162136,102.989838 
	C52.605892,102.616531 58.608971,102.486504 64.563980,101.882515 
	C81.706314,100.143822 92.429848,90.462334 94.584770,73.710342 
	C97.103783,54.127869 91.062057,39.136917 70.304359,35.689949 
	C55.224670,33.185852 39.581131,34.077293 23.896788,33.442936 
	C23.896788,37.252476 23.896788,39.897190 23.896196,43.531952 
z"/>
<path fill="#F8F3EC" opacity="1.000000" stroke="none" 
	d="
M211.474152,121.525139 
	C198.592422,100.472343 203.290894,75.466560 222.299316,62.435474 
	C246.436325,45.888512 280.247742,61.900730 283.911194,90.983437 
	C286.892487,114.651260 271.311981,135.083862 250.896744,138.218887 
	C234.621597,140.718140 221.581604,134.883835 211.474152,121.525139 
M263.381592,84.350899 
	C254.250793,70.702629 237.495453,69.543022 227.203613,81.847084 
	C220.464859,89.903374 219.851028,101.463577 225.680405,110.533325 
	C231.308289,119.289558 240.847000,123.017670 250.608841,120.276321 
	C264.775909,116.297867 270.998962,99.691917 263.381592,84.350899 
z"/>
<path fill="#FAF5EF" opacity="1.000000" stroke="none" 
	d="
M350.125366,101.696281 
	C350.097260,101.380508 350.089508,101.064240 350.400085,100.161591 
	C350.698059,85.202080 350.698059,70.828468 350.698059,56.504158 
	C356.723358,56.504158 361.617798,56.504158 366.980408,56.504158 
	C366.980408,78.986389 366.980408,101.083221 366.980408,123.180061 
	C361.504944,128.193512 356.029449,133.206970 350.165466,138.576157 
	C340.566956,122.616638 331.303223,107.213799 322.039490,91.810959 
	C321.736267,91.900383 321.433044,91.989815 321.129822,92.079239 
	C321.129822,107.246078 321.129822,122.412910 321.129822,138.901321 
	C314.782013,133.143204 309.294800,128.235504 303.929993,123.197449 
	C303.358795,122.661049 303.341309,121.362556 303.339935,120.417206 
	C303.308960,98.953339 303.316101,77.489418 303.316101,55.337791 
	C308.696106,55.337791 313.959747,55.151749 319.191376,55.478302 
	C320.388275,55.553017 321.800354,57.197147 322.562439,58.453239 
	C330.993622,72.349426 339.316071,86.311600 347.780823,100.886826 
	C348.218353,101.691414 348.542938,101.865097 348.867554,102.038773 
	C348.867554,102.038773 348.942871,102.055809 348.807678,102.438225 
	C349.234619,103.445992 349.796722,104.071342 350.358826,104.696701 
	C350.281006,103.696564 350.203186,102.696419 350.125366,101.696281 
z"/>
<path fill="#F9F4EE" opacity="1.000000" stroke="none" 
	d="
M157.001587,104.497276 
	C149.858704,104.497124 143.215439,104.497124 136.169220,104.497124 
	C136.169220,115.783470 136.169220,126.710854 136.169220,138.954117 
	C129.865799,133.234085 124.407242,128.325119 119.030296,123.328339 
	C118.527931,122.861496 118.345428,121.839722 118.344162,121.075058 
	C118.308601,99.621269 118.315598,78.167397 118.315598,56.408661 
	C124.210884,56.408661 129.768051,56.408661 135.899887,56.408661 
	C135.899887,65.156860 136.039780,73.767288 135.830750,82.369232 
	C135.747604,85.791763 136.685989,87.068207 140.286087,86.973625 
	C149.081635,86.742523 157.887360,86.898232 167.254486,86.898232 
	C167.254486,76.675949 167.254486,66.788269 167.254486,56.507805 
	C173.510803,56.507805 179.204788,56.507805 185.386795,56.507805 
	C185.386795,60.929043 185.386795,65.226463 185.386795,69.523880 
	C185.386795,86.013184 185.487167,102.503830 185.265396,118.990150 
	C185.236221,121.159256 184.081955,123.826599 182.548111,125.365471 
	C178.012772,129.915741 173.026047,134.016068 167.587708,138.850845 
	C167.587708,127.083817 167.587708,116.182831 167.587708,104.497429 
	C163.999008,104.497429 160.750107,104.497429 157.001587,104.497276 
z"/>
<path fill="#F7F1EA" opacity="1.000000" stroke="none" 
	d="
M386.350464,80.999863 
	C386.350494,72.675308 386.350494,64.850746 386.350494,56.661469 
	C403.534241,56.661469 420.566681,56.661469 438.106781,56.661469 
	C433.697998,62.059029 429.519684,67.351524 425.093018,72.427483 
	C424.314758,73.319885 422.504181,73.621414 421.157196,73.654236 
	C415.689331,73.787498 410.216370,73.709625 405.007263,73.709625 
	C404.571320,74.398018 404.263000,74.664352 404.239349,74.953934 
	C403.252533,87.032593 403.255768,87.031288 415.433594,87.024887 
	C422.063263,87.021400 428.692902,87.024269 435.648499,87.024269 
	C435.648499,92.899185 435.648499,98.319710 435.648499,104.438789 
	C425.300110,104.438789 414.933990,104.438789 404.899078,104.438789 
	C404.441864,105.420433 404.207153,105.706223 404.182159,106.009300 
	C402.943481,121.031898 402.945496,121.032860 417.972137,121.037842 
	C424.594757,121.040039 431.217346,121.038223 438.030609,121.038223 
	C438.030609,127.195847 438.030609,132.778946 438.030609,138.636215 
	C425.559174,138.636215 413.411865,138.637024 401.264526,138.633301 
	C400.765320,138.633148 400.219208,138.714859 399.774506,138.547256 
	C396.768860,137.414444 386.349518,121.809212 386.349060,118.495750 
	C386.347290,106.163788 386.349640,93.831825 386.350464,80.999863 
z"/>
<path fill="#F7F1E9" opacity="1.000000" stroke="none" 
	d="
M715.297241,113.924438 
	C715.297363,94.621475 715.297363,75.805672 715.297363,56.643623 
	C732.360535,56.643623 749.245239,56.643623 766.854919,56.643623 
	C762.283325,62.179676 757.999329,67.557327 753.445923,72.696388 
	C752.678589,73.562469 750.753723,73.639664 749.355347,73.667740 
	C744.054565,73.774162 738.750305,73.710579 733.115723,73.710579 
	C733.115723,78.152679 733.115723,82.215416 733.115723,86.914444 
	C743.542969,86.914444 753.926514,86.914444 764.519043,86.914444 
	C764.519043,92.982635 764.519043,98.426430 764.519043,104.457878 
	C754.091919,104.457878 743.694397,104.457878 733.046570,104.457878 
	C733.046570,110.122223 733.046570,115.204613 733.046570,120.902771 
	C744.236206,120.902771 755.294250,120.902771 766.619873,120.902771 
	C766.619873,127.079239 766.619873,132.643112 766.619873,138.641312 
	C754.264343,138.641312 742.148987,138.653763 730.033813,138.611694 
	C729.273193,138.609055 728.159790,138.424591 727.807495,137.913330 
	C722.742249,130.562759 713.196960,125.566742 715.297241,113.924438 
z"/>
<path fill="#F8F2EC" opacity="1.000000" stroke="none" 
	d="
M563.815186,62.850113 
	C566.364746,60.461750 568.658997,58.316338 571.755554,55.420605 
	C571.755554,58.139236 571.755493,60.012276 571.755554,61.885311 
	C571.756042,75.534653 571.677979,89.184570 571.779114,102.833160 
	C571.879333,116.361977 578.239441,121.851326 591.674194,120.242531 
	C598.618347,119.410988 603.069702,114.739830 603.275330,106.983620 
	C603.632568,93.511467 603.540894,80.027321 603.627319,66.548134 
	C603.648376,63.256790 603.630432,59.965191 603.630432,55.593647 
	C609.709961,60.965019 615.135498,65.697746 620.459106,70.542519 
	C621.093079,71.119446 621.468811,72.309708 621.461853,73.211815 
	C621.360779,86.349701 621.824280,99.536629 620.825256,112.610374 
	C619.823486,125.718262 611.439453,134.364883 598.460693,137.301346 
	C588.347595,139.589447 578.308594,139.194809 568.870544,134.362732 
	C558.991333,129.304779 554.724609,120.586800 554.399292,109.979240 
	C554.037170,98.171967 554.473022,86.341942 554.239136,74.528214 
	C554.139526,69.494827 558.519226,68.277611 560.922180,65.377899 
	C561.654297,64.494415 562.672546,63.848042 563.815186,62.850113 
z"/>
<path fill="#F7F1E9" opacity="1.000000" stroke="none" 
	d="
M665.296448,56.992783 
	C676.950500,56.251373 686.748718,59.197994 694.797241,68.145790 
	C690.552429,71.019753 686.575623,73.886230 682.391235,76.408089 
	C681.482971,76.955475 679.829285,76.271301 678.519653,76.146423 
	C673.510620,75.668808 668.470215,74.668098 663.508850,74.969589 
	C661.581543,75.086716 658.564270,78.001411 658.354797,79.897095 
	C658.139893,81.841812 660.287476,84.870079 662.233093,86.037277 
	C665.117981,87.768021 668.673462,88.607658 672.053223,89.245789 
	C683.986816,91.498978 694.208313,100.738174 695.920654,111.146118 
	C697.898010,123.166008 690.277161,134.178497 677.626221,137.582199 
	C663.276062,141.443054 648.956970,136.282166 640.137329,123.788948 
	C644.651001,120.821625 649.153748,117.861496 653.899292,114.741722 
	C658.642517,120.384720 664.727600,122.000542 671.491577,121.133972 
	C674.983643,120.686577 679.279785,119.582550 679.011475,115.431679 
	C678.843994,112.840225 676.004517,109.890099 673.607483,108.133415 
	C671.490784,106.582199 668.355713,106.321930 665.618225,105.734421 
	C655.862610,103.640785 647.910767,98.938866 643.292908,89.820641 
	C637.796814,78.968277 642.424622,66.084984 653.953613,60.375366 
	C657.309326,58.713459 661.194458,58.120422 665.296448,56.992783 
z"/>
<path fill="#F7F1EA" opacity="1.000000" stroke="none" 
	d="
M808.357422,94.999924 
	C808.357422,87.722580 808.357422,80.945229 808.357422,73.762573 
	C800.818237,73.762573 793.733521,73.762573 786.328674,73.762573 
	C786.328674,67.803093 786.328674,62.253773 786.328674,56.394581 
	C807.016663,56.394581 827.568176,56.394581 848.406372,56.394581 
	C848.406372,62.054802 848.406372,67.615524 848.406372,73.654953 
	C841.101196,73.654953 833.863220,73.654953 826.245850,73.654953 
	C826.245850,95.377686 826.245850,116.631500 826.245850,139.234497 
	C819.973816,133.700378 814.498169,129.023163 809.261414,124.092155 
	C808.416199,123.296280 808.410889,121.373215 808.397705,119.967636 
	C808.321167,111.812317 808.358521,103.655945 808.357422,94.999924 
z"/>
<path fill="#C29B7A" opacity="1.000000" stroke="none" 
	d="
M367.357300,122.936447 
	C366.980408,101.083221 366.980408,78.986389 366.980408,56.504158 
	C361.617798,56.504158 356.723358,56.504158 350.698059,56.504158 
	C350.698059,70.828468 350.698059,85.202080 350.430969,99.926208 
	C350.163879,85.361458 350.163879,70.446182 350.163879,55.273842 
	C355.970367,55.273842 361.715851,55.273842 367.734222,55.273842 
	C367.734222,77.858826 367.734222,100.275833 367.357300,122.936447 
z"/>
<path fill="#DC8C49" opacity="1.000000" stroke="none" 
	d="
M98.683708,42.796333 
	C96.993515,40.493233 95.461342,37.769234 94.210571,34.555080 
	C95.221680,32.694805 96.582619,31.321491 96.575691,29.955111 
	C96.538780,22.669552 96.159691,15.385725 95.898987,8.101299 
	C95.898987,8.101299 96.032707,7.970600 96.100098,7.905420 
	C96.840797,9.749874 98.009766,11.636621 98.099182,13.573214 
	C98.436005,20.867939 98.421448,28.178885 98.808510,35.808098 
	C98.999611,38.213436 98.920677,40.294434 98.683708,42.796333 
z"/>
<path fill="#C29B7A" opacity="1.000000" stroke="none" 
	d="
M349.816589,101.777039 
	C350.203186,102.696419 350.281006,103.696564 350.358826,104.696701 
	C349.796722,104.071342 349.234619,103.445992 348.801971,102.476410 
	C349.123566,102.040726 349.315704,101.949265 349.816589,101.777039 
z"/>
<path fill="#C29B7A" opacity="1.000000" stroke="none" 
	d="
M348.919800,101.736870 
	C348.542938,101.865097 348.218353,101.691414 347.907135,101.202759 
	C348.271057,101.070183 348.621552,101.252579 348.919800,101.736870 
z"/>
<path fill="#E5883B" opacity="1.000000" stroke="none" 
	d="
M74.012550,108.103958 
	C74.328491,107.987350 74.644440,107.870743 75.584137,107.821976 
	C76.784828,107.532303 77.361771,107.174774 77.938721,106.817245 
	C77.938721,106.817245 77.940353,106.908920 78.220680,106.916779 
	C78.989487,106.580551 79.477966,106.236450 79.966446,105.892349 
	C79.966446,105.892357 79.979866,105.974747 80.339310,105.979980 
	C81.722076,105.230728 82.745399,104.476250 83.768723,103.721771 
	C83.768730,103.721771 83.856613,103.775383 84.086975,103.760284 
	C84.529221,103.460823 84.741112,103.176460 84.952995,102.892105 
	C84.952995,102.892105 84.971260,102.970711 85.170990,102.890106 
	C85.675247,102.642265 85.882111,102.393753 85.991318,102.063950 
	C85.991318,102.063950 86.203300,101.834076 86.775650,101.871475 
	C88.198326,100.896637 89.048660,99.884415 89.898987,98.872185 
	C89.898987,98.872185 89.965210,98.945465 90.171463,98.854012 
	C90.565323,98.468071 90.752945,98.173584 90.940559,97.879097 
	C90.940559,97.879097 90.961830,97.959526 91.173805,97.862259 
	C91.572556,97.472023 91.759331,97.179047 91.946106,96.886078 
	C91.946106,96.886078 91.964546,96.965134 92.178650,96.859833 
	C92.562675,96.446495 92.732590,96.138458 92.902496,95.830429 
	C92.902496,95.830429 92.869560,95.894066 92.844994,95.866653 
	C95.213028,94.782028 96.165138,95.811119 96.207474,98.171837 
	C96.381599,107.880844 96.625092,117.589241 96.708572,127.299019 
	C96.759125,133.178726 96.487793,139.060699 96.499298,144.941376 
	C96.510490,150.662415 96.891083,156.389008 96.716492,162.101151 
	C96.642799,164.512207 95.333702,166.153778 92.173576,166.083878 
	C82.031532,165.859497 71.879532,165.893875 61.735382,166.065445 
	C58.412659,166.121643 57.717842,164.567047 57.981594,161.395630 
	C57.971622,160.979828 57.928391,160.976898 58.263042,160.824463 
	C60.607559,158.162918 61.101704,155.860886 57.475441,153.932785 
	C56.836842,153.181870 56.421459,152.589462 56.006077,151.997040 
	C56.095001,150.876419 56.183926,149.755783 56.323338,147.998901 
	C67.143311,147.998901 77.770920,148.029434 88.398155,147.979340 
	C91.387428,147.965240 91.386917,147.856689 90.545227,145.075134 
	C90.198418,144.991943 90.042732,144.990234 90.026436,144.558319 
	C89.027466,143.406555 88.044785,142.686737 87.062111,141.966904 
	C87.062111,141.966904 87.003075,141.994736 86.898834,141.750641 
	C86.586334,141.242493 86.317535,141.076416 85.988190,141.008301 
	C85.988190,141.008301 86.000000,141.000000 85.891693,140.776428 
	C85.504730,140.376434 85.226074,140.200012 84.947418,140.023605 
	C84.947418,140.023605 84.999367,140.000610 84.886719,139.787247 
	C84.483696,139.397781 84.193329,139.221680 83.902962,139.045578 
	C83.902962,139.045578 83.977867,139.022018 83.869461,138.810669 
	C83.460472,138.423950 83.159897,138.248566 82.859322,138.073181 
	C82.859322,138.073181 82.942612,138.059067 82.847061,137.841095 
	C82.441734,137.450836 82.131950,137.278564 81.822166,137.106308 
	C81.822166,137.106308 81.917992,137.087250 81.826103,136.866882 
	C81.413750,136.483002 81.093285,136.319519 80.772812,136.156036 
	C80.772812,136.156036 80.896591,136.140549 80.797958,135.904175 
	C80.165840,135.431763 79.632355,135.195724 79.098862,134.959686 
	C78.800774,134.805725 78.502678,134.651749 77.996231,134.030472 
	C77.509399,133.381866 77.230934,133.200562 76.952477,133.019257 
	C76.952477,133.019257 77.000633,132.999390 76.885040,132.784775 
	C76.474350,132.399109 76.179268,132.228043 75.884178,132.056992 
	C75.884178,132.056992 75.963608,132.036911 75.862381,131.825104 
	C75.464928,131.429565 75.168686,131.245865 74.872452,131.062149 
	C74.872452,131.062149 74.952408,131.045715 74.830505,130.818573 
	C74.364639,130.430130 74.020683,130.268814 73.676727,130.107513 
	C73.400352,130.097809 73.182396,129.980011 72.888252,129.266724 
	C72.228905,128.492371 71.704155,128.205399 71.179413,127.918427 
	C71.179413,127.918427 71.052422,127.947495 70.934753,127.698715 
	C70.626717,127.220993 70.389191,127.062859 70.104507,126.975540 
	C69.802879,126.816879 69.501251,126.658218 68.995270,126.027901 
	C68.512177,125.378059 68.233437,125.199867 67.954697,125.021667 
	C67.954697,125.021667 67.999039,124.998253 67.886734,124.784271 
	C67.486420,124.394699 67.198402,124.219124 66.910393,124.043549 
	C66.910393,124.043541 66.983337,124.016853 66.872467,123.805336 
	C66.460213,123.421135 66.158829,123.248459 65.857445,123.075775 
	C65.857445,123.075775 65.941132,123.060966 65.843918,122.843292 
	C65.435188,122.454613 65.123665,122.283615 64.812141,122.112625 
	C64.812141,122.112625 64.910851,122.091995 64.824600,121.871689 
	C64.423302,121.478249 64.108261,121.305107 63.793224,121.131973 
	C63.793224,121.131973 63.884026,121.166946 63.880623,120.820442 
	C62.566837,119.661560 61.256454,118.849190 59.946075,118.036819 
	C59.946075,118.036812 59.994167,117.998741 59.884773,117.788956 
	C59.488621,117.399147 59.201862,117.219131 58.915108,117.039116 
	C58.915108,117.039116 58.993668,117.016541 58.984299,116.659683 
	C58.909740,113.475899 57.295731,112.742043 54.793430,113.208626 
	C54.793430,113.208626 54.811596,113.249008 54.897297,112.898758 
	C55.994171,111.432671 57.005344,110.316833 58.016518,109.200989 
	C58.457535,109.189949 58.898556,109.178909 59.731186,109.552307 
	C61.088211,109.734413 62.053619,109.532082 63.019028,109.329750 
	C64.100334,109.267372 65.181648,109.205002 66.957489,109.435722 
	C69.772202,109.187195 71.892380,108.645584 74.012550,108.103958 
z"/>
<path fill="#E5883B" opacity="1.000000" stroke="none" 
	d="
M95.440643,8.068777 
	C96.159691,15.385725 96.538780,22.669552 96.575691,29.955111 
	C96.582619,31.321491 95.221680,32.694805 94.135017,34.218422 
	C93.778061,34.371922 93.795494,34.296829 93.741516,33.976257 
	C93.346916,33.473213 93.006294,33.290749 92.665680,33.108280 
	C92.392540,33.090225 92.177216,32.969261 91.875977,32.252499 
	C91.178085,31.496716 90.623917,31.233824 90.069740,30.970932 
	C89.721970,30.964394 89.423325,30.839954 89.029587,30.009974 
	C87.744637,28.142651 86.603905,26.862972 85.463165,25.583296 
	C85.463165,25.583296 85.562523,25.572111 85.959106,25.672882 
	C86.854263,25.116478 87.352829,24.459303 87.851395,23.802124 
	C87.851395,23.802122 87.989258,23.899063 88.291542,23.920254 
	C91.026070,23.609221 93.178207,23.116705 90.823631,20.045084 
	C90.823631,20.045084 90.904991,20.066965 90.874420,20.097433 
	C89.477043,19.418732 88.123940,18.128420 86.741173,18.095787 
	C78.477097,17.900772 70.206177,17.995632 61.467846,17.739716 
	C60.996387,17.319418 60.994633,17.152655 60.992878,16.985893 
	C60.973396,8.778432 60.127422,8.334392 49.917645,11.172638 
	C49.762886,10.720527 49.608128,10.268415 49.453365,9.816305 
	C51.216782,9.212681 52.975044,8.103892 54.744434,8.085846 
	C68.155830,7.949059 81.569405,8.025980 95.440643,8.068777 
z"/>
<path fill="#E5883C" opacity="1.000000" stroke="none" 
	d="
M17.025974,10.924459 
	C16.764948,7.847117 18.860392,7.983920 20.946033,7.993168 
	C27.086847,8.020396 33.228031,7.973481 39.368755,8.009695 
	C47.001041,8.054705 48.076206,9.516501 45.570557,17.474371 
	C45.213810,15.115273 44.857063,12.756173 44.472736,10.214696 
	C39.102936,10.592894 42.145641,15.304049 40.371735,17.362297 
	C32.355118,17.362297 24.320879,17.362297 16.031160,17.063227 
	C15.775678,16.764156 15.816170,16.869915 16.087040,16.797596 
	C16.551678,16.418636 16.745445,16.111992 17.033813,15.500576 
	C17.094271,13.772021 17.060123,12.348240 17.025974,10.924459 
z"/>
<path fill="#FEF9F1" opacity="1.000000" stroke="none" 
	d="
M55.663193,151.875122 
	C56.421459,152.589462 56.836842,153.181870 57.550217,154.359024 
	C57.874935,156.954803 57.901665,158.965851 57.928391,160.976898 
	C57.928391,160.976898 57.971622,160.979828 57.958038,160.960114 
	C53.235706,166.266769 47.161499,166.865326 44.383953,161.678543 
	C43.199654,159.466995 43.411770,155.304047 44.782627,153.191605 
	C47.237915,149.408096 51.362762,149.101135 55.663193,151.875122 
z"/>
<path fill="#FDF2DE" opacity="1.000000" stroke="none" 
	d="
M16.684544,10.786618 
	C17.060123,12.348240 17.094271,13.772021 16.776806,15.601110 
	C16.222187,16.294249 16.019178,16.582081 15.816170,16.869915 
	C15.816170,16.869915 15.775678,16.764156 15.722538,16.740366 
	C14.126240,15.433454 11.291893,14.143553 11.298586,12.868568 
	C11.314353,9.865594 13.770308,9.463717 16.684544,10.786618 
z"/>
<path fill="#E5883C" opacity="1.000000" stroke="none" 
	d="
M51.672897,17.840910 
	C50.734371,16.612804 50.135975,15.301689 49.537582,13.990573 
	C50.232582,13.791080 50.927582,13.591587 51.622585,13.392094 
	C51.752731,14.847362 51.882881,16.302629 51.672897,17.840910 
z"/>
<path fill="#E5883C" opacity="1.000000" stroke="none" 
	d="
M60.606060,16.988918 
	C60.994633,17.152655 60.996387,17.319418 60.999222,17.736168 
	C58.790394,17.547951 55.237736,19.376188 55.010910,14.513855 
	C57.080166,15.498392 58.649704,16.245169 60.606060,16.988918 
z"/>
<path fill="#232122" opacity="1.000000" stroke="none" 
	d="
M23.896492,43.036926 
	C23.896788,39.897190 23.896788,37.252476 23.896788,33.442936 
	C39.581131,34.077293 55.224670,33.185852 70.304359,35.689949 
	C91.062057,39.136917 97.103783,54.127869 94.584770,73.710342 
	C92.429848,90.462334 81.706314,100.143822 64.563980,101.882515 
	C58.608971,102.486504 52.605892,102.616531 46.162136,102.989838 
	C46.162136,114.343941 46.162136,125.910347 46.162136,138.968491 
	C42.573261,135.809998 40.198288,133.128784 37.296345,131.270523 
	C26.087416,124.092896 22.690350,114.314758 23.573038,101.009842 
	C24.839024,81.927391 23.896084,62.698387 23.896492,43.036926 
M72.224823,63.652012 
	C68.919655,56.205635 59.851406,54.609440 46.229206,56.612442 
	C46.229206,64.712517 46.229206,72.771538 46.229206,80.947670 
	C50.088226,80.947670 53.582844,81.130890 57.052288,80.913094 
	C67.196510,80.276283 73.755585,73.199333 72.224823,63.652012 
z"/>
<path fill="#DC8C49" opacity="1.000000" stroke="none" 
	d="
M57.628578,109.089020 
	C57.005344,110.316833 55.994171,111.432671 54.875389,112.895103 
	C52.904549,111.818321 51.041313,110.394951 49.178078,108.971588 
	C49.321571,108.576836 49.465065,108.182091 49.608559,107.787338 
	C52.152584,108.183907 54.696613,108.580475 57.628578,109.089020 
z"/>
<path fill="#DC8C49" opacity="1.000000" stroke="none" 
	d="
M85.162186,25.622208 
	C86.603905,26.862972 87.744637,28.142651 88.912567,29.792068 
	C86.625908,29.386593 84.312073,28.611382 81.459007,27.655512 
	C82.839981,26.845974 83.850586,26.253546 85.162186,25.622208 
z"/>
<path fill="#DC8C49" opacity="1.000000" stroke="none" 
	d="
M73.621056,108.066261 
	C71.892380,108.645584 69.772202,109.187195 67.359917,109.503922 
	C69.121719,108.862206 71.175644,108.445381 73.621056,108.066261 
z"/>
<path fill="#DC8C49" opacity="1.000000" stroke="none" 
	d="
M54.912338,113.505989 
	C57.295731,112.742043 58.909740,113.475899 58.958809,116.691628 
	C57.638870,115.988068 56.335056,114.895706 54.912338,113.505989 
z"/>
<path fill="#DC8C49" opacity="1.000000" stroke="none" 
	d="
M90.668289,20.303120 
	C93.178207,23.116705 91.026070,23.609221 88.211761,23.893112 
	C88.724121,22.750240 89.618538,21.655699 90.668289,20.303120 
z"/>
<path fill="#DC8C49" opacity="1.000000" stroke="none" 
	d="
M60.084873,118.329910 
	C61.256454,118.849190 62.566837,119.661560 63.844707,120.853271 
	C62.616024,120.362732 61.419849,119.492867 60.084873,118.329910 
z"/>
<path fill="#DC8C49" opacity="1.000000" stroke="none" 
	d="
M83.449982,103.776527 
	C82.745399,104.476250 81.722076,105.230728 80.303970,105.957779 
	C80.983200,105.230659 82.057213,104.530975 83.449982,103.776527 
z"/>
<path fill="#DC8C49" opacity="1.000000" stroke="none" 
	d="
M62.644638,109.233025 
	C62.053619,109.532082 61.088211,109.734413 60.051353,109.642502 
	C60.743351,109.277611 61.506802,109.206955 62.644638,109.233025 
z"/>
<path fill="#DC8C49" opacity="1.000000" stroke="none" 
	d="
M89.598373,98.986938 
	C89.048660,99.884415 88.198326,100.896637 86.931618,101.860580 
	C87.442749,100.908768 88.370262,100.005234 89.598373,98.986938 
z"/>
<path fill="#DC8C49" opacity="1.000000" stroke="none" 
	d="
M87.171616,142.251755 
	C88.044785,142.686737 89.027466,143.406555 90.026955,144.480469 
	C89.122887,144.068573 88.202003,143.302582 87.171616,142.251755 
z"/>
<path fill="#DC8C49" opacity="1.000000" stroke="none" 
	d="
M87.557022,23.859787 
	C87.352829,24.459303 86.854263,25.116478 86.002419,25.647913 
	C86.186974,24.987265 86.724808,24.452358 87.557022,23.859787 
z"/>
<path fill="#DC8C49" opacity="1.000000" stroke="none" 
	d="
M90.216797,31.229898 
	C90.623917,31.233824 91.178085,31.496716 91.814041,32.072422 
	C91.385162,32.086449 90.874512,31.787657 90.216797,31.229898 
z"/>
<path fill="#DC8C49" opacity="1.000000" stroke="none" 
	d="
M71.293922,128.190430 
	C71.704155,128.205399 72.228905,128.492371 72.825470,129.085876 
	C72.401001,129.082443 71.904716,128.772446 71.293922,128.190430 
z"/>
<path fill="#DC8C49" opacity="1.000000" stroke="none" 
	d="
M79.216156,135.228180 
	C79.632355,135.195724 80.165840,135.431763 80.779701,135.963821 
	C80.351196,136.005447 79.842323,135.751053 79.216156,135.228180 
z"/>
<path fill="#DC8C49" opacity="1.000000" stroke="none" 
	d="
M77.592766,106.824326 
	C77.361771,107.174774 76.784828,107.532303 75.836426,107.852127 
	C76.058914,107.486740 76.652863,107.159065 77.592766,106.824326 
z"/>
<path fill="#DC8C49" opacity="1.000000" stroke="none" 
	d="
M79.656570,105.895523 
	C79.477966,106.236450 78.989487,106.580551 78.179420,106.896797 
	C78.354118,106.545532 78.850403,106.222115 79.656570,105.895523 
z"/>
<path fill="#DC8C49" opacity="1.000000" stroke="none" 
	d="
M86.078293,141.240326 
	C86.317535,141.076416 86.586334,141.242493 86.907509,141.719177 
	C86.663345,141.914154 86.379333,141.760986 86.078293,141.240326 
z"/>
<path fill="#DC8C49" opacity="1.000000" stroke="none" 
	d="
M81.907822,137.367172 
	C82.131950,137.278564 82.441734,137.450836 82.841118,137.882904 
	C82.618301,137.971161 82.305885,137.799591 81.907822,137.367172 
z"/>
<path fill="#DC8C49" opacity="1.000000" stroke="none" 
	d="
M80.855919,136.422028 
	C81.093285,136.319519 81.413750,136.483002 81.817184,136.914917 
	C81.579773,137.018219 81.259399,136.853119 80.855919,136.422028 
z"/>
<path fill="#DC8C49" opacity="1.000000" stroke="none" 
	d="
M82.943588,138.331635 
	C83.159897,138.248566 83.460472,138.423950 83.859383,138.848618 
	C83.647758,138.928619 83.337807,138.759338 82.943588,138.331635 
z"/>
<path fill="#DC8C49" opacity="1.000000" stroke="none" 
	d="
M83.991394,139.294907 
	C84.193329,139.221680 84.483696,139.397781 84.875946,139.813538 
	C84.678497,139.883545 84.379158,139.713882 83.991394,139.294907 
z"/>
<path fill="#DC8C49" opacity="1.000000" stroke="none" 
	d="
M77.033936,133.268738 
	C77.230934,133.200562 77.509399,133.381866 77.891800,133.794922 
	C77.702293,133.857208 77.408836,133.687714 77.033936,133.268738 
z"/>
<path fill="#DC8C49" opacity="1.000000" stroke="none" 
	d="
M75.979599,132.303802 
	C76.179268,132.228043 76.474350,132.399109 76.875732,132.809113 
	C76.679695,132.882263 76.377357,132.716446 75.979599,132.303802 
z"/>
<path fill="#DC8C49" opacity="1.000000" stroke="none" 
	d="
M74.954666,131.321838 
	C75.168686,131.245865 75.464928,131.429565 75.854218,131.865234 
	C75.643806,131.938629 75.340347,131.760071 74.954666,131.321838 
z"/>
<path fill="#DC8C49" opacity="1.000000" stroke="none" 
	d="
M73.812515,130.360138 
	C74.020683,130.268814 74.364639,130.430130 74.827911,130.859299 
	C74.614258,130.955704 74.281288,130.784225 73.812515,130.360138 
z"/>
<path fill="#DC8C49" opacity="1.000000" stroke="none" 
	d="
M85.028687,140.271301 
	C85.226074,140.200012 85.504730,140.376434 85.887772,140.782318 
	C85.698090,140.847519 85.404022,140.683258 85.028687,140.271301 
z"/>
<path fill="#DC8C49" opacity="1.000000" stroke="none" 
	d="
M85.736572,102.102554 
	C85.882111,102.393753 85.675247,102.642265 85.132324,102.878571 
	C85.089890,102.678810 85.285858,102.409981 85.736572,102.102554 
z"/>
<path fill="#DC8C49" opacity="1.000000" stroke="none" 
	d="
M92.783310,33.373055 
	C93.006294,33.290749 93.346916,33.473213 93.766052,33.946541 
	C93.530037,34.037540 93.215485,33.837685 92.783310,33.373055 
z"/>
<path fill="#DC8C49" opacity="1.000000" stroke="none" 
	d="
M92.645683,95.921219 
	C92.732590,96.138458 92.562675,96.446495 92.138916,96.851578 
	C92.053001,96.636421 92.220932,96.324219 92.645683,95.921219 
z"/>
<path fill="#DC8C49" opacity="1.000000" stroke="none" 
	d="
M91.687988,96.966263 
	C91.759331,97.179047 91.572556,97.472023 91.133133,97.853531 
	C91.063622,97.643532 91.246750,97.344986 91.687988,96.966263 
z"/>
<path fill="#DC8C49" opacity="1.000000" stroke="none" 
	d="
M90.678360,97.954567 
	C90.752945,98.173584 90.565323,98.468071 90.122360,98.848663 
	C90.050064,98.633186 90.233116,98.331612 90.678360,97.954567 
z"/>
<path fill="#DC8C49" opacity="1.000000" stroke="none" 
	d="
M70.174210,127.198181 
	C70.389191,127.062859 70.626717,127.220993 70.930908,127.633690 
	C70.698990,127.844322 70.432045,127.712120 70.174210,127.198181 
z"/>
<path fill="#DC8C49" opacity="1.000000" stroke="none" 
	d="
M84.682693,102.947052 
	C84.741112,103.176460 84.529221,103.460823 84.044891,103.789917 
	C83.985756,103.557106 84.199074,103.279556 84.682693,102.947052 
z"/>
<path fill="#DC8C49" opacity="1.000000" stroke="none" 
	d="
M58.998466,117.292130 
	C59.201862,117.219131 59.488621,117.399147 59.876122,117.818367 
	C59.678516,117.886765 59.380169,117.715958 58.998466,117.292130 
z"/>
<path fill="#DC8C49" opacity="1.000000" stroke="none" 
	d="
M63.872993,121.397675 
	C64.108261,121.305107 64.423302,121.478249 64.815186,121.921227 
	C64.578941,122.015175 64.265846,121.839279 63.872993,121.397675 
z"/>
<path fill="#DC8C49" opacity="1.000000" stroke="none" 
	d="
M64.897568,122.375298 
	C65.123665,122.283615 65.435188,122.454613 65.838272,122.885406 
	C65.614227,122.976120 65.298615,122.807045 64.897568,122.375298 
z"/>
<path fill="#DC8C49" opacity="1.000000" stroke="none" 
	d="
M65.947174,123.330109 
	C66.158829,123.248459 66.460213,123.421135 66.860428,123.842262 
	C66.651802,123.921944 66.344345,123.753189 65.947174,123.330109 
z"/>
<path fill="#DC8C49" opacity="1.000000" stroke="none" 
	d="
M66.992455,124.296349 
	C67.198402,124.219124 67.486420,124.394699 67.877274,124.807480 
	C67.678238,124.879501 67.376381,124.714325 66.992455,124.296349 
z"/>
<path fill="#DC8C49" opacity="1.000000" stroke="none" 
	d="
M68.044540,125.263542 
	C68.233437,125.199867 68.512177,125.378059 68.894165,125.787308 
	C68.709740,125.847382 68.422066,125.676399 68.044540,125.263542 
z"/>
<path fill="#080404" opacity="1.000000" stroke="none" 
	d="
M263.615662,84.647163 
	C270.998962,99.691917 264.775909,116.297867 250.608841,120.276321 
	C240.847000,123.017670 231.308289,119.289558 225.680405,110.533325 
	C219.851028,101.463577 220.464859,89.903374 227.203613,81.847084 
	C237.495453,69.543022 254.250793,70.702629 263.615662,84.647163 
M242.653442,100.204964 
	C245.478455,102.421509 246.839554,100.481804 246.915146,98.141586 
	C246.966919,96.538887 245.464798,94.886002 244.657333,93.255554 
	C243.669998,94.737953 242.590698,96.171165 241.754425,97.734383 
	C241.520355,98.171928 242.002426,98.992569 242.653442,100.204964 
z"/>
<path fill="#DC8C49" opacity="1.000000" stroke="none" 
	d="
M58.263042,160.824463 
	C57.901665,158.965851 57.874935,156.954803 57.773434,154.517517 
	C61.101704,155.860886 60.607559,158.162918 58.263042,160.824463 
z"/>
<path fill="#DC8C49" opacity="1.000000" stroke="none" 
	d="
M16.087040,16.797596 
	C16.019178,16.582081 16.222187,16.294249 16.682203,15.905883 
	C16.745445,16.111992 16.551678,16.418636 16.087040,16.797596 
z"/>
<path fill="#FCFCFC" opacity="1.000000" stroke="none" 
	d="
M72.401825,64.003937 
	C73.755585,73.199333 67.196510,80.276283 57.052288,80.913094 
	C53.582844,81.130890 50.088226,80.947670 46.229206,80.947670 
	C46.229206,72.771538 46.229206,64.712517 46.229206,56.612442 
	C59.851406,54.609440 68.919655,56.205635 72.401825,64.003937 
z"/>
<path fill="#EFEFF0" opacity="1.000000" stroke="none" 
	d="
M242.404724,99.921219 
	C242.002426,98.992569 241.520355,98.171928 241.754425,97.734383 
	C242.590698,96.171165 243.669998,94.737953 244.657333,93.255554 
	C245.464798,94.886002 246.966919,96.538887 246.915146,98.141586 
	C246.839554,100.481804 245.478455,102.421509 242.404724,99.921219 
z"/>
</svg>