<svg xmlns="http://www.w3.org/2000/svg" width="25" height="25" fill="none" viewBox="0 0 25 25"><g clip-path="url(#a)"><rect width="25" height="25" fill="#222" rx="3"/><path fill="#fff" d="M20.212 10.89a7.259 7.259 0 0 1-4.247-1.365v6.202a5.624 5.624 0 0 1-5.617 5.618 5.583 5.583 0 0 1-3.22-1.018 5.614 5.614 0 0 1-2.398-4.6 5.624 5.624 0 0 1 5.618-5.617c.257 0 .509.02.757.054v3.116a2.524 2.524 0 0 0-.757-.118 2.568 2.568 0 0 0-2.566 2.565 2.566 2.566 0 0 0 2.566 2.566c1.382 0 2.509-1.1 2.56-2.47l.005-12.23h3.052a4.257 4.257 0 0 0 4.247 4.246v3.052Z"/></g><defs><clipPath id="a"><path fill="#fff" d="M0 0h25v25H0z"/></clipPath></defs></svg>