<?xml version="1.0" encoding="utf-8"?>
<!-- Generator: Adobe Illustrator 26.4.1, SVG Export Plug-In . SVG Version: 6.00 Build 0)  -->
<svg version="1.1" id="Layer_2_00000049196559674215198960000014808436745628839597_"
	 xmlns="http://www.w3.org/2000/svg" xmlns:xlink="http://www.w3.org/1999/xlink" x="0px" y="0px" viewBox="0 0 1041 1041"
	 style="enable-background:new 0 0 1041 1041;" xml:space="preserve">
<style type="text/css">
	.st0{fill:none;}
	.st1{fill:#ED1C24;}
	.st2{fill:#231F20;}
	.st3{fill:#FFFFFF;}
	.st4{fill:#808285;}
</style>
<g id="Layer_1-2">
	<rect y="0" class="st0" width="1041" height="1041"/>
	<g>
		<path class="st1" d="M32,484.6L484.7,32c19.8-19.8,51.9-19.8,71.7,0L1009,484.6c19.8,19.8,19.8,51.9,0,71.7L556.3,1009
			c-19.8,19.8-51.9,19.8-71.7,0L32,556.3C12.2,536.5,12.2,504.4,32,484.6z"/>
		<g>
			<path class="st2" d="M104.6,481.4l376.8-376.8c19-19,49.8-19,68.8,0l376.8,376.8c19,19,19,49.8,0,68.8L550.1,926.9
				c-19,19-49.8,19-68.8,0L104.6,550.1C85.6,531.1,85.6,500.3,104.6,481.4z"/>
			<path class="st3" d="M515.7,947c-16.2,0-31.5-6.3-43-17.8L102.2,558.7c-11.5-11.5-17.8-26.7-17.8-43s6.3-31.5,17.8-43
				l370.5-370.5c11.5-11.5,26.7-17.8,43-17.8s31.5,6.3,43,17.8l370.5,370.5c11.5,11.5,17.8,26.7,17.8,43s-6.3,31.5-17.8,43
				L558.7,929.2C547.2,940.7,532,947,515.7,947L515.7,947z M515.7,99.9c-12.1,0-23.5,4.7-32,13.3L113.2,483.7
				c-8.6,8.6-13.3,19.9-13.3,32s4.7,23.5,13.3,32l370.5,370.5c8.6,8.6,19.9,13.3,32,13.3s23.5-4.7,32-13.3l370.5-370.5
				c8.6-8.6,13.3-19.9,13.3-32s-4.7-23.5-13.3-32L547.8,113.2C539.2,104.6,527.8,99.9,515.7,99.9L515.7,99.9z"/>
		</g>
		<g>
			<g>
				<g>
					<path class="st3" d="M338.1,528.9l-34.3,217.6h-56.6l-23.9-125.5l-0.6,0.6c-0.4,4.2-0.9,10.6-1.4,19.2
						c-0.6,8.6-1.2,16.2-1.9,22.8c-0.7,6.6-1.5,13-2.4,19.2l-10.1,63.8h-56.6l34.3-217.6h56l26.6,131l0.6-0.6
						c0.4-5.4,0.8-13.3,1.1-23.7c0.4-10.4,0.9-19.7,1.4-27.8c0.6-8.2,1.4-16,2.6-23.5l8.7-55.4L338.1,528.9 M338.1,509.8h-56.6
						c-9.4,0-17.3,6.8-18.8,16.1l-1.5,9.5l-2.1-10.3c-1.8-8.9-9.6-15.2-18.6-15.2h-56c-9.4,0-17.3,6.8-18.8,16l-34.3,217.6
						c-0.9,5.5,0.7,11.1,4.3,15.3c3.6,4.2,8.9,6.7,14.4,6.7h56.6c9.4,0,17.3-6.8,18.8-16l1.3-8.2l1.7,8.8c1.7,9,9.6,15.4,18.7,15.4
						h56.6c9.4,0,17.3-6.8,18.8-16l34.3-217.6c0.9-5.5-0.7-11.1-4.3-15.3C348.9,512.3,343.6,509.8,338.1,509.8L338.1,509.8
						L338.1,509.8z"/>
					<path class="st3" d="M452.4,528.9l-8.1,51.4h-50.5l-4.6,30.3h45.3l-8.4,51.4h-45.3l-5.2,33.2h50.5l-8.1,51.4H308.6L343,528.8
						L452.4,528.9 M452.3,509.8H343c-9.4,0-17.3,6.8-18.8,16l-34.3,217.6c-0.9,5.5,0.7,11.1,4.3,15.3c3.6,4.2,8.9,6.7,14.5,6.7H418
						c9.4,0,17.3-6.8,18.8-16l8.1-51.4c0.9-5.5-0.7-11.1-4.3-15.3c-1.5-1.7-3.2-3.2-5.2-4.2c4.9-2.8,8.5-7.6,9.5-13.5l8.4-51.4
						c0.9-5.3-0.6-10.8-4-15c7.1-1.9,12.6-7.8,13.8-15.4l8.1-51.4c0.9-5.5-0.7-11.1-4.3-15.3C463.2,512.3,457.9,509.8,452.3,509.8
						L452.3,509.8L452.3,509.8z"/>
					<path class="st3" d="M535.8,525.1c17.1,0,31.4,4.9,42.7,14.6c11.3,9.7,19,22.8,23.1,39.1l-60.3,21.1c0.6-5.2-0.3-10.2-2.6-15
						s-5.8-7.2-10.4-7.2c-3.5,0-6.7,0.9-9.8,2.6c-3.1,1.7-5.7,3.8-7.8,6.3c-2.1,2.5-4.1,5.8-5.9,10c-1.8,4.1-3.3,7.8-4.3,11
						c-1.1,3.2-2.1,7.2-3.2,12.1c-1.1,4.9-1.8,8.6-2.3,11.1s-1,5.7-1.6,9.5c-0.2,1.7-0.4,3-0.6,3.8c0,1-0.2,2.9-0.6,5.8
						c-0.4,2.9-0.7,5.3-0.9,7.4c-0.2,2-0.4,4.6-0.6,7.7c-0.2,3.1-0.2,5.8-0.1,8.1c0.1,2.3,0.3,4.8,0.6,7.5c0.3,2.7,0.8,5,1.6,6.9
						c0.8,1.9,1.7,3.7,2.9,5.3c1.1,1.6,2.7,2.9,4.6,3.8c1.9,0.9,4.1,1.3,6.6,1.3c6.9,0,12.5-3.3,16.9-9.8s7.1-13.7,8.2-21.4h-21.6
						l7.2-45.9h82l-1.2,9.2c-1.9,12.1-4.2,23.2-6.8,33.3s-6.5,20.8-11.5,32c-5.1,11.3-11,20.7-17.8,28.3c-6.7,7.6-15.4,14-26,19
						c-10.6,5.1-22.4,7.7-35.5,7.7c-10.4,0-19.7-1.4-27.9-4.3c-8.2-2.9-14.9-7-20.1-12.3c-5.2-5.3-9.5-11.4-13-18.3
						c-3.5-6.9-5.8-14.6-7.1-23.1c-1.2-8.5-1.8-17.1-1.7-26c0.1-8.8,0.9-18,2.5-27.4c1.7-11.3,4.3-22.2,7.6-32.6
						c3.4-10.4,7.9-20.6,13.7-30.6s12.4-18.7,19.8-26c7.4-7.3,16.4-13.2,27-17.8C512.3,527.4,523.6,525.1,535.8,525.1 M535.8,506.1
						c-14.6,0-28.6,2.8-41.5,8.3c-12.7,5.4-23.8,12.8-32.9,21.7c-8.6,8.5-16.3,18.6-22.9,30c-6.4,11.1-11.6,22.7-15.3,34.2
						c-3.6,11.3-6.5,23.2-8.3,35.5c-1.7,10.3-2.6,20.4-2.7,30.2c-0.1,9.8,0.5,19.5,1.9,29c1.5,10.4,4.5,20.1,8.9,28.8
						c4.3,8.7,9.9,16.5,16.4,23.2c7.2,7.3,16.4,13,27.3,16.9c10.2,3.6,21.7,5.4,34.2,5.4c15.9,0,30.6-3.2,43.7-9.5
						c12.8-6.2,23.6-14.1,32-23.6c8-9,15-20.1,20.8-33c5.5-12.2,9.8-24,12.6-35.2c2.7-10.6,5.1-22.4,7.2-35.1c0-0.2,0.1-0.4,0.1-0.6
						l1.2-9.2c0.7-5.4-1-10.8-4.6-14.9s-8.8-6.4-14.2-6.4h-5.7l14-4.9c9.3-3.2,14.5-13,12.2-22.5c-5-20.2-14.8-36.7-29.2-49
						C576,512.5,557.5,506.1,535.8,506.1L535.8,506.1L535.8,506.1z"/>
					<path class="st3" d="M667.4,528.9c13.7,0,25.3,1.1,35.1,3.3c9.7,2.2,18.3,6,25.7,11.3c7.4,5.3,12.5,12.8,15.2,22.4
						s3,21.5,0.9,35.5c-2.1,12.5-6.7,23.6-13.8,33.3c-7.1,9.7-16.6,16.8-28.6,21.2l29.4,90.6h-63.8l-18.2-90.6l-0.9,0.6
						c-0.2,2.3-0.6,5.7-1.2,10.1c-0.6,4.4-1.1,8.4-1.6,12c-0.5,3.6-0.9,6.9-1.3,10l-9.2,58h-58.9l34.3-217.6L667.4,528.9
						 M657.3,629.6c7.5,0,13.8-2.7,18.9-8.2c5.1-5.5,8.2-12,9.4-19.5c1.5-9.2,0.1-16-4.2-20.3c-4-4-9.7-6-17.2-6c-0.7,0-1.3,0-2,0
						l-8.7,53.7L657.3,629.6 M667.4,509.9h-56.9c-9.3,0-17.3,6.8-18.8,16l-34.3,217.6c-0.9,5.5,0.7,11.1,4.3,15.3
						c3.6,4.2,8.9,6.7,14.5,6.7h58.9c6.8,0,12.8-3.5,16.2-9c3.4,5.5,9.4,9,16.2,9h63.8c6.1,0,11.8-2.9,15.4-7.8
						c3.6-4.9,4.6-11.3,2.7-17l-24.4-75.1c8.1-5.2,15.1-11.8,20.8-19.6c8.8-12.1,14.7-26,17.3-41.4c0-0.1,0-0.2,0.1-0.3
						c2.5-16.9,2.1-31.1-1.4-43.5c-3.9-13.9-11.4-24.9-22.4-32.7c-9.4-6.7-20.4-11.6-32.5-14.3C695.6,511.1,682.4,509.9,667.4,509.9
						L667.4,509.9L667.4,509.9z"/>
					<path class="st3" d="M832.2,525.1c9.8,0,18.6,1.5,26.3,4.6s14.1,7.4,19.2,12.8c5.1,5.5,9.4,11.8,12.8,18.9
						c3.5,7.1,5.9,14.9,7.2,23.4c1.3,8.5,2,17.1,2,26s-0.7,17.8-2,26.8c-1.7,11-4.4,21.7-7.9,32.2s-8.3,20.6-14.1,30.5
						c-5.9,9.8-12.5,18.4-19.9,25.7c-7.4,7.3-16.2,13.2-26.4,17.6c-10.2,4.4-21.1,6.6-32.6,6.6c-9.6,0-18.3-1.5-26.1-4.6
						s-14.2-7.4-19.3-12.8c-5.1-5.5-9.3-11.8-12.7-18.9c-3.4-7.1-5.8-14.9-7.2-23.4c-1.4-8.5-2.2-17.1-2.2-26s0.8-17.8,2.3-26.8
						c1.7-11,4.4-21.7,7.9-32.2c3.6-10.5,8.2-20.6,14-30.5s12.4-18.4,19.9-25.7c7.5-7.3,16.3-13.2,26.5-17.6
						C810,527.3,820.8,525.1,832.2,525.1 M805.3,695.4c4.2,0,8.1-1.6,11.7-4.9c3.6-3.3,6.4-7,8.7-11.3c2.2-4.2,4.2-9.4,6.1-15.6
						c1.8-6.2,3.1-11,3.8-14.6s1.4-7.4,2.2-11.4c0.4-3.3,0.8-6.3,1.2-9.2s0.7-6.8,1-11.7c0.3-4.9,0.2-9.3-0.1-13.1
						c-0.4-3.8-1.1-7.7-2-11.5c-1-3.8-2.7-6.8-5-9c-2.4-2.1-5.4-3.2-9.1-3.2c-4,0-7.9,1.6-11.5,4.9c-3.7,3.3-6.5,7-8.7,11.3
						s-4.1,9.4-5.9,15.6c-1.8,6.2-3.1,11-3.9,14.6c-0.8,3.6-1.4,7.4-2,11.4c-0.6,3.3-1,6.3-1.3,9.2c-0.3,2.9-0.6,6.8-1,11.7
						c-0.4,4.9-0.4,9.3,0,13.1c0.4,3.8,1.1,7.7,2.2,11.5c1.1,3.8,2.8,6.8,5.2,9S801.8,695.4,805.3,695.4 M832.1,506.1
						c-13.9,0-27.3,2.8-39.9,8.2c-12.3,5.3-23.1,12.5-32.2,21.4c-8.7,8.5-16.4,18.5-23,29.7c-6.4,10.9-11.7,22.3-15.6,34
						c-3.9,11.4-6.8,23.2-8.7,35.2c-1.7,10-2.6,20.1-2.6,29.9s0.8,19.7,2.4,29.2c1.7,10.1,4.7,19.7,8.8,28.3
						c4.2,8.8,9.5,16.8,16,23.7c7,7.5,15.9,13.5,26.3,17.6c10,4,21.1,6,33.1,6c14.1,0,27.6-2.8,40.2-8.2
						c12.3-5.3,23.2-12.6,32.2-21.5c8.5-8.4,16.2-18.3,22.9-29.5c6.5-10.9,11.8-22.4,15.8-34.1c3.9-11.5,6.8-23.4,8.7-35.3
						c0-0.1,0-0.1,0-0.2c1.5-9.9,2.2-19.9,2.2-29.6s-0.8-19.5-2.3-29c-1.6-10.3-4.6-20-8.9-28.7c-4.3-8.8-9.7-16.7-16-23.5
						c-7-7.5-15.8-13.4-26-17.5C855.5,508.1,844.3,506.1,832.1,506.1L832.1,506.1L832.1,506.1z"/>
				</g>
				<g>
					<path class="st2" d="M150.2,746.5l34.3-217.6h56l26.6,131l0.6-0.6c0.4-5.4,0.8-13.3,1.1-23.7c0.4-10.4,0.9-19.7,1.4-27.8
						c0.6-8.2,1.4-16,2.6-23.5l8.7-55.4h56.6l-34.3,217.6h-56.6l-23.9-125.5l-0.6,0.6c-0.4,4.2-0.9,10.6-1.4,19.2
						c-0.6,8.6-1.2,16.2-1.9,22.8c-0.7,6.6-1.5,13-2.4,19.2l-10.1,63.8L150.2,746.5L150.2,746.5z"/>
					<path class="st2" d="M308.6,746.5L343,528.9h109.4l-8.1,51.4h-50.5l-4.6,30.3h45.3l-8.4,51.4h-45.3l-5.2,33.2h50.5l-8.1,51.4
						L308.6,746.5L308.6,746.5z"/>
					<path class="st2" d="M517.6,620.6h82l-1.2,9.2c-1.9,12.1-4.2,23.2-6.8,33.3s-6.5,20.8-11.5,32c-5.1,11.3-11,20.7-17.8,28.3
						c-6.7,7.6-15.4,14-26,19c-10.6,5.1-22.4,7.7-35.5,7.7c-10.4,0-19.7-1.4-27.9-4.3c-8.2-2.9-14.9-7-20.1-12.3
						c-5.2-5.3-9.5-11.4-13-18.3c-3.5-6.9-5.8-14.6-7.1-23.1c-1.2-8.5-1.8-17.1-1.7-26c0.1-8.8,0.9-18,2.5-27.4
						c1.7-11.3,4.3-22.2,7.6-32.6c3.4-10.4,7.9-20.6,13.7-30.6s12.4-18.7,19.8-26c7.4-7.3,16.4-13.2,27-17.8
						c10.6-4.5,21.9-6.8,34.1-6.8c17.1,0,31.4,4.9,42.7,14.6c11.3,9.7,19,22.8,23.1,39.1l-60.3,21.1c0.6-5.2-0.3-10.2-2.6-15
						s-5.8-7.2-10.4-7.2c-3.5,0-6.7,0.9-9.8,2.6c-3.1,1.7-5.7,3.8-7.8,6.3c-2.1,2.5-4.1,5.8-5.9,10c-1.8,4.1-3.3,7.8-4.3,11
						c-1.1,3.2-2.1,7.2-3.2,12.1c-1.1,4.9-1.8,8.6-2.3,11.1s-1,5.7-1.6,9.5c-0.2,1.7-0.4,3-0.6,3.8c0,1-0.2,2.9-0.6,5.8
						c-0.4,2.9-0.7,5.3-0.9,7.4c-0.2,2-0.4,4.6-0.6,7.7c-0.2,3.1-0.2,5.8-0.1,8.1c0.1,2.3,0.3,4.8,0.6,7.5c0.3,2.7,0.8,5,1.6,6.9
						c0.8,1.9,1.7,3.7,2.9,5.3c1.1,1.6,2.7,2.9,4.6,3.8c1.9,0.9,4.1,1.3,6.6,1.3c6.9,0,12.5-3.3,16.9-9.8s7.1-13.7,8.2-21.4h-21.6
						L517.6,620.6L517.6,620.6z"/>
					<path class="st2" d="M731.1,746.5h-63.8l-18.2-90.6l-0.9,0.6c-0.2,2.3-0.6,5.7-1.2,10.1c-0.6,4.4-1.1,8.4-1.6,12
						c-0.5,3.6-0.9,6.9-1.3,10l-9.2,58h-58.9l34.3-217.6h56.9c13.7,0,25.3,1.1,35.1,3.3c9.7,2.2,18.3,6,25.7,11.3
						c7.4,5.3,12.5,12.8,15.2,22.4s3,21.5,0.9,35.5c-2.1,12.5-6.7,23.6-13.8,33.3c-7.1,9.7-16.6,16.8-28.6,21.2L731.1,746.5
						L731.1,746.5z M653.5,629.3l3.8,0.3c7.5,0,13.8-2.7,18.9-8.2c5.1-5.5,8.2-12,9.4-19.5c1.5-9.2,0.1-16-4.2-20.3
						c-4.3-4.3-10.7-6.3-19.2-5.9L653.5,629.3L653.5,629.3z"/>
					<path class="st2" d="M731.4,637.7c1.7-11,4.4-21.7,7.9-32.2c3.6-10.5,8.2-20.6,14-30.5c5.8-9.8,12.4-18.4,19.9-25.7
						c7.5-7.3,16.3-13.2,26.5-17.6s21-6.6,32.3-6.6c9.8,0,18.6,1.5,26.3,4.6s14.1,7.4,19.2,12.8c5.1,5.5,9.4,11.8,12.8,18.9
						c3.5,7.1,5.9,14.9,7.2,23.4c1.3,8.5,2,17.1,2,26s-0.7,17.8-2,26.8c-1.7,11-4.4,21.7-7.9,32.2c-3.6,10.5-8.3,20.6-14.1,30.5
						s-12.5,18.4-19.9,25.7c-7.4,7.3-16.2,13.2-26.4,17.6c-10.2,4.4-21.1,6.6-32.6,6.6c-9.6,0-18.3-1.5-26.1-4.6
						c-7.8-3.1-14.2-7.4-19.3-12.8c-5.1-5.5-9.3-11.8-12.7-18.9s-5.8-14.9-7.2-23.4c-1.4-8.5-2.2-17.1-2.2-26
						S729.9,646.7,731.4,637.7L731.4,637.7z M791.5,637.7c-0.6,3.3-1,6.3-1.3,9.2s-0.6,6.8-1,11.7c-0.4,4.9-0.4,9.3,0,13.1
						c0.4,3.8,1.1,7.7,2.2,11.5c1.1,3.8,2.8,6.8,5.2,9s5.3,3.2,8.8,3.2c4.2,0,8.1-1.6,11.7-4.9c3.6-3.3,6.4-7,8.7-11.3
						c2.2-4.2,4.2-9.4,6.1-15.6c1.8-6.2,3.1-11,3.8-14.6s1.4-7.4,2.2-11.4c0.4-3.3,0.8-6.3,1.2-9.2s0.7-6.8,1-11.7s0.2-9.3-0.1-13.1
						c-0.4-3.8-1.1-7.7-2-11.5c-1-3.8-2.7-6.8-5-9c-2.4-2.1-5.4-3.2-9.1-3.2c-4,0-7.9,1.6-11.5,4.9c-3.7,3.3-6.5,7-8.7,11.3
						s-4.1,9.4-5.9,15.6c-1.8,6.2-3.1,11-3.9,14.6S792,633.6,791.5,637.7L791.5,637.7z"/>
				</g>
			</g>
			<g>
				<g>
					<path class="st3" d="M305.1,207.1c15.2,0,28.3,1.2,39.1,3.7c10.8,2.5,20.4,6.6,28.7,12.5s13.9,14.2,16.9,24.9
						c3,10.7,3.3,23.9,1,39.5c-2.4,13.9-7.5,26.3-15.5,37.1c-8,10.8-18.6,18.7-31.9,23.6l32.9,100.9h-71.2l-20.3-100.9l-1,0.6
						c-0.2,2.6-0.6,6.3-1.3,11.2c-0.6,4.9-1.2,9.4-1.8,13.3c-0.5,4-1,7.7-1.5,11.1L269,449.3h-65.7l38.3-242.3L305.1,207.1
						 M293.8,319.2c8.4,0,15.4-3,21.1-9.2c5.7-6.1,9.2-13.3,10.5-21.7c1.7-10.3,0.2-17.8-4.7-22.6c-4.4-4.4-10.8-6.6-19.1-6.6
						c-0.7,0-1.5,0-2.3,0l-9.7,59.8L293.8,319.2 M305.1,185.9h-63.4c-10.4,0-19.3,7.6-20.9,17.9L182.4,446c-1,6.1,0.8,12.4,4.8,17.1
						c4,4.7,9.9,7.4,16.1,7.4H269c7.5,0,14.3-4,18-10.1c3.8,6.1,10.5,10.1,18,10.1h71.2c6.8,0,13.2-3.2,17.1-8.7
						c4-5.5,5.1-12.6,3-19l-27.2-83.6c9-5.8,16.8-13.1,23.2-21.8c9.9-13.5,16.4-29,19.3-46.1c0-0.1,0-0.3,0.1-0.4
						c2.8-18.8,2.3-34.6-1.5-48.4c-4.3-15.4-12.8-27.7-25-36.4c-10.5-7.5-22.7-12.9-36.3-15.9C336.6,187.3,321.8,185.9,305.1,185.9
						L305.1,185.9L305.1,185.9z"/>
					<path class="st3" d="M489,202.9c11,0,20.7,1.7,29.3,5.1c8.6,3.4,15.7,8.2,21.4,14.3s10.5,13.1,14.3,21.1c3.9,7.9,6.5,16.6,8,26
						c1.5,9.4,2.2,19.1,2.2,28.9s-0.8,19.8-2.2,29.9c-1.9,12.2-4.9,24.1-8.9,35.8c-4,11.7-9.2,23-15.8,33.9
						c-6.5,10.9-14,20.5-22.2,28.6c-8.3,8.1-18.1,14.7-29.5,19.6c-11.4,4.9-23.5,7.4-36.4,7.4c-10.7,0-20.5-1.7-29.1-5.1
						c-8.7-3.4-15.9-8.2-21.6-14.3c-5.7-6.1-10.4-13.1-14.2-21c-3.8-7.9-6.4-16.6-8-26c-1.6-9.4-2.4-19.1-2.4-28.9
						s0.9-19.8,2.6-29.9c1.9-12.2,4.9-24.1,8.9-35.8c4-11.7,9.2-23,15.6-33.9c6.4-10.9,13.9-20.4,22.2-28.6
						c8.4-8.1,18.2-14.7,29.6-19.6C464.3,205.3,476.3,202.9,489,202.9 M459,392.4c4.7,0,9.1-1.8,13-5.5c4-3.6,7.2-7.8,9.7-12.5
						s4.7-10.5,6.8-17.4c2-6.9,3.4-12.3,4.2-16.2c0.8-4,1.5-8.2,2.4-12.7c0.4-3.6,0.9-7.1,1.3-10.3c0.4-3.2,0.8-7.5,1.1-13
						c0.3-5.5,0.3-10.3-0.2-14.6c-0.4-4.3-1.2-8.6-2.2-12.9c-1.1-4.3-3-7.6-5.6-10c-2.7-2.4-6.1-3.5-10.1-3.5
						c-4.5,0-8.8,1.8-12.9,5.5c-4.1,3.6-7.3,7.8-9.7,12.5c-2.4,4.7-4.6,10.5-6.6,17.4c-2,6.9-3.5,12.3-4.4,16.2
						c-0.9,4-1.6,8.2-2.2,12.7c-0.6,3.6-1.1,7.1-1.5,10.3s-0.7,7.5-1.1,13c-0.4,5.5-0.4,10.3,0,14.6c0.4,4.3,1.2,8.6,2.4,12.9
						c1.2,4.3,3.1,7.6,5.8,10C451.9,391.3,455.2,392.4,459,392.4 M489,181.7c-15.5,0-30.5,3.1-44.5,9.1c-13.7,5.9-25.8,13.9-36,23.9
						c-9.7,9.4-18.3,20.5-25.7,33c-7.1,12.1-13,24.8-17.4,37.8c-4.3,12.7-7.6,25.9-9.7,39.2c-1.9,11.1-2.9,22.4-2.9,33.3
						s0.9,21.9,2.7,32.5c1.9,11.3,5.2,21.9,9.8,31.5c4.7,9.8,10.7,18.7,17.8,26.4c7.8,8.4,17.7,15,29.3,19.6
						c11.1,4.4,23.6,6.6,36.9,6.6c15.7,0,30.8-3.1,44.8-9.1c13.7-6,25.8-14,35.9-24c9.5-9.4,18.1-20.4,25.5-32.8
						c7.3-12.2,13.2-24.9,17.7-38c4.3-12.8,7.6-26,9.7-39.3c0-0.1,0-0.1,0-0.2c1.7-11.1,2.5-22.2,2.5-33s-0.8-21.7-2.5-32.2
						c-1.8-11.5-5.2-22.2-9.9-32c-4.8-9.8-10.8-18.6-17.9-26.2c-7.8-8.4-17.6-14.9-29.1-19.5C515.1,183.9,502.6,181.7,489,181.7
						L489,181.7L489,181.7z"/>
					<path class="st3" d="M679.3,207.1l-26.1,164.2c-1.1,8.1-2.4,15.3-4,21.4c-1.6,6.1-4.3,13.2-8.2,21.4c-3.9,8.1-8.5,14.9-14,20.2
						c-5.5,5.4-12.9,9.9-22.2,13.7c-9.3,3.8-20.1,5.6-32.4,5.6c-14,0-28-2.6-42.2-7.7l10.6-67.8c5.4,9.4,13.5,14.1,24.5,14.1
						c4.3,0,8-1,11.1-3c3.1-2,5.5-5,7.2-8.8s3-7.3,3.7-10.3s1.6-6.9,2.4-11.6l23.8-151.3L679.3,207.1 M679.3,185.9h-65.7
						c-10.4,0-19.3,7.6-20.9,17.9l-23.8,151.1c-0.8,4.1-1.5,7.5-2.1,10c-0.3,1.1-0.9,3.1-2.2,6.1c-3-0.1-4-1-5.4-3.4
						c-3.8-6.7-10.9-10.7-18.4-10.7c-1.3,0-2.5,0.1-3.8,0.4c-8.9,1.6-15.7,8.7-17.1,17.6l-10.6,67.8c-1.6,10,4.2,19.7,13.7,23.2
						c16.4,6,33,9,49.4,9c14.9,0,28.4-2.4,40.2-7.1c11.9-4.8,21.7-10.9,29.2-18.2c7.2-7.1,13.4-15.9,18.3-26.3
						c4.5-9.4,7.6-17.6,9.6-25c1.8-6.9,3.3-14.8,4.5-23.7l26-163.9c1-6.1-0.8-12.4-4.8-17.1C691.4,188.6,685.5,185.9,679.3,185.9
						L679.3,185.9L679.3,185.9z"/>
					<path class="st3" d="M770.8,202.9c11,0,20.7,1.7,29.3,5.1c8.6,3.4,15.7,8.2,21.4,14.3s10.5,13.1,14.3,21.1
						c3.9,7.9,6.5,16.6,8,26c1.5,9.4,2.2,19.1,2.2,28.9s-0.8,19.8-2.2,29.9c-1.9,12.2-4.9,24.1-8.9,35.8c-4,11.7-9.2,23-15.8,33.9
						c-6.5,10.9-14,20.5-22.2,28.6c-8.3,8.1-18.1,14.7-29.5,19.6c-11.4,4.9-23.5,7.4-36.4,7.4c-10.7,0-20.5-1.7-29.2-5.1
						s-15.9-8.2-21.6-14.3s-10.4-13.1-14.2-21c-3.8-7.9-6.4-16.6-8-26c-1.6-9.4-2.4-19.1-2.4-28.9s0.9-19.8,2.6-29.9
						c1.9-12.2,4.9-24.1,8.9-35.8c4-11.7,9.2-23,15.6-33.9c6.4-10.9,13.8-20.4,22.2-28.6c8.4-8.1,18.2-14.7,29.6-19.6
						C746.1,205.3,758.1,202.9,770.8,202.9 M740.8,392.4c4.7,0,9.1-1.8,13-5.5c4-3.6,7.2-7.8,9.7-12.5s4.7-10.5,6.8-17.4
						c2-6.9,3.4-12.3,4.2-16.2c0.8-4,1.5-8.2,2.4-12.7c0.4-3.6,0.9-7.1,1.3-10.3s0.8-7.5,1.1-13c0.3-5.5,0.3-10.3-0.2-14.6
						c-0.4-4.3-1.2-8.6-2.2-12.9c-1.1-4.3-3-7.6-5.6-10c-2.7-2.4-6.1-3.5-10.2-3.5c-4.5,0-8.8,1.8-12.9,5.5
						c-4.1,3.6-7.3,7.8-9.7,12.5c-2.4,4.7-4.6,10.5-6.6,17.4c-2,6.9-3.5,12.3-4.3,16.2c-0.9,4-1.6,8.2-2.2,12.7
						c-0.6,3.6-1.1,7.1-1.5,10.3s-0.7,7.5-1.1,13c-0.4,5.5-0.4,10.3,0,14.6c0.4,4.3,1.2,8.6,2.4,12.9c1.2,4.3,3.1,7.6,5.8,10
						C733.7,391.3,737,392.4,740.8,392.4 M770.8,181.7c-15.5,0-30.5,3.1-44.5,9.1c-13.7,5.9-25.8,13.9-36,23.9
						c-9.7,9.4-18.3,20.5-25.7,33c-7.2,12.1-13,24.8-17.4,37.8c-4.3,12.7-7.6,25.9-9.7,39.2c-1.9,11.1-2.9,22.4-2.9,33.3
						s0.9,21.9,2.7,32.5c1.9,11.3,5.2,21.9,9.8,31.5c4.7,9.8,10.7,18.7,17.8,26.4c7.8,8.4,17.7,15,29.3,19.6
						c11.2,4.4,23.6,6.6,36.9,6.6c15.7,0,30.8-3.1,44.8-9.1c13.7-6,25.8-14,35.9-24c9.5-9.4,18.1-20.4,25.5-32.8
						c7.3-12.2,13.2-24.9,17.7-38c4.3-12.8,7.6-26,9.7-39.3c0-0.1,0-0.1,0-0.2c1.7-11.1,2.5-22.2,2.5-33s-0.8-21.7-2.5-32.2
						c-1.8-11.5-5.2-22.2-9.9-32c-4.8-9.8-10.8-18.6-17.9-26.2c-7.8-8.4-17.6-14.9-29.1-19.5C796.9,183.9,784.4,181.7,770.8,181.7
						L770.8,181.7L770.8,181.7z"/>
				</g>
				<g>
					<path class="st1" d="M376.6,448.9h-71.2L285.2,348l-1,0.6c-0.2,2.6-0.6,6.3-1.3,11.2c-0.6,4.9-1.2,9.4-1.8,13.3
						c-0.5,4-1,7.7-1.5,11.1l-10.3,64.6h-65.7L242,206.6h63.5c15.2,0,28.3,1.2,39.1,3.7s20.4,6.6,28.7,12.5s13.9,14.2,16.9,24.9
						c3,10.7,3.3,23.9,1,39.5c-2.4,13.9-7.5,26.3-15.5,37.1c-8,10.8-18.6,18.7-31.9,23.6L376.6,448.9L376.6,448.9z M290,318.4
						l4.2,0.3c8.4,0,15.4-3,21.1-9.2c5.7-6.1,9.2-13.3,10.5-21.7c1.7-10.3,0.2-17.8-4.7-22.6c-4.8-4.8-12-7-21.4-6.6L290,318.4
						L290,318.4z"/>
					<path class="st1" d="M377,327.7c1.9-12.2,4.9-24.1,8.9-35.8c4-11.7,9.2-23,15.6-33.9c6.4-10.9,13.9-20.4,22.2-28.6
						c8.4-8.1,18.2-14.7,29.6-19.6c11.4-4.9,23.4-7.4,36.1-7.4c11,0,20.7,1.7,29.3,5.1c8.6,3.4,15.7,8.2,21.4,14.3
						c5.7,6.1,10.5,13.1,14.3,21c3.9,7.9,6.5,16.6,8,26s2.2,19.1,2.2,28.9s-0.8,19.8-2.2,29.9c-1.9,12.2-4.9,24.1-8.9,35.8
						c-4,11.7-9.2,23-15.8,33.9c-6.5,10.9-14,20.5-22.2,28.6c-8.3,8.1-18.1,14.7-29.5,19.6s-23.5,7.4-36.4,7.4
						c-10.7,0-20.5-1.7-29.1-5.1c-8.7-3.4-15.9-8.2-21.6-14.3c-5.7-6.1-10.4-13.1-14.2-21c-3.8-7.9-6.4-16.6-8-26
						c-1.6-9.4-2.4-19.1-2.4-28.9S375.2,337.8,377,327.7L377,327.7z M444,327.7c-0.6,3.6-1.1,7.1-1.5,10.3s-0.7,7.5-1.1,13
						c-0.4,5.5-0.4,10.3,0,14.6c0.4,4.3,1.2,8.6,2.4,12.9c1.2,4.3,3.1,7.6,5.8,10c2.7,2.4,6,3.5,9.8,3.5c4.7,0,9.1-1.8,13-5.5
						c4-3.6,7.2-7.8,9.7-12.5s4.7-10.5,6.8-17.4c2-6.9,3.4-12.3,4.2-16.2c0.8-4,1.5-8.2,2.4-12.7c0.4-3.6,0.9-7.1,1.3-10.3
						c0.4-3.2,0.8-7.5,1.1-13c0.3-5.5,0.3-10.3-0.2-14.6c-0.4-4.3-1.2-8.6-2.2-12.9c-1.1-4.3-3-7.6-5.6-10
						c-2.7-2.4-6.1-3.5-10.1-3.5c-4.5,0-8.8,1.8-12.9,5.5c-4.1,3.6-7.3,7.8-9.7,12.5c-2.4,4.7-4.6,10.5-6.6,17.4
						c-2,6.9-3.5,12.3-4.4,16.2C445.4,319,444.6,323.2,444,327.7L444,327.7z"/>
					<path class="st1" d="M530.6,445.3l10.6-67.8c5.4,9.4,13.5,14.1,24.5,14.1c4.3,0,8-1,11.1-3c3.1-2,5.5-5,7.2-8.8s3-7.3,3.7-10.3
						s1.5-6.9,2.4-11.6L614,206.6h65.7l-26.1,164.2c-1.1,8.1-2.4,15.3-4,21.4c-1.6,6.1-4.3,13.2-8.2,21.4c-3.9,8.1-8.5,14.9-14,20.2
						c-5.5,5.4-12.9,9.9-22.2,13.7c-9.3,3.7-20.1,5.6-32.4,5.6C558.8,453.1,544.8,450.5,530.6,445.3L530.6,445.3z"/>
					<path class="st1" d="M658.8,327.7c1.9-12.2,4.9-24.1,8.9-35.8c4-11.7,9.2-23,15.6-33.9c6.4-10.9,13.8-20.4,22.2-28.6
						c8.4-8.1,18.2-14.7,29.6-19.6c11.4-4.9,23.4-7.4,36.1-7.4c11,0,20.7,1.7,29.3,5.1c8.6,3.4,15.7,8.2,21.4,14.3
						c5.7,6.1,10.5,13.1,14.3,21c3.9,7.9,6.5,16.6,8,26s2.2,19.1,2.2,28.9s-0.8,19.8-2.2,29.9c-1.9,12.2-4.9,24.1-8.9,35.8
						c-4,11.7-9.2,23-15.8,33.9c-6.5,10.9-14,20.5-22.2,28.6c-8.3,8.1-18.1,14.7-29.5,19.6c-11.4,4.9-23.5,7.4-36.4,7.4
						c-10.7,0-20.5-1.7-29.2-5.1s-15.9-8.2-21.6-14.3s-10.4-13.1-14.2-21c-3.8-7.9-6.4-16.6-8-26c-1.6-9.4-2.4-19.1-2.4-28.9
						S657.1,337.8,658.8,327.7L658.8,327.7z M725.8,327.7c-0.6,3.6-1.1,7.1-1.5,10.3s-0.7,7.5-1.1,13c-0.4,5.5-0.4,10.3,0,14.6
						c0.4,4.3,1.2,8.6,2.4,12.9c1.2,4.3,3.1,7.6,5.8,10c2.7,2.4,6,3.5,9.8,3.5c4.7,0,9.1-1.8,13-5.5c4-3.6,7.2-7.8,9.7-12.5
						s4.7-10.5,6.8-17.4c2-6.9,3.4-12.3,4.2-16.2c0.8-4,1.5-8.2,2.4-12.7c0.4-3.6,0.9-7.1,1.3-10.3s0.8-7.5,1.1-13
						c0.3-5.5,0.3-10.3-0.2-14.6c-0.4-4.3-1.2-8.6-2.2-12.9c-1.1-4.3-3-7.6-5.6-10c-2.7-2.4-6.1-3.5-10.2-3.5
						c-4.5,0-8.8,1.8-12.9,5.5c-4.1,3.6-7.3,7.8-9.7,12.5c-2.4,4.7-4.6,10.5-6.6,17.4c-2,6.9-3.5,12.3-4.3,16.2
						S726.4,323.2,725.8,327.7L725.8,327.7z"/>
				</g>
			</g>
		</g>
		<g>
			<path class="st4" d="M546.5,459.8c27-10.3,41.8,36.6,2.3,70.2c4.3,2.4,8.5,3,12.4,1.6c2.8-1.1,4.3-2.9,4-5.3
				c10.3-3.9,15.9,15.8-2.2,22.7c-10.5,4-22.2,1.4-33.7-6c-4.4,2.3-8.9,4.2-14,6.2c-38.5,14.8-60.8-4.9-64.4-25.8
				c-3.8-21.3,9.2-42.3,24.6-61c-9.4-34.3-4.4-68.4,29-81.2c23.3-8.9,35.5,6.4,35.8,21c0.6,20.8-17.5,40.4-34.3,59.9
				c6.9,20.7,17.5,41.9,28.6,55.5c15.2-18.6,10-43.2-3.6-38C531.8,471.3,537.5,463.2,546.5,459.8L546.5,459.8z M513.9,532.2
				c0.5-0.2,1.1-0.4,1.7-0.6c-11.4-11-21.9-25.9-29.9-42.2c-5,8.9-7.7,17.9-6,27.1C482.2,531.3,496.7,538.8,513.9,532.2L513.9,532.2
				z M517,406.5c0.4-3.9-1.2-11.8-8.5-9c-10.1,3.9-12.1,19-9.1,37.6C508.7,424.2,515.9,414.7,517,406.5L517,406.5z"/>
			<path class="st3" d="M490.2,557.3c-10,0-17.5-2.7-22.7-5.7c-10.3-5.9-17.4-16-19.5-27.8c-4.1-23.2,10.6-45.3,24.2-62.2
				c-4.8-18.2-5.1-35.1-1.1-48.8c4.9-16.5,15.8-28.1,32.3-34.5c13.9-5.3,23-2.2,28.3,1.3c7,4.7,11.4,13.1,11.6,22.4
				c0.6,20.6-15.9,39.8-31.9,58.2c-0.7,0.8-1.4,1.6-2,2.3c6.5,19.1,15.7,37.3,25.2,49.9c7.8-11.5,7.5-23.7,3.9-28.5
				c-1.6-2.2-3.7-2.8-6.4-1.7l-4.4,1.7l0.4-4.7c0.8-9.8,7.5-18.6,17.3-22.3l0,0c10.4-4,20.4-0.6,26,9c8.9,14.9,5.6,41.5-17.1,63.1
				c2.1,0.5,4,0.4,5.8-0.3c1.1-0.4,2.3-1.1,2.2-2.2l-0.3-2.3l2.2-0.8c5.4-2.1,10.6,0.4,12.8,6c2.8,7.3-0.7,17.7-12.8,22.3
				c-10.5,4-22.5,2.2-34.9-5.4c-3.7,1.9-7.7,3.6-12.8,5.6C506.3,555.8,497.6,557.3,490.2,557.3L490.2,557.3z M517.5,381.5
				c-3.7,0-7.6,0.8-11.9,2.5c-39.5,15.2-32.2,59.3-27.2,77.6l0.4,1.5l-1,1.2c-13.1,16-27.7,37.2-24,58.6c1.7,10,7.8,18.6,16.5,23.6
				c8,4.6,22.1,8.2,43.9-0.1c5.5-2.1,9.8-4,13.7-6.1l1.5-0.8l1.5,1c7.8,5,19.5,10.1,31,5.7c5-1.9,12.1-7.6,9.4-14.6
				c-0.4-0.9-1.3-2.8-3.3-2.9c-0.7,2.5-2.7,4.5-5.8,5.7c-4.5,1.7-9.7,1.1-14.9-1.7l-3.8-2.1l3.3-2.8c23.4-20,27.5-45.2,19.4-58.7
				c-4.2-7-11-9.4-18.7-6.4c-6.1,2.4-10.9,7.4-12.7,13.3c3.4,0.1,6.4,1.7,8.6,4.7c5.7,7.9,4.9,25-6.4,38.9l-2.3,2.8l-2.3-2.8
				c-11-13.5-21.9-34.6-29.2-56.4l-0.5-1.6l1.1-1.3c1-1.2,2.1-2.4,3.1-3.6c15.2-17.6,31-35.8,30.4-54.2c-0.2-7.3-3.6-14-8.9-17.6
				C525.3,382.5,521.7,381.5,517.5,381.5L517.5,381.5z M501.6,537.6c-4.8,0-9.3-1.1-13.2-3.3c-6.2-3.6-10.4-9.7-11.7-17.3
				c-1.6-9.1,0.4-18.7,6.4-29.1l2.8-5l2.5,5.1c7.8,15.9,18.1,30.6,29.2,41.4l3.4,3.3l-6,2.3C510.4,536.8,505.9,537.6,501.6,537.6
				L501.6,537.6z M485.7,496c-3.2,7.2-4.2,13.8-3.1,20c1,5.8,4.1,10.5,8.8,13.1c5.1,2.9,11.7,3.3,18.7,1.2
				C501,520.8,492.5,508.9,485.7,496L485.7,496z M497.4,442l-1-6.4c-3.6-22.6,0.2-36.7,11-40.9c4.2-1.6,7-0.5,8.6,0.8
				c3.7,2.8,4.2,8.4,3.9,11.3v0.1c-1.1,8.5-7.6,17.5-18.3,30.2L497.4,442L497.4,442z M511.4,399.9c-0.5,0-1.1,0.1-1.8,0.4
				c-8.6,3.3-9,17.5-8.1,27.6c6.3-7.7,11.7-15.4,12.5-21.8c0.2-2.1-0.4-5-1.6-5.9C512.2,400,511.8,399.9,511.4,399.9L511.4,399.9z"
				/>
		</g>
	</g>
</g>
</svg>
