<?xml version="1.0" encoding="utf-8"?>
<!-- Generator: Adobe Illustrator 26.4.1, SVG Export Plug-In . SVG Version: 6.00 Build 0)  -->
<svg version="1.1" id="Layer_2_00000106850708760588074310000003930898903189072812_"
	 xmlns="http://www.w3.org/2000/svg" xmlns:xlink="http://www.w3.org/1999/xlink" x="0px" y="0px" viewBox="0 0 1417.3 708.7"
	 style="enable-background:new 0 0 1417.3 708.7;" xml:space="preserve">
<style type="text/css">
	.st0{fill:#ED1C24;}
	.st1{fill:#FFFFFF;}
	.st2{fill:#231F20;}
	.st3{fill:#808285;}
	.st4{fill:none;}
</style>
<g id="Layer_1-2">
	<g>
		<path class="st0" d="M387.9,320.7l285-288.5c19.6-19.8,51.3-19.8,70.8,0l285,288.5c19.6,19.8,19.6,51.9,0,71.7l-285,288.5
			c-19.6,19.8-51.3,19.8-70.8,0l-285-288.5C368.3,372.6,368.3,340.5,387.9,320.7z"/>
		<g>
			<path class="st1" d="M708.3,654.6c-11.2,0-21.7-4.4-29.7-12.4L422.8,383.3c-7.9-8-12.3-18.7-12.3-30s4.4-22,12.3-30L678.6,64.3
				c7.9-8,18.5-12.4,29.7-12.4c11.2,0,21.7,4.4,29.7,12.4l255.7,258.9c7.9,8,12.3,18.7,12.3,30s-4.4,22-12.3,30L737.9,642.2
				C730,650.2,719.5,654.6,708.3,654.6L708.3,654.6z"/>
			<path class="st2" d="M981.4,331.2c5.8,5.9,9,13.7,9,22s-3.2,16.1-9,22L730,629.8c-5.8,5.9-13.5,9.1-21.7,9.1s-15.9-3.2-21.7-9.1
				L435.1,375.3c-5.8-5.9-9-13.7-9-22s3.2-16.1,9-22L686.5,76.7c5.8-5.9,13.5-9.1,21.7-9.1s15.9,3.2,21.7,9.1L981.4,331.2
				L981.4,331.2z"/>
		</g>
		<g>
			<g>
				<g>
					<path class="st1" d="M834.3,242l-31.1,199.2h-51.1l-21.7-114.9l-0.5,0.5c-0.3,3.9-0.8,9.7-1.3,17.6s-1.1,14.8-1.7,20.9
						s-1.4,11.9-2.2,17.6l-9.1,58.4h-51.1L695.4,242h50.6l24,119.9l0.5-0.5c0.3-4.9,0.7-12.1,1-21.7c0.3-9.5,0.8-18,1.3-25.5
						c0.5-7.5,1.3-14.7,2.4-21.5l7.8-50.7L834.3,242 M834.3,224.6h-51.1c-8.5,0-15.7,6.2-17,14.7l-1.3,8.7l-1.9-9.4
						c-1.6-8.1-8.7-13.9-16.8-13.9h-50.6c-8.5,0-15.7,6.2-17,14.7l-31.1,199.2c-0.8,5,0.6,10.1,3.9,14c3.3,3.9,8,6.1,13.1,6.1h51.1
						c8.5,0,15.7-6.2,17-14.7l1.2-7.5l1.5,8c1.6,8.2,8.6,14.1,16.9,14.1h51.1c8.5,0,15.7-6.2,17-14.7l31.1-199.2
						c0.8-5-0.6-10.1-3.9-14C844.1,226.8,839.3,224.6,834.3,224.6L834.3,224.6L834.3,224.6z"/>
					<path class="st1" d="M937.6,242l-7.3,47h-45.7l-4.2,27.7h41l-7.6,47h-41l-4.7,30.4h45.7l-7.3,47h-98.9L838.7,242L937.6,242
						 M937.6,224.6h-98.9c-8.5,0-15.7,6.2-17,14.7l-31.1,199.2c-0.8,5,0.6,10.1,3.9,14c3.3,3.9,8,6.1,13.1,6.1h98.9
						c8.5,0,15.7-6.2,17-14.7l7.3-47c0.8-5-0.7-10.1-3.9-14c-1.3-1.6-2.9-2.9-4.7-3.9c4.5-2.5,7.7-7,8.6-12.4l7.6-47
						c0.8-4.9-0.5-9.9-3.6-13.7c6.4-1.8,11.4-7.2,12.5-14.1l7.3-47c0.8-5-0.7-10.1-3.9-14C947.4,226.8,942.6,224.6,937.6,224.6
						L937.6,224.6L937.6,224.6z"/>
					<path class="st1" d="M1013,238.5c15.5,0,28.4,4.4,38.6,13.3c10.3,8.9,17.2,20.8,20.9,35.8L1018,307c0.5-4.8-0.3-9.3-2.4-13.7
						c-2.1-4.4-5.2-6.6-9.4-6.6c-3.1,0-6.1,0.8-8.9,2.4c-2.8,1.6-5.1,3.5-7,5.8c-1.9,2.3-3.7,5.3-5.4,9.1c-1.7,3.8-3,7.1-3.9,10
						c-1,2.9-1.9,6.6-2.9,11.1c-1,4.5-1.7,7.9-2.1,10.2c-0.4,2.3-0.9,5.2-1.4,8.7c-0.2,1.6-0.3,2.7-0.5,3.4c0,0.9-0.2,2.6-0.5,5.3
						c-0.4,2.6-0.6,4.9-0.8,6.7c-0.2,1.9-0.3,4.2-0.5,7c-0.2,2.8-0.2,5.3-0.1,7.4c0.1,2.1,0.3,4.4,0.5,6.9c0.3,2.5,0.7,4.6,1.4,6.3
						s1.6,3.4,2.6,4.9c1,1.5,2.4,2.6,4.2,3.4c1.7,0.8,3.7,1.2,6,1.2c6.3,0,11.3-3,15.3-9c3.9-6,6.4-12.5,7.4-19.5h-19.6l6.5-42h74.1
						l-1,8.5c-1.7,11.1-3.8,21.3-6.1,30.5c-2.4,9.2-5.8,19-10.4,29.3c-4.6,10.3-10,18.9-16.1,25.9s-13.9,12.8-23.5,17.4
						c-9.6,4.7-20.3,7-32.1,7c-9.4,0-17.8-1.3-25.2-4c-7.4-2.6-13.4-6.4-18.1-11.2c-4.7-4.8-8.6-10.4-11.7-16.8
						c-3.1-6.3-5.3-13.4-6.4-21.1c-1.1-7.8-1.7-15.7-1.6-23.8c0.1-8.1,0.8-16.5,2.2-25.1c1.6-10.4,3.9-20.3,6.9-29.9
						s7.2-18.8,12.4-28c5.2-9.2,11.2-17.1,17.9-23.8c6.7-6.7,14.8-12.1,24.4-16.2C991.8,240.6,1002.1,238.5,1013,238.5 M1013,221.1
						c-13.2,0-25.9,2.6-37.5,7.6c-11.5,5-21.5,11.7-29.7,19.9c-7.8,7.8-14.7,17-20.7,27.5c-5.8,10.2-10.5,20.7-13.9,31.3
						c-3.3,10.3-5.8,21.2-7.5,32.5c-1.5,9.4-2.3,18.7-2.4,27.6c-0.1,9,0.5,17.9,1.7,26.5c1.4,9.5,4.1,18.4,8,26.4
						c3.9,7.9,8.9,15.1,14.9,21.2c6.5,6.7,14.8,11.9,24.7,15.4c9.2,3.3,19.6,5,30.9,5c14.4,0,27.7-2.9,39.6-8.7
						c11.6-5.6,21.3-12.9,28.9-21.6c7.2-8.2,13.5-18.4,18.8-30.2c5-11.2,8.9-22,11.4-32.2c2.5-9.7,4.6-20.5,6.5-32.1
						c0-0.2,0.1-0.4,0.1-0.6l1-8.5c0.6-5-0.9-9.9-4.2-13.7c-3.3-3.7-8-5.9-12.9-5.9h-5.2l12.7-4.5c8.4-3,13.1-11.9,11-20.6
						c-4.5-18.5-13.4-33.6-26.4-44.8C1049.4,227,1032.6,221.1,1013,221.1L1013,221.1L1013,221.1z"/>
					<path class="st1" d="M1132,242c12.3,0,22.9,1,31.7,3c8.8,2,16.5,5.5,23.2,10.3c6.7,4.8,11.3,11.7,13.7,20.5
						c2.4,8.8,2.7,19.6,0.8,32.5c-1.9,11.5-6.1,21.6-12.5,30.5c-6.4,8.9-15.1,15.4-25.8,19.4l26.6,82.9H1132l-16.4-83l-0.8,0.5
						c-0.2,2.1-0.5,5.2-1,9.2s-1,7.7-1.4,11c-0.4,3.3-0.8,6.3-1.2,9.1l-8.3,53.1h-53.2l31.1-199.2L1132,242 M1122.9,334.2
						c6.8,0,12.5-2.5,17.1-7.5c4.6-5,7.4-11,8.5-17.8c1.4-8.5,0.1-14.7-3.8-18.6c-3.6-3.6-8.8-5.5-15.5-5.5c-0.6,0-1.2,0-1.8,0
						l-7.8,49.1L1122.9,334.2 M1132,224.5h-51.4c-8.5,0-15.7,6.2-17,14.7l-31.1,199.2c-0.8,5,0.6,10.1,3.9,14
						c3.3,3.9,8,6.1,13.1,6.1h53.2c6.1,0,11.6-3.2,14.6-8.2c3.1,5,8.5,8.2,14.6,8.2h57.7c5.5,0,10.7-2.7,13.9-7.2
						c3.2-4.5,4.1-10.3,2.4-15.6L1184,367c7.3-4.8,13.6-10.8,18.8-17.9c8-11,13.2-23.8,15.6-37.9c0-0.1,0-0.2,0-0.3
						c2.3-15.5,1.9-28.5-1.2-39.8c-3.5-12.7-10.3-22.8-20.3-29.9c-8.5-6.2-18.4-10.6-29.4-13.1
						C1157.5,225.7,1145.6,224.6,1132,224.5L1132,224.5L1132,224.5z"/>
					<path class="st1" d="M1281,238.5c8.9,0,16.8,1.4,23.7,4.2c7,2.8,12.7,6.7,17.4,11.8c4.6,5,8.5,10.8,11.6,17.3
						c3.1,6.5,5.3,13.6,6.5,21.4s1.8,15.7,1.8,23.8s-0.6,16.3-1.8,24.6c-1.6,10-4,19.9-7.2,29.5c-3.2,9.6-7.5,18.9-12.8,27.9
						c-5.3,9-11.3,16.8-18,23.5c-6.7,6.7-14.7,12.1-23.9,16.1c-9.2,4-19.1,6.1-29.5,6.1c-8.7,0-16.6-1.4-23.6-4.2
						c-7-2.8-12.9-6.7-17.5-11.8c-4.6-5-8.4-10.8-11.5-17.3c-3-6.5-5.2-13.6-6.5-21.4c-1.3-7.8-2-15.7-2-23.8s0.7-16.3,2.1-24.6
						c1.6-10,4-19.9,7.2-29.5c3.2-9.6,7.4-18.9,12.7-27.9c5.2-9,11.2-16.8,18-23.5c6.8-6.7,14.8-12.1,24-16.1
						C1261,240.6,1270.8,238.5,1281,238.5 M1256.8,394.4c3.8,0,7.3-1.5,10.6-4.5c3.2-3,5.8-6.4,7.8-10.3c2-3.9,3.8-8.6,5.5-14.3
						c1.6-5.6,2.8-10.1,3.4-13.3c0.6-3.3,1.3-6.7,2-10.4c0.3-3,0.7-5.8,1-8.5c0.3-2.6,0.7-6.2,0.9-10.7c0.3-4.5,0.2-8.5-0.1-12
						c-0.4-3.5-1-7-1.8-10.6c-0.9-3.5-2.4-6.2-4.6-8.2c-2.2-1.9-4.9-2.9-8.2-2.9c-3.7,0-7.1,1.5-10.4,4.5c-3.3,3-5.9,6.4-7.8,10.3
						c-1.9,3.9-3.7,8.6-5.4,14.3c-1.7,5.6-2.8,10.1-3.5,13.3c-0.7,3.3-1.3,6.7-1.8,10.4c-0.5,3-0.9,5.8-1.2,8.5
						c-0.3,2.6-0.6,6.2-0.9,10.7c-0.3,4.5-0.3,8.5,0,12c0.3,3.5,1,7,2,10.6c1,3.5,2.5,6.2,4.7,8.2
						C1251,393.4,1253.6,394.4,1256.8,394.4 M1281,221.1c-12.6,0-24.7,2.5-36.1,7.5c-11.1,4.9-20.9,11.5-29.2,19.6
						c-7.9,7.8-14.9,16.9-20.8,27.1c-5.8,10-10.5,20.4-14.1,31.1c-3.5,10.4-6.1,21.3-7.9,32.2c-1.5,9.2-2.3,18.4-2.3,27.4
						s0.7,18,2.2,26.7c1.6,9.3,4.2,18,7.9,25.9c3.8,8.1,8.6,15.4,14.4,21.7c6.3,6.9,14.3,12.3,23.8,16.1c9,3.6,19.1,5.4,29.9,5.4
						c12.8,0,25-2.5,36.3-7.5c11.1-4.9,20.9-11.5,29.1-19.7c7.7-7.7,14.6-16.8,20.7-27c5.9-10,10.7-20.5,14.3-31.2
						c3.5-10.5,6.2-21.4,7.9-32.3c0,0,0-0.1,0-0.2c1.3-9.1,2-18.2,2-27.1s-0.7-17.9-2-26.5c-1.5-9.4-4.2-18.3-8-26.3
						c-3.9-8-8.7-15.3-14.5-21.5c-6.3-6.9-14.3-12.3-23.6-16.1C1302.2,223,1292.1,221.1,1281,221.1L1281,221.1L1281,221.1z"/>
				</g>
				<g>
					<path class="st2" d="M664.4,441.2L695.4,242h50.6l24,119.9l0.5-0.5c0.3-4.9,0.7-12.1,1-21.7c0.3-9.5,0.8-18,1.3-25.5
						c0.5-7.5,1.3-14.7,2.4-21.5l7.8-50.7h51.1l-31.1,199.2h-51.1l-21.7-114.9l-0.5,0.5c-0.3,3.9-0.8,9.7-1.3,17.6
						c-0.5,7.8-1.1,14.8-1.7,20.9s-1.4,11.9-2.2,17.6l-9.1,58.4L664.4,441.2L664.4,441.2z"/>
					<path class="st2" d="M807.7,441.2L838.7,242h98.9l-7.3,47h-45.7l-4.2,27.7h41l-7.6,47h-41l-4.7,30.4h45.7l-7.3,47L807.7,441.2
						L807.7,441.2z"/>
					<path class="st2" d="M996.6,326h74.1l-1,8.5c-1.7,11.1-3.8,21.3-6.1,30.5c-2.4,9.2-5.8,19-10.4,29.3
						c-4.6,10.3-10,18.9-16.1,25.9s-13.9,12.8-23.5,17.4c-9.6,4.7-20.3,7-32.1,7c-9.4,0-17.8-1.3-25.2-4
						c-7.4-2.6-13.4-6.4-18.1-11.2c-4.7-4.8-8.6-10.4-11.7-16.8c-3.1-6.3-5.3-13.4-6.4-21.1c-1.1-7.8-1.7-15.7-1.6-23.8
						c0.1-8.1,0.8-16.5,2.2-25.1c1.6-10.4,3.9-20.3,6.9-29.9s7.2-18.8,12.4-28c5.2-9.2,11.2-17.1,17.9-23.8
						c6.7-6.7,14.8-12.1,24.4-16.2c9.6-4.1,19.8-6.2,30.8-6.2c15.5,0,28.4,4.4,38.6,13.3c10.3,8.9,17.2,20.8,20.9,35.8L1018,307
						c0.5-4.8-0.3-9.3-2.4-13.7c-2.1-4.4-5.2-6.6-9.4-6.6c-3.1,0-6.1,0.8-8.9,2.4c-2.8,1.6-5.1,3.5-7,5.8c-1.9,2.3-3.7,5.3-5.4,9.1
						c-1.7,3.8-3,7.1-3.9,10c-1,2.9-1.9,6.6-2.9,11.1s-1.7,7.9-2.1,10.2c-0.4,2.3-0.9,5.2-1.4,8.7c-0.2,1.6-0.4,2.7-0.5,3.4
						c0,0.9-0.2,2.6-0.5,5.3c-0.4,2.6-0.6,4.9-0.8,6.7c-0.2,1.9-0.4,4.2-0.5,7c-0.2,2.8-0.2,5.3-0.1,7.4c0.1,2.1,0.3,4.4,0.5,6.9
						c0.3,2.5,0.7,4.6,1.4,6.3s1.6,3.4,2.6,4.9c1,1.5,2.4,2.6,4.2,3.4c1.7,0.8,3.7,1.2,6,1.2c6.3,0,11.3-3,15.3-9
						c3.9-6,6.4-12.5,7.4-19.5h-19.6L996.6,326L996.6,326z"/>
					<path class="st2" d="M1189.7,441.2H1132l-16.4-82.9l-0.8,0.5c-0.2,2.1-0.5,5.2-1,9.2s-1,7.7-1.4,11c-0.4,3.3-0.8,6.3-1.2,9.1
						l-8.3,53.1h-53.2l31.1-199.2h51.4c12.3,0,22.9,1,31.7,3c8.8,2,16.5,5.5,23.2,10.3c6.7,4.8,11.3,11.7,13.7,20.5
						c2.4,8.8,2.7,19.6,0.8,32.5c-1.9,11.5-6.1,21.6-12.5,30.5c-6.4,8.9-15.1,15.4-25.8,19.4L1189.7,441.2L1189.7,441.2z
						 M1119.5,333.9l3.4,0.3c6.8,0,12.5-2.5,17.1-7.5c4.6-5,7.4-11,8.5-17.8c1.4-8.5,0.1-14.7-3.8-18.6c-3.9-4-9.7-5.8-17.4-5.4
						L1119.5,333.9L1119.5,333.9z"/>
					<path class="st2" d="M1189.9,341.6c1.6-10,4-19.9,7.2-29.5c3.2-9.6,7.4-18.9,12.7-27.9c5.2-9,11.2-16.8,18-23.5
						c6.8-6.7,14.8-12.1,24-16.1c9.2-4.1,19-6.1,29.2-6.1c8.9,0,16.8,1.4,23.7,4.2c7,2.8,12.7,6.7,17.4,11.8
						c4.6,5,8.5,10.8,11.6,17.3c3.1,6.5,5.3,13.6,6.5,21.4s1.8,15.7,1.8,23.8s-0.6,16.3-1.8,24.6c-1.6,10-4,19.9-7.2,29.5
						c-3.2,9.6-7.5,18.9-12.8,27.9c-5.3,9-11.3,16.8-18,23.5c-6.7,6.7-14.7,12.1-23.9,16.1c-9.2,4-19.1,6.1-29.5,6.1
						c-8.7,0-16.6-1.4-23.6-4.2c-7-2.8-12.9-6.7-17.5-11.8c-4.6-5-8.4-10.8-11.5-17.3c-3-6.5-5.2-13.6-6.5-21.4
						c-1.3-7.8-2-15.7-2-23.8S1188.6,349.9,1189.9,341.6L1189.9,341.6z M1244.2,341.6c-0.5,3-0.9,5.8-1.2,8.5
						c-0.3,2.6-0.6,6.2-0.9,10.7c-0.4,4.5-0.4,8.5,0,12c0.3,3.5,1,7,2,10.6c1,3.5,2.5,6.2,4.7,8.2c2.2,1.9,4.8,2.9,8,2.9
						c3.8,0,7.3-1.5,10.6-4.5c3.2-3,5.8-6.4,7.8-10.3c2-3.9,3.8-8.6,5.5-14.3c1.6-5.6,2.8-10.1,3.4-13.3c0.6-3.3,1.3-6.7,2-10.4
						c0.3-3,0.7-5.8,1-8.5c0.3-2.6,0.7-6.2,0.9-10.7s0.2-8.5-0.1-12c-0.4-3.5-1-7-1.8-10.6c-0.9-3.5-2.4-6.2-4.6-8.2
						c-2.2-1.9-4.9-2.9-8.2-2.9c-3.7,0-7.1,1.5-10.4,4.5c-3.3,3-5.9,6.4-7.8,10.3c-1.9,3.9-3.7,8.6-5.4,14.3
						c-1.7,5.6-2.8,10.1-3.5,13.3S1244.7,337.9,1244.2,341.6L1244.2,341.6z"/>
				</g>
			</g>
			<g>
				<g>
					<path class="st1" d="M169.2,230.7c13.8,0,25.6,1.1,35.4,3.4c9.8,2.3,18.4,6.1,25.9,11.5c7.5,5.4,12.6,13,15.3,22.8
						c2.7,9.8,3,21.9,0.9,36.2c-2.1,12.8-6.8,24.1-14,34c-7.2,9.9-16.8,17.1-28.8,21.6l29.7,92.4h-64.4l-18.3-92.4l-0.9,0.6
						c-0.2,2.4-0.6,5.8-1.2,10.3c-0.6,4.5-1.1,8.6-1.6,12.2c-0.5,3.6-0.9,7-1.3,10.1l-9.3,59.1H77.2l34.7-221.8L169.2,230.7
						 M159,333.4c7.6,0,13.9-2.8,19.1-8.4s8.3-12.2,9.5-19.9c1.6-9.4,0.1-16.3-4.2-20.7c-4-4-9.8-6.1-17.3-6.1c-0.7,0-1.4,0-2,0
						l-8.7,54.7L159,333.4 M169.3,211.3h-57.4c-9.4,0-17.4,6.9-18.9,16.4L58.3,449.4c-0.9,5.6,0.7,11.3,4.4,15.6
						c3.6,4.3,9,6.8,14.6,6.8h59.4c6.8,0,12.9-3.6,16.3-9.2c3.4,5.6,9.5,9.2,16.3,9.2h64.4c6.1,0,11.9-3,15.5-8
						c3.6-5,4.6-11.5,2.7-17.4l-24.6-76.5c8.2-5.3,15.2-12,21-20c8.9-12.3,14.8-26.5,17.4-42.2c0-0.1,0-0.2,0.1-0.4
						c2.6-17.2,2.1-31.7-1.4-44.3c-3.9-14.1-11.5-25.3-22.6-33.4c-9.5-6.9-20.6-11.8-32.8-14.6C197.7,212.6,184.4,211.3,169.3,211.3
						L169.3,211.3L169.3,211.3z"/>
					<path class="st1" d="M335.5,226.9c9.9,0,18.7,1.6,26.5,4.7c7.8,3.1,14.2,7.5,19.4,13.1c5.1,5.6,9.5,12,13,19.3
						c3.5,7.3,5.9,15.2,7.3,23.8c1.4,8.6,2,17.5,2,26.5s-0.7,18.1-2,27.4c-1.7,11.2-4.4,22.1-8,32.8c-3.6,10.7-8.3,21-14.3,31
						s-12.6,18.7-20.1,26.2c-7.5,7.5-16.4,13.4-26.7,17.9c-10.3,4.5-21.3,6.8-32.9,6.8c-9.7,0-18.5-1.6-26.4-4.7
						c-7.9-3.1-14.4-7.5-19.5-13.1c-5.1-5.6-9.4-12-12.8-19.3c-3.4-7.2-5.8-15.2-7.3-23.8s-2.2-17.5-2.2-26.5s0.8-18.1,2.3-27.4
						c1.7-11.2,4.4-22.1,8-32.8c3.6-10.7,8.3-21,14.1-31c5.8-10,12.5-18.7,20.1-26.2c7.6-7.4,16.5-13.4,26.8-17.9
						C313.2,229.1,324.1,226.9,335.5,226.9 M308.4,400.4c4.3,0,8.2-1.7,11.8-5c3.6-3.3,6.5-7.1,8.7-11.5c2.2-4.3,4.3-9.6,6.1-15.9
						c1.8-6.3,3.1-11.2,3.8-14.9s1.4-7.5,2.2-11.6c0.4-3.3,0.8-6.5,1.2-9.4c0.4-2.9,0.7-6.9,1-11.9c0.3-5,0.2-9.5-0.1-13.4
						c-0.4-3.9-1.1-7.8-2-11.8c-1-3.9-2.7-7-5.1-9.1s-5.5-3.2-9.2-3.2c-4.1,0-8,1.7-11.6,5c-3.7,3.3-6.6,7.2-8.7,11.5
						c-2.1,4.3-4.1,9.6-6,15.9c-1.8,6.3-3.2,11.2-3.9,14.9c-0.8,3.6-1.5,7.5-2,11.6c-0.6,3.3-1,6.5-1.3,9.4s-0.6,6.9-1,11.9
						c-0.4,5-0.4,9.5,0,13.4c0.4,3.9,1.1,7.8,2.2,11.8c1.1,3.9,2.8,7,5.2,9.1S304.9,400.4,308.4,400.4 M335.5,207.5
						c-14,0-27.6,2.8-40.2,8.4c-12.4,5.4-23.3,12.8-32.5,21.8c-8.8,8.6-16.6,18.8-23.2,30.2c-6.5,11.1-11.8,22.8-15.8,34.6
						c-3.9,11.6-6.9,23.7-8.8,35.9c-1.7,10.2-2.6,20.5-2.6,30.5s0.8,20.1,2.5,29.7c1.7,10.3,4.7,20,8.9,28.9
						c4.2,9,9.6,17.1,16.1,24.2c7.1,7.7,16,13.7,26.5,17.9c10.1,4,21.3,6,33.4,6c14.2,0,27.8-2.8,40.5-8.4
						c12.4-5.5,23.4-12.8,32.5-21.9c8.6-8.6,16.3-18.7,23.1-30c6.6-11.1,12-22.8,16-34.8c3.9-11.7,6.9-23.8,8.8-36
						c0-0.1,0-0.1,0-0.2c1.5-10.1,2.3-20.3,2.3-30.2s-0.8-19.9-2.3-29.5c-1.6-10.5-4.7-20.3-9-29.3s-9.7-17-16.2-24
						c-7.1-7.7-15.9-13.7-26.3-17.9C359.1,209.5,347.8,207.5,335.5,207.5L335.5,207.5L335.5,207.5z"/>
					<path class="st1" d="M507.6,230.7L484,381c-1,7.5-2.2,14-3.6,19.6c-1.5,5.6-3.9,12.1-7.4,19.6c-3.5,7.5-7.7,13.6-12.7,18.5
						c-4.9,4.9-11.6,9.1-20.1,12.5c-8.4,3.4-18.2,5.1-29.3,5.1c-12.6,0-25.3-2.4-38.1-7.1l9.6-62.1c4.8,8.6,12.2,12.9,22.1,12.9
						c3.9,0,7.2-0.9,10-2.8c2.8-1.9,5-4.6,6.5-8.1c1.6-3.5,2.7-6.7,3.3-9.4c0.7-2.7,1.4-6.3,2.2-10.6l21.6-138.5L507.6,230.7
						 M507.6,211.3h-59.4c-9.4,0-17.5,6.9-18.9,16.4L407.8,366c-0.7,3.8-1.3,6.9-1.9,9.1c-0.3,1-0.8,2.9-2,5.6
						c-2.7-0.1-3.6-0.9-4.9-3.1c-3.4-6.1-9.8-9.8-16.6-9.8c-1.1,0-2.3,0.1-3.4,0.3c-8,1.5-14.2,7.9-15.5,16.1l-9.6,62.1
						c-1.4,9.2,3.8,18.1,12.4,21.2c14.9,5.5,29.9,8.2,44.7,8.2c13.5,0,25.7-2.2,36.4-6.5c10.7-4.4,19.6-10,26.4-16.6
						c6.5-6.5,12.1-14.6,16.6-24.1c4-8.6,6.9-16.1,8.6-22.9c1.6-6.3,3-13.6,4.1-21.7l23.5-150.1c0.9-5.6-0.7-11.3-4.3-15.6
						C518.6,213.8,513.2,211.3,507.6,211.3L507.6,211.3L507.6,211.3z"/>
					<path class="st1" d="M590.3,226.9c9.9,0,18.7,1.6,26.5,4.7c7.8,3.1,14.2,7.5,19.4,13.1c5.1,5.6,9.5,12,13,19.3
						c3.5,7.3,5.9,15.2,7.3,23.8c1.4,8.6,2,17.5,2,26.5s-0.7,18.1-2,27.4c-1.7,11.2-4.4,22.1-8,32.8c-3.6,10.7-8.3,21-14.3,31
						c-5.9,10-12.6,18.7-20.1,26.2c-7.5,7.5-16.4,13.4-26.7,17.9c-10.3,4.5-21.3,6.8-32.9,6.8c-9.7,0-18.5-1.6-26.4-4.7
						c-7.9-3.1-14.4-7.5-19.5-13.1c-5.1-5.6-9.4-12-12.8-19.3c-3.4-7.2-5.8-15.2-7.3-23.8c-1.5-8.6-2.2-17.5-2.2-26.5
						s0.8-18.1,2.3-27.4c1.7-11.2,4.4-22.1,8-32.8c3.6-10.7,8.3-21,14.1-31c5.8-10,12.5-18.7,20.1-26.2c7.6-7.4,16.5-13.4,26.8-17.9
						C568,229.1,578.9,226.9,590.3,226.9 M563.2,400.4c4.3,0,8.2-1.7,11.8-5c3.6-3.3,6.5-7.1,8.7-11.5c2.2-4.3,4.3-9.6,6.1-15.9
						c1.8-6.3,3.1-11.2,3.8-14.9s1.4-7.5,2.2-11.6c0.4-3.3,0.8-6.5,1.2-9.4c0.4-2.9,0.7-6.9,1-11.9c0.3-5,0.2-9.5-0.1-13.4
						c-0.4-3.9-1.1-7.8-2-11.8c-1-3.9-2.7-7-5.1-9.1c-2.4-2.2-5.5-3.2-9.2-3.2c-4.1,0-8,1.7-11.6,5c-3.7,3.3-6.6,7.2-8.7,11.5
						c-2.1,4.3-4.1,9.6-6,15.9c-1.8,6.3-3.2,11.2-3.9,14.9c-0.8,3.6-1.5,7.5-2,11.6c-0.6,3.3-1,6.5-1.3,9.4s-0.6,6.9-1,11.9
						c-0.4,5-0.4,9.5,0,13.4c0.4,3.9,1.1,7.8,2.2,11.8s2.8,7,5.2,9.1C556.8,399.3,559.7,400.4,563.2,400.4 M590.3,207.5
						c-14,0-27.6,2.8-40.2,8.4c-12.4,5.4-23.3,12.8-32.5,21.8c-8.8,8.6-16.6,18.8-23.2,30.2c-6.5,11.1-11.8,22.8-15.8,34.6
						c-3.9,11.6-6.9,23.7-8.8,35.9c-1.7,10.2-2.6,20.5-2.6,30.5s0.8,20.1,2.5,29.7c1.7,10.3,4.7,20,8.9,28.9
						c4.2,9,9.6,17.1,16.1,24.2c7.1,7.7,16,13.7,26.5,17.9c10.1,4,21.3,6,33.4,6c14.2,0,27.8-2.8,40.5-8.4
						c12.4-5.5,23.4-12.8,32.5-21.9c8.6-8.6,16.3-18.7,23.1-30c6.6-11.1,12-22.8,16-34.8c3.9-11.7,6.9-23.8,8.8-36
						c0-0.1,0-0.1,0-0.2c1.5-10.1,2.3-20.3,2.3-30.2s-0.8-19.9-2.3-29.5c-1.7-10.5-4.7-20.3-9-29.3c-4.3-8.9-9.7-17-16.2-24
						c-7.1-7.7-15.9-13.7-26.3-17.9C613.9,209.5,602.6,207.5,590.3,207.5L590.3,207.5L590.3,207.5z"/>
				</g>
				<g>
					<path class="st0" d="M233.9,452h-64.4l-18.3-92.4l-0.9,0.6c-0.2,2.4-0.6,5.8-1.2,10.3c-0.6,4.5-1.1,8.6-1.6,12.2
						c-0.5,3.6-0.9,7-1.3,10.1L137,452H77.6l34.7-221.8h57.4c13.8,0,25.6,1.1,35.4,3.4c9.8,2.3,18.4,6.1,25.9,11.5
						c7.5,5.4,12.6,13,15.3,22.8c2.7,9.8,3,21.9,0.9,36.2c-2.1,12.8-6.8,24.1-14,34c-7.2,9.9-16.8,17.1-28.8,21.6L233.9,452
						L233.9,452z M155.6,332.6l3.8,0.3c7.6,0,13.9-2.8,19.1-8.4s8.3-12.2,9.5-19.9c1.6-9.4,0.1-16.3-4.2-20.7
						c-4.4-4.4-10.8-6.4-19.4-6L155.6,332.6z"/>
					<path class="st0" d="M234.2,341.2c1.7-11.2,4.4-22.1,8-32.8c3.6-10.7,8.3-21,14.1-31c5.8-10,12.5-18.7,20.1-26.2
						c7.6-7.4,16.5-13.4,26.8-17.9c10.3-4.5,21.2-6.8,32.6-6.8c9.9,0,18.7,1.6,26.5,4.7c7.8,3.1,14.2,7.5,19.4,13.1
						c5.1,5.6,9.5,12,13,19.3c3.5,7.3,5.9,15.2,7.3,23.8c1.4,8.6,2,17.5,2,26.5s-0.7,18.1-2,27.4c-1.7,11.2-4.4,22.1-8,32.8
						c-3.6,10.7-8.3,21-14.3,31c-5.9,10-12.6,18.7-20.1,26.2c-7.5,7.5-16.4,13.4-26.7,17.9c-10.3,4.5-21.3,6.8-32.9,6.8
						c-9.7,0-18.5-1.6-26.4-4.7c-7.9-3.1-14.4-7.5-19.5-13.1c-5.1-5.6-9.4-12-12.8-19.3c-3.4-7.2-5.8-15.2-7.3-23.8
						s-2.2-17.5-2.2-26.5S232.7,350.4,234.2,341.2L234.2,341.2z M294.8,341.2c-0.6,3.3-1,6.5-1.3,9.4c-0.3,2.9-0.6,6.9-1,11.9
						c-0.4,5-0.4,9.5,0,13.4c0.4,3.9,1.1,7.8,2.2,11.8c1.1,3.9,2.8,7,5.2,9.1s5.4,3.2,8.9,3.2c4.3,0,8.2-1.7,11.8-5
						c3.6-3.3,6.5-7.2,8.7-11.5s4.3-9.6,6.1-15.9c1.8-6.3,3.1-11.2,3.8-14.9s1.4-7.5,2.2-11.6c0.4-3.3,0.8-6.5,1.2-9.4
						c0.4-2.9,0.7-6.9,1-11.9c0.3-5,0.2-9.5-0.1-13.4c-0.4-3.9-1.1-7.8-2-11.8c-1-3.9-2.7-7-5.1-9.1s-5.5-3.2-9.2-3.2
						c-4.1,0-8,1.7-11.6,5c-3.7,3.3-6.6,7.2-8.7,11.5c-2.1,4.3-4.1,9.6-6,15.9c-1.8,6.3-3.2,11.2-3.9,14.9
						C296,333.2,295.4,337,294.8,341.2L294.8,341.2z"/>
					<path class="st0" d="M373.1,448.8l9.6-62.1c4.9,8.6,12.2,12.9,22.1,12.9c3.9,0,7.2-0.9,10-2.8c2.8-1.9,5-4.6,6.5-8.1
						c1.6-3.5,2.7-6.7,3.3-9.4c0.7-2.7,1.4-6.3,2.2-10.6l21.6-138.5H508l-23.6,150.3c-1,7.5-2.2,14-3.6,19.6
						c-1.5,5.6-3.9,12.1-7.4,19.6c-3.5,7.5-7.7,13.6-12.7,18.5c-4.9,4.9-11.6,9.1-20.1,12.5c-8.4,3.4-18.2,5.1-29.3,5.1
						C398.6,455.9,385.9,453.5,373.1,448.8L373.1,448.8z"/>
					<path class="st0" d="M489,341.2c1.7-11.2,4.4-22.1,8-32.8c3.6-10.7,8.3-21,14.1-31c5.8-10,12.5-18.7,20.1-26.2
						c7.6-7.4,16.5-13.4,26.8-17.9c10.3-4.5,21.2-6.8,32.6-6.8c9.9,0,18.7,1.6,26.5,4.7c7.8,3.1,14.2,7.5,19.4,13.1
						c5.1,5.6,9.5,12,13,19.3c3.5,7.3,5.9,15.2,7.3,23.8c1.4,8.6,2,17.5,2,26.5s-0.7,18.1-2,27.4c-1.7,11.2-4.4,22.1-8,32.8
						c-3.6,10.7-8.3,21-14.3,31c-5.9,10-12.6,18.7-20.1,26.2c-7.5,7.5-16.4,13.4-26.7,17.9c-10.3,4.5-21.3,6.8-32.9,6.8
						c-9.7,0-18.5-1.6-26.4-4.7c-7.9-3.1-14.4-7.5-19.5-13.1c-5.1-5.6-9.4-12-12.8-19.3c-3.4-7.2-5.8-15.2-7.3-23.8
						s-2.2-17.5-2.2-26.5S487.5,350.4,489,341.2L489,341.2z M549.6,341.2c-0.6,3.3-1,6.5-1.3,9.4c-0.3,2.9-0.6,6.9-1,11.9
						c-0.4,5-0.4,9.5,0,13.4c0.4,3.9,1.1,7.8,2.2,11.8c1.1,3.9,2.8,7,5.2,9.1c2.4,2.2,5.4,3.2,8.9,3.2c4.3,0,8.2-1.7,11.8-5
						c3.6-3.3,6.5-7.2,8.7-11.5c2.2-4.3,4.3-9.6,6.1-15.9c1.8-6.3,3.1-11.2,3.8-14.9s1.4-7.5,2.2-11.6c0.4-3.3,0.8-6.5,1.2-9.4
						c0.4-2.9,0.7-6.9,1-11.9c0.3-5,0.2-9.5-0.1-13.4c-0.4-3.9-1.1-7.8-2-11.8c-1-3.9-2.7-7-5.1-9.1c-2.4-2.2-5.5-3.2-9.2-3.2
						c-4.1,0-8,1.7-11.6,5c-3.7,3.3-6.6,7.2-8.7,11.5c-2.1,4.3-4.1,9.6-6,15.9c-1.8,6.3-3.2,11.2-3.9,14.9
						C550.9,333.2,550.2,337,549.6,341.2L549.6,341.2z"/>
				</g>
			</g>
			<g>
				<path class="st3" d="M696.5,400.9c24.4-9.5,37.8,33.5,2.1,64.3c3.9,2.2,7.7,2.8,11.2,1.4c2.5-1,3.9-2.7,3.7-4.9
					c9.3-3.6,14.4,14.4-2,20.8c-9.5,3.7-20.1,1.2-30.4-5.5c-4,2.1-8,3.9-12.7,5.7c-34.8,13.5-55-4.5-58.2-23.6
					c-3.4-19.5,8.4-38.7,22.2-55.8c-8.5-31.4-3.9-62.6,26.2-74.3c21.1-8.2,32.1,5.8,32.4,19.2c0.6,19-15.9,37-31,54.8
					c6.2,19,15.9,38.3,25.9,50.8c13.7-17.1,9-39.5-3.3-34.7C683.2,411.4,688.4,404,696.5,400.9L696.5,400.9z M667.1,467.2
					c0.5-0.2,1-0.4,1.5-0.6c-10.3-10.1-19.8-23.7-27-38.6c-4.5,8.1-6.9,16.4-5.4,24.8C638.4,466.4,651.5,473.3,667.1,467.2
					L667.1,467.2z M669.9,352.1c0.3-3.6-1-10.8-7.7-8.2c-9.1,3.5-10.9,17.3-8.3,34.4C662.3,368.3,668.9,359.6,669.9,352.1z"/>
				<path class="st1" d="M645.6,490.1c-9,0-15.8-2.5-20.5-5.2c-9.3-5.4-15.8-14.6-17.6-25.4c-3.7-21.3,9.6-41.5,21.9-56.9
					c-4.3-16.7-4.7-32.1-1-44.7c4.4-15.1,14.2-25.8,29.2-31.6c12.5-4.9,20.8-2,25.6,1.2c6.4,4.3,10.3,12,10.5,20.5
					c0.6,18.9-14.4,36.4-28.8,53.3c-0.6,0.7-1.2,1.4-1.8,2.1c5.9,17.5,14.2,34.1,22.8,45.7c7-10.5,6.7-21.7,3.5-26.1
					c-1.4-2-3.3-2.5-5.8-1.6l-4,1.5l0.3-4.3c0.7-9,6.8-17,15.6-20.5l0,0c9.4-3.6,18.4-0.5,23.5,8.2c8,13.6,5.1,38-15.4,57.8
					c1.9,0.5,3.6,0.4,5.2-0.2c1-0.4,2.1-1,1.9-2l-0.3-2.1l2-0.8c4.8-1.9,9.6,0.4,11.5,5.5c2.5,6.7-0.7,16.2-11.6,20.4
					c-9.5,3.7-20.3,2-31.5-4.9c-3.4,1.7-7,3.3-11.6,5.1C660.2,488.8,652.3,490.1,645.6,490.1L645.6,490.1z M670.4,329.2
					c-3.3,0-6.9,0.8-10.8,2.2c-35.8,13.9-29.1,54.3-24.6,71.1l0.4,1.4l-0.9,1.1c-11.9,14.7-25.1,34-21.7,53.6
					c1.6,9.2,7,17,14.9,21.6c7.3,4.2,20,7.5,39.6-0.1c5-2,8.8-3.7,12.4-5.6l1.4-0.8l1.3,0.9c7.1,4.6,17.7,9.3,28,5.3
					c4.6-1.8,10.9-7,8.5-13.4c-0.3-0.9-1.2-2.6-3-2.6c-0.6,2.2-2.4,4.1-5.2,5.2c-4.1,1.6-8.8,1-13.5-1.6l-3.4-1.9l3-2.6
					c21.2-18.3,24.9-41.3,17.6-53.8c-3.8-6.5-10-8.6-16.9-5.9c-5.6,2.2-9.8,6.8-11.5,12.2c3.1,0.1,5.8,1.5,7.8,4.3
					c5.2,7.2,4.4,22.9-5.8,35.6l-2.1,2.6l-2.1-2.6c-9.9-12.3-19.8-31.6-26.4-51.7l-0.5-1.5l1-1.2c0.9-1.1,1.9-2.2,2.8-3.3
					c13.8-16.1,28-32.8,27.5-49.6c-0.2-6.7-3.2-12.8-8.1-16.1C677.4,330.2,674.1,329.2,670.4,329.2L670.4,329.2z M656,472.2
					c-4.3,0-8.4-1-11.9-3.1c-5.7-3.3-9.4-8.9-10.6-15.8c-1.5-8.4,0.4-17.1,5.7-26.6l2.5-4.5l2.3,4.7c7,14.6,16.4,28,26.5,37.9l3,3
					l-5.5,2.1C663.9,471.4,659.8,472.2,656,472.2L656,472.2z M641.6,434c-2.9,6.5-3.8,12.6-2.8,18.3c0.9,5.3,3.7,9.6,7.9,12
					c4.6,2.7,10.6,3.1,16.9,1.1C655.4,456.8,647.8,445.8,641.6,434L641.6,434z M652.2,384.6l-0.9-5.9c-3.2-20.7,0.2-33.6,10-37.4
					c3.8-1.5,6.3-0.4,7.8,0.7c3.3,2.6,3.8,7.7,3.5,10.3v0.1c-1,7.8-6.8,16-16.6,27.6L652.2,384.6L652.2,384.6z M664.8,346.1
					c-0.4,0-1,0.1-1.6,0.4c-7.8,3-8.1,16-7.3,25.3c5.7-7.1,10.6-14.1,11.3-19.9c0.2-2-0.4-4.6-1.4-5.4
					C665.5,346.2,665.2,346.1,664.8,346.1L664.8,346.1z"/>
			</g>
		</g>
	</g>
	<rect x="8.7" y="4.3" class="st4" width="1400" height="700"/>
</g>
</svg>
