<svg xmlns="http://www.w3.org/2000/svg" viewBox="0 0 800 800"><defs><style>.cls-1{fill:none;}.cls-2{fill:#3b68b2;fill-rule:evenodd;}</style></defs><g id="Layer_2" data-name="Layer 2"><g id="Full_Logo_Mark" data-name="Full Logo Mark"><circle class="cls-1" cx="400" cy="400" r="278.79"/><circle class="cls-1" cx="400" cy="400" r="399.89"/><line class="cls-1" x1="400" y1="121.21" x2="236.13" y2="625.54"/><line class="cls-1" x1="665.14" y1="313.85" x2="236.13" y2="625.54"/><line class="cls-1" x1="134.86" y1="313.85" x2="665.14" y2="313.85"/><line class="cls-1" x1="563.87" y1="625.54" x2="134.86" y2="313.85"/><line class="cls-1" x1="400" y1="121.21" x2="563.87" y2="625.54"/><circle class="cls-1" cx="400" cy="400" r="4.09"/><path class="cls-2" d="M118.09,154.44H285.21a15.82,15.82,0,1,1,0,31.63H201.88a5.49,5.49,0,1,0,0,11H321.23a15.81,15.81,0,1,1,0,31.62H212.46a5.49,5.49,0,1,0,0,11H339.73a15.82,15.82,0,1,1,0,31.63H213.08a5.49,5.49,0,1,0,0,11H325.83a15.82,15.82,0,1,1,0,31.63H160.34a8.28,8.28,0,0,0-5.15,14.79l41,29.65a18.56,18.56,0,1,1-21.89,30h0L67.12,310.74a65.18,65.18,0,0,1-23.84-73h0l12.45-38.14h0a65.6,65.6,0,0,1,62.4-45.12Z"/><path class="cls-2" d="M79.34,592.23,131,433.29a15.82,15.82,0,1,1,30.08,9.78l-25.75,79.25a5.48,5.48,0,1,0,10.43,3.38l36.88-113.5A15.81,15.81,0,1,1,212.71,422L179.1,525.41a5.48,5.48,0,1,0,10.43,3.39l39.33-121a15.82,15.82,0,1,1,30.08,9.78L219.8,538a5.48,5.48,0,1,0,10.43,3.39l34.84-107.24h0a15.82,15.82,0,1,1,30.08,9.78L244,601.31a8.27,8.27,0,0,0,12.47,9.46L297.35,581A18.48,18.48,0,0,1,323.24,585a18.67,18.67,0,0,1-4.13,26h0L212.24,689a65.15,65.15,0,0,1-76.81.11h0L103,665.47v0A65.59,65.59,0,0,1,79.37,592.2Z"/><path class="cls-2" d="M483.74,764.36,348.53,666.13a15.81,15.81,0,1,1,18.59-25.58l67.42,49a5.48,5.48,0,1,0,6.44-8.88L344.43,610.5A15.81,15.81,0,1,1,363,584.91l88,63.94a5.49,5.49,0,1,0,6.45-8.88l-103-74.8a15.81,15.81,0,1,1,18.59-25.59L475.55,614a5.48,5.48,0,1,0,6.45-8.87l-91.23-66.27h0a15.82,15.82,0,1,1,18.6-25.59l133.88,97.28a8.28,8.28,0,0,0,12.86-8.94l-15.73-48.08a18.56,18.56,0,1,1,35.33-11.4h0l41.13,125.72A65.2,65.2,0,0,1,593.21,741l0,0L560.7,764.49l0,0a65.61,65.61,0,0,1-77-.18Z"/><path class="cls-2" d="M772.41,433,637.2,531.19a15.81,15.81,0,1,1-18.59-25.59l67.42-49a5.48,5.48,0,1,0-6.45-8.87L583,517.9a15.82,15.82,0,1,1-18.6-25.59l88-63.93a5.48,5.48,0,1,0-6.45-8.87L543,494.32a15.81,15.81,0,1,1-18.59-25.59L626.9,394.28a5.48,5.48,0,1,0-6.45-8.87l-91.22,66.28h0a15.81,15.81,0,1,1-18.59-25.59l133.89-97.27a8.28,8.28,0,0,0-4.53-15l-50.59.1a18.57,18.57,0,1,1,.08-37.13h0l132.28-.25A65.15,65.15,0,0,1,784,321.61h0l12.35,38.18h0a65.6,65.6,0,0,1-24,73.18Z"/><path class="cls-2" d="M546.42,56l51.65,158.94A15.82,15.82,0,1,1,568,224.72l-25.75-79.25a5.48,5.48,0,1,0-10.43,3.39l36.88,113.51a15.81,15.81,0,1,1-30.08,9.77L505,168.69a5.48,5.48,0,1,0-10.43,3.39l39.33,121a15.82,15.82,0,1,1-30.08,9.78L464.68,182.44a5.48,5.48,0,1,0-10.43,3.39l34.84,107.24h0A15.81,15.81,0,1,1,459,302.84L407.87,145.45a8.27,8.27,0,0,0-15.65-.33l-15.54,48.14a18.56,18.56,0,1,1-35.28-11.54h0L382,55.83a65.18,65.18,0,0,1,62.08-45.24v0l40.12.05v0A65.58,65.58,0,0,1,546.42,56Z"/></g></g></svg>