<svg width="472" height="121" viewBox="0 0 472 121" fill="none" xmlns="http://www.w3.org/2000/svg">
<path d="M55.4998 38.6383H53.2471V0.409643C53.998 0.341377 54.7489 0.273099 55.4998 0.204834V38.6383Z" fill="#FEC430"/>
<path d="M62.8726 19.9335C62.8726 13.3118 62.8726 6.69002 62.8726 0C68.6069 0.204796 74.1363 1.29704 79.3928 3.00368C79.188 4.16419 78.9832 5.39297 78.6419 6.48522C75.843 14.8819 72.6345 23.142 69.4943 31.4704C67.5146 36.8634 65.3984 42.2563 63.3504 47.6493C62.8725 38.3652 62.8726 29.1494 62.8726 19.9335Z" fill="#FEC430"/>
<path d="M77.9592 27.5109C78.5736 25.736 79.1197 24.0294 79.8707 21.8449C80.8946 22.5276 81.5773 22.9371 82.3282 23.415C80.9629 24.9168 79.6658 26.2822 78.3688 27.6475C78.2323 27.5792 78.0958 27.5792 77.9592 27.5109Z" fill="#FEC430"/>
<path d="M92.5679 27.4428C88.8133 24.7122 84.9905 22.1181 80.8945 19.2509C82.5329 14.6771 84.1713 10.1716 85.8779 5.66608C98.8483 11.6734 109.293 22.1863 115.232 35.1568H99.5993C97.8244 39.1844 95.9812 42.4612 94.889 46.0792C94.138 48.6051 94.4794 51.4722 94.3428 54.6807C88.7451 52.0183 83.4204 49.4242 77.6178 46.6254C79.8706 43.963 82.055 41.5737 84.0347 39.0479C84.5809 38.3653 85.4683 37.273 85.2635 36.7269C84.103 33.7914 85.1953 31.4704 86.7654 29.0811C87.1067 28.535 86.8336 27.5793 86.8336 26.6236C88.2672 27.5793 89.7008 28.6033 91.2709 29.4225C91.817 29.6955 92.6362 29.4907 93.3871 29.4907C93.0458 28.7398 93.0458 27.7841 92.5679 27.4428Z" fill="#FEC430"/>
<path d="M40.2083 87.175C29.4224 88.199 18.6364 89.223 7.85049 90.247C7.16784 89.0864 6.55345 87.9259 6.00732 86.6971H40.2083V87.175Z" fill="#FEC430"/>
<path d="M77.0035 77.8226C77.0717 81.6455 73.8633 84.9222 70.1087 84.854C66.3541 84.854 63.4186 81.8503 63.3504 78.0274C63.2821 74.3411 66.2858 71.0644 69.9039 70.9279C73.6585 70.8596 76.9352 73.9998 77.0035 77.8226Z" fill="#FEC430"/>
<path d="M88.9499 85.0587C88.6086 80.4167 88.9499 75.7746 87.7894 71.6104C85.4684 63.4186 77.14 58.3669 68.6751 59.0496C60.1419 59.7322 53.1788 66.0127 51.6087 74.4093C51.3356 75.9112 51.6087 77.6861 49.2877 77.9591C48.9463 77.9591 48.605 79.3244 48.605 80.0753C48.5368 84.0347 48.605 87.9941 48.605 92.0218C48.1954 92.0218 47.7858 92.0901 47.3762 92.0901C47.308 91.1344 47.1032 90.1786 47.1032 89.2229C47.1032 60.0053 47.1032 30.7194 47.1032 1.43353C20.1383 7.50916 0 31.5386 0 60.3466C0 69.3577 1.9797 77.8909 5.52951 85.6049C6.07563 85.5366 6.55348 85.5366 7.0996 85.4683C10.3081 85.127 13.5166 84.8539 16.725 84.5126C24.7804 83.6934 32.8357 82.9425 41.1641 82.1233V78.3005C41.1641 66.8319 41.2323 55.295 41.1641 43.7581C41.1641 40.5496 41.1641 37.3412 41.1641 34.1327H45.1917C45.1917 52.4961 45.1235 70.7912 45.26 89.1546C45.26 90.4517 45.1235 91.2709 44.5091 91.817C44.3726 91.9535 44.1677 92.0901 43.8947 92.1583C43.4851 92.2949 42.939 92.3631 42.3246 92.3631C40.8227 92.3631 39.2526 92.3631 37.7508 92.3631C35.1567 92.3631 32.4944 92.3631 29.9003 92.3631C24.7804 92.3631 19.6605 92.3631 14.5405 92.3631C12.8339 92.3631 11.059 92.3631 9.35237 92.3631C20.0018 109.429 38.9796 120.693 60.5515 120.693C85.127 120.693 106.289 106.016 115.71 84.9222H88.9499V85.0587ZM86.5606 78.3005C86.2875 87.175 78.7101 94.4111 69.9038 94.2063C60.9611 94.0015 53.6566 86.5606 53.7932 77.7543C53.9297 68.5385 61.4389 61.3706 70.723 61.5071C79.3927 61.7119 86.8337 69.5625 86.5606 78.3005Z" fill="#FEC430"/>
<path d="M389.113 51.5404L392.868 54.1345C392.595 54.8171 392.322 55.4998 392.117 56.1824L389.113 51.5404Z" fill="#FEC430"/>
<path d="M97.3466 78.8466L104.037 41.0958H128.885L127.383 49.4242H112.16L110.795 56.8651H123.56L122.195 65.1935H109.361L106.972 78.8466H97.3466Z" fill="#040104"/>
<path d="M128.476 63.2138C128.476 50.1068 137.964 40.2766 150.594 40.2766C160.082 40.2766 166.909 47.1714 166.909 56.6603C166.909 69.7673 157.42 79.5975 144.723 79.5975C135.234 79.6658 128.476 72.771 128.476 63.2138ZM157.011 56.9334C157.011 52.0183 154.075 48.8098 149.638 48.8098C143.153 48.8098 138.306 54.8854 138.306 63.009C138.306 67.9241 141.241 71.1326 145.678 71.1326C152.232 71.1326 157.011 64.9887 157.011 56.9334Z" fill="#040104"/>
<path d="M168.616 78.8466L175.306 41.0958H190.324C198.448 41.0958 203.772 45.3965 203.772 52.0182C203.772 58.2304 200.223 62.6677 193.396 64.9887L200.632 78.9148H189.983L183.702 66.2174H180.494L178.309 78.9148H168.616V78.8466ZM181.859 58.0938H186.774C191.485 58.0938 194.01 56.3872 194.01 53.1105C194.01 50.4481 192.167 49.0828 188.413 49.0828H183.498L181.859 58.0938Z" fill="#040104"/>
<path d="M205.069 78.8466L211.759 41.0958H221.385L218.518 57.0016L232.307 41.0958H243.708L227.187 59.8688L236.403 78.8466H225.754L217.699 61.7802L214.695 78.8466H205.069Z" fill="#040104"/>
<path d="M241.114 78.8466L247.804 41.0958H257.429L252.241 70.1086H267.601L266.099 78.8466H241.114Z" fill="#040104"/>
<path d="M271.355 78.8466L278.045 41.0958H287.671L280.981 78.8466H271.355Z" fill="#040104"/>
<path d="M288.422 78.8466L295.112 41.0958H319.96L318.458 49.4242H303.235L301.87 56.8651H314.636L313.202 65.1935H300.368L297.979 78.8466H288.422Z" fill="#040104"/>
<path d="M326.923 78.8466L332.043 49.8337H320.848L322.35 41.0958H354.298L352.796 49.8337H341.6L336.549 78.8466H326.923Z" fill="#040104"/>
<path d="M362.694 78.8466L369.384 41.0958H379.01L373.822 70.1086H389.25L387.748 78.8466H362.694Z" fill="#040104"/>
<path d="M425.226 45.6696L423.929 46.5571L417.17 50.9943C417.989 51.8818 418.604 53.0423 418.945 54.4076L425.499 48.7416L426.659 47.7176C426.25 46.9667 425.772 46.284 425.226 45.6696Z" fill="#040104"/>
<path d="M431.711 63.2138C431.711 50.2434 441.2 40.2766 453.692 40.2766C462.908 40.2766 469.325 45.6696 470.076 54.1345H460.246C459.7 50.7212 457.037 48.7415 453.01 48.7415C446.388 48.7415 441.541 54.8172 441.541 62.9408C441.541 68.0607 444.75 71.5422 449.46 71.5422C453.692 71.5422 457.379 69.2895 458.403 65.4666H449.596L450.893 57.7526H470.008C468.165 71.4056 460.382 79.5293 448.504 79.5293C438.674 79.6658 431.711 72.9075 431.711 63.2138Z" fill="#040104"/>
<path d="M429.117 56.7285C429.117 69.8355 419.56 79.6658 406.93 79.6658C397.442 79.6658 390.683 72.7709 390.683 63.2821C390.683 50.1751 400.172 40.3448 412.801 40.3448C417.921 40.3448 422.29 42.3928 425.226 45.7378L423.929 46.6253L417.17 51.0625C415.873 49.6972 414.03 48.878 411.846 48.878C406.316 48.878 401.947 53.3153 400.787 59.8005C400.582 60.8927 400.513 61.985 400.513 63.1455C400.513 65.4665 401.196 67.4462 402.357 68.8115C403.654 70.3816 405.565 71.2008 407.886 71.2008C414.371 71.2008 419.218 65.1252 419.218 57.0699C419.218 56.1824 419.15 55.295 418.945 54.4758L425.499 48.8098L426.659 47.7858C428.229 50.2433 429.117 53.3153 429.117 56.7285Z" fill="#040104"/>
<path d="M440.995 35.2249L426.659 47.6492L425.499 48.6732L418.945 54.3392L418.058 55.0902L402.425 68.6067C401.196 67.2414 400.582 65.2617 400.582 62.9407C400.582 61.7802 400.65 60.6879 400.855 59.5957L402.357 60.6879L416.214 51.5404L417.17 50.926L423.928 46.4887L425.226 45.6013L440.995 35.2249Z" fill="#FEC430"/>
<path d="M126.564 102.466V87.7894H128.134V94.2746H136.463V87.7894H138.033V102.466H136.463V95.5716H128.134V102.466H126.564Z" fill="#040104"/>
<path d="M150.116 98.3705H143.221L141.651 102.466H140.149L145.883 87.7894H147.59L153.256 102.466H151.618L150.116 98.3705ZM143.767 97.1417H149.638L146.703 89.4278L143.767 97.1417Z" fill="#040104"/>
<path d="M156.942 89.9056V102.466H155.509V87.7894H157.215L165.749 100.145V87.7894H167.182V102.466H165.544L156.942 89.9056Z" fill="#040104"/>
<path d="M170.459 102.466V87.7894H174.623C179.333 87.7894 181.927 90.7931 181.927 95.0938C181.927 99.3262 179.197 102.535 174.623 102.535H170.459V102.466ZM172.029 101.169H174.623C178.378 101.169 180.426 98.7119 180.426 95.0938C180.426 91.4757 178.378 89.1547 174.623 89.1547H172.029V101.169Z" fill="#040104"/>
<path d="M184.453 102.466V87.7894H186.023V101.101H192.918V102.466H184.453Z" fill="#040104"/>
<path d="M203.909 102.466H195.103V87.7894H203.773V89.1547H196.605V94.2746H203.158V95.6399H196.605V101.238H203.909V102.466Z" fill="#040104"/>
<path d="M216.06 102.671C212.647 102.671 210.599 100.76 210.462 97.961H212.033C212.169 100.077 213.466 101.374 216.06 101.374C218.176 101.374 219.815 100.282 219.815 98.5754C219.815 97.0735 218.927 96.3908 216.879 95.913L215.036 95.5717C213.056 95.1621 211.009 94.2746 211.009 91.7488C211.009 89.3595 213.056 87.5846 215.992 87.5846C218.859 87.5846 221.044 89.3595 221.248 92.2266H219.678C219.542 90.2469 218.108 88.8817 216.06 88.8817C213.807 88.8817 212.579 90.247 212.579 91.7488C212.579 93.4554 214.08 94.0016 215.719 94.3429L217.562 94.7525C220.02 95.2986 221.453 96.3226 221.453 98.5071C221.385 100.76 219.473 102.671 216.06 102.671Z" fill="#040104"/>
<path d="M225.686 89.9739V102.466H224.252V87.7894H226.232L231.693 100.623L237.154 87.7894H239.134V102.466H237.7V89.9739L232.307 102.466H230.942L225.686 89.9739Z" fill="#040104"/>
<path d="M251.217 98.3705H244.39L242.82 102.466H241.318L247.053 87.7894H248.759L254.425 102.466H252.787L251.217 98.3705ZM244.868 97.1417H250.739L247.804 89.4278L244.868 97.1417Z" fill="#040104"/>
<path d="M256.61 102.466V87.7894H261.866C265.007 87.7894 266.918 89.4277 266.918 92.2266C266.918 94.4111 265.484 96.1178 263.163 96.4591L267.328 102.466H265.484L261.525 96.6639H258.18V102.466H256.61ZM258.18 95.3669H261.798C264.051 95.3669 265.416 94.2746 265.416 92.2266C265.416 90.1787 264.051 89.0864 261.798 89.0864H258.18V95.3669Z" fill="#040104"/>
<path d="M272.994 102.466V89.1547H268.078V87.7894H279.479V89.1547H274.564V102.466H272.994Z" fill="#040104"/>
<path d="M279.274 104.787V103.9C280.435 103.832 281.254 103.081 281.322 102.125C281.185 102.193 281.049 102.193 280.844 102.193C280.162 102.193 279.752 101.715 279.752 101.101C279.752 100.418 280.298 99.9406 280.981 99.9406C281.936 99.9406 282.414 100.691 282.414 101.784C282.414 103.286 281.254 104.719 279.274 104.787Z" fill="#040104"/>
<path d="M289.65 102.466V87.7894H291.22V102.466H289.65Z" fill="#040104"/>
<path d="M295.931 89.9056V102.466H294.497V87.7894H296.204L304.737 100.145V87.7894H306.171V102.466H304.532L295.931 89.9056Z" fill="#040104"/>
<path d="M314.499 102.671C311.086 102.671 309.106 100.76 308.901 97.961H310.471C310.608 100.077 311.905 101.374 314.499 101.374C316.615 101.374 318.254 100.282 318.254 98.5754C318.254 97.0735 317.366 96.3908 315.318 95.913L313.475 95.5717C311.495 95.1621 309.447 94.2746 309.447 91.7488C309.447 89.3595 311.495 87.5846 314.431 87.5846C317.298 87.5846 319.482 89.3595 319.687 92.2266H318.117C317.981 90.2469 316.547 88.8817 314.499 88.8817C312.246 88.8817 311.017 90.247 311.017 91.7488C311.017 93.4554 312.519 94.0016 314.158 94.3429L316.001 94.7525C318.458 95.2986 319.892 96.3226 319.892 98.5071C319.824 100.76 317.912 102.671 314.499 102.671Z" fill="#040104"/>
<path d="M324.193 97.0735V102.466H322.623V87.7894H327.469C330.473 87.7894 332.589 89.4278 332.589 92.4315C332.589 95.3669 330.541 97.0735 327.469 97.0735H324.193ZM324.193 89.0864V95.7764H327.469C329.654 95.7764 331.087 94.5477 331.087 92.4315C331.087 90.3152 329.722 89.0864 327.469 89.0864H324.193Z" fill="#040104"/>
<path d="M343.785 102.466H334.979V87.7894H343.648V89.1547H336.481V94.2746H343.034V95.6399H336.481V101.238H343.785V102.466Z" fill="#040104"/>
<path d="M345.833 95.0937C345.833 90.793 348.905 87.448 353.001 87.448C356.482 87.448 359.418 89.8373 359.964 93.3189H358.325C357.848 90.7248 355.663 88.8133 353.001 88.8133C349.724 88.8133 347.403 91.4757 347.403 95.0937C347.403 98.7118 349.792 101.374 353.001 101.374C355.731 101.374 357.916 99.4628 358.325 96.8687H359.964C359.418 100.35 356.482 102.739 353.001 102.739C348.905 102.808 345.833 99.4627 345.833 95.0937Z" fill="#040104"/>
<path d="M365.425 102.466V89.1547H360.51V87.7894H371.91V89.1547H366.995V102.466H365.425Z" fill="#040104"/>
<path d="M383.242 102.671C379.829 102.671 377.849 100.76 377.645 97.961H379.215C379.351 100.077 380.648 101.374 383.242 101.374C385.359 101.374 386.997 100.282 386.997 98.5754C386.997 97.0735 386.11 96.3908 384.062 95.913L382.218 95.5717C380.239 95.1621 378.191 94.2746 378.191 91.7488C378.191 89.3595 380.239 87.5846 383.174 87.5846C386.041 87.5846 388.226 89.3595 388.431 92.2266H386.86C386.724 90.2469 385.29 88.8817 383.242 88.8817C380.99 88.8817 379.761 90.247 379.761 91.7488C379.761 93.4554 381.263 94.0016 382.901 94.3429L384.744 94.7525C387.202 95.2986 388.635 96.3226 388.635 98.5071C388.567 100.76 386.656 102.671 383.242 102.671Z" fill="#040104"/>
<path d="M392.868 89.9739V102.466H391.434V87.7894H393.414L398.875 100.623L404.336 87.7894H406.316V102.466H404.882V89.9739L399.49 102.466H398.124L392.868 89.9739Z" fill="#040104"/>
<path d="M418.467 98.3705H411.573L410.002 102.466H408.501L414.235 87.7894H415.942L421.608 102.466H419.969L418.467 98.3705ZM412.05 97.1417H417.921L414.986 89.4278L412.05 97.1417Z" fill="#040104"/>
<path d="M423.792 102.466V87.7894H429.048C432.189 87.7894 434.1 89.4277 434.1 92.2266C434.1 94.4111 432.667 96.1178 430.346 96.4591L434.51 102.466H432.667L428.707 96.6639H425.362V102.466H423.792ZM425.362 95.3669H428.98C431.233 95.3669 432.598 94.2746 432.598 92.2266C432.598 90.1787 431.233 89.0864 428.98 89.0864H425.362V95.3669Z" fill="#040104"/>
<path d="M440.176 102.466V89.1547H435.261V87.7894H446.661V89.1547H441.678V102.466H440.176Z" fill="#040104"/>
<path d="M457.515 102.466H448.709V87.7894H457.379V89.1547H450.211V94.2746H456.764V95.6399H450.211V101.238H457.515V102.466Z" fill="#040104"/>
<path d="M460.382 102.466V87.7894H465.639C468.779 87.7894 470.69 89.4277 470.69 92.2266C470.69 94.4111 469.257 96.1178 466.936 96.4591L471.1 102.466H469.257L465.297 96.6639H461.952V102.466H460.382ZM461.884 95.3669H465.502C467.755 95.3669 469.12 94.2746 469.12 92.2266C469.12 90.1787 467.755 89.0864 465.502 89.0864H461.884V95.3669Z" fill="#040104"/>
</svg>
