<svg id="Layer_1" enable-background="new 0 0 512 512" height="512" viewBox="0 0 512 512" width="512" xmlns="http://www.w3.org/2000/svg"><g><path d="m96.1829 21.7842c4.8759-8.8382 13.266-11.9538 22.4554-13.6396 3.423-.6279 6.6444.2659 9.0292 2.89 4.5813 5.0415 8.9811 10.2476 13.5345 15.315.5891.6557 1.6243.9356 2.4848 1.3174 3.0605 1.3575 6.4644 2.2237 9.1264 4.1302 3.9095 2.8 7.8922 3.7648 12.6581 3.7099 11.2892-.1301 22.1496 2.7641 32.6487 6.5368 13.3418 4.794 26.6622 9.7827 39.5638 15.6318 14.5043 6.5757 27.077 16.2492 38.3904 27.4527 16.7523 16.5897 31.8256 34.5945 45.0671 54.1159 11.9347 17.5943 20.4908 36.6698 24.6941 57.5499 1.9971 9.9207 3.5495 19.9702 1.3773 30.0978-1.9634 9.1545-6.3236 16.7077-15.448 20.3611-2.9788 1.1927-6.3323 1.449-9.6982 2.1731 2.8228 4.6467 5.6565 9.3747 8.5506 14.0654 22.0262 35.6998 41.2186 72.8448 57.5492 111.5003 9.837 23.2847 19.5415 46.6225 26.6323 70.893 3.4316 11.7453 5.4557 23.9099 7.9345 35.9224 1.1989 5.8093 1.9833 11.7045 2.9338 17.5644.0849.5235.0114 1.0726.0114 2.0078-3.936-2.4829-7.6227-4.8559-11.3547-7.1548-16.245-10.0056-29.9164-23.1429-43.8421-35.9728-33.9568-31.2843-64.6628-65.583-94.0274-101.1426-19.6277-23.7683-38.7186-47.9364-56.2968-73.2765-13.5517-19.5353-25.805-39.8741-37.223-60.7026-16.6169-30.3119-33.2248-60.6349-49.3086-91.2309-11.5484-21.9683-19.284-45.4336-24.5089-69.6892-.6642-3.0834-.4861-6.3675-.5077-9.5599-.0077-1.1334.5518-2.2708.8389-3.3554-6.2728-6.3041-9.5915-14.3939-12.4535-22.7415-.2205-.6433-.5388-1.2531-.8117-1.8784.0001-.9636.0001-1.9271.0001-2.8907zm232.471 258.7608c-2.7263-4.7437-5.4361-9.497-8.2101-14.2127-.2226-.3784-.8899-.7052-1.3469-.7004-2.306.0238-4.6107.1656-6.916.266-1.2352.0312-2.4703.0625-3.7056.0937-.1323-.1305-.2601-.1183-.3835.0367-3.7172.4886-7.5461.5652-11.1316 1.5387-13.8482 3.7598-24.0876 12.9283-33.6063 23.0782-4.0493 5.7311-8.1141 11.4517-12.1179 17.2146-.3089.4443-.4843 1.4039-.2239 1.7559 2.6789 3.6207 5.4604 7.1654 8.3824 10.9504 6.8352-13.2649 17.577-21.9489 29.811-29.0067 10.4858-6.0493 21.899-9.3266 33.8948-10.6664.9906-.0245 1.9811-.0492 2.9716-.0737.8607-.0916 1.7213-.1829 2.582-.2743zm-85.0451-185.5187c.4801.3237.96.6472 1.4401.9708 4.315 3.435 8.8603 6.6207 12.9027 10.3513 12.9738 11.9731 23.3417 26.0903 32.9835 40.7914 5.6837 8.6665 10.1784 17.927 14.2766 27.4062 1.0827 3.422 2.2724 6.8152 3.2083 10.2771.5658 2.0923.738 4.291 1.1219 6.6573-3.444-.492-4.0516 1.8067-4.7238 3.6672-2.2187 6.1405-2.4882 12.5345-1.6948 18.9353.3894 3.1423.7941 6.5281 2.2456 9.2397 2.5881 4.8355 5.976 9.2428 9.0295 13.8291.6091.7959 1.1155 2.1705 1.8432 2.3 8.7498 1.556 15.9675 1.1514 20.3737-8.8042 2.2983-5.1927 2.6724-10.7343 2.199-16.3003-1.861-21.8856-8.8745-42.081-20.0125-60.9483-10.9466-18.543-24.4537-35.1482-38.6257-51.2349-10.588-12.0185-22.0499-23.1635-35.9037-31.4315-20.2465-12.0834-42.0719-20.4121-64.837-26.3323-3.8966-1.0133-7.9304-1.4988-11.8583-2.2205 2.3527 2.6258 4.5229 5.0481 6.6933 7.4705 5.9863 6.9259 11.9724 13.8518 17.9587 20.7776.6841.6233 1.2716 1.4469 2.0705 1.8332 2.5905 1.2527 5.2317 2.4113 7.9015 3.4868 8.0802 3.2549 16.3183 6.1579 24.233 9.7715 5.9337 2.7091 11.4626 6.3046 17.1718 9.5055zm-126.7935-79.1339c-1.1413.5139-2.2827 1.0279-3.4239 1.5418-1.7374.7548-3.5903 1.321-5.1902 2.3004-4.4592 2.7293-4.6099 3.4183-2.6518 8.3517.2646.6666.4083 1.3905.7363 2.0212 2.1854 4.2022 4.4058 8.3862 6.6058 12.5591 4.2541-3.1602 7.9971-5.9407 11.7397-8.723 1.4391-.6906 2.8782-1.3812 4.3175-2.0718 2.2604-.6785 4.5209-1.3572 7.2783-2.185-3.781-4.2048-7.3405-7.9804-10.6823-11.9396-2.5169-2.9816-5.332-3.5299-8.7294-1.8548zm157.1185 294.488c-4.4173 3.4964-7.4996 8.0478-10.2895 12.8568-.8474 1.4608-.4829 2.4306.5087 3.6205 7.8344 9.4003 15.577 18.8775 23.4184 28.2721 7.5844 9.0868 15.1464 18.1964 22.9138 27.1257 8.0368 9.239 16.1227 18.4492 24.529 27.3488 8.8542 9.3736 17.9661 18.5167 27.2307 27.4866 13.0709 12.6549 26.4037 25.0391 39.5851 37.5805 3.8904 3.7015 3.8292 3.7658 8.7891 1.5363.0733-.0329.1475-.0634.2202-.0974 3.0698-1.4324 3.0615-1.4297 2.0379-4.5826-.3953-1.2176-.7216-2.4576-1.1158-3.6756-2.684-8.2953-5.3777-16.5874-8.0683-24.8805-1.7151-5.0104-3.4302-10.0208-5.1454-15.0312-.3-.9141-.5462-1.85-.9078-2.7391-6.5243-16.041-12.893-32.1478-19.6342-48.0973-12.5022-29.5789-26.5604-58.3906-42.7591-86.1542-2.0888-3.5802-4.4672-4.2559-7.9386-3.7891-2.0001.0555-4.0185-.0425-5.9974.1917-11.1839 1.3234-21.6318 4.8789-31.3132 10.6324-5.8524 3.4778-11.3974 7.3721-16.0636 12.3956zm-130.2539-274.253c-3.0141.7559-6.0963 1.3149-9.0223 2.326-2.6711.923-5.173 2.3358-7.7495 3.5328-4.0683 1.2171-7.2213 3.9104-9.6115 7.1486-2.1945 2.9731-3.481 6.561-2.1808 10.5096.8248 2.5047 1.471 5.0681 2.2065 7.6024 5.5462 19.1083 12.0831 37.8731 21.0761 55.6415 7.0896 14.0075 14.763 27.7231 22.3284 41.4852 10.4583 19.0243 20.8696 38.0788 31.6606 56.9142 7.9971 13.9585 16.2646 27.7836 24.9731 41.3067 7.6215 11.8351 16.0052 23.1806 24.1001 34.7087 1.7574 2.5031 3.7189 4.8629 5.6766 7.4057 1.8852-3.124 3.4472-5.9114 5.2039-8.5703 1.9797-2.9966 4.1349-5.8773 6.2139-8.8083 3.4222-3.3461 6.6089-6.9857 10.3244-9.9664 5.0286-4.0341 10.2668-7.8853 15.7712-11.2284 7.3203-4.4458 15.6922-5.6497 24.0835-6.4655h7.5457c-.398-.7607-.6442-1.3406-.9821-1.8608-8.4774-13.0526-16.7214-26.2649-25.4962-39.1145-24.9323-36.5101-50.7096-72.4207-77.6486-107.4821-13.5365-17.6182-27.118-35.2097-41.0739-52.4946-6.904-8.5507-14.8501-16.2273-24.1962-22.2254-.8113-.521-2.1233-.2619-3.2029-.3651zm72.8893 64.8015c22.8441 30.805 45.937 61.9456 68.956 92.9864.9-2.0305 1.5954-4.4869 2.9605-6.4858 2.4729-3.621 2.0659-6.8934.3228-10.6985-5.8578-12.7871-13.7147-24.2861-22.2523-35.3523-6.9626-9.0248-13.9044-18.2202-23.426-24.6981-8.2673-5.6244-17.1064-10.4091-25.7093-15.5373-.4322-.2575-1.0206-.2529-.8517-.2144zm-18.5988-24.0183c-.1201.1897-.2401.3795-.3602.5692 3.2545 4.1742 6.4824 8.3699 9.7936 12.4987.471.5873 1.2991 1.0163 2.0445 1.2281 1.4438.4099 3.0629.352 4.4035.9497 4.5347 2.0219 9.0524 4.1071 13.4437 6.4203 10.6637 5.6173 21.1121 11.5765 29.6087 20.3633 12.1543 12.5697 22.8465 26.3012 31.5522 41.4424 3.9714 6.9073 6.9022 14.4296 10.0714 21.7737 1.3795 3.1969.574 4.4988-2.5295 6.1104-.5702.2961-1.0608.9353-1.3568 1.5312-.6761 1.3605-1.5421 2.7487-1.7326 4.2039-.4421 3.3775-1.519 7.1356-.5098 10.1212 1.2462 3.6863 4.3459 6.7462 6.4343 9.7722.3721-4.8471.57-9.7915 1.187-14.6832.462-3.664 1.4157-7.3409 4.4129-9.8777 1.0867-.9199 1.2253-1.649.7837-2.8248-2.3083-6.148-4.3006-12.4326-6.9341-18.4369-6.1974-14.1298-15.1701-26.5926-24.3985-38.8251-11.4662-15.1988-24.8237-28.5072-41.9861-37.1805-11.0422-5.5804-22.6007-10.1394-33.9279-15.1561zm219.4611 412.5453c.1552-.0997.3105-.1993.4657-.2989-.9981-3.5028-1.9963-7.0057-3.0044-10.5435-2.0707.9577-3.9069 1.8069-5.9537 2.7534 2.8572 2.7214 5.6749 5.4053 8.4924 8.089z" fill="#141f2b"/><path d="m126.9082 41.9862c2.5765-1.197 5.0783-2.6098 7.7495-3.5328 2.926-1.0111 6.0082-1.5701 9.0233-2.326.8341 1.2589 1.6579 2.5243 2.5023 3.7756 13.7274 20.341 29.6783 38.9096 45.614 57.5052 8.4288 9.8356 16.7189 19.8163 24.5734 30.1117 10.4818 13.7393 20.5289 27.8124 30.67 41.8092 9.1591 12.6417 18.3878 25.2399 27.2336 38.0997 10.9757 15.9565 21.5974 32.1567 32.3419 48.2717.828 1.2417 1.4178 2.6424 2.1182 3.969-8.3913.8158-16.7632 2.0197-24.0835 6.4655-5.5044 3.3431-10.7426 7.1943-15.7712 11.2284-3.7155 2.9807-6.9022 6.6203-10.3246 9.9659-6.5941-10.4876-13.2842-20.9157-19.7575-31.4767-7.4009-12.0742-14.8029-24.1553-21.8506-36.4363-8.2875-14.441-16.3931-28.9948-24.2018-43.6992-5.8237-10.9667-11.0619-22.2448-16.5395-33.3946-3.4581-7.039-6.8273-14.122-10.3238-21.1417-7.8212-15.7023-15.679-31.3866-23.5589-47.0596-3.5906-7.1419-7.3527-14.1984-10.8712-21.3751-1.7113-3.4901-3.0411-7.1674-4.5436-10.7599z" fill="#6285b7"/><path d="m398.5477 427.9403c1.7152 5.0104 3.4303 10.0208 5.1439 15.0301-.6666-.4135-1.3997-.7469-1.9861-1.2509-3.8784-3.3332-7.7443-6.6816-11.5785-10.0657-8.2689-7.2975-16.5622-14.5681-24.7553-21.9498-5.2319-4.7137-10.364-9.5429-15.4311-14.4339-7.7714-7.5013-15.6763-14.8838-23.1073-22.7127-9.2994-9.7972-18.2933-19.8931-27.1932-30.058-5.5703-6.3621-10.7606-13.0598-16.0523-19.6624-3.2847-4.0985-6.4405-8.3008-9.654-12.4565 4.6662-5.0235 10.2112-8.9178 16.0636-12.3957 9.6814-5.7534 20.1292-9.309 31.3132-10.6324 1.9789-.2342 3.9973-.1363 5.9983-.1915.3015.6536.5287 1.3539.9132 1.9533 13.3 20.7363 24.3024 42.7494 35.7517 64.5081 11.8407 22.5027 21.4071 46.0568 31.6402 69.3014.7755 1.7614 1.9466 3.3485 2.9337 5.0166z" fill="#6285b7"/><path d="m126.9082 41.9862c1.5025 3.5925 2.8323 7.2698 4.5435 10.7601 3.5186 7.1767 7.2806 14.2332 10.8712 21.3751 7.8799 15.673 15.7377 31.3573 23.5589 47.0596 3.4965 7.0197 6.8656 14.1027 10.3238 21.1417 5.4776 11.1498 10.7158 22.4279 16.5395 33.3946 7.8088 14.7044 15.9144 29.2582 24.2018 43.6992 7.0478 12.281 14.4498 24.3621 21.8506 36.4363 6.4733 10.561 13.1634 20.9891 19.7575 31.4767-2.0789 2.9316-4.2341 5.8123-6.2138 8.8089-1.7567 2.6589-3.3187 5.4464-5.2039 8.5703-1.9577-2.5428-3.9192-4.9026-5.6766-7.4057-8.0949-11.5281-16.4785-22.8736-24.1001-34.7087-8.7085-13.5231-16.976-27.3483-24.9731-41.3067-10.7911-18.8354-21.2024-37.8899-31.6606-56.9142-7.5654-13.7621-15.2388-27.4777-22.3284-41.4852-8.993-17.7685-15.5299-36.5332-21.0761-55.6415-.7355-2.5343-1.3817-5.0976-2.2065-7.6024-1.3002-3.9486-.0137-7.5365 2.1808-10.5096 2.3902-3.2381 5.5431-5.9314 9.6115-7.1485z" fill="#3d659e"/><path d="m273.9338 310.3804c3.2135 4.1557 6.3693 8.358 9.654 12.4565 5.2917 6.6026 10.482 13.3003 16.0523 19.6624 8.8998 10.1649 17.8938 20.2607 27.1932 30.058 7.431 7.8289 15.3359 15.2115 23.1073 22.7127 5.0671 4.891 10.1992 9.7201 15.4311 14.4339 8.1931 7.3817 16.4865 14.6523 24.7553 21.9498 3.8343 3.3841 7.7001 6.7325 11.5785 10.0657.5865.5041 1.3195.8374 1.9861 1.2509 2.6921 8.2942 5.3858 16.5863 8.0698 24.8816.3942 1.218.7205 2.458 1.1158 3.6756 1.0236 3.153 1.0319 3.1502-2.0379 4.5826-.0728.034-.147.0645-.2202.0974-4.9599 2.2294-4.8987 2.1652-8.7891-1.5363-13.1814-12.5414-26.5142-24.9256-39.5851-37.5805-9.2646-8.9698-18.3765-18.1129-27.2307-27.4866-8.4063-8.8996-16.4922-18.1098-24.529-27.3488-7.7674-8.9293-15.3294-18.0388-22.9138-27.1257-7.8414-9.3946-15.584-18.8717-23.4184-28.2721-.9916-1.1898-1.3561-2.1597-.5087-3.6205 2.7898-4.8088 5.8721-9.3602 10.2895-12.8566z" fill="#3d659e"/><path d="m192.229 70.4276c-5.9863-6.9259-11.9724-13.8518-17.9587-20.7776.3608-.1249.7696-.4298 1.0748-.348 4.6228 1.2393 9.3931 2.1274 13.8093 3.8953 7.9978 3.2017 15.7298 7.0598 23.6685 10.418 12.348 5.2234 23.3058 12.7103 33.8207 20.8275 9.9141 7.6535 19.7115 15.4993 29.0891 23.7932 7.2228 6.388 14.2976 13.1234 20.4048 20.5538 10.8681 13.2227 18.3794 28.4622 23.4797 44.7877 3.6815 11.7838 7.7217 23.4893 8.4596 36.0208.4145 7.0393 1.6446 14.046-5.2535 18.9574-.3078.2191-.4264.6906-.7187.9473-2.3749 2.0857-4.7703 4.1483-7.1594 6.2179-.1107-1.1882-.0233-2.4373-.3669-3.5537-1.3116-4.2604-2.6027-8.5391-4.1985-12.697-2.3594-6.1475-3.1086-12.106.2227-18.2186 1.0692-1.9618 1.6952-4.3547 1.8421-6.5951.5042-7.6922-3.8162-13.7619-7.233-20.1103-4.0982-9.4794-8.5929-18.7399-14.2766-27.4063-9.6418-14.7011-20.0097-28.8183-32.9835-40.7914-4.0424-3.7306-8.5877-6.9163-12.9027-10.3513-.4799-.3235-.96-.6472-1.4401-.9708l-.0029-.0018c-.2454-.4809-.363-1.1657-.7556-1.4123-6.9385-4.356-13.6366-9.2154-20.9528-12.8152-7.2464-3.5654-15.102-5.9086-22.7376-8.6569-2.2272-.8015-4.616-1.1542-6.9308-1.7126z" fill="#fdcf00"/><path d="m314.9453 235.7209c2.3891-2.0696 4.7845-4.1322 7.1594-6.2179.2923-.2567.4109-.7281.7187-.9473 6.8981-4.9114 5.668-11.9181 5.2535-18.9574-.7379-12.5315-4.7781-24.237-8.4596-36.0208-5.1004-16.3255-12.6117-31.565-23.4797-44.7877-6.1072-7.4305-13.182-14.1658-20.4048-20.5538-9.3776-8.2939-19.175-16.1398-29.0891-23.7932-10.515-8.1172-21.4727-15.6041-33.8207-20.8275-7.9386-3.3582-15.6707-7.2163-23.6685-10.418-4.4162-1.768-9.1865-2.6561-13.8093-3.8953-.3052-.0818-.714.2231-1.0748.348-2.1704-2.4224-4.3406-4.8447-6.6933-7.4705 3.9279.7217 7.9618 1.2072 11.8583 2.2205 22.765 5.9203 44.5905 14.249 64.837 26.3323 13.8538 8.268 25.3158 19.413 35.9037 31.4315 14.172 16.0867 27.6791 32.6919 38.6257 51.2349 11.138 18.8674 18.1516 39.0628 20.0125 60.9483.4734 5.5661.0993 11.1076-2.199 16.3003-4.4062 9.9556-11.624 10.3602-20.3737 8.8042-.7277-.1294-1.2341-1.504-1.843-2.2997.1824-.4767.3645-.9537.5467-1.4309z" fill="#fce700"/><path d="m308.7343 259.6697c-.7004-1.3267-1.2902-2.7273-2.1182-3.969-10.7445-16.115-21.3662-32.3152-32.3419-48.2717-8.8457-12.8598-18.0745-25.4581-27.2336-38.0997-10.1411-13.9968-20.1881-28.0699-30.67-41.8092-7.8545-10.2954-16.1446-20.2761-24.5734-30.1117-15.9357-18.5956-31.8866-37.1643-45.614-57.5052-.8444-1.2513-1.6681-2.5168-2.5023-3.7756 1.0786.1031 2.3906-.1559 3.2022.3649 9.3461 5.9981 17.2922 13.6747 24.1962 22.2254 13.9559 17.2848 27.5374 34.8764 41.0739 52.4946 26.939 35.0614 52.7163 70.972 77.6486 107.4821 8.7748 12.8496 17.0187 26.062 25.4962 39.1145.3379.5202.584 1.1001.9821 1.8608-2.6739-.0002-5.1099-.0002-7.5458-.0002z" fill="#9eccdf"/><path d="m197.9704 76.9106c11.3272 5.0167 22.8857 9.5756 33.9279 15.1561 17.1624 8.6733 30.5198 21.9817 41.9861 37.1805 9.2284 12.2325 18.2011 24.6953 24.3985 38.8251 2.6335 6.0042 4.6258 12.2888 6.9341 18.4369.4416 1.1759.303 1.9049-.7837 2.8248-2.9973 2.5368-3.951 6.2137-4.4129 9.8777-.6169 4.8916-.8148 9.836-1.187 14.6832-2.0885-3.026-5.1882-6.0859-6.4343-9.7722-1.0092-2.9856.0677-6.7437.5098-10.1212.1905-1.4553 1.0566-2.8434 1.7326-4.2039.296-.5958.7866-1.235 1.3568-1.5312 3.1035-1.6116 3.909-2.9134 2.5295-6.1104-3.1692-7.344-6.1-14.8664-10.0714-21.7737-8.7056-15.1412-19.3978-28.8727-31.5522-41.4424-8.4966-8.7869-18.945-14.746-29.6087-20.3633-4.3913-2.3132-8.909-4.3984-13.4437-6.4203-1.3406-.5977-2.9597-.5398-4.4035-.9497-.7454-.2118-1.5735-.6407-2.0445-1.2281-3.3112-4.1287-6.5391-8.3244-9.7936-12.4987.1201-.1896.2401-.3795.3602-.5692z" fill="#f1ad00"/><path d="m308.4753 265.9916c1.2353-.0312 2.4705-.0625 3.7051-.0941.7485.5262 1.6458.9289 2.2129 1.6074.9111 1.0903 1.6384 2.3419 2.382 3.5627 1.8117 2.9741 3.5879 5.9696 5.3784 8.9563-3.1602.3242-6.3713.398-9.4698 1.0267-5.6765 1.1519-11.3762 2.3401-16.9041 4.0403-8.9113 2.7408-16.4011 8.0412-23.3814 14.0882-1.2303 1.0656-2.1902 1.3479-3.2698-.3171-1.8199-2.807-3.8392-5.4847-5.7747-8.2168 9.5187-10.1498 19.7581-19.3184 33.6063-23.0782 3.5855-.9734 7.4144-1.0501 11.1319-1.5385.1281-.0095.2558-.0217.3832-.0369z" fill="#fdce00"/><path d="m398.5477 427.9403c-.9871-1.6681-2.1582-3.2552-2.9337-5.0166-10.2331-23.2446-19.7996-46.7987-31.6402-69.3014-11.4493-21.7588-22.4517-43.7719-35.7517-64.5081-.3845-.5994-.6117-1.2997-.9132-1.9533 3.4705-.4671 5.8489.2086 7.9377 3.7888 16.1987 27.7636 30.2569 56.5754 42.7591 86.1542 6.7413 15.9494 13.11 32.0562 19.6342 48.0973.3616.8891.6078 1.825.9078 2.7391z" fill="#9cc7dd"/><path d="m263.3539 290.6451c1.9355 2.7321 3.9548 5.4098 5.7747 8.2168 1.0796 1.665 2.0396 1.3827 3.2698.3171 6.9803-6.047 14.47-11.3473 23.3814-14.0882 5.5279-1.7002 11.2276-2.8884 16.9041-4.0403 3.0985-.6287 6.3095-.7025 9.4696-1.0266.3156.2897.6313.5794.9468.8689-11.9958 1.3398-23.4091 4.6172-33.8948 10.6664-12.234 7.0578-22.9758 15.7418-29.811 29.0067-2.9219-3.785-5.7034-7.3297-8.3824-10.9504-.2604-.352-.0849-1.3116.2239-1.7559 4.0038-5.7628 8.0686-11.4834 12.1179-17.2145z" fill="#f2ae00"/><path d="m124.6315 33.9454c-3.7429 2.7806-7.4859 5.561-11.74 8.7212-2.2-4.1728-4.4203-8.3569-6.6058-12.5591-.328-.6307-.4717-1.3546-.7363-2.0212-1.9581-4.9334-1.8074-5.6224 2.6518-8.3517 1.5999-.9793 3.4528-1.5455 5.1912-2.3002 1.659 1.1234 3.3168 2.2467 4.9748 3.3699.6592.7814 1.3186 1.5628 1.9778 2.3442 1.4288 3.599 2.8577 7.1979 4.2865 10.7969z" fill="#3d649e"/><path d="m314.9453 235.7209c-.1822.4772-.3643.9543-.5468 1.431-3.0537-4.5866-6.4416-8.9939-9.0297-13.8294-1.4514-2.7115-1.8562-6.0974-2.2456-9.2397-.7933-6.4008-.5239-12.7948 1.6948-18.9353.6722-1.8604 1.2798-4.1591 4.7238-3.6672-.3839-2.3662-.5561-4.565-1.1219-6.6573-.9359-3.4618-2.1256-6.8551-3.2083-10.2769 3.4168 6.3484 7.7371 12.4181 7.233 20.1103-.1469 2.2404-.7729 4.6333-1.8421 6.5951-3.3313 6.1126-2.5821 12.071-.2227 18.2186 1.5958 4.1579 2.8868 8.4366 4.1985 12.697.3437 1.1164.2563 2.3656.367 3.5538z" fill="#f3ae00"/><path d="m120.345 23.1485c-.6592-.7814-1.3186-1.5628-1.9781-2.3441-.5173-1.6373-1.0344-3.2747-1.5516-4.9121 3.3973-1.6751 6.2124-1.1268 8.7293 1.8548 3.3419 3.9592 6.9014 7.7348 10.6823 11.9396-2.7574.8278-5.0179 1.5065-7.2784 2.1852-2.8677-2.9076-5.7357-5.8155-8.6035-8.7234z" fill="#9dc9df"/><path d="m192.229 70.4276c2.3147.5584 4.7036.9111 6.9308 1.7126 7.6357 2.7482 15.4913 5.0915 22.7376 8.6569 7.3162 3.5998 14.0143 8.4592 20.9528 12.8152.3927.2465.5102.9314.7556 1.4123-5.7092-3.2009-11.2381-6.7964-17.1718-9.5055-7.9148-3.6136-16.1528-6.5166-24.233-9.7715-2.6698-1.0755-5.311-2.2341-7.9015-3.4868-.7989-.3863-1.3863-1.2099-2.0705-1.8332z" fill="#efac00"/><path d="m323.1003 280.8929c-.3156-.2896-.6313-.5792-.9468-.8689-1.7904-2.9868-3.5666-5.9823-5.3783-8.9564-.7436-1.2208-1.4709-2.4724-2.382-3.5627-.567-.6785-1.4643-1.0812-2.2129-1.6073 2.3058-.1001 4.6106-.2419 6.9166-.2657.457-.0048 1.1244.322 1.3469.7004 2.774 4.7157 5.4838 9.469 8.2108 14.2117-.8603.0911-1.7215.1831-2.5826.2751-.9906.0247-1.9811.0493-2.9717.0738z" fill="#fce700"/><path d="m417.4315 489.4559c-2.8176-2.6837-5.6353-5.3676-8.4924-8.0889 2.0468-.9466 3.883-1.7958 5.9537-2.7534 1.0081 3.5377 2.0063 7.0406 3.0044 10.5435-.1552.0996-.3105.1991-.4657.2988z" fill="#cbe7f1"/><path d="m120.345 23.1485c2.8678 2.9078 5.7358 5.8158 8.6036 8.7234-1.4391.6905-2.8782 1.381-4.3172 2.0726-1.4287-3.5981-2.8576-7.197-4.2864-10.796z" fill="#6287b7"/><path d="m116.8153 15.8924c.5172 1.6373 1.0342 3.2747 1.5516 4.9121-1.6577-1.1234-3.3156-2.2467-4.9745-3.3701 1.1402-.514 2.2816-1.0281 3.4229-1.542z" fill="#6298d2"/><path d="m326.072 280.8192c.8611-.092 1.7224-.1841 2.5826-.2751-.8614.0923-1.722.1836-2.5826.2751z" fill="#f2ae00"/><path d="m243.6088 95.0263c.4801.3237.9601.6473 1.4401.9708-.4801-.3236-.96-.6471-1.4401-.9708z" fill="#efac00"/><path d="m308.4753 265.9916c-.1274.0152-.255.0274-.3832.0368.123-.1552.2509-.1673.3832-.0368z" fill="#fce700"/></g></svg>