<svg id="Layer_1" data-name="Layer 1" xmlns="http://www.w3.org/2000/svg" xmlns:xlink="http://www.w3.org/1999/xlink" viewBox="0 0 246.22 53.65"><defs><style>.cls-1{mask:url(#mask);}.cls-10,.cls-12,.cls-14,.cls-16,.cls-18,.cls-2,.cls-20,.cls-4,.cls-6,.cls-8{mix-blend-mode:multiply;}.cls-2{fill:url(#linear-gradient);}.cls-3{mask:url(#mask-2);}.cls-4{fill:url(#linear-gradient-2);}.cls-5{mask:url(#mask-3);}.cls-6{fill:url(#linear-gradient-3);}.cls-7{mask:url(#mask-4);}.cls-8{fill:url(#linear-gradient-4);}.cls-9{mask:url(#mask-5);}.cls-10{fill:url(#linear-gradient-5);}.cls-11{mask:url(#mask-6);}.cls-12{fill:url(#radial-gradient);}.cls-13{mask:url(#mask-7);}.cls-14{fill:url(#linear-gradient-6);}.cls-15{mask:url(#mask-8);}.cls-16{fill:url(#linear-gradient-7);}.cls-17{mask:url(#mask-9);}.cls-18{fill:url(#linear-gradient-8);}.cls-19{mask:url(#mask-10);}.cls-20{fill:url(#radial-gradient-2);}.cls-21{fill:url(#linear-gradient-9);}.cls-22{fill:url(#linear-gradient-10);}.cls-23{fill:url(#linear-gradient-11);}.cls-24{fill:url(#linear-gradient-12);}.cls-25{fill:url(#linear-gradient-13);}.cls-26{fill:url(#linear-gradient-14);}.cls-27{fill:url(#linear-gradient-15);}.cls-28{mask:url(#mask-11);}.cls-29{fill:url(#linear-gradient-16);}.cls-30{fill:url(#linear-gradient-17);}.cls-31{mask:url(#mask-12);}.cls-32{fill:url(#linear-gradient-18);}.cls-33{mask:url(#mask-13);}.cls-34{fill:url(#linear-gradient-19);}.cls-35{mask:url(#mask-14);}.cls-36{fill:url(#linear-gradient-20);}.cls-37{mask:url(#mask-15);}.cls-38{fill:url(#radial-gradient-3);}.cls-39{mask:url(#mask-16);}.cls-40{fill:url(#linear-gradient-21);}.cls-41{mask:url(#mask-17);}.cls-42{fill:url(#linear-gradient-22);}.cls-43{mask:url(#mask-18);}.cls-44{fill:url(#linear-gradient-23);}.cls-45{mask:url(#mask-19);}.cls-46{fill:url(#linear-gradient-24);}.cls-47{mask:url(#mask-20);}.cls-48{fill:url(#radial-gradient-4);}.cls-49{fill:#fff;}.cls-50{filter:url(#luminosity-noclip-20);}.cls-51{filter:url(#luminosity-noclip-19);}.cls-52{filter:url(#luminosity-noclip-18);}.cls-53{filter:url(#luminosity-noclip-17);}.cls-54{filter:url(#luminosity-noclip-16);}.cls-55{filter:url(#luminosity-noclip-15);}.cls-56{filter:url(#luminosity-noclip-14);}.cls-57{filter:url(#luminosity-noclip-13);}.cls-58{filter:url(#luminosity-noclip-12);}.cls-59{filter:url(#luminosity-noclip-11);}.cls-60{filter:url(#luminosity-noclip-10);}.cls-61{filter:url(#luminosity-noclip-9);}.cls-62{filter:url(#luminosity-noclip-8);}.cls-63{filter:url(#luminosity-noclip-7);}.cls-64{filter:url(#luminosity-noclip-6);}.cls-65{filter:url(#luminosity-noclip-5);}.cls-66{filter:url(#luminosity-noclip-4);}.cls-67{filter:url(#luminosity-noclip-3);}.cls-68{filter:url(#luminosity-noclip-2);}.cls-69{filter:url(#luminosity-noclip);}</style><filter id="luminosity-noclip" x="19.63" y="-8221" width="30.97" height="32766" filterUnits="userSpaceOnUse" color-interpolation-filters="sRGB"><feFlood flood-color="#fff" result="bg"/><feBlend in="SourceGraphic" in2="bg"/></filter><mask id="mask" x="19.63" y="-8221" width="30.97" height="32766" maskUnits="userSpaceOnUse"><g class="cls-69"/></mask><linearGradient id="linear-gradient" x1="18.16" y1="4.35" x2="50.45" y2="12.69" gradientUnits="userSpaceOnUse"><stop offset="0" stop-color="#333"/><stop offset="1"/></linearGradient><filter id="luminosity-noclip-2" x="38.04" y="-8221" width="18.34" height="32766" filterUnits="userSpaceOnUse" color-interpolation-filters="sRGB"><feFlood flood-color="#fff" result="bg"/><feBlend in="SourceGraphic" in2="bg"/></filter><mask id="mask-2" x="38.04" y="-8221" width="18.34" height="32766" maskUnits="userSpaceOnUse"><g class="cls-68"/></mask><linearGradient id="linear-gradient-2" x1="39.57" y1="55.15" x2="56.79" y2="20.92" gradientUnits="userSpaceOnUse"><stop offset="0" stop-color="#b3b3b3"/><stop offset="1"/></linearGradient><filter id="luminosity-noclip-3" x="28.19" y="-8221" width="20.21" height="32766" filterUnits="userSpaceOnUse" color-interpolation-filters="sRGB"><feFlood flood-color="#fff" result="bg"/><feBlend in="SourceGraphic" in2="bg"/></filter><mask id="mask-3" x="28.19" y="-8221" width="20.21" height="32766" maskUnits="userSpaceOnUse"><g class="cls-67"/></mask><linearGradient id="linear-gradient-3" x1="27.77" y1="27.07" x2="49.95" y2="16.16" gradientUnits="userSpaceOnUse"><stop offset="0" stop-color="#666"/><stop offset="1" stop-color="#1a1a1a"/></linearGradient><filter id="luminosity-noclip-4" x="15.55" y="-8221" width="12.4" height="32766" filterUnits="userSpaceOnUse" color-interpolation-filters="sRGB"><feFlood flood-color="#fff" result="bg"/><feBlend in="SourceGraphic" in2="bg"/></filter><mask id="mask-4" x="15.55" y="-8221" width="12.4" height="32766" maskUnits="userSpaceOnUse"><g class="cls-66"/></mask><linearGradient id="linear-gradient-4" x1="-8.65" y1="24.78" x2="13.53" y2="13.87" gradientTransform="matrix(-0.29, 0.93, -1, -0.31, 40.36, 25.81)" xlink:href="#linear-gradient-3"/><filter id="luminosity-noclip-5" x="16.87" y="-8221" width="13.01" height="32766" filterUnits="userSpaceOnUse" color-interpolation-filters="sRGB"><feFlood flood-color="#fff" result="bg"/><feBlend in="SourceGraphic" in2="bg"/></filter><mask id="mask-5" x="16.87" y="-8221" width="13.01" height="32766" maskUnits="userSpaceOnUse"><g class="cls-65"/></mask><linearGradient id="linear-gradient-5" x1="29.71" y1="39.32" x2="16.71" y2="44.98" xlink:href="#linear-gradient-3"/><filter id="luminosity-noclip-6" x="19.05" y="-8221" width="10.83" height="32766" filterUnits="userSpaceOnUse" color-interpolation-filters="sRGB"><feFlood flood-color="#fff" result="bg"/><feBlend in="SourceGraphic" in2="bg"/></filter><mask id="mask-6" x="19.05" y="-8221" width="10.83" height="32766" maskUnits="userSpaceOnUse"><g class="cls-64"/></mask><radialGradient id="radial-gradient" cx="22.74" cy="21.63" r="21.1" gradientUnits="userSpaceOnUse"><stop offset="0" stop-color="gray"/><stop offset="1"/></radialGradient><filter id="luminosity-noclip-7" x="2.73" y="-8221" width="17.49" height="32766" filterUnits="userSpaceOnUse" color-interpolation-filters="sRGB"><feFlood flood-color="#fff" result="bg"/><feBlend in="SourceGraphic" in2="bg"/></filter><mask id="mask-7" x="2.73" y="-8221" width="17.49" height="32766" maskUnits="userSpaceOnUse"><g class="cls-63"/></mask><linearGradient id="linear-gradient-6" x1="15.46" y1="1.95" x2="3.1" y2="40.32" xlink:href="#linear-gradient-2"/><filter id="luminosity-noclip-8" x="7.35" y="-8221" width="29.42" height="32766" filterUnits="userSpaceOnUse" color-interpolation-filters="sRGB"><feFlood flood-color="#fff" result="bg"/><feBlend in="SourceGraphic" in2="bg"/></filter><mask id="mask-8" x="7.35" y="-8221" width="29.42" height="32766" maskUnits="userSpaceOnUse"><g class="cls-62"/></mask><linearGradient id="linear-gradient-7" x1="35.59" y1="53" x2="9.52" y2="26.93" gradientUnits="userSpaceOnUse"><stop offset="0"/><stop offset="1" stop-color="gray"/></linearGradient><filter id="luminosity-noclip-9" x="19.63" y="-8221" width="8.03" height="32766" filterUnits="userSpaceOnUse" color-interpolation-filters="sRGB"><feFlood flood-color="#fff" result="bg"/><feBlend in="SourceGraphic" in2="bg"/></filter><mask id="mask-9" x="19.63" y="-8221" width="8.03" height="32766" maskUnits="userSpaceOnUse"><g class="cls-61"/></mask><linearGradient id="linear-gradient-8" x1="19.51" y1="6.73" x2="25.87" y2="11.61" gradientUnits="userSpaceOnUse"><stop offset="0" stop-color="#666"/><stop offset="1"/></linearGradient><filter id="luminosity-noclip-10" x="28.45" y="-8221" width="8.82" height="32766" filterUnits="userSpaceOnUse" color-interpolation-filters="sRGB"><feFlood flood-color="#fff" result="bg"/><feBlend in="SourceGraphic" in2="bg"/></filter><mask id="mask-10" x="28.45" y="-8221" width="8.82" height="32766" maskUnits="userSpaceOnUse"><g class="cls-60"/></mask><radialGradient id="radial-gradient-2" cx="34.71" cy="40.91" r="15.07" xlink:href="#radial-gradient"/><linearGradient id="linear-gradient-9" x1="56.38" y1="29.16" x2="91.35" y2="29.16" gradientUnits="userSpaceOnUse"><stop offset="0" stop-color="#664fc9"/><stop offset="0.5" stop-color="#2f67d3"/><stop offset="1" stop-color="#1bffff"/></linearGradient><linearGradient id="linear-gradient-10" x1="87.86" y1="29" x2="123.85" y2="29" xlink:href="#linear-gradient-9"/><linearGradient id="linear-gradient-11" x1="127.17" y1="29" x2="160.37" y2="29" xlink:href="#linear-gradient-9"/><linearGradient id="linear-gradient-12" x1="164.7" y1="29.08" x2="176.13" y2="29.08" xlink:href="#linear-gradient-9"/><linearGradient id="linear-gradient-13" x1="181.71" y1="29.08" x2="213.28" y2="29.08" xlink:href="#linear-gradient-9"/><linearGradient id="linear-gradient-14" x1="213.99" y1="29.16" x2="248.96" y2="29.16" xlink:href="#linear-gradient-9"/><linearGradient id="linear-gradient-15" x1="16.2" y1="8.63" x2="54.21" y2="46.64" xlink:href="#linear-gradient-9"/><filter id="luminosity-noclip-11" x="19.63" y="2.19" width="30.97" height="10.2" filterUnits="userSpaceOnUse" color-interpolation-filters="sRGB"><feFlood flood-color="#fff" result="bg"/><feBlend in="SourceGraphic" in2="bg"/></filter><mask id="mask-11" x="16.9" y="0" width="30.97" height="10.2" maskUnits="userSpaceOnUse"><g class="cls-59"><g transform="translate(-2.73 -2.19)"><g class="cls-1"><path class="cls-2" d="M50.6,12.38a26.77,26.77,0,0,0-21-10.19,27.62,27.62,0,0,0-4.3.34c-4.57,1.16-5.72,4.69-5.62,8.19C19.66,10.71,40.5.1,50.6,12.38Z"/></g></g></g></mask><linearGradient id="linear-gradient-16" x1="18.16" y1="4.35" x2="50.45" y2="12.69" gradientUnits="userSpaceOnUse"><stop offset="0"/><stop offset="1"/></linearGradient><linearGradient id="linear-gradient-17" x1="40.41" y1="47.74" x2="6.96" y2="14.29" gradientUnits="userSpaceOnUse"><stop offset="0" stop-color="#943cc3"/><stop offset="0.5" stop-color="#ed1e79"/><stop offset="1" stop-color="#fbb03b"/></linearGradient><filter id="luminosity-noclip-12" x="2.73" y="3.87" width="17.49" height="32.63" filterUnits="userSpaceOnUse" color-interpolation-filters="sRGB"><feFlood flood-color="#fff" result="bg"/><feBlend in="SourceGraphic" in2="bg"/></filter><mask id="mask-12" x="0" y="1.68" width="17.49" height="32.63" maskUnits="userSpaceOnUse"><g class="cls-58"><g transform="translate(-2.73 -2.19)"><g class="cls-13"><path class="cls-14" d="M20.22,3.87A26.8,26.8,0,0,0,3.8,36.5c9.08-5,7.71-10.95,8.28-19.61C12.72,7.18,19.6,4.15,20.22,3.87Z"/></g></g></g></mask><linearGradient id="linear-gradient-18" x1="15.46" y1="1.95" x2="3.1" y2="40.32" gradientUnits="userSpaceOnUse"><stop offset="0" stop-color="#fddfb1"/><stop offset="1" stop-color="#fbb03b"/></linearGradient><filter id="luminosity-noclip-13" x="7.35" y="19.13" width="29.42" height="36.71" filterUnits="userSpaceOnUse" color-interpolation-filters="sRGB"><feFlood flood-color="#fff" result="bg"/><feBlend in="SourceGraphic" in2="bg"/></filter><mask id="mask-13" x="4.62" y="16.94" width="29.42" height="36.71" maskUnits="userSpaceOnUse"><g class="cls-57"><g transform="translate(-2.73 -2.19)"><g class="cls-15"><path class="cls-16" d="M27.94,47.62c-4.32,2-8.49,2.23-9.31.47s2-4.8,6.35-6.82a18.11,18.11,0,0,1,4.9-1.53C27,32.88,21.69,19.13,21.69,19.13c-5,8.46-6.57,30.92-14.34,24.93A26.81,26.81,0,0,0,29.56,55.83c.94,0,1.87,0,2.78-.14C41,54.52,34.28,40.8,34.28,40.8,35.1,42.55,32.26,45.6,27.94,47.62Z"/></g></g></g></mask><linearGradient id="linear-gradient-19" x1="35.59" y1="53" x2="9.52" y2="26.93" gradientUnits="userSpaceOnUse"><stop offset="0" stop-color="#ed1e79"/><stop offset="1" stop-color="#fbb03b"/></linearGradient><filter id="luminosity-noclip-14" x="19.63" y="2.26" width="8.03" height="16.87" filterUnits="userSpaceOnUse" color-interpolation-filters="sRGB"><feFlood flood-color="#fff" result="bg"/><feBlend in="SourceGraphic" in2="bg"/></filter><mask id="mask-14" x="16.89" y="0.07" width="8.03" height="16.87" maskUnits="userSpaceOnUse"><g class="cls-56"><g transform="translate(-2.73 -2.19)"><g class="cls-17"><path class="cls-18" d="M25.27,15.16C23.32,11.43,20,3.26,27.66,2.26q-1.21.09-2.4.27c-10.07,2.56-3.57,16.6-3.57,16.6A12.16,12.16,0,0,1,25.27,15.16Z"/></g></g></g></mask><linearGradient id="linear-gradient-20" x1="19.51" y1="6.73" x2="25.87" y2="11.61" xlink:href="#linear-gradient-16"/><filter id="luminosity-noclip-15" x="28.45" y="28.3" width="8.82" height="27.39" filterUnits="userSpaceOnUse" color-interpolation-filters="sRGB"><feFlood flood-color="#fff" result="bg"/><feBlend in="SourceGraphic" in2="bg"/></filter><mask id="mask-15" x="25.72" y="26.11" width="8.82" height="27.39" maskUnits="userSpaceOnUse"><g class="cls-55"><g transform="translate(-2.73 -2.19)"><g class="cls-19"><path class="cls-20" d="M28.45,28.3l5.83,12.5S41,54.52,32.34,55.69c.39,0,.78-.09,1.16-.15,4-.84,5.41-5.52,1.34-15Z"/></g></g></g></mask><radialGradient id="radial-gradient-3" cx="34.71" cy="40.91" r="15.07" gradientUnits="userSpaceOnUse"><stop offset="0" stop-color="#fff"/><stop offset="1" stop-color="#fff"/></radialGradient><filter id="luminosity-noclip-16" x="38.04" y="22.8" width="18.34" height="31.65" filterUnits="userSpaceOnUse" color-interpolation-filters="sRGB"><feFlood flood-color="#fff" result="bg"/><feBlend in="SourceGraphic" in2="bg"/></filter><mask id="mask-16" x="35.31" y="20.62" width="18.34" height="31.65" maskUnits="userSpaceOnUse"><g class="cls-54"><g transform="translate(-2.73 -2.19)"><g class="cls-3"><path class="cls-4" d="M56.38,29a27.06,27.06,0,0,0-.73-6.21c-7.78,1.12-13.27,8.26-12.37,18.56S38.55,54.24,38,54.45A26.81,26.81,0,0,0,56.38,29Z"/></g></g></g></mask><linearGradient id="linear-gradient-21" x1="39.57" y1="55.15" x2="56.79" y2="20.92" gradientUnits="userSpaceOnUse"><stop offset="0" stop-color="#a4ffff"/><stop offset="1" stop-color="#1bffff"/></linearGradient><filter id="luminosity-noclip-17" x="28.19" y="11.58" width="20.21" height="16.72" filterUnits="userSpaceOnUse" color-interpolation-filters="sRGB"><feFlood flood-color="#fff" result="bg"/><feBlend in="SourceGraphic" in2="bg"/></filter><mask id="mask-17" x="25.46" y="9.39" width="20.21" height="16.72" maskUnits="userSpaceOnUse"><g class="cls-53"><g transform="translate(-2.73 -2.19)"><g class="cls-5"><path class="cls-6" d="M33.24,24.77c5.44-.19,9.83,2.69,13.35-2,2.49-3.28,2.08-8.85.74-11.22.13.41-1.11,2.35-1.67,2.75.63,4.36-1.53,9.43-6,9-9.38-.92-12.39,2.36-11.17,5C28.45,28.3,28.36,24.94,33.24,24.77Z"/></g></g></g></mask><linearGradient id="linear-gradient-22" x1="27.77" y1="27.07" x2="49.95" y2="16.16" xlink:href="#linear-gradient-16"/><filter id="luminosity-noclip-18" x="15.55" y="10.28" width="12.4" height="22.83" filterUnits="userSpaceOnUse" color-interpolation-filters="sRGB"><feFlood flood-color="#fff" result="bg"/><feBlend in="SourceGraphic" in2="bg"/></filter><mask id="mask-18" x="12.81" y="8.09" width="12.4" height="22.83" maskUnits="userSpaceOnUse"><g class="cls-52"><g transform="translate(-2.73 -2.19)"><g class="cls-7"><path class="cls-8" d="M18.91,15.84c-1.39,5.1-5.53,8.26-1.93,13,2.55,3.33,8.21,4.69,11,4.19-.44,0-2-1.76-2.25-2.4-4.53-.78-8.94-4.37-7.19-8.41,3.66-8.4,1.27-12.22-1.71-11.9C16.79,10.3,20.16,11.26,18.91,15.84Z"/></g></g></g></mask><linearGradient id="linear-gradient-23" x1="-8.18" y1="25.72" x2="13.61" y2="15.01" gradientTransform="matrix(-0.29, 0.93, -1, -0.31, 40.36, 25.81)" xlink:href="#linear-gradient-16"/><filter id="luminosity-noclip-19" x="16.87" y="39.14" width="13.01" height="7.44" filterUnits="userSpaceOnUse" color-interpolation-filters="sRGB"><feFlood flood-color="#fff" result="bg"/><feBlend in="SourceGraphic" in2="bg"/></filter><mask id="mask-19" x="14.14" y="36.96" width="13.01" height="7.44" maskUnits="userSpaceOnUse"><g class="cls-51"><g transform="translate(-2.73 -2.19)"><g class="cls-9"><path class="cls-10" d="M18.67,46.59c.65-1.7,3.06-3.8,6.31-5.32a18.11,18.11,0,0,1,4.9-1.53c-.08-.19-.16-.39-.25-.59h0s-6.39-.21-10.87,2.65C15.68,43.76,16.9,46.59,18.67,46.59Z"/></g></g></g></mask><linearGradient id="linear-gradient-24" x1="29.71" y1="39.32" x2="16.71" y2="44.98" xlink:href="#linear-gradient-16"/><filter id="luminosity-noclip-20" x="19.05" y="2.53" width="10.83" height="37.3" filterUnits="userSpaceOnUse" color-interpolation-filters="sRGB"><feFlood flood-color="#fff" result="bg"/><feBlend in="SourceGraphic" in2="bg"/></filter><mask id="mask-20" x="16.32" y="0.35" width="10.83" height="37.3" maskUnits="userSpaceOnUse"><g class="cls-50"><g transform="translate(-2.73 -2.19)"><g class="cls-11"><path class="cls-12" d="M29.36,39.84a4.76,4.76,0,0,1,.52-.1C27,32.88,21.69,19.13,21.69,19.13s-6.5-14,3.57-16.6c-4.18.68-9.07,4.44-4.14,16.86Z"/></g></g></g></mask><radialGradient id="radial-gradient-4" cx="22.74" cy="21.63" r="21.1" xlink:href="#radial-gradient-3"/></defs><title>logo-dark</title><path class="cls-21" d="M91.31,13.49a5.68,5.68,0,0,1-1.19,4.22L79.5,31.2V44.14a5.69,5.69,0,1,1-11.37,0V31.2L57.57,17.66a5.52,5.52,0,0,1-1.14-4.17A5.38,5.38,0,0,1,58.6,9.7a5.51,5.51,0,0,1,4.17-1.2,5.79,5.79,0,0,1,3.79,2.17L73.82,20l7.36-9.32a5.67,5.67,0,0,1,10.13,2.82Z" transform="translate(-2.73 -2.19)"/><path class="cls-22" d="M111.62,43.27H100L98.84,46.2a5.66,5.66,0,0,1-5.31,3.57,5.93,5.93,0,0,1-2.11-.43,5.67,5.67,0,0,1-3.14-7.42l12.08-30.11a5.7,5.7,0,0,1,10.56-.06l12.51,30.11a5.77,5.77,0,0,1-3.09,7.48,6.22,6.22,0,0,1-2.22.43,5.67,5.67,0,0,1-5.25-3.52Zm-4-11.42-1.84-6.07-1.89,6.07Z" transform="translate(-2.73 -2.19)"/><path class="cls-23" d="M132.86,49.77a5.68,5.68,0,0,1-5.69-5.69V13.92a5.69,5.69,0,0,1,5.69-5.69h13.26a14.24,14.24,0,0,1,7.1,26.59l4.33,5.74a5.7,5.7,0,0,1-1,8,5.86,5.86,0,0,1-3.52,1.19,5.68,5.68,0,0,1-4.5-2.22l-8.34-10.83H138.6v7.36A5.73,5.73,0,0,1,132.86,49.77Zm5.74-30.11v5.69h7.52a2.85,2.85,0,0,0,2.82-2.87,2.8,2.8,0,0,0-2.82-2.82Z" transform="translate(-2.73 -2.19)"/><path class="cls-24" d="M164.7,44.08v-30a5.72,5.72,0,0,1,11.43,0v30a5.72,5.72,0,0,1-11.43,0Z" transform="translate(-2.73 -2.19)"/><path class="cls-25" d="M187.4,49.77a5.69,5.69,0,0,1-5.69-5.69V15.71a7.36,7.36,0,0,1,7.36-7.31H207.6a5.69,5.69,0,0,1,0,11.37H193.14V23.4h9.8a5.69,5.69,0,1,1,0,11.37h-9.8v9.31A5.73,5.73,0,0,1,187.4,49.77Z" transform="translate(-2.73 -2.19)"/><path class="cls-26" d="M248.92,13.49a5.68,5.68,0,0,1-1.19,4.22L237.11,31.2V44.14a5.69,5.69,0,1,1-11.37,0V31.2L215.18,17.66A5.52,5.52,0,0,1,214,13.49a5.38,5.38,0,0,1,2.17-3.79,5.51,5.51,0,0,1,4.17-1.2,5.79,5.79,0,0,1,3.79,2.17L231.43,20l7.36-9.32a5.67,5.67,0,0,1,10.13,2.82Z" transform="translate(-2.73 -2.19)"/><path class="cls-27" d="M29.56,2.19a27.62,27.62,0,0,0-4.3.34c-10.07,2.56-3.57,16.6-3.57,16.6A12.28,12.28,0,0,1,28,13.71c6-2.23,12.19,4.09,16.5-2.72,2.83,4.47.9,12.89-4.86,12.32-9.38-.92-12.39,2.36-11.17,5l5.83,12.5S41,54.52,32.34,55.69a26.82,26.82,0,0,0-2.78-53.5Z" transform="translate(-2.73 -2.19)"/><g class="cls-28"><path class="cls-29" d="M50.6,12.38a26.77,26.77,0,0,0-21-10.19,27.62,27.62,0,0,0-4.3.34c-4.57,1.16-5.72,4.69-5.62,8.19C19.66,10.71,40.5.1,50.6,12.38Z" transform="translate(-2.73 -2.19)"/></g><path class="cls-30" d="M27.94,47.62c-4.32,2-8.49,2.23-9.31.47s2-4.8,6.35-6.82a18.11,18.11,0,0,1,4.9-1.53C27,32.88,21.69,19.13,21.69,19.13s-6.5-14,3.57-16.6a26.82,26.82,0,0,0,4.3,53.3c.94,0,1.87,0,2.78-.14C41,54.52,34.28,40.8,34.28,40.8,35.1,42.55,32.26,45.6,27.94,47.62Z" transform="translate(-2.73 -2.19)"/><g class="cls-31"><path class="cls-32" d="M20.22,3.87A26.8,26.8,0,0,0,3.8,36.5c9.08-5,7.71-10.95,8.28-19.61C12.72,7.18,19.6,4.15,20.22,3.87Z" transform="translate(-2.73 -2.19)"/></g><g class="cls-33"><path class="cls-34" d="M27.94,47.62c-4.32,2-8.49,2.23-9.31.47s2-4.8,6.35-6.82a18.11,18.11,0,0,1,4.9-1.53C27,32.88,21.69,19.13,21.69,19.13c-5,8.46-6.57,30.92-14.34,24.93A26.81,26.81,0,0,0,29.56,55.83c.94,0,1.87,0,2.78-.14C41,54.52,34.28,40.8,34.28,40.8,35.1,42.55,32.26,45.6,27.94,47.62Z" transform="translate(-2.73 -2.19)"/></g><g class="cls-35"><path class="cls-36" d="M25.27,15.16C23.32,11.43,20,3.26,27.66,2.26q-1.21.09-2.4.27c-10.07,2.56-3.57,16.6-3.57,16.6A12.16,12.16,0,0,1,25.27,15.16Z" transform="translate(-2.73 -2.19)"/></g><g class="cls-37"><path class="cls-38" d="M28.45,28.3l5.83,12.5S41,54.52,32.34,55.69c.39,0,.78-.09,1.16-.15,4-.84,5.41-5.52,1.34-15Z" transform="translate(-2.73 -2.19)"/></g><g class="cls-39"><path class="cls-40" d="M56.38,29a27.06,27.06,0,0,0-.73-6.21c-7.78,1.12-13.27,8.26-12.37,18.56S38.55,54.24,38,54.45A26.81,26.81,0,0,0,56.38,29Z" transform="translate(-2.73 -2.19)"/></g><g class="cls-41"><path class="cls-42" d="M33.24,24.77c5.44-.19,9.83,2.69,13.35-2,2.49-3.28,2.08-8.85.74-11.22.13.41-1.11,2.35-1.67,2.75.63,4.36-1.53,9.43-6,9-9.38-.92-12.39,2.36-11.17,5C28.45,28.3,28.36,24.94,33.24,24.77Z" transform="translate(-2.73 -2.19)"/></g><g class="cls-43"><path class="cls-44" d="M18.91,15.84c-1.39,5.1-5.53,8.26-1.93,13,1.76,2.3,5,3.66,7.75,4.12,1.06.18,1.09-.62.5-1.52l-.33-.13a.67.67,0,0,0-.44-.29c-4.32-1-7.64-4.93-6-8.8,3.66-8.4,1.27-12.22-1.71-11.9C16.79,10.3,20.16,11.26,18.91,15.84Z" transform="translate(-2.73 -2.19)"/></g><g class="cls-45"><path class="cls-46" d="M18.67,46.59c.54-1.42,2.3-3.11,4.75-4.51q.75-.42,1.56-.81a18.11,18.11,0,0,1,4.9-1.53c-.08-.19-.16-.39-.25-.59h0s-6.39-.21-10.87,2.65C15.68,43.76,16.9,46.59,18.67,46.59Z" transform="translate(-2.73 -2.19)"/></g><g class="cls-47"><path class="cls-48" d="M29.36,39.84a4.76,4.76,0,0,1,.52-.1C27,32.88,21.69,19.13,21.69,19.13s-6.5-14,3.57-16.6c-4.18.68-9.07,4.44-4.14,16.86Z" transform="translate(-2.73 -2.19)"/></g><path class="cls-49" d="M17.76,10.9A3.56,3.56,0,0,0,11.94,13C11.4,16.7,7,19.42,6.75,23.89a11.37,11.37,0,0,0,1.3,6,3.5,3.5,0,0,0,2.3,1.81A110.8,110.8,0,0,0,26,34.62a3.63,3.63,0,0,1,2.83,1.74l0,0a3.77,3.77,0,0,1,.47,1.43c.2,2,.94,7.16,3.07,6.17,1.31-.61-1.16-4,1.12-4.85l-.95-1.26S26.11,29,19.87,29.1h-.42c-2.73,0-4.39-3.81,0-11.51C20.88,15.15,19.81,12.64,17.76,10.9Z" transform="translate(-2.73 -2.19)"/><path class="cls-49" d="M51.22,65.57" transform="translate(-2.73 -2.19)"/></svg>