<svg id="Flat" enable-background="new 0 0 64 64" height="512" viewBox="0 0 64 64" width="512" xmlns="http://www.w3.org/2000/svg"><path d="m32 6c-16 0-29 11-29 26s3 26 13 26 7-23 16-23 6 23 16 23 13-11 13-26-13-26-29-26z" fill="#454a6d"/><g fill="#eae8e5"><circle cx="32" cy="17" r="6"/><circle cx="48" cy="27" r="6"/><circle cx="51" cy="44" r="5"/></g><path d="m9 61h-6v-52l3-6 3 6z" fill="#4ac3ed"/><path d="m3 9h6v2h-6z" fill="#454a6d"/><path d="m3 55h6v2h-6z" fill="#454a6d"/><path d="m17 61c-1.142 0-2.103-.852-2.241-1.985l-2.843-23.455c-.6-4.952.119-9.975 2.084-14.56h6c1.965 4.585 2.684 9.608 2.084 14.56l-2.843 23.454c-.138 1.134-1.099 1.986-2.241 1.986z" fill="#76cc7a"/><path d="m20 21s2-3 2-6-5-8-5-8-5 5-5 8 2 6 2 6z" fill="#e89d43"/></svg>