<svg id="Thanksgiving" height="512" viewBox="0 0 1200 1200" width="512" xmlns="http://www.w3.org/2000/svg"><g><path d="m711.255 618.389c12.363 13.515 21.98 24.967 30.418 39.673 10.918 19.314 24.256 37.198 54.154 37.276 17.362-.564 36.265-4.063 55.236-3.681 51.625 0 98.836 12.476 136.498 36.062 27.682 13.542 48.426 55.605 78.709 54.893 10.496 0 35.457-4.754 40.549-48.776 16.951-196.848-87.623-389.702-253.779-501.658 12.068-30.746 24.466-58.457 15.518-90.938-6.455-21.889-30.346-35.396-52.211-29.042-34.689 11.464-48.875 36.926-67.977 65.803-74.568-28.537-157.979-41.548-238.723-41.606-86.764 0-173.553 15.592-252.289 45.216-19.719-20.04-33.791-44.843-68.492-47.833-51.121 4.647-42.428 59.164-20.773 89.82-12.486 7.735-31.332 22.401-28.932 44.741 2.82 26.24 31.965 35.248 43.278 38.747 11.019 3.568 19.782 7.934 30.634 12.341 8.057 21.649 17.553 42.146 26.049 59.828 17.094 35.229 37.203 71.729 61.48 111.585 47.883 78.602 100.674 151.684 157.103 217.497-20.595 34.261-42.2 69.637-65.563 107.363-19.209 2.023-34.383 12.407-41.186 28.618-16.93 41.578-43.531 71.649-72.978 82.504-59.292 20.19-51.31-48.319-38.819-82.814 4.365-13.75 10.758-28.58 5.339-48.915-7.623-29.835-40.696-48.391-72.729-42.961-29.935 4.269-53.397 27.198-64.509 63.017-52.401 125.294 30.498 274.706 166.961 274.229 87.203.016 162.705-62.428 206.018-142.269 9.682-19.667 26.494-39.648 15.945-70.234 15.59-24.776 31.256-50.28 47.377-77.123 2.859 2.73 5.824 5.521 8.922 8.403-.877 16.89 3.288 31.902 5.57 38.702 5.592 15.205 16.207 28.513 30.328 38.713 12.01 46.811 30.856 154.233 92.472 155.564 15.067.729 31.567-9.759 38.079-19.909 44.566 41.651 94.254 64.277 142.193 64.277 112.791 1.979 171.232-121.416 129.604-219.622-27.46-74.438-91.096-83.794-124.34-43.755-26.218 33.297-2.952 68.14 3.596 102.634 2.831 12.307 1.407 27.299-2.273 31.205-.337.416-.657.807-2.89.807-12.449-.699-24.223-7.751-34.895-16.424 51.159-62.264-39.053-115.141-90.943-141.787-2.059-18.14-9.875-35.561-22.551-49.579-15.76-17.425-37.398-28.033-60.139-29.671-9.244-19.916-19.325-40.158-30.501-61.256 14.05-24.951 28.34-50.648 43.237-77.752 15.487 11.873 29.622 24.621 42.225 38.087zm-155.137-78.839c-4.604-7.145-9.297-14.324-14.074-21.524 7.43 1.849 14.934 4.031 22.5 6.546-2.819 5.022-5.629 10.019-8.426 14.978z" fill="#fff"/><g><path d="m1076.953 619.08c-24.674-155.261-124.053-295.522-257.337-377.344 9.006-17.843 17.182-36.41 22.162-55.773 2.915-11.333 5.914-25.298 1.902-36.772-2.514-8.814-11.686-14.452-20.689-11.738-11.188 2.582-20.672 12.035-28.036 20.278-14.146 15.838-25.237 34.342-34.901 53.215-38.347-16.613-78.732-28.515-119.766-36.298-129.868-24.49-268.568-12.035-391.014 38.189-10.998-13.699-22.417-27.195-35.328-39.139-6.475-5.923-14.605-12.892-23.746-13.748-8.135-.762-13.176 5.455-13.592 13.081.756 22.713 17.791 41.132 28.205 60.298-5.332 3.04-11.463 5.851-17.256 9.122-37.881 21.39-21.461 32.253 2.25 39.584 4.595 1.423 8.982 2.761 12.127 4.518 10.773 4.231 21.42 8.773 31.959 13.555 7.947 23.258 18.088 45.628 28.717 67.75 18.182 37.47 38.631 73.842 60.289 109.399 49.025 80.479 104.641 157.456 166.939 228.262-27.359 45.747-55.176 91.217-83.3 136.501-11.65-1.785-26.157.152-31.403 12.145-16.424 40.337-45.705 81.517-88.133 97.156-27.678 10.193-60.199 6.224-74.889-22.129-14.24-29.211-7.143-63.691 2.234-93.311 3.658-11.172 8.252-21.952 4.976-33.865-5.192-18.88-25.677-26.964-43.688-24.063-23.398 3.237-37.317 24.674-43.672 45.686-64.808 168.861 105.083 313.288 253.436 198.437 29.949-23.669 53.484-54.588 72.07-87.735 9.748-19.563 25.706-37.517 8.168-58.005 24.842-39.129 48.965-78.705 72.564-118.592 6.789 6.898 13.637 13.739 20.607 20.456 7.064 6.809 14.259 13.485 21.523 20.083-3.477 12.343-1.629 28.045 2.473 40.265 5.307 13.584 16.252 24.074 28.944 30.89 4.77 24.404 10.738 48.69 18.373 72.378 7.938 22.417 25.425 79.696 55.869 72.606 16.342-4.437 16.816-26.275 31.619-31.829 41.014 45.618 99.744 85.354 163.855 75.201 85.442-14.306 115.127-108.652 84.936-182.432-8.796-23.743-25.148-50.873-54.178-49.958-23.98-.022-36.816 24.346-30.518 45.76 4.758 16.634 11.781 32.736 14.146 50.063 5.438 26.273-.213 64.559-34.869 61.479-30.355-3.054-55.066-26.672-74.09-48.597 2.408-5.331 8.822-3.89 13.488-5.232 15.279-4.844 20.805-21.016 16.811-35.609-11.336-32.716-74.393-62.136-104.062-79.2 4.048-40.163-33.171-74.919-73.339-67.984-13.381-30.037-28.123-59.432-43.792-88.354 21.711-38.391 43.085-76.974 64.22-115.685 25.496 16.762 49.232 36.21 70.098 58.506 10.52 11.239 20.283 23.184 28.857 35.977 2.223 3.321 4.266 7.031 6.398 10.732 12.051 20.895 19.771 23.634 40.768 21.264 13.348-1.507 26.648-2.743 40.09-2.941 53.914-.729 108.996 11.21 155.018 40.031 16.262 10.213 31.121 22.65 43.857 37.03 11.877 13.432 31.038 27.443 35.578-11.808 1.277-11.036.9-22.804 1.464-29.093.79-27.658-1.148-55.33-5.392-82.663zm-519.732-28.635c-22.059-36.186-45.492-71.552-69.896-106.137 39.497.771 78.502 11.12 114.733 26.627-14.778 26.597-29.712 53.107-44.837 79.51z" fill="#68182b"/><path d="m784.503 629.51c-2.65 20.712-4.768 17.764-11.922 6.553-27.067-42.271-65.113-76.698-106.879-104.125 18.314-33.626 36.484-67.336 54.543-101.1 25.234 16.759 48.551 36.512 68.454 59.14 4.542 46.373 1.726 93.305-4.196 139.532z" fill="#67d5e8"/><path d="m1046.654 727.229c-5.976-6.092-12.34-11.801-19.031-17.097-63.305-50.693-142.346-59.506-220.098-53.943-14.438 1.035-15.072-.349-13.508-10.779 3.631-24.181 5.91-48.585 7.223-72.974 1.193-22.123 1.854-44.547.393-66.743 3.436 4.495 6.752 9.08 9.918 13.771 8.955 13.271 21.914 27.199 46.938 32.706 6.988 1.538 14.172 2.892 21.209 4.817 24.23 6.938 47.396 17.337 68.721 30.777 49.465 31.178 86.131 78.826 103.279 134.646 3.643 11.831 3.842 13.882-5.044 4.819z" fill="#8edbff"/><path d="m1055.669 573.562c12.137 47.672 18.711 97.752 14.35 146.962-1.816 20.489-4.313 8.735-6.074 2.633-22.219-77.077-81.75-140.899-157.209-169.165-14.986-6.772-30.809-9.529-46.574-13.215-16.832-3.933-18.895-8.334-18.627-21.771 1.733-88.009-2.969-179.419-36.805-261.313-5.189-12.553-6.488-15.482 11.462-4.401 115.948 71.58 204.272 188.512 239.477 320.27z" fill="#67d5e8"/><path d="m783.581 192.592c9.101-14.38 18.412-27.6 31.445-38.166 11.329-9.204 19.047-8.332 18.93 6.912-.049 6.57-1.496 13.895-2.33 17.647-4.518 19.854-12.795 38.787-21.953 56.942-12.608-7.51-25.764-14.061-39.08-20.194 4.066-7.859 8.316-15.626 12.988-23.141z" fill="#db9f6e"/><path d="m789.734 251.988c31.063 67.928 38.297 144.623 40.344 218.61.268 12.89.287 25.783.121 38.675-.283 21.351-1.586 15.108-9.361 3.52-3.613-5.384-7.351-10.675-11.439-15.75-52.746-66.549-129.9-112.227-211.833-132.788-23.739-6.028-48.09-9.049-72.511-9.786-17.653-.533-24.204.96-8.932-9.503 25.833-17.708 52.954-33.559 80.825-47.795 52.618-26.6 108.446-48.787 166.723-58.839 19.173-3.308 19.135-1.498 26.063 13.656z" fill="#8edbff"/><path d="m479.119 472.78c-5.815-8.111-11.621-16.22-17.554-24.229 35.633-30.483 76.732-56.089 118.971-76.284 28.387 5.743 56.135 14.844 82.465 26.845-18.203 34.063-36.639 68-55.342 101.788-40.539-17.381-84.232-28.786-128.54-28.12z" fill="#67d5e8"/><path d="m454.696 439.338c-40.863-55.07-84.188-108.341-131.053-158.428 45.934 8.999 92.853 23.546 128.648 54.825 26.227 25.272 21.467 33.522 62.355 29.904 15.604-.087 31.223 1.055 46.667 3.295-37.877 19.278-74.336 42.951-106.617 70.404z" fill="#8edbff"/><path d="m592.776 178.933c54.661 6.46 109.188 19.46 159.852 41.281 12.422 5.347 9.969 6.275-7.094 9.874-28.58 6.026-56.561 14.919-83.785 25.468-40.945 15.862-80.526 35.395-118.125 58.069-14.762 8.905-29.219 18.317-43.26 28.322-13.746 9.795-16.67 8.471-26.459-.587-34.887-40.04-87.57-58.834-138.16-69.747-8.418-1.794-16.884-3.332-25.377-4.722-6.22-6.308-12.66-12.366-19.531-17.754-8.267-6.482-17.125-12.203-26.74-16.446-2.4-3.551-5.027-6.974-7.617-10.394 105.691-42.649 223.32-56.573 336.296-43.364z" fill="#67d5e8"/><path d="m406.525 447.109c57.073 77.396 112.134 156.324 163.831 237.425 22.106 34.762 43.614 69.958 63.436 106.078 1.359 2.48 2.695 4.972 4.037 7.461-4.072 4.691-8.783 7.987-14.535 10.052-85.379-98.973-162.637-204.774-236.19-312.741-26.202-38.851-51.676-78.22-75.711-118.453-19.852-33.224-38.984-67.056-55.162-102.247-.814-1.77-1.59-3.56-2.386-5.338 2.624-1.329 5.085-3.024 7.271-4.997 51.773 58.193 98.961 120.289 145.409 182.76z" fill="#67d5e8"/><path d="m196.993 250.421c4.641-2.613 9.426-5.01 14.133-7.409 3.397 5.215 6.928 10.231 10.467 15.365-6.215-.252-12.43-.448-18.646-.592-8.013-.183-18.786-.14-5.954-7.364z" fill="#67d5e8"/><path d="m201.811 274.209c-9.139-3.541-8.982-5.311 2.132-4.985 7.949.232 16.777.716 23.601.889.384 5.293 1.191 10.52 2.354 15.676-9.281-4.056-18.641-7.921-28.087-11.58z" fill="#8edbff"/><path d="m196.411 196.981c-12.66-22.577-6.556-31.063 10.453-14.162 7.32 6.86 14.124 14.324 20.729 21.87 9.973 11.405 19.441 23.276 27.934 35.83 1.623 2.409 3.232 4.352 3.068 6.834-.518 7.787-14.6 17.668-21.688 11.855-15.766-18.821-27.859-41.08-40.496-62.227z" fill="#ceffff"/><path d="m453.871 916.7c-33.187 65.724-91.397 129.027-168.958 134.589-65.641 5.552-129.179-39.279-147.766-102.157-11.714-37.134-9.021-76.996 2.904-113.722 6.335-19.502 14.328-41.85 37.09-46.091 15.816-2.945 33.113 6.299 31.785 24.014-1.928 12.417-8.066 23.87-10.545 36.269-17.582 61.803 4.055 131.35 80.35 116.243 51.279-12.629 87.015-59.174 106.346-105.87 5.539-12.685 29.688-4.392 37.59-.939 14.236 6.208 33.025 17.259 38.566 32.821 3.102 8.708-3.402 17.15-7.362 24.843z" fill="#db9f6e"/><path d="m457.473 867.706c-12.021-10.274-23.924-17.58-39.139-22.887 26.824-43.218 53.363-86.614 79.492-130.257 10.354 11.851 21.141 23.316 32.042 34.668-23.543 39.847-47.623 79.378-72.395 118.476z" fill="#ffb578"/><path d="m581.109 783.446c-18.376-17.036-36.103-34.773-53.271-53.025-67.602-71.874-127.185-151.4-179.93-234.714-38.762-62.335-76.324-126.341-101.795-195.406-3.219-9.134-5.866-18.478-6.887-28.084 2.695.355 5.457.183 8.178-.463 14.541 32.745 31.932 64.23 50.016 95.123 72.88 122.898 156.311 239.325 243.813 352.176 23.816 30.444 48.088 60.572 73.447 89.753.2.229.405.459.604.69-2.581-.09-5.108-.729-7.389-2.256-9.444-7.219-17.845-15.924-26.786-23.794z" fill="#8edbff"/><path d="m688.166 999.572c-19.784 20.271-41.267-45.108-46.143-58.392-7.288-21.789-12.681-44.163-17.519-66.614 10.566 2.959 21.816 3.171 32.656.753 11.619 35.46 28.084 69.552 48.664 100.685-7.297 6.318-10.522 16.356-17.658 23.568z" fill="#8edbff"/><path d="m715.087 971.079c-1.234.333-2.354.767-3.43 1.241-20.197-30.591-36.408-64.001-47.828-98.829 11.359-3.764 21.52-10.173 29.629-18.405 31.277 19.95 59.721 44.958 83.292 73.619-2.273 3.98-3.641 8.557-4.743 12.898-2.752 10.843-3.76 30.308-17.736 32.676-13.129 2.241-26.059-6.884-39.184-3.2z" fill="#67d5e8"/><path d="m837.863 988.459c43.697 18.754 74.6-8.435 70.953-54.006-.822-15.267-4.289-30.359-8.899-44.895-3.899-12.296-11.315-25.831-6.868-39.01 7.129-21.113 33.73-13.853 45.586-1.844 19.046 22.097 25.33 53.435 27.684 81.824 1.938 46.846-21.426 94.017-67.18 110.796-55.967 20.523-114.625-9.721-154.965-47.85-15.942-15.088-8.706-8.604 6.113-7.492 22.135.675 29.063-21.281 32.219-39.318 15.451 17.379 33.794 32.917 55.357 41.795z" fill="#db9f6e"/><path d="m759.347 853.51c14.682 9.757 30.107 19.759 41.854 32.997 7.117 9.002 9.543 26.729-3.879 31.268-5.969 2.018-11.408 1.291-16.227 5.455-23.634-28.445-51.844-53.35-82.953-73.354 5.803-7.128 10.17-15.271 12.738-23.933 16.338 8.858 32.754 17.639 48.467 27.567z" fill="#8edbff"/><path d="m644.644 757.2c8.789-.464 17.674.126 25.908 3.503 24.834 10.875 38.971 42.585 27.723 67.838-12.914 30.042-51.455 46.716-81.088 30.824-19.833-9.348-29.292-30.588-26.825-51.883 6.385 6.004 13.149 12.201 21.981 13.292 17.342 2.143 36.73-11.547 41.283-28.3 3.318-12.712-4.535-23.851-8.982-35.274z" fill="#67d5e8"/><path d="m631.448 755.448c2.434 5.516 4.823 11.05 7.146 16.61 2.697 5.919 6.334 12.703 3.334 19.199-40.563-74.111-87.106-144.769-134.668-214.531-74.652-107.731-151.623-214.313-237.663-313.311-1.272-1.431-2.56-2.847-3.837-4.271 1.313-1.853 2.404-3.8 3.153-5.813.634-1.709.896-3.323.996-4.902 11.862 7.079 22.132 16.674 31.851 26.541 133.483 141.339 248.418 303.441 329.688 480.478z" fill="#8edbff"/><path d="m589.466 645.839c-8.229-14.841-16.688-29.561-25.408-44.127 37.497-65.311 73.874-131.25 109.362-197.672 12.643 6.18 25.057 13.047 37.117 20.558-39.651 74.129-79.756 148.022-121.071 221.241z" fill="#ffb578"/><path d="m580.536 372.266c-27.24 13.024-53.984 28.331-79.115 45.713 29.271-11.551 60.254-19.075 91.339-16.143 20.652 1.949 40.339 11.322 47.056 32.198.573 1.783 1.053 3.587 1.455 5.401 7.27-13.427 14.535-26.857 21.73-40.325-26.33-12-54.078-21.1-82.465-26.844z" fill="#65b0b9"/><path d="m1063.945 723.157c.531 1.84 1.129 4.181 1.754 6.009-.049-1.003-.092-2.004-.186-3.012-1.058-11.359-3.855-22.509-7.345-33.341-7.304-22.657-19.454-43.662-33.229-62.949-26.528-37.139-63.37-69.812-102.358-93.144-13.742-8.224-26.306-16.986-35.988-29.945-8.123-10.87-12.76-23.976-16.213-36.957-7.256-27.283-9.469-55.866-15.774-83.416-6.472-28.275-16.3-54.841-28.11-81.249-4.328-9.679-8.992-20.647-15.179-30.31 27.839 77.395 31.832 162.248 30.218 244.162-.268 13.438 1.795 17.839 18.627 21.771 15.766 3.686 31.588 6.442 46.574 13.215 75.459 28.267 134.99 92.089 157.209 169.166z" fill="#65b0b9"/><path d="m712.837 937.025c-9.045-11.992-14.745-26.217-19.582-40.305-3.438-10.012-7.906-21.896-9.512-33.503-6.035 4.319-12.691 7.881-19.914 10.273 11.42 34.828 27.631 68.238 47.828 98.829 1.076-.475 2.195-.908 3.43-1.241 13.125-3.684 26.055 5.441 39.184 3.2 3.738-.635 6.529-2.515 8.695-5.104-18.612.812-38.766-17.076-50.129-32.149z" fill="#65b0b9"/><path d="m477.846 325.466c-10.924-3.347-20.426-13.708-29.605-20.112-19.033-13.278-40.643-22.759-62.478-30.361-20.931-7.286-42.68-12.313-64.616-15.379-6.648-.929-13.547-1.733-20.455-2.073 3.301 3.018 6.519 6.15 9.676 9.353 8.493 1.39 16.959 2.928 25.377 4.722 50.59 10.913 103.273 29.707 138.16 69.747 9.789 9.058 12.713 10.382 26.459.587 14.041-10.005 28.498-19.417 43.26-28.322 37.6-22.675 77.18-42.207 118.125-58.069 26.12-10.121 52.942-18.688 80.314-24.692-82.256 10.274-160.235 45.088-232.732 84.892-9.407 5.162-20.289 13.135-31.485 9.707z" fill="#65b0b9"/><path d="m788.699 489.977c-19.903-22.628-43.22-42.381-68.454-59.14-11.861 22.176-23.857 44.283-35.825 66.407 9.458-4.763 19.724-7.652 30.856-7.304 22.693.706 42.637 22.438 53.811 40.118 10.41 16.477 16.236 34.405 20.107 52.914 2.245-30.999 2.53-62.118-.495-92.995z" fill="#65b0b9"/><path d="m623.294 808.125c3.778-1.355 7.074-3.303 10.068-5.768-128.494-152.317-239.692-317.091-353.367-480.357 10.021 18.567 20.592 36.845 31.398 54.931 24.035 40.233 49.509 79.603 75.711 118.453 73.553 107.966 150.811 213.768 236.19 312.741z" fill="#65b0b9"/><path d="m617.187 859.365c29.633 15.892 68.174-.782 81.088-30.824 4.824-10.837 4.951-22.855 1.592-33.912-4.074 20.042-18.26 37.044-39.705 44.444-23.156 7.994-42.911-1.69-53.693-19.857-6.094-2.444-11.217-7.135-16.106-11.733-2.468 21.294 6.991 42.534 26.824 51.882z" fill="#65b0b9"/><path d="m1010.847 521.373c-13.633-62.235-72.443-145.789-120.684-192.463-28.877-27.939-25.52-12.149-17.578 13.038 4.273 13.551 7.332 27.564 10.473 41.523 5.717 25.383 12.285 50.71 23.424 74.316 11.717 24.83 29.439 45.385 50.027 63.288 9.428 8.201 19.512 15.819 29.932 22.707 22.074 14.598 34.988 25.868 24.406-22.409z" fill="#a6f4ff"/><path d="m626.935 203.462c-46.618-8.507-95.15-9.836-142.005-9.013-26.273.461-52.556 2.137-78.646 5.282-67.408 8.122-80.361 34.175-18.227 47.886 18.07 3.986 35.455 10.287 53.412 14.706 29.482 7.254 62.283 9.293 90.83-2.798 30.762-13.03 61.479-25.628 93.005-36.614 19.998-6.972 52.396-10.183 1.631-19.449z" fill="#a6f4ff"/><path d="m594.471 423.428c-19.756-6.993-51.918-6.48-78.701 13.208-19.334 14.21 3.039 18.5 9.584 18.567 34.18.351 48.586 6.603 60.352 10.321 12.623 3.991 21.603-5.783 24.78-17.881 2.837-10.801-6.571-20.871-16.015-24.215z" fill="#a6f4ff"/><path d="m743.679 520.213c-4.893-6.404-16.314-11.061-26.721-12.262-22.711-2.617-29.871 9.26-11.061 26.888 4.859 4.556 10.672 8.307 15.641 12.309 7.215 5.811 13.467 12.606 18.907 20.076 3.696 5.077 7.411 9.872 13.046 12.84 18.23 9.598 9.52-20.946 7.252-27.454-3.998-11.469-9.693-22.75-17.064-32.397z" fill="#a6f4ff"/><path d="m681.845 780.467c-6.105-7.646-15.514-8.298-19.536 1.459-2.334 5.665.255 14.217.903 20.014 1.058 9.438-.168 16.595-5.523 22.396-3.771 4.084-5.546 6.544 1.506 4.421 9.568-2.869 17.51-9.265 22.75-18.217 4.878-8.331 6.289-22.071-.1-30.073z" fill="#a6f4ff"/><path d="m708.208 865.086c11.346 13.242 23.355 25.983 34.414 39.429 8.439 10.258 16.438 20.645 22.445 32.533 2.25 4.448 3.818 9.089 4.986 13.836.695-3.361 1.27-6.586 1.953-9.28 1.103-4.342 2.47-8.918 4.743-12.898-19.801-24.079-43.07-45.531-68.541-63.62z" fill="#a6f4ff"/><path d="m542.216 646.954c13.564 18.959 27.031 37.987 40.402 57.08-4.07-6.512-8.143-13.021-12.262-19.5-51.697-81.101-106.758-160.028-163.831-237.425-46.448-62.471-93.636-124.567-145.409-182.761-2.186 1.973-4.646 3.668-7.271 4.997.796 1.778 1.571 3.568 2.386 5.338.52 1.132 1.068 2.249 1.594 3.378 11.975 11.77 22.705 25.245 33.287 37.764 25.492 30.155 49.857 61.261 74.043 92.465 60.68 78.292 119.424 158.113 177.061 238.664z" fill="#a6f4ff"/><g fill="#73b9d5"><path d="m585.772 774.559c-16.271-14.506-31.924-29.771-47.059-45.405-39.822-41.137-76.814-85.294-111.786-130.596-34.62-44.847-66.007-92.051-97.046-139.417-14.443-22.041-28.568-44.292-42.203-66.837 18.574 35.315 39.217 69.609 60.23 103.402 52.745 83.313 112.328 162.84 179.93 234.714 17.168 18.252 34.895 35.989 53.271 53.025 8.94 7.87 17.342 16.575 26.787 23.795 2.28 1.527 4.808 2.166 7.389 2.256-.199-.231-.404-.461-.604-.69-9.801-11.274-19.396-22.724-28.909-34.247z"/><path d="m601.146 309.306c23.06-17.021 47.797-32.343 73.143-46.3-26.451 9.835-52.264 21.488-77.34 34.164-27.871 14.236-54.992 30.087-80.825 47.795-15.272 10.463-8.722 8.97 8.932 9.503 24.421.737 48.771 3.758 72.511 9.786 81.932 20.562 159.086 66.239 211.833 132.788 4.089 5.075 7.826 10.366 11.439 15.75 7.775 11.589 9.078 17.831 9.361-3.52.166-12.892.146-25.785-.121-38.675-.607-21.944-1.693-44.128-3.699-66.25-.986 24.765-4.207 65.841-16.613 62.927-10.072-2.366-20.326-15.655-27.73-22.229-12.598-11.183-26.395-20.964-40.514-30.109-19.445-12.595-39.586-25.062-60.322-35.457-20.272-10.161-42.084-17.056-63.959-22.781-12.834-3.357-31.202-3.807-41.891-12.428-11.624-9.37 19.449-30.28 25.795-34.964z"/><path d="m323.643 280.91c8.271 8.84 16.396 17.812 24.453 26.845 20.572 3.672 40.068 13.016 56.972 25.176 19.599 14.1 33.051 35.898 53.718 48.261 17.41 10.409 41.705 7.088 60.816 5.602 3.482-.271 6.894-.456 10.271-.587 10.334-6.082 20.822-11.868 31.44-17.271-15.444-2.24-31.063-3.382-46.667-3.295-40.889 3.618-36.129-4.632-62.355-29.904-35.795-31.281-82.714-45.828-128.648-54.827z"/><path d="m507.26 576.726c47.563 69.763 94.106 140.42 134.668 214.531.246-.528.381-1.062.54-1.592-16.634-38.041-38.178-73.72-58.261-110.183-27.912-50.673-59.328-99.541-92.703-146.772-32.793-46.403-67.477-91.925-103.033-136.242-18.006-22.438-36.996-43.68-57.852-63.502-4.293-4.079-8.611-8.127-12.93-12.179 67.07 82.308 129.126 168.709 189.571 255.939z"/><path d="m705.825 976.004c-20.58-31.133-37.045-65.225-48.664-100.685-7.285 1.624-14.742 1.952-22.066 1.168 11.441 19.979 24.596 39.019 34.744 59.818 6.703 13.744 16.072 26.89 20.596 41.587 1.588 5.158 2.213 10.526 2.379 15.97 4.304-6.194 7.498-13.087 13.011-17.858z"/><path d="m948.417 587.765c-21.324-13.44-44.49-23.839-68.721-30.777-7.037-1.926-14.221-3.279-21.209-4.817-25.023-5.507-37.982-19.435-46.938-32.706-3.166-4.691-6.482-9.276-9.918-13.771 1.461 22.196.801 44.62-.393 66.743-.242 4.492-.553 8.983-.863 13.476 2.508-5.075 5.307-9.99 8.467-14.69 3.135-4.659 6.85-8.932 11.32-12.358 7.363-5.642 13.947 2.078 18.158 6.479 8.754 9.149 16.393 15.925 29.176 18.234 16.486 2.981 32.563.346 49.045 5.246 33.012 9.815 63.125 34.114 87.201 57.869 14.455 14.261 26.91 30.051 37.148 47.202-19.613-43.471-51.672-80.414-92.473-106.13z"/><path d="m787.597 911.017c-13.82-3.499-24.262-18.88-33.479-28.774-13.876-14.897-31.151-31.397-50.604-40.062-1.635 2.657-3.384 5.255-5.371 7.694 31.109 20.004 59.319 44.908 82.953 73.354 4.818-4.164 10.258-3.438 16.227-5.455 4.063-1.374 6.652-3.967 8.121-7.15-5.701 1.594-11.678 1.956-17.847.393z"/><path d="m227.544 270.112c-5.85-.148-13.15-.518-20.131-.767 2.744.976 5.505 1.911 8.221 2.909 5.461 2.009 9.73 4.68 13.236 8.089-.59-3.386-1.078-6.789-1.326-10.231z"/></g><path d="m712.89 270.081c-26.938 11.229-59.18 27.15-70.443 34.933-29.572 20.434-20.08 28.797 7.104 35.994 15.281 4.046 38.656 11.172 68.242 32.273 30.613 21.832 42.284-1.593 43.975-27.798 1.033-15.966-1.127-34.531-3.701-49.633-4.13-24.195-12.173-39.515-45.177-25.769z" fill="#ceffff"/><path d="m909.3 613.456c-16.098-7.231-41.578-15.569-61.809-11.771-46.049 8.648-40.445 38.803 6.653 40.046 13.608.36 27.182 1.678 40.657 3.549 24.588 3.411 52.279 9.161 76.146 20.665 16.033 7.727 18.341 4.673 4.145-8.311-19.667-18.003-41.94-33.465-65.792-44.178z" fill="#ceffff"/><path d="m682.04 1003.213c-17.436-12.966-27.707-41.38-34.467-58.549-8.535-21.68-16.622-45.652-19.457-69.331-1.203-.263-2.425-.434-3.611-.767 4.838 22.451 10.23 44.825 17.519 66.614 4.374 11.92 22.124 65.747 40.016 62.033z" fill="#ceffff"/><path d="m372.784 501.581c37.85 54.101 78.334 107.238 122.346 156.99-70.619-93.942-137.765-190.605-197.709-291.694-18.084-30.893-35.475-62.378-50.016-95.123-.898.214-1.805.292-2.711.4 11.43 35.801 30.301 69.951 48.262 102.215 24.342 43.721 51.146 86.212 79.828 127.212z" fill="#ceffff"/><path d="m806.923 901.984c-.281-5.595-2.517-11.421-5.723-15.478-11.746-13.238-27.172-23.24-41.854-32.997-15.713-9.928-32.129-18.709-48.467-27.566-.568 1.921-1.26 3.805-2.002 5.669 20.918 11.032 41.41 22.748 61.063 35.975 14.948 10.06 28.463 20.133 36.983 34.397z" fill="#ceffff"/><path d="m744.173 993.475c40.34 38.129 98.998 68.373 154.965 47.85 45.037-16.517 68.324-62.481 67.195-108.597-.94 15.108-4.236 29.997-11.313 45.11-13.647 29.141-38.733 49.039-70.407 54.415-29.951 5.084-65.342-2.071-90.887-18.438-9.809-6.288-17.043-14.491-16.247-26.782.39-6.03 2.03-12.028 2.771-18.039.49-3.981.544-7.984-.031-11.812-4.051 15.041-12 29.347-29.932 28.801-14.82-1.111-22.056-7.596-6.114 7.492z" fill="#c98450"/><path d="m783.964 211.544c-3.052-2.701-4.509-6.636-5.094-10.936-2.859 4.985-5.635 10.018-8.277 15.125 13.316 6.134 26.472 12.685 39.08 20.194 9.158-18.155 17.436-37.089 21.953-56.942.834-3.753 2.281-11.077 2.33-17.647.004-.704-.023-1.347-.052-1.99-2.827 13.199-7.956 25.956-14.868 37.643-6.548 11.067-22.027 26.1-35.072 14.553z" fill="#c98450"/><path d="m284.913 1051.289c77.561-5.562 135.771-68.865 168.958-134.589 3.96-7.693 10.464-16.135 7.362-24.844-4.928-13.838-20.321-24.097-33.681-30.568 8.983 11.997 15.358 24.987 15.536 41.812.254 23.879-19.908 49.557-34.639 66.814-28.14 32.97-68.781 60.391-111.398 69.754-45.193 9.933-94.197-4.269-126.588-37.252-17.003-17.312-27.609-38.577-35.529-61.044.674 2.598 1.4 5.188 2.213 7.76 18.587 62.878 82.125 107.709 147.766 102.157z" fill="#c98450"/><path d="m808.935 169.467c-6.953 7.663-12.464 16.91-16.957 25.875-4.394 8.768 6.425 7.929 11.102 4.749 7.108-4.832 10.065-16.417 13.022-24.175 4.302-11.273 7.634-22.771-7.167-6.449z" fill="#f9c6a0"/><path d="m914.529 837.265c-9.195-.83-17.855 2.55-21.48 13.283-4.447 13.179 2.969 26.714 6.868 39.01 4.61 14.535 8.077 29.628 8.899 44.895 3.646 45.571-27.256 72.76-70.953 54.006-7.08-2.914-13.775-6.604-20.174-10.782 28.451 24.518 83.631 29.579 98.467-10.211 7.664-20.553.988-45.462-4.148-65.794-3.365-13.328-9.267-25.896-12.229-39.271-2.831-12.788 4.619-21.187 14.75-25.136z" fill="#f9c6a0"/><path d="m410.35 854.866c-9.852-2.485-21.614-3.27-25.273 5.108-19.331 46.696-55.066 93.241-106.346 105.87-76.295 15.106-97.932-54.44-80.35-116.243 2.479-12.398 8.617-23.852 10.545-36.269 1.328-17.715-15.969-26.959-31.785-24.014-7.664 1.429-13.625 4.94-18.441 9.674 2.508-.96 5.051-1.794 7.568-2.393 14.807-3.519 28.457 1.781 29.301 18.446 1.006 19.905-10.812 39.001-12.662 58.777-3.326 35.524 4.034 77.559 37.781 96.39 39.225 21.888 87.643 1.771 117.793-25.793 28.009-25.604 43.194-65.891 71.869-89.553z" fill="#f9c6a0"/><path d="m589.466 645.839c41.315-73.219 81.42-147.111 121.071-221.241-12.061-7.511-24.475-14.378-37.117-20.558-3.275 6.13-6.598 12.235-9.889 18.356 3.604 18.452 3.184 36.514-2.178 56.395-6.757 25.067-17.289 50.044-28.756 73.288-10.442 21.171-23.486 40.966-39.04 58.729-4.796 5.479-9.959 10.451-15.279 15.223 3.772 6.579 7.511 13.177 11.188 19.808z" fill="#ff9750"/><path d="m529.869 749.23c-10.901-11.352-21.688-22.817-32.042-34.668-2.257 3.771-4.557 7.513-6.822 11.279 6.826 14.504 8.061 29.356 3.611 46.46-4.156 15.992-13.26 31.573-21.395 45.853-7.977 14.002-17.205 27.908-28.168 40.051 4.215 2.854 8.314 5.993 12.42 9.501 24.772-39.098 48.852-78.629 72.396-118.476z" fill="#ff9750"/><path d="m219.772 224.862c-11.572-15.327-21.748-31.407-29.771-48.672-1.137 3.451.75 10.699 6.41 20.791 12.637 21.146 24.73 43.406 40.496 62.228 5.76 4.724 16.141-.918 20.105-7.378-14.9-1.89-26.644-12.937-37.24-26.969z" fill="#a9cddd"/></g></g></svg>