<?xml version="1.0" encoding="utf-8"?>
<svg xmlns="http://www.w3.org/2000/svg" xmlns:xlink="http://www.w3.org/1999/xlink" width="2766" height="1070">
  <path d="M-0 -0L2766 0L2766 1070L-0 1070L0 -0Z"></path>
  <path transform="translate(2535.13 799.02)" d="M131 -171L-131 -171L-131 171L131 171L131 -171Z"></path>
  <path fill="white" transform="translate(2535.13 799.02)" d="M131 -145L-131 -145L-131 145L131 145L131 -145Z"></path>
  <path transform="matrix(1.04077 0 0 1.04077 2535.13 826.856)" d="M-111.75 44.48L-111.75 25.32L-92.3202 25.32L-92.3202 44.48L-111.75 44.48ZM-75.5702 44.48L-75.5702 -26L-60.1602 -26L-58.6902 -16.35C-58.6902 -16.35 -57.7502 -16.35 -57.7502 -16.35C-56.1402 -18.67 -54.2002 -20.68 -51.9202 -22.38C-49.6402 -24.08 -47.0802 -25.37 -44.2102 -26.27C-41.3502 -27.16 -38.2302 -27.61 -34.8302 -27.61C-30.1902 -27.61 -26.1202 -26.76 -22.6402 -25.06C-19.1602 -23.36 -16.4502 -20.68 -14.5302 -17.02C-12.6102 -13.36 -11.6502 -8.58 -11.6502 -2.68C-11.6502 -2.68 -11.6502 44.49 -11.6502 44.49L-30.2702 44.49C-30.2702 44.49 -30.2702 0.27 -30.2702 0.27C-30.2702 -1.96 -30.5402 -3.86 -31.0702 -5.42C-31.6102 -6.98 -32.3902 -8.28 -33.4102 -9.31C-34.4402 -10.34 -35.7102 -11.07 -37.2302 -11.52C-38.7502 -11.97 -40.4502 -12.19 -42.3202 -12.19C-45.0902 -12.19 -47.5902 -11.52 -49.8202 -10.18C-52.0502 -8.84 -53.8002 -7.01 -55.0502 -4.69C-56.3002 -2.37 -56.9302 0.31 -56.9302 3.35C-56.9302 3.35 -56.9302 44.49 -56.9302 44.49L-75.5602 44.49L-75.5702 44.48ZM34.4398 46.09C26.6698 46.09 20.1498 44.77 14.8798 42.14C9.60976 39.51 5.62976 35.46 2.94976 30.01C0.269756 24.56 -1.07024 17.64 -1.07024 9.24C-1.07024 0.84 0.269756 -6.19 2.94976 -11.6C5.62976 -17 9.57976 -21.02 14.8098 -23.66C20.0398 -26.29 26.4398 -27.61 34.0398 -27.61C41.1898 -27.61 47.2198 -26.34 52.1298 -23.79C57.0398 -21.24 60.7498 -17.31 63.2498 -12C65.7498 -6.68 66.9998 0.17 66.9998 8.57C66.9998 8.57 66.9998 13.39 66.9998 13.39C66.9998 13.39 17.8198 13.39 17.8198 13.39C17.9998 17.5 18.6498 20.98 19.7598 23.84C20.8798 26.7 22.6198 28.82 24.9898 30.21C27.3598 31.6 30.4998 32.29 34.4398 32.29C36.5798 32.29 38.5298 32.02 40.2698 31.49C42.0098 30.96 43.5098 30.15 44.7598 29.08C46.0098 28.01 46.9898 26.67 47.7098 25.06C48.4198 23.45 48.7798 21.62 48.7798 19.57C48.7798 19.57 66.9998 19.57 66.9998 19.57C66.9998 24.04 66.1998 27.92 64.5898 31.23C62.9798 34.54 60.7498 37.28 57.8898 39.47C55.0298 41.66 51.6098 43.31 47.6398 44.43C43.6698 45.55 39.2598 46.1 34.4398 46.1C34.4398 46.1 34.4398 46.09 34.4398 46.09ZM18.0898 1.6C18.0898 1.6 47.8398 1.6 47.8398 1.6C47.8398 -1.08 47.5098 -3.4 46.8398 -5.37C46.1698 -7.33 45.2498 -8.94 44.0898 -10.19C42.9298 -11.44 41.5198 -12.36 39.8698 -12.94C38.2198 -13.52 36.3598 -13.81 34.3098 -13.81C30.9098 -13.81 28.0798 -13.25 25.7998 -12.14C23.5198 -11.02 21.7798 -9.33 20.5698 -7.05C19.3598 -4.77 18.5398 -1.89 18.0898 1.59C18.0898 1.59 18.0898 1.6 18.0898 1.6ZM99.0298 46.09C94.5598 46.09 90.9398 45.29 88.1798 43.68C85.4098 42.07 83.3998 39.91 82.1498 37.18C80.8998 34.46 80.2698 31.44 80.2698 28.14C80.2698 28.14 80.2698 -11.66 80.2698 -11.66L71.5598 -11.66L71.5598 -26L80.9398 -26L84.4198 -46.1L98.8898 -46.1L98.8898 -26L111.75 -26L111.75 -11.66L98.8898 -11.66C98.8898 -11.66 98.8898 25.06 98.8898 25.06C98.8898 27.2 99.3798 28.84 100.36 29.95C101.34 31.07 102.95 31.62 105.18 31.62C105.18 31.62 111.75 31.62 111.75 31.62C111.75 31.62 111.75 43.95 111.75 43.95C110.68 44.31 109.43 44.64 108 44.95C106.57 45.26 105.05 45.53 103.45 45.75C101.84 45.97 100.37 46.08 99.0298 46.08C99.0298 46.08 99.0298 46.09 99.0298 46.09Z"></path>
  <path fill="#0045CB" transform="translate(2247.12 628.02)" d="M131.01 -528L-130.99 -528L-130.99 0L131.01 0L131.01 -528Z"></path>
  <clipPath id="cl_3">
    <rect x="2116.1299" y="100.02002" width="262" height="528"></rect>
  </clipPath>
  <g clip-path="url(#cl_3)">
    <path fill="#000094" transform="translate(2247.14 381.29)" d="M131.01 118.83L116.46 118.83L116.46 104.04L131.01 104.04L131.01 90.88L116.46 90.88L116.46 82.63L103.3 82.63L103.3 90.88L79.83 90.88L79.83 82.63L73.4 82.63L73.4 -189.45L29.46 -189.45L29.46 -212.85L48.42 -212.85L-4.54747e-13 -246.74L-48.42 -212.85L-29.46 -212.85L-29.46 -189.45L-73.4 -189.45L-73.4 82.63L-79.83 82.63L-79.83 90.88L-103.3 90.88L-103.3 82.63L-116.46 82.63L-116.46 90.88L-131.01 90.88L-131.01 104.04L-116.46 104.04L-116.46 118.83L-131.01 118.83L-131.01 172L-73.41 172L-73.41 246.74L73.39 246.74L73.39 172L130.99 172L130.99 118.83L131.01 118.83ZM-79.81 118.83L-103.28 118.83L-103.28 104.04L-79.81 104.04L-79.81 118.83ZM-6.56 118.83L-29.44 118.83L-29.44 104.04L-6.56 104.04L-6.56 118.83ZM29.47 118.83L6.59 118.83L6.59 104.04L29.47 104.04L29.47 118.83ZM29.47 90.88L6.59 90.88L6.59 82.63L-6.57 82.63L-6.57 90.88L-29.45 90.88C-29.45 90.88 -29.45 36.11 -29.45 36.11C-29.45 19.84 -16.26 6.66 -4.54747e-13 6.66C16.26 6.66 29.45 19.85 29.45 36.11C29.45 36.11 29.45 90.88 29.45 90.88L29.47 90.88ZM103.31 118.83L79.84 118.83L79.84 104.04L103.31 104.04L103.31 118.83Z"></path>
  </g>
  <path transform="translate(2247.13 799.02)" d="M131 -171L-131 -171L-131 171L131 171L131 -171Z"></path>
  <path fill="none" stroke="black" stroke-width="1" stroke-linejoin="round" transform="translate(2247.13 799.02)" d="M131 -171L-131 -171L-131 171L131 171L131 -171Z"></path>
  <clipPath id="cl_4">
    <rect x="100.5" y="628" width="2277.5" height="342"></rect>
  </clipPath>
  <g clip-path="url(#cl_4)">
    <path fill="white" transform="translate(2247.14 799.376)" d="M-78.32 75.46L-20.24 -75.46L20.24 -75.46L78.32 75.46L42.9 75.46L32.12 45.76L-33.66 45.76L-44.44 75.46L-78.32 75.46ZM-24.2 19.36L22.66 19.36C22.66 19.36 9.24 -17.82 9.24 -17.82C8.65 -19.43 7.95 -21.37 7.15 -23.65C6.34 -25.92 5.5 -28.45 4.62 -31.24C3.74 -34.02 2.89 -36.77 2.09 -39.49C1.28 -42.2 0.51 -44.66 -0.22 -46.86C-0.22 -46.86 -1.54 -46.86 -1.54 -46.86C-2.28 -44.07 -3.23 -40.81 -4.4 -37.07C-5.58 -33.33 -6.75 -29.74 -7.92 -26.29C-9.1 -22.84 -10.05 -20.02 -10.78 -17.82C-10.78 -17.82 -24.2 19.36 -24.2 19.36Z"></path>
  </g>
  <path fill="#00C7FF" transform="translate(1959.14 628.02)" d="M130.995 -528L-131.005 -528L-131.005 0L130.995 0L130.995 -528Z"></path>
  <clipPath id="cl_11">
    <rect x="1828.1299" y="100.02002" width="262" height="528"></rect>
  </clipPath>
  <g clip-path="url(#cl_11)">
    <defs>
      <radialGradient id="gradient_0" gradientUnits="userSpaceOnUse" cx="0" cy="0" fx="0" fy="0" r="1288.5001" fr="0">
        <stop offset="0" stop-color="white" stop-opacity="0.80000001"></stop>
        <stop offset="0.40481931" stop-color="white" stop-opacity="0.47450981"></stop>
        <stop offset="1" stop-color="white" stop-opacity="0"></stop>
      </radialGradient>
    </defs>
    <path fill="url(#gradient_0)" transform="matrix(1 0 0 0.25 798.5 175)" d="M0 -1288C711.619 -1288 1288.5 -711.119 1288.5 0.5C1288.5 712.119 711.619 1289 0 1289C-711.619 1289 -1288.5 712.119 -1288.5 0.5C-1288.5 -711.119 -711.619 -1288 0 -1288Z" style="mix-blend-mode: overlay"></path>
    <path fill="#0073C9" transform="translate(1959.14 508.595)" d="M131.01 44.685L131.01 -8.485L116.46 -8.485L116.46 -23.275L131.01 -23.275L131.01 -36.435L116.46 -36.435L116.46 -44.685L103.3 -44.685L103.3 -36.435L79.83 -36.435L79.83 -44.685L66.68 -44.685L66.68 -36.435L43.21 -36.435L43.21 -44.685L30.05 -44.685L30.05 -36.435L6.58 -36.435L6.58 -44.685L-6.57 -44.685L-6.57 -36.435L-30.04 -36.435L-30.04 -44.685L-43.2 -44.685L-43.2 -36.435L-66.67 -36.435L-66.67 -44.685L-79.83 -44.685L-79.83 -36.435L-103.3 -36.435L-103.3 -44.685L-116.46 -44.685L-116.46 -36.435L-131.01 -36.435L-131.01 -23.275L-116.46 -23.275L-116.46 -8.485L-131.01 -8.485L-131.01 44.685L130.99 44.685L131.01 44.685ZM79.84 -23.265L103.31 -23.265L103.31 -8.475L79.84 -8.475L79.84 -23.265ZM43.22 -23.265L66.69 -23.265L66.69 -8.475L43.22 -8.475L43.22 -23.265ZM-79.81 -8.475L-103.28 -8.475L-103.28 -23.265L-79.81 -23.265L-79.81 -8.475ZM-43.19 -8.475L-66.66 -8.475L-66.66 -23.265L-43.19 -23.265L-43.19 -8.475ZM-6.56 -8.475L-30.03 -8.475L-30.03 -23.265L-6.56 -23.265L-6.56 -8.475ZM30.06 -8.475L6.59 -8.475L6.59 -23.265L30.06 -23.265L30.06 -8.475Z"></path>
  </g>
  <path transform="translate(1959.13 799.02)" d="M131 -171L-131 -171L-131 171L131 171L131 -171Z"></path>
  <path fill="none" stroke="black" stroke-width="1" stroke-linejoin="round" transform="translate(1959.13 799.02)" d="M131 -171L-131 -171L-131 171L131 171L131 -171Z"></path>
  <clipPath id="cl_13">
    <rect x="100.5" y="628" width="2277.5" height="342"></rect>
  </clipPath>
  <g clip-path="url(#cl_13)">
    <path fill="white" transform="translate(1959.16 799.376)" d="M-66.22 75.46L-66.22 -75.46C-66.22 -75.46 20.02 -75.46 20.02 -75.46C27.94 -75.46 35.09 -73.92 41.47 -70.84C47.85 -67.76 52.87 -63.43 56.54 -57.86C60.2 -52.28 62.04 -45.76 62.04 -38.28C62.04 -32.26 60.94 -26.91 58.74 -22.22C56.54 -17.52 53.57 -13.64 49.83 -10.56C46.09 -7.48 41.87 -5.2 37.18 -3.74C37.18 -3.74 37.18 -2.86 37.18 -2.86C42.75 -1.69 47.7 0.52 52.03 3.74C56.35 6.97 59.8 11.11 62.37 16.17C64.93 21.23 66.22 27.21 66.22 34.1C66.22 43.2 64.13 50.82 59.95 56.98C55.77 63.14 50.23 67.76 43.34 70.84C36.45 73.92 28.74 75.46 20.24 75.46C20.24 75.46 -66.22 75.46 -66.22 75.46ZM-33.44 -14.52C-33.44 -14.52 10.12 -14.52 10.12 -14.52C14.08 -14.52 17.41 -15.29 20.13 -16.83C22.84 -18.37 24.89 -20.42 26.29 -22.99C27.68 -25.55 28.38 -28.52 28.38 -31.9C28.38 -37.62 26.8 -41.94 23.65 -44.88C20.49 -47.81 16.35 -49.28 11.22 -49.28C11.22 -49.28 -33.44 -49.28 -33.44 -49.28L-33.44 -14.52ZM-33.44 48.62C-33.44 48.62 13.86 48.62 13.86 48.62C19.29 48.62 23.72 47.08 27.17 44C30.62 40.92 32.34 36.16 32.34 29.7C32.34 25.89 31.6 22.59 30.14 19.8C28.67 17.02 26.47 14.85 23.54 13.31C20.6 11.77 16.86 11 12.32 11C12.32 11 -33.44 11 -33.44 11L-33.44 48.62Z"></path>
  </g>
  <path fill="#9B7AFF" transform="translate(1671.16 628.02)" d="M130.975 -528L-131.025 -528L-131.025 0L130.975 0L130.975 -528Z"></path>
  <clipPath id="cl_1c">
    <rect x="1540.1299" y="100.02002" width="262" height="528"></rect>
  </clipPath>
  <g clip-path="url(#cl_1c)">
    <defs>
      <radialGradient id="gradient_1" gradientUnits="userSpaceOnUse" cx="0" cy="0" fx="0" fy="0" r="1288.5001" fr="0">
        <stop offset="0" stop-color="white" stop-opacity="0.80000001"></stop>
        <stop offset="0.40481931" stop-color="white" stop-opacity="0.47450981"></stop>
        <stop offset="1" stop-color="white" stop-opacity="0"></stop>
      </radialGradient>
    </defs>
    <path fill="url(#gradient_1)" transform="matrix(1 0 0 0.25 798.5 175)" d="M0 -1288C711.619 -1288 1288.5 -711.119 1288.5 0.5C1288.5 712.119 711.619 1289 0 1289C-711.619 1289 -1288.5 712.119 -1288.5 0.5C-1288.5 -711.119 -711.619 -1288 0 -1288Z" style="mix-blend-mode: overlay"></path>
    <path fill="#593BFF" transform="translate(1671.14 545.965)" d="M131.01 7.315L131.01 -45.855L116.46 -45.855L116.46 -60.645L131.01 -60.645L131.01 -73.805L116.46 -73.805L116.46 -82.055L103.3 -82.055L103.3 -73.805L79.83 -73.805L79.83 -82.055L66.68 -82.055L66.68 -73.805L43.21 -73.805L43.21 -82.055L30.05 -82.055L30.05 -73.805L6.58 -73.805L6.58 -82.055L-6.57 -82.055L-6.57 -73.805L-30.04 -73.805L-30.04 -82.055L-43.2 -82.055L-43.2 -73.805L-66.67 -73.805L-66.67 -82.055L-79.83 -82.055L-79.83 -73.805L-103.3 -73.805L-103.3 -82.055L-116.46 -82.055L-116.46 -73.805L-131.01 -73.805L-131.01 -60.645L-116.46 -60.645L-116.46 -45.855L-131.01 -45.855L-131.01 7.315L-43.21 7.315L-33.49 15.305L-43.21 15.305L-43.21 82.055L43.19 82.055L43.19 15.305L33.47 15.305L43.19 7.315L130.99 7.315L131.01 7.315ZM79.84 -60.635L103.31 -60.635L103.31 -45.845L79.84 -45.845L79.84 -60.635ZM43.22 -60.635L66.69 -60.635L66.69 -45.845L43.22 -45.845L43.22 -60.635ZM-79.81 -45.845L-103.28 -45.845L-103.28 -60.635L-79.81 -60.635L-79.81 -45.845ZM-43.19 -45.845L-66.66 -45.845L-66.66 -60.635L-43.19 -60.635L-43.19 -45.845ZM-6.56 -45.845L-30.03 -45.845L-30.03 -60.635L-6.56 -60.635L-6.56 -45.845ZM30.06 -45.845L6.59 -45.845L6.59 -60.635L30.06 -60.635L30.06 -45.845Z"></path>
  </g>
  <path transform="translate(1671.13 799.02)" d="M131 -171L-131 -171L-131 171L131 171L131 -171Z"></path>
  <path fill="none" stroke="black" stroke-width="1" stroke-linejoin="round" transform="translate(1671.13 799.02)" d="M131 -171L-131 -171L-131 171L131 171L131 -171Z"></path>
  <clipPath id="cl_1e">
    <rect x="100.5" y="628" width="2277.5" height="342"></rect>
  </clipPath>
  <g clip-path="url(#cl_1e)">
    <path fill="white" transform="translate(1671.18 799.376)" d="M-79.2 75.46L-79.2 -75.46L-29.26 -75.46C-29.26 -75.46 -7.7 1.76 -7.7 1.76C-6.82 4.55 -5.94 7.85 -5.06 11.66C-4.18 15.48 -3.27 19.25 -2.31 22.99C-1.36 26.73 -0.59 30.07 0 33C0 33 1.76 33 1.76 33C2.05 30.51 2.56 27.54 3.3 24.09C4.03 20.65 4.84 16.94 5.72 12.98C6.6 9.02 7.55 5.21 8.58 1.54C8.58 1.54 30.14 -75.46 30.14 -75.46L79.2 -75.46L79.2 75.46L46.86 75.46C46.86 75.46 46.86 3.96 46.86 3.96C46.86 -2.64 46.89 -9.27 46.97 -15.95C47.04 -22.62 47.19 -28.45 47.41 -33.44C47.63 -38.42 47.74 -41.65 47.74 -43.12C47.74 -43.12 45.98 -43.12 45.98 -43.12C45.69 -41.5 44.99 -38.53 43.89 -34.21C42.79 -29.88 41.61 -25.3 40.37 -20.46C39.12 -15.62 37.98 -11.44 36.96 -7.92C36.96 -7.92 13.42 75.46 13.42 75.46L-15.18 75.46C-15.18 75.46 -38.94 -7.7 -38.94 -7.7C-39.82 -10.78 -40.81 -14.41 -41.91 -18.59C-43.01 -22.77 -44.04 -27.09 -44.99 -31.57C-45.95 -36.04 -46.86 -39.89 -47.74 -43.12C-47.74 -43.12 -49.5 -43.12 -49.5 -43.12C-49.36 -39.16 -49.21 -34.43 -49.06 -28.93C-48.92 -23.43 -48.77 -17.78 -48.62 -11.99C-48.48 -6.19 -48.4 -0.88 -48.4 3.96C-48.4 3.96 -48.4 75.46 -48.4 75.46L-79.2 75.46Z"></path>
  </g>
  <path fill="#FF938D" transform="translate(1383.18 628.02)" d="M130.95 -528L-131.05 -528L-131.05 0L130.95 0L130.95 -528Z"></path>
  <clipPath id="cl_20">
    <rect x="1252.13" y="100.02002" width="262" height="528"></rect>
  </clipPath>
  <g clip-path="url(#cl_20)">
    <defs>
      <radialGradient id="gradient_2" gradientUnits="userSpaceOnUse" cx="0" cy="0" fx="0" fy="0" r="1288.5001" fr="0">
        <stop offset="0" stop-color="white" stop-opacity="0.80000001"></stop>
        <stop offset="0.40481931" stop-color="white" stop-opacity="0.47450981"></stop>
        <stop offset="1" stop-color="white" stop-opacity="0"></stop>
      </radialGradient>
    </defs>
    <path fill="url(#gradient_2)" transform="matrix(1 0 0 0.25 798.5 175)" d="M0 -1288C711.619 -1288 1288.5 -711.119 1288.5 0.5C1288.5 712.119 711.619 1289 0 1289C-711.619 1289 -1288.5 712.119 -1288.5 0.5C-1288.5 -711.119 -711.619 -1288 0 -1288Z" style="mix-blend-mode: overlay"></path>
    <path fill="#EA4E4E" transform="translate(1383.14 508.595)" d="M131.01 44.685L131.01 -8.485L116.46 -8.485L116.46 -23.275L131.01 -23.275L131.01 -36.435L116.46 -36.435L116.46 -44.685L103.3 -44.685L103.3 -36.435L79.83 -36.435L79.83 -44.685L66.68 -44.685L66.68 -36.435L43.21 -36.435L43.21 -44.685L30.05 -44.685L30.05 -36.435L6.58 -36.435L6.58 -44.685L-6.57 -44.685L-6.57 -36.435L-30.04 -36.435L-30.04 -44.685L-43.2 -44.685L-43.2 -36.435L-66.67 -36.435L-66.67 -44.685L-79.83 -44.685L-79.83 -36.435L-103.3 -36.435L-103.3 -44.685L-116.46 -44.685L-116.46 -36.435L-131.01 -36.435L-131.01 -23.275L-116.46 -23.275L-116.46 -8.485L-131.01 -8.485L-131.01 44.685L130.99 44.685L131.01 44.685ZM79.84 -23.265L103.31 -23.265L103.31 -8.475L79.84 -8.475L79.84 -23.265ZM43.22 -23.265L66.69 -23.265L66.69 -8.475L43.22 -8.475L43.22 -23.265ZM-79.81 -8.475L-103.28 -8.475L-103.28 -23.265L-79.81 -23.265L-79.81 -8.475ZM-43.19 -8.475L-66.66 -8.475L-66.66 -23.265L-43.19 -23.265L-43.19 -8.475ZM-6.56 -8.475L-30.03 -8.475L-30.03 -23.265L-6.56 -23.265L-6.56 -8.475ZM30.06 -8.475L6.59 -8.475L6.59 -23.265L30.06 -23.265L30.06 -8.475Z"></path>
  </g>
  <path transform="translate(1383.13 799.02)" d="M131 -171L-131 -171L-131 171L131 171L131 -171Z"></path>
  <path fill="none" stroke="black" stroke-width="1" stroke-linejoin="round" transform="translate(1383.13 799.02)" d="M131 -171L-131 -171L-131 171L131 171L131 -171Z"></path>
  <clipPath id="cl_22">
    <rect x="100.5" y="628" width="2277.5" height="342"></rect>
  </clipPath>
  <g clip-path="url(#cl_22)">
    <path fill="white" transform="translate(1383.2 799.376)" d="M-78.32 75.46L-20.24 -75.46L20.24 -75.46L78.32 75.46L42.9 75.46L32.12 45.76L-33.66 45.76L-44.44 75.46L-78.32 75.46ZM-24.2 19.36L22.66 19.36C22.66 19.36 9.24 -17.82 9.24 -17.82C8.65 -19.43 7.95 -21.37 7.15 -23.65C6.34 -25.92 5.5 -28.45 4.62 -31.24C3.74 -34.02 2.89 -36.77 2.09 -39.49C1.28 -42.2 0.51 -44.66 -0.22 -46.86C-0.22 -46.86 -1.54 -46.86 -1.54 -46.86C-2.28 -44.07 -3.23 -40.81 -4.4 -37.07C-5.58 -33.33 -6.75 -29.74 -7.92 -26.29C-9.1 -22.84 -10.05 -20.02 -10.78 -17.82C-10.78 -17.82 -24.2 19.36 -24.2 19.36Z"></path>
  </g>
  <path fill="#FF6200" transform="translate(1095.2 628.02)" d="M130.93 -528L-131.07 -528L-131.07 0L130.93 0L130.93 -528Z"></path>
  <clipPath id="cl_29">
    <rect x="964.13" y="100.02002" width="262" height="528"></rect>
  </clipPath>
  <g clip-path="url(#cl_29)">
    <defs>
      <radialGradient id="gradient_3" gradientUnits="userSpaceOnUse" cx="0" cy="0" fx="0" fy="0" r="1288.5001" fr="0">
        <stop offset="0" stop-color="white" stop-opacity="0.80000001"></stop>
        <stop offset="0.40481931" stop-color="white" stop-opacity="0.47450981"></stop>
        <stop offset="1" stop-color="white" stop-opacity="0"></stop>
      </radialGradient>
    </defs>
    <path fill="url(#gradient_3)" transform="matrix(1 0 0 0.25 798.5 175)" d="M0 -1288C711.619 -1288 1288.5 -711.119 1288.5 0.5C1288.5 712.119 711.619 1289 0 1289C-711.619 1289 -1288.5 712.119 -1288.5 0.5C-1288.5 -711.119 -711.619 -1288 0 -1288Z" style="mix-blend-mode: overlay"></path>
    <path fill="#CC3700" transform="translate(1095.14 508.595)" d="M131.01 44.685L131.01 -8.485L116.46 -8.485L116.46 -23.275L131.01 -23.275L131.01 -36.435L116.46 -36.435L116.46 -44.685L103.3 -44.685L103.3 -36.435L79.83 -36.435L79.83 -44.685L66.68 -44.685L66.68 -36.435L43.21 -36.435L43.21 -44.685L30.05 -44.685L30.05 -36.435L6.58 -36.435L6.58 -44.685L-6.57 -44.685L-6.57 -36.435L-30.04 -36.435L-30.04 -44.685L-43.2 -44.685L-43.2 -36.435L-66.67 -36.435L-66.67 -44.685L-79.83 -44.685L-79.83 -36.435L-103.3 -36.435L-103.3 -44.685L-116.46 -44.685L-116.46 -36.435L-131.01 -36.435L-131.01 -23.275L-116.46 -23.275L-116.46 -8.485L-131.01 -8.485L-131.01 44.685L130.99 44.685L131.01 44.685ZM79.84 -23.265L103.31 -23.265L103.31 -8.475L79.84 -8.475L79.84 -23.265ZM43.22 -23.265L66.69 -23.265L66.69 -8.475L43.22 -8.475L43.22 -23.265ZM-79.81 -8.475L-103.28 -8.475L-103.28 -23.265L-79.81 -23.265L-79.81 -8.475ZM-43.19 -8.475L-66.66 -8.475L-66.66 -23.265L-43.19 -23.265L-43.19 -8.475ZM-6.56 -8.475L-30.03 -8.475L-30.03 -23.265L-6.56 -23.265L-6.56 -8.475ZM30.06 -8.475L6.59 -8.475L6.59 -23.265L30.06 -23.265L30.06 -8.475Z"></path>
    <path fill="#CC3700" transform="matrix(0.237062 -0.0275456 0.0275456 0.237062 1030.72 234.52)" d="M174.075 74.6349C147.125 78.5849 119.535 74.9749 102.015 69.7649C138.205 49.2249 164.865 18.5349 175.075 -22.2651C198.245 -114.935 146.795 -165.745 111.595 -188.745C100.865 -195.755 86.8745 -186.855 88.6645 -174.165C93.6745 -138.555 94.1445 -76.2051 54.6645 -14.4251C48.1545 -4.23512 40.2945 4.41488 31.4345 11.7649C13.712 1.32611 -17.2711 -5.92943 -30.2055 6.25488C-43.1399 18.4392 -27.3226 36.31 -22.5355 39.3749C-78.0555 55.9649 -144.585 50.5749 -186.285 47.8949C-195.065 47.3349 -198.245 59.2149 -190.375 63.1549C-119.445 98.6249 -35.7755 109.055 34.0545 94.5849C40.6545 108.375 38.3045 122.065 30.9345 133.165C25.2345 141.745 28.7645 153.335 38.4045 156.985C121.636 191.814 182.775 140.045 191.225 92.2149C193.025 82.0149 184.345 73.1149 174.105 74.6249C174.105 74.6249 174.075 74.6349 174.075 74.6349Z"></path>
  </g>
  <path transform="translate(1095.13 799.02)" d="M131 -171L-131 -171L-131 171L131 171L131 -171Z"></path>
  <path fill="none" stroke="black" stroke-width="1" stroke-linejoin="round" transform="translate(1095.13 799.02)" d="M131 -171L-131 -171L-131 171L131 171L131 -171Z"></path>
  <clipPath id="cl_2c">
    <rect x="100.5" y="628" width="2277.5" height="342"></rect>
  </clipPath>
  <g clip-path="url(#cl_2c)">
    <path fill="white" transform="translate(1095.22 820.211)" d="M-13.03 68.545C-5.69 69.835 3.17 70.395 13.12 69.545C13.12 69.545 -9.51 98.935 -9.51 98.935L-21.75 93.045L-13.03 68.555C-13.03 68.555 -13.03 68.545 -13.03 68.545ZM33.77 52.425C43.45 49.205 51.07 44.065 56.65 37.025C62.22 29.985 65.01 20.675 65.01 9.085C65.01 2.345 63.69 -3.455 61.05 -8.295C58.41 -13.135 54.89 -17.205 50.49 -20.505C46.09 -23.805 41.1 -26.555 35.53 -28.755C29.95 -30.955 24.24 -32.855 18.37 -34.475C12.5 -36.085 6.78 -37.555 1.21 -38.875C-4.37 -40.195 -9.39 -41.695 -13.86 -43.385C-18.34 -45.065 -21.86 -47.045 -24.42 -49.325C-26.99 -51.595 -28.27 -54.495 -28.27 -58.015C-28.27 -61.095 -27.14 -63.765 -24.86 -66.045C-22.58 -68.325 -19.29 -70.035 -14.96 -71.215C-10.64 -72.385 -5.39 -72.975 0.77 -72.975C6.49 -72.975 11.48 -72.165 15.73 -70.555C19.98 -68.935 23.28 -66.735 25.63 -63.955C27.97 -61.165 29.15 -57.795 29.15 -53.835C29.15 -53.835 29.15 -52.075 29.15 -52.075L61.05 -52.075C61.05 -52.075 61.05 -54.715 61.05 -54.715C61.05 -62.335 59.47 -68.935 56.32 -74.515C53.16 -80.085 48.8 -84.705 43.23 -88.375C37.65 -92.035 31.2 -94.715 23.87 -96.405C16.54 -98.085 8.76 -98.935 0.55 -98.935C-8.25 -98.935 -16.39 -98.085 -23.87 -96.405C-31.35 -94.715 -37.95 -92.115 -43.67 -88.595C-49.39 -85.075 -53.83 -80.595 -56.98 -75.175C-60.14 -69.745 -61.71 -63.295 -61.71 -55.815C-61.71 -48.775 -60.39 -42.755 -57.75 -37.775C-55.11 -32.785 -51.59 -28.675 -47.19 -25.455C-42.79 -22.225 -37.81 -19.475 -32.23 -17.205C-26.66 -14.925 -20.94 -13.025 -15.07 -11.485C-9.2 -9.945 -3.49 -8.445 2.09 -6.975C7.66 -5.505 12.68 -3.895 17.16 -2.135C21.63 -0.375 25.15 1.755 27.72 4.245C30.28 6.745 31.57 9.965 31.57 13.925C31.57 16.125 31.16 18.105 30.36 19.865C29.55 21.625 28.31 23.165 26.62 24.485C24.93 25.805 22.81 26.945 20.24 27.895C17.67 28.855 14.74 29.585 11.44 30.095C8.14 30.615 4.36 30.865 0.11 30.865C-6.49 30.865 -12.28 30.065 -17.27 28.445C-22.26 26.835 -26.04 24.415 -28.6 21.185C-31.17 17.965 -32.45 14.005 -32.45 9.305C-32.45 9.305 -32.45 7.325 -32.45 7.325C-32.45 6.595 -32.38 6.005 -32.23 5.565C-32.23 5.565 -64.79 5.565 -64.79 5.565C-64.94 6.005 -65.01 6.635 -65.01 7.435C-65.01 7.435 -65.01 9.745 -65.01 9.745C-65.01 18.255 -63.29 25.475 -59.84 31.415C-56.4 37.355 -51.63 42.275 -45.54 46.155C-39.46 50.045 -32.45 52.865 -24.53 54.625C-16.61 56.385 -8.25 57.265 0.55 57.265C13.01 57.265 24.09 55.645 33.77 52.425Z"></path>
  </g>
  <path fill="#FFB000" transform="translate(807.225 628.02)" d="M130.905 -528L-131.095 -528L-131.095 0L130.905 0L130.905 -528Z"></path>
  <clipPath id="cl_31">
    <rect x="676.13" y="100.02002" width="262" height="528"></rect>
  </clipPath>
  <g clip-path="url(#cl_31)">
    <defs>
      <radialGradient id="gradient_4" gradientUnits="userSpaceOnUse" cx="0" cy="0" fx="0" fy="0" r="1288.5001" fr="0">
        <stop offset="0" stop-color="white" stop-opacity="0.80000001"></stop>
        <stop offset="0.40481931" stop-color="white" stop-opacity="0.47450981"></stop>
        <stop offset="1" stop-color="white" stop-opacity="0"></stop>
      </radialGradient>
    </defs>
    <path fill="url(#gradient_4)" transform="matrix(1 0 0 0.25 798.5 175)" d="M0 -1288C711.619 -1288 1288.5 -711.119 1288.5 0.5C1288.5 712.119 711.619 1289 0 1289C-711.619 1289 -1288.5 712.119 -1288.5 0.5C-1288.5 -711.119 -711.619 -1288 0 -1288Z" style="mix-blend-mode: overlay"></path>
    <path fill="#F66F00" transform="translate(807.14 545.965)" d="M131.01 7.315L131.01 -45.855L116.46 -45.855L116.46 -60.645L131.01 -60.645L131.01 -73.805L116.46 -73.805L116.46 -82.055L103.3 -82.055L103.3 -73.805L79.83 -73.805L79.83 -82.055L66.68 -82.055L66.68 -73.805L43.21 -73.805L43.21 -82.055L30.05 -82.055L30.05 -73.805L6.58 -73.805L6.58 -82.055L-6.57 -82.055L-6.57 -73.805L-30.04 -73.805L-30.04 -82.055L-43.2 -82.055L-43.2 -73.805L-66.67 -73.805L-66.67 -82.055L-79.83 -82.055L-79.83 -73.805L-103.3 -73.805L-103.3 -82.055L-116.46 -82.055L-116.46 -73.805L-131.01 -73.805L-131.01 -60.645L-116.46 -60.645L-116.46 -45.855L-131.01 -45.855L-131.01 7.315L-43.21 7.315L-33.49 15.305L-43.21 15.305L-43.21 82.055L43.19 82.055L43.19 15.305L33.47 15.305L43.19 7.315L130.99 7.315L131.01 7.315ZM79.84 -60.635L103.31 -60.635L103.31 -45.845L79.84 -45.845L79.84 -60.635ZM43.22 -60.635L66.69 -60.635L66.69 -45.845L43.22 -45.845L43.22 -60.635ZM-79.81 -45.845L-103.28 -45.845L-103.28 -60.635L-79.81 -60.635L-79.81 -45.845ZM-43.19 -45.845L-66.66 -45.845L-66.66 -60.635L-43.19 -60.635L-43.19 -45.845ZM-6.56 -45.845L-30.03 -45.845L-30.03 -60.635L-6.56 -60.635L-6.56 -45.845ZM30.06 -45.845L6.59 -45.845L6.59 -60.635L30.06 -60.635L30.06 -45.845Z"></path>
    <path fill="white" transform="translate(800.58 176.91)" d="M0 36.62C20.22 36.62 36.62 20.22 36.62 2.27374e-13C36.62 -20.22 20.22 -36.62 0 -36.62C-20.22 -36.62 -36.62 -20.22 -36.62 2.27374e-13C-36.62 20.22 -20.22 36.62 0 36.62Z"></path>
    <path fill="#F66F00" transform="matrix(-0.159477 0.0431498 0.0431498 0.159477 878.245 294.52)" d="M176.595 -70.305C131.365 -39.985 57.1245 4.175 4.74451 10.505C10.1645 -2.875 11.9745 -19.925 4.70451 -23.035C-5.31549 -27.335 -30.5548 -18.1174 -39.6155 2.585C-79.9555 -22.265 -82.0555 -93.465 -86.7755 -149.285C-88.0355 -164.215 -106.655 -170.265 -116.445 -158.915C-182.475 -82.415 -190.216 43.3331 -80.9755 66.835C-98.3755 80.635 -122.695 88.775 -141.715 91.135C-150.705 92.245 -155.515 102.235 -150.715 109.915C-112.915 170.265 -23.2255 168.935 33.8145 135.795C41.8445 131.125 41.6245 119.505 33.5545 114.895C15.7345 104.715 3.52059 94.0944 -1.41941 78.5544C109.222 65.4947 160.675 19.275 193.725 -55.935C198.415 -66.605 186.275 -76.785 176.595 -70.295C176.595 -70.295 176.595 -70.305 176.595 -70.305Z"></path>
  </g>
  <path transform="translate(807.13 799.02)" d="M131 -171L-131 -171L-131 171L131 171L131 -171Z"></path>
  <path fill="none" stroke="black" stroke-width="1" stroke-linejoin="round" transform="translate(807.13 799.02)" d="M131 -171L-131 -171L-131 171L131 171L131 -171Z"></path>
  <clipPath id="cl_35">
    <rect x="100.5" y="628" width="2277.5" height="342"></rect>
  </clipPath>
  <g clip-path="url(#cl_35)">
    <path fill="white" transform="translate(807.245 799.376)" d="M-68.86 75.46L-68.86 -75.46C-68.86 -75.46 13.86 -75.46 13.86 -75.46C25 -75.46 34.28 -73.48 41.69 -69.52C49.09 -65.56 54.63 -60.02 58.3 -52.91C61.96 -45.79 63.8 -37.62 63.8 -28.38C63.8 -18.55 61.6 -9.86 57.2 -2.31C52.8 5.25 46.42 11 38.06 14.96C38.06 14.96 68.86 75.46 68.86 75.46L32.56 75.46L5.94 20.46L-36.08 20.46L-36.08 75.46L-68.86 75.46ZM-36.08 -5.5C-36.08 -5.5 9.46 -5.5 9.46 -5.5C16.06 -5.5 21.19 -7.51 24.86 -11.55C28.53 -15.58 30.36 -21.04 30.36 -27.94C30.36 -32.34 29.55 -36.11 27.94 -39.27C26.32 -42.42 23.98 -44.8 20.9 -46.42C17.82 -48.03 14 -48.84 9.46 -48.84C9.46 -48.84 -36.08 -48.84 -36.08 -48.84L-36.08 -5.5Z"></path>
  </g>
  <path fill="#00EEAC" transform="translate(519.37 628.02)" d="M130.885 -528L-131.115 -528L-131.115 0L130.885 0L130.885 -528Z"></path>
  <clipPath id="cl_4a">
    <rect x="388.255" y="100.02002" width="262" height="528"></rect>
  </clipPath>
  <g clip-path="url(#cl_4a)">
    <defs>
      <radialGradient id="gradient_5" gradientUnits="userSpaceOnUse" cx="0" cy="0" fx="0" fy="0" r="1288.5001" fr="0">
        <stop offset="0" stop-color="white" stop-opacity="0.80000001"></stop>
        <stop offset="0.40481931" stop-color="white" stop-opacity="0.47450981"></stop>
        <stop offset="1" stop-color="white" stop-opacity="0"></stop>
      </radialGradient>
    </defs>
    <path fill="url(#gradient_5)" transform="matrix(1 0 0 0.25 798.5 175)" d="M0 -1288C711.619 -1288 1288.5 -711.119 1288.5 0.5C1288.5 712.119 711.619 1289 0 1289C-711.619 1289 -1288.5 712.119 -1288.5 0.5C-1288.5 -711.119 -711.619 -1288 0 -1288Z" style="mix-blend-mode: overlay"></path>
    <path fill="#05957B" transform="translate(519.265 508.595)" d="M131.01 44.685L131.01 -8.485L116.46 -8.485L116.46 -23.275L131.01 -23.275L131.01 -36.435L116.46 -36.435L116.46 -44.685L103.3 -44.685L103.3 -36.435L79.83 -36.435L79.83 -44.685L66.68 -44.685L66.68 -36.435L43.21 -36.435L43.21 -44.685L30.05 -44.685L30.05 -36.435L6.58 -36.435L6.58 -44.685L-6.57 -44.685L-6.57 -36.435L-30.04 -36.435L-30.04 -44.685L-43.2 -44.685L-43.2 -36.435L-66.67 -36.435L-66.67 -44.685L-79.83 -44.685L-79.83 -36.435L-103.3 -36.435L-103.3 -44.685L-116.46 -44.685L-116.46 -36.435L-131.01 -36.435L-131.01 -23.275L-116.46 -23.275L-116.46 -8.485L-131.01 -8.485L-131.01 44.685L130.99 44.685L131.01 44.685ZM79.84 -23.265L103.31 -23.265L103.31 -8.475L79.84 -8.475L79.84 -23.265ZM43.22 -23.265L66.69 -23.265L66.69 -8.475L43.22 -8.475L43.22 -23.265ZM-79.81 -8.475L-103.28 -8.475L-103.28 -23.265L-79.81 -23.265L-79.81 -8.475ZM-43.19 -8.475L-66.66 -8.475L-66.66 -23.265L-43.19 -23.265L-43.19 -8.475ZM-6.56 -8.475L-30.03 -8.475L-30.03 -23.265L-6.56 -23.265L-6.56 -8.475ZM30.06 -8.475L6.59 -8.475L6.59 -23.265L30.06 -23.265L30.06 -8.475Z"></path>
  </g>
  <path transform="translate(519.254 799.02)" d="M130.999 -171L-130.999 -171L-130.999 171L130.999 171L130.999 -171Z"></path>
  <path fill="none" stroke="black" stroke-width="1" stroke-linejoin="round" transform="translate(519.254 799.02)" d="M130.999 -171L-130.999 -171L-130.999 171L130.999 171L130.999 -171Z"></path>
  <clipPath id="cl_4c">
    <rect x="100.5" y="628" width="2277.5" height="342"></rect>
  </clipPath>
  <g clip-path="url(#cl_4c)">
    <path fill="white" transform="translate(519.265 799.376)" d="M-78.32 75.46L-20.24 -75.46L20.24 -75.46L78.32 75.46L42.9 75.46L32.12 45.76L-33.66 45.76L-44.44 75.46L-78.32 75.46ZM-24.2 19.36L22.66 19.36C22.66 19.36 9.24 -17.82 9.24 -17.82C8.65 -19.43 7.95 -21.37 7.15 -23.65C6.34 -25.92 5.5 -28.45 4.62 -31.24C3.74 -34.02 2.89 -36.77 2.09 -39.49C1.28 -42.2 0.51 -44.66 -0.22 -46.86C-0.22 -46.86 -1.54 -46.86 -1.54 -46.86C-2.28 -44.07 -3.23 -40.81 -4.4 -37.07C-5.58 -33.33 -6.75 -29.74 -7.92 -26.29C-9.1 -22.84 -10.05 -20.02 -10.78 -17.82C-10.78 -17.82 -24.2 19.36 -24.2 19.36Z"></path>
  </g>
  <path fill="#00C94E" transform="translate(231.48 628)" d="M130.862 -528L-131.138 -528L-131.138 0L130.862 0L130.862 -528Z"></path>
  <clipPath id="cl_59">
    <rect x="100.342" y="100" width="262" height="528"></rect>
  </clipPath>
  <g clip-path="url(#cl_59)">
    <defs>
      <radialGradient id="gradient_6" gradientUnits="userSpaceOnUse" cx="0" cy="0" fx="0" fy="0" r="1288.5001" fr="0">
        <stop offset="0" stop-color="white" stop-opacity="0.80000001"></stop>
        <stop offset="0.40481931" stop-color="white" stop-opacity="0.47450981"></stop>
        <stop offset="1" stop-color="white" stop-opacity="0"></stop>
      </radialGradient>
    </defs>
    <path fill="url(#gradient_6)" transform="matrix(1 0 0 0.25 798.712 174.98)" d="M0 -1288C711.619 -1288 1288.5 -711.119 1288.5 0.5C1288.5 712.119 711.619 1289 0 1289C-711.619 1289 -1288.5 712.119 -1288.5 0.5C-1288.5 -711.119 -711.619 -1288 0 -1288Z" style="mix-blend-mode: overlay"></path>
    <path fill="#007E1C" transform="translate(231.352 381.27)" d="M131.01 118.83L116.46 118.83L116.46 104.04L131.01 104.04L131.01 90.88L116.46 90.88L116.46 82.63L103.3 82.63L103.3 90.88L79.83 90.88L79.83 82.63L73.4 82.63L73.4 -189.45L29.46 -189.45L29.46 -212.85L48.42 -212.85L0 -246.74L-48.42 -212.85L-29.46 -212.85L-29.46 -189.45L-73.4 -189.45L-73.4 82.63L-79.83 82.63L-79.83 90.88L-103.3 90.88L-103.3 82.63L-116.46 82.63L-116.46 90.88L-131.01 90.88L-131.01 104.04L-116.46 104.04L-116.46 118.83L-131.01 118.83L-131.01 172L-73.41 172L-73.41 246.74L73.39 246.74L73.39 172L130.99 172L130.99 118.83L131.01 118.83ZM-79.81 118.83L-103.28 118.83L-103.28 104.04L-79.81 104.04L-79.81 118.83ZM-6.56 118.83L-29.44 118.83L-29.44 104.04L-6.56 104.04L-6.56 118.83ZM29.47 118.83L6.59 118.83L6.59 104.04L29.47 104.04L29.47 118.83ZM29.47 90.88L6.59 90.88L6.59 82.63L-6.56 82.63L-6.56 90.88L-29.44 90.88C-29.44 90.88 -29.44 36.11 -29.44 36.11C-29.44 19.84 -16.25 6.66 0.01 6.66C16.27 6.66 29.46 19.85 29.46 36.11C29.46 36.11 29.46 90.88 29.46 90.88L29.47 90.88ZM103.31 118.83L79.84 118.83L79.84 104.04L103.31 104.04L103.31 118.83Z"></path>
  </g>
  <path transform="translate(231.342 799)" d="M131 -171L-131 -171L-131 171L131 171L131 -171Z"></path>
  <path fill="none" stroke="black" stroke-width="1" stroke-linejoin="round" transform="translate(231.342 799)" d="M131 -171L-131 -171L-131 171L131 171L131 -171Z"></path>
  <clipPath id="cl_5b">
    <rect x="100.5" y="628" width="2277.5" height="342"></rect>
  </clipPath>
  <g clip-path="url(#cl_5b)">
    <path fill="white" transform="translate(231.5 820.211)" d="M-11.99 68.545C-4.65 69.835 4.21 70.395 14.16 69.545C14.16 69.545 -8.47 98.935 -8.47 98.935L-20.71 93.045L-11.99 68.555C-11.99 68.555 -11.99 68.545 -11.99 68.545ZM38.39 50.775C48.66 46.455 56.68 39.885 62.48 31.085C68.27 22.285 71.17 11.215 71.17 -2.135C71.17 -2.135 39.49 -2.135 39.49 -2.135C39.49 4.905 38.02 10.845 35.09 15.685C32.15 20.525 27.97 24.195 22.55 26.685C17.12 29.185 10.74 30.425 3.41 30.425C-5.98 30.425 -13.64 28.635 -19.58 25.035C-25.52 21.445 -29.96 16.095 -32.89 8.975C-35.83 1.865 -37.29 -6.975 -37.29 -17.535C-37.29 -17.535 -37.29 -24.355 -37.29 -24.355C-37.29 -34.615 -35.86 -43.315 -33 -50.425C-30.14 -57.535 -25.67 -62.925 -19.58 -66.595C-13.5 -70.255 -5.76 -72.095 3.63 -72.095C10.52 -72.095 16.57 -70.805 21.78 -68.245C26.98 -65.675 31.02 -61.975 33.88 -57.135C36.74 -52.295 38.17 -46.355 38.17 -39.315C38.17 -39.315 71.17 -39.315 71.17 -39.315C71.17 -52.655 68.2 -63.735 62.26 -72.535C56.32 -81.335 48.21 -87.935 37.95 -92.335C27.68 -96.735 16.09 -98.935 3.19 -98.935C-20.43 -98.935 -38.72 -92.515 -51.7 -79.685C-64.68 -66.855 -71.17 -47.235 -71.17 -20.835C-71.17 -2.935 -68.28 11.805 -62.48 23.385C-56.69 34.975 -48.22 43.515 -37.07 49.015C-25.93 54.515 -12.51 57.265 3.19 57.265C16.39 57.265 28.12 55.095 38.39 50.775Z"></path>
  </g>
</svg>