<?xml version="1.0" encoding="UTF-8"?>
<svg id="Capa_1" data-name="Capa 1" xmlns="http://www.w3.org/2000/svg" viewBox="0 0 501.7 159">
  <defs>
    <style>
      .cls-1 {
        isolation: isolate;
      }

      .cls-2 {
        fill-rule: evenodd;
      }

      .cls-2, .cls-3 {
        fill: #ffc000;
      }
    </style>
  </defs>
  <g>
    <g>
      <g>
        <path class="cls-2" d="M155.38,68.48c-2.12,2.41-3.82,5.53-3.35,10.46.9,9.43,10.17,15.96,16.4,19.38-1.93-2.69-3.2-5.23-4-7.63-2.18-6.49-1.58-18.47,2.42-23.59-3.3,1.83-6.55,6.29-6.82,11.45-1.62-2.76-1.21-6.9-1.21-6.9-2.93,6.3-.48,13.29-.48,13.29-3.75-3.76-4.67-10.9-2.96-16.46h0Z"/>
        <path class="cls-2" d="M203.4,22.89c-.25,3.74-4.25,5.73-4.25,5.73,2.54-3.53,2.5-9.5-1.18-12.44-2.22-1.77-5.55-2.19-7.76-1.26,3.83-.02,5.09,1.93,5.09,1.93-7.21-2.37-11.39,2.64-11.39,2.64,0,0-6.87-2.34-9.76-1.68.37-.59,3.27-1.95,5.3-2.13,0,0-6.39-1.89-15.03,1.13,2.04-6.19,7.69-9.63,7.69-9.63-7.95,2.6-10.25,8.4-10.25,8.4.15-2.79,1.51-5.77,1.51-5.77-4.82,5.01-5.27,9.68-5.27,9.68-5.08-4.53-2.52-11.84,3.74-16.19-1.41,2-4.07,4.83-3.32,8.83,3.93-7.22,13.25-11.46,18.69-12.11-.31.12-6.13,2.72-9.3,6.55,0,0,7.14-5.26,18.79-6.11.09,0,3.96.36,9.25,1.75-14.11.31-21.43,9.22-21.43,9.22,5.57-3.1,10.76-4.77,15.34-5.58,9.15-1.61,21.05.57,26.78,7.48-1.01-.63-9.04-3.17-14.86-1.9,7.48.47,15.9,4.06,19.51,8.4-8.71-4.66-15.51-4.02-18.21-3.64,8.86,1.19,21.37,4.32,24.69,16.04,1.54,5.44,2.01,13.73.12,17.94-.33-8.14-4.41-19.25-16.44-20.71,5.71,1.91,9.25,6.42,10.56,9.25-6.93-6.88-18.19-6.94-18.19-6.94,11.36,2.68,18.66,9.08,20.57,17.78,1.05,4.82,1.19,13.32-2.88,22.82,1.15-7.64-1.36-15.32-3.48-18.33,1.68,7.26,1.62,17.68-1.94,24.08,1.09-13.28-2.33-25.83-10.82-34.1,5.04,6.31,14.03,30.88-.3,44.12,5.46-10.17,3.22-21.76-.27-26.16,2.7,11.59,0,21.57-6.48,28.75-3.89,4.3-8.53,7.12-9.03,15.52-4.32-11.36,5.78-20.11,6.9-30.54.9,4.1.47,10.21.47,10.21,3.62-7.75,1.21-23.86-5.17-31.44,3.26,6.41,3.49,13.61,1.95,20.94-2.4,11.4-13.31,18.67-7.79,35.1-7.93-9.12-8.98-27.28-4.39-37.66,0,0-13.82,15.82-.5,33.94-12.15-6.14-19.2-21.54-11.89-34.72-1.26,6.59,1.12,11.37,1.12,11.37.71-14.99,10.24-15.3,12.06-28.17,2.27,5.25-.07,11.67-.07,11.67,7.35-8.41,7.42-19.12,6.1-27.2,1.37.67,9.14,7.96,12.25,18.92,0-4.07-1-12.18-3.51-17.86,1.61,1.79,5.12,6.04,6.79,10.84.05-3.3-2.37-11.71-6.2-15.05,1.97.37,10.87,3.49,15.48,12.03-1.03-3.34-3.45-11.19-13.14-16.31,2.92-1.69,4.96-5.65,3.76-9.42h0ZM182.58,97.97c-1.15-10.75,9.96-19.75,5.97-34.55,1.06,14.12-9.8,18.53-5.97,34.55h0ZM208.29,35.79c11.02,5.08,15.14,14.73,14.42,23.93-.77-3.22-2.1-13.9-14.42-23.93ZM205.26,21.51c2.05-.5,16.62-.38,20.57,12.92-2.67-3.82-6.6-8.64-20.57-12.92ZM190.56,20.59s-.38.89-.3,1.77c.99-2.41,6.53-3.14,6.92,1.27-.17-.22-1.2-1.71-2.57-1.79,0,0,2.59,1.52,1.73,3.97-.87,2.46-1.87,2.27-2.47,3.58-.96,2.08-2.52-2.02.28-2.96,0,0-2.03-.31-3.19,1.98,0,0-.58-2.21,1.28-3.68,0,0-2.8.59-3.2,2.41-1.32-2.04-.46-5.28,1.52-6.55h0Z"/>
        <path class="cls-2" d="M150.34,71.56c-1.07-.89-1.92-3.55-1.87-5.61-.98,1.84-1.55,4.72-.82,7.73-3.59-2.74-4.61-5.59-4.29-8.99-1.36,2.25-1.43,3.94-.93,6.52.15.79-.3.05-.7-.39-1.49-1.65-2.16-3.95-2.98-5.97l-.13-.31c-1.02-2.43-1.19-3.62-.79-6.19.19-1.18.5-2.18,1.28-3.08.51-.52,1.02-.79,1.68-1.09,4.07-.28,6.27,2.58,10.66,4.57,1.4.63,2.59,1.01,3.59,1.22,2.2.46,5.34,1.2,2.83,4.08-3.48,3.98-4.91.71-7.53,7.52h0Z"/>
        <path class="cls-2" d="M136.19,40.62c.5-1.4,1.84-3.06,5.09-4.42,7.05-2.96,9.9-5.06,12.33-7.53,0,0-2.63,1.5-4.12,1.86,0,0,.31-2.42,2.37-4.38,2.06-1.96,6.34-3.25,8.43-4.78s6.27-3.24,10.7-3.59c0,0-3.95,1.58-5.04,2.9,8.52-1.87,15.79.39,20.47,7.88,0,0-5.69-3.38-7.88-3.22,0,0,7.34,7.89,6.07,21.98-1.35-3.02-4.1-5.92-6.44-7.1,1.33,3.44,1.59,8.27.56,12.6-.79,3.31-2.7,6.33-5.08,8.53-.24-4.39-2.22-8.12-5.47-9.46,3.72,9.48-5.46,11.86-6.21,11.79-.89-4.58-3.66-5.62-6.61-6.4-2.38-.63-4.64-1.49-7.48-3.17-4.02-2.37-6.92-2.1-6.92-2.1-.54-.9-1.25-5.38-.59-6.16,1.22-1.44,3.96-1.78,5.51-2.23,2.2-.64,3.13-2.85,2.67-3.57-.45-.71-1.05-.15-2.77.92-1.73,1.07-2.22.03-3.46-.79-1.25-.81-3.41-.38-4.07.28-.66.66-1.26.05-2.05.17h0ZM135.96,42.45c.15.6.55,1.65,1.55,2.15,1.43.7.92,2.21.92,2.21,0,0,.01,3.19.79,5.42,0,0-.73.41-1.31,1.11-2.54-5.71-1.95-10.89-1.95-10.89h0ZM155.68,35.62s2.84-1.5,3.48-3.23,2.66-3.26,5.67-3.24,4.95,1.62,5.82,1.7c.87.08-3.05,1.3-5.42,2.02-1.7.51-3.69,1.54-4.37-.38,0,0-1.06,1.58-1.96,2.22-.9.64-3.23.91-3.23.91h0Z"/>
      </g>
      <path class="cls-3" d="M255.94,17.63l-.3-5.21h-17.77l.35,5.88c3.06,50.92-9.45,73.05-55.5,96.89-46.05-23.84-58.55-45.97-55.5-96.89l.35-5.88h-17.77l-.3,5.21c-1.81,31.01,2.09,52.67,12.65,70.24,10.76,17.92,28.73,32.2,58.27,46.31l2.3,1.1,2.3-1.1c29.54-14.11,47.51-28.39,58.27-46.31,10.55-17.57,14.45-39.24,12.65-70.24h0Z"/>
      <g>
        <path class="cls-3" d="M100.37,51.61c0,14.29-7.15,28.28-22.06,33.87l27.5,41.33h-36.36l-22.99-38.84h-6.99v38.84H7.77V38.09H0L7.77,12.61h55.78c23.93,0,36.82,19.73,36.82,39ZM39.46,62.49h14.76c8.08,0,12.12-6.06,12.12-12.12s-4.04-12.27-12.12-12.27h-14.76v24.39Z"/>
        <path class="cls-3" d="M358.43,12.61l-7.77,25.48h-27.81c-18.33,0-27.66,16-27.66,31.85s9.17,31.38,27.66,31.38h2.33v-29.68h31.69v55.15h-43.35c-34.96,0-52.36-28.59-52.36-57.18s17.4-57.02,52.36-57.02h44.9Z"/>
        <path class="cls-3" d="M455.07,83.46h-47.08v17.87h57.95v25.48h-89.65V38.09h-7.77l7.77-25.48h88.09l-7.77,25.48h-48.63v19.89h47.08v25.48h0Z"/>
      </g>
    </g>
    <g>
      <path class="cls-3" d="M486.93,39.36c-8.14,0-14.76-6.62-14.76-14.76s6.62-14.76,14.76-14.76,14.76,6.62,14.76,14.76-6.62,14.76-14.76,14.76ZM486.93,12c-6.94,0-12.59,5.65-12.59,12.59s5.65,12.59,12.59,12.59,12.59-5.65,12.59-12.59-5.65-12.59-12.59-12.59Z"/>
      <path class="cls-3" d="M493.35,31.22v.53h-4.09l-2.46-4.21h-1.9v4.21h-3.66v-14.32h6.28c5.63.02,6.65,6.79,3.03,9.25l2.8,4.54h0ZM487.52,20.7c-.86-.02-1.76,0-2.62,0v3.58h2.62c1.99,0,2.09-3.56,0-3.58Z"/>
    </g>
  </g>
  <g class="cls-1">
    <g class="cls-1">
      <path class="cls-3" d="M14.65,159c-4.14,0-5.49-1.82-5.49-5.49v-11.38h4.54v10.95c0,1.22.32,1.6,1.5,1.6h11.7v4.32h-12.25Z"/>
    </g>
    <g class="cls-1">
      <path class="cls-3" d="M50.5,158.25c.12.27.2.5.27.75h-5.09c-.05-.22-.12-.4-.2-.57l-.9-2.05h-9.98l-.87,2.02c-.07.2-.15.4-.17.6h-5.21c.07-.25.15-.47.27-.75l6.04-13.37c.95-2.1,2.47-3.12,4.89-3.12s3.92,1.02,4.87,3.12l6.09,13.37ZM42.94,152.66l-2.59-6.04c-.15-.37-.45-.52-.77-.52-.3,0-.57.12-.75.52l-2.57,6.04h6.69Z"/>
      <path class="cls-3" d="M74.88,142.14c2.4,0,3.94.7,5.06,1.82,1.17,1.17,1.87,2.79,1.87,4.49,0,1.5-.55,2.92-1.47,4.04-1.15,1.37-2.87,2.27-5.46,2.27h-7.76v4.24h-4.52v-15.82c0-.7.37-1.05,1.1-1.05h11.18ZM74.98,150.62c1,0,1.57-.3,1.95-.8.25-.32.4-.72.4-1.2,0-.5-.15-.92-.42-1.27-.37-.45-.95-.75-1.92-.75h-7.54c-.2,0-.32.1-.32.35v3.67h7.86Z"/>
      <path class="cls-3" d="M88.2,142.14v16.87h-4.54v-16.87h4.54Z"/>
      <path class="cls-3" d="M108.44,142.14v4.47h-12.82c-.27,0-.4.15-.4.42v1.92h13.15v3.24h-13.15v2.05c0,.3.12.45.4.45h12.82v4.32h-15.37c-1.57,0-2.37-.77-2.37-2.35v-12.25c0-1.52.8-2.27,2.4-2.27h15.34Z"/>
      <path class="cls-3" d="M115.95,159c-4.14,0-5.49-1.82-5.49-5.49v-11.38h4.54v10.95c0,1.22.32,1.6,1.5,1.6h11.7v4.32h-12.25Z"/>
      <path class="cls-3" d="M150.21,142.14c2.72,0,4.74.85,6.24,2.22,1.67,1.55,2.72,3.77,2.72,6.21,0,2.22-.82,4.22-2.17,5.69-1.55,1.7-3.77,2.74-6.79,2.74h-9.11c-.72,0-1.1-.35-1.1-1.07v-14.75c0-.7.37-1.05,1.1-1.05h9.11ZM144.84,146.6c-.22,0-.32.1-.32.35v7.26c0,.25.1.35.32.35h5.36c1.6,0,2.67-.5,3.39-1.3.65-.7,1.05-1.65,1.05-2.67,0-1.12-.47-2.17-1.25-2.89-.72-.67-1.67-1.1-3.19-1.1h-5.36Z"/>
      <path class="cls-3" d="M179.05,142.14v4.47h-12.82c-.27,0-.4.15-.4.42v1.92h13.15v3.24h-13.15v2.05c0,.3.12.45.4.45h12.82v4.32h-15.37c-1.57,0-2.37-.77-2.37-2.35v-12.25c0-1.52.8-2.27,2.4-2.27h15.34Z"/>
      <path class="cls-3" d="M186.56,159c-4.14,0-5.49-1.82-5.49-5.49v-11.38h4.54v10.95c0,1.22.32,1.6,1.5,1.6h11.7v4.32h-12.25Z"/>
      <path class="cls-3" d="M222.89,142.14c2.4,0,3.94.7,5.06,1.82,1.17,1.17,1.87,2.79,1.87,4.49,0,1.5-.55,2.92-1.47,4.04-1.15,1.37-2.87,2.27-5.46,2.27h-7.76v4.24h-4.52v-15.82c0-.7.37-1.05,1.1-1.05h11.18ZM222.99,150.62c1,0,1.57-.3,1.95-.8.25-.32.4-.72.4-1.2,0-.5-.15-.92-.42-1.27-.37-.45-.95-.75-1.92-.75h-7.54c-.2,0-.32.1-.32.35v3.67h7.86Z"/>
      <path class="cls-3" d="M237.46,159c-4.24,0-5.91-1.62-5.91-5.39v-11.48h4.54v10.98c0,1.05.5,1.57,1.62,1.57h7.01c1.12,0,1.67-.5,1.67-1.57v-10.98h4.54v11.48c0,3.77-1.67,5.39-5.91,5.39h-7.56Z"/>
      <path class="cls-3" d="M271.04,142.14v4.47h-12.82c-.27,0-.4.15-.4.42v1.92h13.15v3.24h-13.15v2.05c0,.3.12.45.4.45h12.82v4.32h-15.37c-1.57,0-2.37-.77-2.37-2.35v-12.25c0-1.52.8-2.27,2.4-2.27h15.34Z"/>
      <path class="cls-3" d="M286.36,142.14c1.77,0,3.17.55,4.14,1.6.77.82,1.27,1.95,1.27,3.37s-.6,2.69-1.7,3.42c1.25.65,1.87,2.12,1.87,3.67,0,1.2-.45,2.3-1.17,3.14-.87,1.02-2.17,1.67-4.17,1.67h-12.3c-.75,0-1.12-.35-1.12-1.07v-14.75c0-.7.37-1.05,1.12-1.05h12.05ZM285.56,149.05c.62,0,1-.2,1.25-.52.17-.22.3-.52.3-.82s-.12-.6-.3-.82c-.25-.3-.62-.5-1.25-.5h-7.51c-.25,0-.35.12-.35.37v2.3h7.86ZM277.7,154.54c0,.25.1.37.35.37h7.49c.67,0,1.07-.2,1.32-.5.22-.27.35-.6.35-.95s-.15-.67-.37-.92c-.27-.3-.62-.47-1.3-.47h-7.83v2.47Z"/>
    </g>
    <g class="cls-1">
      <path class="cls-3" d="M299.07,159c-4.14,0-5.49-1.82-5.49-5.49v-11.38h4.54v10.95c0,1.22.32,1.6,1.5,1.6h11.7v4.32h-12.25Z"/>
    </g>
    <g class="cls-1">
      <path class="cls-3" d="M320.96,159c-3.02,0-5.24-1.05-6.79-2.74-1.35-1.47-2.17-3.47-2.17-5.69,0-2.45,1.05-4.67,2.72-6.21,1.5-1.37,3.52-2.22,6.24-2.22h3.54c2.72,0,4.74.85,6.24,2.22,1.67,1.55,2.72,3.77,2.72,6.21,0,2.22-.82,4.22-2.17,5.69-1.55,1.7-3.77,2.74-6.79,2.74h-3.54ZM320.96,146.6c-1.52,0-2.47.42-3.19,1.1-.77.72-1.25,1.77-1.25,2.89,0,1.02.4,1.97,1.05,2.67.72.8,1.8,1.3,3.39,1.3h3.54c1.6,0,2.67-.5,3.39-1.3.65-.7,1.05-1.65,1.05-2.67,0-1.12-.47-2.17-1.25-2.89-.72-.67-1.67-1.1-3.19-1.1h-3.54Z"/>
      <path class="cls-3" d="M355.89,142.14c2.72,0,4.74.85,6.24,2.22,1.67,1.55,2.72,3.77,2.72,6.21,0,2.22-.82,4.22-2.17,5.69-1.55,1.7-3.77,2.74-6.79,2.74h-9.11c-.72,0-1.1-.35-1.1-1.07v-14.75c0-.7.37-1.05,1.1-1.05h9.11ZM350.52,146.6c-.22,0-.32.1-.32.35v7.26c0,.25.1.35.32.35h5.36c1.6,0,2.67-.5,3.39-1.3.65-.7,1.05-1.65,1.05-2.67,0-1.12-.47-2.17-1.25-2.89-.72-.67-1.67-1.1-3.19-1.1h-5.36Z"/>
      <path class="cls-3" d="M384.73,142.14v4.47h-12.82c-.27,0-.4.15-.4.42v1.92h13.15v3.24h-13.15v2.05c0,.3.12.45.4.45h12.82v4.32h-15.37c-1.57,0-2.37-.77-2.37-2.35v-12.25c0-1.52.8-2.27,2.4-2.27h15.34Z"/>
      <path class="cls-3" d="M407.11,142.14c2.72,0,4.74.85,6.24,2.22,1.67,1.55,2.72,3.77,2.72,6.21,0,2.22-.82,4.22-2.17,5.69-1.55,1.7-3.77,2.74-6.79,2.74h-9.11c-.72,0-1.1-.35-1.1-1.07v-14.75c0-.7.37-1.05,1.1-1.05h9.11ZM401.75,146.6c-.22,0-.32.1-.32.35v7.26c0,.25.1.35.32.35h5.36c1.6,0,2.67-.5,3.39-1.3.65-.7,1.05-1.65,1.05-2.67,0-1.12-.47-2.17-1.25-2.89-.72-.67-1.67-1.1-3.19-1.1h-5.36Z"/>
      <path class="cls-3" d="M422.81,142.14v16.87h-4.54v-16.87h4.54Z"/>
      <path class="cls-3" d="M433.91,159c-3.02,0-5.24-1.05-6.79-2.74-1.35-1.47-2.17-3.47-2.17-5.69,0-2.45,1.05-4.67,2.72-6.21,1.5-1.37,3.52-2.22,6.24-2.22h3.54c2.72,0,4.74.85,6.24,2.22,1.67,1.55,2.72,3.77,2.72,6.21,0,2.22-.82,4.22-2.17,5.69-1.55,1.7-3.77,2.74-6.79,2.74h-3.54ZM433.91,146.6c-1.52,0-2.47.42-3.19,1.1-.77.72-1.25,1.77-1.25,2.89,0,1.02.4,1.97,1.05,2.67.72.8,1.8,1.3,3.39,1.3h3.54c1.6,0,2.67-.5,3.39-1.3.65-.7,1.05-1.65,1.05-2.67,0-1.12-.47-2.17-1.25-2.89-.72-.67-1.67-1.1-3.19-1.1h-3.54Z"/>
      <path class="cls-3" d="M466.22,146.6h-12.13c-.55,0-.85.12-1.05.32-.22.22-.35.52-.35.87,0,.37.17.7.42.9.2.17.45.25.97.25h7.41c1.9,0,3.17.6,4.07,1.52.9.92,1.45,2.17,1.45,3.49,0,1.22-.47,2.4-1.25,3.29-.92,1.07-2.27,1.75-4.27,1.75h-13.07v-4.32h12.28c.7,0,1.05-.15,1.27-.42.17-.2.27-.47.27-.77,0-.35-.13-.67-.35-.9-.22-.25-.55-.37-1.2-.37h-6.86c-2.25,0-3.54-.6-4.44-1.52-.9-.92-1.42-2.15-1.42-3.52s.55-2.59,1.45-3.52c.9-.92,2.17-1.52,4.42-1.52h12.38v4.47Z"/>
    </g>
  </g>
</svg>