<svg width="271" height="90" viewBox="0 0 271 90" fill="none" xmlns="http://www.w3.org/2000/svg">
<path d="M14.0944 72H1.77839L20.5444 17.6397H35.3554L54.0948 72H41.7788L28.1622 30.0619H27.7375L14.0944 72ZM13.3246 50.6328H42.4159V59.6044H13.3246V50.6328ZM60.4254 72V31.2298H71.3877V38.3434H71.8123C72.5555 35.8129 73.8031 33.9018 75.5549 32.61C77.3068 31.3006 79.324 30.6459 81.6067 30.6459C82.173 30.6459 82.7835 30.6812 83.4382 30.752C84.0929 30.8228 84.668 30.9201 85.1635 31.044V41.0773C84.6327 40.918 83.8983 40.7765 82.9604 40.6526C82.0226 40.5287 81.1644 40.4668 80.3858 40.4668C78.7224 40.4668 77.236 40.8296 75.9265 41.5551C74.6348 42.2629 73.6084 43.2538 72.8475 44.5279C72.1043 45.802 71.7327 47.2707 71.7327 48.9341V72H60.4254ZM107.533 72.7963C103.41 72.7963 99.8441 71.9204 96.8358 70.1685C93.8453 68.399 91.5361 65.9393 89.9081 62.7895C88.2801 59.6221 87.4661 55.9503 87.4661 51.7742C87.4661 47.5627 88.2801 43.882 89.9081 40.7322C91.5361 37.5648 93.8453 35.1051 96.8358 33.3533C99.8441 31.5837 103.41 30.6989 107.533 30.6989C111.656 30.6989 115.213 31.5837 118.203 33.3533C121.211 35.1051 123.529 37.5648 125.157 40.7322C126.785 43.882 127.599 47.5627 127.599 51.7742C127.599 55.9503 126.785 59.6221 125.157 62.7895C123.529 65.9393 121.211 68.399 118.203 70.1685C115.213 71.9204 111.656 72.7963 107.533 72.7963ZM107.586 64.0371C109.462 64.0371 111.028 63.5062 112.284 62.4445C113.54 61.3651 114.487 59.8963 115.124 58.0383C115.779 56.1803 116.106 54.0657 116.106 51.6945C116.106 49.3233 115.779 47.2087 115.124 45.3507C114.487 43.4927 113.54 42.024 112.284 40.9446C111.028 39.8652 109.462 39.3254 107.586 39.3254C105.692 39.3254 104.1 39.8652 102.808 40.9446C101.534 42.024 100.57 43.4927 99.9148 45.3507C99.2778 47.2087 98.9593 49.3233 98.9593 51.6945C98.9593 54.0657 99.2778 56.1803 99.9148 58.0383C100.57 59.8963 101.534 61.3651 102.808 62.4445C104.1 63.5062 105.692 64.0371 107.586 64.0371ZM161.097 54.6408V31.2298H172.404V72H161.548V64.5945H161.123C160.203 66.9834 158.672 68.9033 156.531 70.3543C154.408 71.8054 151.815 72.5309 148.754 72.5309C146.029 72.5309 143.631 71.9115 141.561 70.6728C139.491 69.4342 137.871 67.6735 136.704 65.3908C135.553 63.1081 134.969 60.3741 134.952 57.189V31.2298H146.259V55.1717C146.277 57.5783 146.923 59.4805 148.197 60.8784C149.471 62.2764 151.178 62.9753 153.32 62.9753C154.682 62.9753 155.956 62.6657 157.142 62.0463C158.327 61.4093 159.283 60.4714 160.008 59.2328C160.752 57.9941 161.114 56.4634 161.097 54.6408ZM192.756 48.4297V72H181.449V31.2298H192.225V38.423H192.703C193.605 36.0518 195.118 34.1761 197.242 32.7958C199.365 31.3979 201.94 30.6989 204.966 30.6989C207.797 30.6989 210.266 31.3183 212.371 32.557C214.477 33.7956 216.114 35.5652 217.282 37.8656C218.45 40.1483 219.034 42.8734 219.034 46.0409V72H207.726V48.0581C207.744 45.5631 207.107 43.6166 205.815 42.2186C204.523 40.803 202.745 40.0952 200.48 40.0952C198.958 40.0952 197.613 40.4226 196.445 41.0773C195.295 41.732 194.393 42.6876 193.738 43.9439C193.101 45.1826 192.774 46.6779 192.756 48.4297ZM242.969 72.6636C239.872 72.6636 237.067 71.8673 234.555 70.2747C232.06 68.6644 230.078 66.3021 228.609 63.1877C227.158 60.0556 226.433 56.2157 226.433 51.668C226.433 46.9964 227.185 43.1123 228.689 40.0156C230.193 36.9012 232.192 34.5742 234.687 33.0347C237.2 31.4775 239.952 30.6989 242.942 30.6989C245.225 30.6989 247.127 31.0882 248.649 31.8668C250.189 32.6277 251.427 33.5833 252.365 34.7335C253.321 35.866 254.046 36.9808 254.542 38.0779H254.887V17.6397H266.168V72H255.019V65.4704H254.542C254.011 66.6029 253.259 67.7266 252.285 68.8414C251.33 69.9385 250.082 70.8498 248.543 71.5753C247.021 72.3008 245.163 72.6636 242.969 72.6636ZM246.552 63.6655C248.375 63.6655 249.914 63.17 251.171 62.1791C252.445 61.1704 253.418 59.7636 254.09 57.9587C254.781 56.1538 255.126 54.0392 255.126 51.6149C255.126 49.1906 254.789 47.0849 254.117 45.2976C253.445 43.5104 252.471 42.1302 251.197 41.1569C249.923 40.1837 248.375 39.6971 246.552 39.6971C244.694 39.6971 243.128 40.2014 241.854 41.21C240.58 42.2186 239.616 43.6166 238.961 45.4038C238.306 47.1911 237.979 49.2614 237.979 51.6149C237.979 53.9861 238.306 56.083 238.961 57.9056C239.633 59.7105 240.598 61.1262 241.854 62.1525C243.128 63.1611 244.694 63.6655 246.552 63.6655Z" fill="white"/>
<path fill-rule="evenodd" clip-rule="evenodd" d="M111.194 14.2695C109.653 15.461 107.52 15.5315 105.61 15.179C103.699 14.8252 101.86 14.1055 99.9285 13.8872C98.2471 13.6981 96.3948 13.9733 95.1124 15.0326C95.4333 20.3096 99.7819 24.4907 105.102 24.4907C110.631 24.4907 115.112 19.9762 115.112 14.4071C115.112 13.3932 114.962 12.4145 114.685 11.4907C114.109 11.6141 113.56 11.9516 113.114 12.3548C112.443 12.9614 111.909 13.7158 111.194 14.2695Z" fill="#E4CD1A"/>
</svg>
