<svg xmlns="http://www.w3.org/2000/svg" viewBox="0 0 134.625 42.195"><path fill="#54c1f0" d="M134.17 12.446a8.971 8.971 0 0 0-8.463-6.003h-.082A8.933 8.933 0 0 0 119.16 9.2a8.943 8.943 0 0 0-6.466-2.757h-.082a8.917 8.917 0 0 0-5.848 2.173v-.689a1.321 1.321 0 0 0-1.315-1.225h-6c-.734 0-1.326.593-1.326 1.33v32.582c0 .737.592 1.33 1.326 1.33h6c.67 0 1.22-.5 1.307-1.146l-.003-23.39c0-.083.003-.159.011-.235.096-1.044.861-1.902 2.069-2.01H109.939c.506.046.932.223 1.268.492.522.414.812 1.052.812 1.752l.023 23.275a1.33 1.33 0 0 0 1.326 1.332h6c.709 0 1.285-.564 1.318-1.267l-.002-23.37c-.003-.769.352-1.463.976-1.875.308-.197.677-.33 1.104-.37H123.87c1.298.113 2.083 1.098 2.08 2.244l.022 23.244c0 .737.596 1.33 1.327 1.33h6c.73 0 1.326-.593 1.326-1.33v-25c0-1.704-.192-2.43-.454-3.174M93.552 6.787H90.12V1.211A1.21 1.21 0 0 0 88.91 0c-.08 0-.156.011-.23.025-3.804 1.045-3.042 6.314-9.987 6.762h-.675a1.39 1.39 0 0 0-.29.034h-.006l.006.003a1.325 1.325 0 0 0-1.039 1.29v6a1.33 1.33 0 0 0 1.33 1.326h3.62l-.005 25.443c0 .725.587 1.312 1.312 1.312h5.932c.723 0 1.31-.587 1.31-1.312l.003-25.443h3.36c.732 0 1.327-.595 1.327-1.326v-6c0-.731-.595-1.327-1.326-1.327"/><path fill="#233266" d="M71.964 6.787h-6c-.73 0-1.323.596-1.323 1.327V20.52a1.405 1.405 0 0 1-1.406 1.383h-2.512a1.404 1.404 0 0 1-1.408-1.405l-.022-12.384c0-.731-.596-1.327-1.327-1.327h-6c-.734 0-1.326.596-1.326 1.327V21.71c0 5.165 3.683 8.848 8.85 8.848 0 0 3.878 0 3.996.023a1.397 1.397 0 0 1 .02 2.774c-.034.005-.065.014-.101.02l-8.775.03c-.733 0-1.326.596-1.326 1.327v5.997c0 .734.593 1.327 1.326 1.327h9.81c5.17 0 8.85-3.68 8.85-8.848V8.114c0-.731-.592-1.327-1.326-1.327M13.888 17.781v3.703c0 .776-.63 1.408-1.405 1.408l-3.807.003v-7.42h3.807c.776 0 1.405.627 1.405 1.406Zm.528-10.995H1.3C.581 6.786 0 7.37 0 8.087v5.879c0 .011.003.022.003.034 0 .028-.003.056-.003.081V40.69c0 .723.542 1.313 1.214 1.33h6.112c.731 0 1.327-.593 1.327-1.327l.023-9.118h5.74c4.803 0 8.15-3.333 8.15-8.157v-8.464c0-4.823-3.347-8.167-8.15-8.167M38.783 31.868v.937c0 .076-.011.15-.022.22a1.414 1.414 0 0 1-.057.194c-.186.525-.711.906-1.335.906h-2.497c-.78 0-1.414-.592-1.414-1.32v-1.132l-.003-.042.003-3.012v-.942l.003-.009c.002-.725.632-1.312 1.41-1.312h2.498c.782 0 1.414.59 1.414 1.32ZM37.83 6.82h-8.325c-.737 0-1.332.56-1.332 1.245v2.334l.003.045c0 .017-.003.034-.003.05v3.198c0 .726.632 1.318 1.41 1.318h7.928c.627.1 1.124.556 1.194 1.27v.774c-.07.68-.561 1.177-1.16 1.233H33.62c-5.222 0-8.941 3.469-8.941 8.34v6.976c0 4.843 3.197 8.29 8.382 8.29h10.88c1.952 0 3.536-1.48 3.536-3.3V15.826c0-5.52-2.845-9.006-9.647-9.006"/></svg>