
        <svg xmlns="http://www.w3.org/2000/svg" xmlns:xlink="http://www.w3.org/1999/xlink" version="1.1" width="3162.313432835821" 
        height="721.9667403774401" viewBox="0 0 3162.313432835821 721.9667403774401">
			<rect fill="#25a55f" width="3162.313432835821" height="721.9667403774401"/>
			<g transform="scale(8.115671641791044) translate(10, 10)">
				<defs id="SvgjsDefs1988"></defs><g id="SvgjsG1989" featureKey="HKaMnE-0" transform="matrix(0.7737012803903479,0,0,0.7737012803903479,-2.5122635882771522,5.794844019803428)" fill="#ffffff"><g xmlns="http://www.w3.org/2000/svg"><path d="M39.832,61.794c-2.771-3.353-5.873-6.4-9.255-9.182c-2.671-2.202-5.534-4.218-8.55-6.102c-1-0.622-2.023-1.222-3.059-1.817   c-0.381-0.217-0.759-0.431-1.14-0.639c-0.225-0.125-0.441-0.25-0.67-0.369c0.206,0.092,0.404,0.189,0.6,0.281   c0.47,0.225,0.937,0.448,1.398,0.682c1.066,0.527,2.114,1.079,3.129,1.65c1.049,0.591,2.077,1.197,3.082,1.822   c1.989,1.246,3.882,2.573,5.691,3.98c1.399,1.09,2.74,2.232,4.035,3.426c2.93,2.707,5.598,5.676,7.972,8.914   c1.177,1.604,2.287,3.272,3.336,5c0.512,0.848,1.044,1.672,1.576,2.495c-0.323-23.022-15.674-30.436-36.975-29.941   c6.184,1.928,10.699,9.937,12.679,15.105c6.443,16.772,14.347,15.149,23.624,16.436c-0.98-2.109-1.891-3.921-2.234-4.468   C43.475,66.5,41.728,64.082,39.832,61.794z"></path><path d="M53.18,72.582c0.158-0.965,0.328-1.931,0.499-2.858c-0.273,0.112-0.546,0.224-0.818,0.342   c-0.2-0.724-0.374-1.43-0.546-2.135c-0.83,2.504-1.641,5.014-2.087,7.742c-0.694-1.301-1.467-2.522-2.251-3.736   c0.007,0.56,0.015,1.119,0.005,1.697c-0.228-0.035-0.452-0.066-0.677-0.098c0.307,0.66,0.62,1.35,0.925,2.038   c1.076,2.436,0.462,4.748,2.237,5.972c0.59,0.406,1.744-0.632,1.843-0.745C54.139,78.688,52.618,75.985,53.18,72.582z"></path><path d="M52.314,67.931c0.4-1.206,0.804-2.409,1.171-3.64c0.755-2.509,1.606-4.963,2.561-7.358   c1.93-4.834,4.312-9.423,7.112-13.774c1.238-1.916,2.55-3.785,3.95-5.606c1.813-2.353,3.759-4.634,5.849-6.845   c1.06-1.109,2.154-2.203,3.277-3.284c1.088-1.047,2.224-2.079,3.392-3.087c0.503-0.442,1.018-0.876,1.531-1.31   c0.218-0.179,0.438-0.366,0.662-0.546c-0.248,0.225-0.48,0.451-0.721,0.679c-0.409,0.385-0.816,0.775-1.222,1.172   c-1.108,1.083-2.196,2.169-3.25,3.273c-3.173,3.342-6.112,6.803-8.75,10.433c-3.342,4.586-6.243,9.418-8.633,14.522   c-1.636,3.488-3.042,7.09-4.213,10.831c-0.253,0.795-0.809,3.365-1.353,6.332c11.225-4.624,21.667-5.153,24.31-28.292   c0.808-7.128,3.874-18.644,11.01-23.071C62.109,24.654,45.251,38.938,52.314,67.931z"></path></g></g><g id="SvgjsG1990" featureKey="J3GnXt-0" transform="matrix(2.4113818197479056,0,0,2.4113818197479056,79.3730413247805,16.206897646806475)" fill="#ffffff"><path d="M11.96 5.720000000000001 l0 2.64 l-4.28 0 l0 11.64 l-3.14 0 l0 -11.64 l-4.28 0 l0 -2.64 l11.7 0 z M15.86 9.38 c0.97334 0 1.84 0.22664 2.6 0.67998 s1.3567 1.11 1.79 1.97 s0.65 1.85 0.65 2.97 c0 0.10666 -0.0066602 0.28 -0.02 0.52 l-7.46 0 c0.02666 0.82666 0.24332 1.47 0.64998 1.93 s1.03 0.69 1.87 0.69 c0.52 0 0.99666 -0.13 1.43 -0.39 s0.71 -0.57666 0.83 -0.95 l2.5 0 c-0.73334 2.32 -2.3466 3.48 -4.84 3.48 c-0.94666 -0.01334 -1.8233 -0.22 -2.63 -0.62 s-1.45 -1.0233 -1.93 -1.87 s-0.72 -1.83 -0.72 -2.95 c0 -1.0533 0.24334 -2.0134 0.73 -2.88 s1.1333 -1.5133 1.94 -1.94 s1.6767 -0.64 2.61 -0.64 z M18.04 13.719999999999999 c-0.13334 -0.77334 -0.38 -1.3333 -0.74 -1.68 s-0.87334 -0.52 -1.54 -0.52 c-0.69334 0 -1.24 0.19666 -1.64 0.59 s-0.63334 0.93 -0.7 1.61 l4.62 0 z M28.6 9.38 c0.24 0 0.44668 0.03334 0.62002 0.1 l0 2.64 c-0.30666 -0.06666 -0.64666 -0.1 -1.02 -0.1 c-1.8667 0 -2.8 1.1067 -2.8 3.32 l0 4.66 l-2.84 0 l0 -10.34 l2.7 0 l0 1.92 l0.04 0 c0.28 -0.66666 0.72334 -1.2 1.33 -1.6 s1.2633 -0.6 1.97 -0.6 z M36.38 9.38 c0.24 0 0.44668 0.03334 0.62002 0.1 l0 2.64 c-0.30666 -0.06666 -0.64666 -0.1 -1.02 -0.1 c-1.8667 0 -2.8 1.1067 -2.8 3.32 l0 4.66 l-2.84 0 l0 -10.34 l2.7 0 l0 1.92 l0.04 0 c0.28 -0.66666 0.72334 -1.2 1.33 -1.6 s1.2633 -0.6 1.97 -0.6 z M42.879999999999995 9.38 c3.0134 0.01334 4.52 0.9933 4.52 2.94 l0 5.48 c0 1.0133 0.12 1.7467 0.36 2.2 l-2.88 0 c-0.10666 -0.32 -0.17332 -0.65334 -0.19998 -1 c-0.84 0.85334 -2 1.28 -3.48 1.28 c-1.08 0 -1.9367 -0.27334 -2.57 -0.82 s-0.95 -1.3067 -0.95 -2.28 c0 -0.94666 0.3 -1.68 0.9 -2.2 c0.61334 -0.54666 1.7267 -0.89332 3.34 -1.04 c1.1467 -0.12 1.8733 -0.27 2.18 -0.45 s0.46 -0.45666 0.46 -0.83 c0 -0.46666 -0.14 -0.81332 -0.42 -1.04 s-0.74666 -0.34 -1.4 -0.34 c-0.6 0 -1.0533 0.12334 -1.36 0.37 s-0.48666 0.64332 -0.54 1.19 l-2.84 0 c0.06666 -1.1333 0.53332 -1.9933 1.4 -2.58 s2.0266 -0.88 3.48 -0.88 z M40.519999999999996 17.06 c0 0.88 0.58 1.32 1.74 1.32 c1.52 -0.01334 2.2866 -0.79334 2.3 -2.34 l0 -1.1 c-0.22666 0.22666 -0.8 0.39332 -1.72 0.49998 c-0.8 0.09334 -1.3867 0.25668 -1.76 0.49002 s-0.56 0.61 -0.56 1.13 z M53.03999999999999 5.720000000000001 l0 5.48 l5.78 0 l0 -5.48 l3.14 0 l0 14.28 l-3.14 0 l0 -6.16 l-5.78 0 l0 6.16 l-3.14 0 l0 -14.28 l3.14 0 z M69.44 9.38 c1.6533 0 2.96 0.50334 3.92 1.51 s1.44 2.3234 1.44 3.95 c0 1.64 -0.49 2.9566 -1.47 3.95 s-2.2766 1.49 -3.89 1.49 c-1.64 0 -2.94 -0.50334 -3.9 -1.51 s-1.44 -2.3166 -1.44 -3.93 c0 -1.6667 0.49 -2.9934 1.47 -3.98 s2.27 -1.48 3.87 -1.48 z M66.94 14.84 c0 1.0533 0.21334 1.8666 0.64 2.44 s1.0467 0.86 1.86 0.86 c0.84 0 1.47 -0.29334 1.89 -0.88 s0.63 -1.3933 0.63 -2.42 c0 -1.0667 -0.21666 -1.8867 -0.65 -2.46 s-1.0633 -0.86 -1.89 -0.86 c-0.8 0 -1.4133 0.28666 -1.84 0.86 s-0.64 1.3933 -0.64 2.46 z M79.56 5.720000000000001 l0 14.28 l-2.84 0 l0 -14.28 l2.84 0 z M84.72 5.720000000000001 l0 14.28 l-2.84 0 l0 -14.28 l2.84 0 z M91.72 9.38 c3.0134 0.01334 4.52 0.9933 4.52 2.94 l0 5.48 c0 1.0133 0.12 1.7467 0.36 2.2 l-2.88 0 c-0.10666 -0.32 -0.17332 -0.65334 -0.19998 -1 c-0.84 0.85334 -2 1.28 -3.48 1.28 c-1.08 0 -1.9367 -0.27334 -2.57 -0.82 s-0.95 -1.3067 -0.95 -2.28 c0 -0.94666 0.3 -1.68 0.9 -2.2 c0.61334 -0.54666 1.7267 -0.89332 3.34 -1.04 c1.1467 -0.12 1.8733 -0.27 2.18 -0.45 s0.46 -0.45666 0.46 -0.83 c0 -0.46666 -0.14 -0.81332 -0.42 -1.04 s-0.74666 -0.34 -1.4 -0.34 c-0.6 0 -1.0533 0.12334 -1.36 0.37 s-0.48666 0.64332 -0.54 1.19 l-2.84 0 c0.06666 -1.1333 0.53332 -1.9933 1.4 -2.58 s2.0266 -0.88 3.48 -0.88 z M89.36 17.06 c0 0.88 0.58 1.32 1.74 1.32 c1.52 -0.01334 2.2866 -0.79334 2.3 -2.34 l0 -1.1 c-0.22666 0.22666 -0.8 0.39332 -1.72 0.49998 c-0.8 0.09334 -1.3867 0.25668 -1.76 0.49002 s-0.56 0.61 -0.56 1.13 z M104.38 9.38 c1.32 0 2.2766 0.33338 2.87 1 s0.89 1.7267 0.89 3.18 l0 6.44 l-2.84 0 l0 -5.86 c0 -0.85334 -0.13666 -1.4867 -0.41 -1.9 s-0.74334 -0.62 -1.41 -0.62 c-0.77334 0 -1.3333 0.23334 -1.68 0.7 s-0.52 1.2333 -0.52 2.3 l0 5.38 l-2.84 0 l0 -10.34 l2.7 0 l0 1.44 l0.06 0 c0.70666 -1.1467 1.7667 -1.72 3.18 -1.72 z M120.38 5.720000000000001 l0 14.28 l-2.7 0 l0 -1.32 l-0.04 0 c-0.61334 1.0667 -1.66 1.6 -3.14 1.6 c-1.4267 0 -2.5566 -0.52 -3.39 -1.56 s-1.25 -2.3666 -1.25 -3.98 c0 -1.5733 0.42334 -2.86 1.27 -3.86 s1.95 -1.5 3.31 -1.5 c0.62666 0 1.2167 0.13 1.77 0.39 s0.98334 0.64334 1.29 1.15 l0.04 0 l0 -5.2 l2.84 0 z M112.7 14.82 c0 0.94666 0.22332 1.7367 0.66998 2.37 s1.0567 0.95 1.83 0.95 c0.81334 0 1.4233 -0.29666 1.83 -0.89 s0.61 -1.41 0.61 -2.45 s-0.21334 -1.8467 -0.64 -2.42 s-1.0333 -0.86 -1.82 -0.86 c-0.81334 0 -1.43 0.3 -1.85 0.9 s-0.63 1.4 -0.63 2.4 z"></path></g>
			</g>
		</svg>
	