<?xml version="1.0" encoding="utf-8"?>
<!-- Generator: Adobe Illustrator 26.0.3, SVG Export Plug-In . SVG Version: 6.00 Build 0)  -->
<svg version="1.1" id="Layer_1" xmlns="http://www.w3.org/2000/svg" xmlns:xlink="http://www.w3.org/1999/xlink" x="0px" y="0px"
	 viewBox="0 0 873.71 882.06" style="enable-background:new 0 0 873.71 882.06;" xml:space="preserve">
<style type="text/css">
	.st0{display:none;stroke:#000000;stroke-width:11;stroke-miterlimit:10;}
	.st1{display:none;}
	.st2{fill:none;stroke:#000000;stroke-width:20;stroke-miterlimit:10;}
	.st3{fill:none;stroke:#000000;stroke-width:18;stroke-miterlimit:10;}
	.st4{fill:#FFFFFF;}
</style>
<path d="M424.1,846.41c-63.66,0-127.32,0.01-190.99,0c-12.82,0-25.62-0.9-38.12-3.66c-45.73-10.08-77.16-36.7-92.76-81.24
	c-3.93-11.21-6.07-22.83-7.56-34.57c-1.85-14.58-3.64-29.17-5.41-43.76c-0.92-7.61-1.7-15.24-2.62-22.86
	c-0.92-7.61-1.93-15.21-2.89-22.82c-0.84-6.66-1.7-13.31-2.48-19.98c-2.15-18.41-4.24-36.82-6.4-55.23
	c-1.89-16.18-3.84-32.36-5.75-48.54c-1.91-16.18-3.77-32.37-5.71-48.55c-1.63-13.64-3.41-27.27-4.99-40.91
	c-1.58-13.65-2.96-27.32-4.51-40.97c-0.93-8.25-2.04-16.49-3.02-24.74c-0.79-6.66-1.56-13.33-2.27-20
	c-0.85-7.94-1.62-15.89-2.46-23.84c-0.91-8.58-2.01-17.14-2.72-25.74c-0.47-5.72-0.64-11.5-0.5-17.24c0.09-3.48,0.8-6.99,1.63-10.38
	c1.55-6.29,5.39-10.78,11.46-13.22c4.77-1.92,9.69-3.3,14.84-3.54c11.18-0.51,22.37-1.14,33.56-1.24
	c23.03-0.22,46.07-0.12,69.1-0.16c1.92,0,3.84,0.01,5.76-0.01c6.25-0.06,7.34-0.11,7.24-6.85c-0.05-3.58,1.1-6.93,1.88-10.35
	c15.45-67.39,58.93-126.82,120.56-160.95c22.26-12.33,45.95-20.72,70.9-25.49c8.15-1.56,16.44-2.26,24.72-3.03
	c7.99-0.74,15.96-1.11,23.96-0.74c48.56,2.25,92.74,17.27,131.75,46.39c47.35,35.35,78.09,81.99,92.85,139.15
	c1.6,6.18,2.76,12.47,4.13,18.7c0.36,1.63,1.71,2.91,3.31,2.98c2.87,0.12,5.75,0.18,8.63,0.19c25.59,0.05,51.19,0.11,76.78,0.09
	c9.92-0.01,19.82,0.46,29.72,1.12c4.21,0.28,8.24,1.29,12.14,2.62c8.67,2.96,13.68,9.23,14.84,18.28c0.57,4.42,0.7,8.93,0.57,13.39
	c-0.2,7.02-0.69,14.03-1.74,21.01c-1.19,7.89-1.78,15.88-2.65,23.82c-0.83,7.62-1.66,15.25-2.53,22.87
	c-1.08,9.52-2.18,19.05-3.3,28.56c-0.97,8.25-1.98,16.5-2.96,24.75c-0.75,6.35-1.53,12.69-2.23,19.04
	c-1.51,13.66-2.95,27.32-4.49,40.97c-0.9,7.94-1.95,15.85-2.91,23.78c-0.77,6.34-1.54,12.69-2.25,19.04
	c-1.53,13.65-2.95,27.32-4.54,40.97c-1.56,13.33-3.34,26.63-4.92,39.96c-1.58,13.33-3.01,26.67-4.57,40
	c-0.89,7.62-1.94,15.21-2.9,22.82c-0.8,6.34-1.6,12.68-2.34,19.03c-1.49,12.69-2.71,25.42-4.48,38.08
	c-1.82,12.97-2.85,26.04-5.29,38.93c-2.46,12.95-6.43,25.39-12.44,37.12c-15.21,29.68-39.04,49.29-70.62,59.55
	c-10.34,3.36-20.99,5.31-31.87,6.32c-14.06,1.3-28.13,1.03-42.19,1.06C536.07,846.47,480.09,846.41,424.1,846.41z M502.17,226.57
	c3.4,1.09,6.62,0.65,9.8,0.65c37.11,0.03,74.23,0.02,111.34,0.02c2.24,0,4.48-0.02,6.72-0.08c2.1-0.05,2.94-1,2.4-3.02
	c-1.32-4.93-2.55-9.9-4.21-14.72c-19.16-55.49-53.97-98.08-105.33-126.85c-27.18-15.22-56.55-23.47-87.52-25.85
	c-19.23-1.48-38.37,0.1-57.22,4.13c-21.69,4.63-42.31,12.31-61.5,23.51c-52.74,30.77-87.27,75.84-105.01,134.03
	c-3.09,10.15-4.5,20.43-4.49,31.13c0.15,167.89,0.11,335.77,0.11,503.66c0,2.24-0.01,4.48,0,6.72c0.01,1.28,0.01,2.56,0.06,3.84
	c0.12,3.12,0.92,4.08,3.72,4.53c2.21,0.36,4.41,0.78,6.62,1.07c7.6,0.99,15.13,2.52,22.84,2.51c22.08-0.03,44.15,0,66.23-0.03
	c2.55,0,5.13-0.08,7.65-0.42c7.28-0.97,14.54-2.09,21.81-3.16c2.97-0.44,4.02-1.47,4.1-4.22c0.09-3.2,0.08-6.39,0.08-9.59
	c0-80.27,0-160.53,0.01-240.8c0-3.2-0.01-6.4,0.08-9.59c0.08-2.95,1.17-4.07,4.03-4.15c2.56-0.08,5.12-0.07,7.68-0.07
	c18.56-0.01,37.11,0,55.67,0c32.96,0,65.91,0.01,98.87-0.01c2.87,0,5.75-0.05,8.61-0.32c0.78-0.07,1.67-0.89,2.17-1.61
	c0.52-0.75,0.73-1.77,0.88-2.7c1.29-8.21,2.7-16.4,3.75-24.64c0.96-7.61,1.75-15.25,2.22-22.9c1.56-25.63-0.09-51.12-4.08-76.47
	c-0.48-3.07-0.82-6.25-2.3-9.01c-3.47-0.96-6.68-0.58-9.85-0.58c-53.43-0.02-106.86,0-160.3,0c-2.56,0-5.12-0.03-7.68-0.11
	c-1.69-0.05-3.11-1.35-3.19-2.9c-0.11-2.23-0.2-4.47-0.2-6.7c-0.03-32.3-0.05-64.6-0.05-96.89c0-3.2,0-6.41,0.26-9.59
	c0.45-5.41,1.02-10.8,2.57-16.06c3.63-12.29,10.33-22.63,19.77-31.18c15-13.58,32.94-20.63,52.87-22.45
	c9.21-0.84,18.47-0.46,27.69,1.41c14.04,2.85,26.82,8.25,38.16,16.97c9.29,7.13,16.55,15.94,21.46,26.62
	C500.38,222.7,501.31,224.71,502.17,226.57z M421.21,227.24c17.59,0,35.18,0.01,52.77-0.02c1.9,0,3.82-0.17,5.7-0.45
	c0.35-0.05,0.92-1.07,0.8-1.47c-1.03-3.46-3.36-6.14-5.69-8.75c-11.83-13.3-26.96-20.13-44.41-22.03
	c-5.06-0.55-10.22-0.38-15.33-0.21c-13.46,0.43-25.63,4.9-36.71,12.39c-6.15,4.16-11.38,9.3-15.28,15.68
	c-0.49,0.8-0.91,1.71-1.06,2.61c-0.08,0.48,0.44,1.52,0.75,1.54c3.81,0.32,7.64,0.66,11.46,0.68
	C389.87,227.28,405.54,227.24,421.21,227.24z"/>
</svg>
