<svg xmlns="http://www.w3.org/2000/svg" xmlns:xlink="http://www.w3.org/1999/xlink" width="191" zoomAndPan="magnify" viewBox="0 0 143.25 44.249999" height="59" preserveAspectRatio="xMidYMid meet" version="1.0"><defs><g/><clipPath id="686376da3c"><path d="M 42 0 L 99 0 L 99 43.511719 L 42 43.511719 Z M 42 0 " clip-rule="nonzero"/></clipPath><clipPath id="288e435d0e"><path d="M 25 11.4375 L 39 11.4375 L 39 30.824219 L 25 30.824219 Z M 25 11.4375 " clip-rule="nonzero"/></clipPath><clipPath id="ce26064df9"><rect x="0" width="13" y="0" height="7"/></clipPath><clipPath id="de9f4344d3"><path d="M 1 10 L 56.058594 10 L 56.058594 43.511719 L 1 43.511719 Z M 1 10 " clip-rule="nonzero"/></clipPath><clipPath id="a76e09da9c"><rect x="0" width="56" y="0" height="34"/></clipPath><clipPath id="06fe98116d"><path d="M 0.359375 0 L 17 0 L 17 34 L 0.359375 34 Z M 0.359375 0 " clip-rule="nonzero"/></clipPath><clipPath id="55065d6c04"><rect x="0" width="17" y="0" height="34"/></clipPath><clipPath id="4c29a350f3"><path d="M 2 7 L 13.972656 7 L 13.972656 23 L 2 23 Z M 2 7 " clip-rule="nonzero"/></clipPath><clipPath id="a8960449d3"><rect x="0" width="14" y="0" height="31"/></clipPath><clipPath id="33461ff4d6"><rect x="0" width="57" y="0" height="44"/></clipPath></defs><g clip-path="url(#686376da3c)"><g transform="matrix(1, 0, 0, 1, 42, 0)"><g clip-path="url(#33461ff4d6)"><g clip-path="url(#288e435d0e)"><path fill="#e6164b" d="M 32.105469 11.441406 C 32.050781 11.4375 31.992188 11.4375 31.933594 11.4375 C 31.878906 11.4375 31.820312 11.4375 31.761719 11.441406 C 27.214844 11.554688 24.40625 16.46875 26.519531 20.496094 L 28.144531 23.59375 L 31.933594 30.816406 L 33.265625 28.273438 C 32.722656 27.261719 32.175781 26.25 31.628906 25.238281 C 30.796875 23.691406 29.964844 22.144531 29.128906 20.597656 C 28.707031 19.8125 28.304688 19.011719 28.191406 18.113281 C 27.925781 15.949219 29.773438 14.019531 31.917969 14.011719 C 34.023438 14.003906 35.730469 15.707031 35.730469 17.808594 C 35.730469 19.90625 34.03125 21.605469 31.933594 21.605469 C 31.863281 21.605469 31.796875 21.601562 31.726562 21.601562 L 34.253906 26.394531 L 35.726562 23.59375 L 37.347656 20.496094 C 39.460938 16.46875 36.652344 11.554688 32.105469 11.441406 " fill-opacity="1" fill-rule="nonzero"/></g><g transform="matrix(1, 0, 0, 1, 26, 14)"><g clip-path="url(#ce26064df9)"><g fill="#e6164b" fill-opacity="1"><g transform="translate(3.575735, 0.948467)"><g><path d="M -0.0625 2.609375 C -0.0625 2.148438 0.03125 1.738281 0.21875 1.375 C 0.414062 1.019531 0.691406 0.738281 1.046875 0.53125 C 1.398438 0.332031 1.816406 0.234375 2.296875 0.234375 C 2.765625 0.234375 3.175781 0.335938 3.53125 0.546875 C 3.894531 0.753906 4.171875 1.035156 4.359375 1.390625 C 4.554688 1.753906 4.65625 2.164062 4.65625 2.625 C 4.65625 3.070312 4.554688 3.472656 4.359375 3.828125 C 4.171875 4.191406 3.894531 4.476562 3.53125 4.6875 C 3.175781 4.894531 2.765625 5 2.296875 5 C 1.828125 5 1.410156 4.894531 1.046875 4.6875 C 0.691406 4.476562 0.414062 4.191406 0.21875 3.828125 C 0.03125 3.460938 -0.0625 3.054688 -0.0625 2.609375 Z M 1.15625 2.609375 C 1.15625 2.867188 1.253906 3.09375 1.453125 3.28125 C 1.648438 3.476562 1.929688 3.578125 2.296875 3.578125 C 2.660156 3.578125 2.941406 3.484375 3.140625 3.296875 C 3.335938 3.109375 3.4375 2.882812 3.4375 2.625 C 3.4375 2.34375 3.335938 2.109375 3.140625 1.921875 C 2.953125 1.742188 2.671875 1.65625 2.296875 1.65625 C 1.929688 1.65625 1.648438 1.742188 1.453125 1.921875 C 1.253906 2.109375 1.15625 2.335938 1.15625 2.609375 Z M 1.15625 2.609375 "/></g></g></g></g></g><g clip-path="url(#de9f4344d3)"><g transform="matrix(1, 0, 0, 1, 1, 10)"><g clip-path="url(#a76e09da9c)"><g fill="#2b2e34" fill-opacity="1"><g transform="translate(0.805988, 29.683124)"><g><path d="M 10.515625 -15.734375 C 12.367188 -15.734375 13.863281 -15.148438 15 -13.984375 C 16.132812 -12.816406 16.703125 -11.1875 16.703125 -9.09375 L 16.703125 0 L 12.78125 0 L 12.78125 -8.5625 C 12.78125 -9.789062 12.472656 -10.734375 11.859375 -11.390625 C 11.242188 -12.054688 10.40625 -12.390625 9.34375 -12.390625 C 8.257812 -12.390625 7.40625 -12.054688 6.78125 -11.390625 C 6.15625 -10.734375 5.84375 -9.789062 5.84375 -8.5625 L 5.84375 0 L 1.9375 0 L 1.9375 -15.5 L 5.84375 -15.5 L 5.84375 -13.578125 C 6.363281 -14.242188 7.03125 -14.769531 7.84375 -15.15625 C 8.65625 -15.539062 9.546875 -15.734375 10.515625 -15.734375 Z M 10.515625 -15.734375 "/></g></g></g><g fill="#e6164b" fill-opacity="1"><g transform="translate(16.951103, 29.683124)"><g><path d="M 16.140625 -8.25 C 16.140625 -7.769531 16.113281 -7.257812 16.0625 -6.71875 L 3.8125 -6.71875 C 3.90625 -5.207031 4.421875 -4.023438 5.359375 -3.171875 C 6.296875 -2.328125 7.4375 -1.90625 8.78125 -1.90625 C 9.882812 -1.90625 10.804688 -2.160156 11.546875 -2.671875 C 12.285156 -3.179688 12.800781 -3.867188 13.09375 -4.734375 L 15.84375 -4.734375 C 15.425781 -3.253906 14.601562 -2.050781 13.375 -1.125 C 12.144531 -0.207031 10.613281 0.25 8.78125 0.25 C 7.332031 0.25 6.03125 -0.0703125 4.875 -0.71875 C 3.726562 -1.375 2.828125 -2.300781 2.171875 -3.5 C 1.523438 -4.707031 1.203125 -6.109375 1.203125 -7.703125 C 1.203125 -9.285156 1.519531 -10.671875 2.15625 -11.859375 C 2.789062 -13.054688 3.679688 -13.976562 4.828125 -14.625 C 5.972656 -15.269531 7.289062 -15.59375 8.78125 -15.59375 C 10.238281 -15.59375 11.523438 -15.273438 12.640625 -14.640625 C 13.765625 -14.003906 14.628906 -13.128906 15.234375 -12.015625 C 15.835938 -10.910156 16.140625 -9.65625 16.140625 -8.25 Z M 13.515625 -8.78125 C 13.515625 -9.757812 13.300781 -10.597656 12.875 -11.296875 C 12.445312 -11.992188 11.863281 -12.523438 11.125 -12.890625 C 10.382812 -13.253906 9.566406 -13.4375 8.671875 -13.4375 C 7.390625 -13.4375 6.296875 -13.023438 5.390625 -12.203125 C 4.484375 -11.378906 3.960938 -10.238281 3.828125 -8.78125 Z M 13.515625 -8.78125 "/></g></g></g><g fill="#2b2e34" fill-opacity="1"><g transform="translate(31.948856, 29.683124)"><g><path d="M 7.859375 0.25 C 6.585938 0.25 5.445312 0.0195312 4.4375 -0.4375 C 3.4375 -0.894531 2.640625 -1.515625 2.046875 -2.296875 C 1.460938 -3.078125 1.144531 -3.941406 1.09375 -4.890625 L 5.03125 -4.890625 C 5.113281 -4.296875 5.410156 -3.800781 5.921875 -3.40625 C 6.429688 -3.019531 7.066406 -2.828125 7.828125 -2.828125 C 8.578125 -2.828125 9.160156 -2.972656 9.578125 -3.265625 C 10.003906 -3.566406 10.21875 -3.953125 10.21875 -4.421875 C 10.21875 -4.921875 9.957031 -5.296875 9.4375 -5.546875 C 8.925781 -5.804688 8.113281 -6.082031 7 -6.375 C 5.84375 -6.65625 4.894531 -6.945312 4.15625 -7.25 C 3.414062 -7.550781 2.78125 -8.007812 2.25 -8.625 C 1.71875 -9.238281 1.453125 -10.066406 1.453125 -11.109375 C 1.453125 -11.960938 1.695312 -12.742188 2.1875 -13.453125 C 2.6875 -14.171875 3.394531 -14.734375 4.3125 -15.140625 C 5.238281 -15.546875 6.328125 -15.75 7.578125 -15.75 C 9.429688 -15.75 10.90625 -15.285156 12 -14.359375 C 13.101562 -13.441406 13.710938 -12.203125 13.828125 -10.640625 L 10.078125 -10.640625 C 10.015625 -11.253906 9.753906 -11.742188 9.296875 -12.109375 C 8.847656 -12.472656 8.238281 -12.65625 7.46875 -12.65625 C 6.757812 -12.65625 6.210938 -12.519531 5.828125 -12.25 C 5.453125 -11.988281 5.265625 -11.628906 5.265625 -11.171875 C 5.265625 -10.640625 5.523438 -10.238281 6.046875 -9.96875 C 6.566406 -9.707031 7.378906 -9.4375 8.484375 -9.15625 C 9.597656 -8.875 10.519531 -8.582031 11.25 -8.28125 C 11.976562 -7.976562 12.609375 -7.515625 13.140625 -6.890625 C 13.671875 -6.265625 13.945312 -5.441406 13.96875 -4.421875 C 13.96875 -3.523438 13.71875 -2.722656 13.21875 -2.015625 C 12.726562 -1.304688 12.019531 -0.75 11.09375 -0.34375 C 10.164062 0.0507812 9.085938 0.25 7.859375 0.25 Z M 7.859375 0.25 "/></g></g></g><g fill="#2b2e34" fill-opacity="1"><g transform="translate(44.847846, 29.683124)"><g><path d="M 6.5 -12.28125 L 6.5 -4.78125 C 6.5 -4.257812 6.625 -3.878906 6.875 -3.640625 C 7.125 -3.410156 7.546875 -3.296875 8.140625 -3.296875 L 9.96875 -3.296875 L 9.96875 0 L 7.5 0 C 4.195312 0 2.546875 -1.601562 2.546875 -4.8125 L 2.546875 -12.28125 L 0.703125 -12.28125 L 0.703125 -15.5 L 2.546875 -15.5 L 2.546875 -19.34375 L 6.5 -19.34375 L 6.5 -15.5 L 9.96875 -15.5 L 9.96875 -12.28125 Z M 6.5 -12.28125 "/></g></g></g></g></g></g><g clip-path="url(#06fe98116d)"><g transform="matrix(1, 0, 0, 1, -0.000000000000007105, 0)"><g clip-path="url(#55065d6c04)"><g fill="#2b2e34" fill-opacity="1"><g transform="translate(0.615286, 23.696)"><g><path d="M 6.578125 -12.4375 L 6.578125 -4.84375 C 6.578125 -4.3125 6.703125 -3.925781 6.953125 -3.6875 C 7.210938 -3.457031 7.644531 -3.34375 8.25 -3.34375 L 10.09375 -3.34375 L 10.09375 0 L 7.59375 0 C 4.25 0 2.578125 -1.625 2.578125 -4.875 L 2.578125 -12.4375 L 0.703125 -12.4375 L 0.703125 -15.703125 L 2.578125 -15.703125 L 2.578125 -19.578125 L 6.578125 -19.578125 L 6.578125 -15.703125 L 10.09375 -15.703125 L 10.09375 -12.4375 Z M 6.578125 -12.4375 "/></g></g></g><g fill="#2b2e34" fill-opacity="1"><g transform="translate(9.346149, 23.696)"><g><path d="M 3.96875 -17.578125 C 3.269531 -17.578125 2.6875 -17.796875 2.21875 -18.234375 C 1.757812 -18.679688 1.53125 -19.234375 1.53125 -19.890625 C 1.53125 -20.554688 1.757812 -21.109375 2.21875 -21.546875 C 2.6875 -21.992188 3.269531 -22.21875 3.96875 -22.21875 C 4.664062 -22.21875 5.242188 -21.992188 5.703125 -21.546875 C 6.171875 -21.109375 6.40625 -20.554688 6.40625 -19.890625 C 6.40625 -19.234375 6.171875 -18.679688 5.703125 -18.234375 C 5.242188 -17.796875 4.664062 -17.578125 3.96875 -17.578125 Z M 5.921875 -15.703125 L 5.921875 0 L 1.953125 0 L 1.953125 -15.703125 Z M 5.921875 -15.703125 "/></g></g></g></g></g></g><g transform="matrix(1, 0, 0, 1, 14, 1)"><g clip-path="url(#a8960449d3)"><g clip-path="url(#4c29a350f3)"><g fill="#2b2e34" fill-opacity="1"><g transform="translate(0.753624, 22.679545)"><g><path d="M 8.515625 0 L 4.921875 -4.9375 L 4.921875 0 L 1.3125 0 L 1.3125 -15.625 L 4.921875 -15.625 L 4.921875 -7 L 8.5 -11.78125 L 12.953125 -11.78125 L 8.046875 -5.875 L 12.984375 0 Z M 8.515625 0 "/></g></g></g></g></g></g></g></g></g></svg>