<svg xmlns="http://www.w3.org/2000/svg" version="1.1" xmlns:xlink="http://www.w3.org/1999/xlink" width="512" height="512" x="0" y="0" viewBox="0 0 24 24" style="enable-background:new 0 0 512 512" xml:space="preserve" class=""><g><path d="m22.543 8.481-7.024-7.024a4.984 4.984 0 0 0-7.037 0L1.457 8.481a4.984 4.984 0 0 0 0 7.037l7.024 7.024c.97.97 2.244 1.454 3.519 1.454s2.549-.484 3.519-1.454l7.024-7.024a4.984 4.984 0 0 0 0-7.037Zm-5.415 4.64-2.421 2.421a.997.997 0 0 1-1.414 0 .999.999 0 0 1 0-1.414L15.421 12H10a1 1 0 0 0-1 1v3a1 1 0 1 1-2 0v-3c0-1.654 1.346-3 3-3h5.421l-2.128-2.128a.999.999 0 1 1 1.414-1.414l2.421 2.421a3.002 3.002 0 0 1 0 4.242Z" fill="#ffffff" opacity="1" data-original="#000000" class=""></path></g></svg>