<svg xmlns="http://www.w3.org/2000/svg" version="1.1" xmlns:xlink="http://www.w3.org/1999/xlink" width="512" height="512" x="0" y="0" viewBox="0 0 24 24" style="enable-background:new 0 0 512 512" xml:space="preserve" class=""><g><path d="M23.938 17.305 21.966 6.131A4.992 4.992 0 0 0 17.042 2H6.958C3.5 2 2.294 4.655 2.034 6.131L.062 17.305a3.995 3.995 0 0 0 .875 3.267 3.991 3.991 0 0 0 3.064 1.429H5a1 1 0 1 0 0-2h-.999a1.995 1.995 0 0 1-1.532-.715 1.995 1.995 0 0 1-.438-1.633L4.003 6.479c.062-.354.185-.684.355-.979l2.339 12.426a5.004 5.004 0 0 0 4.914 4.075h8.387a3.988 3.988 0 0 0 3.064-1.429 3.994 3.994 0 0 0 .875-3.267Zm-2.407 1.98a1.995 1.995 0 0 1-1.532.715h-8.387a3.002 3.002 0 0 1-2.948-2.444L6.133 4.115c.263-.075.54-.114.824-.114h10.085a2.995 2.995 0 0 1 2.954 2.479l1.972 11.174a1.992 1.992 0 0 1-.438 1.633ZM10 9a1 1 0 0 1 0-2h7a1 1 0 0 1 0 2h-7Zm.731 4a1 1 0 0 1 0-2h7a1 1 0 0 1 0 2h-7Zm8.769 3a1 1 0 0 1-1 1h-7a1 1 0 1 1 0-2h7a1 1 0 0 1 1 1Z" fill="#ffffff" opacity="1" data-original="#000000" class=""></path></g></svg>