<svg xmlns="http://www.w3.org/2000/svg" xmlns:xlink="http://www.w3.org/1999/xlink" width="500" zoomAndPan="magnify" viewBox="0 0 375 374.999991" height="500" preserveAspectRatio="xMidYMid meet" version="1.0"><defs><g/></defs><path fill="#3a7d44" d="M 182.644531 166.503906 C 179.613281 159.527344 175.109375 145.941406 179.53125 131.433594 C 186.789062 107.636719 215.269531 90.570312 249.542969 92.78125 C 254.09375 121.816406 242.878906 149.015625 221.746094 161.152344 C 207.511719 169.328125 192.765625 168.375 185.78125 167.402344 C 192.929688 161.980469 200.957031 155.015625 208.980469 146.203125 C 221.367188 132.59375 229.632812 119.09375 235.105469 108.320312 C 227.246094 119.28125 217.800781 131.128906 206.511719 143.230469 C 198.371094 151.960938 190.328125 159.691406 182.644531 166.503906 Z M 182.644531 166.503906 " fill-opacity="1" fill-rule="nonzero"/><path fill="#3a7d44" d="M 173.507812 167.261719 C 168.160156 168.878906 157.863281 171.007812 147.660156 166.542969 C 130.917969 159.222656 120.894531 136.992188 125.429688 112.179688 C 146.996094 111.335938 165.882812 121.832031 172.933594 138.28125 C 177.683594 149.363281 175.734375 160.039062 174.425781 165.050781 C 171.082031 159.375 166.6875 152.925781 160.941406 146.320312 C 152.070312 136.125 142.925781 128.945312 135.53125 124.035156 C 142.859375 130.703125 150.695312 138.605469 158.5625 147.867188 C 164.238281 154.550781 169.191406 161.078125 173.507812 167.261719 Z M 173.507812 167.261719 " fill-opacity="1" fill-rule="nonzero"/><g fill="#3d3d3d" fill-opacity="1"><g transform="translate(50.888629, 213.646656)"><g><path d="M 3.140625 0 L 3.140625 -40.578125 L 12.875 -40.578125 L 12.875 -24.90625 L 29.46875 -24.90625 L 29.46875 -40.578125 L 39.21875 -40.578125 L 39.21875 0 L 29.46875 0 L 29.46875 -17.09375 L 12.875 -17.09375 L 12.875 0 Z M 3.140625 0 "/></g></g></g><g fill="#3d3d3d" fill-opacity="1"><g transform="translate(91.985616, 213.646656)"><g><path d="M 6.84375 -33.171875 C 5.320312 -33.171875 4.082031 -33.625 3.125 -34.53125 C 2.175781 -35.445312 1.703125 -36.648438 1.703125 -38.140625 C 1.703125 -39.648438 2.175781 -40.863281 3.125 -41.78125 C 4.082031 -42.695312 5.320312 -43.15625 6.84375 -43.15625 C 8.394531 -43.15625 9.644531 -42.695312 10.59375 -41.78125 C 11.550781 -40.863281 12.03125 -39.648438 12.03125 -38.140625 C 12.03125 -36.648438 11.550781 -35.445312 10.59375 -34.53125 C 9.644531 -33.625 8.394531 -33.171875 6.84375 -33.171875 Z M 2.515625 0 L 2.515625 -29.1875 L 11.171875 -29.1875 L 11.171875 0 Z M 2.515625 0 "/></g></g></g><g fill="#3d3d3d" fill-opacity="1"><g transform="translate(104.46861, 213.646656)"><g><path d="M 15.109375 13.109375 C 12.109375 13.109375 9.226562 12.613281 6.46875 11.625 C 3.71875 10.632812 1.539062 9.320312 -0.0625 7.6875 L 2.96875 1.203125 C 4.257812 2.609375 5.929688 3.738281 7.984375 4.59375 C 10.035156 5.445312 12.160156 5.875 14.359375 5.875 C 17.359375 5.875 19.75 5.066406 21.53125 3.453125 C 23.320312 1.835938 24.21875 -0.359375 24.21875 -3.140625 L 24.21875 -5.46875 L 24.171875 -5.46875 C 23.179688 -3.832031 21.765625 -2.53125 19.921875 -1.5625 C 18.078125 -0.59375 16.148438 -0.109375 14.140625 -0.109375 C 11.554688 -0.109375 9.300781 -0.722656 7.375 -1.953125 C 5.457031 -3.191406 3.96875 -4.921875 2.90625 -7.140625 C 1.84375 -9.367188 1.3125 -11.984375 1.3125 -14.984375 C 1.3125 -18.023438 1.832031 -20.664062 2.875 -22.90625 C 3.925781 -25.15625 5.390625 -26.894531 7.265625 -28.125 C 9.148438 -29.363281 11.34375 -29.984375 13.84375 -29.984375 C 16.007812 -29.984375 18.039062 -29.398438 19.9375 -28.234375 C 21.84375 -27.078125 23.269531 -25.550781 24.21875 -23.65625 L 24.28125 -23.65625 L 25.59375 -29.1875 L 32.953125 -29.1875 L 32.953125 -2.84375 C 32.953125 0.382812 32.21875 3.191406 30.75 5.578125 C 29.289062 7.972656 27.21875 9.828125 24.53125 11.140625 C 21.851562 12.453125 18.710938 13.109375 15.109375 13.109375 Z M 17.265625 -7.1875 C 19.472656 -7.1875 21.238281 -7.914062 22.5625 -9.375 C 23.894531 -10.84375 24.5625 -12.710938 24.5625 -14.984375 C 24.5625 -17.304688 23.894531 -19.21875 22.5625 -20.71875 C 21.238281 -22.21875 19.472656 -22.96875 17.265625 -22.96875 C 15.097656 -22.96875 13.335938 -22.234375 11.984375 -20.765625 C 10.640625 -19.304688 9.96875 -17.378906 9.96875 -14.984375 C 9.96875 -12.671875 10.640625 -10.789062 11.984375 -9.34375 C 13.335938 -7.90625 15.097656 -7.1875 17.265625 -7.1875 Z M 17.265625 -7.1875 "/></g></g></g><g fill="#3d3d3d" fill-opacity="1"><g transform="translate(138.440594, 213.646656)"><g><path d="M 2.28125 0 L 2.28125 -42.296875 L 11 -42.296875 L 11 -23.890625 L 11.0625 -23.890625 C 12.125 -25.859375 13.523438 -27.375 15.265625 -28.4375 C 17.015625 -29.5 19.050781 -30.03125 21.375 -30.03125 C 24.375 -30.03125 26.726562 -29.15625 28.4375 -27.40625 C 30.15625 -25.664062 31.015625 -23.238281 31.015625 -20.125 L 31.015625 0 L 22.28125 0 L 22.28125 -17.4375 C 22.28125 -19.113281 21.84375 -20.425781 20.96875 -21.375 C 20.101562 -22.320312 18.910156 -22.796875 17.390625 -22.796875 C 15.523438 -22.796875 13.992188 -22.1875 12.796875 -20.96875 C 11.597656 -19.757812 11 -18.144531 11 -16.125 L 11 0 Z M 2.28125 0 "/></g></g></g><g fill="#3d3d3d" fill-opacity="1"><g transform="translate(170.303588, 213.646656)"><g><path d="M 13.796875 13.109375 C 10.710938 13.109375 7.878906 12.625 5.296875 11.65625 C 2.710938 10.6875 0.703125 9.382812 -0.734375 7.75 L 2.453125 1.421875 C 3.671875 2.753906 5.21875 3.828125 7.09375 4.640625 C 8.976562 5.460938 10.960938 5.875 13.046875 5.875 C 15.859375 5.875 18.09375 5.140625 19.75 3.671875 C 21.40625 2.210938 22.234375 0.226562 22.234375 -2.28125 L 22.234375 -4.78125 L 22.171875 -4.78125 C 21.265625 -2.925781 19.972656 -1.472656 18.296875 -0.421875 C 16.617188 0.617188 14.773438 1.140625 12.765625 1.140625 C 9.535156 1.140625 6.96875 0.0859375 5.0625 -2.015625 C 3.164062 -4.128906 2.21875 -6.914062 2.21875 -10.375 L 2.21875 -29.1875 L 10.890625 -29.1875 L 10.890625 -11.90625 C 10.890625 -10.164062 11.34375 -8.734375 12.25 -7.609375 C 13.164062 -6.484375 14.441406 -5.921875 16.078125 -5.921875 C 17.785156 -5.921875 19.226562 -6.519531 20.40625 -7.71875 C 21.582031 -8.914062 22.171875 -10.46875 22.171875 -12.375 L 22.171875 -29.1875 L 30.890625 -29.1875 L 30.890625 -2 C 30.890625 1.082031 30.175781 3.753906 28.75 6.015625 C 27.332031 8.273438 25.347656 10.019531 22.796875 11.25 C 20.253906 12.488281 17.253906 13.109375 13.796875 13.109375 Z M 13.796875 13.109375 "/></g></g></g><g fill="#3d3d3d" fill-opacity="1"><g transform="translate(202.223572, 213.646656)"><g><path d="M 6.84375 -33.171875 C 5.320312 -33.171875 4.082031 -33.625 3.125 -34.53125 C 2.175781 -35.445312 1.703125 -36.648438 1.703125 -38.140625 C 1.703125 -39.648438 2.175781 -40.863281 3.125 -41.78125 C 4.082031 -42.695312 5.320312 -43.15625 6.84375 -43.15625 C 8.394531 -43.15625 9.644531 -42.695312 10.59375 -41.78125 C 11.550781 -40.863281 12.03125 -39.648438 12.03125 -38.140625 C 12.03125 -36.648438 11.550781 -35.445312 10.59375 -34.53125 C 9.644531 -33.625 8.394531 -33.171875 6.84375 -33.171875 Z M 2.515625 0 L 2.515625 -29.1875 L 11.171875 -29.1875 L 11.171875 0 Z M 2.515625 0 "/></g></g></g><g fill="#3d3d3d" fill-opacity="1"><g transform="translate(214.706569, 213.646656)"><g><path d="M 18.75 1.140625 C 15.332031 1.140625 12.3125 0.46875 9.6875 -0.875 C 7.0625 -2.226562 5.007812 -4.101562 3.53125 -6.5 C 2.050781 -8.894531 1.3125 -11.648438 1.3125 -14.765625 C 1.3125 -17.835938 1.96875 -20.539062 3.28125 -22.875 C 4.59375 -25.21875 6.4375 -27.046875 8.8125 -28.359375 C 11.1875 -29.671875 13.929688 -30.328125 17.046875 -30.328125 C 20.085938 -30.328125 22.738281 -29.695312 25 -28.4375 C 27.257812 -27.1875 29.023438 -25.445312 30.296875 -23.21875 C 31.566406 -21 32.203125 -18.425781 32.203125 -15.5 C 32.203125 -14.9375 32.164062 -14.359375 32.09375 -13.765625 C 32.019531 -13.171875 31.925781 -12.648438 31.8125 -12.203125 L 10.265625 -12.203125 C 10.523438 -10.109375 11.460938 -8.425781 13.078125 -7.15625 C 14.691406 -5.882812 16.695312 -5.25 19.09375 -5.25 C 20.914062 -5.25 22.625 -5.617188 24.21875 -6.359375 C 25.820312 -7.097656 27.039062 -8.054688 27.875 -9.234375 L 32.828125 -5.421875 C 31.648438 -3.484375 29.796875 -1.90625 27.265625 -0.6875 C 24.742188 0.53125 21.90625 1.140625 18.75 1.140625 Z M 10.203125 -17.21875 L 23.375 -17.21875 C 23.21875 -19.382812 22.566406 -21.070312 21.421875 -22.28125 C 20.285156 -23.5 18.828125 -24.109375 17.046875 -24.109375 C 15.222656 -24.109375 13.691406 -23.472656 12.453125 -22.203125 C 11.222656 -20.929688 10.472656 -19.269531 10.203125 -17.21875 Z M 10.203125 -17.21875 "/></g></g></g><g fill="#3d3d3d" fill-opacity="1"><g transform="translate(247.367559, 213.646656)"><g><path d="M 2.28125 0 L 2.28125 -42.296875 L 11 -42.296875 L 11 0 Z M 2.28125 0 "/></g></g></g><g fill="#3d3d3d" fill-opacity="1"><g transform="translate(259.394543, 213.646656)"><g><path d="M 14.3125 0.859375 C 11.757812 0.859375 9.503906 0.210938 7.546875 -1.078125 C 5.585938 -2.367188 4.054688 -4.171875 2.953125 -6.484375 C 1.859375 -8.804688 1.3125 -11.507812 1.3125 -14.59375 C 1.3125 -17.707031 1.859375 -20.410156 2.953125 -22.703125 C 4.054688 -25.003906 5.585938 -26.800781 7.546875 -28.09375 C 9.503906 -29.382812 11.757812 -30.03125 14.3125 -30.03125 C 18.945312 -30.03125 22.304688 -27.882812 24.390625 -23.59375 L 24.453125 -23.59375 L 24.453125 -42.296875 L 33.171875 -42.296875 L 33.171875 0 L 25.875 0 L 24.5625 -5.59375 L 24.515625 -5.59375 C 23.484375 -3.5 22.09375 -1.898438 20.34375 -0.796875 C 18.601562 0.304688 16.59375 0.859375 14.3125 0.859375 Z M 17.390625 -6.5 C 18.828125 -6.5 20.101562 -6.859375 21.21875 -7.578125 C 22.34375 -8.296875 23.21875 -9.265625 23.84375 -10.484375 C 24.476562 -11.703125 24.796875 -13.070312 24.796875 -14.59375 C 24.796875 -16.90625 24.101562 -18.832031 22.71875 -20.375 C 21.332031 -21.914062 19.554688 -22.6875 17.390625 -22.6875 C 15.253906 -22.6875 13.484375 -21.914062 12.078125 -20.375 C 10.671875 -18.832031 9.96875 -16.90625 9.96875 -14.59375 C 9.96875 -12.269531 10.671875 -10.335938 12.078125 -8.796875 C 13.484375 -7.265625 15.253906 -6.5 17.390625 -6.5 Z M 17.390625 -6.5 "/></g></g></g><g fill="#3d3d3d" fill-opacity="1"><g transform="translate(293.594523, 213.646656)"><g><path d="M 15.328125 1.03125 C 12.710938 1.03125 10.347656 0.640625 8.234375 -0.140625 C 6.128906 -0.921875 4.4375 -2.0625 3.15625 -3.5625 C 1.882812 -5.0625 1.175781 -6.894531 1.03125 -9.0625 L 8.609375 -9.921875 C 8.753906 -8.359375 9.5 -7.109375 10.84375 -6.171875 C 12.195312 -5.242188 13.863281 -4.78125 15.84375 -4.78125 C 17.476562 -4.78125 18.863281 -5.101562 20 -5.75 C 21.144531 -6.394531 21.71875 -7.210938 21.71875 -8.203125 C 21.71875 -9.078125 21.25 -9.789062 20.3125 -10.34375 C 19.382812 -10.894531 17.894531 -11.34375 15.84375 -11.6875 L 11.515625 -12.375 C 8.285156 -12.90625 5.945312 -13.816406 4.5 -15.109375 C 3.0625 -16.398438 2.34375 -18.242188 2.34375 -20.640625 C 2.34375 -23.597656 3.5 -25.929688 5.8125 -27.640625 C 8.132812 -29.347656 11.15625 -30.203125 14.875 -30.203125 C 17.195312 -30.203125 19.28125 -29.84375 21.125 -29.125 C 22.96875 -28.40625 24.46875 -27.398438 25.625 -26.109375 C 26.78125 -24.816406 27.472656 -23.316406 27.703125 -21.609375 L 20.296875 -20.515625 C 20.179688 -21.773438 19.585938 -22.773438 18.515625 -23.515625 C 17.453125 -24.253906 16.144531 -24.625 14.59375 -24.625 C 13.226562 -24.625 12.085938 -24.3125 11.171875 -23.6875 C 10.253906 -23.0625 9.78125 -22.3125 9.75 -21.4375 C 9.75 -20.707031 10.132812 -20.09375 10.90625 -19.59375 C 11.6875 -19.101562 12.953125 -18.707031 14.703125 -18.40625 L 19.03125 -17.671875 C 22.71875 -17.023438 25.390625 -16.007812 27.046875 -14.625 C 28.703125 -13.238281 29.53125 -11.328125 29.53125 -8.890625 C 29.53125 -6.878906 28.929688 -5.128906 27.734375 -3.640625 C 26.535156 -2.160156 24.867188 -1.007812 22.734375 -0.1875 C 20.609375 0.625 18.140625 1.03125 15.328125 1.03125 Z M 15.328125 1.03125 "/></g></g></g><g fill="#3d3d3d" fill-opacity="1"><g transform="translate(246.771184, 229.346937)"><g><path d="M 0.0625 0 L 3.03125 -8.1875 L 5.421875 -8.1875 L 8.390625 0 L 6.328125 0 L 5.796875 -1.609375 L 2.640625 -1.609375 L 2.109375 0 Z M 3 -3 L 5.4375 -3 L 4.234375 -6.640625 L 4.203125 -6.640625 Z M 3 -3 "/></g></g></g><g fill="#3d3d3d" fill-opacity="1"><g transform="translate(258.315058, 229.346937)"><g><path d="M 4.375 0.265625 C 3.59375 0.265625 2.894531 0.0820312 2.28125 -0.28125 C 1.675781 -0.65625 1.203125 -1.171875 0.859375 -1.828125 C 0.515625 -2.484375 0.34375 -3.238281 0.34375 -4.09375 C 0.34375 -4.957031 0.523438 -5.71875 0.890625 -6.375 C 1.253906 -7.039062 1.757812 -7.554688 2.40625 -7.921875 C 3.050781 -8.285156 3.800781 -8.46875 4.65625 -8.46875 C 5.257812 -8.46875 5.8125 -8.351562 6.3125 -8.125 C 6.820312 -7.90625 7.253906 -7.59375 7.609375 -7.1875 C 7.972656 -6.789062 8.222656 -6.328125 8.359375 -5.796875 L 6.5625 -5.421875 C 6.425781 -5.828125 6.179688 -6.15625 5.828125 -6.40625 C 5.472656 -6.664062 5.078125 -6.796875 4.640625 -6.796875 C 4.179688 -6.796875 3.773438 -6.679688 3.421875 -6.453125 C 3.066406 -6.222656 2.789062 -5.90625 2.59375 -5.5 C 2.40625 -5.101562 2.3125 -4.632812 2.3125 -4.09375 C 2.3125 -3.550781 2.421875 -3.070312 2.640625 -2.65625 C 2.867188 -2.25 3.175781 -1.925781 3.5625 -1.6875 C 3.957031 -1.457031 4.40625 -1.34375 4.90625 -1.34375 C 5.34375 -1.34375 5.734375 -1.429688 6.078125 -1.609375 C 6.421875 -1.796875 6.695312 -2.046875 6.90625 -2.359375 C 7.125 -2.671875 7.238281 -3.023438 7.25 -3.421875 L 3.734375 -3.421875 L 3.734375 -4.640625 L 9.171875 -4.640625 L 9.171875 0 L 7.734375 0 L 7.546875 -1.546875 L 7.53125 -1.546875 C 7.269531 -0.984375 6.859375 -0.539062 6.296875 -0.21875 C 5.742188 0.101562 5.101562 0.265625 4.375 0.265625 Z M 4.375 0.265625 "/></g></g></g><g fill="#3d3d3d" fill-opacity="1"><g transform="translate(271.05453, 229.346937)"><g><path d="M 6.75 0.203125 C 6.34375 0.203125 6.003906 0.09375 5.734375 -0.125 C 5.460938 -0.351562 5.269531 -0.660156 5.15625 -1.046875 L 4.796875 -2.25 C 4.722656 -2.488281 4.601562 -2.6875 4.4375 -2.84375 C 4.28125 -3.007812 4.085938 -3.09375 3.859375 -3.09375 L 2.59375 -3.09375 L 2.59375 0 L 0.625 0 L 0.625 -8.1875 L 4.703125 -8.1875 C 5.671875 -8.1875 6.4375 -7.957031 7 -7.5 C 7.570312 -7.050781 7.859375 -6.4375 7.859375 -5.65625 C 7.859375 -5.125 7.6875 -4.660156 7.34375 -4.265625 C 7 -3.867188 6.519531 -3.59375 5.90625 -3.4375 L 5.90625 -3.421875 C 6.125 -3.335938 6.289062 -3.210938 6.40625 -3.046875 C 6.53125 -2.890625 6.628906 -2.695312 6.703125 -2.46875 L 6.96875 -1.5 C 7.007812 -1.375 7.066406 -1.269531 7.140625 -1.1875 C 7.210938 -1.101562 7.304688 -1.0625 7.421875 -1.0625 C 7.535156 -1.0625 7.640625 -1.085938 7.734375 -1.140625 C 7.835938 -1.203125 7.925781 -1.285156 8 -1.390625 L 8.421875 -0.453125 C 8.222656 -0.253906 7.976562 -0.0976562 7.6875 0.015625 C 7.394531 0.140625 7.082031 0.203125 6.75 0.203125 Z M 2.59375 -4.4375 L 4.453125 -4.4375 C 4.890625 -4.4375 5.238281 -4.539062 5.5 -4.75 C 5.757812 -4.957031 5.890625 -5.238281 5.890625 -5.59375 C 5.890625 -5.9375 5.757812 -6.210938 5.5 -6.421875 C 5.238281 -6.628906 4.890625 -6.734375 4.453125 -6.734375 L 2.59375 -6.734375 Z M 2.59375 -4.4375 "/></g></g></g><g fill="#3d3d3d" fill-opacity="1"><g transform="translate(282.632897, 229.346937)"><g><path d="M 4.875 0.28125 C 3.957031 0.28125 3.160156 0.0976562 2.484375 -0.265625 C 1.804688 -0.628906 1.28125 -1.132812 0.90625 -1.78125 C 0.53125 -2.4375 0.34375 -3.207031 0.34375 -4.09375 C 0.34375 -4.976562 0.53125 -5.75 0.90625 -6.40625 C 1.28125 -7.0625 1.804688 -7.566406 2.484375 -7.921875 C 3.160156 -8.285156 3.957031 -8.46875 4.875 -8.46875 C 5.789062 -8.46875 6.585938 -8.285156 7.265625 -7.921875 C 7.953125 -7.566406 8.484375 -7.0625 8.859375 -6.40625 C 9.234375 -5.75 9.421875 -4.976562 9.421875 -4.09375 C 9.421875 -3.207031 9.234375 -2.4375 8.859375 -1.78125 C 8.484375 -1.132812 7.953125 -0.628906 7.265625 -0.265625 C 6.585938 0.0976562 5.789062 0.28125 4.875 0.28125 Z M 4.875 -1.40625 C 5.394531 -1.40625 5.847656 -1.515625 6.234375 -1.734375 C 6.617188 -1.953125 6.914062 -2.265625 7.125 -2.671875 C 7.34375 -3.078125 7.453125 -3.550781 7.453125 -4.09375 C 7.453125 -4.632812 7.34375 -5.109375 7.125 -5.515625 C 6.914062 -5.921875 6.617188 -6.234375 6.234375 -6.453125 C 5.847656 -6.679688 5.394531 -6.796875 4.875 -6.796875 C 4.363281 -6.796875 3.910156 -6.679688 3.515625 -6.453125 C 3.128906 -6.234375 2.832031 -5.921875 2.625 -5.515625 C 2.414062 -5.109375 2.3125 -4.632812 2.3125 -4.09375 C 2.3125 -3.550781 2.414062 -3.078125 2.625 -2.671875 C 2.832031 -2.265625 3.128906 -1.953125 3.515625 -1.734375 C 3.910156 -1.515625 4.363281 -1.40625 4.875 -1.40625 Z M 4.875 -1.40625 "/></g></g></g></svg>