<?xml version="1.0" encoding="UTF-8"?>
<svg id="_图层_2" data-name="图层 2" xmlns="http://www.w3.org/2000/svg" viewBox="0 0 292.36 61.07">
  <defs>
    <style>
      .cls-1 {
        fill: #fff;
      }
    </style>
  </defs>
  <g id="_图层_2-2" data-name="图层 2">
    <g>
      <path class="cls-1" d="M111.17,29.4c0-5.94.05-10.75-.02-16.69,0-.58-.9-2.21-1.49-2.61-.07-.05-.02-.14.01-.17.11-.12.53-.16,1.05-.15.78.01,1.81.02,2.21.02,1.61-.02,3.03.03,4.63,0,1.3-.02,1.7.49,1.69,1.75-.06,6.88-.08,13.75-.07,20.63,0,.64-.39,1.59.45,1.85.73.23,1.01-.7,1.4-1.18,2.51-3.17,12.69-17.15,15.34-19.25.26-.21.88-.12.99-.07.74.31.1.04,3.71,1.51.32.11.77.47.94.75.18.31.06.54-.07.71-2.21,2.84-9.88,14.17-12.12,16.98-.75.94-.72,1.63-.02,2.59,2.72,3.69,5.33,7.45,8.03,11.16.74,1.02.87,1.65-.51,2.16-1.4.51-2.75,1.17-4.11,1.78-1.01.46-1.58-.15-2.11-.85-3.19-4.27-6.6-8.37-10.03-12.45-.21-.25-.41-.51-.62-.76-.21-.27-.48-.48-.83-.41-.51.11-.43.56-.43.91,0,2.48,0,4.96.02,7.44q.02,4.03-3.96,4.03t-4.07-4.08c0-5.19,0-10.39,0-15.58h-.01Z"/>
      <path class="cls-1" d="M292.34,35.33c0,4.02-.04,8.05.02,12.07.02,1.21-.36,1.71-1.59,1.66-1.68-.06-3.37-.04-5.05,0-.89.01-1.42-.26-1.46-1.25-.03-.94-.49-1.04-1.31-.66-2.92,1.35-5.82,2.76-9.18,2.69-4.72-.1-7.85-3.06-7.92-7.8-.09-6.32-.02-12.63-.06-18.95,0-1,.33-1.46,1.38-1.42,1.63.05,3.27,0,4.91,0,1.78,0,1.83.05,1.83,1.8,0,4.73,0,9.45,0,14.18,0,1.08.11,2.14.43,3.18.51,1.69,1.56,2.46,3.35,2.32,2.04-.17,3.89-.91,5.67-1.89.79-.43.71-1.15.71-1.84,0-5.19-.02-10.39-.04-15.58,0-2.15,0-2.16,2.2-2.17,1.31,0,2.62,0,3.93,0q2.2.01,2.19,2.16c0,3.84,0,7.67,0,11.51,0,0,0,0,.01,0Z"/>
      <path class="cls-1" d="M226.94,38.84c0,3.57-.03,6.14.01,8.72.02,1.03-.27,1.52-1.4,1.58-4.53.22-9.05.51-13.58-.05-2.16-.27-4.25-.74-6.14-1.81-2.66-1.51-4.31-3.69-4.03-6.95.28-3.14,2.3-4.88,4.92-6.11,3.28-1.54,6.85-1.76,10.36-2.26,1.63-.23,1.96-.78,1.08-2.19-.68-1.1-1.79-1.58-3-1.89-2.67-.68-5.37-.65-8.08-.48-2.07.13-2.26,0-1.92-2.04.72-4.28-.29-3.88,4.42-4.04,3.27-.11,6.52.07,9.71,1.04,4.03,1.23,7.08,4.81,7.5,9.06.28,2.8.12,5.61.15,7.42ZM219.14,40.12c0-1.12,0-2.24,0-3.36,0-.75-.32-1.12-1.1-1.07-2.16.13-4.24.56-6.14,1.66-1.22.71-1.95,1.77-1.86,3.2.1,1.47.94,2.45,2.27,3.1,1.62.78,3.33.75,5.05.85,1.29.08,1.93-.33,1.79-1.73-.09-.88-.02-1.77-.02-2.66Z"/>
      <path class="cls-1" d="M166.5,39.27c0,3.34-.02,5.87.01,8.39.01.99-.37,1.41-1.39,1.47-4.67.28-9.33.52-13.99-.12-2.33-.32-4.56-.98-6.51-2.37-4.31-3.1-4.07-8.94.48-11.68,2.2-1.32,4.62-1.99,7.13-2.36,1.66-.25,3.33-.45,4.99-.69,1.18-.17,1.44-.66.94-1.73-.64-1.34-1.82-1.94-3.19-2.28-2.57-.65-5.17-.7-7.8-.52-2.4.17-2.45.09-2.16-2.34.05-.42.1-.84.15-1.25.24-2.17.31-2.31,2.42-2.4,3.83-.16,7.69-.29,11.37,1.02,4.35,1.54,6.93,4.59,7.4,9.28.28,2.8.09,5.61.15,7.59ZM158.97,40.05h0c0-1.07,0-2.15,0-3.22,0-.76-.37-1.15-1.11-1.12-2.31.11-4.57.51-6.5,1.87-2.28,1.6-1.99,4.66.49,5.96,1.9.99,3.96.98,6.02.91.71-.02,1.1-.43,1.1-1.18,0-1.07,0-2.15,0-3.22Z"/>
      <path class="cls-1" d="M103.21,35.41c0,3.97-.04,7.95.03,11.92.02,1.28-.42,1.78-1.68,1.74-1.68-.05-3.36-.03-5.04,0-1.08.02-1.62-.34-1.61-1.54.03-8.08.03-16.17,0-24.25,0-1.13.41-1.64,1.55-1.61,1.73.04,3.46.05,5.18,0,1.23-.03,1.6.5,1.59,1.69-.05,4.02-.02,8.04-.02,12.06Z"/>
      <path class="cls-1" d="M78.89,35.32c0-3.98.04-7.96-.02-11.94-.02-1.24.32-1.82,1.66-1.74,1.63.09,3.27.05,4.91.02,1.03-.02,1.53.34,1.52,1.46-.03,8.19-.03,16.38,0,24.58,0,.98-.4,1.35-1.32,1.35-1.68-.01-3.37-.06-5.05.03-1.26.06-1.74-.37-1.72-1.68.07-4.02.02-8.05.03-12.08Z"/>
      <path class="cls-1" d="M99.03,17.38c-5.05.03-4.16.3-4.24-4.28-.03-1.73.18-1.94,1.92-1.96,1.68-.02,3.37,0,5.05,0,1.1,0,1.63.46,1.57,1.62-.06,1.07-.03,2.15,0,3.23.02.94-.45,1.39-1.35,1.4-.98.02-1.96,0-2.95,0Z"/>
      <path class="cls-1" d="M82.78,17.37c-4.73.04-4.09.32-4.11-4.11,0-1.92.19-2.12,2.05-2.13,1.59,0,3.18.01,4.76,0,1.09,0,1.65.44,1.6,1.6-.05,1.07-.04,2.15-.01,3.22.02.94-.45,1.39-1.35,1.41-.98.02-1.96,0-2.94,0Z"/>
      <path class="cls-1" d="M172.17,29.4c0-5.94.05-10.75-.02-16.69,0-.58-.9-2.21-1.49-2.61-.07-.05-.02-.14.01-.17.11-.12.53-.16,1.05-.15.78.01,1.81.02,2.21.02,1.61-.02,3.03.03,4.63,0,1.3-.02,1.7.49,1.69,1.75-.06,6.88-.08,13.75-.07,20.63,0,.64-.39,1.59.45,1.85.73.23,1.01-.7,1.4-1.18,2.51-3.17,12.69-17.15,15.34-19.25.26-.21.88-.12.99-.07.74.31.1.04,3.71,1.51.32.11.77.47.94.75.18.31.06.54-.07.71-2.21,2.84-9.88,14.17-12.12,16.98-.75.94-.72,1.63-.02,2.59,2.72,3.69,5.33,7.45,8.03,11.16.74,1.02.87,1.65-.51,2.16-1.4.51-2.75,1.17-4.11,1.78-1.01.46-1.58-.15-2.11-.85-3.19-4.27-6.6-8.37-10.03-12.45-.21-.25-.41-.51-.62-.76-.21-.27-.48-.48-.83-.41-.51.11-.43.56-.43.91,0,2.48,0,4.96.02,7.44q.02,4.03-3.96,4.03t-4.07-4.08c0-5.19,0-10.39,0-15.58h-.01Z"/>
      <path class="cls-1" d="M234.12,29.4c0-5.94.05-10.75-.02-16.69,0-.58-.9-2.21-1.49-2.61-.07-.05-.02-.14.01-.17.11-.12.53-.16,1.05-.15.78.01,1.81.02,2.21.02,1.61-.02,3.03.03,4.63,0,1.3-.02,1.7.49,1.69,1.75-.06,6.88-.08,13.75-.07,20.63,0,.64-.39,1.59.45,1.85.73.23,1.01-.7,1.4-1.18,2.51-3.17,12.69-17.15,15.34-19.25.26-.21.88-.12.99-.07.74.31.1.04,3.71,1.51.32.11.77.47.94.75.18.31.06.54-.07.71-2.21,2.84-9.88,14.17-12.12,16.98-.75.94-.72,1.63-.02,2.59,2.72,3.69,5.33,7.45,8.03,11.16.74,1.02.87,1.65-.51,2.16-1.4.51-2.75,1.17-4.11,1.78-1.01.46-1.58-.15-2.11-.85-3.19-4.27-6.6-8.37-10.03-12.45-.21-.25-.41-.51-.62-.76-.21-.27-.48-.48-.83-.41-.51.11-.43.56-.43.91,0,2.48,0,4.96.02,7.44q.02,4.03-3.96,4.03t-4.07-4.08c0-5.19,0-10.39,0-15.58h-.01Z"/>
    </g>
  </g>
  <g id="_图层_3" data-name="图层 3">
    <g>
      <path class="cls-1" d="M38.78,14.82c0-.63-.54-1.14-1.21-1.14h-4.09c-.67,0-1.21.51-1.21,1.14v5.01c0,.63.54,1.14,1.21,1.14h4.09c.67,0,1.21-.51,1.21-1.14v-5.01Z"/>
      <path class="cls-1" d="M32.27,45.7c0,.6.52,1.09,1.17,1.09h4.18c.64,0,1.17-.49,1.17-1.09v-20.22c0-.6-.52-1.09-1.17-1.09h-4.18c-.64,0-1.17.49-1.17,1.09v20.22Z"/>
      <path class="cls-1" d="M46.79,24.39h-3.28c-.64,0-1.17.49-1.17,1.09v20.22c0,.6.52,1.09,1.17,1.09h3.28c.82,0,1.48-.63,1.48-1.39v-19.62c0-.77-.67-1.39-1.48-1.39Z"/>
      <path class="cls-1" d="M12.26,29.79c0-.3-.25-.41-.33-.44-.18-.06-.43-.06-.6.16-.06.07-.11.13-.16.18-.94.85-1.77.79-2.31.58-.03,0-.05-.02-.07-.04-.49-.31-.78-.68-.87-1.11-.08-.42.03-.86.35-1.31,2.48-4.56,4.23-9.16,5.21-13.74L2.11,25.43c-2.81,2.81-2.81,7.4,0,10.21l10.16,10.16v-16Z"/>
      <path class="cls-1" d="M58.97,25.43l-11.75-11.75h-3.67c-.67,0-1.21.51-1.21,1.14v5.01c0,.63.54,1.14,1.21,1.14h4.75c.88,0,1.69.35,2.42,1.04.73.7,1.1,1.48,1.1,2.34v18.45l7.15-7.15c2.81-2.81,2.81-7.4,0-10.21Z"/>
      <path class="cls-1" d="M23.33,50.22c-.88,0-1.7-.35-2.42-1.04-.73-.69-1.1-1.48-1.1-2.33v-22.51c0-.85.37-1.64,1.1-2.33.72-.69,1.54-1.04,2.42-1.04h4.17c.67,0,1.21-.51,1.21-1.14v-5.01c0-.63-.54-1.14-1.21-1.14h-6.5c-1.71,0-1.97-1.07-1.97-1.71s.26-1.71,1.97-1.71h22.79l-8.15-8.15c-2.81-2.81-7.4-2.81-10.21,0l-7.31,7.31c.08.21.14.45.19.73.02.1.02.21,0,.32-.27,2.79-1.1,5.97-2.47,9.45-.02.05-.03.1-.03.16v29.28l9.62,9.62c2.81,2.81,7.4,2.81,10.21,0l8.74-8.74h-21.06Z"/>
      <path class="cls-1" d="M27.55,24.39h-2.7c-.82,0-1.48.63-1.48,1.39v19.62c0,.77.67,1.39,1.48,1.39h2.7c.64,0,1.17-.49,1.17-1.09v-20.22c0-.6-.52-1.09-1.17-1.09Z"/>
    </g>
  </g>
</svg>