<svg xmlns="http://www.w3.org/2000/svg" xmlns:xlink="http://www.w3.org/1999/xlink" width="1024" zoomAndPan="magnify" viewBox="0 0 768 767.999994" height="1024" preserveAspectRatio="xMidYMid meet" version="1.0"><defs><clipPath id="466bb9932e"><path d="M 60.511719 60.511719 L 707.488281 60.511719 L 707.488281 707.488281 L 60.511719 707.488281 Z M 60.511719 60.511719 " clip-rule="nonzero"/></clipPath><clipPath id="aec9cb0717"><path d="M 384 60.511719 C 205.339844 60.511719 60.511719 205.339844 60.511719 384 C 60.511719 562.660156 205.339844 707.488281 384 707.488281 C 562.660156 707.488281 707.488281 562.660156 707.488281 384 C 707.488281 205.339844 562.660156 60.511719 384 60.511719 Z M 384 60.511719 " clip-rule="nonzero"/></clipPath><clipPath id="5177b845e0"><path d="M 196 457 L 505 457 L 505 613 L 196 613 Z M 196 457 " clip-rule="nonzero"/></clipPath><clipPath id="66e1bb6175"><path d="M 179.363281 340.039062 L 485.214844 306.890625 L 518.535156 614.324219 L 212.683594 647.476562 Z M 179.363281 340.039062 " clip-rule="nonzero"/></clipPath><clipPath id="11cdbb2960"><path d="M 485.363281 306.875 L 179.511719 340.023438 L 212.832031 647.460938 L 518.683594 614.308594 Z M 485.363281 306.875 " clip-rule="nonzero"/></clipPath><clipPath id="d53322f43f"><path d="M 412 342 L 463 342 L 463 426 L 412 426 Z M 412 342 " clip-rule="nonzero"/></clipPath><clipPath id="9dcf2ab6e3"><path d="M 179.363281 340.039062 L 485.214844 306.890625 L 518.535156 614.324219 L 212.683594 647.476562 Z M 179.363281 340.039062 " clip-rule="nonzero"/></clipPath><clipPath id="bc0b787a2d"><path d="M 485.363281 306.875 L 179.511719 340.023438 L 212.832031 647.460938 L 518.683594 614.308594 Z M 485.363281 306.875 " clip-rule="nonzero"/></clipPath><clipPath id="77e0cdc40c"><path d="M 236 332 L 306 332 L 306 390 L 236 390 Z M 236 332 " clip-rule="nonzero"/></clipPath><clipPath id="e69feb9b5c"><path d="M 179.363281 340.039062 L 485.214844 306.890625 L 518.535156 614.324219 L 212.683594 647.476562 Z M 179.363281 340.039062 " clip-rule="nonzero"/></clipPath><clipPath id="554f48c8fa"><path d="M 485.363281 306.875 L 179.511719 340.023438 L 212.832031 647.460938 L 518.683594 614.308594 Z M 485.363281 306.875 " clip-rule="nonzero"/></clipPath><clipPath id="2efa499f39"><path d="M 290 609 L 375 609 L 375 631 L 290 631 Z M 290 609 " clip-rule="nonzero"/></clipPath><clipPath id="89321c5ecc"><path d="M 179.363281 340.039062 L 485.214844 306.890625 L 518.535156 614.324219 L 212.683594 647.476562 Z M 179.363281 340.039062 " clip-rule="nonzero"/></clipPath><clipPath id="3d9f9fbecf"><path d="M 485.363281 306.875 L 179.511719 340.023438 L 212.832031 647.460938 L 518.683594 614.308594 Z M 485.363281 306.875 " clip-rule="nonzero"/></clipPath><clipPath id="1207526ce2"><path d="M 266 463 L 426 463 L 426 541 L 266 541 Z M 266 463 " clip-rule="nonzero"/></clipPath><clipPath id="777da19eb7"><path d="M 266.574219 460.476562 L 427.5 465.148438 L 425.144531 546.410156 L 264.214844 541.738281 Z M 266.574219 460.476562 " clip-rule="nonzero"/></clipPath><clipPath id="f0dbedf0b4"><path d="M 266.574219 460.476562 L 427.5 465.148438 L 425.144531 546.410156 L 264.214844 541.738281 Z M 266.574219 460.476562 " clip-rule="nonzero"/></clipPath><clipPath id="9632d2b748"><path d="M 391.246094 341.617188 L 471.738281 341.617188 L 471.738281 432.914062 L 391.246094 432.914062 Z M 391.246094 341.617188 " clip-rule="nonzero"/></clipPath><clipPath id="fb02707836"><path d="M 457.117188 324.308594 L 502.785156 324.308594 L 502.785156 348.171875 L 457.117188 348.171875 Z M 457.117188 324.308594 " clip-rule="nonzero"/></clipPath><clipPath id="2f7acfdce6"><path d="M 445 302.632812 L 460 302.632812 L 460 341 L 445 341 Z M 445 302.632812 " clip-rule="nonzero"/></clipPath><clipPath id="6a679c019e"><path d="M 186 132 L 603 132 L 603 324 L 186 324 Z M 186 132 " clip-rule="nonzero"/></clipPath><clipPath id="1fc92cba9a"><path d="M 159.492188 190.421875 L 556.035156 87.589844 L 608.851562 291.261719 L 212.308594 394.089844 Z M 159.492188 190.421875 " clip-rule="nonzero"/></clipPath><clipPath id="86d2ae1b9b"><path d="M 159.492188 190.421875 L 556.035156 87.589844 L 608.851562 291.261719 L 212.308594 394.089844 Z M 159.492188 190.421875 " clip-rule="nonzero"/></clipPath><clipPath id="bca0feb658"><path d="M 160.003906 190.285156 L 554.988281 87.859375 L 608 292.277344 L 213.015625 394.703125 Z M 160.003906 190.285156 " clip-rule="nonzero"/></clipPath><clipPath id="eb72daa05e"><path d="M 194 272 L 561 272 L 561 314 L 194 314 Z M 194 272 " clip-rule="nonzero"/></clipPath><clipPath id="c108e9322f"><path d="M 159.492188 190.421875 L 556.035156 87.589844 L 608.851562 291.261719 L 212.308594 394.089844 Z M 159.492188 190.421875 " clip-rule="nonzero"/></clipPath><clipPath id="909f12b299"><path d="M 159.492188 190.421875 L 556.035156 87.589844 L 608.851562 291.261719 L 212.308594 394.089844 Z M 159.492188 190.421875 " clip-rule="nonzero"/></clipPath><clipPath id="594bc4175d"><path d="M 221 258 L 552 258 L 552 295 L 221 295 Z M 221 258 " clip-rule="nonzero"/></clipPath><clipPath id="0921e3b746"><path d="M 159.492188 190.421875 L 556.035156 87.589844 L 608.851562 291.261719 L 212.308594 394.089844 Z M 159.492188 190.421875 " clip-rule="nonzero"/></clipPath><clipPath id="5561519b1c"><path d="M 159.492188 190.421875 L 556.035156 87.589844 L 608.851562 291.261719 L 212.308594 394.089844 Z M 159.492188 190.421875 " clip-rule="nonzero"/></clipPath><clipPath id="aea209323d"><path d="M 254 242 L 525 242 L 525 271 L 254 271 Z M 254 242 " clip-rule="nonzero"/></clipPath><clipPath id="32789b9f17"><path d="M 159.492188 190.421875 L 556.035156 87.589844 L 608.851562 291.261719 L 212.308594 394.089844 Z M 159.492188 190.421875 " clip-rule="nonzero"/></clipPath><clipPath id="abe738683d"><path d="M 159.492188 190.421875 L 556.035156 87.589844 L 608.851562 291.261719 L 212.308594 394.089844 Z M 159.492188 190.421875 " clip-rule="nonzero"/></clipPath><clipPath id="0f0ac3a7db"><path d="M 290 230 L 489 230 L 489 253 L 290 253 Z M 290 230 " clip-rule="nonzero"/></clipPath><clipPath id="7e09d6d06c"><path d="M 159.492188 190.421875 L 556.035156 87.589844 L 608.851562 291.261719 L 212.308594 394.089844 Z M 159.492188 190.421875 " clip-rule="nonzero"/></clipPath><clipPath id="a28f0efb26"><path d="M 159.492188 190.421875 L 556.035156 87.589844 L 608.851562 291.261719 L 212.308594 394.089844 Z M 159.492188 190.421875 " clip-rule="nonzero"/></clipPath><clipPath id="fd39682793"><path d="M 316 195 L 452 195 L 452 211 L 316 211 Z M 316 195 " clip-rule="nonzero"/></clipPath><clipPath id="4dcae1f2b3"><path d="M 159.492188 190.421875 L 556.035156 87.589844 L 608.851562 291.261719 L 212.308594 394.089844 Z M 159.492188 190.421875 " clip-rule="nonzero"/></clipPath><clipPath id="1e524c36ed"><path d="M 159.492188 190.421875 L 556.035156 87.589844 L 608.851562 291.261719 L 212.308594 394.089844 Z M 159.492188 190.421875 " clip-rule="nonzero"/></clipPath><clipPath id="501235e42f"><path d="M 320 176 L 445 176 L 445 192 L 320 192 Z M 320 176 " clip-rule="nonzero"/></clipPath><clipPath id="a53674e493"><path d="M 159.492188 190.421875 L 556.035156 87.589844 L 608.851562 291.261719 L 212.308594 394.089844 Z M 159.492188 190.421875 " clip-rule="nonzero"/></clipPath><clipPath id="516b6be909"><path d="M 159.492188 190.421875 L 556.035156 87.589844 L 608.851562 291.261719 L 212.308594 394.089844 Z M 159.492188 190.421875 " clip-rule="nonzero"/></clipPath><clipPath id="1045c91982"><path d="M 329 158 L 434 158 L 434 171 L 329 171 Z M 329 158 " clip-rule="nonzero"/></clipPath><clipPath id="5f5b413eda"><path d="M 159.492188 190.421875 L 556.035156 87.589844 L 608.851562 291.261719 L 212.308594 394.089844 Z M 159.492188 190.421875 " clip-rule="nonzero"/></clipPath><clipPath id="a7d63fdd7c"><path d="M 159.492188 190.421875 L 556.035156 87.589844 L 608.851562 291.261719 L 212.308594 394.089844 Z M 159.492188 190.421875 " clip-rule="nonzero"/></clipPath><clipPath id="45d900126a"><path d="M 348 141 L 413 141 L 413 152 L 348 152 Z M 348 141 " clip-rule="nonzero"/></clipPath><clipPath id="90c443cc6e"><path d="M 159.492188 190.421875 L 556.035156 87.589844 L 608.851562 291.261719 L 212.308594 394.089844 Z M 159.492188 190.421875 " clip-rule="nonzero"/></clipPath><clipPath id="6e22904424"><path d="M 159.492188 190.421875 L 556.035156 87.589844 L 608.851562 291.261719 L 212.308594 394.089844 Z M 159.492188 190.421875 " clip-rule="nonzero"/></clipPath><clipPath id="2ed40318ff"><path d="M 588 256 L 595 256 L 595 260 L 588 260 Z M 588 256 " clip-rule="nonzero"/></clipPath><clipPath id="303c0506f3"><path d="M 159.492188 190.421875 L 556.035156 87.589844 L 608.851562 291.261719 L 212.308594 394.089844 Z M 159.492188 190.421875 " clip-rule="nonzero"/></clipPath><clipPath id="6b378cad13"><path d="M 159.492188 190.421875 L 556.035156 87.589844 L 608.851562 291.261719 L 212.308594 394.089844 Z M 159.492188 190.421875 " clip-rule="nonzero"/></clipPath><clipPath id="79cf76ba94"><path d="M 587 255 L 589 255 L 589 256 L 587 256 Z M 587 255 " clip-rule="nonzero"/></clipPath><clipPath id="477b718404"><path d="M 159.492188 190.421875 L 556.035156 87.589844 L 608.851562 291.261719 L 212.308594 394.089844 Z M 159.492188 190.421875 " clip-rule="nonzero"/></clipPath><clipPath id="978863806e"><path d="M 159.492188 190.421875 L 556.035156 87.589844 L 608.851562 291.261719 L 212.308594 394.089844 Z M 159.492188 190.421875 " clip-rule="nonzero"/></clipPath><clipPath id="a45bf8d271"><path d="M 555 255 L 595 255 L 595 291 L 555 291 Z M 555 255 " clip-rule="nonzero"/></clipPath><clipPath id="8521d0a7f4"><path d="M 159.492188 190.421875 L 556.035156 87.589844 L 608.851562 291.261719 L 212.308594 394.089844 Z M 159.492188 190.421875 " clip-rule="nonzero"/></clipPath><clipPath id="22705bb3cb"><path d="M 159.492188 190.421875 L 556.035156 87.589844 L 608.851562 291.261719 L 212.308594 394.089844 Z M 159.492188 190.421875 " clip-rule="nonzero"/></clipPath><clipPath id="7143094569"><path d="M 562 244 L 564 244 L 564 246 L 562 246 Z M 562 244 " clip-rule="nonzero"/></clipPath><clipPath id="d964e32ded"><path d="M 159.492188 190.421875 L 556.035156 87.589844 L 608.851562 291.261719 L 212.308594 394.089844 Z M 159.492188 190.421875 " clip-rule="nonzero"/></clipPath><clipPath id="5703abec1c"><path d="M 159.492188 190.421875 L 556.035156 87.589844 L 608.851562 291.261719 L 212.308594 394.089844 Z M 159.492188 190.421875 " clip-rule="nonzero"/></clipPath><clipPath id="77a046628d"><path d="M 569 247 L 570 247 L 570 248 L 569 248 Z M 569 247 " clip-rule="nonzero"/></clipPath><clipPath id="7815852ab8"><path d="M 159.492188 190.421875 L 556.035156 87.589844 L 608.851562 291.261719 L 212.308594 394.089844 Z M 159.492188 190.421875 " clip-rule="nonzero"/></clipPath><clipPath id="33e6417dfa"><path d="M 159.492188 190.421875 L 556.035156 87.589844 L 608.851562 291.261719 L 212.308594 394.089844 Z M 159.492188 190.421875 " clip-rule="nonzero"/></clipPath><clipPath id="db4d17cb0b"><path d="M 546 244 L 570 244 L 570 264 L 546 264 Z M 546 244 " clip-rule="nonzero"/></clipPath><clipPath id="a33c085e4c"><path d="M 159.492188 190.421875 L 556.035156 87.589844 L 608.851562 291.261719 L 212.308594 394.089844 Z M 159.492188 190.421875 " clip-rule="nonzero"/></clipPath><clipPath id="87c2f5e5b5"><path d="M 159.492188 190.421875 L 556.035156 87.589844 L 608.851562 291.261719 L 212.308594 394.089844 Z M 159.492188 190.421875 " clip-rule="nonzero"/></clipPath><clipPath id="9115b268b9"><path d="M 533 235 L 534 235 L 534 236 L 533 236 Z M 533 235 " clip-rule="nonzero"/></clipPath><clipPath id="4e940c99ce"><path d="M 159.492188 190.421875 L 556.035156 87.589844 L 608.851562 291.261719 L 212.308594 394.089844 Z M 159.492188 190.421875 " clip-rule="nonzero"/></clipPath><clipPath id="a8bc62b76d"><path d="M 159.492188 190.421875 L 556.035156 87.589844 L 608.851562 291.261719 L 212.308594 394.089844 Z M 159.492188 190.421875 " clip-rule="nonzero"/></clipPath><clipPath id="fb163581c4"><path d="M 516 234 L 534 234 L 534 245 L 516 245 Z M 516 234 " clip-rule="nonzero"/></clipPath><clipPath id="83a77e3ca4"><path d="M 159.492188 190.421875 L 556.035156 87.589844 L 608.851562 291.261719 L 212.308594 394.089844 Z M 159.492188 190.421875 " clip-rule="nonzero"/></clipPath><clipPath id="2a3f73b5dd"><path d="M 159.492188 190.421875 L 556.035156 87.589844 L 608.851562 291.261719 L 212.308594 394.089844 Z M 159.492188 190.421875 " clip-rule="nonzero"/></clipPath><clipPath id="c4e6ddcb53"><path d="M 491 225 L 497 225 L 497 227 L 491 227 Z M 491 225 " clip-rule="nonzero"/></clipPath><clipPath id="e391ef2a8e"><path d="M 159.492188 190.421875 L 556.035156 87.589844 L 608.851562 291.261719 L 212.308594 394.089844 Z M 159.492188 190.421875 " clip-rule="nonzero"/></clipPath><clipPath id="63ddff896b"><path d="M 159.492188 190.421875 L 556.035156 87.589844 L 608.851562 291.261719 L 212.308594 394.089844 Z M 159.492188 190.421875 " clip-rule="nonzero"/></clipPath><clipPath id="9ee680bb2d"><path d="M 477 225 L 497 225 L 497 234 L 477 234 Z M 477 225 " clip-rule="nonzero"/></clipPath><clipPath id="0378384130"><path d="M 159.492188 190.421875 L 556.035156 87.589844 L 608.851562 291.261719 L 212.308594 394.089844 Z M 159.492188 190.421875 " clip-rule="nonzero"/></clipPath><clipPath id="a82637f0a6"><path d="M 159.492188 190.421875 L 556.035156 87.589844 L 608.851562 291.261719 L 212.308594 394.089844 Z M 159.492188 190.421875 " clip-rule="nonzero"/></clipPath><clipPath id="b230220001"><path d="M 469 191 L 472 191 L 472 198 L 469 198 Z M 469 191 " clip-rule="nonzero"/></clipPath><clipPath id="4e5cb82dd4"><path d="M 159.492188 190.421875 L 556.035156 87.589844 L 608.851562 291.261719 L 212.308594 394.089844 Z M 159.492188 190.421875 " clip-rule="nonzero"/></clipPath><clipPath id="8f07226305"><path d="M 159.492188 190.421875 L 556.035156 87.589844 L 608.851562 291.261719 L 212.308594 394.089844 Z M 159.492188 190.421875 " clip-rule="nonzero"/></clipPath><clipPath id="b39f1aca49"><path d="M 449 191 L 472 191 L 472 204 L 449 204 Z M 449 191 " clip-rule="nonzero"/></clipPath><clipPath id="cf3489189f"><path d="M 159.492188 190.421875 L 556.035156 87.589844 L 608.851562 291.261719 L 212.308594 394.089844 Z M 159.492188 190.421875 " clip-rule="nonzero"/></clipPath><clipPath id="a632d23cbc"><path d="M 159.492188 190.421875 L 556.035156 87.589844 L 608.851562 291.261719 L 212.308594 394.089844 Z M 159.492188 190.421875 " clip-rule="nonzero"/></clipPath><clipPath id="fe917ad301"><path d="M 461 172 L 463 172 L 463 174 L 461 174 Z M 461 172 " clip-rule="nonzero"/></clipPath><clipPath id="d47ca52d28"><path d="M 159.492188 190.421875 L 556.035156 87.589844 L 608.851562 291.261719 L 212.308594 394.089844 Z M 159.492188 190.421875 " clip-rule="nonzero"/></clipPath><clipPath id="10f9a91085"><path d="M 159.492188 190.421875 L 556.035156 87.589844 L 608.851562 291.261719 L 212.308594 394.089844 Z M 159.492188 190.421875 " clip-rule="nonzero"/></clipPath><clipPath id="d3dc16cab7"><path d="M 462 174 L 466 174 L 466 180 L 462 180 Z M 462 174 " clip-rule="nonzero"/></clipPath><clipPath id="b794e51a7c"><path d="M 159.492188 190.421875 L 556.035156 87.589844 L 608.851562 291.261719 L 212.308594 394.089844 Z M 159.492188 190.421875 " clip-rule="nonzero"/></clipPath><clipPath id="ace03799ab"><path d="M 159.492188 190.421875 L 556.035156 87.589844 L 608.851562 291.261719 L 212.308594 394.089844 Z M 159.492188 190.421875 " clip-rule="nonzero"/></clipPath><clipPath id="cef8601f79"><path d="M 440 172 L 466 172 L 466 185 L 440 185 Z M 440 172 " clip-rule="nonzero"/></clipPath><clipPath id="df7a466323"><path d="M 159.492188 190.421875 L 556.035156 87.589844 L 608.851562 291.261719 L 212.308594 394.089844 Z M 159.492188 190.421875 " clip-rule="nonzero"/></clipPath><clipPath id="b91fcccda1"><path d="M 159.492188 190.421875 L 556.035156 87.589844 L 608.851562 291.261719 L 212.308594 394.089844 Z M 159.492188 190.421875 " clip-rule="nonzero"/></clipPath><clipPath id="5814dfd17a"><path d="M 426 155 L 455 155 L 455 166 L 426 166 Z M 426 155 " clip-rule="nonzero"/></clipPath><clipPath id="206c57cf8d"><path d="M 159.492188 190.421875 L 556.035156 87.589844 L 608.851562 291.261719 L 212.308594 394.089844 Z M 159.492188 190.421875 " clip-rule="nonzero"/></clipPath><clipPath id="8f60b627e0"><path d="M 159.492188 190.421875 L 556.035156 87.589844 L 608.851562 291.261719 L 212.308594 394.089844 Z M 159.492188 190.421875 " clip-rule="nonzero"/></clipPath><clipPath id="766e449cb2"><path d="M 397 136 L 432 136 L 432 148 L 397 148 Z M 397 136 " clip-rule="nonzero"/></clipPath><clipPath id="9371f82591"><path d="M 159.492188 190.421875 L 556.035156 87.589844 L 608.851562 291.261719 L 212.308594 394.089844 Z M 159.492188 190.421875 " clip-rule="nonzero"/></clipPath><clipPath id="31714d2449"><path d="M 159.492188 190.421875 L 556.035156 87.589844 L 608.851562 291.261719 L 212.308594 394.089844 Z M 159.492188 190.421875 " clip-rule="nonzero"/></clipPath><clipPath id="99125bdeb1"><path d="M 473 214 L 474 214 L 474 216 L 473 216 Z M 473 214 " clip-rule="nonzero"/></clipPath><clipPath id="7467c1f1f2"><path d="M 159.492188 190.421875 L 556.035156 87.589844 L 608.851562 291.261719 L 212.308594 394.089844 Z M 159.492188 190.421875 " clip-rule="nonzero"/></clipPath><clipPath id="4f9f159579"><path d="M 159.492188 190.421875 L 556.035156 87.589844 L 608.851562 291.261719 L 212.308594 394.089844 Z M 159.492188 190.421875 " clip-rule="nonzero"/></clipPath><clipPath id="aca8f62a7e"><path d="M 473 212 L 474 212 L 474 214 L 473 214 Z M 473 212 " clip-rule="nonzero"/></clipPath><clipPath id="75c59952a7"><path d="M 159.492188 190.421875 L 556.035156 87.589844 L 608.851562 291.261719 L 212.308594 394.089844 Z M 159.492188 190.421875 " clip-rule="nonzero"/></clipPath><clipPath id="0552ef4a8a"><path d="M 159.492188 190.421875 L 556.035156 87.589844 L 608.851562 291.261719 L 212.308594 394.089844 Z M 159.492188 190.421875 " clip-rule="nonzero"/></clipPath><clipPath id="1c29321eca"><path d="M 473 221 L 474 221 L 474 222 L 473 222 Z M 473 221 " clip-rule="nonzero"/></clipPath><clipPath id="cc4ea5ae44"><path d="M 159.492188 190.421875 L 556.035156 87.589844 L 608.851562 291.261719 L 212.308594 394.089844 Z M 159.492188 190.421875 " clip-rule="nonzero"/></clipPath><clipPath id="d3fcf0dd54"><path d="M 159.492188 190.421875 L 556.035156 87.589844 L 608.851562 291.261719 L 212.308594 394.089844 Z M 159.492188 190.421875 " clip-rule="nonzero"/></clipPath><clipPath id="bdef48789d"><path d="M 473 215 L 474 215 L 474 217 L 473 217 Z M 473 215 " clip-rule="nonzero"/></clipPath><clipPath id="1fd2a60b4d"><path d="M 159.492188 190.421875 L 556.035156 87.589844 L 608.851562 291.261719 L 212.308594 394.089844 Z M 159.492188 190.421875 " clip-rule="nonzero"/></clipPath><clipPath id="73f7cae0cd"><path d="M 159.492188 190.421875 L 556.035156 87.589844 L 608.851562 291.261719 L 212.308594 394.089844 Z M 159.492188 190.421875 " clip-rule="nonzero"/></clipPath><clipPath id="28b1df6e7d"><path d="M 473 219 L 474 219 L 474 220 L 473 220 Z M 473 219 " clip-rule="nonzero"/></clipPath><clipPath id="6f372e74c6"><path d="M 159.492188 190.421875 L 556.035156 87.589844 L 608.851562 291.261719 L 212.308594 394.089844 Z M 159.492188 190.421875 " clip-rule="nonzero"/></clipPath><clipPath id="534e128cc9"><path d="M 159.492188 190.421875 L 556.035156 87.589844 L 608.851562 291.261719 L 212.308594 394.089844 Z M 159.492188 190.421875 " clip-rule="nonzero"/></clipPath><clipPath id="8f6730712b"><path d="M 313 207 L 474 207 L 474 235 L 313 235 Z M 313 207 " clip-rule="nonzero"/></clipPath><clipPath id="dd55d564b4"><path d="M 159.492188 190.421875 L 556.035156 87.589844 L 608.851562 291.261719 L 212.308594 394.089844 Z M 159.492188 190.421875 " clip-rule="nonzero"/></clipPath><clipPath id="82680c840e"><path d="M 159.492188 190.421875 L 556.035156 87.589844 L 608.851562 291.261719 L 212.308594 394.089844 Z M 159.492188 190.421875 " clip-rule="nonzero"/></clipPath></defs><rect x="-76.8" width="921.6" fill="#ffffff" y="-76.799999" height="921.599993" fill-opacity="1"/><rect x="-76.8" width="921.6" fill="#ffffff" y="-76.799999" height="921.599993" fill-opacity="1"/><g clip-path="url(#466bb9932e)"><g clip-path="url(#aec9cb0717)"><path fill="#f9871a" d="M 60.511719 60.511719 L 707.488281 60.511719 L 707.488281 707.488281 L 60.511719 707.488281 Z M 60.511719 60.511719 " fill-opacity="1" fill-rule="nonzero"/></g></g><g clip-path="url(#5177b845e0)"><g clip-path="url(#66e1bb6175)"><g clip-path="url(#11cdbb2960)"><path fill="#ffffff" d="M 490.335938 532.339844 C 490.335938 532.339844 416.777344 624.800781 330.917969 610.847656 C 245.054688 596.90625 213.824219 492.546875 213.824219 492.546875 C 213.824219 492.546875 207.132812 498.058594 196.8125 499.636719 C 196.8125 499.636719 216.515625 487.929688 227.765625 457.074219 C 227.765625 457.074219 222.214844 481.609375 224.523438 488.195312 C 226.832031 494.785156 263.625 577.652344 349.816406 581.992188 C 435.996094 586.324219 482.582031 519.726562 482.582031 519.726562 C 482.582031 519.726562 483.660156 510.71875 480.222656 502.199219 C 476.796875 493.679688 491.738281 511.664062 493.449219 519.003906 C 495.152344 526.34375 498.734375 525.726562 501.222656 531.839844 C 503.710938 537.953125 511.269531 546.710938 490.335938 532.339844 " fill-opacity="1" fill-rule="nonzero"/></g></g></g><g clip-path="url(#d53322f43f)"><g clip-path="url(#9dcf2ab6e3)"><g clip-path="url(#bc0b787a2d)"><path fill="#ffffff" d="M 444.898438 343.035156 C 431.582031 341.019531 417.589844 357.792969 413.648438 380.511719 C 409.703125 403.234375 417.304688 423.292969 430.625 425.316406 C 443.945312 427.332031 457.933594 410.558594 461.878906 387.84375 C 465.824219 365.121094 458.21875 345.0625 444.898438 343.035156 " fill-opacity="1" fill-rule="nonzero"/></g></g></g><g clip-path="url(#77e0cdc40c)"><g clip-path="url(#e69feb9b5c)"><g clip-path="url(#554f48c8fa)"><path fill="#ffffff" d="M 305.917969 386.246094 C 305.917969 386.246094 298.335938 328.230469 243.910156 333.027344 C 243.910156 333.027344 237.074219 338.203125 251.117188 341.496094 C 265.164062 344.78125 277.507812 356.207031 282.230469 365.683594 C 286.957031 375.167969 248.535156 343.253906 239.417969 356.449219 C 230.300781 369.652344 247.042969 368.761719 262.070312 370.832031 C 277.089844 372.90625 305.722656 398.109375 305.917969 386.246094 " fill-opacity="1" fill-rule="nonzero"/></g></g></g><g clip-path="url(#2efa499f39)"><g clip-path="url(#89321c5ecc)"><g clip-path="url(#3d9f9fbecf)"><path fill="#ffffff" d="M 374.433594 621.050781 C 374.433594 621.050781 328.273438 634.492188 290.613281 609.636719 C 290.613281 609.636719 306.015625 628.011719 327.320312 629.917969 C 348.628906 631.832031 373.566406 629.730469 374.433594 621.050781 " fill-opacity="1" fill-rule="nonzero"/></g></g></g><g clip-path="url(#1207526ce2)"><g clip-path="url(#777da19eb7)"><g clip-path="url(#f0dbedf0b4)"><path fill="#ffffff" d="M 346.90625 540.597656 C 343.917969 540.511719 340.9375 540.25 337.976562 539.8125 C 308.4375 535.46875 283.015625 514.515625 268.230469 482.332031 C 267.855469 481.53125 267.5625 480.703125 267.351562 479.84375 C 267.140625 478.984375 267.019531 478.113281 266.980469 477.230469 C 266.941406 476.351562 266.992188 475.472656 267.125 474.597656 C 267.261719 473.726562 267.480469 472.875 267.785156 472.046875 C 268.089844 471.214844 268.472656 470.421875 268.933594 469.667969 C 269.394531 468.914062 269.921875 468.214844 270.523438 467.566406 C 271.121094 466.917969 271.78125 466.332031 272.496094 465.8125 C 273.210938 465.292969 273.96875 464.851562 274.769531 464.480469 C 275.574219 464.113281 276.40625 463.824219 277.265625 463.621094 C 278.125 463.417969 278.996094 463.300781 279.878906 463.265625 C 280.761719 463.234375 281.640625 463.289062 282.511719 463.429688 C 283.382812 463.574219 284.234375 463.796875 285.058594 464.109375 C 285.886719 464.417969 286.675781 464.804688 287.425781 465.269531 C 288.179688 465.738281 288.875 466.269531 289.519531 466.875 C 290.167969 467.480469 290.746094 468.140625 291.261719 468.859375 C 291.773438 469.578125 292.214844 470.339844 292.578125 471.144531 C 303.507812 494.9375 321.476562 510.300781 341.878906 513.304688 C 362.441406 516.316406 383.308594 506.609375 402.199219 485.195312 C 402.78125 484.535156 403.421875 483.9375 404.121094 483.402344 C 404.820312 482.871094 405.566406 482.410156 406.355469 482.023438 C 407.144531 481.636719 407.964844 481.332031 408.816406 481.105469 C 409.667969 480.878906 410.53125 480.738281 411.410156 480.683594 C 412.289062 480.628906 413.164062 480.660156 414.035156 480.777344 C 414.90625 480.894531 415.757812 481.097656 416.589844 481.382812 C 417.421875 481.667969 418.21875 482.03125 418.980469 482.472656 C 419.742188 482.914062 420.453125 483.425781 421.109375 484.007812 C 421.769531 484.589844 422.367188 485.230469 422.902344 485.929688 C 423.433594 486.628906 423.894531 487.375 424.28125 488.164062 C 424.667969 488.953125 424.976562 489.773438 425.199219 490.625 C 425.425781 491.476562 425.566406 492.339844 425.621094 493.21875 C 425.675781 494.097656 425.644531 494.972656 425.527344 495.84375 C 425.410156 496.714844 425.207031 497.566406 424.921875 498.398438 C 424.636719 499.230469 424.273438 500.027344 423.832031 500.789062 C 423.390625 501.550781 422.878906 502.261719 422.296875 502.917969 C 399.972656 528.222656 373.507812 541.371094 346.90625 540.597656 Z M 346.90625 540.597656 " fill-opacity="1" fill-rule="nonzero"/></g></g></g><g clip-path="url(#9632d2b748)"><path fill="#f8ed1e" d="M 399.132812 368.453125 C 412.339844 345.578125 437.507812 335.382812 455.347656 345.683594 C 473.1875 355.980469 476.941406 382.875 463.734375 405.753906 C 452.125 425.863281 431.269531 436.167969 414.277344 431.367188 C 407.433594 435.082031 401.882812 431.878906 401.675781 424.09375 C 389.027344 411.777344 387.523438 388.5625 399.132812 368.453125 " fill-opacity="1" fill-rule="nonzero"/></g><g clip-path="url(#fb02707836)"><path fill="#87cf34" d="M 457.140625 342.613281 C 462.605469 324.832031 483.574219 320.054688 502.945312 328.257812 C 493.3125 344.765625 473.441406 354.960938 457.140625 342.613281 " fill-opacity="1" fill-rule="nonzero"/></g><g clip-path="url(#2f7acfdce6)"><path fill="#87cf34" d="M 455.054688 340.726562 C 463.347656 329.347656 459.769531 312.671875 449.417969 302.632812 C 443.078125 316.382812 443.308594 334.597656 455.054688 340.726562 " fill-opacity="1" fill-rule="nonzero"/></g><path fill="#ffffff" d="M 414.164062 359.777344 C 421.621094 350.949219 427.515625 352.566406 428.347656 355.722656 C 429.183594 358.882812 426.886719 365.183594 421.144531 369.863281 C 416.558594 373.605469 413.277344 386.820312 408.238281 384.480469 C 403.199219 382.144531 406.707031 368.605469 414.164062 359.777344 " fill-opacity="1" fill-rule="nonzero"/><g clip-path="url(#6a679c019e)"><g clip-path="url(#1fc92cba9a)"><g clip-path="url(#86d2ae1b9b)"><g clip-path="url(#bca0feb658)"><path fill="#f8ed1e" d="M 186.972656 294.285156 C 193.410156 317.710938 290.476562 327.542969 325.4375 322.820312 C 363.566406 317.664062 429.078125 283.871094 471.210938 295.308594 C 524.347656 309.734375 583.785156 315.667969 601.625 274.710938 C 603.84375 269.597656 600.664062 264.527344 594.023438 259.667969 C 586.496094 254.332031 578.722656 250.972656 569.117188 247.160156 C 556.023438 242.152344 542.132812 237.960938 528.222656 234.257812 C 528.222656 234.257812 528.222656 234.257812 528.207031 234.257812 C 514.332031 230.570312 502.917969 227.902344 490.726562 225.261719 L 490.710938 225.261719 C 482.410156 223.464844 476.15625 222.238281 473.292969 221.683594 C 473.378906 221.660156 473.472656 221.628906 473.566406 221.605469 C 473.984375 217.210938 473.644531 213.550781 473.117188 209.628906 C 460.332031 102.648438 321.320312 107.871094 315.519531 215.332031 C 315.476562 215.335938 315.445312 215.328125 315.402344 215.320312 C 315.105469 219.730469 314.398438 224.097656 314.007812 228.5 C 313.746094 228.621094 313.476562 228.742188 313.183594 228.824219 C 295.449219 233.5625 273.246094 240.871094 254.175781 248.035156 L 254.164062 248.039062 C 238.820312 254.140625 182.300781 275.015625 186.972656 294.285156 " fill-opacity="1" fill-rule="nonzero"/><path fill="#f9871a" d="M 199.035156 274.996094 C 169.078125 302.804688 221.726562 311.613281 232.234375 313.625 C 256.542969 318.28125 295.382812 322.050781 320.082031 319.832031 C 347.5625 317.359375 373.855469 304.078125 400.484375 297.488281 C 419.84375 292.695312 438.617188 288.5625 458.585938 290.296875 C 475.648438 291.769531 489.742188 296.109375 506.804688 297.628906 C 521.636719 298.953125 542.226562 299.507812 555.234375 290.808594 C 575.175781 277.46875 537.445312 250.492188 528.15625 246.566406 C 504.207031 236.453125 479.554688 231.027344 454.144531 226.300781 C 454.496094 221.746094 453.21875 214.9375 453.21875 214.9375 C 446.253906 158.039062 402.714844 132.8125 363.132812 138.742188 C 406.554688 119.246094 465.035156 142.023438 473.117188 209.628906 C 473.644531 213.550781 473.984375 217.210938 473.566406 221.605469 C 473.472656 221.628906 473.378906 221.660156 473.292969 221.683594 C 476.15625 222.238281 482.410156 223.464844 490.710938 225.261719 L 490.726562 225.261719 C 502.917969 227.902344 514.332031 230.570312 528.207031 234.257812 C 528.222656 234.257812 528.222656 234.257812 528.222656 234.257812 C 542.132812 237.960938 556.023438 242.152344 569.117188 247.160156 C 578.722656 250.972656 586.496094 254.332031 594.023438 259.667969 C 600.664062 264.527344 603.84375 269.597656 601.625 274.710938 C 583.785156 315.667969 524.347656 309.734375 471.210938 295.308594 C 429.078125 283.871094 363.566406 317.664062 325.4375 322.820312 C 290.476562 327.542969 193.410156 317.710938 186.972656 294.285156 C 185.410156 287.828125 190.714844 281.195312 199.035156 274.996094 " fill-opacity="1" fill-rule="nonzero"/></g></g></g></g><g clip-path="url(#eb72daa05e)"><g clip-path="url(#c108e9322f)"><g clip-path="url(#909f12b299)"><path fill="#f9871a" d="M 555.472656 290.640625 C 553.179688 291.300781 550.851562 291.84375 548.488281 292.25 L 546.726562 292.527344 C 545.644531 292.664062 542.78125 293.011719 541.652344 293.15625 C 536.003906 293.707031 530.269531 294.042969 524.582031 293.902344 C 506.46875 293.730469 487.320312 287.714844 469.683594 285.296875 C 427.78125 279.554688 408.070312 288.898438 369.535156 302.28125 C 332.316406 315.207031 301.023438 315.859375 262.960938 310.386719 C 249.453125 308.273438 236.242188 305.207031 223.378906 300.203125 C 212.355469 295.792969 202.085938 287.898438 194.9375 278.367188 C 195.828125 277.503906 197.011719 276.53125 198.601562 275.304688 C 199.867188 274.359375 201.40625 273.332031 202.828125 272.398438 C 211.351562 284.652344 224.542969 291.863281 239.042969 295.890625 C 255.65625 301.082031 273.074219 303.535156 290.386719 305.109375 C 307.6875 306.585938 325.078125 306.574219 342.066406 302.945312 C 363.5625 298.375 383.039062 286.925781 404.703125 282.453125 C 424.214844 278.429688 444.046875 276.703125 463.949219 278.089844 C 483.648438 279.464844 503.917969 285.964844 523.730469 286.050781 C 529.417969 286.074219 535.074219 285.699219 540.710938 284.953125 C 541.761719 284.808594 544.507812 284.4375 545.519531 284.289062 L 547.035156 284.03125 C 551.78125 283.117188 556.417969 281.609375 560.859375 279.652344 C 561.402344 283.734375 559.953125 287.542969 555.472656 290.640625 " fill-opacity="1" fill-rule="nonzero"/></g></g></g><g clip-path="url(#594bc4175d)"><g clip-path="url(#0921e3b746)"><g clip-path="url(#5561519b1c)"><path fill="#f9871a" d="M 551.484375 263.910156 C 545.273438 267.925781 538.359375 270.800781 530.980469 271.894531 C 515.480469 274.222656 499.699219 275.359375 484.125 273.273438 C 478.582031 272.578125 472.417969 271.4375 466.949219 270.4375 C 450.347656 267.476562 433.214844 267.511719 416.621094 270.542969 C 393.84375 274.5 373.476562 285.601562 350.964844 291.097656 C 335.628906 294.734375 319.695312 294.800781 304.136719 294.113281 C 292.5 293.558594 280.710938 292.4375 269.230469 290.042969 C 249.082031 285.949219 236.242188 280.433594 222.875 264.269531 C 222.40625 263.71875 221.71875 262.945312 221.03125 262.183594 C 223.328125 261.039062 227.253906 259.234375 229.671875 258.128906 C 231.273438 259.621094 232.894531 261.144531 234.015625 262.195312 C 247.160156 275.507812 264.230469 279.644531 282.1875 282.335938 C 296.980469 284.355469 312.390625 285.058594 327.296875 284.800781 C 342.394531 284.582031 356.703125 282.105469 370.847656 277.035156 C 385.371094 271.992188 400.132812 266.554688 415.453125 263.976562 C 434.722656 260.613281 454.554688 260.8125 473.800781 264.261719 C 492.328125 267.5625 511.230469 267.355469 529.792969 264.601562 C 535.707031 263.777344 541.199219 261.773438 546.234375 258.921875 C 548.054688 260.507812 549.824219 262.179688 551.484375 263.910156 " fill-opacity="1" fill-rule="nonzero"/></g></g></g><g clip-path="url(#aea209323d)"><g clip-path="url(#32789b9f17)"><g clip-path="url(#abe738683d)"><path fill="#f9871a" d="M 503.605469 255.351562 C 494.363281 257.898438 484.375 258.871094 474.738281 258.15625 C 469.9375 257.800781 465.234375 256.8125 460.453125 256.292969 C 455.464844 255.746094 450.457031 255.363281 445.445312 255.152344 C 434.613281 254.691406 423.746094 255.019531 412.976562 256.234375 C 398.203125 258.113281 383.550781 262.335938 368.953125 265.40625 C 353.984375 268.511719 338.496094 270.679688 323.175781 269.808594 C 304.90625 269.148438 285.683594 267.117188 268.761719 259.101562 C 263.175781 256.675781 258.371094 252.230469 254.175781 248.035156 L 262 245.148438 C 265.082031 247.847656 268.246094 250.238281 272.109375 251.855469 C 288.234375 258.949219 305.847656 260.527344 323.5 261.300781 C 329.476562 261.617188 335.1875 261.550781 341.101562 261.183594 C 359.003906 260.203125 376.492188 255.761719 394.335938 253.582031 C 406.386719 252.011719 418.523438 250.710938 430.667969 250.21875 C 439.554688 249.855469 448.425781 250.214844 457.292969 250.777344 C 475.105469 251.910156 493.714844 252.171875 510.550781 245.222656 C 512.714844 244.328125 514.824219 243.308594 516.871094 242.167969 C 519.316406 243.050781 521.757812 243.972656 524.1875 244.945312 C 518.046875 249.644531 511.070312 253.292969 503.605469 255.351562 " fill-opacity="1" fill-rule="nonzero"/></g></g></g><g clip-path="url(#0f0ac3a7db)"><g clip-path="url(#7e09d6d06c)"><g clip-path="url(#a28f0efb26)"><path fill="#f9871a" d="M 460.542969 242.566406 C 447.171875 244.152344 433.761719 242.042969 420.5 242.695312 C 411.648438 243.046875 402.996094 244.640625 394.410156 246.808594 C 372.683594 252.566406 349.652344 254.222656 327.503906 249.808594 C 314.402344 247.699219 301.046875 244.003906 290.582031 235.472656 C 293.8125 234.457031 296.824219 233.53125 299.550781 232.707031 C 323.605469 245.804688 354.070312 245.898438 380.546875 242.695312 C 394.351562 241.03125 408.175781 238.6875 422.019531 237.511719 C 434.484375 236.445312 447.121094 236.921875 459.519531 235.015625 C 465.519531 234.097656 471.375 232.75 477.058594 230.910156 C 480.769531 231.730469 484.46875 232.59375 488.148438 233.511719 C 479.894531 238.609375 470.140625 241.394531 460.542969 242.566406 " fill-opacity="1" fill-rule="nonzero"/></g></g></g><g clip-path="url(#fd39682793)"><g clip-path="url(#4dcae1f2b3)"><g clip-path="url(#1e524c36ed)"><path fill="#f9871a" d="M 433.289062 206.640625 C 418.105469 208.945312 402.378906 210.066406 386.933594 210.496094 C 363.441406 211.320312 339.285156 210.683594 316.566406 205.144531 C 316.890625 202.824219 317.289062 200.550781 317.765625 198.347656 C 360.613281 204.554688 403.085938 203.25 449 195.183594 C 449.796875 197.71875 450.492188 200.355469 451.117188 203.054688 C 445.183594 204.464844 439.214844 205.722656 433.289062 206.640625 " fill-opacity="1" fill-rule="nonzero"/></g></g></g><g clip-path="url(#501235e42f)"><g clip-path="url(#a53674e493)"><g clip-path="url(#516b6be909)"><path fill="#f9871a" d="M 421.5625 188.421875 C 411.800781 189.558594 401.625 190.410156 391.617188 190.933594 C 367.878906 191.851562 344.335938 191.785156 320.953125 186.574219 C 321.757812 184.195312 322.640625 181.882812 323.605469 179.65625 C 362.332031 184.796875 401.042969 183.578125 440.890625 176.691406 C 442.304688 179.128906 443.617188 181.679688 444.832031 184.34375 C 437.121094 186.058594 429.363281 187.46875 421.5625 188.421875 " fill-opacity="1" fill-rule="nonzero"/></g></g></g><g clip-path="url(#1045c91982)"><g clip-path="url(#5f5b413eda)"><g clip-path="url(#a7d63fdd7c)"><path fill="#f9871a" d="M 329.570312 168.207031 C 330.988281 165.917969 332.5 163.738281 334.09375 161.664062 C 351.714844 163.667969 369.222656 163.011719 386.792969 162.132812 C 400.183594 161.476562 413.507812 160.382812 426.722656 158.648438 C 428.960938 160.769531 431.09375 163.066406 433.117188 165.515625 C 398.757812 171.5625 363.175781 172.789062 329.570312 168.207031 " fill-opacity="1" fill-rule="nonzero"/></g></g></g><g clip-path="url(#45d900126a)"><g clip-path="url(#90c443cc6e)"><g clip-path="url(#6e22904424)"><path fill="#f9871a" d="M 388.054688 151.253906 C 374.140625 152.070312 360.546875 150.773438 348.515625 147.300781 C 351.386719 145.113281 354.390625 143.160156 357.488281 141.445312 C 369.257812 143 380.660156 142.84375 389.167969 142.304688 C 391.636719 142.148438 394.410156 141.828125 397.347656 141.402344 C 402.410156 142.984375 407.328125 145.117188 412.023438 147.78125 C 404.082031 149.621094 396.019531 150.789062 388.054688 151.253906 " fill-opacity="1" fill-rule="nonzero"/></g></g></g><g clip-path="url(#2ed40318ff)"><g clip-path="url(#303c0506f3)"><g clip-path="url(#6b378cad13)"><path fill="#f9871a" d="M 594.023438 259.667969 C 592.164062 258.347656 590.292969 257.15625 588.378906 256.042969 C 590.457031 257.238281 592.359375 258.449219 594.023438 259.667969 " fill-opacity="1" fill-rule="nonzero"/></g></g></g><g clip-path="url(#79cf76ba94)"><g clip-path="url(#477b718404)"><g clip-path="url(#978863806e)"><path fill="#f9871a" d="M 587.238281 255.390625 C 587.550781 255.566406 587.847656 255.738281 588.148438 255.910156 C 587.847656 255.738281 587.535156 255.574219 587.234375 255.40625 C 587.234375 255.402344 587.234375 255.394531 587.238281 255.390625 " fill-opacity="1" fill-rule="nonzero"/></g></g></g><g clip-path="url(#a45bf8d271)"><g clip-path="url(#8521d0a7f4)"><g clip-path="url(#22705bb3cb)"><path fill="#f9871a" d="M 576.097656 280.929688 C 575.574219 281.289062 575.054688 281.628906 574.566406 281.925781 C 568.625 285.667969 562.21875 288.683594 555.472656 290.640625 C 559.953125 287.542969 561.402344 283.734375 560.859375 279.652344 C 564.035156 278.25 567.117188 276.621094 570.046875 274.773438 C 570.503906 274.492188 570.902344 274.21875 571.296875 273.953125 C 577.664062 269.304688 583.746094 262.515625 587.234375 255.40625 C 587.535156 255.574219 587.847656 255.738281 588.148438 255.910156 C 588.226562 255.957031 588.304688 256 588.378906 256.042969 C 590.292969 257.15625 592.164062 258.347656 594.023438 259.667969 C 589.941406 268.261719 583.742188 275.28125 576.097656 280.929688 " fill-opacity="1" fill-rule="nonzero"/></g></g></g><g clip-path="url(#7143094569)"><g clip-path="url(#d964e32ded)"><g clip-path="url(#5703abec1c)"><path fill="#f9871a" d="M 562.90625 244.863281 L 563.382812 245.042969 C 563.226562 244.984375 563.0625 244.929688 562.90625 244.875 C 562.902344 244.871094 562.90625 244.867188 562.90625 244.863281 " fill-opacity="1" fill-rule="nonzero"/></g></g></g><g clip-path="url(#77a046628d)"><g clip-path="url(#7815852ab8)"><g clip-path="url(#33e6417dfa)"><path fill="#f9871a" d="M 569.117188 247.160156 C 569.09375 247.148438 569.070312 247.144531 569.046875 247.132812 L 569.117188 247.160156 " fill-opacity="1" fill-rule="nonzero"/></g></g></g><g clip-path="url(#db4d17cb0b)"><g clip-path="url(#a33c085e4c)"><g clip-path="url(#87c2f5e5b5)"><path fill="#f9871a" d="M 551.484375 263.910156 C 549.824219 262.179688 548.054688 260.507812 546.234375 258.921875 C 552.519531 255.359375 558.101562 250.472656 562.90625 244.875 C 563.0625 244.929688 563.226562 244.984375 563.382812 245.042969 L 569.046875 247.132812 C 569.070312 247.144531 569.09375 247.148438 569.117188 247.160156 C 564.332031 253.628906 558.335938 259.46875 551.484375 263.910156 " fill-opacity="1" fill-rule="nonzero"/></g></g></g><g clip-path="url(#9115b268b9)"><g clip-path="url(#4e940c99ce)"><g clip-path="url(#a8bc62b76d)"><path fill="#f9871a" d="M 533.953125 235.808594 C 533.945312 235.808594 533.949219 235.8125 533.945312 235.8125 C 533.789062 235.773438 533.640625 235.726562 533.488281 235.6875 C 533.640625 235.730469 533.792969 235.765625 533.953125 235.808594 " fill-opacity="1" fill-rule="nonzero"/></g></g></g><g clip-path="url(#fb163581c4)"><g clip-path="url(#83a77e3ca4)"><g clip-path="url(#2a3f73b5dd)"><path fill="#f9871a" d="M 516.871094 242.167969 C 520.617188 240.078125 524.34375 237.5 528.207031 234.257812 C 528.222656 234.257812 528.222656 234.257812 528.222656 234.257812 C 529.972656 234.71875 531.726562 235.199219 533.488281 235.6875 C 533.640625 235.726562 533.789062 235.773438 533.945312 235.8125 C 531.023438 239.144531 527.742188 242.21875 524.1875 244.945312 C 521.757812 243.972656 519.316406 243.050781 516.871094 242.167969 " fill-opacity="1" fill-rule="nonzero"/></g></g></g><g clip-path="url(#c4e6ddcb53)"><g clip-path="url(#e391ef2a8e)"><g clip-path="url(#63ddff896b)"><path fill="#f9871a" d="M 496.878906 226.609375 C 496.878906 226.609375 496.875 226.613281 496.871094 226.613281 C 495.050781 226.210938 493.222656 225.808594 491.378906 225.40625 L 496.878906 226.609375 " fill-opacity="1" fill-rule="nonzero"/></g></g></g><g clip-path="url(#9ee680bb2d)"><g clip-path="url(#0378384130)"><g clip-path="url(#a82637f0a6)"><path fill="#f9871a" d="M 477.058594 230.910156 C 481.734375 229.390625 486.296875 227.542969 490.710938 225.261719 L 490.726562 225.261719 L 491.378906 225.40625 C 493.222656 225.808594 495.050781 226.210938 496.871094 226.613281 C 494.246094 229.289062 491.304688 231.566406 488.148438 233.511719 C 484.46875 232.59375 480.769531 231.730469 477.058594 230.910156 " fill-opacity="1" fill-rule="nonzero"/></g></g></g><g clip-path="url(#b230220001)"><g clip-path="url(#4e5cb82dd4)"><g clip-path="url(#8f07226305)"><path fill="#f9871a" d="M 469.421875 191.207031 C 470.0625 193.378906 470.632812 195.609375 471.140625 197.890625 C 471.132812 197.890625 471.121094 197.894531 471.113281 197.898438 C 470.601562 195.609375 470.023438 193.382812 469.394531 191.214844 C 469.402344 191.214844 469.414062 191.210938 469.421875 191.207031 " fill-opacity="1" fill-rule="nonzero"/></g></g></g><g clip-path="url(#b39f1aca49)"><g clip-path="url(#cf3489189f)"><g clip-path="url(#a632d23cbc)"><path fill="#f9871a" d="M 449 195.183594 C 455.71875 194 462.511719 192.683594 469.394531 191.214844 C 470.023438 193.382812 470.601562 195.609375 471.113281 197.898438 C 464.578125 199.652344 457.871094 201.457031 451.117188 203.054688 C 450.492188 200.355469 449.796875 197.71875 449 195.183594 " fill-opacity="1" fill-rule="nonzero"/></g></g></g><g clip-path="url(#fe917ad301)"><g clip-path="url(#d47ca52d28)"><g clip-path="url(#10f9a91085)"><path fill="#f9871a" d="M 461.789062 172.613281 C 461.929688 172.867188 462.0625 173.140625 462.203125 173.402344 C 462.058594 173.136719 461.914062 172.875 461.773438 172.617188 C 461.777344 172.613281 461.78125 172.613281 461.789062 172.613281 " fill-opacity="1" fill-rule="nonzero"/></g></g></g><g clip-path="url(#d3dc16cab7)"><g clip-path="url(#b794e51a7c)"><g clip-path="url(#ace03799ab)"><path fill="#f9871a" d="M 465.046875 179.191406 C 465.035156 179.195312 465.027344 179.199219 465.019531 179.199219 C 464.328125 177.636719 463.597656 176.113281 462.839844 174.628906 C 463.605469 176.113281 464.347656 177.628906 465.046875 179.191406 " fill-opacity="1" fill-rule="nonzero"/></g></g></g><g clip-path="url(#cef8601f79)"><g clip-path="url(#df7a466323)"><g clip-path="url(#b91fcccda1)"><path fill="#f9871a" d="M 440.890625 176.691406 C 447.816406 175.496094 454.773438 174.152344 461.773438 172.617188 C 461.914062 172.875 462.058594 173.136719 462.203125 173.402344 C 462.414062 173.808594 462.628906 174.214844 462.839844 174.628906 C 463.597656 176.113281 464.328125 177.636719 465.019531 179.199219 C 458.332031 181.101562 451.601562 182.839844 444.832031 184.34375 C 443.617188 181.679688 442.304688 179.128906 440.890625 176.691406 " fill-opacity="1" fill-rule="nonzero"/></g></g></g><g clip-path="url(#5814dfd17a)"><g clip-path="url(#206c57cf8d)"><g clip-path="url(#8f60b627e0)"><path fill="#f9871a" d="M 454.25 161.167969 C 447.28125 162.824219 440.222656 164.265625 433.117188 165.515625 C 431.09375 163.066406 428.960938 160.769531 426.722656 158.648438 C 434.167969 157.671875 441.578125 156.496094 448.941406 155.070312 C 450.792969 156.984375 452.570312 159.015625 454.25 161.167969 " fill-opacity="1" fill-rule="nonzero"/></g></g></g><g clip-path="url(#766e449cb2)"><g clip-path="url(#9371f82591)"><g clip-path="url(#31714d2449)"><path fill="#f9871a" d="M 431.683594 141.71875 L 428.09375 143.074219 C 422.84375 144.964844 417.460938 146.527344 412.023438 147.78125 C 407.328125 145.117188 402.410156 142.984375 397.347656 141.402344 C 404.96875 140.292969 413.722656 138.464844 421.210938 136.832031 L 431.683594 141.71875 " fill-opacity="1" fill-rule="nonzero"/></g></g></g><g clip-path="url(#99125bdeb1)"><g clip-path="url(#7467c1f1f2)"><g clip-path="url(#4f9f159579)"><path fill="#f9871a" d="M 473.667969 215.011719 C 473.652344 214.75 473.636719 214.488281 473.617188 214.230469 C 473.636719 214.488281 473.65625 214.753906 473.667969 215.011719 " fill-opacity="1" fill-rule="nonzero"/></g></g></g><g clip-path="url(#aca8f62a7e)"><g clip-path="url(#75c59952a7)"><g clip-path="url(#0552ef4a8a)"><path fill="#f9871a" d="M 473.539062 213.308594 C 473.519531 213.117188 473.503906 212.921875 473.484375 212.730469 C 473.503906 212.921875 473.519531 213.117188 473.539062 213.308594 " fill-opacity="1" fill-rule="nonzero"/></g></g></g><g clip-path="url(#1c29321eca)"><g clip-path="url(#cc4ea5ae44)"><g clip-path="url(#d3fcf0dd54)"><path fill="#f9871a" d="M 473.566406 221.609375 C 473.492188 221.628906 473.414062 221.648438 473.34375 221.671875 C 473.414062 221.648438 473.488281 221.625 473.566406 221.605469 C 473.566406 221.605469 473.566406 221.605469 473.566406 221.609375 " fill-opacity="1" fill-rule="nonzero"/></g></g></g><g clip-path="url(#bdef48789d)"><g clip-path="url(#1fd2a60b4d)"><g clip-path="url(#73f7cae0cd)"><path fill="#f9871a" d="M 473.738281 216.617188 C 473.730469 216.335938 473.71875 216.054688 473.710938 215.777344 C 473.71875 216.054688 473.730469 216.335938 473.738281 216.617188 " fill-opacity="1" fill-rule="nonzero"/></g></g></g><g clip-path="url(#28b1df6e7d)"><g clip-path="url(#6f372e74c6)"><g clip-path="url(#534e128cc9)"><path fill="#f9871a" d="M 473.691406 219.878906 C 473.707031 219.632812 473.710938 219.402344 473.722656 219.160156 C 473.710938 219.402344 473.707031 219.632812 473.691406 219.878906 " fill-opacity="1" fill-rule="nonzero"/></g></g></g><g clip-path="url(#8f6730712b)"><g clip-path="url(#dd55d564b4)"><g clip-path="url(#82680c840e)"><path fill="#87cf34" d="M 314.023438 228.269531 C 314.429688 223.949219 315.113281 219.65625 315.402344 215.316406 C 368.210938 226.320312 421.207031 220.21875 472.859375 207.828125 C 473.546875 212.449219 474.03125 216.960938 473.566406 221.605469 C 473.488281 221.625 473.414062 221.648438 473.34375 221.671875 C 421.96875 236.054688 366.285156 238.484375 313.996094 228.792969 C 313.992188 228.609375 314.003906 228.460938 314.023438 228.269531 " fill-opacity="1" fill-rule="nonzero"/></g></g></g></svg>