<?xml version="1.0" encoding="UTF-8"?> <svg xmlns="http://www.w3.org/2000/svg" xmlns:xlink="http://www.w3.org/1999/xlink" width="500" zoomAndPan="magnify" viewBox="0 0 375 135.750003" height="181" preserveAspectRatio="xMidYMid meet" version="1.0"><defs><g></g><clipPath id="5759f96314"><path d="M 1.808594 23.054688 L 78.917969 23.054688 L 78.917969 100.164062 L 1.808594 100.164062 Z M 1.808594 23.054688 " clip-rule="nonzero"></path></clipPath><clipPath id="a2331c1194"><path d="M 0.808594 0.0546875 L 41 0.0546875 L 41 77 L 0.808594 77 Z M 0.808594 0.0546875 " clip-rule="nonzero"></path></clipPath><clipPath id="c6e89a4cd5"><path d="M 5 1 L 77.625 1 L 77.625 77 L 5 77 Z M 5 1 " clip-rule="nonzero"></path></clipPath><clipPath id="9518738139"><rect x="0" width="78" y="0" height="78"></rect></clipPath></defs><g clip-path="url(#5759f96314)"><g transform="matrix(1, 0, 0, 1, 1, 23)"><g clip-path="url(#9518738139)"><g clip-path="url(#a2331c1194)"><path fill="#4685f6" d="M 7.59375 0.0546875 L 40.523438 0.0546875 L 21.71875 39.046875 C 21.476562 39.53125 21.511719 40.082031 21.785156 40.527344 C 22.097656 41.011719 22.578125 41.285156 23.128906 41.285156 L 24.851562 41.285156 C 25.402344 41.285156 25.921875 41.5625 26.195312 42.078125 C 26.472656 42.5625 26.472656 43.148438 26.160156 43.628906 L 5.5625 76.59375 C 2.804688 75.734375 0.773438 73.113281 0.773438 70.082031 L 0.773438 6.910156 C 0.773438 3.121094 3.839844 0.0546875 7.59375 0.0546875 Z M 7.59375 0.0546875 " fill-opacity="1" fill-rule="evenodd"></path></g><g clip-path="url(#c6e89a4cd5)"><path fill="#3152f4" d="M 5.5625 76.59375 L 56.128906 30.574219 C 56.613281 30.125 56.785156 29.472656 56.542969 28.851562 C 56.300781 28.230469 55.75 27.851562 55.097656 27.851562 L 48.859375 27.816406 C 48.207031 27.816406 47.65625 27.4375 47.449219 26.820312 C 47.207031 26.199219 47.34375 25.542969 47.863281 25.097656 L 74.453125 1.15625 C 76.347656 2.363281 77.625 4.496094 77.625 6.910156 L 77.625 70.082031 C 77.625 73.839844 74.558594 76.90625 70.769531 76.90625 L 7.59375 76.90625 C 6.90625 76.90625 6.214844 76.800781 5.5625 76.59375 Z M 5.5625 76.59375 " fill-opacity="1" fill-rule="evenodd"></path></g></g></g></g><g fill="#222038" fill-opacity="1"><g transform="translate(80.876061, 78.170339)"><g><path d="M 24.734375 -28 C 24.578125 -29.539062 23.910156 -30.738281 22.734375 -31.59375 C 21.566406 -32.457031 19.992188 -32.890625 18.015625 -32.890625 C 15.984375 -32.890625 14.421875 -32.472656 13.328125 -31.640625 C 12.242188 -30.804688 11.703125 -29.757812 11.703125 -28.5 C 11.679688 -27.082031 12.285156 -26.015625 13.515625 -25.296875 C 14.753906 -24.578125 16.222656 -24.019531 17.921875 -23.625 L 21.453125 -22.78125 C 23.722656 -22.257812 25.742188 -21.515625 27.515625 -20.546875 C 29.296875 -19.578125 30.691406 -18.328125 31.703125 -16.796875 C 32.722656 -15.265625 33.234375 -13.40625 33.234375 -11.21875 C 33.222656 -7.625 31.875 -4.757812 29.1875 -2.625 C 26.507812 -0.5 22.773438 0.5625 17.984375 0.5625 C 13.210938 0.5625 9.40625 -0.523438 6.5625 -2.703125 C 3.71875 -4.878906 2.25 -8.09375 2.15625 -12.34375 L 10.1875 -12.34375 C 10.332031 -10.363281 11.109375 -8.878906 12.515625 -7.890625 C 13.929688 -6.898438 15.71875 -6.40625 17.875 -6.40625 C 19.988281 -6.40625 21.675781 -6.851562 22.9375 -7.75 C 24.195312 -8.644531 24.832031 -9.8125 24.84375 -11.25 C 24.832031 -12.570312 24.25 -13.59375 23.09375 -14.3125 C 21.945312 -15.03125 20.304688 -15.644531 18.171875 -16.15625 L 13.890625 -17.234375 C 10.578125 -18.023438 7.960938 -19.28125 6.046875 -21 C 4.128906 -22.726562 3.175781 -25.039062 3.1875 -27.9375 C 3.175781 -30.3125 3.8125 -32.390625 5.09375 -34.171875 C 6.375 -35.960938 8.140625 -37.351562 10.390625 -38.34375 C 12.648438 -39.332031 15.210938 -39.828125 18.078125 -39.828125 C 20.992188 -39.828125 23.539062 -39.328125 25.71875 -38.328125 C 27.894531 -37.335938 29.59375 -35.953125 30.8125 -34.171875 C 32.03125 -32.390625 32.65625 -30.332031 32.6875 -28 Z M 24.734375 -28 "></path></g></g></g><g fill="#222038" fill-opacity="1"><g transform="translate(114.905295, 78.170339)"><g><path d="M 27.75 -39.296875 L 36 -39.296875 L 36 -13.3125 C 36 -10.34375 35.300781 -7.828125 33.90625 -5.765625 C 32.507812 -3.703125 30.585938 -2.128906 28.140625 -1.046875 C 25.691406 0.0234375 22.878906 0.5625 19.703125 0.5625 C 16.535156 0.5625 13.722656 0.0234375 11.265625 -1.046875 C 8.804688 -2.128906 6.882812 -3.703125 5.5 -5.765625 C 4.113281 -7.828125 3.421875 -10.34375 3.421875 -13.3125 L 3.421875 -39.296875 L 11.71875 -39.296875 L 11.71875 -13.609375 C 11.71875 -11.503906 12.472656 -9.847656 13.984375 -8.640625 C 15.503906 -7.441406 17.410156 -6.84375 19.703125 -6.84375 C 22.035156 -6.84375 23.957031 -7.441406 25.46875 -8.640625 C 26.988281 -9.847656 27.75 -11.503906 27.75 -13.609375 Z M 27.75 -39.296875 "></path></g></g></g><g fill="#222038" fill-opacity="1"><g transform="translate(152.963726, 78.170339)"><g><path d="M 3.421875 0 L 3.421875 -39.296875 L 18.921875 -39.296875 C 21.898438 -39.296875 24.4375 -38.726562 26.53125 -37.59375 C 28.632812 -36.46875 30.238281 -34.898438 31.34375 -32.890625 C 32.445312 -30.890625 33 -28.585938 33 -25.984375 C 33 -23.367188 32.4375 -21.066406 31.3125 -19.078125 C 30.1875 -17.085938 28.554688 -15.53125 26.421875 -14.40625 C 24.296875 -13.289062 21.722656 -12.734375 18.703125 -12.734375 L 11.71875 -12.734375 L 11.71875 0 Z M 11.71875 -19.390625 L 17.359375 -19.390625 C 19.742188 -19.390625 21.519531 -20 22.6875 -21.21875 C 23.851562 -22.445312 24.4375 -24.035156 24.4375 -25.984375 C 24.4375 -27.941406 23.851562 -29.515625 22.6875 -30.703125 C 21.519531 -31.898438 19.734375 -32.5 17.328125 -32.5 L 11.71875 -32.5 Z M 11.71875 -19.390625 "></path></g></g></g><g fill="#222038" fill-opacity="1"><g transform="translate(186.609237, 78.170339)"><g><path d="M 3.421875 0 L 3.421875 -39.296875 L 18.921875 -39.296875 C 21.898438 -39.296875 24.4375 -38.726562 26.53125 -37.59375 C 28.632812 -36.46875 30.238281 -34.898438 31.34375 -32.890625 C 32.445312 -30.890625 33 -28.585938 33 -25.984375 C 33 -23.367188 32.4375 -21.066406 31.3125 -19.078125 C 30.1875 -17.085938 28.554688 -15.53125 26.421875 -14.40625 C 24.296875 -13.289062 21.722656 -12.734375 18.703125 -12.734375 L 11.71875 -12.734375 L 11.71875 0 Z M 11.71875 -19.390625 L 17.359375 -19.390625 C 19.742188 -19.390625 21.519531 -20 22.6875 -21.21875 C 23.851562 -22.445312 24.4375 -24.035156 24.4375 -25.984375 C 24.4375 -27.941406 23.851562 -29.515625 22.6875 -30.703125 C 21.519531 -31.898438 19.734375 -32.5 17.328125 -32.5 L 11.71875 -32.5 Z M 11.71875 -19.390625 "></path></g></g></g><g fill="#222038" fill-opacity="1"><g transform="translate(220.254747, 78.170339)"><g><path d="M 3.421875 0 L 3.421875 -39.296875 L 11.71875 -39.296875 L 11.71875 -6.84375 L 28.5625 -6.84375 L 28.5625 0 Z M 3.421875 0 "></path></g></g></g><g fill="#222038" fill-opacity="1"><g transform="translate(249.564078, 78.170339)"><g><path d="M 11.71875 -39.296875 L 11.71875 0 L 3.421875 0 L 3.421875 -39.296875 Z M 11.71875 -39.296875 "></path></g></g></g><g fill="#222038" fill-opacity="1"><g transform="translate(263.37061, 78.170339)"><g><path d="M 3 0 L 3 -4.9375 L 22.609375 -32.453125 L 2.953125 -32.453125 L 2.953125 -39.296875 L 33.046875 -39.296875 L 33.046875 -34.359375 L 13.40625 -6.84375 L 33.078125 -6.84375 L 33.078125 0 Z M 3 0 "></path></g></g></g><g fill="#222038" fill-opacity="1"><g transform="translate(298.05218, 78.170339)"><g><path d="M 10.1875 0 L 1.28125 0 L 14.84375 -39.296875 L 25.5625 -39.296875 L 39.109375 0 L 30.203125 0 L 27.28125 -8.953125 L 13.109375 -8.953125 Z M 15.21875 -15.453125 L 25.1875 -15.453125 L 20.359375 -30.3125 L 20.046875 -30.3125 Z M 15.21875 -15.453125 "></path></g></g></g><g fill="#222038" fill-opacity="1"><g transform="translate(337.108335, 78.170339)"><g><path d="M 3.421875 0 L 3.421875 -39.296875 L 18.921875 -39.296875 C 23.378906 -39.296875 26.835938 -38.128906 29.296875 -35.796875 C 31.765625 -33.472656 33 -30.359375 33 -26.453125 C 33 -23.773438 32.398438 -21.484375 31.203125 -19.578125 C 30.003906 -17.671875 28.289062 -16.234375 26.0625 -15.265625 L 34.40625 0 L 25.234375 0 L 17.78125 -13.9375 L 11.71875 -13.9375 L 11.71875 0 Z M 11.71875 -20.609375 L 17.359375 -20.609375 C 22.078125 -20.609375 24.4375 -22.554688 24.4375 -26.453125 C 24.4375 -30.484375 22.066406 -32.5 17.328125 -32.5 L 11.71875 -32.5 Z M 11.71875 -20.609375 "></path></g></g></g><g fill="#9493a2" fill-opacity="1"><g transform="translate(93.838936, 97.645916)"><g><path d="M 1.5 0 L 1.5 -12.34375 L 8.9375 -12.34375 L 8.9375 -11.015625 L 2.984375 -11.015625 L 2.984375 -6.84375 L 8.5625 -6.84375 L 8.5625 -5.515625 L 2.984375 -5.515625 L 2.984375 -1.328125 L 9.03125 -1.328125 L 9.03125 0 Z M 1.5 0 "></path></g></g></g><g fill="#9493a2" fill-opacity="1"><g transform="translate(103.47258, 97.645916)"><g><path d="M 2.71875 -5.5625 L 2.71875 0 L 1.296875 0 L 1.296875 -9.25 L 2.671875 -9.25 L 2.671875 -7.8125 L 2.796875 -7.8125 C 3.015625 -8.28125 3.34375 -8.65625 3.78125 -8.9375 C 4.226562 -9.226562 4.800781 -9.375 5.5 -9.375 C 6.4375 -9.375 7.191406 -9.085938 7.765625 -8.515625 C 8.335938 -7.941406 8.625 -7.0625 8.625 -5.875 L 8.625 0 L 7.203125 0 L 7.203125 -5.78125 C 7.203125 -6.507812 7.015625 -7.078125 6.640625 -7.484375 C 6.265625 -7.890625 5.742188 -8.09375 5.078125 -8.09375 C 4.398438 -8.09375 3.835938 -7.875 3.390625 -7.4375 C 2.941406 -7 2.71875 -6.375 2.71875 -5.5625 Z M 2.71875 -5.5625 "></path></g></g></g><g fill="#9493a2" fill-opacity="1"><g transform="translate(112.889404, 97.645916)"><g><path d="M 5.1875 0.1875 C 4.289062 0.1875 3.519531 -0.0078125 2.875 -0.40625 C 2.226562 -0.800781 1.734375 -1.351562 1.390625 -2.0625 C 1.046875 -2.78125 0.875 -3.613281 0.875 -4.5625 C 0.875 -5.507812 1.046875 -6.34375 1.390625 -7.0625 C 1.734375 -7.789062 2.21875 -8.359375 2.84375 -8.765625 C 3.46875 -9.171875 4.195312 -9.375 5.03125 -9.375 C 5.519531 -9.375 6 -9.289062 6.46875 -9.125 C 6.9375 -8.96875 7.363281 -8.707031 7.75 -8.34375 C 8.132812 -7.988281 8.441406 -7.515625 8.671875 -6.921875 C 8.898438 -6.335938 9.015625 -5.613281 9.015625 -4.75 L 9.015625 -4.140625 L 2.296875 -4.140625 C 2.328125 -3.148438 2.601562 -2.390625 3.125 -1.859375 C 3.65625 -1.335938 4.34375 -1.078125 5.1875 -1.078125 C 5.738281 -1.078125 6.210938 -1.195312 6.609375 -1.4375 C 7.015625 -1.6875 7.3125 -2.050781 7.5 -2.53125 L 8.875 -2.140625 C 8.65625 -1.441406 8.21875 -0.878906 7.5625 -0.453125 C 6.914062 -0.0234375 6.125 0.1875 5.1875 0.1875 Z M 2.296875 -5.375 L 7.5625 -5.375 C 7.5625 -6.15625 7.332031 -6.800781 6.875 -7.3125 C 6.414062 -7.832031 5.800781 -8.09375 5.03125 -8.09375 C 4.488281 -8.09375 4.019531 -7.96875 3.625 -7.71875 C 3.226562 -7.46875 2.914062 -7.132812 2.6875 -6.71875 C 2.457031 -6.300781 2.328125 -5.851562 2.296875 -5.375 Z M 2.296875 -5.375 "></path></g></g></g><g fill="#9493a2" fill-opacity="1"><g transform="translate(122.258045, 97.645916)"><g><path d="M 1.296875 0 L 1.296875 -9.25 L 2.671875 -9.25 L 2.671875 -7.859375 L 2.765625 -7.859375 C 2.929688 -8.316406 3.234375 -8.6875 3.671875 -8.96875 C 4.117188 -9.257812 4.625 -9.40625 5.1875 -9.40625 C 5.4375 -9.40625 5.65625 -9.375 5.84375 -9.3125 C 6.039062 -9.25 6.210938 -9.164062 6.359375 -9.0625 L 5.875 -7.859375 C 5.78125 -7.910156 5.664062 -7.953125 5.53125 -7.984375 C 5.394531 -8.015625 5.238281 -8.03125 5.0625 -8.03125 C 4.382812 -8.03125 3.820312 -7.820312 3.375 -7.40625 C 2.9375 -7 2.71875 -6.484375 2.71875 -5.859375 L 2.71875 0 Z M 1.296875 0 "></path></g></g></g><g fill="#9493a2" fill-opacity="1"><g transform="translate(128.253812, 97.645916)"><g><path d="M 5.03125 3.65625 C 4 3.65625 3.179688 3.46875 2.578125 3.09375 C 1.984375 2.71875 1.539062 2.289062 1.25 1.8125 L 2.390625 1.015625 C 2.515625 1.179688 2.675781 1.375 2.875 1.59375 C 3.070312 1.8125 3.34375 2 3.6875 2.15625 C 4.03125 2.320312 4.476562 2.40625 5.03125 2.40625 C 5.78125 2.40625 6.394531 2.222656 6.875 1.859375 C 7.363281 1.503906 7.609375 0.941406 7.609375 0.171875 L 7.609375 -1.71875 L 7.5 -1.71875 C 7.394531 -1.539062 7.242188 -1.328125 7.046875 -1.078125 C 6.859375 -0.835938 6.585938 -0.617188 6.234375 -0.421875 C 5.878906 -0.234375 5.398438 -0.140625 4.796875 -0.140625 C 4.046875 -0.140625 3.375 -0.316406 2.78125 -0.671875 C 2.1875 -1.023438 1.71875 -1.539062 1.375 -2.21875 C 1.039062 -2.894531 0.875 -3.710938 0.875 -4.671875 C 0.875 -5.617188 1.039062 -6.445312 1.375 -7.15625 C 1.707031 -7.863281 2.171875 -8.410156 2.765625 -8.796875 C 3.359375 -9.179688 4.046875 -9.375 4.828125 -9.375 C 5.421875 -9.375 5.894531 -9.273438 6.25 -9.078125 C 6.613281 -8.878906 6.890625 -8.65625 7.078125 -8.40625 C 7.265625 -8.15625 7.410156 -7.945312 7.515625 -7.78125 L 7.671875 -7.78125 L 7.671875 -9.25 L 9.03125 -9.25 L 9.03125 0.265625 C 9.03125 1.054688 8.847656 1.703125 8.484375 2.203125 C 8.128906 2.703125 7.648438 3.066406 7.046875 3.296875 C 6.441406 3.535156 5.769531 3.65625 5.03125 3.65625 Z M 4.984375 -1.421875 C 5.835938 -1.421875 6.492188 -1.707031 6.953125 -2.28125 C 7.410156 -2.863281 7.640625 -3.671875 7.640625 -4.703125 C 7.640625 -5.703125 7.414062 -6.515625 6.96875 -7.140625 C 6.519531 -7.773438 5.859375 -8.09375 4.984375 -8.09375 C 4.378906 -8.09375 3.878906 -7.941406 3.484375 -7.640625 C 3.085938 -7.335938 2.789062 -6.925781 2.59375 -6.40625 C 2.394531 -5.894531 2.296875 -5.328125 2.296875 -4.703125 C 2.296875 -3.734375 2.519531 -2.941406 2.96875 -2.328125 C 3.425781 -1.722656 4.097656 -1.421875 4.984375 -1.421875 Z M 4.984375 -1.421875 "></path></g></g></g><g fill="#9493a2" fill-opacity="1"><g transform="translate(138.080198, 97.645916)"><g><path d="M 1.296875 0 L 1.296875 -9.25 L 2.71875 -9.25 L 2.71875 0 Z M 2.03125 -10.796875 C 1.75 -10.796875 1.507812 -10.890625 1.3125 -11.078125 C 1.113281 -11.265625 1.015625 -11.492188 1.015625 -11.765625 C 1.015625 -12.023438 1.113281 -12.25 1.3125 -12.4375 C 1.507812 -12.625 1.75 -12.71875 2.03125 -12.71875 C 2.300781 -12.71875 2.535156 -12.625 2.734375 -12.4375 C 2.929688 -12.25 3.03125 -12.023438 3.03125 -11.765625 C 3.03125 -11.492188 2.929688 -11.265625 2.734375 -11.078125 C 2.535156 -10.890625 2.300781 -10.796875 2.03125 -10.796875 Z M 2.03125 -10.796875 "></path></g></g></g><g fill="#9493a2" fill-opacity="1"><g transform="translate(141.594489, 97.645916)"><g><path d="M 1.03125 0 L 1.03125 -1.078125 L 6.296875 -7.828125 L 6.296875 -7.9375 L 1.203125 -7.9375 L 1.203125 -9.25 L 8.125 -9.25 L 8.125 -8.125 L 3.015625 -1.421875 L 3.015625 -1.328125 L 8.296875 -1.328125 L 8.296875 0 Z M 1.03125 0 "></path></g></g></g><g fill="#9493a2" fill-opacity="1"><g transform="translate(150.264462, 97.645916)"><g><path d="M 5.1875 0.1875 C 4.289062 0.1875 3.519531 -0.0078125 2.875 -0.40625 C 2.226562 -0.800781 1.734375 -1.351562 1.390625 -2.0625 C 1.046875 -2.78125 0.875 -3.613281 0.875 -4.5625 C 0.875 -5.507812 1.046875 -6.34375 1.390625 -7.0625 C 1.734375 -7.789062 2.21875 -8.359375 2.84375 -8.765625 C 3.46875 -9.171875 4.195312 -9.375 5.03125 -9.375 C 5.519531 -9.375 6 -9.289062 6.46875 -9.125 C 6.9375 -8.96875 7.363281 -8.707031 7.75 -8.34375 C 8.132812 -7.988281 8.441406 -7.515625 8.671875 -6.921875 C 8.898438 -6.335938 9.015625 -5.613281 9.015625 -4.75 L 9.015625 -4.140625 L 2.296875 -4.140625 C 2.328125 -3.148438 2.601562 -2.390625 3.125 -1.859375 C 3.65625 -1.335938 4.34375 -1.078125 5.1875 -1.078125 C 5.738281 -1.078125 6.210938 -1.195312 6.609375 -1.4375 C 7.015625 -1.6875 7.3125 -2.050781 7.5 -2.53125 L 8.875 -2.140625 C 8.65625 -1.441406 8.21875 -0.878906 7.5625 -0.453125 C 6.914062 -0.0234375 6.125 0.1875 5.1875 0.1875 Z M 2.296875 -5.375 L 7.5625 -5.375 C 7.5625 -6.15625 7.332031 -6.800781 6.875 -7.3125 C 6.414062 -7.832031 5.800781 -8.09375 5.03125 -8.09375 C 4.488281 -8.09375 4.019531 -7.96875 3.625 -7.71875 C 3.226562 -7.46875 2.914062 -7.132812 2.6875 -6.71875 C 2.457031 -6.300781 2.328125 -5.851562 2.296875 -5.375 Z M 2.296875 -5.375 "></path></g></g></g><g fill="#9493a2" fill-opacity="1"><g transform="translate(159.633103, 97.645916)"><g></g></g></g><g fill="#9493a2" fill-opacity="1"><g transform="translate(163.894245, 97.645916)"><g><path d="M 0.4375 -12.34375 L 2.140625 -12.34375 L 5.5625 -6.578125 L 5.71875 -6.578125 L 9.140625 -12.34375 L 10.84375 -12.34375 L 6.390625 -5.078125 L 6.390625 0 L 4.890625 0 L 4.890625 -5.078125 Z M 0.4375 -12.34375 "></path></g></g></g><g fill="#9493a2" fill-opacity="1"><g transform="translate(174.660212, 97.645916)"><g><path d="M 5.0625 0.1875 C 4.226562 0.1875 3.492188 -0.0078125 2.859375 -0.40625 C 2.234375 -0.800781 1.742188 -1.351562 1.390625 -2.0625 C 1.046875 -2.78125 0.875 -3.617188 0.875 -4.578125 C 0.875 -5.546875 1.046875 -6.390625 1.390625 -7.109375 C 1.742188 -7.828125 2.234375 -8.382812 2.859375 -8.78125 C 3.492188 -9.175781 4.226562 -9.375 5.0625 -9.375 C 5.894531 -9.375 6.625 -9.175781 7.25 -8.78125 C 7.882812 -8.382812 8.375 -7.828125 8.71875 -7.109375 C 9.070312 -6.390625 9.25 -5.546875 9.25 -4.578125 C 9.25 -3.617188 9.070312 -2.78125 8.71875 -2.0625 C 8.375 -1.351562 7.882812 -0.800781 7.25 -0.40625 C 6.625 -0.0078125 5.894531 0.1875 5.0625 0.1875 Z M 5.0625 -1.078125 C 5.695312 -1.078125 6.21875 -1.238281 6.625 -1.5625 C 7.039062 -1.894531 7.34375 -2.328125 7.53125 -2.859375 C 7.726562 -3.390625 7.828125 -3.960938 7.828125 -4.578125 C 7.828125 -5.191406 7.726562 -5.765625 7.53125 -6.296875 C 7.34375 -6.835938 7.039062 -7.269531 6.625 -7.59375 C 6.21875 -7.925781 5.695312 -8.09375 5.0625 -8.09375 C 4.425781 -8.09375 3.898438 -7.925781 3.484375 -7.59375 C 3.078125 -7.269531 2.773438 -6.835938 2.578125 -6.296875 C 2.390625 -5.765625 2.296875 -5.191406 2.296875 -4.578125 C 2.296875 -3.960938 2.390625 -3.390625 2.578125 -2.859375 C 2.773438 -2.328125 3.078125 -1.894531 3.484375 -1.5625 C 3.898438 -1.238281 4.425781 -1.078125 5.0625 -1.078125 Z M 5.0625 -1.078125 "></path></g></g></g><g fill="#9493a2" fill-opacity="1"><g transform="translate(184.269765, 97.645916)"><g><path d="M 7.140625 -3.78125 L 7.140625 -9.25 L 8.5625 -9.25 L 8.5625 0 L 7.140625 0 L 7.140625 -1.5625 L 7.03125 -1.5625 C 6.820312 -1.09375 6.488281 -0.691406 6.03125 -0.359375 C 5.570312 -0.0351562 4.992188 0.125 4.296875 0.125 C 3.421875 0.125 2.703125 -0.160156 2.140625 -0.734375 C 1.578125 -1.316406 1.296875 -2.195312 1.296875 -3.375 L 1.296875 -9.25 L 2.71875 -9.25 L 2.71875 -3.46875 C 2.71875 -2.789062 2.90625 -2.25 3.28125 -1.84375 C 3.664062 -1.445312 4.15625 -1.25 4.75 -1.25 C 5.101562 -1.25 5.460938 -1.335938 5.828125 -1.515625 C 6.191406 -1.703125 6.5 -1.984375 6.75 -2.359375 C 7.007812 -2.734375 7.140625 -3.207031 7.140625 -3.78125 Z M 7.140625 -3.78125 "></path></g></g></g><g fill="#9493a2" fill-opacity="1"><g transform="translate(193.614315, 97.645916)"><g><path d="M 1.296875 0 L 1.296875 -9.25 L 2.671875 -9.25 L 2.671875 -7.859375 L 2.765625 -7.859375 C 2.929688 -8.316406 3.234375 -8.6875 3.671875 -8.96875 C 4.117188 -9.257812 4.625 -9.40625 5.1875 -9.40625 C 5.4375 -9.40625 5.65625 -9.375 5.84375 -9.3125 C 6.039062 -9.25 6.210938 -9.164062 6.359375 -9.0625 L 5.875 -7.859375 C 5.78125 -7.910156 5.664062 -7.953125 5.53125 -7.984375 C 5.394531 -8.015625 5.238281 -8.03125 5.0625 -8.03125 C 4.382812 -8.03125 3.820312 -7.820312 3.375 -7.40625 C 2.9375 -7 2.71875 -6.484375 2.71875 -5.859375 L 2.71875 0 Z M 1.296875 0 "></path></g></g></g><g fill="#9493a2" fill-opacity="1"><g transform="translate(199.610082, 97.645916)"><g></g></g></g><g fill="#9493a2" fill-opacity="1"><g transform="translate(203.871224, 97.645916)"><g><path d="M 3.734375 0 L 0.359375 -12.34375 L 1.875 -12.34375 L 4.453125 -2.296875 L 4.578125 -2.296875 L 7.203125 -12.34375 L 8.890625 -12.34375 L 11.515625 -2.296875 L 11.640625 -2.296875 L 14.21875 -12.34375 L 15.734375 -12.34375 L 12.359375 0 L 10.828125 0 L 8.09375 -9.828125 L 8 -9.828125 L 5.28125 0 Z M 3.734375 0 "></path></g></g></g><g fill="#9493a2" fill-opacity="1"><g transform="translate(219.455583, 97.645916)"><g><path d="M 5.0625 0.1875 C 4.226562 0.1875 3.492188 -0.0078125 2.859375 -0.40625 C 2.234375 -0.800781 1.742188 -1.351562 1.390625 -2.0625 C 1.046875 -2.78125 0.875 -3.617188 0.875 -4.578125 C 0.875 -5.546875 1.046875 -6.390625 1.390625 -7.109375 C 1.742188 -7.828125 2.234375 -8.382812 2.859375 -8.78125 C 3.492188 -9.175781 4.226562 -9.375 5.0625 -9.375 C 5.894531 -9.375 6.625 -9.175781 7.25 -8.78125 C 7.882812 -8.382812 8.375 -7.828125 8.71875 -7.109375 C 9.070312 -6.390625 9.25 -5.546875 9.25 -4.578125 C 9.25 -3.617188 9.070312 -2.78125 8.71875 -2.0625 C 8.375 -1.351562 7.882812 -0.800781 7.25 -0.40625 C 6.625 -0.0078125 5.894531 0.1875 5.0625 0.1875 Z M 5.0625 -1.078125 C 5.695312 -1.078125 6.21875 -1.238281 6.625 -1.5625 C 7.039062 -1.894531 7.34375 -2.328125 7.53125 -2.859375 C 7.726562 -3.390625 7.828125 -3.960938 7.828125 -4.578125 C 7.828125 -5.191406 7.726562 -5.765625 7.53125 -6.296875 C 7.34375 -6.835938 7.039062 -7.269531 6.625 -7.59375 C 6.21875 -7.925781 5.695312 -8.09375 5.0625 -8.09375 C 4.425781 -8.09375 3.898438 -7.925781 3.484375 -7.59375 C 3.078125 -7.269531 2.773438 -6.835938 2.578125 -6.296875 C 2.390625 -5.765625 2.296875 -5.191406 2.296875 -4.578125 C 2.296875 -3.960938 2.390625 -3.390625 2.578125 -2.859375 C 2.773438 -2.328125 3.078125 -1.894531 3.484375 -1.5625 C 3.898438 -1.238281 4.425781 -1.078125 5.0625 -1.078125 Z M 5.0625 -1.078125 "></path></g></g></g><g fill="#9493a2" fill-opacity="1"><g transform="translate(229.065136, 97.645916)"><g><path d="M 1.296875 0 L 1.296875 -9.25 L 2.671875 -9.25 L 2.671875 -7.859375 L 2.765625 -7.859375 C 2.929688 -8.316406 3.234375 -8.6875 3.671875 -8.96875 C 4.117188 -9.257812 4.625 -9.40625 5.1875 -9.40625 C 5.4375 -9.40625 5.65625 -9.375 5.84375 -9.3125 C 6.039062 -9.25 6.210938 -9.164062 6.359375 -9.0625 L 5.875 -7.859375 C 5.78125 -7.910156 5.664062 -7.953125 5.53125 -7.984375 C 5.394531 -8.015625 5.238281 -8.03125 5.0625 -8.03125 C 4.382812 -8.03125 3.820312 -7.820312 3.375 -7.40625 C 2.9375 -7 2.71875 -6.484375 2.71875 -5.859375 L 2.71875 0 Z M 1.296875 0 "></path></g></g></g><g fill="#9493a2" fill-opacity="1"><g transform="translate(235.060904, 97.645916)"><g><path d="M 2.71875 -12.34375 L 2.71875 0 L 1.296875 0 L 1.296875 -12.34375 Z M 2.71875 -12.34375 "></path></g></g></g><g fill="#9493a2" fill-opacity="1"><g transform="translate(238.575195, 97.645916)"><g><path d="M 4.796875 0.1875 C 4.023438 0.1875 3.34375 -0.00390625 2.75 -0.390625 C 2.164062 -0.785156 1.707031 -1.34375 1.375 -2.0625 C 1.039062 -2.78125 0.875 -3.628906 0.875 -4.609375 C 0.875 -5.578125 1.039062 -6.414062 1.375 -7.125 C 1.707031 -7.84375 2.171875 -8.394531 2.765625 -8.78125 C 3.359375 -9.175781 4.046875 -9.375 4.828125 -9.375 C 5.421875 -9.375 5.894531 -9.273438 6.25 -9.078125 C 6.601562 -8.878906 6.875 -8.65625 7.0625 -8.40625 C 7.25 -8.15625 7.394531 -7.945312 7.5 -7.78125 L 7.609375 -7.78125 L 7.609375 -12.34375 L 9.03125 -12.34375 L 9.03125 0 L 7.671875 0 L 7.671875 -1.421875 L 7.5 -1.421875 C 7.394531 -1.253906 7.242188 -1.039062 7.046875 -0.78125 C 6.859375 -0.53125 6.582031 -0.304688 6.21875 -0.109375 C 5.863281 0.0859375 5.390625 0.1875 4.796875 0.1875 Z M 4.984375 -1.078125 C 5.835938 -1.078125 6.492188 -1.40625 6.953125 -2.0625 C 7.410156 -2.726562 7.640625 -3.582031 7.640625 -4.625 C 7.640625 -5.664062 7.414062 -6.503906 6.96875 -7.140625 C 6.519531 -7.773438 5.859375 -8.09375 4.984375 -8.09375 C 4.378906 -8.09375 3.878906 -7.9375 3.484375 -7.625 C 3.085938 -7.320312 2.789062 -6.910156 2.59375 -6.390625 C 2.394531 -5.867188 2.296875 -5.28125 2.296875 -4.625 C 2.296875 -3.96875 2.394531 -3.367188 2.59375 -2.828125 C 2.789062 -2.296875 3.085938 -1.867188 3.484375 -1.546875 C 3.890625 -1.234375 4.390625 -1.078125 4.984375 -1.078125 Z M 4.984375 -1.078125 "></path></g></g></g><g fill="#9493a2" fill-opacity="1"><g transform="translate(248.59431, 97.645916)"><g></g></g></g><g fill="#9493a2" fill-opacity="1"><g transform="translate(252.855453, 97.645916)"><g><path d="M 3.734375 0 L 0.359375 -12.34375 L 1.875 -12.34375 L 4.453125 -2.296875 L 4.578125 -2.296875 L 7.203125 -12.34375 L 8.890625 -12.34375 L 11.515625 -2.296875 L 11.640625 -2.296875 L 14.21875 -12.34375 L 15.734375 -12.34375 L 12.359375 0 L 10.828125 0 L 8.09375 -9.828125 L 8 -9.828125 L 5.28125 0 Z M 3.734375 0 "></path></g></g></g><g fill="#9493a2" fill-opacity="1"><g transform="translate(268.439812, 97.645916)"><g><path d="M 1.296875 0 L 1.296875 -9.25 L 2.71875 -9.25 L 2.71875 0 Z M 2.03125 -10.796875 C 1.75 -10.796875 1.507812 -10.890625 1.3125 -11.078125 C 1.113281 -11.265625 1.015625 -11.492188 1.015625 -11.765625 C 1.015625 -12.023438 1.113281 -12.25 1.3125 -12.4375 C 1.507812 -12.625 1.75 -12.71875 2.03125 -12.71875 C 2.300781 -12.71875 2.535156 -12.625 2.734375 -12.4375 C 2.929688 -12.25 3.03125 -12.023438 3.03125 -11.765625 C 3.03125 -11.492188 2.929688 -11.265625 2.734375 -11.078125 C 2.535156 -10.890625 2.300781 -10.796875 2.03125 -10.796875 Z M 2.03125 -10.796875 "></path></g></g></g><g fill="#9493a2" fill-opacity="1"><g transform="translate(271.954103, 97.645916)"><g><path d="M 5.328125 -9.25 L 5.328125 -8.046875 L 3.34375 -8.046875 L 3.34375 -2.65625 C 3.34375 -2.25 3.398438 -1.945312 3.515625 -1.75 C 3.640625 -1.550781 3.796875 -1.414062 3.984375 -1.34375 C 4.171875 -1.28125 4.367188 -1.25 4.578125 -1.25 C 4.734375 -1.25 4.859375 -1.257812 4.953125 -1.28125 C 5.054688 -1.300781 5.140625 -1.316406 5.203125 -1.328125 L 5.5 -0.046875 C 5.394531 -0.015625 5.253906 0.0195312 5.078125 0.0625 C 4.910156 0.101562 4.695312 0.125 4.4375 0.125 C 4.03125 0.125 3.632812 0.0390625 3.25 -0.125 C 2.875 -0.300781 2.554688 -0.566406 2.296875 -0.921875 C 2.046875 -1.273438 1.921875 -1.722656 1.921875 -2.265625 L 1.921875 -8.046875 L 0.53125 -8.046875 L 0.53125 -9.25 L 1.921875 -9.25 L 1.921875 -11.46875 L 3.34375 -11.46875 L 3.34375 -9.25 Z M 5.328125 -9.25 "></path></g></g></g><g fill="#9493a2" fill-opacity="1"><g transform="translate(277.612582, 97.645916)"><g><path d="M 2.71875 -5.5625 L 2.71875 0 L 1.296875 0 L 1.296875 -12.34375 L 2.71875 -12.34375 L 2.71875 -7.8125 L 2.84375 -7.8125 C 3.0625 -8.289062 3.390625 -8.671875 3.828125 -8.953125 C 4.265625 -9.234375 4.84375 -9.375 5.5625 -9.375 C 6.507812 -9.375 7.269531 -9.085938 7.84375 -8.515625 C 8.425781 -7.953125 8.71875 -7.070312 8.71875 -5.875 L 8.71875 0 L 7.296875 0 L 7.296875 -5.78125 C 7.296875 -6.519531 7.109375 -7.085938 6.734375 -7.484375 C 6.359375 -7.890625 5.832031 -8.09375 5.15625 -8.09375 C 4.457031 -8.09375 3.875 -7.875 3.40625 -7.4375 C 2.945312 -7 2.71875 -6.375 2.71875 -5.5625 Z M 2.71875 -5.5625 "></path></g></g></g><g fill="#9493a2" fill-opacity="1"><g transform="translate(287.12577, 97.645916)"><g></g></g></g><g fill="#9493a2" fill-opacity="1"><g transform="translate(291.386912, 97.645916)"><g><path d="M 8.25 -9.25 C 8.175781 -9.863281 7.878906 -10.335938 7.359375 -10.671875 C 6.847656 -11.015625 6.21875 -11.1875 5.46875 -11.1875 C 4.644531 -11.1875 3.984375 -10.988281 3.484375 -10.59375 C 2.992188 -10.207031 2.75 -9.722656 2.75 -9.140625 C 2.75 -8.691406 2.882812 -8.332031 3.15625 -8.0625 C 3.425781 -7.789062 3.742188 -7.578125 4.109375 -7.421875 C 4.484375 -7.273438 4.828125 -7.164062 5.140625 -7.09375 L 6.390625 -6.75 C 6.710938 -6.664062 7.070312 -6.546875 7.46875 -6.390625 C 7.863281 -6.242188 8.238281 -6.039062 8.59375 -5.78125 C 8.957031 -5.53125 9.257812 -5.207031 9.5 -4.8125 C 9.738281 -4.414062 9.859375 -3.925781 9.859375 -3.34375 C 9.859375 -2.675781 9.679688 -2.070312 9.328125 -1.53125 C 8.984375 -1 8.476562 -0.570312 7.8125 -0.25 C 7.15625 0.0625 6.351562 0.21875 5.40625 0.21875 C 4.070312 0.21875 3.015625 -0.09375 2.234375 -0.71875 C 1.460938 -1.34375 1.039062 -2.164062 0.96875 -3.1875 L 2.5 -3.1875 C 2.539062 -2.71875 2.695312 -2.332031 2.96875 -2.03125 C 3.25 -1.726562 3.597656 -1.503906 4.015625 -1.359375 C 4.441406 -1.210938 4.90625 -1.140625 5.40625 -1.140625 C 5.96875 -1.140625 6.472656 -1.226562 6.921875 -1.40625 C 7.378906 -1.59375 7.738281 -1.851562 8 -2.1875 C 8.269531 -2.53125 8.40625 -2.925781 8.40625 -3.375 C 8.40625 -3.78125 8.289062 -4.113281 8.0625 -4.375 C 7.832031 -4.632812 7.53125 -4.84375 7.15625 -5 C 6.789062 -5.164062 6.390625 -5.304688 5.953125 -5.421875 L 4.4375 -5.859375 C 3.46875 -6.128906 2.703125 -6.519531 2.140625 -7.03125 C 1.578125 -7.550781 1.296875 -8.226562 1.296875 -9.0625 C 1.296875 -9.75 1.484375 -10.347656 1.859375 -10.859375 C 2.234375 -11.378906 2.738281 -11.785156 3.375 -12.078125 C 4.019531 -12.367188 4.734375 -12.515625 5.515625 -12.515625 C 6.316406 -12.515625 7.023438 -12.367188 7.640625 -12.078125 C 8.253906 -11.796875 8.742188 -11.410156 9.109375 -10.921875 C 9.472656 -10.429688 9.664062 -9.875 9.6875 -9.25 Z M 8.25 -9.25 "></path></g></g></g><g fill="#9493a2" fill-opacity="1"><g transform="translate(301.695122, 97.645916)"><g><path d="M 7.140625 -3.78125 L 7.140625 -9.25 L 8.5625 -9.25 L 8.5625 0 L 7.140625 0 L 7.140625 -1.5625 L 7.03125 -1.5625 C 6.820312 -1.09375 6.488281 -0.691406 6.03125 -0.359375 C 5.570312 -0.0351562 4.992188 0.125 4.296875 0.125 C 3.421875 0.125 2.703125 -0.160156 2.140625 -0.734375 C 1.578125 -1.316406 1.296875 -2.195312 1.296875 -3.375 L 1.296875 -9.25 L 2.71875 -9.25 L 2.71875 -3.46875 C 2.71875 -2.789062 2.90625 -2.25 3.28125 -1.84375 C 3.664062 -1.445312 4.15625 -1.25 4.75 -1.25 C 5.101562 -1.25 5.460938 -1.335938 5.828125 -1.515625 C 6.191406 -1.703125 6.5 -1.984375 6.75 -2.359375 C 7.007812 -2.734375 7.140625 -3.207031 7.140625 -3.78125 Z M 7.140625 -3.78125 "></path></g></g></g><g fill="#9493a2" fill-opacity="1"><g transform="translate(311.039684, 97.645916)"><g><path d="M 1.296875 3.46875 L 1.296875 -9.25 L 2.671875 -9.25 L 2.671875 -7.78125 L 2.84375 -7.78125 C 2.945312 -7.945312 3.09375 -8.15625 3.28125 -8.40625 C 3.46875 -8.65625 3.734375 -8.878906 4.078125 -9.078125 C 4.429688 -9.273438 4.910156 -9.375 5.515625 -9.375 C 6.296875 -9.375 6.984375 -9.175781 7.578125 -8.78125 C 8.171875 -8.394531 8.632812 -7.84375 8.96875 -7.125 C 9.300781 -6.414062 9.46875 -5.578125 9.46875 -4.609375 C 9.46875 -3.628906 9.300781 -2.78125 8.96875 -2.0625 C 8.632812 -1.34375 8.171875 -0.785156 7.578125 -0.390625 C 6.992188 -0.00390625 6.316406 0.1875 5.546875 0.1875 C 4.953125 0.1875 4.472656 0.0859375 4.109375 -0.109375 C 3.753906 -0.304688 3.476562 -0.53125 3.28125 -0.78125 C 3.09375 -1.039062 2.945312 -1.253906 2.84375 -1.421875 L 2.71875 -1.421875 L 2.71875 3.46875 Z M 2.703125 -4.625 C 2.703125 -3.582031 2.925781 -2.726562 3.375 -2.0625 C 3.832031 -1.40625 4.488281 -1.078125 5.34375 -1.078125 C 5.945312 -1.078125 6.445312 -1.234375 6.84375 -1.546875 C 7.238281 -1.867188 7.535156 -2.296875 7.734375 -2.828125 C 7.941406 -3.367188 8.046875 -3.96875 8.046875 -4.625 C 8.046875 -5.28125 7.945312 -5.867188 7.75 -6.390625 C 7.550781 -6.910156 7.25 -7.320312 6.84375 -7.625 C 6.445312 -7.9375 5.945312 -8.09375 5.34375 -8.09375 C 4.476562 -8.09375 3.820312 -7.773438 3.375 -7.140625 C 2.925781 -6.503906 2.703125 -5.664062 2.703125 -4.625 Z M 2.703125 -4.625 "></path></g></g></g><g fill="#9493a2" fill-opacity="1"><g transform="translate(320.866069, 97.645916)"><g><path d="M 1.296875 3.46875 L 1.296875 -9.25 L 2.671875 -9.25 L 2.671875 -7.78125 L 2.84375 -7.78125 C 2.945312 -7.945312 3.09375 -8.15625 3.28125 -8.40625 C 3.46875 -8.65625 3.734375 -8.878906 4.078125 -9.078125 C 4.429688 -9.273438 4.910156 -9.375 5.515625 -9.375 C 6.296875 -9.375 6.984375 -9.175781 7.578125 -8.78125 C 8.171875 -8.394531 8.632812 -7.84375 8.96875 -7.125 C 9.300781 -6.414062 9.46875 -5.578125 9.46875 -4.609375 C 9.46875 -3.628906 9.300781 -2.78125 8.96875 -2.0625 C 8.632812 -1.34375 8.171875 -0.785156 7.578125 -0.390625 C 6.992188 -0.00390625 6.316406 0.1875 5.546875 0.1875 C 4.953125 0.1875 4.472656 0.0859375 4.109375 -0.109375 C 3.753906 -0.304688 3.476562 -0.53125 3.28125 -0.78125 C 3.09375 -1.039062 2.945312 -1.253906 2.84375 -1.421875 L 2.71875 -1.421875 L 2.71875 3.46875 Z M 2.703125 -4.625 C 2.703125 -3.582031 2.925781 -2.726562 3.375 -2.0625 C 3.832031 -1.40625 4.488281 -1.078125 5.34375 -1.078125 C 5.945312 -1.078125 6.445312 -1.234375 6.84375 -1.546875 C 7.238281 -1.867188 7.535156 -2.296875 7.734375 -2.828125 C 7.941406 -3.367188 8.046875 -3.96875 8.046875 -4.625 C 8.046875 -5.28125 7.945312 -5.867188 7.75 -6.390625 C 7.550781 -6.910156 7.25 -7.320312 6.84375 -7.625 C 6.445312 -7.9375 5.945312 -8.09375 5.34375 -8.09375 C 4.476562 -8.09375 3.820312 -7.773438 3.375 -7.140625 C 2.925781 -6.503906 2.703125 -5.664062 2.703125 -4.625 Z M 2.703125 -4.625 "></path></g></g></g><g fill="#9493a2" fill-opacity="1"><g transform="translate(330.692455, 97.645916)"><g><path d="M 2.71875 -12.34375 L 2.71875 0 L 1.296875 0 L 1.296875 -12.34375 Z M 2.71875 -12.34375 "></path></g></g></g><g fill="#9493a2" fill-opacity="1"><g transform="translate(334.206735, 97.645916)"><g><path d="M 1.296875 0 L 1.296875 -9.25 L 2.71875 -9.25 L 2.71875 0 Z M 2.03125 -10.796875 C 1.75 -10.796875 1.507812 -10.890625 1.3125 -11.078125 C 1.113281 -11.265625 1.015625 -11.492188 1.015625 -11.765625 C 1.015625 -12.023438 1.113281 -12.25 1.3125 -12.4375 C 1.507812 -12.625 1.75 -12.71875 2.03125 -12.71875 C 2.300781 -12.71875 2.535156 -12.625 2.734375 -12.4375 C 2.929688 -12.25 3.03125 -12.023438 3.03125 -11.765625 C 3.03125 -11.492188 2.929688 -11.265625 2.734375 -11.078125 C 2.535156 -10.890625 2.300781 -10.796875 2.03125 -10.796875 Z M 2.03125 -10.796875 "></path></g></g></g><g fill="#9493a2" fill-opacity="1"><g transform="translate(337.721038, 97.645916)"><g><path d="M 1.03125 0 L 1.03125 -1.078125 L 6.296875 -7.828125 L 6.296875 -7.9375 L 1.203125 -7.9375 L 1.203125 -9.25 L 8.125 -9.25 L 8.125 -8.125 L 3.015625 -1.421875 L 3.015625 -1.328125 L 8.296875 -1.328125 L 8.296875 0 Z M 1.03125 0 "></path></g></g></g><g fill="#9493a2" fill-opacity="1"><g transform="translate(346.391022, 97.645916)"><g><path d="M 4.03125 0.21875 C 3.4375 0.21875 2.898438 0.109375 2.421875 -0.109375 C 1.953125 -0.335938 1.578125 -0.660156 1.296875 -1.078125 C 1.015625 -1.503906 0.875 -2.019531 0.875 -2.625 C 0.875 -3.15625 0.976562 -3.585938 1.1875 -3.921875 C 1.394531 -4.253906 1.671875 -4.515625 2.015625 -4.703125 C 2.367188 -4.890625 2.753906 -5.03125 3.171875 -5.125 C 3.597656 -5.21875 4.023438 -5.289062 4.453125 -5.34375 C 5.015625 -5.414062 5.472656 -5.472656 5.828125 -5.515625 C 6.179688 -5.554688 6.4375 -5.617188 6.59375 -5.703125 C 6.757812 -5.796875 6.84375 -5.957031 6.84375 -6.1875 L 6.84375 -6.25 C 6.84375 -6.84375 6.679688 -7.300781 6.359375 -7.625 C 6.035156 -7.957031 5.546875 -8.125 4.890625 -8.125 C 4.210938 -8.125 3.679688 -7.972656 3.296875 -7.671875 C 2.910156 -7.378906 2.640625 -7.0625 2.484375 -6.71875 L 1.140625 -7.203125 C 1.378906 -7.765625 1.695312 -8.203125 2.09375 -8.515625 C 2.5 -8.835938 2.941406 -9.0625 3.421875 -9.1875 C 3.898438 -9.3125 4.375 -9.375 4.84375 -9.375 C 5.144531 -9.375 5.488281 -9.335938 5.875 -9.265625 C 6.257812 -9.203125 6.632812 -9.0625 7 -8.84375 C 7.363281 -8.625 7.664062 -8.296875 7.90625 -7.859375 C 8.144531 -7.421875 8.265625 -6.832031 8.265625 -6.09375 L 8.265625 0 L 6.84375 0 L 6.84375 -1.25 L 6.765625 -1.25 C 6.671875 -1.050781 6.507812 -0.835938 6.28125 -0.609375 C 6.0625 -0.378906 5.765625 -0.179688 5.390625 -0.015625 C 5.015625 0.140625 4.5625 0.21875 4.03125 0.21875 Z M 4.234375 -1.0625 C 4.796875 -1.0625 5.269531 -1.171875 5.65625 -1.390625 C 6.050781 -1.609375 6.347656 -1.890625 6.546875 -2.234375 C 6.742188 -2.585938 6.84375 -2.957031 6.84375 -3.34375 L 6.84375 -4.65625 C 6.78125 -4.582031 6.644531 -4.515625 6.4375 -4.453125 C 6.238281 -4.398438 6.007812 -4.347656 5.75 -4.296875 C 5.488281 -4.253906 5.234375 -4.21875 4.984375 -4.1875 C 4.734375 -4.164062 4.535156 -4.144531 4.390625 -4.125 C 4.015625 -4.070312 3.664062 -3.992188 3.34375 -3.890625 C 3.03125 -3.785156 2.773438 -3.625 2.578125 -3.40625 C 2.390625 -3.195312 2.296875 -2.914062 2.296875 -2.5625 C 2.296875 -2.0625 2.476562 -1.6875 2.84375 -1.4375 C 3.207031 -1.1875 3.671875 -1.0625 4.234375 -1.0625 Z M 4.234375 -1.0625 "></path></g></g></g><g fill="#9493a2" fill-opacity="1"><g transform="translate(355.446443, 97.645916)"><g><path d="M 1.296875 0 L 1.296875 -9.25 L 2.671875 -9.25 L 2.671875 -7.859375 L 2.765625 -7.859375 C 2.929688 -8.316406 3.234375 -8.6875 3.671875 -8.96875 C 4.117188 -9.257812 4.625 -9.40625 5.1875 -9.40625 C 5.4375 -9.40625 5.65625 -9.375 5.84375 -9.3125 C 6.039062 -9.25 6.210938 -9.164062 6.359375 -9.0625 L 5.875 -7.859375 C 5.78125 -7.910156 5.664062 -7.953125 5.53125 -7.984375 C 5.394531 -8.015625 5.238281 -8.03125 5.0625 -8.03125 C 4.382812 -8.03125 3.820312 -7.820312 3.375 -7.40625 C 2.9375 -7 2.71875 -6.484375 2.71875 -5.859375 L 2.71875 0 Z M 1.296875 0 "></path></g></g></g></svg> 