<?xml version="1.0" encoding="UTF-8"?> <svg xmlns="http://www.w3.org/2000/svg" id="Layer_1" viewBox="0 0 636.46643 181.83275"><path d="M77.98649,88.60697c19.97149,4.92796,24.51053,11.28278,24.51053,21.52772,0,.7975-.04233,1.58455-.12759,2.35811l6.04395,6.04395c1.07646-2.79292,1.6054-5.80734,1.6054-8.92062,0-10.89377-3.76093-21.13871-29.30894-27.49353-16.7294-4.14994-22.69502-8.04042-22.69502-18.02625,0-10.11539,7.13275-16.21075,20.23095-16.21075,14.26551,0,20.62006,7.00311,22.69502,16.72967h7.26239c-1.16712-11.02332-9.59673-23.21386-29.56832-23.21386-19.45284,0-28.14173,11.15305-28.14173,23.08394,0,13.09829,8.29988,19.3232,27.49335,24.12161Z" style="fill:#c77e4c;"></path><path d="M90.80704,126.6132c-3.06173,1.07384-6.79027,1.67766-11.26433,1.67766-14.91389,0-22.9544-7.13284-25.67784-19.19365h-7.26239c1.68596,12.19072,9.98584,25.41856,32.68077,25.41856,6.53229,0,11.97309-1.1164,16.37065-3.05571l-4.84686-4.84686Z" style="fill:#c77e4c;"></path><path d="M362.7724,42.69818h-8.29988l-33.32924,90.7801h7.13284l11.54188-31.38401h12.91811v-6.48437h-10.45395c8.17015-23.08394,14.00604-39.16496,16.21056-46.03834h.12973c1.81569,6.09536,7.00311,19.06374,17.1185,46.03834h-12.28122v6.48437h14.61565l11.80134,31.38401h7.6514l-34.75574-90.7801Z" style="fill:#c77e4c;"></path><path d="M435.39579,74.76021v-32.06204h-7.00293v39.04047c2.32677-2.3337,4.6602-4.66079,7.00293-6.97844Z" style="fill:#c77e4c;"></path><path d="M428.39286,107.53942v25.93885h7.00293v-33.02234c-2.33617,2.35934-4.66937,4.7216-7.00293,7.08349Z" style="fill:#c77e4c;"></path><path d="M506.98187,42.69818h-30.08706v6.56712h7.00293v-.08275h21.91691c25.15891,0,35.79322,18.54518,35.79322,38.51648,0,22.43565-11.80134,39.29487-35.79322,39.29487h-21.91691v-59.56811h-7.00293v66.05248h29.95733c25.41838,0,42.27741-19.06374,42.27741-46.16825,0-27.23388-17.24805-44.61184-42.14768-44.61184Z" style="fill:#c77e4c;"></path><path d="M5.13797,2.42615h593.44651v126.40728h-5.13795V7.56427H0V2.42615h5.13797ZM598.58448,176.69463H5.13797V55.42547H0v126.40728h598.58448v-5.13812Z" style="fill:#c77e4c; fill-rule:evenodd;"></path><rect x="244.31051" y="41.40141" width="7.0043" height="34.96548" style="fill:#c77e4c;"></rect><polygon points="251.31481 125.71183 251.31481 94.52737 244.31051 94.52737 244.31051 132.19729 298.78814 132.19729 300.08517 125.71183 251.31481 125.71183" style="fill:#c77e4c;"></polygon><path d="M168.15442,86.06449l10.06024-9.17067h0l37.39805-35.49241h-9.33734c-16.21081,15.82165-42.14793,40.20261-49.41039,47.20566v-47.20566h-7.00293v90.7801h7.00293v-36.18233l11.28944-9.93469h0Z" style="fill:#c77e4c;"></path><polygon points="186.69278 94.33744 181.62439 98.82101 209.25814 132.18151 217.94707 132.18151 186.69278 94.33744" style="fill:#c77e4c;"></polygon><path d="M622.17808,28.57666c-3.81655,0-7.40465-1.48623-10.10337-4.18494-2.69871-2.69871-4.18496-6.28684-4.18496-10.10339s1.48625-7.40465,4.18496-10.10337c2.69871-2.69871,6.28681-4.18496,10.10337-4.18496s7.40466,1.48625,10.10337,4.18496c2.69876,2.69871,4.18499,6.28681,4.18499,10.10337s-1.48623,7.40468-4.18499,10.10339c-2.69871,2.69871-6.28678,4.18494-10.10337,4.18494ZM622.17808,2.14057c-6.69828,0-12.14775,5.44945-12.14775,12.14775s5.44947,12.14775,12.14775,12.14775,12.14778-5.44947,12.14778-12.14775-5.44947-12.14775-12.14778-12.14775Z" style="fill:#c77e4c;"></path><path d="M625.38789,20.45266l-2.59161-3.71525c-.16334.01821-.3263.01821-.48963.01821h-2.86346v3.69704h-2.3558V7.76647h5.21926c3.3347,0,5.401,1.70358,5.401,4.5126,0,1.92118-.97889,3.3347-2.7005,4.00532l2.91791,4.16828h-2.53716ZM622.19813,9.76011h-2.75495v5.0563h2.75495c2.06593,0,3.13531-.94247,3.13531-2.53735,0-1.59469-1.06939-2.51895-3.13531-2.51895Z" style="fill:#c77e4c;"></path></svg> 