<?xml version="1.0"?>
<svg xmlns="http://www.w3.org/2000/svg" width="128" height="128" viewBox="0 0 128 128"><g><path d="M120.51,97.34a5.758,5.758,0,0,0-4.095-1.709h-.463a12.4,12.4,0,0,0,.955-4.068,1.465,1.465,0,0,0-.035-.43,8.266,8.266,0,0,0,.116-.945,8.044,8.044,0,0,0-7.577-8.5,7.8,7.8,0,0,0-2.944.388,10.674,10.674,0,0,0-19.552-4.447,29.917,29.917,0,0,0-5.694-4.946c-3.273-2.216-7.314-2.027-11.454.508l-10.3-5.167a1.441,1.441,0,0,0-.367-.128,5.559,5.559,0,0,0-5.379,2.166l-7.081-4.8a6.79,6.79,0,0,0-1.107-4.178,5.017,5.017,0,0,0-3.476-1.993,4.842,4.842,0,0,0-3.823.96,6.959,6.959,0,0,0-2.217,4.072,6.96,6.96,0,0,0-2.957,3.57,4.582,4.582,0,0,0-.109,2.158c-18.4.216-20.576,3.189-20.576,23.235v2.275l-.748,0h-.016a5.8,5.8,0,0,0-5.8,5.783l-.006,2.2a5.806,5.806,0,0,0,5.783,5.814l2.716.007,1.808,6.286a8.745,8.745,0,0,0,8.327,6.272l79.029.21h.028a8.72,8.72,0,0,0,8.326-6.237l1.842-6.268,2.717.007h.016a5.8,5.8,0,0,0,5.8-5.782l.006-2.2A5.758,5.758,0,0,0,120.51,97.34ZM96.3,75.757a7.718,7.718,0,0,1,7.241,8.135,1.214,1.214,0,0,1-.022.123c-.025.13-.049.26-.062.4a1.5,1.5,0,0,0,2.413,1.334,4.923,4.923,0,0,1,3.366-1.067A5.043,5.043,0,0,1,113.993,90a5.145,5.145,0,0,1-.181,1.062,1.515,1.515,0,0,0,.043.923,9.272,9.272,0,0,1-1.272,3.633l-5.621-.015,2.908-5.771a1.5,1.5,0,1,0-2.68-1.35L103.607,95.6l-6.429-.017.849-14.694a1.5,1.5,0,0,0-3-.173l-.858,14.859-2.68-.007a18.089,18.089,0,0,0-2.579-15.326A7.71,7.71,0,0,1,96.3,75.757ZM58.319,70.8l10.869,5.449a1.5,1.5,0,0,0,1.515-.1c2.344-1.592,5.781-3.056,8.836-.989a25.378,25.378,0,0,1,6.45,6.1c3.228,4.52,4.06,9.677,2.346,14.294l-28.593-.075a12.642,12.642,0,0,1,.3-3.6,1.5,1.5,0,0,0-.466-1.44L50.5,82.347a2.886,2.886,0,0,1,.368-2.824,3.265,3.265,0,0,1,2.948-1.7,1.5,1.5,0,0,0,1.527-2.253,3.265,3.265,0,0,1,.487-3.364A2.906,2.906,0,0,1,58.319,70.8Zm-22.4-2.233A4.543,4.543,0,0,1,38.053,66.4a1.512,1.512,0,0,0,.832-1.225,4.547,4.547,0,0,1,1.228-2.79,1.826,1.826,0,0,1,1.52-.325,2.022,2.022,0,0,1,1.461.776,4.41,4.41,0,0,1,.489,2.9,1.5,1.5,0,0,0,.635,1.506L52.3,72.721A6.182,6.182,0,0,0,52.086,75a6.166,6.166,0,0,0-2.038,1.043l-8.087-5.477a1.512,1.512,0,0,0-1.63-.033,4.435,4.435,0,0,1-2.884.631,2.031,2.031,0,0,1-1.267-1.074A1.819,1.819,0,0,1,35.922,68.569ZM15.37,93.08c0-19.061.918-20.206,19.194-20.248a4.746,4.746,0,0,0,2.16,1.245,6.792,6.792,0,0,0,4.29-.527l7.084,4.8a5.548,5.548,0,0,0-.006,5.8,1.551,1.551,0,0,0,.249.287l7.882,7.029c0,.53.007,1.056.007,1.612v2.38H51.955l-36.585-.1Zm93.57,21.758a5.7,5.7,0,0,1-5.448,4.082h-.018l-79.03-.21a5.656,5.656,0,0,1-5.453-4.1l-1.566-5.445,93.112.247Zm10.252-11.206a2.8,2.8,0,0,1-2.8,2.79h-.008l-101.027-.267c-.016,0-.032,0-.049,0l-3.717-.009A2.8,2.8,0,0,1,8.8,103.339l.006-2.195a2.8,2.8,0,0,1,2.8-2.791h.008l1.722.005a1.5,1.5,0,0,0,.534.1H51.947l6.478.017h.059l30.841.082.014,0,.01,0,15.169.04.011,0,.009,0,11.869.032a2.8,2.8,0,0,1,2.791,2.805Z"/><path d="M21.71,48.133,68.921,59.526l8.226,1.985h0L118.941,71.6a1.495,1.495,0,0,0,1.81-1.106,51.1,51.1,0,0,0-.333-25.449,52.023,52.023,0,0,0-10.96-20.528A51.233,51.233,0,0,0,86.39,9.363c-1.147-.372-2.335-.7-3.632-1.017A51.487,51.487,0,0,0,35.677,20.609h0A51.306,51.306,0,0,0,20.6,46.323,1.5,1.5,0,0,0,21.71,48.133Zm28.305,3.744-.964-3.3a2.484,2.484,0,0,1,2.2-3.178l5.887-.421a5.5,5.5,0,0,0,4.969-6.559l-.839-4.16a5.336,5.336,0,0,0-.89-2.088l-3.614-5.176a5.431,5.431,0,0,0-4.8-2.338l-5.716.319a2.553,2.553,0,0,1-1.369-.307l-5.663-3.16c.136-.117.269-.239.407-.354.353-.293.712-.576,1.071-.858.418-.329.838-.654,1.264-.967.367-.269.738-.529,1.111-.787.435-.3.872-.6,1.315-.883.379-.245.761-.481,1.146-.715.451-.273.906-.541,1.365-.8q.583-.329,1.175-.639.7-.369,1.41-.714c.4-.194.8-.384,1.2-.566.481-.218.965-.425,1.451-.626.407-.169.815-.335,1.226-.492.494-.188.992-.365,1.492-.538.413-.142.826-.284,1.242-.415.507-.16,1.018-.306,1.529-.449.418-.116.835-.234,1.255-.339.519-.13,1.041-.244,1.564-.357.42-.09.84-.184,1.263-.263.531-.1,1.064-.182,1.6-.263.421-.065.84-.134,1.263-.188.543-.068,1.09-.117,1.636-.168.417-.038.834-.083,1.253-.111.557-.036,1.116-.051,1.675-.068.411-.013.822-.035,1.234-.037.574,0,1.149.018,1.724.035.4.012.8.013,1.2.035.6.033,1.2.093,1.8.148.375.034.75.056,1.126.1.661.077,1.322.183,1.983.287.314.05.628.085.941.14q1.46.259,2.914.608c.545.132,1.063.269,1.572.409l.367.1c.136.038.266.081.4.12l-.152,5.1a2.481,2.481,0,0,1-1.18,2.053L78.237,22a5.456,5.456,0,0,0-2.542,5.651l.7,3.831a2.474,2.474,0,0,1-1.64,2.786L71.54,35.358a5.493,5.493,0,0,0-3.692,5.519l.263,4.325a5.515,5.515,0,0,0,4.18,5,5.811,5.811,0,0,0,.979.142A2.469,2.469,0,0,1,75.613,52.7c.075,1.546.171,3.447.277,5.417L56.878,53.533Zm57.906-24.524c.109.131.221.26.328.392.158.194.314.388.468.584.246.312.486.627.724.944.143.191.287.381.427.573.252.347.5.7.739,1.052.115.167.234.333.347.5q.489.732.951,1.479c.023.037.047.072.069.108q.5.811.963,1.641c.086.154.167.31.252.465.218.4.433.8.64,1.2.1.2.2.4.3.607.18.364.358.73.529,1.1.1.216.2.432.3.649q.245.547.475,1.1c.091.217.182.435.27.654.154.385.3.772.447,1.161.075.2.152.4.225.606q.245.687.468,1.383c.043.134.091.268.133.4q.285.9.533,1.816c.034.124.063.25.095.374.127.482.249.964.361,1.449.049.213.093.427.139.641.087.4.171.8.247,1.2.046.24.088.482.13.723.066.381.129.762.186,1.144.037.248.073.5.106.746.019.145.034.29.052.435l-.27-.193a9.556,9.556,0,0,0-7.781-1.521l-2.96.714a6.63,6.63,0,0,1-5.729-1.327l-.416-.343a6.554,6.554,0,0,1-1.133-8.888,9.678,9.678,0,0,0,1.728-4.566l.313-2.989a6.578,6.578,0,0,1,3.7-5.237Zm-2.087-2.328-.842.4a9.588,9.588,0,0,0-5.4,7.635l-.313,2.989a6.666,6.666,0,0,1-1.193,3.144,9.556,9.556,0,0,0,1.669,12.934l.418.344a9.63,9.63,0,0,0,8.338,1.931l2.962-.714a6.55,6.55,0,0,1,5.335,1.044l2.33,1.664a48.44,48.44,0,0,1-.973,11.926l-39.23-9.467c-.125-2.278-.239-4.522-.325-6.294a5.452,5.452,0,0,0-5.152-5.208,2.975,2.975,0,0,1-.465-.065,2.5,2.5,0,0,1-1.888-2.267l-.263-4.332A2.485,2.485,0,0,1,72.513,38.2L75.725,37.1a5.46,5.46,0,0,0,3.618-6.159l-.7-3.827a2.474,2.474,0,0,1,1.154-2.56l4.825-2.949a5.47,5.47,0,0,0,2.615-4.523l.125-4.188A48.191,48.191,0,0,1,105.834,25.025ZM36.882,23.637l6.546,3.653a5.581,5.581,0,0,0,2.976.679l5.728-.32a2.477,2.477,0,0,1,2.174,1.061l3.62,5.186a2.337,2.337,0,0,1,.4.932L59.166,39a2.5,2.5,0,0,1-2.251,2.98l-5.882.421a5.484,5.484,0,0,0-4.86,7.016l.481,1.646L23.9,45.574A48.25,48.25,0,0,1,36.882,23.637Z"/><circle cx="26.434" cy="81.916" r="1.446"/><circle cx="34.356" cy="81.916" r="1.446"/><circle cx="30.186" cy="88.171" r="1.446"/><circle cx="38.458" cy="88.171" r="1.446"/><circle cx="42.897" cy="81.916" r="1.446"/></g></svg>
