<?xml version="1.0" encoding="UTF-8" standalone="no"?>
<!-- Created with Inkscape (http://www.inkscape.org/) -->

<svg
   version="1.1"
   id="svg4935"
   xml:space="preserve"
   width="682.66669"
   height="682.66669"
   viewBox="0 0 682.66669 682.66669"
   xmlns="http://www.w3.org/2000/svg"
   xmlns:svg="http://www.w3.org/2000/svg"><defs
     id="defs4939"><clipPath
       clipPathUnits="userSpaceOnUse"
       id="clipPath4949"><path
         d="M 0,512 H 512 V 0 H 0 Z"
         id="path4947" /></clipPath></defs><g
     id="g4941"
     transform="matrix(1.3333333,0,0,-1.3333333,0,682.66667)"><g
       id="g4943"><g
         id="g4945"
         clip-path="url(#clipPath4949)"><g
           id="g4951"
           transform="translate(237.0859,328.8486)"><path
             d="m 0,0 c 0.564,1.627 1.071,3.309 1.514,5.046 1.824,7.155 -3.507,14.133 -10.891,14.133 h -8.841 c 0,0 4.655,31.02 -27.191,49.061 -3.368,1.908 -7.531,1.908 -10.9,0 -31.845,-18.041 -27.19,-49.061 -27.19,-49.061 h -8.841 c -7.385,0 -12.716,-6.978 -10.891,-14.133 0.674,-2.647 1.498,-5.164 2.446,-7.556"
             style="fill:none;stroke:#000000;stroke-width:15;stroke-linecap:round;stroke-linejoin:round;stroke-miterlimit:10;stroke-dasharray:none;stroke-opacity:1"
             id="path4953" /></g><g
           id="g4955"
           transform="translate(186.2275,360.8799)"><path
             d="M 0,0 V -63.082"
             style="fill:none;stroke:#000000;stroke-width:15;stroke-linecap:round;stroke-linejoin:round;stroke-miterlimit:10;stroke-dasharray:none;stroke-opacity:1"
             id="path4957" /></g><g
           id="g4959"
           transform="translate(262.9297,328.8506)"><path
             d="m 0,0 c -0.192,1.991 -0.291,4.008 -0.291,6.045 0,37.398 33.119,67.716 73.975,67.716 40.854,0 73.973,-30.318 73.973,-67.716 0,-2.011 -0.095,-4.002 -0.283,-5.968"
             style="fill:none;stroke:#000000;stroke-width:15;stroke-linecap:round;stroke-linejoin:round;stroke-miterlimit:10;stroke-dasharray:none;stroke-opacity:1"
             id="path4961" /></g><g
           id="g4963"
           transform="translate(46.5,238.4502)"><path
             d="m 0,0 c -2.13,6.3 -3.27,13 -3.27,19.939 0,37.401 33.12,67.721 73.97,67.721 29.49,0 54.952,-15.802 66.832,-38.662"
             style="fill:none;stroke:#000000;stroke-width:15;stroke-linecap:round;stroke-linejoin:round;stroke-miterlimit:10;stroke-dasharray:none;stroke-opacity:1"
             id="path4965" /></g><g
           id="g4967"
           transform="translate(100.4053,284.9639)"><path
             d="M 0,0 H 0.107"
             style="fill:none;stroke:#000000;stroke-width:15;stroke-linecap:round;stroke-linejoin:round;stroke-miterlimit:10;stroke-dasharray:none;stroke-opacity:1"
             id="path4969" /></g><g
           id="g4971"
           transform="translate(78.5557,275.499)"><path
             d="M 0,0 H 0.107"
             style="fill:none;stroke:#000000;stroke-width:15;stroke-linecap:round;stroke-linejoin:round;stroke-miterlimit:10;stroke-dasharray:none;stroke-opacity:1"
             id="path4973" /></g><g
           id="g4975"
           transform="translate(147.7295,267.1758)"><path
             d="M 0,0 H 0.106"
             style="fill:none;stroke:#000000;stroke-width:15;stroke-linecap:round;stroke-linejoin:round;stroke-miterlimit:10;stroke-dasharray:none;stroke-opacity:1"
             id="path4977" /></g><g
           id="g4979"
           transform="translate(181.7305,238.4502)"><path
             d="m 0,0 c -2.131,6.3 -3.271,13 -3.271,19.939 0,37.401 33.121,67.721 73.97,67.721 32.66,0 60.376,-19.372 70.184,-46.247"
             style="fill:none;stroke:#000000;stroke-width:15;stroke-linecap:round;stroke-linejoin:round;stroke-miterlimit:10;stroke-dasharray:none;stroke-opacity:1"
             id="path4981" /></g><g
           id="g4983"
           transform="translate(453.71,299.3398)"><path
             d="m 0,0 c 9.45,-11.37 15.06,-25.56 15.06,-40.95 0,-6.94 -1.14,-13.64 -3.27,-19.94"
             style="fill:none;stroke:#000000;stroke-width:15;stroke-linecap:round;stroke-linejoin:round;stroke-miterlimit:10;stroke-dasharray:none;stroke-opacity:1"
             id="path4985" /></g><g
           id="g4987"
           transform="translate(324.0996,238.4502)"><path
             d="m 0,0 c -2.13,6.3 -3.27,13 -3.27,19.939 0,37.401 33.121,67.721 73.97,67.721 12.83,0 24.901,-2.99 35.41,-8.25"
             style="fill:none;stroke:#000000;stroke-width:15;stroke-linecap:round;stroke-linejoin:round;stroke-miterlimit:10;stroke-dasharray:none;stroke-opacity:1"
             id="path4989" /></g><g
           id="g4991"
           transform="translate(358.5859,348.8242)"><path
             d="M 0,0 H 0.106"
             style="fill:none;stroke:#000000;stroke-width:15;stroke-linecap:round;stroke-linejoin:round;stroke-miterlimit:10;stroke-dasharray:none;stroke-opacity:1"
             id="path4993" /></g><g
           id="g4995"
           transform="translate(419.0947,282.3721)"><path
             d="M 0,0 0.106,-0.001"
             style="fill:none;stroke:#000000;stroke-width:15;stroke-linecap:round;stroke-linejoin:round;stroke-miterlimit:10;stroke-dasharray:none;stroke-opacity:1"
             id="path4997" /></g><g
           id="g4999"
           transform="translate(392.0342,277.1191)"><path
             d="M 0,0 H 0.107"
             style="fill:none;stroke:#000000;stroke-width:15;stroke-linecap:round;stroke-linejoin:round;stroke-miterlimit:10;stroke-dasharray:none;stroke-opacity:1"
             id="path5001" /></g><g
           id="g5003"
           transform="translate(271.7129,266.4443)"><path
             d="M 0,0 0.106,-0.001"
             style="fill:none;stroke:#000000;stroke-width:15;stroke-linecap:round;stroke-linejoin:round;stroke-miterlimit:10;stroke-dasharray:none;stroke-opacity:1"
             id="path5005" /></g><g
           id="g5007"
           transform="translate(301.083,341.0605)"><path
             d="M 0,0 H 0.106"
             style="fill:none;stroke:#000000;stroke-width:15;stroke-linecap:round;stroke-linejoin:round;stroke-miterlimit:10;stroke-dasharray:none;stroke-opacity:1"
             id="path5009" /></g><g
           id="g5011"
           transform="translate(336.3525,367.4463)"><path
             d="M 0,0 H 0.106"
             style="fill:none;stroke:#000000;stroke-width:15;stroke-linecap:round;stroke-linejoin:round;stroke-miterlimit:10;stroke-dasharray:none;stroke-opacity:1"
             id="path5013" /></g><g
           id="g5015"
           transform="translate(269.0674,109.3916)"><path
             d="m 0,0 h -195.418 c -6.062,0 -10.978,4.915 -10.978,10.979 v 21.087"
             style="fill:none;stroke:#000000;stroke-width:15;stroke-linecap:round;stroke-linejoin:round;stroke-miterlimit:10;stroke-dasharray:none;stroke-opacity:1"
             id="path5017" /></g><g
           id="g5019"
           transform="translate(449.3281,141.458)"><path
             d="m 0,0 v -21.088 c 0,-6.063 -4.915,-10.978 -10.978,-10.978 H -50.01"
             style="fill:none;stroke:#000000;stroke-width:15;stroke-linecap:round;stroke-linejoin:round;stroke-miterlimit:10;stroke-dasharray:none;stroke-opacity:1"
             id="path5021" /></g><g
           id="g5023"
           transform="translate(412.0996,144.9014)"><path
             d="M 0,0 H 32.309 C 65.496,0 92.4,26.904 92.4,60.092 v 20.482 c 0,6.064 -4.915,10.979 -10.978,10.979 h -224.795"
             style="fill:none;stroke:#000000;stroke-width:15;stroke-linecap:round;stroke-linejoin:round;stroke-miterlimit:10;stroke-dasharray:none;stroke-opacity:1"
             id="path5025" /></g><g
           id="g5027"
           transform="translate(85.9375,236.4541)"><path
             d="m 0,0 h -67.459 c -6.063,0 -10.979,-4.915 -10.979,-10.979 v -20.482 c 0,-33.187 26.905,-60.092 60.092,-60.092 h 187.941"
             style="fill:none;stroke:#000000;stroke-width:15;stroke-linecap:round;stroke-linejoin:round;stroke-miterlimit:10;stroke-dasharray:none;stroke-opacity:1"
             id="path5029" /></g><g
           id="g5031"
           transform="translate(235.7354,236.4541)"><path
             d="M 0,0 H -116.808"
             style="fill:none;stroke:#000000;stroke-width:15;stroke-linecap:round;stroke-linejoin:round;stroke-miterlimit:10;stroke-dasharray:none;stroke-opacity:1"
             id="path5033" /></g><g
           id="g5035"
           transform="translate(272.9004,166.6797)"><path
             d="m 0,0 c 4.59,9.12 19.699,33.37 49.8,30.4 28.269,-2.799 38.75,8.451 42.399,14.93 1.311,2.32 4.321,3.04 6.59,1.63 C 107.58,41.49 125.34,23.03 124.399,0"
             style="fill:none;stroke:#000000;stroke-width:15;stroke-linecap:round;stroke-linejoin:round;stroke-miterlimit:10;stroke-dasharray:none;stroke-opacity:1"
             id="path5037" /></g><g
           id="g5039"
           transform="translate(397.3184,109.3887)"><path
             d="m 0,0 h -126.251 c -6.37,0 -11.535,5.164 -11.535,11.535 v 33.22 c 0,6.371 5.165,11.535 11.535,11.535 L 0,56.29 c 6.37,0 11.534,-5.164 11.534,-11.535 V 11.535 C 11.534,5.164 6.37,0 0,0 Z"
             style="fill:none;stroke:#000000;stroke-width:15;stroke-linecap:round;stroke-linejoin:round;stroke-miterlimit:10;stroke-dasharray:none;stroke-opacity:1"
             id="path5041" /></g></g></g></g></svg>
