<?xml version="1.0" encoding="utf-8"?>
<!-- Generator: Adobe Illustrator 24.0.1, SVG Export Plug-In . SVG Version: 6.00 Build 0)  -->
<svg version="1.1" id="Layer_1" xmlns="http://www.w3.org/2000/svg" xmlns:xlink="http://www.w3.org/1999/xlink" x="0px" y="0px"
	 viewBox="0 0 69.4 27.6" style="enable-background:new 0 0 69.4 27.6;" xml:space="preserve">
<style type="text/css">
	.st0{fill:#FF003E;}
</style>
<g>
	<path class="st0" d="M68,5.4c-0.2-1.5-1.3-2.7-2.9-2.9c-1.5-0.2-2.7,0.6-3.3,2.1c-0.5,1.4-1,2.9-1.4,4.4c-0.2,0.6-0.4,1.2-0.6,1.8
		c-0.3,0.9-0.6,1.8-0.8,2.7l-0.2,0.8h0l-0.3-0.9c-0.3-0.8-0.5-1.5-0.8-2.3c-0.2-0.6-0.4-1.2-0.7-1.8c-0.6-1.7-1.3-3.4-2-5.1
		c-0.5-1.1-1.4-1.8-2.8-1.8c-1.3,0-2.3,0.6-2.8,1.8c-0.3,0.6-0.5,1.1-0.7,1.6c-0.8,2.1-1.5,4.3-2.3,6.4l-0.7,2h-0.1L45.5,14
		c-0.1-0.4-0.2-0.7-0.4-1.1c-0.3-0.9-0.6-1.7-0.8-2.6c-0.6-1.8-1.2-3.7-1.8-5.6c-0.5-1.4-1.5-2.3-2.8-2.3c0,0,0,0-0.1,0s0,0,0,0
		H25.6c-0.1,0-0.2,0.1-0.2,0.2c0,0.1,0,0.2,0.1,0.2L36.3,6H8.8C8.7,6,8.6,6.1,8.6,6.2c0,0.1,0.1,0.2,0.2,0.2l27.9,3.7h-35
		c-0.1,0-0.2,0.1-0.2,0.2s0.1,0.2,0.2,0.2L38.8,16H16.2c-0.1,0-0.2,0.1-0.2,0.2c0,0.1,0.1,0.2,0.2,0.2L41,21.1H26.3
		c-0.1,0-0.2,0.1-0.2,0.2c0,0.1,0,0.2,0.1,0.2L44.5,26c0.1,0,0.2,0,0.3,0.1l0.2,0c0,0,0,0,0,0c0,0,0,0,0,0c0.2,0,0.3,0,0.5,0
		c1.4,0,2.3-0.6,2.8-1.9c0.6-1.4,1.1-2.8,1.7-4.2l0.3-0.9c0.4-1,0.8-2,1.2-3l0.6-1.5c0,0.1,0.1,0.2,0.1,0.2c0.2,0.3,0.3,0.6,0.3,0.8
		c0.4,0.9,0.7,1.8,1.1,2.7c0.8,1.9,1.5,3.9,2.3,5.8c0.5,1.3,1.6,2,2.9,2c0.4,0,0.8-0.1,1.1-0.2c1.3-0.5,1.8-1.6,2.1-2.6
		c1.7-4.8,3.5-9.9,5.6-16.1C67.8,6.8,68,6.1,68,5.4z"/>
</g>
</svg>
