<?xml version="1.0" encoding="utf-8"?>
<!-- Generator: Adobe Illustrator 24.0.1, SVG Export Plug-In . SVG Version: 6.00 Build 0)  -->
<svg version="1.1" id="Capa_1" xmlns="http://www.w3.org/2000/svg" xmlns:xlink="http://www.w3.org/1999/xlink" x="0px" y="0px"
	 viewBox="0 0 463 463" style="enable-background:new 0 0 463 463;" xml:space="preserve">
<g>
	<path d="M395.2,67.8C351.5,24.1,293.3,0,231.5,0s-120,24.1-163.7,67.8C24.1,111.5,0,169.7,0,231.5s24.1,120,67.8,163.7
		c43.7,43.7,101.9,67.8,163.7,67.8s120-24.1,163.7-67.8c43.7-43.7,67.8-101.9,67.8-163.7S438.9,111.5,395.2,67.8z M384.6,384.6
		c-40.9,40.9-95.3,63.4-153.1,63.4s-112.2-22.5-153.1-63.4S15,289.3,15,231.5S37.5,119.3,78.4,78.4C119.3,37.5,173.7,15,231.5,15
		s112.2,22.5,153.1,63.4c40.9,40.9,63.4,95.3,63.4,153.1S425.5,343.7,384.6,384.6z"/>
	<path d="M424.1,207.4c-2.1-4.7-4.1-9.1-4.9-13.3c-0.9-4.4-0.7-9.4-0.6-14.7c0.3-8.1,0.5-16.4-2.8-24.4c-3.4-8.1-9.5-13.8-15.5-19.4
		c-3.8-3.6-7.4-6.9-9.8-10.5c-2.4-3.7-4.2-8.3-6.1-13.2c-2.9-7.6-5.8-15.4-12-21.6c-6.1-6.1-14-9.1-21.6-12
		c-4.9-1.9-9.5-3.6-13.2-6.1c-3.6-2.4-7-6-10.5-9.8c-5.6-6-11.3-12.1-19.4-15.5c-7.9-3.3-16.3-3-24.4-2.8
		c-5.3,0.2-10.3,0.3-14.7-0.6c-4.2-0.8-8.6-2.8-13.3-4.9c-7.1-3.2-15.2-6.9-24.1-6.9s-16.9,3.6-24.1,6.9c-4.7,2.1-9.1,4.1-13.3,4.9
		c-4.4,0.9-9.4,0.7-14.7,0.6c-8.1-0.3-16.4-0.5-24.4,2.8c-8.1,3.4-13.8,9.5-19.4,15.5c-3.6,3.8-6.9,7.4-10.5,9.8
		c-3.7,2.4-8.3,4.2-13.2,6.1c-7.6,2.9-15.4,5.8-21.6,12s-9.1,14-12,21.6c-1.9,4.9-3.6,9.5-6.1,13.2c-2.4,3.6-6,7-9.8,10.5
		c-6,5.6-12.1,11.3-15.5,19.4c-3.3,7.9-3,16.3-2.8,24.4c0.2,5.3,0.3,10.3-0.6,14.7c-0.8,4.2-2.8,8.6-4.9,13.3
		c-3.2,7.1-6.9,15.2-6.9,24.1s3.6,16.9,6.9,24.1c2.1,4.7,4.1,9.1,4.9,13.3c0.9,4.4,0.7,9.4,0.6,14.7c-0.3,8.1-0.5,16.4,2.8,24.4
		c3.4,8.1,9.5,13.8,15.5,19.4c3.8,3.6,7.4,6.9,9.8,10.5c2.4,3.7,4.2,8.3,6.1,13.2c2.9,7.6,5.8,15.4,12,21.6s14,9.1,21.6,12
		c4.9,1.9,9.5,3.6,13.2,6.1c3.6,2.4,7,6,10.5,9.8c5.6,6,11.3,12.1,19.4,15.5c7.9,3.3,16.3,3,24.4,2.8c5.3-0.2,10.3-0.3,14.7,0.6
		c4.2,0.8,8.6,2.8,13.3,4.9c7.1,3.2,15.2,6.9,24.1,6.9c8.9,0,16.9-3.6,24.1-6.9c4.7-2.1,9.1-4.1,13.3-4.9c4.4-0.9,9.4-0.7,14.7-0.6
		c8.1,0.3,16.4,0.5,24.4-2.8c8.1-3.4,13.8-9.5,19.4-15.5c3.6-3.8,6.9-7.4,10.5-9.8c3.7-2.4,8.3-4.2,13.2-6.1
		c7.6-2.9,15.4-5.8,21.6-12c6.1-6.1,9.1-14,12-21.6c1.9-4.9,3.6-9.5,6.1-13.2c2.4-3.6,6-7,9.8-10.5c6-5.6,12.1-11.3,15.5-19.4
		c3.3-7.9,3-16.3,2.8-24.4c-0.2-5.3-0.3-10.3,0.6-14.7c0.8-4.2,2.8-8.6,4.9-13.3c3.2-7.1,6.9-15.2,6.9-24.1
		C431,222.6,427.4,214.6,424.1,207.4z M410.5,249.4c-2.4,5.3-4.8,10.7-6,16.5c-1.2,6.1-1,12.2-0.8,18c0.2,6.8,0.4,13.2-1.6,18.2
		c-2.1,5.1-6.8,9.5-11.9,14.2c-4.3,4-8.6,8.1-12,13.1c-3.4,5.1-5.5,10.8-7.6,16.2c-2.4,6.4-4.7,12.4-8.5,16.3
		c-3.8,3.8-9.9,6.1-16.3,8.5c-5.5,2.1-11.2,4.2-16.2,7.6c-5,3.4-9.1,7.8-13.1,12c-4.7,5-9.1,9.7-14.2,11.9
		c-4.9,2.1-11.4,1.9-18.2,1.6c-5.9-0.2-12-0.4-18,0.8c-5.8,1.2-11.3,3.6-16.5,6c-6.3,2.8-12.2,5.5-17.9,5.5
		c-5.6,0-11.6-2.7-17.9-5.5c-5.3-2.4-10.7-4.8-16.5-6c-3.8-0.8-7.7-1-11.5-1c-2.2,0-4.4,0.1-6.5,0.1c-6.8,0.2-13.2,0.4-18.2-1.6
		c-5.1-2.1-9.5-6.8-14.2-11.9c-4-4.2-8.1-8.6-13.1-12c-5.1-3.4-10.8-5.5-16.2-7.6c-6.4-2.4-12.4-4.7-16.3-8.5
		c-3.8-3.8-6.1-9.9-8.5-16.3c-2.1-5.5-4.2-11.2-7.6-16.2c-3.4-5-7.8-9.1-12-13.1c-5-4.7-9.7-9.1-11.9-14.2
		c-2.1-4.9-1.9-11.4-1.6-18.2c0.2-5.9,0.4-12-0.8-18c-1.2-5.8-3.6-11.3-6-16.5c-2.8-6.3-5.5-12.2-5.5-17.9s2.7-11.6,5.5-17.9
		c2.4-5.3,4.8-10.7,6-16.5c1.2-6.1,1-12.2,0.8-18c-0.2-6.8-0.4-13.2,1.6-18.2c2.1-5.1,6.8-9.5,11.9-14.2c4.3-4,8.6-8.1,12-13.1
		c3.4-5.1,5.5-10.8,7.6-16.2c2.4-6.4,4.7-12.4,8.6-16.3s9.9-6.1,16.3-8.5c5.5-2.1,11.2-4.2,16.2-7.6c5-3.4,9.1-7.8,13.1-12
		c4.7-5,9.1-9.7,14.2-11.9c4.9-2,11.4-1.9,18.2-1.6c5.9,0.2,12,0.4,18-0.8c5.8-1.2,11.3-3.6,16.5-6c6.3-2.8,12.2-5.5,17.9-5.5
		s11.6,2.7,17.9,5.5c5.3,2.4,10.7,4.8,16.5,6c6.1,1.2,12.1,1,18,0.8c6.8-0.2,13.2-0.4,18.2,1.6c5.1,2.1,9.5,6.8,14.2,11.9
		c4,4.3,8.1,8.6,13.1,12c5.1,3.4,10.8,5.5,16.2,7.6c6.4,2.4,12.4,4.7,16.3,8.6s6.1,9.9,8.5,16.3c2.1,5.5,4.2,11.2,7.6,16.2
		c3.4,5,7.8,9.1,12,13.1c5,4.7,9.7,9.1,11.9,14.2c2,4.9,1.9,11.4,1.6,18.2c-0.2,5.9-0.4,12,0.8,18c1.2,5.8,3.6,11.3,6,16.5
		c2.8,6.3,5.5,12.2,5.5,17.9C416,237.1,413.3,243.1,410.5,249.4z"/>
	<path d="M202.9,184.8c-3.7-1.9-8.2-0.4-10.1,3.4s-0.4,8.2,3.4,10.1l16,8c1.1,0.5,2.2,0.8,3.3,0.8c2.8,0,5.4-1.5,6.7-4.1
		c1.9-3.7,0.4-8.2-3.4-10.1L202.9,184.8z"/>
	<path d="M247.5,183c1.9,0,3.8-0.7,5.3-2.2l8-8c2.9-2.9,2.9-7.7,0-10.6c-2.9-2.9-7.7-2.9-10.6,0l-8,8c-2.9,2.9-2.9,7.7,0,10.6
		C243.7,182.3,245.6,183,247.5,183z"/>
	<path d="M220.8,297.4l-8-8c-2.9-2.9-7.7-2.9-10.6,0c-2.9,2.9-2.9,7.7,0,10.6l8,8c1.5,1.5,3.4,2.2,5.3,2.2s3.8-0.7,5.3-2.2
		C223.7,305.1,223.7,300.3,220.8,297.4z"/>
	<path d="M292.8,250.2c-2.9-2.9-7.7-2.9-10.6,0c-2.9,2.9-2.9,7.7,0,10.6l8,8c1.5,1.5,3.4,2.2,5.3,2.2s3.8-0.7,5.3-2.2
		c2.9-2.9,2.9-7.7,0-10.6L292.8,250.2z"/>
	<path d="M380.1,208.8l-16,8c-3.7,1.9-5.2,6.4-3.4,10.1c1.3,2.6,4,4.1,6.7,4.1c1.1,0,2.3-0.3,3.3-0.8l16-8c3.7-1.9,5.2-6.4,3.4-10.1
		C388.4,208.4,383.9,206.9,380.1,208.8z"/>
	<path d="M100.8,234.2c-2.9-2.9-7.7-2.9-10.6,0l-8,8c-2.9,2.9-2.9,7.7,0,10.6c1.5,1.5,3.4,2.2,5.3,2.2s3.8-0.7,5.3-2.2l8-8
		C103.7,241.9,103.7,237.1,100.8,234.2z"/>
	<path d="M218.2,92.8c1.5,1.5,3.4,2.2,5.3,2.2s3.8-0.7,5.3-2.2c2.9-2.9,2.9-7.7,0-10.6l-8-8c-2.9-2.9-7.7-2.9-10.6,0
		c-2.9,2.9-2.9,7.7,0,10.6L218.2,92.8z"/>
	<path d="M223.5,360c-4.1,0-7.5,3.4-7.5,7.5v8c0,4.1,3.4,7.5,7.5,7.5s7.5-3.4,7.5-7.5v-8C231,363.4,227.6,360,223.5,360z"/>
	<path d="M330.2,314.2l-8,8c-2.9,2.9-2.9,7.7,0,10.6c1.5,1.5,3.4,2.2,5.3,2.2s3.8-0.7,5.3-2.2l8-8c2.9-2.9,2.9-7.7,0-10.6
		C337.9,311.3,333.1,311.3,330.2,314.2z"/>
	<path d="M124.8,314.2c-2.9-2.9-7.7-2.9-10.6,0c-2.9,2.9-2.9,7.7,0,10.6l8,8c1.5,1.5,3.4,2.2,5.3,2.2c1.9,0,3.8-0.7,5.3-2.2
		c2.9-2.9,2.9-7.7,0-10.6L124.8,314.2z"/>
	<path d="M322.2,124.8c1.5,1.5,3.4,2.2,5.3,2.2s3.8-0.7,5.3-2.2c2.9-2.9,2.9-7.7,0-10.6l-8-8c-2.9-2.9-7.7-2.9-10.6,0
		c-2.9,2.9-2.9,7.7,0,10.6L322.2,124.8z"/>
	<path d="M351.5,159c2,0,3.9-0.8,5.3-2.2c1.4-1.4,2.2-3.3,2.2-5.3s-0.8-3.9-2.2-5.3c-1.4-1.4-3.3-2.2-5.3-2.2s-3.9,0.8-5.3,2.2
		c-1.4,1.4-2.2,3.3-2.2,5.3s0.8,3.9,2.2,5.3C347.6,158.2,349.5,159,351.5,159z"/>
	<path d="M279.5,202.7c-1.4,1.4-2.2,3.3-2.2,5.3s0.8,3.9,2.2,5.3c1.4,1.4,3.3,2.2,5.3,2.2s3.9-0.8,5.3-2.2c1.4-1.4,2.2-3.3,2.2-5.3
		s-0.8-3.9-2.2-5.3c-1.4-1.4-3.3-2.2-5.3-2.2S280.9,201.3,279.5,202.7z"/>
	<path d="M162.2,210.2c-1.4,1.4-2.2,3.3-2.2,5.3s0.8,3.9,2.2,5.3c1.4,1.4,3.3,2.2,5.3,2.2s3.9-0.8,5.3-2.2c1.4-1.4,2.2-3.3,2.2-5.3
		s-0.8-3.9-2.2-5.3c-1.4-1.4-3.3-2.2-5.3-2.2S163.6,208.8,162.2,210.2z"/>
	<path d="M127.5,135c2,0,3.9-0.8,5.3-2.2c1.4-1.4,2.2-3.3,2.2-5.3c0-2-0.8-3.9-2.2-5.3c-1.4-1.4-3.3-2.2-5.3-2.2
		c-2,0-3.9,0.8-5.3,2.2c-1.4,1.4-2.2,3.3-2.2,5.3c0,2,0.8,3.9,2.2,5.3C123.6,134.2,125.5,135,127.5,135z"/>
	<path d="M250.2,282.2c-1.4,1.4-2.2,3.3-2.2,5.3s0.8,3.9,2.2,5.3c1.4,1.4,3.3,2.2,5.3,2.2c2,0,3.9-0.8,5.3-2.2
		c1.4-1.4,2.2-3.3,2.2-5.3s-0.8-3.9-2.2-5.3c-1.4-1.4-3.3-2.2-5.3-2.2C253.5,280,251.6,280.8,250.2,282.2z"/>
	<path d="M255.5,376c-2,0-3.9,0.8-5.3,2.2c-1.4,1.4-2.2,3.3-2.2,5.3c0,2,0.8,3.9,2.2,5.3c1.4,1.4,3.3,2.2,5.3,2.2
		c2,0,3.9-0.8,5.3-2.2c1.4-1.4,2.2-3.3,2.2-5.3c0-2-0.8-3.9-2.2-5.3C259.4,376.8,257.5,376,255.5,376z"/>
	<path d="M103.5,272c-2,0-3.9,0.8-5.3,2.2c-1.4,1.4-2.2,3.3-2.2,5.3s0.8,3.9,2.2,5.3c1.4,1.4,3.3,2.2,5.3,2.2s3.9-0.8,5.3-2.2
		c1.4-1.4,2.2-3.3,2.2-5.3s-0.8-3.9-2.2-5.3C107.4,272.8,105.5,272,103.5,272z"/>
	<path d="M230.5,253.2c2.9-0.7,4.6-3.6,3.9-6.4c-0.7-2.9-3.6-4.6-6.4-3.9l-12.4,3c-0.8,0.2-1.6,0.6-2.2,1.1
		c-1.5,1.3-2.2,3.3-1.7,5.3c0.7,2.9,3.6,4.6,6.4,3.9L230.5,253.2z"/>
	<path d="M334,274.7c-1,0.9-1.7,2.2-1.9,3.6l-0.7,8c-0.2,2.9,1.9,5.5,4.9,5.8c2.9,0.2,5.5-1.9,5.8-4.9l0.7-8
		c0.2-2.9-1.9-5.5-4.9-5.8C336.5,273.3,335.1,273.8,334,274.7z"/>
	<path d="M107.6,212l8,0.7c2.9,0.2,5.5-1.9,5.8-4.9c0.2-2.9-1.9-5.5-4.9-5.8l-8-0.7c-1.5-0.1-2.8,0.4-3.9,1.2
		c-1,0.9-1.7,2.2-1.9,3.6C102.4,209.2,104.6,211.7,107.6,212z"/>
	<path d="M151.6,259.1c2.9,0.2,5.5-1.9,5.8-4.9c0.2-2.9-1.9-5.5-4.9-5.8l-8-0.7c-1.5-0.1-2.8,0.4-3.9,1.2c-1,0.9-1.7,2.2-1.9,3.6
		c-0.2,2.9,1.9,5.5,4.9,5.8L151.6,259.1z"/>
	<path d="M162.5,306.6l5-11.7c1.2-2.7-0.1-5.8-2.8-7c-1.9-0.8-4.1-0.4-5.5,0.8c-0.6,0.5-1.1,1.2-1.5,2l-5,11.7
		c-1.2,2.7,0.1,5.8,2.8,7C158.2,310.6,161.3,309.3,162.5,306.6z"/>
	<path d="M299.1,179.5c2.9,0.2,5.5-1.9,5.8-4.9l0.7-8c0.2-2.9-1.9-5.5-4.9-5.8c-1.5-0.1-2.8,0.4-3.9,1.2c-1,0.9-1.7,2.2-1.9,3.6
		l-0.7,8C294,176.7,296.2,179.3,299.1,179.5z"/>
	<path d="M290.6,309.9c-1.5-0.1-2.8,0.4-3.9,1.2c-1,0.9-1.7,2.2-1.9,3.6c-0.2,2.9,1.9,5.5,4.9,5.8l8,0.7c2.9,0.2,5.5-1.9,5.8-4.9
		c0.2-2.9-1.9-5.5-4.9-5.8L290.6,309.9z"/>
	<path d="M165.3,160.2c2.2-1.9,2.5-5.3,0.6-7.5l-3.7-4.3c-1.9-2.2-5.3-2.5-7.5-0.6c-2.2,1.9-2.5,5.3-0.6,7.5l3.7,4.3
		C159.7,161.8,163.1,162.1,165.3,160.2z"/>
	<path d="M235.2,329.3l0.7-8c0.2-2.9-1.9-5.5-4.9-5.8c-1.5-0.1-2.8,0.4-3.9,1.2c-1,0.9-1.7,2.2-1.9,3.6l-0.7,8
		c-0.2,2.9,1.9,5.5,4.9,5.8C232.4,334.4,234.9,332.3,235.2,329.3z"/>
	<path d="M213.3,147.2c2.9,0.2,5.5-1.9,5.8-4.9c0.2-2.9-1.9-5.5-4.9-5.8l-8-0.7c-1.5-0.1-2.8,0.4-3.9,1.2c-1,0.9-1.7,2.2-1.9,3.6
		c-0.2,2.9,1.9,5.5,4.9,5.8L213.3,147.2z"/>
	<path d="M173.2,351.6c-1.5-0.1-2.8,0.4-3.9,1.2c-1,0.9-1.7,2.2-1.9,3.6c-0.2,2.9,1.9,5.5,4.9,5.8l8,0.7c2.9,0.2,5.5-1.9,5.8-4.9
		c0.2-2.9-1.9-5.5-4.9-5.8L173.2,351.6z"/>
	<path d="M366.7,267.9c-1.1,0.9-1.8,2.2-1.9,3.6c-0.1,1.4,0.3,2.8,1.2,3.9c0.9,1.1,2.2,1.8,3.6,1.9c1.4,0.1,2.8-0.3,3.9-1.2
		c1.1-0.9,1.8-2.2,1.9-3.6c0.1-1.4-0.3-2.8-1.2-3.9c-0.9-1.1-2.2-1.8-3.6-1.9C369.2,266.6,367.8,267,366.7,267.9z"/>
	<path d="M191.4,248.2c0.1-1.4-0.3-2.8-1.2-3.9s-2.2-1.8-3.6-1.9c-1.4-0.1-2.8,0.3-3.9,1.2s-1.8,2.2-1.9,3.6
		c-0.1,1.4,0.3,2.8,1.2,3.9s2.2,1.8,3.6,1.9c1.4,0.1,2.8-0.3,3.9-1.2S191.3,249.6,191.4,248.2z"/>
	<path d="M260.8,232.8c0.1-1.4-0.3-2.8-1.2-3.9s-2.2-1.8-3.6-1.9c-1.4-0.1-2.8,0.3-3.9,1.2s-1.8,2.2-1.9,3.6
		c-0.1,1.4,0.3,2.8,1.2,3.9s2.2,1.8,3.6,1.9c1.4,0.1,2.8-0.3,3.9-1.2S260.7,234.2,260.8,232.8z"/>
	<path d="M288.9,347.8c-1.1,0.9-1.8,2.2-1.9,3.6c-0.1,1.4,0.3,2.8,1.2,3.9c0.9,1.1,2.2,1.8,3.6,1.9c1.4,0.1,2.8-0.3,3.9-1.2
		c1.1-0.9,1.8-2.2,1.9-3.6c0.1-1.4-0.3-2.8-1.2-3.9c-0.9-1.1-2.2-1.8-3.6-1.9C291.4,346.5,289.9,346.9,288.9,347.8z"/>
	<path d="M328.8,227.5c0.1-1.4-0.3-2.8-1.2-3.9c-0.9-1.1-2.2-1.8-3.6-1.9c-1.4-0.1-2.8,0.3-3.9,1.2c-1.1,0.9-1.8,2.2-1.9,3.6
		c-0.1,1.4,0.3,2.8,1.2,3.9c0.9,1.1,2.2,1.8,3.6,1.9c1.4,0.1,2.8-0.3,3.9-1.2C328,230.2,328.7,228.9,328.8,227.5z"/>
	<path d="M114.1,173.7c1.1-0.9,1.8-2.2,1.9-3.6c0.1-1.4-0.3-2.8-1.2-3.9c-0.9-1.1-2.2-1.8-3.6-1.9c-1.4-0.1-2.8,0.3-3.9,1.2
		c-1.1,0.9-1.8,2.2-1.9,3.6c-0.1,1.4,0.3,2.8,1.2,3.9c0.9,1.1,2.2,1.8,3.6,1.9C111.6,175.1,113,174.6,114.1,173.7z"/>
	<path d="M258.9,124.9c1.1-0.9,1.8-2.2,1.9-3.6c0.1-1.4-0.3-2.8-1.2-3.9c-0.9-1.1-2.2-1.8-3.6-1.9c-1.4-0.1-2.8,0.3-3.9,1.2
		s-1.8,2.2-1.9,3.6c-0.1,1.4,0.3,2.8,1.2,3.9s2.2,1.8,3.6,1.9C256.5,126.3,257.9,125.8,258.9,124.9z"/>
	<path d="M184.2,110.6c1.1-0.9,1.8-2.2,1.9-3.6c0.1-1.4-0.3-2.8-1.2-3.9c-0.9-1.1-2.2-1.8-3.6-1.9c-1.4-0.1-2.8,0.3-3.9,1.2
		s-1.8,2.2-1.9,3.6c-0.1,1.4,0.3,2.8,1.2,3.9c0.9,1.1,2.2,1.8,3.6,1.9C181.7,112,183.1,111.5,184.2,110.6z"/>
	<path d="M340.6,193.4c1.1-0.9,1.8-2.2,1.9-3.6c0.1-1.4-0.3-2.8-1.2-3.9c-0.9-1.1-2.2-1.8-3.6-1.9c-1.4-0.1-2.8,0.3-3.9,1.2
		c-1.1,0.9-1.8,2.2-1.9,3.6c-0.1,1.4,0.3,2.8,1.2,3.9c0.9,1.1,2.2,1.8,3.6,1.9C338.1,194.8,339.5,194.3,340.6,193.4z"/>
	<path d="M275.4,99.1c1.1-0.9,1.8-2.2,1.9-3.6c0.1-1.4-0.3-2.8-1.2-3.9c-0.9-1.1-2.2-1.8-3.6-1.9c-1.4-0.1-2.8,0.3-3.9,1.2
		c-1.1,0.9-1.8,2.2-1.9,3.6c-0.1,1.4,0.3,2.8,1.2,3.9c0.9,1.1,2.2,1.8,3.6,1.9C272.9,100.4,274.3,100,275.4,99.1z"/>
	<path d="M290.4,139.9c1.1-0.9,1.8-2.2,1.9-3.6c0.1-1.4-0.3-2.8-1.2-3.9c-0.9-1.1-2.2-1.8-3.6-1.9c-1.4-0.1-2.8,0.3-3.9,1.2
		c-1.1,0.9-1.8,2.2-1.9,3.6c-0.1,1.4,0.3,2.8,1.2,3.9c0.9,1.1,2.2,1.8,3.6,1.9C287.9,141.3,289.4,140.9,290.4,139.9z"/>
</g>
</svg>
