<svg id="Capa_1" enable-background="new 0 0 512.111 512.111" height="512" viewBox="0 0 512.111 512.111" width="512" xmlns="http://www.w3.org/2000/svg"><g><g id="Layer_2_00000102544906541929768270000007721413354492367523_"><g id="Layer_1-2_13_"><g id="breads_1_"><path d="m6.09 265.911c2.1 11.9 4.8 23.8 8.2 35.2 3.8 13.3 8.8 26.2 15 38.6 2.2 4.2 7.3 5.8 11.5 3.6 4.1-2.1 5.7-7.2 3.7-11.3-4-8-7.5-16.3-10.3-24.7h25.7c33.9-1.2 33.9-50 0-51.2h-37.9c-1.8-11-3-22.4-3.8-34.1h24.6c14.1 0 25.6-11.5 25.6-25.6s-11.5-25.6-25.6-25.6h-24.6c.8-11.7 2-23.1 3.8-34.1h37.9c14.1.1 25.7-11.2 25.9-25.3s-11.3-25.9-25.5-26.1c-.2 0-.3 0-.5 0h-25.6c46.1-127.5 121.3-58.3 134.1 66.6.5 4.7 4.6 8.1 9.3 7.7 4.7-.5 8.1-4.6 7.7-9.3-10-89.7-46.8-150.4-91.3-150.3-45.9-1-78.8 67.8-87.9 126.5-8 46-8.1 93.4 0 139.4zm62.3 15.7c0 4.7-3.8 8.5-8.5 8.5h-30.9c-1.6-5.6-2.9-10.9-4.1-17.1h35c4.6.1 8.5 3.9 8.5 8.6zm-17.1-85.3c0 4.7-3.8 8.5-8.5 8.5h-25.5c-.2-5.6-.2-11.4 0-17.1h25.4c4.8 0 8.6 3.9 8.6 8.6zm17.1-85.4c0 4.7-3.8 8.5-8.5 8.5h-35c1.2-5.7 2.5-11.5 4.1-17.1h30.9c4.6.1 8.5 3.9 8.5 8.6z"/><path d="m375.59 153.611h-102.4c-60.7-.7-134.5 31.3-136.5 93.9.1 14.8 4.9 29.2 13.7 41.1 2.7 3.9 8 4.8 11.9 2.1s4.8-8 2.1-11.9c-20.1-28-10.2-61 19.9-82.3 60.7-47.8 206.3-26.4 208.4 51 0 13-5 25.5-15 37-1.3 1.5-2.1 3.5-2.1 5.6v99.6c.1 11.2 16.5 11.7 17.1.3.2 0-.2-96.7 0-96.8 35.8-43.3 11.5-98.6-41.2-122.5h24.1c80.5-.2 151.4 54.6 104.5 113.8-1.3 1.5-2.1 3.5-2.1 5.6v204.9h-97.1c-11.2.3-11.3 16.7 0 17.1h105.6c4.7 0 8.5-3.8 8.5-8.5 0 0 0-210.3 0-210.4 52.8-70.7-25.3-140.2-119.4-139.6z"/><path d="m221.99 213.311c11.3.3 11.3 16.7 0 17.1-11.3-.3-11.3-16.7 0-17.1z"/><path d="m264.59 196.311c11.3.3 11.3 16.7 0 17.1-11.2-.4-11.2-16.8 0-17.1z"/><path d="m307.29 213.311c11.3.3 11.3 16.7 0 17.1-11.3-.3-11.3-16.7 0-17.1z"/><path d="m281.69 247.511c11.3.3 11.3 16.7 0 17.1-11.3-.4-11.3-16.8 0-17.1z"/><path d="m247.59 247.511c11.3.3 11.3 16.7 0 17.1-11.3-.4-11.3-16.8 0-17.1z"/><path d="m187.79 307.211c-104 0-187.7 78-187.7 142.5 0 61.1 73.9 61.7 127.9 62.2 4.7-.1 8.5-3.8 8.6-8.5 0-4.7-3.7-8.6-8.4-8.6-72-.6-111.1-8-111-45.1 0-28.3 22.5-64.3 59.7-90.4v24.7c1.2 33.9 50 33.9 51.2 0v-50.1c11.1-3.6 22.5-6.2 34.1-7.7v32.2c0 14.1 11.4 25.6 25.6 25.6 14.1 0 25.6-11.4 25.6-25.6 0 0 0-32.2 0-32.3 11.6 1.5 23 4.1 34.1 7.7v50.1c1.2 33.9 50 33.9 51.2 0v-24.7c40.8 28.2 77.9 83.8 50.4 115.6-20 23.3-104 20-161.3 19.8l-25.6.1c-4.7 0-8.5 3.8-8.5 8.5s3.8 8.5 8.5 8.5l25.6-.1c15.4 0 30.9.1 46.1.1 58.7 0 104.6-2.3 127.3-25 9.5-9.5 14.3-22 14.3-37.3.1-64.2-83.7-142.2-187.7-142.2zm-76.8 76.8c0 4.7-3.8 8.5-8.5 8.5s-8.5-3.8-8.5-8.5v-35.2c5.5-3 11.2-5.9 17.1-8.4v43.6zm170.7 0c0 4.7-3.8 8.5-8.5 8.5s-8.5-3.8-8.5-8.5v-43.6c5.9 2.5 11.6 5.3 17.1 8.4v35.2zm-85.3-25.6c0 4.7-3.8 8.5-8.5 8.5s-8.5-3.8-8.5-8.5v-33.7c5.7-.3 11.4-.3 17.1 0z"/></g></g></g></g></svg>