<svg id="Capa_1" enable-background="new 0 0 512.012 512.012" height="512" viewBox="0 0 512.012 512.012" width="512" xmlns="http://www.w3.org/2000/svg"><g><g><path d="m50.478 40.471c-5.522 0-10 4.478-10 10v68.376c0 5.522 4.478 10 10 10h68.376c5.522 0 10-4.478 10-10v-68.376c0-5.522-4.478-10-10-10zm58.376 68.376h-48.376v-48.376h48.376z"/><path d="m337.155 128.847c4.293 0 8.107-2.74 9.478-6.809 7.687-22.83 13.064-46.5 15.983-70.353.348-2.843-.539-5.698-2.438-7.843s-4.624-3.372-7.488-3.372h-84.52c-5.522 0-10 4.478-10 10v68.376c0 5.522 4.478 10 10 10h68.985zm-58.985-68.376h63.027c-2.567 16.352-6.355 32.556-11.309 48.376h-51.718z"/><path d="m149.446 241.512 66.634 15.333c.754.174 1.509.257 2.251.257 4.555 0 8.672-3.132 9.736-7.76l15.334-66.634c.595-2.584.139-5.299-1.269-7.548-1.407-2.248-3.649-3.845-6.234-4.439l-66.635-15.333c-5.382-1.241-10.749 2.121-11.987 7.503l-15.333 66.634c-1.239 5.381 2.12 10.748 7.503 11.987zm25.078-64.392 47.144 10.849-10.849 47.144-47.143-10.849z"/><path d="m255.52 265.921 66.634 15.333c.741.171 1.493.255 2.242.255 1.861 0 3.702-.52 5.306-1.523 2.248-1.407 3.845-3.649 4.439-6.234l15.333-66.635c1.238-5.382-2.12-10.749-7.503-11.987l-66.634-15.333c-2.585-.596-5.299-.14-7.548 1.269-2.248 1.407-3.845 3.649-4.439 6.234l-15.333 66.635c-1.238 5.38 2.12 10.748 7.503 11.986zm25.078-64.393 47.144 10.849-10.849 47.144-47.144-10.848z"/><path d="m463.779 223.159-82.367-18.954c-5.384-1.24-10.75 2.121-11.987 7.503l-15.334 66.634c-.595 2.584-.139 5.299 1.269 7.548 1.407 2.248 3.649 3.845 6.234 4.439l67.229 15.47c.747.172 1.499.256 2.243.256 3.421 0 6.673-1.762 8.52-4.766 12.609-20.521 23.158-42.383 31.353-64.975.977-2.692.752-5.674-.616-8.189-1.371-2.516-3.753-4.324-6.544-4.966zm-37.553 61.52-50.402-11.598 10.849-47.143 61.422 14.134c-6.17 15.361-13.495 30.303-21.869 44.607z"/><path d="m218.992 288.782c1.238-5.382-2.12-10.749-7.503-11.987l-66.634-15.334c-2.584-.597-5.3-.14-7.548 1.269-2.248 1.407-3.845 3.649-4.439 6.234l-15.334 66.635c-.595 2.584-.139 5.299 1.269 7.548 1.407 2.248 3.649 3.845 6.234 4.439l66.635 15.333c.754.174 1.509.257 2.251.257 4.555 0 8.672-3.132 9.736-7.76zm-32.581 52.405-47.144-10.849 10.849-47.144 47.144 10.849z"/><path d="m317.563 301.203-66.635-15.333c-5.381-1.239-10.749 2.121-11.987 7.503l-15.333 66.634c-1.238 5.382 2.12 10.749 7.503 11.987l66.634 15.334c.741.171 1.493.255 2.242.255 1.861 0 3.702-.52 5.306-1.523 2.248-1.407 3.845-3.649 4.439-6.234l15.334-66.635c.595-2.584.139-5.299-1.269-7.548-1.407-2.248-3.649-3.845-6.234-4.44zm-25.079 64.392-47.144-10.849 10.849-47.144 47.144 10.849z"/><path d="m408.113 322.04-51.11-11.761c-5.382-1.241-10.749 2.121-11.987 7.503l-15.333 66.634c-.595 2.584-.139 5.3 1.269 7.548s3.649 3.845 6.234 4.439l8.52 1.96c.743.171 1.494.255 2.242.255 2.195 0 4.354-.724 6.122-2.094 22.09-17.104 42.14-36.776 59.593-58.471 2.159-2.684 2.785-6.289 1.658-9.543-1.129-3.253-3.852-5.698-7.208-6.47zm-54.943 49.486 9.093-39.515 25.39 5.843c-10.659 12.013-22.195 23.278-34.483 33.672z"/><path d="m293.154 407.277-66.634-15.333c-5.38-1.24-10.749 2.121-11.987 7.503l-11.762 51.109c-.772 3.355.236 6.873 2.67 9.31 1.897 1.898 4.451 2.933 7.075 2.933.743 0 1.492-.083 2.232-.252 27.143-6.217 53.601-15.651 78.639-28.042 2.688-1.331 4.638-3.798 5.31-6.721l1.96-8.52c1.238-5.381-2.121-10.748-7.503-11.987zm-67.216 31.788 5.843-25.389 39.515 9.093c-14.721 6.509-29.894 11.96-45.358 16.296z"/><path d="m187.079 382.868-66.634-15.333c-2.584-.596-5.3-.14-7.548 1.269-2.248 1.407-3.845 3.649-4.439 6.234l-18.953 82.367c-.643 2.791-.058 5.723 1.607 8.054 1.664 2.33 4.247 3.836 7.096 4.134 12.278 1.286 24.651 1.93 37.034 1.93 11.723 0 23.453-.577 35.109-1.73 4.272-.423 7.798-3.525 8.761-7.709l15.47-67.228c.595-2.584.139-5.3-1.269-7.548s-3.649-3.845-6.234-4.44zm-25.828 67.651c-16.524 1.28-33.164 1.336-49.679.172l14.134-61.422 47.143 10.848z"/><path d="m505.87 208.781c-6.904-12.688-18.938-21.824-33.016-25.062l-97.764-22.497c13.965-33.416 23.282-68.549 27.698-104.621 1.754-14.338-2.73-28.765-12.303-39.58-9.573-10.817-23.349-17.021-37.795-17.021h-114.178c-5.522 0-10 4.478-10 10s4.478 10 10 10h114.178c8.722 0 17.038 3.745 22.817 10.276 5.78 6.53 8.487 15.24 7.429 23.896-4.332 35.389-13.621 69.831-27.623 102.498l-123.957-28.524c3.712-1.461 6.344-5.07 6.344-9.3v-68.375c0-5.522-4.478-10-10-10h-68.376c-5.522 0-10 4.478-10 10v67.382c-3.134 1.181-6.175 2.68-9.078 4.497-10.103 6.322-17.487 15.791-21.154 26.979-.08-.002-.158-.012-.239-.012h-68.375c-5.522 0-10 4.478-10 10v68.376c0 5.522 4.478 10 10 10h48.057l-4.711 20.471h-43.346c-5.522 0-10 4.478-10 10v84.52c0 2.864 1.228 5.59 3.372 7.488 1.839 1.627 4.2 2.512 6.628 2.512.403 0 .81-.024 1.215-.074 6.245-.764 12.51-1.721 18.748-2.824l-4.963 21.567c-3.76.575-7.533 1.116-11.295 1.577-1.224.149-2.471.226-3.706.226-7.446 0-14.618-2.718-20.194-7.653-6.529-5.779-10.274-14.096-10.274-22.816l-.002-302.216c0-8.139 3.17-15.791 8.925-21.547 5.754-5.755 13.406-8.924 21.546-8.924h98.034c5.522 0 10-4.478 10-10s-4.478-10-10-10h-98.034c-13.483 0-26.157 5.25-35.689 14.782-9.532 9.533-14.782 22.207-14.782 35.689l.001 302.213c0 14.445 6.203 28.221 17.02 37.793 9.235 8.175 21.114 12.677 33.449 12.677 2.043 0 4.105-.125 6.134-.373 1.35-.166 2.703-.341 4.056-.521l-10.601 46.07c-3.24 14.078-.284 28.894 8.11 40.649 7.168 10.037 17.734 17.089 29.755 19.854.001 0 .002.001.003.001 1.996.459 4.034.799 6.058 1.01 13.807 1.446 27.622 2.168 41.42 2.168 30.011 0 59.916-3.417 89.311-10.225 43.005-9.959 83.859-26.932 121.43-50.445 37.569-23.515 70.691-52.842 98.445-87.167 27.693-34.251 49.356-72.627 64.386-114.062 4.924-13.58 3.789-28.644-3.114-41.332zm-336.546-148.31h48.376v48.376h-48.376zm-108.846 157.221v-48.376h48.375s.019 23.129.037 23.375l-5.753 25.001zm0 123.498v-63.027h28.745l-13.887 60.351c-4.925 1-9.887 1.896-14.858 2.676zm429.704-97.897c-14.271 39.345-34.841 75.785-61.138 108.308-26.357 32.598-57.816 60.452-93.504 82.788-35.688 22.335-74.49 38.456-115.33 47.914-40.743 9.436-82.508 12.008-124.137 7.65-1.221-.128-2.453-.334-3.661-.611-7.255-1.67-13.633-5.927-17.96-11.986-5.067-7.097-6.853-16.041-4.896-24.541l67.771-294.516c1.825-7.932 6.629-14.678 13.53-18.995 6.897-4.319 15.064-5.688 22.997-3.866l294.516 67.771c8.499 1.956 15.764 7.471 19.932 15.131s4.853 16.756 1.88 24.953z"/><circle cx="193.512" cy="10" r="10"/></g></g></svg>