<?xml version="1.0" encoding="utf-8"?>
<!-- Generator: Adobe Illustrator 24.0.1, SVG Export Plug-In . SVG Version: 6.00 Build 0)  -->
<svg version="1.1" id="Capa_1" xmlns="http://www.w3.org/2000/svg" xmlns:xlink="http://www.w3.org/1999/xlink" x="0px" y="0px"
	 viewBox="0 0 512 512" style="enable-background:new 0 0 512 512;" xml:space="preserve">
<style type="text/css">
	.st0{stroke:#000000;stroke-width:4;stroke-miterlimit:10;}
</style>
<g>
	<path d="M496,256c0-18-2-35.7-5.8-52.8c13.4-6.7,21.8-20.2,21.8-35.4c0-21.8-17.7-39.6-39.6-39.6c-4.1,0-8.2,0.6-12,1.9
		c-4.2-6.8-8.8-13.4-13.7-19.8c0.8-4.9,1.2-9.8,1.2-14.6C447.9,42.9,405,0,352.2,0c-20.6,0-40.9,6.8-57.4,19.2
		C282.1,17.1,269.1,16,256,16c-28.4,0-56,4.9-81.8,14.3c-7.5-9-18.5-14.3-30.4-14.3c-21.8,0-39.6,17.7-39.6,39.6
		c0,4.4,0.7,8.7,2.1,12.7c-1.6,1.3-3.3,2.6-4.9,4c-2-0.1-3.9-0.2-5.8-0.2C42.9,72.1,0,115.1,0,167.8c0,20.3,6.3,39.6,18.2,56
		C16.8,234.4,16,245.2,16,256c0,18,2,35.7,5.8,52.8C8.6,315.4,0,329,0,344.2c0,21.8,17.7,39.6,39.6,39.6c4.1,0,8.2-0.6,12-1.9
		c4.2,6.8,8.8,13.4,13.7,19.8c-0.8,4.9-1.2,9.8-1.2,14.6c0,52.8,42.9,95.7,95.7,95.7c20.6,0,40.9-6.8,57.4-19.2
		c12.7,2.1,25.7,3.1,38.8,3.1c18,0,35.7-2,52.8-5.8c6.6,13.3,20.2,21.8,35.4,21.8c21.8,0,39.6-17.7,39.6-39.6c0-4.1-0.6-8.2-1.9-12
		c10-6.2,19.5-13.1,28.6-20.7c2,0.1,4,0.2,5.9,0.2c52.8,0,95.7-42.9,95.7-95.7c0-20.3-6.3-39.5-18.2-56
		C495.2,277.6,496,266.9,496,256L496,256z M472.4,143.3c13.5,0,24.6,11,24.6,24.6c0,8.3-4.1,15.8-10.7,20.3
		c-4.5-15.4-10.6-30.3-18.1-44.5C469.6,143.4,471,143.3,472.4,143.3L472.4,143.3z M352.2,15c43.9,0,79.6,35.2,80.6,78.8
		c-2.3-2.5-4.7-5-7.1-7.5C394.9,55.5,357.1,34.1,316,23.6C327.1,17.9,339.4,15,352.2,15z M143.8,31c5.7,0,11,1.9,15.3,5.3
		c-13.9,6.1-27.1,13.6-39.6,22.2c-0.1-1-0.2-2-0.2-3C119.2,42.1,130.2,31,143.8,31z M39.6,368.7c-13.5,0-24.6-11-24.6-24.6
		c0-8.3,4.1-15.8,10.7-20.3c4.5,15.4,10.6,30.3,18.1,44.5C42.4,368.6,41,368.7,39.6,368.7z M159.8,497c-43.9,0-79.6-35.2-80.6-78.8
		c2.3,2.5,4.7,5,7.1,7.5c30.8,30.8,68.6,52.2,109.7,62.8C184.9,494.1,172.6,497,159.8,497z M344.2,497c-8.3,0-15.8-4.1-20.3-10.7
		c15.4-4.5,30.3-10.6,44.5-18.1c0.2,1.4,0.4,2.8,0.4,4.3C368.7,486,357.7,497,344.2,497L344.2,497z M415.1,415.1
		c-42.5,42.5-99,65.9-159.1,65.9s-116.6-23.4-159.1-65.9S31,316.1,31,256c0-40.4,10.8-80,31.3-114.6c2.1-3.6,0.9-8.2-2.6-10.3
		c-3.6-2.1-8.2-0.9-10.3,2.6c-12.5,21-21.6,43.8-27.1,67.6c-4.8-10.4-7.3-21.8-7.3-33.5c0-40.8,30.4-74.5,69.7-79.9
		c-6.2,6.3-12.1,13-17.6,20.1c-2.6,3.3-2,8,1.3,10.5c3.3,2.6,8,2,10.5-1.3C121.9,62.5,186.4,31,256,31c60.1,0,116.6,23.4,159.1,65.9
		S481,195.9,481,256S457.6,372.6,415.1,415.1z M497,344.2c0,40.8-30.4,74.6-69.8,79.9c31.3-31.8,52.6-70.9,62.5-113.3
		C494.5,321.2,497,332.5,497,344.2L497,344.2z"/>
	<path d="M78.9,178.8l-8,8c-2.9,2.9-2.9,7.7,0,10.6c1.5,1.5,3.4,2.2,5.3,2.2s3.8-0.7,5.3-2.2l8-8c2.9-2.9,2.9-7.7,0-10.6
		C86.5,175.9,81.8,175.9,78.9,178.8z"/>
	<path d="M293.4,239.1l-8,16c-1.9,3.7-0.4,8.2,3.4,10.1c1.1,0.5,2.2,0.8,3.3,0.8c2.8,0,5.4-1.5,6.7-4.1l8-16
		c1.9-3.7,0.4-8.2-3.4-10.1C299.7,233.9,295.2,235.4,293.4,239.1L293.4,239.1z"/>
	<path d="M284.7,78.3l16,8c1.1,0.5,2.2,0.8,3.3,0.8c2.8,0,5.4-1.5,6.7-4.1c1.9-3.7,0.4-8.2-3.4-10.1l-16-8
		c-3.7-1.9-8.2-0.3-10.1,3.4C279.5,72,281,76.5,284.7,78.3L284.7,78.3z"/>
	<path d="M429.6,210.6l-8-8c-2.9-2.9-7.7-2.9-10.6,0c-2.9,2.9-2.9,7.7,0,10.6l8,8c1.5,1.5,3.4,2.2,5.3,2.2s3.8-0.7,5.3-2.2
		C432.6,218.3,432.6,213.5,429.6,210.6L429.6,210.6z"/>
	<path d="M396.9,300l-16,8c-3.7,1.9-5.2,6.4-3.4,10.1c1.3,2.6,4,4.1,6.7,4.1c1.1,0,2.3-0.3,3.3-0.8l16-8c3.7-1.9,5.2-6.4,3.4-10.1
		S400.6,298.2,396.9,300L396.9,300z"/>
	<path d="M445.7,266.7l-8-8c-2.9-2.9-7.7-2.9-10.6,0c-2.9,2.9-2.9,7.7,0,10.6l8,8c1.5,1.5,3.4,2.2,5.3,2.2s3.8-0.7,5.3-2.2
		C448.6,274.4,448.6,269.7,445.7,266.7L445.7,266.7z"/>
	<path d="M255.2,310.3l-8,8c-2.9,2.9-2.9,7.7,0,10.6c1.5,1.5,3.4,2.2,5.3,2.2s3.8-0.7,5.3-2.2l8-8c2.9-2.9,2.9-7.7,0-10.6
		S258.1,307.4,255.2,310.3L255.2,310.3z"/>
	<path d="M336.2,408.8c-4.1,0-7.5,3.4-7.5,7.5v16c0,4.1,3.4,7.5,7.5,7.5s7.5-3.4,7.5-7.5v-16C343.7,412.2,340.3,408.8,336.2,408.8z"
		/>
	<path d="M199.9,392.8c-4.1,0-7.5,3.4-7.5,7.5v16c0,4.1,3.4,7.5,7.5,7.5s7.5-3.4,7.5-7.5v-16C207.4,396.1,204,392.8,199.9,392.8z"/>
	<path d="M140.8,378.7h-16c-4.1,0-7.5,3.4-7.5,7.5s3.4,7.5,7.5,7.5h16c4.1,0,7.5-3.4,7.5-7.5S144.9,378.7,140.8,378.7z"/>
	<path d="M128.9,218.1c-2.9-2.9-7.7-2.9-10.6,0c-2.9,2.9-2.9,7.7,0,10.6l8,8c1.5,1.5,3.4,2.2,5.3,2.2s3.8-0.7,5.3-2.2
		c2.9-2.9,2.9-7.7,0-10.6L128.9,218.1z"/>
	<path d="M390.5,152.6c1.5,1.5,3.4,2.2,5.3,2.2c1.9,0,3.8-0.7,5.3-2.2c2.9-2.9,2.9-7.7,0-10.6l-8-8c-2.9-2.9-7.7-2.9-10.6,0
		c-2.9,2.9-2.9,7.7,0,10.6L390.5,152.6z"/>
	<path d="M99,305.4l-16-8c-3.7-1.9-8.2-0.4-10.1,3.4c-1.9,3.7-0.4,8.2,3.4,10.1l16,8c1.1,0.5,2.2,0.8,3.3,0.8c2.8,0,5.4-1.5,6.7-4.1
		C104.2,311.8,102.7,307.3,99,305.4z"/>
	<path d="M269.3,427.1c-2.9-2.9-7.7-2.9-10.6,0c-2.9,2.9-2.9,7.7,0,10.6l8,8c1.5,1.5,3.4,2.2,5.3,2.2s3.8-0.7,5.3-2.2
		c2.9-2.9,2.9-7.7,0-10.6L269.3,427.1z"/>
	<path d="M213.2,346.9c-2.9-2.9-7.7-2.9-10.6,0c-2.9,2.9-2.9,7.7,0,10.6l8,8c1.5,1.5,3.4,2.2,5.3,2.2s3.8-0.7,5.3-2.2
		c2.9-2.9,2.9-7.7,0-10.6L213.2,346.9z"/>
	<path d="M381.5,379c-2.9-2.9-7.7-2.9-10.6,0c-2.9,2.9-2.9,7.7,0,10.6l8,8c1.5,1.5,3.4,2.2,5.3,2.2s3.8-0.7,5.3-2.2
		c2.9-2.9,2.9-7.7,0-10.6L381.5,379z"/>
	<path d="M373.5,258.7c-2.9-2.9-7.7-2.9-10.6,0l-8,8c-2.9,2.9-2.9,7.7,0,10.6c1.5,1.5,3.4,2.2,5.3,2.2s3.8-0.7,5.3-2.2l8-8
		C376.5,266.4,376.5,261.6,373.5,258.7L373.5,258.7z"/>
	<path d="M215.9,79.1c1.1,0,2.3-0.3,3.3-0.8l16-8c3.7-1.9,5.2-6.4,3.4-10.1s-6.4-5.2-10.1-3.4l-16,8c-3.7,1.9-5.2,6.4-3.4,10.1
		C210.5,77.6,213.2,79.1,215.9,79.1L215.9,79.1z"/>
	<path d="M270.3,136.7c4.1,0,7.5-3.4,7.5-7.5v-16c0-4.1-3.4-7.5-7.5-7.5s-7.5,3.4-7.5,7.5v16C262.8,133.4,266.1,136.7,270.3,136.7z"
		/>
	<path d="M199,149l16,8c1.1,0.5,2.2,0.8,3.3,0.8c2.8,0,5.4-1.5,6.7-4.1c1.9-3.7,0.4-8.2-3.4-10.1l-16-8c-3.7-1.9-8.2-0.4-10.1,3.4
		C193.8,142.6,195.3,147.2,199,149L199,149z"/>
	<path d="M161.2,93.2l-9.2,0.5c-4.1,0.2-7.3,3.8-7.1,7.9c0.2,4,3.5,7.1,7.5,7.1c0.1,0,0.3,0,0.4,0l9.2-0.5c4.1-0.2,7.3-3.8,7.1-7.9
		S165.3,92.9,161.2,93.2z"/>
	<path d="M332.4,130.5l8-8c2.9-2.9,2.9-7.7,0-10.6c-2.9-2.9-7.7-2.9-10.6,0l-8,8c-2.9,2.9-2.9,7.7,0,10.6c1.5,1.5,3.4,2.2,5.3,2.2
		S331,132,332.4,130.5L332.4,130.5z"/>
	<path class="st0" d="M193.3,179.7c-11.9,0-21.6,9.7-21.6,21.6c0,11.9,9.7,21.6,21.6,21.6c3.8,0,7.5-1,10.8-2.9
		c1.1-0.6,1.5-2,0.8-3.1c-0.6-1.1-2-1.5-3.1-0.8c-2.6,1.5-5.5,2.3-8.5,2.3c-9.4,0-17.1-7.7-17.1-17.1c0-9.4,7.7-17.1,17.1-17.1
		c9.4,0,17.1,7.7,17.1,17.1c0,3.2-0.9,6.2-2.5,8.9c-0.7,1.1-0.3,2.5,0.7,3.1c1.1,0.7,2.5,0.3,3.1-0.7c2.1-3.4,3.2-7.3,3.2-11.3
		C214.9,189.4,205.2,179.7,193.3,179.7L193.3,179.7z"/>
	<path d="M258.9,381.4l16,8c1.1,0.5,2.2,0.8,3.3,0.8c2.8,0,5.4-1.5,6.7-4.1c1.9-3.7,0.4-8.2-3.4-10.1l-16-8
		c-3.7-1.9-8.2-0.4-10.1,3.4C253.7,375.1,255.2,379.6,258.9,381.4L258.9,381.4z"/>
	<path d="M141.6,172.2l16,8c1.1,0.5,2.2,0.8,3.3,0.8c2.8,0,5.4-1.5,6.7-4.1c1.9-3.7,0.4-8.2-3.4-10.1l-16-8
		c-3.7-1.9-8.2-0.4-10.1,3.4C136.4,165.9,137.9,170.4,141.6,172.2L141.6,172.2z"/>
	<path class="st0" d="M194,289.7c-11.9,0-21.6,9.7-21.6,21.6s9.7,21.6,21.6,21.6c3.8,0,7.5-1,10.8-2.9c1.1-0.6,1.5-2,0.8-3.1
		c-0.6-1.1-2-1.5-3.1-0.8c-2.6,1.5-5.5,2.3-8.5,2.3c-9.4,0-17.1-7.7-17.1-17.1s7.7-17.1,17.1-17.1s17.1,7.7,17.1,17.1
		c0,3.2-0.9,6.2-2.5,8.9c-0.7,1.1-0.3,2.5,0.7,3.1c1.1,0.7,2.5,0.3,3.1-0.7c2.1-3.4,3.2-7.3,3.2-11.3
		C215.6,299.4,205.9,289.7,194,289.7L194,289.7z"/>
	<path class="st0" d="M315.3,290c-11.9,0-21.6,9.7-21.6,21.6s9.7,21.6,21.6,21.6c3.8,0,7.5-1,10.8-2.9c1.1-0.6,1.5-2,0.8-3.1
		c-0.6-1.1-2-1.5-3.1-0.8c-2.6,1.5-5.5,2.3-8.5,2.3c-9.4,0-17.1-7.7-17.1-17.1s7.7-17.1,17.1-17.1s17.1,7.7,17.1,17.1
		c0,3.2-0.9,6.2-2.5,8.9c-0.7,1.1-0.3,2.5,0.7,3.1c1.1,0.7,2.5,0.3,3.1-0.7c2.1-3.4,3.2-7.3,3.2-11.3
		C336.9,299.7,327.2,290,315.3,290L315.3,290z"/>
	<path class="st0" d="M315.2,181c-11.9,0-21.6,9.7-21.6,21.6s9.7,21.6,21.6,21.6c3.8,0,7.5-1,10.8-2.9c1.1-0.6,1.5-2,0.8-3.1
		c-0.6-1.1-2-1.5-3.1-0.8c-2.6,1.5-5.5,2.3-8.5,2.3c-9.4,0-17.1-7.7-17.1-17.1s7.7-17.1,17.1-17.1s17.1,7.7,17.1,17.1
		c0,3.2-0.9,6.2-2.5,8.9c-0.7,1.1-0.3,2.5,0.7,3.1c1.1,0.7,2.5,0.3,3.1-0.7c2.1-3.4,3.2-7.3,3.2-11.3
		C336.8,190.7,327.1,181,315.2,181L315.2,181z"/>
	<path d="M340.3,339l-6.9,14c-1.6,3.2-0.3,7.2,2.9,8.8c0.9,0.5,1.9,0.7,2.9,0.7c2.4,0,4.7-1.3,5.8-3.6l6.9-14
		c1.6-3.2,0.3-7.2-2.9-8.8C345.8,334.5,341.9,335.8,340.3,339L340.3,339z"/>
	<path d="M196,258.2l16,8c1.1,0.5,2.2,0.8,3.3,0.8c2.8,0,5.4-1.5,6.7-4.1c1.9-3.7,0.4-8.2-3.4-10.1l-16-8c-3.7-1.9-8.2-0.4-10.1,3.4
		C190.8,251.9,192.3,256.4,196,258.2L196,258.2z"/>
	<path d="M251.1,183.7l16,8c1.1,0.5,2.2,0.8,3.3,0.8c2.8,0,5.4-1.5,6.7-4.1c1.9-3.7,0.4-8.2-3.4-10.1l-16-8
		c-3.7-1.9-8.2-0.4-10.1,3.4C245.9,177.4,247.4,181.9,251.1,183.7L251.1,183.7z"/>
	<path d="M254.8,281.5c4.1,0,7.5-3.4,7.5-7.5v-16c0-4.1-3.4-7.5-7.5-7.5c-4.1,0-7.5,3.4-7.5,7.5v16
		C247.3,278.1,250.6,281.5,254.8,281.5z"/>
	<path d="M138.8,333.3l-8,16c-1.9,3.7-0.4,8.2,3.4,10.1c1.1,0.5,2.2,0.8,3.3,0.8c2.8,0,5.4-1.5,6.7-4.1l8-16
		c1.9-3.7,0.4-8.2-3.4-10.1C145.2,328.1,140.7,329.6,138.8,333.3L138.8,333.3z"/>
	<path d="M82.4,250.2l-8,8c-2.9,2.9-2.9,7.7,0,10.6c1.5,1.5,3.4,2.2,5.3,2.2s3.8-0.7,5.3-2.2l8-8c2.9-2.9,2.9-7.7,0-10.6
		S85.3,247.3,82.4,250.2L82.4,250.2z"/>
	<path d="M140.4,270.2c-2.9-2.9-7.7-2.9-10.6,0c-2.9,2.9-2.9,7.7,0,10.6l8,8c1.5,1.5,3.4,2.2,5.3,2.2s3.8-0.7,5.3-2.2
		c2.9-2.9,2.9-7.7,0-10.6L140.4,270.2z"/>
	<path d="M112.1,137c-2.9-2.9-7.7-2.9-10.6,0c-2.9,2.9-2.9,7.7,0,10.6l8,8c1.5,1.5,3.4,2.2,5.3,2.2s3.8-0.7,5.3-2.2
		c2.9-2.9,2.9-7.7,0-10.6L112.1,137z"/>
	<path d="M405,349l16,8c1.1,0.5,2.2,0.8,3.3,0.8c2.8,0,5.4-1.5,6.7-4.1c1.9-3.7,0.4-8.2-3.4-10.1l-16-8c-3.7-1.9-8.2-0.4-10.1,3.4
		C399.7,342.7,401.2,347.2,405,349L405,349z"/>
	<path d="M355.6,160.2c-2.9-2.9-7.7-2.9-10.6,0l-8,8c-2.9,2.9-2.9,7.7,0,10.6c1.5,1.5,3.4,2.2,5.3,2.2s3.8-0.7,5.3-2.2l8-8
		C358.5,167.9,358.5,163.1,355.6,160.2L355.6,160.2z"/>
	<path d="M352.8,226.1l16,8c1.1,0.5,2.2,0.8,3.3,0.8c2.8,0,5.4-1.5,6.7-4.1c1.9-3.7,0.4-8.2-3.4-10.1l-16-8
		c-3.7-1.9-8.2-0.4-10.1,3.4C347.6,219.8,349.1,224.3,352.8,226.1L352.8,226.1z"/>
</g>
</svg>
