<svg height="682.66669pt" viewBox="-21 -21 682.66669 682.66669" width="682.66669pt" xmlns="http://www.w3.org/2000/svg"><path d="m320 583.550781c-145.320312 0-263.550781-118.230469-263.550781-263.550781 0-5.179688-4.191407-9.375-9.375-9.375-5.175781 0-9.375 4.195312-9.375 9.375 0 75.332031 29.285156 146.171875 82.449219 199.46875 53.273437 53.414062 124.25 82.832031 199.851562 82.832031 5.179688 0 9.375-4.199219 9.375-9.375 0-5.183593-4.195312-9.375-9.375-9.375zm0 0"/><path d="m519.492188 120.164062c-53.296876-53.175781-124.144532-82.464843-199.492188-82.464843-5.179688 0-9.375 4.199219-9.375 9.375 0 5.183593 4.195312 9.375 9.375 9.375 145.320312 0 263.550781 118.230469 263.550781 263.550781 0 5.179688 4.191407 9.375 9.375 9.375 5.175781 0 9.375-4.195312 9.375-9.375 0-75.585938-29.410156-146.554688-82.808593-199.835938zm0 0"/><path d="m546.273438 93.726562c-60.4375-60.441406-140.800782-93.726562-226.273438-93.726562-85.328125 0-165.605469 33.1875-226.046875 93.453125-60.585937 60.414063-93.953125 140.875-93.953125 226.546875 0 85.472656 33.285156 165.828125 93.726562 226.273438 60.445313 60.441406 140.800782 93.726562 226.273438 93.726562s165.828125-33.285156 226.273438-93.726562c60.441406-60.445313 93.726562-140.800782 93.726562-226.273438s-33.285156-165.828125-93.726562-226.273438zm-13.257813 439.289063c-56.898437 56.902344-132.550781 88.234375-213.015625 88.234375s-156.117188-31.332031-213.015625-88.234375c-56.902344-56.898437-88.234375-132.550781-88.234375-213.015625 0-166.109375 135.140625-301.25 301.25-301.25 80.464844 0 156.117188 31.332031 213.015625 88.234375 56.902344 56.898437 88.234375 132.550781 88.234375 213.015625s-31.332031 156.117188-88.234375 213.015625zm0 0"/><path d="m320 75c-135.09375 0-245 109.90625-245 245 0 65.304688 25.382812 126.75 71.464844 173.007812 46.238281 46.425782 107.871094 71.992188 173.535156 71.992188 135.09375 0 245-109.90625 245-245s-109.90625-245-245-245zm0 471.25c-124.757812 0-226.25-101.492188-226.25-226.25s101.492188-226.25 226.25-226.25c124.546875 0 225.902344 101.15625 226.242188 225.625-15.339844 111.246094-111.570313 195.0625-224.117188 195.0625-98.773438 0-179.132812-80.359375-179.132812-179.132812 0-77.984376 63.449218-141.429688 141.429687-141.429688 33.058594 0 64.214844 14.703125 85.269531 39.789062-15.375 9.570313-26.445312 23.683594-32.425781 39.675782-10.78125-12.269532-26.578125-20.039063-44.15625-20.039063-39.226563 0-71.148437 31.914063-71.148437 71.148438 0 47.742187 38.84375 86.585937 86.59375 86.585937 35.117187 0 68.160156-17.714844 87.742187-46.621094 32.105469 3.773438 62.902344-12.246093 78.625-39.476562 1.675781-2.90625 1.675781-6.484375-.007813-9.390625-8.742187-15.0625-22.304687-26.960937-38.160156-33.78125 6.425782-15.828125 7.605469-33.53125 2.941406-50.886719-.867187-3.230468-3.390624-5.757812-6.617187-6.621094-15.324219-4.121093-31.273437-3.519531-45.882813 1.25-24.574218-31.675781-62.460937-50.382812-102.773437-50.382812-88.324219 0-160.179687 71.859375-160.179687 160.179688 0 109.109374 88.769531 197.882812 197.882812 197.882812 59.664062 0 117.152344-21.695312 161.875-61.085938 5.976562-5.269531 11.660156-10.808593 17.058594-16.578124-41.308594 55.046874-107.09375 90.726562-181.058594 90.726562zm-17.007812-267.25c-22.605469 0-41 18.390625-41 41s18.367187 41 40.957031 41c17.769531 0 33.355469-9.511719 41.933593-23.699219 8.664063 9.894531 19.59375 17.511719 31.738282 22.222657-16.40625 20.453124-41.519532 32.761718-68.066406 32.761718-37.40625 0-67.84375-30.433594-67.84375-67.835937 0-28.894531 23.507812-52.398438 52.398437-52.398438 10.601563 0 20.253906 4.140625 27.421875 10.894531-5.316406-2.53125-11.269531-3.945312-17.539062-3.945312zm22.164062 39.027344v1.972656c0 12.269531-9.960938 22.25-22.207031 22.25-12.246094 0-22.207031-9.980469-22.207031-22.25s9.980468-22.25 22.25-22.25c11.601562 0 21.164062 8.929688 22.164062 20.277344zm40.890625 13.777344c25.03125-1.027344 47.375-13.761719 61.578125-33.519532 11.207031 4.410156 21.046875 12.101563 28.046875 21.980469-20.625 29.183594-61.710937 34.773437-89.625 11.539063zm-14.148437-19.636719c0-.023438 0-.050781 0-.074219 0-3.660156-.351563-7.242188-.996094-10.71875.132812-38.566406 34.738281-66.683594 71.890625-60.207031 7.421875 41.785156-29.019531 78.371093-70.894531 71zm0 0"/><path d="m347.960938 146.246094c0 5.179687-4.203126 9.375-9.375 9.375-5.183594 0-9.375-4.195313-9.375-9.375 0-5.175782 4.191406-9.375 9.375-9.375 5.171874 0 9.375 4.199218 9.375 9.375zm0 0"/><path d="m247.949219 158.746094c0 5.179687-4.195313 9.375-9.375 9.375-5.175781 0-9.375-4.195313-9.375-9.375 0-5.175782 4.199219-9.375 9.375-9.375 5.179687 0 9.375 4.199218 9.375 9.375zm0 0"/><path d="m247.949219 228.753906c0 5.175782-4.195313 9.375-9.375 9.375-5.175781 0-9.375-4.199218-9.375-9.375 0-5.179687 4.199219-9.375 9.375-9.375 5.179687 0 9.375 4.195313 9.375 9.375zm0 0"/><path d="m185.449219 336.257812c0 5.179688-4.199219 9.375-9.375 9.375-5.179688 0-9.375-4.195312-9.375-9.375 0-5.171874 4.195312-9.375 9.375-9.375 5.175781 0 9.375 4.203126 9.375 9.375zm0 0"/><path d="m285.453125 461.269531c0 5.175781-4.199219 9.375-9.375 9.375s-9.375-4.199219-9.375-9.375c0-5.179687 4.199219-9.375 9.375-9.375s9.375 4.195313 9.375 9.375zm0 0"/><path d="m385.460938 423.765625c0 5.175781-4.195313 9.375-9.375 9.375-5.179688 0-9.375-4.199219-9.375-9.375s4.195312-9.375 9.375-9.375c5.179687 0 9.375 4.199219 9.375 9.375zm0 0"/><path d="m422.964844 461.269531c0 5.175781-4.199219 9.375-9.375 9.375-5.183594 0-9.375-4.199219-9.375-9.375 0-5.179687 4.191406-9.375 9.375-9.375 5.175781 0 9.375 4.195313 9.375 9.375zm0 0"/><path d="m510.46875 336.257812c0 5.179688-4.199219 9.375-9.375 9.375-5.179688 0-9.375-4.195312-9.375-9.375 0-5.171874 4.195312-9.375 9.375-9.375 5.175781 0 9.375 4.203126 9.375 9.375zm0 0"/><path d="m497.96875 248.753906c0 5.175782-4.199219 9.375-9.375 9.375-5.179688 0-9.375-4.199218-9.375-9.375 0-5.179687 4.195312-9.375 9.375-9.375 5.175781 0 9.375 4.195313 9.375 9.375zm0 0"/><path d="m447.964844 161.25c0 5.175781-4.199219 9.375-9.375 9.375-5.175782 0-9.375-4.199219-9.375-9.375 0-5.179688 4.199218-9.375 9.375-9.375 5.175781 0 9.375 4.195312 9.375 9.375zm0 0"/><path d="m410.460938 195c0 5.175781-4.195313 9.375-9.375 9.375-5.179688 0-9.375-4.199219-9.375-9.375s4.195312-9.375 9.375-9.375c5.179687 0 9.375 4.199219 9.375 9.375zm0 0"/><path d="m166.695312 198.75c0 5.179688-4.195312 9.375-9.375 9.375-5.175781 0-9.375-4.195312-9.375-9.375 0-5.175781 4.199219-9.375 9.375-9.375 5.179688 0 9.375 4.199219 9.375 9.375zm0 0"/></svg>