<?xml version="1.0" encoding="UTF-8"?>
<svg xmlns="http://www.w3.org/2000/svg" xmlns:xlink="http://www.w3.org/1999/xlink" version="1.1" id="Capa_1" x="0px" y="0px" viewBox="0 0 512 512" style="enable-background:new 0 0 512 512;" xml:space="preserve" width="512" height="512">
<g>
	
		<line style="fill:none;stroke:#000000;stroke-width:15;stroke-linecap:round;stroke-linejoin:round;stroke-miterlimit:10;" x1="390.975" y1="196.354" x2="351.048" y2="196.354"/>
	
		<line style="fill:none;stroke:#000000;stroke-width:15;stroke-linecap:round;stroke-linejoin:round;stroke-miterlimit:10;" x1="346.589" y1="169.905" x2="393.617" y2="169.905"/>
	<path style="fill:none;stroke:#000000;stroke-width:15;stroke-linecap:round;stroke-linejoin:round;stroke-miterlimit:10;" d="&#10;&#9;&#9;M454.094,196.354h37.182c7.304,0,13.224-5.921,13.224-13.224v0c0-7.304-5.921-13.224-13.224-13.224h-41.505"/>
	<path style="fill:none;stroke:#000000;stroke-width:15;stroke-linecap:round;stroke-linejoin:round;stroke-miterlimit:10;" d="&#10;&#9;&#9;M303.09,396.687c2.079,1.996,4.279,3.87,6.591,5.612h0c29.104,21.924,69.956,18.85,95.452-7.182l8.399-8.576&#10;&#9;&#9;c1.401-1.43,2.86-2.802,4.374-4.111l7.156-6.189c29.163-25.22,45.506-62.169,44.546-100.713&#10;&#9;&#9;c-0.234-9.402-1.497-18.751-3.765-27.878l-12.848-51.7c-0.422-1.698-0.782-3.411-1.081-5.136l-5.608-32.435&#10;&#9;&#9;c-1.3-7.52-3.756-14.648-7.176-21.198 M259.448,197.354l-7.185,23.249 M272.181,140.312c-2.177,5.102-3.791,10.509-4.763,16.143&#10;&#9;&#9;l-1.774,10.278 M420.542,114.428c-7.609-6.178-16.516-10.865-26.317-13.583l-0.534-0.148c-21.817-6.05-44.7-7.21-67.017-3.397h0&#10;&#9;&#9;c-7.808,1.334-15.18,3.899-21.913,7.49 M339.674,143.05c5.871-5.274,13.087-8.383,20.888-8.383c19.7,0,35.67,19.827,35.67,44.284&#10;&#9;&#9;s-15.97,44.285-35.67,44.285c-1.364,0-2.71-0.095-4.035-0.28"/>
	<g>
		
			<line style="fill:none;stroke:#000000;stroke-width:15;stroke-linecap:round;stroke-linejoin:round;stroke-miterlimit:10;" x1="377.736" y1="244.538" x2="379.718" y2="246.354"/>
		
			<line style="fill:none;stroke:#000000;stroke-width:15;stroke-linecap:round;stroke-linejoin:round;stroke-miterlimit:10;" x1="424.965" y1="212.171" x2="422.654" y2="216.343"/>
		
			<line style="fill:none;stroke:#000000;stroke-width:15;stroke-linecap:round;stroke-linejoin:round;stroke-miterlimit:10;" x1="412.085" y1="150.079" x2="414.727" y2="153.712"/>
		
			<line style="fill:none;stroke:#000000;stroke-width:15;stroke-linecap:round;stroke-linejoin:round;stroke-miterlimit:10;" x1="414.727" y1="287.474" x2="416.048" y2="290.368"/>
		
			<line style="fill:none;stroke:#000000;stroke-width:15;stroke-linecap:round;stroke-linejoin:round;stroke-miterlimit:10;" x1="390.947" y1="336.685" x2="387.975" y2="339.327"/>
		
			<line style="fill:none;stroke:#000000;stroke-width:15;stroke-linecap:round;stroke-linejoin:round;stroke-miterlimit:10;" x1="349.746" y1="373.306" x2="351.644" y2="376.318"/>
		
			<line style="fill:none;stroke:#000000;stroke-width:15;stroke-linecap:round;stroke-linejoin:round;stroke-miterlimit:10;" x1="343.388" y1="115.07" x2="346.69" y2="115.07"/>
	</g>
	
		<line style="fill:none;stroke:#000000;stroke-width:15;stroke-linecap:round;stroke-linejoin:round;stroke-miterlimit:10;" x1="288.076" y1="196.354" x2="247.452" y2="196.354"/>
	
		<line style="fill:none;stroke:#000000;stroke-width:15;stroke-linecap:round;stroke-linejoin:round;stroke-miterlimit:10;" x1="242.057" y1="169.905" x2="289.837" y2="169.905"/>
	<path style="fill:none;stroke:#000000;stroke-width:15;stroke-linecap:round;stroke-linejoin:round;stroke-miterlimit:10;" d="&#10;&#9;&#9;M198.804,396.171c2.235,2.19,4.614,4.238,7.124,6.129h0c9.69,7.299,20.683,11.812,31.977,13.644 M155.468,198.09l-7.379,23.877&#10;&#9;&#9; M168.478,140.195c-2.203,5.136-3.834,10.583-4.813,16.26l-1.774,10.278 M266.906,414.784c12.726-3.126,24.725-9.711,34.475-19.667&#10;&#9;&#9;l8.399-8.576c1.401-1.43,2.86-2.802,4.374-4.111l7.156-6.189c29.163-25.22,45.506-62.169,44.546-100.713&#10;&#9;&#9;c-0.234-9.402-1.497-18.751-3.765-27.878l-12.848-51.7c-0.422-1.698-0.782-3.411-1.081-5.136l-5.608-32.435&#10;&#9;&#9;c-4.778-27.635-25.06-50.039-52.085-57.533l-0.534-0.148c-21.817-6.05-44.7-7.21-67.017-3.397h0&#10;&#9;&#9;c-7.79,1.331-15.146,3.887-21.866,7.465 M235.688,143.26c5.913-5.402,13.216-8.594,21.12-8.594c19.7,0,35.67,19.827,35.67,44.284&#10;&#9;&#9;s-15.97,44.285-35.67,44.285c-1.113,0-2.213-0.063-3.3-0.187"/>
	<g>
		
			<line style="fill:none;stroke:#000000;stroke-width:15;stroke-linecap:round;stroke-linejoin:round;stroke-miterlimit:10;" x1="273.983" y1="244.538" x2="275.965" y2="246.354"/>
		
			<line style="fill:none;stroke:#000000;stroke-width:15;stroke-linecap:round;stroke-linejoin:round;stroke-miterlimit:10;" x1="321.212" y1="212.171" x2="318.9" y2="216.343"/>
		
			<line style="fill:none;stroke:#000000;stroke-width:15;stroke-linecap:round;stroke-linejoin:round;stroke-miterlimit:10;" x1="308.332" y1="150.079" x2="310.974" y2="153.712"/>
		
			<line style="fill:none;stroke:#000000;stroke-width:15;stroke-linecap:round;stroke-linejoin:round;stroke-miterlimit:10;" x1="310.974" y1="287.474" x2="312.295" y2="290.368"/>
		
			<line style="fill:none;stroke:#000000;stroke-width:15;stroke-linecap:round;stroke-linejoin:round;stroke-miterlimit:10;" x1="287.194" y1="336.685" x2="284.222" y2="339.327"/>
		
			<line style="fill:none;stroke:#000000;stroke-width:15;stroke-linecap:round;stroke-linejoin:round;stroke-miterlimit:10;" x1="245.993" y1="373.306" x2="247.891" y2="376.318"/>
		
			<line style="fill:none;stroke:#000000;stroke-width:15;stroke-linecap:round;stroke-linejoin:round;stroke-miterlimit:10;" x1="239.634" y1="115.07" x2="242.937" y2="115.07"/>
	</g>
	<path style="fill:none;stroke:#000000;stroke-width:15;stroke-linecap:round;stroke-linejoin:round;stroke-miterlimit:10;" d="&#10;&#9;&#9;M52.044,197.358l-7.605,24.609c-7.922,25.637-7.647,53.106,0.787,78.58l8.067,24.363c1.465,4.425,3.354,8.698,5.639,12.761&#10;&#9;&#9;l23.772,42.258c4.91,8.729,11.574,16.345,19.573,22.371h0c29.104,21.924,69.956,18.85,95.452-7.182l8.399-8.576&#10;&#9;&#9;c1.401-1.43,2.86-2.802,4.374-4.111l7.156-6.189c29.163-25.22,45.506-62.169,44.546-100.713l0,0&#10;&#9;&#9;c-0.234-9.402-1.497-18.751-3.765-27.878l-12.848-51.7c-0.422-1.698-0.782-3.411-1.081-5.136l-5.608-32.435&#10;&#9;&#9;c-4.778-27.635-25.06-50.039-52.085-57.533l-0.534-0.148c-21.817-6.05-44.7-7.21-67.017-3.397h0&#10;&#9;&#9;c-30.289,5.174-54.03,28.875-59.256,59.156l-1.774,10.278 M118.863,166.733c4.272-18.516,18.009-32.067,34.295-32.067&#10;&#9;&#9;c19.7,0,35.67,19.827,35.67,44.284s-15.97,44.285-35.67,44.285c-14.409,0-26.823-10.608-32.451-25.876"/>
	
		<line style="fill:none;stroke:#000000;stroke-width:15;stroke-linecap:round;stroke-linejoin:round;stroke-miterlimit:10;" x1="74.222" y1="248.171" x2="72.901" y2="250.813"/>
	<g>
		
			<line style="fill:none;stroke:#000000;stroke-width:15;stroke-linecap:round;stroke-linejoin:round;stroke-miterlimit:10;" x1="97.011" y1="146.446" x2="94.369" y2="150.079"/>
		
			<line style="fill:none;stroke:#000000;stroke-width:15;stroke-linecap:round;stroke-linejoin:round;stroke-miterlimit:10;" x1="129.378" y1="244.538" x2="129.378" y2="248.171"/>
		
			<line style="fill:none;stroke:#000000;stroke-width:15;stroke-linecap:round;stroke-linejoin:round;stroke-miterlimit:10;" x1="170.332" y1="244.538" x2="172.314" y2="246.354"/>
		
			<line style="fill:none;stroke:#000000;stroke-width:15;stroke-linecap:round;stroke-linejoin:round;stroke-miterlimit:10;" x1="217.562" y1="212.171" x2="215.25" y2="216.343"/>
		
			<line style="fill:none;stroke:#000000;stroke-width:15;stroke-linecap:round;stroke-linejoin:round;stroke-miterlimit:10;" x1="204.681" y1="150.079" x2="207.323" y2="153.712"/>
		
			<line style="fill:none;stroke:#000000;stroke-width:15;stroke-linecap:round;stroke-linejoin:round;stroke-miterlimit:10;" x1="207.323" y1="287.474" x2="208.644" y2="290.368"/>
		
			<line style="fill:none;stroke:#000000;stroke-width:15;stroke-linecap:round;stroke-linejoin:round;stroke-miterlimit:10;" x1="153.158" y1="301.015" x2="153.158" y2="304.318"/>
		
			<line style="fill:none;stroke:#000000;stroke-width:15;stroke-linecap:round;stroke-linejoin:round;stroke-miterlimit:10;" x1="91.892" y1="292.098" x2="91.066" y2="294.825"/>
		
			<line style="fill:none;stroke:#000000;stroke-width:15;stroke-linecap:round;stroke-linejoin:round;stroke-miterlimit:10;" x1="110.883" y1="330.409" x2="113.855" y2="333.712"/>
		
			<line style="fill:none;stroke:#000000;stroke-width:15;stroke-linecap:round;stroke-linejoin:round;stroke-miterlimit:10;" x1="183.543" y1="336.685" x2="180.571" y2="339.327"/>
		
			<line style="fill:none;stroke:#000000;stroke-width:15;stroke-linecap:round;stroke-linejoin:round;stroke-miterlimit:10;" x1="142.343" y1="373.306" x2="144.241" y2="376.318"/>
		
			<line style="fill:none;stroke:#000000;stroke-width:15;stroke-linecap:round;stroke-linejoin:round;stroke-miterlimit:10;" x1="135.984" y1="115.07" x2="139.287" y2="115.07"/>
	</g>
	<path style="fill:none;stroke:#000000;stroke-width:15;stroke-linecap:round;stroke-linejoin:round;stroke-miterlimit:10;" d="&#10;&#9;&#9;M101.901,196.354h84.063c1.841-5.343,2.863-11.224,2.863-17.403c0-3.1-0.259-6.125-0.747-9.046H20.724&#10;&#9;&#9;c-7.304,0-13.224,5.921-13.224,13.225s5.921,13.224,13.224,13.224h52.177"/>
</g>















</svg>
