<svg width="40" height="40" viewBox="0 0 40 40" fill="none" xmlns="http://www.w3.org/2000/svg">
<g clip-path="url(#clip0_4673_722)">
<mask id="mask0_4673_722" style="mask-type:luminance" maskUnits="userSpaceOnUse" x="0" y="0" width="40" height="40">
<path d="M40 0H0V40H40V0Z" fill="white" style="fill:white;fill-opacity:1;"/>
</mask>
<g mask="url(#mask0_4673_722)">
<path d="M33.334 15.918C32.6507 15.918 32.084 15.3513 32.084 14.668V7.91797H25.334C24.6507 7.91797 24.084 7.3513 24.084 6.66797C24.084 5.98464 24.6507 5.41797 25.334 5.41797H33.334C34.0173 5.41797 34.584 5.98464 34.584 6.66797V14.668C34.584 15.3513 34.0173 15.918 33.334 15.918Z" fill="url(#paint0_linear_4673_722)" style=""/>
<path opacity="0.4" d="M19.6507 23.684L14.2007 29.134C13.6007 28.6006 13.0173 28.0507 12.4507 27.484C10.734 25.7507 9.18398 23.934 7.80065 22.034C6.43398 20.134 5.33398 18.234 4.53398 16.3507C3.73398 14.4507 3.33398 12.634 3.33398 10.9007C3.33398 9.76732 3.53398 8.68398 3.93398 7.68398C4.33398 6.66732 4.96732 5.73398 5.85065 4.90065C6.91732 3.85065 8.08398 3.33398 9.31732 3.33398C9.78398 3.33398 10.2507 3.43398 10.6673 3.63398C11.1007 3.83398 11.484 4.13398 11.784 4.56732L15.6507 10.0173C15.9507 10.434 16.1673 10.8173 16.3173 11.184C16.4673 11.534 16.5507 11.884 16.5507 12.2007C16.5507 12.6007 16.434 13.0007 16.2007 13.384C15.984 13.7673 15.6673 14.1673 15.2673 14.5673L14.0007 15.884C13.8173 16.0673 13.734 16.284 13.734 16.5507C13.734 16.684 13.7507 16.8007 13.784 16.934C13.834 17.0673 13.884 17.1673 13.9173 17.2673C14.2173 17.8173 14.734 18.534 15.4673 19.4007C16.2173 20.2673 17.0173 21.1507 17.884 22.034C18.484 22.6173 19.0673 23.184 19.6507 23.684Z" fill="url(#paint1_linear_4673_722)" style=""/>
<path d="M36.6167 30.5484C36.6167 31.0151 36.5333 31.4984 36.3667 31.9651C36.3167 32.0984 36.2667 32.2318 36.2 32.3651C35.9167 32.9651 35.55 33.5318 35.0667 34.0651C34.25 34.9651 33.35 35.6151 32.3333 36.0318C32.3167 36.0318 32.3 36.0484 32.2833 36.0484C31.3 36.4484 30.2333 36.6651 29.0833 36.6651C27.3833 36.6651 25.5667 36.2651 23.65 35.4484C21.7333 34.6318 19.8167 33.5318 17.9167 32.1484C17.2667 31.6651 16.6167 31.1818 16 30.6651L21.45 25.2151C21.9167 25.5651 22.3333 25.8318 22.6833 26.0151C22.7667 26.0484 22.8667 26.0984 22.9833 26.1484C23.1167 26.1984 23.25 26.2151 23.4 26.2151C23.6833 26.2151 23.9 26.1151 24.0833 25.9318L25.35 24.6818C25.7667 24.2651 26.1667 23.9484 26.55 23.7484C26.9333 23.5151 27.3167 23.3984 27.7333 23.3984C28.05 23.3984 28.3833 23.4651 28.75 23.6151C29.1167 23.7651 29.5 23.9818 29.9167 24.2651L35.4333 28.1818C35.8667 28.4818 36.1667 28.8318 36.35 29.2484C36.5167 29.6651 36.6167 30.0818 36.6167 30.5484Z" fill="url(#paint2_linear_4673_722)" style=""/>
</g>
</g>
<defs>
<linearGradient id="paint0_linear_4673_722" x1="29.334" y1="5.41797" x2="29.334" y2="15.918" gradientUnits="userSpaceOnUse">
<stop stop-color="#95F9FF" style="stop-color:#95F9FF;stop-color:color(display-p3 0.5833 0.9750 1.0000);stop-opacity:1;"/>
<stop offset="1" stop-color="#0ABFE7" style="stop-color:#0ABFE7;stop-color:color(display-p3 0.0377 0.7482 0.9042);stop-opacity:1;"/>
</linearGradient>
<linearGradient id="paint1_linear_4673_722" x1="11.4923" y1="3.33398" x2="11.4923" y2="29.134" gradientUnits="userSpaceOnUse">
<stop stop-color="#95F9FF" style="stop-color:#95F9FF;stop-color:color(display-p3 0.5833 0.9750 1.0000);stop-opacity:1;"/>
<stop offset="1" stop-color="#0ABFE7" style="stop-color:#0ABFE7;stop-color:color(display-p3 0.0377 0.7482 0.9042);stop-opacity:1;"/>
</linearGradient>
<linearGradient id="paint2_linear_4673_722" x1="26.3083" y1="23.3984" x2="26.3083" y2="36.6651" gradientUnits="userSpaceOnUse">
<stop stop-color="#95F9FF" style="stop-color:#95F9FF;stop-color:color(display-p3 0.5833 0.9750 1.0000);stop-opacity:1;"/>
<stop offset="1" stop-color="#0ABFE7" style="stop-color:#0ABFE7;stop-color:color(display-p3 0.0377 0.7482 0.9042);stop-opacity:1;"/>
</linearGradient>
<clipPath id="clip0_4673_722">
<rect width="40" height="40" fill="white" style="fill:white;fill-opacity:1;"/>
</clipPath>
</defs>
</svg>
