<svg width="40" height="40" viewBox="0 0 40 40" fill="none" xmlns="http://www.w3.org/2000/svg">
<g clip-path="url(#clip0_4673_731)">
<mask id="mask0_4673_731" style="mask-type:luminance" maskUnits="userSpaceOnUse" x="0" y="0" width="40" height="40">
<path d="M40 0H0V40H40V0Z" fill="white" style="fill:white;fill-opacity:1;"/>
</mask>
<g mask="url(#mask0_4673_731)">
<path opacity="0.4" d="M3.33398 21.6173V11.6507C3.33398 7.05065 7.06732 3.33398 11.6673 3.33398H28.334C32.934 3.33398 36.6673 7.05065 36.6673 11.6507V23.284C36.6673 27.8673 32.934 31.584 28.334 31.584H25.834C25.3173 31.584 24.8173 31.834 24.5007 32.2507L22.0007 35.5673C20.9007 37.034 19.1007 37.034 18.0007 35.5673L15.5007 32.2507C15.234 31.884 14.634 31.584 14.1673 31.584H11.6673C7.06732 31.584 3.33398 27.8673 3.33398 23.284V21.6173Z" fill="url(#paint0_linear_4673_731)" style=""/>
<path d="M28.3346 14.584H11.668C10.9846 14.584 10.418 14.0173 10.418 13.334C10.418 12.6507 10.9846 12.084 11.668 12.084H28.3346C29.018 12.084 29.5846 12.6507 29.5846 13.334C29.5846 14.0173 29.018 14.584 28.3346 14.584Z" fill="url(#paint1_linear_4673_731)" style=""/>
<path d="M21.668 22.918H11.668C10.9846 22.918 10.418 22.3513 10.418 21.668C10.418 20.9846 10.9846 20.418 11.668 20.418H21.668C22.3513 20.418 22.918 20.9846 22.918 21.668C22.918 22.3513 22.3513 22.918 21.668 22.918Z" fill="url(#paint2_linear_4673_731)" style=""/>
</g>
</g>
<defs>
<linearGradient id="paint0_linear_4673_731" x1="20.0007" y1="3.33398" x2="20.0007" y2="36.6673" gradientUnits="userSpaceOnUse">
<stop stop-color="#95F9FF" style="stop-color:#95F9FF;stop-color:color(display-p3 0.5833 0.9750 1.0000);stop-opacity:1;"/>
<stop offset="1" stop-color="#0ABFE7" style="stop-color:#0ABFE7;stop-color:color(display-p3 0.0377 0.7482 0.9042);stop-opacity:1;"/>
</linearGradient>
<linearGradient id="paint1_linear_4673_731" x1="20.0013" y1="12.084" x2="20.0013" y2="14.584" gradientUnits="userSpaceOnUse">
<stop stop-color="#95F9FF" style="stop-color:#95F9FF;stop-color:color(display-p3 0.5833 0.9750 1.0000);stop-opacity:1;"/>
<stop offset="1" stop-color="#0ABFE7" style="stop-color:#0ABFE7;stop-color:color(display-p3 0.0377 0.7482 0.9042);stop-opacity:1;"/>
</linearGradient>
<linearGradient id="paint2_linear_4673_731" x1="16.668" y1="20.418" x2="16.668" y2="22.918" gradientUnits="userSpaceOnUse">
<stop stop-color="#95F9FF" style="stop-color:#95F9FF;stop-color:color(display-p3 0.5833 0.9750 1.0000);stop-opacity:1;"/>
<stop offset="1" stop-color="#0ABFE7" style="stop-color:#0ABFE7;stop-color:color(display-p3 0.0377 0.7482 0.9042);stop-opacity:1;"/>
</linearGradient>
<clipPath id="clip0_4673_731">
<rect width="40" height="40" fill="white" style="fill:white;fill-opacity:1;"/>
</clipPath>
</defs>
</svg>
