<svg width="1776" height="446" viewBox="0 0 1776 446" fill="none" xmlns="http://www.w3.org/2000/svg">
<circle cx="223" cy="223" r="218" fill="#FFA300" stroke="white" style="fill:#FFA300;fill:color(display-p3 1.0000 0.6392 0.0000);fill-opacity:1;stroke:white;stroke-opacity:1;" stroke-width="10"/>
<g clip-path="url(#clip0_2368_2647)">
<path fill-rule="evenodd" clip-rule="evenodd" d="M302 222.5C302 221.572 301.631 220.682 300.975 220.025C300.318 219.369 299.428 219 298.5 219C297.572 219 296.682 219.369 296.025 220.025C295.369 220.682 295 221.572 295 222.5V229.5C295 230.428 295.369 231.318 296.025 231.975C296.682 232.631 297.572 233 298.5 233C299.428 233 300.318 232.631 300.975 231.975C301.631 231.318 302 230.428 302 229.5V222.5ZM286.124 226.175C285.801 225.841 285.415 225.574 284.988 225.391C284.561 225.207 284.102 225.111 283.637 225.107C283.172 225.103 282.711 225.191 282.281 225.367C281.851 225.543 281.46 225.803 281.132 226.132C280.803 226.46 280.543 226.851 280.367 227.281C280.191 227.711 280.103 228.172 280.107 228.637C280.111 229.102 280.207 229.561 280.391 229.988C280.574 230.415 280.841 230.801 281.175 231.124L286.124 236.08C286.449 236.405 286.836 236.664 287.261 236.84C287.686 237.016 288.142 237.106 288.602 237.106C289.062 237.106 289.518 237.016 289.943 236.84C290.368 236.664 290.755 236.405 291.08 236.08C291.405 235.755 291.664 235.368 291.84 234.943C292.016 234.518 292.106 234.062 292.106 233.602C292.106 233.142 292.016 232.686 291.84 232.261C291.664 231.836 291.405 231.449 291.08 231.124L286.124 226.175ZM301.269 240.735C297.846 239.594 294.594 242.845 295.731 246.265L308.097 283.358C309.347 287.11 314.537 287.411 316.214 283.827L323.406 268.406L338.827 261.214C342.411 259.541 342.11 254.347 338.358 253.097L301.269 240.735ZM315.825 226.175C316.481 226.831 316.85 227.721 316.85 228.649C316.85 229.578 316.481 230.468 315.825 231.124L310.876 236.08C310.551 236.405 310.165 236.663 309.74 236.839C309.315 237.015 308.86 237.106 308.4 237.106C307.94 237.106 307.484 237.015 307.06 236.839C306.635 236.663 306.249 236.405 305.924 236.08C305.598 235.755 305.34 235.369 305.164 234.944C304.988 234.519 304.898 234.064 304.898 233.604C304.898 233.144 304.988 232.688 305.164 232.264C305.34 231.839 305.598 231.453 305.924 231.128L310.876 226.179C311.532 225.522 312.422 225.154 313.351 225.154C314.279 225.154 315.169 225.519 315.825 226.175ZM274 243.5C274 242.572 274.369 241.682 275.025 241.025C275.682 240.369 276.572 240 277.5 240H284.5C285.428 240 286.318 240.369 286.975 241.025C287.631 241.682 288 242.572 288 243.5C288 244.428 287.631 245.318 286.975 245.975C286.318 246.631 285.428 247 284.5 247H277.5C276.572 247 275.682 246.631 275.025 245.975C274.369 245.318 274 244.428 274 243.5ZM291.076 255.876C291.402 255.551 291.66 255.165 291.836 254.74C292.012 254.315 292.102 253.86 292.102 253.4C292.102 252.94 292.012 252.484 291.836 252.06C291.66 251.635 291.402 251.249 291.076 250.924C290.751 250.598 290.365 250.34 289.94 250.164C289.516 249.988 289.06 249.898 288.6 249.898C288.14 249.898 287.685 249.988 287.26 250.164C286.835 250.34 286.449 250.598 286.124 250.924L281.175 255.876C280.841 256.199 280.574 256.585 280.391 257.012C280.207 257.439 280.111 257.898 280.107 258.363C280.103 258.828 280.191 259.289 280.367 259.719C280.543 260.149 280.803 260.54 281.132 260.868C281.46 261.197 281.851 261.457 282.281 261.633C282.711 261.809 283.172 261.897 283.637 261.893C284.102 261.889 284.561 261.793 284.988 261.609C285.415 261.426 285.801 261.159 286.124 260.825L291.076 255.876Z" fill="white" style="fill:white;fill-opacity:1;"/>
</g>
<path d="M366.325 144.361L260.387 86.0949C258.823 85.2343 257.066 84.7831 255.281 84.7831C253.495 84.7831 251.739 85.2343 250.175 86.0949L144.237 144.361C142.576 145.275 141.191 146.619 140.226 148.251C139.262 149.883 138.753 151.745 138.753 153.641C138.753 155.537 139.262 157.398 140.226 159.03C141.191 160.663 142.576 162.006 144.237 162.921L250.175 218.157L250.5 344.5C250.5 344.5 217.437 325.567 209.5 320.5C201.562 315.433 193.883 328.444 202.312 332.58C210.741 336.715 250.175 358.905 250.175 358.905C251.738 359.768 253.495 360.22 255.281 360.22C257.067 360.22 258.823 359.768 260.387 358.905L366.325 300.639C367.986 299.725 369.372 298.382 370.337 296.75C371.302 295.117 371.812 293.256 371.812 291.359V153.641C371.812 151.744 371.302 149.883 370.337 148.25C369.372 146.618 367.986 145.275 366.325 144.361ZM255.281 100L353.5 153.641L255.281 203.5L157.5 153.641L255.281 100ZM360.5 291.359L260.387 347V218.157L360.5 162.921V291.359Z" fill="white" style="fill:white;fill-opacity:1;"/>
<path d="M159.938 217.25C159.938 220.149 157.587 222.5 154.688 222.5H80.4375C77.538 222.5 75.1875 220.149 75.1875 217.25C75.1875 214.351 77.538 212 80.4375 212H154.688C157.587 212 159.938 214.351 159.938 217.25ZM181.125 291.281C181.125 294.163 178.788 296.5 175.906 296.5H101.594C98.7115 296.5 96.375 294.163 96.375 291.281C96.375 288.399 98.7115 286.062 101.594 286.062H175.906C178.788 286.062 181.125 288.399 181.125 291.281ZM202.312 253.5C202.312 256.538 199.85 259 196.812 259H123.062C120.025 259 117.562 256.538 117.562 253.5C117.562 250.462 120.025 248 123.062 248H196.812C199.85 248 202.312 250.462 202.312 253.5Z" fill="white" style="fill:white;fill-opacity:1;"/>
<path d="M506.35 276V165.3H552.1C559.3 165.3 565.3 166.6 570.1 169.2C575 171.7 578.9 175.4 581.8 180.3C584.7 185.1 586.75 190.9 587.95 197.7C589.25 204.5 589.9 212.15 589.9 220.65C589.9 232.85 588.5 243.05 585.7 251.25C582.9 259.35 578.7 265.5 573.1 269.7C567.5 273.9 560.5 276 552.1 276H506.35ZM524.8 259.35H550.3C555.4 259.35 559.45 257.85 562.45 254.85C565.55 251.85 567.8 247.45 569.2 241.65C570.7 235.85 571.45 228.85 571.45 220.65C571.45 213.05 571 206.75 570.1 201.75C569.2 196.75 567.9 192.8 566.2 189.9C564.5 187 562.3 184.95 559.6 183.75C557 182.55 553.9 181.95 550.3 181.95H524.8V259.35ZM637.002 276.9C631.002 276.9 626.102 275.1 622.302 271.5C618.502 267.9 616.602 262.95 616.602 256.65V249.9C616.602 243.7 618.702 238.65 622.902 234.75C627.202 230.85 633.752 228.9 642.552 228.9H665.502V221.85C665.502 219.05 665.002 216.7 664.002 214.8C663.002 212.9 661.202 211.5 658.602 210.6C656.002 209.6 652.052 209.1 646.752 209.1H622.452V198.3C626.152 197.3 630.502 196.45 635.502 195.75C640.502 194.95 646.452 194.55 653.352 194.55C659.952 194.45 665.552 195.25 670.152 196.95C674.752 198.55 678.202 201.25 680.502 205.05C682.902 208.85 684.102 214.05 684.102 220.65V276H669.552L666.402 267.3C665.702 267.9 664.452 268.7 662.652 269.7C660.852 270.7 658.602 271.8 655.902 273C653.202 274.1 650.202 275.05 646.902 275.85C643.702 276.55 640.402 276.9 637.002 276.9ZM646.002 263.85C647.302 263.85 648.752 263.7 650.352 263.4C652.052 263 653.752 262.6 655.452 262.2C657.152 261.7 658.702 261.25 660.102 260.85C661.602 260.35 662.802 259.9 663.702 259.5C664.702 259.1 665.302 258.85 665.502 258.75V237.75L648.102 238.65C643.502 239.05 640.152 240.25 638.052 242.25C636.052 244.25 635.052 246.9 635.052 250.2V253.5C635.052 256 635.552 258.05 636.552 259.65C637.652 261.15 639.002 262.2 640.602 262.8C642.302 263.4 644.102 263.75 646.002 263.85ZM719.93 182.85C718.03 182.85 717.08 181.95 717.08 180.15V166.5C717.08 164.5 718.03 163.5 719.93 163.5H734.03C734.93 163.5 735.58 163.8 735.98 164.4C736.48 165 736.73 165.7 736.73 166.5V180.15C736.73 181.95 735.83 182.85 734.03 182.85H719.93ZM717.53 276V195.6H736.13V276H717.53ZM794.027 276.3C788.727 276.3 784.277 275.4 780.677 273.6C777.177 271.8 774.527 269 772.727 265.2C771.027 261.4 770.177 256.35 770.177 250.05V161.55H788.777V247.5C788.777 251.1 789.127 253.9 789.827 255.9C790.627 257.9 791.727 259.35 793.127 260.25C794.527 261.05 796.227 261.6 798.227 261.9L804.977 262.8V276.3H794.027ZM855.026 311.55L864.326 276C860.426 276 856.876 275.25 853.676 273.75C850.576 272.25 847.926 270 845.726 267C843.526 264 841.726 260.15 840.326 255.45L823.826 195.6H843.026L857.576 251.7C858.276 254 859.126 255.75 860.126 256.95C861.126 258.15 862.126 259.05 863.126 259.65C864.126 260.15 865.026 260.45 865.826 260.55C866.726 260.65 867.326 260.7 867.626 260.7L884.276 195.6H903.176L877.376 296.7L870.176 311.55H855.026Z" fill="#1B2E51" style="fill:#1B2E51;fill:color(display-p3 0.1059 0.1804 0.3176);fill-opacity:1;"/>
<path d="M950.965 276L923.815 165.3H943.015L962.965 249L986.065 165.3H1003.47L1026.42 249L1046.37 165.3H1065.57L1038.42 276H1019.22L994.765 192.15L970.165 276H950.965ZM1093.5 276V161.7H1112.1V204C1115.3 201.6 1119.3 199.4 1124.1 197.4C1129 195.3 1134 194.25 1139.1 194.25C1145 194.25 1149.75 195.45 1153.35 197.85C1157.05 200.25 1159.7 203.6 1161.3 207.9C1163 212.1 1163.85 216.9 1163.85 222.3V276H1145.25V224.55C1145.25 221.75 1144.7 219.35 1143.6 217.35C1142.5 215.25 1140.95 213.7 1138.95 212.7C1136.95 211.6 1134.6 211.05 1131.9 211.05C1129.3 211.05 1126.9 211.35 1124.7 211.95C1122.5 212.45 1120.35 213.2 1118.25 214.2C1116.25 215.2 1114.2 216.35 1112.1 217.65V276H1093.5ZM1231.01 276.75C1224.71 276.75 1219.26 276.1 1214.66 274.8C1210.06 273.5 1206.31 271.3 1203.41 268.2C1200.51 265.1 1198.36 260.9 1196.96 255.6C1195.56 250.3 1194.86 243.65 1194.86 235.65C1194.86 227.35 1195.56 220.55 1196.96 215.25C1198.36 209.85 1200.51 205.65 1203.41 202.65C1206.41 199.55 1210.21 197.45 1214.81 196.35C1219.41 195.15 1224.81 194.55 1231.01 194.55C1237.41 194.55 1242.91 195.2 1247.51 196.5C1252.11 197.7 1255.86 199.8 1258.76 202.8C1261.66 205.8 1263.81 210 1265.21 215.4C1266.61 220.7 1267.31 227.45 1267.31 235.65C1267.31 243.75 1266.61 250.5 1265.21 255.9C1263.91 261.2 1261.81 265.4 1258.91 268.5C1256.01 271.5 1252.26 273.65 1247.66 274.95C1243.06 276.15 1237.51 276.75 1231.01 276.75ZM1231.01 261.9C1234.11 261.9 1236.76 261.65 1238.96 261.15C1241.16 260.55 1242.96 259.4 1244.36 257.7C1245.86 255.9 1246.96 253.25 1247.66 249.75C1248.36 246.15 1248.71 241.4 1248.71 235.5C1248.71 229.7 1248.36 225.05 1247.66 221.55C1246.96 218.05 1245.86 215.45 1244.36 213.75C1242.96 211.95 1241.16 210.8 1238.96 210.3C1236.76 209.7 1234.11 209.4 1231.01 209.4C1228.01 209.4 1225.41 209.7 1223.21 210.3C1221.01 210.8 1219.21 211.95 1217.81 213.75C1216.41 215.45 1215.31 218.05 1214.51 221.55C1213.81 225.05 1213.46 229.7 1213.46 235.5C1213.46 241.4 1213.81 246.15 1214.51 249.75C1215.31 253.25 1216.41 255.9 1217.81 257.7C1219.21 259.4 1221.01 260.55 1223.21 261.15C1225.41 261.65 1228.01 261.9 1231.01 261.9ZM1322.69 276.3C1317.39 276.3 1312.94 275.4 1309.34 273.6C1305.84 271.8 1303.19 269 1301.39 265.2C1299.69 261.4 1298.84 256.35 1298.84 250.05V161.55H1317.44V247.5C1317.44 251.1 1317.79 253.9 1318.49 255.9C1319.29 257.9 1320.39 259.35 1321.79 260.25C1323.19 261.05 1324.89 261.6 1326.89 261.9L1333.64 262.8V276.3H1322.69ZM1392.54 276.75C1383.84 276.75 1376.89 275.55 1371.69 273.15C1366.59 270.75 1362.89 266.6 1360.59 260.7C1358.29 254.7 1357.14 246.4 1357.14 235.8C1357.14 225 1358.24 216.65 1360.44 210.75C1362.64 204.75 1366.29 200.55 1371.39 198.15C1376.49 195.75 1383.39 194.55 1392.09 194.55C1399.79 194.55 1405.94 195.35 1410.54 196.95C1415.24 198.45 1418.64 201.2 1420.74 205.2C1422.94 209.1 1424.04 214.65 1424.04 221.85C1424.04 226.95 1423.04 231.05 1421.04 234.15C1419.04 237.15 1416.14 239.3 1412.34 240.6C1408.64 241.9 1404.24 242.55 1399.14 242.55H1375.59C1375.79 247.55 1376.44 251.55 1377.54 254.55C1378.74 257.45 1380.84 259.55 1383.84 260.85C1386.94 262.15 1391.44 262.8 1397.34 262.8H1421.64V273.75C1417.54 274.55 1413.19 275.25 1408.59 275.85C1404.09 276.45 1398.74 276.75 1392.54 276.75ZM1375.44 231.3H1397.34C1400.84 231.3 1403.39 230.65 1404.99 229.35C1406.69 227.95 1407.54 225.45 1407.54 221.85C1407.54 218.35 1407.04 215.6 1406.04 213.6C1405.04 211.6 1403.39 210.2 1401.09 209.4C1398.79 208.5 1395.79 208.05 1392.09 208.05C1387.89 208.05 1384.59 208.7 1382.19 210C1379.79 211.3 1378.04 213.65 1376.94 217.05C1375.94 220.35 1375.44 225.1 1375.44 231.3ZM1484.35 276.9C1482.05 276.9 1479.4 276.8 1476.4 276.6C1473.5 276.5 1470.55 276.3 1467.55 276C1464.65 275.8 1461.95 275.5 1459.45 275.1C1456.95 274.7 1454.9 274.25 1453.3 273.75V262.8H1487.95C1490.45 262.8 1492.55 262.6 1494.25 262.2C1496.05 261.8 1497.4 261 1498.3 259.8C1499.2 258.6 1499.65 256.8 1499.65 254.4V251.55C1499.65 249.05 1498.8 247.1 1497.1 245.7C1495.5 244.2 1492.65 243.45 1488.55 243.45H1476.4C1471.7 243.45 1467.5 242.8 1463.8 241.5C1460.2 240.2 1457.35 238 1455.25 234.9C1453.15 231.8 1452.1 227.6 1452.1 222.3V217.8C1452.1 212.7 1453.05 208.5 1454.95 205.2C1456.95 201.8 1460.2 199.25 1464.7 197.55C1469.3 195.75 1475.4 194.85 1483 194.85C1486.2 194.85 1489.65 195 1493.35 195.3C1497.05 195.6 1500.6 196 1504 196.5C1507.4 196.9 1510.1 197.4 1512.1 198V208.95H1479.4C1475.7 208.95 1472.85 209.6 1470.85 210.9C1468.95 212.1 1468 214.4 1468 217.8V220.65C1468 222.85 1468.45 224.5 1469.35 225.6C1470.25 226.7 1471.6 227.45 1473.4 227.85C1475.2 228.25 1477.35 228.45 1479.85 228.45H1492.3C1500.2 228.45 1506.05 230.25 1509.85 233.85C1513.65 237.45 1515.55 242.55 1515.55 249.15V255.75C1515.55 261.15 1514.3 265.4 1511.8 268.5C1509.3 271.6 1505.7 273.8 1501 275.1C1496.4 276.3 1490.85 276.9 1484.35 276.9ZM1562.64 276.9C1556.64 276.9 1551.74 275.1 1547.94 271.5C1544.14 267.9 1542.24 262.95 1542.24 256.65V249.9C1542.24 243.7 1544.34 238.65 1548.54 234.75C1552.84 230.85 1559.39 228.9 1568.19 228.9H1591.14V221.85C1591.14 219.05 1590.64 216.7 1589.64 214.8C1588.64 212.9 1586.84 211.5 1584.24 210.6C1581.64 209.6 1577.69 209.1 1572.39 209.1H1548.09V198.3C1551.79 197.3 1556.14 196.45 1561.14 195.75C1566.14 194.95 1572.09 194.55 1578.99 194.55C1585.59 194.45 1591.19 195.25 1595.79 196.95C1600.39 198.55 1603.84 201.25 1606.14 205.05C1608.54 208.85 1609.74 214.05 1609.74 220.65V276H1595.19L1592.04 267.3C1591.34 267.9 1590.09 268.7 1588.29 269.7C1586.49 270.7 1584.24 271.8 1581.54 273C1578.84 274.1 1575.84 275.05 1572.54 275.85C1569.34 276.55 1566.04 276.9 1562.64 276.9ZM1571.64 263.85C1572.94 263.85 1574.39 263.7 1575.99 263.4C1577.69 263 1579.39 262.6 1581.09 262.2C1582.79 261.7 1584.34 261.25 1585.74 260.85C1587.24 260.35 1588.44 259.9 1589.34 259.5C1590.34 259.1 1590.94 258.85 1591.14 258.75V237.75L1573.74 238.65C1569.14 239.05 1565.79 240.25 1563.69 242.25C1561.69 244.25 1560.69 246.9 1560.69 250.2V253.5C1560.69 256 1561.19 258.05 1562.19 259.65C1563.29 261.15 1564.64 262.2 1566.24 262.8C1567.94 263.4 1569.74 263.75 1571.64 263.85ZM1667.01 276.3C1661.71 276.3 1657.26 275.4 1653.66 273.6C1650.16 271.8 1647.51 269 1645.71 265.2C1644.01 261.4 1643.16 256.35 1643.16 250.05V161.55H1661.76V247.5C1661.76 251.1 1662.11 253.9 1662.81 255.9C1663.61 257.9 1664.71 259.35 1666.11 260.25C1667.51 261.05 1669.21 261.6 1671.21 261.9L1677.96 262.8V276.3H1667.01ZM1736.86 276.75C1728.16 276.75 1721.21 275.55 1716.01 273.15C1710.91 270.75 1707.21 266.6 1704.91 260.7C1702.61 254.7 1701.46 246.4 1701.46 235.8C1701.46 225 1702.56 216.65 1704.76 210.75C1706.96 204.75 1710.61 200.55 1715.71 198.15C1720.81 195.75 1727.71 194.55 1736.41 194.55C1744.11 194.55 1750.26 195.35 1754.86 196.95C1759.56 198.45 1762.96 201.2 1765.06 205.2C1767.26 209.1 1768.36 214.65 1768.36 221.85C1768.36 226.95 1767.36 231.05 1765.36 234.15C1763.36 237.15 1760.46 239.3 1756.66 240.6C1752.96 241.9 1748.56 242.55 1743.46 242.55H1719.91C1720.11 247.55 1720.76 251.55 1721.86 254.55C1723.06 257.45 1725.16 259.55 1728.16 260.85C1731.26 262.15 1735.76 262.8 1741.66 262.8H1765.96V273.75C1761.86 274.55 1757.51 275.25 1752.91 275.85C1748.41 276.45 1743.06 276.75 1736.86 276.75ZM1719.76 231.3H1741.66C1745.16 231.3 1747.71 230.65 1749.31 229.35C1751.01 227.95 1751.86 225.45 1751.86 221.85C1751.86 218.35 1751.36 215.6 1750.36 213.6C1749.36 211.6 1747.71 210.2 1745.41 209.4C1743.11 208.5 1740.11 208.05 1736.41 208.05C1732.21 208.05 1728.91 208.7 1726.51 210C1724.11 211.3 1722.36 213.65 1721.26 217.05C1720.26 220.35 1719.76 225.1 1719.76 231.3Z" fill="#FFA300" style="fill:#FFA300;fill:color(display-p3 1.0000 0.6392 0.0000);fill-opacity:1;"/>
<path d="M988.241 322.784V356H983.873V331.232L972.833 356H969.761L958.673 331.184V356H954.305V322.784H959.009L971.297 350.24L983.585 322.784H988.241ZM1001.89 342.752C1001.89 340.064 1002.43 337.712 1003.52 335.696C1004.61 333.648 1006.1 332.064 1007.99 330.944C1009.91 329.824 1012.03 329.264 1014.37 329.264C1016.67 329.264 1018.67 329.76 1020.37 330.752C1022.07 331.744 1023.33 332.992 1024.16 334.496V329.696H1028.58V356H1024.16V351.104C1023.3 352.64 1022 353.92 1020.27 354.944C1018.58 355.936 1016.59 356.432 1014.32 356.432C1011.99 356.432 1009.87 355.856 1007.99 354.704C1006.1 353.552 1004.61 351.936 1003.52 349.856C1002.43 347.776 1001.89 345.408 1001.89 342.752ZM1024.16 342.8C1024.16 340.816 1023.76 339.088 1022.96 337.616C1022.16 336.144 1021.07 335.024 1019.7 334.256C1018.35 333.456 1016.87 333.056 1015.23 333.056C1013.6 333.056 1012.11 333.44 1010.77 334.208C1009.43 334.976 1008.35 336.096 1007.55 337.568C1006.75 339.04 1006.35 340.768 1006.35 342.752C1006.35 344.768 1006.75 346.528 1007.55 348.032C1008.35 349.504 1009.43 350.64 1010.77 351.44C1012.11 352.208 1013.6 352.592 1015.23 352.592C1016.87 352.592 1018.35 352.208 1019.7 351.44C1021.07 350.64 1022.16 349.504 1022.96 348.032C1023.76 346.528 1024.16 344.784 1024.16 342.8ZM1057.56 356L1051.32 346.208L1045.32 356H1040.76L1049.25 342.944L1040.76 329.696H1045.7L1051.94 339.44L1057.89 329.696H1062.45L1054.01 342.704L1062.5 356H1057.56ZM1076.93 325.424C1076.1 325.424 1075.39 325.136 1074.82 324.56C1074.24 323.984 1073.95 323.28 1073.95 322.448C1073.95 321.616 1074.24 320.912 1074.82 320.336C1075.39 319.76 1076.1 319.472 1076.93 319.472C1077.73 319.472 1078.4 319.76 1078.94 320.336C1079.52 320.912 1079.81 321.616 1079.81 322.448C1079.81 323.28 1079.52 323.984 1078.94 324.56C1078.4 325.136 1077.73 325.424 1076.93 325.424ZM1079.04 329.696V356H1074.67V329.696H1079.04ZM1125.99 329.216C1128.04 329.216 1129.86 329.648 1131.46 330.512C1133.06 331.344 1134.32 332.608 1135.25 334.304C1136.18 336 1136.64 338.064 1136.64 340.496V356H1132.32V341.12C1132.32 338.496 1131.67 336.496 1130.36 335.12C1129.08 333.712 1127.33 333.008 1125.12 333.008C1122.85 333.008 1121.04 333.744 1119.7 335.216C1118.36 336.656 1117.68 338.752 1117.68 341.504V356H1113.36V341.12C1113.36 338.496 1112.71 336.496 1111.4 335.12C1110.12 333.712 1108.37 333.008 1106.16 333.008C1103.89 333.008 1102.08 333.744 1100.74 335.216C1099.4 336.656 1098.72 338.752 1098.72 341.504V356H1094.36V329.696H1098.72V333.488C1099.59 332.112 1100.74 331.056 1102.18 330.32C1103.65 329.584 1105.27 329.216 1107.03 329.216C1109.24 329.216 1111.19 329.712 1112.88 330.704C1114.58 331.696 1115.84 333.152 1116.68 335.072C1117.41 333.216 1118.63 331.776 1120.32 330.752C1122.02 329.728 1123.91 329.216 1125.99 329.216ZM1153.94 325.424C1153.1 325.424 1152.4 325.136 1151.82 324.56C1151.25 323.984 1150.96 323.28 1150.96 322.448C1150.96 321.616 1151.25 320.912 1151.82 320.336C1152.4 319.76 1153.1 319.472 1153.94 319.472C1154.74 319.472 1155.41 319.76 1155.95 320.336C1156.53 320.912 1156.82 321.616 1156.82 322.448C1156.82 323.28 1156.53 323.984 1155.95 324.56C1155.41 325.136 1154.74 325.424 1153.94 325.424ZM1156.05 329.696V356H1151.68V329.696H1156.05ZM1174.63 352.4H1187.54V356H1169.64V352.4L1182.41 333.248H1169.73V329.696H1187.45V333.248L1174.63 352.4ZM1225.08 341.84C1225.08 342.672 1225.03 343.552 1224.94 344.48H1203.91C1204.07 347.072 1204.95 349.104 1206.55 350.576C1208.19 352.016 1210.15 352.736 1212.46 352.736C1214.35 352.736 1215.91 352.304 1217.16 351.44C1218.44 350.544 1219.34 349.36 1219.85 347.888H1224.55C1223.85 350.416 1222.44 352.48 1220.33 354.08C1218.22 355.648 1215.59 356.432 1212.46 356.432C1209.96 356.432 1207.72 355.872 1205.74 354.752C1203.79 353.632 1202.25 352.048 1201.13 350C1200.01 347.92 1199.45 345.52 1199.45 342.8C1199.45 340.08 1199.99 337.696 1201.08 335.648C1202.17 333.6 1203.69 332.032 1205.64 330.944C1207.63 329.824 1209.9 329.264 1212.46 329.264C1214.95 329.264 1217.16 329.808 1219.08 330.896C1221 331.984 1222.47 333.488 1223.5 335.408C1224.55 337.296 1225.08 339.44 1225.08 341.84ZM1220.57 340.928C1220.57 339.264 1220.2 337.84 1219.47 336.656C1218.73 335.44 1217.72 334.528 1216.44 333.92C1215.19 333.28 1213.8 332.96 1212.27 332.96C1210.06 332.96 1208.17 333.664 1206.6 335.072C1205.07 336.48 1204.19 338.432 1203.96 340.928H1220.57ZM1282.81 322.544L1271.92 343.376V356H1267.55V343.376L1256.6 322.544H1261.45L1269.71 339.488L1277.96 322.544H1282.81ZM1306.76 356.432C1304.3 356.432 1302.06 355.872 1300.04 354.752C1298.06 353.632 1296.49 352.048 1295.34 350C1294.22 347.92 1293.66 345.52 1293.66 342.8C1293.66 340.112 1294.23 337.744 1295.39 335.696C1296.57 333.616 1298.17 332.032 1300.19 330.944C1302.2 329.824 1304.46 329.264 1306.95 329.264C1309.45 329.264 1311.71 329.824 1313.72 330.944C1315.74 332.032 1317.32 333.6 1318.47 335.648C1319.66 337.696 1320.25 340.08 1320.25 342.8C1320.25 345.52 1319.64 347.92 1318.43 350C1317.24 352.048 1315.63 353.632 1313.58 354.752C1311.53 355.872 1309.26 356.432 1306.76 356.432ZM1306.76 352.592C1308.33 352.592 1309.8 352.224 1311.18 351.488C1312.55 350.752 1313.66 349.648 1314.49 348.176C1315.35 346.704 1315.79 344.912 1315.79 342.8C1315.79 340.688 1315.37 338.896 1314.54 337.424C1313.71 335.952 1312.62 334.864 1311.27 334.16C1309.93 333.424 1308.47 333.056 1306.91 333.056C1305.31 333.056 1303.83 333.424 1302.49 334.16C1301.18 334.864 1300.12 335.952 1299.32 337.424C1298.52 338.896 1298.12 340.688 1298.12 342.8C1298.12 344.944 1298.51 346.752 1299.27 348.224C1300.07 349.696 1301.13 350.8 1302.44 351.536C1303.75 352.24 1305.19 352.592 1306.76 352.592ZM1357.19 329.696V356H1352.83V352.112C1351.99 353.456 1350.83 354.512 1349.32 355.28C1347.85 356.016 1346.22 356.384 1344.43 356.384C1342.38 356.384 1340.54 355.968 1338.91 355.136C1337.27 354.272 1335.98 352.992 1335.02 351.296C1334.09 349.6 1333.63 347.536 1333.63 345.104V329.696H1337.95V344.528C1337.95 347.12 1338.6 349.12 1339.91 350.528C1341.23 351.904 1343.02 352.592 1345.29 352.592C1347.63 352.592 1349.47 351.872 1350.81 350.432C1352.15 348.992 1352.83 346.896 1352.83 344.144V329.696H1357.19ZM1376.81 333.968C1377.58 332.464 1378.67 331.296 1380.07 330.464C1381.51 329.632 1383.26 329.216 1385.31 329.216V333.728H1384.15C1379.26 333.728 1376.81 336.384 1376.81 341.696V356H1372.44V329.696H1376.81V333.968ZM1441.26 332.336C1441.26 335.12 1440.3 337.44 1438.38 339.296C1436.49 341.12 1433.59 342.032 1429.69 342.032H1423.26V356H1418.89V322.544H1429.69C1433.46 322.544 1436.33 323.456 1438.28 325.28C1440.26 327.104 1441.26 329.456 1441.26 332.336ZM1429.69 338.432C1432.12 338.432 1433.91 337.904 1435.06 336.848C1436.22 335.792 1436.79 334.288 1436.79 332.336C1436.79 328.208 1434.42 326.144 1429.69 326.144H1423.26V338.432H1429.69ZM1458.93 333.968C1459.69 332.464 1460.78 331.296 1462.19 330.464C1463.63 329.632 1465.37 329.216 1467.42 329.216V333.728H1466.27C1461.37 333.728 1458.93 336.384 1458.93 341.696V356H1454.56V329.696H1458.93V333.968ZM1491.81 356.432C1489.34 356.432 1487.1 355.872 1485.09 354.752C1483.1 353.632 1481.54 352.048 1480.38 350C1479.26 347.92 1478.7 345.52 1478.7 342.8C1478.7 340.112 1479.28 337.744 1480.43 335.696C1481.62 333.616 1483.22 332.032 1485.23 330.944C1487.25 329.824 1489.5 329.264 1492 329.264C1494.5 329.264 1496.75 329.824 1498.77 330.944C1500.78 332.032 1502.37 333.6 1503.52 335.648C1504.7 337.696 1505.3 340.08 1505.3 342.8C1505.3 345.52 1504.69 347.92 1503.47 350C1502.29 352.048 1500.67 353.632 1498.62 354.752C1496.58 355.872 1494.3 356.432 1491.81 356.432ZM1491.81 352.592C1493.38 352.592 1494.85 352.224 1496.22 351.488C1497.6 350.752 1498.7 349.648 1499.54 348.176C1500.4 346.704 1500.83 344.912 1500.83 342.8C1500.83 340.688 1500.42 338.896 1499.58 337.424C1498.75 335.952 1497.66 334.864 1496.32 334.16C1494.98 333.424 1493.52 333.056 1491.95 333.056C1490.35 333.056 1488.88 333.424 1487.54 334.16C1486.22 334.864 1485.17 335.952 1484.37 337.424C1483.57 338.896 1483.17 340.688 1483.17 342.8C1483.17 344.944 1483.55 346.752 1484.32 348.224C1485.12 349.696 1486.18 350.8 1487.49 351.536C1488.8 352.24 1490.24 352.592 1491.81 352.592ZM1529.61 333.296H1524.09V356H1519.73V333.296H1516.32V329.696H1519.73V327.824C1519.73 324.88 1520.48 322.736 1521.98 321.392C1523.52 320.016 1525.97 319.328 1529.33 319.328V322.976C1527.41 322.976 1526.05 323.36 1525.25 324.128C1524.48 324.864 1524.09 326.096 1524.09 327.824V329.696H1529.61V333.296ZM1544.84 325.424C1544 325.424 1543.3 325.136 1542.72 324.56C1542.15 323.984 1541.86 323.28 1541.86 322.448C1541.86 321.616 1542.15 320.912 1542.72 320.336C1543.3 319.76 1544 319.472 1544.84 319.472C1545.64 319.472 1546.31 319.76 1546.85 320.336C1547.43 320.912 1547.72 321.616 1547.72 322.448C1547.72 323.28 1547.43 323.984 1546.85 324.56C1546.31 325.136 1545.64 325.424 1544.84 325.424ZM1546.95 329.696V356H1542.58V329.696H1546.95ZM1567.59 333.296V348.8C1567.59 350.08 1567.86 350.992 1568.41 351.536C1568.95 352.048 1569.9 352.304 1571.24 352.304H1574.46V356H1570.52C1568.09 356 1566.26 355.44 1565.05 354.32C1563.83 353.2 1563.22 351.36 1563.22 348.8V333.296H1559.82V329.696H1563.22V323.072H1567.59V329.696H1574.46V333.296H1567.59ZM1585.99 342.752C1585.99 340.064 1586.53 337.712 1587.62 335.696C1588.71 333.648 1590.2 332.064 1592.08 330.944C1594 329.824 1596.13 329.264 1598.47 329.264C1600.77 329.264 1602.77 329.76 1604.47 330.752C1606.16 331.744 1607.43 332.992 1608.26 334.496V329.696H1612.68V356H1608.26V351.104C1607.4 352.64 1606.1 353.92 1604.37 354.944C1602.68 355.936 1600.69 356.432 1598.42 356.432C1596.08 356.432 1593.97 355.856 1592.08 354.704C1590.2 353.552 1588.71 351.936 1587.62 349.856C1586.53 347.776 1585.99 345.408 1585.99 342.752ZM1608.26 342.8C1608.26 340.816 1607.86 339.088 1607.06 337.616C1606.26 336.144 1605.17 335.024 1603.8 334.256C1602.45 333.456 1600.96 333.056 1599.33 333.056C1597.7 333.056 1596.21 333.44 1594.87 334.208C1593.52 334.976 1592.45 336.096 1591.65 337.568C1590.85 339.04 1590.45 340.768 1590.45 342.752C1590.45 344.768 1590.85 346.528 1591.65 348.032C1592.45 349.504 1593.52 350.64 1594.87 351.44C1596.21 352.208 1597.7 352.592 1599.33 352.592C1600.96 352.592 1602.45 352.208 1603.8 351.44C1605.17 350.64 1606.26 349.504 1607.06 348.032C1607.86 346.528 1608.26 344.784 1608.26 342.8ZM1632.3 334.592C1633.19 333.024 1634.51 331.744 1636.23 330.752C1637.96 329.76 1639.93 329.264 1642.14 329.264C1644.51 329.264 1646.63 329.824 1648.52 330.944C1650.41 332.064 1651.9 333.648 1652.99 335.696C1654.07 337.712 1654.62 340.064 1654.62 342.752C1654.62 345.408 1654.07 347.776 1652.99 349.856C1651.9 351.936 1650.39 353.552 1648.47 354.704C1646.59 355.856 1644.47 356.432 1642.14 356.432C1639.87 356.432 1637.87 355.936 1636.14 354.944C1634.44 353.952 1633.16 352.688 1632.3 351.152V356H1627.93V320.48H1632.3V334.592ZM1650.15 342.752C1650.15 340.768 1649.75 339.04 1648.95 337.568C1648.15 336.096 1647.07 334.976 1645.69 334.208C1644.35 333.44 1642.86 333.056 1641.23 333.056C1639.63 333.056 1638.14 333.456 1636.76 334.256C1635.42 335.024 1634.33 336.16 1633.5 337.664C1632.7 339.136 1632.3 340.848 1632.3 342.8C1632.3 344.784 1632.7 346.528 1633.5 348.032C1634.33 349.504 1635.42 350.64 1636.76 351.44C1638.14 352.208 1639.63 352.592 1641.23 352.592C1642.86 352.592 1644.35 352.208 1645.69 351.44C1647.07 350.64 1648.15 349.504 1648.95 348.032C1649.75 346.528 1650.15 344.768 1650.15 342.752ZM1670.5 325.424C1669.66 325.424 1668.96 325.136 1668.38 324.56C1667.81 323.984 1667.52 323.28 1667.52 322.448C1667.52 321.616 1667.81 320.912 1668.38 320.336C1668.96 319.76 1669.66 319.472 1670.5 319.472C1671.3 319.472 1671.97 319.76 1672.51 320.336C1673.09 320.912 1673.38 321.616 1673.38 322.448C1673.38 323.28 1673.09 323.984 1672.51 324.56C1671.97 325.136 1671.3 325.424 1670.5 325.424ZM1672.61 329.696V356H1668.24V329.696H1672.61ZM1692.29 320.48V356H1687.92V320.48H1692.29ZM1709.86 325.424C1709.03 325.424 1708.33 325.136 1707.75 324.56C1707.18 323.984 1706.89 323.28 1706.89 322.448C1706.89 321.616 1707.18 320.912 1707.75 320.336C1708.33 319.76 1709.03 319.472 1709.86 319.472C1710.66 319.472 1711.34 319.76 1711.88 320.336C1712.46 320.912 1712.74 321.616 1712.74 322.448C1712.74 323.28 1712.46 323.984 1711.88 324.56C1711.34 325.136 1710.66 325.424 1709.86 325.424ZM1711.98 329.696V356H1707.61V329.696H1711.98ZM1732.62 333.296V348.8C1732.62 350.08 1732.89 350.992 1733.44 351.536C1733.98 352.048 1734.92 352.304 1736.27 352.304H1739.48V356H1735.55C1733.12 356 1731.29 355.44 1730.08 354.32C1728.86 353.2 1728.25 351.36 1728.25 348.8V333.296H1724.84V329.696H1728.25V323.072H1732.62V329.696H1739.48V333.296H1732.62ZM1775.31 329.696L1759.47 368.384H1754.95L1760.14 355.712L1749.53 329.696H1754.38L1762.63 351.008L1770.79 329.696H1775.31Z" fill="#1B2E51" style="fill:#1B2E51;fill:color(display-p3 0.1059 0.1804 0.3176);fill-opacity:1;"/>
<defs>
<clipPath id="clip0_2368_2647">
<rect width="84" height="84" fill="white" style="fill:white;fill-opacity:1;" transform="translate(267 212)"/>
</clipPath>
</defs>
</svg>
