<?xml version="1.0" encoding="UTF-8" standalone="no"?>
<svg
   width="396.35922"
   zoomAndPan="magnify"
   viewBox="0 0 297.26942 20.587063"
   height="27.449419"
   preserveAspectRatio="xMidYMid"
   version="1.0"
   id="svg51"
   xmlns="http://www.w3.org/2000/svg"
   xmlns:svg="http://www.w3.org/2000/svg">
  <defs
     id="defs1">
    <clipPath
       id="6b791cf23d">
      <rect
         x="0"
         width="17"
         y="0"
         height="18"
         id="rect1" />
    </clipPath>
  </defs>
  <g
     fill="#000000"
     fill-opacity="1"
     id="g4"
     style="fill:#f9f9f9"
     transform="translate(-45.292785,-172.03792)">
    <g
       transform="translate(43.964661,192.37499)"
       id="g3"
       style="fill:#f9f9f9">
      <g
         id="g2"
         style="fill:#f9f9f9">
        <path
           d="M 15.234375,0 H 1.328125 v -11.90625 h 5 v 8.953125 h 8.90625 z m 0,0"
           id="path1"
           style="fill:#f9f9f9" />
      </g>
    </g>
  </g>
  <g
     fill="#000000"
     fill-opacity="1"
     id="g7"
     style="fill:#f9f9f9"
     transform="translate(-45.292785,-172.03792)">
    <g
       transform="translate(63.380477,192.37499)"
       id="g6"
       style="fill:#f9f9f9">
      <g
         id="g5"
         style="fill:#f9f9f9">
        <path
           d="M 15.671875,0 H 1.328125 v -11.90625 h 13.6875 v 2.9375 h -8.6875 v 1.875 h 7.34375 v 2.28125 h -7.34375 v 1.859375 h 9.34375 z m 0,0"
           id="path4"
           style="fill:#f9f9f9" />
      </g>
    </g>
  </g>
  <g
     fill="#000000"
     fill-opacity="1"
     id="g10"
     style="fill:#f9f9f9"
     transform="translate(-45.292785,-172.03792)">
    <g
       transform="translate(83.567911,192.37499)"
       id="g9"
       style="fill:#f9f9f9">
      <g
         id="g8"
         style="fill:#f9f9f9">
        <path
           d="M 7.875,0.25 C 6.257812,0.25 4.957031,0.078125 3.96875,-0.265625 2.988281,-0.609375 2.238281,-1.082031 1.71875,-1.6875 1.207031,-2.289062 0.863281,-2.988281 0.6875,-3.78125 H 6 c 0.382812,0.5625 1.007812,0.84375 1.875,0.84375 0.851562,0 1.476562,-0.28125 1.875,-0.84375 0.03125,-0.0625 0.046875,-0.113281 0.046875,-0.15625 0,-0.144531 -0.199219,-0.253906 -0.59375,-0.328125 C 8.804688,-4.347656 8.210938,-4.40625 7.421875,-4.4375 6.429688,-4.476562 5.394531,-4.582031 4.3125,-4.75 1.882812,-5.132812 0.671875,-6.113281 0.671875,-7.6875 c 0,-0.132812 0.003906,-0.273438 0.015625,-0.421875 0.175781,-0.789063 0.519531,-1.488281 1.03125,-2.09375 0.519531,-0.601563 1.269531,-1.078125 2.25,-1.421875 0.988281,-0.351562 2.289062,-0.53125 3.90625,-0.53125 1.601562,0 2.894531,0.179688 3.875,0.53125 0.988281,0.34375 1.738281,0.820312 2.25,1.421875 0.519531,0.605469 0.867188,1.304687 1.046875,2.09375 H 9.75 c -0.398438,-0.5625 -1.023438,-0.84375 -1.875,-0.84375 -0.867188,0 -1.492188,0.28125 -1.875,0.84375 -0.03125,0.042969 -0.046875,0.085937 -0.046875,0.125 0,0.136719 0.1875,0.234375 0.5625,0.296875 0.382813,0.0625 0.945313,0.117188 1.6875,0.15625 0.738281,0.042969 1.523437,0.117188 2.359375,0.21875 0.832031,0.105469 1.613281,0.28125 2.34375,0.53125 0.726562,0.242188 1.296875,0.601562 1.703125,1.078125 0.320313,0.375 0.484375,0.84375 0.484375,1.40625 0,0.167969 -0.01563,0.339844 -0.04687,0.515625 C 14.867188,-2.988281 14.519531,-2.289062 14,-1.6875 13.488281,-1.082031 12.738281,-0.609375 11.75,-0.265625 10.769531,0.078125 9.476562,0.25 7.875,0.25 Z m 0,0"
           id="path7"
           style="fill:#f9f9f9" />
      </g>
    </g>
  </g>
  <g
     fill="#000000"
     fill-opacity="1"
     id="g16"
     style="fill:#f9f9f9"
     transform="translate(-45.292785,-172.03792)">
    <g
       transform="translate(111.24842,192.37499)"
       id="g15"
       style="fill:#f9f9f9">
      <g
         id="g14"
         style="fill:#f9f9f9">
        <path
           d="m 9,0.25 c -2.9375,0 -5.105469,-0.601562 -6.5,-1.8125 -1.21875,-1.070312 -1.828125,-2.53125 -1.828125,-4.375 0,-1.851562 0.609375,-3.316406 1.828125,-4.390625 1.394531,-1.21875 3.5625,-1.828125 6.5,-1.828125 1.675781,0 3.070312,0.1875 4.1875,0.5625 1.113281,0.375 1.988281,0.890625 2.625,1.546875 0.632812,0.648437 1.066406,1.398437 1.296875,2.25 h -5.34375 C 11.203125,-8.566406 10.28125,-8.953125 9,-8.953125 c -1.199219,0 -2.085938,0.34375 -2.65625,1.03125 -0.460938,0.5625 -0.6875,1.226563 -0.6875,1.984375 0,0.75 0.226562,1.40625 0.6875,1.96875 0.570312,0.6875 1.457031,1.03125 2.65625,1.03125 0.976562,0 1.710938,-0.082031 2.203125,-0.25 0.488281,-0.164062 0.847656,-0.390625 1.078125,-0.671875 H 10.328125 V -5.9375 h 6.78125 V 0.015625 H 15.03125 l -0.421875,-1.15625 C 13.285156,-0.210938 11.414062,0.25 9,0.25 Z m 0,0"
           id="path13"
           style="fill:#f9f9f9" />
      </g>
    </g>
  </g>
  <g
     fill="#000000"
     fill-opacity="1"
     id="g19"
     style="fill:#f9f9f9"
     transform="translate(-45.292785,-172.03792)">
    <g
       transform="translate(133.20311,192.37499)"
       id="g18"
       style="fill:#f9f9f9">
      <g
         id="g17"
         style="fill:#f9f9f9">
        <path
           d="M 15.671875,0 H 1.328125 v -11.90625 h 13.6875 v 2.9375 h -8.6875 v 1.875 h 7.34375 v 2.28125 h -7.34375 v 1.859375 h 9.34375 z m 0,0"
           id="path16"
           style="fill:#f9f9f9" />
      </g>
    </g>
  </g>
  <g
     fill="#000000"
     fill-opacity="1"
     id="g22"
     style="fill:#f9f9f9"
     transform="translate(-45.292785,-172.03792)">
    <g
       transform="translate(153.39054,192.37499)"
       id="g21"
       style="fill:#f9f9f9">
      <g
         id="g20"
         style="fill:#f9f9f9">
        <path
           d="M 19,0 H 13.0625 L 6.328125,-8.0625 V 0 h -5 v -11.90625 h 5.9375 L 14,-3.890625 v -8.015625 h 5 z m 0,0"
           id="path19"
           style="fill:#f9f9f9" />
      </g>
    </g>
  </g>
  <g
     fill="#000000"
     fill-opacity="1"
     id="g25"
     style="fill:#f9f9f9"
     transform="translate(-45.292785,-172.03792)">
    <g
       transform="translate(177.56882,192.37499)"
       id="g24"
       style="fill:#f9f9f9">
      <g
         id="g23"
         style="fill:#f9f9f9">
        <path
           d="M 7.875,0.25 C 6.257812,0.25 4.957031,0.078125 3.96875,-0.265625 2.988281,-0.609375 2.238281,-1.082031 1.71875,-1.6875 1.207031,-2.289062 0.863281,-2.988281 0.6875,-3.78125 H 6 c 0.382812,0.5625 1.007812,0.84375 1.875,0.84375 0.851562,0 1.476562,-0.28125 1.875,-0.84375 0.03125,-0.0625 0.046875,-0.113281 0.046875,-0.15625 0,-0.144531 -0.199219,-0.253906 -0.59375,-0.328125 C 8.804688,-4.347656 8.210938,-4.40625 7.421875,-4.4375 6.429688,-4.476562 5.394531,-4.582031 4.3125,-4.75 1.882812,-5.132812 0.671875,-6.113281 0.671875,-7.6875 c 0,-0.132812 0.003906,-0.273438 0.015625,-0.421875 0.175781,-0.789063 0.519531,-1.488281 1.03125,-2.09375 0.519531,-0.601563 1.269531,-1.078125 2.25,-1.421875 0.988281,-0.351562 2.289062,-0.53125 3.90625,-0.53125 1.601562,0 2.894531,0.179688 3.875,0.53125 0.988281,0.34375 1.738281,0.820312 2.25,1.421875 0.519531,0.605469 0.867188,1.304687 1.046875,2.09375 H 9.75 c -0.398438,-0.5625 -1.023438,-0.84375 -1.875,-0.84375 -0.867188,0 -1.492188,0.28125 -1.875,0.84375 -0.03125,0.042969 -0.046875,0.085937 -0.046875,0.125 0,0.136719 0.1875,0.234375 0.5625,0.296875 0.382813,0.0625 0.945313,0.117188 1.6875,0.15625 0.738281,0.042969 1.523437,0.117188 2.359375,0.21875 0.832031,0.105469 1.613281,0.28125 2.34375,0.53125 0.726562,0.242188 1.296875,0.601562 1.703125,1.078125 0.320313,0.375 0.484375,0.84375 0.484375,1.40625 0,0.167969 -0.01563,0.339844 -0.04687,0.515625 C 14.867188,-2.988281 14.519531,-2.289062 14,-1.6875 13.488281,-1.082031 12.738281,-0.609375 11.75,-0.265625 10.769531,0.078125 9.476562,0.25 7.875,0.25 Z m 0,0"
           id="path22"
           style="fill:#f9f9f9" />
      </g>
    </g>
  </g>
  <g
     fill="#000000"
     fill-opacity="1"
     id="g31"
     style="fill:#f9f9f9"
     transform="translate(-45.292785,-172.03792)">
    <g
       transform="translate(205.24933,192.37499)"
       id="g30"
       style="fill:#f9f9f9">
      <g
         id="g29"
         style="fill:#f9f9f9">
        <path
           d="M 17.59375,0 H 12.859375 C 12.648438,-0.300781 12.5,-0.679688 12.40625,-1.140625 12.332031,-1.503906 12.21875,-1.859375 12.0625,-2.203125 11.90625,-2.546875 11.632812,-2.832031 11.25,-3.0625 10.875,-3.289062 10.316406,-3.414062 9.578125,-3.4375 h -3.25 V 0 h -5 v -11.90625 h 8.125 c 1.945313,0 3.515625,0.148438 4.703125,0.4375 1.195312,0.28125 2.066406,0.734375 2.609375,1.359375 0.550781,0.625 0.828125,1.4375 0.828125,2.4375 0,0.835937 -0.195312,1.539063 -0.578125,2.109375 -0.375,0.574219 -0.976563,1.027344 -1.796875,1.359375 0.789062,0.324219 1.300781,0.714844 1.53125,1.171875 0.238281,0.460938 0.390625,0.960938 0.453125,1.5 0.05078,0.492188 0.179687,1 0.390625,1.53125 z M 6.328125,-6.375 9.1875,-6.390625 c 0.789062,0 1.414062,-0.03125 1.875,-0.09375 0.457031,-0.070313 0.796875,-0.171875 1.015625,-0.296875 0.21875,-0.125 0.359375,-0.257812 0.421875,-0.40625 0.0625,-0.15625 0.09375,-0.316406 0.09375,-0.484375 0,-0.15625 -0.03125,-0.3125 -0.09375,-0.46875 C 12.4375,-8.296875 12.296875,-8.4375 12.078125,-8.5625 11.859375,-8.6875 11.519531,-8.785156 11.0625,-8.859375 10.601562,-8.929688 9.976562,-8.96875 9.1875,-8.96875 H 6.328125 Z m 0,0"
           id="path28"
           style="fill:#f9f9f9" />
      </g>
    </g>
  </g>
  <g
     fill="#000000"
     fill-opacity="1"
     id="g34"
     style="fill:#f9f9f9"
     transform="translate(-45.292785,-172.03792)">
    <g
       transform="translate(227.35336,192.37499)"
       id="g33"
       style="fill:#f9f9f9">
      <g
         id="g32"
         style="fill:#f9f9f9">
        <path
           d="M 9,0.25 C 6.0625,0.25 3.894531,-0.351562 2.5,-1.5625 1.28125,-2.632812 0.671875,-4.097656 0.671875,-5.953125 c 0,-1.84375 0.609375,-3.300781 1.828125,-4.375 1.394531,-1.21875 3.5625,-1.828125 6.5,-1.828125 2.945312,0 5.113281,0.609375 6.5,1.828125 1.226562,1.074219 1.84375,2.53125 1.84375,4.375 0,1.855469 -0.617188,3.320313 -1.84375,4.390625 C 14.113281,-0.351562 11.945312,0.25 9,0.25 Z m 0,-3.1875 c 1.207031,0 2.09375,-0.34375 2.65625,-1.03125 0.457031,-0.5625 0.6875,-1.222656 0.6875,-1.984375 0,-0.757813 -0.230469,-1.414063 -0.6875,-1.96875 C 11.09375,-8.617188 10.207031,-8.96875 9,-8.96875 c -1.199219,0 -2.085938,0.351562 -2.65625,1.046875 -0.460938,0.554687 -0.6875,1.210937 -0.6875,1.96875 0,0.761719 0.226562,1.421875 0.6875,1.984375 C 6.914062,-3.28125 7.800781,-2.9375 9,-2.9375 Z m 0,0"
           id="path31"
           style="fill:#f9f9f9" />
      </g>
    </g>
  </g>
  <g
     fill="#000000"
     fill-opacity="1"
     id="g37"
     style="fill:#f9f9f9"
     transform="translate(-45.292785,-172.03792)">
    <g
       transform="translate(249.21677,192.37499)"
       id="g36"
       style="fill:#f9f9f9">
      <g
         id="g35"
         style="fill:#f9f9f9">
        <path
           d="m 11.625,0 h -5 v -5.640625 l -6.5,-6.265625 h 5.53125 l 3.46875,3.5625 3.453125,-3.5625 h 5.53125 L 11.625,-5.640625 Z m 0,0"
           id="path34"
           style="fill:#f9f9f9" />
      </g>
    </g>
  </g>
  <g
     fill="#000000"
     fill-opacity="1"
     id="g40"
     style="fill:#f9f9f9"
     transform="translate(-45.292785,-172.03792)">
    <g
       transform="translate(271.30423,192.37499)"
       id="g39"
       style="fill:#f9f9f9">
      <g
         id="g38"
         style="fill:#f9f9f9">
        <path
           d="M 20,0 H 14.9375 L 13.828125,-1.953125 H 6.3125 L 5.1875,0 H 0.125 L 7.75,-11.90625 h 4.640625 z M 12.140625,-4.890625 10.0625,-8.515625 8,-4.890625 Z m 0,0"
           id="path37"
           style="fill:#f9f9f9" />
      </g>
    </g>
  </g>
  <g
     fill="#000000"
     fill-opacity="1"
     id="g43"
     style="fill:#f9f9f9"
     transform="translate(-45.292785,-172.03792)">
    <g
       transform="translate(295.28335,192.37499)"
       id="g42"
       style="fill:#f9f9f9">
      <g
         id="g41"
         style="fill:#f9f9f9">
        <path
           d="M 15.234375,0 H 1.328125 v -11.90625 h 5 v 8.953125 h 8.90625 z m 0,0"
           id="path40"
           style="fill:#f9f9f9" />
      </g>
    </g>
  </g>
  <g
     fill="#000000"
     fill-opacity="1"
     id="g46"
     style="fill:#f9f9f9"
     transform="translate(-45.292785,-172.03792)">
    <g
       transform="translate(314.69917,192.37499)"
       id="g45"
       style="fill:#f9f9f9">
      <g
         id="g44"
         style="fill:#f9f9f9">
        <path
           d="M 15.671875,0 H 1.328125 v -11.90625 h 13.6875 v 2.9375 h -8.6875 v 1.875 h 7.34375 v 2.28125 h -7.34375 v 1.859375 h 9.34375 z m 0,0"
           id="path43"
           style="fill:#f9f9f9" />
      </g>
    </g>
  </g>
  <g
     transform="translate(285.70721,-3.0379231)"
     id="g51"
     style="fill:#f9f9f9">
    <g
       clip-path="url(#6b791cf23d)"
       id="g50"
       style="fill:#f9f9f9">
      <g
         fill="#000000"
         fill-opacity="1"
         id="g49"
         style="fill:#f9f9f9">
        <g
           transform="translate(0.968449,13.975417)"
           id="g48"
           style="fill:#f9f9f9">
          <g
             id="g47"
             style="fill:#f9f9f9">
            <path
               d="M 3,-7.8125 H 1.6875 v -2.34375 H 0.453125 V -10.9375 H 4.21875 v 0.78125 H 3 Z m 7.59375,0 H 9.28125 V -9.796875 L 8.109375,-7.8125 H 7.125 L 5.9375,-9.796875 V -7.8125 H 4.640625 v -3.125 h 1.5625 l 1.40625,2.234375 1.421875,-2.234375 h 1.5625 z m 0,0"
               id="path46"
               style="fill:#f9f9f9" />
          </g>
        </g>
      </g>
    </g>
  </g>
</svg>
