<svg xmlns="http://www.w3.org/2000/svg" xmlns:xlink="http://www.w3.org/1999/xlink" width="500" zoomAndPan="magnify" viewBox="0 0 375 374.999991" height="500" preserveAspectRatio="xMidYMid meet" version="1.0"><defs><g/><clipPath id="11084dbbea"><path d="M 166 11 L 247.679688 11 L 247.679688 71 L 166 71 Z M 166 11 " clip-rule="nonzero"/></clipPath><clipPath id="a3d1a47f2b"><rect x="0" width="248" y="0" height="89"/></clipPath><clipPath id="b975d8dcfd"><path d="M 85 187.113281 L 337 187.113281 L 337 244.863281 L 85 244.863281 Z M 85 187.113281 " clip-rule="nonzero"/></clipPath><clipPath id="0399f751c6"><rect x="0" width="34" y="0" height="37"/></clipPath></defs><rect x="-37.5" width="450" fill="#ffffff" y="-37.499999" height="449.999989" fill-opacity="1"/><rect x="-37.5" width="450" fill="#8d0801" y="-37.499999" height="449.999989" fill-opacity="1"/><g transform="matrix(1, 0, 0, 1, 54, 136)"><g clip-path="url(#a3d1a47f2b)"><g fill="#ffffff" fill-opacity="1"><g transform="translate(0.626979, 70.554451)"><g><path d="M 75.453125 0 L 6.578125 0 L 6.578125 -59 L 31.328125 -59 L 31.328125 -14.59375 L 75.453125 -14.59375 Z M 75.453125 0 "/></g></g></g><g fill="#ffffff" fill-opacity="1"><g transform="translate(74.09997, 70.554451)"><g><path d="M 44.609375 1.28125 C 30.023438 1.28125 19.296875 -1.722656 12.421875 -7.734375 C 6.335938 -13.046875 3.296875 -20.28125 3.296875 -29.4375 C 3.296875 -38.625 6.335938 -45.875 12.421875 -51.1875 C 19.296875 -57.1875 30.023438 -60.1875 44.609375 -60.1875 C 52.910156 -60.1875 59.816406 -59.253906 65.328125 -57.390625 C 70.835938 -55.523438 75.160156 -52.984375 78.296875 -49.765625 C 81.441406 -46.546875 83.585938 -42.835938 84.734375 -38.640625 L 58.265625 -38.640625 C 55.492188 -42.453125 50.941406 -44.359375 44.609375 -44.359375 C 38.628906 -44.359375 34.226562 -42.644531 31.40625 -39.21875 C 29.164062 -36.457031 28.046875 -33.195312 28.046875 -29.4375 C 28.046875 -25.6875 29.164062 -22.4375 31.40625 -19.6875 C 34.226562 -16.257812 38.628906 -14.546875 44.609375 -14.546875 C 49.429688 -14.546875 53.054688 -14.960938 55.484375 -15.796875 C 57.910156 -16.640625 59.6875 -17.734375 60.8125 -19.078125 L 51.140625 -19.078125 L 51.140625 -29.4375 L 84.734375 -29.4375 L 84.734375 0.046875 L 74.453125 0.046875 L 72.359375 -5.671875 C 65.804688 -1.035156 56.554688 1.28125 44.609375 1.28125 Z M 44.609375 1.28125 "/></g></g></g><g clip-path="url(#11084dbbea)"><g fill="#ffffff" fill-opacity="1"><g transform="translate(160.154705, 70.554451)"><g><path d="M 87.125 0 L 63.734375 0 C 62.660156 -1.476562 61.90625 -3.367188 61.46875 -5.671875 C 61.082031 -7.453125 60.503906 -9.195312 59.734375 -10.90625 C 58.972656 -12.625 57.648438 -14.050781 55.765625 -15.1875 C 53.890625 -16.320312 51.101562 -16.929688 47.40625 -17.015625 L 31.328125 -17.015625 L 31.328125 0 L 6.578125 0 L 6.578125 -59 L 46.828125 -59 C 56.453125 -59 64.21875 -58.28125 70.125 -56.84375 C 76.03125 -55.40625 80.335938 -53.144531 83.046875 -50.0625 C 85.765625 -46.976562 87.125 -42.953125 87.125 -37.984375 C 87.125 -33.847656 86.179688 -30.367188 84.296875 -27.546875 C 82.421875 -24.722656 79.457031 -22.488281 75.40625 -20.84375 C 79.320312 -19.226562 81.863281 -17.289062 83.03125 -15.03125 C 84.195312 -12.769531 84.914062 -10.28125 85.1875 -7.5625 C 85.457031 -5.15625 86.101562 -2.632812 87.125 0 Z M 31.328125 -31.578125 L 45.46875 -31.625 C 49.414062 -31.625 52.523438 -31.800781 54.796875 -32.15625 C 57.078125 -32.507812 58.757812 -32.992188 59.84375 -33.609375 C 60.925781 -34.222656 61.617188 -34.90625 61.921875 -35.65625 C 62.222656 -36.414062 62.375 -37.191406 62.375 -37.984375 C 62.375 -38.785156 62.222656 -39.566406 61.921875 -40.328125 C 61.617188 -41.097656 60.925781 -41.789062 59.84375 -42.40625 C 58.757812 -43.019531 57.078125 -43.503906 54.796875 -43.859375 C 52.523438 -44.222656 49.414062 -44.40625 45.46875 -44.40625 L 31.328125 -44.40625 Z M 31.328125 -31.578125 "/></g></g></g></g></g></g><g clip-path="url(#b975d8dcfd)"><path fill="#ffffff" d="M 307.992188 244.863281 L 306.304688 229.425781 C 305.632812 223.230469 300.734375 218.339844 294.539062 217.660156 L 85.488281 215.976562 L 294.539062 214.292969 C 300.734375 213.617188 305.625 208.722656 306.304688 202.527344 L 307.992188 187.089844 L 309.675781 202.527344 C 310.347656 208.722656 315.246094 213.613281 321.441406 214.292969 L 336.871094 215.984375 L 321.433594 217.667969 C 315.238281 218.339844 310.347656 223.238281 309.667969 229.433594 Z M 307.992188 244.863281 " fill-opacity="1" fill-rule="nonzero"/></g><g transform="matrix(1, 0, 0, 1, 293, 132)"><g clip-path="url(#0399f751c6)"><g fill="#ffffff" fill-opacity="1"><g transform="translate(0.740583, 29.076531)"><g><path d="M 6.609375 -17.21875 L 3.71875 -17.21875 L 3.71875 -22.40625 L 1.015625 -22.40625 L 1.015625 -24.125 L 9.3125 -24.125 L 9.3125 -22.40625 L 6.609375 -22.40625 Z M 23.34375 -17.21875 L 20.453125 -17.21875 L 20.453125 -21.609375 L 17.859375 -17.21875 L 15.703125 -17.21875 L 13.109375 -21.609375 L 13.109375 -17.21875 L 10.21875 -17.21875 L 10.21875 -24.125 L 13.671875 -24.125 L 16.78125 -19.171875 L 19.90625 -24.125 L 23.34375 -24.125 Z M 23.34375 -17.21875 "/></g></g></g></g></g></svg>