<svg width="1024" height="1024" viewBox="0 0 1024 1024" fill="none" xmlns="http://www.w3.org/2000/svg">
<rect width="1024" height="1024" fill="white"/>
<path d="M835.516 471.449C829.949 448.891 823.064 432.924 814.861 423.549C806.658 414.174 795.379 409.486 781.023 409.486C769.305 409.486 759.93 412.709 752.898 419.154C745.867 425.307 742.352 433.51 742.352 443.764C742.352 458.119 749.529 469.545 763.885 478.041L817.937 510.121C833.172 519.203 844.012 528.285 850.457 537.367C856.902 546.156 860.125 556.85 860.125 569.447C860.125 578.236 858.221 586.586 854.412 594.496C850.603 602.406 845.477 609.291 839.031 615.15C832.879 620.717 825.555 625.258 817.059 628.773C808.562 631.996 799.48 633.607 789.812 633.607C784.539 633.607 778.826 633.168 772.674 632.289C766.521 631.703 759.783 630.531 752.459 628.773C746.6 627.309 742.059 626.283 738.836 625.697C735.613 625.111 732.537 624.818 729.607 624.818C726.678 624.818 724.48 625.258 723.016 626.137C721.551 627.016 719.939 628.627 718.182 630.971H711.59V552.748H719.5C722.43 565.639 725.799 576.479 729.607 585.268C733.416 594.057 737.811 601.234 742.791 606.801C747.771 612.367 753.631 616.469 760.369 619.105C767.107 621.449 774.725 622.621 783.221 622.621C796.404 622.621 806.658 619.398 813.982 612.953C821.6 606.508 825.408 597.719 825.408 586.586C825.408 571.645 816.619 559.193 799.041 549.232L770.037 532.533C759.197 526.381 749.969 520.521 742.352 514.955C735.027 509.389 729.021 503.822 724.334 498.256C719.646 492.396 716.277 486.391 714.227 480.238C712.176 474.086 711.15 467.494 711.15 460.463C711.15 451.381 712.762 443.031 715.984 435.414C719.5 427.797 724.187 421.205 730.047 415.639C736.199 410.072 743.523 405.824 752.02 402.895C760.516 399.965 769.891 398.5 780.145 398.5C791.863 398.5 803.143 400.551 813.982 404.652C820.135 407.289 824.822 408.607 828.045 408.607C829.217 408.607 830.096 408.314 830.682 407.729C831.268 407.143 832.732 405.824 835.076 403.773L835.516 402.895H841.668L843.426 471.449H835.516Z" fill="#0F456B"/>
<path d="M643.904 342.25C643.025 342.543 642 342.689 640.828 342.689C639.949 342.689 639.07 342.689 638.191 342.689C627.938 342.689 619.881 340.346 614.021 335.658C608.162 330.971 605.232 324.379 605.232 315.883C605.232 307.68 608.162 301.088 614.021 296.107C619.881 290.834 627.059 288.197 635.555 288.197C646.688 288.197 655.623 292.152 662.361 300.062C669.393 307.973 672.908 318.52 672.908 331.703C672.908 341.371 671.15 351.039 667.635 360.707C664.412 370.082 659.871 379.018 654.012 387.514C652.254 389.857 650.496 392.055 648.738 394.105C646.98 395.863 644.783 397.914 642.146 400.258C639.51 402.309 636.434 404.652 632.918 407.289C629.402 409.926 625.154 413.002 620.174 416.518C619.295 417.104 618.123 417.982 616.658 419.154C615.193 420.033 613.875 420.766 612.703 421.352L602.156 409.047C617.391 399.086 628.963 388.832 636.873 378.285C644.783 367.738 648.738 357.191 648.738 346.645C648.738 343.715 647.713 342.25 645.662 342.25H643.904Z" fill="#0F456B"/>
<path d="M347.702 420.473C361.472 416.664 373.337 413.148 383.298 409.926C393.552 406.703 404.685 402.748 416.696 398.061L420.651 398.939V438.93C429.147 431.02 436.618 424.428 443.063 419.154C449.509 413.881 455.368 409.779 460.642 406.85C466.208 403.627 471.481 401.43 476.462 400.258C481.735 398.793 487.302 398.061 493.161 398.061C511.618 398.061 526.12 404.652 536.667 417.836C547.214 431.02 552.487 449.477 552.487 473.207V588.344C552.487 600.355 554.538 608.559 558.64 612.953C562.741 617.348 570.798 620.277 582.81 621.742V628.773H478.659V621.742C484.812 621.156 489.938 620.131 494.04 618.666C498.142 617.201 501.364 614.857 503.708 611.635C506.345 608.412 508.103 604.164 508.981 598.891C509.86 593.617 510.3 587.025 510.3 579.115V474.086C510.3 441.859 498.142 425.746 473.825 425.746C469.724 425.746 465.769 426.186 461.96 427.064C458.151 427.943 454.196 429.408 450.095 431.459C446.286 433.51 442.038 436.439 437.351 440.248C432.956 444.057 427.683 448.744 421.53 454.311V595.375C421.53 604.457 423.874 610.902 428.562 614.711C433.249 618.227 442.038 620.57 454.929 621.742V628.773H348.581V621.742C355.026 621.156 360.153 620.277 363.962 619.105C368.063 617.641 371.286 615.443 373.63 612.514C375.974 609.584 377.585 605.922 378.464 601.527C379.343 596.84 379.782 590.98 379.782 583.949V459.145C379.782 446.84 378.464 438.49 375.827 434.096C373.19 429.408 368.356 427.064 361.325 427.064C356.052 427.064 351.511 427.797 347.702 429.262V420.473Z" fill="#0F456B"/>
<path d="M296.275 628.773C296.275 664.809 288.951 692.055 274.303 710.512C259.947 728.969 238.854 738.197 211.021 738.197C197.545 738.197 186.412 735.561 177.623 730.287C168.541 725.307 164 718.715 164 710.512C164 704.945 166.051 700.258 170.152 696.449C174.254 692.934 179.234 691.176 185.094 691.176C189.195 691.176 193.15 692.348 196.959 694.691C200.475 697.035 204.43 701.137 208.824 706.996C212.926 712.27 216.441 715.932 219.371 717.982C222.594 720.033 226.109 721.059 229.918 721.059C237.828 721.059 243.541 718.129 247.057 712.27C248.521 709.926 249.693 707.143 250.572 703.92C251.451 700.99 252.037 697.182 252.33 692.494C252.916 688.1 253.209 682.533 253.209 675.795C253.502 669.35 253.648 661.293 253.648 651.625V461.342C253.648 450.502 252.477 442.738 250.133 438.051C247.789 433.363 243.834 431.02 238.268 431.02C235.631 431.02 232.555 431.166 229.039 431.459C225.816 431.752 222.154 432.191 218.053 432.777L215.855 433.217V425.746C223.18 423.402 229.918 421.205 236.07 419.154C242.223 416.811 248.375 414.613 254.527 412.562C260.68 410.512 266.832 408.314 272.984 405.971C279.43 403.627 286.314 400.99 293.639 398.061L296.275 399.379V628.773ZM271.227 286C278.258 286 284.117 288.637 288.805 293.91C293.785 298.891 296.275 304.896 296.275 311.928C296.275 319.252 293.932 325.404 289.244 330.385C284.85 335.072 278.844 337.416 271.227 337.416C263.902 337.416 257.75 335.072 252.77 330.385C248.082 325.404 245.738 319.252 245.738 311.928C245.738 304.896 248.229 298.891 253.209 293.91C258.189 288.637 264.195 286 271.227 286Z" fill="#0F456B"/>
</svg>
