<svg width="5421" height="3715" viewBox="0 0 5421 3715" fill="none" xmlns="http://www.w3.org/2000/svg">
<path d="M1274.08 2338.46C1270.39 2347.84 1264.56 2355.22 1256.47 2360.9C1248.09 2366.58 1239.15 2369.42 1229.35 2369.42C1215.86 2369.42 1204.5 2364.59 1195.13 2354.65C1185.75 2345 1181.21 2333.49 1181.21 2319.86C1181.21 2313.19 1182.35 2306.8 1184.9 2300.83C1187.32 2294.87 1190.72 2289.47 1195.13 2284.93C1204.5 2275.13 1215.86 2270.16 1229.35 2270.16C1239.15 2270.16 1248.09 2273 1256.33 2278.68C1264.42 2284.36 1270.24 2291.75 1273.94 2300.83H1263C1257.75 2291.32 1249.94 2285.07 1239.57 2281.95C1236.16 2280.95 1232.33 2280.39 1227.93 2280.39C1223.38 2280.39 1218.84 2281.52 1214.3 2283.65C1209.61 2285.78 1205.49 2288.62 1202.08 2292.17C1194.7 2299.84 1191.15 2309.07 1191.15 2319.86C1191.15 2330.65 1194.7 2339.88 1202.08 2347.41C1209.61 2355.36 1218.7 2359.2 1229.35 2359.2C1236.45 2359.2 1243.12 2357.35 1249.09 2353.52C1255.05 2349.82 1259.74 2344.71 1263.14 2338.46H1274.08ZM1481.9 2319.44C1481.9 2308.64 1477.92 2299.27 1470.25 2291.46C1462.44 2283.79 1453.07 2279.82 1442.14 2279.82C1431.2 2279.82 1421.83 2283.79 1414.02 2291.46C1406.35 2299.27 1402.38 2308.64 1402.38 2319.44C1402.38 2330.51 1406.35 2339.88 1414.02 2347.55C1421.83 2355.36 1431.2 2359.2 1442.14 2359.2C1453.07 2359.2 1462.44 2355.36 1470.25 2347.55C1477.92 2339.88 1481.9 2330.51 1481.9 2319.44ZM1491.84 2319.44C1491.84 2326.25 1490.42 2332.78 1487.86 2338.75C1485.31 2344.85 1481.76 2350.11 1477.21 2354.65C1472.67 2359.2 1467.41 2362.75 1461.31 2365.3C1455.34 2367.86 1448.81 2369.28 1442 2369.28C1435.18 2369.28 1428.79 2367.86 1422.83 2365.3C1416.86 2362.75 1411.61 2359.2 1407.06 2354.65C1402.52 2350.11 1398.97 2344.85 1396.41 2338.75C1393.86 2332.78 1392.44 2326.25 1392.44 2319.44C1392.44 2312.62 1393.86 2306.23 1396.41 2300.12C1398.97 2294.16 1402.52 2288.91 1407.06 2284.36C1411.61 2279.96 1416.86 2276.41 1422.83 2273.85C1428.79 2271.3 1435.18 2270.02 1442 2270.02C1448.81 2270.02 1455.34 2271.3 1461.31 2273.85C1467.41 2276.41 1472.67 2279.96 1477.21 2284.36C1481.76 2288.91 1485.31 2294.16 1487.86 2300.12C1490.42 2306.23 1491.84 2312.62 1491.84 2319.44ZM1643.5 2322.56C1623.91 2318.02 1613.97 2309.5 1613.97 2297.14C1613.97 2288.05 1617.23 2281.38 1623.48 2276.84C1629.87 2272.29 1637.4 2270.02 1645.92 2270.02C1664.66 2270.02 1675.88 2277.12 1679.43 2291.04H1668.64C1666.65 2282.8 1659.12 2278.54 1645.92 2278.54C1636.54 2278.54 1630.01 2281.38 1626.32 2286.92C1624.9 2288.91 1624.33 2291.6 1624.33 2294.73C1624.19 2300.69 1627.46 2305.24 1633.99 2308.5C1636.97 2310.06 1643.36 2312.19 1653.3 2314.75C1663.1 2317.31 1670.2 2320.15 1674.6 2323.27C1680.85 2327.53 1683.97 2333.64 1683.97 2341.59C1683.97 2351.24 1680 2358.63 1672.33 2363.6C1665.94 2367.86 1657.99 2369.85 1648.47 2369.85C1627.17 2369.85 1614.82 2361.75 1611.41 2345.42H1623.05C1624.9 2355.65 1633.42 2360.76 1648.47 2360.76C1659.26 2360.76 1666.93 2357.78 1671.19 2351.81C1672.9 2349.54 1673.75 2346.27 1673.75 2342.3C1673.75 2338.32 1672.19 2335.06 1669.06 2332.5C1664.52 2328.81 1656 2325.54 1643.5 2322.56ZM1895.3 2368L1880.25 2299.27L1851.28 2373.68L1822.17 2299.27L1807.26 2368H1797.04L1819.61 2265.05L1851.28 2347.69L1882.95 2265.05L1905.38 2368H1895.3ZM2082.77 2368H2025.4V2271.44H2082.77V2280.67H2035.34V2315.03H2081.35V2324.41H2035.34V2358.77H2082.77V2368ZM2204.14 2280.39V2271.16H2227.57H2237.51H2260.94V2280.39H2237.51V2367.72H2227.57V2280.39H2204.14ZM2392.35 2368H2382.41V2271.44H2392.35V2368ZM2610.14 2338.46C2606.45 2347.84 2600.62 2355.22 2592.53 2360.9C2584.15 2366.58 2575.21 2369.42 2565.41 2369.42C2551.92 2369.42 2540.56 2364.59 2531.19 2354.65C2521.81 2345 2517.27 2333.49 2517.27 2319.86C2517.27 2313.19 2518.41 2306.8 2520.96 2300.83C2523.38 2294.87 2526.78 2289.47 2531.19 2284.93C2540.56 2275.13 2551.92 2270.16 2565.41 2270.16C2575.21 2270.16 2584.15 2273 2592.39 2278.68C2600.48 2284.36 2606.3 2291.75 2610 2300.83H2599.06C2593.81 2291.32 2586 2285.07 2575.63 2281.95C2572.22 2280.95 2568.39 2280.39 2563.99 2280.39C2559.44 2280.39 2554.9 2281.52 2550.36 2283.65C2545.67 2285.78 2541.55 2288.62 2538.14 2292.17C2530.76 2299.84 2527.21 2309.07 2527.21 2319.86C2527.21 2330.65 2530.76 2339.88 2538.14 2347.41C2545.67 2355.36 2554.76 2359.2 2565.41 2359.2C2572.51 2359.2 2579.18 2357.35 2585.15 2353.52C2591.11 2349.82 2595.8 2344.71 2599.2 2338.46H2610.14ZM2759.59 2322.56C2740 2318.02 2730.06 2309.5 2730.06 2297.14C2730.06 2288.05 2733.32 2281.38 2739.57 2276.84C2745.96 2272.29 2753.49 2270.02 2762.01 2270.02C2780.75 2270.02 2791.97 2277.12 2795.52 2291.04H2784.73C2782.74 2282.8 2775.21 2278.54 2762.01 2278.54C2752.64 2278.54 2746.1 2281.38 2742.41 2286.92C2740.99 2288.91 2740.42 2291.6 2740.42 2294.73C2740.28 2300.69 2743.55 2305.24 2750.08 2308.5C2753.06 2310.06 2759.45 2312.19 2769.39 2314.75C2779.19 2317.31 2786.29 2320.15 2790.69 2323.27C2796.94 2327.53 2800.06 2333.64 2800.06 2341.59C2800.06 2351.24 2796.09 2358.63 2788.42 2363.6C2782.03 2367.86 2774.08 2369.85 2764.56 2369.85C2743.26 2369.85 2730.91 2361.75 2727.5 2345.42H2739.15C2740.99 2355.65 2749.51 2360.76 2764.56 2360.76C2775.36 2360.76 2783.02 2357.78 2787.28 2351.81C2788.99 2349.54 2789.84 2346.27 2789.84 2342.3C2789.84 2338.32 2788.28 2335.06 2785.15 2332.5C2780.61 2328.81 2772.09 2325.54 2759.59 2322.56ZM2949.05 2319.01C2943.52 2322.99 2939.82 2325.97 2937.69 2328.1C2933.01 2332.78 2930.74 2337.04 2930.74 2341.02C2930.74 2345.85 2932.44 2350.11 2935.85 2353.8C2939.26 2357.63 2943.52 2359.48 2948.34 2359.48C2953.46 2359.48 2959.28 2356.64 2965.53 2350.68C2967.23 2349.11 2968.79 2347.55 2970.21 2346.13L2949.05 2319.01ZM2948.2 2303.25C2949.34 2304.38 2950.33 2305.66 2951.47 2306.8C2952.89 2305.8 2954.31 2304.81 2955.87 2303.67C2957.43 2302.54 2958.85 2301.4 2960.27 2299.98C2963.25 2297 2964.82 2293.73 2964.82 2290.18C2964.82 2286.78 2963.54 2283.94 2961.27 2281.95C2958.85 2279.96 2956.15 2278.97 2953.31 2278.82C2950.47 2278.68 2947.78 2279.53 2945.5 2281.38C2943.09 2283.37 2941.95 2286.35 2941.95 2290.47C2941.95 2294.73 2943.94 2298.85 2948.2 2303.25ZM2996.2 2330.37C2994.78 2332.36 2990.52 2337.75 2983.28 2346.42L2999.89 2368.14L2986.83 2368.43L2976.32 2354.65C2971.63 2359.34 2967.94 2362.6 2964.96 2364.31C2959.14 2368 2954.17 2369.85 2949.62 2369.85C2945.22 2369.85 2941.24 2369.14 2937.84 2367.72C2934.43 2366.3 2931.45 2364.45 2928.89 2361.89C2923.49 2356.5 2920.94 2349.82 2920.94 2341.87C2920.94 2332.5 2925.48 2324.41 2934.71 2317.73C2937.27 2315.74 2940.11 2313.76 2942.95 2311.63C2936.13 2303.82 2932.72 2296.86 2932.72 2290.89C2932.72 2284.93 2934.57 2279.96 2938.4 2275.98C2942.1 2272.01 2947.21 2270.02 2953.46 2270.02C2959.42 2270.02 2964.25 2271.87 2968.08 2275.56C2972.06 2279.39 2974.05 2284.22 2974.05 2290.04C2974.05 2296.29 2970.35 2302.54 2962.97 2308.64C2960.98 2310.35 2958.99 2311.77 2957.29 2313.19L2977.17 2338.61C2979.02 2336.33 2980.86 2334.06 2982.71 2331.79L2988.1 2324.97L2996.2 2330.37ZM3217.21 2368L3202.16 2299.27L3173.19 2373.68L3144.08 2299.27L3129.17 2368H3118.95L3141.53 2265.05L3173.19 2347.69L3204.86 2265.05L3227.3 2368H3217.21ZM3362.93 2332.5H3398.01L3380.54 2288.05L3362.93 2332.5ZM3422.86 2368H3412.07L3401.7 2341.73H3359.24L3348.88 2368H3338.08L3380.54 2264.77L3422.86 2368ZM3552.82 2368H3542.88V2271.44H3552.82V2316.88L3585.33 2271.44H3598.11L3562.61 2319.72L3598.11 2368H3585.33L3552.82 2322.7V2368ZM3775.42 2368H3718.05V2271.44H3775.42V2280.67H3727.99V2315.03H3774V2324.41H3727.99V2358.77H3775.42V2368ZM3974.46 2336.05C3974.46 2346.56 3970.91 2354.79 3964.1 2360.76C3957.71 2366.44 3949.19 2369.28 3938.54 2369.28C3927.74 2369.28 3919.08 2366.44 3912.69 2360.76C3905.88 2354.79 3902.47 2346.56 3902.47 2336.05V2271.44H3912.41V2337.47C3912.41 2344.85 3914.96 2350.39 3920.22 2354.23C3924.76 2357.63 3930.87 2359.34 3938.54 2359.34C3950.32 2359.34 3958.27 2355.36 3962.39 2347.41C3963.81 2344.71 3964.52 2341.45 3964.52 2337.47V2271.44H3974.46V2336.05ZM4111.49 2320.15H4133.92C4139.46 2320.15 4144 2318.3 4147.7 2314.61C4151.39 2310.77 4153.23 2306.09 4153.23 2300.27C4153.23 2294.59 4151.39 2290.04 4147.98 2286.35C4144.43 2282.8 4139.74 2280.95 4133.92 2280.95H4111.49V2320.15ZM4163.17 2300.55C4163.17 2309.07 4160.05 2316.03 4154.09 2321.71C4148.26 2327.1 4141.02 2329.8 4132.5 2329.8H4111.49V2368H4101.55V2271.44H4132.5C4141.02 2271.44 4148.12 2274.14 4154.09 2279.53C4160.05 2285.07 4163.17 2292.03 4163.17 2300.55Z" fill="#E31D1D"/>
<path d="M1570.27 1925.96C1571.03 1948.19 1587.13 1978.84 1597.86 1992.64C1599.39 1994.93 1598.62 1998.77 1594.79 1998.77C1539.61 1998 1183.25 1998.77 1183.25 1998.77V1987.27L1237.66 1962.75L1238.43 1764.26L1237.66 1476.1L1183.25 1452.34V1441.62C1183.25 1441.62 1539.61 1440.85 1594.79 1440.85C1598.62 1440.85 1599.39 1443.91 1597.86 1446.21C1587.13 1460.77 1571.03 1490.66 1570.27 1512.89C1569.5 1567.3 1568.73 1623.25 1569.5 1627.84C1564.14 1627.84 1558.77 1627.84 1551.11 1627.84C1542.68 1568.83 1514.32 1478.4 1457.61 1458.48C1430.79 1448.51 1380.97 1450.81 1371.78 1482.23C1369.48 1491.43 1367.95 1503.69 1367.95 1522.85V1725.17C1420.83 1626.31 1505.89 1626.31 1499.76 1679.96C1493.63 1733.6 1501.29 1842.43 1501.29 1842.43H1492.1C1482.9 1785.72 1458.38 1640.11 1367.95 1745.86V1916C1367.95 1935.16 1369.48 1947.42 1371.78 1956.62C1380.97 1988.04 1430.79 1990.34 1457.61 1981.14C1514.32 1960.45 1542.68 1870.78 1551.11 1811.01C1558.01 1811.01 1563.37 1811.01 1569.5 1811.01C1568.73 1815.6 1569.5 1871.55 1570.27 1925.96Z" fill="#FF5757"/>
<path d="M1767.79 1527.32L1768.58 1756.89C1768.58 1894.32 1786.85 1947.54 1929.05 1921.33C1984.65 1911 2045.82 1898.29 2085.54 1898.29C2118.11 1899.09 2126.84 1907.03 2136.38 1941.98L2150.68 1996C2107.78 1963.43 1994.98 1996 1933.81 1996C1871.06 1996 1796.39 1958.66 1768.58 1887.17C1768.58 1923.71 1768.58 1960.25 1768.58 1996H1678.82C1678.82 1996 1686.76 1955.49 1686.76 1908.62V1527.32C1686.76 1480.45 1678.82 1439.94 1678.82 1439.94H1775.73C1775.73 1439.94 1767.79 1480.45 1767.79 1527.32ZM2520.5 1439.94L2719.89 1918.15C2735.77 1955.49 2756.43 1991.23 2759.6 1996H2663.49L2473.63 1540.83C2464.1 1517.79 2447.42 1476.48 2432.32 1452.65C2410.88 1558.3 2300.46 1695.73 2256.77 1799C2213.87 1900.68 2245.65 1945.16 2302.84 1917.36C2348.91 1894.32 2414.85 1816.47 2452.18 1775.96C2472.04 1754.51 2499.05 1740.21 2524.47 1752.13C2539.56 1758.48 2564.98 1787.88 2577.69 1799.79C2553.86 1794.23 2523.68 1811.71 2497.46 1834.74C2438.68 1885.58 2370.36 1996 2291.72 1996C2249.62 1996 2221.02 1977.73 2207.52 1945.16C2169.39 1851.42 2275.83 1720.35 2324.29 1645.68C2352.89 1601.2 2423.59 1489.19 2425.17 1439.94H2520.5ZM2952.35 1461.39L2877.68 1851.42C2863.38 1922.92 2883.24 1996 2883.24 1996H2830.81C2830.81 1996 2846.7 1955.49 2855.44 1908.62L2946 1439.94H3027.82L3154.91 1847.45L3282.01 1439.94H3363.83L3452.01 1895.91C3458.36 1930.07 3465.51 1963.43 3478.22 1996H3380.52C3384.49 1975.35 3380.52 1950.72 3374.96 1921.33L3285.99 1462.18L3123.93 1982.5H3115.2L2952.35 1461.39ZM3646.85 1439.94C3646.85 1439.94 3638.9 1480.45 3638.9 1527.32V1908.62C3638.9 1955.49 3646.85 1996 3646.85 1996H3549.93C3549.93 1996 3557.88 1955.49 3557.88 1908.62V1527.32C3557.88 1480.45 3549.93 1439.94 3549.93 1439.94H3646.85ZM3807.24 1908.62C3807.24 1955.49 3815.19 1996 3815.19 1996H3718.27C3718.27 1996 3726.22 1955.49 3726.22 1908.62V1527.32C3726.22 1480.45 3718.27 1439.94 3718.27 1439.94H4000.27C4088.45 1439.94 4167.09 1485.22 4167.09 1580.54C4167.09 1669.51 4105.92 1700.49 4034.43 1719.56C4008.22 1726.71 3978.03 1733.06 3950.23 1741.8H3993.92C4017.75 1741.8 4024.9 1744.18 4036.81 1765.63L4113.07 1899.88C4128.17 1926.89 4159.94 1979.32 4175.04 1996H4101.95C4077.33 1996 4067.8 1985.67 4056.67 1965.81L3951.82 1780.73C3934.34 1750.54 3904.15 1754.51 3881.91 1776.75C3873.17 1786.29 3865.23 1798.2 3861.26 1810.12C3863.64 1775.96 3893.83 1752.92 3928.78 1734.65C4004.25 1694.93 4080.5 1686.99 4080.5 1580.54C4080.5 1476.48 4012.98 1451.06 3923.22 1451.06H3808.04C3808.04 1603.58 3807.24 1756.1 3807.24 1908.62Z" fill="#FF5757"/>
<path d="M2282.82 1504.34C2195.14 1512.31 2144.77 1519.63 2113.84 1543.85C2077.49 1572.2 2068.89 1624.14 2059.32 1728C2049.44 1620.31 2040.51 1568.7 2000.66 1540.98C1969.73 1519.32 1919.67 1512.31 1835.82 1504.66C1923.18 1496.69 1973.87 1489.37 2004.48 1465.47C2041.15 1436.8 2049.76 1385.18 2059.32 1281C2068.25 1376.9 2076.22 1428.19 2105.87 1457.82C2135.52 1487.45 2187.17 1495.74 2282.82 1504.34Z" fill="#FF3131" stroke="#FF3131" stroke-width="10" stroke-linejoin="round"/>
</svg>
