<?xml version="1.0" encoding="UTF-8"?>
<svg id="Layer_1" data-name="Layer 1" xmlns="http://www.w3.org/2000/svg" viewBox="0 0 2202.15 709.03">
  <defs>
    <style>
      .cls-1 {
        fill: #fed70c;
      }
    </style>
  </defs>
  <path class="cls-1" d="M773.82,685.41c-27.16-13.51-50.02-30.6-68.01-50.85-17.56-19.75-30.85-41.43-39.55-64.51l49.1,52.66s0,.01.01.01l9.15,9.81,49.3,52.88Z"/>
  <path class="cls-1" d="M796.19,400.01v294.99c-5.91-2.11-11.6-4.45-17.08-7.03-1.78-.84-3.55-1.69-5.29-2.56-27.16-13.51-50.02-30.6-68.01-50.85-17.56-19.75-30.85-41.43-39.55-64.51-.79-2.08-1.53-4.16-2.24-6.26-8.46-25.02-12.76-49.19-12.76-71.84v-89.07c0-14.92-2.41-27.58-7.17-37.64-4.83-10.17-11.31-18.84-19.26-25.73-7.92-6.86-17.35-11.97-28-15.16-11.32-3.39-23.4-5.12-35.92-5.12s-24.61,1.72-35.91,5.12c-10.65,3.19-20.07,8.29-28.01,15.17s-14.42,15.54-19.25,25.73c-4.76,10.05-7.18,22.71-7.18,37.63v297.53h-144.93v-297.53c0-14.92-2.41-27.58-7.17-37.64-4.83-10.18-11.31-18.84-19.26-25.73-7.92-6.86-17.35-11.97-28-15.16-11.32-3.39-23.4-5.12-35.92-5.12s-24.61,1.72-35.91,5.12c-10.65,3.19-20.07,8.29-28.01,15.17-7.95,6.88-14.43,15.55-19.25,25.73-4.76,10.05-7.18,22.71-7.18,37.63v297.53H0v-300.4c0-22.64,4.3-46.81,12.77-71.85,8.59-25.43,22.65-49.24,41.78-70.77,19.12-21.52,43.78-39.49,73.3-53.4,29.68-13.98,65.83-21.06,107.43-21.06s76.83,7.17,104.12,21.31c23.55,12.23,43.25,27.57,58.7,45.69,15.43-18.12,35.13-33.46,58.69-45.68,27.28-14.15,62.31-21.32,104.12-21.32,33.93,0,64.23,4.71,90.35,14.03,5.91,2.11,11.61,4.45,17.09,7.03,1.77.84,3.53,1.69,5.27,2.55,27.17,13.53,50.03,30.62,68.02,50.85,17.55,19.76,30.83,41.43,39.55,64.52.79,2.07,1.53,4.15,2.24,6.25,8.47,25.09,12.76,49.26,12.76,71.85h0Z"/>
  <path class="cls-1" d="M769.22,332.97c-7.99-23.62-20.92-45.5-38.79-65.61-16.95-19.06-38.33-34.97-64.17-47.72-1.42-.7-2.86-1.4-4.31-2.08-3.47-1.64-7.03-3.17-10.69-4.6-25.59-10.02-55.71-15.03-90.35-15.03-39.59,0-71.99,6.55-97.21,19.63-25.23,13.09-45.34,29.69-60.33,49.8-1.82,2.44-3.58,4.91-5.27,7.41-12.28,18.04-21.21,37.45-26.82,58.2-6.39,23.63-10.22,45.97-11.49,67.04l-19.16,285.4h114.93v-282.53c0-17.24,2.88-31.92,8.62-44.05,5.75-12.13,13.41-22.35,22.99-30.65,9.58-8.29,20.74-14.37,33.52-18.2,12.76-3.83,26.17-5.75,40.22-5.75s27.45,1.92,40.23,5.75c12.76,3.83,23.94,9.91,33.52,18.2,6.39,5.54,11.93,11.93,16.6,19.17,2.35,3.61,4.47,7.44,6.39,11.48,5.74,12.13,8.61,26.81,8.61,44.05v167.17c8.7,23.08,21.99,44.76,39.55,64.51,17.99,20.25,40.85,37.34,68.01,50.85h7.37v-285.4c0-21.07-3.99-43.41-11.97-67.04h0ZM455.56,685.41l-19.15-285.4c-1.29-21.07-5.12-43.41-11.49-67.04-5.61-20.75-14.55-40.16-26.82-58.2-1.69-2.5-3.45-4.97-5.27-7.41-15.01-20.11-35.12-36.71-60.34-49.8-25.23-13.08-57.63-19.63-97.21-19.63s-73.26,6.55-101.04,19.63c-27.77,13.09-50.61,29.69-68.48,49.8-17.88,20.11-30.81,41.99-38.78,65.61-7.99,23.63-11.98,45.97-11.98,67.04v285.4h114.93v-282.53c0-17.24,2.88-31.92,8.62-44.05,5.75-12.13,13.41-22.35,22.99-30.65,9.58-8.29,20.74-14.37,33.52-18.2,12.76-3.83,26.17-5.75,40.22-5.75s27.45,1.92,40.23,5.75c12.76,3.83,23.94,9.91,33.52,18.2,9.58,8.3,17.24,18.52,22.98,30.65,5.75,12.13,8.62,26.81,8.62,44.05v282.53h114.93,0Z"/>
  <path class="cls-1" d="M976.89,191.54v297.54c0,14.94-2.41,27.6-7.17,37.65-4.83,10.19-11.3,18.85-19.25,25.72-7.92,6.86-17.34,11.96-28.01,15.16-11.32,3.39-23.4,5.11-35.92,5.11s-24.6-1.72-35.91-5.11c-10.82-3.24-19.98-8.2-28.01-15.16-7.95-6.87-14.42-15.53-19.25-25.73-4.76-10.04-7.18-22.71-7.18-37.64v-89.07c0-22.59-4.29-46.76-12.76-71.85-.71-2.1-1.45-4.18-2.24-6.25-8.72-23.09-22-44.76-39.55-64.52-17.99-20.23-40.85-37.32-68.02-50.85-1.74-.86-3.5-1.71-5.27-2.55-5.48-2.58-11.18-4.92-17.09-7.03v294.99c0,22.65,4.3,46.82,12.76,71.84.71,2.1,1.45,4.18,2.24,6.26,8.7,23.08,21.99,44.76,39.55,64.51,17.99,20.25,40.85,37.34,68.01,50.85,1.74.87,3.51,1.72,5.29,2.56,5.48,2.58,11.17,4.92,17.08,7.03,26.12,9.32,56.42,14.03,90.35,14.03,41.61,0,77.76-7.08,107.44-21.06,29.46-13.87,54.12-31.84,73.3-53.41,19.12-21.53,33.18-45.34,41.78-70.77,8.47-25.07,12.76-49.24,12.76-71.84V191.54h-144.93Z"/>
  <path class="cls-1" d="M991.89,206.54v282.54c0,17.25-2.87,31.95-8.61,44.07-5.75,12.13-13.41,22.35-22.99,30.65-9.58,8.29-20.76,14.35-33.52,18.18-12.78,3.83-26.19,5.74-40.23,5.74s-27.46-1.91-40.22-5.74c-12.78-3.83-23.94-9.89-33.52-18.18-6.39-5.54-11.93-11.93-16.61-19.18-2.34-3.61-4.46-7.43-6.38-11.47-5.74-12.12-8.62-26.82-8.62-44.07v-167.17c-8.72-23.09-22-44.76-39.55-64.52-17.99-20.23-40.85-37.32-68.02-50.85h-7.36v285.41c0,21.07,3.99,43.43,11.98,67.04,7.72,22.89,20.1,44.12,37.12,63.72,0,0,0,.01.01.01.54.63,1.09,1.25,1.65,1.88,2.41,2.71,4.91,5.36,7.5,7.93,15.62,15.59,34.51,28.85,56.67,39.79,1.42.7,2.86,1.4,4.31,2.08,3.47,1.64,7.04,3.17,10.69,4.6,25.6,10.02,55.71,15.03,90.35,15.03,39.59,0,73.27-6.55,101.04-19.63,27.78-13.08,50.6-29.69,68.48-49.8,17.87-20.12,30.8-41.98,38.79-65.61,7.98-23.61,11.97-45.97,11.97-67.04V206.54h-114.93Z"/>
  <path class="cls-1" d="M1643.26,340.02c-12.49-32.39-30.18-60.51-52.57-83.59-22.43-23.1-49.62-41.18-80.82-53.75-31.03-12.47-65.13-18.8-101.36-18.8s-68.16,5.92-94.26,17.6c-12.23,5.47-23.08,11.5-32.49,18.04V0h-144.92v446.94c0,40.18,7.01,76.96,20.83,109.32,13.84,32.42,32.9,60.21,56.66,82.6,23.75,22.4,52.23,39.74,84.65,51.55,32.18,11.72,67.1,17.66,103.78,17.66s73.34-6.31,104.67-18.78c31.45-12.5,59.1-30.54,82.16-53.61,23.07-23.06,41.11-50.88,53.64-82.69,12.45-31.63,18.76-67.32,18.76-106.05s-6.3-74.67-18.73-106.92h0ZM1313.89,539.9c-21.62-22.18-32.13-52.91-32.13-93.92s10.81-72.05,32.13-93.93c21.51-22.08,49.64-32.82,86-32.82s64.25,10.72,85.44,32.75c21.05,21.9,31.73,53.52,31.73,94s-10.68,72.1-31.73,94c-21.19,22.03-49.14,32.74-85.44,32.74s-64.49-10.73-86-32.82h0Z"/>
  <path class="cls-1" d="M1629.27,345.42c-11.82-30.65-28.27-56.82-49.34-78.54-21.07-21.7-46.3-38.46-75.66-50.28-29.36-11.81-61.28-17.72-95.76-17.72s-63.87,5.44-88.13,16.28c-24.25,10.87-42.12,23.63-53.62,38.31V15h-114.92v431.94c0,38.31,6.54,72.78,19.63,103.43,13.08,30.65,30.8,56.51,53.16,77.58,22.34,21.07,48.84,37.2,79.49,48.36,30.64,11.17,63.52,16.76,98.64,16.76s69.44-5.91,99.13-17.71c29.69-11.81,55.38-28.57,77.1-50.28,21.7-21.7,38.46-47.56,50.28-77.58,11.81-30.01,17.72-63.53,17.72-100.56s-5.91-70.88-17.72-101.52h0ZM1496.14,550.37c-23.94,24.9-56.02,37.35-96.25,37.35s-72.49-12.45-96.75-37.35c-24.25-24.9-36.38-59.69-36.38-104.39s12.13-79.49,36.38-104.39c24.26-24.91,56.51-37.36,96.75-37.36s72.31,12.45,96.25,37.36c23.95,24.9,35.92,59.7,35.92,104.39s-11.97,79.49-35.92,104.39Z"/>
  <path class="cls-1" d="M2183.43,340.98c-12.52-32.46-30.58-60.64-53.68-83.75-23.1-23.09-51.28-41.14-83.74-53.67-32.25-12.42-68.22-18.72-106.91-18.72s-74.56,6.31-106.49,18.74c-32.12,12.52-60.09,30.38-83.14,53.1-23.13,22.79-41.2,50.65-53.73,82.81-12.43,31.91-18.74,67.74-18.74,106.49s6.3,74.71,18.72,106.91c12.49,32.41,30.17,60.54,52.56,83.59,22.44,23.13,49.64,41.22,80.83,53.75,31.02,12.48,65.12,18.8,101.37,18.8s68.98-5.93,94.78-17.62c12-5.44,22.68-11.42,31.96-17.91v26.91h144.93v-252.52c0-38.69-6.3-74.66-18.72-106.91h0ZM2025.49,540.93c-21.19,22.04-49.13,32.75-85.44,32.75s-64.47-10.73-85.99-32.82c-21.62-22.18-32.13-52.91-32.13-93.92s10.81-72.05,32.14-93.93c21.51-22.08,49.64-32.82,85.98-32.82s64.25,10.71,85.44,32.75c21.06,21.9,31.73,53.52,31.73,94s-10.67,72.1-31.73,93.99Z"/>
  <path class="cls-1" d="M2169.43,346.37c-11.82-30.64-28.58-56.82-50.28-78.53-21.71-21.7-47.89-38.46-78.53-50.28-30.65-11.81-64.5-17.72-101.52-17.72s-70.73,5.91-101.05,17.72c-30.33,11.82-56.35,28.42-78.05,49.8-21.71,21.4-38.47,47.26-50.28,77.58-11.82,30.33-17.72,64.02-17.72,101.04s5.9,70.87,17.72,101.52c11.81,30.65,28.25,56.83,49.32,78.53,21.07,21.72,46.29,38.48,75.66,50.28,29.36,11.81,61.3,17.72,95.78,17.72s64.64-5.43,88.59-16.28c23.94-10.85,41.66-23.61,53.15-38.31v45.97h114.93v-237.52c0-37.02-5.91-70.87-17.72-101.52h0ZM2036.31,551.33c-23.95,24.9-56.03,37.35-96.26,37.35s-72.47-12.45-96.73-37.35c-24.27-24.9-36.39-59.69-36.39-104.39s12.12-79.5,36.39-104.4c24.26-24.9,56.51-37.35,96.73-37.35s72.31,12.45,96.26,37.35c23.94,24.9,35.91,59.71,35.91,104.4s-11.97,79.49-35.91,104.39h0Z"/>
</svg>