<svg xmlns="http://www.w3.org/2000/svg" width="249.81" height="40.358" viewBox="0 0 249.81 40.358">
  <g id="Group_1" data-name="Group 1" transform="translate(-446.093 -258.102)">
    <path id="Path_1" data-name="Path 1" d="M763.519,263.436h1.267a2.173,2.173,0,0,0,1.237-.254.807.807,0,0,0,.33-.671.771.771,0,0,0-.16-.482.946.946,0,0,0-.439-.316,3.412,3.412,0,0,0-1.049-.1h-1.185Zm-1.045,3.406v-6.055H764.7a5.837,5.837,0,0,1,1.649.166,1.612,1.612,0,0,1,.814.587,1.494,1.494,0,0,1,.3.887,1.572,1.572,0,0,1-.506,1.157,2.079,2.079,0,0,1-1.342.552,1.743,1.743,0,0,1,.549.32,7.116,7.116,0,0,1,.957,1.2l.788,1.184h-1.276l-.574-.954a4.943,4.943,0,0,0-1.089-1.408,1.425,1.425,0,0,0-.839-.209h-.61v2.571Zm2.639-7.807a5.386,5.386,0,0,0-2.467.609,4.647,4.647,0,0,0-2.553,4.09,4.474,4.474,0,0,0,.665,2.33,4.585,4.585,0,0,0,1.86,1.738,5.3,5.3,0,0,0,4.985,0,4.566,4.566,0,0,0-.033-8.158A5.388,5.388,0,0,0,765.113,259.034Zm0-.932a6.5,6.5,0,0,1,2.954.726,5.354,5.354,0,0,1,2.245,2.083,5.481,5.481,0,0,1-2.211,7.7,6.384,6.384,0,0,1-5.981,0,5.413,5.413,0,0,1-2.214-7.7,5.377,5.377,0,0,1,2.25-2.083A6.5,6.5,0,0,1,765.113,258.1Z" transform="translate(-75.215)" fill="#1a1818"/>
    <path id="Path_2" data-name="Path 2" d="M461.4,271.938l-5.432,12.9h10.8Zm20.033,28.034V264.393h.689l21,27.233V264.393h3.116v35.579h-.711L484.7,273.077v26.895Zm30.023-35.579h3.65l8.07,14.66,7.946-14.66h3.651l-10.006,18.573v17.006H521.65V282.966Zm38.961,0h3.226V277.75l12.607-13.357h4.274l-15.189,15.964L571.7,299.972h-4.193L553.64,283.38v16.592h-3.226Zm25.985,0h3.182v32.144h12.131v3.435H576.4Zm34.558,7.545-5.431,12.9h10.8Zm.389-7.545,14.733,35.579h-3.394l-4.962-11.705H604.112l-4.94,11.705h-3.518l14.924-35.579Zm19.644,0H649.1V267.9H634.149v11.127H648.97v3.484H634.149v13.951H648.97v3.508H630.99Zm23.58,35.579V264.393h.69l21,27.233V264.393h3.116v35.579h-.711L657.84,273.077v26.895ZM461.787,264.393l14.732,35.579h-3.394l-4.962-11.705H454.551l-4.94,11.705h-3.518l14.924-35.579Z" transform="translate(0 -1.512)" fill="#1a1818"/>
  </g>
</svg>
