<svg xmlns="http://www.w3.org/2000/svg" xmlns:xlink="http://www.w3.org/1999/xlink" width="250" zoomAndPan="magnify" viewBox="0 0 187.5 187.499992" height="250" preserveAspectRatio="xMidYMid meet" version="1.0"><path fill="#002f35" d="M 52.070312 108.058594 L 55.570312 105.886719 L 57.953125 107.632812 L 60.550781 104.773438 L 58.960938 103.398438 L 58.960938 70.988281 L 55.515625 68.445312 L 52.917969 71.308594 L 54.507812 72.683594 L 54.507812 105.144531 L 49.097656 102.074219 L 51.589844 100.539062 C 50.796875 99.742188 50.53125 98.683594 50.53125 97.359375 L 50.53125 68.445312 L 48.941406 69.613281 L 48.941406 101.964844 L 47.882812 101.382812 L 47.882812 70.300781 L 42.367188 73.742188 C 43.160156 74.535156 43.425781 75.597656 43.425781 76.917969 L 43.425781 100.167969 C 43.425781 101.492188 43.160156 102.230469 42.367188 103.023438 L 52.070312 108.054688 Z M 70.046875 108.058594 L 72.484375 106.523438 L 72.484375 114.730469 C 71.371094 113.777344 70.097656 113.351562 68.878906 113.351562 C 66.703125 113.351562 64.6875 114.730469 63.789062 116.902344 L 64.050781 117.164062 C 65.007812 116.742188 65.90625 116.53125 66.808594 116.53125 C 68.027344 116.53125 69.144531 116.902344 70.046875 117.585938 L 77.789062 112.664062 C 76.992188 111.871094 76.726562 110.808594 76.726562 109.488281 L 76.726562 84.175781 C 76.726562 82.851562 76.992188 82.109375 77.789062 81.3125 L 73.492188 77.976562 L 70.894531 80.785156 L 72.484375 82.160156 L 72.484375 105.300781 L 68.507812 102.390625 L 68.507812 84.171875 C 68.507812 82.847656 68.773438 82.109375 69.570312 81.3125 L 65.273438 77.976562 L 62.675781 80.78125 L 64.265625 82.160156 L 64.265625 100.375 C 64.265625 101.699219 64 102.441406 63.207031 103.238281 L 70.046875 108.054688 Z M 87.226562 117.589844 L 94.96875 112.664062 C 94.171875 111.871094 93.90625 110.8125 93.90625 109.488281 L 93.90625 85.65625 C 93.90625 84.332031 94.171875 83.59375 94.96875 82.800781 L 87.648438 77.558594 L 79.90625 82.480469 C 80.703125 83.277344 80.96875 84.335938 80.96875 85.65625 L 80.96875 99.957031 C 80.96875 101.28125 80.703125 102.023438 79.90625 102.816406 L 87.222656 108.058594 L 89.664062 106.523438 L 89.664062 114.730469 C 88.496094 113.777344 87.222656 113.355469 86.003906 113.355469 C 83.722656 113.355469 81.601562 114.730469 80.4375 116.902344 L 80.703125 117.167969 C 81.644531 116.785156 82.65625 116.585938 83.671875 116.582031 C 84.925781 116.582031 86.15625 116.933594 87.222656 117.589844 Z M 85.210938 101.96875 L 85.210938 80.308594 L 89.664062 83.644531 L 89.664062 105.304688 Z M 105.359375 77.554688 L 102.921875 79.089844 L 102.921875 73.585938 C 102.921875 72.261719 103.1875 71.519531 103.980469 70.722656 L 99.6875 67.386719 L 97.089844 70.195312 L 98.679688 71.570312 L 98.679688 101.4375 C 98.679688 102.761719 98.414062 103.503906 97.617188 104.296875 L 101.914062 107.632812 L 104.511719 104.828125 L 102.921875 103.449219 L 102.921875 80.308594 L 106.898438 83.222656 L 106.898438 101.4375 C 106.898438 102.761719 106.632812 103.503906 105.835938 104.296875 L 110.132812 107.632812 L 112.730469 104.828125 L 111.140625 103.449219 L 111.140625 85.234375 C 111.140625 83.910156 111.40625 83.167969 112.203125 82.375 Z M 122.222656 108.058594 L 125.617188 105.886719 L 127.898438 107.632812 L 130.496094 104.828125 L 128.90625 103.453125 L 128.90625 84.175781 C 128.90625 82.851562 129.171875 82.113281 129.96875 81.316406 L 125.671875 77.980469 L 123.074219 80.785156 L 124.664062 82.164062 L 124.664062 105.304688 L 120.6875 102.390625 L 120.6875 84.175781 C 120.6875 82.851562 120.953125 82.109375 121.75 81.3125 L 117.453125 77.976562 L 114.855469 80.785156 L 116.449219 82.160156 L 116.449219 100.378906 C 116.449219 101.703125 116.183594 102.445312 115.386719 103.238281 L 122.226562 108.058594 Z M 138.503906 107.632812 L 140.890625 104.882812 L 138.449219 103.082031 L 138.449219 80.308594 C 139.246094 81.316406 140.199219 81.792969 141.15625 81.792969 C 142.796875 81.792969 144.335938 80.417969 144.816406 78.246094 L 144.550781 77.980469 C 143.914062 78.40625 143.328125 78.566406 142.800781 78.566406 C 142.003906 78.566406 141.367188 78.195312 140.890625 77.558594 L 137.496094 79.730469 L 135.21875 77.980469 L 132.621094 80.789062 L 134.210938 82.164062 L 134.210938 101.441406 C 134.210938 102.765625 133.945312 103.503906 133.148438 104.296875 Z M 138.503906 107.632812 " fill-opacity="1" fill-rule="evenodd"/><path fill="#1c7d88" d="M 67.523438 65.042969 C 68.03125 64.824219 68.488281 64.503906 68.863281 64.097656 C 69.222656 63.703125 69.5 63.242188 69.675781 62.738281 C 69.859375 62.230469 69.953125 61.699219 69.953125 61.160156 C 69.960938 60.601562 69.84375 60.042969 69.617188 59.527344 C 69.402344 59.046875 69.089844 58.621094 68.699219 58.265625 C 68.3125 57.914062 67.859375 57.640625 67.371094 57.453125 C 66.867188 57.261719 66.332031 57.164062 65.796875 57.167969 C 65.101562 57.167969 64.484375 57.285156 63.957031 57.519531 C 63.449219 57.734375 62.992188 58.058594 62.617188 58.464844 C 62.257812 58.855469 61.980469 59.316406 61.800781 59.816406 C 61.621094 60.324219 61.527344 60.863281 61.527344 61.398438 C 61.519531 61.960938 61.636719 62.519531 61.863281 63.03125 C 62.078125 63.511719 62.386719 63.941406 62.773438 64.296875 C 63.160156 64.648438 63.613281 64.925781 64.105469 65.109375 C 64.609375 65.300781 65.144531 65.394531 65.683594 65.394531 C 66.316406 65.40625 66.941406 65.289062 67.523438 65.042969 Z M 64.71875 64.519531 C 64.378906 64.28125 64.101562 63.964844 63.90625 63.597656 C 63.679688 63.1875 63.519531 62.746094 63.425781 62.289062 C 63.316406 61.792969 63.265625 61.289062 63.265625 60.78125 C 63.257812 60.238281 63.34375 59.695312 63.523438 59.179688 C 63.667969 58.753906 63.9375 58.375 64.292969 58.101562 C 64.636719 57.84375 65.066406 57.710938 65.574219 57.710938 C 65.992188 57.699219 66.402344 57.820312 66.746094 58.050781 C 67.085938 58.292969 67.367188 58.605469 67.566406 58.96875 C 67.796875 59.375 67.957031 59.816406 68.054688 60.273438 C 68.160156 60.769531 68.214844 61.273438 68.210938 61.777344 C 68.222656 62.324219 68.132812 62.871094 67.949219 63.386719 C 67.804688 63.816406 67.53125 64.191406 67.171875 64.472656 C 66.828125 64.730469 66.402344 64.859375 65.890625 64.859375 C 65.476562 64.871094 65.066406 64.75 64.71875 64.519531 Z M 79.285156 65.417969 C 79.460938 65.390625 79.625 65.320312 79.765625 65.21875 C 79.886719 65.128906 79.957031 64.984375 79.949219 64.835938 C 79.960938 64.75 79.898438 64.667969 79.8125 64.652344 C 79.796875 64.652344 79.78125 64.652344 79.765625 64.652344 C 79.492188 64.652344 79.214844 64.632812 78.945312 64.589844 C 78.652344 64.527344 78.382812 64.382812 78.175781 64.167969 C 77.878906 63.898438 77.601562 63.613281 77.34375 63.308594 C 77.082031 63 76.839844 62.683594 76.613281 62.355469 C 76.382812 62.019531 76.144531 61.664062 75.902344 61.292969 C 75.878906 61.269531 75.863281 61.242188 75.859375 61.207031 C 75.851562 61.179688 75.871094 61.152344 75.898438 61.148438 C 75.898438 61.148438 75.898438 61.148438 75.902344 61.148438 C 76.152344 61.054688 76.394531 60.929688 76.613281 60.769531 C 76.847656 60.605469 77.042969 60.390625 77.191406 60.144531 C 77.351562 59.863281 77.433594 59.542969 77.421875 59.21875 C 77.421875 58.554688 77.175781 58.0625 76.679688 57.738281 C 76.1875 57.414062 75.472656 57.253906 74.542969 57.253906 C 74.277344 57.253906 74.054688 57.261719 73.886719 57.277344 C 73.71875 57.292969 73.5625 57.308594 73.425781 57.324219 C 73.269531 57.339844 73.109375 57.347656 72.953125 57.347656 C 72.765625 57.347656 72.605469 57.339844 72.472656 57.328125 C 72.335938 57.320312 72.199219 57.308594 72.050781 57.300781 C 71.90625 57.296875 71.710938 57.289062 71.46875 57.289062 C 71.394531 57.285156 71.324219 57.300781 71.257812 57.332031 C 71.207031 57.355469 71.175781 57.40625 71.175781 57.460938 C 71.179688 57.515625 71.207031 57.570312 71.25 57.605469 C 71.316406 57.660156 71.402344 57.695312 71.492188 57.703125 C 71.65625 57.71875 71.816406 57.769531 71.964844 57.847656 C 72.070312 57.914062 72.148438 58.015625 72.179688 58.132812 C 72.222656 58.3125 72.238281 58.492188 72.234375 58.671875 L 72.234375 64.035156 C 72.234375 64.304688 72.167969 64.496094 72.039062 64.609375 C 71.90625 64.71875 71.691406 64.8125 71.382812 64.875 C 71.179688 64.917969 71.078125 64.996094 71.078125 65.117188 C 71.082031 65.171875 71.113281 65.214844 71.164062 65.234375 C 71.226562 65.261719 71.292969 65.277344 71.359375 65.277344 C 71.554688 65.277344 71.75 65.269531 71.941406 65.253906 C 72.136719 65.238281 72.328125 65.226562 72.519531 65.214844 C 72.710938 65.207031 72.894531 65.203125 73.074219 65.203125 C 73.234375 65.203125 73.40625 65.207031 73.589844 65.214844 C 73.773438 65.222656 73.960938 65.234375 74.15625 65.246094 C 74.351562 65.257812 74.539062 65.261719 74.726562 65.261719 C 74.796875 65.265625 74.863281 65.253906 74.925781 65.226562 C 74.972656 65.203125 74.996094 65.152344 74.992188 65.105469 C 74.996094 65.042969 74.96875 64.988281 74.921875 64.953125 C 74.851562 64.910156 74.773438 64.882812 74.691406 64.875 C 74.367188 64.800781 74.136719 64.695312 74.003906 64.558594 C 73.871094 64.417969 73.804688 64.226562 73.804688 63.976562 L 73.804688 61.71875 C 73.800781 61.65625 73.8125 61.59375 73.839844 61.535156 C 73.855469 61.492188 73.902344 61.464844 73.949219 61.476562 C 74.039062 61.476562 74.132812 61.488281 74.222656 61.511719 C 74.335938 61.539062 74.445312 61.578125 74.546875 61.632812 C 74.714844 61.730469 74.855469 61.875 74.945312 62.046875 C 75.15625 62.433594 75.347656 62.769531 75.523438 63.046875 C 75.699219 63.324219 75.871094 63.582031 76.039062 63.808594 C 76.207031 64.039062 76.382812 64.277344 76.5625 64.519531 C 76.710938 64.710938 76.882812 64.882812 77.074219 65.03125 C 77.273438 65.183594 77.5 65.296875 77.742188 65.363281 C 78.25 65.496094 78.777344 65.515625 79.292969 65.417969 Z M 73.941406 61.03125 C 73.847656 60.972656 73.800781 60.851562 73.800781 60.675781 L 73.800781 59.589844 C 73.800781 59.285156 73.804688 59.039062 73.8125 58.855469 C 73.820312 58.402344 73.863281 58.101562 73.941406 57.953125 C 74.019531 57.804688 74.164062 57.726562 74.375 57.726562 C 74.746094 57.726562 75.039062 57.796875 75.253906 57.941406 C 75.46875 58.082031 75.628906 58.292969 75.710938 58.535156 C 75.804688 58.832031 75.847656 59.148438 75.84375 59.460938 C 75.847656 59.75 75.785156 60.035156 75.667969 60.300781 C 75.433594 60.824219 74.898438 61.152344 74.324219 61.125 C 74.1875 61.132812 74.054688 61.097656 73.941406 61.03125 Z M 81.441406 65.257812 C 81.636719 65.246094 81.828125 65.234375 82.015625 65.226562 C 82.203125 65.21875 82.382812 65.214844 82.5625 65.214844 C 82.730469 65.214844 82.90625 65.21875 83.089844 65.226562 C 83.273438 65.234375 83.460938 65.242188 83.65625 65.25 C 83.851562 65.261719 84.042969 65.261719 84.238281 65.261719 C 84.304688 65.265625 84.375 65.253906 84.433594 65.226562 C 84.480469 65.203125 84.507812 65.15625 84.503906 65.105469 C 84.507812 65.042969 84.476562 64.988281 84.425781 64.960938 C 84.351562 64.921875 84.273438 64.890625 84.1875 64.875 C 83.882812 64.792969 83.660156 64.695312 83.527344 64.582031 C 83.390625 64.46875 83.324219 64.289062 83.324219 64.035156 L 83.324219 58.554688 C 83.324219 58.296875 83.382812 58.109375 83.496094 57.996094 C 83.605469 57.882812 83.828125 57.785156 84.148438 57.703125 C 84.230469 57.6875 84.304688 57.660156 84.375 57.617188 C 84.425781 57.582031 84.457031 57.523438 84.453125 57.464844 C 84.457031 57.410156 84.429688 57.359375 84.382812 57.335938 C 84.324219 57.304688 84.257812 57.289062 84.1875 57.292969 C 83.992188 57.292969 83.804688 57.296875 83.617188 57.304688 C 83.429688 57.3125 83.25 57.320312 83.078125 57.328125 C 82.902344 57.335938 82.730469 57.339844 82.5625 57.339844 C 82.382812 57.339844 82.207031 57.335938 82.03125 57.328125 C 81.859375 57.320312 81.679688 57.3125 81.492188 57.304688 C 81.304688 57.296875 81.113281 57.292969 80.921875 57.292969 C 80.851562 57.292969 80.785156 57.308594 80.726562 57.335938 C 80.675781 57.351562 80.640625 57.398438 80.640625 57.449219 C 80.640625 57.582031 80.742188 57.664062 80.941406 57.703125 C 81.261719 57.769531 81.472656 57.859375 81.585938 57.972656 C 81.699219 58.085938 81.757812 58.277344 81.757812 58.542969 L 81.757812 64.050781 C 81.757812 64.3125 81.6875 64.496094 81.550781 64.609375 C 81.410156 64.722656 81.191406 64.8125 80.882812 64.878906 C 80.679688 64.917969 80.578125 65 80.578125 65.121094 C 80.578125 65.171875 80.613281 65.21875 80.664062 65.234375 C 80.722656 65.265625 80.792969 65.28125 80.859375 65.277344 C 81.050781 65.277344 81.246094 65.273438 81.441406 65.261719 Z M 90.9375 65.285156 C 91.234375 65.222656 91.523438 65.136719 91.800781 65.023438 C 92.050781 64.925781 92.253906 64.832031 92.417969 64.75 C 92.519531 64.691406 92.632812 64.648438 92.746094 64.617188 C 92.816406 64.613281 92.882812 64.574219 92.921875 64.515625 C 92.949219 64.46875 92.964844 64.414062 92.964844 64.363281 C 92.964844 64.320312 92.949219 64.277344 92.921875 64.242188 C 92.894531 64.203125 92.863281 64.160156 92.832031 64.121094 C 92.796875 64.078125 92.765625 64.042969 92.738281 64.011719 C 92.710938 63.984375 92.695312 63.941406 92.695312 63.902344 L 92.695312 63.527344 C 92.695312 63.371094 92.703125 63.226562 92.714844 63.089844 C 92.726562 62.953125 92.75 62.792969 92.78125 62.617188 C 92.796875 62.476562 92.847656 62.347656 92.933594 62.238281 C 93.011719 62.148438 93.160156 62.078125 93.378906 62.019531 C 93.4375 62.007812 93.488281 61.984375 93.535156 61.949219 C 93.585938 61.914062 93.621094 61.855469 93.621094 61.792969 C 93.625 61.730469 93.59375 61.671875 93.539062 61.640625 C 93.496094 61.613281 93.441406 61.601562 93.390625 61.597656 C 93.152344 61.597656 92.925781 61.605469 92.703125 61.621094 C 92.480469 61.636719 92.253906 61.648438 92.027344 61.648438 C 91.839844 61.648438 91.648438 61.644531 91.449219 61.636719 C 91.253906 61.628906 91.054688 61.621094 90.855469 61.613281 C 90.65625 61.605469 90.464844 61.601562 90.277344 61.601562 C 90.21875 61.601562 90.164062 61.621094 90.113281 61.648438 C 90.058594 61.671875 90.023438 61.730469 90.023438 61.792969 C 90.023438 61.863281 90.0625 61.925781 90.121094 61.960938 C 90.175781 61.996094 90.238281 62.023438 90.304688 62.039062 C 90.378906 62.046875 90.472656 62.0625 90.589844 62.082031 C 90.707031 62.101562 90.824219 62.132812 90.933594 62.179688 C 91.035156 62.214844 91.128906 62.265625 91.214844 62.328125 C 91.289062 62.363281 91.347656 62.421875 91.378906 62.496094 C 91.40625 62.570312 91.421875 62.652344 91.421875 62.730469 C 91.421875 62.804688 91.417969 62.898438 91.414062 63.011719 C 91.410156 63.125 91.40625 63.238281 91.402344 63.351562 C 91.398438 63.464844 91.398438 63.558594 91.398438 63.632812 C 91.394531 63.804688 91.359375 63.976562 91.300781 64.140625 C 91.257812 64.265625 91.183594 64.378906 91.082031 64.46875 C 90.972656 64.554688 90.851562 64.632812 90.726562 64.691406 C 90.507812 64.789062 90.273438 64.832031 90.039062 64.820312 C 89.660156 64.828125 89.28125 64.738281 88.945312 64.566406 C 88.613281 64.386719 88.328125 64.136719 88.109375 63.832031 C 87.859375 63.480469 87.675781 63.089844 87.5625 62.675781 C 87.425781 62.1875 87.363281 61.675781 87.367188 61.167969 C 87.367188 60.730469 87.433594 60.300781 87.5625 59.886719 C 87.683594 59.492188 87.875 59.121094 88.121094 58.789062 C 88.355469 58.46875 88.664062 58.210938 89.019531 58.027344 C 89.390625 57.84375 89.804688 57.75 90.222656 57.753906 C 90.492188 57.75 90.761719 57.78125 91.023438 57.851562 C 91.214844 57.90625 91.398438 57.984375 91.566406 58.089844 C 91.6875 58.164062 91.796875 58.253906 91.898438 58.347656 C 92.015625 58.472656 92.117188 58.609375 92.203125 58.753906 C 92.28125 58.894531 92.355469 59.039062 92.421875 59.1875 C 92.453125 59.257812 92.488281 59.324219 92.53125 59.386719 C 92.574219 59.449219 92.648438 59.484375 92.722656 59.476562 C 92.78125 59.476562 92.832031 59.449219 92.863281 59.40625 C 92.902344 59.355469 92.921875 59.296875 92.917969 59.238281 C 92.917969 59.058594 92.90625 58.847656 92.882812 58.605469 C 92.855469 58.363281 92.824219 58.109375 92.785156 57.839844 C 92.78125 57.785156 92.757812 57.730469 92.722656 57.6875 C 92.6875 57.648438 92.640625 57.617188 92.589844 57.597656 C 92.433594 57.535156 92.273438 57.488281 92.109375 57.453125 C 91.902344 57.402344 91.679688 57.359375 91.433594 57.320312 C 91.191406 57.277344 90.957031 57.242188 90.730469 57.214844 C 89.914062 57.105469 89.082031 57.210938 88.316406 57.519531 C 87.785156 57.734375 87.296875 58.050781 86.878906 58.453125 C 86.480469 58.835938 86.160156 59.296875 85.9375 59.804688 C 85.714844 60.320312 85.601562 60.871094 85.605469 61.429688 C 85.589844 62.519531 86.046875 63.5625 86.863281 64.289062 C 87.257812 64.644531 87.71875 64.921875 88.21875 65.109375 C 88.738281 65.304688 89.289062 65.402344 89.84375 65.398438 C 90.214844 65.402344 90.582031 65.367188 90.945312 65.292969 Z M 95.515625 65.257812 C 95.707031 65.246094 95.898438 65.234375 96.085938 65.226562 C 96.273438 65.21875 96.457031 65.214844 96.632812 65.214844 C 96.804688 65.214844 96.980469 65.21875 97.160156 65.226562 C 97.34375 65.234375 97.53125 65.242188 97.726562 65.25 C 97.921875 65.261719 98.117188 65.261719 98.3125 65.261719 C 98.375 65.265625 98.445312 65.253906 98.503906 65.226562 C 98.550781 65.203125 98.582031 65.15625 98.578125 65.105469 C 98.578125 65.042969 98.550781 64.988281 98.496094 64.960938 C 98.421875 64.917969 98.34375 64.890625 98.261719 64.875 C 97.953125 64.792969 97.730469 64.695312 97.597656 64.582031 C 97.460938 64.46875 97.398438 64.289062 97.398438 64.035156 L 97.398438 58.554688 C 97.398438 58.296875 97.453125 58.109375 97.566406 57.996094 C 97.679688 57.882812 97.898438 57.785156 98.222656 57.703125 C 98.300781 57.6875 98.375 57.660156 98.445312 57.617188 C 98.496094 57.582031 98.527344 57.523438 98.527344 57.464844 C 98.527344 57.410156 98.5 57.359375 98.453125 57.335938 C 98.394531 57.304688 98.328125 57.289062 98.261719 57.292969 C 98.066406 57.292969 97.875 57.296875 97.6875 57.304688 C 97.5 57.3125 97.324219 57.320312 97.148438 57.328125 C 96.972656 57.335938 96.800781 57.339844 96.628906 57.339844 C 96.460938 57.339844 96.277344 57.335938 96.101562 57.328125 C 95.929688 57.320312 95.746094 57.3125 95.5625 57.304688 C 95.375 57.296875 95.183594 57.292969 94.988281 57.292969 C 94.921875 57.292969 94.855469 57.308594 94.796875 57.335938 C 94.746094 57.351562 94.714844 57.398438 94.710938 57.449219 C 94.710938 57.582031 94.8125 57.664062 95.011719 57.703125 C 95.328125 57.769531 95.542969 57.859375 95.65625 57.972656 C 95.769531 58.085938 95.828125 58.277344 95.828125 58.542969 L 95.828125 64.050781 C 95.828125 64.3125 95.757812 64.496094 95.621094 64.609375 C 95.480469 64.722656 95.261719 64.8125 94.949219 64.878906 C 94.75 64.917969 94.648438 65 94.648438 65.121094 C 94.648438 65.171875 94.683594 65.21875 94.734375 65.234375 C 94.792969 65.265625 94.859375 65.28125 94.925781 65.277344 C 95.121094 65.277344 95.316406 65.273438 95.511719 65.261719 Z M 107.699219 65.34375 C 107.757812 65.28125 107.785156 65.160156 107.785156 64.980469 C 107.78125 64.867188 107.773438 64.757812 107.757812 64.648438 C 107.734375 64.488281 107.71875 64.308594 107.703125 64.105469 C 107.6875 63.90625 107.675781 63.707031 107.675781 63.511719 C 107.675781 63.214844 107.679688 62.878906 107.683594 62.503906 C 107.6875 62.132812 107.695312 61.753906 107.707031 61.363281 C 107.71875 60.976562 107.730469 60.597656 107.738281 60.226562 C 107.746094 59.855469 107.75 59.507812 107.757812 59.195312 C 107.761719 58.878906 107.761719 58.621094 107.761719 58.417969 C 107.769531 58.191406 107.835938 58.027344 107.949219 57.933594 C 108.066406 57.835938 108.269531 57.757812 108.554688 57.699219 C 108.785156 57.652344 108.90625 57.566406 108.90625 57.445312 C 108.902344 57.390625 108.863281 57.347656 108.8125 57.332031 C 108.738281 57.300781 108.660156 57.289062 108.578125 57.289062 C 108.359375 57.289062 108.183594 57.292969 108.046875 57.300781 C 107.914062 57.308594 107.792969 57.316406 107.675781 57.320312 C 107.5625 57.324219 107.417969 57.324219 107.238281 57.324219 C 107.132812 57.324219 107.03125 57.324219 106.9375 57.320312 C 106.839844 57.3125 106.734375 57.3125 106.625 57.3125 L 106.21875 57.3125 C 106.140625 57.3125 106.0625 57.328125 105.984375 57.347656 C 105.898438 57.375 105.855469 57.414062 105.855469 57.472656 C 105.855469 57.546875 105.910156 57.613281 105.984375 57.636719 C 106.074219 57.671875 106.164062 57.703125 106.257812 57.726562 C 106.46875 57.765625 106.667969 57.851562 106.847656 57.976562 C 107.003906 58.085938 107.09375 58.265625 107.09375 58.453125 C 107.101562 58.84375 107.109375 59.25 107.113281 59.667969 C 107.117188 60.085938 107.117188 60.5 107.113281 60.898438 C 107.109375 61.300781 107.105469 61.664062 107.105469 61.988281 L 107.105469 62.796875 C 107.097656 62.933594 107.0625 63.003906 107 63.003906 C 106.953125 62.996094 106.910156 62.96875 106.882812 62.929688 C 106.839844 62.882812 106.800781 62.839844 106.765625 62.808594 C 106.636719 62.664062 106.472656 62.476562 106.273438 62.246094 C 106.078125 62.011719 105.855469 61.757812 105.613281 61.480469 C 105.367188 61.203125 105.117188 60.910156 104.851562 60.601562 C 104.589844 60.292969 104.328125 59.984375 104.0625 59.675781 C 103.800781 59.371094 103.546875 59.078125 103.3125 58.796875 C 103.074219 58.519531 102.851562 58.265625 102.648438 58.035156 C 102.445312 57.804688 102.28125 57.613281 102.152344 57.457031 C 102.125 57.414062 102.089844 57.375 102.046875 57.34375 C 102 57.3125 101.941406 57.296875 101.882812 57.300781 C 101.667969 57.300781 101.460938 57.296875 101.269531 57.289062 C 101.078125 57.28125 100.898438 57.277344 100.722656 57.269531 C 100.550781 57.265625 100.378906 57.261719 100.207031 57.253906 C 100.039062 57.246094 99.867188 57.242188 99.699219 57.242188 C 99.628906 57.242188 99.558594 57.253906 99.492188 57.277344 C 99.429688 57.296875 99.390625 57.355469 99.394531 57.421875 C 99.402344 57.503906 99.453125 57.574219 99.53125 57.605469 C 99.601562 57.648438 99.671875 57.675781 99.746094 57.703125 C 100.042969 57.800781 100.316406 57.953125 100.554688 58.152344 C 100.769531 58.335938 100.878906 58.640625 100.878906 59.0625 C 100.878906 59.722656 100.863281 60.367188 100.835938 60.992188 C 100.804688 61.617188 100.777344 62.175781 100.742188 62.671875 C 100.710938 63.167969 100.679688 63.574219 100.644531 63.878906 C 100.628906 64.097656 100.5625 64.3125 100.457031 64.503906 C 100.355469 64.679688 100.183594 64.808594 99.988281 64.863281 C 99.902344 64.886719 99.816406 64.921875 99.738281 64.964844 C 99.683594 64.992188 99.648438 65.050781 99.648438 65.117188 C 99.652344 65.171875 99.691406 65.21875 99.746094 65.230469 C 99.816406 65.261719 99.890625 65.277344 99.964844 65.273438 C 100.0625 65.273438 100.164062 65.269531 100.265625 65.257812 C 100.371094 65.246094 100.492188 65.234375 100.625 65.226562 C 100.757812 65.21875 100.910156 65.214844 101.078125 65.214844 C 101.25 65.214844 101.375 65.21875 101.480469 65.226562 C 101.585938 65.234375 101.703125 65.242188 101.832031 65.25 C 101.960938 65.261719 102.136719 65.261719 102.355469 65.261719 C 102.429688 65.261719 102.503906 65.25 102.574219 65.226562 C 102.628906 65.210938 102.667969 65.160156 102.667969 65.105469 C 102.667969 65.039062 102.628906 64.980469 102.566406 64.953125 C 102.488281 64.914062 102.402344 64.886719 102.316406 64.875 C 102 64.800781 101.773438 64.683594 101.625 64.523438 C 101.476562 64.351562 101.398438 64.128906 101.40625 63.902344 L 101.40625 62.445312 C 101.40625 61.921875 101.40625 61.402344 101.402344 60.894531 C 101.398438 60.382812 101.394531 59.945312 101.394531 59.570312 C 101.394531 59.515625 101.40625 59.464844 101.421875 59.414062 C 101.421875 59.371094 101.453125 59.335938 101.492188 59.328125 C 101.527344 59.332031 101.558594 59.347656 101.585938 59.371094 C 101.625 59.402344 101.660156 59.4375 101.6875 59.472656 C 101.824219 59.636719 101.996094 59.828125 102.199219 60.050781 C 102.398438 60.273438 102.625 60.515625 102.867188 60.785156 C 103.109375 61.050781 103.359375 61.328125 103.613281 61.621094 C 103.867188 61.914062 104.125 62.203125 104.386719 62.496094 C 104.644531 62.785156 104.894531 63.066406 105.132812 63.332031 C 105.371094 63.597656 105.589844 63.84375 105.785156 64.066406 C 105.984375 64.289062 106.152344 64.476562 106.292969 64.632812 C 106.476562 64.886719 106.714844 65.101562 106.984375 65.261719 C 107.210938 65.382812 107.375 65.445312 107.46875 65.445312 C 107.558594 65.449219 107.644531 65.414062 107.703125 65.347656 Z M 110.402344 65.25 C 110.636719 65.222656 110.875 65.210938 111.113281 65.210938 C 111.355469 65.210938 111.582031 65.21875 111.785156 65.230469 C 111.984375 65.242188 112.179688 65.25 112.367188 65.25 C 112.445312 65.253906 112.519531 65.238281 112.59375 65.207031 C 112.640625 65.1875 112.667969 65.140625 112.671875 65.089844 C 112.671875 64.976562 112.5625 64.890625 112.34375 64.835938 C 112.050781 64.761719 111.847656 64.664062 111.730469 64.539062 C 111.613281 64.410156 111.574219 64.242188 111.613281 64.023438 C 111.636719 63.917969 111.660156 63.8125 111.695312 63.707031 C 111.730469 63.585938 111.773438 63.453125 111.8125 63.3125 C 111.855469 63.171875 111.902344 63.03125 111.949219 62.898438 C 111.992188 62.765625 112.03125 62.648438 112.066406 62.542969 C 112.074219 62.480469 112.101562 62.425781 112.136719 62.378906 C 112.171875 62.339844 112.222656 62.320312 112.269531 62.324219 L 114.457031 62.324219 C 114.523438 62.320312 114.585938 62.332031 114.640625 62.367188 C 114.679688 62.40625 114.703125 62.453125 114.714844 62.507812 C 114.773438 62.675781 114.828125 62.863281 114.878906 63.070312 C 114.929688 63.277344 114.980469 63.476562 115.03125 63.664062 C 115.078125 63.855469 115.117188 64.019531 115.140625 64.15625 C 115.171875 64.351562 115.125 64.5 114.992188 64.601562 C 114.863281 64.699219 114.652344 64.777344 114.363281 64.824219 C 114.28125 64.839844 114.199219 64.871094 114.128906 64.917969 C 114.070312 64.953125 114.035156 65.011719 114.03125 65.082031 C 114.03125 65.140625 114.070312 65.191406 114.125 65.210938 C 114.191406 65.238281 114.265625 65.253906 114.335938 65.253906 C 114.472656 65.253906 114.640625 65.25 114.839844 65.242188 C 115.042969 65.234375 115.238281 65.226562 115.4375 65.21875 C 115.636719 65.210938 115.816406 65.207031 115.976562 65.207031 C 116.164062 65.207031 116.375 65.210938 116.609375 65.222656 C 116.84375 65.234375 117.070312 65.246094 117.296875 65.253906 C 117.515625 65.261719 117.703125 65.265625 117.847656 65.265625 C 117.914062 65.269531 117.984375 65.257812 118.046875 65.230469 C 118.09375 65.214844 118.125 65.167969 118.128906 65.121094 C 118.128906 65.050781 118.097656 64.988281 118.042969 64.953125 C 117.96875 64.902344 117.882812 64.871094 117.800781 64.855469 C 117.644531 64.816406 117.496094 64.761719 117.355469 64.691406 C 117.214844 64.617188 117.089844 64.515625 116.992188 64.394531 C 116.867188 64.238281 116.773438 64.0625 116.714844 63.871094 C 116.570312 63.433594 116.410156 62.957031 116.234375 62.433594 C 116.0625 61.914062 115.878906 61.367188 115.695312 60.796875 C 115.507812 60.226562 115.320312 59.648438 115.128906 59.0625 C 114.9375 58.476562 114.757812 57.894531 114.578125 57.320312 C 114.558594 57.265625 114.542969 57.210938 114.527344 57.164062 C 114.511719 57.113281 114.492188 57.0625 114.46875 57.015625 C 114.457031 56.988281 114.429688 56.964844 114.398438 56.964844 C 114.371094 56.96875 114.347656 56.980469 114.324219 56.996094 C 114.28125 57.042969 114.222656 57.109375 114.140625 57.199219 C 114.058594 57.292969 113.960938 57.363281 113.851562 57.417969 C 113.71875 57.464844 113.601562 57.507812 113.5 57.539062 C 113.394531 57.570312 113.28125 57.601562 113.15625 57.636719 C 113.121094 57.734375 113.09375 57.835938 113.074219 57.9375 C 113.023438 58.136719 112.960938 58.328125 112.890625 58.519531 C 112.710938 59.019531 112.535156 59.5 112.359375 59.953125 C 112.1875 60.40625 112.015625 60.851562 111.84375 61.289062 C 111.675781 61.722656 111.496094 62.164062 111.3125 62.605469 C 111.125 63.042969 110.929688 63.503906 110.726562 63.980469 C 110.636719 64.195312 110.492188 64.386719 110.308594 64.53125 C 110.125 64.667969 109.917969 64.769531 109.695312 64.828125 C 109.613281 64.855469 109.53125 64.890625 109.457031 64.9375 C 109.398438 64.976562 109.363281 65.039062 109.367188 65.105469 C 109.367188 65.167969 109.40625 65.226562 109.464844 65.246094 C 109.542969 65.277344 109.621094 65.292969 109.707031 65.289062 C 109.941406 65.289062 110.171875 65.277344 110.40625 65.253906 Z M 112.433594 61.742188 C 112.394531 61.734375 112.367188 61.699219 112.367188 61.65625 C 112.367188 61.625 112.375 61.59375 112.390625 61.5625 L 113.410156 58.746094 C 113.453125 58.640625 113.480469 58.589844 113.496094 58.589844 C 113.523438 58.589844 113.546875 58.644531 113.582031 58.757812 L 114.433594 61.5625 C 114.441406 61.59375 114.445312 61.617188 114.453125 61.632812 C 114.457031 61.652344 114.457031 61.671875 114.457031 61.691406 C 114.457031 61.742188 114.402344 61.765625 114.289062 61.765625 L 112.601562 61.765625 C 112.546875 61.765625 112.492188 61.757812 112.4375 61.742188 Z M 119.4375 65.265625 C 119.636719 65.253906 119.855469 65.242188 120.085938 65.238281 C 120.316406 65.230469 120.519531 65.226562 120.699219 65.226562 C 121.039062 65.226562 121.402344 65.230469 121.789062 65.238281 C 122.175781 65.246094 122.558594 65.25 122.9375 65.257812 C 123.320312 65.261719 123.679688 65.265625 124.019531 65.273438 C 124.359375 65.28125 124.652344 65.285156 124.894531 65.285156 C 124.953125 65.292969 125.007812 65.265625 125.039062 65.21875 C 125.066406 65.171875 125.082031 65.117188 125.089844 65.066406 C 125.113281 64.878906 125.140625 64.707031 125.167969 64.550781 C 125.199219 64.394531 125.234375 64.230469 125.277344 64.058594 C 125.320312 63.890625 125.375 63.6875 125.441406 63.453125 C 125.441406 63.421875 125.445312 63.386719 125.453125 63.355469 C 125.457031 63.332031 125.460938 63.308594 125.464844 63.285156 C 125.464844 63.226562 125.453125 63.171875 125.425781 63.121094 C 125.40625 63.070312 125.359375 63.039062 125.304688 63.039062 C 125.246094 63.046875 125.191406 63.082031 125.160156 63.136719 C 125.097656 63.226562 125.046875 63.320312 125.003906 63.414062 C 124.921875 63.59375 124.832031 63.761719 124.722656 63.925781 C 124.621094 64.078125 124.496094 64.21875 124.359375 64.335938 C 124.25 64.441406 124.121094 64.523438 123.980469 64.582031 C 123.820312 64.648438 123.644531 64.679688 123.472656 64.675781 L 122.148438 64.675781 C 121.855469 64.675781 121.65625 64.625 121.550781 64.511719 C 121.445312 64.402344 121.394531 64.230469 121.394531 63.996094 L 121.394531 58.453125 C 121.394531 58.21875 121.46875 58.054688 121.621094 57.960938 C 121.839844 57.839844 122.074219 57.753906 122.316406 57.699219 C 122.398438 57.679688 122.472656 57.652344 122.542969 57.609375 C 122.59375 57.578125 122.625 57.519531 122.625 57.457031 C 122.625 57.40625 122.597656 57.355469 122.550781 57.328125 C 122.488281 57.300781 122.421875 57.285156 122.355469 57.289062 C 122.167969 57.289062 121.976562 57.292969 121.777344 57.300781 C 121.578125 57.308594 121.382812 57.316406 121.195312 57.324219 C 121.003906 57.328125 120.816406 57.332031 120.628906 57.332031 C 120.460938 57.332031 120.289062 57.328125 120.117188 57.324219 C 119.949219 57.316406 119.773438 57.308594 119.589844 57.300781 C 119.40625 57.292969 119.214844 57.289062 119.011719 57.289062 C 118.945312 57.289062 118.878906 57.300781 118.816406 57.328125 C 118.769531 57.347656 118.738281 57.390625 118.734375 57.445312 C 118.734375 57.574219 118.835938 57.660156 119.050781 57.699219 C 119.214844 57.726562 119.375 57.773438 119.53125 57.839844 C 119.628906 57.882812 119.710938 57.964844 119.761719 58.0625 C 119.8125 58.199219 119.835938 58.34375 119.828125 58.488281 L 119.828125 64.070312 C 119.828125 64.320312 119.757812 64.5 119.621094 64.609375 C 119.484375 64.71875 119.269531 64.808594 118.976562 64.882812 C 118.917969 64.902344 118.859375 64.929688 118.808594 64.964844 C 118.753906 64.992188 118.722656 65.050781 118.722656 65.113281 C 118.726562 65.164062 118.753906 65.207031 118.796875 65.230469 C 118.855469 65.269531 118.929688 65.289062 119.003906 65.285156 C 119.09375 65.285156 119.238281 65.277344 119.441406 65.265625 Z M 119.4375 65.265625 " fill-opacity="1" fill-rule="evenodd"/><path fill="#1c7d88" d="M 65.628906 73.347656 C 65.664062 73.324219 65.6875 73.292969 65.699219 73.253906 C 65.71875 73.179688 65.742188 73.09375 65.769531 73.003906 C 65.792969 72.917969 65.816406 72.824219 65.839844 72.730469 C 65.863281 72.640625 65.882812 72.554688 65.898438 72.476562 C 65.914062 72.410156 65.921875 72.34375 65.921875 72.277344 C 65.929688 72.230469 65.902344 72.191406 65.855469 72.183594 C 65.847656 72.183594 65.839844 72.183594 65.832031 72.183594 C 65.804688 72.183594 65.777344 72.1875 65.753906 72.203125 C 65.730469 72.21875 65.714844 72.242188 65.699219 72.269531 C 65.558594 72.621094 65.375 72.839844 65.148438 72.925781 C 65.023438 72.972656 64.890625 73 64.761719 73.015625 C 64.59375 73.03125 64.429688 73.039062 64.261719 73.039062 C 64.195312 73.039062 64.109375 73.039062 64 73.03125 C 63.894531 73.027344 63.8125 73.023438 63.753906 73.019531 C 63.714844 73.019531 63.675781 73.007812 63.640625 72.992188 C 63.617188 72.980469 63.605469 72.957031 63.605469 72.933594 C 63.613281 72.867188 63.636719 72.808594 63.675781 72.757812 C 63.820312 72.53125 63.964844 72.296875 64.109375 72.054688 C 64.257812 71.8125 64.40625 71.566406 64.554688 71.3125 C 64.703125 71.0625 64.851562 70.8125 65.003906 70.566406 C 65.15625 70.3125 65.304688 70.070312 65.460938 69.832031 L 65.917969 69.101562 C 65.929688 69.070312 65.921875 69.03125 65.898438 69.007812 C 65.882812 68.972656 65.851562 68.949219 65.8125 68.941406 C 65.730469 68.941406 65.621094 68.945312 65.480469 68.949219 C 65.339844 68.953125 65.195312 68.957031 65.039062 68.960938 C 64.882812 68.960938 64.738281 68.964844 64.601562 68.96875 C 64.46875 68.972656 64.359375 68.976562 64.277344 68.976562 L 63.480469 68.976562 C 63.359375 68.976562 63.25 68.972656 63.160156 68.96875 C 63.070312 68.960938 62.984375 68.941406 62.898438 68.910156 C 62.828125 68.882812 62.765625 68.847656 62.707031 68.800781 C 62.664062 68.761719 62.613281 68.734375 62.554688 68.726562 C 62.515625 68.722656 62.476562 68.738281 62.449219 68.765625 C 62.425781 68.808594 62.410156 68.859375 62.40625 68.910156 C 62.394531 69.03125 62.386719 69.136719 62.371094 69.230469 C 62.359375 69.316406 62.339844 69.40625 62.316406 69.496094 C 62.289062 69.597656 62.253906 69.691406 62.210938 69.785156 C 62.195312 69.816406 62.183594 69.847656 62.175781 69.878906 C 62.167969 69.90625 62.164062 69.9375 62.164062 69.96875 C 62.164062 69.996094 62.167969 70.023438 62.183594 70.050781 C 62.199219 70.074219 62.226562 70.085938 62.253906 70.082031 C 62.320312 70.082031 62.382812 70.054688 62.425781 70.003906 C 62.464844 69.960938 62.503906 69.910156 62.535156 69.855469 C 62.625 69.6875 62.753906 69.542969 62.910156 69.433594 C 63.054688 69.332031 63.226562 69.28125 63.40625 69.28125 L 64.410156 69.28125 C 64.4375 69.277344 64.46875 69.285156 64.496094 69.300781 C 64.507812 69.3125 64.515625 69.328125 64.515625 69.347656 C 64.515625 69.367188 64.511719 69.382812 64.503906 69.402344 C 64.5 69.421875 64.488281 69.441406 64.480469 69.460938 C 64.320312 69.722656 64.15625 69.980469 63.996094 70.238281 C 63.835938 70.496094 63.671875 70.75 63.511719 71.003906 C 63.347656 71.261719 63.183594 71.515625 63.023438 71.777344 C 62.863281 72.035156 62.699219 72.296875 62.539062 72.554688 C 62.496094 72.625 62.453125 72.695312 62.40625 72.769531 C 62.355469 72.847656 62.3125 72.921875 62.265625 72.992188 C 62.222656 73.066406 62.183594 73.132812 62.144531 73.199219 C 62.136719 73.234375 62.140625 73.273438 62.15625 73.308594 C 62.160156 73.351562 62.195312 73.390625 62.238281 73.394531 L 62.757812 73.378906 C 62.921875 73.375 63.085938 73.371094 63.25 73.371094 C 63.414062 73.367188 63.578125 73.363281 63.738281 73.359375 C 63.921875 73.359375 64.105469 73.359375 64.296875 73.367188 C 64.488281 73.371094 64.667969 73.375 64.832031 73.375 C 64.996094 73.378906 65.140625 73.378906 65.261719 73.382812 C 65.382812 73.386719 65.46875 73.386719 65.519531 73.386719 C 65.558594 73.386719 65.601562 73.375 65.632812 73.351562 Z M 66.832031 73.367188 C 66.960938 73.355469 67.089844 73.347656 67.21875 73.347656 C 67.355469 73.347656 67.476562 73.351562 67.589844 73.359375 C 67.703125 73.363281 67.824219 73.367188 67.953125 73.367188 C 67.996094 73.371094 68.035156 73.363281 68.074219 73.34375 C 68.097656 73.328125 68.113281 73.304688 68.109375 73.277344 C 68.109375 73.203125 68.054688 73.15625 67.949219 73.132812 C 67.753906 73.089844 67.628906 73.03125 67.570312 72.957031 C 67.511719 72.886719 67.496094 72.78125 67.527344 72.644531 C 67.546875 72.589844 67.566406 72.527344 67.582031 72.464844 C 67.601562 72.402344 67.621094 72.335938 67.640625 72.277344 C 67.664062 72.214844 67.683594 72.148438 67.707031 72.085938 C 67.730469 72.023438 67.75 71.960938 67.765625 71.898438 C 67.773438 71.867188 67.785156 71.835938 67.808594 71.8125 C 67.828125 71.792969 67.855469 71.78125 67.882812 71.785156 L 69.078125 71.785156 C 69.105469 71.78125 69.136719 71.789062 69.160156 71.8125 C 69.175781 71.835938 69.1875 71.863281 69.191406 71.894531 C 69.21875 71.980469 69.242188 72.078125 69.269531 72.171875 C 69.292969 72.269531 69.320312 72.363281 69.347656 72.460938 C 69.375 72.554688 69.398438 72.644531 69.414062 72.730469 C 69.449219 72.824219 69.417969 72.929688 69.339844 72.992188 C 69.230469 73.066406 69.105469 73.113281 68.976562 73.136719 C 68.933594 73.144531 68.894531 73.160156 68.859375 73.183594 C 68.828125 73.203125 68.8125 73.238281 68.8125 73.277344 C 68.8125 73.308594 68.828125 73.335938 68.859375 73.347656 C 68.890625 73.363281 68.925781 73.371094 68.964844 73.371094 C 69.054688 73.371094 69.164062 73.367188 69.289062 73.363281 C 69.414062 73.359375 69.539062 73.355469 69.664062 73.347656 C 69.789062 73.34375 69.894531 73.339844 69.980469 73.339844 C 70.082031 73.339844 70.203125 73.34375 70.335938 73.347656 C 70.472656 73.351562 70.605469 73.359375 70.738281 73.367188 C 70.875 73.375 70.984375 73.375 71.074219 73.375 C 71.105469 73.375 71.140625 73.367188 71.167969 73.347656 C 71.195312 73.332031 71.210938 73.304688 71.210938 73.277344 C 71.210938 73.238281 71.195312 73.207031 71.164062 73.183594 C 71.128906 73.160156 71.089844 73.144531 71.046875 73.132812 C 70.960938 73.109375 70.882812 73.078125 70.804688 73.039062 C 70.730469 73 70.664062 72.953125 70.609375 72.890625 C 70.550781 72.824219 70.507812 72.746094 70.488281 72.660156 C 70.390625 72.375 70.292969 72.078125 70.195312 71.773438 L 69.894531 70.851562 C 69.792969 70.542969 69.691406 70.230469 69.59375 69.917969 C 69.492188 69.605469 69.394531 69.296875 69.300781 68.992188 C 69.292969 68.960938 69.28125 68.929688 69.269531 68.898438 C 69.257812 68.867188 69.246094 68.839844 69.230469 68.8125 C 69.222656 68.789062 69.203125 68.773438 69.179688 68.769531 C 69.160156 68.773438 69.140625 68.78125 69.125 68.792969 C 69.097656 68.820312 69.054688 68.855469 69 68.90625 C 68.9375 68.960938 68.867188 69 68.792969 69.027344 C 68.71875 69.058594 68.640625 69.082031 68.5625 69.101562 C 68.492188 69.121094 68.414062 69.140625 68.332031 69.164062 C 68.316406 69.210938 68.300781 69.257812 68.292969 69.308594 C 68.257812 69.445312 68.214844 69.578125 68.164062 69.710938 C 68.070312 69.96875 67.976562 70.21875 67.882812 70.46875 C 67.785156 70.71875 67.691406 70.964844 67.597656 71.207031 C 67.5 71.445312 67.40625 71.6875 67.304688 71.9375 C 67.207031 72.179688 67.101562 72.429688 66.988281 72.679688 C 66.941406 72.792969 66.863281 72.890625 66.769531 72.964844 C 66.667969 73.042969 66.550781 73.101562 66.425781 73.132812 C 66.382812 73.144531 66.34375 73.160156 66.308594 73.183594 C 66.277344 73.207031 66.261719 73.246094 66.261719 73.28125 C 66.261719 73.316406 66.28125 73.351562 66.3125 73.367188 C 66.351562 73.382812 66.394531 73.390625 66.4375 73.390625 C 66.570312 73.390625 66.699219 73.382812 66.832031 73.371094 Z M 67.984375 71.402344 C 67.964844 71.398438 67.949219 71.378906 67.949219 71.355469 C 67.949219 71.335938 67.953125 71.320312 67.960938 71.304688 L 68.496094 69.777344 C 68.503906 69.746094 68.519531 69.722656 68.542969 69.703125 C 68.570312 69.71875 68.585938 69.746094 68.585938 69.777344 L 69.039062 71.304688 C 69.042969 71.316406 69.046875 71.328125 69.046875 71.335938 C 69.050781 71.347656 69.050781 71.359375 69.050781 71.367188 C 69.050781 71.398438 69.019531 71.414062 68.949219 71.414062 L 68.070312 71.414062 C 68.042969 71.414062 68.011719 71.410156 67.988281 71.402344 Z M 71.875 73.367188 C 71.953125 73.363281 72.042969 73.359375 72.148438 73.355469 C 72.25 73.351562 72.351562 73.347656 72.449219 73.347656 C 72.550781 73.347656 72.621094 73.347656 72.671875 73.351562 C 72.726562 73.355469 72.789062 73.359375 72.855469 73.363281 C 72.925781 73.371094 73.019531 73.375 73.140625 73.375 C 73.179688 73.375 73.21875 73.363281 73.253906 73.347656 C 73.285156 73.335938 73.308594 73.304688 73.308594 73.273438 C 73.308594 73.234375 73.285156 73.199219 73.25 73.183594 C 73.207031 73.164062 73.164062 73.148438 73.121094 73.140625 C 72.980469 73.113281 72.847656 73.054688 72.734375 72.960938 C 72.65625 72.878906 72.609375 72.769531 72.613281 72.652344 L 72.613281 71.894531 C 72.613281 71.625 72.617188 71.351562 72.628906 71.085938 C 72.636719 70.816406 72.648438 70.570312 72.660156 70.34375 C 72.660156 70.308594 72.675781 70.273438 72.710938 70.253906 C 72.738281 70.242188 72.761719 70.257812 72.773438 70.300781 C 72.976562 70.796875 73.199219 71.304688 73.441406 71.8125 C 73.683594 72.320312 73.914062 72.835938 74.132812 73.355469 C 74.152344 73.394531 74.1875 73.417969 74.230469 73.425781 C 74.273438 73.433594 74.308594 73.40625 74.332031 73.34375 L 75.621094 70.277344 C 75.628906 70.253906 75.644531 70.234375 75.664062 70.226562 C 75.679688 70.226562 75.6875 70.238281 75.6875 70.273438 C 75.703125 70.523438 75.710938 70.785156 75.714844 71.050781 C 75.722656 71.316406 75.730469 71.589844 75.738281 71.867188 C 75.75 72.144531 75.757812 72.421875 75.773438 72.703125 C 75.789062 72.8125 75.753906 72.921875 75.6875 73.003906 C 75.585938 73.082031 75.464844 73.128906 75.339844 73.144531 C 75.300781 73.152344 75.261719 73.167969 75.226562 73.191406 C 75.195312 73.210938 75.179688 73.246094 75.179688 73.285156 C 75.179688 73.3125 75.199219 73.34375 75.226562 73.355469 C 75.261719 73.371094 75.296875 73.378906 75.335938 73.378906 C 75.4375 73.378906 75.546875 73.375 75.660156 73.367188 C 75.773438 73.363281 75.882812 73.355469 75.996094 73.351562 C 76.105469 73.34375 76.203125 73.34375 76.296875 73.34375 C 76.386719 73.34375 76.492188 73.34375 76.617188 73.351562 C 76.742188 73.355469 76.867188 73.359375 76.996094 73.367188 C 77.125 73.375 77.238281 73.378906 77.339844 73.378906 C 77.375 73.378906 77.410156 73.371094 77.441406 73.351562 C 77.464844 73.335938 77.480469 73.304688 77.480469 73.277344 C 77.480469 73.242188 77.464844 73.207031 77.433594 73.191406 C 77.398438 73.171875 77.359375 73.15625 77.320312 73.144531 C 77.191406 73.117188 77.074219 73.0625 76.972656 72.984375 C 76.882812 72.917969 76.832031 72.8125 76.824219 72.703125 C 76.808594 72.40625 76.789062 72.148438 76.773438 71.925781 C 76.757812 71.699219 76.746094 71.488281 76.734375 71.28125 C 76.722656 71.070312 76.710938 70.847656 76.695312 70.605469 C 76.683594 70.359375 76.671875 70.078125 76.664062 69.753906 C 76.644531 69.636719 76.671875 69.519531 76.734375 69.417969 C 76.808594 69.335938 76.898438 69.277344 76.996094 69.234375 C 77.023438 69.21875 77.054688 69.207031 77.089844 69.1875 C 77.125 69.171875 77.15625 69.160156 77.183594 69.152344 C 77.222656 69.140625 77.261719 69.125 77.296875 69.105469 C 77.324219 69.085938 77.34375 69.050781 77.339844 69.015625 C 77.339844 68.984375 77.320312 68.953125 77.289062 68.941406 C 77.253906 68.921875 77.210938 68.914062 77.171875 68.917969 C 77.054688 68.917969 76.894531 68.925781 76.6875 68.945312 C 76.484375 68.964844 76.285156 68.980469 76.097656 68.988281 L 75.808594 68.988281 C 75.753906 68.988281 75.710938 69.027344 75.699219 69.078125 C 75.679688 69.136719 75.664062 69.214844 75.640625 69.3125 C 75.621094 69.414062 75.597656 69.542969 75.5625 69.699219 L 74.597656 71.941406 C 74.59375 71.957031 74.578125 71.972656 74.558594 71.96875 C 74.542969 71.96875 74.527344 71.957031 74.523438 71.941406 L 73.53125 69.570312 C 73.5 69.484375 73.46875 69.402344 73.441406 69.324219 C 73.414062 69.246094 73.386719 69.164062 73.355469 69.078125 C 73.34375 69.042969 73.324219 69.011719 73.292969 68.992188 C 73.265625 68.972656 73.230469 68.957031 73.191406 68.957031 C 73.089844 68.957031 72.976562 68.957031 72.851562 68.949219 C 72.726562 68.945312 72.605469 68.941406 72.484375 68.941406 C 72.363281 68.9375 72.253906 68.933594 72.15625 68.929688 C 72.058594 68.925781 71.972656 68.921875 71.90625 68.921875 C 71.863281 68.921875 71.816406 68.929688 71.777344 68.941406 C 71.742188 68.953125 71.722656 68.984375 71.722656 69.023438 C 71.722656 69.058594 71.742188 69.089844 71.769531 69.109375 C 71.808594 69.136719 71.851562 69.15625 71.898438 69.164062 C 71.964844 69.183594 72.035156 69.203125 72.101562 69.230469 C 72.164062 69.253906 72.222656 69.285156 72.273438 69.320312 C 72.328125 69.34375 72.371094 69.386719 72.398438 69.4375 C 72.425781 69.5 72.441406 69.566406 72.4375 69.632812 L 72.4375 69.757812 C 72.4375 69.792969 72.4375 69.828125 72.429688 69.859375 C 72.40625 70.199219 72.378906 70.539062 72.347656 70.886719 C 72.316406 71.234375 72.285156 71.558594 72.257812 71.863281 C 72.230469 72.167969 72.199219 72.421875 72.175781 72.628906 C 72.164062 72.753906 72.109375 72.875 72.027344 72.972656 C 71.953125 73.058594 71.859375 73.125 71.753906 73.160156 C 71.703125 73.179688 71.660156 73.195312 71.621094 73.207031 C 71.585938 73.214844 71.5625 73.246094 71.5625 73.285156 C 71.5625 73.3125 71.578125 73.339844 71.605469 73.355469 C 71.640625 73.371094 71.683594 73.382812 71.726562 73.378906 C 71.75 73.378906 71.800781 73.375 71.875 73.371094 Z M 83.414062 73.347656 C 83.445312 73.324219 83.46875 73.292969 83.480469 73.253906 C 83.503906 73.179688 83.527344 73.09375 83.550781 73.003906 C 83.578125 72.917969 83.601562 72.824219 83.625 72.730469 C 83.648438 72.640625 83.664062 72.554688 83.679688 72.476562 C 83.695312 72.410156 83.703125 72.34375 83.703125 72.277344 C 83.710938 72.230469 83.683594 72.191406 83.636719 72.183594 C 83.628906 72.183594 83.621094 72.183594 83.613281 72.183594 C 83.585938 72.183594 83.558594 72.1875 83.539062 72.203125 C 83.515625 72.21875 83.496094 72.242188 83.480469 72.269531 C 83.339844 72.621094 83.15625 72.839844 82.933594 72.925781 C 82.808594 72.972656 82.675781 73 82.542969 73.015625 C 82.378906 73.03125 82.214844 73.039062 82.046875 73.039062 C 81.976562 73.039062 81.890625 73.039062 81.785156 73.03125 C 81.679688 73.027344 81.597656 73.023438 81.539062 73.019531 C 81.496094 73.019531 81.457031 73.007812 81.421875 72.992188 C 81.402344 72.980469 81.386719 72.957031 81.390625 72.933594 C 81.394531 72.867188 81.417969 72.808594 81.457031 72.757812 C 81.601562 72.53125 81.75 72.300781 81.894531 72.054688 C 82.039062 71.8125 82.1875 71.566406 82.335938 71.3125 C 82.488281 71.0625 82.636719 70.8125 82.785156 70.566406 C 82.9375 70.316406 83.089844 70.070312 83.242188 69.832031 L 83.703125 69.101562 C 83.714844 69.070312 83.707031 69.03125 83.683594 69.007812 C 83.667969 68.972656 83.632812 68.949219 83.59375 68.941406 C 83.515625 68.941406 83.402344 68.945312 83.265625 68.949219 C 83.125 68.953125 82.976562 68.957031 82.820312 68.960938 C 82.667969 68.960938 82.519531 68.964844 82.386719 68.96875 C 82.25 68.972656 82.144531 68.976562 82.0625 68.976562 L 81.261719 68.976562 C 81.140625 68.976562 81.03125 68.972656 80.941406 68.96875 C 80.851562 68.960938 80.765625 68.941406 80.679688 68.910156 C 80.609375 68.882812 80.546875 68.847656 80.488281 68.800781 C 80.445312 68.761719 80.394531 68.734375 80.335938 68.726562 C 80.296875 68.722656 80.257812 68.738281 80.230469 68.765625 C 80.207031 68.808594 80.191406 68.859375 80.1875 68.910156 C 80.175781 69.03125 80.167969 69.136719 80.152344 69.230469 C 80.140625 69.316406 80.121094 69.40625 80.097656 69.496094 C 80.070312 69.597656 80.035156 69.691406 79.992188 69.785156 C 79.976562 69.816406 79.964844 69.847656 79.957031 69.878906 C 79.949219 69.90625 79.945312 69.9375 79.945312 69.96875 C 79.945312 69.996094 79.949219 70.023438 79.964844 70.050781 C 79.980469 70.074219 80.007812 70.085938 80.039062 70.082031 C 80.101562 70.082031 80.164062 70.054688 80.207031 70.003906 C 80.246094 69.960938 80.285156 69.910156 80.316406 69.855469 C 80.40625 69.6875 80.535156 69.542969 80.691406 69.433594 C 80.835938 69.332031 81.007812 69.28125 81.1875 69.28125 L 82.191406 69.28125 C 82.222656 69.277344 82.25 69.285156 82.277344 69.300781 C 82.289062 69.3125 82.296875 69.328125 82.296875 69.347656 C 82.296875 69.363281 82.292969 69.382812 82.285156 69.402344 C 82.277344 69.421875 82.269531 69.441406 82.261719 69.460938 C 82.101562 69.722656 81.9375 69.980469 81.777344 70.238281 C 81.617188 70.496094 81.453125 70.75 81.292969 71.003906 C 81.128906 71.261719 80.964844 71.515625 80.804688 71.777344 C 80.644531 72.035156 80.480469 72.296875 80.320312 72.554688 C 80.277344 72.625 80.234375 72.695312 80.1875 72.769531 C 80.136719 72.847656 80.09375 72.921875 80.050781 72.992188 C 80.003906 73.066406 79.964844 73.132812 79.929688 73.199219 C 79.921875 73.234375 79.921875 73.273438 79.9375 73.308594 C 79.941406 73.351562 79.976562 73.390625 80.023438 73.394531 L 80.542969 73.378906 C 80.703125 73.375 80.867188 73.371094 81.03125 73.371094 C 81.199219 73.367188 81.359375 73.363281 81.523438 73.359375 C 81.703125 73.359375 81.886719 73.359375 82.082031 73.367188 C 82.273438 73.371094 82.449219 73.375 82.617188 73.375 C 82.78125 73.378906 82.921875 73.378906 83.046875 73.382812 C 83.167969 73.386719 83.253906 73.386719 83.300781 73.386719 C 83.34375 73.386719 83.382812 73.375 83.417969 73.351562 Z M 84.617188 73.367188 C 84.746094 73.355469 84.871094 73.347656 85 73.347656 C 85.136719 73.347656 85.261719 73.351562 85.371094 73.359375 C 85.484375 73.363281 85.605469 73.367188 85.738281 73.367188 C 85.777344 73.371094 85.820312 73.363281 85.855469 73.34375 C 85.882812 73.328125 85.894531 73.304688 85.894531 73.277344 C 85.894531 73.203125 85.839844 73.15625 85.730469 73.132812 C 85.539062 73.089844 85.410156 73.03125 85.351562 72.957031 C 85.289062 72.867188 85.277344 72.75 85.3125 72.644531 C 85.332031 72.589844 85.347656 72.527344 85.367188 72.464844 C 85.382812 72.402344 85.402344 72.335938 85.425781 72.277344 C 85.445312 72.214844 85.464844 72.148438 85.488281 72.085938 C 85.511719 72.023438 85.53125 71.960938 85.550781 71.898438 C 85.554688 71.867188 85.570312 71.835938 85.589844 71.8125 C 85.609375 71.792969 85.636719 71.78125 85.664062 71.785156 L 86.863281 71.785156 C 86.890625 71.78125 86.921875 71.789062 86.945312 71.8125 C 86.960938 71.835938 86.972656 71.863281 86.976562 71.894531 C 87.003906 71.980469 87.027344 72.078125 87.054688 72.171875 C 87.078125 72.269531 87.105469 72.363281 87.132812 72.460938 C 87.160156 72.554688 87.179688 72.644531 87.199219 72.730469 C 87.234375 72.824219 87.203125 72.929688 87.125 72.992188 C 87.011719 73.066406 86.890625 73.113281 86.757812 73.136719 C 86.71875 73.144531 86.679688 73.160156 86.644531 73.183594 C 86.613281 73.203125 86.59375 73.238281 86.597656 73.277344 C 86.597656 73.308594 86.613281 73.335938 86.640625 73.347656 C 86.675781 73.363281 86.710938 73.371094 86.746094 73.371094 C 86.835938 73.371094 86.945312 73.367188 87.070312 73.363281 C 87.199219 73.359375 87.324219 73.355469 87.449219 73.347656 C 87.570312 73.34375 87.675781 73.339844 87.761719 73.339844 C 87.867188 73.339844 87.984375 73.34375 88.121094 73.347656 C 88.253906 73.355469 88.386719 73.359375 88.523438 73.367188 C 88.65625 73.375 88.765625 73.375 88.855469 73.375 C 88.890625 73.375 88.921875 73.367188 88.953125 73.347656 C 88.976562 73.332031 88.992188 73.304688 88.992188 73.277344 C 88.996094 73.238281 88.980469 73.207031 88.949219 73.183594 C 88.910156 73.160156 88.871094 73.144531 88.828125 73.132812 C 88.746094 73.109375 88.664062 73.078125 88.585938 73.039062 C 88.511719 73 88.449219 72.953125 88.394531 72.890625 C 88.335938 72.824219 88.292969 72.746094 88.269531 72.660156 C 88.175781 72.375 88.078125 72.078125 87.980469 71.773438 C 87.882812 71.46875 87.78125 71.164062 87.679688 70.851562 C 87.578125 70.542969 87.476562 70.230469 87.378906 69.917969 C 87.277344 69.605469 87.179688 69.296875 87.085938 68.992188 C 87.078125 68.960938 87.066406 68.929688 87.054688 68.898438 C 87.046875 68.867188 87.03125 68.839844 87.019531 68.8125 C 87.011719 68.789062 86.992188 68.773438 86.964844 68.769531 C 86.945312 68.773438 86.925781 68.78125 86.910156 68.792969 C 86.882812 68.820312 86.84375 68.855469 86.785156 68.90625 C 86.726562 68.960938 86.65625 69 86.582031 69.027344 C 86.503906 69.058594 86.429688 69.082031 86.351562 69.101562 C 86.277344 69.121094 86.203125 69.140625 86.121094 69.164062 C 86.101562 69.210938 86.089844 69.257812 86.082031 69.308594 C 86.046875 69.445312 86.003906 69.578125 85.953125 69.710938 C 85.855469 69.96875 85.761719 70.21875 85.667969 70.46875 C 85.574219 70.71875 85.480469 70.964844 85.382812 71.207031 C 85.289062 71.445312 85.191406 71.6875 85.09375 71.9375 C 84.996094 72.179688 84.886719 72.429688 84.777344 72.679688 C 84.726562 72.792969 84.652344 72.890625 84.554688 72.964844 C 84.453125 73.042969 84.339844 73.101562 84.214844 73.132812 C 84.171875 73.144531 84.132812 73.160156 84.09375 73.183594 C 84.0625 73.207031 84.046875 73.246094 84.050781 73.28125 C 84.046875 73.316406 84.066406 73.351562 84.101562 73.367188 C 84.140625 73.382812 84.183594 73.390625 84.226562 73.390625 C 84.355469 73.390625 84.488281 73.382812 84.617188 73.371094 Z M 85.769531 71.402344 C 85.746094 71.398438 85.730469 71.378906 85.730469 71.355469 C 85.730469 71.335938 85.734375 71.320312 85.746094 71.304688 L 86.28125 69.777344 C 86.289062 69.746094 86.304688 69.722656 86.328125 69.703125 C 86.351562 69.71875 86.367188 69.746094 86.367188 69.777344 L 86.820312 71.304688 C 86.824219 71.316406 86.828125 71.328125 86.832031 71.335938 C 86.832031 71.347656 86.835938 71.359375 86.835938 71.367188 C 86.835938 71.398438 86.800781 71.414062 86.734375 71.414062 L 85.855469 71.414062 C 85.824219 71.414062 85.796875 71.410156 85.769531 71.402344 Z M 89.660156 73.367188 C 89.734375 73.363281 89.824219 73.359375 89.929688 73.355469 C 90.035156 73.351562 90.132812 73.347656 90.234375 73.347656 C 90.332031 73.347656 90.402344 73.347656 90.457031 73.351562 C 90.511719 73.355469 90.570312 73.359375 90.640625 73.363281 C 90.707031 73.371094 90.800781 73.375 90.925781 73.375 C 90.964844 73.375 91.003906 73.363281 91.039062 73.347656 C 91.070312 73.335938 91.089844 73.304688 91.09375 73.273438 C 91.09375 73.234375 91.070312 73.199219 91.03125 73.183594 C 90.992188 73.164062 90.949219 73.148438 90.90625 73.140625 C 90.761719 73.113281 90.628906 73.054688 90.519531 72.960938 C 90.4375 72.878906 90.394531 72.769531 90.398438 72.652344 L 90.398438 71.894531 C 90.398438 71.625 90.402344 71.351562 90.410156 71.085938 C 90.417969 70.816406 90.429688 70.570312 90.445312 70.34375 C 90.441406 70.308594 90.460938 70.273438 90.492188 70.253906 C 90.523438 70.242188 90.542969 70.257812 90.558594 70.300781 C 90.761719 70.796875 90.984375 71.304688 91.226562 71.8125 C 91.464844 72.320312 91.699219 72.835938 91.917969 73.355469 C 91.9375 73.394531 91.972656 73.417969 92.011719 73.425781 C 92.058594 73.433594 92.09375 73.40625 92.113281 73.34375 L 93.40625 70.277344 C 93.410156 70.253906 93.425781 70.234375 93.449219 70.226562 C 93.464844 70.226562 93.472656 70.238281 93.472656 70.273438 C 93.488281 70.523438 93.496094 70.785156 93.503906 71.050781 C 93.511719 71.316406 93.519531 71.589844 93.527344 71.867188 C 93.535156 72.144531 93.542969 72.421875 93.558594 72.703125 C 93.570312 72.8125 93.539062 72.921875 93.472656 73.003906 C 93.371094 73.082031 93.25 73.128906 93.125 73.144531 C 93.085938 73.152344 93.046875 73.167969 93.011719 73.191406 C 92.980469 73.210938 92.960938 73.246094 92.960938 73.285156 C 92.960938 73.3125 92.980469 73.34375 93.011719 73.355469 C 93.042969 73.371094 93.082031 73.378906 93.117188 73.378906 C 93.222656 73.378906 93.332031 73.375 93.445312 73.367188 C 93.554688 73.363281 93.667969 73.355469 93.777344 73.351562 C 93.890625 73.34375 93.988281 73.34375 94.078125 73.34375 C 94.171875 73.34375 94.277344 73.34375 94.402344 73.351562 C 94.523438 73.355469 94.648438 73.359375 94.78125 73.367188 C 94.910156 73.375 95.019531 73.378906 95.121094 73.378906 C 95.15625 73.378906 95.191406 73.371094 95.222656 73.351562 C 95.25 73.335938 95.265625 73.304688 95.265625 73.277344 C 95.265625 73.242188 95.25 73.207031 95.21875 73.191406 C 95.179688 73.171875 95.140625 73.15625 95.101562 73.144531 C 94.976562 73.117188 94.855469 73.0625 94.753906 72.984375 C 94.667969 72.917969 94.613281 72.8125 94.609375 72.703125 C 94.589844 72.40625 94.574219 72.148438 94.558594 71.925781 C 94.542969 71.699219 94.527344 71.488281 94.515625 71.28125 C 94.503906 71.070312 94.492188 70.847656 94.480469 70.605469 C 94.464844 70.359375 94.453125 70.078125 94.445312 69.753906 C 94.429688 69.636719 94.453125 69.519531 94.515625 69.417969 C 94.589844 69.335938 94.679688 69.277344 94.777344 69.234375 C 94.804688 69.21875 94.835938 69.207031 94.871094 69.1875 C 94.90625 69.171875 94.941406 69.160156 94.964844 69.152344 C 95.003906 69.140625 95.042969 69.125 95.078125 69.105469 C 95.109375 69.085938 95.125 69.050781 95.125 69.015625 C 95.125 68.984375 95.105469 68.953125 95.074219 68.941406 C 95.035156 68.921875 94.996094 68.914062 94.953125 68.917969 C 94.835938 68.917969 94.675781 68.925781 94.46875 68.945312 C 94.265625 68.964844 94.066406 68.980469 93.878906 68.988281 L 93.585938 68.988281 C 93.535156 68.988281 93.488281 69.027344 93.480469 69.078125 C 93.460938 69.136719 93.441406 69.214844 93.421875 69.3125 C 93.402344 69.414062 93.375 69.542969 93.34375 69.699219 L 92.378906 71.941406 C 92.375 71.957031 92.359375 71.972656 92.339844 71.96875 C 92.324219 71.96875 92.308594 71.957031 92.304688 71.941406 L 91.3125 69.570312 C 91.28125 69.484375 91.25 69.402344 91.222656 69.324219 C 91.195312 69.246094 91.167969 69.164062 91.136719 69.078125 C 91.125 69.042969 91.101562 69.011719 91.074219 68.992188 C 91.046875 68.972656 91.011719 68.957031 90.972656 68.957031 C 90.871094 68.957031 90.757812 68.957031 90.632812 68.949219 C 90.507812 68.945312 90.386719 68.941406 90.265625 68.941406 C 90.144531 68.9375 90.039062 68.933594 89.9375 68.929688 C 89.839844 68.925781 89.753906 68.921875 89.6875 68.921875 C 89.644531 68.921875 89.601562 68.929688 89.5625 68.941406 C 89.527344 68.953125 89.503906 68.984375 89.507812 69.023438 C 89.507812 69.058594 89.523438 69.089844 89.554688 69.109375 C 89.59375 69.136719 89.636719 69.15625 89.683594 69.164062 C 89.75 69.183594 89.820312 69.203125 89.886719 69.230469 C 89.949219 69.253906 90.007812 69.285156 90.0625 69.320312 C 90.113281 69.34375 90.160156 69.386719 90.1875 69.4375 C 90.214844 69.5 90.226562 69.566406 90.222656 69.632812 L 90.222656 69.757812 C 90.222656 69.792969 90.222656 69.828125 90.214844 69.859375 C 90.191406 70.199219 90.167969 70.539062 90.132812 70.886719 C 90.101562 71.234375 90.070312 71.558594 90.042969 71.863281 C 90.015625 72.167969 89.984375 72.421875 89.960938 72.628906 C 89.933594 72.875 89.769531 73.082031 89.539062 73.164062 C 89.492188 73.179688 89.445312 73.195312 89.40625 73.207031 C 89.371094 73.214844 89.347656 73.25 89.351562 73.285156 C 89.351562 73.3125 89.367188 73.339844 89.390625 73.355469 C 89.429688 73.375 89.472656 73.382812 89.511719 73.378906 C 89.535156 73.378906 89.585938 73.378906 89.660156 73.371094 Z M 89.660156 73.367188 " fill-opacity="1" fill-rule="evenodd"/><path fill="#1c7d88" d="M 68.507812 130.273438 C 68.964844 130.21875 69.410156 130.105469 69.839844 129.941406 C 69.949219 129.914062 70.054688 129.871094 70.148438 129.808594 C 70.21875 129.726562 70.277344 129.632812 70.320312 129.539062 C 70.382812 129.386719 70.445312 129.214844 70.507812 129.019531 C 70.574219 128.824219 70.628906 128.636719 70.667969 128.460938 C 70.699219 128.335938 70.71875 128.207031 70.726562 128.078125 C 70.726562 127.914062 70.660156 127.835938 70.523438 127.835938 C 70.390625 127.835938 70.269531 127.910156 70.214844 128.03125 C 69.921875 128.578125 69.511719 129.050781 69.007812 129.414062 C 68.535156 129.746094 67.9375 129.910156 67.214844 129.910156 C 66.621094 129.917969 66.039062 129.773438 65.523438 129.484375 C 65.011719 129.195312 64.566406 128.804688 64.210938 128.339844 C 63.84375 127.859375 63.554688 127.316406 63.367188 126.738281 C 63.171875 126.15625 63.074219 125.546875 63.074219 124.933594 C 63.074219 124.386719 63.175781 123.847656 63.375 123.339844 C 63.570312 122.835938 63.855469 122.371094 64.210938 121.960938 C 64.566406 121.558594 65.003906 121.230469 65.492188 121 C 65.996094 120.761719 66.550781 120.640625 67.109375 120.644531 C 67.496094 120.644531 67.882812 120.6875 68.261719 120.773438 C 68.585938 120.847656 68.894531 120.976562 69.171875 121.160156 C 69.425781 121.328125 69.628906 121.566406 69.757812 121.84375 C 69.90625 122.160156 70.019531 122.488281 70.105469 122.828125 C 70.117188 122.917969 70.1875 122.996094 70.277344 123.023438 C 70.359375 123.042969 70.449219 123.03125 70.519531 122.984375 C 70.585938 122.957031 70.625 122.886719 70.617188 122.8125 C 70.605469 122.421875 70.585938 122.09375 70.554688 121.828125 C 70.527344 121.5625 70.5 121.3125 70.480469 121.085938 C 70.480469 120.964844 70.4375 120.851562 70.367188 120.753906 C 70.28125 120.664062 70.167969 120.597656 70.042969 120.574219 C 69.699219 120.484375 69.402344 120.410156 69.148438 120.355469 C 68.886719 120.300781 68.621094 120.257812 68.355469 120.230469 C 68.023438 120.195312 67.695312 120.179688 67.363281 120.183594 C 66.609375 120.179688 65.863281 120.308594 65.15625 120.570312 C 64.476562 120.8125 63.847656 121.179688 63.296875 121.644531 C 62.765625 122.09375 62.328125 122.644531 62.019531 123.269531 C 61.707031 123.902344 61.546875 124.59375 61.550781 125.296875 C 61.53125 126.710938 62.140625 128.0625 63.207031 128.988281 C 63.722656 129.4375 64.316406 129.785156 64.953125 130.019531 C 65.605469 130.261719 66.292969 130.382812 66.988281 130.382812 C 67.492188 130.382812 67.996094 130.347656 68.5 130.277344 Z M 80.058594 129.859375 C 80.644531 129.527344 81.128906 129.039062 81.464844 128.453125 C 81.824219 127.828125 82.015625 127.117188 82.023438 126.394531 C 82.042969 125.703125 82.058594 125 82.074219 124.289062 C 82.089844 123.574219 82.125 122.789062 82.171875 121.925781 C 82.183594 121.664062 82.246094 121.410156 82.367188 121.175781 C 82.484375 120.96875 82.691406 120.832031 82.925781 120.800781 C 83.257812 120.730469 83.425781 120.628906 83.425781 120.5 C 83.421875 120.433594 83.371094 120.378906 83.304688 120.371094 C 83.199219 120.339844 83.09375 120.328125 82.988281 120.332031 C 82.875 120.332031 82.753906 120.339844 82.625 120.347656 C 82.496094 120.359375 82.359375 120.367188 82.21875 120.371094 C 82.078125 120.378906 81.925781 120.378906 81.769531 120.378906 C 81.546875 120.378906 81.363281 120.378906 81.210938 120.371094 C 81.058594 120.367188 80.867188 120.363281 80.636719 120.363281 C 80.53125 120.359375 80.425781 120.375 80.320312 120.402344 C 80.253906 120.410156 80.203125 120.464844 80.199219 120.53125 C 80.199219 120.597656 80.257812 120.660156 80.375 120.710938 C 80.480469 120.757812 80.585938 120.796875 80.699219 120.832031 C 80.851562 120.882812 80.976562 120.992188 81.042969 121.140625 C 81.140625 121.324219 81.210938 121.527344 81.25 121.734375 C 81.296875 121.976562 81.316406 122.222656 81.316406 122.472656 C 81.328125 122.851562 81.335938 123.25 81.347656 123.667969 C 81.355469 124.082031 81.363281 124.472656 81.367188 124.832031 C 81.375 125.195312 81.375 125.484375 81.375 125.703125 C 81.375 126.878906 81.136719 127.824219 80.652344 128.539062 C 80.171875 129.253906 79.414062 129.613281 78.378906 129.613281 C 77.816406 129.625 77.253906 129.5 76.746094 129.246094 C 76.261719 128.992188 75.867188 128.59375 75.625 128.101562 C 75.351562 127.585938 75.21875 126.925781 75.21875 126.125 L 75.21875 121.902344 C 75.207031 121.636719 75.285156 121.375 75.441406 121.164062 C 75.59375 120.972656 75.726562 120.859375 75.847656 120.820312 C 75.976562 120.785156 76.105469 120.738281 76.226562 120.683594 C 76.296875 120.65625 76.34375 120.589844 76.347656 120.519531 C 76.34375 120.453125 76.292969 120.398438 76.226562 120.390625 C 76.125 120.363281 76.015625 120.347656 75.910156 120.351562 C 75.746094 120.351562 75.566406 120.359375 75.359375 120.367188 C 75.152344 120.378906 74.933594 120.382812 74.703125 120.382812 C 74.421875 120.382812 74.167969 120.375 73.945312 120.359375 C 73.71875 120.34375 73.488281 120.335938 73.257812 120.335938 C 73.152344 120.332031 73.046875 120.347656 72.941406 120.375 C 72.875 120.382812 72.824219 120.4375 72.820312 120.503906 C 72.820312 120.632812 72.988281 120.742188 73.320312 120.832031 C 73.507812 120.882812 73.671875 120.988281 73.792969 121.140625 C 73.941406 121.304688 74.011719 121.570312 74.011719 121.929688 L 74.011719 126.546875 C 74.011719 127.308594 74.160156 127.976562 74.460938 128.554688 C 74.765625 129.132812 75.238281 129.597656 75.816406 129.894531 C 76.421875 130.210938 77.167969 130.367188 78.0625 130.367188 C 78.757812 130.378906 79.449219 130.203125 80.058594 129.863281 Z M 85.898438 130.207031 C 86.09375 130.191406 86.285156 130.179688 86.46875 130.167969 C 86.652344 130.160156 86.875 130.152344 87.125 130.152344 C 87.355469 130.152344 87.550781 130.160156 87.710938 130.167969 C 87.871094 130.179688 88.039062 130.191406 88.21875 130.207031 C 88.394531 130.21875 88.617188 130.230469 88.886719 130.230469 C 88.996094 130.230469 89.101562 130.21875 89.203125 130.191406 C 89.269531 130.183594 89.320312 130.128906 89.324219 130.0625 C 89.324219 129.988281 89.273438 129.921875 89.203125 129.898438 C 89.085938 129.847656 88.957031 129.8125 88.828125 129.792969 C 88.457031 129.722656 88.164062 129.609375 87.953125 129.449219 C 87.742188 129.289062 87.636719 129.03125 87.636719 128.679688 L 87.636719 121.886719 C 87.636719 121.535156 87.722656 121.28125 87.894531 121.132812 C 88.0625 120.980469 88.335938 120.875 88.707031 120.804688 C 88.839844 120.785156 88.964844 120.746094 89.085938 120.683594 C 89.15625 120.648438 89.199219 120.578125 89.203125 120.503906 C 89.199219 120.4375 89.152344 120.382812 89.085938 120.375 C 88.980469 120.34375 88.875 120.332031 88.765625 120.335938 C 88.496094 120.335938 88.28125 120.34375 88.121094 120.351562 C 87.957031 120.363281 87.808594 120.371094 87.667969 120.375 C 87.527344 120.382812 87.347656 120.382812 87.125 120.382812 C 86.894531 120.382812 86.699219 120.382812 86.539062 120.375 C 86.378906 120.371094 86.210938 120.363281 86.035156 120.351562 C 85.859375 120.34375 85.636719 120.335938 85.363281 120.335938 C 85.257812 120.332031 85.148438 120.347656 85.046875 120.375 C 84.980469 120.382812 84.929688 120.4375 84.925781 120.503906 C 84.925781 120.640625 85.089844 120.742188 85.421875 120.804688 C 85.804688 120.875 86.070312 120.984375 86.214844 121.132812 C 86.359375 121.28125 86.433594 121.535156 86.433594 121.886719 L 86.433594 128.679688 C 86.433594 129.03125 86.332031 129.285156 86.132812 129.449219 C 85.929688 129.609375 85.640625 129.722656 85.257812 129.792969 C 84.925781 129.855469 84.761719 129.941406 84.761719 130.0625 C 84.765625 130.128906 84.816406 130.183594 84.878906 130.191406 C 84.984375 130.21875 85.089844 130.234375 85.199219 130.230469 C 85.46875 130.230469 85.703125 130.222656 85.898438 130.207031 Z M 95.300781 130.03125 C 95.773438 129.808594 96.171875 129.449219 96.445312 129 C 96.722656 128.53125 96.863281 127.992188 96.851562 127.445312 C 96.851562 126.945312 96.742188 126.523438 96.527344 126.175781 C 96.308594 125.828125 96.03125 125.523438 95.699219 125.277344 C 95.367188 125.03125 95.023438 124.800781 94.667969 124.585938 C 94.296875 124.359375 93.949219 124.132812 93.628906 123.910156 C 93.335938 123.714844 93.074219 123.480469 92.851562 123.210938 C 92.664062 122.980469 92.558594 122.691406 92.558594 122.390625 C 92.558594 121.96875 92.644531 121.636719 92.808594 121.382812 C 92.960938 121.144531 93.183594 120.953125 93.449219 120.84375 C 93.714844 120.730469 94 120.675781 94.292969 120.675781 C 94.691406 120.664062 95.078125 120.816406 95.359375 121.097656 C 95.640625 121.378906 95.886719 121.785156 96.097656 122.316406 C 96.128906 122.386719 96.183594 122.441406 96.253906 122.464844 C 96.335938 122.503906 96.429688 122.527344 96.519531 122.527344 C 96.667969 122.527344 96.746094 122.472656 96.746094 122.359375 C 96.742188 122.101562 96.707031 121.84375 96.640625 121.59375 C 96.570312 121.324219 96.503906 121.082031 96.445312 120.871094 C 96.421875 120.789062 96.382812 120.710938 96.332031 120.644531 C 96.277344 120.578125 96.207031 120.527344 96.128906 120.496094 C 95.917969 120.410156 95.707031 120.335938 95.488281 120.277344 C 95.179688 120.199219 94.863281 120.160156 94.546875 120.167969 C 93.84375 120.167969 93.257812 120.289062 92.792969 120.535156 C 92.355469 120.753906 91.992188 121.097656 91.746094 121.519531 C 91.511719 121.941406 91.390625 122.421875 91.398438 122.90625 C 91.386719 123.34375 91.519531 123.773438 91.777344 124.128906 C 92.042969 124.476562 92.363281 124.777344 92.726562 125.015625 C 93.105469 125.273438 93.496094 125.527344 93.886719 125.777344 C 94.246094 125.996094 94.550781 126.203125 94.804688 126.394531 C 95.042969 126.574219 95.242188 126.800781 95.382812 127.0625 C 95.519531 127.320312 95.585938 127.652344 95.589844 128.0625 C 95.597656 128.402344 95.515625 128.734375 95.355469 129.03125 C 95.207031 129.300781 94.984375 129.523438 94.714844 129.671875 C 94.429688 129.824219 94.105469 129.902344 93.78125 129.898438 C 93.351562 129.898438 92.9375 129.730469 92.539062 129.398438 C 92.144531 129.070312 91.84375 128.519531 91.644531 127.746094 C 91.636719 127.691406 91.601562 127.640625 91.554688 127.617188 C 91.507812 127.589844 91.457031 127.578125 91.402344 127.578125 C 91.332031 127.578125 91.257812 127.597656 91.195312 127.632812 C 91.136719 127.664062 91.101562 127.726562 91.105469 127.789062 C 91.125 128 91.140625 128.265625 91.15625 128.585938 C 91.164062 128.851562 91.199219 129.113281 91.253906 129.371094 C 91.273438 129.429688 91.300781 129.484375 91.339844 129.535156 C 91.371094 129.582031 91.410156 129.628906 91.449219 129.671875 C 91.738281 129.90625 92.058594 130.085938 92.40625 130.207031 C 92.78125 130.332031 93.175781 130.398438 93.574219 130.394531 C 94.238281 130.394531 94.8125 130.273438 95.304688 130.03125 Z M 99.824219 130.207031 C 100.023438 130.191406 100.210938 130.179688 100.398438 130.167969 C 100.582031 130.160156 100.800781 130.152344 101.050781 130.152344 C 101.285156 130.152344 101.480469 130.160156 101.640625 130.167969 C 101.800781 130.179688 101.96875 130.191406 102.144531 130.207031 C 102.320312 130.21875 102.542969 130.230469 102.816406 130.230469 C 102.921875 130.230469 103.03125 130.21875 103.132812 130.191406 C 103.199219 130.183594 103.25 130.128906 103.253906 130.0625 C 103.25 129.988281 103.203125 129.921875 103.132812 129.898438 C 103.011719 129.847656 102.886719 129.8125 102.753906 129.792969 C 102.382812 129.722656 102.09375 129.609375 101.882812 129.449219 C 101.671875 129.289062 101.566406 129.03125 101.566406 128.679688 L 101.566406 121.886719 C 101.566406 121.535156 101.652344 121.28125 101.820312 121.132812 C 101.992188 120.984375 102.261719 120.875 102.636719 120.804688 C 102.765625 120.785156 102.894531 120.746094 103.011719 120.683594 C 103.082031 120.648438 103.128906 120.578125 103.132812 120.503906 C 103.128906 120.4375 103.078125 120.382812 103.011719 120.375 C 102.910156 120.34375 102.800781 120.332031 102.695312 120.335938 C 102.425781 120.335938 102.210938 120.34375 102.046875 120.351562 C 101.886719 120.363281 101.738281 120.371094 101.597656 120.375 C 101.457031 120.382812 101.277344 120.382812 101.054688 120.382812 C 100.832031 120.382812 100.625 120.382812 100.46875 120.375 C 100.304688 120.371094 100.136719 120.363281 99.964844 120.351562 C 99.785156 120.34375 99.566406 120.335938 99.292969 120.335938 C 99.1875 120.332031 99.078125 120.347656 98.976562 120.375 C 98.910156 120.382812 98.859375 120.4375 98.855469 120.503906 C 98.855469 120.640625 99.019531 120.742188 99.351562 120.804688 C 99.734375 120.875 100 120.984375 100.144531 121.132812 C 100.289062 121.28125 100.363281 121.535156 100.363281 121.886719 L 100.363281 128.679688 C 100.363281 129.03125 100.261719 129.285156 100.058594 129.449219 C 99.859375 129.609375 99.570312 129.722656 99.1875 129.792969 C 98.855469 129.855469 98.691406 129.941406 98.691406 130.0625 C 98.695312 130.128906 98.746094 130.183594 98.808594 130.191406 C 98.914062 130.21875 99.019531 130.234375 99.128906 130.230469 C 99.398438 130.230469 99.632812 130.222656 99.828125 130.207031 Z M 114.703125 130.339844 C 114.769531 130.292969 114.800781 130.191406 114.800781 130.03125 C 114.800781 129.960938 114.792969 129.859375 114.785156 129.722656 C 114.773438 129.585938 114.761719 129.421875 114.746094 129.226562 C 114.734375 129.027344 114.722656 128.8125 114.722656 128.570312 L 114.722656 126.96875 C 114.722656 126.371094 114.726562 125.773438 114.730469 125.171875 C 114.738281 124.570312 114.738281 124.007812 114.738281 123.488281 C 114.738281 122.964844 114.742188 122.535156 114.746094 122.195312 C 114.75 121.855469 114.753906 121.65625 114.753906 121.605469 C 114.773438 121.355469 114.84375 121.175781 114.964844 121.066406 C 115.085938 120.953125 115.332031 120.867188 115.703125 120.796875 C 116.035156 120.734375 116.199219 120.632812 116.199219 120.496094 C 116.195312 120.429688 116.144531 120.375 116.082031 120.367188 C 115.976562 120.335938 115.871094 120.324219 115.761719 120.328125 C 115.460938 120.328125 115.230469 120.335938 115.0625 120.34375 C 114.898438 120.355469 114.746094 120.363281 114.605469 120.367188 C 114.464844 120.375 114.273438 120.375 114.03125 120.375 L 113.171875 120.375 C 113.039062 120.375 112.902344 120.390625 112.765625 120.414062 C 112.628906 120.4375 112.558594 120.480469 112.558594 120.542969 C 112.558594 120.609375 112.628906 120.671875 112.765625 120.722656 C 112.917969 120.777344 113.074219 120.816406 113.234375 120.84375 C 113.441406 120.890625 113.632812 120.988281 113.792969 121.128906 C 113.992188 121.289062 114.097656 121.46875 114.109375 121.667969 L 114.109375 123.699219 C 114.109375 124.363281 114.105469 124.976562 114.101562 125.542969 C 114.09375 126.109375 114.089844 126.589844 114.085938 126.984375 C 114.082031 127.382812 114.078125 127.648438 114.078125 127.789062 C 114.066406 128 114.015625 128.105469 113.929688 128.105469 C 113.847656 128.09375 113.773438 128.050781 113.722656 127.984375 C 113.648438 127.90625 113.589844 127.847656 113.550781 127.804688 C 113.511719 127.753906 113.378906 127.59375 113.152344 127.324219 C 112.925781 127.054688 112.644531 126.710938 112.300781 126.292969 C 111.957031 125.875 111.589844 125.425781 111.1875 124.9375 C 110.785156 124.453125 110.382812 123.964844 109.980469 123.480469 C 109.578125 122.996094 109.210938 122.546875 108.875 122.128906 C 108.539062 121.710938 108.257812 121.367188 108.03125 121.089844 C 107.804688 120.816406 107.671875 120.644531 107.632812 120.585938 C 107.585938 120.523438 107.535156 120.460938 107.480469 120.40625 C 107.425781 120.351562 107.347656 120.324219 107.273438 120.328125 C 107.003906 120.328125 106.78125 120.328125 106.609375 120.320312 C 106.4375 120.316406 106.28125 120.308594 106.140625 120.296875 C 106 120.289062 105.839844 120.28125 105.660156 120.273438 C 105.480469 120.269531 105.246094 120.261719 104.953125 120.25 C 104.878906 120.253906 104.8125 120.269531 104.742188 120.289062 C 104.660156 120.304688 104.601562 120.378906 104.605469 120.460938 C 104.605469 120.550781 104.675781 120.628906 104.8125 120.695312 C 104.945312 120.757812 105.035156 120.804688 105.074219 120.824219 C 105.464844 120.9375 105.832031 121.125 106.152344 121.378906 C 106.429688 121.609375 106.566406 121.992188 106.566406 122.523438 C 106.566406 123.34375 106.550781 124.144531 106.523438 124.921875 C 106.492188 125.699219 106.457031 126.402344 106.417969 127.027344 C 106.375 127.652344 106.335938 128.15625 106.296875 128.539062 C 106.277344 128.816406 106.195312 129.085938 106.054688 129.328125 C 105.910156 129.554688 105.683594 129.710938 105.421875 129.773438 C 105.292969 129.800781 105.167969 129.839844 105.046875 129.894531 C 104.976562 129.917969 104.925781 129.984375 104.925781 130.058594 C 104.929688 130.125 104.980469 130.179688 105.046875 130.1875 C 105.148438 130.214844 105.257812 130.226562 105.363281 130.222656 C 105.5625 130.226562 105.765625 130.21875 105.964844 130.199219 C 106.097656 130.183594 106.210938 130.171875 106.3125 130.164062 C 106.414062 130.152344 106.554688 130.148438 106.734375 130.148438 C 106.925781 130.148438 107.070312 130.152344 107.179688 130.164062 C 107.285156 130.171875 107.40625 130.1875 107.539062 130.199219 C 107.742188 130.21875 107.945312 130.226562 108.152344 130.222656 C 108.257812 130.226562 108.363281 130.214844 108.46875 130.1875 C 108.535156 130.179688 108.585938 130.125 108.589844 130.058594 C 108.585938 129.984375 108.539062 129.917969 108.46875 129.894531 C 108.347656 129.839844 108.222656 129.804688 108.089844 129.789062 C 107.71875 129.71875 107.464844 129.566406 107.332031 129.335938 C 107.195312 129.109375 107.125 128.851562 107.125 128.585938 C 107.125 127.964844 107.132812 127.3125 107.140625 126.628906 C 107.152344 125.949219 107.160156 125.285156 107.171875 124.644531 C 107.179688 124.003906 107.191406 123.4375 107.199219 122.945312 C 107.199219 122.878906 107.210938 122.808594 107.230469 122.742188 C 107.25 122.667969 107.285156 122.628906 107.335938 122.628906 C 107.382812 122.632812 107.433594 122.652344 107.46875 122.683594 C 107.539062 122.738281 107.601562 122.800781 107.652344 122.871094 C 107.703125 122.929688 107.835938 123.089844 108.050781 123.34375 C 108.265625 123.601562 108.535156 123.914062 108.855469 124.292969 C 109.175781 124.667969 109.523438 125.078125 109.894531 125.519531 C 110.269531 125.957031 110.636719 126.402344 111.007812 126.84375 C 111.378906 127.28125 111.726562 127.691406 112.042969 128.066406 C 112.359375 128.445312 112.621094 128.757812 112.824219 129.007812 C 113.03125 129.257812 113.152344 129.410156 113.195312 129.457031 C 113.394531 129.75 113.652344 129.996094 113.957031 130.179688 C 114.222656 130.332031 114.398438 130.40625 114.488281 130.40625 C 114.566406 130.40625 114.644531 130.382812 114.707031 130.335938 Z M 118.910156 130.207031 C 119.082031 130.191406 119.246094 130.175781 119.410156 130.160156 C 119.570312 130.144531 119.757812 130.136719 119.980469 130.136719 C 120.363281 130.136719 120.730469 130.144531 121.085938 130.152344 C 121.441406 130.164062 121.804688 130.171875 122.179688 130.183594 C 122.550781 130.191406 122.941406 130.203125 123.355469 130.210938 C 123.765625 130.222656 124.214844 130.226562 124.695312 130.226562 C 124.75 130.230469 124.800781 130.199219 124.824219 130.152344 C 124.847656 130.101562 124.875 130.039062 124.90625 129.96875 C 124.984375 129.785156 125.050781 129.59375 125.109375 129.398438 C 125.1875 129.160156 125.25 128.925781 125.296875 128.699219 C 125.335938 128.546875 125.363281 128.386719 125.375 128.226562 C 125.378906 128.175781 125.359375 128.125 125.328125 128.082031 C 125.296875 128.046875 125.257812 128.023438 125.210938 128.015625 C 125.160156 128.003906 125.109375 128.023438 125.074219 128.058594 C 125.03125 128.105469 124.996094 128.15625 124.96875 128.210938 C 124.835938 128.457031 124.695312 128.699219 124.539062 128.929688 C 124.421875 129.101562 124.277344 129.25 124.109375 129.367188 C 123.9375 129.472656 123.742188 129.542969 123.542969 129.570312 C 123.277344 129.609375 123.007812 129.628906 122.738281 129.625 L 121.625 129.625 C 121.28125 129.625 121.03125 129.554688 120.871094 129.40625 C 120.710938 129.261719 120.628906 129 120.628906 128.617188 L 120.628906 125.730469 C 120.628906 125.5625 120.671875 125.453125 120.757812 125.40625 C 120.878906 125.351562 121.011719 125.332031 121.140625 125.335938 L 122.542969 125.335938 C 122.742188 125.335938 122.894531 125.390625 122.996094 125.503906 C 123.113281 125.652344 123.195312 125.828125 123.234375 126.011719 C 123.316406 126.332031 123.433594 126.496094 123.582031 126.496094 C 123.632812 126.5 123.679688 126.46875 123.695312 126.417969 C 123.710938 126.359375 123.71875 126.296875 123.71875 126.238281 C 123.71875 126.199219 123.714844 126.101562 123.710938 125.953125 C 123.707031 125.804688 123.699219 125.644531 123.695312 125.480469 C 123.6875 125.3125 123.6875 125.179688 123.6875 125.082031 C 123.6875 125 123.691406 124.886719 123.703125 124.734375 C 123.714844 124.585938 123.71875 124.441406 123.726562 124.296875 C 123.730469 124.15625 123.734375 124.066406 123.734375 124.027344 C 123.738281 123.960938 123.714844 123.898438 123.664062 123.847656 C 123.632812 123.8125 123.585938 123.792969 123.535156 123.789062 C 123.417969 123.789062 123.328125 123.898438 123.265625 124.117188 C 123.195312 124.398438 123.105469 124.589844 122.996094 124.695312 C 122.886719 124.800781 122.683594 124.855469 122.394531 124.855469 L 120.902344 124.855469 C 120.828125 124.855469 120.757812 124.816406 120.714844 124.757812 C 120.660156 124.691406 120.628906 124.609375 120.628906 124.523438 L 120.628906 121.335938 C 120.632812 121.191406 120.714844 121.058594 120.839844 120.988281 C 120.9375 120.914062 121.050781 120.871094 121.171875 120.855469 L 123.144531 120.855469 C 123.328125 120.855469 123.511719 120.882812 123.6875 120.9375 C 123.871094 121 124.03125 121.113281 124.152344 121.261719 C 124.238281 121.359375 124.300781 121.476562 124.335938 121.597656 C 124.382812 121.753906 124.433594 121.917969 124.484375 122.089844 C 124.5 122.128906 124.519531 122.167969 124.542969 122.203125 C 124.570312 122.230469 124.609375 122.242188 124.648438 122.238281 C 124.699219 122.238281 124.75 122.222656 124.792969 122.195312 C 124.84375 122.148438 124.871094 122.082031 124.859375 122.011719 C 124.855469 121.773438 124.832031 121.535156 124.785156 121.296875 C 124.734375 121.023438 124.683594 120.746094 124.636719 120.464844 C 124.625 120.410156 124.582031 120.371094 124.53125 120.359375 C 124.476562 120.339844 124.421875 120.328125 124.367188 120.328125 C 124.324219 120.328125 124.1875 120.332031 123.953125 120.335938 C 123.714844 120.34375 123.425781 120.347656 123.085938 120.359375 C 122.773438 120.359375 122.4375 120.363281 122.070312 120.367188 C 121.703125 120.375 121.351562 120.375 121.023438 120.375 C 120.671875 120.375 120.367188 120.375 120.109375 120.367188 C 119.855469 120.363281 119.59375 120.355469 119.328125 120.34375 C 119.0625 120.335938 118.738281 120.328125 118.355469 120.328125 C 118.25 120.324219 118.144531 120.339844 118.039062 120.367188 C 117.972656 120.375 117.925781 120.429688 117.917969 120.496094 C 117.921875 120.574219 117.96875 120.640625 118.039062 120.675781 C 118.15625 120.738281 118.285156 120.777344 118.417969 120.796875 C 118.796875 120.867188 119.0625 120.976562 119.207031 121.125 C 119.355469 121.273438 119.425781 121.53125 119.425781 121.894531 L 119.425781 128.660156 C 119.425781 129.019531 119.335938 129.28125 119.15625 129.441406 C 118.976562 129.601562 118.695312 129.71875 118.3125 129.789062 C 117.980469 129.847656 117.816406 129.9375 117.816406 130.058594 C 117.820312 130.125 117.871094 130.179688 117.933594 130.1875 C 118.039062 130.214844 118.144531 130.226562 118.253906 130.222656 C 118.523438 130.222656 118.742188 130.214844 118.914062 130.199219 Z M 118.910156 130.207031 " fill-opacity="1" fill-rule="evenodd"/><path fill="#f0bb62" d="M 88.101562 43.757812 C 88.082031 43.640625 88.101562 43.578125 88.171875 43.484375 C 88.300781 43.316406 88.980469 42.984375 89.230469 42.730469 C 91.464844 40.460938 88.582031 38.179688 86.148438 38.46875 C 82.144531 38.949219 81.960938 42.933594 84.984375 45.050781 C 89.117188 47.941406 99.382812 48.132812 102.957031 44.296875 C 105.261719 41.820312 104.140625 38.753906 100.792969 38.449219 C 98.054688 38.199219 95.53125 40.792969 98.207031 43.023438 C 98.488281 43.261719 99 43.371094 98.980469 43.753906 C 97.191406 43.777344 95.261719 41.972656 95.683594 40.121094 C 96.695312 35.6875 105.617188 36.207031 105.773438 41.175781 C 105.886719 44.691406 101.859375 46.640625 98.921875 47.277344 C 94.285156 48.28125 84.464844 48.230469 81.859375 43.394531 C 78.738281 37.605469 88.902344 34.675781 91.164062 39.507812 C 92.144531 41.601562 90.195312 43.714844 88.097656 43.753906 Z M 88.101562 43.757812 " fill-opacity="1" fill-rule="nonzero"/><path fill="#f0bb62" d="M 83.160156 54.757812 C 83.03125 54.734375 82.417969 54.789062 82.386719 54.757812 C 82.355469 54.726562 82.3125 54.066406 82.273438 53.910156 C 81.519531 50.722656 79.613281 48.097656 76.171875 47.605469 C 74.285156 47.335938 71.417969 48.042969 71.273438 50.335938 C 71.105469 53.011719 74.804688 53.691406 76.730469 52.46875 C 76.96875 52.316406 77.816406 51.4375 77.988281 51.605469 C 78.011719 53.136719 75.9375 54.078125 74.621094 54.210938 C 70.832031 54.59375 67.371094 50.605469 70.851562 47.683594 C 72.976562 45.898438 76.089844 46.011719 78.503906 47.128906 C 81.535156 48.535156 82.910156 51.5625 83.160156 54.757812 Z M 83.160156 54.757812 " fill-opacity="1" fill-rule="nonzero"/><path fill="#f0bb62" d="M 104.695312 54.757812 C 104.667969 54.785156 103.921875 54.769531 103.921875 54.71875 C 104.148438 52 105.1875 49.269531 107.539062 47.707031 C 109.792969 46.210938 113.175781 45.714844 115.554688 47.199219 C 120.320312 50.171875 116.015625 55.515625 111.335938 53.949219 C 110.570312 53.691406 109.089844 52.761719 109.085938 51.875 C 109.085938 51.0625 109.769531 52.058594 110.019531 52.261719 C 111.804688 53.695312 115.597656 53.257812 115.8125 50.648438 C 115.992188 48.472656 113.339844 47.445312 111.523438 47.53125 C 107.773438 47.707031 105.582031 50.585938 104.792969 53.976562 C 104.753906 54.148438 104.722656 54.730469 104.695312 54.757812 Z M 104.695312 54.757812 " fill-opacity="1" fill-rule="nonzero"/><path fill="#f0bb62" d="M 91.851562 35.863281 C 90.421875 34.292969 90.714844 32.382812 92.226562 30.984375 C 92.558594 30.679688 93.296875 30.113281 93.753906 30.238281 C 93.996094 30.304688 94.804688 30.933594 95.011719 31.136719 C 96.714844 32.828125 96.507812 35.152344 94.53125 36.511719 C 94.351562 36.636719 93.941406 36.921875 93.753906 36.96875 C 93.09375 37.121094 92.261719 36.3125 91.851562 35.863281 Z M 93.71875 32.003906 C 93.210938 31.710938 92.6875 33.125 92.652344 33.484375 C 92.597656 34.035156 92.804688 34.714844 93.152344 35.144531 C 93.511719 35.585938 93.636719 35.507812 93.953125 35.085938 C 94.359375 34.546875 94.535156 33.890625 94.390625 33.214844 C 94.355469 33.046875 93.820312 32.0625 93.71875 32.003906 Z M 93.71875 32.003906 " fill-opacity="1" fill-rule="nonzero"/><path fill="#f0bb62" d="M 85.824219 54.757812 C 85.703125 54.722656 85.007812 53.988281 84.90625 53.824219 C 84.339844 52.90625 84.253906 51.980469 84.652344 50.972656 C 85.644531 48.457031 89.957031 47.789062 91.953125 49.417969 C 92.398438 49.777344 92.992188 50.5625 92.796875 51.167969 C 92.621094 51.710938 92.171875 50.671875 92.070312 50.535156 C 89.871094 47.574219 82.839844 50.902344 86.765625 54.285156 L 87.640625 54.757812 C 87.167969 54.671875 86.234375 54.875 85.824219 54.757812 Z M 85.824219 54.757812 " fill-opacity="1" fill-rule="nonzero"/><path fill="#f0bb62" d="M 99.445312 54.757812 L 100.367188 54.25 C 102.304688 52.714844 101.390625 50.316406 99.210938 49.644531 C 97.910156 49.242188 95.554688 49.367188 94.839844 50.742188 C 94.722656 50.972656 94.734375 51.511719 94.382812 51.226562 C 93.90625 50.835938 94.703125 49.785156 95.042969 49.488281 C 96.980469 47.800781 101.230469 48.40625 102.355469 50.816406 C 102.792969 51.753906 102.71875 53.054688 102.101562 53.90625 C 102.027344 54.011719 101.320312 54.757812 101.257812 54.757812 Z M 99.445312 54.757812 " fill-opacity="1" fill-rule="nonzero"/><path fill="#f0bb62" d="M 93.484375 39.457031 C 93.824219 39.410156 94.894531 40.664062 95.082031 40.992188 C 95.785156 42.253906 95.636719 43.757812 94.453125 44.667969 C 93.679688 45.261719 93.40625 45.257812 92.628906 44.667969 C 91.328125 43.679688 91.304688 42.0625 92.160156 40.761719 C 92.332031 40.503906 93.234375 39.492188 93.484375 39.457031 Z M 93.476562 40.917969 C 93.300781 40.964844 92.863281 41.773438 92.824219 41.96875 C 92.714844 42.484375 92.789062 43.769531 93.347656 44.023438 C 94.097656 44.367188 94.3125 42.820312 94.277344 42.332031 C 94.25 42.011719 93.867188 40.816406 93.476562 40.917969 Z M 93.476562 40.917969 " fill-opacity="1" fill-rule="nonzero"/><path fill="#f0bb62" d="M 93.40625 51.617188 L 93.675781 51.617188 C 94.308594 51.980469 95.089844 52.105469 95.726562 52.421875 C 96.238281 52.671875 96.945312 53.292969 95.929688 53.371094 C 94.917969 53.453125 94.292969 52.835938 93.539062 52.292969 C 93.035156 52.625 92.632812 53.070312 92.03125 53.253906 C 91.691406 53.355469 90.488281 53.570312 90.65625 52.964844 C 90.816406 52.398438 92.902344 51.957031 93.40625 51.617188 Z M 93.40625 51.617188 " fill-opacity="1" fill-rule="nonzero"/><path fill="#f0bb62" d="M 61.859375 54.757812 L 62.941406 54.183594 C 64.542969 53.65625 66.207031 53.664062 67.726562 54.410156 C 67.890625 54.492188 68.164062 54.605469 68.265625 54.757812 Z M 61.859375 54.757812 " fill-opacity="1" fill-rule="nonzero"/><path fill="#f0bb62" d="M 118.742188 54.757812 L 119.824219 54.183594 C 121.355469 53.640625 123.089844 53.691406 124.554688 54.382812 L 125.222656 54.757812 Z M 118.742188 54.757812 " fill-opacity="1" fill-rule="nonzero"/><path fill="#f0bb62" d="M 91.1875 54.757812 C 91.589844 54.398438 92.09375 54.183594 92.535156 53.832031 C 92.792969 53.625 93.308594 52.953125 93.617188 52.984375 C 93.71875 52.996094 94.6875 54.042969 94.941406 54.128906 L 96.125 54.757812 L 94.773438 54.757812 C 94.628906 54.757812 93.761719 53.847656 93.539062 53.753906 C 93.40625 53.753906 92.460938 54.757812 92.304688 54.757812 L 91.183594 54.757812 Z M 91.1875 54.757812 " fill-opacity="1" fill-rule="nonzero"/><path fill="#f0bb62" d="M 93.730469 42.375 C 93.769531 42.523438 93.859375 42.96875 93.722656 43.054688 C 93.214844 43.375 93.007812 42.246094 93.730469 42.375 Z M 93.730469 42.375 " fill-opacity="1" fill-rule="nonzero"/><path fill="#f0bb62" d="M 104.695312 132.230469 C 105.003906 134.65625 106.152344 137.214844 108.347656 138.476562 C 110.042969 139.453125 112.34375 139.835938 114.148438 138.921875 C 116.0625 137.957031 116.476562 135.59375 114.519531 134.398438 C 113.085938 133.519531 111.183594 133.835938 109.90625 134.851562 C 109.738281 134.984375 109.09375 135.808594 109.089844 135.121094 C 109.085938 134.171875 110.644531 133.253906 111.453125 133.007812 C 115.914062 131.640625 120.21875 136.5625 115.832031 139.601562 C 113.757812 141.039062 111.042969 140.925781 108.800781 139.945312 C 105.605469 138.550781 104.195312 135.578125 103.925781 132.230469 Z M 104.695312 132.230469 " fill-opacity="1" fill-rule="nonzero"/><path fill="#f0bb62" d="M 83.160156 132.230469 C 82.886719 135.90625 81.195312 139.003906 77.566406 140.234375 C 75.023438 141.101562 71.070312 140.703125 69.777344 137.992188 C 67.753906 133.742188 74.972656 130.859375 77.605469 134.269531 C 77.746094 134.457031 78.277344 135.378906 77.875 135.464844 C 77.753906 135.488281 77.113281 134.761719 76.933594 134.628906 C 74.933594 133.171875 70.871094 134.035156 71.292969 136.867188 C 71.636719 139.179688 74.730469 139.703125 76.628906 139.300781 C 80.089844 138.570312 81.972656 135.554688 82.386719 132.230469 Z M 83.160156 132.230469 " fill-opacity="1" fill-rule="nonzero"/><path fill="#f0bb62" d="M 101.296875 132.230469 C 102.175781 132.960938 102.855469 134.0625 102.667969 135.25 C 102.175781 138.363281 97.359375 139.386719 95.128906 137.570312 C 94.6875 137.210938 94.09375 136.429688 94.289062 135.820312 C 94.460938 135.277344 94.910156 136.316406 95.015625 136.457031 C 96.3125 138.207031 100.191406 137.785156 101.175781 135.839844 C 101.980469 134.242188 100.96875 133.0625 99.675781 132.230469 L 101.300781 132.230469 Z M 101.296875 132.230469 " fill-opacity="1" fill-rule="nonzero"/><path fill="#f0bb62" d="M 87.636719 132.230469 C 84.878906 133.273438 85.074219 136.496094 87.871094 137.347656 C 89.171875 137.746094 91.53125 137.621094 92.242188 136.246094 C 92.363281 136.015625 92.347656 135.476562 92.699219 135.765625 C 93.179688 136.15625 92.378906 137.207031 92.039062 137.503906 C 90.105469 139.1875 85.855469 138.582031 84.726562 136.171875 C 84.039062 134.703125 84.609375 133.226562 85.785156 132.230469 L 87.640625 132.230469 Z M 87.636719 132.230469 " fill-opacity="1" fill-rule="nonzero"/><path fill="#f0bb62" d="M 68.339844 132.230469 C 66.433594 133.507812 63.769531 133.480469 61.859375 132.230469 Z M 68.339844 132.230469 " fill-opacity="1" fill-rule="nonzero"/><path fill="#f0bb62" d="M 125.222656 132.230469 C 123.371094 133.445312 120.636719 133.558594 118.816406 132.230469 Z M 125.222656 132.230469 " fill-opacity="1" fill-rule="nonzero"/><path fill="#f0bb62" d="M 92.34375 132.230469 C 92.488281 132.398438 93.433594 133.304688 93.527344 133.296875 L 94.816406 132.230469 L 96.128906 132.230469 C 95.535156 132.46875 95 132.796875 94.503906 133.195312 C 94.253906 133.394531 93.773438 134.035156 93.464844 134.003906 C 93.402344 134 92.6875 133.277344 92.535156 133.160156 C 92.097656 132.808594 91.597656 132.597656 91.1875 132.230469 Z M 92.34375 132.230469 " fill-opacity="1" fill-rule="nonzero"/><path fill="#f0bb62" d="M 98.980469 143.230469 C 99.003906 143.632812 98.476562 143.738281 98.207031 143.960938 C 96.625 145.269531 96.667969 147.105469 98.566406 148.066406 C 101.554688 149.582031 105.683594 147.046875 103.691406 143.652344 C 102.121094 140.972656 97.808594 140.054688 94.925781 139.769531 C 91.484375 139.433594 84.460938 140.539062 83.101562 144.289062 C 81.769531 147.976562 87.050781 149.867188 89.414062 147.425781 C 90.546875 146.253906 89.972656 144.878906 88.871094 143.960938 C 88.589844 143.726562 88.082031 143.613281 88.101562 143.230469 C 89.882812 143.195312 91.816406 145.03125 91.398438 146.863281 C 90.386719 151.300781 81.464844 150.78125 81.308594 145.8125 C 81.195312 142.296875 85.222656 140.347656 88.160156 139.710938 C 92.796875 138.703125 102.613281 138.757812 105.222656 143.589844 C 108.34375 149.375 98.179688 152.316406 95.917969 147.480469 C 94.9375 145.382812 96.886719 143.269531 98.984375 143.230469 Z M 98.980469 143.230469 " fill-opacity="1" fill-rule="nonzero"/><path fill="#f0bb62" d="M 93.332031 150.023438 C 94.054688 149.851562 95.285156 151.015625 95.648438 151.59375 C 96.640625 153.171875 96.078125 155.011719 94.699219 156.15625 C 94.507812 156.3125 93.832031 156.757812 93.617188 156.777344 C 93.328125 156.804688 93.125 156.640625 92.890625 156.496094 C 91.207031 155.4375 90.238281 153.339844 91.464844 151.546875 C 91.777344 151.09375 92.796875 150.148438 93.332031 150.023438 Z M 93.363281 154.984375 C 93.863281 155.269531 94.390625 153.878906 94.429688 153.503906 C 94.484375 152.953125 94.277344 152.273438 93.933594 151.847656 C 93.585938 151.417969 93.445312 151.484375 93.132812 151.902344 C 92.726562 152.445312 92.546875 153.101562 92.691406 153.773438 C 92.726562 153.941406 93.261719 154.925781 93.367188 154.988281 Z M 93.363281 154.984375 " fill-opacity="1" fill-rule="nonzero"/><path fill="#f0bb62" d="M 93.410156 141.867188 C 93.824219 141.769531 94.707031 142.480469 94.964844 142.8125 C 96.136719 144.304688 95.25 146.3125 93.890625 147.347656 C 93.535156 147.621094 93.496094 147.570312 93.15625 147.304688 C 91.621094 146.109375 90.824219 143.808594 92.539062 142.386719 C 92.691406 142.261719 93.238281 141.902344 93.40625 141.867188 Z M 93.402344 142.9375 C 92.773438 143.125 92.742188 144.59375 92.890625 145.113281 C 92.980469 145.433594 93.339844 146.285156 93.726562 145.957031 C 94.25 145.519531 94.355469 144.523438 94.277344 143.882812 C 94.230469 143.523438 93.835938 142.8125 93.402344 142.9375 Z M 93.402344 142.9375 " fill-opacity="1" fill-rule="nonzero"/><path fill="#f0bb62" d="M 91.011719 133.636719 C 92.035156 133.445312 92.785156 134.148438 93.539062 134.695312 C 94.0625 134.351562 94.476562 133.890625 95.109375 133.714844 C 96.371094 133.371094 97.070312 133.929688 95.679688 134.59375 C 95.460938 134.699219 93.65625 135.390625 93.539062 135.390625 C 93.441406 135.390625 91.890625 134.800781 91.675781 134.707031 C 91.300781 134.546875 89.957031 133.832031 91.011719 133.632812 Z M 91.011719 133.636719 " fill-opacity="1" fill-rule="nonzero"/><path fill="#f0bb62" d="M 93.734375 144 C 93.777344 144.042969 93.789062 144.640625 93.464844 144.539062 C 93.328125 144.496094 93.308594 144.179688 93.382812 144.074219 C 93.441406 143.992188 93.707031 143.976562 93.734375 144 Z M 93.734375 144 " fill-opacity="1" fill-rule="nonzero"/></svg>