<?xml version="1.0" encoding="UTF-8"?>
<svg id="Layer_1" data-name="Layer 1" xmlns="http://www.w3.org/2000/svg" width="343" height="261.1449890137" xmlns:xlink="http://www.w3.org/1999/xlink" viewBox="0 0 343 261.1449890137">
  <defs>
    <linearGradient id="linear-gradient" x1="174.6856166103" y1="186.2195631472" x2="166.6724247672" y2="-.4907086433" gradientUnits="userSpaceOnUse">
      <stop offset="0" stop-color="#ffbb73"/>
      <stop offset="1" stop-color="#fff"/>
    </linearGradient>
    <clipPath id="clippath">
      <path d="M274.5014571795,133.4711363591c0,2.1545263048-9.4435514689,5.3757878336-12.8508063121,7.2894047875-12.2481535653,6.878910429-44.5074323696,11.7910900315-82.3762947515,11.7910900315-48.4034296748,0-87.642155705-8.025316462-87.642155705-17.9250783969,0-1.7393844824-8.123956306-7.2271856796-8.9500666969-11.7528670125-1.1414740017-6.2533048864,5.5804657946-12.084164793,12.2741414238-16.3861987836,16.035077742-10.3055139833,56.1693415806-11.2920093212,84.3180809781-11.2920093212,34.3873429652,0,81.9018932657,5.9613682793,96.2546647806,18.1429401209,5.8502083838,4.9651986289-1.027563717,17.2659921453-1.027563717,20.1327185743Z" style="fill: none;"/>
    </clipPath>
  </defs>
  <path d="M175.241021515,200.812792774s-88.3436381908,2.7864865429-105.754744584-38.3768595918c-17.4111063932-41.1632512885-17.0656765374-121.0744005075,64.3492571438-140.7039599849,83.3046493447-20.0852006275,123.5030292136,4.062167948,140.6937130409,42.6329880211,17.1906838273,38.5707252269,16.9221742387,150.8602808938-99.2882256008,136.4478315556Z" style="fill: url(#linear-gradient);"/>
  <path d="M232.0630946352,53.657583881s-3.6990965966,1.3251911221-.9185854347,5.5725937009c1.6997387274,2.5964147558,5.6504622893,2.4813663138,8.1386574668,1.4638562682,3.3305242684-1.3619914482,2.3397608765-7.2937677128,1.8912332027-8.2607247332-1.1578823941-2.496541706-4.406080162-1.4648995764-4.406080162-1.4648995764,0,0-1.1021128292-1.75142995-2.8542066584-.756398454-1.7521886753.9949366498-2.1741594135,2.5499401173-1.8510184144,3.4455727945Z" style="fill: #311e69;"/>
  <path d="M229.6422402588,66.8583729998s-4.8485376791,7.9790315159-8.9526275443,8.1339153623c-4.1040898652.1547890002-16.8659126915-6.0427463199-18.5072439119-3.8718116223-1.6412958005,2.1709346976,9.8344126539,12.6220375996,18.8170297822,11.8477132136,8.9824859116-.7744192322,8.6428416739-16.1098169536,8.6428416739-16.1098169536Z" style="fill: #ad263d;"/>
  <path d="M244.129143499,166.5883947137c.3914302622,3.6480694339,3.4448139379,14.2569964146,3.3708339028,14.4110266452-.0600376438.1249124469-1.5268341071.6289251597-2.6771100182,1.2426749271-.5109552597.4612370761-1.0076648024,1.0510856009-.4441835358,1.2230417635.9650600721.2945923007,6.5998727386.2092307197,7.1141288281-.7316435955.1725252355-.3155533111.3933271861-.5664215131.6399273028-.7623737646-.6013248999-.857789043,3.6634344259-15.1339443902,1.0246234849-18.1186594934,0,0-9.1887945791,1.2401140797-9.0282199647,2.7359335177Z" style="fill: #ff6161;"/>
  <path d="M251.4928126759,182.7334944541c-.5142560895.9408743152-6.149068756,1.0262358962-7.1141288281.7316435955-.5634812667-.1719561626-.0667717239-.7618046874.4441835358-1.2230417635-1.7263144502.9209566129-3.8567497661,2.107008358-3.9217194122,2.7030218859-.1082956736.9930397258,10.1434215693.8005967837,11.8318925861-.1864676314.8830181325-.5161530265.2429769742-1.5848800208-.6003005787-2.7875298511-.2466001167.1959522515-.4674020673.4468204535-.6399273028.7623737646Z" style="fill: #311e69;"/>
  <path d="M253.1573634636,163.852461196s-2.177289338.2939283773-4.3935604637.7680645367c.0758010014.6722698736.1783108536,1.3198797349.3132769944,1.9126684919.8808366476,3.8690610825,2.1591737141,9.0094406449,1.9380872248,10.9439237631-.1523229952,1.3323045872.61280129,2.7692245343,1.1041045994,3.5349179159.4030963446-3.4145580867,3.3346026549-14.5621166436,1.0380916451-17.1595747076Z" style="fill: #ad263d;"/>
  <path d="M220.3939771131,165.9251352292c.3915251084,3.6480694339,4.9154990954,14.9202558991,4.8415190603,15.0742861297-.060019353.1249124469-1.5268341071.6289251597-2.6771288053,1.2426749271-.5109182608.4612370761-1.0075511691,1.0510856009-.4441647487,1.2230417635.9650600721.2945923007,6.5998727386.2092307197,7.1142236743-.7316435955.1724487868-.3155533111.3932323399-.5664215131.6399273028-.7623737646-.6014197461-.857789043,3.6634344259-15.1339443902,1.0246234849-18.1186594934,0,0-10.6594797366.576759749-10.4989999684,2.0726740332Z" style="fill: #ff6161;"/>
  <path d="M230.8929770815,163.852461196s-2.2926039384.1241536773-4.7352913178.4064159718c-.1741193097,1.196864212.4545029843,2.288069756.4545029843,2.288069756,0,0,.7461550454,3.9382039631.7047072566,7.6691689768-.0414477888,3.7308701675,2.4936014108,7.3373969653,2.4936014108,7.3373969653h.0001896924c.0644189784-2.543680268,3.520785743-14.9429241411,1.0822899737-17.7010516699Z" style="fill: #ad263d;"/>
  <path d="M229.2284262938,182.7334944541c-.5143509357.9408743152-6.1491636022,1.0262358962-7.1142236743.7316435955-.5633864205-.1719561626-.0667535121-.7618046874.4441647487-1.2230417635-1.7262956631.9209566129-3.8567309789,2.107008358-3.9217006251,2.7030218859-.1083143589.9930397258,10.1435164155.8005967837,11.8318735991-.1864676314.8830181102-.5161530265.2429959611-1.5848800208-.6001867456-2.7875298511-.2466949629.1959522515-.467478516.4468204535-.6399273028.7623737646Z" style="fill: #311e69;"/>
  <path d="M249.3292760367,102.3338872992c-1.1622453192-3.002546189-2.2250918222-4.60165314-3.5588951039-6.4601644511-8.528209616,6.8773928898-20.6310588049,3.807031667-25.2201921304,2.3963841176-2.7791833152,7.8542139152-7.9269607512,35.4143384996-8.0602196604,40.9029933126-.3416180461,14.0767886324-.7245301121,27.5718855134,4.9745882772,29.5745630501,2.6410872498.9279752318,15.0124460273.9100492998,16.2329269126-1.1886125925.2847282886-.4895960902-3.989420811-27.3474794015-4.0535368413-30.0604601385-.0390766339-1.6511775154.5150148591-20.3780856966,1.5282568001-20.4069189418-.0293074754,2.7392531347,2.0044980569,43.6228029761,5.8015522839,50.1559041558,3.7921407176,2.7420036745,18.229534242.3345225514,19.1816952311-.8802675926,1.9898732493-2.5384637269-1.8877997138-12.2965254373-4.7599513294-23.2145561875-.5436584111-2.0666038763.9184905885-33.1083428117-2.0662244393-40.8188647322Z" style="fill: #d8e7eb;"/>
  <path d="M212.3926569421,153.6942433631c.0497173773,1.41662286.1288011379,2.7718802279.2462207319,4.0501224805,3.4724141817.3496030973,9.0555356699.7792563884,15.530893716.7792563884,1.419070459,0,2.8820730744-.0215300877,4.373814088-.0681944186-.1855191647-1.2837433322-.3827992581-2.6363450065-.5839680456-4.0118046152-8.3151662426.2259236511-15.6775075728-.3518794062-19.5669604903-.7493798351Z" style="fill: #7366ed;"/>
  <path d="M253.7670348291,151.4897331103c-6.2308261793,1.78538489-13.1750854655,2.5951817552-19.6841903919,2.878961589.1870367039,1.4026804684.3826095657,2.7449439068.5869082777,4.0026993799,6.6461576836-.3171656966,13.7462492743-1.1830166666,20.2186487218-3.0478826732-.3475922857-1.2173509914-.7269770902-2.5005252465-1.1213666076-3.8337782957Z" style="fill: #7366ed;"/>
  <path d="M230.2611301248,142.6712178683c-6.911442676-.1323104506-13.2961276344-.8245928726-17.8203861599-1.4566479569-.0322477076,1.3615172172-.0619166003,2.7122219674-.0836543473,4.0427244768,4.7549244809.6609831756,11.3433208294,1.3557315989,18.4752807429,1.4495344918-.2086616372-1.4488705684-.402811806-2.8156043266-.5712402357-4.0356110117Z" style="fill: #7366ed;"/>
  <path d="M251.395500476,143.1527520314c-.0754975742-.2869097584-.1122978993-1.1340760269-.1276629835-2.3981861955-5.825453526,1.4217445549-12.2811600425,1.9268954221-18.4577341962,1.9390357358.1218958521,1.3452985168.2504888108,2.6900279563.385644644,4.0192974651,6.1840670034-.0389817887,12.6578891438-.5699308226,18.6231459667-1.986269144-.1428383753-.5217489524-.2845385962-1.045963906-.4233934311-1.5738778615Z" style="fill: #7366ed;"/>
  <path d="M231.8305317559,130.0290728741c.0847161165,1.2929434137.1776653936,2.6426048558.2783735933,4.0295408548.5339840988.0070186189,1.0707187375.0110970055,1.6103172686.0110970055,5.7905316182,0,11.8687502638-.4213068254,17.5662562677-1.5895274847.0055959257-1.3014795718.0093897737-2.6719123319.0080619269-4.0852155749-6.2147023256,1.3604739089-13.0550101779,1.7416607913-19.4630090565,1.6341051992Z" style="fill: #7366ed;"/>
  <path d="M229.8574462838,129.9806064653c-6.1698400736-.1987027914-11.8175518231-.8150134063-15.9575883976-1.3884535383-.2368129583,1.4073279323-.450993675,2.7392531347-.6368922245,3.9652351305,4.2536804179.6015146075,10.0634662238,1.2452357746,16.4488917071,1.4475427216.0354724783-1.1787485876.0842234245-2.563503124.145588915-4.0243243138Z" style="fill: #7366ed;"/>
  <path d="M231.1927859157,118.0961877719c.0289280906.8976244475.08782758,2.2850346775.1762242372,4.0348522421,1.2660070606.0386972501,2.5541317974.0601324915,3.8570155175.0601324915,5.2617825669,0,10.7610600154-.3479907119,15.9964753391-1.2876320265-.0273157052-1.3611378324-.0644005689-2.715826123-.1135308999-4.0433884002-6.4613972884,1.2148849902-13.4768860699,1.4517159544-19.916184194,1.2360356931Z" style="fill: #1c7d88;"/>
  <path d="M230.7789903829,118.0812020721c-5.6151979357-.2057214102-10.7672434507-.7482416807-14.7002127124-1.2759659437-.2632162625,1.3162755792-.5210082306,2.6385264691-.7700743485,3.9488267377,3.9908435039.5502976589,9.238891647,1.1188057885,15.0030562536,1.3403665143.1363888338-1.6912974585.2924108307-3.1211039404.4672308073-4.0132273082Z" style="fill: #7366ed;"/>
  <path d="M250.5653116986,108.6385039804c-.1596261525-1.4801698148-.3532072441-2.817216712-.5872876625-3.9575525882-10.6995996787,1.9158932627-22.8223665693,1.21289322-31.2993404269.2466949691-.3019902968,1.2351820773-.610904366,2.5583814292-.9219050517,3.9424720422,4.7303593154.5600668176,10.630551646,1.045963906,16.8652665195,1.045963906,5.2438566354,0,10.7237854594-.3450504797,15.9432666216-1.2775783292Z" style="fill: #1c7d88;"/>
  <path d="M249.3292760367,102.3338872992c-1.1622453192-3.002546189-2.2250918222-4.60165314-3.5588951039-6.4601644511-1.5646965515,1.2618338598-13.8976426185,2.5628392006-15.6345610558,3.2266677623,4.0210994413,6.7156801169,9.8661861304,5.8865346267,11.5658300117,8.9541453097,5.7693994225,10.4131644216,4.3256505855,22.3855055434,2.4253121477,31.008068534-1.2975908448,5.8882418583,1.4852914721,20.5395139309,3.3808875999,29.2400404988,4.2494890879-.4051829712,8.166921634-1.3220611975,8.6476970154-1.935336734,1.9897784031-2.5384637269-1.8880084319-12.2965254373-4.7600461756-23.2145561875-.5436584111-2.0666038763.9184905885-33.1083428117-2.0662244393-40.8188647322Z" style="fill: #aac8ce;"/>
  <path d="M254.3574524162,153.4920312623c-.0164083924-.0559592587-.0330064772-.1123927483-.0495097157-.1686365456-.0738851888-.2517218178-.1485291472-.5052457134-.2240267214-.7612356102-.0323425538-.1094525161-.0646851075-.2190947246-.0973121999-.3293060103-.0658232619-.2229834188-.1318362162-.4463462225-.1987027863-.6723647198-.0069237725-.0236167041-.0139423912-.047138562-.0208661637-.070755266-2.8966977554.8299991061-5.9479759519,1.4469736444-9.0376097383,1.900433332.1919687062,1.3132405008.40470873,2.6413718551.6302717912,3.9600185894,3.2404015789-.4831465485,6.4554980234-1.1412843381,9.5287045547-2.0266736257-.0856461175-.3001882266-.1733788513-.6044548398-.2627239705-.9124204548-.0056907719-.0196331636-.01147639-.0395508659-.0172620082-.0591840295-.0823265005-.2835901414-.1659808478-.5702153612-.2509630418-.8598756594Z" style="fill: #614cd4;"/>
  <path d="M251.3705559258,143.0284086617c-.0064495415-.0404993279-.0125196982-.0870688126-.0184001626-.1378115302-.0011381544-.0099588511-.0022763088-.019822856-.0034144632-.0302559382-.0055010795-.0512169486-.0107176205-.1071762073-.0156306712-.1677829298-.001157106-.0133733144-.0022004142-.0274105521-.0032437223-.0412580975-.0047423099-.0620294155-.0092000813-.1276629867-.0134681602-.1987027914-.0008536158-.0157444694-.0018020778-.0328167856-.0026556936-.049035486-.0038886941-.0685738034-.0074928497-.1404672239-.0108124667-.2167235696-.0007587696-.0180207782-.0016123854-.0364209412-.002371155-.0548211042-.0030350784-.0739800369-.0058804643-.151848768-.0086310041-.2323731928-.0008536158-.0257981667-.0017072316-.0507427176-.0025608474-.0772048077-.0026556936-.0850770424-.0050268485-.1745170101-.0073031573-.266422979-.0007587696-.0336704014-.0016123854-.067435649-.002371155-.1019596662-.0020866164-.0908626607-.0039835403-.184855246-.0056907719-.2817880635-.0006449733-.0402147893-.0013278468-.0813780406-.0019917702-.1226361381-.0014985892-.0959843555-.0029402322-.1936759427-.0041732327-.2950665317-2.4010315208.5859598306-4.9097134772,1.0140955824-7.4611710693,1.3183621956-.0350930935,1.2074869865.0051404563,2.5636928164.1038565876,4.0193923113,2.6877515796-.3128976175,5.3450575294-.7570623774,7.9083708963-1.36569045-.1428383753-.5218437986-.2845385962-1.045963906-.4233934311-1.5738778615-.0078722345-.0296868609-.0151753918-.066961418-.0221940105-.1085989003-.0008536158-.0054062335-.0018020778-.0101485435-.0027505398-.0157444694Z" style="fill: #614cd4;"/>
  <path d="M251.2935408124,128.3949676749c-1.8401111016.4028118162-3.7357072294.7178908963-5.6578414852.9617404794-.1110837064,1.3988866204-.2725119366,2.765810071-.4672311826,4.0905269621,2.0665089779-.2401505813,4.1154714091-.5566523544,6.1170107409-.9670518667.0000948462-.0105279283.0000948462-.0209610105.0000948462-.031583785.0041732327-.958705401.0073031573-1.9545905128.0080619269-2.9775067919v-.05093241c.0002845386-.33480709.0001896924-.6722698736-.0000948462-1.0123883508v-.0128042372Z" style="fill: #614cd4;"/>
  <path d="M251.1089701097,116.8601520788c-1.9546853096.3674341832-3.960303028.644195398-5.9850796784.8472611147.2496351951,1.3263292765.4228243539,2.6536070151.5311387129,3.9737712886,1.8736866559-.1943398661,3.7368453837-.4490967623,5.5674718654-.777644003v-.000948462c-.0274105514-1.3607584475-.0644005689-2.7151621996-.1135308999-4.0424399382Z" style="fill: #1c7d88;"/>
  <path d="M238.7481392603,105.8197697292c1.3091620811.5943062963,2.3732415846,1.1873795919,2.9535106284,2.2347661909.2893757523.5223180296.5557987246,1.0493783693.8097019986,1.5789047101,2.7084280509-.2024966394,5.4145797931-.5233613378,8.0539598113-.9949366498-.0000948462-.0008536158-.0001896924-.0018020778-.0002845386-.0026556936-.0574767964-.5328459579-.1195062104-1.0463432908-.1861830881-1.5395435367-.0036800744-.0276002445-.0073031573-.0555798739-.0110970053-.082990426-.0199177017-.1463476883-.0404993269-.2904190678-.0612706444-.4328780619-.0048371561-.032532247-.0095794661-.0647799554-.0144166222-.0970276637-.0215300871-.1453043801-.0435344052-.289091221-.0660129543-.4302223683-.001896924-.0117609289-.0037938479-.0232373193-.0056907719-.034903402-.0752130356-.4685402336-.1554529197-.9136534554-.2411938834-1.3319252024l-.0011381544-.0054062335c-3.6449394172.6526367099-7.4550060663,1.0009119605-11.2298847758,1.1388183369Z" style="fill: #1c7d88;"/>
  <path d="M220.4328640546,98.6096563658c.6669584695-9.8891391604,5.0106298327-16.9495852183,5.2862528862-17.9885305055.6182258435-2.3302763155-1.6378990059-4.013606693-1.7976200045-6.5267464842-.2893757523-4.55072073,2.3277154092-5.2703188579,5.4979496018-7.8765027725,2.3718188916-1.9497533565,7.7923739952-.9268370774,11.3208422804.5749576712,1.2642049829.5381573452,4.9935575169,1.7113100069,3.9207521631,6.7331318179-1.7805476887,8.0035018358,1.078590972,14.3549725403,2.3467794952,21.0973044398.9137482786,4.8580224216-11.6901733782,11.6072780937-26.574956422,3.9863858333Z" style="fill: #1c7d88;"/>
  <path d="M236.9355335563,57.8466560461s.449096751-1.6704312942-1.3596202588-3.7378887864-3.5128186623-.4511833788-3.5128186623-.4511833788c0,0-.0972173537-1.1120717082,1.4101732827-1.5902862543,1.5074854826-.4781196999,4.7866031113,1.6337258144,3.4622656384,5.7793584194Z" style="fill: #ff6161;"/>
  <path d="M234.4604271543,52.5718794167s-.061080952-2.0529460234-.8647127938-2.7404861353c-.8036318418-.6874452658-1.0828590509-.8321805687-1.0828590509-.8321805687,0,0-.7995534553,2.8155094804,1.9475718447,3.572666704Z" style="fill: #ff6161;"/>
  <path d="M233.9914312151,52.4604351304s.9778643336-1.806156208,2.0048404353-2.0587316416c1.0269946398-.2525754336,1.3415046348-.2562744354,1.3415046348-.2562744354,0,0-.5521759849,2.8743141251-3.3463450701,2.3150060771Z" style="fill: #ff6161;"/>
  <path d="M235.9778714878,60.3140799684l.5757164263,5.8545714569c.0908626584.9641116344-2.0721997498,3.6472158181-3.6994759814,2.5565793513-.47631761-.319252313-.0047423099-1.6954706913.3295905406-2.7330881316l.715899108-5.1327918663,2.0782699066-.5452708103Z" style="fill: #ff6161;"/>
  <path d="M233.4744060723,63.907802529c2.0597748978-.7155197413,2.2912944689-2.6039076057,2.2912944689-2.6039076057l-1.968248316.2878582204-.3230461529,2.3160493853Z" style="fill: #311e69;"/>
  <path d="M235.9953231883,56.3757811591l.4798269194,2.2346713447c.3803332569,1.7716321908-.6624058519,3.6082340294-2.4257863787,4.0250830834-1.6278453088.384791038-3.2691587778-.472998005-3.6292897944-2.5368513415-.3201059207-1.8347049146.9014367188-3.5024805152,1.3287952442-4.3643479448.9742601533-1.9649287487,3.5066536594-1.8875342486,4.2464540095.6414448582Z" style="fill: #ff6161;"/>
  <path d="M233.5017217775,60.0761108498s-.9426763692-.6161209225-2.0458325066-.7440684478c0,0-.0881121186.5757164408.3198213821,1.1169088645.4080283469.5411924236,1.1823527134.081567733,1.7260111245-.3728404166Z" style="fill: #fff;"/>
  <path d="M247.0078204766,94.6232705325c-1.2681885232-6.7423318994-4.1273271839-13.093802604-2.3467794952-21.0973044398,1.0728053538-5.021821811-2.6565471802-6.1949744727-3.9207521631-6.7331318179-1.0018603972-.4264285203-2.1563283281-.8139700981-3.3500625853-1.1060963975.2401505752.945521779.3836714829,2.255063278-.1463476846,3.4487975653-.9727426142,2.1902833226-8.2381511292,10.5470872576-4.8280509001,14.4593982078,4.5059532092,5.1694024999,6.184351542,12.7808101403,6.4194752686,17.9031689244,5.3810990849-1.2309139982,8.6540517107-4.314933074,8.1725175597-6.8748320424Z" style="fill: #064f57;"/>
  <path d="M233.8084543842,61.912997227c-.6749255502.0588046447-1.8909486641-.1410363011-2.4083346781-.5249737232-.4586762171-.3403081696-.8983831944-1.1993302132-.9926603159-1.3905401547.0049320023.0337652476.0067340801.0672459566.0126145444.1012008966.3601310166,2.0638533365,2.0014444856,2.9216423795,3.6292897944,2.5368513415,1.0868611337-.2569383588,1.8982518214-1.0538361407,2.273178845-2.0417541716-.8711623353.9169730725-1.9072622103,1.2663864774-2.5140881897,1.3192158115Z" style="fill: #ad263d;"/>
  <path d="M236.1623473443,58.5107691464c.0871636566-.1810613979.1459682998-.3728404166.1932017068-.5681287447.089724504-.3712280312.3091037617-.9018925265.7942606614-.4979425559.7056557364.5874773698.1192979247,2.5386534193-.8344754497,2.4675187685-.7082165659-.052829334-.3726507148-.9454269328-.1529869185-1.4014474678Z" style="fill: #ff6161;"/>
  <path d="M199.9597429816,98.4816139943l14.9643590045-5.1214103222c1.2347078151-.4226346722,1.8930352804-1.766036265,1.4705135341-3.0007441112l-7.31218576-21.591168609c-.4942435416-1.4594933429.72832396-3.4244220916,2.2505106035-3.1846508952.9151709715.1440713795,2.3464949566.455072073,2.6142457756,1.2375532323.8233598512,2.4055841991-2.5537339008,4.145632605-1.3093517735,6.7575072916,1.2444769735,2.6119695328,11.3460713692,2.4263555172,12.3690824687-5.1678849607,1.0230110995-7.5942404779-3.7134950261-20.7510209594-20.0930723546-22.1805429028-16.6873350507-1.4564582645-27.8381180967,6.739771052-34.164359552,17.6152158578-4.5142828729,7.7606007147,4.5419947648,25.9030666046,13.8778957981,21.773178469,9.3359010333-4.1297932894,2.2509848344-7.299553331,1.9097282114-9.2705522366-.598005283-3.454298645,1.6173173807-4.3215723081,2.3991345969-2.7197148173.6342365309,1.2992981092,6.0092654591,17.3492671099,8.0171594862,23.3662152631.4153315042,1.2445718512,1.7649929122,1.9118148761,3.0063399611,1.4869987412Z" style="fill: #ffbea8;"/>
  <path d="M203.2492936922,97.3557895869s-6.3360106137-20.7323362578-8.1573421679-25.5419871169c-1.8213315542-4.8097457053-2.7889524736-5.5886227089-6.3035732138-3.5678295477-3.5146983035,2.020698315-6.7583607367,2.9555973195-5.9322503457,5.7106897698.8260327873,2.7550924503,3.8725702941,4.6581814759,3.5600520693,6.476193459s-3.132295713,3.3088045725-5.9276977282,1.2861144873c-2.795307169-2.0227849314-8.1537210565-7.6082777157-4.7785411844-13.9627834987,3.3751019818-6.354505783,9.8180042615-10.428908891,17.1531247326-12.8808728825,7.3352153173-2.4519639915,16.0991937723-1.5956924877,21.0827924384.8465971912,4.9836935122,2.4421948328,9.5556596758,9.3146557201,9.1290414739,12.1648789102-.4266182019,2.8501283438-6.5490351761,6.6397083098-7.2249091882,5.1768005036-.6759688583-1.46281296,2.2659705338-5.1569776476.8302836237-7.6450780417s-1.9720241376-4.0551493291-6.091307421-3.2889817164c-4.1193601032.7661676127-7.1749252415,1.0556382185-7.866733415,3.1310627916s3.8261905029,11.8626989134,4.7074065353,14.949468529c.8811211862,3.0868644618,4.9712686602,14.0136210625,4.9712686602,14.0136210625l-9.1516148692,3.1321060998Z" style="fill: #c98173;"/>
  <path d="M239.2144031732,69.7505182108c-6.5592785655,5.6847019107-13.4140030401,9.5898993958-17.8278605904,9.9653006599-3.450599556.2935489925-17.6554302011-11.0732939814-20.4431496742-8.5953421308-2.7877018649,2.4779518506,6.8918093383,19.2040794191,22.4564499346,17.2681736079,15.5646405963-1.9359058112,20.0094180074-12.3080018277,20.4073926572-14.8591749455.1738530823-1.1142531708-.1492879168-2.3214556187-.6663893923-3.2371008444-.6668636233-1.180835204-2.6828009004-1.6195937304-3.926442935-.541856347Z" style="fill: #ff6161;"/>
  <path d="M235.7657005412,86.6225192366c5.1324310398-3.3991930021,7.0137815498-10.2806642786,7.0137815498-10.2806642786-5.8828354762,6.6216875316-14.5900959044,8.9568958495-19.484728836,9.7708659475-.5754318877,1.4783677369-1.1651855514,3.2117769087-1.6655758947,5.1573570324,3.0757491774-.5470728881,10.1894037745-2.0333128597,14.1365231808-4.6475587014Z" style="fill: #311e69;"/>
  <path d="M200.736912734,73.2628627308s-.7231074191-.8711623573-1.1391028467-1.7135863157c-.7724274425-1.5642983952-3.0933139254-5.3302616571-.6935154051-4.6909034153,1.3679667243.3644939509,1.8326182519,1.8552865402,2.5295481201,2.1681841577s.8001225325-.9519713207,1.4712542347-1.3391335137,1.1098902175.3097676929.7485262004.4388533726c-.3613640172.1289908335-.6330035303,1.7847209666-.3809794428,2.5443441914.2519886126.7595283786-.4707394218,3.9344101151-2.5357308605,2.592241523Z" style="fill: #ff6161;"/>
  <path d="M243.1885537462,70.4769452652c-.3863085674,2.2267042638-3.1264152487,4.5011161668-4.2333652341,6.063991869-1.3164652384,1.8585113111-2.942584751,4.1815793152-6.8934217237,6.0399957801-3.9507235619,1.8585113111-5.1866460438,2.9426033899-8.748708217,3.5511366163-3.5620438395.6085332264-4.1040898652-.2987655335-6.2769214319-2.1572768446-2.1728315667-1.8584164649-3.5573963757-.8517188861-7.8163700835-1.9359058112-4.2590685539-1.0840920789-2.0907896048-3.01999789-4.3364630521-6.0399957801-1.6841839508-2.2649272829-3.3266355742-1.8730227798-4.0426295284-1.5353703038,1.8480781822,5.5783793192,10.4106033111,15.4362192332,22.5591683678,13.9251295568,15.5646405963-1.9359058112,20.0094180074-12.3080018277,20.4074875034-14.8591749455.1842861641-1.181783666-.1022442022-2.2508900451-.6187766005-3.052530137Z" style="fill: #ad263d;"/>
  <path d="M231.0317370702,117.217248026c-.7162784928.6665791015-4.0083900507,4.0783866484-4.9045917825,11.2330149841-1.0072666305,8.0421042396.1886490893,14.1774204518-1.3627501833,21.5563600532-1.0051800141,4.7808176139-.6469459215,13.5628170685.3898178768,19.3130577042,3.9064303871-.0920008151,7.8785891899-.6177333079,8.5432713506-1.7606300315.2847282886-.4895960902-3.989420811-27.3474794015-4.0535368413-30.0604601385-.0371797099-1.5733087843.4639876042-18.6476167571,1.3877895798-20.2813425715Z" style="fill: #311e69;"/>
  <path d="M231.9596174324,154.4436231982c-2.7015042784.0734109597-5.3010488932.0616500307-7.7149794971-.0008536158-.0678916127,1.2749226355-.0888708882,2.6351120059-.0678150321,4.0266006226,1.2839329922.03395494,2.6166169305.054252027,3.9929484867.054252027,1.419070459,0,2.8820730744-.0215300877,4.373814088-.0681944186-.0435344052-.3011366886-.08782758-.6067311486-.1325001396-.9147916099-.0049320023-.0336704014-.0096743123-.0670562642-.0146063146-.1008215118-.1414156823-.9738807932-.2880479055-1.9785866017-.4368615913-2.9961914936Z" style="fill: #614cd4;"/>
  <path d="M230.8323703605,146.70682888c-.002371155-.0163135466-.0046474637-.0322477084-.006905339-.0484664088-.0390002212-.2705962118-.0774129317-.5378728066-.115256565-.8023040153-.0110021591-.0771099615-.0221940105-.1548838464-.0331013234-.2314247307-.0151753918-.1055638219-.0298765526-.2094204121-.0447674058-.3137512333-.0112866976-.0788171931-.0225733953-.1579189249-.0336704005-.2359773484-.0148908532-.1050895908-.0296868602-.2087564887-.044388021-.3126130789-.0112866977-.0796708089-.0226682415-.1594364641-.0337652467-.2384433496-.013847545-.097596741-.0275053976-.1941501737-.0410684041-.2904190678-.0120454672-.0849821962-.0238828179-.169300469-.0356621707-.2531445108-.0128806595-.0920008151-.0257981661-.1835273992-.0386024029-.2742003675-.0110970053-.0794811165-.0220991643-.1581086173-.0330064772-.2366412718-.0136578526-.097596741-.0273157052-.1950037895-.0406890193-.2910829913-.0087074295-.0632624162-.0173568544-.1251969855-.0260827047-.187700632-.0145114684-.104710206-.0290993634-.2096101045-.0432498666-.3122336941-.0002845386-.002371155-.0006639234-.0048371563-.0010248889-.0072083113-1.588218017-.0304456306-3.1465410621-.0915265841-4.6630369336-.1734737019-.0436292514,1.3275622772-.1243433665,2.660151403-.2771405927,4.0198665423,1.7839621519.0968379713,3.6278671014.1644633128,5.511417762.1892181712Z" style="fill: #614cd4;"/>
  <path d="M229.7118573687,134.0049307791c.0002845386-.0088206967.0005690772-.0183053168.0008536158-.0272208597.0085361579-.2826416794.0178310854-.5766649028.0277899362-.8808366699.000474231-.0132784682.000948462-.0266517825.0013278468-.0399302507.0046474637-.1393290695.0093897737-.2807447553.014321776-.423962519.0007587696-.0204867794.001422693-.0407838665.0020866164-.0612706459.016692931-.4826723175.0350930935-.9860211069.0552953339-1.5043555961.0001896924-.0055010797.0003793848-.0110970055.0006639234-.0165980852.0067340801-.1737582405.0136578526-.3489391739.0207713175-.5257324928,0-.0002845386.0000948462-.000474231.0000948462-.0006639234.0072083111-.1801129359.0147011608-.3610794877.0223837029-.5437532711-1.3213023945-.0425859443-2.6166169305-.105184437-3.8803476824-.181535629-.1370527572,1.3885483845-.2138781781,2.7226550495-.2576971219,4.0201510809,1.299108384.0785326545,2.63160263.1426486865,3.9924558893.1857088618Z" style="fill: #614cd4;"/>
  <path d="M230.3117595757,122.0944293803c.0085361579-.1048998984.0169774696-.2086616425.0256084737-.3113800783.0001896924-.0020866164.0003793848-.0040783866.0005874984-.0060701569.0423778296-.5065735602.0866710044-.9866850303.1327846816-1.4333157914.0014991146-.0147011612.0030166538-.0294971685.004534193-.0441034835.0080619269-.0772996539.0161238538-.1534611534.0242806269-.2286741909.0019917702-.0184950092.0040783865-.0368951722.0060701567-.0552953353.0082516193-.0754027299.0165032386-.1500466902.0248681301-.2232679574.0007403435-.0067340803.0015939593-.013183622.0023527289-.0199177022.0274105514-.2388227344.0555034538-.4649360779.0841285783-.6774864146.0015175392-.0117609289.0031299246-.0239012427.0046474637-.0355673254.0081567731-.0595634143.0163135462-.1175144432.0245835945-.1748963949.0029218032-.0210558567.0059568815-.0421117133.0089919599-.0628830313.0078722345-.053777796.015744469-.1066071301.0237115497-.1582983097.0032247708-.0215300877.0065443877-.0424910981.0098640047-.0635469548.0080619269-.0515963334.0162371305-.1027184358.0243754731-.1520384604.0021814626-.0132784682.0044577713-.0258930129.0066392339-.0390766349.0194434707-.115522673.0391714801-.2255442663.0590891818-.3274090863-.1792593156-.0066392341-.3567165534-.0145114688-.5351222532-.0217197801-.6579296784.7850420067-1.5657210486,2.0689750314-2.3812851528,3.9182862609.8048464838.0450519455,1.6209980238.0847925038,2.4492898773.1166608274Z" style="fill: #614cd4;"/>
  <path d="M88.269428435,134.626457935v52.7315475935c0,28.9028622538,23.354279474,63.788812567,91.0049276809,63.788812567,69.8841967631,0,91.0050225271-34.8859503132,91.0050225271-63.788812567v-52.7315475935H88.269428435Z" style="fill: #ffdda5;"/>
  <ellipse cx="179.2743798275" cy="134.6265290697" rx="87.6421794168" ry="17.9251021085" style="fill: #ffdda5;"/>
  <path d="M241.9206497616,118.6568236667c-16.7685233968-3.4296386327-39.0166910789-5.3184058819-62.6462936456-5.3184058819-23.6295077205,0-45.8776754026,1.8887672492-62.6461987994,5.3184058819-19.0825809534,3.9028263301-28.3588237277,9.1265757033-28.3588237277,15.9696342683,0,6.8431534112,9.2762427743,12.0669027844,28.3588237277,15.9698239607,16.7685233968,3.4295437865,39.016691079,5.3183110357,62.6461987994,5.3183110357,23.6296974129,0,45.8777702488-1.8887672492,62.6462936456-5.3183110357,19.0825809534-3.9029211763,28.3588237277-9.1266705495,28.3588237277-15.9698239607,0-6.843058565-9.2762427743-12.0668079382-28.3588237277-15.9696342683ZM179.2743561159,152.5516311781c-48.4033348286,0-87.642155705-8.025316462-87.642155705-17.9251732431,0-9.8997619349,39.2388208764-17.9250783969,87.642155705-17.9250783969,48.4034296748,0,87.642155705,8.025316462,87.642155705,17.9250783969,0,9.8998567811-39.2387260302,17.9251732431-87.642155705,17.9251732431Z" style="fill: #f0bb62;"/>
  <g style="clip-path: url(#clippath);">
    <path d="M132.2387983192,132.7296287587s-3.3463635836-12.5874187362-7.5523182662-13.6268382543c-4.2058598365-1.0393246719-10.0084554285-.6012300689-9.240296065,1.8887672492.7681593635,2.4899024719.8722056435,4.9187239904-1.729141049,4.1714307717s-13.1741370035-19.1501119306-18.8135022876-16.4410198879c-5.6393652841,2.7089971965-1.8933997132,5.9128070244-1.060949579,8.7013801837.8323702401,2.7886680055-7.1798572438-2.3491507095-9.3650188164,1.0137161976-2.1850520451,3.3629617533,11.4711735053,16.1850299911,11.4711735053,16.1850299911,0,0,9.5479771337,10.4382986649,19.0169473839,12.4000026427,9.4689702502,1.9617039779,22.917212768,3.0035894972,21.8766711811-.0791017317-1.0405737056-3.082691229-2.5224507145-10.2899592063-4.603566007-14.2133671621Z" style="fill: #b5bf79;"/>
    <path d="M91.1577946301,123.3167123742c1.3732632062-3.4809504275.6556568666.6785297229,5.3381188517,1.6594291349s-1.5607890463-3.7833201167.3122336862-6.4456529823c1.8729278863-2.6623328656,2.6533224095,2.1018866631,4.3702282989,4.7862238474,1.7169058894,2.6844320305,1.5608838925,3.4810452737,7.960251767,5.3537835149,6.3993833956,1.8727382412,3.1216729388,5.2734487826,6.7115067145,9.6863579823,3.5899286219,4.4128143536,4.3703231451-.4894063978,3.2776949357-3.4320097877-1.092517779-2.9426033899,5.4629513544-3.9234079558,8.6439031674.9808045658,2.3099950586,3.5615696985,6.417293806,9.336754885,8.4944255582,12.2337372522-2.6851907322,1.5195309882-13.3828934869.522981953-21.3004644645-1.1172882493-9.4690498289-1.9617988241-19.0169473839-12.4000026427-19.0169473839-12.4000026427,0,0-.3070171453-.2884272976-.8190917722-.7873183155-2.623146379-5.1631426507-4.4205916304-9.3807635223-3.971859359-10.51806432Z" style="fill: #848927;"/>
    <path d="M100.0023774488,143.269033474s-1.539638344-13.9771052751,19.6880790861-28.2695741689c21.22771743-14.2924688938,26.6836501658-15.3013479352,32.0872277998-8.1974623171,5.4034993609,7.1038856181.5511677113,8.8980912048,9.4185120724,8.3375501561,8.8674556578-.5604462025,9.4279018461-5.3246657312,16.0136595802,0,6.5857235759,5.3246657312,11.7703013371,7.4264575481,16.5344258992,13.311664328,4.7641245622,5.8851119336,11.5238131456,18.2158768496,7.7236105011,18.4961473739-3.8002026445.2802705243-6.6363885251-4.9183446056-9.0015681828-8.7646425998-2.3651796577-3.8463928404-6.4287701961,7.0831143001-14.9762147794,9.6053593266-8.5474445833,2.5222450265-18.3245701331,1.0497577541-31.5275403811,1.5413456145s-36.431847625-1.6814334536-38.6738220705-2.5222450265c-2.2418795994-.8407167268-7.286369525-3.5381426868-7.286369525-3.5381426868Z" style="fill: #f9ba53;"/>
    <path d="M107.2887469738,146.8071761608c.108614213.0407838665.2675611266.0846028114.4709267013.1311722962,1.7695302051-2.7210426641,4.5633198349-6.9644617024,5.9747261182-8.8311297868,2.161544869-2.8585696557,20.1776751639-22.3346679796,25.2291837082-23.3155673917,5.0516982367-.9808045658,6.7187150256,6.7258286604,14.5581327354,8.6198124507,7.8394177098,1.8939837903,13.038808288-3.2951467195,17.8030108863-3.4352345586,4.7641245622-.1401826853,17.0758250807,10.0642252476,17.0758250807,10.0642252476l2.2610385315-2.1662872337s-10.3690606761-7.6177623358-15.8338141083-9.8596419918c-5.4647534322-2.2419745022-11.3499600634,1.1208924049-18.9165052594,1.1208924049-7.5666400422,0-6.7259233367-6.8659164995-12.8913056389-9.2275869075s-10.3690606761,1.9413120446-17.2763299448,8.1066945026c-5.6328208963,5.0277022755-18.3887810097,21.0011303918-22.9049776084,26.7253831683,1.5341372644.775272848,3.3372583485,1.6499445148,4.4500887982,2.0672677997Z" style="fill: #f4a147;"/>
    <path d="M175.9487638499,125.9500223023c-5.4647534322-2.2419745022-10.6662138167,6.216789099-18.232853859,6.216789099-7.566545196,0-6.7258284905-6.8660113457-12.8912107927-9.2275869075-6.1653823022-2.361670408-10.3690606761,1.9412171984-17.276424791,8.1065996564-3.437700473,3.0684642988-9.5287233554,10.2142719378-14.7809264562,16.6190462074,1.5435270381.1762242417,3.3374480409.357949563,5.2987725844.5345531895,5.6793903799-6.3099280685,18.5562793966-19.5713239098,22.7021964355-20.376378465,5.0516982367-.980899412,6.7187150256,6.7258286604,14.5581327354,8.6198124507,7.8394177098,1.8939837903,14.2374577375-5.8818871628,19.0015822997-6.0219750019,3.316961262-.097596741,9.7106383645,6.0724331809,13.289375135,9.8303345157.8466920161-.9118513776,1.5918985995-1.6987903084,2.2524075274-2.2185474905-3.6065267067-3.8885045537-10.1170543261-10.5220478605-13.9210508185-12.0826472538Z" style="fill: #f4a147;"/>
    <path d="M228.4633020086,106.801996988s6.6684465403,5.5207128289,8.5999893774,16.1586627471c1.9316376833,10.6380447644-4.2901781071,28.452627337-17.0776271584,33.6717292464-11.4033584732,4.6542927816-39.0721761052,3.6787996031-41.1087136843-18.5708861804l49.5863514654-31.2595058131Z" style="fill: #efe1da;"/>
    <path d="M190.8356335101,147.8144428167s-13.7589586649-3.3066231098-11.7853041155-11.898835316c1.9736545494-8.5922122062,12.6472838146-35.5068135457,40.7737169104-32.9587703525,28.1264505408,2.5480431932,3.362297745,61.942157031-28.9884127949,44.8576056685Z" style="fill: #fff;"/>
    <path d="M215.6658941065,126.335666956s-1.122030531-4.869024581-9.8084247954-6.1578896081c-8.6863942644-1.2889598733-17.7003872993,8.0323350809-13.3603026264,16.9271066687,4.3400497424,8.8947715877,13.9601099871,6.8231408628,19.127633381,2.1590789224,5.1675823431-4.6640619403,4.0410940408-12.928295983,4.0410940408-12.928295983Z" style="fill: #f9ba53;"/>
    <path d="M208.1792094097,126.6075910147s3.5725717675,2.8200620981,1.7938261566,7.5259512131c-1.778745611,4.7057942688-4.06055546,7.9280042597-9.1013463839,6.5276001001-5.0406785282-1.4004990058-10.075985922-4.8974784413-7.8740365723-8.5671728091,2.2020441959-3.6696943677,6.6041408175-1.5084339827,8.911938525-2.464009459,2.3078925537-.9555754763,4.5646630063-5.3112924168,6.2696182746-3.0223690451Z" style="fill: #f4a147;"/>
    <path d="M193.7442818865,154.3738163942s-9.5283439706-20.3177635127-24.3812586916-26.9035043341c-12.0081926825-5.3243811926-24.1010830206-11.4900481891-33.3491564739-4.3437663191-9.2480734533,7.14628187-4.6240367267,22.4195553296,3.7833200211,32.5083457434,8.4073567478,10.0888852599,44.9792922083,7.9869985968,50.8644039932,5.4648484164,5.885111785-2.5222450265,3.0826911511-6.7259235066,3.0826911511-6.7259235066Z" style="fill: #db7345;"/>
    <path d="M193.7442818865,154.3738163942s-9.5283439706-20.3177635127-24.3812586916-26.9035043341c-12.0081926825-5.3243811926-24.1010830206-11.4900481891-33.3491564739-4.3437663191-5.7718495311,4.4601426079-6.139963521,12.0859668708-3.5574912219,19.6413204063-.5055302392-3.5799698615-.5263015568-7.9718232046,1.4556994581-11.1044983816,3.9234078566-6.2015188606,4.8575641759-10.872220035,11.0229303701-9.1907865815,6.1653823022,1.6815282998,12.8912107927,2.0552223322,19.9908281524,6.3522294742,7.0995225135,4.2971019882,5.0444119756,4.2971019882,11.3965295469,9.3414971951,6.3522293137,5.0443952069,10.6493311933,7.8986967835,12.7044586274,12.7303519613,1.2684730618,2.9821542558,2.2807665408,6.9621853936,2.8704253583,9.5736806954,4.2172413803-2.5336265707,1.8470348741-6.0965241159,1.8470348741-6.0965241159Z" style="fill: #f2b061;"/>
    <path d="M151.0069641238,157.5966903084s-13.17148131-20.7381218761-14.2924685327-23.4004547417-.8407167055-2.8237610999,0-2.5328678011,3.0826911511,7.5069819729,7.8468157133,11.6056657083c4.7642194084,4.0986837354,7.7067278778,8.3023622155,7.986998395,10.1239783543.2802705172,1.8215212926-1.5413455756,4.2036784801-1.5413455756,4.2036784801Z" style="fill: #c4623b;"/>
    <path d="M139.9372745777,127.6104947454s.2802705172,2.1929390162,2.6623327983,5.8606416137c2.3820622811,3.6676077513,5.6049361139,6.6801127915,8.4073567478,9.7978971149,2.8024371218,3.1177843234,7.7067278778,9.4222113122,8.6876439016,12.6455594575.9807879045,3.2234429914,1.541328939,5.1851469693,1.541328939,5.1851469693l2.3820622811-.6293993907s-1.8215994031-5.5371212217-3.0826911511-7.918709332c-1.2610750583-2.3814932641-3.7833200211-4.3431972419-5.0443950794-6.1648133808-1.2611699045-1.8215212926-2.6623327983-7.8468159115-5.1845777612-9.2480736869-2.5221501166-1.4011629292-8.9169653736-6.1480256032-10.3690606761-9.5282493651Z" style="fill: #c4623b;"/>
    <path d="M148.0643608082,126.8420508239s5.0444899256,6.0118264583,10.9296017106,13.3387903415c5.885111785,7.3269638831,8.4073567478,9.0073540285,8.9678029361,12.3707900128.5605410345,3.3635308305-.70062887,7.2869387863,1.6814334111,8.5481087226,2.3821571273,1.2610750902,4.0635905384.5629122037,4.6240367267-.6293993907.5605410345-1.1922167481-2.9425084694-2.3132039993-2.9425084694-5.5359830673,0-3.2228739142,1.2610750583-6.165382458-1.1209872228-8.127181282-2.3820622811-1.9617039779-6.3054701377-3.6451292017-8.1270862305-5.8160638992-1.8216160928-2.1708398514-6.4456528195-8.4265158928-7.286369525-9.4322650095-.8407167055-1.0058439629-6.7259233367-4.7167964282-6.7259233367-4.7167964282Z" style="fill: #c4623b;"/>
    <path d="M165.1877986806,175.4424772812s-4.6229934185-21.9597409466-17.5733882392-31.7713907606c-10.4700718777-7.9325568773-20.8298376264-16.703269634-31.4685460455-11.8645009912-10.6386135729,4.838863489-9.6346665593,20.7652478896-3.7607466258,32.511001437,5.8739199335,11.7458483936,41.9555005466,18.0737972403,48.2618243001,16.9661833035,6.3063237535-1.1077087829,4.5408566104-5.8412929887,4.5408566104-5.8412929887Z" style="fill: #db7345;"/>
    <path d="M165.1877986806,175.4424772812s-4.6229934185-21.9597409466-17.5733882392-31.7713907606c-10.4700718777-7.9325568773-20.8298376264-16.703269634-31.4685460455-11.8645009912-6.6398029883,3.01999789-8.7441555995,10.3590072407-7.960251767,18.3049374324.3275987704-3.6005514871,1.312955929-7.8804863129,3.9595442584-10.4761422991,5.2392091716-5.1383877922,7.2180010334-9.471151952,12.8345876121-6.4226053554,5.6165073502,3.0484517504,12.0781891772,4.9522995456,18.005222982,10.7607757487,5.9269389586,5.8085710493,3.926442935,5.3379441993,8.9548090068,11.7027882183,5.028460918,6.3649388651,8.5578776652,10.1272979714,9.4520876268,15.3011582428.5519100304,3.1933767457.6259849116,7.2994584848.6019888233,9.9765873578,4.6854022172-1.5007514404,3.1939457422-5.5116075936,3.1939457422-5.5116075936Z" style="fill: #f2b061;"/>
    <path d="M122.8479813368,168.7939482747s-8.0731187435-23.2030797971-8.5547477406-26.0513112169c-.4816289971-2.848326266-.1718613121-2.9411806969.5799845052-2.4655269983.7517509711.4756536986,1.2818463758,8.0133658407,4.9809429725,13.0939922964s5.6010474198,9.8464583698,5.4566915053,11.683818978c-.1442610683,1.8373606082-2.4628712424,3.7390269408-2.4628712424,3.7390269408Z" style="fill: #c4623b;"/>
    <path d="M118.9384210252,137.0697909222s-.2293381085,2.1988194807,1.2495986683,6.3144806861c1.479031623,4.1156612054,3.926442935,7.7860194966,5.9405968112,11.4627324832,2.01405903,3.6766181404,5.3445043759,10.9364309132,5.5612120163,14.2988235893.2168184103,3.3622978299.3131821482,5.4002581535.3131821482,5.4002581535l2.4628712424-.0671511104s-.5053405468-5.8072432025-1.1875692543-8.4141858866c-.6823235537-2.6070375303-2.6883206568-5.0940946162-3.4988762711-7.1560510287-.8104607681-2.0619564125-.7948111454-8.2480153423-2.9292300016-10.1895170793-2.13432401-1.941501737-7.2723322876-8.0264546164-7.9117853594-11.649389807Z" style="fill: #c4623b;"/>
    <path d="M127.0254821598,138.1827162462s3.5338745185,7.0070476467,7.5849453586,15.4869619508c4.0511656863,8.4798194578,6.121579516,10.6930555611,5.897062406,14.0954733341-.2245957986,3.4025126192-2.3504784969,6.9329727637-.3204853055,8.7060276475,2.0300880376,1.7729600376,3.8266809744,1.4783677369,4.6452822752.4461565301.8186175412-1.032306053-2.3347340279-2.9255310737-1.5967357556-6.0627588683.7379034261-3.1372277946,2.639285172-5.7128712324.7696769027-8.1678703023s-5.3034200482-4.99213495-6.5794808059-7.5224419037c-1.2761556039-2.5303069536-4.3449832457-9.6784857477-4.9330296927-10.8501208702-.5881572277-1.1715402763-5.4672353828-6.131427518-5.4672353828-6.131427518Z" style="fill: #c4623b;"/>
    <path d="M233.3989084981,135.3638871488s3.0041584986-12.58732389,6.7800805162-13.6267434081c3.7758271714-1.0394195181,8.9850649442-.6013249151,8.2954571126,1.888672403-.6896455903,2.4899973181-.7830690961,4.9188188366,1.5523288552,4.1714307717,2.3354169289-.7472932187,11.827036443-19.1500170844,16.8898316849-16.4410198879,5.0627003958,2.7090920427,1.6997387274,5.9129018706.9524455276,8.7014750299-.747388046,2.7885731593,6.4456528195-2.3492455557,8.4073567478,1.0137161976,1.9617235596,3.3629617533-10.2982105657,16.1849351449-10.2982105657,16.1849351449,0,0-8.571630364,10.4382986649-17.0724106175,12.4000026427s-20.5738293655,3.0035894972-19.6397075247-.0791017317c.9341402113-3.082691229,2.2645478409-10.2899592063,4.1328282634-14.2133671621Z" style="fill: #b5bf79;"/>
    <path d="M270.2792837969,125.9510656105c-1.2328108911-3.4810452737-.5886155093.6785297229-4.7922745741,1.6594291349-4.203697683.9808045658,1.4011435847-3.7833201167-.2802898264-6.4456529823-1.6815282573-2.6623328656-2.3820430392,2.1017918169-3.9234078566,4.7862238474-1.5413455756,2.6843371843-1.40125774,3.4809504275-7.1462816895,5.3537835149-5.7450239494,1.8727382412-2.8024206339,5.2734487826-6.0252944667,9.6862631361-3.2227789866,4.4129091998-3.9233890856-.4894063978-2.9425084694-3.4320097877.9808045411-2.9425085437-4.9043072439-3.9234079558-7.7599365953.980899412-2.073888434,3.5614748523-5.7612426494,9.3366600388-7.6259189164,12.2337372522,2.4106109869,1.519436142,12.0144525317.522981953,19.1224163568-1.1173830955,8.5007802535-1.9617039779,17.0724106175-12.4000026427,17.0724106175-12.4000026427,0,0,.2756230535-.2884272976.7353425788-.7872234693,2.3549362683-5.1632374969,3.9686494934-9.3808583685,3.5657428412-10.51806432Z" style="fill: #848927;"/>
  </g>
  <path d="M94.1172656639,152.5516311781s-3.0826911511,36.1521470982,3.3629767333,48.202736336c6.4456377545,12.0504943916,11.490032834,21.5788386029,22.1392691811,27.7442210608,10.6493311933,6.165382458,11.2098722278-62.4946361526,9.5283439706-63.6156234037-1.6814334111-1.1208924049-33.0688859566-8.4084951146-35.0305898849-12.3313339931Z" style="fill: #f0bb62;"/>
  <path d="M130.8293838061,231.2075857715c10.5558128414,5.6049362555,22.4195547633-36.6186007153,19.6171341294-42.5038074952-2.8025154801-5.8851119336-25.2280455539,39.5245934716-19.6171341294,42.5038074952Z" style="fill: #f0bb62;"/>
  <path d="M141.3162596333,168.9932201432c1.1899242369-5.3946622276,32.0766836994-2.055127486,43.4434315399-2.8024207047,11.3666529943-.7472932187,8.8108324772,4.6707960206,0,6.165382458-8.8109273234,1.4946812835-45.8169738355,7.3980036878-43.4434315399-3.3629617533Z" style="fill: #f0bb62;"/>
  <path d="M108.6069194438,245.8204451327s-.8971501938,5.6107218738-.1392342197,7.1647768792c-.4107788867.4509936864-1.0950942105.8831129787-2.2171247415.8688860485-1.2790009899-.0161238542-3.7141771422-.3580444092-5.7987068979-.8798882078.669139932-2.1998627889.9213359745-6.1703144604,1.0510855743-7.4238967007l7.1039802848.2701219808Z" style="fill: #fff;"/>
  <path d="M106.5808149465,257.7006905933c3.8340627374.3974055827,8.1747145236.2177668778,10.3278025797.083938888.044862252.2327525776.074928497.4840001643.071134649.7784027726-.0175465468,1.3887380769-14.0985080563,1.1570288075-16.4501247076-.2078080267-.6317554037-.3666754136-.9142225096-1.1059067051-.9296824399-1.9903475306,1.8031362481.4919672452,4.2868584902,1.0565866805,6.9808699189,1.3358138967Z" style="fill: #fff;"/>
  <path d="M106.5808149465,257.7006905933c-2.6940114287-.2792272161-5.1777336708-.8438466514-6.9808699189-1.3358138967-.014796007-.8373022635.2094204068-1.8046386688.6100507502-2.7132652756.0867842718-.1967110211.1662653864-.4287996753.2418578068-.6773915684,2.0845297557.5218437986,4.5197059081.8637643536,5.7987068979.8798882078,1.122030531.0142269302,1.8063458548-.4178923622,2.2171247415-.8688860485.017167162.0350930944.0340497853.070755266.0529241789.1015802814.3718919452.6089126112,1.4748583902,1.0729950733,2.9952429559,1.7353060958,2.1866791117,1.1578824233,4.9419611848.6206735402,5.3927651674,2.9625210922-2.153088056.1338279898-6.4937398422.3134666947-10.3278025797-.083938888Z" style="fill: #1e1240;"/>
  <path d="M88.195922631,245.8204451327s-.8971501938,5.6107218738-.1391393735,7.1647768792c-.4107788867.4509936864-1.0950942105.8831129787-2.2172195877.8688860485-1.2789061437-.0161238542-3.714082296-.3580444092-5.7986922735-.8798882078.6692201539-2.1998627889.9213213501-6.1703144604,1.0510709499-7.4238967007l7.1039802848.2701219808Z" style="fill: #fff;"/>
  <path d="M86.1698329129,257.7006905933c3.8340479582.3974055827,8.174794075.2177668778,10.3278826466.083938888.0447674058.2327525776.0748486928.4840001643.071134649.7784027726-.0175465468,1.3887380769-14.0985080563,1.1570288075-16.4501247076-.2078080267-.6317559194-.3666754136-.9142225096-1.1059067051-.9297772861-1.9903475306,1.803121084.4919672452,4.2868584902,1.0565866805,6.9808846981,1.3358138967Z" style="fill: #fff;"/>
  <path d="M86.1698329129,257.7006905933c-2.6940262079-.2792272161-5.177763614-.8438466514-6.9808846981-1.3358138967-.014796007-.8373022635.2094204068-1.8046386688.6101455964-2.7132652756.0866894256-.1967110211.1661705402-.4287996753.2417775849-.6773915684,2.0846099775.5218437986,4.5197861299.8637643536,5.7986922735.8798882078,1.1221253772.0142269302,1.806440701-.4178923622,2.2172195877-.8688860485.017167162.0350930944.0340497853.070755266.0528293327.1015802814.3718919452.6089126112,1.4749532364,1.0729950733,2.9953378021,1.7353060958,2.1866791117,1.1578824233,4.9418663386.6206735402,5.3927651674,2.9625210922-2.1530885716.1338279898-6.4938346884.3134666947-10.3278826466-.083938888Z" style="fill: #1e1240;"/>
  <path d="M93.2300743209,88.2666781331s-.1898820899-1.2126086814-1.8093809332-2.5589505064-6.6767930058-.1923480959-6.8103364536,4.7510359068c-.0697119561,2.5806702864,2.7717853117,5.3073088764,2.7717853117,5.3073088764,0,0,6.226368408-4.5546094242,5.8479320751-7.4993942768Z" style="fill: #311e69;"/>
  <path d="M139.6256099687,99.9959284415s.0301610912-1.9210149576,1.16547009-2.9655561706c1.1353089988-1.0444463668,3.042571209-1.7662259574,4.1551171201-.6810905703,1.1126407573,1.0850405409-.7038536408,4.0189180803-.7038536408,4.0189180803,0,0-5.9183079545,3.3652380621-4.6167335694-.3722713394Z" style="fill: #ad263d;"/>
  <path d="M108.1520370747,102.267305266c6.3410374623,2.0195601606,11.7601698729,18.3264675201,18.0913433305,17.8314651964,7.9825406237-.6241828496,11.0014951292-24.0021590416,17.6098091795-21.2315118143,6.6082192041,2.7706472273,2.5568638253,29.8903060537-7.4293027465,34.6206654886-13.9256034361,6.5964584421-31.3795803111-6.3781224871-32.4288638076-13.9164037063-1.0493783427-7.5382812193-.0822316543-18.6543508374,4.1570140441-17.3042151643Z" style="fill: #064f57;"/>
  <path d="M110.8466175806,141.0619623738s11.314961816,32.8673386146,10.9309295574,50.6625725622c-.3249274063,15.0561705053-4.6026963319,49.7815461999-13.4778345319,58.3931070311-.9763314561.9473238568-3.6054681513.7773594644-5.0619416262.7773594644-10.8147280268,0-7.0805532738-20.8757437139-7.0805532738-20.8757437139l4.8478737557-39.4251946528s-15.7939787048-42.8977037685-9.5926496933-47.0964502461c6.2012341653-4.1987464776,19.4341758121-2.4356504449,19.4341758121-2.4356504449Z" style="fill: #d8e7eb;"/>
  <path d="M114.3917787967,152.3497036159c-1.4674603867,3.3414316657-2.625801586,7.3907953765-3.6083287845,10.2749735065-2.4837374061,7.2911120191-1.922911833,8.7332485072.7211156489,20.1906696032s-1.7626063825,16.5051359199-1.4421364517,21.2711575264c.3204853055,4.7661164528,1.3621016771,14.3830470159-2.1633316187,22.7156651696-3.5253536887,8.3327129999-2.9645281156,6.7302864319-7.4472440062,9.6146542543-2.4848755605,1.5989172586-3.8160419597,4.3299187738-4.5093676724,6.4469808291.7539324337,4.3043102995,2.7258797515,8.0311969265,7.2952850677,8.0311969265,1.4564734749,0,4.0856101701.1699643924,5.0619416262-.7773594644,8.8751381999-8.6115608312,13.1529071255-43.3369365259,13.4778345319-58.3931070311.2404351138-11.1387378602-4.1028568646-28.18241051-7.3857683413-39.37483132Z" style="fill: #aac8ce;"/>
  <path d="M80.1195937431,141.6086558771s-3.2220348434,5.9666796666-3.9008490877,9.9160754815c-1.6262329234,9.4617621781-4.9127485556,63.3612458923-2.9101659156,81.2507569638,2.0024877938,17.8894162253,8.8135830169,17.9858748118,15.0882429756,18.119418263,6.2746302877.133448605,8.7929865563-80.1285367121,8.7929865563-88.1387726281s-.7067938729-19.6358193266-.7067938729-19.6358193266l-16.3634206556-1.5116587535Z" style="fill: #d8e7eb;"/>
  <path d="M97.1475068671,159.0018367781c-1.8767217343.9845984139-4.0030786636,3.6736779082-4.3411105158,10.740194123-.3179095193,6.6442609274,1.271887525,32.6432170414-11.0424686871,43.9472718301-10.9548307995,10.0560684743,5.8840684768,23.221385114,4.5033923619,27.6832349535-.953583682,3.0818376132-1.3219515696,6.3767946403-1.1929607361,9.3571468182,1.1048486175.1173247508,2.2217574537.1417950707,3.3224624254.1652220824,6.2746302877.133448605,8.7929865563-80.1285367121,8.7929865563-88.1387726281,0-1.1881383615-.0158393152-2.4567063016-.0423014046-3.7542971792Z" style="fill: #aac8ce;"/>
  <path d="M70.428858454,201.0029594073c-6.7302862618-5.0882141518,1.4059196208-55.5510406144,2.2519477349-64.8452095551.5163282674-5.6723719045-5.3072283346-24.555491779,6.101062141-32.3607650544,8.6246493891-5.9006667106,25.2627592626-4.6775301009,30.8134433508-.7805842353,9.9693787947,6.9991754121,17.9496431096,82.8360163694,16.8119629558,85.2739431231-2.9912594155,6.4097062721-10.3570152089,9.9302075654-18.1794554491,8.1569629892-2.3495300349-.5325614193-3.5309342863-19.3360104849-4.6226140337-19.0535584979-1.6259483848.4208325944,0,17.4131934494-3.5779780009,21.1529791598-7.1891521713,7.5143799766-24.3821123074,6.4000319595-29.5983686989,2.4562320705Z" style="fill: #1c7d88;"/>
  <path d="M103.6046360766,178.0347188041c-.3349019277,0-.6167848303-.2599734373-.6389788408-.5989537601-.0134681602-.2042987172-1.3406358494-20.5622770192-1.1290491497-31.88900005.2082822524-11.140539938-4.0653926161-32.5667710033-5.2621469097-36.6664980469l-1.1220305593-3.8437371468c-.0992241376-.3399287848.0958744932-.6957917315.4358032695-.7950008578.3397390839-.0987348954.6956020215.0959843555.7948111454.435723448l1.122030531,3.8436423006c1.2085302642,4.1400366791,5.523842614,25.7849830842,5.3132840528,37.0497715457-.2106534074,11.2733246196,1.1130353776,31.5772405869,1.1264883023,31.7810650731.0232373187.353207253-.2443238079.6584223282-.5976258982.6815648013-.0142269298.000948462-.0285334858.001422693-.0425859432.001422693Z" style="fill: #064f57;"/>
  <path d="M126.4072746365,188.2903436856c1.1376801538-2.4379267537-6.8425841611-78.2747677111-16.8119629558-85.2739431231-1.5597457381-1.0950942382-3.9952064291-1.9789659865-6.8822298722-2.5530700419,1.5753005147,5.696178301,4.0560976887,16.6354546002,4.7854649569,22.3718476905.9614559165,7.5624670005,5.1277648881,14.3909192506,3.2048530551,21.9223715433-1.922911833,7.5313574466,2.5638824441,21.6328060913,5.6085558101,30.926975032,2.4755650924,7.5572504595,2.0906792179,16.9152508935,1.8602978012,20.1491269671,3.6307124874-1.3794431492,6.5928541199-4.0245140062,8.2350212047-7.5433080679Z" style="fill: #064f57;"/>
  <path d="M112.7326342423,176.353949274L176.5232472756,7.3696974995c.4502349054-1.1926909792,1.7551289075-1.8244615248,2.970013867-1.4378684091.271070436.086310043.5140663971.2182411088.7276600367.3814714209l-63.9727177349,177.2702055972c-3.0301308945-.9527300903-4.6377740036-4.2566975065-3.5155692021-7.2295568346Z" style="fill: #ffc97b;"/>
  <path d="M116.2567396023,183.5864463408h-.0000948462c-.002845386-.0008536158-.0055959257-.0019917702-.0084413117-.0029402322L180.2209211793,6.3133005114c.7930090676.6063517638,1.1550370081,1.6707158328.8163412325,2.6716277933l-57.8906103951,171.0951488267c-.9629734557,2.8462396496-4.0221427495,4.4030451948-6.8899124143,3.5063692094Z" style="fill: #ef9959;"/>
  <path d="M133.3148284438,182.118511686L161.2818425246,3.6731616569c.1973749396-1.2594627047,1.3459624062-2.1441880688,2.6141509294-2.0136796961.283021057.0291177837.5477367977.1087885927.7901636816.2249751891l-26.4545965958,186.5942510912c-3.1607495727-.3144151567-5.4087782172-3.220882144-4.9167320959-6.3601965551Z" style="fill: #ffc97b;"/>
  <path d="M138.2405709286,188.4797515493h0c-.0030189838-.0002845386-.0059753105-.0007587696-.0090103889-.0010433082L164.6861571356,1.8844571498c.8999955797.4317399075,1.4716336195,1.3998350824,1.3443500208,2.4487392207l-21.7604685283,179.3081659208c-.3619330944,2.9828181792-3.0390618997,5.1310846347-6.0294676994,4.838389258Z" style="fill: #ef9959;"/>
  <path d="M75.2267482629,110.6120637335c5.3076881271-6.572367507,27.3668273352,10.334157536,36.9880257343,10.769406753,12.9653805201.586623754,32.9122948825-16.2056116167,35.9113316863-13.5404333651,1.9846567084,1.7636651099,2.6399490954,9.4858531132.8220320044,12.9333228317-5.0316856888,9.5421917566-23.0192672778,17.7760750149-38.2713896493,17.3241328666-17.5903657088-.5211798752-41.7707401515-19.6596257231-35.4499997757-27.4864290862Z" style="fill: #1c7d88;"/>
  <path d="M88.9278507466,89.1796676651c-.4389482077,0-3.3853453713,2.4808920828-3.9927404279,2.9961914936.732592039,1.9443471231,2.4470319272,3.5902132512,2.4470319272,3.5902132512,0,0,1.1032509836-.8071411716,2.3527548057-1.9613245931-.1221470378-1.4607263435-.4302223574-4.6250801517-.807046305-4.6250801517Z" style="fill: #1c7d88;"/>
  <path d="M144.6963722913,108.7837135144c.7720480577-3.6243578836,2.8001443251-3.2206924516,4.9004185498-4.5173348672.9209565897-.5685081295,1.8213315542-1.2268356116,2.0666038241-1.7489639488.6923772507-1.4740996579,1.6286989246.3578547168.331677157,2.0864267324-.6185869081.8244980264-.8452693231,1.7734342686-.0318683228,1.2046416005.8134010003-.5686978219,3.7779137878-5.4005426921,3.809971803-3.2507586974.056812873,3.8037120499-2.1941719614,7.8581974557-6.5579507188,9.1361551696-1.8638226512.5459347337-4.8714742103-1.2545307023-4.5188522923-2.9101659891Z" style="fill: #ff6161;"/>
  <path d="M87.4427489669,92.8833169729l-.1856140109,8.834070019c.34457624,1.1268677156,7.3731537968,2.3350186255,8.6986294241.3537763302.388015799-.5799845199-.0965534303-1.6107730337-.953583682-2.6232562307l-4.9131279404-5.4362048637-2.6463037908-1.1283852548Z" style="fill: #ff6161;"/>
  <path d="M91.0765913788,95.1043304646c-1.3077393881.1715767778-3.0993840821.3833683449-3.0993840821.3833683449,0,0,.7301260378,1.93818212,2.9249619226,2.8771595111,1.161676242.4969940939,2.3475382648.5369243446,3.3822154467.2889015286l-3.2077932872-3.5494293847Z" style="fill: #311e69;"/>
  <path d="M88.2171681795,89.743623177l-.3670547891,4.8926412851c.0072083111,1.620826731,1.3003413846,2.9462075456,2.9207886899,2.9825336406,1.2948403051.0290229375,2.0819689083-.1632303121,3.5886956213-.7339199043,1.2554791326-.4755588524,1.6134286866-1.8809898607,1.1954414888-3.5771244754-.5422357181-2.2004318661-1.6670167889-4.0728855687-2.3249648695-5.0410755898-1.5001823253-2.2073556388-4.5400978408-1.6943325369-5.0129061414,1.4769450439Z" style="fill: #ff6161;"/>
  <path d="M91.7413683857,92.3741825652s1.1360677684.0006639234,2.6026745393-.5585492784c0,0,.283969519.9759674096-.2295278009,1.4654686536-.513482353.489501244-1.7255368935.1818201676-2.3731467384-.9069193752Z" style="fill: #fff;"/>
  <path d="M94.3467934648,95.1024335406c-1.5193412574.066487187-2.0788389838,2.5307811846-5.1652291366,1.0868426187-.5757164263-.269268365-1.0584835778-1.1383441059-1.3234690352-1.6599982121l-.0079819025.1069865149c.0072083111,1.620826731,1.3003413846,2.9462075456,2.9207886899,2.9825336406,1.2948403051.0290229375,2.0818740621-.1631354659,3.5886956213-.7339199043.7658830547-.2901345292,1.1959157198-.9273113084,1.3214122602-1.7643290333-.2477532906.1050895908-.8702288928-.0384127115-1.334216497-.0181156244Z" style="fill: #ad263d;"/>
  <path d="M88.7905134508,91.5437092282c-.1334486016-.2732519054-.223837029-.5631018961-.296868602-.858263274-.1387599887-.5610152797-.4750846094-1.3624656792-1.206064263-.7472932187-1.0632258878.8948739076-.4074592697,3.6260651152,1.0353411053,3.5107321347,1.0713826608-.0855512734.8036318418-1.2167819142.4675917597-1.905175642Z" style="fill: #ff6161;"/>
  <path d="M141.5176019409,96.8647708037s1.6401753146-1.5567106991,2.7811750853-.8872862115c1.1410946169.6695193337,1.4875840661,2.322024696.4431214405,2.7202838945-.6840307852.2608270531-.4541073521-1.3374262821-1.4078021277-1.0504216775-.953662329.2869097584-2.1116557685,1.7591124923-2.9063720677,1.7216482428-.716262361-.0336704014-.5676544994-1.4608211897,1.0898776696-2.5042242483Z" style="fill: #ad263d;"/>
  <path d="M85.7855013365,87.6039877258s-.7477674308-1.3160858868-2.644027482-1.2188685307c-1.896165205.09712251-.2937386775,1.1654701194-.2670868956,1.5126072155.026746628.3472319423-.2135936395.2938335311.4807753814.4540287648.6943690209.1602900799,3.0179111974.9348041583,2.4303389962-.7477674497Z" style="fill: #311e69;"/>
  <path d="M86.101718563,101.7858659491c.2618703547-.4242470576,1.3882638108-1.1095108608,1.8754887337-1.2155489136,1.7817806893-.3877312702,6.8942753394-1.1319894104,8.9852546366-.1201701368,2.4838322523,1.2017962145,1.2520646694,5.6082558726-.2403402676,6.2092014029-1.38350649.5571265854-12.417913529-1.9612297469-10.6204031027-4.8734823524Z" style="fill: #ff6161;"/>
  <path d="M77.2646136888,200.812792774c-.758390205,0-1.3940494289-.5817865977-1.4384374499-1.3354345118-.0172620082-.2917469147-1.6649301725-29.4304916706,3.1252770943-52.2396751945,2.4309080734-11.5747458468-.5193777842-32.2765416278-.5494440292-32.4843496545-.1122030531-.7750831556.4360079756-1.4927843595,1.2245592718-1.6030904914.7880770652-.1104958243,1.5187721803.4286099829,1.6310700796,1.2035982923.1256712133.8683169713,3.0501589049,21.4032782846.5186190147,33.456997447-4.7123385377,22.4387142623-3.0875283072,51.2143877603-3.0705508377,51.5024356732.0460004064.7815326973-.5612998041,1.4518108006-1.356395488,1.4971472848-.0283590134.0016123854-.0566231806.002371155-.0846976555.002371155Z" style="fill: #064f57;"/>
  <path d="M148.948137688,120.774359953c.1497621478-.28387468.2810292868-.5991434525.3978798037-.9353732355-1.3487129459,1.6663529076-4.6281151132,5.2028832089-8.8373894128,6.1700299218-5.5648161719,1.2786216374-13.033100706,4.0595122544-19.2292131766,6.5165979407-6.1960176244,2.4569908402-7.7984441519,3.418446781-14.2082451083.1067968225-6.4097061101-3.3117448047-8.3326179432-.3204853136-15.9404212357-4.807279704-7.6077084463-4.4868892366-5.7458775652-8.3327129999-8.9142148338-13.5673696862-1.8477936436-3.0528146756-4.2659923265-4.1422181418-5.9620320521-4.5210338691-.3892487996.2262081897-.7353425787.5132127943-1.0277534094.8753355902-6.3207403757,7.8268033631,17.859634067,26.965249211,35.4499997757,27.4864290862,15.2521223715.4519421484,33.2397039605-7.7819411099,38.2713896493-17.3241328666Z" style="fill: #064f57;"/>
  <path d="M88.6792588597,174.4234496963c-1.6746044848.0000948462-3.1551536469-.5600668176-4.3554322919-1.6619899823-2.7997649403-2.5703320505-3.470123228-7.4088161547-2.9081741454-10.8167350074.2514372728-1.5248423755,1.4985699399-2.6705844851,3.032991743-2.7862968505l8.3227539385-.6277870052c1.7289513566-.1290856797,3.2460163053,1.0632259146,3.5306497477,2.7764328455.6812004517,4.1002961209.8759994915,11.2200210545-5.4729102053,12.8330703971-.7451117372.1892181712-1.4638562312.2833056028-2.1498787866.2833056028ZM84.5209169688,160.1172281033c-1.0907312854.0822316564-1.9776380897.8980986785-2.1566128667,1.9839928351-.5376831006,3.2611917795.1860882419,7.7269303133,2.609693158,9.9520221917,1.4620541534,1.3421685921,3.3521492017,1.7309431705,5.6183094279,1.1550370373,5.6037181458-1.4236414789,5.3884172693-7.9688829724,4.7612791762-11.743666931-.2024017881-1.2187736845-1.282415453-2.0688801852-2.509914957-1.9751721384l-8.3227539385.6277870053Z" style="fill: #064f57;"/>
  <g>
    <path d="M310.8059931983,250.6920123781c.377213385-1.4614407835-.5810673517-2.928590592-1.6552691452-3.9888679343-1.0741321713-1.0603469645-2.3583843123-2.0102034082-2.9173117865-3.4121867848-.9054374441-2.2714261141.311768464-5.2124094678-1.2332190271-7.1075272862-.9089881792-1.1148611913-2.5387755786-1.4878276187-3.3453494187-2.6787859362-.4230248297-.6247205064-.559971808-1.3924451274-.7262297562-2.1284219995-.8481383271-3.753892819-2.7268949153-7.2694686545-5.3763698815-10.0606249125-.1843597349,3.3429126397.5529399601,6.7319152131,2.1093455013,9.6960827781.6256255958,1.1915152955,1.3940464393,2.3530930208,1.6013815188,3.6828084953.3366236096,2.1593342814-.8686072705,4.3837653724-.3380856769,6.5038327012.6065490975,2.4246647004,3.330241389,4.0475594964,3.4593906746,6.5437262541.1093069425,2.1101809684-1.7300434486,3.9624114769-1.5929572258,6.0709911333.0584130731.8977789959.4751022775,1.7314358937.9389257494,2.5023631385,1.6316672003,2.7124831082,4.0283437537,4.580796358,7.6615115801,4.5200161282l4.4498350906.1558146098-3.0355981969-10.299220385Z" style="fill: #ff735d;"/>
    <path d="M310.8059931983,250.6920123781c.377213385-1.4614407835-.5810673517-2.928590592-1.6552691452-3.9888679343-1.0741321713-1.0603469645-2.3583843123-2.0102034082-2.9173117865-3.4121867848-.9054374441-2.2714261141.311768464-5.2124094678-1.2332190271-7.1075272862-.9089881792-1.1148611913-2.5387755786-1.4878276187-3.3453494187-2.6787859362-.4230248297-.6247205064-.559971808-1.3924451274-.7262297562-2.1284219995-.8481383271-3.753892819-2.7268949153-7.2694686545-5.3763698815-10.0606249125-.1843597349,3.3429126397.5529399601,6.7319152131,2.1093455013,9.6960827781.6256255958,1.1915152955,1.3940464393,2.3530930208,1.6013815188,3.6828084953.3366236096,2.1593342814-.8686072705,4.3837653724-.3380856769,6.5038327012.6065490975,2.4246647004,3.330241389,4.0475594964,3.4593906746,6.5437262541.1093069425,2.1101809684-1.7300434486,3.9624114769-1.5929572258,6.0709911333.0584130731.8977789959.4751022775,1.7314358937.9389257494,2.5023631385,1.6316672003,2.7124831082,4.0283437537,4.580796358,7.6615115801,4.5200161282l4.4498350906.1558146098-3.0355981969-10.299220385Z" style="fill: #1c7d88;"/>
    <g>
      <g>
        <path d="M314.7426444403,261.1080589093s.4242761937.0986547373,1.2252106108-.0265260797c.3988658967-.0582042063.889772414-.1640996583,1.4459846061-.3639851563.5530791906-.2021830325,1.1826732391-.4904887961,1.7859500753-.9780534575.2894893347-.2532857687.5789786694-.5651934772.7345863655-.9789585468.1533062476-.411954891.1811551495-.8648476686.2094217848-1.3295066077.023812774-.4651462948.0242981669-.9494387101.1038783688-1.4393705282.0751920369-.4900014403.2675563595-.9715089654.5436782213-1.4310854797.524742933-.9216594298,1.3957869605-1.7940959244,1.6772717569-3.0455559827.3045257206-1.2309214926.0861207079-2.562795257-.1208662551-3.900517291-.2067084739-1.3345890324-.4067332114-2.7898334351.1038067816-4.1803291393.4772625881-1.3916792826,1.4531556983-2.6480825211,1.9410684586-4.2169504462.4857544704-1.584602555.2594125207-3.2888857687.3619661017-4.9697759043.0469950219-.8443787253.2100503422-1.6886878283.5798837587-2.4707546341.3600166786-.7876365863.8594171109-1.5305060618,1.2493017368-2.3597071352.7897948563-1.6764343112.9292482323-3.576286443,1.1452860884-5.4382640674.1054080935-.9380902823.2117212763-1.8860669251.3192180374-2.8433729502.1060346938-.961901094.1913915779-1.9199033417.4944572523-2.8457401069.2743116832-.9325901241.6711585345-1.8347553222,1.0644546508-2.7539083508.1924359117-.4622917823.396220251-.9249316759.5164578847-1.4383261944.0870278183-.5244644572.1121614522-1.0153709869.143561089-1.5304364396.0499887788-1.0202445449.0078673148-2.0542046742-.1184970774-3.0802278664-.1209338563-1.0269979037-.3061986758-2.0450145364-.4165499493-3.0741011078-.0068207766-.0607802298-.0136459619-.1215604596-.0199119648-.1774671315l-.022975344-.2049679228-.1822710626.0912051558c-.9528501766.4770517007-1.7686141339,1.1879645605-2.3954232922,2.0216214583-.6372524965.828017495-1.1013544457,1.7623481755-1.4718840848,2.7122046192-.7432871902,1.91182716-1.010915137,3.9154860761-1.3856221113,5.8272436138-.3657953257,1.9118967822-.8479990612,3.7926724158-1.8284196506,5.3818004175-.4874950268.792440522-1.0776132569,1.5159550102-1.5937926526,2.289040545-.5149958174.7675157542-.9681670726,1.6107109012-1.1042089582,2.5361299328-.2631721224,1.8823769455.7737121155,3.5356966676.557813504,5.2024534851-.0768629691.8282959841-.4065243447,1.6025650972-.8117258665,2.3093702438-.4040179435.7109824821-.8789809645,1.3702356276-1.3295761963,2.0330395083-.4501078761.6625950139-.87884172,1.3346586546-1.1945071407,2.0530210959-.3210300977.7159952845-.4979402466,1.4817008601-.5466758249,2.2306970941-.1085410949,1.5006381138.1044333819,2.9242043899-.0052912914,4.2681924269-.0904393087,1.3461463269-.5631047953,2.5664156144-1.098151822,3.6571178827-.5382496504,1.0948099814-1.1370010401,2.0846992225-1.6386293846,3.0447205156-.252380673.4794884796-.4849190034.9479070205-.6745700249,1.4180661178-.2006513378.4691147634-.2993756948.9499260659-.3906504706,1.40671769-.1459978679.9226341414-.1317931597,1.7821905186-.0327920819,2.5399591569.1934802456,1.524309681.7619459545,2.6219045527,1.2731125478,3.2388969887.11703501.1646566363.2530768955.2811346712.3600166786.3899542579.1043637597.1123703218.2076831855.1885370703.2920653581.2480640995.1659098327.1222566822.2545407888.1783722208.2545407888.1783722208.0196316499-.0225576111-.3662130685-.226759689-.861646849-.8521067957-.4899318057-.6203343043-1.033611992-1.709783372-1.2078764953-3.2171052224-.0893949749-.7490658563-.0947558885-1.5974826724.0566725153-2.5031289833.0937115547-.4476711085.1943174926-.9188049173.3935746053-1.3736471182.1893029103-.4591587808.4245583043-.9250012982.6786081157-1.3993377308.5055290056-.9514577556,1.1106142056-1.9374481503,1.6604211503-3.0391507351.5456992317-1.0961328043,1.0368842379-2.3407002592,1.1365136843-3.7215880921.1169653877-1.3725331621-.0896734639-2.8010426183.0236715666-4.2664518704.0511027349-.7329134928.2233500718-1.4630420954.5363698495-2.1558531685.3082873434-.6951782299.7308248067-1.3543617532,1.1809326827-2.0119439646.4502471206-.6582088117.9307102997-1.3200379808,1.3462855374-2.0458500035.4157144823-.7209384647.7647308447-1.5270945713.8490453672-2.403917268.2145041942-1.7755764042-.814791218-3.439687576-.5473025157-5.1894341232.1284530598-.8656831357.55892746-1.6721873535,1.0668218074-2.425917901.5080335919-.7586737277,1.101145579-1.4828844385,1.6033309015-2.2953761703,1.011193626-1.6347305796,1.501195054-3.5516401643,1.8708196037-5.471265017.3782577093-1.9237325658.6462337673-3.9061566937,1.3763623514-5.7787169011.3633606639-.9307799454.8172977754-1.8415783033,1.4331741112-2.6409114287.6059942635-.8055991285,1.3866664451-1.4829540607,2.2945406453-1.9382836174l-.2051071621-.1136235224c.0063356252.0565332722.0132282284.1179401023.0201208316.1794165547.1118829632,1.0412704663.2976351385,2.0614453889.4171765496,3.0763986423.1251111915,1.0145355198.1666060553,2.0280267058.1180097216,3.0331632211-.0290324802.4960585766-.0592485387,1.0165545653-.1368077303,1.4845553726-.1087499617.4680008073-.3082851438.9295963671-.4992611878,1.3872234582-.3907897151.9155326713-.7932759691,1.8313438316-1.0726679091,2.7843332768-.3092642227.948046265-.3978237306,1.9426001973-.5010039119,2.8928743745-.1062435605.9580022477-.2115124095,1.9067447352-.3156651553,2.8455312402-.2126285127,1.8699841839-.3520818887,3.7392721452-1.1125636568,5.35750225-.3758230494.805738373-.87445554,1.5508357607-1.2450568982,2.3640933374-.3824350446.811725887-.5520348568,1.7037262357-.596384233,2.5620990345-.0969141784,1.7172329534.1264340144,3.3958951768-.3380856684,4.9170718562-.4613170591,1.5140752093-1.4320601551,2.7770229399-1.9224793166,4.2129819776-.525021422,1.4508582005-.3074518764,2.9534457375-.0952432443,4.2838574345.2149935222,1.3396714571.4308225115,2.6436963189.1439788225,3.8267873215-.2571846085,1.1952748974-1.1031646243,2.059844077-1.6387686291,3.0077510975-.2786978852.4702983418-.478513756.9797940139-.5518956123,1.4881061077-.0779769252.5067804041-.0737995899.9953197771-.0935026879,1.4567760923-.0231842108.4582536914-.0492925563.9078742231-.1899295106,1.2933030344-.1396602922.3843844774-.4120245028.6879375152-.6903046545.9364889705-.5809977147.480672058-1.1992433357.7751045802-1.7429931442.98306626-.5472309213.2060818789-1.0318018134.3199838903-1.4255834288.3868212564-.3942030622.071432435-.700123249.0815276622-.9051607888.0873759317-.2047590508-.0075192037-.31114003-.0039684686-.31114003-.0039684686Z" style="fill: #1a2e35;"/>
        <path d="M328.8027873112,208.6854239963c-.0048735578-.0010443338-.0194224285.0445582441-.0430939956.1344405771-.0261105255.1065916745-.0583456294.2382473613-.0982391812.4006064632-.0874455518.3504088163-.191948556.879607587-.3598078118,1.5406709112-.1747518591.6589746566-.5783520691,1.4048378891-.9236784519,2.3241997845-.3588309643.9118426917-.7227486251,1.9688477879-1.0576316698,3.1563249926-.3394084912,1.1864328708-.6403854979,2.5045214285-.9547278833,3.9161126764-.3243721785,1.4090848467-.6479764179,2.920444788-1.4244038014,4.3457516205-.3647509919.7228878879-.7755222941,1.4545481801-1.1014916598,2.2547863948-.3343280971.8003774592-.5147193588,1.6753203551-.6408052619,2.5534658747-.2137403217,1.7626962868-.5372033159,3.5524756314-.9593250463,5.3834017294-.8922091929,3.6467441665-1.7420880549,7.1197808033-2.5158697927,10.282371799-.7925797465,3.1516603014-1.5067648343,5.9917610056-2.10878847,8.3859311577-.5858016503,2.3724480081-1.0618090051,4.3001490425-1.3976667614,5.6596628427-.1547006497.6523605422-.2769573288,1.1675652393-.3659345702,1.5423418454-.0356465944.1633338134-.0646790745.2956857228-.0880721521.4029039976-.018310653.0912051558-.0253425007.1384090457-.0206063615.1396622463.0048021097.0011835784.021302584-.0436531547.0488033746-.1324911539.0308426588-.1052688516.0688582387-.2353928488.1157818094-.3958025275.1015092472-.37150436.2411018677-.882322855.4179423944-1.5290439944.3568836771-1.3542225087.8628982237-3.2741954726,1.4855996689-5.6372444761.619081088-2.38978395,1.3533173852-5.2248022294,2.1681762531-8.3707535058.7810920745-3.1633568405,1.6389774958-6.6372985667,2.5396109815-10.2849478225.4222589742-1.8286285636.7490658374-3.6514784799.9575844899-5.4056112292.1235795019-.8721580056.2956857153-1.7153531525.6167139314-2.4917109333.3144837241-.7798388936.7187822116-1.5078788285,1.083670393-2.2384251646.7828326309-1.4522506457,1.108804027-3.0094220317,1.4205724831-4.4128674756.3045994717-1.4153508498.5927638758-2.7293316943.9179715504-3.9134670306.320817226-1.1849708034.6692069881-2.2403745878,1.012096592-3.1531919911.3274356206-.9161592716.7180164788-1.6708645307.8819050992-2.3522575538.1541436717-.6772156877.2389435778-1.2009143002.3088465004-1.5579372308.0284733232-.1647958808.051657534-.2984009908.0703859205-.4064547327.0142725622-.0918317562.0192157423-.1394533795.014481429-.1404280911Z" style="fill: #1a2e35;"/>
      </g>
      <g>
        <path d="M315.528120891,261.1217744938c2.9064506411-1.7277459141,3.7405948736-6.971694264,2.528262554-10.1280888789-1.2124019418-3.1563249926-3.3346971292-6.0402877183-3.6619217259-9.4056187245-.2514755837-2.58695418.5956183882-5.242068549-.006822981-7.7705400336-.8131183116-3.412256407-4.1446111049-6.0553957479-4.1061796194-9.5630346462.0215132772-1.9680819431,1.1412480264-3.8198947181,1.052061916-5.786027238-.1093765648-2.4117149607-1.9604234949-4.3250041881-3.1069628128-6.449457719-1.7548289718-3.2519163506-1.8702626729-7.0967358365-2.4703369006-10.7427141581-.6000046054-3.6461871884-1.9895255981-7.550951437-5.2210426276-9.343028316-.4771909452,3.0954751405-1.2919802115,5.2156120916-1.0359791748,9.4092390818.0919013784,1.5060686498,1.8414390588,4.3891959084,2.079407931,7.6899174607.1422382698,1.9727466343.240893007,3.9484870256.3614091328,5.9226957273.1172438797,1.9212261646.2417980964,3.8774027018.9304318341,5.6748404946.5275974588,1.3774067201,1.3755965414,2.6286579116,1.7674306002,4.0506228757.7371604505,2.6753048233-.2314243802,5.572843889.3638459118,8.2833079518.5042740029,2.2963508819,2.0936108713,4.2726482513,2.4183290751,6.6012342379.456234646,3.2716194492-1.6611174148,6.6709957388-.5773773721,9.7916045138.5378319305,1.548468604,1.811640733,2.7918524805,2.1730498659,4.3909364648.2805080709,1.2406686085-.0252728791,2.5539532305.2287787344,3.8002612418.4091700007,2.0079058738,4.2389492851,3.567305172,6.2843118811,3.4432383111" style="fill: #064f57;"/>
        <path d="M301.3363219979,195.006182309c-.0049431802.0006962226-.0005569781.0599447627.0126016284.1747518635.0167789638.1300543749.0383618633.2977743905.0655145432.5086602051.0666284993.4470445082.1416116695,1.103652008.2926919658,1.9524169354.1624983464.8537777299.6021628954,1.8145648678.95375529,2.9733577029.3708777597,1.1551028555.7397364739,2.4879513314,1.065916745,3.9800259077.3318196739,1.4913087315.609125121,3.141773941.9004942639,4.9183250569.3011162588,1.7632532649.6089162542,3.7118409762,1.4899859086,5.5610777277.4077079333.9292482558.8651261577,1.8589838674,1.2082942593,2.8497781978.3518708837.9871739731.5136730075,2.0490526273.6130935896,3.1407992294.1501055847,2.1927529644.4421709502,4.4729514828.852454907,6.7706948099.89019017,4.5866446275,1.7381196303,8.955232348,2.5098127199,12.9317075207.8134664434,3.9607405427,1.546308536,7.5290204263,2.1633705786,10.5330815442.6230495565,2.9820604849,1.1285767473,5.4015731383,1.4826755342,7.0961092362.178024105.8219603587.3178274314,1.467289053.4173157941,1.9265174561.0479697334.2070565904.0860531067.3718524713.1156444094.4994700672.0274989461.112161455.0441386649.1692517052.0488729782.1682073714.0048735578-.0009050893-.0020190454-.0598751405-.0202600761-.1739860187-.022418366-.1291492856-.0513812239-.2956857228-.08779182-.5051790922-.0868904168-.461665182-.2091470959-1.1106142336-.3647528349-1.9370304168-.332794377-1.6989223-.8079662648-4.124561712-1.3936286706-7.1142806451-.5998653457-3.0074029862-1.3123794994-6.5798602052-2.1032169441-10.5452654391-.7645219972-3.975221972-1.6044448981-8.342556492-2.4863500195-12.9278782966-.4100054678-2.3000408615-.7002606546-4.5471688081-.8553094195-6.7486245546-.1015092498-1.0978037385-.2700647325-2.1917782528-.6339106443-3.2035985047-.3537506846-1.0118202518-.8175045343-1.945524332-1.2253517121-2.8669052729-.8761264742-1.8221536938-1.1837176028-3.7249299604-1.4972962455-5.4944492283-.3011162588-1.7732788698-.5912322011-3.4284783928-.9368370817-4.9227808813-.3401743446-1.4954164446-.7244891998-2.830562455-1.1113104562-3.9854564437-.3692764478-1.1627613037-.8225173368-2.1154026376-.996921089-2.947318979-.1654921034-.8333784088-.2599695053-1.4964607784-.3445605468-1.9377266393-.0387099745-.2091452581-.0695526341-.3754032064-.0935723126-.5042740029-.0225576111-.1133450334-.0366213069-.1710618839-.0414252425-.1702264168Z" style="fill: #f0bb62;"/>
      </g>
    </g>
  </g>
  <g>
    <path d="M25.6190698524,223.9117879354c1.7152999567.7445,2.9769999248,2.33,3.6101999088,4.0895.632999984,1.7595.6900999826,3.6815.4795999879,5.5396-.4073999897,3.5948-2.4501999381,7.2237-4.6495998825,10.0963-3.0270999235-2.642-3.7235999059-7.2508-3.9300999007-9.6109-.3262999918-3.7305,1.3491999659-10.6705,4.4898998866-10.1145" style="fill: #f0bb62;"/>
    <path d="M28.5781697777,249.5703879354c-.4845999878-2.0319.3608148116-4.2607,1.9204999515-5.6502,1.5594999606-1.3895,3.7385999056-1.9776,5.8213148601-1.8183.963.0736,2.0036849422.3544,2.5550849283,1.1473.515499987.7413.4577999884,1.7758.039399999,2.576s-1.1421999711,1.3984-1.9069999518,1.8783c-2.6229999337,1.6459-5.4634849755,2.7571-8.4292997871,1.8669" style="fill: #f0bb62;"/>
    <path d="M24.6959845893,260.5930879354c-.0182147131-.0042.0233852859-.2663.1078852838-.7378.0951999976-.5193.2182999945-1.1903.3659999908-1.9963.3345999915-1.6682.7641999807-4.0581,2.0604999479-6.3777,1.2788999677-2.314,3.0692999225-4.0181,4.5767998844-4.8638.7486999811-.4332,1.4035999645-.6911,1.8661999529-.8255.2283999942-.0769.4148999895-.1062.5374999864-.1365.1238999969-.0261.1897999952-.0355.1919999951-.0267.0213999995.0586-1.0486999735.2512-2.5000999368,1.1476-1.4552999632.8707-3.1853999195,2.5576-4.4433998878,4.8324-1.2710999679,2.2717-1.7274999564,4.6281-2.1077999468,6.2875-.1832999954.8364-.3321999916,1.5144-.4478999887,1.9801-.1152999971.4657-.1906852812.7205-.2076852812.7167Z" style="fill: #1a2e35;"/>
    <path d="M24.8099845893,229.3095879354c.009-.0003.0214852831.1107.037.3224.0141852823.2394.0323852818.5465.0548852813.9266.0431147187.8049.0903999977,1.9701.1367999965,3.4103.0931999976,2.8805.1663147222,6.862.1479999963,11.2596-.0197999995,4.399-.1273999968,8.3801-.2455999938,11.2597-.0587999985,1.4398-.1161999971,2.6044-.1661999958,3.4088-.0258852845.3798-.0466999988.6868-.0629999984.9259-.0172999996.2116-.0307999992.3225-.039799999.3221s-.0131999997-.1121-.0129999997-.3243c.0035999999-.2397.0080999998-.5472.0139147126-.9278.0202852865-.8382.0483852858-1.9952.082785285-3.4107.0707999982-2.8799.1489999962-6.8587.1686999957-11.255.0182999995-4.3945-.0252999994-8.3736-.0710999982-11.2539-.0221999994-1.4158-.040299999-2.5731-.0533852825-3.4115-.0024147161-.3806-.004314716-.6883-.005814716-.9281.0016-.2121.006814716-.3238.015814716-.3241Z" style="fill: #1a2e35;"/>
    <path d="M23.34056991,251.7588879354c-.6887999826-4.3497-3.6201999085-8.282-7.5917998082-10.1845-1.0113999744-.4844-2.3324999411-.8011-3.1639999201-.0487-.832899979.7537-.6462999837,2.1063-.238899994,3.1532,1.6954999572,4.3555,6.2495998421,7.4305,10.9231144015,7.3755" style="fill: #f0bb62;"/>
    <path d="M16.2392700894,244.9840879354c.0078999998-.0163.235599994.084.6423999838.2802.2041999948.0966.4536999885.2163.7257999817.3868.2719999931.1699.6006999848.3357.9240999767.5796.3302999917.2333.6986999823.4813,1.0571999733.7957.3763999905.2931.7420999813.6472,1.1250999716,1.0223.7456999812.7684,1.4964999622,1.6861,2.137899946,2.7468.631399984,1.0668,1.0887999725,2.1615,1.4083999644,3.1844.1439999964.5167.2826999929,1.007.3558147025,1.4788.1022852859.4661.140285285.9088.1815852839,1.3113.0556999986.4015.0367999991.7695.0502999987,1.0899.0145999996.321-.0059999998.5971-.0243999994.8223-.0328999992.4506-.0596999985.6978-.077799998.6964-.0591999985-.0023.0437999989-.9999-.1325999967-2.5896-.0523999987-.3962-.1001999975-.8312-.2103999947-1.2882-.080899998-.463-.2254999943-.9433-.3731999906-1.4494-.3270999917-1.0018-.7824853033-2.0732-1.4024853033-3.1211-.63-1.0418-1.3618146269-1.9474-2.086-2.713-.3723145992-.3737-.7269145902-.7285-1.092114581-1.0245-.3471999912-.3172-.7045999822-.5703-1.0240999741-.8106-1.3004999671-.9321-2.2119999441-1.3472-2.1854999448-1.3981Z" style="fill: #1a2e35;"/>
  </g>
</svg>