<svg xmlns="http://www.w3.org/2000/svg" xmlns:xlink="http://www.w3.org/1999/xlink" width="250" zoomAndPan="magnify" viewBox="0 0 187.5 187.499992" height="250" preserveAspectRatio="xMidYMid meet" version="1.0"><defs><clipPath id="acde1db16c"><path d="M 33.039062 62 L 154.21875 62 L 154.21875 122 L 33.039062 122 Z M 33.039062 62 " clip-rule="nonzero"/></clipPath><clipPath id="344c5a0db4"><path d="M 90 18.699219 L 97 18.699219 L 97 27 L 90 27 Z M 90 18.699219 " clip-rule="nonzero"/></clipPath><clipPath id="e3df335cd5"><path d="M 90 160 L 97 160 L 97 168.300781 L 90 168.300781 Z M 90 160 " clip-rule="nonzero"/></clipPath></defs><g clip-path="url(#acde1db16c)"><path fill="#002f35" d="M 44.519531 110.707031 L 48.660156 108.140625 L 51.480469 110.207031 L 54.554688 106.824219 L 52.671875 105.199219 L 52.671875 66.894531 L 48.59375 63.890625 L 45.523438 67.269531 L 47.402344 68.898438 L 47.402344 107.265625 L 41.003906 103.632812 L 43.953125 101.820312 C 43.011719 100.878906 42.699219 99.628906 42.699219 98.0625 L 42.699219 63.890625 L 40.820312 65.265625 L 40.820312 103.507812 L 39.566406 102.820312 L 39.566406 66.078125 L 33.039062 70.148438 C 33.980469 71.085938 34.292969 72.339844 34.292969 73.902344 L 34.292969 101.378906 C 34.292969 102.945312 33.980469 103.820312 33.039062 104.757812 L 44.519531 110.703125 Z M 65.78125 110.707031 L 68.667969 108.890625 L 68.667969 118.59375 C 67.347656 117.464844 65.84375 116.964844 64.402344 116.964844 C 61.828125 116.964844 59.445312 118.59375 58.378906 121.15625 L 58.691406 121.46875 C 59.820312 120.96875 60.886719 120.71875 61.953125 120.71875 C 63.394531 120.71875 64.714844 121.15625 65.78125 121.96875 L 74.9375 116.152344 C 73.996094 115.210938 73.683594 113.957031 73.683594 112.394531 L 73.683594 82.480469 C 73.683594 80.914062 73.996094 80.039062 74.9375 79.097656 L 69.859375 75.15625 L 66.785156 78.472656 L 68.667969 80.097656 L 68.667969 107.449219 L 63.964844 104.007812 L 63.964844 82.476562 C 63.964844 80.910156 64.277344 80.039062 65.21875 79.097656 L 60.136719 75.152344 L 57.066406 78.46875 L 58.945312 80.097656 L 58.945312 101.628906 C 58.945312 103.191406 58.632812 104.070312 57.691406 105.007812 L 65.78125 110.703125 Z M 86.101562 121.96875 L 95.257812 116.152344 C 94.320312 115.210938 94.003906 113.957031 94.003906 112.394531 L 94.003906 84.230469 C 94.003906 82.664062 94.316406 81.789062 95.257812 80.851562 L 86.601562 74.65625 L 77.445312 80.476562 C 78.386719 81.414062 78.699219 82.667969 78.699219 84.230469 L 78.699219 101.128906 C 78.699219 102.695312 78.386719 103.570312 77.445312 104.511719 L 86.097656 110.707031 L 88.984375 108.890625 L 88.984375 118.59375 C 87.605469 117.464844 86.097656 116.964844 84.65625 116.964844 C 81.960938 116.964844 79.449219 118.59375 78.070312 121.15625 L 78.386719 121.46875 C 79.5 121.019531 80.695312 120.785156 81.898438 120.78125 C 83.382812 120.78125 84.835938 121.195312 86.097656 121.96875 Z M 83.71875 103.507812 L 83.71875 77.910156 L 88.988281 81.851562 L 88.988281 107.449219 Z M 107.550781 74.65625 L 104.667969 76.472656 L 104.667969 69.960938 C 104.667969 68.398438 104.980469 67.523438 105.921875 66.582031 L 100.839844 62.640625 L 97.769531 65.957031 L 99.648438 67.582031 L 99.648438 102.882812 C 99.648438 104.449219 99.335938 105.324219 98.394531 106.261719 L 103.476562 110.203125 L 106.546875 106.886719 L 104.664062 105.261719 L 104.664062 77.910156 L 109.367188 81.351562 L 109.367188 102.882812 C 109.367188 104.449219 109.054688 105.324219 108.117188 106.261719 L 113.195312 110.203125 L 116.269531 106.886719 L 114.386719 105.261719 L 114.386719 83.730469 C 114.386719 82.164062 114.703125 81.289062 115.644531 80.351562 Z M 127.5 110.707031 L 131.511719 108.140625 L 134.210938 110.207031 L 137.28125 106.890625 L 135.402344 105.261719 L 135.402344 82.480469 C 135.402344 80.917969 135.714844 80.042969 136.65625 79.101562 L 131.574219 75.160156 L 128.503906 78.476562 L 130.382812 80.101562 L 130.382812 107.453125 L 125.679688 104.011719 L 125.679688 82.480469 C 125.679688 80.914062 125.996094 80.039062 126.9375 79.097656 L 121.855469 75.15625 L 118.785156 78.472656 L 120.664062 80.097656 L 120.664062 101.628906 C 120.664062 103.195312 120.351562 104.070312 119.414062 105.011719 L 127.503906 110.707031 Z M 146.753906 110.203125 L 149.578125 106.949219 L 146.691406 104.824219 L 146.691406 77.910156 C 147.632812 79.097656 148.761719 79.664062 149.890625 79.664062 C 151.832031 79.664062 153.652344 78.035156 154.21875 75.46875 L 153.90625 75.160156 C 153.152344 75.660156 152.460938 75.847656 151.835938 75.847656 C 150.894531 75.847656 150.140625 75.410156 149.578125 74.65625 L 145.5625 77.222656 L 142.867188 75.160156 L 139.792969 78.476562 L 141.675781 80.101562 L 141.675781 102.882812 C 141.675781 104.449219 141.363281 105.324219 140.417969 106.261719 Z M 146.753906 110.203125 " fill-opacity="1" fill-rule="evenodd"/></g><path fill="#1c7d88" d="M 62.800781 59.867188 C 63.402344 59.609375 63.941406 59.230469 64.386719 58.75 C 64.808594 58.285156 65.136719 57.738281 65.347656 57.144531 C 65.5625 56.542969 65.671875 55.914062 65.671875 55.28125 C 65.683594 54.617188 65.546875 53.957031 65.277344 53.351562 C 65.023438 52.78125 64.652344 52.277344 64.191406 51.859375 C 63.730469 51.441406 63.199219 51.117188 62.617188 50.894531 C 62.023438 50.671875 61.394531 50.558594 60.757812 50.558594 C 59.933594 50.558594 59.207031 50.695312 58.582031 50.972656 C 57.980469 51.230469 57.441406 51.613281 56.996094 52.09375 C 56.574219 52.554688 56.246094 53.097656 56.035156 53.691406 C 55.816406 54.292969 55.710938 54.925781 55.710938 55.5625 C 55.699219 56.226562 55.835938 56.882812 56.105469 57.492188 C 56.359375 58.058594 56.726562 58.5625 57.183594 58.984375 C 57.640625 59.402344 58.175781 59.726562 58.757812 59.945312 C 59.355469 60.171875 59.988281 60.285156 60.625 60.28125 C 61.371094 60.296875 62.113281 60.15625 62.800781 59.867188 Z M 59.480469 59.25 C 59.078125 58.96875 58.75 58.59375 58.519531 58.160156 C 58.253906 57.671875 58.0625 57.152344 57.949219 56.609375 C 57.824219 56.027344 57.761719 55.429688 57.761719 54.832031 C 57.753906 54.191406 57.851562 53.546875 58.066406 52.9375 C 58.238281 52.433594 58.554688 51.988281 58.976562 51.664062 C 59.386719 51.359375 59.890625 51.203125 60.492188 51.203125 C 60.984375 51.191406 61.472656 51.332031 61.878906 51.605469 C 62.28125 51.886719 62.613281 52.257812 62.851562 52.6875 C 63.121094 53.171875 63.3125 53.6875 63.425781 54.230469 C 63.550781 54.816406 63.613281 55.410156 63.613281 56.007812 C 63.625 56.65625 63.519531 57.300781 63.304688 57.910156 C 63.128906 58.417969 62.808594 58.863281 62.382812 59.191406 C 61.976562 59.5 61.472656 59.652344 60.867188 59.652344 C 60.375 59.664062 59.890625 59.523438 59.480469 59.25 Z M 76.714844 60.308594 C 76.917969 60.277344 77.113281 60.191406 77.28125 60.074219 C 77.425781 59.96875 77.503906 59.796875 77.496094 59.621094 C 77.511719 59.519531 77.4375 59.421875 77.335938 59.40625 C 77.316406 59.402344 77.296875 59.402344 77.28125 59.40625 C 76.957031 59.40625 76.632812 59.378906 76.3125 59.328125 C 75.964844 59.257812 75.648438 59.085938 75.398438 58.832031 C 75.050781 58.511719 74.71875 58.171875 74.414062 57.8125 C 74.109375 57.453125 73.820312 57.078125 73.550781 56.6875 C 73.277344 56.292969 72.996094 55.875 72.710938 55.433594 C 72.683594 55.40625 72.664062 55.371094 72.660156 55.332031 C 72.652344 55.300781 72.671875 55.269531 72.707031 55.261719 C 72.707031 55.261719 72.707031 55.261719 72.710938 55.261719 C 73.007812 55.152344 73.292969 55.003906 73.550781 54.816406 C 73.828125 54.621094 74.0625 54.367188 74.234375 54.078125 C 74.425781 53.746094 74.519531 53.363281 74.507812 52.980469 C 74.507812 52.199219 74.214844 51.613281 73.632812 51.230469 C 73.046875 50.847656 72.203125 50.65625 71.101562 50.65625 C 70.789062 50.65625 70.527344 50.667969 70.328125 50.683594 C 70.128906 50.703125 69.945312 50.722656 69.78125 50.742188 C 69.597656 50.761719 69.410156 50.773438 69.222656 50.769531 C 69 50.769531 68.8125 50.761719 68.652344 50.75 C 68.496094 50.734375 68.328125 50.722656 68.15625 50.714844 C 67.984375 50.707031 67.753906 50.703125 67.464844 50.703125 C 67.378906 50.695312 67.292969 50.714844 67.214844 50.75 C 67.160156 50.78125 67.121094 50.839844 67.121094 50.902344 C 67.125 50.96875 67.15625 51.03125 67.207031 51.074219 C 67.289062 51.140625 67.386719 51.183594 67.492188 51.191406 C 67.691406 51.210938 67.878906 51.269531 68.054688 51.363281 C 68.179688 51.4375 68.269531 51.558594 68.304688 51.699219 C 68.355469 51.910156 68.378906 52.121094 68.371094 52.335938 L 68.371094 58.675781 C 68.371094 58.992188 68.292969 59.21875 68.140625 59.351562 C 67.984375 59.484375 67.730469 59.59375 67.367188 59.667969 C 67.125 59.714844 67.007812 59.8125 67.007812 59.953125 C 67.007812 60.015625 67.046875 60.070312 67.109375 60.089844 C 67.179688 60.125 67.257812 60.144531 67.335938 60.140625 C 67.566406 60.140625 67.796875 60.132812 68.027344 60.113281 C 68.257812 60.09375 68.484375 60.082031 68.710938 60.070312 C 68.9375 60.058594 69.15625 60.054688 69.363281 60.054688 C 69.554688 60.054688 69.757812 60.058594 69.976562 60.070312 C 70.191406 60.078125 70.414062 60.089844 70.644531 60.105469 C 70.875 60.117188 71.101562 60.125 71.320312 60.125 C 71.402344 60.128906 71.484375 60.113281 71.558594 60.082031 C 71.609375 60.054688 71.640625 59.996094 71.636719 59.9375 C 71.636719 59.867188 71.605469 59.800781 71.550781 59.757812 C 71.46875 59.707031 71.375 59.675781 71.277344 59.664062 C 70.894531 59.582031 70.625 59.453125 70.464844 59.292969 C 70.308594 59.128906 70.230469 58.898438 70.230469 58.601562 L 70.230469 55.9375 C 70.226562 55.863281 70.238281 55.789062 70.273438 55.71875 C 70.289062 55.667969 70.347656 55.636719 70.402344 55.648438 C 70.507812 55.652344 70.621094 55.664062 70.726562 55.691406 C 70.859375 55.722656 70.988281 55.769531 71.105469 55.835938 C 71.308594 55.949219 71.472656 56.121094 71.582031 56.324219 C 71.828125 56.78125 72.058594 57.175781 72.265625 57.507812 C 72.46875 57.835938 72.671875 58.136719 72.875 58.40625 C 73.074219 58.679688 73.28125 58.960938 73.492188 59.246094 C 73.667969 59.472656 73.871094 59.675781 74.097656 59.851562 C 74.332031 60.03125 74.601562 60.164062 74.886719 60.246094 C 75.484375 60.402344 76.113281 60.425781 76.722656 60.308594 Z M 70.390625 55.128906 C 70.277344 55.058594 70.222656 54.914062 70.222656 54.707031 L 70.222656 53.421875 C 70.222656 53.0625 70.230469 52.773438 70.238281 52.554688 C 70.246094 52.019531 70.296875 51.664062 70.390625 51.488281 C 70.480469 51.3125 70.652344 51.222656 70.898438 51.222656 C 71.339844 51.222656 71.6875 51.304688 71.941406 51.472656 C 72.195312 51.640625 72.386719 51.886719 72.480469 52.175781 C 72.59375 52.527344 72.644531 52.898438 72.640625 53.273438 C 72.644531 53.613281 72.570312 53.949219 72.429688 54.261719 C 72.152344 54.882812 71.523438 55.269531 70.839844 55.234375 C 70.683594 55.246094 70.523438 55.207031 70.386719 55.128906 Z M 79.261719 60.117188 C 79.492188 60.105469 79.71875 60.089844 79.9375 60.082031 C 80.160156 60.070312 80.375 60.066406 80.585938 60.066406 C 80.785156 60.066406 80.992188 60.070312 81.210938 60.082031 C 81.425781 60.089844 81.648438 60.097656 81.878906 60.109375 C 82.109375 60.121094 82.339844 60.125 82.570312 60.125 C 82.648438 60.128906 82.726562 60.113281 82.800781 60.082031 C 82.855469 60.054688 82.890625 60 82.882812 59.9375 C 82.886719 59.867188 82.851562 59.800781 82.789062 59.765625 C 82.703125 59.71875 82.609375 59.6875 82.507812 59.664062 C 82.144531 59.570312 81.882812 59.457031 81.726562 59.320312 C 81.566406 59.1875 81.488281 58.972656 81.488281 58.675781 L 81.488281 52.195312 C 81.488281 51.890625 81.554688 51.667969 81.6875 51.535156 C 81.820312 51.402344 82.082031 51.289062 82.464844 51.191406 C 82.558594 51.171875 82.648438 51.136719 82.730469 51.085938 C 82.789062 51.046875 82.828125 50.980469 82.824219 50.90625 C 82.828125 50.847656 82.792969 50.785156 82.738281 50.757812 C 82.667969 50.71875 82.589844 50.703125 82.507812 50.707031 C 82.28125 50.707031 82.054688 50.710938 81.832031 50.71875 C 81.613281 50.730469 81.402344 50.738281 81.195312 50.746094 C 80.988281 50.757812 80.785156 50.761719 80.585938 50.761719 C 80.375 50.761719 80.167969 50.757812 79.960938 50.746094 C 79.753906 50.738281 79.539062 50.730469 79.320312 50.71875 C 79.097656 50.710938 78.875 50.707031 78.644531 50.707031 C 78.5625 50.707031 78.484375 50.722656 78.414062 50.757812 C 78.355469 50.777344 78.316406 50.828125 78.3125 50.890625 C 78.3125 51.046875 78.433594 51.144531 78.671875 51.191406 C 79.046875 51.269531 79.300781 51.375 79.433594 51.507812 C 79.566406 51.644531 79.632812 51.867188 79.632812 52.183594 L 79.632812 58.695312 C 79.632812 59.003906 79.550781 59.21875 79.390625 59.351562 C 79.226562 59.488281 78.964844 59.59375 78.597656 59.671875 C 78.359375 59.71875 78.238281 59.816406 78.238281 59.957031 C 78.242188 60.019531 78.28125 60.070312 78.339844 60.09375 C 78.410156 60.125 78.492188 60.144531 78.570312 60.144531 C 78.800781 60.144531 79.03125 60.136719 79.261719 60.121094 Z M 90.496094 60.152344 C 90.839844 60.082031 91.183594 59.976562 91.515625 59.847656 C 91.808594 59.726562 92.050781 59.621094 92.242188 59.523438 C 92.363281 59.453125 92.496094 59.402344 92.632812 59.363281 C 92.714844 59.359375 92.792969 59.3125 92.839844 59.242188 C 92.871094 59.1875 92.886719 59.125 92.890625 59.0625 C 92.890625 59.011719 92.871094 58.964844 92.839844 58.921875 C 92.804688 58.875 92.769531 58.824219 92.730469 58.777344 C 92.691406 58.730469 92.65625 58.6875 92.625 58.648438 C 92.59375 58.613281 92.574219 58.566406 92.574219 58.519531 L 92.574219 58.074219 C 92.574219 57.894531 92.582031 57.722656 92.59375 57.558594 C 92.609375 57.394531 92.636719 57.210938 92.675781 57 C 92.691406 56.835938 92.753906 56.683594 92.855469 56.554688 C 92.945312 56.449219 93.121094 56.363281 93.378906 56.296875 C 93.449219 56.28125 93.507812 56.253906 93.566406 56.210938 C 93.625 56.171875 93.664062 56.097656 93.664062 56.027344 C 93.671875 55.953125 93.636719 55.882812 93.570312 55.847656 C 93.515625 55.816406 93.453125 55.796875 93.390625 55.796875 C 93.113281 55.796875 92.84375 55.804688 92.582031 55.824219 C 92.316406 55.84375 92.050781 55.855469 91.78125 55.855469 C 91.5625 55.855469 91.332031 55.847656 91.097656 55.839844 C 90.863281 55.832031 90.628906 55.820312 90.394531 55.8125 C 90.160156 55.804688 89.933594 55.796875 89.710938 55.796875 C 89.644531 55.800781 89.578125 55.820312 89.519531 55.855469 C 89.453125 55.886719 89.410156 55.953125 89.410156 56.027344 C 89.410156 56.109375 89.457031 56.183594 89.527344 56.222656 C 89.589844 56.269531 89.664062 56.300781 89.742188 56.316406 C 89.828125 56.328125 89.941406 56.34375 90.082031 56.367188 C 90.222656 56.390625 90.359375 56.429688 90.488281 56.480469 C 90.605469 56.527344 90.71875 56.585938 90.820312 56.660156 C 90.90625 56.699219 90.976562 56.769531 91.015625 56.855469 C 91.046875 56.945312 91.066406 57.039062 91.066406 57.136719 C 91.066406 57.222656 91.0625 57.332031 91.058594 57.46875 C 91.054688 57.601562 91.046875 57.734375 91.042969 57.867188 C 91.039062 58.003906 91.039062 58.113281 91.039062 58.199219 C 91.03125 58.40625 90.992188 58.609375 90.921875 58.800781 C 90.871094 58.949219 90.78125 59.082031 90.664062 59.1875 C 90.535156 59.292969 90.390625 59.378906 90.242188 59.453125 C 89.984375 59.566406 89.707031 59.617188 89.429688 59.605469 C 88.980469 59.613281 88.535156 59.507812 88.136719 59.304688 C 87.742188 59.09375 87.40625 58.796875 87.144531 58.433594 C 86.851562 58.023438 86.632812 57.5625 86.5 57.070312 C 86.339844 56.492188 86.261719 55.890625 86.269531 55.285156 C 86.269531 54.773438 86.34375 54.261719 86.5 53.773438 C 86.644531 53.308594 86.867188 52.867188 87.160156 52.476562 C 87.441406 52.097656 87.804688 51.792969 88.222656 51.578125 C 88.664062 51.359375 89.152344 51.246094 89.644531 51.253906 C 89.964844 51.246094 90.285156 51.285156 90.597656 51.371094 C 90.820312 51.429688 91.039062 51.523438 91.234375 51.648438 C 91.378906 51.738281 91.507812 51.84375 91.628906 51.957031 C 91.769531 52.101562 91.886719 52.265625 91.988281 52.4375 C 92.082031 52.601562 92.171875 52.769531 92.246094 52.945312 C 92.285156 53.027344 92.328125 53.105469 92.375 53.183594 C 92.429688 53.253906 92.515625 53.296875 92.605469 53.289062 C 92.671875 53.289062 92.734375 53.257812 92.769531 53.207031 C 92.816406 53.148438 92.839844 53.078125 92.835938 53.003906 C 92.835938 52.792969 92.820312 52.546875 92.792969 52.257812 C 92.761719 51.972656 92.726562 51.671875 92.675781 51.355469 C 92.671875 51.289062 92.648438 51.226562 92.605469 51.175781 C 92.5625 51.128906 92.507812 51.089844 92.445312 51.070312 C 92.261719 50.996094 92.070312 50.9375 91.878906 50.898438 C 91.636719 50.839844 91.367188 50.785156 91.082031 50.738281 C 90.792969 50.691406 90.515625 50.648438 90.25 50.617188 C 89.28125 50.484375 88.296875 50.609375 87.394531 50.972656 C 86.761719 51.230469 86.183594 51.605469 85.691406 52.078125 C 85.21875 52.53125 84.839844 53.078125 84.578125 53.679688 C 84.316406 54.285156 84.179688 54.9375 84.183594 55.597656 C 84.164062 56.886719 84.707031 58.117188 85.671875 58.976562 C 86.140625 59.394531 86.683594 59.722656 87.273438 59.945312 C 87.890625 60.175781 88.542969 60.292969 89.199219 60.289062 C 89.636719 60.292969 90.074219 60.25 90.5 60.160156 Z M 95.90625 60.117188 C 96.136719 60.105469 96.363281 60.089844 96.582031 60.082031 C 96.804688 60.070312 97.019531 60.066406 97.226562 60.066406 C 97.429688 60.066406 97.636719 60.070312 97.855469 60.082031 C 98.070312 60.089844 98.292969 60.097656 98.523438 60.109375 C 98.753906 60.121094 98.984375 60.125 99.214844 60.125 C 99.292969 60.128906 99.371094 60.113281 99.441406 60.082031 C 99.5 60.054688 99.53125 60 99.527344 59.9375 C 99.53125 59.867188 99.496094 59.800781 99.433594 59.765625 C 99.347656 59.71875 99.253906 59.6875 99.152344 59.664062 C 98.789062 59.570312 98.527344 59.457031 98.367188 59.320312 C 98.210938 59.1875 98.132812 58.972656 98.132812 58.675781 L 98.132812 52.195312 C 98.132812 51.890625 98.199219 51.667969 98.332031 51.535156 C 98.464844 51.402344 98.726562 51.289062 99.105469 51.191406 C 99.203125 51.171875 99.292969 51.136719 99.375 51.085938 C 99.433594 51.046875 99.46875 50.980469 99.46875 50.90625 C 99.46875 50.847656 99.4375 50.785156 99.382812 50.757812 C 99.3125 50.71875 99.234375 50.703125 99.152344 50.707031 C 98.921875 50.707031 98.699219 50.710938 98.476562 50.71875 C 98.257812 50.730469 98.042969 50.738281 97.835938 50.746094 C 97.628906 50.757812 97.429688 50.761719 97.226562 50.761719 C 97.023438 50.761719 96.808594 50.757812 96.601562 50.746094 C 96.394531 50.738281 96.183594 50.730469 95.960938 50.71875 C 95.742188 50.710938 95.515625 50.707031 95.285156 50.707031 C 95.203125 50.707031 95.125 50.722656 95.054688 50.757812 C 94.996094 50.777344 94.957031 50.828125 94.953125 50.890625 C 94.953125 51.046875 95.074219 51.144531 95.3125 51.191406 C 95.6875 51.269531 95.941406 51.375 96.074219 51.507812 C 96.207031 51.644531 96.277344 51.867188 96.277344 52.183594 L 96.277344 58.695312 C 96.277344 59.003906 96.195312 59.21875 96.03125 59.351562 C 95.867188 59.488281 95.605469 59.59375 95.238281 59.671875 C 95 59.71875 94.878906 59.816406 94.878906 59.957031 C 94.882812 60.019531 94.921875 60.070312 94.980469 60.09375 C 95.050781 60.125 95.132812 60.144531 95.210938 60.144531 C 95.441406 60.144531 95.671875 60.136719 95.902344 60.121094 Z M 110.320312 60.226562 C 110.386719 60.148438 110.421875 60.003906 110.421875 59.792969 C 110.414062 59.660156 110.402344 59.53125 110.386719 59.398438 C 110.359375 59.214844 110.339844 59 110.320312 58.761719 C 110.304688 58.523438 110.292969 58.289062 110.292969 58.058594 C 110.292969 57.707031 110.292969 57.308594 110.296875 56.867188 C 110.304688 56.425781 110.3125 55.980469 110.328125 55.519531 C 110.34375 55.0625 110.351562 54.613281 110.363281 54.171875 C 110.371094 53.734375 110.378906 53.328125 110.386719 52.953125 C 110.390625 52.582031 110.390625 52.277344 110.390625 52.035156 C 110.402344 51.769531 110.476562 51.578125 110.617188 51.464844 C 110.753906 51.347656 110.992188 51.257812 111.328125 51.191406 C 111.605469 51.132812 111.746094 51.03125 111.746094 50.890625 C 111.738281 50.824219 111.695312 50.773438 111.636719 50.753906 C 111.546875 50.71875 111.453125 50.703125 111.355469 50.703125 C 111.097656 50.703125 110.890625 50.707031 110.730469 50.71875 C 110.570312 50.726562 110.425781 50.734375 110.292969 50.738281 C 110.15625 50.742188 109.984375 50.746094 109.773438 50.746094 C 109.648438 50.746094 109.53125 50.746094 109.414062 50.738281 C 109.300781 50.730469 109.179688 50.730469 109.050781 50.730469 L 108.570312 50.730469 C 108.472656 50.730469 108.378906 50.746094 108.289062 50.773438 C 108.1875 50.804688 108.136719 50.851562 108.136719 50.917969 C 108.136719 51.007812 108.199219 51.085938 108.289062 51.113281 C 108.394531 51.15625 108.503906 51.191406 108.613281 51.21875 C 108.863281 51.265625 109.101562 51.367188 109.308594 51.515625 C 109.492188 51.644531 109.601562 51.855469 109.605469 52.082031 C 109.613281 52.539062 109.621094 53.019531 109.625 53.515625 C 109.628906 54.011719 109.628906 54.496094 109.625 54.96875 C 109.621094 55.441406 109.617188 55.875 109.617188 56.257812 L 109.617188 57.210938 C 109.609375 57.375 109.566406 57.457031 109.488281 57.457031 C 109.433594 57.449219 109.386719 57.417969 109.351562 57.371094 C 109.300781 57.3125 109.253906 57.265625 109.214844 57.226562 C 109.0625 57.054688 108.867188 56.832031 108.632812 56.558594 C 108.398438 56.289062 108.136719 55.988281 107.847656 55.65625 C 107.5625 55.328125 107.261719 54.980469 106.953125 54.617188 C 106.640625 54.25 106.328125 53.890625 106.019531 53.527344 C 105.707031 53.164062 105.410156 52.816406 105.128906 52.488281 C 104.84375 52.160156 104.582031 51.855469 104.34375 51.585938 C 104.105469 51.3125 103.910156 51.085938 103.753906 50.902344 C 103.722656 50.851562 103.679688 50.804688 103.632812 50.769531 C 103.574219 50.730469 103.507812 50.710938 103.441406 50.71875 C 103.183594 50.71875 102.9375 50.710938 102.714844 50.703125 C 102.488281 50.695312 102.273438 50.6875 102.066406 50.679688 C 101.863281 50.675781 101.65625 50.667969 101.457031 50.660156 C 101.257812 50.652344 101.054688 50.644531 100.855469 50.644531 C 100.773438 50.644531 100.691406 50.660156 100.613281 50.691406 C 100.539062 50.710938 100.488281 50.785156 100.496094 50.863281 C 100.503906 50.957031 100.566406 51.042969 100.65625 51.078125 C 100.738281 51.125 100.824219 51.164062 100.914062 51.191406 C 101.261719 51.308594 101.585938 51.488281 101.867188 51.722656 C 102.121094 51.941406 102.25 52.300781 102.25 52.800781 C 102.25 53.582031 102.234375 54.34375 102.199219 55.082031 C 102.164062 55.816406 102.128906 56.476562 102.089844 57.066406 C 102.050781 57.652344 102.015625 58.128906 101.976562 58.492188 C 101.953125 58.753906 101.878906 59.003906 101.753906 59.230469 C 101.628906 59.4375 101.429688 59.589844 101.199219 59.652344 C 101.09375 59.683594 100.996094 59.722656 100.902344 59.777344 C 100.835938 59.808594 100.796875 59.878906 100.796875 59.953125 C 100.800781 60.019531 100.847656 60.074219 100.910156 60.089844 C 100.992188 60.125 101.082031 60.144531 101.167969 60.140625 C 101.289062 60.140625 101.40625 60.132812 101.527344 60.121094 C 101.652344 60.105469 101.792969 60.09375 101.949219 60.082031 C 102.105469 60.074219 102.289062 60.070312 102.488281 60.070312 C 102.6875 60.070312 102.835938 60.074219 102.960938 60.082031 C 103.085938 60.09375 103.222656 60.101562 103.378906 60.113281 C 103.53125 60.125 103.738281 60.125 103.996094 60.125 C 104.085938 60.125 104.171875 60.113281 104.253906 60.082031 C 104.320312 60.066406 104.371094 60.007812 104.371094 59.941406 C 104.371094 59.863281 104.320312 59.792969 104.246094 59.761719 C 104.15625 59.714844 104.054688 59.683594 103.953125 59.667969 C 103.578125 59.582031 103.308594 59.441406 103.132812 59.253906 C 102.957031 59.050781 102.863281 58.789062 102.875 58.519531 L 102.875 56.800781 C 102.875 56.175781 102.875 55.5625 102.871094 54.964844 C 102.863281 54.363281 102.863281 53.839844 102.863281 53.398438 C 102.863281 53.335938 102.875 53.273438 102.894531 53.214844 C 102.894531 53.164062 102.929688 53.121094 102.976562 53.113281 C 103.015625 53.117188 103.054688 53.136719 103.085938 53.164062 C 103.132812 53.199219 103.171875 53.242188 103.207031 53.285156 C 103.371094 53.476562 103.570312 53.703125 103.808594 53.96875 C 104.050781 54.230469 104.3125 54.519531 104.601562 54.835938 C 104.890625 55.152344 105.183594 55.480469 105.484375 55.824219 C 105.785156 56.167969 106.09375 56.511719 106.398438 56.855469 C 106.707031 57.199219 107 57.53125 107.28125 57.84375 C 107.5625 58.160156 107.820312 58.449219 108.054688 58.714844 C 108.289062 58.976562 108.492188 59.195312 108.652344 59.378906 C 108.871094 59.679688 109.152344 59.9375 109.472656 60.125 C 109.742188 60.269531 109.933594 60.34375 110.046875 60.34375 C 110.152344 60.347656 110.253906 60.304688 110.320312 60.226562 Z M 113.515625 60.109375 C 113.792969 60.082031 114.074219 60.066406 114.355469 60.066406 C 114.644531 60.066406 114.910156 60.074219 115.148438 60.085938 C 115.386719 60.101562 115.617188 60.109375 115.839844 60.109375 C 115.929688 60.113281 116.019531 60.097656 116.105469 60.058594 C 116.160156 60.039062 116.195312 59.980469 116.199219 59.921875 C 116.199219 59.789062 116.070312 59.6875 115.8125 59.621094 C 115.464844 59.535156 115.222656 59.417969 115.085938 59.269531 C 114.945312 59.121094 114.898438 58.917969 114.949219 58.664062 C 114.972656 58.535156 115.003906 58.414062 115.042969 58.289062 C 115.085938 58.144531 115.132812 57.988281 115.183594 57.824219 C 115.234375 57.65625 115.292969 57.492188 115.34375 57.332031 C 115.398438 57.175781 115.441406 57.035156 115.480469 56.910156 C 115.492188 56.839844 115.523438 56.773438 115.566406 56.71875 C 115.609375 56.675781 115.664062 56.652344 115.726562 56.65625 L 118.3125 56.65625 C 118.390625 56.648438 118.464844 56.664062 118.527344 56.703125 C 118.574219 56.75 118.601562 56.808594 118.617188 56.871094 C 118.683594 57.070312 118.746094 57.292969 118.808594 57.539062 C 118.871094 57.78125 118.933594 58.015625 118.988281 58.242188 C 119.046875 58.464844 119.089844 58.65625 119.117188 58.820312 C 119.15625 59.050781 119.097656 59.226562 118.945312 59.34375 C 118.792969 59.464844 118.542969 59.554688 118.199219 59.609375 C 118.101562 59.625 118.007812 59.664062 117.925781 59.71875 C 117.855469 59.757812 117.8125 59.832031 117.808594 59.914062 C 117.808594 59.980469 117.851562 60.042969 117.917969 60.066406 C 117.996094 60.097656 118.082031 60.117188 118.167969 60.113281 C 118.332031 60.113281 118.527344 60.109375 118.765625 60.101562 C 119.003906 60.09375 119.234375 60.082031 119.46875 60.074219 C 119.703125 60.066406 119.917969 60.058594 120.109375 60.058594 C 120.328125 60.058594 120.578125 60.066406 120.855469 60.082031 C 121.136719 60.09375 121.402344 60.105469 121.667969 60.117188 C 121.929688 60.125 122.148438 60.132812 122.320312 60.132812 C 122.402344 60.132812 122.484375 60.121094 122.558594 60.085938 C 122.613281 60.070312 122.652344 60.015625 122.652344 59.960938 C 122.65625 59.878906 122.617188 59.804688 122.550781 59.757812 C 122.464844 59.703125 122.367188 59.664062 122.265625 59.644531 C 122.082031 59.601562 121.90625 59.535156 121.738281 59.453125 C 121.574219 59.363281 121.425781 59.246094 121.308594 59.101562 C 121.160156 58.917969 121.050781 58.707031 120.984375 58.484375 C 120.8125 57.96875 120.621094 57.398438 120.414062 56.785156 C 120.207031 56.167969 119.996094 55.523438 119.777344 54.847656 C 119.554688 54.171875 119.335938 53.488281 119.105469 52.800781 C 118.882812 52.105469 118.664062 51.417969 118.453125 50.742188 C 118.433594 50.675781 118.414062 50.613281 118.394531 50.554688 C 118.375 50.496094 118.351562 50.4375 118.324219 50.382812 C 118.3125 50.347656 118.277344 50.320312 118.238281 50.316406 C 118.207031 50.324219 118.179688 50.335938 118.152344 50.355469 C 118.105469 50.414062 118.03125 50.492188 117.9375 50.597656 C 117.839844 50.707031 117.722656 50.792969 117.59375 50.855469 C 117.4375 50.914062 117.300781 50.960938 117.175781 50.996094 C 117.050781 51.035156 116.917969 51.074219 116.773438 51.113281 C 116.734375 51.230469 116.699219 51.347656 116.671875 51.46875 C 116.613281 51.703125 116.542969 51.933594 116.457031 52.160156 C 116.246094 52.75 116.039062 53.316406 115.832031 53.851562 C 115.625 54.386719 115.421875 54.914062 115.222656 55.429688 C 115.023438 55.945312 114.808594 56.464844 114.589844 56.984375 C 114.367188 57.507812 114.140625 58.050781 113.898438 58.613281 C 113.792969 58.867188 113.621094 59.089844 113.40625 59.265625 C 113.1875 59.425781 112.941406 59.546875 112.679688 59.613281 C 112.578125 59.648438 112.484375 59.6875 112.398438 59.742188 C 112.328125 59.785156 112.289062 59.863281 112.289062 59.941406 C 112.289062 60.015625 112.335938 60.082031 112.40625 60.109375 C 112.496094 60.144531 112.59375 60.160156 112.691406 60.160156 C 112.96875 60.160156 113.246094 60.144531 113.519531 60.113281 Z M 115.917969 55.964844 C 115.871094 55.953125 115.839844 55.914062 115.839844 55.863281 C 115.839844 55.824219 115.851562 55.785156 115.867188 55.75 L 117.074219 52.421875 C 117.121094 52.296875 117.152344 52.238281 117.175781 52.238281 C 117.203125 52.238281 117.238281 52.304688 117.277344 52.4375 L 118.28125 55.75 C 118.292969 55.789062 118.300781 55.816406 118.304688 55.835938 C 118.3125 55.859375 118.3125 55.882812 118.3125 55.90625 C 118.3125 55.964844 118.246094 55.992188 118.113281 55.992188 L 116.117188 55.992188 C 116.050781 55.992188 115.984375 55.984375 115.921875 55.964844 Z M 124.199219 60.132812 C 124.441406 60.117188 124.695312 60.105469 124.96875 60.097656 C 125.238281 60.089844 125.484375 60.082031 125.695312 60.082031 C 126.097656 60.082031 126.527344 60.085938 126.984375 60.097656 C 127.4375 60.105469 127.890625 60.113281 128.34375 60.121094 C 128.792969 60.125 129.21875 60.132812 129.621094 60.140625 C 130.023438 60.148438 130.367188 60.152344 130.65625 60.152344 C 130.726562 60.164062 130.792969 60.132812 130.828125 60.074219 C 130.859375 60.019531 130.875 59.957031 130.886719 59.894531 C 130.914062 59.675781 130.945312 59.472656 130.980469 59.285156 C 131.015625 59.101562 131.058594 58.90625 131.109375 58.707031 C 131.160156 58.507812 131.226562 58.265625 131.300781 57.988281 C 131.300781 57.949219 131.308594 57.910156 131.316406 57.875 C 131.324219 57.847656 131.328125 57.816406 131.328125 57.789062 C 131.328125 57.722656 131.316406 57.65625 131.285156 57.59375 C 131.261719 57.539062 131.207031 57.5 131.144531 57.5 C 131.070312 57.511719 131.007812 57.550781 130.972656 57.617188 C 130.898438 57.71875 130.835938 57.828125 130.785156 57.945312 C 130.691406 58.152344 130.582031 58.355469 130.453125 58.546875 C 130.332031 58.730469 130.1875 58.890625 130.019531 59.035156 C 129.890625 59.160156 129.742188 59.253906 129.574219 59.320312 C 129.382812 59.398438 129.179688 59.4375 128.972656 59.4375 L 127.40625 59.4375 C 127.0625 59.4375 126.828125 59.371094 126.703125 59.242188 C 126.578125 59.109375 126.515625 58.90625 126.515625 58.632812 L 126.515625 52.078125 C 126.515625 51.800781 126.605469 51.609375 126.78125 51.496094 C 127.042969 51.355469 127.320312 51.253906 127.609375 51.1875 C 127.703125 51.167969 127.792969 51.132812 127.875 51.082031 C 127.933594 51.042969 127.972656 50.972656 127.96875 50.902344 C 127.96875 50.839844 127.9375 50.78125 127.882812 50.75 C 127.8125 50.714844 127.734375 50.695312 127.652344 50.703125 C 127.433594 50.703125 127.203125 50.707031 126.96875 50.714844 C 126.734375 50.722656 126.503906 50.734375 126.28125 50.742188 C 126.054688 50.75 125.832031 50.757812 125.609375 50.757812 C 125.410156 50.757812 125.207031 50.75 125.007812 50.742188 C 124.808594 50.734375 124.597656 50.722656 124.382812 50.714844 C 124.164062 50.707031 123.9375 50.703125 123.699219 50.703125 C 123.617188 50.703125 123.539062 50.71875 123.46875 50.75 C 123.410156 50.773438 123.371094 50.824219 123.367188 50.886719 C 123.367188 51.042969 123.492188 51.140625 123.742188 51.1875 C 123.9375 51.21875 124.128906 51.273438 124.3125 51.351562 C 124.429688 51.40625 124.527344 51.5 124.585938 51.621094 C 124.644531 51.78125 124.671875 51.949219 124.664062 52.121094 L 124.664062 58.71875 C 124.664062 59.011719 124.582031 59.226562 124.417969 59.355469 C 124.253906 59.484375 124.003906 59.59375 123.65625 59.679688 C 123.585938 59.699219 123.519531 59.730469 123.457031 59.773438 C 123.394531 59.808594 123.355469 59.878906 123.355469 59.953125 C 123.359375 60.007812 123.394531 60.058594 123.445312 60.085938 C 123.515625 60.136719 123.601562 60.15625 123.6875 60.152344 C 123.792969 60.152344 123.964844 60.144531 124.207031 60.128906 Z M 124.199219 60.132812 " fill-opacity="1" fill-rule="evenodd"/><path fill="#1c7d88" d="M 60.558594 69.683594 C 60.597656 69.65625 60.625 69.617188 60.636719 69.570312 C 60.664062 69.480469 60.695312 69.382812 60.722656 69.277344 C 60.753906 69.171875 60.78125 69.0625 60.808594 68.953125 C 60.835938 68.84375 60.855469 68.742188 60.878906 68.648438 C 60.894531 68.570312 60.902344 68.492188 60.90625 68.414062 C 60.914062 68.359375 60.878906 68.3125 60.828125 68.304688 C 60.816406 68.304688 60.808594 68.304688 60.800781 68.304688 C 60.765625 68.304688 60.734375 68.308594 60.707031 68.328125 C 60.679688 68.347656 60.65625 68.375 60.636719 68.40625 C 60.472656 68.820312 60.257812 69.078125 59.988281 69.179688 C 59.84375 69.234375 59.6875 69.273438 59.53125 69.289062 C 59.335938 69.308594 59.140625 69.316406 58.941406 69.316406 C 58.859375 69.316406 58.757812 69.316406 58.632812 69.308594 C 58.507812 69.300781 58.410156 69.296875 58.339844 69.292969 C 58.292969 69.292969 58.246094 69.28125 58.207031 69.261719 C 58.179688 69.246094 58.164062 69.21875 58.167969 69.1875 C 58.171875 69.113281 58.199219 69.042969 58.246094 68.984375 C 58.417969 68.714844 58.589844 68.4375 58.761719 68.152344 C 58.933594 67.863281 59.109375 67.574219 59.285156 67.277344 C 59.460938 66.980469 59.640625 66.6875 59.816406 66.390625 C 59.996094 66.097656 60.175781 65.808594 60.359375 65.527344 L 60.902344 64.664062 C 60.914062 64.625 60.90625 64.582031 60.878906 64.554688 C 60.859375 64.511719 60.820312 64.480469 60.773438 64.472656 C 60.675781 64.472656 60.546875 64.476562 60.382812 64.484375 C 60.21875 64.488281 60.042969 64.492188 59.859375 64.492188 C 59.675781 64.496094 59.503906 64.5 59.34375 64.503906 C 59.183594 64.511719 59.054688 64.515625 58.960938 64.515625 L 58.015625 64.515625 C 57.871094 64.515625 57.746094 64.511719 57.636719 64.503906 C 57.53125 64.496094 57.429688 64.472656 57.328125 64.433594 C 57.246094 64.40625 57.171875 64.359375 57.101562 64.304688 C 57.050781 64.261719 56.988281 64.230469 56.921875 64.21875 C 56.875 64.214844 56.828125 64.230469 56.796875 64.265625 C 56.769531 64.316406 56.75 64.375 56.746094 64.433594 C 56.734375 64.578125 56.722656 64.703125 56.707031 64.8125 C 56.691406 64.917969 56.667969 65.023438 56.640625 65.128906 C 56.609375 65.246094 56.566406 65.363281 56.511719 65.472656 C 56.496094 65.507812 56.484375 65.542969 56.472656 65.578125 C 56.464844 65.613281 56.457031 65.652344 56.457031 65.6875 C 56.457031 65.722656 56.464844 65.753906 56.480469 65.785156 C 56.5 65.8125 56.535156 65.828125 56.566406 65.824219 C 56.644531 65.824219 56.71875 65.789062 56.769531 65.730469 C 56.816406 65.675781 56.859375 65.617188 56.898438 65.550781 C 57.003906 65.355469 57.15625 65.183594 57.339844 65.054688 C 57.511719 64.933594 57.71875 64.871094 57.929688 64.875 L 59.113281 64.875 C 59.152344 64.871094 59.1875 64.878906 59.21875 64.898438 C 59.234375 64.910156 59.238281 64.933594 59.238281 64.953125 C 59.238281 64.976562 59.234375 64.996094 59.230469 65.015625 C 59.222656 65.039062 59.210938 65.0625 59.199219 65.089844 C 59.011719 65.394531 58.816406 65.703125 58.625 66.007812 C 58.433594 66.308594 58.242188 66.613281 58.050781 66.914062 C 57.859375 67.214844 57.667969 67.515625 57.476562 67.824219 C 57.285156 68.128906 57.09375 68.4375 56.902344 68.742188 C 56.851562 68.824219 56.800781 68.910156 56.746094 69 C 56.6875 69.089844 56.632812 69.179688 56.582031 69.261719 C 56.527344 69.347656 56.480469 69.429688 56.4375 69.503906 C 56.425781 69.546875 56.433594 69.589844 56.449219 69.632812 C 56.453125 69.6875 56.496094 69.730469 56.546875 69.734375 L 57.164062 69.71875 C 57.355469 69.714844 57.546875 69.710938 57.742188 69.707031 C 57.9375 69.707031 58.132812 69.699219 58.324219 69.695312 C 58.535156 69.695312 58.753906 69.695312 58.984375 69.703125 C 59.210938 69.710938 59.417969 69.710938 59.613281 69.714844 C 59.808594 69.71875 59.976562 69.71875 60.125 69.722656 C 60.269531 69.730469 60.371094 69.730469 60.425781 69.730469 C 60.476562 69.730469 60.523438 69.714844 60.5625 69.6875 Z M 61.980469 69.707031 C 62.132812 69.691406 62.285156 69.683594 62.4375 69.683594 C 62.597656 69.683594 62.742188 69.691406 62.875 69.695312 C 63.007812 69.703125 63.15625 69.707031 63.308594 69.707031 C 63.355469 69.710938 63.40625 69.699219 63.449219 69.679688 C 63.480469 69.660156 63.496094 69.628906 63.492188 69.597656 C 63.492188 69.511719 63.429688 69.457031 63.300781 69.429688 C 63.070312 69.378906 62.921875 69.308594 62.851562 69.222656 C 62.785156 69.136719 62.769531 69.015625 62.804688 68.855469 C 62.824219 68.785156 62.847656 68.710938 62.871094 68.636719 C 62.890625 68.566406 62.914062 68.488281 62.9375 68.414062 C 62.964844 68.34375 62.988281 68.265625 63.015625 68.191406 C 63.042969 68.121094 63.066406 68.042969 63.085938 67.972656 C 63.09375 67.933594 63.109375 67.898438 63.132812 67.867188 C 63.15625 67.84375 63.1875 67.832031 63.222656 67.835938 L 64.636719 67.835938 C 64.671875 67.832031 64.707031 67.84375 64.730469 67.867188 C 64.75 67.898438 64.765625 67.929688 64.769531 67.964844 C 64.804688 68.070312 64.832031 68.183594 64.863281 68.292969 C 64.894531 68.410156 64.921875 68.523438 64.957031 68.632812 C 64.988281 68.746094 65.015625 68.851562 65.035156 68.953125 C 65.074219 69.066406 65.039062 69.1875 64.949219 69.265625 C 64.816406 69.351562 64.671875 69.40625 64.515625 69.433594 C 64.46875 69.441406 64.421875 69.460938 64.378906 69.488281 C 64.34375 69.511719 64.324219 69.554688 64.324219 69.601562 C 64.324219 69.636719 64.34375 69.667969 64.378906 69.683594 C 64.417969 69.703125 64.457031 69.710938 64.503906 69.710938 C 64.609375 69.710938 64.738281 69.707031 64.886719 69.699219 C 65.035156 69.695312 65.183594 69.691406 65.328125 69.683594 C 65.476562 69.679688 65.601562 69.675781 65.703125 69.675781 C 65.824219 69.675781 65.96875 69.679688 66.125 69.683594 C 66.285156 69.691406 66.441406 69.695312 66.601562 69.707031 C 66.761719 69.714844 66.890625 69.71875 66.996094 69.71875 C 67.035156 69.71875 67.074219 69.707031 67.109375 69.683594 C 67.140625 69.667969 67.160156 69.632812 67.160156 69.597656 C 67.160156 69.554688 67.140625 69.515625 67.105469 69.488281 C 67.0625 69.460938 67.015625 69.441406 66.964844 69.429688 C 66.867188 69.402344 66.769531 69.363281 66.675781 69.316406 C 66.589844 69.273438 66.515625 69.214844 66.449219 69.144531 C 66.382812 69.066406 66.332031 68.972656 66.304688 68.871094 C 66.191406 68.53125 66.074219 68.183594 65.957031 67.824219 L 65.601562 66.734375 C 65.480469 66.367188 65.363281 66 65.246094 65.628906 C 65.128906 65.257812 65.011719 64.894531 64.898438 64.539062 C 64.890625 64.5 64.875 64.460938 64.863281 64.421875 C 64.847656 64.386719 64.835938 64.355469 64.820312 64.324219 C 64.808594 64.296875 64.785156 64.277344 64.753906 64.269531 C 64.730469 64.277344 64.710938 64.285156 64.691406 64.300781 C 64.660156 64.332031 64.609375 64.375 64.542969 64.433594 C 64.472656 64.496094 64.390625 64.542969 64.300781 64.578125 C 64.210938 64.613281 64.121094 64.644531 64.027344 64.667969 C 63.941406 64.6875 63.851562 64.710938 63.757812 64.738281 C 63.734375 64.792969 63.71875 64.851562 63.707031 64.910156 C 63.667969 65.070312 63.617188 65.226562 63.558594 65.382812 C 63.445312 65.6875 63.332031 65.984375 63.222656 66.28125 C 63.109375 66.578125 62.996094 66.867188 62.886719 67.152344 C 62.773438 67.4375 62.65625 67.722656 62.539062 68.015625 C 62.421875 68.304688 62.300781 68.597656 62.164062 68.894531 C 62.109375 69.027344 62.019531 69.140625 61.90625 69.230469 C 61.785156 69.324219 61.648438 69.390625 61.5 69.429688 C 61.449219 69.441406 61.402344 69.460938 61.359375 69.488281 C 61.324219 69.515625 61.304688 69.5625 61.308594 69.605469 C 61.304688 69.648438 61.328125 69.6875 61.367188 69.707031 C 61.414062 69.726562 61.464844 69.734375 61.515625 69.734375 C 61.667969 69.734375 61.824219 69.726562 61.980469 69.710938 Z M 63.34375 67.386719 C 63.320312 67.378906 63.300781 67.355469 63.300781 67.332031 C 63.300781 67.308594 63.304688 67.285156 63.316406 67.265625 L 63.949219 65.460938 C 63.960938 65.429688 63.976562 65.398438 64.003906 65.375 C 64.035156 65.394531 64.054688 65.429688 64.054688 65.460938 L 64.589844 67.265625 C 64.59375 67.28125 64.597656 67.296875 64.601562 67.304688 C 64.601562 67.320312 64.605469 67.332031 64.605469 67.34375 C 64.605469 67.382812 64.566406 67.398438 64.484375 67.398438 L 63.445312 67.398438 C 63.410156 67.398438 63.378906 67.394531 63.347656 67.382812 Z M 67.945312 69.707031 C 68.035156 69.703125 68.144531 69.695312 68.265625 69.691406 C 68.390625 69.6875 68.507812 69.683594 68.625 69.683594 C 68.742188 69.683594 68.824219 69.683594 68.890625 69.6875 C 68.953125 69.691406 69.027344 69.695312 69.105469 69.703125 C 69.1875 69.710938 69.296875 69.714844 69.441406 69.714844 C 69.492188 69.714844 69.535156 69.703125 69.578125 69.683594 C 69.613281 69.667969 69.640625 69.632812 69.640625 69.59375 C 69.640625 69.546875 69.613281 69.507812 69.570312 69.488281 C 69.523438 69.464844 69.472656 69.445312 69.417969 69.4375 C 69.25 69.40625 69.09375 69.335938 68.964844 69.226562 C 68.867188 69.128906 68.8125 69 68.820312 68.863281 L 68.820312 67.964844 C 68.820312 67.644531 68.824219 67.324219 68.835938 67.007812 C 68.847656 66.691406 68.859375 66.402344 68.875 66.136719 C 68.871094 66.089844 68.894531 66.046875 68.933594 66.027344 C 68.96875 66.011719 68.992188 66.03125 69.007812 66.078125 C 69.25 66.667969 69.511719 67.265625 69.796875 67.867188 C 70.082031 68.46875 70.355469 69.078125 70.617188 69.695312 C 70.640625 69.738281 70.683594 69.769531 70.730469 69.773438 C 70.78125 69.785156 70.824219 69.753906 70.847656 69.679688 L 72.375 66.054688 C 72.382812 66.027344 72.402344 66.003906 72.425781 65.996094 C 72.445312 65.992188 72.453125 66.007812 72.453125 66.046875 C 72.472656 66.347656 72.480469 66.652344 72.488281 66.96875 C 72.5 67.285156 72.507812 67.605469 72.515625 67.933594 C 72.527344 68.261719 72.539062 68.589844 72.554688 68.921875 C 72.574219 69.050781 72.535156 69.179688 72.453125 69.277344 C 72.335938 69.367188 72.191406 69.421875 72.046875 69.441406 C 71.996094 69.449219 71.949219 69.46875 71.910156 69.496094 C 71.871094 69.523438 71.851562 69.5625 71.855469 69.605469 C 71.855469 69.644531 71.875 69.679688 71.910156 69.691406 C 71.949219 69.710938 71.992188 69.722656 72.039062 69.71875 C 72.160156 69.71875 72.289062 69.714844 72.421875 69.707031 C 72.554688 69.699219 72.6875 69.695312 72.816406 69.6875 C 72.949219 69.679688 73.066406 69.679688 73.175781 69.679688 C 73.28125 69.679688 73.40625 69.679688 73.554688 69.6875 C 73.703125 69.695312 73.851562 69.699219 74.003906 69.707031 C 74.15625 69.71875 74.289062 69.71875 74.40625 69.71875 C 74.449219 69.71875 74.488281 69.710938 74.527344 69.6875 C 74.558594 69.667969 74.574219 69.632812 74.574219 69.601562 C 74.578125 69.558594 74.558594 69.515625 74.519531 69.496094 C 74.476562 69.472656 74.429688 69.457031 74.382812 69.441406 C 74.234375 69.410156 74.09375 69.34375 73.972656 69.253906 C 73.871094 69.171875 73.808594 69.050781 73.800781 68.921875 C 73.78125 68.570312 73.757812 68.265625 73.742188 68 C 73.722656 67.738281 73.707031 67.484375 73.691406 67.238281 C 73.679688 66.992188 73.664062 66.726562 73.648438 66.441406 C 73.632812 66.152344 73.617188 65.816406 73.609375 65.433594 C 73.589844 65.296875 73.617188 65.15625 73.695312 65.039062 C 73.78125 64.945312 73.886719 64.871094 74.003906 64.820312 C 74.035156 64.804688 74.070312 64.789062 74.113281 64.765625 C 74.15625 64.746094 74.195312 64.734375 74.226562 64.722656 C 74.273438 64.710938 74.316406 64.691406 74.355469 64.667969 C 74.390625 64.644531 74.410156 64.605469 74.410156 64.566406 C 74.410156 64.527344 74.386719 64.488281 74.351562 64.472656 C 74.304688 64.453125 74.257812 64.445312 74.210938 64.445312 C 74.070312 64.445312 73.878906 64.457031 73.640625 64.480469 C 73.398438 64.503906 73.164062 64.519531 72.941406 64.53125 L 72.597656 64.53125 C 72.535156 64.53125 72.480469 64.578125 72.46875 64.636719 C 72.445312 64.703125 72.425781 64.800781 72.398438 64.917969 C 72.375 65.035156 72.347656 65.183594 72.308594 65.371094 L 71.164062 68.019531 C 71.164062 68.039062 71.140625 68.054688 71.121094 68.054688 C 71.101562 68.050781 71.085938 68.039062 71.078125 68.019531 L 69.902344 65.21875 C 69.867188 65.117188 69.832031 65.023438 69.796875 64.925781 C 69.765625 64.835938 69.730469 64.738281 69.695312 64.636719 C 69.679688 64.597656 69.660156 64.558594 69.625 64.539062 C 69.589844 64.511719 69.546875 64.492188 69.503906 64.492188 C 69.382812 64.492188 69.246094 64.492188 69.097656 64.484375 C 68.953125 64.480469 68.808594 64.476562 68.667969 64.472656 C 68.523438 64.472656 68.394531 64.464844 68.277344 64.460938 C 68.160156 64.457031 68.0625 64.453125 67.980469 64.453125 C 67.929688 64.453125 67.878906 64.460938 67.828125 64.476562 C 67.789062 64.488281 67.761719 64.527344 67.765625 64.570312 C 67.765625 64.613281 67.785156 64.652344 67.820312 64.675781 C 67.867188 64.703125 67.917969 64.726562 67.972656 64.738281 C 68.054688 64.761719 68.132812 64.785156 68.210938 64.816406 C 68.285156 64.84375 68.355469 64.878906 68.417969 64.921875 C 68.480469 64.953125 68.53125 65.003906 68.566406 65.0625 C 68.597656 65.132812 68.613281 65.210938 68.609375 65.289062 L 68.609375 65.441406 C 68.609375 65.480469 68.609375 65.523438 68.601562 65.5625 C 68.574219 65.960938 68.542969 66.363281 68.507812 66.773438 C 68.46875 67.183594 68.433594 67.570312 68.398438 67.925781 C 68.363281 68.289062 68.328125 68.589844 68.300781 68.832031 C 68.285156 68.984375 68.222656 69.125 68.125 69.238281 C 68.039062 69.339844 67.929688 69.417969 67.800781 69.460938 C 67.742188 69.484375 67.691406 69.5 67.644531 69.515625 C 67.605469 69.523438 67.574219 69.5625 67.578125 69.605469 C 67.578125 69.640625 67.59375 69.671875 67.625 69.691406 C 67.667969 69.710938 67.71875 69.722656 67.769531 69.71875 C 67.796875 69.71875 67.855469 69.71875 67.945312 69.710938 Z M 81.59375 69.683594 C 81.632812 69.65625 81.660156 69.617188 81.671875 69.570312 C 81.699219 69.480469 81.726562 69.382812 81.757812 69.277344 C 81.789062 69.171875 81.816406 69.0625 81.84375 68.953125 C 81.871094 68.84375 81.890625 68.742188 81.910156 68.648438 C 81.925781 68.570312 81.9375 68.492188 81.9375 68.414062 C 81.945312 68.359375 81.910156 68.3125 81.859375 68.304688 C 81.847656 68.304688 81.839844 68.304688 81.832031 68.304688 C 81.800781 68.304688 81.765625 68.308594 81.738281 68.328125 C 81.710938 68.347656 81.6875 68.375 81.671875 68.40625 C 81.507812 68.820312 81.289062 69.078125 81.023438 69.179688 C 80.875 69.234375 80.71875 69.273438 80.5625 69.289062 C 80.367188 69.308594 80.171875 69.316406 79.976562 69.316406 C 79.894531 69.316406 79.792969 69.316406 79.667969 69.308594 C 79.539062 69.300781 79.445312 69.296875 79.375 69.292969 C 79.328125 69.292969 79.28125 69.28125 79.238281 69.261719 C 79.214844 69.246094 79.199219 69.21875 79.199219 69.1875 C 79.207031 69.113281 79.234375 69.042969 79.28125 68.984375 C 79.449219 68.714844 79.625 68.441406 79.796875 68.152344 C 79.96875 67.863281 80.144531 67.574219 80.320312 67.277344 C 80.496094 66.980469 80.675781 66.6875 80.851562 66.390625 C 81.027344 66.097656 81.210938 65.808594 81.390625 65.527344 L 81.933594 64.664062 C 81.949219 64.625 81.9375 64.582031 81.910156 64.554688 C 81.894531 64.511719 81.855469 64.480469 81.808594 64.472656 C 81.710938 64.472656 81.582031 64.476562 81.417969 64.484375 C 81.25 64.488281 81.078125 64.492188 80.894531 64.492188 C 80.707031 64.496094 80.535156 64.5 80.378906 64.503906 C 80.21875 64.511719 80.089844 64.515625 79.992188 64.515625 L 79.046875 64.515625 C 78.90625 64.515625 78.777344 64.511719 78.667969 64.503906 C 78.5625 64.496094 78.460938 64.472656 78.359375 64.433594 C 78.277344 64.40625 78.203125 64.359375 78.132812 64.304688 C 78.082031 64.261719 78.019531 64.230469 77.953125 64.21875 C 77.90625 64.214844 77.863281 64.230469 77.828125 64.265625 C 77.800781 64.316406 77.78125 64.375 77.777344 64.433594 C 77.765625 64.578125 77.753906 64.703125 77.738281 64.8125 C 77.722656 64.917969 77.699219 65.023438 77.671875 65.128906 C 77.640625 65.246094 77.597656 65.363281 77.542969 65.472656 C 77.527344 65.507812 77.515625 65.542969 77.503906 65.578125 C 77.496094 65.613281 77.492188 65.652344 77.488281 65.6875 C 77.488281 65.722656 77.496094 65.753906 77.511719 65.785156 C 77.53125 65.8125 77.566406 65.828125 77.597656 65.824219 C 77.675781 65.824219 77.75 65.789062 77.800781 65.730469 C 77.847656 65.675781 77.890625 65.617188 77.929688 65.550781 C 78.035156 65.355469 78.1875 65.183594 78.371094 65.054688 C 78.542969 64.933594 78.75 64.871094 78.960938 64.875 L 80.144531 64.875 C 80.183594 64.871094 80.21875 64.878906 80.25 64.898438 C 80.265625 64.910156 80.273438 64.933594 80.273438 64.953125 C 80.273438 64.972656 80.265625 64.996094 80.261719 65.015625 C 80.25 65.039062 80.242188 65.0625 80.234375 65.089844 C 80.042969 65.394531 79.847656 65.703125 79.65625 66.007812 C 79.46875 66.308594 79.273438 66.613281 79.082031 66.914062 C 78.890625 67.214844 78.699219 67.515625 78.507812 67.824219 C 78.316406 68.128906 78.125 68.4375 77.933594 68.742188 C 77.882812 68.824219 77.835938 68.910156 77.777344 69 C 77.71875 69.089844 77.667969 69.179688 77.613281 69.261719 C 77.558594 69.347656 77.511719 69.429688 77.472656 69.503906 C 77.460938 69.546875 77.464844 69.589844 77.480469 69.632812 C 77.488281 69.6875 77.527344 69.730469 77.582031 69.734375 L 78.199219 69.71875 C 78.386719 69.714844 78.582031 69.710938 78.777344 69.707031 C 78.972656 69.707031 79.164062 69.699219 79.355469 69.695312 C 79.570312 69.695312 79.789062 69.695312 80.015625 69.703125 C 80.246094 69.710938 80.453125 69.710938 80.648438 69.714844 C 80.84375 69.71875 81.011719 69.71875 81.15625 69.722656 C 81.300781 69.730469 81.402344 69.730469 81.460938 69.730469 C 81.507812 69.730469 81.558594 69.714844 81.597656 69.6875 Z M 83.015625 69.707031 C 83.167969 69.691406 83.320312 69.683594 83.472656 69.683594 C 83.632812 69.683594 83.777344 69.691406 83.910156 69.695312 C 84.042969 69.703125 84.1875 69.707031 84.34375 69.707031 C 84.390625 69.710938 84.4375 69.699219 84.484375 69.679688 C 84.511719 69.660156 84.527344 69.628906 84.527344 69.597656 C 84.527344 69.511719 84.460938 69.457031 84.335938 69.429688 C 84.105469 69.378906 83.957031 69.308594 83.886719 69.222656 C 83.8125 69.113281 83.796875 68.976562 83.839844 68.855469 C 83.863281 68.785156 83.882812 68.710938 83.902344 68.636719 C 83.925781 68.566406 83.945312 68.488281 83.972656 68.414062 C 83.996094 68.34375 84.019531 68.265625 84.046875 68.191406 C 84.074219 68.121094 84.097656 68.042969 84.121094 67.972656 C 84.125 67.933594 84.140625 67.898438 84.167969 67.867188 C 84.191406 67.84375 84.222656 67.832031 84.253906 67.835938 L 85.671875 67.835938 C 85.707031 67.832031 85.742188 67.84375 85.769531 67.867188 C 85.789062 67.898438 85.800781 67.929688 85.808594 67.964844 C 85.839844 68.070312 85.871094 68.183594 85.898438 68.292969 C 85.929688 68.40625 85.960938 68.523438 85.992188 68.632812 C 86.023438 68.746094 86.050781 68.851562 86.070312 68.953125 C 86.109375 69.066406 86.078125 69.1875 85.980469 69.265625 C 85.851562 69.351562 85.703125 69.40625 85.550781 69.433594 C 85.5 69.441406 85.457031 69.460938 85.414062 69.488281 C 85.378906 69.511719 85.355469 69.554688 85.359375 69.601562 C 85.359375 69.636719 85.378906 69.667969 85.410156 69.683594 C 85.449219 69.703125 85.492188 69.710938 85.535156 69.710938 C 85.640625 69.710938 85.769531 69.707031 85.921875 69.699219 C 86.070312 69.695312 86.21875 69.691406 86.363281 69.683594 C 86.511719 69.679688 86.636719 69.675781 86.738281 69.675781 C 86.859375 69.675781 87 69.679688 87.160156 69.683594 C 87.320312 69.691406 87.476562 69.695312 87.636719 69.707031 C 87.792969 69.714844 87.925781 69.71875 88.03125 69.71875 C 88.070312 69.71875 88.109375 69.707031 88.144531 69.683594 C 88.175781 69.667969 88.191406 69.632812 88.191406 69.597656 C 88.195312 69.554688 88.175781 69.515625 88.140625 69.488281 C 88.097656 69.460938 88.050781 69.441406 88 69.429688 C 87.898438 69.402344 87.804688 69.363281 87.710938 69.316406 C 87.625 69.273438 87.546875 69.214844 87.484375 69.144531 C 87.414062 69.066406 87.363281 68.972656 87.335938 68.871094 C 87.226562 68.53125 87.113281 68.183594 86.996094 67.824219 C 86.875 67.464844 86.757812 67.101562 86.636719 66.734375 C 86.519531 66.367188 86.398438 66 86.28125 65.628906 C 86.164062 65.257812 86.050781 64.894531 85.9375 64.539062 C 85.929688 64.5 85.914062 64.460938 85.902344 64.421875 C 85.890625 64.386719 85.875 64.355469 85.859375 64.324219 C 85.847656 64.296875 85.824219 64.277344 85.792969 64.269531 C 85.769531 64.277344 85.746094 64.285156 85.730469 64.300781 C 85.695312 64.332031 85.648438 64.375 85.582031 64.433594 C 85.511719 64.496094 85.429688 64.542969 85.339844 64.578125 C 85.25 64.613281 85.160156 64.644531 85.066406 64.667969 C 84.980469 64.6875 84.890625 64.710938 84.796875 64.738281 C 84.773438 64.792969 84.757812 64.851562 84.746094 64.910156 C 84.707031 65.070312 84.65625 65.226562 84.59375 65.382812 C 84.484375 65.6875 84.371094 65.984375 84.257812 66.28125 C 84.148438 66.578125 84.035156 66.867188 83.925781 67.152344 C 83.8125 67.4375 83.695312 67.722656 83.582031 68.015625 C 83.464844 68.304688 83.335938 68.597656 83.203125 68.894531 C 83.148438 69.027344 83.058594 69.140625 82.945312 69.230469 C 82.824219 69.324219 82.6875 69.390625 82.539062 69.429688 C 82.488281 69.441406 82.441406 69.460938 82.398438 69.488281 C 82.363281 69.515625 82.34375 69.5625 82.347656 69.605469 C 82.34375 69.648438 82.367188 69.6875 82.40625 69.707031 C 82.453125 69.726562 82.503906 69.734375 82.554688 69.734375 C 82.707031 69.734375 82.863281 69.726562 83.015625 69.710938 Z M 84.378906 67.386719 C 84.355469 67.378906 84.335938 67.355469 84.335938 67.332031 C 84.335938 67.308594 84.339844 67.285156 84.351562 67.265625 L 84.984375 65.460938 C 84.992188 65.429688 85.011719 65.398438 85.039062 65.375 C 85.070312 65.394531 85.085938 65.429688 85.085938 65.460938 L 85.625 67.265625 C 85.628906 67.28125 85.632812 67.296875 85.636719 67.304688 C 85.636719 67.320312 85.640625 67.332031 85.640625 67.34375 C 85.640625 67.382812 85.601562 67.398438 85.519531 67.398438 L 84.480469 67.398438 C 84.445312 67.398438 84.414062 67.394531 84.382812 67.382812 Z M 88.980469 69.707031 C 89.070312 69.703125 89.175781 69.695312 89.300781 69.691406 C 89.425781 69.6875 89.542969 69.683594 89.660156 69.683594 C 89.777344 69.683594 89.859375 69.683594 89.925781 69.6875 C 89.988281 69.691406 90.058594 69.695312 90.140625 69.703125 C 90.222656 69.710938 90.332031 69.714844 90.476562 69.714844 C 90.523438 69.714844 90.570312 69.703125 90.613281 69.683594 C 90.648438 69.667969 90.675781 69.632812 90.675781 69.59375 C 90.675781 69.546875 90.648438 69.507812 90.605469 69.488281 C 90.554688 69.464844 90.507812 69.445312 90.453125 69.4375 C 90.285156 69.40625 90.125 69.335938 89.996094 69.226562 C 89.902344 69.128906 89.847656 69 89.851562 68.863281 L 89.851562 67.964844 C 89.851562 67.644531 89.859375 67.324219 89.867188 67.007812 C 89.878906 66.691406 89.890625 66.402344 89.90625 66.136719 C 89.90625 66.089844 89.929688 66.046875 89.96875 66.027344 C 90.003906 66.011719 90.027344 66.03125 90.042969 66.078125 C 90.285156 66.667969 90.546875 67.265625 90.832031 67.867188 C 91.117188 68.46875 91.390625 69.078125 91.652344 69.695312 C 91.675781 69.738281 91.714844 69.769531 91.765625 69.773438 C 91.816406 69.785156 91.859375 69.753906 91.882812 69.679688 L 93.410156 66.054688 C 93.417969 66.027344 93.4375 66.003906 93.464844 65.996094 C 93.480469 65.992188 93.492188 66.007812 93.492188 66.046875 C 93.507812 66.347656 93.519531 66.652344 93.527344 66.96875 C 93.535156 67.285156 93.542969 67.605469 93.554688 67.933594 C 93.5625 68.261719 93.578125 68.589844 93.59375 68.921875 C 93.609375 69.050781 93.570312 69.179688 93.488281 69.277344 C 93.371094 69.367188 93.230469 69.421875 93.078125 69.441406 C 93.03125 69.449219 92.984375 69.46875 92.945312 69.496094 C 92.90625 69.523438 92.886719 69.5625 92.886719 69.605469 C 92.886719 69.644531 92.910156 69.679688 92.945312 69.691406 C 92.984375 69.710938 93.027344 69.722656 93.074219 69.71875 C 93.195312 69.71875 93.324219 69.714844 93.457031 69.707031 C 93.589844 69.699219 93.722656 69.695312 93.851562 69.6875 C 93.984375 69.679688 94.101562 69.679688 94.207031 69.679688 C 94.316406 69.679688 94.441406 69.679688 94.589844 69.6875 C 94.734375 69.695312 94.882812 69.699219 95.035156 69.707031 C 95.191406 69.71875 95.320312 69.71875 95.441406 69.71875 C 95.484375 69.71875 95.523438 69.710938 95.5625 69.6875 C 95.589844 69.667969 95.609375 69.632812 95.609375 69.601562 C 95.613281 69.554688 95.589844 69.515625 95.554688 69.496094 C 95.511719 69.472656 95.464844 69.457031 95.417969 69.441406 C 95.269531 69.410156 95.128906 69.34375 95.007812 69.253906 C 94.902344 69.171875 94.839844 69.050781 94.835938 68.921875 C 94.8125 68.570312 94.792969 68.265625 94.773438 68 C 94.757812 67.738281 94.738281 67.484375 94.726562 67.238281 C 94.710938 66.992188 94.699219 66.726562 94.683594 66.441406 C 94.667969 66.152344 94.652344 65.816406 94.644531 65.433594 C 94.621094 65.296875 94.652344 65.15625 94.726562 65.039062 C 94.8125 64.945312 94.917969 64.871094 95.035156 64.820312 C 95.066406 64.804688 95.101562 64.789062 95.148438 64.765625 C 95.1875 64.75 95.226562 64.734375 95.257812 64.722656 C 95.304688 64.710938 95.347656 64.691406 95.390625 64.667969 C 95.425781 64.644531 95.445312 64.605469 95.445312 64.566406 C 95.445312 64.527344 95.421875 64.488281 95.382812 64.472656 C 95.339844 64.453125 95.292969 64.445312 95.242188 64.445312 C 95.105469 64.445312 94.914062 64.457031 94.671875 64.480469 C 94.425781 64.503906 94.195312 64.519531 93.972656 64.53125 L 93.625 64.53125 C 93.566406 64.53125 93.507812 64.578125 93.5 64.636719 C 93.476562 64.703125 93.453125 64.800781 93.429688 64.917969 C 93.410156 65.035156 93.375 65.183594 93.339844 65.371094 L 92.195312 68.019531 C 92.195312 68.039062 92.171875 68.054688 92.152344 68.054688 C 92.132812 68.050781 92.117188 68.039062 92.109375 68.019531 L 90.933594 65.21875 C 90.898438 65.117188 90.863281 65.023438 90.832031 64.925781 C 90.796875 64.835938 90.761719 64.738281 90.726562 64.636719 C 90.714844 64.597656 90.6875 64.558594 90.65625 64.539062 C 90.621094 64.511719 90.578125 64.492188 90.535156 64.492188 C 90.414062 64.492188 90.277344 64.492188 90.132812 64.484375 C 89.984375 64.476562 89.839844 64.476562 89.699219 64.472656 C 89.554688 64.472656 89.425781 64.464844 89.308594 64.460938 C 89.191406 64.457031 89.09375 64.453125 89.015625 64.453125 C 88.960938 64.453125 88.914062 64.460938 88.863281 64.476562 C 88.824219 64.488281 88.796875 64.527344 88.800781 64.570312 C 88.800781 64.613281 88.820312 64.652344 88.855469 64.675781 C 88.902344 64.703125 88.953125 64.726562 89.007812 64.738281 C 89.089844 64.761719 89.167969 64.785156 89.246094 64.816406 C 89.320312 64.84375 89.390625 64.878906 89.457031 64.921875 C 89.519531 64.953125 89.574219 65.003906 89.605469 65.0625 C 89.636719 65.132812 89.652344 65.210938 89.648438 65.289062 L 89.648438 65.441406 C 89.648438 65.480469 89.648438 65.523438 89.640625 65.5625 C 89.613281 65.960938 89.582031 66.363281 89.542969 66.773438 C 89.503906 67.183594 89.46875 67.570312 89.433594 67.925781 C 89.398438 68.289062 89.367188 68.589844 89.335938 68.832031 C 89.304688 69.121094 89.113281 69.367188 88.839844 69.464844 C 88.78125 69.484375 88.726562 69.503906 88.683594 69.515625 C 88.640625 69.527344 88.609375 69.566406 88.617188 69.609375 C 88.617188 69.644531 88.632812 69.675781 88.664062 69.695312 C 88.707031 69.714844 88.757812 69.726562 88.804688 69.722656 C 88.835938 69.722656 88.890625 69.71875 88.984375 69.710938 Z M 88.980469 69.707031 " fill-opacity="1" fill-rule="evenodd"/><path fill="#1c7d88" d="M 63.960938 136.960938 C 64.503906 136.898438 65.03125 136.761719 65.535156 136.570312 C 65.667969 136.539062 65.789062 136.484375 65.902344 136.410156 C 65.988281 136.316406 66.058594 136.207031 66.105469 136.089844 C 66.179688 135.910156 66.253906 135.707031 66.332031 135.476562 C 66.410156 135.246094 66.472656 135.027344 66.515625 134.820312 C 66.554688 134.671875 66.578125 134.519531 66.589844 134.367188 C 66.589844 134.175781 66.507812 134.082031 66.347656 134.082031 C 66.191406 134.082031 66.046875 134.171875 65.980469 134.3125 C 65.636719 134.957031 65.148438 135.515625 64.554688 135.945312 C 63.996094 136.335938 63.289062 136.535156 62.433594 136.535156 C 61.734375 136.542969 61.042969 136.367188 60.429688 136.027344 C 59.828125 135.6875 59.300781 135.226562 58.882812 134.675781 C 58.445312 134.105469 58.105469 133.464844 57.882812 132.78125 C 57.652344 132.09375 57.535156 131.375 57.535156 130.648438 C 57.535156 130.003906 57.65625 129.363281 57.890625 128.765625 C 58.125 128.171875 58.457031 127.621094 58.882812 127.136719 C 59.300781 126.660156 59.816406 126.269531 60.394531 126 C 60.992188 125.71875 61.648438 125.578125 62.308594 125.582031 C 62.765625 125.582031 63.222656 125.628906 63.667969 125.734375 C 64.054688 125.820312 64.417969 125.972656 64.75 126.1875 C 65.046875 126.390625 65.289062 126.671875 65.441406 126.996094 C 65.613281 127.371094 65.75 127.761719 65.851562 128.160156 C 65.867188 128.269531 65.949219 128.363281 66.058594 128.390625 C 66.152344 128.417969 66.257812 128.402344 66.34375 128.347656 C 66.421875 128.3125 66.46875 128.230469 66.457031 128.144531 C 66.445312 127.683594 66.421875 127.292969 66.386719 126.980469 C 66.351562 126.664062 66.320312 126.371094 66.296875 126.101562 C 66.292969 125.960938 66.246094 125.824219 66.164062 125.710938 C 66.058594 125.601562 65.925781 125.527344 65.777344 125.496094 C 65.375 125.390625 65.023438 125.304688 64.71875 125.242188 C 64.410156 125.175781 64.097656 125.125 63.78125 125.089844 C 63.390625 125.050781 63 125.03125 62.605469 125.035156 C 61.71875 125.03125 60.832031 125.1875 60 125.492188 C 59.195312 125.78125 58.453125 126.210938 57.800781 126.761719 C 57.171875 127.292969 56.65625 127.945312 56.289062 128.683594 C 55.917969 129.429688 55.726562 130.25 55.734375 131.082031 C 55.710938 132.75 56.429688 134.347656 57.695312 135.445312 C 58.300781 135.972656 59.003906 136.386719 59.761719 136.664062 C 60.53125 136.945312 61.34375 137.089844 62.164062 137.089844 C 62.761719 137.089844 63.359375 137.046875 63.953125 136.964844 Z M 77.621094 136.472656 C 78.316406 136.078125 78.890625 135.503906 79.289062 134.808594 C 79.714844 134.070312 79.9375 133.230469 79.949219 132.375 C 79.96875 131.558594 79.992188 130.726562 80.007812 129.886719 C 80.027344 129.046875 80.066406 128.117188 80.125 127.097656 C 80.136719 126.789062 80.214844 126.484375 80.355469 126.210938 C 80.496094 125.964844 80.738281 125.804688 81.015625 125.765625 C 81.40625 125.679688 81.605469 125.5625 81.605469 125.40625 C 81.601562 125.332031 81.542969 125.269531 81.464844 125.257812 C 81.339844 125.222656 81.214844 125.207031 81.089844 125.214844 C 80.957031 125.214844 80.816406 125.21875 80.660156 125.230469 C 80.507812 125.242188 80.34375 125.253906 80.179688 125.257812 C 80.015625 125.265625 79.835938 125.269531 79.644531 125.269531 C 79.382812 125.269531 79.164062 125.265625 78.984375 125.257812 C 78.808594 125.253906 78.582031 125.25 78.308594 125.25 C 78.183594 125.246094 78.058594 125.261719 77.933594 125.292969 C 77.855469 125.300781 77.796875 125.367188 77.792969 125.445312 C 77.792969 125.527344 77.863281 125.597656 77.996094 125.660156 C 78.121094 125.714844 78.25 125.761719 78.382812 125.800781 C 78.5625 125.859375 78.710938 125.992188 78.789062 126.164062 C 78.90625 126.386719 78.984375 126.621094 79.03125 126.867188 C 79.085938 127.15625 79.113281 127.445312 79.113281 127.738281 C 79.125 128.191406 79.136719 128.664062 79.148438 129.152344 C 79.160156 129.644531 79.167969 130.105469 79.175781 130.53125 C 79.183594 130.957031 79.183594 131.300781 79.183594 131.5625 C 79.183594 132.945312 78.898438 134.066406 78.328125 134.910156 C 77.757812 135.757812 76.863281 136.183594 75.640625 136.183594 C 74.972656 136.195312 74.304688 136.046875 73.707031 135.746094 C 73.132812 135.449219 72.667969 134.976562 72.378906 134.394531 C 72.058594 133.785156 71.898438 133.007812 71.898438 132.058594 L 71.898438 127.066406 C 71.882812 126.753906 71.980469 126.445312 72.164062 126.195312 C 72.34375 125.96875 72.503906 125.832031 72.644531 125.785156 C 72.796875 125.746094 72.945312 125.691406 73.09375 125.625 C 73.175781 125.597656 73.230469 125.519531 73.234375 125.429688 C 73.230469 125.351562 73.171875 125.289062 73.09375 125.28125 C 72.96875 125.246094 72.84375 125.230469 72.71875 125.234375 C 72.527344 125.234375 72.308594 125.242188 72.066406 125.253906 C 71.824219 125.265625 71.566406 125.273438 71.292969 125.273438 C 70.957031 125.273438 70.660156 125.261719 70.390625 125.246094 C 70.125 125.226562 69.855469 125.21875 69.582031 125.21875 C 69.457031 125.214844 69.328125 125.230469 69.207031 125.261719 C 69.128906 125.269531 69.070312 125.335938 69.066406 125.414062 C 69.066406 125.566406 69.261719 125.699219 69.652344 125.804688 C 69.875 125.863281 70.070312 125.988281 70.214844 126.167969 C 70.386719 126.363281 70.472656 126.675781 70.472656 127.101562 L 70.472656 132.558594 C 70.472656 133.457031 70.648438 134.25 71.007812 134.929688 C 71.363281 135.613281 71.921875 136.164062 72.609375 136.511719 C 73.320312 136.886719 74.203125 137.070312 75.261719 137.070312 C 76.089844 137.085938 76.902344 136.878906 77.621094 136.476562 Z M 84.53125 136.878906 C 84.761719 136.863281 84.988281 136.847656 85.207031 136.835938 C 85.425781 136.824219 85.6875 136.820312 85.980469 136.820312 C 86.257812 136.820312 86.488281 136.824219 86.675781 136.835938 C 86.867188 136.847656 87.066406 136.863281 87.273438 136.878906 C 87.484375 136.898438 87.746094 136.90625 88.066406 136.90625 C 88.195312 136.910156 88.320312 136.898438 88.441406 136.863281 C 88.519531 136.855469 88.582031 136.789062 88.585938 136.714844 C 88.582031 136.625 88.527344 136.546875 88.441406 136.519531 C 88.300781 136.457031 88.152344 136.414062 87.996094 136.394531 C 87.558594 136.3125 87.210938 136.175781 86.964844 135.984375 C 86.714844 135.796875 86.589844 135.496094 86.589844 135.078125 L 86.589844 127.046875 C 86.589844 126.632812 86.691406 126.335938 86.894531 126.160156 C 87.09375 125.980469 87.414062 125.851562 87.855469 125.769531 C 88.011719 125.746094 88.160156 125.699219 88.300781 125.625 C 88.382812 125.585938 88.4375 125.503906 88.441406 125.414062 C 88.4375 125.335938 88.378906 125.273438 88.300781 125.261719 C 88.179688 125.226562 88.050781 125.214844 87.925781 125.21875 C 87.605469 125.21875 87.351562 125.222656 87.160156 125.234375 C 86.96875 125.246094 86.792969 125.257812 86.625 125.261719 C 86.460938 125.269531 86.246094 125.273438 85.984375 125.273438 C 85.710938 125.273438 85.480469 125.269531 85.289062 125.261719 C 85.097656 125.257812 84.902344 125.246094 84.691406 125.234375 C 84.484375 125.222656 84.21875 125.21875 83.898438 125.21875 C 83.773438 125.214844 83.644531 125.230469 83.523438 125.261719 C 83.445312 125.269531 83.386719 125.335938 83.382812 125.414062 C 83.382812 125.578125 83.578125 125.699219 83.96875 125.769531 C 84.421875 125.851562 84.734375 125.980469 84.90625 126.160156 C 85.078125 126.335938 85.164062 126.632812 85.164062 127.046875 L 85.164062 135.078125 C 85.164062 135.496094 85.042969 135.796875 84.808594 135.984375 C 84.570312 136.175781 84.226562 136.3125 83.773438 136.394531 C 83.382812 136.464844 83.1875 136.570312 83.1875 136.714844 C 83.191406 136.792969 83.25 136.851562 83.328125 136.863281 C 83.449219 136.898438 83.578125 136.914062 83.703125 136.90625 C 84.023438 136.90625 84.296875 136.898438 84.53125 136.878906 Z M 95.652344 136.675781 C 96.214844 136.410156 96.683594 135.988281 97.007812 135.457031 C 97.335938 134.902344 97.503906 134.265625 97.488281 133.621094 C 97.488281 133.027344 97.359375 132.527344 97.105469 132.117188 C 96.847656 131.707031 96.515625 131.347656 96.125 131.058594 C 95.730469 130.765625 95.324219 130.492188 94.902344 130.242188 C 94.464844 129.96875 94.054688 129.703125 93.675781 129.441406 C 93.332031 129.210938 93.019531 128.933594 92.757812 128.613281 C 92.53125 128.339844 92.410156 128 92.410156 127.644531 C 92.410156 127.148438 92.507812 126.753906 92.703125 126.453125 C 92.886719 126.171875 93.152344 125.949219 93.460938 125.8125 C 93.777344 125.683594 94.117188 125.617188 94.460938 125.621094 C 94.929688 125.601562 95.386719 125.785156 95.722656 126.117188 C 96.054688 126.449219 96.347656 126.925781 96.597656 127.554688 C 96.628906 127.640625 96.699219 127.703125 96.78125 127.734375 C 96.878906 127.777344 96.988281 127.804688 97.09375 127.804688 C 97.273438 127.804688 97.363281 127.738281 97.363281 127.609375 C 97.359375 127.304688 97.316406 127 97.238281 126.703125 C 97.15625 126.382812 97.078125 126.097656 97.003906 125.847656 C 96.980469 125.753906 96.933594 125.660156 96.871094 125.582031 C 96.808594 125.503906 96.726562 125.441406 96.628906 125.40625 C 96.382812 125.300781 96.132812 125.21875 95.875 125.148438 C 95.511719 125.050781 95.136719 125.007812 94.761719 125.015625 C 93.929688 125.015625 93.238281 125.160156 92.6875 125.453125 C 92.167969 125.710938 91.738281 126.113281 91.449219 126.617188 C 91.171875 127.117188 91.03125 127.679688 91.039062 128.25 C 91.023438 128.769531 91.179688 129.28125 91.484375 129.699219 C 91.796875 130.109375 92.179688 130.464844 92.609375 130.75 C 93.058594 131.050781 93.515625 131.351562 93.980469 131.644531 C 94.40625 131.90625 94.765625 132.152344 95.066406 132.375 C 95.347656 132.585938 95.585938 132.855469 95.75 133.167969 C 95.914062 133.46875 95.992188 133.863281 95.992188 134.347656 C 96.003906 134.75 95.910156 135.144531 95.71875 135.496094 C 95.539062 135.8125 95.277344 136.074219 94.960938 136.25 C 94.621094 136.429688 94.242188 136.523438 93.855469 136.515625 C 93.347656 136.515625 92.855469 136.320312 92.386719 135.929688 C 91.917969 135.539062 91.566406 134.886719 91.328125 133.972656 C 91.320312 133.910156 91.277344 133.851562 91.222656 133.820312 C 91.167969 133.792969 91.105469 133.777344 91.042969 133.777344 C 90.957031 133.777344 90.871094 133.796875 90.796875 133.839844 C 90.726562 133.875 90.683594 133.949219 90.691406 134.027344 C 90.714844 134.277344 90.734375 134.589844 90.753906 134.96875 C 90.761719 135.277344 90.800781 135.589844 90.867188 135.894531 C 90.890625 135.960938 90.921875 136.027344 90.964844 136.089844 C 91.003906 136.144531 91.050781 136.199219 91.097656 136.25 C 91.4375 136.523438 91.820312 136.738281 92.230469 136.878906 C 92.675781 137.03125 93.140625 137.109375 93.609375 137.101562 C 94.394531 137.101562 95.074219 136.960938 95.660156 136.675781 Z M 101.003906 136.878906 C 101.238281 136.863281 101.460938 136.847656 101.679688 136.835938 C 101.898438 136.824219 102.15625 136.820312 102.457031 136.820312 C 102.730469 136.820312 102.960938 136.824219 103.148438 136.835938 C 103.339844 136.847656 103.539062 136.863281 103.75 136.878906 C 103.957031 136.898438 104.21875 136.90625 104.542969 136.90625 C 104.667969 136.910156 104.792969 136.898438 104.917969 136.863281 C 104.996094 136.855469 105.054688 136.789062 105.058594 136.714844 C 105.058594 136.625 105 136.546875 104.917969 136.519531 C 104.773438 136.457031 104.625 136.414062 104.46875 136.394531 C 104.03125 136.3125 103.6875 136.175781 103.4375 135.984375 C 103.1875 135.796875 103.0625 135.496094 103.0625 135.078125 L 103.0625 127.046875 C 103.0625 126.632812 103.164062 126.335938 103.367188 126.160156 C 103.570312 125.980469 103.886719 125.851562 104.328125 125.769531 C 104.484375 125.746094 104.632812 125.699219 104.773438 125.625 C 104.855469 125.585938 104.910156 125.503906 104.917969 125.414062 C 104.910156 125.335938 104.851562 125.273438 104.773438 125.261719 C 104.652344 125.226562 104.527344 125.214844 104.398438 125.21875 C 104.078125 125.21875 103.824219 125.222656 103.632812 125.234375 C 103.441406 125.246094 103.265625 125.257812 103.101562 125.261719 C 102.933594 125.269531 102.71875 125.273438 102.457031 125.273438 C 102.195312 125.273438 101.953125 125.269531 101.761719 125.261719 C 101.574219 125.257812 101.375 125.246094 101.167969 125.234375 C 100.957031 125.222656 100.695312 125.21875 100.375 125.21875 C 100.246094 125.214844 100.121094 125.230469 100 125.261719 C 99.921875 125.269531 99.863281 125.335938 99.855469 125.414062 C 99.855469 125.578125 100.050781 125.699219 100.445312 125.769531 C 100.898438 125.851562 101.210938 125.980469 101.382812 126.160156 C 101.554688 126.335938 101.640625 126.632812 101.640625 127.046875 L 101.640625 135.078125 C 101.640625 135.496094 101.519531 135.796875 101.28125 135.984375 C 101.046875 136.175781 100.699219 136.3125 100.25 136.394531 C 99.859375 136.464844 99.660156 136.570312 99.660156 136.714844 C 99.667969 136.792969 99.726562 136.855469 99.804688 136.863281 C 99.925781 136.898438 100.050781 136.914062 100.179688 136.90625 C 100.5 136.90625 100.777344 136.898438 101.007812 136.878906 Z M 118.601562 137.042969 C 118.679688 136.988281 118.714844 136.867188 118.714844 136.675781 C 118.714844 136.59375 118.707031 136.472656 118.695312 136.3125 C 118.6875 136.152344 118.667969 135.957031 118.652344 135.722656 C 118.636719 135.492188 118.625 135.234375 118.625 134.949219 L 118.625 133.058594 C 118.625 132.351562 118.628906 131.644531 118.636719 130.933594 C 118.640625 130.21875 118.644531 129.558594 118.644531 128.941406 C 118.644531 128.328125 118.644531 127.816406 118.652344 127.414062 C 118.65625 127.011719 118.664062 126.78125 118.664062 126.722656 C 118.6875 126.425781 118.769531 126.210938 118.910156 126.082031 C 119.054688 125.949219 119.34375 125.84375 119.785156 125.761719 C 120.175781 125.691406 120.375 125.570312 120.375 125.40625 C 120.367188 125.328125 120.308594 125.265625 120.230469 125.253906 C 120.109375 125.21875 119.984375 125.207031 119.855469 125.210938 C 119.5 125.210938 119.222656 125.21875 119.027344 125.230469 C 118.832031 125.242188 118.652344 125.25 118.484375 125.257812 C 118.320312 125.261719 118.09375 125.265625 117.808594 125.265625 L 116.792969 125.265625 C 116.632812 125.265625 116.472656 125.28125 116.3125 125.308594 C 116.148438 125.339844 116.0625 125.390625 116.0625 125.460938 C 116.0625 125.542969 116.148438 125.613281 116.3125 125.675781 C 116.492188 125.738281 116.675781 125.785156 116.863281 125.816406 C 117.109375 125.875 117.335938 125.988281 117.523438 126.152344 C 117.761719 126.34375 117.886719 126.554688 117.898438 126.792969 L 117.898438 129.195312 C 117.898438 129.976562 117.898438 130.703125 117.890625 131.371094 C 117.882812 132.042969 117.878906 132.613281 117.871094 133.078125 C 117.867188 133.546875 117.863281 133.863281 117.863281 134.027344 C 117.851562 134.277344 117.789062 134.402344 117.683594 134.402344 C 117.589844 134.386719 117.503906 134.335938 117.445312 134.257812 C 117.355469 134.164062 117.285156 134.09375 117.238281 134.046875 C 117.191406 133.988281 117.035156 133.796875 116.765625 133.476562 C 116.5 133.15625 116.164062 132.75 115.761719 132.257812 C 115.355469 131.765625 114.917969 131.234375 114.441406 130.660156 C 113.964844 130.085938 113.492188 129.507812 113.015625 128.933594 C 112.539062 128.363281 112.105469 127.828125 111.707031 127.335938 C 111.308594 126.84375 110.976562 126.4375 110.710938 126.109375 C 110.441406 125.785156 110.285156 125.585938 110.238281 125.515625 C 110.183594 125.4375 110.125 125.367188 110.0625 125.300781 C 109.996094 125.238281 109.902344 125.207031 109.8125 125.210938 C 109.492188 125.210938 109.230469 125.207031 109.027344 125.203125 C 108.828125 125.195312 108.640625 125.1875 108.476562 125.175781 C 108.308594 125.164062 108.121094 125.152344 107.90625 125.148438 C 107.691406 125.140625 107.414062 125.128906 107.070312 125.117188 C 106.984375 125.125 106.902344 125.140625 106.820312 125.164062 C 106.722656 125.179688 106.65625 125.269531 106.660156 125.367188 C 106.660156 125.472656 106.742188 125.566406 106.902344 125.640625 C 107.0625 125.71875 107.164062 125.769531 107.214844 125.792969 C 107.675781 125.929688 108.109375 126.152344 108.488281 126.453125 C 108.816406 126.726562 108.976562 127.175781 108.976562 127.804688 C 108.976562 128.773438 108.960938 129.71875 108.925781 130.636719 C 108.890625 131.554688 108.847656 132.386719 108.800781 133.125 C 108.753906 133.867188 108.707031 134.460938 108.660156 134.910156 C 108.636719 135.238281 108.539062 135.558594 108.375 135.84375 C 108.203125 136.113281 107.933594 136.300781 107.625 136.371094 C 107.472656 136.402344 107.324219 136.449219 107.179688 136.511719 C 107.097656 136.542969 107.039062 136.621094 107.035156 136.707031 C 107.042969 136.785156 107.101562 136.851562 107.179688 136.859375 C 107.300781 136.890625 107.429688 136.90625 107.554688 136.902344 C 107.792969 136.90625 108.03125 136.898438 108.265625 136.875 C 108.421875 136.859375 108.558594 136.84375 108.675781 136.832031 C 108.796875 136.820312 108.960938 136.8125 109.175781 136.8125 C 109.402344 136.8125 109.574219 136.820312 109.703125 136.832031 C 109.828125 136.84375 109.96875 136.859375 110.128906 136.875 C 110.371094 136.898438 110.609375 136.90625 110.851562 136.902344 C 110.980469 136.90625 111.105469 136.890625 111.226562 136.859375 C 111.304688 136.851562 111.367188 136.785156 111.371094 136.707031 C 111.367188 136.621094 111.308594 136.542969 111.226562 136.511719 C 111.085938 136.453125 110.933594 136.410156 110.78125 136.390625 C 110.34375 136.308594 110.042969 136.128906 109.882812 135.855469 C 109.722656 135.589844 109.640625 135.28125 109.640625 134.96875 C 109.640625 134.234375 109.648438 133.464844 109.660156 132.65625 C 109.671875 131.851562 109.683594 131.070312 109.691406 130.3125 C 109.703125 129.554688 109.714844 128.886719 109.726562 128.304688 C 109.726562 128.222656 109.742188 128.140625 109.761719 128.0625 C 109.785156 127.972656 109.828125 127.929688 109.886719 127.929688 C 109.945312 127.933594 110 127.957031 110.046875 127.992188 C 110.128906 128.054688 110.203125 128.132812 110.261719 128.214844 C 110.320312 128.285156 110.476562 128.472656 110.734375 128.773438 C 110.988281 129.078125 111.304688 129.449219 111.683594 129.894531 C 112.0625 130.339844 112.472656 130.820312 112.914062 131.34375 C 113.355469 131.863281 113.792969 132.386719 114.234375 132.90625 C 114.671875 133.429688 115.078125 133.914062 115.453125 134.355469 C 115.828125 134.800781 116.136719 135.171875 116.382812 135.46875 C 116.625 135.761719 116.769531 135.941406 116.816406 136 C 117.054688 136.34375 117.359375 136.636719 117.71875 136.851562 C 118.03125 137.03125 118.242188 137.121094 118.351562 137.121094 C 118.441406 137.121094 118.53125 137.089844 118.605469 137.039062 Z M 123.578125 136.878906 C 123.78125 136.863281 123.976562 136.847656 124.167969 136.828125 C 124.359375 136.808594 124.582031 136.800781 124.84375 136.800781 C 125.296875 136.800781 125.730469 136.808594 126.152344 136.820312 C 126.574219 136.828125 127.003906 136.839844 127.445312 136.851562 C 127.886719 136.863281 128.347656 136.875 128.835938 136.886719 C 129.320312 136.898438 129.851562 136.90625 130.417969 136.90625 C 130.484375 136.910156 130.542969 136.875 130.570312 136.816406 C 130.601562 136.757812 130.632812 136.683594 130.667969 136.601562 C 130.761719 136.382812 130.84375 136.15625 130.910156 135.929688 C 131 135.644531 131.074219 135.367188 131.132812 135.101562 C 131.179688 134.917969 131.210938 134.730469 131.222656 134.542969 C 131.230469 134.480469 131.207031 134.421875 131.171875 134.371094 C 131.132812 134.332031 131.082031 134.300781 131.027344 134.292969 C 130.96875 134.28125 130.910156 134.300781 130.867188 134.34375 C 130.816406 134.398438 130.777344 134.457031 130.742188 134.519531 C 130.589844 134.816406 130.421875 135.101562 130.234375 135.375 C 130.097656 135.578125 129.925781 135.75 129.726562 135.890625 C 129.523438 136.015625 129.292969 136.097656 129.058594 136.132812 C 128.742188 136.179688 128.421875 136.199219 128.105469 136.195312 L 126.789062 136.195312 C 126.382812 136.195312 126.085938 136.109375 125.898438 135.9375 C 125.710938 135.765625 125.613281 135.457031 125.613281 135.003906 L 125.613281 131.589844 C 125.613281 131.390625 125.664062 131.261719 125.765625 131.207031 C 125.90625 131.144531 126.0625 131.121094 126.21875 131.128906 L 127.875 131.128906 C 128.113281 131.128906 128.289062 131.191406 128.410156 131.320312 C 128.550781 131.5 128.648438 131.707031 128.695312 131.925781 C 128.789062 132.304688 128.925781 132.496094 129.105469 132.496094 C 129.164062 132.5 129.222656 132.464844 129.238281 132.40625 C 129.257812 132.335938 129.265625 132.261719 129.265625 132.191406 C 129.265625 132.144531 129.261719 132.03125 129.253906 131.855469 C 129.25 131.679688 129.242188 131.488281 129.238281 131.292969 C 129.230469 131.097656 129.226562 130.941406 129.226562 130.824219 C 129.226562 130.730469 129.234375 130.59375 129.246094 130.414062 C 129.261719 130.238281 129.265625 130.066406 129.273438 129.898438 C 129.28125 129.730469 129.28125 129.625 129.28125 129.582031 C 129.289062 129.5 129.261719 129.425781 129.203125 129.367188 C 129.164062 129.324219 129.109375 129.300781 129.050781 129.296875 C 128.90625 129.296875 128.800781 129.425781 128.730469 129.6875 C 128.648438 130.019531 128.539062 130.246094 128.410156 130.371094 C 128.28125 130.492188 128.042969 130.554688 127.699219 130.554688 L 125.933594 130.554688 C 125.847656 130.554688 125.765625 130.511719 125.710938 130.441406 C 125.648438 130.363281 125.613281 130.265625 125.613281 130.164062 L 125.613281 126.398438 C 125.613281 126.226562 125.710938 126.070312 125.859375 125.988281 C 125.976562 125.902344 126.109375 125.847656 126.25 125.828125 L 128.585938 125.828125 C 128.804688 125.828125 129.019531 125.859375 129.226562 125.925781 C 129.445312 126.003906 129.636719 126.132812 129.78125 126.308594 C 129.882812 126.425781 129.953125 126.5625 129.992188 126.710938 C 130.050781 126.894531 130.109375 127.085938 130.171875 127.289062 C 130.1875 127.335938 130.210938 127.378906 130.242188 127.421875 C 130.273438 127.453125 130.320312 127.472656 130.367188 127.464844 C 130.425781 127.464844 130.484375 127.445312 130.535156 127.410156 C 130.597656 127.359375 130.628906 127.277344 130.617188 127.199219 C 130.613281 126.914062 130.582031 126.632812 130.527344 126.355469 C 130.46875 126.027344 130.40625 125.699219 130.351562 125.367188 C 130.335938 125.304688 130.289062 125.257812 130.226562 125.242188 C 130.164062 125.21875 130.097656 125.207031 130.03125 125.207031 C 129.980469 125.207031 129.820312 125.210938 129.539062 125.21875 C 129.261719 125.222656 128.917969 125.230469 128.515625 125.246094 C 128.148438 125.246094 127.75 125.246094 127.3125 125.253906 C 126.882812 125.261719 126.46875 125.261719 126.078125 125.261719 C 125.660156 125.261719 125.300781 125.261719 125 125.253906 C 124.695312 125.246094 124.386719 125.238281 124.070312 125.226562 C 123.757812 125.214844 123.375 125.207031 122.925781 125.207031 C 122.796875 125.203125 122.671875 125.21875 122.550781 125.253906 C 122.472656 125.261719 122.414062 125.324219 122.40625 125.402344 C 122.410156 125.496094 122.464844 125.574219 122.550781 125.617188 C 122.6875 125.691406 122.839844 125.738281 122.996094 125.757812 C 123.445312 125.84375 123.757812 125.972656 123.929688 126.148438 C 124.105469 126.324219 124.1875 126.628906 124.1875 127.054688 L 124.1875 135.054688 C 124.1875 135.480469 124.082031 135.789062 123.871094 135.980469 C 123.65625 136.167969 123.320312 136.304688 122.871094 136.386719 C 122.480469 136.457031 122.28125 136.5625 122.28125 136.707031 C 122.285156 136.785156 122.347656 136.847656 122.425781 136.859375 C 122.546875 136.890625 122.671875 136.90625 122.800781 136.902344 C 123.121094 136.902344 123.382812 136.890625 123.585938 136.875 Z M 123.578125 136.878906 " fill-opacity="1" fill-rule="evenodd"/><path fill="#002f35" d="M 87.136719 34.710938 C 87.117188 34.570312 87.136719 34.5 87.222656 34.386719 C 87.371094 34.1875 88.179688 33.796875 88.472656 33.496094 C 91.117188 30.8125 87.707031 28.117188 84.832031 28.457031 C 80.089844 29.027344 79.875 33.738281 83.453125 36.238281 C 88.335938 39.652344 100.480469 39.878906 104.707031 35.347656 C 107.433594 32.421875 106.109375 28.796875 102.148438 28.4375 C 98.910156 28.140625 95.925781 31.207031 99.089844 33.84375 C 99.425781 34.121094 100.027344 34.253906 100.003906 34.707031 C 97.886719 34.734375 95.605469 32.601562 96.105469 30.414062 C 97.300781 25.171875 107.851562 25.785156 108.039062 31.65625 C 108.171875 35.8125 103.410156 38.117188 99.933594 38.867188 C 94.449219 40.058594 82.839844 39.996094 79.753906 34.285156 C 76.0625 27.441406 88.085938 23.976562 90.757812 29.6875 C 91.917969 32.164062 89.613281 34.664062 87.132812 34.707031 Z M 87.136719 34.710938 " fill-opacity="1" fill-rule="nonzero"/><path fill="#002f35" d="M 81.296875 47.710938 C 81.140625 47.6875 80.417969 47.746094 80.382812 47.710938 C 80.34375 47.675781 80.292969 46.894531 80.246094 46.707031 C 79.355469 42.941406 77.101562 39.839844 73.03125 39.257812 C 70.796875 38.9375 67.40625 39.777344 67.238281 42.484375 C 67.035156 45.648438 71.414062 46.453125 73.691406 45.003906 C 73.972656 44.828125 74.976562 43.785156 75.179688 43.984375 C 75.207031 45.796875 72.75 46.90625 71.195312 47.0625 C 66.714844 47.519531 62.621094 42.800781 66.738281 39.351562 C 69.25 37.242188 72.929688 37.371094 75.789062 38.695312 C 79.371094 40.359375 81 43.933594 81.296875 47.714844 Z M 81.296875 47.710938 " fill-opacity="1" fill-rule="nonzero"/><path fill="#002f35" d="M 106.761719 47.710938 C 106.730469 47.742188 105.851562 47.722656 105.847656 47.664062 C 106.117188 44.449219 107.347656 41.222656 110.128906 39.378906 C 112.796875 37.609375 116.796875 37.023438 119.609375 38.777344 C 125.246094 42.289062 120.152344 48.605469 114.617188 46.75 C 113.714844 46.453125 111.960938 45.351562 111.957031 44.300781 C 111.957031 43.339844 112.769531 44.519531 113.058594 44.757812 C 115.175781 46.453125 119.660156 45.9375 119.914062 42.851562 C 120.125 40.28125 116.992188 39.066406 114.84375 39.167969 C 110.40625 39.375 107.8125 42.777344 106.878906 46.785156 C 106.832031 46.988281 106.796875 47.679688 106.761719 47.710938 Z M 106.761719 47.710938 " fill-opacity="1" fill-rule="nonzero"/><g clip-path="url(#344c5a0db4)"><path fill="#002f35" d="M 91.574219 25.378906 C 89.878906 23.523438 90.226562 21.265625 92.015625 19.613281 C 92.40625 19.25 93.285156 18.582031 93.824219 18.730469 C 94.109375 18.808594 95.066406 19.554688 95.308594 19.796875 C 97.324219 21.792969 97.078125 24.542969 94.742188 26.148438 C 94.527344 26.292969 94.046875 26.632812 93.824219 26.683594 C 93.039062 26.867188 92.058594 25.910156 91.574219 25.378906 Z M 93.78125 20.820312 C 93.179688 20.476562 92.5625 22.144531 92.519531 22.570312 C 92.457031 23.21875 92.703125 24.023438 93.113281 24.53125 C 93.535156 25.054688 93.6875 24.960938 94.058594 24.464844 C 94.539062 23.824219 94.75 23.046875 94.578125 22.25 C 94.535156 22.054688 93.902344 20.886719 93.78125 20.816406 Z M 93.78125 20.820312 " fill-opacity="1" fill-rule="nonzero"/></g><path fill="#002f35" d="M 84.445312 47.710938 C 84.300781 47.667969 83.480469 46.800781 83.359375 46.605469 C 82.6875 45.523438 82.585938 44.429688 83.058594 43.238281 C 84.230469 40.265625 89.332031 39.476562 91.695312 41.398438 C 92.21875 41.828125 92.921875 42.75 92.691406 43.46875 C 92.484375 44.113281 91.953125 42.882812 91.832031 42.71875 C 89.230469 39.222656 80.914062 43.152344 85.558594 47.152344 L 86.589844 47.710938 C 86.03125 47.609375 84.929688 47.847656 84.445312 47.710938 Z M 84.445312 47.710938 " fill-opacity="1" fill-rule="nonzero"/><path fill="#002f35" d="M 100.554688 47.710938 L 101.644531 47.113281 C 103.9375 45.300781 102.859375 42.460938 100.28125 41.667969 C 98.738281 41.191406 95.953125 41.34375 95.109375 42.96875 C 94.96875 43.238281 94.984375 43.875 94.566406 43.535156 C 94 43.074219 94.945312 41.832031 95.347656 41.484375 C 97.636719 39.492188 102.664062 40.203125 104 43.054688 C 104.515625 44.160156 104.425781 45.699219 103.699219 46.707031 C 103.609375 46.828125 102.769531 47.714844 102.699219 47.714844 L 100.554688 47.714844 Z M 100.554688 47.710938 " fill-opacity="1" fill-rule="nonzero"/><path fill="#002f35" d="M 93.503906 29.628906 C 93.90625 29.570312 95.175781 31.050781 95.394531 31.441406 C 96.226562 32.933594 96.046875 34.710938 94.652344 35.785156 C 93.734375 36.488281 93.410156 36.480469 92.492188 35.785156 C 90.953125 34.617188 90.925781 32.707031 91.9375 31.171875 C 92.140625 30.867188 93.207031 29.671875 93.503906 29.628906 Z M 93.496094 31.355469 C 93.285156 31.410156 92.769531 32.367188 92.722656 32.59375 C 92.597656 33.207031 92.683594 34.726562 93.34375 35.027344 C 94.230469 35.429688 94.484375 33.605469 94.441406 33.027344 C 94.410156 32.648438 93.957031 31.234375 93.496094 31.355469 Z M 93.496094 31.355469 " fill-opacity="1" fill-rule="nonzero"/><path fill="#002f35" d="M 93.414062 44 L 93.734375 44 C 94.480469 44.429688 95.40625 44.578125 96.160156 44.949219 C 96.765625 45.25 97.597656 45.980469 96.402344 46.074219 C 95.203125 46.167969 94.460938 45.4375 93.570312 44.796875 C 92.972656 45.1875 92.5 45.71875 91.789062 45.933594 C 91.386719 46.054688 89.964844 46.304688 90.164062 45.59375 C 90.351562 44.921875 92.816406 44.402344 93.414062 44 Z M 93.414062 44 " fill-opacity="1" fill-rule="nonzero"/><path fill="#002f35" d="M 56.097656 47.710938 L 57.378906 47.03125 C 59.273438 46.40625 61.242188 46.417969 63.039062 47.300781 C 63.234375 47.398438 63.554688 47.53125 63.675781 47.710938 Z M 56.097656 47.710938 " fill-opacity="1" fill-rule="nonzero"/><path fill="#002f35" d="M 123.378906 47.710938 L 124.65625 47.03125 C 126.46875 46.390625 128.523438 46.453125 130.257812 47.269531 L 131.042969 47.710938 Z M 123.378906 47.710938 " fill-opacity="1" fill-rule="nonzero"/><path fill="#002f35" d="M 90.789062 47.710938 C 91.265625 47.289062 91.863281 47.03125 92.382812 46.617188 C 92.6875 46.375 93.300781 45.578125 93.664062 45.617188 C 93.785156 45.628906 94.929688 46.867188 95.230469 46.96875 L 96.628906 47.710938 L 95.03125 47.710938 C 94.859375 47.710938 93.835938 46.636719 93.570312 46.527344 C 93.414062 46.527344 92.296875 47.710938 92.109375 47.710938 L 90.785156 47.710938 Z M 90.789062 47.710938 " fill-opacity="1" fill-rule="nonzero"/><path fill="#002f35" d="M 93.792969 33.078125 C 93.84375 33.253906 93.949219 33.777344 93.789062 33.878906 C 93.183594 34.257812 92.9375 32.925781 93.792969 33.078125 Z M 93.792969 33.078125 " fill-opacity="1" fill-rule="nonzero"/><path fill="#002f35" d="M 106.761719 139.277344 C 107.128906 142.144531 108.492188 145.167969 111.085938 146.660156 C 113.085938 147.8125 115.8125 148.261719 117.945312 147.1875 C 120.207031 146.046875 120.699219 143.25 118.386719 141.839844 C 116.6875 140.800781 114.441406 141.175781 112.929688 142.371094 C 112.730469 142.53125 111.96875 143.507812 111.964844 142.695312 C 111.957031 141.570312 113.800781 140.484375 114.757812 140.195312 C 120.035156 138.582031 125.128906 144.398438 119.9375 147.992188 C 117.484375 149.6875 114.273438 149.554688 111.621094 148.394531 C 107.84375 146.742188 106.175781 143.234375 105.851562 139.277344 L 106.765625 139.277344 Z M 106.761719 139.277344 " fill-opacity="1" fill-rule="nonzero"/><path fill="#002f35" d="M 81.292969 139.277344 C 80.96875 143.621094 78.96875 147.28125 74.679688 148.738281 C 71.667969 149.757812 66.992188 149.292969 65.464844 146.085938 C 63.070312 141.0625 71.609375 137.652344 74.722656 141.6875 C 74.890625 141.90625 75.515625 143 75.039062 143.097656 C 74.898438 143.128906 74.144531 142.269531 73.929688 142.113281 C 71.5625 140.386719 66.757812 141.410156 67.257812 144.757812 C 67.664062 147.488281 71.324219 148.105469 73.570312 147.632812 C 77.660156 146.769531 79.890625 143.207031 80.378906 139.277344 Z M 81.292969 139.277344 " fill-opacity="1" fill-rule="nonzero"/><path fill="#002f35" d="M 102.746094 139.277344 C 103.785156 140.140625 104.589844 141.441406 104.367188 142.847656 C 103.78125 146.527344 98.085938 147.734375 95.449219 145.589844 C 94.925781 145.164062 94.226562 144.238281 94.453125 143.519531 C 94.660156 142.878906 95.191406 144.105469 95.316406 144.269531 C 96.851562 146.339844 101.4375 145.839844 102.601562 143.539062 C 103.554688 141.65625 102.355469 140.261719 100.828125 139.277344 Z M 102.746094 139.277344 " fill-opacity="1" fill-rule="nonzero"/><path fill="#002f35" d="M 86.589844 139.277344 C 83.328125 140.507812 83.558594 144.316406 86.863281 145.324219 C 88.402344 145.796875 91.195312 145.648438 92.039062 144.023438 C 92.179688 143.75 92.160156 143.113281 92.578125 143.453125 C 93.144531 143.914062 92.199219 145.15625 91.796875 145.507812 C 89.507812 147.5 84.480469 146.785156 83.148438 143.933594 C 82.335938 142.199219 83.007812 140.453125 84.398438 139.277344 Z M 86.589844 139.277344 " fill-opacity="1" fill-rule="nonzero"/><path fill="#002f35" d="M 63.765625 139.277344 C 61.511719 140.785156 58.355469 140.753906 56.097656 139.277344 Z M 63.765625 139.277344 " fill-opacity="1" fill-rule="nonzero"/><path fill="#002f35" d="M 131.042969 139.277344 C 128.855469 140.714844 125.621094 140.84375 123.46875 139.277344 Z M 131.042969 139.277344 " fill-opacity="1" fill-rule="nonzero"/><path fill="#002f35" d="M 92.15625 139.277344 C 92.328125 139.476562 93.441406 140.546875 93.554688 140.539062 L 95.078125 139.277344 L 96.628906 139.277344 C 95.929688 139.558594 95.296875 139.945312 94.710938 140.414062 C 94.414062 140.652344 93.84375 141.410156 93.480469 141.375 C 93.410156 141.367188 92.5625 140.515625 92.382812 140.375 C 91.863281 139.957031 91.273438 139.710938 90.785156 139.277344 Z M 92.15625 139.277344 " fill-opacity="1" fill-rule="nonzero"/><path fill="#002f35" d="M 100.007812 152.28125 C 100.035156 152.753906 99.410156 152.875 99.089844 153.140625 C 97.21875 154.6875 97.273438 156.859375 99.515625 157.992188 C 103.050781 159.785156 107.933594 156.789062 105.578125 152.773438 C 103.71875 149.609375 98.621094 148.523438 95.210938 148.1875 C 91.136719 147.789062 82.832031 149.097656 81.226562 153.53125 C 79.644531 157.886719 85.898438 160.121094 88.691406 157.238281 C 90.03125 155.851562 89.351562 154.226562 88.050781 153.140625 C 87.714844 152.863281 87.113281 152.730469 87.136719 152.277344 C 89.242188 152.234375 91.53125 154.40625 91.039062 156.570312 C 89.839844 161.816406 79.289062 161.199219 79.101562 155.328125 C 78.96875 151.171875 83.734375 148.871094 87.207031 148.117188 C 92.691406 146.929688 104.300781 146.992188 107.386719 152.703125 C 111.082031 159.539062 99.058594 163.015625 96.382812 157.296875 C 95.222656 154.824219 97.527344 152.324219 100.007812 152.277344 Z M 100.007812 152.28125 " fill-opacity="1" fill-rule="nonzero"/><g clip-path="url(#e3df335cd5)"><path fill="#002f35" d="M 93.324219 160.304688 C 94.179688 160.101562 95.632812 161.480469 96.066406 162.160156 C 97.238281 164.027344 96.574219 166.203125 94.941406 167.550781 C 94.714844 167.738281 93.914062 168.265625 93.664062 168.289062 C 93.320312 168.320312 93.078125 168.128906 92.804688 167.953125 C 90.808594 166.707031 89.667969 164.226562 91.117188 162.109375 C 91.484375 161.570312 92.691406 160.453125 93.324219 160.304688 Z M 93.363281 166.171875 C 93.949219 166.507812 94.578125 164.863281 94.621094 164.417969 C 94.6875 163.769531 94.441406 162.964844 94.035156 162.460938 C 93.625 161.953125 93.457031 162.03125 93.089844 162.527344 C 92.609375 163.167969 92.394531 163.941406 92.570312 164.738281 C 92.609375 164.9375 93.242188 166.101562 93.363281 166.171875 Z M 93.363281 166.171875 " fill-opacity="1" fill-rule="nonzero"/></g><path fill="#002f35" d="M 93.414062 150.664062 C 93.90625 150.550781 94.953125 151.390625 95.257812 151.78125 C 96.640625 153.546875 95.589844 155.921875 93.984375 157.144531 C 93.5625 157.464844 93.515625 157.40625 93.117188 157.09375 C 91.300781 155.679688 90.359375 152.960938 92.386719 151.28125 C 92.566406 151.132812 93.214844 150.710938 93.414062 150.664062 Z M 93.410156 151.929688 C 92.664062 152.148438 92.628906 153.886719 92.800781 154.5 C 92.90625 154.878906 93.335938 155.886719 93.792969 155.5 C 94.410156 154.976562 94.53125 153.800781 94.441406 153.046875 C 94.386719 152.621094 93.921875 151.78125 93.410156 151.929688 Z M 93.410156 151.929688 " fill-opacity="1" fill-rule="nonzero"/><path fill="#002f35" d="M 90.582031 140.9375 C 91.792969 140.714844 92.679688 141.542969 93.570312 142.191406 C 94.1875 141.78125 94.679688 141.234375 95.425781 141.03125 C 96.917969 140.625 97.746094 141.285156 96.101562 142.070312 C 95.839844 142.191406 93.707031 143.011719 93.570312 143.011719 C 93.453125 143.011719 91.621094 142.3125 91.363281 142.203125 C 90.921875 142.015625 89.332031 141.167969 90.578125 140.9375 Z M 90.582031 140.9375 " fill-opacity="1" fill-rule="nonzero"/><path fill="#002f35" d="M 93.800781 153.1875 C 93.851562 153.238281 93.863281 153.941406 93.480469 153.824219 C 93.320312 153.773438 93.296875 153.398438 93.382812 153.273438 C 93.453125 153.175781 93.765625 153.160156 93.800781 153.1875 Z M 93.800781 153.1875 " fill-opacity="1" fill-rule="nonzero"/></svg>