<?xml version="1.0" encoding="utf-8"?>
<!-- Generator: Adobe Illustrator 16.0.0, SVG Export Plug-In . SVG Version: 6.00 Build 0)  -->
<!DOCTYPE svg PUBLIC "-//W3C//DTD SVG 1.1//EN" "http://www.w3.org/Graphics/SVG/1.1/DTD/svg11.dtd">
<svg version="1.1" id="Layer_1" xmlns="http://www.w3.org/2000/svg" xmlns:xlink="http://www.w3.org/1999/xlink" x="0px" y="0px"
	 width="3600px" height="3601px" viewBox="0 0 3600 3601" enable-background="new 0 0 3600 3601" xml:space="preserve">
<g>
	<defs>
		<rect id="SVGID_1_" width="3600" height="3601"/>
	</defs>
	<clipPath id="SVGID_2_">
		<use xlink:href="#SVGID_1_"  overflow="visible"/>
	</clipPath>
	<path clip-path="url(#SVGID_2_)" d="M2573.971,1190.269l1.605-76.515l49.118,0.114c36.796,0.058,52.958,2.579,64.249,10.03
		c33.013,21.607,34.445,102.879,2.293,126.836c-12.953,9.629-26.422,12.438-67.517,14.042l-51.354,2.006L2573.971,1190.269z
		 M1770.313,1293.605V1109.57l56.396,2.235c62.244,2.522,82.991,10.947,93.25,37.942c3.554,9.399,5.102,67.917,4.013,150.163
		c-2.293,174.923-3.955,177.789-102.363,177.789h-51.296V1293.605z M2660.516,2451.695c-26.192-7.909-56.11-45.68-66.828-84.424
		c-15.475-55.767-22.869-156.582-19.028-258.773c3.954-105.688,9.399-140.133,28.256-178.018
		c30.319-61.04,110.674-74.336,156.468-25.791c35.248,37.368,51.812,142.884,45.908,292.302
		c-7.394,187.704-31.809,248.285-103.682,257.341C2689.058,2455.937,2670.546,2454.732,2660.516,2451.695z M2565.832,1562.523
		c4.814-4.814,6.878-37.254,6.878-109.241V1350.92l21.321,1.776c21.264,1.777,21.32,1.892,70.209,93.823
		c70.439,132.683,61.785,122.882,108.726,122.882c46.539,0,57.658-3.324,57.658-17.252c0-5.616-24.474-52.442-54.392-103.968
		c-29.86-51.525-54.391-96.402-54.448-99.727c0-3.324,11.463-11.635,25.62-18.512c51.524-25.046,75.539-81.042,70.381-164.205
		c-4.471-71.299-30.72-112.507-84.652-132.912c-36.968-13.984-246.222-19.028-256.883-6.19c-5.559,6.648-6.763,67.574-5.502,268.517
		c0.918,142.941,3.726,263.129,6.305,267.084C2483.128,1571.694,2556.433,1571.923,2565.832,1562.523z M2405.354,1564.529
		c5.215-3.324,6.935-16.563,5.73-44.361l-1.719-39.604l-104.599-1.548l-104.599-1.604v-71.471v-71.528h80.642
		c44.59,0,85.569-2.636,91.702-5.96c8.654-4.643,11.063-12.093,11.063-34.732c0-51.354,0.63-51.009-97.664-51.009h-85.742v-65.797
		v-65.739l101.732-1.605l101.733-1.547l1.72-39.604c1.203-27.797-0.516-41.037-5.732-44.361
		c-8.539-5.387-279.75-6.706-293.563-1.375c-8.082,3.095-9.056,32.096-9.056,268.23c0,198.249,1.72,266.453,6.878,271.611
		C2111.904,1570.548,2392.916,1572.382,2405.354,1564.529z M1925.806,1555.359c33.7-12.093,70.496-43.444,86.831-73.992
		c12.322-22.926,12.724-29.288,12.724-189.939c-0.058-187.933-0.803-191.831-43.502-228.34
		c-40.063-34.331-63.103-39.546-187.302-42.47c-85.054-2.063-112.507-0.974-119.385,4.757c-7.909,6.592-8.712,37.713-7.05,270.179
		c1.605,225.76,3.095,263.645,10.488,268.631C1692.996,1573.986,1893.882,1566.822,1925.806,1555.359z M1310.997,1561.778
		c4.242-5.101,6.878-61.326,7.852-167.644l1.548-160.021l22.008,42.986c86.659,169.42,150.909,282.616,163.173,287.258
		c18.111,6.878,62.415,6.362,75.999-0.917c10.66-5.731,11.062-14.729,11.062-268.631c0-219.112-1.318-263.875-8.082-269.491
		c-4.929-4.069-23.327-6.019-47.284-4.986l-39.203,1.719l-4.241,97.434c-2.35,53.589-2.694,127.753-0.803,164.778
		c1.892,37.024,2.063,67.344,0.459,67.344c-1.662,0-27.511-47.055-57.372-104.598c-29.86-57.543-69.694-131.708-88.493-164.778
		l-34.216-60.18l-42.241-1.719c-34.789-1.376-43.501,0.057-49.519,8.253c-10.259,14.042-10.661,523.68-0.401,533.938
		C1230.929,1572.21,1302.858,1571.579,1310.997,1561.778z M1047.123,1561.263c35.821-12.781,56.167-29.116,74.107-59.606
		l15.762-26.823v-226.391v-226.391h-48.717h-48.717l-2.865,212.062c-1.548,116.635-5.101,216.647-7.852,222.322
		c-17.481,35.822-115.832,35.822-133.313,0c-2.751-5.674-6.305-105.687-7.852-222.322l-2.866-212.062h-48.717h-48.717
		l-1.777,206.331c-1.146,136.351,0.401,216.361,4.642,236.02c11.979,55.652,51.182,91.359,115.374,104.942
		C939.372,1576.508,1016.688,1572.038,1047.123,1561.263z M1023.796,2563.802c0.917-7.337-24.474-44.591-70.382-103.165
		c-74.279-94.855-140.248-183.291-140.248-188.049c0-1.489,17.997-7.106,40.005-12.494c44.59-10.947,95.141-38.802,127.582-70.324
		c19.2-18.627,44.304-62.129,61.097-105.916c5.674-14.787,7.852-15.59,37.885-14.329c23.212,1.032,33.356-0.974,37.312-7.222
		c7.049-11.119,7.049-74.795,0.057-85.856c-3.267-5.216-18.054-9.687-37.598-11.463l-32.21-2.98l-9.744-28.657
		c-5.388-15.761-16.793-38.973-25.447-51.582l-15.704-22.926l58.805-2.866l58.861-2.865v-51.583v-51.583l-234.988-2.866
		c-135.72-1.662-238.083-0.688-242.381,2.292c-5.273,3.725-6.877,19.257-5.731,54.449l1.662,49.29l80.24,3.438
		c65.969,2.809,85.627,5.731,110.502,16.507c31.122,13.526,77.316,58.06,83.105,80.183c2.98,11.463,0.859,11.635-125.747,11.635
		c-77.833,0-133.198,2.35-139.904,5.96c-9.17,4.872-11.062,12.208-11.062,42.47c0,59.264-11.405,54.735,138.185,54.735
		c72.159,0,131.192,2.178,131.192,4.872c0,2.693-7.565,15.36-16.85,28.141c-11.578,15.934-28.944,29.173-55.308,42.184
		c-36.051,17.768-42.814,19.028-110.674,21.206c-39.718,1.261-75.425,4.929-79.38,8.139c-4.356,3.496-7.165,19.831-7.165,41.495
		c0,42.643-1.031,40.923,104.942,174.923c41.151,52.042,87.633,111.304,103.28,131.823c45.908,59.95,41.61,57.887,117.895,56.053
		C1017.434,2575.379,1022.478,2574.404,1023.796,2563.802z M2744.652,2583.518c113.884-18.34,178.878-91.817,209.885-237.51
		c5.158-24.072,9.857-88.207,11.807-160.479c2.637-97.835,1.433-132.167-6.591-183.348
		c-20.748-132.224-65.854-202.835-156.755-245.305c-32.727-15.36-45.507-17.939-98.58-20.117
		c-67.401-2.809-109.184,5.731-152.513,31.121c-33.414,19.602-74.909,65.739-91.358,101.676
		c-35.02,76.514-51.984,200.255-46.425,338.898c9.571,238.886,76.171,350.075,224.499,375.007
		C2679.544,2590.281,2702.298,2590.338,2744.652,2583.518z M2131.678,2581.455c110.731-19.717,182.259-94.913,203.408-213.726
		c10.029-56.167,10.029-90.326,0.057-146.15c-15.646-87.862-58.632-149.304-128.498-183.692
		c-35.993-17.709-40.865-18.569-104.025-18.569c-62.701,0-68.146,0.974-102.478,17.939l-36.222,17.997l4.068-54.679
		c2.293-30.032,5.847-66.484,7.91-80.984l3.725-26.364l157.557-2.866l157.557-2.865v-68.777v-68.777l-221.978-1.49l-221.978-1.49
		l-2.637,12.953c-5.559,27.396-32.611,445.732-29.173,451.292c2.063,3.382,28.715,5.846,62.874,5.846h59.263l28.6-28.026
		c33.931-33.185,59.435-42.871,104.483-39.661c43.674,3.209,73.993,22.926,92.334,60.122c11.863,24.072,13.583,35.707,13.411,90.671
		c-0.172,55.996-1.834,66.256-14.729,91.703c-8.941,17.596-24.015,35.305-39.031,45.852c-21.665,15.245-29.059,17.193-65.911,17.193
		c-35.649,0-44.819-2.234-65.28-15.761c-25.678-17.022-38.803-37.427-45.852-71.471l-4.528-21.665l-69.121-1.605
		c-85.111-1.948-87.002-0.744-76.743,51.813C1826.193,2537.15,1960.652,2612.003,2131.678,2581.455z M1545.984,2574.462
		c119.099-31.007,184.094-125.288,177.158-257.169c-4.069-77.832-30.777-126.606-90.098-164.319
		c-13.984-8.884-22.639-16.162-19.2-16.162c13.755,0,63.733-52.386,75.024-78.692c35.42-82.304,12.494-197.219-51.182-256.824
		c-52.328-48.89-115.717-68.777-205.528-64.422c-81.73,3.955-136.58,31.58-178.247,89.754
		c-37.312,52.099-59.492,148.73-36.223,157.672c4.986,1.948,35.878,3.496,68.604,3.496c52.959,0,60.123-1.204,65.396-11.063
		c3.268-6.132,5.961-15.646,5.961-21.148c0-19.143,24.588-60.695,42.355-71.471c26.651-16.277,87.175-15.188,112.679,1.949
		c29.574,19.944,42.011,45.966,41.61,87.174c-0.745,77.833-45.966,111.992-148.214,111.992c-20.347,0-37.254,1.949-37.598,4.299
		c-2.694,18.226-4.356,98.408-2.235,108.037c2.407,11.004,7.68,12.38,60.581,15.245c73.133,4.069,104.025,17.882,123.856,55.423
		c16.163,30.605,18.455,93.823,4.471,123.283c-28.084,59.148-103.223,83.678-163.288,53.359
		c-31.695-15.99-48.889-41.209-56.971-83.449c-9.973-51.755-6.763-49.807-83.277-49.807c-83.048,0-82.704-0.344-73.018,65.797
		c14.271,98.064,59.607,155.837,148.214,189.022C1389.23,2589.766,1475.145,2592.917,1545.984,2574.462z M1723.602,3369.867
		c-17.825-5.846-60.409-25.791-94.568-44.189c-107.292-57.887-135.376-70.381-191.258-85.283
		c-66.886-17.768-140.247-25.848-237.739-26.078c-119.901-0.285-179.966-20.461-237.796-79.896
		c-17.366-17.882-42.929-53.015-56.798-78.062c-72.216-130.332-121.621-194.065-185.984-239.917
		c-19.372-13.813-75.253-44.591-124.085-68.433c-96.575-47.113-135.434-76.057-165.982-123.685
		c-39.146-60.982-41.839-74.623-46.424-235.332c-5.846-206.789-21.035-268.517-96.747-393.69
		c-87.519-144.604-91.989-240.146-16.85-363.143c92.046-150.793,113.883-236.535,113.94-447.681
		c0-88.607,1.834-112.909,10.775-141.681c26.479-84.882,74.681-132.854,188.85-187.761c93.824-45.106,128.785-67.688,180.654-116.52
		c48.603-45.851,80.641-90.27,125.289-173.604c42.47-79.38,63.39-105.573,108.267-135.548
		c59.893-40.005,92.276-46.998,243.012-52.442c183.749-6.648,231.721-19.315,381.139-100.529
		c90.843-49.347,136.178-62.53,197.963-57.486c53.417,4.298,75.139,12.609,174.063,66.427
		c46.023,24.989,102.994,51.869,126.607,59.721c62.759,20.748,152.111,32.21,252.927,32.325
		c53.646,0.057,103.051,3.267,126.264,8.196c93.135,19.716,151.939,68.204,205.414,169.421
		c43.673,82.647,67.172,117.723,108.037,161.454c46.711,49.921,100.987,86.487,201.459,135.605
		c92.963,45.45,128.67,72.789,161.453,123.512c36.108,55.824,39.261,73.764,44.705,252.813
		c4.07,134.001,6.878,168.045,16.965,206.331c13.813,52.5,41.037,112.622,77.547,171.369c13.928,22.353,33.873,58.747,44.304,80.813
		c18.111,38.229,18.972,43.215,18.799,106.031c-0.172,77.488-5.101,92.849-62.815,194.868
		c-77.948,137.668-87.348,175.381-94.684,380.508c-5.846,163.403-9.801,185.584-42.699,241.351
		c-34.273,57.944-74.394,89.753-177.902,140.992c-142.082,70.268-195.843,117.322-258.315,225.989
		c-15.532,26.996-37.312,64.88-48.315,84.138c-40.865,71.413-99.612,121.792-166.211,142.54
		c-27.512,8.54-58.289,11.177-153.315,13.068c-174.35,3.496-245.764,20.861-367.441,89.123
		c-113.94,63.963-134.229,71.586-195.671,73.42C1769.281,3380.127,1748.074,3377.949,1723.602,3369.867z M1909.758,3443.401
		c21.492-7.278,62.759-26.995,91.702-43.845c151.883-88.666,186.443-98.18,379.248-104.828
		c75.712-2.578,147.87-7.795,160.479-11.635c49.176-14.787,113.023-53.416,151.252-91.473
		c35.764-35.707,54.219-63.447,115.889-174.407c31.352-56.34,85.628-115.66,135.835-148.501
		c21.092-13.756,73.19-42.24,115.718-63.218c95.656-47.227,140.764-82.532,177.674-139.044
		c50.723-77.775,62.529-135.72,62.93-308.98c0.402-166.898,12.209-211.031,94.168-352.482
		c52.844-91.129,63.676-128.039,63.16-214.928c-0.516-81.1-10.03-111.418-63.561-202.376
		c-42.184-71.643-66.829-126.32-78.406-173.834c-12.666-51.697-23.041-171.484-18.857-216.991
		c5.331-58.06-5.043-152.742-21.549-196.645c-36.51-96.976-91.016-148.96-231.894-221.176
		c-149.532-76.571-191.314-116.978-269.95-260.722c-60.007-109.757-125.46-169.535-218.08-199.109
		c-30.434-9.744-60.81-12.781-166.497-16.736c-187.589-7.049-235.79-19.085-366.696-91.531
		c-98.81-54.735-126.148-63.676-205.471-67.229c-98.408-4.413-130.733,5.044-258.086,75.712
		c-113.94,63.218-163.345,74.566-361.595,82.819c-106.834,4.413-121.392,6.304-160.479,20.576
		c-87.347,31.867-153.717,89.066-200.026,172.401c-55.193,99.44-73.821,127.295-112.336,168.103
		c-46.023,48.717-103.223,88.321-178.877,123.798c-102.994,48.258-165.122,101.332-200.6,171.426
		c-34.962,68.892-37.197,81.673-41.839,238.313c-6.018,202.319-18.226,253.156-89.697,373.172
		c-42.756,71.757-56.798,104.197-67.516,156.066c-21.264,103.222-1.318,189.538,69.465,300.154
		c31.408,49.176,62.472,119.787,73.763,167.873c7.565,32.153,11.176,81.902,14.271,197.734
		c2.521,94.568,6.877,163.689,11.233,177.674c16.621,53.99,47.227,103.107,91.301,146.667c39.49,39.03,53.704,48.373,138.299,91.015
		c103.165,51.984,152.054,83.793,185.296,120.589c27.683,30.605,74.853,103.681,107.235,166.097
		c33.242,64.076,100.3,133.541,154.461,159.906c62.3,30.318,89.811,35.248,226.104,40.635
		c183.921,7.279,230.919,19.258,353.629,90.099c116.405,67.172,147.756,76.974,236.707,74.107
		C1854.048,3457.157,1880.871,3453.145,1909.758,3443.401z M1740.051,3598.207c-63.963-7.737-129.874-32.383-217.278-81.328
		c-133.37-74.681-143.629-77.26-334.199-84.596c-149.762-5.732-184.322-12.667-265.651-53.245
		c-92.391-46.081-151.596-109.069-221.462-235.446c-69.465-125.576-91.76-147.068-215.788-208.051
		c-41.208-20.289-90.785-47.628-110.157-60.753c-92.677-62.874-158.073-150.736-192.862-259.403
		c-11.521-35.879-13.354-57.314-17.309-203.466c-5.559-205.644-6.075-207.878-78.406-331.161
		c-71.413-121.793-90.327-187.933-86.258-302.16c3.21-90.212,15.934-133.026,69.006-232.122
		c88.149-164.721,89.41-169.593,95.772-369.676c4.012-125.977,6.648-155.666,17.08-192.002
		c34.618-120.474,103.223-209.598,215.1-279.292c15.761-9.8,61.211-33.414,100.987-52.442
		c108.209-51.697,128.327-72.789,214.126-224.213c76.858-135.605,168.905-210.572,302.217-245.992
		c55.824-14.844,79.323-17.423,213.724-23.155c63.046-2.694,128.843-8.253,146.151-12.323c17.309-4.012,80.813-32.497,141.05-63.217
		c123.283-62.988,169.363-77.833,257.283-83.105c108.496-6.477,192.061,16.22,310.242,84.194
		c110.444,63.504,143.857,71.585,318.608,76.629c161.34,4.7,235.39,23.957,326.462,84.825
		c78.692,52.671,109.757,92.046,193.492,245.304c46.94,85.972,75.884,110.674,202.949,173.204
		c115.26,56.741,158.016,87.977,210.974,153.946c40.349,50.265,64.249,101.561,87.862,188.563
		c2.178,7.909,5.961,83.965,8.54,169.077c2.522,85.112,7.737,168.962,11.577,186.271c8.713,39.26,38.4,104.599,71.872,158.302
		c61.785,99.039,83.736,170.796,84.08,274.42c0.286,103.395-24.015,180.654-90.613,287.718
		c-32.669,52.499-56.282,104.827-65.396,145.004c-3.955,17.48-9.113,101.618-11.578,189.137
		c-5.043,175.782-8.539,196.817-45.621,270.752c-55.596,111.018-124.602,171.771-290.297,255.736
		c-71.012,35.992-85.57,45.908-117.494,79.896c-24.072,25.62-47.914,60.122-70.267,101.675
		c-66.141,122.768-111.533,177.502-188.048,226.563c-100.013,64.192-160.078,79.322-328.353,82.761
		c-166.612,3.439-180.368,6.992-318.094,82.991c-39.433,21.723-85.799,44.705-103.165,51.124
		C1899.384,3595.514,1810.375,3606.689,1740.051,3598.207z"/>
</g>
</svg>
