<?xml version="1.0" encoding="utf-8"?>
<!-- Generator: Adobe Illustrator 16.0.0, SVG Export Plug-In . SVG Version: 6.00 Build 0)  -->
<!DOCTYPE svg PUBLIC "-//W3C//DTD SVG 1.1//EN" "http://www.w3.org/Graphics/SVG/1.1/DTD/svg11.dtd">
<svg version="1.1" id="Layer_1" xmlns="http://www.w3.org/2000/svg" xmlns:xlink="http://www.w3.org/1999/xlink" x="0px" y="0px"
	 width="3600px" height="3622px" viewBox="0 0 3600 3622" enable-background="new 0 0 3600 3622" xml:space="preserve">
<g>
	<defs>
		<rect id="SVGID_1_" width="3600" height="3622"/>
	</defs>
	<clipPath id="SVGID_2_">
		<use xlink:href="#SVGID_1_"  overflow="visible"/>
	</clipPath>
	<path clip-path="url(#SVGID_2_)" d="M2348.077,1647.132c-34.666-15.721-48.429-64.898-52.575-187.956
		c-6.219-185.135,15.836-250.205,84.707-250.205c68.123,0,89.947,63.286,84.88,246.462
		c-3.109,112.232-10.769,151.792-34.896,179.836C2414.414,1653.639,2375.026,1659.282,2348.077,1647.132z M2407.619,2463.623
		c-36.623-19.867-50.387-79.582-50.328-218.418c0.114-141.141,15.836-195.5,60.809-210.356c46.01-15.145,80.618,8.177,98.412,66.395
		c15.26,50.099,15.26,254.523-0.058,304.622c-14.108,46.183-35.299,66.855-68.122,66.568
		C2434.627,2472.318,2416.257,2468.345,2407.619,2463.623z M1935.484,2461.377c-37.775-29.771-57.066-152.196-45.377-288.613
		c6.853-80.445,19.118-114.363,47.737-131.811c44.974-27.41,91.617-4.435,109.296,53.898
		c15.951,52.402,15.433,254.466-0.748,314.123c-3.974,14.569-15.146,33.744-26.028,44.629c-15.894,15.893-23.322,19.06-44.802,19.06
		C1958.748,2472.663,1944.928,2468.748,1935.484,2461.377z M2964.691,1476.452v-43.188l-113.729-1.555l-113.73-1.555v42.325
		c0,23.321,1.785,44.167,3.974,46.298c2.188,2.188,53.323,3.282,113.729,2.418l109.756-1.555V1476.452z M1165.177,1729.018
		c0-3.628-13.878-22.4-30.865-41.749c-16.988-19.349-57.527-67.547-90.12-107.165l-59.254-71.98l16.7-5.643
		c37.718-12.784,85.686-41.691,101.349-61.097c9.156-11.402,22.861-35.99,30.462-54.705l13.821-34.033l34.838-1.727l34.896-1.728
		v-34.263v-34.263h-34.493h-34.436l-17.218-34.148c-9.501-18.772-19.924-35.76-23.207-37.833
		c-14.742-9.098,4.606-14.396,52.344-14.396h51.768l-1.67-38.87l-1.728-38.869h-198.666H811.032v40.309v40.309l74.86,2.994
		c83.037,3.282,112.405,13.59,131.523,45.953c20.442,34.551,20.5,34.551-99.852,34.551H808.153v34.55v34.551h109.411
		c108.431,0,109.41,0.115,109.41,12.496c0,19.463-45.492,59.37-76.587,67.201c-14.512,3.686-52.46,6.68-84.304,6.68h-57.93v34.32
		v34.32l21.594,6.162c18.427,5.24,34.781,22.17,110.85,114.939l89.256,108.892l67.662,0.403
		C1144.562,1735.467,1165.177,1733.566,1165.177,1729.018z M2456.048,1740.822c63.804-20.73,107.222-82.403,122.771-174.424
		c10.883-64.206,11.113-215.135,0.461-275.081c-20.5-114.938-74.572-170.623-176.151-181.391
		c-35.99-3.801-90.868,5.815-120.813,21.191c-39.906,20.5-68.756,61.328-89.371,126.513
		c-12.611,40.079-18.772,230.396-9.329,290.859c17.736,113.844,59.485,173.79,136.476,195.902
		C2352.223,1753.606,2422.304,1751.763,2456.048,1740.822z M2001.246,1738.461c36.509-12.841,75.78-48.659,93.344-85.167
		c28.39-58.794,33.572-154.672,11.805-218.245c-12.553-36.797-48.256-75.666-86.837-94.554
		c-25.279-12.323-40.77-15.778-73.247-16.182c-22.631-0.23-51.251,1.843-63.632,4.665l-22.399,5.125l2.994-52.862
		c1.67-29.138,4.837-54.763,7.083-56.951c2.188-2.246,53.726-5.413,114.42-6.968l110.39-2.879l1.67-47.507l1.67-47.507H1934.16
		c-90.408,0-164.231,1.958-164.116,4.319c0.115,2.36-6.91,76.126-15.605,163.885c-8.638,87.759-14.223,161.18-12.265,163.08
		c1.9,1.958,23.322,5.01,47.507,6.853c43.879,3.283,44.109,3.225,63.746-15.778c24.818-24.07,68.468-29.771,100.657-13.187
		c42.095,21.709,59.772,103.479,36.911,170.565c-13.244,38.87-35.817,55.8-74.456,55.8c-39.388,0-57.239-14.339-71.865-57.643
		l-10.653-31.613l-50.847-3.628c-29.253-2.131-53.669-1.382-57.584,1.785c-13.993,11.229,6.104,87.701,32.593,123.634
		c18.888,25.74,62.307,51.769,99.275,59.6C1892.008,1754.412,1969.113,1749.806,2001.246,1738.461z M1510.741,1747.099
		c96.454-18.312,149.662-87.24,149.662-193.887c0-68.237-7.889-90.983-43.879-126.398l-29.944-29.426l19.809-18.715
		c31.269-29.483,38.755-48.889,38.927-100.888c0.346-108.604-60.924-165.325-178.224-164.979
		c-79.984,0.23-129.623,24.243-160.257,77.566c-14.454,25.106-28.965,81.655-23.322,90.753c1.785,2.937,27.756,5.298,57.642,5.298
		c50.79,0,54.36-0.749,54.36-11.689c0-25.683,16.527-51.941,38.409-61.04c42.9-17.966,84.016,2.707,94.208,47.335
		c11.632,51.077-17.448,92.365-70.138,99.506c-17.103,2.303-34.263,6.162-38.178,8.58c-4.492,2.822-7.025,19.636-7.025,47.219
		v42.843h37.718c67.489,0,89.889,23.148,89.659,92.596c-0.23,69.216-27.411,103.134-82.634,103.191
		c-35.818,0-58.794-19.81-73.536-63.401l-10.71-31.614l-50.271-1.67c-27.641-0.921-52.689,0.749-55.626,3.686
		c-7.543,7.543,5.528,66.913,21.709,98.757C1325.837,1732.933,1410.832,1766.044,1510.741,1747.099z M1199.728,2558.81
		c0-5.585-23.667-34.378-136.763-166.534c-22.977-26.834-41.749-50.502-41.749-52.632c0-2.073,12.323-6.91,27.353-10.653
		c57.815-14.396,107.107-56.721,124.958-107.395c16.066-45.55,15.836-45.319,51.538-47.22l32.823-1.728l-1.728-32.823l-1.728-32.823
		l-34.551-1.785l-34.551-1.728l-17.621-37.257c-9.674-20.5-16.354-38.467-14.857-40.021c1.497-1.497,25.625-2.707,53.611-2.707
		h50.847v-40.309v-40.31h-207.304H842.704v40.194c0,47.968-5.586,45.204,96.051,47.507c60.636,1.325,72.326,3.168,86.376,13.591
		c16.297,12.092,42.152,45.837,42.152,55.051c0,2.706-47.277,4.951-105.092,5.01c-57.815,0-108.489,2.188-112.635,4.837
		c-5.067,3.225-6.968,14.914-5.758,35.875l1.785,31.153l110.85,1.555c121.619,1.728,120.122,1.209,102.098,36.105
		c-16.124,31.153-47.68,41.748-135.208,45.434l-77.739,3.283v37.43v37.43l18.542,1.785c16.354,1.612,29.541,15.087,111.195,113.729
		l92.596,111.944h65.934C1175.772,2564.799,1199.728,2562.61,1199.728,2558.81z M2537.703,2551.094
		c78.545-38.467,109.18-122.367,109.353-300.131c0.173-142.694-15.663-208.801-62.537-260.973
		c-38.408-42.67-72.384-55.8-143.846-55.568c-50.962,0.172-61.385,2.015-90.407,16.123c-50.732,24.646-81.54,69.332-100.945,146.322
		c-14.109,56.26-13.821,233.102,0.518,300.937c26.201,123.864,86.895,174.251,205.691,170.738
		C2496.012,2567.39,2510.868,2564.223,2537.703,2551.094z M2066.086,2550.806c71.692-35.069,105.207-107.28,115.111-248.017
		c4.664-65.703-5.471-182.601-19.867-229.129c-27.813-90.119-80.733-133.941-169.759-140.679
		c-74.514-5.644-140.506,23.667-174.25,77.336c-34.148,54.245-47.22,120.813-47.393,241.337
		c-0.23,160.43,35.069,260.915,104.056,296.156c34.665,17.679,61.673,22.516,113.326,20.271
		C2024.279,2566.526,2041.843,2562.668,2066.086,2550.806z M1603.106,2552.418c65.416-30.117,96.454-74.054,108.72-154.039
		c16.872-109.928-22.285-203.561-99.045-236.96c-40.021-17.391-112.866-19.175-141.715-3.513l-19.406,10.596l3.973-50.904
		c6.104-78.604-5.528-71.06,109.698-71.06c54.936,0,103.998-1.555,109.008-3.513c7.313-2.764,9.098-13.071,9.098-51.826v-48.313
		h-160.833H1361.77l-3.225,30.232c-22.861,213.696-31.038,300.879-28.62,304.794c1.612,2.592,26.374,4.723,55.108,4.723
		c49.522,0,53.093-0.864,71.52-16.988c43.246-37.947,104.285-25.682,125.592,25.28c20.96,50.214,15.26,126.397-11.862,158.646
		c-19.349,22.976-52.517,32.823-81.54,24.128c-29.08-8.753-47.334-29.253-55.857-62.768l-6.968-27.525l-55.511-1.67l-55.511-1.612
		v25.106c0,67.259,48.428,131.408,115.745,153.348C1483.158,2575.625,1558.479,2572.976,1603.106,2552.418z M1720.867,3408.872
		c-80.791-18.772-118.394-36.451-261.836-123.058c-55.339-33.457-126.917-73.19-159.048-88.336
		c-81.079-38.235-196.478-75.377-300.706-96.741c-148.568-30.405-225.041-65.301-301.627-137.569
		c-91.905-86.664-130.256-165.44-169.011-346.543c-35.299-165.211-89.544-294.833-201.315-480.831
		c-100.485-167.282-120.467-221.758-120.294-328.231c0.173-100.83,23.61-166.477,106.877-299.439
		c128.068-204.482,172.926-314.872,226.768-558.454c37.603-169.874,106.071-274.275,230.914-352.129
		c52.747-32.881,114.19-54.302,212.199-73.938c187.265-37.603,307.501-87.068,516.648-212.43
		c144.71-86.779,222.391-112.29,320.976-105.495c93.402,6.45,166.995,35.645,299.67,118.739
		c82.23,51.539,220.376,119.488,296.56,145.862c31.672,10.999,87.355,27.007,123.807,35.645s93.402,22.112,126.687,29.944
		c116.436,27.468,229.014,95.533,288.268,174.423c58.046,77.221,80.157,132.848,112.117,282.51
		c38.87,182.024,99.621,329.095,204.598,495.169c91.56,144.825,120.64,221.239,120.524,316.196
		c-0.23,105.726-27.295,176.267-134.172,348.904c-93.172,150.584-144.25,278.421-190.26,476.339
		c-14.396,61.961-32.822,129.047-41,149.144c-45.031,110.851-134.229,208.744-237.133,260.454
		c-51.711,25.914-87.932,37.431-185.824,58.852c-112.924,24.704-224.119,60.176-299.9,95.706
		c-30.06,14.108-103.191,54.763-162.446,90.292c-121.157,72.672-173.099,98.24-235.29,115.918
		C1852.62,3415.436,1766.992,3419.582,1720.867,3408.872z M1859.876,3485.689c94.035-13.071,164.749-42.9,307.903-129.795
		c99.104-60.119,224.177-121.273,297.137-145.229c29.195-9.559,95.244-26.893,146.841-38.467
		c160.948-36.162,215.653-59.023,307.328-128.413c64.782-49.12,118.278-114.708,157.032-192.793
		c29.369-59.14,45.031-109.986,73.133-237.248c19.117-86.896,42.094-159.048,75.608-237.823
		c29.425-69.044,35.011-79.467,106.128-196.997c104.17-172.063,133.77-255.444,133.941-377.121
		c0.115-116.09-22.572-178.397-129.449-355.181c-38.64-63.861-83.095-143.501-98.873-176.957
		c-38.006-80.503-73.766-191.008-96.166-297.079c-32.593-154.269-64.898-231.086-133.25-317.118
		c-44.801-56.375-107.914-105.667-181.046-141.37c-48.486-23.667-82.691-34.781-185.077-59.888
		c-223.313-54.878-314.526-92.769-501.618-208.456c-133.192-82.346-220.49-111.426-335.314-111.772
		c-128.759-0.403-193.771,21.422-345.276,115.63c-134.575,83.67-292.011,154.557-403.091,181.506
		c-33.284,8.062-98.009,23.552-143.961,34.493C773.602,498.552,680.546,553.2,601.021,648.042
		c-69.792,83.267-96.339,145.286-144.422,337.33c-48.141,192.678-96.569,307.847-197.918,470.926
		c-76.875,123.692-104.631,188.244-118.797,275.888c-8.695,53.784-4.261,152.714,9.156,204.943
		c13.475,52.747,54.82,136.59,123.288,250.492c65.877,109.526,104.228,185.998,135.151,269.323
		c19.809,53.266,26.028,76.99,63.918,242.891c18.024,79.063,37.718,130.602,71.405,187.322
		c84.937,142.982,205.461,229.59,374.702,269.266c207.649,48.717,261.03,65.934,371.478,119.775
		c34.838,16.93,99.16,53.093,142.867,80.215c134.805,83.613,202.006,113.154,289.016,127.031
		C1780.294,3492.888,1805.056,3493.291,1859.876,3485.689z M1711.999,3618.422c-101.752-14.224-196.939-54.188-356.909-149.777
		c-168.953-100.945-247.786-133.309-405.855-166.477c-147.071-30.924-220.664-59.485-314.181-122.08
		c-92.365-61.787-172.408-152.656-225.386-255.904c-36.566-71.232-52.978-119.776-85.225-252.854
		c-44.513-183.406-73.305-252.969-172.639-417.488C32.317,2056.097-0.736,1958.261,0.012,1804.684
		c0.691-144.077,33.514-238.746,148.741-428.602c99.679-164.289,130.832-239.955,180.412-438.045
		c49.983-199.703,89.947-288.729,173.905-386.795c103.595-121.1,226.134-185.825,446.165-235.75
		c161.582-36.682,265.752-80.446,452.038-189.914c111.369-65.416,164.634-89.889,240.876-110.389
		c50.271-13.533,65.761-15.03,159.336-15.03c93.978,0,108.949,1.44,160.315,15.26c68.525,18.427,147.243,55.339,254.522,119.315
		c164.75,98.239,274.391,143.558,437.412,180.988c160.027,36.681,224.407,61.5,313.489,120.813
		c60.521,40.309,138.606,116.896,177.361,173.905c57.412,84.534,92.768,174.827,125.073,318.961
		c40.597,181.333,78.66,275.081,178.569,440.118c114.881,189.741,145.459,272.72,151.044,409.253
		c6.45,158.933-28.85,267.537-155.478,477.951c-93.921,156.111-123.576,229.014-165.498,406.835
		c-34.379,145.803-44.283,176.323-80.906,249.974c-51.193,102.903-130.256,194.808-225.328,261.894
		c-85.283,60.234-174.77,95.13-324.086,126.456c-153.06,32.132-240.069,68.181-416.623,172.696
		c-145.574,86.146-204.828,112.922-294.545,133.02C1879.34,3620.438,1765.553,3625.965,1711.999,3618.422z"/>
</g>
</svg>
