<?xml version="1.0" encoding="UTF-8"?>
<svg id="Layer_1" data-name="Layer 1" xmlns="http://www.w3.org/2000/svg" xmlns:xlink="http://www.w3.org/1999/xlink" viewBox="0 0 164.04 40.77">
  <defs>
    <style>
      .cls-1 {
        fill: url(#linear-gradient-2);
      }

      .cls-2 {
        fill: #fff;
      }

      .cls-3 {
        fill: url(#linear-gradient-4);
      }

      .cls-4 {
        fill: url(#linear-gradient-3);
      }

      .cls-5 {
        fill: url(#linear-gradient-5);
      }

      .cls-6 {
        fill: url(#linear-gradient-8);
      }

      .cls-7 {
        fill: url(#linear-gradient-7);
      }

      .cls-8 {
        fill: url(#linear-gradient-9);
      }

      .cls-9 {
        fill: url(#linear-gradient-6);
      }

      .cls-10 {
        fill: url(#linear-gradient);
      }
    </style>
    <linearGradient id="linear-gradient" x1="1.82" y1="20.39" x2="38.91" y2="20.39" gradientUnits="userSpaceOnUse">
      <stop offset="0" stop-color="#ed1459"/>
      <stop offset="1" stop-color="#9a1b46"/>
    </linearGradient>
    <linearGradient id="linear-gradient-2" x1="47.89" y1="17.79" x2="159.29" y2="44.18" xlink:href="#linear-gradient"/>
    <linearGradient id="linear-gradient-3" x1="47.79" y1="18.22" x2="159.19" y2="44.62" xlink:href="#linear-gradient"/>
    <linearGradient id="linear-gradient-4" x1="48.63" y1="14.69" x2="160.03" y2="41.08" xlink:href="#linear-gradient"/>
    <linearGradient id="linear-gradient-5" x1="50.17" y1="8.15" x2="161.57" y2="34.54" xlink:href="#linear-gradient"/>
    <linearGradient id="linear-gradient-6" x1="49.76" y1="9.9" x2="161.16" y2="36.29" xlink:href="#linear-gradient"/>
    <linearGradient id="linear-gradient-7" x1="48.83" y1="13.82" x2="160.23" y2="40.21" xlink:href="#linear-gradient"/>
    <linearGradient id="linear-gradient-8" x1="51.01" y1="4.61" x2="162.41" y2="31" xlink:href="#linear-gradient"/>
    <linearGradient id="linear-gradient-9" x1="52.84" y1="-3.11" x2="164.24" y2="23.28" xlink:href="#linear-gradient"/>
  </defs>
  <g>
    <circle class="cls-10" cx="20.37" cy="20.39" r="18.55"/>
    <g>
      <path class="cls-2" d="M25.14,29.73c-4.46,2.6-10.72,2.23-14.07-3.51-.42-.72-.18-1.64.54-2.06.72-.42,1.64-.18,2.06.54,2.46,4.22,6.88,4.21,9.95,2.43,3.07-1.79,5.25-5.63,2.79-9.85-.42-.72-.18-1.64.54-2.06s1.64-.18,2.06.54c3.35,5.74.58,11.37-3.88,13.97Z"/>
      <path class="cls-2" d="M11.82,19.21c.67,1.15.28,2.61-.86,3.28s-2.61.28-3.28-.86c-.67-1.14-.28-2.61.86-3.28,1.15-.67,2.61-.28,3.28.86Z"/>
      <path class="cls-2" d="M23.59,14.89c-.43.25-.98.28-1.45.04-.74-.38-1.03-1.29-.64-2.03.08-.15,1.99-3.75,5.89-3.38.83.08,1.44.81,1.36,1.64-.08.83-.81,1.44-1.64,1.36-1.87-.18-2.93,1.75-2.94,1.77-.14.26-.34.47-.58.61Z"/>
    </g>
  </g>
  <g>
    <path class="cls-1" d="M60.4,28.58c0,.45.04.91.12,1.37.08.46.22.96.41,1.48l-2.41.35c-.22-.43-.38-.95-.5-1.56-.43.39-1.01.79-1.74,1.18-.73.39-1.62.59-2.68.59-.86,0-1.61-.13-2.23-.4-.63-.27-1.15-.64-1.56-1.13s-.72-1.07-.91-1.75c-.2-.68-.29-1.42-.29-2.22,0-1.31.22-2.6.66-3.85.44-1.25,1.1-2.37,1.97-3.35.87-.98,1.97-1.77,3.28-2.37,1.31-.6,2.84-.9,4.59-.9.22,0,.43.01.65.03.22.02.44.05.68.09l1.65-6.88,2.85-.47-4.15,17.21c-.1.45-.19.88-.26,1.29-.08.41-.12.84-.12,1.29ZM54.16,29.67c.82,0,1.52-.17,2.1-.51.58-.34,1.08-.74,1.52-1.19.02-.31.05-.65.1-1.01.05-.36.12-.76.22-1.19l1.77-7.35c-.18-.04-.37-.06-.59-.07-.22,0-.42-.01-.62-.01-1.12,0-2.13.22-3.03.65s-1.67,1.01-2.31,1.74c-.64.73-1.13,1.57-1.47,2.52-.34.95-.51,1.95-.51,2.98,0,.45.05.88.15,1.29s.25.78.47,1.1c.22.33.51.58.87.78s.81.29,1.34.29Z"/>
    <path class="cls-4" d="M70.6,31.99c-1,0-1.86-.14-2.59-.43-.73-.28-1.33-.68-1.82-1.18-.49-.5-.85-1.08-1.09-1.75-.24-.67-.35-1.37-.35-2.12,0-1.37.21-2.7.62-3.97.41-1.27,1-2.4,1.76-3.38.76-.98,1.7-1.76,2.79-2.34,1.1-.58,2.34-.87,3.74-.87.8,0,1.49.1,2.07.31.58.21,1.05.49,1.41.84s.63.76.81,1.22c.18.46.26.94.26,1.43,0,.92-.17,1.7-.5,2.34-.33.64-.78,1.17-1.32,1.6-.55.43-1.19.76-1.93,1-.73.24-1.5.42-2.29.56s-1.6.23-2.41.28c-.81.05-1.58.09-2.31.13-.02.16-.03.28-.03.38v.23c0,.45.05.88.16,1.28.11.4.31.76.6,1.06s.7.54,1.22.72,1.2.26,2.04.26c.37,0,.76-.03,1.16-.1.4-.07.78-.16,1.15-.26s.69-.22.97-.32c.28-.11.49-.21.6-.31l.24,2.32c-.39.22-1.03.45-1.9.69s-1.9.37-3.07.37ZM67.81,23.58c1.14-.04,2.18-.11,3.12-.22.94-.11,1.75-.29,2.44-.56.69-.27,1.22-.62,1.6-1.07.38-.45.57-1.04.57-1.76,0-.18-.03-.36-.1-.56-.07-.19-.19-.38-.35-.54-.17-.17-.4-.3-.69-.41-.29-.11-.66-.16-1.09-.16-.69,0-1.33.15-1.93.44-.6.29-1.13.68-1.6,1.16-.47.48-.87,1.04-1.21,1.68-.33.64-.59,1.31-.76,2.01Z"/>
    <path class="cls-3" d="M89.75,31.78c-.1-.22-.2-.46-.29-.72-.1-.27-.18-.55-.24-.84-.43.39-1.01.79-1.74,1.18s-1.62.59-2.68.59c-.86,0-1.6-.14-2.22-.41-.62-.28-1.12-.66-1.52-1.15-.39-.49-.68-1.07-.87-1.74-.19-.67-.28-1.4-.28-2.2,0-1.31.22-2.6.66-3.85.44-1.25,1.1-2.37,1.99-3.35.88-.98,1.99-1.77,3.32-2.38,1.33-.61,2.89-.91,4.68-.91.53,0,1.15.06,1.85.18.71.12,1.31.31,1.82.59l-2.26,9.23c-.1.45-.18.88-.25,1.29-.07.41-.1.84-.1,1.29s.04.91.12,1.37c.08.46.22.96.41,1.48l-2.41.35ZM85.37,29.67c.82,0,1.53-.18,2.12-.53.59-.35,1.1-.77,1.53-1.24.02-.33.05-.68.1-1.05.05-.36.11-.73.19-1.1l1.77-7.3c-.1-.04-.26-.07-.49-.09-.23-.02-.43-.03-.6-.03-1.12,0-2.13.22-3.03.65-.9.43-1.67,1.01-2.31,1.72-.64.72-1.13,1.55-1.47,2.5-.34.95-.51,1.95-.51,2.98,0,.41.04.83.12,1.25.08.42.22.79.43,1.12s.48.59.82.79c.34.21.79.31,1.34.31Z"/>
    <path class="cls-5" d="M99.37,24.87c-.1.43-.2.85-.29,1.26-.1.41-.15.8-.15,1.18,0,.67.16,1.2.49,1.59.32.39.93.64,1.81.73l-.62,2.24c-.8-.02-1.49-.14-2.04-.37s-1.01-.52-1.35-.9c-.34-.37-.59-.81-.75-1.32-.16-.51-.24-1.07-.24-1.68,0-.45.04-.92.12-1.41.08-.49.19-1,.32-1.53l3.71-15.41,2.85-.47-3.85,16.09Z"/>
    <path class="cls-9" d="M107.22,29.69c.41,0,.83-.04,1.25-.12.42-.08.79-.21,1.12-.38.32-.17.59-.42.79-.72s.31-.68.31-1.13c0-.29-.05-.55-.15-.78s-.26-.44-.47-.63c-.22-.19-.48-.39-.81-.57-.32-.19-.71-.4-1.16-.63-.45-.22-.86-.43-1.24-.65-.37-.22-.7-.47-.99-.76-.28-.29-.51-.64-.66-1.04s-.23-.89-.23-1.46c0-1.47.53-2.65,1.59-3.54,1.06-.89,2.6-1.34,4.62-1.34.94,0,1.77.09,2.49.28.71.19,1.21.36,1.48.51l-1.03,2.24c-.28-.16-.72-.32-1.32-.5-.61-.17-1.29-.26-2.03-.26-.37,0-.74.04-1.12.12-.37.08-.71.21-1.01.4s-.55.43-.73.73-.28.67-.28,1.1c0,.53.21.96.62,1.31.41.34,1.03.7,1.85,1.07.51.23.96.48,1.37.72.4.25.74.52,1.03.82s.5.66.65,1.07c.15.41.22.9.22,1.47,0,.82-.16,1.55-.47,2.18-.31.63-.75,1.15-1.31,1.56-.56.41-1.22.72-1.98.93-.77.21-1.6.31-2.5.31-.67,0-1.27-.05-1.81-.13-.54-.09-1.01-.19-1.41-.31-.4-.12-.73-.24-1-.37s-.47-.23-.6-.31l1.06-2.24c.14.08.33.18.57.29s.54.23.88.35.72.22,1.13.29.84.12,1.29.12Z"/>
    <path class="cls-7" d="M117.05,31.99c-.55,0-.98-.15-1.29-.44-.31-.29-.47-.73-.47-1.29,0-.71.21-1.25.63-1.63s.91-.57,1.46-.57.99.15,1.31.46c.32.3.49.75.49,1.34,0,.33-.06.63-.19.9-.13.26-.29.49-.49.68s-.42.33-.68.43c-.25.1-.51.15-.76.15Z"/>
    <path class="cls-6" d="M140.46,15.99c.86,0,1.59.13,2.19.4s1.08.62,1.44,1.07c.36.45.62.98.78,1.58.16.6.24,1.23.24,1.9,0,.43-.04.9-.1,1.4-.07.5-.16.99-.28,1.46l-1.88,7.83h-2.74l1.74-7.24c.1-.45.21-.96.34-1.52.13-.56.19-1.11.19-1.66,0-.37-.04-.73-.13-1.09-.09-.35-.24-.66-.44-.91-.21-.25-.5-.46-.87-.62-.37-.16-.83-.23-1.38-.23-.63,0-1.24.12-1.82.37-.59.24-1.08.5-1.47.75.04.28.07.54.1.81s.05.52.05.78c0,.45-.04.91-.1,1.37-.07.46-.15.92-.25,1.37l-1.88,7.83h-2.74l1.74-7.24c.1-.45.21-.96.32-1.53.12-.57.18-1.14.18-1.71,0-.37-.04-.73-.12-1.07-.08-.34-.21-.64-.4-.9-.19-.25-.44-.45-.75-.6-.31-.15-.72-.22-1.2-.22s-.97.03-1.43.09c-.46.06-.85.14-1.16.23l-3.12,12.94h-2.74l3.53-14.71c.88-.28,1.85-.5,2.9-.66,1.05-.17,1.98-.25,2.81-.25s1.52.14,2.09.43c.57.28,1.02.66,1.35,1.13.2-.14.47-.29.81-.47.34-.18.73-.34,1.18-.5.44-.16.92-.29,1.44-.41.52-.12,1.05-.18,1.6-.18Z"/>
    <path class="cls-8" d="M147.11,31.61l5.38-22.35,2.85-.47-3.3,13.62c.65-.47,1.31-.99,2-1.54.69-.56,1.34-1.11,1.96-1.66.62-.55,1.19-1.07,1.71-1.57s.95-.94,1.28-1.31h3.24c-.41.51-.94,1.08-1.57,1.71-.64.63-1.31,1.26-2.02,1.9-.71.64-1.42,1.25-2.13,1.84-.72.59-1.36,1.09-1.93,1.5.53.49,1.06,1.07,1.6,1.75.54.68,1.06,1.39,1.56,2.15.5.76.96,1.52,1.37,2.3s.76,1.5,1.03,2.16h-2.97c-.68-1.59-1.5-3.05-2.46-4.38-.95-1.33-1.96-2.42-3.01-3.27l-1.85,7.65h-2.74Z"/>
  </g>
</svg>