<?xml version="1.0" encoding="UTF-8"?>
<svg id="Layer_1" data-name="Layer 1" xmlns="http://www.w3.org/2000/svg" viewBox="0 0 48 48">
  <defs>
    <style>
      .cls-1 {
        fill: #4d4747;
      }

      .cls-2 {
        fill: #d82128;
      }
    </style>
  </defs>
  <path class="cls-2" d="M35.69,9.99v-2.94c0-.9-.8-1.64-1.79-1.64h-9.99c-.99,0-1.79.74-1.79,1.64v2.94l-5.05,5.68v26.95h23.67V15.66l-5.05-5.68ZM23.79,7.1s.07-.03.13-.03h9.99c.06,0,.1.02.13.03v2.37h-10.24v-2.37ZM27.17,40.95h-8.44v-24.65l4.22-4.74,4.22,4.74v24.65h0ZM24.81,11.13h9.68l3.57,4.01h-9.68l-3.57-4.01ZM39.08,40.95h-10.24v-24.13h10.24v24.13Z"/>
  <path class="cls-1" d="M11.02,42.97c5.14,0,6.8-5.09,6.8-7.56-.05-2.78-1.22-5.43-3.24-7.33-.93-1-2.2-1.62-3.56-1.73-1.36.11-2.63.73-3.56,1.73-2.03,1.91-3.2,4.55-3.24,7.33,0,2.47,1.66,7.56,6.8,7.56ZM11.01,27.86c1.85.03,5.3,3.32,5.3,7.56,0,1.97-1.29,6.04-5.29,6.04s-5.29-4.07-5.29-6.04c0-4.25,3.44-7.52,5.28-7.56ZM7.85,38.05c-.21-.36-.09-.82.27-1.04.36-.21.82-.09,1.04.27,0,.01.01.02.02.03.34.7,1.06,1.14,1.85,1.12.42,0,.76.34.76.76s-.34.76-.76.76c-1.33.02-2.55-.72-3.16-1.9Z"/>
</svg>