<?xml version="1.0" encoding="UTF-8"?>
<svg id="Layer_1" xmlns="http://www.w3.org/2000/svg" version="1.1" viewBox="0 0 813.9 561.3">
  <!-- Generator: Adobe Illustrator 29.7.1, SVG Export Plug-In . SVG Version: 2.1.1 Build 8)  -->
  <polygon points="813.9 92.1 813.9 0 632.5 0 621.2 0 542.2 0 542.2 15 526 15 526 33 503.8 33 503.8 15 486.8 15 486.8 0 389.6 0 389.6 33 380.5 33 380.5 15 361.7 15 361.7 0 229.8 0 229.8 15 211 15 211 33 206.7 33 206.7 18.5 187.2 18.5 187.2 0 39.4 0 39.4 15.7 19.9 15.7 19.9 33.8 0 33.8 0 219.7 19.9 219.7 19.9 233.6 .9 233.6 .9 491.7 .9 508.5 .9 561.3 780 561.3 780 507.5 784.5 507.5 784.5 493.6 801.5 493.6 801.5 476.3 813.9 476.3 813.9 359.4 801.5 359.4 801.5 345.5 813.9 345.5 813.9 164.4 798.9 164.4 798.9 92.1 813.9 92.1"/>
  <g>
    <g>
      <path d="M140,86.8v-15.1h-65.7v113.2h63.8v-50.8h48.1v85.1h-17.4v14H59.9v-13.7h-18.2c0,0-.5,0-1.3-.1V36.2h19.5v-15.6h106.8v18.4h19.5v47.8h-46.2Z" fill="#e94a1d"/>
      <rect x="20.5" y="54.3" width="19.9" height="144.9" fill="#ef762f"/>
      <rect x="20.5" y="54.3" width="19.9" height="144.9" fill="#ef762f"/>
      <path d="M40.4,219.4h0c.8,0,1.3,0,1.3,0h-1.3Z" fill="none" stroke="#fff" stroke-miterlimit="10" stroke-width=".3"/>
      <path d="M59.9,199.2v20.3h-18.2c0,0-.5,0-1.3-.1v-20.2h19.5Z" fill="#ef762f"/>
      <rect x="40.4" y="36.2" width="19.5" height="18.1" fill="#ef762f"/>
      <rect x="59.9" y="20.6" width="106.8" height="15.6" fill="#ef762f"/>
      <g>
        <polygon points="186.2 118.7 186.2 134.1 138.1 134.1 138.1 157 117.9 157 117.9 118.7 186.2 118.7" fill="#ef762f"/>
        <rect x="84.7" y="184.9" width="53.4" height="14.2" fill="#ef762f"/>
        <rect x="138.1" y="165.6" width="18.2" height="16" fill="#ef762f"/>
      </g>
    </g>
    <g>
      <rect x="231.5" y="35.5" width="18.8" height="18" fill="#ef762f"/>
      <rect x="250.3" y="20.5" width="90.9" height="15" fill="#ef762f"/>
      <path d="M360,53.5v-18h-109.7v18h-35.9v179.7h58.2v-48.2h56.2v48.2h48.3V53.5h-17.1ZM328.8,134.1h-56.2v-62.4h56.2v62.4Z" fill="#e94a1a"/>
      <rect x="214.4" y="53.5" width="17.1" height="179.7" fill="#ef762f"/>
      <rect x="328.8" y="89.8" width="12.4" height="44.3" fill="#ef762f"/>
      <rect x="285" y="134.1" width="43.8" height="15.3" fill="#ef762f"/>
      <rect x="328.8" y="192.7" width="19.3" height="40.5" fill="#ef762f"/>
    </g>
    <g>
      <polygon points="612 20.6 612 233.2 563.3 233.2 563.3 113.4 546.5 113.4 546.5 134.1 529.7 134.1 529.7 149.4 500.1 149.4 500.1 134.1 483.3 134.1 483.3 115.7 466.3 115.7 466.3 233.2 410.1 233.2 410.1 20.6 466.3 20.6 466.3 35.5 483.3 35.5 483.3 53.5 500.1 53.5 500.1 71.7 529.9 71.7 529.9 53.5 546.5 53.5 546.5 35.5 562.7 35.5 562.7 20.6 612 20.6" fill="#e94a1a"/>
      <polygon points="466.3 20.6 466.3 35.5 428.6 35.5 428.6 233.2 410.1 233.2 410.1 20.6 466.3 20.6" fill="#ef762f"/>
      <rect x="563.3" y="113.4" width="15.9" height="119.8" fill="#ef762f"/>
      <rect x="529.9" y="53.5" width="16.6" height="18.2" fill="#ef762f"/>
      <rect x="546.5" y="35.5" width="16.2" height="18" fill="#ef762f"/>
      <rect x="562.7" y="20.6" width="49.3" height="14.9" fill="#ef762f"/>
    </g>
    <g>
      <polygon points="700.6 71.6 700.6 103.6 778.4 103.6 778.4 149.4 700.6 149.4 700.6 184.9 793.4 184.9 793.4 233.2 660.1 233.2 660.1 35.5 793.4 35.5 793.4 71.6 700.6 71.6" fill="#e94a1a"/>
      <polygon points="793.4 20.6 793.4 35.5 660.1 35.5 660.1 233.2 641.7 233.2 641.7 20.6 793.4 20.6" fill="#ef762f"/>
      <rect x="712.2" y="184.9" width="81.3" height="13" fill="#ef762f"/>
    </g>
    <g>
      <path d="M396.5,373.1v-84h-15.7v-17.1h-22v-17.9h-128v232.9h53.1v-83.9h62.8v83.9h49.8v-93.2h-15.7v-20.7h15.7ZM283.9,352.7v-46.1h63.6v46.1h-63.6Z" fill="#1a6c8b"/>
      <polygon points="358.7 254.1 358.7 272 249.9 272 249.9 487 230.8 487 230.8 254.1 358.7 254.1" fill="#417893"/>
      <rect x="346.7" y="420.6" width="16.3" height="66.4" fill="#417893"/>
    </g>
    <g>
      <polygon points="502.3 338.1 502.3 359.9 492.8 359.9 492.8 373.1 474.6 373.1 474.6 387.1 453.7 387.1 453.7 373.1 438.4 373.1 438.4 359.9 428.9 359.9 428.9 338.1 438.4 338.1 438.4 325.3 461.1 325.3 461.1 338.1 474.6 338.1 474.6 325.3 492.8 325.3 492.8 338.1 502.3 338.1" fill="#e94a1a"/>
      <polygon points="594.9 338.1 594.9 359.9 585.5 359.9 585.5 373.1 567.3 373.1 567.3 387.1 546.4 387.1 546.4 373.1 531.1 373.1 531.1 359.9 521.6 359.9 521.6 338.1 531.1 338.1 531.1 325.3 553.7 325.3 553.7 338.1 567.3 338.1 567.3 325.3 585.5 325.3 585.5 338.1 594.9 338.1" fill="#e94a1a"/>
      <path d="M593.3,289.1v-17.1h-17.6v-17.9h-125.4v17.9h-18.2v17.1h-17v166.7h21.4v13h13.8v18.1h125.4v-18.1h17.6v-13h11.8v-166.7h-11.8ZM438.4,373.1v-13.2h-9.5v-21.8h9.5v-23.9h54.4v23.9h9.5v21.8h-9.5v13.2h-18.2v14h-20.9v-14h-15.3ZM552.4,447.2h-18.9v8.6h-53.5v-8.6h-10.5v-11.9h-17.6v-19.6h17.6v19.6h82.9v11.9ZM570.1,435.4h-17.6v-19.6h17.6v19.6ZM594.9,359.9h-9.5v13.2h-18.2v14h-20.9v-14h-15.3v-13.2h-9.5v-21.8h9.5v-23.9h54.4v23.9h9.5v21.8Z" fill="#1a6c8b"/>
      <rect x="451.9" y="435.4" width="17.6" height="11.9" fill="#417893"/>
      <rect x="469.5" y="447.2" width="10.5" height="8.6" fill="#417893"/>
      <rect x="533.6" y="447.2" width="18.9" height="8.6" fill="#417893"/>
      <polygon points="570.1 435.4 570.1 447.2 552.5 447.2 552.4 447.2 552.4 435.4 552.5 435.4 570.1 435.4" fill="#417893"/>
      <rect x="450.3" y="254.1" width="125.4" height="17.9" fill="#417893"/>
    </g>
    <g>
      <path d="M184.8,369.7v-17h15.6v-63.6h-15.6v-17.1h-20.4v-17.9H21.4v233.9h143v-19.1h20.4v-13h15.6v-62h-15.6v-16.1h-20.4v-8h20.4ZM74.3,303.2h65.6v11h13.5v23.9h-13.5v14.6h-65.6v-49.4ZM74.3,393.8h65.6v13.1h13.5v24.2h-13.5v11.1h-65.6v-48.5Z" fill="#1a6c8b"/>
      <path d="M184.8,369.7v-17h15.6v-63.6h-15.6v-17.1h-20.4v-17.9H21.4v232.9h143v-18.1h20.4v-13h15.6v-62h-15.6v-16.1h-20.4v-8h20.4ZM153.4,431.2h-13.5v11.1h-65.6v-48.5h65.6v13.1h13.5v24.2ZM153.4,338.1h-13.5v14.6h-65.6v-49.4h65.6v11h13.5v23.9Z" fill="#1a6c8b"/>
      <polygon points="164.4 254.1 164.4 272 40.4 272 40.4 488 21.4 488 21.4 254.1 164.4 254.1" fill="#417893"/>
      <rect x="80.7" y="442.3" width="59.2" height="13.6" fill="#417893"/>
      <rect x="139.9" y="431.2" width="13.5" height="11.1" fill="#417893"/>
      <rect x="139.9" y="338.1" width="13.5" height="14.6" fill="#417893"/>
    </g>
    <g>
      <polygon points="748.2 325 748.2 302.8 680.6 302.8 680.6 338.1 695.6 338.1 695.6 348.2 764 348.2 764 365.6 781 365.6 781 379.9 793.4 379.9 793.4 455.8 781 455.8 781 473.1 764 473.1 764 487 658.7 487 658.7 473.1 644.3 473.1 644.3 455.8 627.7 455.8 627.7 420.5 680.6 420.5 680.6 437.7 746.9 437.7 746.9 407.1 732.7 407.1 732.7 393.8 660.1 393.8 660.1 379.9 644.9 379.9 644.9 365.6 627.7 365.6 627.7 289.1 644.6 289.1 644.6 272 660.1 272 660.1 254.1 761.8 254.1 761.8 272 781 272 781 289.1 793.4 289.1 793.4 325 748.2 325" fill="#1a6c8b"/>
      <rect x="627.7" y="289.1" width="17" height="76.5" fill="#417893"/>
      <rect x="627.7" y="420.5" width="53" height="17.2" fill="#417893"/>
      <rect x="680.6" y="437.7" width="66.3" height="18.1" fill="#417893"/>
      <rect x="660.1" y="254.1" width="101.7" height="17.9" fill="#417893"/>
      <polygon points="644.3 433.8 644.3 455.8 627.7 455.8 627.7 434.8 644.3 433.8" fill="#417893"/>
      <rect x="644.3" y="455.8" width="14.5" height="17.3" fill="#417893"/>
    </g>
    <rect x="21.4" y="512.2" width="738.1" height="28.6" fill="#e7a731"/>
  </g>
</svg>