<svg xmlns="http://www.w3.org/2000/svg" fill="none" viewBox="0 0 241 34" height="34" width="241">
<g clip-path="url(#clip0_192_1615)">
<path fill="#2B2B2A" d="M81.6194 15.9968L83.3829 16.4848C83.7136 16.5933 83.7136 16.9729 83.3829 17.0813L81.6194 17.5694C80.5723 17.8405 79.8007 18.6539 79.47 19.6842L78.974 21.4195C78.8638 21.7448 78.478 21.7448 78.3678 21.4195L77.8718 19.6842C77.5963 18.6539 76.7696 17.8947 75.7225 17.5694L73.9589 17.0813C73.6283 16.9729 73.6283 16.5933 73.9589 16.4848L75.7225 15.9968C76.7696 15.7257 77.5411 14.9123 77.8718 13.882L78.3678 12.1467C78.478 11.8214 78.8638 11.8214 78.974 12.1467L79.47 13.882C79.7456 14.9123 80.5723 15.6714 81.6194 15.9968Z"></path>
<path fill="#2B2B2A" d="M0 34V6.99522H3.47199V11.8214C4.79465 8.13397 7.77064 6.3445 11.3528 6.3445C17.0844 6.3445 20.8319 10.8995 20.8319 16.4848V17.1898C20.8319 22.7751 17.0293 27.3844 11.2977 27.3844C5.5662 27.3844 5.95198 26.2998 4.35376 23.9681V34.0542H0V34ZM16.4782 16.8102C16.4782 12.7974 13.9982 10.0319 10.3609 10.0319C6.72353 10.0319 4.18843 12.3094 4.18843 16.1595V17.7321C4.18843 21.4737 7.10931 23.6427 10.3609 23.6427C13.6124 23.6427 16.4782 20.8772 16.4782 16.8102Z"></path>
<path fill="#2B2B2A" d="M25.792 26.6794V0H30.1458V10.4115C31.248 7.86284 33.232 6.39872 36.3733 6.39872H36.5386C41.223 6.39872 43.703 9.59809 43.703 15.4545V26.6794H39.3493V14.8038C39.3493 11.9298 37.5306 10.2488 34.8853 10.2488C32.24 10.2488 30.1458 12.3094 30.1458 15.2919V26.6794H25.792Z"></path>
<path fill="#2B2B2A" d="M48.332 17.1898V16.5391C48.332 11.4418 51.6938 6.3445 58.4173 6.3445C65.1409 6.3445 67.3453 9.38118 67.6208 14.0447H63.4324C63.1018 11.8214 61.3382 10.1404 58.4173 10.1404C55.4965 10.1404 52.6858 13.0144 52.6858 16.9187C52.6858 20.823 54.5045 23.6427 58.4724 23.6427C62.4404 23.6427 63.3773 21.9617 63.6529 19.63H67.8964C67.6208 24.3477 63.6529 27.4386 58.4724 27.4386C53.292 27.4386 48.3871 22.2329 48.3871 17.244L48.332 17.1898Z"></path>
<path fill="#2B2B2A" d="M88.8934 21.2568H91.4836C91.5387 23.1005 93.0267 24.8899 96.7743 24.8899C100.522 24.8899 102.065 23.2632 102.065 21.2025C102.065 19.1419 100.577 18.2743 97.7663 18.0032L95.5618 17.7863C91.9796 17.4067 89.5548 15.6172 89.5548 12.4721C89.5548 9.32695 92.4205 6.77831 96.7743 6.77831C101.128 6.77831 103.884 8.78468 103.939 12.4179H101.348C101.348 10.5742 99.7503 9.11004 96.7743 9.11004C93.7983 9.11004 92.2001 10.6284 92.2001 12.5263C92.2001 14.4242 93.3023 15.2376 95.7272 15.5088L97.9316 15.7257C101.9 16.1595 104.655 17.8947 104.655 21.311C104.655 24.7273 101.514 27.3301 96.7192 27.3301C91.9245 27.3301 88.8934 24.9984 88.7832 21.311L88.8934 21.2568Z"></path>
<path fill="#2B2B2A" d="M110.277 26.6794V0H113.087V17.0271L121.905 7.32057H124.881L117.276 15.6715L126.92 26.6794H123.669L115.733 17.6236H113.032V26.6794H110.222H110.277Z"></path>
<path fill="#2B2B2A" d="M131.715 26.6794V9.54386V7.3748H134.47V26.7337H131.715V26.6794Z"></path>
<path fill="#2B2B2A" d="M141.8 26.6794V7.3748H144.005V11.8756C144.886 8.67623 147.201 6.77831 150.949 6.77831H151.059C156.019 6.77831 158.444 9.97767 158.444 15.5088V26.7336H155.688V14.9123C155.688 11.5502 153.704 9.32695 150.342 9.32695C146.981 9.32695 144.556 11.6045 144.556 15.1292V26.7879H141.745L141.8 26.6794Z"></path>
<path fill="#2B2B2A" d="M163.845 17.244V16.756C163.845 11.8214 167.096 6.72409 173.599 6.72409C180.102 6.72409 181.976 9.48964 182.472 13.882H179.772C179.331 11.1707 177.181 9.21851 173.544 9.21851C169.907 9.21851 166.545 12.6348 166.545 17.0271C166.545 21.4195 168.86 24.9442 173.599 24.9442C178.339 24.9442 179.661 22.8294 179.937 20.1723H182.637C182.252 24.5646 178.449 27.4386 173.599 27.4386C168.749 27.4386 163.734 22.2329 163.734 17.3525L163.845 17.244Z"></path>
<path fill="#2B2B2A" d="M186.109 20.9856C186.109 17.0813 188.919 14.9123 193.824 14.9123H199.335V13.9904C199.335 11.1164 197.847 9.54386 194.596 9.54386C191.344 9.54386 189.967 9.65231 188.368 9.81499V7.3748C189.911 7.21212 191.895 7.10367 193.549 7.10367C199.556 7.10367 201.926 9.16427 201.926 14.2616V26.6794H199.721V22.7751C198.839 25.7034 196.415 27.2217 193.053 27.2217C189.691 27.2217 186.054 24.9984 186.054 20.9856H186.109ZM199.335 19.5758V17.0271H193.659C190.518 17.0271 188.809 18.6539 188.809 21.0399C188.809 23.4258 190.683 25.0526 193.659 25.0526C196.635 25.0526 199.225 23.7512 199.335 19.5758Z"></path>
<path fill="#2B2B2A" d="M208.98 26.6794V7.3748H211.185V12.7975C211.901 9.0016 214.326 7.1579 218.79 7.1579H219.396V9.65232H218.239C213.94 9.65232 211.681 11.8756 211.681 16.051V26.7337H208.87L208.98 26.6794Z"></path>
<path fill="#2B2B2A" d="M222.151 17.244V16.756C222.151 11.7672 225.238 6.72409 231.686 6.72409C238.134 6.72409 240.999 11.2791 240.999 16.051V17.4609H224.852C225.017 21.6364 227.277 24.9442 231.961 24.9442C236.646 24.9442 237.638 23.2089 238.078 21.0399H240.669C239.842 24.9442 236.59 27.3302 231.906 27.3302C225.127 27.3302 222.151 22.2329 222.151 17.244ZM224.962 15.3461H238.354C237.968 11.6587 235.709 9.11006 231.741 9.11006C227.773 9.11006 225.513 11.7129 224.962 15.3461Z"></path>
</g>
<defs>
<clipPath id="clip0_192_1615">
<rect fill="white" height="34" width="241"></rect>
</clipPath>
</defs>
</svg>
