<svg width="222" height="236" viewBox="0 0 222 236" fill="none" xmlns="http://www.w3.org/2000/svg">
<path d="M150.58 192.633C162.543 191.967 172.783 201.121 173.454 213.082C174.127 225.042 164.976 235.284 153.013 235.961C141.042 236.64 130.788 227.483 130.117 215.514C129.444 203.545 138.608 193.299 150.58 192.633ZM154.279 232.482C164.363 231.09 171.391 221.763 169.948 211.688C168.505 201.613 159.141 194.633 149.071 196.126C139.073 197.609 132.152 206.89 133.585 216.894C135.017 226.898 144.266 233.864 154.279 232.482Z" fill="#456771"/>
<path d="M198.647 192.657C210.614 191.814 220.995 200.837 221.823 212.801C222.653 224.766 213.615 235.134 201.648 235.949C189.699 236.763 179.35 227.746 178.521 215.801C177.694 203.856 186.7 193.498 198.647 192.657ZM200.024 232.646C210.144 232.731 218.426 224.615 218.542 214.497C218.658 204.379 210.563 196.075 200.444 195.929C190.283 195.783 181.934 203.917 181.817 214.077C181.701 224.238 189.861 232.56 200.024 232.646Z" fill="#456771"/>
<path d="M69.5777 192.709C74.3003 192.515 78.9873 193.269 83.3456 195.125C85.5457 196.062 81.6822 197.864 79.4096 197.12C77.0414 196.344 74.8828 195.991 71.6349 195.971C67.5525 195.834 64.1316 196.283 60.9581 199.142C58.9259 200.972 58.5595 204.858 59.7242 207.204C61.1884 210.153 65.0927 210.781 67.9804 211.241C70.1982 211.768 72.4818 211.775 74.718 212.131C78.2515 212.695 81.7451 213.492 84.3147 216.124C88.6224 220.538 87.5077 227.296 83.3036 231.323C80.6676 233.848 76.9028 234.766 73.4091 235.34C72.5776 235.471 71.1984 235.399 70.3311 235.394C66.3028 235.38 61.9335 234.333 58.2117 232.755C56.718 232.122 55.4042 231.982 56.5172 229.921C57.4762 228.187 59.045 229.44 60.6477 230.186C68.1618 233.683 83.9533 233.624 83.5538 222.077C83.3615 216.518 76.3672 215.624 71.9174 215.104C65.8225 214.393 56.1461 213.278 55.6843 205.288C54.956 196.842 61.9233 193.3 69.5777 192.709Z" fill="#456771"/>
<path d="M13.9459 192.709C18.6685 192.515 23.3555 193.269 27.7137 195.125C29.9139 196.062 26.0503 197.864 23.7778 197.12C21.4096 196.344 19.251 195.991 16.0031 195.971C11.9207 195.834 8.49978 196.283 5.32631 199.142C3.29408 200.972 2.92765 204.858 4.09232 207.204C5.55655 210.153 9.46091 210.781 12.3486 211.241C14.5663 211.768 16.8499 211.775 19.0862 212.131C22.6196 212.695 26.1133 213.492 28.6828 216.124C32.9906 220.538 31.8758 227.296 27.6718 231.323C25.0357 233.848 21.2709 234.766 17.7772 235.34C16.9457 235.471 15.5665 235.399 14.6993 235.394C10.671 235.38 6.30166 234.333 2.57982 232.755C1.08614 232.122 -0.227681 231.982 0.885359 229.921C1.84441 228.187 3.41318 229.44 5.01591 230.186C12.5299 233.683 28.3215 233.624 27.922 222.077C27.7297 216.518 20.7354 215.624 16.2855 215.104C10.1907 214.393 0.514305 213.278 0.0524536 205.288C-0.675788 196.842 6.29149 193.3 13.9459 192.709Z" fill="#456771"/>
<path d="M107.692 192.709C112.415 192.515 117.102 193.269 121.46 195.125C123.66 196.062 119.796 197.864 117.524 197.12C115.156 196.344 112.997 195.991 109.749 195.971C105.667 195.834 102.246 196.283 99.0724 199.142C97.0402 200.972 96.6737 204.858 97.8384 207.204C99.3026 210.153 103.207 210.781 106.095 211.241C108.312 211.768 110.596 211.775 112.832 212.131C116.366 212.695 119.859 213.492 122.429 216.124C126.737 220.538 125.622 227.296 121.418 231.323C118.782 233.848 115.017 234.766 111.523 235.34C110.692 235.471 109.313 235.399 108.445 235.394C104.417 235.38 100.048 234.333 96.3259 232.755C94.8322 232.122 93.5184 231.982 94.6315 229.921C95.5905 228.187 97.1593 229.44 98.762 230.186C106.276 233.683 122.068 233.624 121.668 222.077C121.476 216.518 114.481 215.624 110.032 215.104C103.937 214.393 94.2604 213.278 93.7985 205.288C93.0703 196.842 100.038 193.3 107.692 192.709Z" fill="#456771"/>
<path d="M44.4851 235.364H41.1317V193.373C41.7872 193.357 43.8133 193.373 44.4851 193.373V235.364Z" fill="#456771"/>
<path d="M120.756 101.675C121.186 101.303 122.794 100.411 123.326 100.133C133.567 94.8083 144.242 90.8424 154.101 84.7451C158.471 82.0505 162.538 78.8929 166.231 75.3271C167.984 73.6471 169.676 71.6844 171.508 70.1205C172.018 69.685 172.62 69.5593 173.281 69.6728C174.106 70.0608 174.193 71.1554 174.329 71.9876C175.092 76.6721 174.957 81.6647 173.145 86.1042C171.59 89.9172 169.017 93.2669 166.027 96.0666C165.549 96.5139 165.068 96.9861 164.614 97.4632C165.135 97.3221 165.685 96.9276 166.199 96.6656C168.513 95.4879 170.619 93.7276 173.02 92.7707C173.341 92.643 173.738 92.7985 174.013 92.9655C174.72 93.6988 174.582 95.5253 174.58 96.5705C174.572 103.558 171.36 109.827 166.329 114.625C157.69 122.866 145.42 128.944 133.718 131.241C127.851 132.368 121.83 132.582 115.875 132.464C114.794 132.443 111.643 132.42 111.097 131.586C110.351 130.448 110.538 126.52 110.55 125.134C110.618 117.554 109.493 109.434 116.657 104.482C118.02 103.533 119.27 102.554 120.756 101.675Z" fill="#456771"/>
<path d="M41.5703 63.5181C42.1159 61.9777 43.1994 62.1807 44.4384 62.7598C45.8021 63.397 47.1192 64.1628 48.4396 64.8874L55.5513 68.7978C59.7302 71.0977 63.8867 73.4384 68.0198 75.8194C72.9695 78.6493 77.9849 81.5428 82.6975 84.7526C85.1572 86.428 88.6535 88.8354 90.8535 90.8464C94.647 93.7796 98.2611 97.6284 100.882 101.65C104.761 107.601 104.549 111.142 104.48 117.954C104.465 119.454 104.557 122.071 104.233 123.482C104.13 123.933 103.975 124.346 103.559 124.59C101.339 125.896 91.311 123.822 88.6062 123.13C74.7416 119.586 64.0713 112.777 54.4029 102.293C50.9205 98.5172 47.7052 94.4869 45.0833 90.0603C39.8632 81.2459 39.0542 73.3703 41.5703 63.5181Z" fill="#456771"/>
<path d="M150.59 27.4531C153.299 27.83 157.06 31.9895 158.773 34.1293C165.607 42.6615 160.514 52.6763 154.932 60.2709C155.484 59.8908 156.033 59.5063 156.579 59.1175C157.993 58.0181 159.385 56.8909 160.754 55.7366C162.341 54.4002 163.877 52.9505 165.524 51.687C166.074 51.265 166.499 51.2059 167.11 51.5396C167.808 51.9743 168.341 54.1999 168.524 55.0651C173.004 76.3864 139.71 88.8653 125.215 94.7565L118.189 97.5946C116.594 98.23 114.877 98.923 113.217 99.3674C112.038 99.6822 110.737 99.6659 110.629 98.0957C110.461 95.6501 110.548 93.1248 110.548 90.6581L110.55 82.0368C110.567 79.9595 110.357 76.6319 111.555 74.9401C113.032 73.1227 115.538 71.0325 117.359 69.5411C119.653 67.6962 121.935 65.8367 124.206 63.9626C133.137 56.4564 140.581 48.5004 145.593 37.8384C146.434 36.0548 147.185 34.2303 147.843 32.3716C148.297 31.0979 148.723 29.7519 149.245 28.5066C149.547 27.7865 149.9 27.7009 150.59 27.4531Z" fill="#456771"/>
<path d="M40.7844 92.8238C41.6705 92.6155 42.1933 93.1165 42.7469 93.7519C44.6099 95.8894 46.134 98.3522 47.8715 100.595C49.3956 102.574 50.9908 104.498 52.6538 106.363C62.6442 117.569 75.0244 125.891 90.1027 127.958C92.5941 128.288 95.0999 128.498 97.6115 128.586C98.7755 128.635 102.065 128.662 103.011 128.902C103.421 129.082 103.693 129.225 103.858 129.667C104.139 130.422 104.11 131.238 104.073 132.033C103.788 138.064 103.45 144.358 100.924 149.936C99.0578 154.059 95.9086 157.665 91.5775 159.211C85.0679 161.555 77.2861 159.556 71.2492 156.758C64.3639 153.562 58.0421 148.719 53.7719 142.386C52.8227 140.979 51.8949 139.448 51.2792 137.864C51.0312 137.225 50.832 136.528 51.1731 135.899C51.562 135.581 51.7287 135.528 52.2384 135.566C53.5605 135.664 57.6837 137.635 58.74 137.69C57.655 136.732 56.2268 135.829 55.0649 134.899C43.9296 125.982 39.4145 112.199 39.6874 98.2937C39.7171 96.7839 39.71 95.0323 40.1112 93.5657C40.2203 93.1674 40.4331 93.0013 40.7844 92.8238Z" fill="#456771"/>
<path d="M59.378 24.5216C60.2038 23.5646 61.7155 21.8873 63.0586 22.7138C64.962 24.1904 69.4754 31.508 70.9471 33.7576C72.5401 36.1919 74.1922 38.5868 75.9022 40.9403C81.4567 48.5245 87.9877 55.3429 95.3262 61.219C98.612 63.8724 102.196 66.3297 104.904 69.5775C106.667 71.692 106.305 73.4131 106.304 75.9869L106.309 81.8977L106.313 90.9948C106.312 92.4297 106.525 96.5886 105.902 97.9803C105.484 98.9171 103.53 98.2433 103.121 97.5628C101.502 95.933 100.01 94.2322 98.3906 92.614C95.0355 89.2633 91.4113 86.1944 87.5542 83.437C84.0381 80.9461 80.4069 78.6219 76.6726 76.4719C74.1744 75.019 71.6615 73.5917 69.134 72.1904C61.735 68.058 53.8981 63.8711 47.8349 57.8599C46.5551 56.5911 45.0379 54.9046 45.044 53.018C45.0519 50.5631 45.7903 47.4441 46.8692 45.2093C46.9967 44.9318 47.1259 44.6552 47.2569 44.3793C47.8056 43.2272 48.0293 42.8075 49.2048 42.3922C50.8657 42.7503 52.2662 43.584 53.7875 44.298C56.1881 45.4245 58.6576 46.8615 61.0662 47.9218C60.7681 47.2565 60.315 46.604 59.9648 45.9555C56.6286 39.7765 53.8007 30.2841 59.378 24.5216Z" fill="#456771"/>
<path d="M110.772 1.15738C110.938 0.64126 111.289 0.461825 111.77 0.30863C113.211 0.25489 115.458 0.761851 116.91 1.14048C124.697 3.17179 132.673 7.0498 138.679 12.4701C139.2 12.9408 139.997 13.7475 140.417 14.27C143.615 17.8624 145.504 22.2512 145.086 27.0834C144.028 39.3086 133.808 50.9667 125.15 58.6429C122.462 61.0169 119.654 63.2516 116.737 65.3377C115.765 66.0351 114.741 66.7687 113.702 67.3428C112.865 67.8062 111.503 67.9074 110.872 67.0683C110.655 66.78 110.558 65.5222 110.556 65.1637C110.528 60.116 110.539 55.0675 110.539 50.0197L110.544 21.0739L110.547 8.53126C110.548 6.84919 110.456 2.56524 110.772 1.15738Z" fill="#456771"/>
<path d="M101.879 0.105767C102.596 -0.0292394 104.652 -0.0886219 105.303 0.262907C105.64 0.459303 106.005 0.750239 106.066 1.14834C106.432 3.52416 106.306 6.50004 106.306 8.90723L106.284 22.742L106.311 48.5927C106.319 52.8265 106.302 57.061 106.33 61.2942C106.335 62.0142 106.145 63.0138 105.307 63.1725C104.299 63.3496 103.214 62.5551 102.429 62.0097C90.2074 53.512 79.6148 42.27 72.1824 29.3564C70.5208 26.4696 67.9892 21.3687 68.2254 18.0567C68.4878 14.4106 74.0868 11.0566 76.8977 9.24288C77.8533 8.6263 79.7097 7.33756 80.7861 8.0913C81.6024 8.60653 83.0074 11.319 83.5721 12.2981C84.6679 14.197 85.7965 16.0767 86.9578 17.9363C87.6775 19.11 88.3805 20.3522 89.2028 21.4488C89.3115 19.7669 89.1532 17.9104 89.115 16.1959C89.0709 13.5475 89.0509 10.8988 89.0549 8.25005C89.0526 6.91266 88.956 4.21512 89.3938 3.03792C90.6756 1.08876 99.4909 0.174902 101.879 0.105767Z" fill="#456771"/>
<path d="M111.161 136.75C112.157 136.065 115.068 136.325 116.325 136.378C132.719 137.071 148.191 133.105 161.402 123.146C163.799 121.339 166.408 119.245 168.937 117.629C169.297 117.399 170.074 117.484 170.47 117.683C170.926 118.256 170.839 119.104 170.702 119.796C168.199 132.354 160.924 144.486 150.816 152.378C144.369 157.412 135.778 161.095 127.497 160.056C117.522 158.806 111.659 150.634 110.956 141.127C110.865 139.903 110.529 137.824 111.161 136.75Z" fill="#456771"/>
</svg>
