<svg width="471" height="500" viewBox="0 0 471 500" fill="none" xmlns="http://www.w3.org/2000/svg">
<path d="M319.024 408.121C344.37 406.711 366.064 426.104 367.486 451.444C368.911 476.784 349.524 498.483 324.178 499.919C298.815 501.355 277.091 481.956 275.669 456.598C274.245 431.239 293.658 409.531 319.024 408.121ZM326.861 492.547C348.225 489.597 363.115 469.837 360.058 448.492C357.001 427.146 337.162 412.359 315.827 415.523C294.645 418.664 279.982 438.328 283.017 459.522C286.052 480.716 305.646 495.475 326.861 492.547Z" fill="#456771"/>
<path d="M420.863 408.171C446.216 406.385 468.209 425.501 469.964 450.85C471.721 476.199 452.575 498.165 427.219 499.892C401.905 501.616 379.978 482.513 378.223 457.205C376.471 431.898 395.551 409.954 420.863 408.171ZM423.78 492.894C445.22 493.075 462.766 475.878 463.013 454.443C463.258 433.007 446.108 415.414 424.669 415.105C403.141 414.794 385.453 432.027 385.206 453.553C384.958 475.08 402.247 492.712 423.78 492.894Z" fill="#456771"/>
<path d="M147.411 408.281C157.416 407.87 167.346 409.468 176.58 413.4C178.169 414.077 178.7 415.004 178.672 416.038C178.593 419.051 174.45 419.916 171.635 418.839C165.118 416.346 160.159 415.245 151.769 415.193C143.12 414.901 135.872 415.853 129.149 421.91C124.843 425.789 124.067 434.02 126.534 438.991C129.637 445.24 137.909 446.569 144.026 447.543C148.725 448.66 153.563 448.675 158.301 449.431C165.787 450.625 173.189 452.313 178.633 457.89C187.76 467.24 185.398 481.559 176.491 490.092C170.906 495.441 162.93 497.384 155.528 498.602C153.766 498.879 150.844 498.725 149.007 498.716C140.472 498.686 131.215 496.468 123.33 493.125C120.165 491.784 117.382 491.486 119.74 487.12C121.772 483.447 125.096 486.102 128.491 487.682C144.411 495.092 177.867 494.966 177.021 470.503C176.614 458.724 161.795 456.829 152.367 455.729C139.455 454.222 118.954 451.86 117.975 434.932C116.433 417.037 131.194 409.534 147.411 408.281Z" fill="#456771"/>
<path d="M29.5463 408.281C39.5518 407.87 49.482 409.468 58.7155 413.4C60.3051 414.077 60.8353 415.004 60.8081 416.038C60.729 419.051 56.5855 419.916 53.7706 418.839C47.2541 416.346 42.295 415.245 33.9048 415.193C25.2557 414.901 18.008 415.853 11.2846 421.91C6.97898 425.789 6.20264 434.02 8.67017 438.991C11.7723 445.24 20.0443 446.569 26.1622 447.543C30.8609 448.66 35.699 448.675 40.4368 449.431C47.9229 450.625 55.3248 452.313 60.7687 457.89C69.8953 467.24 67.5335 481.559 58.6267 490.092C53.0418 495.441 45.0655 497.384 37.6636 498.602C35.9019 498.879 32.9799 498.725 31.1426 498.716C22.608 498.686 13.351 496.468 5.46571 493.125C2.30114 491.784 -0.482375 491.486 1.87576 487.12C3.90765 483.447 7.23131 486.102 10.6269 487.682C26.5465 495.092 60.0031 494.966 59.1568 470.503C58.7493 458.724 43.9309 456.829 34.5032 455.729C21.5904 454.222 1.08963 451.86 0.111131 434.932C-1.43175 417.037 13.3294 409.534 29.5463 408.281Z" fill="#456771"/>
<path d="M228.161 408.281C238.166 407.87 248.096 409.468 257.33 413.4C258.919 414.077 259.45 415.004 259.422 416.038C259.343 419.051 255.2 419.916 252.385 418.839C245.868 416.346 240.909 415.245 232.519 415.193C223.87 414.901 216.622 415.853 209.899 421.91C205.593 425.789 204.817 434.02 207.284 438.991C210.387 445.24 218.659 446.569 224.776 447.543C229.475 448.66 234.313 448.675 239.051 449.431C246.537 450.625 253.939 452.313 259.383 457.89C268.51 467.24 266.148 481.559 257.241 490.092C251.656 495.441 243.68 497.384 236.278 498.602C234.516 498.879 231.594 498.725 229.757 498.716C221.222 498.686 211.965 496.468 204.08 493.125C200.915 491.784 198.132 491.486 200.49 487.12C202.522 483.447 205.846 486.102 209.241 487.682C225.161 495.092 258.617 494.966 257.771 470.503C257.364 458.724 242.545 456.829 233.117 455.729C220.205 454.222 199.704 451.86 198.725 434.932C197.183 417.037 211.944 409.534 228.161 408.281Z" fill="#456771"/>
<path d="M94.2465 498.652H87.1419V409.689C88.5307 409.654 92.8233 409.688 94.2465 409.689V498.652Z" fill="#456771"/>
<path d="M255.837 215.413C256.748 214.626 260.155 212.735 261.282 212.147C282.98 200.865 305.597 192.463 326.485 179.545C335.743 173.836 344.359 167.146 352.183 159.592C355.897 156.032 359.483 151.874 363.363 148.56C364.443 147.638 365.719 147.371 367.12 147.612C368.867 148.434 369.052 150.753 369.339 152.516C370.956 162.441 370.671 173.019 366.831 182.424C363.536 190.503 358.085 197.599 351.752 203.531C350.739 204.479 349.72 205.479 348.758 206.49C349.86 206.191 351.026 205.355 352.116 204.8C357.018 202.305 361.48 198.576 366.567 196.548C367.246 196.278 368.088 196.607 368.67 196.961C370.169 198.515 369.876 202.384 369.872 204.599C369.855 219.403 363.05 232.685 352.39 242.851C334.087 260.31 308.092 273.186 283.299 278.052C270.87 280.442 258.113 280.893 245.497 280.645C243.207 280.6 236.532 280.552 235.374 278.784C233.794 276.373 234.189 268.052 234.215 265.115C234.359 249.055 231.976 231.852 247.153 221.361C250.041 219.35 252.689 217.275 255.837 215.413Z" fill="#456771"/>
<path d="M88.0712 134.572C89.2271 131.309 91.5228 131.739 94.1477 132.965C97.0369 134.316 99.8274 135.938 102.625 137.473L117.692 145.758C126.546 150.631 135.352 155.59 144.108 160.634C154.595 166.63 165.221 172.76 175.205 179.56C180.416 183.11 187.824 188.21 192.485 192.471C200.522 198.685 208.179 206.84 213.732 215.36C221.95 227.968 221.501 235.471 221.355 249.903C221.323 253.081 221.518 258.624 220.831 261.614C220.612 262.569 220.285 263.444 219.403 263.962C214.699 266.728 193.454 262.334 187.723 260.869C158.349 253.36 135.743 238.934 115.259 216.722C107.881 208.723 101.069 200.184 95.5139 190.806C84.4544 172.131 82.7404 155.446 88.0712 134.572Z" fill="#456771"/>
<path d="M319.045 58.1636C324.785 58.9621 332.751 67.7744 336.382 72.3081C350.861 90.3848 340.069 111.602 328.244 127.693C329.414 126.887 330.577 126.073 331.732 125.249C334.728 122.92 337.678 120.532 340.578 118.086C343.94 115.255 347.194 112.183 350.684 109.507C351.85 108.612 352.751 108.487 354.044 109.194C355.523 110.115 356.654 114.83 357.04 116.664C366.532 161.836 295.995 188.274 265.285 200.755L250.399 206.768C247.019 208.115 243.382 209.583 239.865 210.524C237.366 211.191 234.61 211.157 234.382 207.83C234.026 202.649 234.209 197.298 234.209 192.072L234.213 173.807C234.25 169.406 233.804 162.356 236.343 158.772C239.473 154.921 244.781 150.493 248.64 147.333C253.501 143.424 258.335 139.485 263.145 135.514C282.069 119.611 297.84 102.755 308.459 80.1663C310.24 76.3875 311.831 72.522 313.224 68.584C314.186 65.8855 315.089 63.0338 316.196 60.3955C316.834 58.8698 317.583 58.6886 319.045 58.1636Z" fill="#456771"/>
<path d="M86.4074 196.66C88.2846 196.219 89.3923 197.28 90.5653 198.626C94.5122 203.155 97.7412 208.373 101.422 213.125C104.651 217.318 108.031 221.393 111.554 225.344C132.72 249.087 158.95 266.718 190.895 271.098C196.174 271.795 201.483 272.241 206.804 272.428C209.27 272.531 216.239 272.588 218.243 273.097C219.112 273.479 219.689 273.782 220.037 274.717C220.634 276.318 220.573 278.046 220.493 279.73C219.891 292.508 219.172 305.842 213.822 317.661C209.868 326.397 203.196 334.036 194.02 337.31C180.228 342.276 163.741 338.042 150.951 332.115C136.364 325.343 122.97 315.082 113.923 301.665C111.912 298.684 109.946 295.441 108.642 292.083C108.117 290.731 107.695 289.253 108.417 287.921C109.241 287.248 109.594 287.136 110.674 287.215C113.475 287.423 122.211 291.6 124.449 291.715C122.15 289.686 119.124 287.772 116.663 285.802C93.071 266.911 83.505 237.71 84.0832 208.249C84.1461 205.05 84.131 201.339 84.9812 198.232C85.2122 197.388 85.6632 197.036 86.4074 196.66Z" fill="#456771"/>
<path d="M125.8 51.9529C127.55 49.9253 130.753 46.3718 133.598 48.1229C137.631 51.2514 147.193 66.7547 150.311 71.5208C153.686 76.6781 157.186 81.7521 160.809 86.7384C172.577 102.807 186.414 117.252 201.962 129.702C208.923 135.323 216.517 140.529 222.253 147.41C225.99 151.89 225.223 155.537 225.219 160.99L225.231 173.512L225.239 192.786C225.237 195.826 225.689 204.637 224.369 207.586C223.482 209.57 219.343 208.143 218.476 206.701C215.047 203.248 211.885 199.645 208.454 196.217C201.346 189.118 193.667 182.616 185.496 176.774C178.046 171.496 170.353 166.572 162.441 162.017C157.149 158.939 151.825 155.915 146.47 152.946C130.794 144.191 114.191 135.32 101.345 122.585C98.6332 119.897 95.4189 116.324 95.4317 112.327C95.4486 107.126 97.0128 100.518 99.2987 95.7827C99.5688 95.1949 99.8426 94.6088 100.12 94.0244C101.283 91.5834 101.756 90.6944 104.247 89.8145C107.766 90.5732 110.733 92.3394 113.956 93.8521C119.042 96.2389 124.274 99.2832 129.377 101.53C128.745 100.12 127.785 98.7376 127.044 97.3638C119.975 84.2726 113.984 64.1616 125.8 51.9529Z" fill="#456771"/>
<path d="M234.685 2.45254C235.037 1.35907 235.782 0.978914 236.801 0.654349C239.854 0.540493 244.615 1.61456 247.69 2.41673C264.189 6.72037 281.087 14.9365 293.811 26.4202C294.915 27.4174 296.603 29.1266 297.494 30.2336C304.269 37.8445 308.272 47.1429 307.385 57.3805C305.144 83.2814 283.491 107.981 265.147 124.244C259.452 129.274 253.505 134.008 247.324 138.428C245.264 139.905 243.096 141.46 240.895 142.676C239.121 143.658 236.235 143.872 234.899 142.094C234.439 141.484 234.232 138.819 234.228 138.059C234.169 127.365 234.193 116.669 234.193 105.974L234.203 44.6486L234.21 18.0752C234.212 14.5115 234.016 5.4353 234.685 2.45254Z" fill="#456771"/>
<path d="M215.845 0.224083C217.363 -0.0619478 221.72 -0.187758 223.1 0.557007C223.814 0.973099 224.587 1.58949 224.717 2.43292C225.492 7.46643 225.225 13.7713 225.225 18.8713L225.179 48.1822L225.235 102.951C225.252 111.921 225.215 120.892 225.276 129.86C225.286 131.386 224.884 133.504 223.108 133.84C220.972 134.215 218.673 132.532 217.011 131.376C191.117 113.373 168.675 89.5551 152.929 62.1957C149.409 56.0796 144.045 45.2726 144.545 38.2557C145.101 30.5309 156.964 23.425 162.919 19.5824C164.943 18.276 168.877 15.5457 171.157 17.1426C172.886 18.2342 175.863 23.981 177.06 26.0554C179.381 30.0784 181.772 34.0608 184.233 38.0007C185.758 40.4872 187.247 43.119 188.989 45.4424C189.219 41.8789 188.884 37.9458 188.803 34.3134C188.71 28.7024 188.667 23.0907 188.676 17.4789C188.671 14.6455 188.466 8.93034 189.394 6.43627C192.109 2.3067 210.786 0.370555 215.845 0.224083Z" fill="#456771"/>
<path d="M235.511 289.725C237.62 288.273 243.787 288.824 246.451 288.936C281.184 290.404 313.965 282.002 341.953 260.902C347.032 257.073 352.56 252.638 357.917 249.214C358.68 248.726 360.325 248.907 361.165 249.327C362.131 250.541 361.946 252.339 361.657 253.805C356.353 280.411 340.94 306.115 319.525 322.834C305.866 333.5 287.664 341.302 270.12 339.102C248.988 336.452 236.565 319.139 235.076 298.997C234.883 296.405 234.171 292 235.511 289.725Z" fill="#456771"/>
</svg>
