<svg width="143" height="152" viewBox="0 0 143 152" fill="none" xmlns="http://www.w3.org/2000/svg">
<path d="M96.9834 124.068C104.689 123.64 111.284 129.535 111.716 137.239C112.149 144.942 106.256 151.539 98.5503 151.975C90.8399 152.412 84.2359 146.514 83.8036 138.805C83.3706 131.096 89.2723 124.497 96.9834 124.068ZM99.3658 149.734C105.86 148.837 110.387 142.83 109.458 136.341C108.529 129.852 102.497 125.357 96.0117 126.319C89.5721 127.274 85.1146 133.251 86.0372 139.694C86.9598 146.137 92.9165 150.624 99.3658 149.734Z" fill="#456771"/>
<path d="M127.943 124.084C135.65 123.541 142.336 129.352 142.869 137.058C143.404 144.765 137.583 151.442 129.875 151.967C122.179 152.491 115.514 146.684 114.98 138.99C114.448 131.297 120.248 124.626 127.943 124.084ZM128.83 149.84C135.347 149.895 140.681 144.667 140.756 138.151C140.831 131.634 135.617 126.286 129.1 126.192C122.555 126.098 117.178 131.336 117.103 137.88C117.028 144.424 122.284 149.785 128.83 149.84Z" fill="#456771"/>
<path d="M44.8131 124.118C47.8548 123.993 50.8736 124.479 53.6806 125.674C55.0976 126.277 52.6092 127.438 51.1456 126.959C49.6203 126.459 48.23 126.232 46.1381 126.219C43.5088 126.13 41.3055 126.42 39.2616 128.261C37.9527 129.44 37.7167 131.942 38.4668 133.453C39.4098 135.353 41.9245 135.757 43.7844 136.053C45.2128 136.393 46.6836 136.398 48.1239 136.627C50.3996 136.99 52.6498 137.503 54.3047 139.199C57.0792 142.041 56.3612 146.394 53.6536 148.988C51.9558 150.614 49.531 151.205 47.2808 151.575C46.7452 151.659 45.8569 151.613 45.2984 151.61C42.7039 151.601 39.8898 150.927 37.4926 149.91C36.5306 149.503 35.6844 149.412 36.4013 148.085C37.019 146.968 38.0294 147.775 39.0616 148.256C43.9012 150.508 54.072 150.47 53.8147 143.033C53.6908 139.452 49.186 138.876 46.32 138.542C42.3945 138.084 36.1623 137.366 35.8648 132.22C35.3958 126.779 39.8832 124.499 44.8131 124.118Z" fill="#456771"/>
<path d="M8.98209 124.118C12.0238 123.993 15.0425 124.479 17.8495 125.674C19.2666 126.277 16.7782 127.438 15.3145 126.959C13.7892 126.459 12.399 126.232 10.3071 126.219C7.67773 126.13 5.47443 126.42 3.43051 128.261C2.12161 129.44 1.8856 131.942 2.63573 133.453C3.57879 135.353 6.09347 135.757 7.95332 136.053C9.38171 136.393 10.8525 136.398 12.2928 136.627C14.5686 136.99 16.8187 137.503 18.4737 139.199C21.2482 142.041 20.5302 146.394 17.8225 148.988C16.1247 150.614 13.6999 151.205 11.4497 151.575C10.9142 151.659 10.0259 151.613 9.46735 151.61C6.87284 151.601 4.0587 150.927 1.66158 149.91C0.699546 149.503 -0.146642 149.412 0.570231 148.085C1.18793 146.968 2.19832 147.775 3.23059 148.256C8.07013 150.508 18.241 150.47 17.9837 143.033C17.8598 139.452 13.355 138.876 10.489 138.542C6.56348 138.084 0.331247 137.366 0.0337837 132.22C-0.435253 126.779 4.05214 124.499 8.98209 124.118Z" fill="#456771"/>
<path d="M69.361 124.118C72.4027 123.993 75.4214 124.479 78.2284 125.674C79.6455 126.277 77.1571 127.438 75.6934 126.959C74.1681 126.459 72.7779 126.232 70.686 126.219C68.0566 126.13 65.8533 126.42 63.8094 128.261C62.5005 129.44 62.2645 131.942 63.0146 133.453C63.9577 135.353 66.4724 135.757 68.3322 136.053C69.7606 136.393 71.2314 136.398 72.6717 136.627C74.9475 136.99 77.1976 137.503 78.8526 139.199C81.6271 142.041 80.9091 146.394 78.2014 148.988C76.5036 150.614 74.0788 151.205 71.8287 151.575C71.2931 151.659 70.4048 151.613 69.8463 151.61C67.2517 151.601 64.4376 150.927 62.0405 149.91C61.0785 149.503 60.2323 149.412 60.9491 148.085C61.5668 146.968 62.5772 147.775 63.6095 148.256C68.449 150.508 78.6199 150.47 78.3626 143.033C78.2387 139.452 73.7339 138.876 70.8679 138.542C66.9424 138.084 60.7102 137.366 60.4127 132.22C59.9437 126.779 64.4311 124.499 69.361 124.118Z" fill="#456771"/>
<path d="M28.6511 151.59H26.4913V124.545C26.9135 124.535 28.2185 124.545 28.6511 124.545V151.59Z" fill="#456771"/>
<path d="M77.7748 65.4855C78.0518 65.2463 79.0875 64.6714 79.43 64.4927C86.0261 61.0631 92.9017 58.5087 99.2517 54.5817C102.066 52.8461 104.685 50.8125 107.064 48.5158C108.193 47.4338 109.283 46.1697 110.463 45.1624C110.791 44.8819 111.179 44.801 111.605 44.8741C112.136 45.124 112.192 45.829 112.279 46.365C112.771 49.3821 112.684 52.5977 111.517 55.457C110.515 57.9128 108.858 60.0703 106.933 61.8735C106.625 62.1616 106.315 62.4657 106.023 62.773C106.358 62.6821 106.712 62.428 107.044 62.2592C108.534 61.5007 109.89 60.367 111.437 59.7507C111.643 59.6684 111.899 59.7686 112.076 59.8762C112.532 60.3484 112.443 61.5248 112.441 62.198C112.436 66.6984 110.368 70.7364 107.127 73.8266C101.563 79.1343 93.6603 83.0487 86.1232 84.528C82.3447 85.2543 78.4667 85.3916 74.6314 85.3162C73.9352 85.3026 71.9059 85.2877 71.5541 84.7505C71.0737 84.0174 71.1936 81.4878 71.2017 80.5951C71.2456 75.7127 70.5209 70.4829 75.1347 67.2937C76.0127 66.6823 76.8177 66.0518 77.7748 65.4855Z" fill="#456771"/>
<path d="M26.7746 40.9102C27.126 39.9181 27.8239 40.0488 28.6219 40.4218C29.5002 40.8322 30.3485 41.3254 31.1989 41.7921L35.7793 44.3107C38.4708 45.792 41.1479 47.2995 43.8099 48.833C46.9978 50.6557 50.2281 52.5193 53.2633 54.5866C54.8475 55.6657 57.0994 57.2162 58.5163 58.5115C60.9596 60.4006 63.2873 62.8795 64.9754 65.4697C67.4739 69.3024 67.3373 71.5835 67.2929 75.9707C67.2832 76.937 67.3423 78.6221 67.1337 79.5308C67.0671 79.8214 66.9676 80.0872 66.6996 80.2448C65.2695 81.0856 58.811 79.7497 57.0689 79.3046C48.1392 77.0216 41.2668 72.6363 35.0397 65.8839C32.7968 63.452 30.7259 60.8562 29.0372 58.0052C25.6751 52.3281 25.154 47.2557 26.7746 40.9102Z" fill="#456771"/>
<path d="M96.99 17.6816C98.7348 17.9244 101.157 20.6033 102.26 21.9816C106.662 27.4769 103.381 33.9271 99.7866 38.8185C100.142 38.5737 100.496 38.326 100.847 38.0757C101.758 37.3675 102.654 36.6416 103.536 35.8981C104.558 35.0374 105.547 34.1037 106.608 33.2899C106.963 33.0181 107.237 32.9801 107.63 33.1949C108.079 33.4749 108.423 34.9084 108.541 35.4656C111.426 49.198 89.9827 57.2353 80.6469 61.0296L76.1216 62.8575C75.0939 63.2668 73.9884 63.7131 72.9194 63.9993C72.1595 64.2021 71.3217 64.1916 71.2524 63.1802C71.1442 61.6051 71.1999 59.9787 71.1999 58.3899L71.2011 52.8372C71.2122 51.4993 71.0768 49.3561 71.8485 48.2665C72.8 47.0959 74.4138 45.7497 75.5867 44.7892C77.0645 43.6009 78.5342 42.4032 79.9965 41.1962C85.7492 36.3617 90.5435 31.2375 93.7717 24.3705C94.3133 23.2217 94.7968 22.0466 95.2204 20.8494C95.5128 20.0291 95.7874 19.1622 96.1237 18.3602C96.3179 17.8963 96.5454 17.8413 96.99 17.6816Z" fill="#456771"/>
<path d="M26.2677 59.7847C26.8384 59.6506 27.1752 59.9733 27.5317 60.3825C28.7316 61.7592 29.7132 63.3455 30.8323 64.7901C31.8139 66.0648 32.8414 67.3037 33.9125 68.5048C40.3469 75.7227 48.3206 81.0823 58.0321 82.4139C59.6367 82.6259 61.2506 82.7613 62.8682 82.8182C63.6179 82.8497 65.7365 82.867 66.3457 83.0215C66.6099 83.1378 66.7853 83.2299 66.8913 83.5142C67.0726 84.0007 67.054 84.5262 67.0298 85.038C66.8466 88.9227 66.6283 92.9761 65.0019 96.569C63.7998 99.2247 61.7715 101.547 58.9819 102.542C54.7893 104.052 49.7773 102.765 45.8891 100.963C41.4545 98.9045 37.3829 95.7851 34.6326 91.7064C34.0212 90.8001 33.4236 89.8141 33.0271 88.7935C32.8674 88.3824 32.7391 87.933 32.9588 87.5281C33.2093 87.3235 33.3166 87.2895 33.6449 87.3136C34.4964 87.3766 37.1521 88.6464 37.8324 88.6816C37.1336 88.0647 36.2137 87.4829 35.4653 86.8839C28.2935 81.141 25.3854 72.264 25.5612 63.3078C25.5803 62.3354 25.5757 61.2072 25.8342 60.2626C25.9044 60.006 26.0415 59.8991 26.2677 59.7847Z" fill="#456771"/>
<path d="M38.2438 15.7937C38.7757 15.1773 39.7493 14.0971 40.6144 14.6294C41.8403 15.5804 44.7472 20.2934 45.6951 21.7423C46.7211 23.3102 47.7852 24.8527 48.8865 26.3685C52.464 31.2532 56.6704 35.6447 61.3969 39.4294C63.5132 41.1383 65.8217 42.721 67.5656 44.8128C68.7014 46.1746 68.4683 47.2832 68.4671 48.9409L68.4708 52.7478L68.4732 58.607C68.4726 59.5312 68.6099 62.2097 68.2086 63.1061C67.939 63.7095 66.6807 63.2755 66.4171 62.8372C65.3748 61.7875 64.4134 60.6921 63.3706 59.6499C61.2097 57.4918 58.8754 55.5152 56.3912 53.7392C54.1266 52.1349 51.7878 50.638 49.3827 49.2532C47.7737 48.3175 46.1552 47.3982 44.5273 46.4957C39.7619 43.8341 34.7144 41.1374 30.8093 37.2658C29.985 36.4487 29.0078 35.3625 29.0117 34.1473C29.0169 32.5662 29.4924 30.5573 30.1873 29.118C30.2694 28.9393 30.3526 28.7611 30.437 28.5834C30.7904 27.8414 30.9345 27.5711 31.6916 27.3036C32.7613 27.5343 33.6634 28.0712 34.6432 28.5311C36.1893 29.2566 37.7798 30.1821 39.3311 30.865C39.1391 30.4366 38.8473 30.0163 38.6218 29.5986C36.473 25.6189 34.6517 19.5051 38.2438 15.7937Z" fill="#456771"/>
<path d="M71.3447 0.745479C71.4516 0.413065 71.6779 0.297496 71.9877 0.198828C72.9158 0.164216 74.3632 0.490733 75.2981 0.734593C80.3138 2.0429 85.4507 4.5406 89.3188 8.03165C89.6545 8.3348 90.1677 8.85438 90.4385 9.19092C92.4981 11.5046 93.7149 14.3313 93.4454 17.4436C92.764 25.3175 86.1815 32.8261 80.605 37.77C78.8738 39.2991 77.0658 40.7384 75.1868 42.082C74.5605 42.5311 73.9014 43.0036 73.2324 43.3734C72.6932 43.6719 71.8158 43.737 71.4096 43.1966C71.2699 43.0109 71.2068 42.2008 71.2055 41.9699C71.1876 38.7188 71.195 35.4673 71.195 32.2161L71.1981 13.5731L71.2 5.49476C71.2006 4.4114 71.1412 1.65224 71.3447 0.745479Z" fill="#456771"/>
<path d="M65.6167 0.0681212C66.0783 -0.0188321 67.4028 -0.0570785 67.8222 0.16933C68.0392 0.295822 68.2741 0.483205 68.3137 0.739608C68.5493 2.2698 68.4683 4.18647 68.4683 5.73686L68.4541 14.6474L68.4714 31.297C68.4763 34.0239 68.4652 36.7512 68.4837 39.4776C68.4868 39.9414 68.3644 40.5852 67.8246 40.6874C67.1752 40.8014 66.4763 40.2897 65.9711 39.9385C58.0995 34.4654 51.2771 27.2248 46.4902 18.9075C45.42 17.0482 43.7895 13.7629 43.9416 11.6297C44.1106 9.28139 47.7167 7.12122 49.5271 5.95304C50.1426 5.55592 51.3383 4.72589 52.0315 5.21135C52.5573 5.54319 53.4622 7.29023 53.8259 7.92083C54.5316 9.14384 55.2586 10.3545 56.0065 11.5522C56.4701 12.3081 56.9228 13.1082 57.4525 13.8145C57.5224 12.7312 57.4205 11.5355 57.3959 10.4313C57.3675 8.72552 57.3546 7.01959 57.3572 5.31359C57.3557 4.45222 57.2935 2.71482 57.5755 1.95663C58.4011 0.701237 64.0787 0.112649 65.6167 0.0681212Z" fill="#456771"/>
<path d="M71.5959 88.0762C72.237 87.6349 74.1117 87.8024 74.9217 87.8364C85.4805 88.2827 95.4457 85.7284 103.954 79.3141C105.498 78.1501 107.179 76.8019 108.807 75.7608C109.039 75.6125 109.539 75.6675 109.795 75.7955C110.088 76.1645 110.032 76.711 109.944 77.1567C108.332 85.245 103.646 93.0588 97.1362 98.1415C92.9836 101.384 87.4504 103.756 82.1169 103.087C75.6927 102.281 71.9161 97.0182 71.4635 90.8952C71.4048 90.107 71.1884 88.768 71.5959 88.0762Z" fill="#456771"/>
</svg>
