<svg width="910" height="1328" viewBox="0 0 910 1328" fill="none" xmlns="http://www.w3.org/2000/svg">
<path d="M604.798 1177.12C646.166 1174.82 681.575 1206.47 683.896 1247.83C686.221 1289.19 654.579 1324.6 613.21 1326.95C571.814 1329.29 536.357 1297.63 534.036 1256.24C531.711 1214.85 563.397 1179.42 604.798 1177.12ZM617.588 1314.91C652.458 1310.1 676.761 1277.85 671.772 1243.01C666.783 1208.17 634.402 1184.04 599.581 1189.2C565.007 1194.33 541.075 1226.42 546.028 1261.01C550.982 1295.61 582.963 1319.69 617.588 1314.91Z" fill="#456771"/>
<path d="M771.015 1177.2C812.396 1174.28 848.292 1205.49 851.156 1246.86C854.024 1288.23 822.774 1324.08 781.39 1326.9C740.073 1329.72 704.285 1298.54 701.421 1257.23C698.56 1215.93 729.703 1180.11 771.015 1177.2ZM775.777 1315.48C810.77 1315.78 839.408 1287.71 839.811 1252.72C840.211 1217.74 812.22 1189.02 777.227 1188.52C742.09 1188.01 713.221 1216.14 712.817 1251.27C712.414 1286.41 740.632 1315.18 775.777 1315.48Z" fill="#456771"/>
<path d="M324.697 1177.38C341.028 1176.71 357.235 1179.32 372.306 1185.73C376.468 1187.51 376.18 1190.33 374.825 1193.24C373.553 1195.97 370.141 1196.96 367.345 1195.83C355.088 1190.9 346.807 1188.75 331.811 1188.66C317.694 1188.18 305.865 1189.74 294.891 1199.62C287.863 1205.95 286.596 1219.39 290.624 1227.5C295.687 1237.7 309.188 1239.87 319.174 1241.46C326.843 1243.28 334.739 1243.31 342.472 1244.54C354.69 1246.49 366.772 1249.25 375.657 1258.35C390.553 1273.61 386.698 1296.98 372.161 1310.91C363.045 1319.64 350.027 1322.81 337.946 1324.8C335.07 1325.25 330.301 1325 327.302 1324.98C313.373 1324.93 298.264 1321.31 285.394 1315.86C280.228 1313.67 275.685 1313.18 279.534 1306.06C282.851 1300.06 288.275 1304.4 293.817 1306.97C319.801 1319.07 374.407 1318.86 373.026 1278.93C372.361 1259.71 348.175 1256.62 332.787 1254.82C311.712 1252.36 278.251 1248.51 276.654 1220.88C274.136 1191.67 298.228 1179.42 324.697 1177.38Z" fill="#456771"/>
<path d="M132.325 1177.38C148.655 1176.71 164.863 1179.32 179.934 1185.73C184.096 1187.51 183.808 1190.33 182.453 1193.24C181.181 1195.97 177.769 1196.96 174.973 1195.83C162.715 1190.9 154.435 1188.75 139.439 1188.66C125.322 1188.18 113.493 1189.74 102.519 1199.62C95.4914 1205.95 94.2243 1219.39 98.2517 1227.5C103.315 1237.7 116.816 1239.87 126.802 1241.46C134.47 1243.28 142.367 1243.31 150.1 1244.54C162.318 1246.49 174.399 1249.25 183.285 1258.35C198.181 1273.61 194.326 1296.98 179.789 1310.91C170.673 1319.64 157.655 1322.81 145.574 1324.8C142.698 1325.25 137.929 1325 134.93 1324.98C121 1324.93 105.891 1321.31 93.0215 1315.86C87.8564 1313.67 83.3133 1313.18 87.1621 1306.06C90.4785 1300.06 95.9032 1304.4 101.445 1306.97C127.429 1319.07 182.035 1318.86 180.654 1278.93C179.989 1259.71 155.803 1256.62 140.415 1254.82C119.34 1252.36 85.879 1248.51 84.282 1220.88C81.7637 1191.67 105.856 1179.42 132.325 1177.38Z" fill="#456771"/>
<path d="M456.494 1177.38C472.824 1176.71 489.032 1179.32 504.103 1185.73C508.265 1187.51 507.977 1190.33 506.622 1193.24C505.35 1195.97 501.938 1196.96 499.142 1195.83C486.884 1190.9 478.604 1188.75 463.608 1188.66C449.491 1188.18 437.661 1189.74 426.688 1199.62C419.66 1205.95 418.393 1219.39 422.421 1227.5C427.484 1237.7 440.985 1239.87 450.97 1241.46C458.639 1243.28 466.536 1243.31 474.269 1244.54C486.487 1246.49 498.568 1249.25 507.454 1258.35C522.35 1273.61 518.495 1296.98 503.958 1310.91C494.842 1319.64 481.824 1322.81 469.743 1324.8C466.867 1325.25 462.098 1325 459.099 1324.98C445.169 1324.93 430.06 1321.31 417.19 1315.86C412.025 1313.67 407.482 1313.18 411.331 1306.06C414.647 1300.06 420.072 1304.4 425.614 1306.97C451.598 1319.07 506.204 1318.86 504.823 1278.93C504.158 1259.71 479.972 1256.62 464.584 1254.82C443.508 1252.36 410.048 1248.51 408.451 1220.88C405.933 1191.67 430.025 1179.42 456.494 1177.38Z" fill="#456771"/>
<path d="M237.926 1324.88H226.33V1179.68C228.597 1179.62 235.603 1179.68 237.926 1179.68V1324.88Z" fill="#456771"/>
<path d="M546.009 684.701C548.905 682.2 559.734 676.189 563.315 674.321C632.282 638.461 704.171 611.754 770.565 570.693C799.993 552.547 827.378 531.283 852.248 507.27C864.053 495.956 875.451 482.739 887.786 472.207C891.219 469.275 895.272 468.428 899.726 469.193C905.28 471.805 905.868 479.177 906.779 484.781C911.919 516.328 911.014 549.949 898.808 579.846C888.335 605.523 871.009 628.08 850.878 646.935C847.658 649.947 844.419 653.127 841.362 656.339C844.866 655.389 848.57 652.732 852.035 650.968C867.615 643.037 881.799 631.183 897.968 624.739C900.127 623.879 902.804 624.926 904.652 626.051C909.417 630.989 908.486 643.289 908.473 650.328C908.421 697.383 886.79 739.602 852.908 771.914C794.731 827.41 712.104 868.337 633.297 883.804C593.79 891.399 553.243 892.834 513.142 892.045C505.862 891.903 484.644 891.748 480.966 886.131C475.943 878.465 477.197 852.017 477.281 842.683C477.74 791.634 470.163 736.952 518.404 703.607C527.584 697.215 536.001 690.622 546.009 684.701Z" fill="#456771"/>
<path d="M12.756 427.745C16.43 417.371 23.7268 418.738 32.0704 422.638C41.2537 426.929 50.1234 432.086 59.0152 436.966L106.907 463.299C135.049 478.787 163.039 494.55 190.873 510.584C224.205 529.641 257.98 549.127 289.715 570.742C306.279 582.025 329.824 598.237 344.64 611.779C370.186 631.532 394.524 657.451 412.174 684.533C438.297 724.607 436.87 748.457 436.406 794.329C436.303 804.432 436.922 822.051 434.741 831.553C434.044 834.591 433.004 837.37 430.202 839.018C415.249 847.809 347.72 833.841 329.506 829.187C236.138 805.317 164.282 759.465 99.1735 688.863C75.7223 663.436 54.0696 636.295 36.4128 606.485C1.25957 547.128 -4.18837 494.092 12.756 427.745Z" fill="#456771"/>
<path d="M746.916 184.876C765.16 187.414 790.483 215.425 802.022 229.835C848.046 287.293 813.743 354.734 776.156 405.878C779.874 403.318 783.572 400.729 787.244 398.111C796.766 390.707 806.14 383.116 815.359 375.343C826.046 366.343 836.389 356.581 847.483 348.072C851.188 345.23 854.051 344.833 858.163 347.079C862.863 350.007 866.457 364.994 867.686 370.821C897.857 514.403 673.65 598.439 576.037 638.112L528.721 657.224C517.976 661.503 506.417 666.17 495.24 669.162C487.294 671.282 478.534 671.173 477.81 660.598C476.679 644.129 477.261 627.123 477.261 610.512L477.274 552.454C477.39 538.466 475.974 516.057 484.043 504.664C493.992 492.424 510.865 478.349 523.129 468.306C538.58 455.882 553.947 443.359 569.236 430.739C629.385 380.19 679.514 326.613 713.267 254.813C718.93 242.802 723.985 230.515 728.414 217.998C731.471 209.421 734.342 200.356 737.859 191.97C739.889 187.121 742.268 186.545 746.916 184.876Z" fill="#456771"/>
<path d="M7.46567 625.094C13.4327 623.691 16.9535 627.065 20.6817 631.344C33.2274 645.738 43.491 662.324 55.1917 677.429C65.4553 690.757 76.1979 703.71 87.397 716.269C154.674 791.737 238.045 847.776 339.586 861.698C356.364 863.915 373.238 865.331 390.151 865.926C397.99 866.255 420.142 866.436 426.511 868.052C429.273 869.267 431.108 870.23 432.216 873.204C434.112 878.29 433.916 883.784 433.664 889.136C431.749 929.753 429.466 972.135 412.46 1009.7C399.891 1037.47 378.684 1061.75 349.517 1072.16C305.681 1087.94 253.276 1074.48 212.622 1055.64C166.255 1034.12 123.683 1001.51 94.9266 958.859C88.5342 949.383 82.2859 939.074 78.14 928.402C76.4701 924.104 75.1287 919.405 77.4256 915.171C80.0445 913.032 81.1668 912.676 84.5997 912.929C93.503 913.588 121.27 926.864 128.383 927.232C121.076 920.782 111.458 914.7 103.633 908.436C28.6464 848.39 -1.75966 755.574 0.0782911 661.93C0.278055 651.762 0.230201 639.966 2.93251 630.09C3.66691 627.408 5.10018 626.29 7.46567 625.094Z" fill="#456771"/>
<path d="M132.68 165.135C138.241 158.691 148.421 147.396 157.466 152.961C170.284 162.906 200.678 212.184 210.589 227.333C221.316 243.726 232.442 259.854 243.957 275.703C281.363 326.777 325.344 372.693 374.763 412.264C396.89 430.133 421.028 446.681 439.261 468.552C451.137 482.791 448.7 494.381 448.687 511.714L448.726 551.519L448.751 612.781C448.745 622.444 450.18 650.45 445.984 659.822C443.166 666.131 430.009 661.593 427.253 657.011C416.355 646.036 406.303 634.582 395.4 623.685C372.806 601.12 348.399 580.454 322.424 561.885C298.746 545.111 274.293 529.459 249.145 514.98C232.322 505.196 215.4 495.584 198.379 486.148C148.552 458.319 95.7774 430.123 54.9461 389.643C46.3278 381.099 36.1108 369.742 36.1515 357.036C36.2051 340.504 41.1773 319.501 48.4431 304.451C49.3016 302.582 50.1718 300.719 51.0536 298.862C54.7489 291.103 56.2552 288.277 64.1714 285.48C75.3562 287.892 84.7878 293.506 95.0326 298.314C111.199 305.901 127.829 315.577 144.048 322.717C142.041 318.238 138.99 313.843 136.632 309.476C114.165 267.865 95.1212 203.941 132.68 165.135Z" fill="#456771"/>
<path d="M478.774 7.79591C479.892 4.32026 482.258 3.11191 485.497 2.08026C495.201 1.71837 510.335 5.13235 520.11 7.68209C572.553 21.3614 626.263 47.4767 666.707 83.9783C670.217 87.148 675.583 92.5806 678.415 96.0994C699.949 120.291 712.672 149.846 709.853 182.387C702.729 264.715 633.904 343.223 575.598 394.916C557.496 410.903 538.593 425.952 518.946 440C512.398 444.697 505.506 449.637 498.511 453.503C492.874 456.624 483.7 457.305 479.453 451.655C477.992 449.713 477.332 441.242 477.319 438.828C477.132 404.836 477.209 370.838 477.209 336.845L477.242 141.918L477.261 57.4532C477.268 46.1258 476.647 17.2768 478.774 7.79591Z" fill="#456771"/>
<path d="M418.89 0.712258C423.716 -0.196904 437.565 -0.596799 441.95 1.77047C444.219 3.09305 446.676 5.05228 447.089 7.73316C449.552 23.7324 448.705 43.7727 448.705 59.9833L448.557 153.149L448.738 327.234C448.79 355.745 448.673 384.261 448.867 412.768C448.899 417.617 447.619 424.349 441.976 425.417C435.186 426.61 427.878 421.259 422.595 417.587C340.292 360.362 268.959 284.656 218.907 197.692C207.718 178.252 190.67 143.901 192.26 121.598C194.027 97.0439 231.732 74.4577 250.661 62.2435C257.097 58.0914 269.598 49.4128 276.847 54.4886C282.344 57.9582 291.806 76.2248 295.608 82.8183C302.987 95.6058 310.588 108.264 318.409 120.787C323.255 128.691 327.989 137.056 333.527 144.441C334.258 133.114 333.192 120.613 332.935 109.067C332.638 91.2319 332.504 73.3951 332.53 55.5577C332.515 46.5514 331.864 28.3855 334.813 20.458C343.445 7.33196 402.809 1.17783 418.89 0.712258Z" fill="#456771"/>
<path d="M481.399 920.905C488.103 916.29 507.705 918.041 516.174 918.397C626.574 923.063 730.767 896.356 819.73 829.29C835.873 817.119 853.444 803.022 870.473 792.138C872.897 790.587 878.127 791.162 880.797 792.5C883.868 796.359 883.28 802.072 882.362 806.732C865.501 891.302 816.511 973.001 748.442 1026.14C705.024 1060.05 647.171 1084.85 591.405 1077.85C524.235 1069.43 484.748 1014.4 480.016 950.378C479.401 942.137 477.139 928.137 481.399 920.905Z" fill="#456771"/>
</svg>
