<?xml version="1.0" encoding="UTF-8"?>
<svg version="1.1" xmlns="http://www.w3.org/2000/svg" width="2500" height="1000">
<path d="M0 0 C27.38008149 23.68447099 48.72566941 60.41861358 52.0632019 96.86251831 C52.47494294 103.80193081 52.48473435 110.73826494 52.4375 117.6875 C52.43402557 119.27182327 52.43402557 119.27182327 52.43048096 120.88815308 C52.36054117 137.01538163 51.336471 151.82784955 45.8125 167.125 C45.56693359 167.846875 45.32136719 168.56875 45.06835938 169.3125 C43.55783627 173.70674902 41.78025695 177.91112049 39.8125 182.125 C38.98878906 183.91550781 38.98878906 183.91550781 38.1484375 185.7421875 C32.72032631 197.19032471 26.13626133 208.0098551 19.70214844 218.91015625 C16.56066814 224.25473151 13.46813694 229.6273477 10.375 235 C9.11588746 237.18489701 7.85677287 239.36979284 6.59765625 241.5546875 C5.97262207 242.63975586 5.34758789 243.72482422 4.70361328 244.84277344 C1.57569852 250.27159942 -1.55608448 255.69819281 -4.6875 261.125 C-5.93751879 263.29165583 -7.18751878 265.4583225 -8.4375 267.625 C-15.9375 280.625 -23.4375 293.625 -30.9375 306.625 C-31.55633057 307.69766113 -32.17516113 308.77032227 -32.81274414 309.87548828 C-34.06185518 312.04057071 -35.31104129 314.20560982 -36.56030273 316.37060547 C-39.69952309 321.81115706 -42.83740563 327.25247216 -45.97265625 332.6953125 C-51.99497375 343.14706279 -58.03430257 353.58793115 -64.125 364 C-69.8539331 373.79739989 -75.49954281 383.64112548 -81.12084961 393.50048828 C-88.09749422 405.73500059 -95.13796064 417.93236193 -102.1875 430.125 C-103.5075 430.125 -104.8275 430.125 -106.1875 430.125 C-106.53828613 429.49335937 -106.88907227 428.86171875 -107.25048828 428.2109375 C-113.87109457 416.30371167 -120.54560527 404.44016489 -127.4375 392.6875 C-128.5966664 390.70070297 -129.7555268 388.71372737 -130.9140625 386.7265625 C-132.5020855 384.00304265 -134.09378234 381.28248184 -135.70605469 378.57324219 C-145.54260025 362.03692355 -151.15971067 346.54503487 -146.875 327 C-143.89683677 316.92405402 -138.48358085 308.13300147 -133.1875 299.125 C-132.09685241 297.24916506 -131.00702437 295.3728534 -129.91796875 293.49609375 C-127.5960159 289.50261662 -125.26329552 285.51563497 -122.92578125 281.53125 C-118.96135976 274.75847806 -115.07129674 267.94414172 -111.1875 261.125 C-105.67535836 251.44990809 -100.10325042 241.81217195 -94.4765625 232.203125 C-89.6500014 223.94773995 -84.90362007 215.6478546 -80.17001343 207.33901978 C-75.49496709 199.13495232 -70.77256492 190.96034151 -66 182.8125 C-61.31115271 174.79519953 -56.65657111 166.759539 -52.0625 158.6875 C-51.52987549 157.75832764 -50.99725098 156.82915527 -50.44848633 155.87182617 C-39.96412862 137.36872968 -36.21840899 119.08787958 -41.85546875 98.25 C-44.62059181 89.08826818 -49.75412135 80.21565882 -56.1875 73.125 C-56.8475 72.795 -57.5075 72.465 -58.1875 72.125 C-58.1875 71.465 -58.1875 70.805 -58.1875 70.125 C-57.40246094 69.7846875 -56.61742187 69.444375 -55.80859375 69.09375 C-45.94947563 64.54524888 -40.21540556 59.55831241 -36.01171875 49.49609375 C-34.93836982 46.40830797 -34.07744251 43.26992167 -33.1875 40.125 C-42.53301108 40.18643713 -51.8782226 40.26370405 -61.22343254 40.36071491 C-65.56364937 40.40528243 -69.90377527 40.44456784 -74.24414062 40.47143555 C-78.43943153 40.49760534 -82.63436994 40.53810235 -86.82944107 40.58818626 C-88.42321484 40.60476311 -90.01704946 40.61633419 -91.61089706 40.62261391 C-106.37418798 40.40927154 -106.37418798 40.40927154 -119.25 46.6875 C-121.18731299 48.95257359 -121.18731299 48.95257359 -122.1875 51.125 C-125.02155909 51.8067222 -127.82705343 52.3932595 -130.6875 52.9375 C-139.05717562 54.68039567 -146.52463875 56.44655309 -152.125 63.375 C-154.64589874 67.31281769 -155.49271029 71.55183192 -156.1875 76.125 C-155.72601563 75.72667969 -155.26453125 75.32835937 -154.7890625 74.91796875 C-148.02197242 69.42137977 -141.49920381 66.69036579 -132.6875 67.1875 C-127.09693259 67.90017857 -122.28960342 69.8177348 -117.1875 72.125 C-116.35734375 72.42019531 -115.5271875 72.71539062 -114.671875 73.01953125 C-104.96369406 77.33936648 -99.93965377 87.75527509 -96.1875 97.125 C-93.52196925 105.77607526 -93.59426079 114.18362782 -95.75 122.9375 C-96.04003906 124.22269531 -96.33007812 125.50789062 -96.62890625 126.83203125 C-99.58219028 136.36983491 -106.83987963 144.53996288 -112.875 152.3125 C-114.28960715 154.15062264 -115.70366474 155.98916834 -117.1171875 157.828125 C-118.15311035 159.17293945 -118.15311035 159.17293945 -119.20996094 160.54492188 C-122.00617887 164.19312325 -124.75469524 167.87593486 -127.5 171.5625 C-132.08600895 177.70487468 -136.78553102 183.74846287 -141.5390625 189.76171875 C-144.1179176 193.02720108 -146.65713665 196.32187298 -149.1875 199.625 C-154.00618347 205.90999043 -158.89464257 212.1385648 -163.79638672 218.35888672 C-166.55620065 221.86265892 -169.31049062 225.37077794 -172.06445312 228.87915039 C-174.33843062 231.77524619 -176.61609434 234.66826675 -178.90234375 237.5546875 C-179.8100542 238.70299983 -180.71760625 239.85143739 -181.625 241 C-182.07037109 241.56219238 -182.51574219 242.12438477 -182.97460938 242.70361328 C-185.52742072 245.94575673 -188.01022724 249.22798312 -190.44140625 252.5625 C-190.98289307 253.30129395 -191.52437988 254.04008789 -192.08227539 254.80126953 C-193.13555422 256.24398118 -194.18062845 257.69272619 -195.21655273 259.14794922 C-196.46913858 260.86125385 -197.8209359 262.50115068 -199.1875 264.125 C-200.1775 264.125 -201.1675 264.125 -202.1875 264.125 C-202.44740723 263.64482422 -202.70731445 263.16464844 -202.97509766 262.66992188 C-208.47968094 252.52450006 -214.10420487 242.46040908 -219.9375 232.5 C-220.51854492 231.50742187 -221.09958984 230.51484375 -221.69824219 229.4921875 C-222.90365706 227.43438617 -224.10939114 225.3767718 -225.31542969 223.31933594 C-252.1639383 177.50740497 -270.4942882 133.17367742 -257.1875 79.125 C-250.92464886 55.14234136 -239.30200768 32.35159688 -222.21484375 14.2734375 C-220.37813494 12.32702161 -218.69382851 10.31976551 -217 8.25 C-161.33530061 -55.05744988 -61.14127948 -51.5387227 0 0 Z M-107.1875 86.125 C-106.1875 88.125 -106.1875 88.125 -106.1875 88.125 Z M-106.1875 89.125 C-105.1875 92.125 -105.1875 92.125 -105.1875 92.125 Z M-105.1875 95.125 C-104.1875 99.125 -104.1875 99.125 -104.1875 99.125 Z M-106.1875 102.125 C-105.1875 105.125 -105.1875 105.125 -105.1875 105.125 Z M-107.1875 106.125 C-106.1875 108.125 -106.1875 108.125 -106.1875 108.125 Z M-110.1875 112.125 C-109.1875 114.125 -109.1875 114.125 -109.1875 114.125 Z M-216.1875 127.125 C-216.1875 127.455 -216.1875 127.785 -216.1875 128.125 C-189.1275 128.125 -162.0675 128.125 -134.1875 128.125 C-134.1875 127.795 -134.1875 127.465 -134.1875 127.125 C-161.2475 127.125 -188.3075 127.125 -216.1875 127.125 Z M-244.1875 145.125 C-243.1875 147.125 -243.1875 147.125 -243.1875 147.125 Z M-245.1875 147.125 C-244.1875 149.125 -244.1875 149.125 -244.1875 149.125 Z M-246.1875 149.125 C-245.1875 151.125 -245.1875 151.125 -245.1875 151.125 Z M-248.1875 154.125 C-247.1875 156.125 -247.1875 156.125 -247.1875 156.125 Z M-249.1875 158.125 C-248.1875 161.125 -248.1875 161.125 -248.1875 161.125 Z M-249.1875 172.125 C-248.1875 174.125 -248.1875 174.125 -248.1875 174.125 Z " fill="#FC8911" transform="translate(332.1875,303.875)"/>
<path d="M0 0 C16.53618649 15.44750517 22.39068663 39.37632396 24.25 61.1875 C24.38026747 65.19539576 24.38432862 69.18002955 24.25 73.1875 C12.75571549 75.01111245 1.23696016 76.63055173 -10.30737305 78.10266113 C-11.7161503 78.28277472 -13.12468569 78.4647913 -14.53295898 78.64880371 C-21.96494314 79.61690932 -29.24280485 80.4275316 -36.75 80.1875 C-36.81731323 79.23665527 -36.81731323 79.23665527 -36.88598633 78.26660156 C-37.367873 57.47345033 -37.367873 57.47345033 -45.75 39.1875 C-49.55488786 36.20529059 -52.93663433 35.34794552 -57.75 35.1875 C-61.9544986 35.80155907 -65.44315598 36.75092086 -68.36328125 39.9609375 C-74.67421471 49.67865804 -75.07305707 60.58410875 -73.1328125 71.734375 C-67.92706679 90.99102728 -49.49428734 106.35451224 -34.5 118.4375 C-29.36600379 122.58839055 -24.54229097 127.01033356 -19.73583984 131.53027344 C-16.75786405 134.33007974 -13.76247245 137.06532968 -10.625 139.6875 C10.90419292 158.46828531 26.7115722 183.59515976 30.25 212.1875 C31.88921261 237.26583709 29.75505361 259.95272042 13.8125 280.1875 C-0.35242233 296.30371266 -18.39355924 305.63387442 -39.75 308.1875 C-44.316863 308.4700696 -48.86273121 308.52177259 -53.4375 308.5 C-54.66484863 308.49508545 -55.89219727 308.4901709 -57.15673828 308.48510742 C-79.93419458 308.19255018 -102.2202771 302.61852497 -118.890625 286.234375 C-137.33181445 267.15132353 -143.78436367 238.07927725 -143.875 212.1875 C-143.83699974 210.52074571 -143.79600204 208.85405264 -143.75 207.1875 C-132.44948988 204.96958708 -121.1178757 203.09374344 -109.7277832 201.39770508 C-107.02674238 200.99466436 -104.32684841 200.58446506 -101.62695312 200.17382812 C-99.89329302 199.91363671 -98.15957128 199.6538555 -96.42578125 199.39453125 C-95.22735344 199.21178398 -95.22735344 199.21178398 -94.00471497 199.02534485 C-90.21670537 198.46665362 -86.59228774 198.03944327 -82.75 198.1875 C-82.69392578 199.73244141 -82.69392578 199.73244141 -82.63671875 201.30859375 C-81.59854576 225.6114882 -81.59854576 225.6114882 -71.4375 247.1875 C-64.728715 252.18008419 -59.21348537 254.29513735 -50.75 253.1875 C-47.16807999 252.19252222 -45.45951311 251.37154278 -43.53515625 248.16015625 C-37.97776117 236.27405502 -38.91761402 223.59992677 -42.64453125 211.21484375 C-49.44943208 192.964244 -66.11013032 178.11254728 -81.109375 166.32421875 C-84.10645305 163.89906832 -86.93215837 161.31529382 -89.75 158.6875 C-93.53724101 155.15799415 -97.39272314 151.80057799 -101.4375 148.5625 C-123.24005117 130.8771688 -139.61860455 106.82761698 -143.5 78.6875 C-145.50880792 52.86696896 -141.62942282 28.18279587 -124.5 8 C-94.47151873 -24.06086579 -33.57355507 -28.03448369 0 0 Z " fill="#FD7C0E" transform="translate(690.75,324.8125)"/>
<path d="M0 0 C15.26474078 13.85183001 21.52478819 30.87538431 23.1081543 51.09008789 C23.24195892 54.39806465 23.26498369 57.70128452 23.26928711 61.01171875 C23.27425201 61.94826294 23.27921692 62.88480713 23.28433228 63.84973145 C23.29881783 66.91813928 23.30573455 69.98649536 23.3112793 73.05493164 C23.31552036 74.64393878 23.31552036 74.64393878 23.31984711 76.26504707 C23.3347877 81.87608204 23.3440484 87.48709166 23.34838867 93.09814453 C23.35385239 98.84010843 23.37785096 104.58183272 23.40636063 110.32372189 C23.42515742 114.78608334 23.43020167 119.24838915 23.43172455 123.71078682 C23.4347155 125.82469549 23.4426205 127.93860405 23.45590973 130.05247307 C23.60099305 154.91296105 21.54113635 178.31753416 3.94799805 197.43774414 C-12.69697204 213.1160372 -34.33864277 217.5292064 -56.4543457 217.46508789 C-57.51307892 217.46427216 -57.51307892 217.46427216 -58.59320068 217.46343994 C-80.2331619 217.38684807 -100.29130842 212.99525116 -116.8918457 198.09008789 C-130.86701865 183.94264779 -136.03151593 165.69437248 -136.05297852 146.27392578 C-136.05794342 145.19499054 -136.06290833 144.1160553 -136.06802368 143.00442505 C-136.08260746 139.44052486 -136.08944275 135.87666925 -136.0949707 132.31274414 C-136.10072738 129.82376607 -136.10648505 127.334788 -136.11224365 124.84580994 C-136.12274437 119.62474359 -136.12859242 114.4036926 -136.13208008 109.18261719 C-136.13676309 102.52543012 -136.16154398 95.86842809 -136.19005203 89.21129704 C-136.20877514 84.06625294 -136.21388925 78.92125744 -136.21541595 73.77618217 C-136.21842365 71.32403886 -136.2263877 68.87189601 -136.23960114 66.41978645 C-136.36318177 41.71276438 -134.07929597 21.45898496 -116.7043457 2.40258789 C-105.65811449 -8.01885649 -90.75297642 -13.76552076 -75.8918457 -15.90991211 C-75.16481445 -16.02077148 -74.4377832 -16.13163086 -73.6887207 -16.24584961 C-49.04577397 -19.34717284 -19.47976509 -16.6879743 0 0 Z M-65.8918457 29.09008789 C-72.10438574 36.47797334 -72.18810926 44.28396394 -72.16650391 53.48217773 C-72.17161484 54.60991104 -72.17672577 55.73764435 -72.18199158 56.89955139 C-72.19585865 60.61676381 -72.1949329 64.33379022 -72.19262695 68.05102539 C-72.19651552 70.64262968 -72.20085052 73.23423334 -72.20561218 75.82583618 C-72.21306825 81.25443866 -72.21292649 86.68296943 -72.20751953 92.11157227 C-72.20148288 98.36855717 -72.21378796 104.62531702 -72.2350896 110.88226354 C-72.25489087 116.92269148 -72.25787209 122.96300234 -72.25435448 129.00346756 C-72.25486686 131.56383416 -72.26008895 134.12420442 -72.2701664 136.68455124 C-72.28254545 140.26961192 -72.27572963 143.85415616 -72.26416016 147.43920898 C-72.27180389 148.48989059 -72.27944763 149.5405722 -72.287323 150.62309265 C-72.23129467 158.50466574 -71.45648903 165.74260917 -65.8293457 171.65258789 C-62.09607616 174.50604232 -58.7965547 174.79097714 -54.1887207 174.47680664 C-49.66077601 173.71444861 -47.63440031 171.95993757 -44.7043457 168.52758789 C-40.68642252 160.90738876 -40.5956764 152.50277954 -40.6171875 144.04760742 C-40.61207657 142.99252991 -40.60696564 141.93745239 -40.60169983 140.85040283 C-40.58789349 137.39117632 -40.58875384 133.93215105 -40.59106445 130.47290039 C-40.58717266 128.04971239 -40.582837 125.62652507 -40.57807922 123.20333862 C-40.57063629 118.13480412 -40.57089436 113.0663393 -40.57617188 107.99780273 C-40.58196435 101.52649055 -40.56503113 95.05546477 -40.5418272 88.58419991 C-40.52704287 83.5825333 -40.52622456 78.58093493 -40.52933693 73.57925034 C-40.5288261 71.19441028 -40.52363346 68.80956616 -40.51352501 66.42474747 C-40.50108646 63.0800987 -40.5079968 59.73599846 -40.51953125 56.39135742 C-40.51188751 55.42162994 -40.50424377 54.45190247 -40.49636841 53.45278931 C-40.55818376 45.27807566 -40.96015777 35.43042795 -47.0793457 29.40258789 C-53.34413299 24.94469715 -59.32176391 25.17330836 -65.8918457 29.09008789 Z " fill="#FD7C0E" transform="translate(1843.891845703125,414.909912109375)"/>
<path d="M0 0 C19.8 0 39.6 0 60 0 C61.4244408 3.561102 62.42992191 6.45211673 63.22756958 10.11897278 C63.44908691 11.12713043 63.67060425 12.13528809 63.89883423 13.17399597 C64.13476288 14.26875748 64.37069153 15.36351898 64.61376953 16.49145508 C64.86765442 17.65286011 65.12153931 18.81426514 65.38311768 20.01086426 C66.07619426 23.18541586 66.76542628 26.36077254 67.45294428 29.53653169 C68.17319386 32.85907224 68.8983684 36.18053748 69.62301636 39.50212097 C70.99348247 45.78753569 72.35953056 52.07390198 73.72398555 58.36062402 C75.2780118 65.5197545 76.83697307 72.67780741 78.39634538 79.83577502 C81.60304787 94.55599273 84.80356479 109.27754909 88 124 C92.81154785 96.79656633 97.45044581 69.56750957 101.97052002 42.31420898 C102.90938531 36.65622954 103.8508798 30.99868698 104.79189301 25.34106445 C106.19652278 16.89436164 107.59797736 8.4471378 109 0 C129.13 0 149.26 0 170 0 C169.31465465 6.16810812 168.48514691 11.93807792 167.11181641 17.93969727 C166.82468246 19.22168456 166.82468246 19.22168456 166.53174782 20.52957058 C165.89294368 23.37623679 165.24723122 26.22128987 164.6015625 29.06640625 C164.13821965 31.1250656 163.67532092 33.18382496 163.21282959 35.24267578 C161.95290605 40.84559338 160.68697117 46.44713652 159.4196701 52.04838943 C158.08387786 57.95539613 156.75228066 63.86334828 155.42041016 69.77124023 C153.73139865 77.26279091 152.04201747 84.7542567 150.35055542 92.24525452 C146.5388117 109.13278315 142.75821735 126.02705573 138.99682152 142.92586619 C137.92349053 147.74740461 136.84835884 152.5685386 135.77194214 157.38938904 C135.62112666 158.06483456 135.47031119 158.74028008 135.31492555 159.43619365 C134.55942549 162.81944408 133.80368198 166.20264004 133.04777336 169.58579922 C131.56850377 176.20776555 130.09256237 182.83044181 128.62432861 189.4548645 C127.23544861 195.71964587 125.83755701 201.9823524 124.43320465 208.24368286 C123.92011101 210.53872451 123.41022545 212.83448636 122.90395355 215.13104248 C111.71609157 265.84767615 111.71609157 265.84767615 89.421875 280.5078125 C73.75542028 290.16037008 55.79514471 292.3803396 37.6875 292.125 C33.500625 292.08375 29.31375 292.0425 25 292 C25 277.15 25 262.3 25 247 C31.27 246.34 37.54 245.68 44 245 C51.89252428 243.1202897 51.89252428 243.1202897 57.625 237.9375 C61.17116361 230.36160501 60.3891551 223.17916051 58.4765625 215.17578125 C58.30081696 214.41566238 58.12507141 213.65554352 57.94400024 212.87239075 C55.26451357 201.56567509 52.06953066 190.38680679 48.93756866 179.19931793 C47.96980646 175.73847578 47.00755338 172.27610117 46.04443359 168.81396484 C43.85961109 160.9647012 41.66716015 153.11757943 39.47338867 145.27081299 C37.91673427 139.70281387 36.3616361 134.13438058 34.80664062 128.56591797 C30.07198106 111.61215255 25.33557794 94.6588756 20.59117699 77.70783329 C19.28671934 73.04718951 17.98286599 68.38637898 16.68063354 63.72511292 C14.26799268 55.09122376 11.84969935 46.45905352 9.41099739 37.83248329 C8.27914991 33.82656516 7.15119442 29.81955648 6.0237236 25.81240463 C5.48614164 23.90575696 4.94670446 21.9996313 4.40532303 20.09405899 C3.659245 17.46748527 2.91950895 14.83920214 2.18115234 12.21044922 C1.9587878 11.43392376 1.73642326 10.6573983 1.5073204 9.85734177 C0.54397037 6.40503482 0 3.61521404 0 0 Z " fill="#FD7C0E" transform="translate(1247,402)"/>
<path d="M0 0 C5.77277579 5.07703409 9.79391516 10.8584907 13.3125 17.625 C13.62598389 18.21466553 13.93946777 18.80433105 14.26245117 19.41186523 C22.07140217 35.46185835 21.58575951 52.38055171 21.54164171 69.7916491 C21.53725684 73.41985092 21.55721288 77.04792105 21.57479858 80.67607117 C21.60489116 87.55304635 21.61673491 94.42990659 21.62037504 101.30694216 C21.62702742 113.55799506 21.65684484 125.80896348 21.7054714 138.05992001 C21.72161837 142.33360455 21.72717931 146.60712353 21.72413623 150.880835 C21.71904184 168.34930843 22.51764735 185.59683906 24 203 C24.33 207.62 24.66 212.24 25 217 C5.86 217 -13.28 217 -33 217 C-34.32 208.42 -35.64 199.84 -37 191 C-37.33 190.34 -37.66 189.68 -38 189 C-38.32871094 189.75023437 -38.65742188 190.50046875 -38.99609375 191.2734375 C-43.98871665 202.01637134 -51.77365969 213.27916023 -63.21508789 217.89331055 C-69.41618457 219.82817471 -75.02128122 220.46112772 -81.5 220.375 C-82.37269531 220.38660156 -83.24539062 220.39820313 -84.14453125 220.41015625 C-97.8138782 220.3494036 -108.82520774 214.76736199 -118.64453125 205.49609375 C-130.82322764 192.59031101 -133.7357251 177.28519697 -133.52148438 160.15869141 C-132.85069209 140.11724726 -125.08603488 124.90150167 -111 111 C-110.33097656 110.33226562 -109.66195312 109.66453125 -108.97265625 108.9765625 C-91.12823912 92.30165263 -64.70783641 83.46300406 -42 76 C-41.90034431 71.73167019 -41.82816609 67.46397531 -41.78027344 63.19482422 C-41.76028705 61.74581083 -41.73308803 60.29687675 -41.69824219 58.84814453 C-41.2998164 47.30127081 -41.2998164 47.30127081 -46 37 C-49.38230032 34.88059185 -53.13264108 34.67383942 -57.03515625 35.35546875 C-60.05184421 36.41227026 -61.79298874 37.69787546 -63.58984375 40.3203125 C-65.65893601 45.71943968 -66.09615492 51.14897008 -66.6875 56.875 C-66.88182617 58.62296875 -66.88182617 58.62296875 -67.08007812 60.40625 C-67.39695502 63.26987824 -67.70324475 66.13422853 -68 69 C-75.36296719 68.76158101 -82.72576518 68.518506 -90.08838272 68.26950932 C-93.5072563 68.15403225 -96.92616741 68.040151 -100.34521484 67.92993164 C-104.27718324 67.803107 -108.20889971 67.66931452 -112.140625 67.53515625 C-113.36678528 67.49656998 -114.59294556 67.4579837 -115.85626221 67.41822815 C-116.99714294 67.37826218 -118.13802368 67.3382962 -119.31347656 67.29711914 C-120.81905121 67.24715538 -120.81905121 67.24715538 -122.3550415 67.19618225 C-124.69986368 67.02226175 -126.74999362 66.65865607 -129 66 C-128.6227564 43.67403775 -123.18474622 20.64442648 -106.8515625 4.5546875 C-80.40114863 -19.14198465 -28.17818574 -22.15869715 0 0 Z M-62.4375 120.75 C-72.03261268 130.74095066 -75.54645306 142.55321198 -75.27734375 156.19140625 C-74.78887152 162.89929961 -73.06448597 168.57257709 -67.875 173.0625 C-62.87863181 176.42961769 -58.9661828 176.77630156 -53 176 C-47.76352162 173.85375631 -44.20291227 170.6472624 -41 166 C-40.42709581 163.08192162 -40.42709581 163.08192162 -40.54589844 159.92456055 C-40.54620056 158.72369308 -40.54650269 157.52282562 -40.54681396 156.28556824 C-40.56745911 154.99894791 -40.58810425 153.71232758 -40.609375 152.38671875 C-40.61684173 151.04865873 -40.62253262 149.71058772 -40.62652588 148.37251282 C-40.64174869 144.86234992 -40.68099991 141.35285626 -40.7253418 137.84295654 C-40.76636793 134.25672457 -40.78455245 130.67038373 -40.8046875 127.08398438 C-40.84749867 120.05571585 -40.91570832 113.02789012 -41 106 C-47.67003727 106 -57.7782564 116.42817466 -62.4375 120.75 Z " fill="#FD7C0E" transform="translate(2211,412)"/>
<path d="M0 0 C5.77277579 5.07703409 9.79391516 10.8584907 13.3125 17.625 C13.62598389 18.21466553 13.93946777 18.80433105 14.26245117 19.41186523 C22.07140217 35.46185835 21.58575951 52.38055171 21.54164171 69.7916491 C21.53725684 73.41985092 21.55721288 77.04792105 21.57479858 80.67607117 C21.60489116 87.55304635 21.61673491 94.42990659 21.62037504 101.30694216 C21.62702742 113.55799506 21.65684484 125.80896348 21.7054714 138.05992001 C21.72161837 142.33360455 21.72717931 146.60712353 21.72413623 150.880835 C21.71904184 168.34930843 22.51764735 185.59683906 24 203 C24.33 207.62 24.66 212.24 25 217 C5.86 217 -13.28 217 -33 217 C-34.32 208.42 -35.64 199.84 -37 191 C-37.33 190.34 -37.66 189.68 -38 189 C-38.32871094 189.75023437 -38.65742187 190.50046875 -38.99609375 191.2734375 C-43.98871665 202.01637134 -51.77365969 213.27916023 -63.21508789 217.89331055 C-69.41618457 219.82817471 -75.02128122 220.46112772 -81.5 220.375 C-82.37269531 220.38660156 -83.24539063 220.39820313 -84.14453125 220.41015625 C-97.8138782 220.3494036 -108.82520774 214.76736199 -118.64453125 205.49609375 C-130.82322764 192.59031101 -133.7357251 177.28519697 -133.52148438 160.15869141 C-132.85069209 140.11724726 -125.08603488 124.90150167 -111 111 C-110.33097656 110.33226562 -109.66195312 109.66453125 -108.97265625 108.9765625 C-91.12823912 92.30165263 -64.70783641 83.46300406 -42 76 C-41.90034431 71.73167019 -41.82816609 67.46397531 -41.78027344 63.19482422 C-41.76028705 61.74581083 -41.73308803 60.29687675 -41.69824219 58.84814453 C-41.2998164 47.30127081 -41.2998164 47.30127081 -46 37 C-49.38230032 34.88059185 -53.13264108 34.67383942 -57.03515625 35.35546875 C-60.05184421 36.41227026 -61.79298874 37.69787546 -63.58984375 40.3203125 C-65.65893601 45.71943968 -66.09615492 51.14897008 -66.6875 56.875 C-66.88182617 58.62296875 -66.88182617 58.62296875 -67.08007812 60.40625 C-67.39695502 63.26987824 -67.70324475 66.13422853 -68 69 C-75.36296719 68.76158101 -82.72576518 68.518506 -90.08838272 68.26950932 C-93.5072563 68.15403225 -96.92616741 68.040151 -100.34521484 67.92993164 C-104.27718324 67.803107 -108.20889971 67.66931452 -112.140625 67.53515625 C-113.36678528 67.49656998 -114.59294556 67.4579837 -115.85626221 67.41822815 C-116.99714294 67.37826218 -118.13802368 67.3382962 -119.31347656 67.29711914 C-120.81905121 67.24715538 -120.81905121 67.24715538 -122.3550415 67.19618225 C-124.69986368 67.02226175 -126.74999362 66.65865607 -129 66 C-128.6227564 43.67403775 -123.18474622 20.64442648 -106.8515625 4.5546875 C-80.40114863 -19.14198465 -28.17818574 -22.15869715 0 0 Z M-62.4375 120.75 C-72.03261268 130.74095066 -75.54645306 142.55321198 -75.27734375 156.19140625 C-74.78887152 162.89929961 -73.06448597 168.57257709 -67.875 173.0625 C-62.87863181 176.42961769 -58.9661828 176.77630156 -53 176 C-47.76352162 173.85375631 -44.20291227 170.6472624 -41 166 C-40.42709581 163.08192162 -40.42709581 163.08192162 -40.54589844 159.92456055 C-40.54620056 158.72369308 -40.54650269 157.52282562 -40.54681396 156.28556824 C-40.56745911 154.99894791 -40.58810425 153.71232758 -40.609375 152.38671875 C-40.61684173 151.04865873 -40.62253262 149.71058772 -40.62652588 148.37251282 C-40.64174869 144.86234992 -40.68099991 141.35285626 -40.7253418 137.84295654 C-40.76636793 134.25672457 -40.78455245 130.67038373 -40.8046875 127.08398438 C-40.84749867 120.05571585 -40.91570832 113.02789012 -41 106 C-47.67003727 106 -57.7782564 116.42817466 -62.4375 120.75 Z " fill="#FD7C0E" transform="translate(879,412)"/>
<path d="M0 0 C23.43 0 46.86 0 71 0 C71 88.44 71 176.88 71 268 C94.76 268 118.52 268 143 268 C143 284.17 143 300.34 143 317 C95.81 317 48.62 317 0 317 C0 212.39 0 107.78 0 0 Z " fill="#FD7C0E" transform="translate(1544,312)"/>
<path d="M0 0 C12.27078152 11.45612382 17.55017846 27.29872427 18.6875 43.6875 C18.80546028 49.20956092 18.78165162 54.72665232 18.75 60.25 C18.729375 65.344375 18.70875 70.43875 18.6875 75.6875 C-1.7725 75.6875 -22.2325 75.6875 -43.3125 75.6875 C-43.6425 66.7775 -43.9725 57.8675 -44.3125 48.6875 C-45.33241717 36.60673512 -45.33241717 36.60673512 -49.3125 30.6875 C-53.77622547 27.71168302 -58.08082891 28.08172756 -63.3125 28.6875 C-67.35584604 31.01242397 -68.29314781 34.80262056 -69.67152786 39.0579052 C-70.82365274 43.78450938 -70.72871094 48.48054252 -70.70068359 53.32250977 C-70.70594055 54.45214142 -70.71119751 55.58177307 -70.71661377 56.74563599 C-70.72975166 60.45686927 -70.72109795 64.16766907 -70.7109375 67.87890625 C-70.71295987 70.47004783 -70.71587266 73.06118885 -70.71963501 75.65232849 C-70.72404985 81.07321135 -70.7179426 86.49393302 -70.70361328 91.91479492 C-70.68728149 98.16503741 -70.69258539 104.41498634 -70.7090925 110.66522175 C-70.72439067 116.70140009 -70.72271613 122.7374358 -70.7139473 128.77363396 C-70.71194997 131.33203104 -70.71438811 133.89043564 -70.72138596 136.44882393 C-70.72902619 140.02671127 -70.71735966 143.60403897 -70.70068359 147.18188477 C-70.70675629 148.23301956 -70.71282898 149.28415436 -70.71908569 150.36714172 C-70.65779443 157.48524681 -69.77266488 163.13392851 -65.625 169.125 C-61.06736887 172.20448049 -56.63135362 171.90021833 -51.4375 171.0625 C-48.18898938 170.02763791 -48.18898938 170.02763791 -47.18505859 167.46166992 C-43.88378768 156.96577139 -43.92619676 145.77303408 -43.6875 134.875 C-43.501875 127.3571875 -43.501875 127.3571875 -43.3125 119.6875 C-22.8525 119.6875 -2.3925 119.6875 18.6875 119.6875 C18.72875 125.359375 18.77 131.03125 18.8125 136.875 C18.83070801 138.63610107 18.84891602 140.39720215 18.86767578 142.21166992 C18.99334377 162.95751679 15.68864697 181.77291288 1.0703125 197.33203125 C-16.03765698 214.24367977 -38.27148217 217.04266364 -61.33618164 217 C-82.8171855 216.8437541 -102.74601923 211.35539107 -118.3125 195.6875 C-131.18326053 180.60526859 -136.63741203 163.179386 -136.5871582 143.56323242 C-136.59226913 142.51122147 -136.59738007 141.45921051 -136.60264587 140.37532043 C-136.61643527 136.93114375 -136.61559303 133.4871696 -136.61328125 130.04296875 C-136.61717422 127.62600125 -136.62151012 125.20903443 -136.62626648 122.79206848 C-136.63370598 117.73790261 -136.63345404 112.68380661 -136.62817383 107.62963867 C-136.62238454 101.18433485 -136.63930857 94.7393189 -136.6625185 88.29406261 C-136.67732114 83.30518448 -136.67811863 78.31637462 -136.67500877 73.32747841 C-136.67551878 70.95266462 -136.68069556 68.57784669 -136.69082069 66.20305443 C-136.77871874 42.70475608 -134.12994919 20.98960493 -117.3125 3.0625 C-88.50707278 -25.33113762 -30.70459095 -24.90353273 0 0 Z " fill="#FD7C0E" transform="translate(2033.3125,415.3125)"/>
<path d="M0 0 C20.46 0 40.92 0 62 0 C64.25 11.25 64.25 11.25 64.84793091 15.87210083 C64.9853067 16.92078842 65.1226825 17.96947601 65.26422119 19.04994202 C65.40664246 20.1641301 65.54906372 21.27831818 65.69580078 22.42626953 C65.85214996 23.62741898 66.00849915 24.82856842 66.16958618 26.06611633 C66.59343065 29.32750153 67.01424202 32.58926006 67.43365335 35.85121775 C67.87425045 39.27213673 68.31879788 42.69254236 68.76290894 46.11300659 C69.60142418 52.57573186 70.43643617 59.03890461 71.2701596 65.5022496 C72.22028986 72.86666278 73.17437147 80.23056237 74.12876916 87.59442353 C76.09021274 102.72905242 78.04674578 117.86431189 80 133 C81.57968891 125.73732787 82.64548823 118.49275523 83.49633789 111.11206055 C83.63157364 109.96771042 83.76680939 108.82336029 83.90614319 107.64433289 C84.34868587 103.89222026 84.78562459 100.13947689 85.22265625 96.38671875 C85.53087564 93.76735183 85.83951137 91.14803388 86.14854431 88.52876282 C86.87637688 82.35532327 87.60045225 76.18145004 88.32285255 70.00737268 C89.69445003 58.28516032 91.07184609 46.56363234 92.45245171 34.8424778 C92.9047125 30.99552356 93.35423384 27.14825615 93.80348206 23.3009491 C94.07991461 20.94761082 94.35643471 18.59428282 94.63305664 16.2409668 C94.75722961 15.17126648 94.88140259 14.10156616 95.00933838 12.99945068 C95.12562088 12.01415878 95.24190338 11.02886688 95.36170959 10.01371765 C95.51129167 8.73485451 95.51129167 8.73485451 95.66389561 7.43015575 C96.00865237 4.93744027 96.50648483 2.46757583 97 0 C117.46 0 137.92 0 159 0 C156.74999577 14.62502746 156.74999577 14.62502746 155.67008972 19.87191772 C155.4252887 21.06928055 155.18048767 22.26664337 154.92826843 23.50028992 C154.66600967 24.76653702 154.40375092 26.03278412 154.13354492 27.33740234 C153.84865275 28.72471059 153.56404444 30.11207716 153.2796936 31.49949646 C152.51118578 35.24517027 151.73872741 38.99001925 150.96552062 42.73472548 C150.14048847 46.73393797 149.31916441 50.73391208 148.49739075 54.73379517 C146.9289098 62.36536099 145.35712053 69.99624151 143.78414565 77.6268822 C142.04558729 86.06160527 140.3107845 94.49709911 138.57629943 102.93266058 C133.0902555 129.61242665 127.59117884 156.28950579 122.08837891 182.96582031 C121.94554875 183.65822988 121.8027186 184.35063945 121.65556026 185.06403112 C118.77186598 199.04299558 115.88567034 213.02144319 113 227 C90.89 227 68.78 227 46 227 C44.39478475 222.18435426 43.19946434 217.55568442 42.22315979 212.60354614 C42.05614199 211.77258041 41.88912419 210.94161468 41.71704525 210.08546817 C41.16000237 207.30916182 40.60845244 204.5317934 40.05688477 201.75439453 C39.65784916 199.75972549 39.25847745 197.76512367 38.85879517 195.77058411 C37.77468237 190.35544055 36.69534965 184.93935412 35.61691403 179.52307749 C34.48520569 173.84321524 33.34927845 168.16419681 32.21385193 162.4850769 C30.30562636 152.93749914 28.40024711 143.38935704 26.49682617 133.84082031 C24.06128688 121.62295519 21.62138965 109.40596488 19.17997837 97.18927193 C17.07427841 86.65243263 14.97028815 76.11525206 12.86672854 65.57798529 C12.41701304 63.32537136 11.96724081 61.07276875 11.51741147 58.82017756 C10.23223355 52.38442471 8.94797471 45.94848993 7.66519547 39.51225853 C7.27814406 37.57094174 6.89078965 35.62968534 6.50309181 33.68849754 C5.96912516 31.01460253 5.43633795 28.34047491 4.90382385 25.66629028 C4.75439774 24.91934406 4.60497162 24.17239784 4.45101744 23.40281689 C2.90240552 15.61297281 1.46400505 7.80802695 0 0 Z " fill="#FD7C0E" transform="translate(1085,402)"/>
<path d="M0 0 C20.46 0 40.92 0 62 0 C64.25 11.25 64.25 11.25 64.84793091 15.87210083 C64.9853067 16.92078842 65.1226825 17.96947601 65.26422119 19.04994202 C65.40664246 20.1641301 65.54906372 21.27831818 65.69580078 22.42626953 C65.85214996 23.62741898 66.00849915 24.82856842 66.16958618 26.06611633 C66.59343065 29.32750153 67.01424202 32.58926006 67.43365335 35.85121775 C67.87425045 39.27213673 68.31879788 42.69254236 68.76290894 46.11300659 C69.60142418 52.57573186 70.43643617 59.03890461 71.2701596 65.5022496 C72.22028986 72.86666278 73.17437147 80.23056237 74.12876916 87.59442353 C76.09021274 102.72905242 78.04674578 117.86431189 80 133 C81.57968891 125.73732787 82.64548823 118.49275523 83.49633789 111.11206055 C83.63157364 109.96771042 83.76680939 108.82336029 83.90614319 107.64433289 C84.34868587 103.89222026 84.78562459 100.13947689 85.22265625 96.38671875 C85.53087564 93.76735183 85.83951137 91.14803388 86.14854431 88.52876282 C86.87637688 82.35532327 87.60045225 76.18145004 88.32285255 70.00737268 C89.69445003 58.28516032 91.07184609 46.56363234 92.45245171 34.8424778 C92.9047125 30.99552356 93.35423384 27.14825615 93.80348206 23.3009491 C94.07991461 20.94761082 94.35643471 18.59428282 94.63305664 16.2409668 C94.75722961 15.17126648 94.88140259 14.10156616 95.00933838 12.99945068 C95.12562088 12.01415878 95.24190338 11.02886688 95.36170959 10.01371765 C95.51129167 8.73485451 95.51129167 8.73485451 95.66389561 7.43015575 C96.00865237 4.93744027 96.50648483 2.46757583 97 0 C117.46 0 137.92 0 159 0 C156.74999577 14.62502746 156.74999577 14.62502746 155.67008972 19.87191772 C155.4252887 21.06928055 155.18048767 22.26664337 154.92826843 23.50028992 C154.66600967 24.76653702 154.40375092 26.03278412 154.13354492 27.33740234 C153.84865275 28.72471059 153.56404444 30.11207716 153.2796936 31.49949646 C152.51118578 35.24517027 151.73872741 38.99001925 150.96552062 42.73472548 C150.14048847 46.73393797 149.31916441 50.73391208 148.49739075 54.73379517 C146.9289098 62.36536099 145.35712053 69.99624151 143.78414565 77.6268822 C142.04558729 86.06160527 140.3107845 94.49709911 138.57629943 102.93266058 C133.0902555 129.61242665 127.59117884 156.28950579 122.08837891 182.96582031 C121.94554875 183.65822988 121.8027186 184.35063945 121.65556026 185.06403112 C118.77186598 199.04299558 115.88567034 213.02144319 113 227 C90.89 227 68.78 227 46 227 C44.39478475 222.18435426 43.19946434 217.55568442 42.22315979 212.60354614 C42.05614199 211.77258041 41.88912419 210.94161468 41.71704525 210.08546817 C41.16000237 207.30916182 40.60845244 204.5317934 40.05688477 201.75439453 C39.65784916 199.75972549 39.25847745 197.76512367 38.85879517 195.77058411 C37.77468237 190.35544055 36.69534965 184.93935412 35.61691403 179.52307749 C34.48520569 173.84321524 33.34927845 168.16419681 32.21385193 162.4850769 C30.30562636 152.93749914 28.40024711 143.38935704 26.49682617 133.84082031 C24.06128688 121.62295519 21.62138965 109.40596488 19.17997837 97.18927193 C17.07427841 86.65243263 14.97028815 76.11525206 12.86672854 65.57798529 C12.41701304 63.32537136 11.96724081 61.07276875 11.51741147 58.82017756 C10.23223355 52.38442471 8.94797471 45.94848993 7.66519547 39.51225853 C7.27814406 37.57094174 6.89078965 35.62968534 6.50309181 33.68849754 C5.96912516 31.01460253 5.43633795 28.34047491 4.90382385 25.66629028 C4.75439774 24.91934406 4.60497162 24.17239784 4.45101744 23.40281689 C2.90240552 15.61297281 1.46400505 7.80802695 0 0 Z " fill="#FD7C0E" transform="translate(920,402)"/>
<path d="M0 0 C21.12 0 42.24 0 64 0 C64 104.61 64 209.22 64 317 C42.88 317 21.76 317 0 317 C0 212.39 0 107.78 0 0 Z " fill="#FD7C0E" transform="translate(2272,312)"/>
<path d="" fill="#FD8F13" transform="translate(0,0)"/>
</svg>
