<svg xmlns="http://www.w3.org/2000/svg" xmlns:xlink="http://www.w3.org/1999/xlink" width="1140" zoomAndPan="magnify" viewBox="0 0 854.88 243.75" height="325" preserveAspectRatio="xMidYMid meet" version="1.0"><defs><clipPath id="1cfa1701b2"><path d="M 0.378906 0 L 218 0 L 218 243.5 L 0.378906 243.5 Z M 0.378906 0 " clip-rule="nonzero"/></clipPath><clipPath id="dc898673f1"><path d="M 775 68 L 854.382812 68 L 854.382812 175 L 775 175 Z M 775 68 " clip-rule="nonzero"/></clipPath></defs><g clip-path="url(#1cfa1701b2)"><path fill="#ffffff" d="M 159.59375 243.5 C 155.542969 242.503906 151.421875 241.746094 147.472656 240.464844 C 123.769531 232.765625 108.117188 210.105469 110.671875 185.347656 C 111.664062 175.75 115.367188 166.394531 118.199219 157.042969 C 121.46875 146.238281 125.148438 135.566406 128.632812 124.832031 C 128.8125 124.277344 128.875 123.683594 128.410156 122.703125 C 124.601562 126.726562 120.800781 130.761719 116.976562 134.777344 C 108.296875 143.894531 99.789062 153.171875 90.875 162.054688 C 71.617188 181.269531 39.289062 181.996094 18.710938 163.855469 C 2.796875 149.832031 -2.816406 131.9375 1.554688 111.601562 C 5.925781 91.25 18.890625 77.570312 38.914062 71.796875 C 58.277344 66.210938 75.832031 70.621094 90.667969 84.421875 C 102.976562 95.875 114.992188 107.648438 127.132812 119.285156 C 127.570312 119.695312 128.027344 120.085938 129.128906 120.183594 C 128.191406 117.214844 127.253906 114.246094 126.316406 111.277344 C 121.460938 95.894531 115.835938 80.710938 111.894531 65.09375 C 104.339844 35.164062 125.53125 5.320312 156.121094 0.601562 C 182.925781 -3.539062 208.953125 14.199219 215.691406 39.59375 C 222.992188 67.121094 207.941406 95.714844 180.964844 104.683594 C 165.347656 109.867188 149.675781 114.855469 134.03125 119.957031 C 132.792969 120.363281 131.617188 120.964844 129.839844 121.710938 C 146.683594 127.253906 162.882812 132.597656 179.097656 137.910156 C 199.980469 144.753906 212.925781 159.035156 216.726562 180.601562 C 221.589844 208.238281 204.246094 235.292969 175.738281 241.851562 C 173.105469 242.457031 170.453125 242.953125 167.808594 243.5 L 159.585938 243.5 Z M 159.59375 243.5 " fill-opacity="1" fill-rule="nonzero"/></g><g clip-path="url(#dc898673f1)"><path fill="#ffffff" d="M 823.25 123.910156 C 839.898438 136.792969 846.277344 155.746094 854.75 174.425781 C 848.59375 174.425781 843.136719 174.53125 837.695312 174.296875 C 837 174.265625 836.121094 172.617188 835.753906 171.570312 C 831.652344 159.769531 826.585938 148.457031 818.3125 138.953125 C 812.375 132.132812 805.222656 127.28125 795.164062 127.460938 L 795.164062 174.265625 L 775.097656 174.265625 L 775.097656 170.128906 C 775.097656 137.835938 775.15625 105.550781 775.007812 73.257812 C 774.992188 69.691406 776.070312 68.804688 779.464844 68.925781 C 790.378906 69.308594 801.324219 69.0625 812.214844 69.710938 C 822 70.296875 831.578125 72.636719 838.429688 80.265625 C 849.203125 92.269531 846.496094 109.679688 832.816406 118.714844 C 830.011719 120.566406 826.902344 121.945312 823.242188 123.910156 Z M 795.375 78.804688 L 795.375 117.835938 C 802.75 118.234375 809.90625 118.5625 816.046875 113.992188 C 823.632812 108.332031 825.65625 96.152344 820.363281 86.730469 C 819.089844 84.457031 816.511719 82.035156 814.105469 81.464844 C 808.101562 80.050781 801.851562 79.652344 795.375 78.804688 Z M 795.375 78.804688 " fill-opacity="1" fill-rule="nonzero"/></g><path fill="#ffffff" d="M 384.683594 174.492188 C 358.769531 175.585938 333.183594 153.457031 333.289062 121.164062 C 333.386719 90.394531 357.554688 68.984375 385.15625 69.039062 C 413.796875 69.089844 437.460938 91.269531 437.378906 122.066406 C 437.304688 151.367188 413.234375 176.140625 384.675781 174.484375 Z M 415.316406 124.269531 C 414.703125 116.496094 414.433594 110.730469 413.75 105.019531 C 412.867188 97.613281 410.109375 90.867188 404.578125 85.738281 C 393.886719 75.84375 370.484375 74.0625 360.882812 94.433594 C 355.386719 106.097656 354.976562 118.371094 355.988281 130.8125 C 356.632812 138.75 358.746094 146.316406 363.226562 153.074219 C 370.109375 163.457031 379.972656 166.578125 391.691406 164.394531 C 402.605469 162.371094 409.621094 155.460938 412.238281 144.882812 C 414.050781 137.550781 414.507812 129.875 415.304688 124.261719 Z M 415.316406 124.269531 " fill-opacity="1" fill-rule="nonzero"/><path fill="#ffffff" d="M 604.40625 174.492188 C 611.453125 157.386719 618.210938 140.960938 624.996094 124.546875 C 632.164062 107.179688 639.375 89.824219 646.503906 72.441406 C 647.371094 70.3125 648.167969 68.835938 650.96875 68.886719 C 653.625 68.941406 654.980469 69.742188 656.03125 72.214844 C 669.875 104.847656 683.816406 137.433594 697.730469 170.03125 C 698.261719 171.277344 698.652344 172.574219 699.320312 174.453125 C 692.160156 174.453125 685.4375 174.550781 678.710938 174.335938 C 677.851562 174.304688 676.71875 172.730469 676.261719 171.644531 C 671.964844 161.488281 667.730469 151.308594 663.636719 141.066406 C 662.777344 138.910156 661.773438 137.867188 659.304688 137.902344 C 650.640625 138.03125 641.976562 138.023438 633.308594 137.902344 C 630.925781 137.875 629.792969 138.699219 628.945312 140.976562 C 625.304688 150.84375 621.269531 160.566406 617.742188 170.472656 C 616.601562 173.667969 615.042969 174.875 611.773438 174.523438 C 609.554688 174.28125 607.289062 174.476562 604.40625 174.476562 Z M 633.660156 128.5625 L 658.542969 128.5625 C 654.320312 118.4375 650.308594 108.828125 645.878906 98.183594 C 641.539062 108.96875 637.695312 118.535156 633.660156 128.5625 Z M 633.660156 128.5625 " fill-opacity="1" fill-rule="nonzero"/><path fill="#ffffff" d="M 314.210938 94.757812 C 310.210938 88.136719 305.773438 84 299.878906 81.617188 C 284.910156 75.550781 267.527344 79.253906 261.082031 97.898438 C 255.519531 113.992188 254.664062 130.386719 261.328125 146.308594 C 269.691406 166.304688 292.398438 169.632812 307.570312 157.117188 C 310.015625 155.101562 311.738281 152.199219 313.84375 149.644531 C 316.296875 151.996094 318.628906 154.230469 321.289062 156.777344 C 314.070312 165.003906 305.957031 171.1875 295.328125 173.351562 C 274.746094 177.550781 252.789062 170.707031 241.050781 150.28125 C 235.460938 140.550781 234.273438 129.851562 235.015625 118.945312 C 235.992188 104.621094 240.667969 91.707031 251.269531 81.550781 C 260.871094 72.34375 272.855469 68.976562 285.75 69.179688 C 297.78125 69.367188 308.53125 73.558594 317.234375 82.207031 C 321.136719 86.089844 321.0625 86.765625 317.097656 90.523438 C 316.035156 91.527344 315.394531 92.980469 314.210938 94.757812 Z M 314.210938 94.757812 " fill-opacity="1" fill-rule="nonzero"/><path fill="#ffffff" d="M 516.898438 85.695312 C 514.347656 87.785156 511.972656 89.742188 509.347656 91.902344 C 507.886719 89.929688 506.671875 88.234375 505.398438 86.578125 C 500.457031 80.140625 493.710938 78.085938 486.035156 79.324219 C 479.265625 80.410156 475.121094 89.261719 478.757812 95.304688 C 480.75 98.609375 483.765625 101.617188 486.964844 103.828125 C 495.203125 109.53125 503.867188 114.605469 512.234375 120.136719 C 522.632812 127.019531 527.097656 140.738281 523.3125 153.4375 C 519.542969 166.074219 508.621094 174.050781 495.71875 174.582031 C 478.945312 175.273438 467.566406 166.9375 458.097656 153.765625 C 460.5625 151.441406 462.804688 149.328125 465.070312 147.191406 C 468.351562 150.96875 471.410156 154.738281 474.730469 158.269531 C 479.917969 163.78125 486.589844 165.738281 493.898438 164.957031 C 500.316406 164.273438 504.753906 160.332031 507.03125 154.457031 C 509.265625 148.699219 507.683594 143.269531 502.976562 139.539062 C 497.699219 135.355469 491.824219 131.929688 486.171875 128.21875 C 481.875 125.402344 477.378906 122.859375 473.246094 119.824219 C 461.808594 111.40625 457.976562 95.972656 464.441406 83.511719 C 469.011719 74.699219 476.71875 70.183594 486.589844 69.628906 C 499.601562 68.894531 509.65625 74.03125 516.890625 85.703125 Z M 516.898438 85.695312 " fill-opacity="1" fill-rule="nonzero"/><path fill="#ffffff" d="M 551.273438 69.171875 L 614.621094 69.171875 L 614.621094 78.296875 L 571.761719 78.296875 C 571.648438 79.96875 571.496094 81.1875 571.488281 82.417969 C 571.46875 91.714844 571.585938 101.007812 571.40625 110.304688 C 571.347656 113.503906 572.132812 114.75 575.582031 114.621094 C 582.480469 114.359375 589.398438 114.644531 596.300781 114.5 C 599.007812 114.449219 600.085938 115.191406 600.050781 118.09375 C 599.980469 124.082031 600.140625 124.082031 594.195312 124.082031 C 588.167969 124.082031 582.121094 124.351562 576.113281 123.976562 C 572.089844 123.730469 571.339844 125.25 571.394531 128.886719 C 571.578125 142.703125 571.363281 156.523438 571.542969 170.339844 C 571.585938 173.691406 570.574219 174.71875 567.277344 174.558594 C 562.039062 174.304688 556.769531 174.492188 551.273438 174.492188 Z M 551.273438 69.171875 " fill-opacity="1" fill-rule="nonzero"/><path fill="#ffffff" d="M 726.148438 69.21875 L 745.375 69.21875 C 745.496094 70.71875 745.703125 72.15625 745.703125 73.597656 C 745.71875 105.730469 745.660156 137.867188 745.800781 170 C 745.816406 173.710938 744.699219 174.777344 741.117188 174.566406 C 736.246094 174.28125 731.351562 174.492188 726.148438 174.492188 Z M 726.148438 69.21875 " fill-opacity="1" fill-rule="nonzero"/></svg>