<?xml version="1.0" encoding="UTF-8"?>
<svg id="Layer_2" data-name="Layer 2" xmlns="http://www.w3.org/2000/svg" viewBox="0 0 827.02 141.04">
  <defs>
    <style>
      .cls-1 {
        fill: #144f43;
        stroke-width: 0px;
      }
    </style>
  </defs>
  <g id="Layer_1-2" data-name="Layer 1">
    <g>
      <path class="cls-1" d="M785,73.4c22.21,17.19,30.72,42.47,42.02,67.39-8.21,0-15.49.14-22.75-.17-.93-.04-2.1-2.24-2.59-3.64-5.47-15.74-12.23-30.83-23.27-43.51-7.92-9.1-17.46-15.57-30.88-15.33v62.44h-26.77v-5.52c0-43.08.08-86.15-.12-129.23-.02-4.76,1.42-5.94,5.95-5.78,14.56.51,29.16.18,43.69,1.05,13.05.78,25.83,3.9,34.97,14.08,14.37,16.01,10.76,39.24-7.49,51.29-3.74,2.47-7.89,4.31-12.77,6.93ZM747.8,13.23v52.07c9.84.53,19.39.97,27.58-5.13,10.12-7.55,12.82-23.8,5.76-36.37-1.7-3.03-5.14-6.26-8.35-7.02-8.01-1.89-16.35-2.42-24.99-3.55Z"/>
      <path class="cls-1" d="M199.93,140.88c-34.57,1.46-68.7-28.06-68.56-71.14C131.5,28.7,163.74.13,200.56.2c38.21.07,69.78,29.66,69.67,70.74-.1,39.09-32.21,72.14-70.31,69.93ZM240.8,73.88c-.82-10.37-1.18-18.06-2.09-25.68-1.18-9.88-4.86-18.88-12.24-25.72-14.26-13.2-45.48-15.58-58.29,11.6-7.33,15.56-7.88,31.93-6.53,48.53.86,10.59,3.68,20.68,9.66,29.7,9.18,13.85,22.34,18.01,37.97,15.1,14.56-2.7,23.92-11.92,27.41-26.03,2.42-9.78,3.03-20.02,4.09-27.51Z"/>
      <path class="cls-1" d="M493.04,140.88c9.4-22.82,18.42-44.73,27.47-66.63,9.56-23.17,19.18-46.32,28.69-69.51,1.16-2.84,2.22-4.81,5.96-4.74,3.54.07,5.35,1.14,6.75,4.44,18.47,43.53,37.07,87,55.63,130.49.71,1.66,1.23,3.39,2.12,5.9-9.55,0-18.52.13-27.49-.16-1.15-.04-2.66-2.14-3.27-3.59-5.73-13.55-11.38-27.13-16.84-40.79-1.15-2.88-2.49-4.27-5.78-4.22-11.56.17-23.12.16-34.68,0-3.18-.04-4.69,1.06-5.82,4.1-4.86,13.16-10.24,26.13-14.95,39.35-1.52,4.26-3.6,5.87-7.96,5.4-2.96-.32-5.98-.06-9.83-.06ZM532.08,79.61h33.19c-5.63-13.51-10.98-26.33-16.89-40.53-5.79,14.39-10.92,27.15-16.3,40.53Z"/>
      <path class="cls-1" d="M105.92,34.51c-5.34-8.83-11.26-14.35-19.12-17.53-19.97-8.09-43.16-3.15-51.76,21.72-7.42,21.47-8.56,43.34.33,64.58,11.16,26.68,41.45,31.12,61.69,14.42,3.26-2.69,5.56-6.56,8.37-9.97,3.27,3.14,6.38,6.12,9.93,9.52-9.63,10.97-20.45,19.22-34.63,22.11-27.46,5.6-56.75-3.53-72.41-30.78C.85,95.6-.73,81.34.27,66.78,1.57,47.68,7.8,30.44,21.95,16.9,34.76,4.62,50.75.13,67.94.4c16.05.25,30.39,5.84,42,17.38,5.21,5.18,5.11,6.08-.18,11.09-1.42,1.34-2.27,3.28-3.85,5.65Z"/>
      <path class="cls-1" d="M376.3,22.42c-3.4,2.79-6.57,5.4-10.07,8.28-1.95-2.63-3.57-4.89-5.27-7.1-6.59-8.59-15.59-11.33-25.83-9.68-9.03,1.45-14.56,13.26-9.71,21.32,2.66,4.41,6.68,8.42,10.95,11.37,10.99,7.61,22.55,14.38,33.71,21.76,13.87,9.18,19.83,27.48,14.78,44.42-5.03,16.86-19.6,27.5-36.81,28.21-22.38.92-37.56-10.2-50.19-27.77,3.29-3.1,6.28-5.92,9.3-8.77,4.38,5.04,8.46,10.07,12.89,14.78,6.92,7.35,15.82,9.96,25.57,8.92,8.56-.91,14.48-6.17,17.52-14.01,2.98-7.68.87-14.92-5.41-19.9-7.04-5.58-14.88-10.15-22.42-15.1-5.73-3.76-11.73-7.15-17.24-11.2-15.26-11.23-20.37-31.82-11.75-48.44,6.1-11.76,16.38-17.78,29.55-18.52C353.24,0,366.65,6.85,376.3,22.42Z"/>
      <path class="cls-1" d="M422.16.38h84.51v12.17h-57.18c-.15,2.23-.35,3.86-.36,5.5-.03,12.4.13,24.8-.11,37.2-.08,4.27.97,5.93,5.57,5.76,9.2-.35,18.43.03,27.64-.16,3.61-.07,5.05.92,5,4.79-.09,7.99.12,7.99-7.81,7.99-8.04,0-16.11.36-24.12-.14-5.37-.33-6.37,1.7-6.3,6.55.25,18.43-.04,36.87.2,55.3.06,4.47-1.29,5.84-5.69,5.63-6.99-.34-14.02-.09-21.35-.09V.38Z"/>
      <path class="cls-1" d="M655.45.44h25.65c.16,2,.44,3.92.44,5.84.02,42.87-.06,85.74.13,128.61.02,4.95-1.47,6.37-6.25,6.09-6.5-.38-13.03-.1-19.97-.1V.44Z"/>
    </g>
  </g>
</svg>