<svg width="49" height="48" viewBox="0 0 49 48" fill="none" xmlns="http://www.w3.org/2000/svg">
<path fill-rule="evenodd" clip-rule="evenodd" d="M23.3711 0.030511C20.3207 0.168143 17.3691 0.840285 14.5594 2.03714C13.9939 2.27799 12.7152 2.91 12.1841 3.21108C8.03749 5.562 4.72314 8.97093 2.59726 13.0715C1.11603 15.9286 0.312382 18.7918 0.0540101 22.1321C-0.0241084 23.1421 0.0117822 24.9047 0.134414 26.0802C0.6428 30.9537 2.72446 35.5523 6.11095 39.2831C6.51119 39.724 7.57901 40.7676 8.06415 41.192C11.6699 44.3463 16.1842 46.4028 20.9519 47.0631C22.2573 47.2439 23.1276 47.3024 24.5148 47.3024C25.9019 47.3024 26.7722 47.2439 28.0776 47.0631C32.8453 46.4028 37.3596 44.3463 40.9654 41.192C41.4505 40.7676 42.5184 39.724 42.9186 39.2831C45.8441 36.0601 47.7827 32.2265 48.6012 28.0455C48.8897 26.5715 49.0117 25.2691 49.0117 23.6604C49.0117 22.3289 48.9511 21.4875 48.7653 20.2359C47.9026 14.4254 44.7672 9.08762 40.0124 5.33499C38.0767 3.80731 35.9062 2.57457 33.5554 1.66777C30.382 0.443604 26.839 -0.12597 23.3711 0.030511ZM24.2365 4.53153C24.156 4.54732 24.0043 4.59982 23.8993 4.64819C23.4969 4.83351 23.9057 4.17962 18.0489 14.0073C15.1136 18.9328 12.6159 23.1356 12.4985 23.3469C12.2323 23.8259 11.9823 24.34 11.8079 24.7668C10.2526 28.5728 10.6062 32.8623 12.7629 36.3538C14.3729 38.9605 16.8861 40.9798 19.7888 41.9991C21.3784 42.5573 22.8238 42.8033 24.5148 42.8033C25.3159 42.8033 25.7554 42.7748 26.4648 42.6769C30.5429 42.1146 34.1428 39.7923 36.2667 36.3538C37.5144 34.3338 38.1801 31.9953 38.1795 29.6335C38.179 27.3495 37.5507 25.0387 36.413 23.1368C36.3105 22.9656 33.8541 18.8456 30.9542 13.9812C28.0543 9.1168 25.6402 5.08497 25.5894 5.02155C25.491 4.89858 25.3445 4.77014 25.2083 4.68736C24.9741 4.545 24.5304 4.47385 24.2365 4.53153ZM23.8257 19.3215C22.3439 19.4163 20.8994 19.8062 19.5958 20.4633C18.6072 20.9616 17.8047 21.5329 16.9932 22.3161C16.1818 23.0993 15.5898 23.8738 15.0735 24.828C13.4237 27.8768 13.4763 31.5724 15.2121 34.5611C15.9253 35.7892 16.8421 36.8206 17.9826 37.6781C19.2289 38.615 20.7425 39.298 22.2603 39.6083C23.0857 39.7771 24.3067 39.8836 24.7242 39.8232C25.4577 39.7172 26.0087 39.1031 26.0099 38.3904C26.011 37.76 25.6005 37.2133 24.9693 37.0043C24.8678 36.9707 24.6602 36.9483 24.2948 36.9316C23.6567 36.9023 23.2226 36.8449 22.6967 36.7202C21.5789 36.4552 20.6074 35.9911 19.7132 35.295C19.3666 35.0251 18.7621 34.4324 18.4983 34.1038C17.6381 33.0323 17.1076 31.7925 16.9356 30.4517C16.8835 30.0452 16.8762 29.192 16.9214 28.789C17.0753 27.4192 17.6781 26.0191 18.5813 24.934C18.8381 24.6255 19.386 24.0967 19.7057 23.8488C20.6384 23.1256 21.8341 22.5818 22.9786 22.3604C23.6214 22.236 23.9868 22.2075 24.7152 22.225C25.4215 22.2421 25.7351 22.2815 26.3622 22.4318C26.9166 22.5648 27.3316 22.7118 27.8723 22.9668C28.6719 23.3437 29.3347 23.8115 29.9838 24.4568C30.6029 25.0723 30.9788 25.5939 31.435 26.4704C31.7586 27.0922 31.885 27.45 31.869 27.6996C31.8556 27.9083 31.7933 27.9889 31.5854 28.0668C31.4584 28.1144 31.2196 28.1185 27.799 28.1319C24.4946 28.1449 24.1368 28.1507 24.0281 28.193C23.5348 28.385 23.2043 28.7232 23.066 29.1774C22.9996 29.3959 23.0048 29.7792 23.0775 30.0062C23.2301 30.483 23.6862 30.8922 24.1742 30.9899C24.2856 31.0123 25.6535 31.0185 28.9457 31.0116C33.1648 31.0029 33.5868 30.9978 33.86 30.9529C34.6765 30.8187 35.0003 30.5523 35.1174 29.9184C35.2374 29.2692 35.0614 27.8105 34.73 26.7062C34.1 24.6074 32.7291 22.6889 30.922 21.3771C29.0356 20.0078 26.7645 19.282 24.4445 19.307C24.1848 19.3098 23.9063 19.3164 23.8257 19.3215Z" fill="#1CA4E4"></path>
</svg>
