<svg xmlns="http://www.w3.org/2000/svg" xmlns:xlink="http://www.w3.org/1999/xlink" width="512" zoomAndPan="magnify" viewBox="0 0 384 383.999986" height="512" preserveAspectRatio="xMidYMid meet" version="1.0"><defs><g/><clipPath id="7da00b9fc1"><path d="M 20.238281 0 L 344 0 L 344 383.945312 L 20.238281 383.945312 Z M 20.238281 0 " clip-rule="nonzero"/></clipPath><clipPath id="b7d8eae6ee"><path d="M 20.238281 35.25 L 20.238281 348.75 C 20.238281 368.21875 36.023438 384 55.488281 384 L 308.511719 384 C 327.976562 384 343.761719 368.21875 343.761719 348.75 L 343.761719 35.25 C 343.761719 15.78125 327.976562 0 308.511719 0 L 55.488281 0 C 36.023438 0 20.238281 15.78125 20.238281 35.25 Z M 20.238281 35.25 " clip-rule="nonzero"/></clipPath><clipPath id="fa10dba81e"><rect x="0" width="108" y="0" height="196"/></clipPath><clipPath id="4a54ab75e8"><rect x="0" width="364" y="0" height="384"/></clipPath></defs><g transform="matrix(1, 0, 0, 1, 10, 0)"><g clip-path="url(#4a54ab75e8)"><g clip-path="url(#7da00b9fc1)"><g clip-path="url(#b7d8eae6ee)"><path fill="#ef6a01" d="M 338.210938 87.304688 C 337.269531 86.289062 336.234375 85.378906 335.105469 84.578125 C 333.976562 83.773438 332.777344 83.09375 331.507812 82.539062 C 330.238281 81.980469 328.925781 81.558594 327.570312 81.273438 C 326.214844 80.988281 324.84375 80.84375 323.457031 80.835938 L 262.828125 80.835938 C 262.828125 79.515625 262.796875 78.191406 262.730469 76.871094 C 262.667969 75.550781 262.570312 74.230469 262.441406 72.914062 C 262.3125 71.597656 262.148438 70.285156 261.953125 68.976562 C 261.761719 67.667969 261.535156 66.363281 261.277344 65.066406 C 261.019531 63.769531 260.730469 62.480469 260.40625 61.195312 C 260.085938 59.914062 259.734375 58.636719 259.347656 57.371094 C 258.964844 56.105469 258.550781 54.851562 258.105469 53.605469 C 257.660156 52.359375 257.183594 51.125 256.675781 49.902344 C 256.171875 48.679688 255.632812 47.472656 255.070312 46.273438 C 254.503906 45.078125 253.90625 43.898438 253.285156 42.730469 C 252.660156 41.5625 252.007812 40.414062 251.328125 39.277344 C 250.648438 38.144531 249.941406 37.027344 249.207031 35.925781 C 248.472656 34.828125 247.710938 33.746094 246.921875 32.683594 C 246.132812 31.621094 245.320312 30.578125 244.480469 29.554688 C 243.640625 28.53125 242.777344 27.53125 241.890625 26.550781 C 241 25.570312 240.089844 24.613281 239.152344 23.675781 C 238.21875 22.742188 237.257812 21.828125 236.28125 20.941406 C 235.300781 20.050781 234.296875 19.1875 233.273438 18.347656 C 232.253906 17.511719 231.210938 16.695312 230.148438 15.910156 C 229.085938 15.121094 228.003906 14.359375 226.902344 13.625 C 225.804688 12.886719 224.6875 12.179688 223.550781 11.5 C 222.417969 10.820312 221.265625 10.167969 220.097656 9.546875 C 218.933594 8.921875 217.75 8.328125 216.554688 7.761719 C 215.359375 7.195312 214.148438 6.660156 212.925781 6.152344 C 211.703125 5.648438 210.472656 5.171875 209.226562 4.726562 C 207.980469 4.28125 206.722656 3.863281 205.457031 3.480469 C 204.191406 3.097656 202.917969 2.742188 201.632812 2.421875 C 200.351562 2.101562 199.058594 1.8125 197.761719 1.554688 C 196.464844 1.296875 195.160156 1.070312 193.851562 0.875 C 192.542969 0.679688 191.230469 0.519531 189.914062 0.390625 C 188.597656 0.257812 187.28125 0.164062 185.957031 0.0976562 C 184.636719 0.03125 183.316406 0 181.992188 0 C 180.667969 0 179.347656 0.03125 178.027344 0.0976562 C 176.703125 0.164062 175.386719 0.257812 174.070312 0.390625 C 172.75 0.519531 171.4375 0.679688 170.128906 0.875 C 168.820312 1.070312 167.519531 1.296875 166.222656 1.554688 C 164.921875 1.8125 163.632812 2.101562 162.351562 2.421875 C 161.066406 2.742188 159.792969 3.097656 158.527344 3.480469 C 157.261719 3.863281 156.003906 4.28125 154.757812 4.726562 C 153.511719 5.171875 152.277344 5.648438 151.058594 6.152344 C 149.835938 6.660156 148.625 7.195312 147.429688 7.761719 C 146.234375 8.328125 145.050781 8.921875 143.886719 9.546875 C 142.71875 10.167969 141.566406 10.820312 140.433594 11.5 C 139.296875 12.179688 138.179688 12.886719 137.082031 13.625 C 135.980469 14.359375 134.898438 15.121094 133.835938 15.910156 C 132.773438 16.695312 131.730469 17.511719 130.710938 18.347656 C 129.6875 19.1875 128.683594 20.050781 127.703125 20.941406 C 126.722656 21.828125 125.765625 22.742188 124.832031 23.675781 C 123.894531 24.613281 122.984375 25.570312 122.09375 26.550781 C 121.207031 27.53125 120.34375 28.53125 119.503906 29.554688 C 118.664062 30.578125 117.851562 31.621094 117.0625 32.683594 C 116.273438 33.746094 115.511719 34.828125 114.777344 35.925781 C 114.042969 37.027344 113.335938 38.144531 112.65625 39.277344 C 111.976562 40.414062 111.324219 41.5625 110.699219 42.730469 C 110.074219 43.898438 109.480469 45.078125 108.914062 46.273438 C 108.351562 47.472656 107.8125 48.679688 107.308594 49.902344 C 106.800781 51.125 106.324219 52.359375 105.878906 53.605469 C 105.433594 54.851562 105.019531 56.105469 104.636719 57.371094 C 104.25 58.636719 103.898438 59.914062 103.578125 61.195312 C 103.253906 62.480469 102.964844 63.769531 102.707031 65.066406 C 102.449219 66.363281 102.222656 67.667969 102.027344 68.976562 C 101.835938 70.285156 101.671875 71.597656 101.542969 72.914062 C 101.414062 74.230469 101.316406 75.550781 101.25 76.871094 C 101.1875 78.191406 101.152344 79.515625 101.152344 80.835938 L 40.527344 80.835938 C 39.140625 80.84375 37.769531 80.988281 36.414062 81.273438 C 35.058594 81.558594 33.746094 81.980469 32.476562 82.539062 C 31.207031 83.09375 30.007812 83.773438 28.878906 84.578125 C 27.75 85.378906 26.714844 86.289062 25.773438 87.304688 C 24.808594 88.324219 23.960938 89.433594 23.230469 90.632812 C 22.5 91.828125 21.898438 93.085938 21.425781 94.410156 C 20.957031 95.730469 20.628906 97.089844 20.441406 98.480469 C 20.253906 99.871094 20.214844 101.265625 20.316406 102.664062 L 37.695312 328 C 37.839844 329.886719 38.074219 331.761719 38.394531 333.625 C 38.714844 335.492188 39.121094 337.335938 39.617188 339.164062 C 40.109375 340.992188 40.6875 342.789062 41.351562 344.5625 C 42.011719 346.335938 42.753906 348.074219 43.578125 349.777344 C 44.40625 351.480469 45.308594 353.140625 46.289062 354.757812 C 47.269531 356.378906 48.320312 357.945312 49.449219 359.464844 C 50.574219 360.988281 51.769531 362.449219 53.035156 363.859375 C 54.300781 365.265625 55.628906 366.613281 57.015625 367.894531 C 58.40625 369.179688 59.855469 370.394531 61.359375 371.542969 C 62.863281 372.691406 64.417969 373.765625 66.023438 374.769531 C 67.625 375.773438 69.273438 376.699219 70.964844 377.546875 C 72.65625 378.394531 74.386719 379.160156 76.148438 379.847656 C 77.910156 380.535156 79.703125 381.136719 81.523438 381.65625 C 83.34375 382.175781 85.183594 382.609375 87.042969 382.953125 C 88.902344 383.300781 90.773438 383.558594 92.660156 383.730469 C 94.542969 383.902344 96.433594 383.984375 98.324219 383.980469 L 266.0625 383.980469 C 267.957031 383.984375 269.84375 383.902344 271.726562 383.730469 C 273.613281 383.558594 275.484375 383.300781 277.34375 382.953125 C 279.207031 382.609375 281.046875 382.175781 282.867188 381.65625 C 284.683594 381.136719 286.476562 380.535156 288.238281 379.847656 C 290.003906 379.160156 291.730469 378.394531 293.421875 377.546875 C 295.113281 376.699219 296.761719 375.773438 298.367188 374.769531 C 299.972656 373.765625 301.523438 372.691406 303.03125 371.542969 C 304.535156 370.394531 305.980469 369.179688 307.371094 367.894531 C 308.761719 366.613281 310.089844 365.265625 311.351562 363.859375 C 312.617188 362.449219 313.8125 360.988281 314.941406 359.464844 C 316.066406 357.945312 317.121094 356.378906 318.101562 354.757812 C 319.082031 353.140625 319.984375 351.480469 320.808594 349.777344 C 321.632812 348.074219 322.375 346.335938 323.039062 344.5625 C 323.699219 342.789062 324.277344 340.992188 324.773438 339.164062 C 325.265625 337.335938 325.671875 335.492188 325.992188 333.625 C 326.3125 331.761719 326.546875 329.886719 326.691406 328 L 343.667969 102.664062 C 343.769531 101.265625 343.730469 99.871094 343.542969 98.480469 C 343.355469 97.089844 343.027344 95.730469 342.554688 94.410156 C 342.085938 93.085938 341.484375 91.828125 340.753906 90.632812 C 340.023438 89.433594 339.175781 88.324219 338.210938 87.304688 Z M 181.992188 40.417969 C 183.316406 40.417969 184.636719 40.484375 185.953125 40.613281 C 187.269531 40.742188 188.578125 40.9375 189.878906 41.195312 C 191.175781 41.453125 192.457031 41.773438 193.726562 42.160156 C 194.992188 42.542969 196.238281 42.988281 197.460938 43.496094 C 198.683594 44.003906 199.878906 44.566406 201.046875 45.191406 C 202.210938 45.816406 203.347656 46.496094 204.449219 47.230469 C 205.546875 47.964844 206.609375 48.753906 207.632812 49.59375 C 208.65625 50.433594 209.636719 51.320312 210.574219 52.257812 C 211.507812 53.195312 212.394531 54.171875 213.234375 55.195312 C 214.074219 56.21875 214.863281 57.28125 215.597656 58.382812 C 216.335938 59.484375 217.015625 60.617188 217.636719 61.785156 C 218.261719 62.953125 218.828125 64.148438 219.335938 65.371094 C 219.839844 66.59375 220.285156 67.839844 220.671875 69.105469 C 221.054688 70.371094 221.375 71.652344 221.632812 72.953125 C 221.890625 74.25 222.085938 75.558594 222.214844 76.875 C 222.347656 78.195312 222.410156 79.515625 222.410156 80.835938 L 141.574219 80.835938 C 141.574219 79.515625 141.636719 78.195312 141.769531 76.875 C 141.898438 75.558594 142.089844 74.25 142.351562 72.953125 C 142.609375 71.652344 142.929688 70.371094 143.3125 69.105469 C 143.699219 67.839844 144.144531 66.59375 144.648438 65.371094 C 145.15625 64.148438 145.722656 62.953125 146.34375 61.785156 C 146.96875 60.617188 147.648438 59.484375 148.386719 58.382812 C 149.121094 57.28125 149.90625 56.21875 150.746094 55.195312 C 151.585938 54.171875 152.476562 53.195312 153.410156 52.257812 C 154.347656 51.320312 155.328125 50.433594 156.351562 49.59375 C 157.375 48.753906 158.4375 47.964844 159.535156 47.230469 C 160.636719 46.496094 161.769531 45.816406 162.9375 45.191406 C 164.105469 44.566406 165.300781 44.003906 166.523438 43.496094 C 167.746094 42.988281 168.992188 42.542969 170.257812 42.160156 C 171.527344 41.773438 172.808594 41.453125 174.105469 41.195312 C 175.40625 40.9375 176.710938 40.742188 178.03125 40.613281 C 179.347656 40.484375 180.667969 40.417969 181.992188 40.417969 Z M 285.867188 324.96875 C 285.816406 325.59375 285.738281 326.21875 285.628906 326.839844 C 285.519531 327.460938 285.382812 328.074219 285.21875 328.679688 C 285.050781 329.285156 284.859375 329.886719 284.636719 330.472656 C 284.414062 331.0625 284.164062 331.640625 283.890625 332.207031 C 283.613281 332.773438 283.3125 333.324219 282.984375 333.863281 C 282.65625 334.398438 282.304688 334.921875 281.929688 335.425781 C 281.554688 335.929688 281.15625 336.414062 280.734375 336.882812 C 280.3125 337.351562 279.871094 337.796875 279.40625 338.222656 C 278.945312 338.648438 278.460938 339.054688 277.960938 339.433594 C 277.460938 339.816406 276.941406 340.171875 276.40625 340.503906 C 275.875 340.839844 275.324219 341.144531 274.761719 341.425781 C 274.199219 341.707031 273.625 341.964844 273.035156 342.191406 C 272.449219 342.417969 271.855469 342.617188 271.25 342.789062 C 270.644531 342.964844 270.03125 343.105469 269.414062 343.222656 C 268.792969 343.335938 268.171875 343.421875 267.542969 343.480469 C 266.917969 343.535156 266.289062 343.5625 265.660156 343.5625 L 98.121094 343.5625 C 97.492188 343.5625 96.863281 343.535156 96.238281 343.480469 C 95.613281 343.421875 94.988281 343.335938 94.371094 343.222656 C 93.75 343.105469 93.136719 342.964844 92.53125 342.789062 C 91.925781 342.617188 91.332031 342.417969 90.746094 342.191406 C 90.15625 341.964844 89.582031 341.707031 89.019531 341.425781 C 88.457031 341.144531 87.910156 340.839844 87.375 340.503906 C 86.839844 340.171875 86.320312 339.816406 85.820312 339.433594 C 85.320312 339.054688 84.839844 338.648438 84.375 338.222656 C 83.910156 337.796875 83.46875 337.351562 83.046875 336.882812 C 82.625 336.414062 82.226562 335.929688 81.851562 335.425781 C 81.476562 334.921875 81.125 334.398438 80.796875 333.863281 C 80.46875 333.324219 80.167969 332.773438 79.890625 332.207031 C 79.617188 331.640625 79.367188 331.0625 79.144531 330.472656 C 78.921875 329.886719 78.730469 329.285156 78.5625 328.679688 C 78.398438 328.074219 78.261719 327.460938 78.152344 326.839844 C 78.042969 326.21875 77.964844 325.59375 77.914062 324.96875 L 62.351562 121.257812 L 101.152344 121.257812 L 101.152344 141.464844 C 101.152344 142.128906 101.1875 142.789062 101.25 143.445312 C 101.316406 144.105469 101.414062 144.757812 101.542969 145.410156 C 101.671875 146.058594 101.832031 146.699219 102.023438 147.332031 C 102.214844 147.964844 102.4375 148.589844 102.691406 149.199219 C 102.945312 149.8125 103.226562 150.410156 103.539062 150.992188 C 103.851562 151.578125 104.191406 152.144531 104.558594 152.695312 C 104.929688 153.246094 105.320312 153.773438 105.742188 154.285156 C 106.160156 154.796875 106.605469 155.289062 107.074219 155.757812 C 107.542969 156.222656 108.03125 156.667969 108.542969 157.089844 C 109.054688 157.507812 109.585938 157.902344 110.136719 158.269531 C 110.6875 158.636719 111.253906 158.976562 111.835938 159.289062 C 112.421875 159.601562 113.019531 159.882812 113.628906 160.136719 C 114.242188 160.390625 114.863281 160.613281 115.496094 160.804688 C 116.128906 160.996094 116.773438 161.15625 117.421875 161.289062 C 118.070312 161.417969 118.722656 161.511719 119.382812 161.578125 C 120.042969 161.644531 120.703125 161.675781 121.363281 161.675781 C 122.027344 161.675781 122.6875 161.644531 123.34375 161.578125 C 124.003906 161.511719 124.65625 161.417969 125.304688 161.289062 C 125.957031 161.15625 126.597656 160.996094 127.230469 160.804688 C 127.863281 160.613281 128.484375 160.390625 129.097656 160.136719 C 129.707031 159.882812 130.304688 159.601562 130.890625 159.289062 C 131.472656 158.976562 132.042969 158.636719 132.589844 158.269531 C 133.140625 157.902344 133.671875 157.507812 134.183594 157.089844 C 134.695312 156.667969 135.1875 156.222656 135.652344 155.757812 C 136.121094 155.289062 136.566406 154.796875 136.984375 154.285156 C 137.40625 153.773438 137.800781 153.246094 138.167969 152.695312 C 138.535156 152.144531 138.875 151.578125 139.1875 150.992188 C 139.5 150.410156 139.78125 149.8125 140.035156 149.199219 C 140.289062 148.589844 140.511719 147.964844 140.703125 147.332031 C 140.894531 146.699219 141.054688 146.058594 141.183594 145.410156 C 141.3125 144.757812 141.410156 144.105469 141.476562 143.445312 C 141.539062 142.789062 141.574219 142.128906 141.574219 141.464844 L 141.574219 121.257812 L 222.410156 121.257812 L 222.410156 141.464844 C 222.410156 142.128906 222.441406 142.789062 222.507812 143.445312 C 222.574219 144.105469 222.671875 144.757812 222.800781 145.410156 C 222.929688 146.058594 223.089844 146.699219 223.28125 147.332031 C 223.472656 147.964844 223.695312 148.589844 223.949219 149.199219 C 224.203125 149.8125 224.484375 150.410156 224.796875 150.992188 C 225.109375 151.578125 225.449219 152.144531 225.816406 152.695312 C 226.183594 153.246094 226.578125 153.773438 227 154.285156 C 227.417969 154.796875 227.863281 155.289062 228.328125 155.757812 C 228.796875 156.222656 229.289062 156.667969 229.800781 157.089844 C 230.3125 157.507812 230.84375 157.902344 231.390625 158.269531 C 231.941406 158.636719 232.511719 158.976562 233.09375 159.289062 C 233.675781 159.601562 234.273438 159.882812 234.886719 160.136719 C 235.496094 160.390625 236.121094 160.613281 236.753906 160.804688 C 237.386719 160.996094 238.027344 161.15625 238.675781 161.289062 C 239.328125 161.417969 239.980469 161.511719 240.640625 161.578125 C 241.296875 161.644531 241.957031 161.675781 242.621094 161.675781 C 243.28125 161.675781 243.941406 161.644531 244.601562 161.578125 C 245.261719 161.511719 245.914062 161.417969 246.5625 161.289062 C 247.210938 161.15625 247.851562 160.996094 248.488281 160.804688 C 249.121094 160.613281 249.742188 160.390625 250.355469 160.136719 C 250.964844 159.882812 251.5625 159.601562 252.148438 159.289062 C 252.730469 158.976562 253.296875 158.636719 253.847656 158.269531 C 254.398438 157.902344 254.929688 157.507812 255.441406 157.089844 C 255.953125 156.667969 256.441406 156.222656 256.910156 155.757812 C 257.378906 155.289062 257.824219 154.796875 258.242188 154.285156 C 258.664062 153.773438 259.054688 153.246094 259.425781 152.695312 C 259.792969 152.144531 260.132812 151.578125 260.445312 150.992188 C 260.753906 150.410156 261.039062 149.8125 261.292969 149.199219 C 261.542969 148.589844 261.765625 147.964844 261.960938 147.332031 C 262.152344 146.699219 262.3125 146.058594 262.441406 145.410156 C 262.570312 144.757812 262.667969 144.105469 262.734375 143.445312 C 262.796875 142.789062 262.828125 142.128906 262.828125 141.464844 L 262.828125 121.257812 L 301.632812 121.257812 Z M 285.867188 324.96875 " fill-opacity="1" fill-rule="nonzero"/></g></g><g transform="matrix(1, 0, 0, 1, 128, 170)"><g clip-path="url(#fa10dba81e)"><g fill="#000000" fill-opacity="1"><g transform="translate(0.126149, 136.783662)"><g><path d="M 91.65625 -135.640625 L 91.65625 -128.28125 L 46.125 -128.28125 C 36.820312 -128.28125 29.617188 -126.503906 24.515625 -122.953125 C 19.410156 -119.398438 16.859375 -113.234375 16.859375 -104.453125 C 16.859375 -100.703125 17.503906 -97.4375 18.796875 -94.65625 C 20.085938 -91.882812 21.832031 -89.460938 24.03125 -87.390625 C 26.226562 -85.328125 28.84375 -83.519531 31.875 -81.96875 C 34.914062 -80.414062 38.175781 -79.0625 41.65625 -77.90625 C 45.664062 -76.476562 49.898438 -75.179688 54.359375 -74.015625 C 58.816406 -72.859375 63.175781 -71.566406 67.4375 -70.140625 C 71.695312 -68.722656 75.765625 -67.078125 79.640625 -65.203125 C 83.515625 -63.328125 86.90625 -61 89.8125 -58.21875 C 92.71875 -55.445312 95.039062 -52.125 96.78125 -48.25 C 98.53125 -44.375 99.40625 -39.722656 99.40625 -34.296875 C 99.40625 -28.484375 98.40625 -23.410156 96.40625 -19.078125 C 94.40625 -14.753906 91.5625 -11.203125 87.875 -8.421875 C 84.195312 -5.648438 79.804688 -3.550781 74.703125 -2.125 C 69.597656 -0.707031 63.945312 0 57.75 0 L 8.328125 0 L 8.328125 -7.359375 L 56.78125 -7.359375 C 67.238281 -7.359375 75.535156 -9.488281 81.671875 -13.75 C 87.816406 -18.019531 90.890625 -24.484375 90.890625 -33.140625 C 90.890625 -39.335938 89.46875 -44.375 86.625 -48.25 C 83.78125 -52.125 80.160156 -55.253906 75.765625 -57.640625 C 71.378906 -60.035156 66.503906 -61.972656 61.140625 -63.453125 C 55.773438 -64.941406 50.507812 -66.460938 45.34375 -68.015625 C 40.4375 -69.441406 35.753906 -71.023438 31.296875 -72.765625 C 26.835938 -74.503906 22.894531 -76.796875 19.46875 -79.640625 C 16.050781 -82.484375 13.335938 -85.9375 11.328125 -90 C 9.328125 -94.070312 8.328125 -99.144531 8.328125 -105.21875 C 8.328125 -114.90625 11.523438 -122.394531 17.921875 -127.6875 C 24.316406 -132.988281 32.75 -135.640625 43.21875 -135.640625 Z M 91.65625 -135.640625 "/></g></g></g></g></g></g></g></svg>