<svg xmlns="http://www.w3.org/2000/svg" xmlns:xlink="http://www.w3.org/1999/xlink" width="512" zoomAndPan="magnify" viewBox="0 0 384 383.999986" height="512" preserveAspectRatio="xMidYMid meet" version="1.0"><defs><g/><clipPath id="32d00e81f7"><path d="M 30.238281 0 L 353.488281 0 L 353.488281 384 L 30.238281 384 Z M 30.238281 0 " clip-rule="nonzero"/></clipPath><clipPath id="666a9182f1"><path d="M 30.238281 35.25 L 30.238281 348.75 C 30.238281 368.21875 46.023438 384 65.488281 384 L 318.511719 384 C 337.976562 384 353.761719 368.21875 353.761719 348.75 L 353.761719 35.25 C 353.761719 15.78125 337.976562 0 318.511719 0 L 65.488281 0 C 46.023438 0 30.238281 15.78125 30.238281 35.25 Z M 30.238281 35.25 " clip-rule="nonzero"/></clipPath><clipPath id="eca2fa6443"><rect x="0" width="108" y="0" height="196"/></clipPath></defs><g clip-path="url(#32d00e81f7)"><g clip-path="url(#666a9182f1)"><path fill="#ef6a01" d="M 348.226562 87.308594 C 347.285156 86.292969 346.25 85.382812 345.121094 84.582031 C 343.992188 83.777344 342.792969 83.097656 341.523438 82.542969 C 340.253906 81.984375 338.941406 81.566406 337.585938 81.277344 C 336.230469 80.992188 334.859375 80.847656 333.472656 80.84375 L 272.84375 80.84375 C 272.84375 79.519531 272.808594 78.195312 272.746094 76.875 C 272.679688 75.554688 272.582031 74.234375 272.453125 72.917969 C 272.324219 71.601562 272.160156 70.289062 271.96875 68.980469 C 271.773438 67.671875 271.546875 66.367188 271.289062 65.070312 C 271.03125 63.773438 270.742188 62.484375 270.417969 61.199219 C 270.097656 59.914062 269.746094 58.640625 269.359375 57.375 C 268.976562 56.109375 268.5625 54.851562 268.117188 53.605469 C 267.671875 52.363281 267.195312 51.128906 266.6875 49.90625 C 266.183594 48.683594 265.644531 47.472656 265.082031 46.277344 C 264.515625 45.082031 263.917969 43.898438 263.296875 42.734375 C 262.671875 41.566406 262.019531 40.414062 261.339844 39.28125 C 260.660156 38.144531 259.953125 37.027344 259.21875 35.929688 C 258.480469 34.828125 257.722656 33.746094 256.933594 32.683594 C 256.144531 31.621094 255.332031 30.578125 254.492188 29.554688 C 253.652344 28.535156 252.789062 27.53125 251.898438 26.550781 C 251.011719 25.570312 250.097656 24.613281 249.164062 23.679688 C 248.226562 22.742188 247.269531 21.832031 246.289062 20.941406 C 245.308594 20.054688 244.308594 19.191406 243.285156 18.351562 C 242.261719 17.511719 241.21875 16.695312 240.15625 15.910156 C 239.09375 15.121094 238.011719 14.359375 236.914062 13.625 C 235.8125 12.890625 234.695312 12.183594 233.5625 11.5 C 232.425781 10.820312 231.273438 10.167969 230.109375 9.546875 C 228.941406 8.921875 227.761719 8.328125 226.5625 7.761719 C 225.367188 7.195312 224.160156 6.660156 222.9375 6.152344 C 221.714844 5.648438 220.480469 5.171875 219.234375 4.726562 C 217.988281 4.28125 216.734375 3.863281 215.46875 3.480469 C 214.199219 3.097656 212.925781 2.746094 211.644531 2.421875 C 210.359375 2.101562 209.070312 1.8125 207.769531 1.554688 C 206.472656 1.296875 205.171875 1.070312 203.863281 0.875 C 202.554688 0.679688 201.242188 0.519531 199.921875 0.390625 C 198.605469 0.257812 197.289062 0.164062 195.964844 0.0976562 C 194.644531 0.03125 193.324219 0 192 0 C 190.675781 0 189.355469 0.03125 188.03125 0.0976562 C 186.710938 0.164062 185.390625 0.257812 184.074219 0.390625 C 182.757812 0.519531 181.445312 0.679688 180.136719 0.875 C 178.828125 1.070312 177.527344 1.296875 176.226562 1.554688 C 174.929688 1.8125 173.640625 2.101562 172.355469 2.421875 C 171.074219 2.746094 169.796875 3.097656 168.53125 3.480469 C 167.265625 3.863281 166.011719 4.28125 164.765625 4.726562 C 163.519531 5.171875 162.285156 5.648438 161.0625 6.152344 C 159.839844 6.660156 158.632812 7.195312 157.433594 7.761719 C 156.238281 8.328125 155.058594 8.921875 153.890625 9.546875 C 152.722656 10.167969 151.574219 10.820312 150.4375 11.5 C 149.304688 12.183594 148.1875 12.890625 147.085938 13.625 C 145.984375 14.359375 144.90625 15.121094 143.84375 15.910156 C 142.78125 16.695312 141.738281 17.511719 140.714844 18.351562 C 139.691406 19.191406 138.691406 20.054688 137.710938 20.941406 C 136.730469 21.832031 135.769531 22.742188 134.835938 23.679688 C 133.898438 24.613281 132.988281 25.570312 132.101562 26.550781 C 131.210938 27.53125 130.347656 28.535156 129.507812 29.554688 C 128.667969 30.578125 127.855469 31.621094 127.066406 32.683594 C 126.277344 33.746094 125.515625 34.828125 124.78125 35.929688 C 124.046875 37.027344 123.339844 38.144531 122.660156 39.28125 C 121.980469 40.414062 121.328125 41.566406 120.703125 42.734375 C 120.078125 43.898438 119.484375 45.082031 118.917969 46.277344 C 118.355469 47.472656 117.816406 48.683594 117.3125 49.90625 C 116.804688 51.128906 116.328125 52.363281 115.882812 53.605469 C 115.4375 54.851562 115.023438 56.109375 114.640625 57.375 C 114.253906 58.640625 113.902344 59.914062 113.582031 61.199219 C 113.257812 62.484375 112.96875 63.773438 112.710938 65.070312 C 112.453125 66.367188 112.226562 67.671875 112.03125 68.980469 C 111.839844 70.289062 111.675781 71.601562 111.546875 72.917969 C 111.417969 74.234375 111.320312 75.554688 111.253906 76.875 C 111.191406 78.195312 111.15625 79.519531 111.15625 80.84375 L 50.527344 80.84375 C 49.140625 80.847656 47.769531 80.992188 46.414062 81.277344 C 45.058594 81.566406 43.746094 81.984375 42.476562 82.542969 C 41.207031 83.097656 40.007812 83.777344 38.878906 84.582031 C 37.75 85.382812 36.714844 86.292969 35.773438 87.308594 C 34.808594 88.328125 33.960938 89.4375 33.230469 90.636719 C 32.496094 91.832031 31.898438 93.09375 31.425781 94.414062 C 30.957031 95.738281 30.628906 97.09375 30.441406 98.484375 C 30.253906 99.875 30.210938 101.269531 30.316406 102.667969 L 47.695312 328.015625 C 47.839844 329.902344 48.074219 331.78125 48.394531 333.644531 C 48.714844 335.507812 49.125 337.355469 49.617188 339.183594 C 50.109375 341.007812 50.6875 342.808594 51.351562 344.582031 C 52.011719 346.355469 52.753906 348.09375 53.582031 349.796875 C 54.40625 351.5 55.308594 353.160156 56.289062 354.777344 C 57.269531 356.394531 58.320312 357.964844 59.449219 359.484375 C 60.578125 361.003906 61.773438 362.46875 63.035156 363.878906 C 64.300781 365.285156 65.628906 366.632812 67.019531 367.914062 C 68.410156 369.199219 69.855469 370.414062 71.359375 371.5625 C 72.863281 372.710938 74.417969 373.785156 76.023438 374.789062 C 77.628906 375.792969 79.277344 376.71875 80.96875 377.566406 C 82.660156 378.414062 84.386719 379.183594 86.152344 379.867188 C 87.914062 380.554688 89.707031 381.15625 91.523438 381.675781 C 93.34375 382.195312 95.183594 382.628906 97.046875 382.976562 C 98.90625 383.320312 100.777344 383.582031 102.664062 383.75 C 104.546875 383.921875 106.4375 384.003906 108.328125 384 L 276.074219 384 C 277.96875 384.003906 279.855469 383.921875 281.742188 383.75 C 283.625 383.582031 285.496094 383.320312 287.359375 382.976562 C 289.21875 382.628906 291.058594 382.195312 292.878906 381.675781 C 294.699219 381.15625 296.488281 380.554688 298.253906 379.867188 C 300.015625 379.183594 301.742188 378.414062 303.433594 377.566406 C 305.128906 376.71875 306.773438 375.792969 308.378906 374.789062 C 309.984375 373.785156 311.539062 372.710938 313.042969 371.5625 C 314.546875 370.414062 315.996094 369.199219 317.386719 367.914062 C 318.777344 366.632812 320.101562 365.285156 321.367188 363.878906 C 322.632812 362.46875 323.828125 361.003906 324.953125 359.484375 C 326.082031 357.964844 327.136719 356.394531 328.117188 354.777344 C 329.097656 353.160156 330 351.5 330.824219 349.796875 C 331.648438 348.09375 332.390625 346.355469 333.054688 344.582031 C 333.714844 342.808594 334.292969 341.007812 334.785156 339.183594 C 335.28125 337.355469 335.6875 335.507812 336.007812 333.644531 C 336.328125 331.78125 336.5625 329.902344 336.707031 328.015625 L 353.683594 102.667969 C 353.789062 101.269531 353.746094 99.875 353.558594 98.484375 C 353.371094 97.09375 353.042969 95.738281 352.574219 94.414062 C 352.101562 93.09375 351.503906 91.832031 350.769531 90.636719 C 350.039062 89.4375 349.191406 88.328125 348.226562 87.308594 Z M 192 40.421875 C 193.324219 40.421875 194.644531 40.484375 195.960938 40.617188 C 197.277344 40.746094 198.585938 40.941406 199.886719 41.199219 C 201.183594 41.457031 202.464844 41.777344 203.734375 42.160156 C 205 42.546875 206.246094 42.992188 207.46875 43.496094 C 208.691406 44.003906 209.886719 44.570312 211.054688 45.195312 C 212.222656 45.816406 213.355469 46.496094 214.457031 47.234375 C 215.558594 47.96875 216.621094 48.757812 217.644531 49.597656 C 218.664062 50.4375 219.644531 51.324219 220.582031 52.261719 C 221.519531 53.195312 222.40625 54.175781 223.246094 55.199219 C 224.085938 56.222656 224.875 57.285156 225.609375 58.386719 C 226.34375 59.484375 227.023438 60.621094 227.648438 61.789062 C 228.273438 62.957031 228.835938 64.152344 229.34375 65.375 C 229.851562 66.597656 230.296875 67.839844 230.679688 69.109375 C 231.066406 70.375 231.386719 71.65625 231.644531 72.957031 C 231.902344 74.253906 232.097656 75.5625 232.226562 76.878906 C 232.355469 78.199219 232.421875 79.519531 232.421875 80.84375 L 151.578125 80.84375 C 151.578125 79.519531 151.644531 78.199219 151.773438 76.878906 C 151.902344 75.5625 152.097656 74.253906 152.355469 72.957031 C 152.613281 71.65625 152.933594 70.375 153.320312 69.109375 C 153.703125 67.839844 154.148438 66.597656 154.65625 65.375 C 155.164062 64.152344 155.726562 62.957031 156.351562 61.789062 C 156.976562 60.621094 157.65625 59.484375 158.390625 58.386719 C 159.125 57.285156 159.914062 56.222656 160.753906 55.199219 C 161.59375 54.175781 162.480469 53.195312 163.417969 52.261719 C 164.355469 51.324219 165.332031 50.4375 166.355469 49.597656 C 167.378906 48.757812 168.441406 47.96875 169.542969 47.234375 C 170.644531 46.496094 171.777344 45.816406 172.945312 45.195312 C 174.113281 44.570312 175.308594 44.003906 176.53125 43.496094 C 177.753906 42.992188 179 42.546875 180.265625 42.160156 C 181.53125 41.777344 182.816406 41.457031 184.113281 41.199219 C 185.414062 40.941406 186.71875 40.746094 188.039062 40.617188 C 189.355469 40.484375 190.675781 40.421875 192 40.421875 Z M 295.882812 324.984375 C 295.832031 325.613281 295.753906 326.238281 295.644531 326.855469 C 295.535156 327.476562 295.398438 328.089844 295.230469 328.695312 C 295.066406 329.304688 294.871094 329.902344 294.648438 330.492188 C 294.429688 331.082031 294.179688 331.660156 293.902344 332.222656 C 293.628906 332.789062 293.324219 333.339844 293 333.878906 C 292.671875 334.417969 292.320312 334.9375 291.941406 335.441406 C 291.566406 335.949219 291.167969 336.433594 290.746094 336.902344 C 290.324219 337.367188 289.882812 337.816406 289.417969 338.242188 C 288.957031 338.667969 288.472656 339.070312 287.972656 339.453125 C 287.472656 339.835938 286.953125 340.191406 286.421875 340.523438 C 285.886719 340.855469 285.335938 341.164062 284.773438 341.445312 C 284.210938 341.726562 283.636719 341.980469 283.050781 342.210938 C 282.460938 342.4375 281.867188 342.636719 281.261719 342.808594 C 280.65625 342.980469 280.042969 343.125 279.425781 343.238281 C 278.804688 343.355469 278.183594 343.441406 277.554688 343.496094 C 276.929688 343.554688 276.300781 343.582031 275.671875 343.578125 L 108.125 343.578125 C 107.496094 343.582031 106.867188 343.554688 106.242188 343.496094 C 105.613281 343.441406 104.992188 343.355469 104.371094 343.238281 C 103.753906 343.125 103.140625 342.980469 102.535156 342.808594 C 101.929688 342.636719 101.335938 342.4375 100.746094 342.210938 C 100.160156 341.980469 99.585938 341.726562 99.023438 341.445312 C 98.460938 341.164062 97.910156 340.855469 97.375 340.523438 C 96.84375 340.191406 96.324219 339.835938 95.824219 339.453125 C 95.324219 339.070312 94.839844 338.667969 94.378906 338.242188 C 93.914062 337.816406 93.472656 337.367188 93.050781 336.902344 C 92.628906 336.433594 92.230469 335.949219 91.855469 335.441406 C 91.476562 334.9375 91.125 334.417969 90.800781 333.878906 C 90.472656 333.339844 90.171875 332.789062 89.894531 332.222656 C 89.617188 331.660156 89.371094 331.082031 89.148438 330.492188 C 88.925781 329.902344 88.730469 329.304688 88.566406 328.695312 C 88.398438 328.089844 88.261719 327.476562 88.152344 326.855469 C 88.046875 326.238281 87.964844 325.613281 87.914062 324.984375 L 72.351562 121.261719 L 111.15625 121.261719 L 111.15625 141.472656 C 111.15625 142.136719 111.191406 142.796875 111.253906 143.453125 C 111.320312 144.113281 111.417969 144.765625 111.546875 145.417969 C 111.675781 146.066406 111.835938 146.707031 112.027344 147.339844 C 112.21875 147.972656 112.441406 148.597656 112.695312 149.207031 C 112.949219 149.820312 113.230469 150.417969 113.542969 151 C 113.855469 151.585938 114.195312 152.152344 114.5625 152.703125 C 114.929688 153.253906 115.324219 153.785156 115.746094 154.296875 C 116.164062 154.808594 116.609375 155.296875 117.078125 155.765625 C 117.546875 156.234375 118.035156 156.675781 118.546875 157.097656 C 119.058594 157.515625 119.589844 157.910156 120.140625 158.277344 C 120.691406 158.644531 121.257812 158.984375 121.839844 159.296875 C 122.425781 159.609375 123.023438 159.890625 123.632812 160.144531 C 124.246094 160.398438 124.867188 160.621094 125.5 160.8125 C 126.136719 161.007812 126.777344 161.167969 127.425781 161.296875 C 128.074219 161.425781 128.726562 161.523438 129.386719 161.585938 C 130.046875 161.652344 130.707031 161.683594 131.367188 161.683594 C 132.03125 161.683594 132.691406 161.652344 133.347656 161.585938 C 134.007812 161.523438 134.660156 161.425781 135.3125 161.296875 C 135.960938 161.167969 136.601562 161.007812 137.234375 160.8125 C 137.867188 160.621094 138.492188 160.398438 139.101562 160.144531 C 139.714844 159.890625 140.3125 159.609375 140.894531 159.296875 C 141.480469 158.984375 142.046875 158.644531 142.597656 158.277344 C 143.148438 157.910156 143.679688 157.515625 144.191406 157.097656 C 144.703125 156.675781 145.191406 156.234375 145.660156 155.765625 C 146.128906 155.296875 146.570312 154.808594 146.992188 154.296875 C 147.410156 153.785156 147.804688 153.253906 148.171875 152.703125 C 148.539062 152.152344 148.878906 151.585938 149.191406 151 C 149.503906 150.417969 149.785156 149.820312 150.039062 149.207031 C 150.292969 148.597656 150.515625 147.972656 150.707031 147.339844 C 150.902344 146.707031 151.0625 146.066406 151.191406 145.417969 C 151.320312 144.765625 151.417969 144.113281 151.480469 143.453125 C 151.546875 142.796875 151.578125 142.136719 151.578125 141.472656 L 151.578125 121.261719 L 232.421875 121.261719 L 232.421875 141.472656 C 232.421875 142.136719 232.453125 142.796875 232.519531 143.453125 C 232.582031 144.113281 232.679688 144.765625 232.808594 145.417969 C 232.9375 146.066406 233.097656 146.707031 233.292969 147.339844 C 233.484375 147.972656 233.707031 148.597656 233.960938 149.207031 C 234.210938 149.820312 234.496094 150.417969 234.808594 151 C 235.121094 151.585938 235.460938 152.152344 235.828125 152.703125 C 236.195312 153.253906 236.589844 153.785156 237.007812 154.296875 C 237.429688 154.808594 237.871094 155.296875 238.339844 155.765625 C 238.808594 156.234375 239.296875 156.675781 239.808594 157.097656 C 240.320312 157.515625 240.851562 157.910156 241.402344 158.277344 C 241.953125 158.644531 242.519531 158.984375 243.105469 159.296875 C 243.6875 159.609375 244.285156 159.890625 244.898438 160.144531 C 245.507812 160.398438 246.132812 160.621094 246.765625 160.8125 C 247.398438 161.007812 248.039062 161.167969 248.6875 161.296875 C 249.335938 161.425781 249.992188 161.523438 250.648438 161.585938 C 251.308594 161.652344 251.96875 161.683594 252.632812 161.683594 C 253.292969 161.683594 253.953125 161.652344 254.613281 161.585938 C 255.269531 161.523438 255.925781 161.425781 256.574219 161.296875 C 257.222656 161.167969 257.863281 161.007812 258.5 160.8125 C 259.132812 160.621094 259.753906 160.398438 260.367188 160.144531 C 260.976562 159.890625 261.574219 159.609375 262.160156 159.296875 C 262.742188 158.984375 263.308594 158.644531 263.859375 158.277344 C 264.410156 157.910156 264.941406 157.515625 265.453125 157.097656 C 265.964844 156.675781 266.453125 156.234375 266.921875 155.765625 C 267.390625 155.296875 267.835938 154.808594 268.253906 154.296875 C 268.675781 153.785156 269.066406 153.253906 269.4375 152.703125 C 269.804688 152.152344 270.144531 151.585938 270.457031 151 C 270.765625 150.417969 271.050781 149.820312 271.304688 149.207031 C 271.558594 148.597656 271.78125 147.972656 271.972656 147.339844 C 272.164062 146.707031 272.324219 146.066406 272.453125 145.417969 C 272.582031 144.765625 272.679688 144.113281 272.746094 143.453125 C 272.808594 142.796875 272.84375 142.136719 272.84375 141.472656 L 272.84375 121.261719 L 311.644531 121.261719 Z M 295.882812 324.984375 " fill-opacity="1" fill-rule="nonzero"/></g></g><g transform="matrix(1, 0, 0, 1, 138, 170)"><g clip-path="url(#eca2fa6443)"><g fill="#ffffff" fill-opacity="1"><g transform="translate(0.126149, 136.783662)"><g><path d="M 91.65625 -135.640625 L 91.65625 -128.28125 L 46.125 -128.28125 C 36.820312 -128.28125 29.617188 -126.503906 24.515625 -122.953125 C 19.410156 -119.398438 16.859375 -113.234375 16.859375 -104.453125 C 16.859375 -100.703125 17.503906 -97.4375 18.796875 -94.65625 C 20.085938 -91.882812 21.832031 -89.460938 24.03125 -87.390625 C 26.226562 -85.328125 28.84375 -83.519531 31.875 -81.96875 C 34.914062 -80.414062 38.175781 -79.0625 41.65625 -77.90625 C 45.664062 -76.476562 49.898438 -75.179688 54.359375 -74.015625 C 58.816406 -72.859375 63.175781 -71.566406 67.4375 -70.140625 C 71.695312 -68.722656 75.765625 -67.078125 79.640625 -65.203125 C 83.515625 -63.328125 86.90625 -61 89.8125 -58.21875 C 92.71875 -55.445312 95.039062 -52.125 96.78125 -48.25 C 98.53125 -44.375 99.40625 -39.722656 99.40625 -34.296875 C 99.40625 -28.484375 98.40625 -23.410156 96.40625 -19.078125 C 94.40625 -14.753906 91.5625 -11.203125 87.875 -8.421875 C 84.195312 -5.648438 79.804688 -3.550781 74.703125 -2.125 C 69.597656 -0.707031 63.945312 0 57.75 0 L 8.328125 0 L 8.328125 -7.359375 L 56.78125 -7.359375 C 67.238281 -7.359375 75.535156 -9.488281 81.671875 -13.75 C 87.816406 -18.019531 90.890625 -24.484375 90.890625 -33.140625 C 90.890625 -39.335938 89.46875 -44.375 86.625 -48.25 C 83.78125 -52.125 80.160156 -55.253906 75.765625 -57.640625 C 71.378906 -60.035156 66.503906 -61.972656 61.140625 -63.453125 C 55.773438 -64.941406 50.507812 -66.460938 45.34375 -68.015625 C 40.4375 -69.441406 35.753906 -71.023438 31.296875 -72.765625 C 26.835938 -74.503906 22.894531 -76.796875 19.46875 -79.640625 C 16.050781 -82.484375 13.335938 -85.9375 11.328125 -90 C 9.328125 -94.070312 8.328125 -99.144531 8.328125 -105.21875 C 8.328125 -114.90625 11.523438 -122.394531 17.921875 -127.6875 C 24.316406 -132.988281 32.75 -135.640625 43.21875 -135.640625 Z M 91.65625 -135.640625 "/></g></g></g></g></g></svg>