<svg xmlns="http://www.w3.org/2000/svg" xmlns:xlink="http://www.w3.org/1999/xlink" width="947" zoomAndPan="magnify" viewBox="0 0 710.25 295.499996" height="394" preserveAspectRatio="xMidYMid meet" version="1.0"><defs><g/><clipPath id="f8c879ee09"><path d="M 0.226562 0 L 709.277344 0 L 709.277344 295 L 0.226562 295 Z M 0.226562 0 " clip-rule="nonzero"/></clipPath><clipPath id="e5a69ddf93"><path d="M 0.226562 40.886719 L 182.917969 40.886719 L 182.917969 258 L 0.226562 258 Z M 0.226562 40.886719 " clip-rule="nonzero"/></clipPath><clipPath id="7795f99932"><path d="M 0.226562 76.074219 L 0.226562 222.703125 C 0.226562 242.136719 15.980469 257.890625 35.414062 257.890625 L 147.863281 257.890625 C 167.296875 257.890625 183.054688 242.136719 183.054688 222.703125 L 183.054688 76.074219 C 183.054688 56.640625 167.296875 40.886719 147.863281 40.886719 L 35.414062 40.886719 C 15.980469 40.886719 0.226562 56.640625 0.226562 76.074219 Z M 0.226562 76.074219 " clip-rule="nonzero"/></clipPath><clipPath id="7849a45172"><rect x="0" width="337" y="0" height="133"/></clipPath><clipPath id="4bb61cf6de"><path d="M 33 0.0703125 L 71 0.0703125 L 71 61 L 33 61 Z M 33 0.0703125 " clip-rule="nonzero"/></clipPath><clipPath id="34029ddf5b"><rect x="0" width="332" y="0" height="88"/></clipPath><clipPath id="8651b11864"><path d="M 4 0.171875 L 57 0.171875 L 57 77 L 4 77 Z M 4 0.171875 " clip-rule="nonzero"/></clipPath><clipPath id="cfc7593664"><rect x="0" width="62" y="0" height="111"/></clipPath></defs><g clip-path="url(#f8c879ee09)"><path fill="#ffffff" d="M 0.226562 0 L 709.277344 0 L 709.277344 295 L 0.226562 295 Z M 0.226562 0 " fill-opacity="1" fill-rule="nonzero"/></g><g clip-path="url(#e5a69ddf93)"><g clip-path="url(#7795f99932)"><path fill="#ef6a01" d="M 179.921875 90.226562 C 178.84375 89.0625 177.582031 88.167969 176.132812 87.53125 C 174.683594 86.894531 173.167969 86.574219 171.585938 86.570312 L 137.320312 86.570312 C 137.320312 85.074219 137.246094 83.582031 137.101562 82.09375 C 136.953125 80.601562 136.734375 79.125 136.441406 77.65625 C 136.152344 76.191406 135.789062 74.738281 135.351562 73.308594 C 134.917969 71.875 134.414062 70.46875 133.84375 69.085938 C 133.269531 67.703125 132.632812 66.355469 131.925781 65.035156 C 131.21875 63.714844 130.453125 62.433594 129.621094 61.1875 C 128.789062 59.945312 127.898438 58.746094 126.949219 57.585938 C 126 56.429688 124.996094 55.324219 123.941406 54.265625 C 122.882812 53.207031 121.773438 52.203125 120.617188 51.253906 C 119.460938 50.304688 118.261719 49.414062 117.015625 48.585938 C 115.773438 47.753906 114.492188 46.984375 113.171875 46.28125 C 111.851562 45.574219 110.5 44.933594 109.117188 44.363281 C 107.734375 43.789062 106.328125 43.285156 104.898438 42.851562 C 103.464844 42.417969 102.015625 42.054688 100.546875 41.761719 C 99.082031 41.472656 97.601562 41.25 96.113281 41.105469 C 94.625 40.957031 93.132812 40.886719 91.636719 40.886719 C 90.140625 40.886719 88.644531 40.957031 87.15625 41.105469 C 85.667969 41.25 84.191406 41.472656 82.722656 41.761719 C 81.253906 42.054688 79.804688 42.417969 78.375 42.851562 C 76.941406 43.285156 75.535156 43.789062 74.152344 44.363281 C 72.769531 44.933594 71.417969 45.574219 70.097656 46.28125 C 68.78125 46.984375 67.5 47.753906 66.253906 48.585938 C 65.011719 49.414062 63.808594 50.304688 62.652344 51.253906 C 61.496094 52.203125 60.390625 53.207031 59.332031 54.265625 C 58.273438 55.324219 57.269531 56.429688 56.320312 57.585938 C 55.371094 58.746094 54.480469 59.945312 53.648438 61.1875 C 52.816406 62.433594 52.050781 63.714844 51.34375 65.035156 C 50.640625 66.355469 50 67.703125 49.429688 69.085938 C 48.855469 70.46875 48.351562 71.875 47.917969 73.308594 C 47.484375 74.738281 47.121094 76.191406 46.828125 77.65625 C 46.535156 79.125 46.316406 80.601562 46.171875 82.09375 C 46.023438 83.582031 45.949219 85.074219 45.949219 86.570312 L 11.6875 86.570312 C 10.105469 86.574219 8.585938 86.894531 7.136719 87.53125 C 5.6875 88.167969 4.425781 89.0625 3.347656 90.226562 C 2.25 91.390625 1.429688 92.730469 0.894531 94.242188 C 0.355469 95.75 0.148438 97.304688 0.265625 98.90625 L 10.085938 226.253906 C 10.167969 227.316406 10.300781 228.378906 10.480469 229.433594 C 10.664062 230.484375 10.894531 231.527344 11.171875 232.5625 C 11.453125 233.59375 11.777344 234.609375 12.152344 235.613281 C 12.527344 236.613281 12.945312 237.597656 13.414062 238.558594 C 13.878906 239.523438 14.386719 240.460938 14.941406 241.375 C 15.496094 242.289062 16.09375 243.175781 16.730469 244.035156 C 17.367188 244.894531 18.042969 245.722656 18.757812 246.515625 C 19.472656 247.3125 20.222656 248.074219 21.007812 248.800781 C 21.792969 249.523438 22.609375 250.210938 23.460938 250.859375 C 24.308594 251.507812 25.1875 252.117188 26.09375 252.683594 C 27.003906 253.25 27.933594 253.773438 28.890625 254.253906 C 29.84375 254.734375 30.820312 255.167969 31.820312 255.554688 C 32.816406 255.941406 33.828125 256.28125 34.855469 256.574219 C 35.882812 256.871094 36.925781 257.113281 37.976562 257.308594 C 39.027344 257.503906 40.085938 257.652344 41.148438 257.75 C 42.214844 257.84375 43.28125 257.890625 44.351562 257.890625 L 139.148438 257.890625 C 140.21875 257.890625 141.285156 257.84375 142.347656 257.75 C 143.414062 257.652344 144.472656 257.503906 145.523438 257.308594 C 146.574219 257.113281 147.613281 256.871094 148.644531 256.574219 C 149.671875 256.28125 150.683594 255.941406 151.679688 255.554688 C 152.675781 255.167969 153.652344 254.734375 154.609375 254.253906 C 155.566406 253.773438 156.496094 253.25 157.402344 252.683594 C 158.308594 252.117188 159.1875 251.507812 160.039062 250.859375 C 160.890625 250.210938 161.707031 249.523438 162.492188 248.800781 C 163.277344 248.074219 164.027344 247.3125 164.742188 246.515625 C 165.457031 245.722656 166.132812 244.894531 166.769531 244.035156 C 167.40625 243.175781 168.003906 242.289062 168.554688 241.375 C 169.109375 240.460938 169.621094 239.523438 170.085938 238.558594 C 170.550781 237.597656 170.972656 236.613281 171.347656 235.613281 C 171.722656 234.609375 172.046875 233.59375 172.328125 232.5625 C 172.605469 231.53125 172.835938 230.484375 173.015625 229.433594 C 173.199219 228.378906 173.328125 227.316406 173.410156 226.253906 L 183.003906 98.90625 C 183.125 97.304688 182.914062 95.75 182.378906 94.242188 C 181.839844 92.730469 181.023438 91.390625 179.921875 90.226562 Z M 91.636719 63.726562 C 92.382812 63.726562 93.128906 63.765625 93.875 63.835938 C 94.617188 63.910156 95.359375 64.019531 96.089844 64.167969 C 96.824219 64.3125 97.550781 64.492188 98.265625 64.710938 C 98.980469 64.929688 99.6875 65.179688 100.375 65.464844 C 101.066406 65.753906 101.742188 66.070312 102.402344 66.425781 C 103.0625 66.777344 103.703125 67.160156 104.324219 67.578125 C 104.949219 67.992188 105.546875 68.4375 106.125 68.914062 C 106.703125 69.386719 107.257812 69.890625 107.789062 70.417969 C 108.316406 70.945312 108.816406 71.5 109.292969 72.078125 C 109.765625 72.65625 110.210938 73.257812 110.628906 73.878906 C 111.042969 74.5 111.429688 75.140625 111.78125 75.800781 C 112.132812 76.460938 112.453125 77.136719 112.738281 77.828125 C 113.023438 78.519531 113.277344 79.222656 113.496094 79.9375 C 113.710938 80.65625 113.894531 81.378906 114.039062 82.113281 C 114.183594 82.847656 114.292969 83.585938 114.367188 84.332031 C 114.441406 85.074219 114.476562 85.820312 114.476562 86.570312 L 68.792969 86.570312 C 68.792969 85.820312 68.828125 85.074219 68.902344 84.332031 C 68.976562 83.585938 69.085938 82.847656 69.230469 82.113281 C 69.378906 81.378906 69.558594 80.65625 69.777344 79.9375 C 69.992188 79.222656 70.246094 78.519531 70.53125 77.828125 C 70.816406 77.136719 71.136719 76.460938 71.488281 75.800781 C 71.84375 75.140625 72.226562 74.5 72.640625 73.878906 C 73.058594 73.257812 73.503906 72.65625 73.976562 72.078125 C 74.453125 71.5 74.953125 70.945312 75.484375 70.417969 C 76.011719 69.890625 76.566406 69.386719 77.144531 68.914062 C 77.722656 68.4375 78.324219 67.992188 78.945312 67.578125 C 79.566406 67.160156 80.207031 66.777344 80.867188 66.425781 C 81.527344 66.070312 82.203125 65.753906 82.894531 65.464844 C 83.585938 65.179688 84.289062 64.929688 85.003906 64.710938 C 85.71875 64.492188 86.445312 64.3125 87.179688 64.167969 C 87.914062 64.019531 88.652344 63.910156 89.394531 63.835938 C 90.140625 63.765625 90.886719 63.726562 91.636719 63.726562 Z M 150.339844 224.539062 C 150.285156 225.25 150.160156 225.949219 149.972656 226.636719 C 149.785156 227.324219 149.535156 227.988281 149.222656 228.628906 C 148.910156 229.269531 148.539062 229.875 148.113281 230.449219 C 147.6875 231.019531 147.214844 231.546875 146.6875 232.03125 C 146.164062 232.511719 145.597656 232.941406 144.992188 233.320312 C 144.386719 233.695312 143.753906 234.015625 143.089844 234.273438 C 142.425781 234.53125 141.742188 234.722656 141.039062 234.855469 C 140.339844 234.984375 139.632812 235.046875 138.917969 235.046875 L 44.238281 235.046875 C 43.523438 235.046875 42.816406 234.984375 42.117188 234.855469 C 41.414062 234.722656 40.730469 234.53125 40.066406 234.273438 C 39.402344 234.015625 38.769531 233.695312 38.164062 233.320312 C 37.558594 232.941406 36.992188 232.511719 36.46875 232.03125 C 35.941406 231.546875 35.46875 231.019531 35.042969 230.449219 C 34.617188 229.875 34.246094 229.269531 33.933594 228.628906 C 33.621094 227.988281 33.371094 227.324219 33.183594 226.636719 C 32.996094 225.949219 32.871094 225.25 32.816406 224.539062 L 24.019531 109.414062 L 45.949219 109.414062 L 45.949219 120.832031 C 45.949219 121.582031 46.023438 122.328125 46.167969 123.0625 C 46.316406 123.796875 46.53125 124.511719 46.820312 125.203125 C 47.105469 125.898438 47.457031 126.554688 47.875 127.179688 C 48.292969 127.800781 48.765625 128.378906 49.296875 128.910156 C 49.824219 129.441406 50.402344 129.914062 51.027344 130.332031 C 51.648438 130.746094 52.308594 131.097656 53 131.386719 C 53.695312 131.671875 54.40625 131.890625 55.144531 132.035156 C 55.878906 132.183594 56.621094 132.253906 57.371094 132.253906 C 58.121094 132.253906 58.863281 132.183594 59.601562 132.035156 C 60.335938 131.890625 61.050781 131.671875 61.742188 131.386719 C 62.433594 131.097656 63.09375 130.746094 63.71875 130.332031 C 64.339844 129.914062 64.917969 129.441406 65.449219 128.910156 C 65.976562 128.378906 66.453125 127.800781 66.867188 127.179688 C 67.285156 126.554688 67.636719 125.898438 67.921875 125.203125 C 68.210938 124.511719 68.425781 123.796875 68.574219 123.0625 C 68.71875 122.328125 68.792969 121.582031 68.792969 120.832031 L 68.792969 109.414062 L 114.476562 109.414062 L 114.476562 120.832031 C 114.476562 121.582031 114.550781 122.328125 114.695312 123.0625 C 114.84375 123.796875 115.058594 124.511719 115.347656 125.203125 C 115.632812 125.898438 115.984375 126.554688 116.402344 127.179688 C 116.820312 127.800781 117.292969 128.378906 117.824219 128.910156 C 118.351562 129.441406 118.929688 129.914062 119.554688 130.332031 C 120.175781 130.746094 120.835938 131.097656 121.527344 131.386719 C 122.222656 131.671875 122.933594 131.890625 123.671875 132.035156 C 124.40625 132.183594 125.148438 132.253906 125.898438 132.253906 C 126.648438 132.253906 127.390625 132.183594 128.128906 132.035156 C 128.863281 131.890625 129.578125 131.671875 130.269531 131.386719 C 130.960938 131.097656 131.621094 130.746094 132.246094 130.332031 C 132.867188 129.914062 133.445312 129.441406 133.976562 128.910156 C 134.503906 128.378906 134.980469 127.800781 135.394531 127.179688 C 135.8125 126.554688 136.164062 125.898438 136.449219 125.203125 C 136.738281 124.511719 136.953125 123.796875 137.101562 123.0625 C 137.246094 122.328125 137.320312 121.582031 137.320312 120.832031 L 137.320312 109.414062 L 159.25 109.414062 Z M 150.339844 224.539062 " fill-opacity="1" fill-rule="nonzero"/></g></g><g transform="matrix(1, 0, 0, 1, 308, 51)"><g clip-path="url(#7849a45172)"><g fill="#ffffff" fill-opacity="1"><g transform="translate(0.714997, 92.544118)"><g><path d="M 61.484375 -91 L 61.484375 -86.0625 L 30.9375 -86.0625 C 24.695312 -86.0625 19.863281 -84.867188 16.4375 -82.484375 C 13.019531 -80.097656 11.3125 -75.957031 11.3125 -70.0625 C 11.3125 -67.550781 11.742188 -65.363281 12.609375 -63.5 C 13.472656 -61.632812 14.640625 -60.007812 16.109375 -58.625 C 17.585938 -57.238281 19.34375 -56.023438 21.375 -54.984375 C 23.414062 -53.953125 25.609375 -53.046875 27.953125 -52.265625 C 30.640625 -51.304688 33.476562 -50.4375 36.46875 -49.65625 C 39.457031 -48.875 42.378906 -48.003906 45.234375 -47.046875 C 48.097656 -46.097656 50.828125 -44.992188 53.421875 -43.734375 C 56.023438 -42.484375 58.300781 -40.925781 60.25 -39.0625 C 62.207031 -37.195312 63.769531 -34.960938 64.9375 -32.359375 C 66.101562 -29.765625 66.6875 -26.648438 66.6875 -23.015625 C 66.6875 -19.109375 66.015625 -15.703125 64.671875 -12.796875 C 63.328125 -9.898438 61.421875 -7.519531 58.953125 -5.65625 C 56.484375 -3.789062 53.535156 -2.378906 50.109375 -1.421875 C 46.691406 -0.472656 42.898438 0 38.734375 0 L 5.59375 0 L 5.59375 -4.9375 L 38.09375 -4.9375 C 45.113281 -4.9375 50.679688 -6.363281 54.796875 -9.21875 C 58.910156 -12.082031 60.96875 -16.421875 60.96875 -22.234375 C 60.96875 -26.390625 60.015625 -29.765625 58.109375 -32.359375 C 56.203125 -34.960938 53.773438 -37.066406 50.828125 -38.671875 C 47.878906 -40.273438 44.609375 -41.570312 41.015625 -42.5625 C 37.421875 -43.5625 33.890625 -44.582031 30.421875 -45.625 C 27.128906 -46.582031 23.988281 -47.644531 21 -48.8125 C 18.007812 -49.976562 15.363281 -51.515625 13.0625 -53.421875 C 10.769531 -55.335938 8.953125 -57.660156 7.609375 -60.390625 C 6.265625 -63.117188 5.59375 -66.519531 5.59375 -70.59375 C 5.59375 -77.09375 7.734375 -82.117188 12.015625 -85.671875 C 16.304688 -89.222656 21.960938 -91 28.984375 -91 Z M 61.484375 -91 "/></g></g></g><g fill="#ffffff" fill-opacity="1"><g transform="translate(86.252345, 92.544118)"><g><path d="M 67.34375 -30.8125 C 67.34375 -26.476562 66.5625 -22.359375 65 -18.453125 C 63.4375 -14.554688 61.242188 -11.15625 58.421875 -8.25 C 55.609375 -5.351562 52.296875 -3.035156 48.484375 -1.296875 C 44.671875 0.429688 40.554688 1.296875 36.140625 1.296875 C 31.722656 1.296875 27.601562 0.429688 23.78125 -1.296875 C 19.96875 -3.035156 16.675781 -5.351562 13.90625 -8.25 C 11.132812 -11.15625 8.945312 -14.554688 7.34375 -18.453125 C 5.738281 -22.359375 4.9375 -26.476562 4.9375 -30.8125 C 4.9375 -35.144531 5.738281 -39.257812 7.34375 -43.15625 C 8.945312 -47.0625 11.132812 -50.460938 13.90625 -53.359375 C 16.675781 -56.265625 19.96875 -58.582031 23.78125 -60.3125 C 27.601562 -62.050781 31.722656 -62.921875 36.140625 -62.921875 C 40.554688 -62.921875 44.671875 -62.050781 48.484375 -60.3125 C 52.296875 -58.582031 55.585938 -56.242188 58.359375 -53.296875 C 61.140625 -50.347656 63.332031 -46.925781 64.9375 -43.03125 C 66.539062 -39.132812 67.34375 -35.0625 67.34375 -30.8125 Z M 36.140625 -3.375 C 39.773438 -3.375 43.175781 -4.085938 46.34375 -5.515625 C 49.507812 -6.953125 52.257812 -8.925781 54.59375 -11.4375 C 56.9375 -13.945312 58.78125 -16.847656 60.125 -20.140625 C 61.46875 -23.441406 62.140625 -27 62.140625 -30.8125 C 62.140625 -34.539062 61.46875 -38.050781 60.125 -41.34375 C 58.78125 -44.632812 56.9375 -47.535156 54.59375 -50.046875 C 52.257812 -52.554688 49.488281 -54.546875 46.28125 -56.015625 C 43.070312 -57.492188 39.648438 -58.234375 36.015625 -58.234375 C 32.367188 -58.234375 28.960938 -57.472656 25.796875 -55.953125 C 22.640625 -54.441406 19.890625 -52.429688 17.546875 -49.921875 C 15.210938 -47.410156 13.394531 -44.503906 12.09375 -41.203125 C 10.789062 -37.910156 10.140625 -34.445312 10.140625 -30.8125 C 10.140625 -27.164062 10.789062 -23.695312 12.09375 -20.40625 C 13.394531 -17.113281 15.210938 -14.1875 17.546875 -11.625 C 19.890625 -9.070312 22.640625 -7.054688 25.796875 -5.578125 C 28.960938 -4.109375 32.410156 -3.375 36.140625 -3.375 Z M 36.140625 -3.375 "/></g></g></g><g fill="#ffffff" fill-opacity="1"><g transform="translate(171.789692, 92.544118)"><g><path d="M 7.796875 -61.625 L 12.734375 -61.625 L 12.734375 -24.3125 C 12.734375 -21.363281 13.234375 -18.609375 14.234375 -16.046875 C 15.234375 -13.492188 16.597656 -11.285156 18.328125 -9.421875 C 20.066406 -7.554688 22.144531 -6.082031 24.5625 -5 C 26.988281 -3.914062 29.632812 -3.375 32.5 -3.375 C 35.269531 -3.375 37.867188 -3.894531 40.296875 -4.9375 C 42.722656 -5.976562 44.820312 -7.453125 46.59375 -9.359375 C 48.375 -11.265625 49.765625 -13.472656 50.765625 -15.984375 C 51.765625 -18.503906 52.265625 -21.28125 52.265625 -24.3125 L 52.265625 -61.625 L 57.203125 -61.625 L 57.203125 -23.53125 C 57.203125 -20.0625 56.59375 -16.8125 55.375 -13.78125 C 54.164062 -10.75 52.457031 -8.125 50.25 -5.90625 C 48.039062 -3.695312 45.414062 -1.941406 42.375 -0.640625 C 39.34375 0.648438 36.050781 1.296875 32.5 1.296875 C 28.945312 1.296875 25.648438 0.648438 22.609375 -0.640625 C 19.578125 -1.941406 16.957031 -3.695312 14.75 -5.90625 C 12.539062 -8.125 10.828125 -10.75 9.609375 -13.78125 C 8.398438 -16.8125 7.796875 -20.0625 7.796875 -23.53125 Z M 7.796875 -61.625 "/></g></g></g><g fill="#ffffff" fill-opacity="1"><g transform="translate(250.047307, 92.544118)"><g><path d="M 64.484375 29.375 L 59.546875 29.375 L 59.546875 -31.203125 C 59.546875 -34.671875 58.914062 -38.03125 57.65625 -41.28125 C 56.394531 -44.53125 54.660156 -47.410156 52.453125 -49.921875 C 50.242188 -52.429688 47.597656 -54.441406 44.515625 -55.953125 C 41.441406 -57.472656 38.085938 -58.234375 34.453125 -58.234375 C 31.160156 -58.234375 27.992188 -57.492188 24.953125 -56.015625 C 21.921875 -54.546875 19.28125 -52.578125 17.03125 -50.109375 C 14.78125 -47.640625 12.984375 -44.738281 11.640625 -41.40625 C 10.296875 -38.070312 9.625 -34.539062 9.625 -30.8125 C 9.625 -27 10.296875 -23.441406 11.640625 -20.140625 C 12.984375 -16.847656 14.78125 -13.945312 17.03125 -11.4375 C 19.28125 -8.925781 21.921875 -6.953125 24.953125 -5.515625 C 27.992188 -4.085938 31.160156 -3.375 34.453125 -3.375 C 38.609375 -3.375 42.140625 -4.132812 45.046875 -5.65625 C 47.953125 -7.175781 50.832031 -9.40625 53.6875 -12.34375 L 53.6875 -6.5 C 50.394531 -3.726562 47.1875 -1.734375 44.0625 -0.515625 C 40.945312 0.691406 37.742188 1.296875 34.453125 1.296875 C 30.117188 1.296875 26.128906 0.472656 22.484375 -1.171875 C 18.847656 -2.816406 15.6875 -5.066406 13 -7.921875 C 10.3125 -10.785156 8.207031 -14.164062 6.6875 -18.0625 C 5.175781 -21.96875 4.421875 -26.21875 4.421875 -30.8125 C 4.421875 -35.3125 5.175781 -39.535156 6.6875 -43.484375 C 8.207031 -47.429688 10.3125 -50.832031 13 -53.6875 C 15.6875 -56.550781 18.847656 -58.804688 22.484375 -60.453125 C 26.128906 -62.097656 30.117188 -62.921875 34.453125 -62.921875 C 38.785156 -62.921875 42.789062 -62.070312 46.46875 -60.375 C 50.15625 -58.6875 53.320312 -56.410156 55.96875 -53.546875 C 58.613281 -50.691406 60.691406 -47.335938 62.203125 -43.484375 C 63.722656 -39.628906 64.484375 -35.578125 64.484375 -31.328125 Z M 64.484375 29.375 "/></g></g></g></g></g><path stroke-linecap="butt" transform="matrix(0, 0.748733, -0.748733, 0, 230.275531, 40.890218)" fill="none" stroke-linejoin="miter" d="M 0.000544126 4.499976 L 303.294131 4.499976 " stroke="#ef6a01" stroke-width="9" stroke-opacity="1" stroke-miterlimit="4"/><g transform="matrix(1, 0, 0, 1, 308, 171)"><g clip-path="url(#34029ddf5b)"><g fill="#ffffff" fill-opacity="1"><g transform="translate(1.088876, 60.761069)"><g><path d="M 29.203125 -42 L 29.203125 -30.765625 L 18.234375 -30.765625 C 17.597656 -30.765625 16.992188 -30.578125 16.421875 -30.203125 C 15.847656 -29.828125 15.5625 -29.351562 15.5625 -28.78125 C 15.5625 -27.851562 17.285156 -26.703125 20.734375 -25.328125 C 24.191406 -23.941406 26.882812 -22.296875 28.8125 -20.390625 C 30.75 -18.492188 31.71875 -16.101562 31.71875 -13.21875 C 31.71875 -8.84375 30.445312 -5.546875 27.90625 -3.328125 C 25.375 -1.109375 21.945312 0 17.625 0 L 1.8125 0 L 1.8125 -11.75 L 15.296875 -11.75 C 15.929688 -11.75 16.460938 -11.90625 16.890625 -12.21875 C 17.328125 -12.539062 17.546875 -13.019531 17.546875 -13.65625 C 17.546875 -14.40625 17.113281 -14.976562 16.25 -15.375 C 15.382812 -15.78125 14.113281 -16.332031 12.4375 -17.03125 C 10.832031 -17.71875 9.394531 -18.4375 8.125 -19.1875 C 6.851562 -19.9375 5.785156 -20.8125 4.921875 -21.8125 C 4.054688 -22.820312 3.394531 -23.988281 2.9375 -25.3125 C 2.476562 -26.644531 2.25 -28.234375 2.25 -30.078125 C 2.25 -31.921875 2.609375 -33.578125 3.328125 -35.046875 C 4.046875 -36.515625 5.023438 -37.765625 6.265625 -38.796875 C 7.503906 -39.835938 8.914062 -40.628906 10.5 -41.171875 C 12.082031 -41.722656 13.738281 -42 15.46875 -42 Z M 29.203125 -42 "/></g></g></g><g clip-path="url(#4bb61cf6de)"><g fill="#ffffff" fill-opacity="1"><g transform="translate(30.382609, 60.761069)"><g><path d="M 16.859375 -60.5 L 16.859375 -40.796875 C 18.117188 -41.421875 19.367188 -41.945312 20.609375 -42.375 C 21.847656 -42.8125 23.273438 -43.03125 24.890625 -43.03125 C 27.304688 -43.03125 29.460938 -42.597656 31.359375 -41.734375 C 33.265625 -40.878906 34.863281 -39.710938 36.15625 -38.234375 C 37.457031 -36.765625 38.453125 -35.066406 39.140625 -33.140625 C 39.835938 -31.210938 40.1875 -29.179688 40.1875 -27.046875 L 40.1875 0 L 26.359375 0 L 26.359375 -24.625 C 26.359375 -26.300781 25.910156 -27.570312 25.015625 -28.4375 C 24.117188 -29.300781 22.984375 -29.734375 21.609375 -29.734375 C 20.222656 -29.734375 19.082031 -29.300781 18.1875 -28.4375 C 17.300781 -27.570312 16.859375 -26.300781 16.859375 -24.625 L 16.859375 0 L 3.03125 0 L 3.03125 -60.5 Z M 16.859375 -60.5 "/></g></g></g></g><g fill="#ffffff" fill-opacity="1"><g transform="translate(69.268462, 60.761069)"><g><path d="M 49.265625 0 L 35.4375 0 L 35.4375 -19.703125 C 35.4375 -23.160156 34.628906 -25.8125 33.015625 -27.65625 C 31.398438 -29.5 28.953125 -30.421875 25.671875 -30.421875 C 24.398438 -30.421875 23.1875 -30.175781 22.03125 -29.6875 C 20.882812 -29.195312 19.878906 -28.546875 19.015625 -27.734375 C 18.148438 -26.929688 17.457031 -25.96875 16.9375 -24.84375 C 16.414062 -23.71875 16.15625 -22.523438 16.15625 -21.265625 C 16.15625 -18.328125 17.035156 -15.976562 18.796875 -14.21875 C 20.554688 -12.457031 22.757812 -11.578125 25.40625 -11.578125 C 26.675781 -11.578125 27.859375 -11.691406 28.953125 -11.921875 C 30.046875 -12.148438 31.050781 -12.441406 31.96875 -12.796875 L 31.96875 -1.375 C 30.644531 -0.457031 29.234375 0.171875 27.734375 0.515625 C 26.242188 0.859375 24.546875 1.03125 22.640625 1.03125 C 20.046875 1.03125 17.523438 0.5 15.078125 -0.5625 C 12.628906 -1.625 10.46875 -3.117188 8.59375 -5.046875 C 6.726562 -6.984375 5.21875 -9.289062 4.0625 -11.96875 C 2.90625 -14.644531 2.328125 -17.628906 2.328125 -20.921875 C 2.328125 -24.023438 2.90625 -26.914062 4.0625 -29.59375 C 5.21875 -32.28125 6.800781 -34.613281 8.8125 -36.59375 C 10.832031 -38.582031 13.253906 -40.148438 16.078125 -41.296875 C 18.898438 -42.453125 22.007812 -43.03125 25.40625 -43.03125 C 29.039062 -43.03125 32.328125 -42.523438 35.265625 -41.515625 C 38.203125 -40.515625 40.707031 -39.117188 42.78125 -37.328125 C 44.851562 -35.546875 46.453125 -33.429688 47.578125 -30.984375 C 48.703125 -28.535156 49.265625 -25.867188 49.265625 -22.984375 Z M 49.265625 0 "/></g></g></g><g fill="#ffffff" fill-opacity="1"><g transform="translate(117.746416, 60.761069)"><g><path d="M 33.625 -37.15625 C 35.113281 -38.832031 36.925781 -40.226562 39.0625 -41.34375 C 41.195312 -42.46875 43.359375 -43.03125 45.546875 -43.03125 C 48.023438 -43.03125 50.34375 -42.613281 52.5 -41.78125 C 54.65625 -40.945312 56.523438 -39.804688 58.109375 -38.359375 C 59.703125 -36.921875 60.941406 -35.265625 61.828125 -33.390625 C 62.722656 -31.523438 63.171875 -29.523438 63.171875 -27.390625 L 63.171875 0 L 49.34375 0 L 49.34375 -25.0625 C 49.34375 -26.269531 49.023438 -27.347656 48.390625 -28.296875 C 47.765625 -29.253906 46.613281 -29.734375 44.9375 -29.734375 C 43.269531 -29.734375 42.117188 -29.253906 41.484375 -28.296875 C 40.847656 -27.347656 40.53125 -26.269531 40.53125 -25.0625 L 40.53125 0 L 26.703125 0 L 26.703125 -25.0625 C 26.703125 -26.269531 26.382812 -27.347656 25.75 -28.296875 C 25.113281 -29.253906 23.960938 -29.734375 22.296875 -29.734375 C 20.628906 -29.734375 19.476562 -29.253906 18.84375 -28.296875 C 18.207031 -27.347656 17.890625 -26.269531 17.890625 -25.0625 L 17.890625 0 L 4.0625 0 L 4.0625 -27.390625 C 4.0625 -29.523438 4.503906 -31.523438 5.390625 -33.390625 C 6.285156 -35.265625 7.507812 -36.921875 9.0625 -38.359375 C 10.625 -39.804688 12.484375 -40.945312 14.640625 -41.78125 C 16.804688 -42.613281 19.15625 -43.03125 21.6875 -43.03125 C 23.875 -43.03125 26.035156 -42.46875 28.171875 -41.34375 C 30.304688 -40.226562 32.125 -38.832031 33.625 -37.15625 Z M 33.625 -37.15625 "/></g></g></g><g fill="#ef6a01" fill-opacity="1"><g transform="translate(180.663954, 60.761069)"><g><path d="M 49.265625 0 L 35.4375 0 L 35.4375 -19.703125 C 35.4375 -23.160156 34.628906 -25.8125 33.015625 -27.65625 C 31.398438 -29.5 28.953125 -30.421875 25.671875 -30.421875 C 24.398438 -30.421875 23.1875 -30.175781 22.03125 -29.6875 C 20.882812 -29.195312 19.878906 -28.546875 19.015625 -27.734375 C 18.148438 -26.929688 17.457031 -25.96875 16.9375 -24.84375 C 16.414062 -23.71875 16.15625 -22.523438 16.15625 -21.265625 C 16.15625 -18.328125 17.035156 -15.976562 18.796875 -14.21875 C 20.554688 -12.457031 22.757812 -11.578125 25.40625 -11.578125 C 26.675781 -11.578125 27.859375 -11.691406 28.953125 -11.921875 C 30.046875 -12.148438 31.050781 -12.441406 31.96875 -12.796875 L 31.96875 -1.375 C 30.644531 -0.457031 29.234375 0.171875 27.734375 0.515625 C 26.242188 0.859375 24.546875 1.03125 22.640625 1.03125 C 20.046875 1.03125 17.523438 0.5 15.078125 -0.5625 C 12.628906 -1.625 10.46875 -3.117188 8.59375 -5.046875 C 6.726562 -6.984375 5.21875 -9.289062 4.0625 -11.96875 C 2.90625 -14.644531 2.328125 -17.628906 2.328125 -20.921875 C 2.328125 -24.023438 2.90625 -26.914062 4.0625 -29.59375 C 5.21875 -32.28125 6.800781 -34.613281 8.8125 -36.59375 C 10.832031 -38.582031 13.253906 -40.148438 16.078125 -41.296875 C 18.898438 -42.453125 22.007812 -43.03125 25.40625 -43.03125 C 29.039062 -43.03125 32.328125 -42.523438 35.265625 -41.515625 C 38.203125 -40.515625 40.707031 -39.117188 42.78125 -37.328125 C 44.851562 -35.546875 46.453125 -33.429688 47.578125 -30.984375 C 48.703125 -28.535156 49.265625 -25.867188 49.265625 -22.984375 Z M 49.265625 0 "/></g></g></g><g fill="#ef6a01" fill-opacity="1"><g transform="translate(229.141908, 60.761069)"><g><path d="M 50.46875 -20.921875 C 50.46875 -17.628906 49.875 -14.628906 48.6875 -11.921875 C 47.507812 -9.210938 45.898438 -6.90625 43.859375 -5 C 41.816406 -3.101562 39.441406 -1.625 36.734375 -0.5625 C 34.023438 0.5 31.144531 1.03125 28.09375 1.03125 C 26.476562 1.03125 25.125 0.929688 24.03125 0.734375 C 22.9375 0.535156 22.039062 0.289062 21.34375 0 L 21.34375 -12.796875 C 21.6875 -12.554688 22.332031 -12.289062 23.28125 -12 C 24.238281 -11.71875 25.492188 -11.578125 27.046875 -11.578125 C 28.429688 -11.578125 29.710938 -11.804688 30.890625 -12.265625 C 32.078125 -12.734375 33.085938 -13.382812 33.921875 -14.21875 C 34.753906 -15.050781 35.414062 -16.039062 35.90625 -17.1875 C 36.394531 -18.34375 36.640625 -19.613281 36.640625 -21 C 36.640625 -23.769531 35.742188 -26.03125 33.953125 -27.78125 C 32.171875 -29.539062 29.898438 -30.421875 27.140625 -30.421875 C 25.460938 -30.421875 24.019531 -30.128906 22.8125 -29.546875 C 21.601562 -28.972656 20.59375 -28.195312 19.78125 -27.21875 C 18.976562 -26.238281 18.375 -25.085938 17.96875 -23.765625 C 17.570312 -22.441406 17.375 -21.0625 17.375 -19.625 L 17.375 18.15625 L 3.546875 18.15625 L 3.546875 -22.984375 C 3.546875 -25.984375 4.148438 -28.707031 5.359375 -31.15625 C 6.566406 -33.601562 8.25 -35.703125 10.40625 -37.453125 C 12.570312 -39.210938 15.09375 -40.582031 17.96875 -41.5625 C 20.851562 -42.539062 23.992188 -43.03125 27.390625 -43.03125 C 30.734375 -43.03125 33.832031 -42.453125 36.6875 -41.296875 C 39.539062 -40.148438 41.972656 -38.582031 43.984375 -36.59375 C 46.003906 -34.613281 47.585938 -32.28125 48.734375 -29.59375 C 49.890625 -26.914062 50.46875 -24.023438 50.46875 -20.921875 Z M 50.46875 -20.921875 "/></g></g></g><g fill="#ef6a01" fill-opacity="1"><g transform="translate(277.619862, 60.761069)"><g><path d="M 50.46875 -20.921875 C 50.46875 -17.628906 49.875 -14.628906 48.6875 -11.921875 C 47.507812 -9.210938 45.898438 -6.90625 43.859375 -5 C 41.816406 -3.101562 39.441406 -1.625 36.734375 -0.5625 C 34.023438 0.5 31.144531 1.03125 28.09375 1.03125 C 26.476562 1.03125 25.125 0.929688 24.03125 0.734375 C 22.9375 0.535156 22.039062 0.289062 21.34375 0 L 21.34375 -12.796875 C 21.6875 -12.554688 22.332031 -12.289062 23.28125 -12 C 24.238281 -11.71875 25.492188 -11.578125 27.046875 -11.578125 C 28.429688 -11.578125 29.710938 -11.804688 30.890625 -12.265625 C 32.078125 -12.734375 33.085938 -13.382812 33.921875 -14.21875 C 34.753906 -15.050781 35.414062 -16.039062 35.90625 -17.1875 C 36.394531 -18.34375 36.640625 -19.613281 36.640625 -21 C 36.640625 -23.769531 35.742188 -26.03125 33.953125 -27.78125 C 32.171875 -29.539062 29.898438 -30.421875 27.140625 -30.421875 C 25.460938 -30.421875 24.019531 -30.128906 22.8125 -29.546875 C 21.601562 -28.972656 20.59375 -28.195312 19.78125 -27.21875 C 18.976562 -26.238281 18.375 -25.085938 17.96875 -23.765625 C 17.570312 -22.441406 17.375 -21.0625 17.375 -19.625 L 17.375 18.15625 L 3.546875 18.15625 L 3.546875 -22.984375 C 3.546875 -25.984375 4.148438 -28.707031 5.359375 -31.15625 C 6.566406 -33.601562 8.25 -35.703125 10.40625 -37.453125 C 12.570312 -39.210938 15.09375 -40.582031 17.96875 -41.5625 C 20.851562 -42.539062 23.992188 -43.03125 27.390625 -43.03125 C 30.734375 -43.03125 33.832031 -42.453125 36.6875 -41.296875 C 39.539062 -40.148438 41.972656 -38.582031 43.984375 -36.59375 C 46.003906 -34.613281 47.585938 -32.28125 48.734375 -29.59375 C 49.890625 -26.914062 50.46875 -24.023438 50.46875 -20.921875 Z M 50.46875 -20.921875 "/></g></g></g></g></g><g transform="matrix(1, 0, 0, 1, 63, 134)"><g clip-path="url(#cfc7593664)"><g clip-path="url(#8651b11864)"><g fill="#ffffff" fill-opacity="1"><g transform="translate(0.26885, 76.942469)"><g><path d="M 51.796875 -76.65625 L 51.796875 -72.5 L 26.0625 -72.5 C 20.800781 -72.5 16.726562 -71.492188 13.84375 -69.484375 C 10.96875 -67.472656 9.53125 -63.988281 9.53125 -59.03125 C 9.53125 -56.914062 9.894531 -55.070312 10.625 -53.5 C 11.351562 -51.925781 12.335938 -50.554688 13.578125 -49.390625 C 14.816406 -48.222656 16.296875 -47.203125 18.015625 -46.328125 C 19.734375 -45.453125 21.578125 -44.6875 23.546875 -44.03125 C 25.804688 -43.226562 28.195312 -42.492188 30.71875 -41.828125 C 33.238281 -41.171875 35.703125 -40.441406 38.109375 -39.640625 C 40.515625 -38.835938 42.8125 -37.90625 45 -36.84375 C 47.195312 -35.789062 49.113281 -34.476562 50.75 -32.90625 C 52.394531 -31.34375 53.710938 -29.460938 54.703125 -27.265625 C 55.691406 -25.078125 56.1875 -22.453125 56.1875 -19.390625 C 56.1875 -16.097656 55.617188 -13.226562 54.484375 -10.78125 C 53.347656 -8.34375 51.738281 -6.335938 49.65625 -4.765625 C 47.582031 -3.191406 45.101562 -2.003906 42.21875 -1.203125 C 39.332031 -0.398438 36.140625 0 32.640625 0 L 4.703125 0 L 4.703125 -4.15625 L 32.09375 -4.15625 C 38 -4.15625 42.6875 -5.359375 46.15625 -7.765625 C 49.625 -10.179688 51.359375 -13.835938 51.359375 -18.734375 C 51.359375 -22.234375 50.554688 -25.078125 48.953125 -27.265625 C 47.347656 -29.460938 45.300781 -31.234375 42.8125 -32.578125 C 40.332031 -33.929688 37.578125 -35.023438 34.546875 -35.859375 C 31.515625 -36.703125 28.539062 -37.5625 25.625 -38.4375 C 22.851562 -39.238281 20.207031 -40.132812 17.6875 -41.125 C 15.164062 -42.113281 12.9375 -43.410156 11 -45.015625 C 9.070312 -46.617188 7.539062 -48.566406 6.40625 -50.859375 C 5.269531 -53.160156 4.703125 -56.03125 4.703125 -59.46875 C 4.703125 -64.945312 6.507812 -69.179688 10.125 -72.171875 C 13.738281 -75.160156 18.503906 -76.65625 24.421875 -76.65625 Z M 51.796875 -76.65625 "/></g></g></g></g></g></g></svg>