<?xml version="1.0" encoding="UTF-8" standalone="no"?>
<svg
   width="1265"
   zoomAndPan="magnify"
   viewBox="0 0 948.75 395.249997"
   height="527"
   preserveAspectRatio="xMidYMid meet"
   version="1.0"
   id="svg50"
   sodipodi:docname="souq logo light transparance.svg"
   inkscape:version="1.4.4 (dcaf3e7, 2026-05-05)"
   xmlns:inkscape="http://www.inkscape.org/namespaces/inkscape"
   xmlns:sodipodi="http://sodipodi.sourceforge.net/DTD/sodipodi-0.dtd"
   xmlns="http://www.w3.org/2000/svg"
   xmlns:svg="http://www.w3.org/2000/svg">
  <sodipodi:namedview
     id="namedview50"
     pagecolor="#ffffff"
     bordercolor="#000000"
     borderopacity="0.25"
     inkscape:showpageshadow="2"
     inkscape:pageopacity="0.0"
     inkscape:pagecheckerboard="0"
     inkscape:deskcolor="#d1d1d1"
     showgrid="false"
     inkscape:zoom="0.3"
     inkscape:cx="631.66667"
     inkscape:cy="265"
     inkscape:window-width="1366"
     inkscape:window-height="705"
     inkscape:window-x="-8"
     inkscape:window-y="-8"
     inkscape:window-maximized="1"
     inkscape:current-layer="svg50" />
  <defs
     id="defs5">
    <g
       id="g1" />
    <clipPath
       id="22270a8d32">
      <path
         d="M 0.773438 0 L 947.726562 0 L 947.726562 394.5 L 0.773438 394.5 Z M 0.773438 0 "
         clip-rule="nonzero"
         id="path1" />
    </clipPath>
    <clipPath
       id="517967a30a">
      <path
         d="M 0.773438 54.601562 L 244.8125 54.601562 L 244.8125 344.300781 L 0.773438 344.300781 Z M 0.773438 54.601562 "
         clip-rule="nonzero"
         id="path2" />
    </clipPath>
    <clipPath
       id="73371c2311">
      <path
         d="M 0.773438 89.785156 L 0.773438 309.230469 C 0.773438 328.664062 16.527344 344.414062 35.957031 344.414062 L 209.757812 344.414062 C 229.1875 344.414062 244.941406 328.664062 244.941406 309.230469 L 244.941406 89.785156 C 244.941406 70.355469 229.1875 54.601562 209.757812 54.601562 L 35.957031 54.601562 C 16.527344 54.601562 0.773438 70.355469 0.773438 89.785156 Z M 0.773438 89.785156 "
         clip-rule="nonzero"
         id="path3" />
    </clipPath>
    <clipPath
       id="e3b389564b">
      <rect
         x="0"
         width="450"
         y="0"
         height="176"
         id="rect3" />
    </clipPath>
    <clipPath
       id="bbbf4eab43">
      <rect
         x="0"
         width="441"
         y="0"
         height="118"
         id="rect4" />
    </clipPath>
    <clipPath
       id="9f9e3ed866">
      <path
         d="M 7 0.179688 L 76 0.179688 L 76 103 L 7 103 Z M 7 0.179688 "
         clip-rule="nonzero"
         id="path4" />
    </clipPath>
    <clipPath
       id="4536baf4b1">
      <rect
         x="0"
         width="83"
         y="0"
         height="148"
         id="rect5" />
    </clipPath>
  </defs>
  <g
     id="g51"
     transform="translate(37.5,-2.5)">
    <g
       clip-path="url(#517967a30a)"
       id="g7">
      <g
         clip-path="url(#73371c2311)"
         id="g6">
        <path
           fill="#ef6a01"
           d="m 240.76172,120.49609 c -1.4375,-1.55078 -3.125,-2.75 -5.0586,-3.59765 -1.9375,-0.85156 -3.96093,-1.27735 -6.07812,-1.28516 h -45.75781 c 0,-1.99609 -0.0977,-3.99219 -0.29297,-5.98047 -0.19531,-1.98828 -0.48828,-3.96093 -0.87891,-5.92187 -0.39062,-1.96094 -0.875,-3.894534 -1.45312,-5.808596 -0.58203,-1.910156 -1.25391,-3.789063 -2.01953,-5.636719 -0.76172,-1.847656 -1.61719,-3.652344 -2.5586,-5.414063 -0.9414,-1.761718 -1.96875,-3.472656 -3.07812,-5.132812 -1.10938,-1.664062 -2.30078,-3.265625 -3.56641,-4.808594 -1.26953,-1.546875 -2.60937,-3.023437 -4.01953,-4.4375 -1.41406,-1.414062 -2.89453,-2.753906 -4.4375,-4.023437 -1.54688,-1.265625 -3.14844,-2.453125 -4.80859,-3.566407 -1.66407,-1.109374 -3.375,-2.132812 -5.13672,-3.078124 -1.76172,-0.941407 -3.56641,-1.792969 -5.41407,-2.558594 -1.84375,-0.765625 -3.72265,-1.4375 -5.63671,-2.015625 -1.91016,-0.582031 -3.84766,-1.066407 -5.8086,-1.457031 -1.95703,-0.390626 -3.93359,-0.683594 -5.92187,-0.878907 -1.98828,-0.195312 -3.98047,-0.292969 -5.98047,-0.292969 -1.99609,0 -3.99219,0.09766 -5.98047,0.292969 -1.98828,0.195313 -3.96094,0.488281 -5.92187,0.878907 -1.96094,0.390624 -3.89454,0.875 -5.8086,1.457031 -1.91015,0.578125 -3.78906,1.25 -5.636718,2.015625 -1.84375,0.765625 -3.648437,1.617187 -5.410156,2.558594 -1.765625,0.945312 -3.476562,1.96875 -5.136718,3.078124 -1.664063,1.113282 -3.265626,2.300782 -4.808594,3.566407 -1.546875,1.269531 -3.023438,2.609375 -4.4375,4.023437 -1.414063,1.414063 -2.753906,2.890625 -4.019532,4.4375 -1.269531,1.542969 -2.457031,3.144532 -3.566406,4.808594 -1.113281,1.660156 -2.136718,3.371094 -3.078125,5.132812 -0.945312,1.761719 -1.796875,3.566407 -2.5625,5.414063 -0.765625,1.847656 -1.4375,3.726563 -2.015625,5.636719 -0.582031,1.914062 -1.066406,3.847656 -1.457031,5.808596 -0.386719,1.96094 -0.679687,3.93359 -0.878906,5.92187 -0.195313,1.98828 -0.292969,3.98438 -0.292969,5.98047 H 16.085938 c -2.113282,0.008 -4.136719,0.4336 -6.074219,1.28516 -1.9375,0.84765 -3.621094,2.04687 -5.058594,3.59765 -0.730469,0.76954 -1.367187,1.60547 -1.921875,2.50782 -0.550781,0.90625 -1.003906,1.85547 -1.359375,2.85156 -0.355469,1 -0.601563,2.02344 -0.742187,3.07422 -0.144532,1.04687 -0.175782,2.10156 -0.097657,3.15625 l 13.117188,170.07031 c 0.109375,1.42578 0.285156,2.83984 0.527343,4.24609 0.242188,1.41016 0.550782,2.80078 0.921876,4.17969 0.375,1.37891 0.808593,2.73828 1.308593,4.07813 0.5,1.33593 1.0625,2.64843 1.683594,3.93359 0.621094,1.28516 1.304687,2.53906 2.042969,3.75781 0.742187,1.22266 1.535156,2.40625 2.386718,3.55469 0.851563,1.14844 1.753907,2.25391 2.707032,3.31641 0.953125,1.0625 1.957031,2.07812 3.003906,3.04687 1.050781,0.96875 2.144531,1.88672 3.277344,2.75 1.136718,0.86719 2.308594,1.67969 3.519531,2.4375 1.210937,0.75781 2.457031,1.45313 3.734375,2.09375 1.273438,0.64063 2.578125,1.21875 3.910156,1.73828 1.328125,0.51953 2.683594,0.97266 4.054688,1.36328 1.375,0.39453 2.761718,0.71875 4.167968,0.98047 1.402344,0.26172 2.816407,0.45703 4.238282,0.58594 1.421875,0.12891 2.847656,0.19141 4.277344,0.1875 H 186.30859 c 1.42969,0.004 2.85157,-0.0586 4.27735,-0.1875 1.42187,-0.12891 2.83203,-0.32422 4.23828,-0.58594 1.40234,-0.26172 2.79297,-0.58594 4.16406,-0.98047 1.375,-0.39062 2.72656,-0.84375 4.05859,-1.36328 1.32813,-0.51953 2.63282,-1.09765 3.91016,-1.73828 1.27734,-0.64062 2.51953,-1.33594 3.73047,-2.09375 1.21094,-0.75781 2.38672,-1.57031 3.51953,-2.4375 1.13672,-0.86328 2.23047,-1.78125 3.27734,-2.75 1.05079,-0.96875 2.05079,-1.98437 3.00782,-3.04687 0.95312,-1.0625 1.85547,-2.16797 2.70703,-3.31641 0.84765,-1.14844 1.64453,-2.33203 2.38281,-3.55469 0.74219,-1.21875 1.42188,-2.47265 2.04297,-3.75781 0.625,-1.28516 1.18359,-2.59766 1.68359,-3.93359 0.5,-1.33985 0.9375,-2.69922 1.3086,-4.07813 0.375,-1.37891 0.67968,-2.76953 0.92187,-4.17969 0.24219,-1.40625 0.41797,-2.82031 0.52735,-4.24609 l 12.8125,-170.07031 c 0.0781,-1.05469 0.0469,-2.10938 -0.0937,-3.15625 -0.14063,-1.05078 -0.39063,-2.07422 -0.74219,-3.07422 -0.35547,-0.99609 -0.8086,-1.94531 -1.36328,-2.85156 -0.55078,-0.90235 -1.19141,-1.73828 -1.91797,-2.50782 z M 122.85547,85.109375 c 1,0 1.99609,0.04687 2.99219,0.144531 0.99218,0.09766 1.98047,0.246094 2.96093,0.441406 0.98047,0.195313 1.94532,0.4375 2.90235,0.726563 0.95703,0.289063 1.89843,0.625 2.82031,1.007813 0.92187,0.382812 1.82422,0.808593 2.70703,1.28125 0.87891,0.46875 1.73438,0.984374 2.56641,1.539062 0.83203,0.554688 1.63281,1.148438 2.40625,1.78125 0.76953,0.636719 1.51172,1.304688 2.21484,2.011719 0.70703,0.707031 1.37891,1.445312 2.01172,2.21875 0.63281,0.773437 1.23047,1.574219 1.78516,2.402343 0.55468,0.832032 1.0664,1.687498 1.53906,2.570318 0.46875,0.8789 0.89453,1.78125 1.27734,2.70703 0.38281,0.92187 0.71875,1.85937 1.00781,2.8164 0.29297,0.95703 0.53516,1.92578 0.73047,2.90625 0.19532,0.97657 0.33985,1.96485 0.4375,2.96094 0.0977,0.99219 0.14844,1.98828 0.14844,2.98828 H 92.351562 c 0,-1 0.04688,-1.99609 0.144532,-2.98828 0.09766,-0.99609 0.246094,-1.98437 0.441406,-2.96094 0.195312,-0.98047 0.4375,-1.94922 0.726562,-2.90625 0.289063,-0.95703 0.625,-1.89453 1.007813,-2.8164 0.382813,-0.92578 0.808594,-1.82813 1.28125,-2.70703 0.46875,-0.88282 0.984375,-1.738286 1.539063,-2.570318 0.554687,-0.828124 1.148437,-1.628906 1.78125,-2.402343 0.636718,-0.773438 1.304692,-1.511719 2.011722,-2.21875 0.70703,-0.707031 1.44531,-1.375 2.21875,-2.011719 0.77343,-0.632812 1.57422,-1.226562 2.40625,-1.78125 0.82812,-0.554688 1.68359,-1.070312 2.5664,-1.539062 0.87891,-0.472657 1.78125,-0.898438 2.70703,-1.28125 0.92188,-0.382813 1.86329,-0.71875 2.81641,-1.007813 0.95703,-0.289063 1.92578,-0.53125 2.90625,-0.726563 0.98047,-0.195312 1.96484,-0.34375 2.96094,-0.441406 0.99219,-0.09766 1.98828,-0.144531 2.98828,-0.144531 z m 78.40234,214.757815 c -0.0781,0.94922 -0.24219,1.88281 -0.49219,2.80468 -0.25,0.91797 -0.58593,1.80469 -1.0039,2.66016 -0.41406,0.85547 -0.91016,1.66406 -1.47656,2.42969 -0.57032,0.76172 -1.20313,1.46875 -1.90625,2.11328 -0.69922,0.64453 -1.45313,1.21875 -2.26172,1.72266 -0.8086,0.5 -1.65625,0.92578 -2.54688,1.26953 -0.88672,0.34375 -1.79687,0.60547 -2.73437,0.77734 -0.9375,0.17578 -1.87891,0.26172 -2.83203,0.25781 H 59.558594 c -0.953125,0.004 -1.898438,-0.082 -2.835938,-0.25781 -0.933594,-0.17187 -1.847656,-0.43359 -2.734375,-0.77734 -0.886719,-0.34375 -1.734375,-0.76953 -2.542969,-1.26953 -0.808593,-0.50391 -1.5625,-1.07813 -2.265624,-1.72266 -0.699219,-0.64453 -1.335938,-1.35156 -1.902344,-2.11328 -0.570313,-0.76563 -1.0625,-1.57422 -1.480469,-2.42969 -0.417969,-0.85547 -0.75,-1.74219 -1.003906,-2.66016 -0.25,-0.92187 -0.414063,-1.85546 -0.488281,-2.80468 L 32.558594,146.12109 H 61.84375 v 15.25 c 0,1.00391 0.09766,1.9961 0.292969,2.97657 0.195312,0.98437 0.484375,1.9375 0.867187,2.86328 0.386719,0.92187 0.855469,1.80468 1.410156,2.63672 0.558594,0.83203 1.191407,1.60156 1.898438,2.30859 0.707031,0.71094 1.476562,1.34375 2.3125,1.89844 0.832031,0.55468 1.710938,1.02734 2.636719,1.41015 0.925781,0.38282 1.878906,0.67188 2.859375,0.86719 0.984375,0.19531 1.976562,0.29297 2.976562,0.29297 1,0 1.992188,-0.0977 2.976563,-0.29297 0.980469,-0.19531 1.933593,-0.48437 2.859375,-0.86719 0.925781,-0.38281 1.804687,-0.85547 2.636718,-1.41015 0.835938,-0.55469 1.605469,-1.1875 2.3125,-1.89844 0.707032,-0.70703 1.339844,-1.47656 1.898438,-2.30859 0.554688,-0.83204 1.023438,-1.71485 1.410156,-2.63672 0.382813,-0.92578 0.671875,-1.87891 0.867188,-2.86328 0.195312,-0.98047 0.292968,-1.97266 0.292968,-2.97657 v -15.25 h 61.011718 v 15.25 c 0,1.00391 0.0977,1.9961 0.29297,2.97657 0.19531,0.98437 0.48437,1.9375 0.86719,2.86328 0.38281,0.92187 0.85156,1.80468 1.41015,2.63672 0.55469,0.83203 1.1875,1.60156 1.89453,2.30859 0.71094,0.71094 1.48047,1.34375 2.3125,1.89844 0.83204,0.55468 1.71094,1.02734 2.63672,1.41015 0.92578,0.38282 1.87891,0.67188 2.86328,0.86719 0.98047,0.19531 1.97266,0.29297 2.97266,0.29297 1.00391,0 1.99609,-0.0977 2.97656,-0.29297 0.98438,-0.19531 1.9375,-0.48437 2.86328,-0.86719 0.92579,-0.38281 1.80469,-0.85547 2.63672,-1.41015 0.83203,-0.55469 1.60157,-1.1875 2.3125,-1.89844 0.70703,-0.70703 1.33985,-1.47656 1.89453,-2.30859 0.5586,-0.83204 1.02735,-1.71485 1.41016,-2.63672 0.38281,-0.92578 0.67188,-1.87891 0.86719,-2.86328 0.19531,-0.98047 0.29297,-1.97266 0.29297,-2.97657 v -15.25 h 29.28515 z m 0,0"
           fill-opacity="1"
           fill-rule="nonzero"
           id="path6" />
      </g>
    </g>
    <g
       transform="translate(412,69)"
       id="g21">
      <g
         clip-path="url(#e3b389564b)"
         id="g20">
        <g
           fill="#151f28"
           fill-opacity="1"
           id="g10">
          <g
             transform="translate(0.76142,122.70321)"
             id="g9">
            <g
               id="g8">
              <path
                 d="m 82.109375,-121.53125 v 6.60937 H 41.3125 c -8.335938,0 -14.789062,1.59375 -19.359375,4.78125 -4.5625,3.17969 -6.84375,8.69922 -6.84375,16.562505 0,3.355469 0.578125,6.277344 1.734375,8.765625 1.15625,2.492188 2.71875,4.664062 4.6875,6.515625 1.96875,1.855469 4.3125,3.476563 7.03125,4.859375 2.71875,1.386719 5.640625,2.601562 8.765625,3.640625 3.582031,1.28125 7.367187,2.445313 11.359375,3.484375 4,1.042969 7.90625,2.199219 11.71875,3.46875 3.820312,1.273438 7.46875,2.746094 10.9375,4.421875 3.476562,1.679687 6.519531,3.761719 9.125,6.25 2.601562,2.492187 4.6875,5.476563 6.25,8.953125 1.5625,3.46875 2.34375,7.632812 2.34375,12.484375 0,5.210937 -0.902344,9.757813 -2.703125,13.640625 -1.792969,3.875 -4.339844,7.058594 -7.640625,9.546875 -3.292969,2.492187 -7.226562,4.371094 -11.796875,5.640625 C 62.347656,-0.632812 57.285156,0 51.734375,0 H 7.46875 V -6.59375 H 50.875 c 9.375,0 16.804688,-1.910156 22.296875,-5.734375 5.5,-3.820313 8.25,-9.609375 8.25,-17.359375 0,-5.550781 -1.277344,-10.0625 -3.828125,-13.53125 -2.542969,-3.476562 -5.78125,-6.285156 -9.71875,-8.421875 -3.929688,-2.144531 -8.296875,-3.882813 -13.109375,-5.21875 C 49.960938,-58.191406 45.25,-59.550781 40.625,-60.9375 c -4.398438,-1.269531 -8.59375,-2.6875 -12.59375,-4.25 -3.992188,-1.5625 -7.523438,-3.613281 -10.59375,-6.15625 -3.0625,-2.550781 -5.492188,-5.648438 -7.28125,-9.296875 -1.792969,-3.644531 -2.6875,-8.1875 -2.6875,-13.625 0,-8.687505 2.863281,-15.398435 8.59375,-20.140625 5.726562,-4.75 13.28125,-7.125 22.65625,-7.125 z m 0,0"
                 id="path7" />
            </g>
          </g>
        </g>
        <g
           fill="#151f28"
           fill-opacity="1"
           id="g13">
          <g
             transform="translate(114.99656,122.70321)"
             id="g12">
            <g
               id="g11">
              <path
                 d="m 89.921875,-41.140625 c 0,5.78125 -1.042969,11.277344 -3.125,16.484375 -2.085937,5.210938 -5.007813,9.757812 -8.765625,13.640625 -3.761719,3.875 -8.1875,6.96875 -13.28125,9.28125 -5.085938,2.3125 -10.578125,3.46875 -16.484375,3.46875 -5.90625,0 -11.40625,-1.15625 -16.5,-3.46875 -5.09375,-2.3125 -9.496094,-5.40625 -13.203125,-9.28125 -3.699219,-3.882813 -6.621094,-8.429687 -8.765625,-13.640625 -2.136719,-5.207031 -3.203125,-10.703125 -3.203125,-16.484375 0,-5.789063 1.066406,-11.289063 3.203125,-16.5 2.144531,-5.207031 5.066406,-9.75 8.765625,-13.625 3.707031,-3.875 8.109375,-6.96875 13.203125,-9.28125 5.09375,-2.320313 10.59375,-3.484375 16.5,-3.484375 5.90625,0 11.398437,1.164062 16.484375,3.484375 5.09375,2.3125 9.488281,5.4375 13.1875,9.375 3.707031,3.929687 6.628906,8.496094 8.765625,13.703125 2.144531,5.210938 3.21875,10.652344 3.21875,16.328125 z m -41.65625,36.625 c 4.863281,0 9.40625,-0.953125 13.625,-2.859375 4.226563,-1.914062 7.90625,-4.550781 11.03125,-7.90625 3.125,-3.351562 5.582031,-7.226562 7.375,-11.625 1.789063,-4.394531 2.6875,-9.140625 2.6875,-14.234375 0,-4.976563 -0.898437,-9.664063 -2.6875,-14.0625 -1.792969,-4.40625 -4.25,-8.285156 -7.375,-11.640625 -3.125,-3.351562 -6.835937,-6.015625 -11.125,-7.984375 -4.28125,-1.96875 -8.851563,-2.953125 -13.703125,-2.953125 -4.867188,0 -9.414062,1.015625 -13.640625,3.046875 -4.21875,2.023437 -7.890625,4.714844 -11.015625,8.078125 -3.125,3.355469 -5.558594,7.230469 -7.296875,11.625 -1.730469,4.398438 -2.59375,9.027344 -2.59375,13.890625 0,4.855469 0.863281,9.484375 2.59375,13.890625 1.738281,4.398438 4.171875,8.304688 7.296875,11.71875 3.125,3.40625 6.796875,6.09375 11.015625,8.0625 4.226563,1.96875 8.832031,2.953125 13.8125,2.953125 z m 0,0"
                 id="path10" />
            </g>
          </g>
        </g>
        <g
           fill="#151f28"
           fill-opacity="1"
           id="g16">
          <g
             transform="translate(229.23171,122.70321)"
             id="g15">
            <g
               id="g14">
              <path
                 d="m 10.421875,-82.296875 h 6.59375 v 49.828125 c 0,3.9375 0.660156,7.617188 1.984375,11.03125 1.332031,3.417969 3.15625,6.371094 5.46875,8.859375 2.320312,2.480469 5.101562,4.445313 8.34375,5.890625 3.238281,1.449219 6.769531,2.171875 10.59375,2.171875 3.695312,0 7.164062,-0.691406 10.40625,-2.078125 3.25,-1.394531 6.054688,-3.363281 8.421875,-5.90625 2.375,-2.539062 4.226563,-5.488281 5.5625,-8.84375 1.332031,-3.363281 2,-7.070312 2,-11.125 v -49.828125 h 6.59375 v 50.875 c 0,4.625 -0.8125,8.964844 -2.4375,13.015625 -1.617187,4.054688 -3.902344,7.558594 -6.859375,10.515625 -2.949219,2.949219 -6.449219,5.292969 -10.5,7.03125 -4.054688,1.726563 -8.449219,2.59375 -13.1875,2.59375 -4.75,0 -9.152344,-0.867187 -13.203125,-2.59375 -4.054687,-1.738281 -7.554687,-4.082031 -10.5,-7.03125 -2.949219,-2.957031 -5.234375,-6.460937 -6.859375,-10.515625 -1.617188,-4.050781 -2.421875,-8.390625 -2.421875,-13.015625 z m 0,0"
                 id="path13" />
            </g>
          </g>
        </g>
        <g
           fill="#151f28"
           fill-opacity="1"
           id="g19">
          <g
             transform="translate(333.74477,122.70321)"
             id="g18">
            <g
               id="g17">
              <path
                 d="m 86.109375,39.234375 h -6.59375 v -80.90625 c 0,-4.625 -0.839844,-9.101563 -2.515625,-13.4375 -1.679688,-4.34375 -3.996094,-8.191406 -6.953125,-11.546875 -2.949219,-3.363281 -6.480469,-6.054688 -10.59375,-8.078125 C 55.347656,-76.765625 50.863281,-77.78125 46,-77.78125 c -4.398438,0 -8.621094,0.984375 -12.671875,2.953125 -4.054687,1.96875 -7.585937,4.605469 -10.59375,7.90625 -3,3.292969 -5.402344,7.167969 -7.203125,11.625 -1.792969,4.460937 -2.6875,9.179687 -2.6875,14.15625 0,5.09375 0.894531,9.839844 2.6875,14.234375 1.800781,4.398438 4.203125,8.273438 7.203125,11.625 3.007813,3.355469 6.539063,5.992188 10.59375,7.90625 4.050781,1.90625 8.273437,2.859375 12.671875,2.859375 5.5625,0 10.28125,-1.007813 14.15625,-3.03125 3.875,-2.03125 7.722656,-5.015625 11.546875,-8.953125 v 7.8125 c -4.398437,3.710938 -8.679687,6.375 -12.84375,8 C 54.691406,0.925781 50.40625,1.734375 46,1.734375 40.21875,1.734375 34.894531,0.632812 30.03125,-1.5625 25.175781,-3.757812 20.953125,-6.765625 17.359375,-10.578125 13.773438,-14.398438 10.96875,-18.914062 8.9375,-24.125 6.914062,-29.332031 5.90625,-35.003906 5.90625,-41.140625 c 0,-6.019531 1.007812,-11.660156 3.03125,-16.921875 2.03125,-5.269531 4.835938,-9.816406 8.421875,-13.640625 3.59375,-3.820313 7.816406,-6.832031 12.671875,-9.03125 4.863281,-2.195313 10.1875,-3.296875 15.96875,-3.296875 5.789062,0 11.144531,1.132812 16.0625,3.390625 4.914062,2.261719 9.140625,5.304687 12.671875,9.125 3.53125,3.8125 6.304687,8.296875 8.328125,13.453125 2.03125,5.148438 3.046875,10.554688 3.046875,16.21875 z m 0,0"
                 id="path16" />
            </g>
          </g>
        </g>
      </g>
    </g>
    <path
       stroke-linecap="butt"
       transform="matrix(0,0.74858,-0.74858,0,308.00091,54.605263)"
       fill="none"
       stroke-linejoin="miter"
       d="M 2.74654e-4,6.002169 H 405.13217"
       stroke="#ef6a01"
       stroke-width="12"
       stroke-opacity="1"
       stroke-miterlimit="4"
       id="path21" />
    <g
       transform="translate(412,229)"
       id="g44">
      <g
         clip-path="url(#bbbf4eab43)"
         id="g43">
        <g
           fill="#1e1e1e"
           fill-opacity="1"
           id="g24">
          <g
             transform="translate(1.226476,81.946064)"
             id="g23">
            <g
               id="g22">
              <path
                 d="m 39.015625,-56.109375 v 15.015625 h -14.65625 c -0.84375,0 -1.652344,0.25 -2.421875,0.75 -0.773438,0.5 -1.15625,1.136719 -1.15625,1.90625 0,1.230469 2.304688,2.765625 6.921875,4.609375 4.613281,1.855469 8.207031,4.054687 10.78125,6.59375 2.582031,2.53125 3.875,5.726563 3.875,9.578125 0,5.84375 -1.695313,10.25 -5.078125,13.21875 C 33.894531,-1.476562 29.316406,0 23.546875,0 h -21.125 V -15.703125 H 20.4375 c 0.84375,0 1.550781,-0.207031 2.125,-0.625 0.582031,-0.425781 0.875,-1.0625 0.875,-1.90625 0,-1 -0.578125,-1.769531 -1.734375,-2.3125 -1.15625,-0.539063 -2.851563,-1.269531 -5.078125,-2.1875 -2.15625,-0.925781 -4.085938,-1.890625 -5.78125,-2.890625 -1.6875,-1 -3.109375,-2.171875 -4.265625,-3.515625 -1.15625,-1.351563 -2.042969,-2.914063 -2.65625,-4.6875 C 3.304688,-35.597656 3,-37.710938 3,-40.171875 c 0,-2.457031 0.476562,-4.664063 1.4375,-6.625 0.96875,-1.96875 2.273438,-3.644531 3.921875,-5.03125 1.65625,-1.382813 3.539063,-2.441406 5.65625,-3.171875 2.125,-0.738281 4.335937,-1.109375 6.640625,-1.109375 z m 0,0"
                 id="path22" />
            </g>
          </g>
        </g>
        <g
           fill="#1e1e1e"
           fill-opacity="1"
           id="g27">
          <g
             transform="translate(40.355324,81.946064)"
             id="g26">
            <g
               id="g25">
              <path
                 d="m 22.515625,-80.8125 v 26.328125 c 1.6875,-0.84375 3.359375,-1.550781 5.015625,-2.125 1.65625,-0.582031 3.5625,-0.875 5.71875,-0.875 3.226562,0 6.113281,0.578125 8.65625,1.734375 2.539062,1.148438 4.675781,2.703125 6.40625,4.671875 1.726562,1.960937 3.050781,4.230469 3.96875,6.8125 0.925781,2.574219 1.390625,5.289063 1.390625,8.140625 V 0 h -18.46875 v -32.90625 c 0,-2.226562 -0.601563,-3.914062 -1.796875,-5.0625 -1.1875,-1.15625 -2.703125,-1.734375 -4.546875,-1.734375 -1.84375,0 -3.367187,0.578125 -4.5625,1.734375 -1.1875,1.148438 -1.78125,2.835938 -1.78125,5.0625 V 0 H 4.046875 v -80.8125 z m 0,0"
                 id="path24" />
            </g>
          </g>
        </g>
        <g
           fill="#1e1e1e"
           fill-opacity="1"
           id="g30">
          <g
             transform="translate(92.296471,81.946064)"
             id="g29">
            <g
               id="g28">
              <path
                 d="m 65.796875,0 h -18.46875 v -26.3125 c 0,-4.625 -1.078125,-8.164062 -3.234375,-10.625 -2.15625,-2.46875 -5.429688,-3.703125 -9.8125,-3.703125 -1.6875,0 -3.304688,0.328125 -4.84375,0.984375 -1.542969,0.65625 -2.890625,1.527344 -4.046875,2.609375 -1.148437,1.074219 -2.070313,2.359375 -2.765625,3.859375 -0.6875,1.5 -1.03125,3.101562 -1.03125,4.796875 0,3.917969 1.171875,7.054687 3.515625,9.40625 2.34375,2.34375 5.285156,3.515625 8.828125,3.515625 1.695312,0 3.273438,-0.148438 4.734375,-0.453125 1.457031,-0.3125 2.804687,-0.695313 4.046875,-1.15625 V -1.84375 c -1.773438,1.230469 -3.664062,2.070312 -5.671875,2.53125 -2,0.46875 -4.265625,0.703125 -6.796875,0.703125 -3.46875,0 -6.839844,-0.714844 -10.109375,-2.140625 -3.273437,-1.425781 -6.15625,-3.425781 -8.65625,-6 -2.5,-2.582031 -4.523437,-5.660156 -6.0625,-9.234375 -1.542969,-3.582031 -2.3125,-7.566406 -2.3125,-11.953125 0,-4.15625 0.769531,-8.019531 2.3125,-11.59375 1.539063,-3.582031 3.65625,-6.703125 6.34375,-9.359375 2.695313,-2.65625 5.929687,-4.75 9.703125,-6.28125 3.769531,-1.539063 7.925781,-2.3125 12.46875,-2.3125 4.851562,0 9.238281,0.671875 13.15625,2.015625 3.925781,1.34375 7.273438,3.210938 10.046875,5.59375 2.769531,2.386719 4.90625,5.214844 6.40625,8.484375 1.5,3.273437 2.25,6.835937 2.25,10.6875 z m 0,0"
                 id="path27" />
            </g>
          </g>
        </g>
        <g
           fill="#1e1e1e"
           fill-opacity="1"
           id="g33">
          <g
             transform="translate(157.0499,81.946064)"
             id="g32">
            <g
               id="g31">
              <path
                 d="m 44.90625,-49.640625 c 2,-2.226563 4.421875,-4.09375 7.265625,-5.59375 2.851563,-1.5 5.738281,-2.25 8.65625,-2.25 3.3125,0 6.410156,0.558594 9.296875,1.671875 2.882812,1.117188 5.382812,2.636719 7.5,4.5625 2.125,1.917969 3.78125,4.132812 4.96875,6.640625 1.195312,2.5 1.796875,5.171875 1.796875,8.015625 V 0 h -18.46875 v -33.484375 c 0,-1.613281 -0.429687,-3.050781 -1.28125,-4.3125 -0.84375,-1.269531 -2.382813,-1.90625 -4.609375,-1.90625 -2.230469,0 -3.773438,0.636719 -4.625,1.90625 -0.84375,1.261719 -1.265625,2.699219 -1.265625,4.3125 V 0 h -18.46875 v -33.484375 c 0,-1.613281 -0.429687,-3.050781 -1.28125,-4.3125 -0.84375,-1.269531 -2.382813,-1.90625 -4.609375,-1.90625 -2.230469,0 -3.773438,0.636719 -4.625,1.90625 -0.84375,1.261719 -1.265625,2.699219 -1.265625,4.3125 V 0 H 5.421875 v -36.59375 c 0,-2.84375 0.59375,-5.515625 1.78125,-8.015625 1.195313,-2.507813 2.832031,-4.722656 4.90625,-6.640625 2.082031,-1.925781 4.566406,-3.445312 7.453125,-4.5625 2.882812,-1.113281 6.019531,-1.671875 9.40625,-1.671875 2.925781,0 5.8125,0.75 8.65625,2.25 2.851562,1.5 5.28125,3.367187 7.28125,5.59375 z m 0,0"
                 id="path30" />
            </g>
          </g>
        </g>
        <g
           fill="#ef6a01"
           fill-opacity="1"
           id="g36">
          <g
             transform="translate(241.08434,81.946064)"
             id="g35">
            <g
               id="g34">
              <path
                 d="m 65.796875,0 h -18.46875 v -26.3125 c 0,-4.625 -1.078125,-8.164062 -3.234375,-10.625 -2.15625,-2.46875 -5.429688,-3.703125 -9.8125,-3.703125 -1.6875,0 -3.304688,0.328125 -4.84375,0.984375 -1.542969,0.65625 -2.890625,1.527344 -4.046875,2.609375 -1.148437,1.074219 -2.070313,2.359375 -2.765625,3.859375 -0.6875,1.5 -1.03125,3.101562 -1.03125,4.796875 0,3.917969 1.171875,7.054687 3.515625,9.40625 2.34375,2.34375 5.285156,3.515625 8.828125,3.515625 1.695312,0 3.273438,-0.148438 4.734375,-0.453125 1.457031,-0.3125 2.804687,-0.695313 4.046875,-1.15625 V -1.84375 c -1.773438,1.230469 -3.664062,2.070312 -5.671875,2.53125 -2,0.46875 -4.265625,0.703125 -6.796875,0.703125 -3.46875,0 -6.839844,-0.714844 -10.109375,-2.140625 -3.273437,-1.425781 -6.15625,-3.425781 -8.65625,-6 -2.5,-2.582031 -4.523437,-5.660156 -6.0625,-9.234375 -1.542969,-3.582031 -2.3125,-7.566406 -2.3125,-11.953125 0,-4.15625 0.769531,-8.019531 2.3125,-11.59375 1.539063,-3.582031 3.65625,-6.703125 6.34375,-9.359375 2.695313,-2.65625 5.929687,-4.75 9.703125,-6.28125 3.769531,-1.539063 7.925781,-2.3125 12.46875,-2.3125 4.851562,0 9.238281,0.671875 13.15625,2.015625 3.925781,1.34375 7.273438,3.210938 10.046875,5.59375 2.769531,2.386719 4.90625,5.214844 6.40625,8.484375 1.5,3.273437 2.25,6.835937 2.25,10.6875 z m 0,0"
                 id="path33" />
            </g>
          </g>
        </g>
        <g
           fill="#ef6a01"
           fill-opacity="1"
           id="g39">
          <g
             transform="translate(305.83776,81.946064)"
             id="g38">
            <g
               id="g37">
              <path
                 d="m 67.421875,-27.9375 c 0,4.386719 -0.792969,8.390625 -2.375,12.015625 -1.574219,3.617187 -3.730469,6.695313 -6.46875,9.234375 -2.730469,2.53125 -5.902344,4.511719 -9.515625,5.9375 -3.617188,1.425781 -7.464844,2.140625 -11.546875,2.140625 -2.15625,0 -3.96875,-0.136719 -5.4375,-0.40625 C 30.617188,0.710938 29.429688,0.382812 28.515625,0 v -17.078125 c 0.457031,0.304687 1.320313,0.648437 2.59375,1.03125 1.269531,0.386719 2.941406,0.578125 5.015625,0.578125 1.851562,0 3.566406,-0.304688 5.140625,-0.921875 1.582031,-0.613281 2.929687,-1.476563 4.046875,-2.59375 1.113281,-1.113281 2,-2.441406 2.65625,-3.984375 0.65625,-1.539062 0.984375,-3.234375 0.984375,-5.078125 0,-3.695313 -1.199219,-6.71875 -3.59375,-9.0625 -2.386719,-2.351563 -5.421875,-3.53125 -9.109375,-3.53125 -2.230469,0 -4.15625,0.386719 -5.78125,1.15625 -1.617188,0.773437 -2.964844,1.8125 -4.046875,3.125 C 25.347656,-35.054688 24.539062,-33.519531 24,-31.75 c -0.53125,1.773438 -0.796875,3.621094 -0.796875,5.546875 v 50.4375 H 4.734375 v -54.9375 c 0,-4 0.804687,-7.632813 2.421875,-10.90625 1.613281,-3.269531 3.863281,-6.078125 6.75,-8.421875 2.882812,-2.351562 6.25,-4.179688 10.09375,-5.484375 3.851562,-1.3125 8.050781,-1.96875 12.59375,-1.96875 4.46875,0 8.601562,0.773437 12.40625,2.3125 3.8125,1.53125 7.0625,3.625 9.75,6.28125 2.695312,2.65625 4.816406,5.777344 6.359375,9.359375 1.539063,3.574219 2.3125,7.4375 2.3125,11.59375 z m 0,0"
                 id="path36" />
            </g>
          </g>
        </g>
        <g
           fill="#ef6a01"
           fill-opacity="1"
           id="g42">
          <g
             transform="translate(370.5912,81.946064)"
             id="g41">
            <g
               id="g40">
              <path
                 d="m 67.421875,-27.9375 c 0,4.386719 -0.792969,8.390625 -2.375,12.015625 -1.574219,3.617187 -3.730469,6.695313 -6.46875,9.234375 -2.730469,2.53125 -5.902344,4.511719 -9.515625,5.9375 -3.617188,1.425781 -7.464844,2.140625 -11.546875,2.140625 -2.15625,0 -3.96875,-0.136719 -5.4375,-0.40625 C 30.617188,0.710938 29.429688,0.382812 28.515625,0 v -17.078125 c 0.457031,0.304687 1.320313,0.648437 2.59375,1.03125 1.269531,0.386719 2.941406,0.578125 5.015625,0.578125 1.851562,0 3.566406,-0.304688 5.140625,-0.921875 1.582031,-0.613281 2.929687,-1.476563 4.046875,-2.59375 1.113281,-1.113281 2,-2.441406 2.65625,-3.984375 0.65625,-1.539062 0.984375,-3.234375 0.984375,-5.078125 0,-3.695313 -1.199219,-6.71875 -3.59375,-9.0625 -2.386719,-2.351563 -5.421875,-3.53125 -9.109375,-3.53125 -2.230469,0 -4.15625,0.386719 -5.78125,1.15625 -1.617188,0.773437 -2.964844,1.8125 -4.046875,3.125 C 25.347656,-35.054688 24.539062,-33.519531 24,-31.75 c -0.53125,1.773438 -0.796875,3.621094 -0.796875,5.546875 v 50.4375 H 4.734375 v -54.9375 c 0,-4 0.804687,-7.632813 2.421875,-10.90625 1.613281,-3.269531 3.863281,-6.078125 6.75,-8.421875 2.882812,-2.351562 6.25,-4.179688 10.09375,-5.484375 3.851562,-1.3125 8.050781,-1.96875 12.59375,-1.96875 4.46875,0 8.601562,0.773437 12.40625,2.3125 3.8125,1.53125 7.0625,3.625 9.75,6.28125 2.695312,2.65625 4.816406,5.777344 6.359375,9.359375 1.539063,3.574219 2.3125,7.4375 2.3125,11.59375 z m 0,0"
                 id="path39" />
            </g>
          </g>
        </g>
      </g>
    </g>
    <g
       transform="translate(84,179)"
       id="g50">
      <g
         clip-path="url(#4536baf4b1)"
         id="g49">
        <g
           clip-path="url(#9f9e3ed866)"
           id="g48">
          <g
             fill="#000000"
             fill-opacity="1"
             id="g47">
            <g
               transform="translate(0.968075,102.71372)"
               id="g46">
              <g
                 id="g45">
                <path
                   d="m 69.171875,-102.375 v 5.5625 H 34.8125 c -7.023438,0 -12.460938,1.339844 -16.3125,4.015625 -3.855469,2.679687 -5.78125,7.335937 -5.78125,13.96875 0,2.824219 0.488281,5.289063 1.46875,7.390625 0.976562,2.09375 2.296875,3.921875 3.953125,5.484375 1.65625,1.554687 3.628906,2.917969 5.921875,4.09375 2.289062,1.167969 4.75,2.1875 7.375,3.0625 3.03125,1.074219 6.222656,2.054687 9.578125,2.9375 3.363281,0.875 6.65625,1.851563 9.875,2.921875 3.21875,1.074219 6.289063,2.320312 9.21875,3.734375 2.925781,1.40625 5.484375,3.164063 7.671875,5.265625 2.195312,2.09375 3.953125,4.605469 5.265625,7.53125 1.320313,2.917969 1.984375,6.421875 1.984375,10.515625 0,4.386719 -0.757812,8.214844 -2.265625,11.484375 -1.511719,3.273438 -3.65625,5.953125 -6.4375,8.046875 -2.78125,2.09375 -6.101563,3.679687 -9.953125,4.75 C 52.53125,-0.535156 48.265625,0 43.578125,0 H 6.28125 v -5.5625 h 36.5625 c 7.90625,0 14.171875,-1.601562 18.796875,-4.8125 4.632813,-3.21875 6.953125,-8.097656 6.953125,-14.640625 0,-4.675781 -1.074219,-8.472656 -3.21875,-11.390625 -2.148438,-2.925781 -4.875,-5.289062 -8.1875,-7.09375 -3.3125,-1.8125 -6.996094,-3.273438 -11.046875,-4.390625 -4.042969,-1.125 -8.015625,-2.269531 -11.921875,-3.4375 -3.699219,-1.070313 -7.230469,-2.265625 -10.59375,-3.578125 -3.367188,-1.320312 -6.339844,-3.054688 -8.921875,-5.203125 -2.585937,-2.144531 -4.636719,-4.753906 -6.15625,-7.828125 -1.511719,-3.070312 -2.265625,-6.894531 -2.265625,-11.46875 0,-7.3125 2.410156,-12.96875 7.234375,-16.96875 4.832031,-4 11.195313,-6 19.09375,-6 z m 0,0"
                   id="path44" />
              </g>
            </g>
          </g>
        </g>
      </g>
    </g>
  </g>
</svg>
