<svg xmlns="http://www.w3.org/2000/svg" xmlns:xlink="http://www.w3.org/1999/xlink" width="512" zoomAndPan="magnify" viewBox="0 0 384 383.999986" height="512" preserveAspectRatio="xMidYMid meet" version="1.0"><defs><g/><clipPath id="20b84279f5"><path d="M 20.238281 0 L 342.777344 0 L 342.777344 384 L 20.238281 384 Z M 20.238281 0 " clip-rule="nonzero"/></clipPath><clipPath id="95c5802cad"><path d="M 20.238281 35.25 L 20.238281 348.75 C 20.238281 358.097656 23.953125 367.066406 30.566406 373.675781 C 37.175781 380.285156 46.140625 384 55.488281 384 L 308.511719 384 C 317.859375 384 326.824219 380.285156 333.433594 373.675781 C 340.046875 367.066406 343.761719 358.097656 343.761719 348.75 L 343.761719 35.25 C 343.761719 25.902344 340.046875 16.933594 333.433594 10.324219 C 326.824219 3.714844 317.859375 0 308.511719 0 L 55.488281 0 C 46.140625 0 37.175781 3.714844 30.566406 10.324219 C 23.953125 16.933594 20.238281 25.902344 20.238281 35.25 Z M 20.238281 35.25 " clip-rule="nonzero"/></clipPath><clipPath id="08428c035a"><rect x="0" width="108" y="0" height="196"/></clipPath><clipPath id="f1c68e36ce"><rect x="0" width="364" y="0" height="384"/></clipPath></defs><g transform="matrix(1, 0, 0, 1, 10, 0)"><g clip-path="url(#f1c68e36ce)"><g clip-path="url(#20b84279f5)"><g clip-path="url(#95c5802cad)"><path fill="#ef6a01" d="M 338.132812 87.285156 C 337.191406 86.269531 336.15625 85.359375 335.027344 84.558594 C 333.898438 83.753906 332.699219 83.074219 331.429688 82.519531 C 330.160156 81.964844 328.851562 81.542969 327.496094 81.257812 C 326.140625 80.96875 324.769531 80.824219 323.382812 80.820312 L 262.769531 80.820312 C 262.769531 79.496094 262.738281 78.175781 262.671875 76.855469 C 262.605469 75.53125 262.507812 74.214844 262.378906 72.898438 C 262.25 71.582031 262.089844 70.269531 261.894531 68.960938 C 261.699219 67.652344 261.472656 66.351562 261.214844 65.050781 C 260.957031 63.753906 260.667969 62.464844 260.347656 61.183594 C 260.027344 59.898438 259.671875 58.625 259.289062 57.359375 C 258.90625 56.09375 258.488281 54.835938 258.042969 53.59375 C 257.597656 52.347656 257.121094 51.113281 256.617188 49.890625 C 256.109375 48.667969 255.574219 47.460938 255.007812 46.265625 C 254.445312 45.070312 253.847656 43.886719 253.226562 42.722656 C 252.601562 41.554688 251.949219 40.40625 251.269531 39.269531 C 250.589844 38.136719 249.882812 37.019531 249.148438 35.917969 C 248.414062 34.820312 247.652344 33.738281 246.863281 32.675781 C 246.078125 31.613281 245.261719 30.570312 244.421875 29.546875 C 243.585938 28.527344 242.722656 27.523438 241.832031 26.542969 C 240.945312 25.566406 240.03125 24.605469 239.097656 23.671875 C 238.160156 22.734375 237.203125 21.824219 236.222656 20.9375 C 235.246094 20.046875 234.242188 19.183594 233.21875 18.34375 C 232.199219 17.507812 231.15625 16.691406 230.09375 15.90625 C 229.03125 15.117188 227.949219 14.355469 226.851562 13.621094 C 225.75 12.886719 224.632812 12.179688 223.5 11.5 C 222.363281 10.816406 221.214844 10.167969 220.046875 9.542969 C 218.878906 8.917969 217.699219 8.324219 216.503906 7.757812 C 215.308594 7.195312 214.097656 6.65625 212.878906 6.152344 C 211.65625 5.644531 210.421875 5.171875 209.175781 4.722656 C 207.929688 4.277344 206.675781 3.863281 205.410156 3.480469 C 204.144531 3.097656 202.871094 2.742188 201.585938 2.421875 C 200.304688 2.101562 199.011719 1.8125 197.714844 1.554688 C 196.417969 1.292969 195.117188 1.070312 193.808594 0.875 C 192.5 0.679688 191.1875 0.519531 189.871094 0.390625 C 188.554688 0.257812 187.234375 0.164062 185.914062 0.0976562 C 184.59375 0.03125 183.273438 0 181.949219 0 C 180.625 0 179.304688 0.03125 177.984375 0.0976562 C 176.664062 0.164062 175.34375 0.257812 174.027344 0.390625 C 172.710938 0.519531 171.398438 0.679688 170.089844 0.875 C 168.78125 1.070312 167.480469 1.292969 166.183594 1.554688 C 164.882812 1.8125 163.59375 2.101562 162.3125 2.421875 C 161.027344 2.742188 159.753906 3.097656 158.488281 3.480469 C 157.222656 3.863281 155.96875 4.277344 154.722656 4.722656 C 153.476562 5.171875 152.242188 5.644531 151.019531 6.152344 C 149.796875 6.65625 148.589844 7.195312 147.394531 7.757812 C 146.199219 8.324219 145.015625 8.917969 143.851562 9.542969 C 142.683594 10.167969 141.535156 10.816406 140.398438 11.5 C 139.265625 12.179688 138.148438 12.886719 137.046875 13.621094 C 135.949219 14.355469 134.867188 15.117188 133.804688 15.90625 C 132.742188 16.691406 131.699219 17.507812 130.675781 18.34375 C 129.65625 19.183594 128.652344 20.046875 127.675781 20.9375 C 126.695312 21.824219 125.734375 22.734375 124.800781 23.671875 C 123.867188 24.605469 122.953125 25.566406 122.066406 26.542969 C 121.175781 27.523438 120.3125 28.527344 119.476562 29.546875 C 118.636719 30.570312 117.820312 31.613281 117.035156 32.675781 C 116.246094 33.738281 115.484375 34.820312 114.75 35.917969 C 114.015625 37.019531 113.308594 38.136719 112.628906 39.269531 C 111.949219 40.40625 111.296875 41.554688 110.671875 42.722656 C 110.050781 43.886719 109.453125 45.070312 108.890625 46.265625 C 108.324219 47.460938 107.789062 48.667969 107.28125 49.890625 C 106.773438 51.113281 106.300781 52.347656 105.855469 53.59375 C 105.40625 54.835938 104.992188 56.09375 104.609375 57.359375 C 104.226562 58.625 103.871094 59.898438 103.550781 61.183594 C 103.230469 62.464844 102.941406 63.753906 102.683594 65.050781 C 102.425781 66.351562 102.199219 67.652344 102.003906 68.960938 C 101.808594 70.269531 101.648438 71.582031 101.519531 72.898438 C 101.390625 74.214844 101.292969 75.53125 101.226562 76.855469 C 101.160156 78.175781 101.128906 79.496094 101.128906 80.820312 L 40.515625 80.820312 C 39.128906 80.824219 37.757812 80.96875 36.402344 81.253906 C 35.046875 81.542969 33.738281 81.964844 32.46875 82.519531 C 31.199219 83.074219 30 83.753906 28.871094 84.558594 C 27.742188 85.359375 26.707031 86.269531 25.765625 87.285156 C 24.800781 88.304688 23.953125 89.414062 23.222656 90.609375 C 22.492188 91.808594 21.890625 93.066406 21.421875 94.390625 C 20.949219 95.710938 20.621094 97.066406 20.433594 98.457031 C 20.25 99.847656 20.207031 101.242188 20.308594 102.640625 L 37.6875 327.925781 C 37.832031 329.8125 38.0625 331.6875 38.382812 333.550781 C 38.703125 335.417969 39.113281 337.261719 39.605469 339.089844 C 40.097656 340.914062 40.675781 342.714844 41.339844 344.484375 C 42 346.257812 42.742188 347.996094 43.566406 349.699219 C 44.390625 351.402344 45.292969 353.0625 46.273438 354.679688 C 47.253906 356.296875 48.308594 357.867188 49.433594 359.386719 C 50.5625 360.90625 51.757812 362.371094 53.023438 363.777344 C 54.285156 365.183594 55.613281 366.53125 57.003906 367.8125 C 58.390625 369.097656 59.839844 370.3125 61.34375 371.460938 C 62.847656 372.609375 64.402344 373.683594 66.003906 374.6875 C 67.609375 375.6875 69.257812 376.613281 70.949219 377.460938 C 72.640625 378.308594 74.367188 379.078125 76.128906 379.761719 C 77.890625 380.449219 79.683594 381.050781 81.503906 381.570312 C 83.320312 382.089844 85.160156 382.523438 87.019531 382.867188 C 88.882812 383.214844 90.753906 383.472656 92.636719 383.644531 C 94.519531 383.816406 96.410156 383.898438 98.300781 383.894531 L 266 383.894531 C 267.894531 383.898438 269.78125 383.816406 271.664062 383.644531 C 273.550781 383.472656 275.421875 383.214844 277.28125 382.867188 C 279.140625 382.523438 280.980469 382.089844 282.800781 381.570312 C 284.621094 381.050781 286.410156 380.449219 288.171875 379.761719 C 289.9375 379.078125 291.664062 378.308594 293.355469 377.460938 C 295.046875 376.613281 296.691406 375.6875 298.296875 374.6875 C 299.902344 373.683594 301.457031 372.609375 302.960938 371.460938 C 304.464844 370.3125 305.910156 369.097656 307.300781 367.8125 C 308.691406 366.53125 310.015625 365.183594 311.28125 363.777344 C 312.542969 362.371094 313.742188 360.90625 314.867188 359.386719 C 315.992188 357.867188 317.046875 356.296875 318.027344 354.679688 C 319.007812 353.0625 319.910156 351.402344 320.734375 349.699219 C 321.558594 347.996094 322.300781 346.257812 322.964844 344.484375 C 323.625 342.714844 324.203125 340.914062 324.695312 339.089844 C 325.191406 337.261719 325.597656 335.417969 325.917969 333.550781 C 326.238281 331.6875 326.472656 329.8125 326.617188 327.925781 L 343.589844 102.640625 C 343.691406 101.242188 343.648438 99.847656 343.460938 98.457031 C 343.277344 97.066406 342.949219 95.710938 342.476562 94.390625 C 342.007812 93.066406 341.40625 91.808594 340.675781 90.609375 C 339.945312 89.414062 339.097656 88.304688 338.132812 87.285156 Z M 181.949219 40.410156 C 183.273438 40.410156 184.59375 40.476562 185.910156 40.605469 C 187.226562 40.734375 188.535156 40.929688 189.832031 41.1875 C 191.128906 41.445312 192.414062 41.765625 193.679688 42.148438 C 194.945312 42.535156 196.191406 42.980469 197.414062 43.484375 C 198.636719 43.992188 199.832031 44.558594 201 45.179688 C 202.164062 45.804688 203.300781 46.484375 204.398438 47.21875 C 205.5 47.957031 206.5625 48.742188 207.585938 49.582031 C 208.609375 50.421875 209.585938 51.308594 210.523438 52.246094 C 211.460938 53.179688 212.347656 54.160156 213.1875 55.183594 C 214.027344 56.207031 214.8125 57.269531 215.546875 58.371094 C 216.285156 59.46875 216.964844 60.601562 217.585938 61.769531 C 218.210938 62.9375 218.777344 64.132812 219.28125 65.355469 C 219.789062 66.578125 220.234375 67.824219 220.617188 69.089844 C 221.003906 70.355469 221.324219 71.636719 221.582031 72.9375 C 221.839844 74.234375 222.035156 75.542969 222.164062 76.859375 C 222.292969 78.175781 222.359375 79.496094 222.359375 80.820312 L 141.539062 80.820312 C 141.539062 79.496094 141.605469 78.175781 141.734375 76.859375 C 141.863281 75.542969 142.058594 74.234375 142.316406 72.9375 C 142.574219 71.636719 142.894531 70.355469 143.28125 69.089844 C 143.664062 67.824219 144.109375 66.578125 144.617188 65.355469 C 145.121094 64.132812 145.6875 62.9375 146.3125 61.769531 C 146.933594 60.601562 147.613281 59.46875 148.347656 58.371094 C 149.085938 57.269531 149.871094 56.207031 150.710938 55.183594 C 151.550781 54.160156 152.4375 53.179688 153.375 52.246094 C 154.3125 51.308594 155.289062 50.421875 156.3125 49.582031 C 157.335938 48.742188 158.398438 47.957031 159.5 47.21875 C 160.597656 46.484375 161.734375 45.804688 162.898438 45.179688 C 164.066406 44.558594 165.261719 43.992188 166.484375 43.484375 C 167.707031 42.980469 168.953125 42.535156 170.21875 42.148438 C 171.484375 41.765625 172.765625 41.445312 174.066406 41.1875 C 175.363281 40.929688 176.671875 40.734375 177.988281 40.605469 C 179.304688 40.476562 180.625 40.410156 181.949219 40.410156 Z M 285.800781 324.894531 C 285.753906 325.523438 285.671875 326.144531 285.5625 326.765625 C 285.457031 327.386719 285.316406 328 285.152344 328.605469 C 284.984375 329.214844 284.792969 329.8125 284.570312 330.398438 C 284.347656 330.988281 284.101562 331.566406 283.824219 332.132812 C 283.546875 332.699219 283.246094 333.25 282.917969 333.785156 C 282.59375 334.324219 282.242188 334.84375 281.863281 335.351562 C 281.488281 335.855469 281.089844 336.339844 280.667969 336.808594 C 280.246094 337.277344 279.804688 337.722656 279.34375 338.148438 C 278.878906 338.574219 278.398438 338.976562 277.894531 339.359375 C 277.394531 339.738281 276.878906 340.097656 276.34375 340.429688 C 275.808594 340.761719 275.261719 341.070312 274.699219 341.351562 C 274.136719 341.632812 273.5625 341.886719 272.972656 342.113281 C 272.386719 342.34375 271.792969 342.542969 271.1875 342.714844 C 270.582031 342.886719 269.96875 343.03125 269.351562 343.144531 C 268.730469 343.257812 268.109375 343.34375 267.480469 343.402344 C 266.855469 343.457031 266.226562 343.484375 265.597656 343.484375 L 98.097656 343.484375 C 97.46875 343.484375 96.839844 343.457031 96.214844 343.402344 C 95.585938 343.34375 94.964844 343.257812 94.347656 343.144531 C 93.726562 343.03125 93.117188 342.886719 92.511719 342.714844 C 91.90625 342.542969 91.308594 342.34375 90.722656 342.113281 C 90.136719 341.886719 89.5625 341.632812 88.996094 341.351562 C 88.433594 341.070312 87.886719 340.761719 87.351562 340.429688 C 86.816406 340.097656 86.300781 339.738281 85.800781 339.359375 C 85.300781 338.976562 84.816406 338.574219 84.355469 338.148438 C 83.890625 337.722656 83.449219 337.277344 83.027344 336.808594 C 82.605469 336.339844 82.207031 335.855469 81.832031 335.351562 C 81.457031 334.84375 81.105469 334.324219 80.777344 333.785156 C 80.449219 333.25 80.148438 332.699219 79.871094 332.132812 C 79.597656 331.566406 79.347656 330.988281 79.125 330.398438 C 78.902344 329.8125 78.710938 329.214844 78.542969 328.605469 C 78.378906 328 78.242188 327.386719 78.132812 326.765625 C 78.023438 326.144531 77.945312 325.523438 77.894531 324.894531 L 62.335938 121.230469 L 101.128906 121.230469 L 101.128906 141.433594 C 101.128906 142.097656 101.160156 142.757812 101.226562 143.414062 C 101.292969 144.074219 101.386719 144.726562 101.519531 145.375 C 101.648438 146.023438 101.808594 146.667969 102 147.300781 C 102.191406 147.933594 102.414062 148.554688 102.667969 149.167969 C 102.921875 149.777344 103.203125 150.375 103.515625 150.960938 C 103.828125 151.542969 104.167969 152.109375 104.535156 152.660156 C 104.902344 153.210938 105.296875 153.742188 105.714844 154.253906 C 106.136719 154.765625 106.578125 155.253906 107.046875 155.722656 C 107.515625 156.191406 108.003906 156.632812 108.515625 157.054688 C 109.027344 157.472656 109.558594 157.867188 110.109375 158.234375 C 110.660156 158.601562 111.226562 158.941406 111.808594 159.253906 C 112.394531 159.566406 112.992188 159.847656 113.601562 160.101562 C 114.214844 160.355469 114.835938 160.578125 115.46875 160.769531 C 116.101562 160.960938 116.742188 161.121094 117.390625 161.25 C 118.042969 161.378906 118.695312 161.476562 119.355469 161.542969 C 120.011719 161.605469 120.671875 161.640625 121.335938 161.640625 C 121.996094 161.640625 122.65625 161.605469 123.316406 161.542969 C 123.972656 161.476562 124.628906 161.378906 125.277344 161.25 C 125.925781 161.121094 126.566406 160.960938 127.199219 160.769531 C 127.832031 160.578125 128.453125 160.355469 129.066406 160.101562 C 129.679688 159.847656 130.273438 159.566406 130.859375 159.253906 C 131.441406 158.941406 132.007812 158.601562 132.558594 158.234375 C 133.109375 157.867188 133.640625 157.472656 134.152344 157.054688 C 134.664062 156.632812 135.152344 156.191406 135.621094 155.722656 C 136.089844 155.253906 136.53125 154.765625 136.953125 154.253906 C 137.371094 153.742188 137.765625 153.210938 138.132812 152.660156 C 138.5 152.109375 138.839844 151.542969 139.152344 150.960938 C 139.464844 150.375 139.746094 149.777344 140 149.167969 C 140.253906 148.554688 140.476562 147.933594 140.667969 147.300781 C 140.859375 146.667969 141.023438 146.023438 141.152344 145.375 C 141.28125 144.726562 141.378906 144.074219 141.441406 143.414062 C 141.507812 142.757812 141.539062 142.097656 141.539062 141.433594 L 141.539062 121.230469 L 222.359375 121.230469 L 222.359375 141.433594 C 222.359375 142.097656 222.390625 142.757812 222.457031 143.414062 C 222.519531 144.074219 222.617188 144.726562 222.746094 145.375 C 222.875 146.023438 223.035156 146.667969 223.230469 147.300781 C 223.421875 147.933594 223.644531 148.554688 223.898438 149.167969 C 224.148438 149.777344 224.433594 150.375 224.746094 150.960938 C 225.058594 151.542969 225.398438 152.109375 225.765625 152.660156 C 226.132812 153.210938 226.527344 153.742188 226.945312 154.253906 C 227.363281 154.765625 227.808594 155.253906 228.277344 155.722656 C 228.746094 156.191406 229.234375 156.632812 229.746094 157.054688 C 230.257812 157.472656 230.789062 157.867188 231.339844 158.234375 C 231.890625 158.601562 232.457031 158.941406 233.039062 159.253906 C 233.621094 159.566406 234.21875 159.847656 234.832031 160.101562 C 235.441406 160.355469 236.066406 160.578125 236.699219 160.769531 C 237.332031 160.960938 237.972656 161.121094 238.621094 161.25 C 239.269531 161.378906 239.925781 161.476562 240.582031 161.542969 C 241.242188 161.605469 241.902344 161.640625 242.5625 161.640625 C 243.226562 161.640625 243.886719 161.605469 244.542969 161.542969 C 245.203125 161.476562 245.855469 161.378906 246.503906 161.25 C 247.15625 161.121094 247.796875 160.960938 248.429688 160.769531 C 249.0625 160.578125 249.683594 160.355469 250.296875 160.101562 C 250.90625 159.847656 251.503906 159.566406 252.089844 159.253906 C 252.671875 158.941406 253.238281 158.601562 253.789062 158.234375 C 254.339844 157.867188 254.871094 157.472656 255.382812 157.054688 C 255.894531 156.632812 256.382812 156.191406 256.851562 155.722656 C 257.320312 155.253906 257.761719 154.765625 258.183594 154.253906 C 258.601562 153.742188 258.996094 153.210938 259.363281 152.660156 C 259.730469 152.109375 260.070312 151.542969 260.382812 150.960938 C 260.695312 150.375 260.976562 149.777344 261.230469 149.167969 C 261.484375 148.554688 261.707031 147.933594 261.898438 147.300781 C 262.089844 146.667969 262.25 146.023438 262.378906 145.375 C 262.507812 144.726562 262.605469 144.074219 262.671875 143.414062 C 262.738281 142.757812 262.769531 142.097656 262.769531 141.433594 L 262.769531 121.230469 L 301.5625 121.230469 Z M 285.800781 324.894531 " fill-opacity="1" fill-rule="nonzero"/></g></g><g transform="matrix(1, 0, 0, 1, 128, 170)"><g clip-path="url(#08428c035a)"><g fill="#000000" fill-opacity="1"><g transform="translate(0.126149, 136.783632)"><g><path d="M 91.65625 -135.640625 L 91.65625 -128.28125 L 46.125 -128.28125 C 36.820312 -128.28125 29.617188 -126.503906 24.515625 -122.953125 C 19.410156 -119.398438 16.859375 -113.234375 16.859375 -104.453125 C 16.859375 -100.703125 17.503906 -97.4375 18.796875 -94.65625 C 20.085938 -91.882812 21.832031 -89.460938 24.03125 -87.390625 C 26.226562 -85.328125 28.84375 -83.519531 31.875 -81.96875 C 34.914062 -80.414062 38.175781 -79.0625 41.65625 -77.90625 C 45.664062 -76.476562 49.898438 -75.179688 54.359375 -74.015625 C 58.816406 -72.859375 63.175781 -71.566406 67.4375 -70.140625 C 71.695312 -68.722656 75.765625 -67.078125 79.640625 -65.203125 C 83.515625 -63.328125 86.90625 -61 89.8125 -58.21875 C 92.71875 -55.445312 95.039062 -52.125 96.78125 -48.25 C 98.53125 -44.375 99.40625 -39.722656 99.40625 -34.296875 C 99.40625 -28.484375 98.40625 -23.410156 96.40625 -19.078125 C 94.40625 -14.753906 91.5625 -11.203125 87.875 -8.421875 C 84.195312 -5.648438 79.804688 -3.550781 74.703125 -2.125 C 69.597656 -0.707031 63.945312 0 57.75 0 L 8.328125 0 L 8.328125 -7.359375 L 56.78125 -7.359375 C 67.238281 -7.359375 75.535156 -9.488281 81.671875 -13.75 C 87.816406 -18.019531 90.890625 -24.484375 90.890625 -33.140625 C 90.890625 -39.335938 89.46875 -44.375 86.625 -48.25 C 83.78125 -52.125 80.160156 -55.253906 75.765625 -57.640625 C 71.378906 -60.035156 66.503906 -61.972656 61.140625 -63.453125 C 55.773438 -64.941406 50.507812 -66.460938 45.34375 -68.015625 C 40.4375 -69.441406 35.753906 -71.023438 31.296875 -72.765625 C 26.835938 -74.503906 22.894531 -76.796875 19.46875 -79.640625 C 16.050781 -82.484375 13.335938 -85.9375 11.328125 -90 C 9.328125 -94.070312 8.328125 -99.144531 8.328125 -105.21875 C 8.328125 -114.90625 11.523438 -122.394531 17.921875 -127.6875 C 24.316406 -132.988281 32.75 -135.640625 43.21875 -135.640625 Z M 91.65625 -135.640625 "/></g></g></g></g></g></g></g></svg>