<svg xmlns="http://www.w3.org/2000/svg" xmlns:xlink="http://www.w3.org/1999/xlink" width="1265" zoomAndPan="magnify" viewBox="0 0 948.75 395.249997" height="527" preserveAspectRatio="xMidYMid meet" version="1.0"><defs><g/><clipPath id="22270a8d32"><path d="M 0.773438 0 L 947.726562 0 L 947.726562 394.5 L 0.773438 394.5 Z M 0.773438 0 " clip-rule="nonzero"/></clipPath><clipPath id="517967a30a"><path d="M 0.773438 54.601562 L 244.8125 54.601562 L 244.8125 344.300781 L 0.773438 344.300781 Z M 0.773438 54.601562 " clip-rule="nonzero"/></clipPath><clipPath id="73371c2311"><path d="M 0.773438 89.785156 L 0.773438 309.230469 C 0.773438 328.664062 16.527344 344.414062 35.957031 344.414062 L 209.757812 344.414062 C 229.1875 344.414062 244.941406 328.664062 244.941406 309.230469 L 244.941406 89.785156 C 244.941406 70.355469 229.1875 54.601562 209.757812 54.601562 L 35.957031 54.601562 C 16.527344 54.601562 0.773438 70.355469 0.773438 89.785156 Z M 0.773438 89.785156 " clip-rule="nonzero"/></clipPath><clipPath id="e3b389564b"><rect x="0" width="450" y="0" height="176"/></clipPath><clipPath id="bbbf4eab43"><rect x="0" width="441" y="0" height="118"/></clipPath><clipPath id="9f9e3ed866"><path d="M 7 0.179688 L 76 0.179688 L 76 103 L 7 103 Z M 7 0.179688 " clip-rule="nonzero"/></clipPath><clipPath id="4536baf4b1"><rect x="0" width="83" y="0" height="148"/></clipPath></defs><g clip-path="url(#22270a8d32)"><path fill="#ffffff" d="M 0.773438 0 L 947.726562 0 L 947.726562 394.5 L 0.773438 394.5 Z M 0.773438 0 " fill-opacity="1" fill-rule="nonzero"/></g><g clip-path="url(#517967a30a)"><g clip-path="url(#73371c2311)"><path fill="#ef6a01" d="M 240.761719 120.496094 C 239.324219 118.945312 237.636719 117.746094 235.703125 116.898438 C 233.765625 116.046875 231.742188 115.621094 229.625 115.613281 L 183.867188 115.613281 C 183.867188 113.617188 183.769531 111.621094 183.574219 109.632812 C 183.378906 107.644531 183.085938 105.671875 182.695312 103.710938 C 182.304688 101.75 181.820312 99.816406 181.242188 97.902344 C 180.660156 95.992188 179.988281 94.113281 179.222656 92.265625 C 178.460938 90.417969 177.605469 88.613281 176.664062 86.851562 C 175.722656 85.089844 174.695312 83.378906 173.585938 81.71875 C 172.476562 80.054688 171.285156 78.453125 170.019531 76.910156 C 168.75 75.363281 167.410156 73.886719 166 72.472656 C 164.585938 71.058594 163.105469 69.71875 161.5625 68.449219 C 160.015625 67.183594 158.414062 65.996094 156.753906 64.882812 C 155.089844 63.773438 153.378906 62.75 151.617188 61.804688 C 149.855469 60.863281 148.050781 60.011719 146.203125 59.246094 C 144.359375 58.480469 142.480469 57.808594 140.566406 57.230469 C 138.65625 56.648438 136.71875 56.164062 134.757812 55.773438 C 132.800781 55.382812 130.824219 55.089844 128.835938 54.894531 C 126.847656 54.699219 124.855469 54.601562 122.855469 54.601562 C 120.859375 54.601562 118.863281 54.699219 116.875 54.894531 C 114.886719 55.089844 112.914062 55.382812 110.953125 55.773438 C 108.992188 56.164062 107.058594 56.648438 105.144531 57.230469 C 103.234375 57.808594 101.355469 58.480469 99.507812 59.246094 C 97.664062 60.011719 95.859375 60.863281 94.097656 61.804688 C 92.332031 62.75 90.621094 63.773438 88.960938 64.882812 C 87.296875 65.996094 85.695312 67.183594 84.152344 68.449219 C 82.605469 69.71875 81.128906 71.058594 79.714844 72.472656 C 78.300781 73.886719 76.960938 75.363281 75.695312 76.910156 C 74.425781 78.453125 73.238281 80.054688 72.128906 81.71875 C 71.015625 83.378906 69.992188 85.089844 69.050781 86.851562 C 68.105469 88.613281 67.253906 90.417969 66.488281 92.265625 C 65.722656 94.113281 65.050781 95.992188 64.472656 97.902344 C 63.890625 99.816406 63.40625 101.75 63.015625 103.710938 C 62.628906 105.671875 62.335938 107.644531 62.136719 109.632812 C 61.941406 111.621094 61.84375 113.617188 61.84375 115.613281 L 16.085938 115.613281 C 13.972656 115.621094 11.949219 116.046875 10.011719 116.898438 C 8.074219 117.746094 6.390625 118.945312 4.953125 120.496094 C 4.222656 121.265625 3.585938 122.101562 3.03125 123.003906 C 2.480469 123.910156 2.027344 124.859375 1.671875 125.855469 C 1.316406 126.855469 1.070312 127.878906 0.929688 128.929688 C 0.785156 129.976562 0.753906 131.03125 0.832031 132.085938 L 13.949219 302.15625 C 14.058594 303.582031 14.234375 304.996094 14.476562 306.402344 C 14.71875 307.8125 15.027344 309.203125 15.398438 310.582031 C 15.773438 311.960938 16.207031 313.320312 16.707031 314.660156 C 17.207031 315.996094 17.769531 317.308594 18.390625 318.59375 C 19.011719 319.878906 19.695312 321.132812 20.433594 322.351562 C 21.175781 323.574219 21.96875 324.757812 22.820312 325.90625 C 23.671875 327.054688 24.574219 328.160156 25.527344 329.222656 C 26.480469 330.285156 27.484375 331.300781 28.53125 332.269531 C 29.582031 333.238281 30.675781 334.15625 31.808594 335.019531 C 32.945312 335.886719 34.117188 336.699219 35.328125 337.457031 C 36.539062 338.214844 37.785156 338.910156 39.0625 339.550781 C 40.335938 340.191406 41.640625 340.769531 42.972656 341.289062 C 44.300781 341.808594 45.65625 342.261719 47.027344 342.652344 C 48.402344 343.046875 49.789062 343.371094 51.195312 343.632812 C 52.597656 343.894531 54.011719 344.089844 55.433594 344.21875 C 56.855469 344.347656 58.28125 344.410156 59.710938 344.40625 L 186.308594 344.40625 C 187.738281 344.410156 189.160156 344.347656 190.585938 344.21875 C 192.007812 344.089844 193.417969 343.894531 194.824219 343.632812 C 196.226562 343.371094 197.617188 343.046875 198.988281 342.652344 C 200.363281 342.261719 201.714844 341.808594 203.046875 341.289062 C 204.375 340.769531 205.679688 340.191406 206.957031 339.550781 C 208.234375 338.910156 209.476562 338.214844 210.6875 337.457031 C 211.898438 336.699219 213.074219 335.886719 214.207031 335.019531 C 215.34375 334.15625 216.4375 333.238281 217.484375 332.269531 C 218.535156 331.300781 219.535156 330.285156 220.492188 329.222656 C 221.445312 328.160156 222.347656 327.054688 223.199219 325.90625 C 224.046875 324.757812 224.84375 323.574219 225.582031 322.351562 C 226.324219 321.132812 227.003906 319.878906 227.625 318.59375 C 228.25 317.308594 228.808594 315.996094 229.308594 314.660156 C 229.808594 313.320312 230.246094 311.960938 230.617188 310.582031 C 230.992188 309.203125 231.296875 307.8125 231.539062 306.402344 C 231.78125 304.996094 231.957031 303.582031 232.066406 302.15625 L 244.878906 132.085938 C 244.957031 131.03125 244.925781 129.976562 244.785156 128.929688 C 244.644531 127.878906 244.394531 126.855469 244.042969 125.855469 C 243.6875 124.859375 243.234375 123.910156 242.679688 123.003906 C 242.128906 122.101562 241.488281 121.265625 240.761719 120.496094 Z M 122.855469 85.109375 C 123.855469 85.109375 124.851562 85.15625 125.847656 85.253906 C 126.839844 85.351562 127.828125 85.5 128.808594 85.695312 C 129.789062 85.890625 130.753906 86.132812 131.710938 86.421875 C 132.667969 86.710938 133.609375 87.046875 134.53125 87.429688 C 135.453125 87.8125 136.355469 88.238281 137.238281 88.710938 C 138.117188 89.179688 138.972656 89.695312 139.804688 90.25 C 140.636719 90.804688 141.4375 91.398438 142.210938 92.03125 C 142.980469 92.667969 143.722656 93.335938 144.425781 94.042969 C 145.132812 94.75 145.804688 95.488281 146.4375 96.261719 C 147.070312 97.035156 147.667969 97.835938 148.222656 98.664062 C 148.777344 99.496094 149.289062 100.351562 149.761719 101.234375 C 150.230469 102.113281 150.65625 103.015625 151.039062 103.941406 C 151.421875 104.863281 151.757812 105.800781 152.046875 106.757812 C 152.339844 107.714844 152.582031 108.683594 152.777344 109.664062 C 152.972656 110.640625 153.117188 111.628906 153.214844 112.625 C 153.3125 113.617188 153.363281 114.613281 153.363281 115.613281 L 92.351562 115.613281 C 92.351562 114.613281 92.398438 113.617188 92.496094 112.625 C 92.59375 111.628906 92.742188 110.640625 92.9375 109.664062 C 93.132812 108.683594 93.375 107.714844 93.664062 106.757812 C 93.953125 105.800781 94.289062 104.863281 94.671875 103.941406 C 95.054688 103.015625 95.480469 102.113281 95.953125 101.234375 C 96.421875 100.351562 96.9375 99.496094 97.492188 98.664062 C 98.046875 97.835938 98.640625 97.035156 99.273438 96.261719 C 99.910156 95.488281 100.578125 94.75 101.285156 94.042969 C 101.992188 93.335938 102.730469 92.667969 103.503906 92.03125 C 104.277344 91.398438 105.078125 90.804688 105.910156 90.25 C 106.738281 89.695312 107.59375 89.179688 108.476562 88.710938 C 109.355469 88.238281 110.257812 87.8125 111.183594 87.429688 C 112.105469 87.046875 113.046875 86.710938 114 86.421875 C 114.957031 86.132812 115.925781 85.890625 116.90625 85.695312 C 117.886719 85.5 118.871094 85.351562 119.867188 85.253906 C 120.859375 85.15625 121.855469 85.109375 122.855469 85.109375 Z M 201.257812 299.867188 C 201.179688 300.816406 201.015625 301.75 200.765625 302.671875 C 200.515625 303.589844 200.179688 304.476562 199.761719 305.332031 C 199.347656 306.1875 198.851562 306.996094 198.285156 307.761719 C 197.714844 308.523438 197.082031 309.230469 196.378906 309.875 C 195.679688 310.519531 194.925781 311.09375 194.117188 311.597656 C 193.308594 312.097656 192.460938 312.523438 191.570312 312.867188 C 190.683594 313.210938 189.773438 313.472656 188.835938 313.644531 C 187.898438 313.820312 186.957031 313.90625 186.003906 313.902344 L 59.558594 313.902344 C 58.605469 313.90625 57.660156 313.820312 56.722656 313.644531 C 55.789062 313.472656 54.875 313.210938 53.988281 312.867188 C 53.101562 312.523438 52.253906 312.097656 51.445312 311.597656 C 50.636719 311.09375 49.882812 310.519531 49.179688 309.875 C 48.480469 309.230469 47.84375 308.523438 47.277344 307.761719 C 46.707031 306.996094 46.214844 306.1875 45.796875 305.332031 C 45.378906 304.476562 45.046875 303.589844 44.792969 302.671875 C 44.542969 301.75 44.378906 300.816406 44.304688 299.867188 L 32.558594 146.121094 L 61.84375 146.121094 L 61.84375 161.371094 C 61.84375 162.375 61.941406 163.367188 62.136719 164.347656 C 62.332031 165.332031 62.621094 166.285156 63.003906 167.210938 C 63.390625 168.132812 63.859375 169.015625 64.414062 169.847656 C 64.972656 170.679688 65.605469 171.449219 66.3125 172.15625 C 67.019531 172.867188 67.789062 173.5 68.625 174.054688 C 69.457031 174.609375 70.335938 175.082031 71.261719 175.464844 C 72.1875 175.847656 73.140625 176.136719 74.121094 176.332031 C 75.105469 176.527344 76.097656 176.625 77.097656 176.625 C 78.097656 176.625 79.089844 176.527344 80.074219 176.332031 C 81.054688 176.136719 82.007812 175.847656 82.933594 175.464844 C 83.859375 175.082031 84.738281 174.609375 85.570312 174.054688 C 86.40625 173.5 87.175781 172.867188 87.882812 172.15625 C 88.589844 171.449219 89.222656 170.679688 89.78125 169.847656 C 90.335938 169.015625 90.804688 168.132812 91.191406 167.210938 C 91.574219 166.285156 91.863281 165.332031 92.058594 164.347656 C 92.253906 163.367188 92.351562 162.375 92.351562 161.371094 L 92.351562 146.121094 L 153.363281 146.121094 L 153.363281 161.371094 C 153.363281 162.375 153.460938 163.367188 153.65625 164.347656 C 153.851562 165.332031 154.140625 166.285156 154.523438 167.210938 C 154.90625 168.132812 155.375 169.015625 155.933594 169.847656 C 156.488281 170.679688 157.121094 171.449219 157.828125 172.15625 C 158.539062 172.867188 159.308594 173.5 160.140625 174.054688 C 160.972656 174.609375 161.851562 175.082031 162.777344 175.464844 C 163.703125 175.847656 164.65625 176.136719 165.640625 176.332031 C 166.621094 176.527344 167.613281 176.625 168.613281 176.625 C 169.617188 176.625 170.609375 176.527344 171.589844 176.332031 C 172.574219 176.136719 173.527344 175.847656 174.453125 175.464844 C 175.378906 175.082031 176.257812 174.609375 177.089844 174.054688 C 177.921875 173.5 178.691406 172.867188 179.402344 172.15625 C 180.109375 171.449219 180.742188 170.679688 181.296875 169.847656 C 181.855469 169.015625 182.324219 168.132812 182.707031 167.210938 C 183.089844 166.285156 183.378906 165.332031 183.574219 164.347656 C 183.769531 163.367188 183.867188 162.375 183.867188 161.371094 L 183.867188 146.121094 L 213.152344 146.121094 Z M 201.257812 299.867188 " fill-opacity="1" fill-rule="nonzero"/></g></g><g transform="matrix(1, 0, 0, 1, 412, 69)"><g clip-path="url(#e3b389564b)"><g fill="#151f28" fill-opacity="1"><g transform="translate(0.76142, 122.703208)"><g><path d="M 82.109375 -121.53125 L 82.109375 -114.921875 L 41.3125 -114.921875 C 32.976562 -114.921875 26.523438 -113.328125 21.953125 -110.140625 C 17.390625 -106.960938 15.109375 -101.441406 15.109375 -93.578125 C 15.109375 -90.222656 15.6875 -87.300781 16.84375 -84.8125 C 18 -82.320312 19.5625 -80.148438 21.53125 -78.296875 C 23.5 -76.441406 25.84375 -74.820312 28.5625 -73.4375 C 31.28125 -72.050781 34.203125 -70.835938 37.328125 -69.796875 C 40.910156 -68.515625 44.695312 -67.351562 48.6875 -66.3125 C 52.6875 -65.269531 56.59375 -64.113281 60.40625 -62.84375 C 64.226562 -61.570312 67.875 -60.097656 71.34375 -58.421875 C 74.820312 -56.742188 77.863281 -54.660156 80.46875 -52.171875 C 83.070312 -49.679688 85.15625 -46.695312 86.71875 -43.21875 C 88.28125 -39.75 89.0625 -35.585938 89.0625 -30.734375 C 89.0625 -25.523438 88.160156 -20.976562 86.359375 -17.09375 C 84.566406 -13.21875 82.019531 -10.035156 78.71875 -7.546875 C 75.425781 -5.054688 71.492188 -3.175781 66.921875 -1.90625 C 62.347656 -0.632812 57.285156 0 51.734375 0 L 7.46875 0 L 7.46875 -6.59375 L 50.875 -6.59375 C 60.25 -6.59375 67.679688 -8.503906 73.171875 -12.328125 C 78.671875 -16.148438 81.421875 -21.9375 81.421875 -29.6875 C 81.421875 -35.238281 80.144531 -39.75 77.59375 -43.21875 C 75.050781 -46.695312 71.8125 -49.503906 67.875 -51.640625 C 63.945312 -53.785156 59.578125 -55.523438 54.765625 -56.859375 C 49.960938 -58.191406 45.25 -59.550781 40.625 -60.9375 C 36.226562 -62.207031 32.03125 -63.625 28.03125 -65.1875 C 24.039062 -66.75 20.507812 -68.800781 17.4375 -71.34375 C 14.375 -73.894531 11.945312 -76.992188 10.15625 -80.640625 C 8.363281 -84.285156 7.46875 -88.828125 7.46875 -94.265625 C 7.46875 -102.953125 10.332031 -109.664062 16.0625 -114.40625 C 21.789062 -119.15625 29.34375 -121.53125 38.71875 -121.53125 Z M 82.109375 -121.53125 "/></g></g></g><g fill="#151f28" fill-opacity="1"><g transform="translate(114.996564, 122.703208)"><g><path d="M 89.921875 -41.140625 C 89.921875 -35.359375 88.878906 -29.863281 86.796875 -24.65625 C 84.710938 -19.445312 81.789062 -14.898438 78.03125 -11.015625 C 74.269531 -7.140625 69.84375 -4.046875 64.75 -1.734375 C 59.664062 0.578125 54.171875 1.734375 48.265625 1.734375 C 42.359375 1.734375 36.859375 0.578125 31.765625 -1.734375 C 26.671875 -4.046875 22.269531 -7.140625 18.5625 -11.015625 C 14.863281 -14.898438 11.941406 -19.445312 9.796875 -24.65625 C 7.660156 -29.863281 6.59375 -35.359375 6.59375 -41.140625 C 6.59375 -46.929688 7.660156 -52.429688 9.796875 -57.640625 C 11.941406 -62.847656 14.863281 -67.390625 18.5625 -71.265625 C 22.269531 -75.140625 26.671875 -78.234375 31.765625 -80.546875 C 36.859375 -82.867188 42.359375 -84.03125 48.265625 -84.03125 C 54.171875 -84.03125 59.664062 -82.867188 64.75 -80.546875 C 69.84375 -78.234375 74.238281 -75.109375 77.9375 -71.171875 C 81.644531 -67.242188 84.566406 -62.675781 86.703125 -57.46875 C 88.847656 -52.257812 89.921875 -46.816406 89.921875 -41.140625 Z M 48.265625 -4.515625 C 53.128906 -4.515625 57.671875 -5.46875 61.890625 -7.375 C 66.117188 -9.289062 69.796875 -11.925781 72.921875 -15.28125 C 76.046875 -18.632812 78.503906 -22.507812 80.296875 -26.90625 C 82.085938 -31.300781 82.984375 -36.046875 82.984375 -41.140625 C 82.984375 -46.117188 82.085938 -50.804688 80.296875 -55.203125 C 78.503906 -59.609375 76.046875 -63.488281 72.921875 -66.84375 C 69.796875 -70.195312 66.085938 -72.859375 61.796875 -74.828125 C 57.515625 -76.796875 52.945312 -77.78125 48.09375 -77.78125 C 43.226562 -77.78125 38.679688 -76.765625 34.453125 -74.734375 C 30.234375 -72.710938 26.5625 -70.019531 23.4375 -66.65625 C 20.3125 -63.300781 17.878906 -59.425781 16.140625 -55.03125 C 14.410156 -50.632812 13.546875 -46.003906 13.546875 -41.140625 C 13.546875 -36.285156 14.410156 -31.65625 16.140625 -27.25 C 17.878906 -22.851562 20.3125 -18.945312 23.4375 -15.53125 C 26.5625 -12.125 30.234375 -9.4375 34.453125 -7.46875 C 38.679688 -5.5 43.285156 -4.515625 48.265625 -4.515625 Z M 48.265625 -4.515625 "/></g></g></g><g fill="#151f28" fill-opacity="1"><g transform="translate(229.231708, 122.703208)"><g><path d="M 10.421875 -82.296875 L 17.015625 -82.296875 L 17.015625 -32.46875 C 17.015625 -28.53125 17.675781 -24.851562 19 -21.4375 C 20.332031 -18.019531 22.15625 -15.066406 24.46875 -12.578125 C 26.789062 -10.097656 29.570312 -8.132812 32.8125 -6.6875 C 36.050781 -5.238281 39.582031 -4.515625 43.40625 -4.515625 C 47.101562 -4.515625 50.570312 -5.207031 53.8125 -6.59375 C 57.0625 -7.988281 59.867188 -9.957031 62.234375 -12.5 C 64.609375 -15.039062 66.460938 -17.988281 67.796875 -21.34375 C 69.128906 -24.707031 69.796875 -28.414062 69.796875 -32.46875 L 69.796875 -82.296875 L 76.390625 -82.296875 L 76.390625 -31.421875 C 76.390625 -26.796875 75.578125 -22.457031 73.953125 -18.40625 C 72.335938 -14.351562 70.050781 -10.847656 67.09375 -7.890625 C 64.144531 -4.941406 60.644531 -2.597656 56.59375 -0.859375 C 52.539062 0.867188 48.144531 1.734375 43.40625 1.734375 C 38.65625 1.734375 34.253906 0.867188 30.203125 -0.859375 C 26.148438 -2.597656 22.648438 -4.941406 19.703125 -7.890625 C 16.753906 -10.847656 14.46875 -14.351562 12.84375 -18.40625 C 11.226562 -22.457031 10.421875 -26.796875 10.421875 -31.421875 Z M 10.421875 -82.296875 "/></g></g></g><g fill="#151f28" fill-opacity="1"><g transform="translate(333.744769, 122.703208)"><g><path d="M 86.109375 39.234375 L 79.515625 39.234375 L 79.515625 -41.671875 C 79.515625 -46.296875 78.675781 -50.773438 77 -55.109375 C 75.320312 -59.453125 73.003906 -63.300781 70.046875 -66.65625 C 67.097656 -70.019531 63.566406 -72.710938 59.453125 -74.734375 C 55.347656 -76.765625 50.863281 -77.78125 46 -77.78125 C 41.601562 -77.78125 37.378906 -76.796875 33.328125 -74.828125 C 29.273438 -72.859375 25.742188 -70.222656 22.734375 -66.921875 C 19.734375 -63.628906 17.332031 -59.753906 15.53125 -55.296875 C 13.738281 -50.835938 12.84375 -46.117188 12.84375 -41.140625 C 12.84375 -36.046875 13.738281 -31.300781 15.53125 -26.90625 C 17.332031 -22.507812 19.734375 -18.632812 22.734375 -15.28125 C 25.742188 -11.925781 29.273438 -9.289062 33.328125 -7.375 C 37.378906 -5.46875 41.601562 -4.515625 46 -4.515625 C 51.5625 -4.515625 56.28125 -5.523438 60.15625 -7.546875 C 64.03125 -9.578125 67.878906 -12.5625 71.703125 -16.5 L 71.703125 -8.6875 C 67.304688 -4.976562 63.023438 -2.3125 58.859375 -0.6875 C 54.691406 0.925781 50.40625 1.734375 46 1.734375 C 40.21875 1.734375 34.894531 0.632812 30.03125 -1.5625 C 25.175781 -3.757812 20.953125 -6.765625 17.359375 -10.578125 C 13.773438 -14.398438 10.96875 -18.914062 8.9375 -24.125 C 6.914062 -29.332031 5.90625 -35.003906 5.90625 -41.140625 C 5.90625 -47.160156 6.914062 -52.800781 8.9375 -58.0625 C 10.96875 -63.332031 13.773438 -67.878906 17.359375 -71.703125 C 20.953125 -75.523438 25.175781 -78.535156 30.03125 -80.734375 C 34.894531 -82.929688 40.21875 -84.03125 46 -84.03125 C 51.789062 -84.03125 57.144531 -82.898438 62.0625 -80.640625 C 66.976562 -78.378906 71.203125 -75.335938 74.734375 -71.515625 C 78.265625 -67.703125 81.039062 -63.21875 83.0625 -58.0625 C 85.09375 -52.914062 86.109375 -47.507812 86.109375 -41.84375 Z M 86.109375 39.234375 "/></g></g></g></g></g><path stroke-linecap="butt" transform="matrix(0, 0.74858, -0.74858, 0, 308.000913, 54.605263)" fill="none" stroke-linejoin="miter" d="M 0.000274654 6.002169 L 405.132174 6.002169 " stroke="#ef6a01" stroke-width="12" stroke-opacity="1" stroke-miterlimit="4"/><g transform="matrix(1, 0, 0, 1, 412, 229)"><g clip-path="url(#bbbf4eab43)"><g fill="#1e1e1e" fill-opacity="1"><g transform="translate(1.226476, 81.946064)"><g><path d="M 39.015625 -56.109375 L 39.015625 -41.09375 L 24.359375 -41.09375 C 23.515625 -41.09375 22.707031 -40.84375 21.9375 -40.34375 C 21.164062 -39.84375 20.78125 -39.207031 20.78125 -38.4375 C 20.78125 -37.207031 23.085938 -35.671875 27.703125 -33.828125 C 32.316406 -31.972656 35.910156 -29.773438 38.484375 -27.234375 C 41.066406 -24.703125 42.359375 -21.507812 42.359375 -17.65625 C 42.359375 -11.8125 40.664062 -7.40625 37.28125 -4.4375 C 33.894531 -1.476562 29.316406 0 23.546875 0 L 2.421875 0 L 2.421875 -15.703125 L 20.4375 -15.703125 C 21.28125 -15.703125 21.988281 -15.910156 22.5625 -16.328125 C 23.144531 -16.753906 23.4375 -17.390625 23.4375 -18.234375 C 23.4375 -19.234375 22.859375 -20.003906 21.703125 -20.546875 C 20.546875 -21.085938 18.851562 -21.816406 16.625 -22.734375 C 14.46875 -23.660156 12.539062 -24.625 10.84375 -25.625 C 9.15625 -26.625 7.734375 -27.796875 6.578125 -29.140625 C 5.421875 -30.492188 4.535156 -32.054688 3.921875 -33.828125 C 3.304688 -35.597656 3 -37.710938 3 -40.171875 C 3 -42.628906 3.476562 -44.835938 4.4375 -46.796875 C 5.40625 -48.765625 6.710938 -50.441406 8.359375 -51.828125 C 10.015625 -53.210938 11.898438 -54.269531 14.015625 -55 C 16.140625 -55.738281 18.351562 -56.109375 20.65625 -56.109375 Z M 39.015625 -56.109375 "/></g></g></g><g fill="#1e1e1e" fill-opacity="1"><g transform="translate(40.355324, 81.946064)"><g><path d="M 22.515625 -80.8125 L 22.515625 -54.484375 C 24.203125 -55.328125 25.875 -56.035156 27.53125 -56.609375 C 29.1875 -57.191406 31.09375 -57.484375 33.25 -57.484375 C 36.476562 -57.484375 39.363281 -56.90625 41.90625 -55.75 C 44.445312 -54.601562 46.582031 -53.046875 48.3125 -51.078125 C 50.039062 -49.117188 51.363281 -46.847656 52.28125 -44.265625 C 53.207031 -41.691406 53.671875 -38.976562 53.671875 -36.125 L 53.671875 0 L 35.203125 0 L 35.203125 -32.90625 C 35.203125 -35.132812 34.601562 -36.820312 33.40625 -37.96875 C 32.21875 -39.125 30.703125 -39.703125 28.859375 -39.703125 C 27.015625 -39.703125 25.492188 -39.125 24.296875 -37.96875 C 23.109375 -36.820312 22.515625 -35.132812 22.515625 -32.90625 L 22.515625 0 L 4.046875 0 L 4.046875 -80.8125 Z M 22.515625 -80.8125 "/></g></g></g><g fill="#1e1e1e" fill-opacity="1"><g transform="translate(92.296471, 81.946064)"><g><path d="M 65.796875 0 L 47.328125 0 L 47.328125 -26.3125 C 47.328125 -30.9375 46.25 -34.476562 44.09375 -36.9375 C 41.9375 -39.40625 38.664062 -40.640625 34.28125 -40.640625 C 32.59375 -40.640625 30.976562 -40.3125 29.4375 -39.65625 C 27.894531 -39 26.546875 -38.128906 25.390625 -37.046875 C 24.242188 -35.972656 23.320312 -34.6875 22.625 -33.1875 C 21.9375 -31.6875 21.59375 -30.085938 21.59375 -28.390625 C 21.59375 -24.472656 22.765625 -21.335938 25.109375 -18.984375 C 27.453125 -16.640625 30.394531 -15.46875 33.9375 -15.46875 C 35.632812 -15.46875 37.210938 -15.617188 38.671875 -15.921875 C 40.128906 -16.234375 41.476562 -16.617188 42.71875 -17.078125 L 42.71875 -1.84375 C 40.945312 -0.613281 39.054688 0.226562 37.046875 0.6875 C 35.046875 1.15625 32.78125 1.390625 30.25 1.390625 C 26.78125 1.390625 23.410156 0.675781 20.140625 -0.75 C 16.867188 -2.175781 13.984375 -4.175781 11.484375 -6.75 C 8.984375 -9.332031 6.960938 -12.410156 5.421875 -15.984375 C 3.878906 -19.566406 3.109375 -23.550781 3.109375 -27.9375 C 3.109375 -32.09375 3.878906 -35.957031 5.421875 -39.53125 C 6.960938 -43.113281 9.078125 -46.234375 11.765625 -48.890625 C 14.460938 -51.546875 17.695312 -53.640625 21.46875 -55.171875 C 25.238281 -56.710938 29.394531 -57.484375 33.9375 -57.484375 C 38.789062 -57.484375 43.175781 -56.8125 47.09375 -55.46875 C 51.019531 -54.125 54.367188 -52.257812 57.140625 -49.875 C 59.910156 -47.488281 62.046875 -44.660156 63.546875 -41.390625 C 65.046875 -38.117188 65.796875 -34.554688 65.796875 -30.703125 Z M 65.796875 0 "/></g></g></g><g fill="#1e1e1e" fill-opacity="1"><g transform="translate(157.0499, 81.946064)"><g><path d="M 44.90625 -49.640625 C 46.90625 -51.867188 49.328125 -53.734375 52.171875 -55.234375 C 55.023438 -56.734375 57.910156 -57.484375 60.828125 -57.484375 C 64.140625 -57.484375 67.238281 -56.925781 70.125 -55.8125 C 73.007812 -54.695312 75.507812 -53.175781 77.625 -51.25 C 79.75 -49.332031 81.40625 -47.117188 82.59375 -44.609375 C 83.789062 -42.109375 84.390625 -39.4375 84.390625 -36.59375 L 84.390625 0 L 65.921875 0 L 65.921875 -33.484375 C 65.921875 -35.097656 65.492188 -36.535156 64.640625 -37.796875 C 63.796875 -39.066406 62.257812 -39.703125 60.03125 -39.703125 C 57.800781 -39.703125 56.257812 -39.066406 55.40625 -37.796875 C 54.5625 -36.535156 54.140625 -35.097656 54.140625 -33.484375 L 54.140625 0 L 35.671875 0 L 35.671875 -33.484375 C 35.671875 -35.097656 35.242188 -36.535156 34.390625 -37.796875 C 33.546875 -39.066406 32.007812 -39.703125 29.78125 -39.703125 C 27.550781 -39.703125 26.007812 -39.066406 25.15625 -37.796875 C 24.3125 -36.535156 23.890625 -35.097656 23.890625 -33.484375 L 23.890625 0 L 5.421875 0 L 5.421875 -36.59375 C 5.421875 -39.4375 6.015625 -42.109375 7.203125 -44.609375 C 8.398438 -47.117188 10.035156 -49.332031 12.109375 -51.25 C 14.191406 -53.175781 16.675781 -54.695312 19.5625 -55.8125 C 22.445312 -56.925781 25.582031 -57.484375 28.96875 -57.484375 C 31.894531 -57.484375 34.78125 -56.734375 37.625 -55.234375 C 40.476562 -53.734375 42.90625 -51.867188 44.90625 -49.640625 Z M 44.90625 -49.640625 "/></g></g></g><g fill="#ef6a01" fill-opacity="1"><g transform="translate(241.084336, 81.946064)"><g><path d="M 65.796875 0 L 47.328125 0 L 47.328125 -26.3125 C 47.328125 -30.9375 46.25 -34.476562 44.09375 -36.9375 C 41.9375 -39.40625 38.664062 -40.640625 34.28125 -40.640625 C 32.59375 -40.640625 30.976562 -40.3125 29.4375 -39.65625 C 27.894531 -39 26.546875 -38.128906 25.390625 -37.046875 C 24.242188 -35.972656 23.320312 -34.6875 22.625 -33.1875 C 21.9375 -31.6875 21.59375 -30.085938 21.59375 -28.390625 C 21.59375 -24.472656 22.765625 -21.335938 25.109375 -18.984375 C 27.453125 -16.640625 30.394531 -15.46875 33.9375 -15.46875 C 35.632812 -15.46875 37.210938 -15.617188 38.671875 -15.921875 C 40.128906 -16.234375 41.476562 -16.617188 42.71875 -17.078125 L 42.71875 -1.84375 C 40.945312 -0.613281 39.054688 0.226562 37.046875 0.6875 C 35.046875 1.15625 32.78125 1.390625 30.25 1.390625 C 26.78125 1.390625 23.410156 0.675781 20.140625 -0.75 C 16.867188 -2.175781 13.984375 -4.175781 11.484375 -6.75 C 8.984375 -9.332031 6.960938 -12.410156 5.421875 -15.984375 C 3.878906 -19.566406 3.109375 -23.550781 3.109375 -27.9375 C 3.109375 -32.09375 3.878906 -35.957031 5.421875 -39.53125 C 6.960938 -43.113281 9.078125 -46.234375 11.765625 -48.890625 C 14.460938 -51.546875 17.695312 -53.640625 21.46875 -55.171875 C 25.238281 -56.710938 29.394531 -57.484375 33.9375 -57.484375 C 38.789062 -57.484375 43.175781 -56.8125 47.09375 -55.46875 C 51.019531 -54.125 54.367188 -52.257812 57.140625 -49.875 C 59.910156 -47.488281 62.046875 -44.660156 63.546875 -41.390625 C 65.046875 -38.117188 65.796875 -34.554688 65.796875 -30.703125 Z M 65.796875 0 "/></g></g></g><g fill="#ef6a01" fill-opacity="1"><g transform="translate(305.837765, 81.946064)"><g><path d="M 67.421875 -27.9375 C 67.421875 -23.550781 66.628906 -19.546875 65.046875 -15.921875 C 63.472656 -12.304688 61.316406 -9.226562 58.578125 -6.6875 C 55.847656 -4.15625 52.675781 -2.175781 49.0625 -0.75 C 45.445312 0.675781 41.597656 1.390625 37.515625 1.390625 C 35.359375 1.390625 33.546875 1.253906 32.078125 0.984375 C 30.617188 0.710938 29.429688 0.382812 28.515625 0 L 28.515625 -17.078125 C 28.972656 -16.773438 29.835938 -16.429688 31.109375 -16.046875 C 32.378906 -15.660156 34.050781 -15.46875 36.125 -15.46875 C 37.976562 -15.46875 39.691406 -15.773438 41.265625 -16.390625 C 42.847656 -17.003906 44.195312 -17.867188 45.3125 -18.984375 C 46.425781 -20.097656 47.3125 -21.425781 47.96875 -22.96875 C 48.625 -24.507812 48.953125 -26.203125 48.953125 -28.046875 C 48.953125 -31.742188 47.753906 -34.765625 45.359375 -37.109375 C 42.972656 -39.460938 39.9375 -40.640625 36.25 -40.640625 C 34.019531 -40.640625 32.09375 -40.253906 30.46875 -39.484375 C 28.851562 -38.710938 27.503906 -37.671875 26.421875 -36.359375 C 25.347656 -35.054688 24.539062 -33.519531 24 -31.75 C 23.46875 -29.976562 23.203125 -28.128906 23.203125 -26.203125 L 23.203125 24.234375 L 4.734375 24.234375 L 4.734375 -30.703125 C 4.734375 -34.703125 5.539062 -38.335938 7.15625 -41.609375 C 8.769531 -44.878906 11.019531 -47.6875 13.90625 -50.03125 C 16.789062 -52.382812 20.15625 -54.210938 24 -55.515625 C 27.851562 -56.828125 32.050781 -57.484375 36.59375 -57.484375 C 41.0625 -57.484375 45.195312 -56.710938 49 -55.171875 C 52.8125 -53.640625 56.0625 -51.546875 58.75 -48.890625 C 61.445312 -46.234375 63.566406 -43.113281 65.109375 -39.53125 C 66.648438 -35.957031 67.421875 -32.09375 67.421875 -27.9375 Z M 67.421875 -27.9375 "/></g></g></g><g fill="#ef6a01" fill-opacity="1"><g transform="translate(370.591195, 81.946064)"><g><path d="M 67.421875 -27.9375 C 67.421875 -23.550781 66.628906 -19.546875 65.046875 -15.921875 C 63.472656 -12.304688 61.316406 -9.226562 58.578125 -6.6875 C 55.847656 -4.15625 52.675781 -2.175781 49.0625 -0.75 C 45.445312 0.675781 41.597656 1.390625 37.515625 1.390625 C 35.359375 1.390625 33.546875 1.253906 32.078125 0.984375 C 30.617188 0.710938 29.429688 0.382812 28.515625 0 L 28.515625 -17.078125 C 28.972656 -16.773438 29.835938 -16.429688 31.109375 -16.046875 C 32.378906 -15.660156 34.050781 -15.46875 36.125 -15.46875 C 37.976562 -15.46875 39.691406 -15.773438 41.265625 -16.390625 C 42.847656 -17.003906 44.195312 -17.867188 45.3125 -18.984375 C 46.425781 -20.097656 47.3125 -21.425781 47.96875 -22.96875 C 48.625 -24.507812 48.953125 -26.203125 48.953125 -28.046875 C 48.953125 -31.742188 47.753906 -34.765625 45.359375 -37.109375 C 42.972656 -39.460938 39.9375 -40.640625 36.25 -40.640625 C 34.019531 -40.640625 32.09375 -40.253906 30.46875 -39.484375 C 28.851562 -38.710938 27.503906 -37.671875 26.421875 -36.359375 C 25.347656 -35.054688 24.539062 -33.519531 24 -31.75 C 23.46875 -29.976562 23.203125 -28.128906 23.203125 -26.203125 L 23.203125 24.234375 L 4.734375 24.234375 L 4.734375 -30.703125 C 4.734375 -34.703125 5.539062 -38.335938 7.15625 -41.609375 C 8.769531 -44.878906 11.019531 -47.6875 13.90625 -50.03125 C 16.789062 -52.382812 20.15625 -54.210938 24 -55.515625 C 27.851562 -56.828125 32.050781 -57.484375 36.59375 -57.484375 C 41.0625 -57.484375 45.195312 -56.710938 49 -55.171875 C 52.8125 -53.640625 56.0625 -51.546875 58.75 -48.890625 C 61.445312 -46.234375 63.566406 -43.113281 65.109375 -39.53125 C 66.648438 -35.957031 67.421875 -32.09375 67.421875 -27.9375 Z M 67.421875 -27.9375 "/></g></g></g></g></g><g transform="matrix(1, 0, 0, 1, 84, 179)"><g clip-path="url(#4536baf4b1)"><g clip-path="url(#9f9e3ed866)"><g fill="#000000" fill-opacity="1"><g transform="translate(0.968075, 102.713718)"><g><path d="M 69.171875 -102.375 L 69.171875 -96.8125 L 34.8125 -96.8125 C 27.789062 -96.8125 22.351562 -95.472656 18.5 -92.796875 C 14.644531 -90.117188 12.71875 -85.460938 12.71875 -78.828125 C 12.71875 -76.003906 13.207031 -73.539062 14.1875 -71.4375 C 15.164062 -69.34375 16.484375 -67.515625 18.140625 -65.953125 C 19.796875 -64.398438 21.769531 -63.035156 24.0625 -61.859375 C 26.351562 -60.691406 28.8125 -59.671875 31.4375 -58.796875 C 34.46875 -57.722656 37.660156 -56.742188 41.015625 -55.859375 C 44.378906 -54.984375 47.671875 -54.007812 50.890625 -52.9375 C 54.109375 -51.863281 57.179688 -50.617188 60.109375 -49.203125 C 63.035156 -47.796875 65.59375 -46.039062 67.78125 -43.9375 C 69.976562 -41.84375 71.734375 -39.332031 73.046875 -36.40625 C 74.367188 -33.488281 75.03125 -29.984375 75.03125 -25.890625 C 75.03125 -21.503906 74.273438 -17.675781 72.765625 -14.40625 C 71.253906 -11.132812 69.109375 -8.453125 66.328125 -6.359375 C 63.546875 -4.265625 60.226562 -2.679688 56.375 -1.609375 C 52.53125 -0.535156 48.265625 0 43.578125 0 L 6.28125 0 L 6.28125 -5.5625 L 42.84375 -5.5625 C 50.75 -5.5625 57.015625 -7.164062 61.640625 -10.375 C 66.273438 -13.59375 68.59375 -18.472656 68.59375 -25.015625 C 68.59375 -29.691406 67.519531 -33.488281 65.375 -36.40625 C 63.226562 -39.332031 60.5 -41.695312 57.1875 -43.5 C 53.875 -45.3125 50.191406 -46.773438 46.140625 -47.890625 C 42.097656 -49.015625 38.125 -50.160156 34.21875 -51.328125 C 30.519531 -52.398438 26.988281 -53.59375 23.625 -54.90625 C 20.257812 -56.226562 17.285156 -57.960938 14.703125 -60.109375 C 12.117188 -62.253906 10.066406 -64.863281 8.546875 -67.9375 C 7.035156 -71.007812 6.28125 -74.832031 6.28125 -79.40625 C 6.28125 -86.71875 8.691406 -92.375 13.515625 -96.375 C 18.347656 -100.375 24.710938 -102.375 32.609375 -102.375 Z M 69.171875 -102.375 "/></g></g></g></g></g></g></svg>