<?xml version="1.0" encoding="utf-8"?>
<!-- Generator: Adobe Illustrator 25.2.1, SVG Export Plug-In . SVG Version: 6.00 Build 0)  -->
<svg version="1.2" baseProfile="tiny" id="Livello_1"
	 xmlns="http://www.w3.org/2000/svg" xmlns:xlink="http://www.w3.org/1999/xlink" x="0px" y="0px" width="60px" height="60px"
	 viewBox="0 0 60 60" overflow="visible" xml:space="preserve">
<path fill="#FFFFFF" d="M30,0C13.4,0,0,13.4,0,30s13.4,30,30,30s30-13.4,30-30S46.6,0,30,0z M19.5,33.6c0,1-0.8,1.8-1.8,1.8
	c-1,0-1.8-0.8-1.8-1.8V28c0-2-1.7-3.7-3.8-3.7c-2,0-3.7,1.6-3.7,3.7s1.7,3.8,3.7,3.7c0.4,0,0.9-0.1,1.3-0.2c0.9-0.4,2,0.1,2.4,1
	s-0.1,2-1,2.4c-0.8,0.3-1.6,0.5-2.5,0.5c-4.1,0-7.4-3.4-7.4-7.4s3.2-7.4,7.3-7.4s7.4,3.3,7.4,7.4V33.6z M28,35.4
	c-0.9,0-1.8-0.2-2.6-0.5c-0.9-0.4-1.4-1.4-1-2.3s1.4-1.4,2.3-1l0,0c0.4,0.2,0.8,0.2,1.3,0.2c2.1,0,3.8-1.7,3.7-3.7
	c0-2-1.6-3.7-3.7-3.7c-2,0-3.8,1.6-3.8,3.7l0,0v12.1c0,1-0.8,1.8-1.8,1.8c-1,0-1.8-0.8-1.8-1.8V28.1c0-4.1,3.3-7.4,7.4-7.4
	s7.4,3.3,7.3,7.3C35.4,32.1,32.1,35.4,28,35.4z M44,35.4c-0.9,0-1.8-0.2-2.6-0.5c-0.9-0.4-1.4-1.4-1-2.3s1.4-1.4,2.3-1l0,0
	c0.4,0.2,0.8,0.2,1.3,0.2c2.1,0,3.8-1.7,3.7-3.7c0-2-1.6-3.7-3.7-3.7c-2,0-3.8,1.6-3.8,3.7l0,0v12.1c0,1-0.8,1.8-1.8,1.8
	c-1,0-1.8-0.8-1.8-1.8V28.1c0-4.1,3.3-7.4,7.4-7.4c4.1,0,7.4,3.3,7.3,7.3C51.4,32.1,48.1,35.4,44,35.4z M56.2,35.4h-1.5v1.5
	c0,0.3-0.1,0.5-0.3,0.6c-0.2,0.2-0.4,0.3-0.6,0.3c-0.2,0-0.5-0.1-0.6-0.3c-0.2-0.2-0.3-0.4-0.3-0.6v-1.5h-1.5
	c-0.3,0-0.5-0.1-0.6-0.3c-0.2-0.2-0.3-0.4-0.3-0.6c0-0.2,0.1-0.5,0.3-0.6c0.2-0.2,0.4-0.3,0.6-0.3h1.5V32c0-0.3,0.1-0.5,0.3-0.6
	c0.2-0.2,0.4-0.3,0.6-0.3c0.2,0,0.5,0.1,0.6,0.3c0.2,0.2,0.3,0.4,0.3,0.6v1.5h1.5c0.3,0,0.5,0.1,0.6,0.3c0.2,0.2,0.3,0.4,0.3,0.6
	c0,0.2-0.1,0.5-0.3,0.6C56.7,35.3,56.5,35.4,56.2,35.4z"/>
</svg>
