<svg xmlns="http://www.w3.org/2000/svg" viewBox="0 0 386.4 95.29"><defs><style>.cls-1{fill:#4832d0;}.cls-2{fill:#fff;}</style></defs><g id="Layer_2" data-name="Layer 2"><g id="Layer_1-2" data-name="Layer 1"><path class="cls-1" d="M20,0H366.4a20,20,0,0,1,20,20V74.8a19.87,19.87,0,0,1-4.46,12.58.76.76,0,0,1-.11.14,19.94,19.94,0,0,1-16.07,7.77l-37.55-.49H20a20,20,0,0,1-20-20V20A20,20,0,0,1,20,0ZM1,74.8a19,19,0,0,0,19,19H279.17L280.39,1H20A19,19,0,0,0,1,20Z"/><path class="cls-1" d="M37.83,41.26H29.46l-6.3-21.93h6.25l4.17,16.58h.17l3.86-16.58H45l4.12,16.58h.18l4.12-16.58h6L53.16,41.26H45l-3.59-15h-.18Z"/><path class="cls-1" d="M67,41.76A6.49,6.49,0,0,1,60.21,35q0-6.85,10.59-7.28l3.63-.13V27q0-3-3.9-3a15.87,15.87,0,0,0-6.47,1.93l-1.68-4.92a21.76,21.76,0,0,1,8.95-2.11q4.69,0,7.29,2.19a7.65,7.65,0,0,1,2.59,6.19V41.26H74.88l-.23-4.51h-.17L72.4,40.16A10.88,10.88,0,0,1,67,41.76Zm2.66-5a9.33,9.33,0,0,0,4.78-1.56V31.58l-3.32.17q-4,.16-4,2.81a1.94,1.94,0,0,0,.67,1.58A2.76,2.76,0,0,0,69.65,36.71Z"/><path class="cls-1" d="M94.55,41.8a15.27,15.27,0,0,1-10.06-3.57l3.06-4q3.95,2.82,7,2.82a4.92,4.92,0,0,0,2.59-.59,1.77,1.77,0,0,0,1-1.56,1.61,1.61,0,0,0-.65-1.39,6.11,6.11,0,0,0-2.1-.8L91.85,32A10,10,0,0,1,87,29.58a5.54,5.54,0,0,1-1.7-4.11,5.62,5.62,0,0,1,2.61-4.86A12.4,12.4,0,0,1,95,18.82a13.52,13.52,0,0,1,9.13,3.2l-2.92,4h0a9.06,9.06,0,0,0-5.85-2.44c-2.25,0-3.37.59-3.37,1.77,0,.87.68,1.44,2,1.72l3.32.76A13.18,13.18,0,0,1,103,30.21a5.22,5.22,0,0,1,1.75,4.14,6.46,6.46,0,0,1-2.64,5.5Q99.51,41.8,94.55,41.8Z"/><path class="cls-1" d="M115.87,41.26h-6.74V9.86h6.74Z"/><path class="cls-1" d="M126.77,41.76A6.49,6.49,0,0,1,120,35q0-6.85,10.59-7.28l3.63-.13V27q0-3-3.9-3a15.87,15.87,0,0,0-6.47,1.93l-1.68-4.92a21.72,21.72,0,0,1,9-2.11q4.69,0,7.29,2.19A7.65,7.65,0,0,1,141,27.2V41.26h-6.34l-.22-4.51h-.17l-2.09,3.41A10.81,10.81,0,0,1,126.77,41.76Zm2.66-5a9.33,9.33,0,0,0,4.78-1.56V31.58l-3.32.17q-4,.16-4,2.81a1.94,1.94,0,0,0,.67,1.58A2.76,2.76,0,0,0,129.43,36.71Z"/><path class="cls-1" d="M165.36,41.8a15.27,15.27,0,0,1-10.06-3.57l3.06-4c2.63,1.88,5,2.82,7,2.82a5,5,0,0,0,2.6-.59,1.78,1.78,0,0,0,.95-1.56,1.63,1.63,0,0,0-.64-1.39,6.18,6.18,0,0,0-2.11-.8l-3.5-.75a10,10,0,0,1-4.9-2.38,5.54,5.54,0,0,1-1.7-4.11,5.62,5.62,0,0,1,2.61-4.86,12.42,12.42,0,0,1,7.09-1.79,13.52,13.52,0,0,1,9.13,3.2L172,26h0a9,9,0,0,0-5.85-2.44c-2.25,0-3.37.59-3.37,1.77,0,.87.68,1.44,2,1.72l3.32.76a13.18,13.18,0,0,1,5.74,2.42,5.22,5.22,0,0,1,1.75,4.14,6.46,6.46,0,0,1-2.64,5.5C171.21,41.15,168.67,41.8,165.36,41.8Z"/><path class="cls-1" d="M192.44,36.21v5h-4.12a8.71,8.71,0,0,1-5.43-1.67,5,5,0,0,1-2.19-4.18V25.73a1.36,1.36,0,0,0-1.36-1.35h0A1.35,1.35,0,0,1,178,23v-3.7h5.5v-.21l-2.79-2.44V13.1h6.78v6.23h4.74v5.05h-4.74V35.07a1.84,1.84,0,0,0,.15.93.77.77,0,0,0,.64.21Z"/><path class="cls-1" d="M214.51,38.79q-2.92,3-8.33,3t-8.31-3A10.48,10.48,0,0,1,195,31.11V29.47a10.51,10.51,0,0,1,2.91-7.68q2.9-3,8.31-3t8.33,3a10.48,10.48,0,0,1,2.92,7.68v1.64A10.44,10.44,0,0,1,214.51,38.79Zm-8.33-2.08q4.24,0,4.25-5.64V29.56q0-5.68-4.25-5.69t-4.26,5.69v1.51Q201.92,36.71,206.18,36.71Z"/><path class="cls-1" d="M228.73,41.26H222V19.33h6.34l.22,4.54h.18l3-4.16a12.53,12.53,0,0,1,4.52-.89h1.06v5.6h-1.77q-4.78,0-6.74,1.56Z"/><path class="cls-1" d="M250.53,41.8c-3.51,0-6.27-.91-8.26-2.75a9.64,9.64,0,0,1-3-7.43V29.47a10.26,10.26,0,0,1,3-7.72,11.15,11.15,0,0,1,8.11-2.93,11.3,11.3,0,0,1,4.94,1,7.51,7.51,0,0,1,3.19,2.76,11.68,11.68,0,0,1,1.6,4,20.51,20.51,0,0,1,.37,4.9H246.23v.38a4.86,4.86,0,0,0,1.31,3.66,4.92,4.92,0,0,0,3.57,1.26,7.6,7.6,0,0,0,5.41-2.44h0l3.19,3.88A13.48,13.48,0,0,1,250.53,41.8Zm-4.16-14.18h7.89c-.3-2.72-1.55-4.08-3.77-4.08C248.1,23.54,246.72,24.9,246.37,27.62Z"/><path class="cls-1" d="M36.8,47.56l-2.61,2.6-2.6-2.6-3.12,3.16,3.12,3.16,2.6-2.64,2.61,2.64L40,50.72Z"/><path class="cls-1" d="M118.13,62.28a8.38,8.38,0,0,0-6-2.19q-8.17,0-13.75,11.75a3.35,3.35,0,0,1-1.88-.61,2.18,2.18,0,0,1-.57-1.69V66.89H91.5V71.2a13.49,13.49,0,0,1-4.65.71H55.05a7,7,0,0,1-3.32-.54c-.59-.35-.88-1.21-.88-2.54V49.9h-4.5V69.68s0,.64.11,1.75a9.13,9.13,0,0,1-3.23.48h0a7.78,7.78,0,0,1-3.22-.5,2.29,2.29,0,0,1-1-2.25v-12H34.79V60l-5.72,2.2a9.35,9.35,0,0,0-4.63,3.34A8.06,8.06,0,0,0,23,70.16a6.52,6.52,0,0,0,1.72,4.65,6,6,0,0,0,4.57,1.82,9,9,0,0,0,4.57-1.11L35,72.18a7,7,0,0,0,2.27,4.19,6.59,6.59,0,0,0,4.35,1.46,6.06,6.06,0,0,0,4.65-1.72l.59-3a6.53,6.53,0,0,0,2.55,3.59,7.15,7.15,0,0,0,4,1.18h31.8a8.57,8.57,0,0,0,5.54-1.72l.92-3.53a5.77,5.77,0,0,0,2.83,4,11.13,11.13,0,0,0,5.58,1.28H107q13.47,0,13.46-9.3A8.15,8.15,0,0,0,118.13,62.28ZM34.79,70.46a15.57,15.57,0,0,1-4.76.85,4.65,4.65,0,0,1-2.41-.54,1.67,1.67,0,0,1-.94-1.53c0-1.17,1.19-2.14,3.54-2.91l4.57-1.52Zm79.63.73a23.85,23.85,0,0,1-6.93.72h-5.1q3.54-6.61,9-6.62a5.85,5.85,0,0,1,3.85,1.12,3.18,3.18,0,0,1,1.36,2.49C116.56,69.94,115.84,70.7,114.42,71.19Z"/><path class="cls-1" d="M125.14,86.37h-1.85V81.13h1.45a15.91,15.91,0,0,0,5.31-.78,7.25,7.25,0,0,0,3.27-2.1,8.39,8.39,0,0,0,1.53-2.7,9.32,9.32,0,0,0,.44-2.93,10.84,10.84,0,0,0-.11-1.64l-1.56,3.83a9.11,9.11,0,0,1-4.39,1.34,5.87,5.87,0,0,1-4.57-1.93,7.84,7.84,0,0,1-1.75-5.43,8.85,8.85,0,0,1,2.16-6.27,7.2,7.2,0,0,1,5.5-2.32,7.33,7.33,0,0,1,6.27,3.24,14.45,14.45,0,0,1,2.32,8.62,21.42,21.42,0,0,1-.33,3.83,16.22,16.22,0,0,1-1.27,3.81,11,11,0,0,1-2.43,3.4,11.79,11.79,0,0,1-4.07,2.34A17.31,17.31,0,0,1,125.14,86.37Zm5.13-15.57a32.68,32.68,0,0,0,4.8-.38,6.54,6.54,0,0,0-2-3.58,4.8,4.8,0,0,0-3.27-1.29,3.76,3.76,0,0,0-2.38.75,2.33,2.33,0,0,0-1,1.93,2.14,2.14,0,0,0,1.06,1.9A5.11,5.11,0,0,0,130.27,70.8Z"/><path class="cls-1" d="M258.54,62.91a6.86,6.86,0,0,0-5.22-2.29,7.2,7.2,0,0,0-4.57,1.64,11.07,11.07,0,0,0-3.31,4.46l-.82,1.83a5,5,0,0,1-1.38,2,2.83,2.83,0,0,1-1.75.51h0a6,6,0,0,1-3-.57c-.62-.38-.92-1.22-.92-2.51V63.71h-4.46v5c0,.39,0,1,.07,1.71a14.18,14.18,0,0,1-4.72.7h0a16.59,16.59,0,0,1-4.61-.44,2.18,2.18,0,0,1-1.56-2h3.12V64.38h-1.48a12.06,12.06,0,0,1-4.37-.84,18.22,18.22,0,0,1-3.65-1.84,18.85,18.85,0,0,0-3.42-1.84,9.37,9.37,0,0,0-3.73-.84q-4.8,0-6.84,5.47l3.42,2a3.75,3.75,0,0,1,3.31-2.23,5.22,5.22,0,0,1,1.11.11,7.82,7.82,0,0,1,1.28.39,12,12,0,0,1,1.21.51l1.43.66,1.4.67-.78.45a58.06,58.06,0,0,1-6.38,3,15.66,15.66,0,0,1-5.63,1h-33a3.94,3.94,0,0,1-3-1,9,9,0,0,1-1.71-3.87l-.75-2.82-4.23,1.08q2.19,7.7,2.19,10.45a7.64,7.64,0,0,1-.3,2.24,5.5,5.5,0,0,1-1,1.92,4.75,4.75,0,0,1-2.23,1.43,11.3,11.3,0,0,1-3.64.5q-1.08,0-1.53,0v5c1,.1,1.85.15,2.42.15a12.19,12.19,0,0,0,4.63-.82,7.38,7.38,0,0,0,3.12-2.27A10.41,10.41,0,0,0,164.89,80a15.7,15.7,0,0,0,.73-3.74A3.52,3.52,0,0,0,168,77h32.6a17,17,0,0,0,4.66-.63A16.2,16.2,0,0,0,209,74.77c1.08-.65,2.11-1.33,3.06-2s2-1.38,3.1-2.06a13.82,13.82,0,0,1,3.28-1.51,7.62,7.62,0,0,0,1.65,5.64Q222,77,226.37,77h.4a8.53,8.53,0,0,0,5.54-1.71l1-3.79q1,5.51,6.5,5.5h0a5.82,5.82,0,0,0,5.43-2.94l.07-.15A11.19,11.19,0,0,0,252.91,77a7.66,7.66,0,0,0,5.59-2.14A7.88,7.88,0,0,0,260.68,69,8.51,8.51,0,0,0,258.54,62.91ZM255.75,71a5.51,5.51,0,0,1-2.88.64,10.65,10.65,0,0,1-5.06-1.45l.3-.63a6,6,0,0,1,2-2.77,4.69,4.69,0,0,1,2.9-1,4.08,4.08,0,0,1,2.71.94,2.86,2.86,0,0,1,1.12,2.3A2.15,2.15,0,0,1,255.75,71Z"/><path class="cls-1" d="M214,79.92l-3.49,3.49L214,87l3.5-3.54Z"/><path class="cls-1" d="M237.63,54.19l-2.6,2.6-2.61-2.6-3.12,3.16,3.12,3.16L235,57.87l2.6,2.64,3.16-3.16Z"/><path class="cls-2" d="M345.54,49.37a1.16,1.16,0,0,0-1.4-1.25c-1.7.38-3.37.78-5.07,1-6.79.85-13.31,0-19.23-3.66a17.09,17.09,0,0,1-8.27-11.08,13.44,13.44,0,0,1,10.28-16c6.3-1.54,12.19-.23,17.71,2.95A30.51,30.51,0,0,1,350.82,33l.32.56c0,.05.07.09.17.22a15.32,15.32,0,0,0,4.17-8.36,1.15,1.15,0,0,1,1.14-1h6.72a1.16,1.16,0,0,1,1.15,1.28c-.07.66-.14,1.32-.27,2a24.63,24.63,0,0,1-9.1,14.9,1,1,0,0,0-.51,1.07A27.57,27.57,0,0,1,339.7,71.82a27.11,27.11,0,0,1-38.91-20.34,26.5,26.5,0,0,1,.81-11.29,1.15,1.15,0,0,1,1.47-.77l6.34,2.11a1.16,1.16,0,0,1,.76,1.38,17.55,17.55,0,0,0,4.05,16.78,17.18,17.18,0,0,0,13.14,5.92A18,18,0,0,0,345.54,49.37Zm-2-10.62a1.41,1.41,0,0,0-.05-.29A21.35,21.35,0,0,0,333.3,28.3a13.73,13.73,0,0,0-9.23-1.16c-3.52.9-4.8,4.06-2.93,7.19a10.78,10.78,0,0,0,5,4.33,21.51,21.51,0,0,0,10.63,1.61A22.87,22.87,0,0,0,343.54,38.75Z"/></g></g></svg>