<svg xmlns="http://www.w3.org/2000/svg" viewBox="0 0 386.4 95.29"><defs><style>.cls-1{fill:#4832d0;}.cls-2{fill:#fff;}</style></defs><g id="Layer_2" data-name="Layer 2"><g id="Layer_1-2" data-name="Layer 1"><path class="cls-1" d="M366.4,0H20A20,20,0,0,0,0,20V74.8A19.87,19.87,0,0,0,4.46,87.38a.76.76,0,0,0,.11.14,19.94,19.94,0,0,0,16.07,7.77l37.55-.49H366.4a20,20,0,0,0,20-20V20A20,20,0,0,0,366.4,0Zm19,74.8a19,19,0,0,1-19,19H107.23L106,1H366.4a19,19,0,0,1,19,19Z"/><path class="cls-1" d="M142.91,82.26h-8.37l-6.3-21.93h6.25l4.17,16.58h.17l3.86-16.58h7.4l4.12,16.58h.18l4.12-16.58h6l-6.25,21.93h-8.15l-3.59-15h-.18Z"/><path class="cls-1" d="M172.07,82.76A6.49,6.49,0,0,1,165.29,76q0-6.86,10.59-7.28l3.63-.13V68q0-3-3.9-3a15.87,15.87,0,0,0-6.47,1.93l-1.68-4.92a21.76,21.76,0,0,1,8.95-2.11q4.69,0,7.29,2.19a7.65,7.65,0,0,1,2.59,6.19V82.26H180l-.23-4.51h-.17l-2.09,3.41A10.81,10.81,0,0,1,172.07,82.76Zm2.66-5.05a9.33,9.33,0,0,0,4.78-1.56V72.58l-3.32.17q-4,.16-4,2.81a1.94,1.94,0,0,0,.67,1.58A2.76,2.76,0,0,0,174.73,77.71Z"/><path class="cls-1" d="M199.63,82.8a15.27,15.27,0,0,1-10.06-3.57l3.06-4q3.94,2.82,7,2.82a4.92,4.92,0,0,0,2.59-.59,1.77,1.77,0,0,0,1-1.56,1.61,1.61,0,0,0-.65-1.39,6.11,6.11,0,0,0-2.1-.8l-3.5-.75a10,10,0,0,1-4.9-2.38,5.5,5.5,0,0,1-1.7-4.11,5.62,5.62,0,0,1,2.61-4.86A12.4,12.4,0,0,1,200,59.82a13.54,13.54,0,0,1,9.13,3.2l-2.93,4a9,9,0,0,0-5.85-2.44q-3.36,0-3.36,1.77c0,.87.68,1.44,2,1.72l3.32.76a13.18,13.18,0,0,1,5.74,2.42,5.25,5.25,0,0,1,1.75,4.14,6.46,6.46,0,0,1-2.64,5.5Q204.59,82.8,199.63,82.8Z"/><path class="cls-1" d="M221,82.26h-6.74V50.86H221Z"/><path class="cls-1" d="M231.85,82.76A6.49,6.49,0,0,1,225.07,76q0-6.86,10.59-7.28l3.63-.13V68q0-3-3.9-3a15.87,15.87,0,0,0-6.47,1.93l-1.68-4.92a21.72,21.72,0,0,1,8.95-2.11q4.69,0,7.29,2.19a7.65,7.65,0,0,1,2.59,6.19V82.26h-6.34l-.22-4.51h-.17l-2.09,3.41A10.81,10.81,0,0,1,231.85,82.76Zm2.66-5.05a9.33,9.33,0,0,0,4.78-1.56V72.58l-3.32.17q-4,.16-4,2.81a2,2,0,0,0,.66,1.58A2.8,2.8,0,0,0,234.51,77.71Z"/><path class="cls-1" d="M270.44,82.8a15.27,15.27,0,0,1-10.06-3.57l3.06-4q3.94,2.82,7,2.82a5,5,0,0,0,2.6-.59A1.78,1.78,0,0,0,274,75.9a1.63,1.63,0,0,0-.64-1.39,6.18,6.18,0,0,0-2.11-.8l-3.5-.75a10,10,0,0,1-4.9-2.38,5.54,5.54,0,0,1-1.7-4.11,5.62,5.62,0,0,1,2.61-4.86,12.4,12.4,0,0,1,7.09-1.79A13.52,13.52,0,0,1,280,63l-2.92,4a9,9,0,0,0-5.85-2.44c-2.25,0-3.37.59-3.37,1.77,0,.87.68,1.44,2,1.72l3.32.76a13.18,13.18,0,0,1,5.74,2.42,5.22,5.22,0,0,1,1.75,4.14,6.46,6.46,0,0,1-2.64,5.5Q275.4,82.8,270.44,82.8Z"/><path class="cls-1" d="M297.52,77.21v5.05H293.4A8.71,8.71,0,0,1,288,80.59a5,5,0,0,1-2.19-4.18v-11h-2.71v-5h5.5v-.21l-2.79-2.44V54.1h6.78v6.23h4.74v5h-4.74V76.07a1.84,1.84,0,0,0,.15.93.77.77,0,0,0,.64.21Z"/><path class="cls-1" d="M319.59,79.79q-2.93,3-8.33,3t-8.31-3A10.48,10.48,0,0,1,300,72.11V70.47A10.51,10.51,0,0,1,303,62.79q2.9-3,8.31-3t8.33,3a10.48,10.48,0,0,1,2.92,7.68v1.64A10.44,10.44,0,0,1,319.59,79.79Zm-8.33-2.08q4.25,0,4.25-5.64V70.56q0-5.69-4.25-5.69T307,70.56v1.51Q307,77.71,311.26,77.71Z"/><path class="cls-1" d="M333.81,82.26H327V60.33h6.34l.22,4.54h.18l3-4.16a12.53,12.53,0,0,1,4.52-.89h1.06v5.6h-1.77q-4.79,0-6.74,1.56Z"/><path class="cls-1" d="M355.61,82.8c-3.51,0-6.27-.91-8.26-2.75a9.6,9.6,0,0,1-3-7.43V70.47a10.26,10.26,0,0,1,3-7.72,11.15,11.15,0,0,1,8.11-2.93,11.3,11.3,0,0,1,4.94,1,7.57,7.57,0,0,1,3.19,2.76,11.88,11.88,0,0,1,1.6,4,20.51,20.51,0,0,1,.37,4.9H351.31v.38a4.86,4.86,0,0,0,1.31,3.66,4.92,4.92,0,0,0,3.57,1.26,7.6,7.6,0,0,0,5.41-2.44l3.19,3.88A13.48,13.48,0,0,1,355.61,82.8Zm-4.16-14.18h7.89q-.45-4.08-3.77-4.08C353.18,64.54,351.8,65.9,351.45,68.62Z"/><path class="cls-1" d="M141.88,11.56l-2.61,2.6-2.6-2.6-3.12,3.16,3.12,3.16,2.6-2.64,2.61,2.64L145,14.72Z"/><path class="cls-1" d="M223.21,26.28a8.38,8.38,0,0,0-6-2.19q-8.18,0-13.75,11.75a3.35,3.35,0,0,1-1.88-.61,2.18,2.18,0,0,1-.57-1.69V30.89h-4.43V35.2a13.49,13.49,0,0,1-4.65.71h-31.8a7,7,0,0,1-3.33-.54c-.58-.35-.87-1.21-.87-2.54V13.9h-4.5V33.68s0,.64.11,1.75a9.13,9.13,0,0,1-3.23.48h0a7.78,7.78,0,0,1-3.22-.5,2.29,2.29,0,0,1-1-2.25v-12h-4.16V24l-5.72,2.2a9.35,9.35,0,0,0-4.63,3.34,8.06,8.06,0,0,0-1.44,4.61,6.52,6.52,0,0,0,1.72,4.65,6,6,0,0,0,4.57,1.82,9,9,0,0,0,4.57-1.11l1.11-3.34a7,7,0,0,0,2.27,4.19,6.59,6.59,0,0,0,4.35,1.46,6.06,6.06,0,0,0,4.65-1.72l.59-3a6.53,6.53,0,0,0,2.55,3.59,7.15,7.15,0,0,0,4,1.18h31.8a8.57,8.57,0,0,0,5.54-1.72l.92-3.53a5.77,5.77,0,0,0,2.83,4,11.13,11.13,0,0,0,5.58,1.28h6.91q13.47,0,13.46-9.3A8.15,8.15,0,0,0,223.21,26.28Zm-83.34,8.18a15.57,15.57,0,0,1-4.76.85,4.65,4.65,0,0,1-2.41-.54,1.67,1.67,0,0,1-.94-1.53c0-1.17,1.19-2.14,3.54-2.91l4.57-1.52Zm79.63.73a23.88,23.88,0,0,1-6.94.72h-5.09q3.54-6.61,9-6.62a5.89,5.89,0,0,1,3.85,1.12,3.18,3.18,0,0,1,1.36,2.49C221.64,33.94,220.92,34.7,219.5,35.19Z"/><path class="cls-1" d="M230.22,50.37h-1.85V45.13h1.44a15.93,15.93,0,0,0,5.32-.78,7.25,7.25,0,0,0,3.27-2.1,8.39,8.39,0,0,0,1.53-2.7,9.61,9.61,0,0,0,.44-2.93,10.84,10.84,0,0,0-.11-1.64l-1.56,3.83a9.11,9.11,0,0,1-4.39,1.34,5.87,5.87,0,0,1-4.57-1.93A7.84,7.84,0,0,1,228,32.79a8.85,8.85,0,0,1,2.16-6.27,7.2,7.2,0,0,1,5.5-2.32,7.33,7.33,0,0,1,6.27,3.24,14.53,14.53,0,0,1,2.32,8.62,20.52,20.52,0,0,1-.34,3.83,15.72,15.72,0,0,1-1.26,3.81,11,11,0,0,1-2.43,3.4,11.79,11.79,0,0,1-4.07,2.34A17.39,17.39,0,0,1,230.22,50.37Zm5.13-15.57a32.79,32.79,0,0,0,4.8-.38,6.54,6.54,0,0,0-2-3.58,4.8,4.8,0,0,0-3.27-1.29,3.76,3.76,0,0,0-2.38.75,2.31,2.31,0,0,0-1,1.93,2.14,2.14,0,0,0,1.06,1.9A5.11,5.11,0,0,0,235.35,34.8Z"/><path class="cls-1" d="M363.62,26.91a6.86,6.86,0,0,0-5.22-2.29,7.2,7.2,0,0,0-4.57,1.64,11,11,0,0,0-3.31,4.46l-.82,1.83a5.07,5.07,0,0,1-1.38,2,2.83,2.83,0,0,1-1.75.51h0a6,6,0,0,1-3-.57c-.62-.38-.92-1.22-.92-2.51V27.71h-4.46v5c0,.39,0,1,.07,1.71a14.18,14.18,0,0,1-4.72.7h0a16.59,16.59,0,0,1-4.61-.44,2.18,2.18,0,0,1-1.56-2h3.12V28.38h-1.48a12.06,12.06,0,0,1-4.37-.84,18.22,18.22,0,0,1-3.65-1.84,18.85,18.85,0,0,0-3.42-1.84,9.37,9.37,0,0,0-3.73-.84q-4.8,0-6.84,5.47l3.42,2a3.74,3.74,0,0,1,3.31-2.23,5.22,5.22,0,0,1,1.11.11,8.12,8.12,0,0,1,1.28.39,12,12,0,0,1,1.21.51l1.43.66,1.4.67-.78.45a58.06,58.06,0,0,1-6.38,3,15.66,15.66,0,0,1-5.63,1.05h-33a3.93,3.93,0,0,1-3-1,9,9,0,0,1-1.71-3.87l-.75-2.82-4.23,1.08q2.19,7.69,2.19,10.45a7.64,7.64,0,0,1-.3,2.24,5.5,5.5,0,0,1-1,1.92,4.75,4.75,0,0,1-2.23,1.43,11.33,11.33,0,0,1-3.65.5c-.71,0-1.22,0-1.52,0v5c1,.1,1.85.15,2.42.15a12.19,12.19,0,0,0,4.63-.82,7.44,7.44,0,0,0,3.12-2.27A10.41,10.41,0,0,0,270,44a15.7,15.7,0,0,0,.73-3.74A3.52,3.52,0,0,0,273,41h32.6a16.86,16.86,0,0,0,4.65-.63,16.1,16.1,0,0,0,3.8-1.62c1.08-.65,2.11-1.33,3.06-2s2-1.38,3.1-2.06a13.82,13.82,0,0,1,3.28-1.51,7.62,7.62,0,0,0,1.65,5.64q1.88,2.2,6.27,2.21h.4a8.53,8.53,0,0,0,5.54-1.71l1-3.79q1,5.5,6.5,5.5h0a5.82,5.82,0,0,0,5.43-2.94l.07-.15A11.19,11.19,0,0,0,358,41a7.66,7.66,0,0,0,5.59-2.14A7.88,7.88,0,0,0,365.76,33,8.51,8.51,0,0,0,363.62,26.91ZM360.83,35a5.51,5.51,0,0,1-2.88.64,10.65,10.65,0,0,1-5.06-1.45l.3-.63a6,6,0,0,1,2-2.77,4.69,4.69,0,0,1,2.9-1,4.08,4.08,0,0,1,2.71.94,2.86,2.86,0,0,1,1.12,2.3A2.15,2.15,0,0,1,360.83,35Z"/><path class="cls-1" d="M319.1,43.92l-3.49,3.49L319.1,51l3.49-3.54Z"/><path class="cls-1" d="M342.71,18.19l-2.6,2.6-2.61-2.6-3.12,3.16,3.12,3.16,2.61-2.64,2.6,2.64,3.16-3.16Z"/><path class="cls-2" d="M67.54,50.92a1.16,1.16,0,0,0-1.4-1.24c-1.7.38-3.37.78-5.07,1-6.79.85-13.31,0-19.23-3.66a17.07,17.07,0,0,1-8.27-11.08,13.44,13.44,0,0,1,10.28-16c6.3-1.54,12.19-.22,17.71,2.95A30.51,30.51,0,0,1,72.82,34.54l.32.57s.07.08.17.22A15.39,15.39,0,0,0,77.48,27a1.15,1.15,0,0,1,1.14-1h6.72a1.15,1.15,0,0,1,1.15,1.27c-.07.67-.14,1.32-.27,2a24.63,24.63,0,0,1-9.1,14.91,1,1,0,0,0-.51,1.06A27.56,27.56,0,0,1,61.7,73.37,27.1,27.1,0,0,1,22.79,53a26.47,26.47,0,0,1,.81-11.28A1.15,1.15,0,0,1,25.07,41l6.34,2.11a1.17,1.17,0,0,1,.76,1.38,17.58,17.58,0,0,0,4,16.79,17.25,17.25,0,0,0,13.14,5.92A18.06,18.06,0,0,0,67.54,50.92Zm-2-10.61a1.19,1.19,0,0,0-.05-.29A21.41,21.41,0,0,0,55.3,29.85a13.79,13.79,0,0,0-9.23-1.16c-3.52.9-4.8,4.06-2.93,7.19a10.78,10.78,0,0,0,5,4.33,21.63,21.63,0,0,0,10.63,1.62A22.87,22.87,0,0,0,65.54,40.31Z"/></g></g></svg>