<svg version="1.0" preserveAspectRatio="xMidYMid meet" height="500" viewBox="0 0 375 374.999991" zoomAndPan="magnify" width="500" xmlns:xlink="http://www.w3.org/1999/xlink" xmlns="http://www.w3.org/2000/svg"><defs><g></g><clipPath id="4c1614d138"><path clip-rule="nonzero" d="M 178 123 L 232 123 L 232 167.976562 L 178 167.976562 Z M 178 123"></path></clipPath><clipPath id="24f4a6b598"><path clip-rule="nonzero" d="M 178 90 L 239.980469 90 L 239.980469 117 L 178 117 Z M 178 90"></path></clipPath><clipPath id="a2b9a9d521"><path clip-rule="nonzero" d="M 143 123 L 169 123 L 169 167.976562 L 143 167.976562 Z M 143 123"></path></clipPath><clipPath id="cf7066bad1"><path clip-rule="nonzero" d="M 134.980469 90 L 169 90 L 169 117 L 134.980469 117 Z M 134.980469 90"></path></clipPath><clipPath id="9154aa89ed"><path clip-rule="nonzero" d="M 144 50.226562 L 229 50.226562 L 229 84 L 144 84 Z M 144 50.226562"></path></clipPath></defs><g clip-path="url(#4c1614d138)"><path fill-rule="nonzero" fill-opacity="1" d="M 231.382812 127.285156 C 231.382812 125.027344 229.554688 123.199219 227.296875 123.199219 L 182.230469 123.199219 C 179.976562 123.199219 178.144531 125.027344 178.144531 127.285156 L 178.144531 163.71875 C 178.144531 165.972656 179.976562 167.804688 182.230469 167.804688 L 227.296875 167.804688 C 229.554688 167.804688 231.382812 165.972656 231.382812 163.71875 Z M 231.382812 127.285156" fill="#e150b9"></path></g><g clip-path="url(#24f4a6b598)"><path fill-rule="nonzero" fill-opacity="1" d="M 240.015625 94.191406 C 240.015625 91.933594 238.1875 90.105469 235.929688 90.105469 L 182.230469 90.105469 C 179.976562 90.105469 178.144531 91.933594 178.144531 94.191406 L 178.144531 111.921875 C 178.144531 114.175781 179.976562 116.003906 182.230469 116.003906 L 235.929688 116.003906 C 238.1875 116.003906 240.015625 114.175781 240.015625 111.921875 Z M 240.015625 94.191406" fill="#e150b9"></path></g><g clip-path="url(#a2b9a9d521)"><path fill-rule="nonzero" fill-opacity="1" d="M 168.074219 163.71875 C 168.074219 165.972656 166.246094 167.804688 163.988281 167.804688 L 147.699219 167.804688 C 145.441406 167.804688 143.613281 165.972656 143.613281 163.71875 L 143.613281 127.285156 C 143.613281 125.027344 145.441406 123.199219 147.699219 123.199219 L 163.988281 123.199219 C 166.246094 123.199219 168.074219 125.027344 168.074219 127.285156 Z M 168.074219 163.71875" fill="#e150b9"></path></g><g clip-path="url(#cf7066bad1)"><path fill-rule="nonzero" fill-opacity="1" d="M 168.074219 111.917969 C 168.074219 114.175781 166.246094 116.003906 163.988281 116.003906 L 139.066406 116.003906 C 136.808594 116.003906 134.980469 114.175781 134.980469 111.917969 L 134.980469 94.191406 C 134.980469 91.933594 136.808594 90.105469 139.066406 90.105469 L 163.988281 90.105469 C 166.246094 90.105469 168.074219 91.933594 168.074219 94.191406 Z M 168.074219 111.917969" fill="#e150b9"></path></g><g clip-path="url(#9154aa89ed)"><path fill-rule="nonzero" fill-opacity="1" d="M 227.386719 57.167969 C 225.003906 53.042969 220.050781 50.582031 214.140625 50.582031 C 200.683594 50.582031 191.148438 62.859375 186.464844 70.609375 C 181.773438 62.867188 172.242188 50.660156 158.816406 50.660156 C 150.300781 50.660156 144.121094 55.785156 144.121094 62.734375 C 144.121094 75.0625 158.042969 83.105469 186.027344 83.105469 C 214.011719 83.105469 228.839844 72.765625 228.839844 62.835938 C 228.835938 60.863281 228.402344 58.929688 227.386719 57.167969 Z M 158.667969 69.445312 C 153.964844 67.03125 152.289062 64.316406 152.289062 62.582031 C 152.289062 60.363281 155.03125 58.753906 158.8125 58.753906 C 167.921875 58.753906 175.128906 67.800781 179.046875 74.101562 C 168.554688 73.429688 162.257812 71.292969 158.667969 69.445312 Z M 220.03125 64.644531 C 217.664062 68.746094 209.589844 73.097656 193.949219 74.101562 C 197.898438 67.800781 205.136719 58.753906 214.140625 58.753906 C 217.621094 58.753906 219.609375 60.046875 220.308594 61.253906 C 220.867188 62.21875 220.773438 63.359375 220.03125 64.644531 Z M 220.03125 64.644531" fill="#e150b9"></path></g><g fill-opacity="1" fill="#8c52ff"><g transform="translate(6.046879, 232.136718)"><g><path d="M 36.28125 15.265625 C 38.546875 15.265625 40.28125 14.390625 39.765625 13.25 C 38.890625 13 38.546875 12.03125 38.546875 10.46875 C 38.546875 3.046875 46.65625 -16.390625 49.015625 -18.828125 C 49.09375 -19.1875 49.1875 -19.53125 49.1875 -19.875 C 49.1875 -22.578125 45.953125 -25.109375 44.21875 -25.109375 C 43.859375 -25.109375 43.515625 -25.03125 43.34375 -24.765625 C 35.234375 -13.078125 26.6875 -4.53125 19.015625 -4.53125 C 14.390625 -4.53125 12.46875 -7.40625 12.46875 -11.6875 C 12.46875 -26.421875 32.703125 -49.875 44.125 -49.875 C 46.65625 -49.875 48.046875 -48.75 48.046875 -45.875 C 48.046875 -40.46875 43.6875 -35.40625 39.859375 -31.828125 C 40.640625 -31.21875 41.765625 -30.953125 42.984375 -30.953125 C 47.96875 -30.953125 55.109375 -35.484375 55.109375 -43.421875 C 55.109375 -50.84375 47.703125 -55.109375 40.890625 -55.109375 C 24.765625 -55.109375 4.015625 -30.609375 4.015625 -14.125 C 4.015625 -5.671875 10.203125 1.3125 18.140625 1.3125 C 24.421875 1.3125 29.828125 -2.96875 35.140625 -9.421875 L 35.671875 -9.25 C 32.703125 -2.96875 29.65625 4.265625 29.65625 8.71875 C 29.65625 13.6875 33.3125 15.265625 36.28125 15.265625 Z M 36.28125 15.265625"></path></g></g></g><g fill-opacity="1" fill="#8c52ff"><g transform="translate(55.0528, 232.136718)"><g><path d="M 25.03125 -39.15625 C 26.15625 -41.59375 30.078125 -48.3125 33.828125 -50.578125 C 34.09375 -50.671875 34.265625 -50.84375 34.265625 -51.09375 C 34.265625 -52.328125 31.3125 -55.109375 28.078125 -55.109375 C 24.328125 -55.109375 20.921875 -48.65625 20.921875 -45 C 20.921875 -40.890625 23.71875 -38.984375 25.03125 -39.15625 Z M 10.8125 2.09375 C 17.703125 2.09375 27.734375 -14.90625 31.5625 -20.84375 C 31.5625 -22.0625 30 -23.109375 29.125 -23.109375 C 21.625 -11.953125 16.484375 -5.140625 13.25 -5.140625 C 12.203125 -5.140625 11.765625 -6.109375 11.765625 -7.40625 C 11.765625 -13.34375 19.359375 -28.515625 22.578125 -30.265625 C 22.9375 -30.515625 23.015625 -30.78125 23.015625 -31.125 C 23.015625 -32.96875 20.140625 -35.3125 17 -35.3125 C 13.6875 -35.3125 2.875 -15.4375 2.875 -6.96875 C 2.875 -1.484375 7.59375 2.09375 10.8125 2.09375 Z M 10.8125 2.09375"></path></g></g></g><g fill-opacity="1" fill="#8c52ff"><g transform="translate(75.0214, 232.136718)"><g><path d="M 27.984375 -51.1875 C 25.46875 -51.1875 17.96875 -40.640625 11.34375 -27.90625 C 9.25 -27.8125 7.5 -27.734375 6.625 -27.734375 C 6.1875 -27.125 6.109375 -26.515625 6.109375 -25.90625 C 6.109375 -24.328125 7.15625 -23.109375 8.890625 -23.015625 C 3.75 -12.46875 -0.34375 -1.140625 -0.34375 6.28125 C -0.34375 12.390625 3.578125 17.53125 8.203125 17.53125 C 16.046875 17.53125 22.328125 -2.359375 22.328125 -15.265625 C 22.328125 -18.484375 21.890625 -21.359375 21.109375 -23.546875 C 22.671875 -23.625 24.328125 -23.625 25.8125 -23.625 C 27.734375 -23.625 29.46875 -23.625 30.609375 -23.453125 C 30.78125 -23.71875 31.046875 -24.25 31.046875 -24.859375 C 31.046875 -26.515625 30 -28.515625 26.59375 -28.515625 C 25.03125 -28.515625 22.671875 -28.421875 20.140625 -28.34375 C 24.421875 -36.359375 29.125 -43.078125 33.3125 -46.046875 C 33.65625 -46.3125 33.828125 -46.5625 33.828125 -47 C 33.828125 -48.75 30.875 -51.1875 27.984375 -51.1875 Z M 18.40625 -18.828125 C 18.40625 -7.9375 12.390625 11.421875 8.640625 11.421875 C 7.84375 11.421875 7.5 10.640625 7.5 9.0625 C 7.5 1.65625 11.859375 -11.59375 17.609375 -23.375 C 17.703125 -23.375 17.796875 -23.375 17.875 -23.453125 C 18.21875 -22.15625 18.40625 -20.578125 18.40625 -18.828125 Z M 18.40625 -18.828125"></path></g></g></g><g fill-opacity="1" fill="#8c52ff"><g transform="translate(100.483553, 232.136718)"><g><path d="M 34.4375 -23.109375 C 27.734375 -13.34375 18.828125 -4.359375 13.609375 -4.359375 C 12.46875 -4.359375 11.953125 -5.234375 11.953125 -6.71875 C 11.953125 -11.859375 16.75 -22.15625 21.96875 -30.953125 C 26.078125 -31.125 30.265625 -31.21875 32.609375 -31.21875 C 32.875 -31.484375 33.046875 -32 33.046875 -32.609375 C 33.046875 -34.1875 32 -36.28125 28.609375 -36.28125 C 27.734375 -36.28125 26.515625 -36.28125 25.203125 -36.1875 C 28.515625 -41.328125 31.5625 -45.171875 33.140625 -46.125 C 33.484375 -46.3125 33.578125 -46.484375 33.578125 -46.828125 C 33.578125 -48.21875 30.875 -51.09375 27.90625 -51.09375 C 25.984375 -51.09375 20.84375 -44.296875 15.78125 -35.75 C 12.734375 -35.671875 10.203125 -35.484375 9.0625 -35.40625 C 8.640625 -34.796875 8.453125 -34.1875 8.453125 -33.578125 C 8.453125 -32.09375 9.59375 -30.703125 11.421875 -30.703125 L 12.8125 -30.703125 C 7.671875 -21.359375 3.3125 -11.25 3.3125 -6.015625 C 3.3125 -1.3125 6.96875 2.359375 11.078125 2.359375 C 20.234375 2.359375 32.78125 -14.296875 36.890625 -20.84375 C 36.890625 -21.96875 35.484375 -23.109375 34.4375 -23.109375 Z M 34.4375 -23.109375"></path></g></g></g><g fill-opacity="1" fill="#8c52ff"><g transform="translate(125.771308, 232.136718)"><g></g></g></g><g fill-opacity="1" fill="#8c52ff"><g transform="translate(141.728754, 232.136718)"><g><path d="M 34.4375 -23.109375 C 27.734375 -13.34375 18.828125 -4.359375 13.609375 -4.359375 C 12.46875 -4.359375 11.953125 -5.234375 11.953125 -6.71875 C 11.953125 -11.859375 16.75 -22.15625 21.96875 -30.953125 C 26.078125 -31.125 30.265625 -31.21875 32.609375 -31.21875 C 32.875 -31.484375 33.046875 -32 33.046875 -32.609375 C 33.046875 -34.1875 32 -36.28125 28.609375 -36.28125 C 27.734375 -36.28125 26.515625 -36.28125 25.203125 -36.1875 C 28.515625 -41.328125 31.5625 -45.171875 33.140625 -46.125 C 33.484375 -46.3125 33.578125 -46.484375 33.578125 -46.828125 C 33.578125 -48.21875 30.875 -51.09375 27.90625 -51.09375 C 25.984375 -51.09375 20.84375 -44.296875 15.78125 -35.75 C 12.734375 -35.671875 10.203125 -35.484375 9.0625 -35.40625 C 8.640625 -34.796875 8.453125 -34.1875 8.453125 -33.578125 C 8.453125 -32.09375 9.59375 -30.703125 11.421875 -30.703125 L 12.8125 -30.703125 C 7.671875 -21.359375 3.3125 -11.25 3.3125 -6.015625 C 3.3125 -1.3125 6.96875 2.359375 11.078125 2.359375 C 20.234375 2.359375 32.78125 -14.296875 36.890625 -20.84375 C 36.890625 -21.96875 35.484375 -23.109375 34.4375 -23.109375 Z M 34.4375 -23.109375"></path></g></g></g><g fill-opacity="1" fill="#8c52ff"><g transform="translate(167.01651, 232.136718)"><g><path d="M 46.125 -20.84375 C 46.125 -22.0625 44.5625 -23.109375 43.6875 -23.109375 C 39.328125 -16.921875 35.0625 -13.953125 31.125 -12.5625 C 34.1875 -18.484375 36.1875 -24.671875 36.1875 -28.6875 C 36.1875 -34.53125 32 -38.890625 27.46875 -38.890625 C 24.5 -38.890625 21.625 -36.96875 19.1875 -34.265625 C 12.8125 -32 3.046875 -17.703125 3.046875 -8.546875 C 3.046875 -0.609375 10.296875 3.140625 14.46875 3.140625 C 19.015625 3.140625 23.8125 -1.21875 27.734375 -6.890625 C 32.96875 -8.015625 40.03125 -12.03125 46.125 -20.84375 Z M 29.296875 -30.515625 C 29.296875 -25.90625 26.078125 -17.875 22.234375 -11.515625 C 16.828125 -11.953125 14.828125 -14.828125 14.828125 -18.484375 L 14.828125 -18.75 C 17.09375 -23.625 20.40625 -27.8125 24.0625 -28.421875 C 24.671875 -28.171875 24.9375 -28.6875 24.9375 -29.5625 C 24.9375 -30.609375 24.5 -32.09375 23.546875 -33.21875 C 24.59375 -33.828125 25.640625 -34.1875 26.59375 -34.1875 C 28.515625 -34.1875 29.296875 -32.78125 29.296875 -30.515625 Z M 13.25 -1.65625 C 11.953125 -1.65625 11.34375 -3.140625 11.34375 -5.5 C 11.34375 -7.40625 11.765625 -9.859375 12.46875 -12.5625 C 14.046875 -10.03125 16.921875 -8.375 19.703125 -7.40625 C 17.265625 -4.015625 14.90625 -1.65625 13.25 -1.65625 Z M 13.25 -1.65625"></path></g></g></g><g fill-opacity="1" fill="#8c52ff"><g transform="translate(201.547384, 232.136718)"><g></g></g></g><g fill-opacity="1" fill="#8c52ff"><g transform="translate(217.504841, 232.136718)"><g><path d="M 32.609375 -7.40625 C 25.984375 -7.40625 19.09375 -6.359375 13.25 -4.703125 C 14.65625 -14.046875 27.203125 -39.328125 36.625 -50.3125 C 36.890625 -50.578125 36.96875 -50.84375 36.96875 -51.1875 C 36.96875 -52.765625 34.1875 -55.203125 31.828125 -55.203125 C 31.3125 -55.203125 30.875 -55.03125 30.4375 -54.765625 C 23.8125 -50.234375 5.84375 -19.265625 5.84375 -8.546875 C 5.84375 -6.453125 7.40625 -4.453125 9.15625 -3.3125 C 6.796875 -2.4375 4.796875 -1.484375 3.21875 -0.4375 C 1.390625 0.875 0.703125 3.046875 0.703125 4.453125 C 0.703125 5.234375 0.953125 5.84375 1.390625 5.84375 C 1.65625 5.84375 2 5.671875 2.4375 5.140625 C 3.921875 3.140625 20.0625 0.171875 29.65625 0.171875 C 33.578125 0.171875 36.453125 0.703125 36.71875 1.921875 C 37.578125 1.921875 38.1875 0.4375 38.1875 -1.390625 C 38.1875 -4.09375 36.796875 -7.40625 32.609375 -7.40625 Z M 32.609375 -7.40625"></path></g></g></g><g fill-opacity="1" fill="#8c52ff"><g transform="translate(257.616449, 232.136718)"><g><path d="M 46.125 -20.84375 C 46.125 -22.0625 44.5625 -23.109375 43.6875 -23.109375 C 39.328125 -16.921875 35.0625 -13.953125 31.125 -12.5625 C 34.1875 -18.484375 36.1875 -24.671875 36.1875 -28.6875 C 36.1875 -34.53125 32 -38.890625 27.46875 -38.890625 C 24.5 -38.890625 21.625 -36.96875 19.1875 -34.265625 C 12.8125 -32 3.046875 -17.703125 3.046875 -8.546875 C 3.046875 -0.609375 10.296875 3.140625 14.46875 3.140625 C 19.015625 3.140625 23.8125 -1.21875 27.734375 -6.890625 C 32.96875 -8.015625 40.03125 -12.03125 46.125 -20.84375 Z M 29.296875 -30.515625 C 29.296875 -25.90625 26.078125 -17.875 22.234375 -11.515625 C 16.828125 -11.953125 14.828125 -14.828125 14.828125 -18.484375 L 14.828125 -18.75 C 17.09375 -23.625 20.40625 -27.8125 24.0625 -28.421875 C 24.671875 -28.171875 24.9375 -28.6875 24.9375 -29.5625 C 24.9375 -30.609375 24.5 -32.09375 23.546875 -33.21875 C 24.59375 -33.828125 25.640625 -34.1875 26.59375 -34.1875 C 28.515625 -34.1875 29.296875 -32.78125 29.296875 -30.515625 Z M 13.25 -1.65625 C 11.953125 -1.65625 11.34375 -3.140625 11.34375 -5.5 C 11.34375 -7.40625 11.765625 -9.859375 12.46875 -12.5625 C 14.046875 -10.03125 16.921875 -8.375 19.703125 -7.40625 C 17.265625 -4.015625 14.90625 -1.65625 13.25 -1.65625 Z M 13.25 -1.65625"></path></g></g></g><g fill-opacity="1" fill="#8c52ff"><g transform="translate(292.147323, 232.136718)"><g><path d="M 9.671875 2.703125 C 19.625 2.703125 38.546875 -27.125 38.546875 -34.09375 C 38.546875 -36.796875 35.75 -39.328125 33.828125 -39.328125 C 33.484375 -39.328125 33.140625 -39.234375 32.875 -38.984375 C 32.875 -29.828125 17 -4.453125 12.03125 -4.453125 C 11.421875 -4.453125 11.15625 -5.0625 11.15625 -6.109375 C 11.15625 -11.765625 19.015625 -29.46875 22.5 -32.53125 C 23.015625 -32.609375 23.203125 -32.96875 23.203125 -33.484375 C 23.203125 -34.796875 21.1875 -37.234375 18.3125 -37.234375 C 12.390625 -37.234375 3.140625 -16.046875 3.140625 -7.328125 C 3.140625 -0.265625 7.9375 2.703125 9.671875 2.703125 Z M 9.671875 2.703125"></path></g></g></g><g fill-opacity="1" fill="#8c52ff"><g transform="translate(324.149396, 232.136718)"><g><path d="M 40.8125 -23.109375 C 32.4375 -10.71875 21.453125 -3.65625 15.4375 -3.65625 C 12.5625 -3.65625 11.34375 -5.5 11.34375 -7.84375 L 11.34375 -8.109375 C 21.796875 -11.15625 34.265625 -23.8125 34.265625 -31.046875 C 34.265625 -34.96875 30.609375 -38.546875 26.25 -38.546875 C 15.953125 -38.546875 2.609375 -18.65625 2.609375 -8.109375 C 2.609375 -1.75 7.59375 2.875 13.859375 2.875 C 21.796875 2.875 31.5625 -3.484375 43.25 -20.84375 C 43.25 -22.0625 41.6875 -23.109375 40.8125 -23.109375 Z M 27.90625 -32.609375 C 28.953125 -32.609375 29.390625 -32.09375 29.390625 -31.125 C 29.390625 -26.859375 19.453125 -15.171875 12.203125 -12.5625 C 14.828125 -21.109375 23.203125 -32.609375 27.90625 -32.609375 Z M 27.90625 -32.609375"></path></g></g></g><g fill-opacity="1" fill="#ff66c4"><g transform="translate(37.557186, 282.023859)"><g><path d="M 18.75 -5.578125 L 16.6875 -5.578125 C 16.046875 -4.40625 15.15625 -3.4375 14.03125 -2.734375 C 12.90625 -2.015625 11.640625 -1.65625 10.296875 -1.65625 C 8.296875 -1.65625 6.578125 -2.390625 5.15625 -3.890625 C 3.75 -5.3125 3.078125 -7.0625 3.078125 -9.09375 C 3.078125 -11.140625 3.75 -12.875 5.15625 -14.328125 C 5.796875 -15 6.578125 -15.53125 7.453125 -15.9375 C 8.3125 -16.34375 9.171875 -16.546875 10.03125 -16.546875 C 10.859375 -16.546875 11.59375 -16.453125 12.234375 -16.25 C 14.1875 -15.671875 15.671875 -14.484375 16.65625 -12.6875 L 18.71875 -12.6875 C 18.03125 -14.40625 16.921875 -15.796875 15.40625 -16.875 C 13.84375 -17.953125 12.15625 -18.484375 10.296875 -18.484375 C 7.75 -18.484375 5.609375 -17.546875 3.84375 -15.6875 C 3 -14.828125 2.359375 -13.8125 1.90625 -12.6875 C 1.421875 -11.5625 1.203125 -10.359375 1.203125 -9.09375 C 1.203125 -6.515625 2.0625 -4.34375 3.84375 -2.515625 C 5.609375 -0.640625 7.75 0.265625 10.296875 0.265625 C 12.15625 0.265625 13.84375 -0.265625 15.421875 -1.34375 C 16.953125 -2.421875 18.0625 -3.8125 18.75 -5.578125 Z M 18.75 -5.578125"></path></g></g></g><g fill-opacity="1" fill="#ff66c4"><g transform="translate(62.479106, 282.023859)"><g><path d="M 8.078125 -9.359375 L 8.078125 -11.796875 C 7.703125 -11.96875 7.296875 -12.046875 6.890625 -12.046875 C 5.546875 -12.046875 4.59375 -11.296875 3.96875 -9.84375 L 3.890625 -9.359375 L 3.890625 -11.796875 L 2.015625 -11.796875 L 2.015625 0 L 3.890625 0 L 3.890625 -5.90625 C 3.890625 -6.875 4.109375 -7.71875 4.5625 -8.5 C 4.78125 -8.90625 5.078125 -9.25 5.421875 -9.53125 C 5.765625 -9.796875 6.203125 -9.953125 6.6875 -9.953125 C 7.15625 -9.953125 7.625 -9.734375 8.078125 -9.359375 Z M 8.078125 -9.359375"></path></g></g></g><g fill-opacity="1" fill="#ff66c4"><g transform="translate(76.188507, 282.023859)"><g><path d="M 11.40625 -5.90625 C 11.40625 -4.75 11 -3.734375 10.1875 -2.890625 C 9.390625 -2.03125 8.390625 -1.609375 7.25 -1.609375 C 6.0625 -1.609375 5.078125 -2.03125 4.265625 -2.890625 C 3.453125 -3.734375 3.078125 -4.75 3.078125 -5.90625 C 3.078125 -7.03125 3.453125 -8.046875 4.265625 -8.90625 C 5.078125 -9.765625 6.0625 -10.1875 7.25 -10.1875 C 8.390625 -10.1875 9.390625 -9.765625 10.1875 -8.90625 C 11 -8.046875 11.40625 -7.03125 11.40625 -5.90625 Z M 13.28125 0 L 13.28125 -11.796875 L 11.40625 -11.796875 L 11.40625 -9.765625 C 11.296875 -9.921875 11.15625 -10.0625 11.046875 -10.1875 C 9.921875 -11.421875 8.5625 -12.078125 6.953125 -12.078125 C 5.3125 -12.078125 3.9375 -11.421875 2.8125 -10.1875 C 1.75 -8.953125 1.203125 -7.53125 1.203125 -5.90625 C 1.203125 -4.234375 1.75 -2.8125 2.8125 -1.609375 C 3.9375 -0.34375 5.3125 0.265625 6.953125 0.265625 C 8.5625 0.265625 9.921875 -0.34375 11.046875 -1.609375 C 11.15625 -1.71875 11.296875 -1.84375 11.40625 -2.015625 L 11.40625 0 Z M 13.28125 0"></path></g></g></g><g fill-opacity="1" fill="#ff66c4"><g transform="translate(96.845377, 282.023859)"><g><path d="M 8.34375 -18.375 L 8.34375 -20.125 L 7 -20.125 C 5.65625 -20.125 4.71875 -19.765625 4.15625 -19.125 C 3.59375 -18.484375 3.328125 -17.546875 3.328125 -16.359375 L 3.328125 -11.796875 L 0.9375 -11.796875 L 0.9375 -10.0625 L 3.328125 -10.0625 L 3.328125 0 L 5.203125 0 L 5.203125 -10.0625 L 8.34375 -10.0625 L 8.34375 -11.796875 L 5.203125 -11.796875 L 5.203125 -16.90625 C 5.203125 -17.296875 5.28125 -17.65625 5.5 -17.953125 C 5.6875 -18.21875 6.09375 -18.375 6.734375 -18.375 Z M 8.34375 -18.375"></path></g></g></g><g fill-opacity="1" fill="#ff66c4"><g transform="translate(111.359506, 282.023859)"><g><path d="M 0.53125 -10.0625 L 3.484375 -10.0625 L 3.484375 0 L 5.359375 0 L 5.359375 -10.0625 L 8.296875 -10.0625 L 8.296875 -11.796875 L 5.359375 -11.796875 L 5.359375 -16.390625 L 3.484375 -16.390625 L 3.484375 -11.796875 L 0.53125 -11.796875 Z M 0.53125 -10.0625"></path></g></g></g><g fill-opacity="1" fill="#ff66c4"><g transform="translate(125.551736, 282.023859)"><g></g></g></g><g fill-opacity="1" fill="#ff66c4"><g transform="translate(138.161333, 282.023859)"><g><path d="M 7.0625 -9.25 L 11.046875 -4.125 C 10.78125 -3.859375 10.484375 -3.5625 10.171875 -3.265625 C 8.984375 -2.140625 7.890625 -1.609375 6.921875 -1.609375 C 6.015625 -1.609375 5.203125 -1.953125 4.5625 -2.6875 C 3.921875 -3.375 3.59375 -4.1875 3.59375 -5.09375 C 3.59375 -5.84375 4.03125 -6.65625 4.90625 -7.53125 C 5.3125 -7.9375 6.015625 -8.5 7.0625 -9.25 Z M 6.890625 -12.234375 C 6.09375 -13.0625 5.71875 -13.84375 5.71875 -14.640625 C 5.71875 -15.421875 5.921875 -15.984375 6.390625 -16.359375 C 6.8125 -16.71875 7.328125 -16.875 7.859375 -16.84375 C 8.390625 -16.828125 8.90625 -16.640625 9.359375 -16.25 C 9.796875 -15.875 10.03125 -15.34375 10.03125 -14.703125 C 10.03125 -14.03125 9.734375 -13.40625 9.171875 -12.84375 C 8.90625 -12.578125 8.640625 -12.375 8.34375 -12.15625 C 8.046875 -11.9375 7.78125 -11.75 7.515625 -11.5625 C 7.296875 -11.78125 7.109375 -12.015625 6.890625 -12.234375 Z M 15.96875 -7.109375 L 14.4375 -8.125 L 13.40625 -6.84375 C 13.0625 -6.40625 12.71875 -5.984375 12.375 -5.546875 L 8.609375 -10.359375 C 8.9375 -10.625 9.3125 -10.890625 9.6875 -11.21875 C 11.078125 -12.375 11.78125 -13.546875 11.78125 -14.734375 C 11.78125 -15.828125 11.40625 -16.734375 10.65625 -17.46875 C 9.921875 -18.15625 9.015625 -18.515625 7.890625 -18.515625 C 6.703125 -18.515625 5.734375 -18.140625 5.046875 -17.390625 C 4.3125 -16.640625 3.96875 -15.6875 3.96875 -14.5625 C 3.96875 -13.4375 4.609375 -12.125 5.90625 -10.65625 C 5.359375 -10.25 4.828125 -9.875 4.34375 -9.5 C 2.609375 -8.234375 1.75 -6.703125 1.75 -4.96875 C 1.75 -3.4375 2.234375 -2.171875 3.25 -1.15625 C 3.734375 -0.671875 4.296875 -0.328125 4.9375 -0.046875 C 5.578125 0.21875 6.328125 0.328125 7.15625 0.328125 C 8.015625 0.328125 8.953125 0 10.0625 -0.703125 C 10.625 -1.015625 11.328125 -1.640625 12.234375 -2.546875 L 14.21875 0.046875 L 16.6875 0 L 13.546875 -4.109375 C 14.890625 -5.71875 15.6875 -6.734375 15.96875 -7.109375 Z M 15.96875 -7.109375"></path></g></g></g><g fill-opacity="1" fill="#ff66c4"><g transform="translate(162.010293, 282.023859)"><g></g></g></g><g fill-opacity="1" fill="#ff66c4"><g transform="translate(174.619896, 282.023859)"><g><path d="M 20.015625 -8.53125 L 10.515625 -8.53125 L 10.515625 -6.890625 L 17.921875 -6.890625 C 17.359375 -5.3125 16.421875 -4.03125 15.078125 -3.078125 C 13.734375 -2.125 12.234375 -1.65625 10.59375 -1.65625 C 8.5 -1.65625 6.734375 -2.390625 5.265625 -3.859375 C 3.8125 -5.34375 3.078125 -7.140625 3.078125 -9.203125 C 3.078125 -11.265625 3.8125 -13.03125 5.28125 -14.515625 C 6.734375 -15.96875 8.5 -16.71875 10.59375 -16.71875 C 12.15625 -16.71875 13.578125 -16.25 14.828125 -15.375 C 16.125 -14.484375 17.03125 -13.328125 17.625 -11.859375 L 19.609375 -11.859375 C 19 -13.875 17.84375 -15.484375 16.171875 -16.71875 C 14.515625 -17.953125 12.578125 -18.59375 10.40625 -18.59375 C 9.234375 -18.59375 8.078125 -18.328125 6.953125 -17.84375 C 5.796875 -17.359375 4.796875 -16.6875 3.9375 -15.828125 C 3.078125 -14.96875 2.421875 -13.984375 1.9375 -12.84375 C 1.453125 -11.703125 1.203125 -10.46875 1.203125 -9.171875 C 1.203125 -7.890625 1.453125 -6.65625 1.9375 -5.53125 C 2.421875 -4.375 3.078125 -3.375 3.9375 -2.515625 C 4.796875 -1.65625 5.796875 -1 6.953125 -0.515625 C 8.078125 -0.03125 9.3125 0.21875 10.59375 0.21875 C 12.796875 0.21875 14.78125 -0.484375 16.546875 -1.90625 C 18.328125 -3.359375 19.421875 -5.171875 19.828125 -7.40625 Z M 20.015625 -8.53125"></path></g></g></g><g fill-opacity="1" fill="#ff66c4"><g transform="translate(201.204931, 282.023859)"><g><path d="M 3.921875 -15.875 C 3.671875 -16.09375 3.375 -16.234375 3.0625 -16.234375 C 2.734375 -16.234375 2.4375 -16.09375 2.234375 -15.875 C 1.984375 -15.640625 1.875 -15.34375 1.875 -15.03125 C 1.875 -14.703125 1.984375 -14.40625 2.234375 -14.1875 C 2.4375 -13.953125 2.734375 -13.84375 3.0625 -13.84375 C 3.375 -13.84375 3.671875 -13.953125 3.921875 -14.1875 C 4.125 -14.40625 4.265625 -14.703125 4.265625 -15.03125 C 4.265625 -15.34375 4.125 -15.640625 3.921875 -15.875 Z M 4.03125 0 L 4.03125 -11.796875 L 2.140625 -11.796875 L 2.140625 0 Z M 4.03125 0"></path></g></g></g><g fill-opacity="1" fill="#ff66c4"><g transform="translate(212.714746, 282.023859)"><g><path d="M 8.34375 -18.375 L 8.34375 -20.125 L 7 -20.125 C 5.65625 -20.125 4.71875 -19.765625 4.15625 -19.125 C 3.59375 -18.484375 3.328125 -17.546875 3.328125 -16.359375 L 3.328125 -11.796875 L 0.9375 -11.796875 L 0.9375 -10.0625 L 3.328125 -10.0625 L 3.328125 0 L 5.203125 0 L 5.203125 -10.0625 L 8.34375 -10.0625 L 8.34375 -11.796875 L 5.203125 -11.796875 L 5.203125 -16.90625 C 5.203125 -17.296875 5.28125 -17.65625 5.5 -17.953125 C 5.6875 -18.21875 6.09375 -18.375 6.734375 -18.375 Z M 8.34375 -18.375"></path></g></g></g><g fill-opacity="1" fill="#ff66c4"><g transform="translate(227.228874, 282.023859)"><g><path d="M 0.53125 -10.0625 L 3.484375 -10.0625 L 3.484375 0 L 5.359375 0 L 5.359375 -10.0625 L 8.296875 -10.0625 L 8.296875 -11.796875 L 5.359375 -11.796875 L 5.359375 -16.390625 L 3.484375 -16.390625 L 3.484375 -11.796875 L 0.53125 -11.796875 Z M 0.53125 -10.0625"></path></g></g></g><g fill-opacity="1" fill="#ff66c4"><g transform="translate(241.421104, 282.023859)"><g></g></g></g><g fill-opacity="1" fill="#ff66c4"><g transform="translate(254.030707, 282.023859)"><g><path d="M 7.0625 -8.578125 C 9.421875 -8.015625 11.03125 -7.40625 11.890625 -6.703125 C 12.46875 -6.21875 12.765625 -5.609375 12.765625 -4.859375 C 12.765625 -4.109375 12.609375 -3.484375 12.28125 -3.0625 C 11.484375 -1.9375 10.03125 -1.375 8 -1.375 C 5.15625 -1.375 3.546875 -2.328125 3.1875 -4.265625 L 1 -4.265625 C 1.640625 -1.1875 3.96875 0.34375 8 0.34375 C 9.796875 0.34375 11.296875 -0.03125 12.5 -0.828125 C 13.953125 -1.765625 14.703125 -3.171875 14.703125 -4.984375 C 14.703125 -6.5 14.109375 -7.640625 12.9375 -8.453125 C 12.09375 -9.046875 10.765625 -9.578125 8.90625 -10.0625 C 7.03125 -10.546875 5.828125 -10.953125 5.265625 -11.234375 C 4.03125 -11.859375 3.40625 -12.71875 3.4375 -13.84375 C 3.4375 -14.4375 3.546875 -14.9375 3.8125 -15.3125 C 4.5 -16.359375 5.734375 -16.90625 7.515625 -16.90625 C 10 -16.90625 11.421875 -16.09375 11.796875 -14.546875 L 13.84375 -14.546875 C 13.171875 -17.171875 11.046875 -18.515625 7.515625 -18.515625 C 5.90625 -18.515625 4.484375 -18.078125 3.296875 -17.21875 C 2.09375 -16.359375 1.46875 -15.109375 1.46875 -13.390625 C 1.46875 -11.046875 3.359375 -9.4375 7.0625 -8.578125 Z M 7.0625 -8.578125"></path></g></g></g><g fill-opacity="1" fill="#ff66c4"><g transform="translate(274.794866, 282.023859)"><g><path d="M 0.53125 -10.0625 L 3.484375 -10.0625 L 3.484375 0 L 5.359375 0 L 5.359375 -10.0625 L 8.296875 -10.0625 L 8.296875 -11.796875 L 5.359375 -11.796875 L 5.359375 -16.390625 L 3.484375 -16.390625 L 3.484375 -11.796875 L 0.53125 -11.796875 Z M 0.53125 -10.0625"></path></g></g></g><g fill-opacity="1" fill="#ff66c4"><g transform="translate(288.987095, 282.023859)"><g><path d="M 11.671875 -5.953125 C 11.671875 -4.78125 11.234375 -3.78125 10.40625 -2.953125 C 9.546875 -2.09375 8.5625 -1.6875 7.375 -1.6875 C 6.203125 -1.6875 5.171875 -2.09375 4.34375 -2.953125 C 3.484375 -3.78125 3.078125 -4.78125 3.078125 -5.953125 C 3.078125 -7.140625 3.484375 -8.125 4.34375 -8.984375 C 5.171875 -9.8125 6.203125 -10.25 7.375 -10.25 C 8.5625 -10.25 9.546875 -9.8125 10.40625 -8.984375 C 11.234375 -8.125 11.671875 -7.140625 11.671875 -5.953125 Z M 13.546875 -5.953125 C 13.546875 -7.640625 12.9375 -9.09375 11.71875 -10.296875 C 10.515625 -11.515625 9.0625 -12.125 7.375 -12.125 C 5.65625 -12.125 4.21875 -11.515625 3 -10.296875 C 1.796875 -9.09375 1.203125 -7.640625 1.203125 -5.953125 C 1.203125 -4.234375 1.796875 -2.796875 3 -1.609375 C 4.21875 -0.40625 5.6875 0.1875 7.375 0.1875 C 9.046875 0.1875 10.515625 -0.40625 11.71875 -1.609375 C 12.9375 -2.796875 13.546875 -4.234375 13.546875 -5.953125 Z M 13.546875 -5.953125"></path></g></g></g><g fill-opacity="1" fill="#ff66c4"><g transform="translate(309.107478, 282.023859)"><g><path d="M 8.078125 -9.359375 L 8.078125 -11.796875 C 7.703125 -11.96875 7.296875 -12.046875 6.890625 -12.046875 C 5.546875 -12.046875 4.59375 -11.296875 3.96875 -9.84375 L 3.890625 -9.359375 L 3.890625 -11.796875 L 2.015625 -11.796875 L 2.015625 0 L 3.890625 0 L 3.890625 -5.90625 C 3.890625 -6.875 4.109375 -7.71875 4.5625 -8.5 C 4.78125 -8.90625 5.078125 -9.25 5.421875 -9.53125 C 5.765625 -9.796875 6.203125 -9.953125 6.6875 -9.953125 C 7.15625 -9.953125 7.625 -9.734375 8.078125 -9.359375 Z M 8.078125 -9.359375"></path></g></g></g><g fill-opacity="1" fill="#ff66c4"><g transform="translate(322.816881, 282.023859)"><g><path d="M 13.546875 -6.171875 C 13.546875 -7.78125 12.90625 -9.171875 11.671875 -10.375 C 10.46875 -11.53125 9.015625 -12.125 7.375 -12.125 C 5.65625 -12.125 4.21875 -11.515625 3 -10.296875 C 1.796875 -9.09375 1.203125 -7.640625 1.203125 -5.953125 C 1.203125 -4.234375 1.796875 -2.796875 3 -1.609375 C 3.5625 -1.046875 4.21875 -0.609375 4.96875 -0.296875 C 5.71875 0.03125 6.59375 0.1875 7.640625 0.1875 C 8.6875 0.1875 9.71875 -0.140625 10.734375 -0.78125 C 11.75 -1.421875 12.5 -2.328125 13.015625 -3.453125 L 10.859375 -3.453125 C 10.4375 -2.890625 9.921875 -2.46875 9.3125 -2.140625 C 8.6875 -1.828125 8.046875 -1.6875 7.375 -1.6875 C 6.359375 -1.6875 5.453125 -2.015625 4.640625 -2.6875 C 3.84375 -3.328125 3.328125 -4.15625 3.171875 -5.171875 L 13.546875 -5.171875 Z M 11.5625 -6.78125 L 3.1875 -6.78125 C 3.296875 -7.265625 3.484375 -7.71875 3.75 -8.15625 C 4.609375 -9.546875 5.828125 -10.25 7.375 -10.25 C 8.375 -10.25 9.25 -9.921875 10.03125 -9.28125 C 10.84375 -8.609375 11.328125 -7.78125 11.5625 -6.78125 Z M 11.5625 -6.78125"></path></g></g></g></svg>