<svg width="4069" height="1085" viewBox="0 0 4069 1085" fill="none" xmlns="http://www.w3.org/2000/svg">
<path d="M1071.6 773V341.6H1422.6C1437.4 341.6 1450.8 345.4 1462.8 353C1475.2 360.2 1485 370 1492.2 382.4C1499.8 394.4 1503.6 407.8 1503.6 422.6V541.4C1503.6 555.8 1499.8 569.2 1492.2 581.6C1485 594 1475.2 603.8 1462.8 611C1450.8 618.2 1437.4 621.8 1422.6 621.8L1143.6 622.4V773H1071.6ZM1154.4 549.2H1420.2C1423 549.2 1425.4 548.2 1427.4 546.2C1429.8 544.2 1431 541.6 1431 538.4V424.4C1431 421.6 1429.8 419.2 1427.4 417.2C1425.4 414.8 1423 413.6 1420.2 413.6H1154.4C1151.6 413.6 1149 414.8 1146.6 417.2C1144.6 419.2 1143.6 421.6 1143.6 424.4V538.4C1143.6 541.6 1144.6 544.2 1146.6 546.2C1149 548.2 1151.6 549.2 1154.4 549.2Z" fill="#F5F5F5"/>
<path d="M1895.41 773L1762.81 614.6H1857.01L1976.41 756.2V773H1895.41ZM1546.21 773V341.6H1897.21C1912.01 341.6 1925.41 345.4 1937.41 353C1949.81 360.2 1959.61 370 1966.81 382.4C1974.41 394.4 1978.21 407.8 1978.21 422.6V541.4C1978.21 555.8 1974.41 569.2 1966.81 581.6C1959.61 594 1949.81 603.8 1937.41 611C1925.41 618.2 1912.01 621.8 1897.21 621.8L1618.21 622.4V773H1546.21ZM1629.01 549.2H1894.81C1897.61 549.2 1900.01 548.2 1902.01 546.2C1904.41 544.2 1905.61 541.6 1905.61 538.4V424.4C1905.61 421.6 1904.41 419.2 1902.01 417.2C1900.01 414.8 1897.61 413.6 1894.81 413.6H1629.01C1626.21 413.6 1623.61 414.8 1621.21 417.2C1619.21 419.2 1618.21 421.6 1618.21 424.4V538.4C1618.21 541.6 1619.21 544.2 1621.21 546.2C1623.61 548.2 1626.21 549.2 1629.01 549.2Z" fill="#F5F5F5"/>
<path d="M2121.13 773C2106.33 773 2092.73 769.4 2080.33 762.2C2067.93 755 2058.13 745.2 2050.93 732.8C2043.73 720.4 2040.13 706.8 2040.13 692V422C2040.13 407.2 2043.73 393.6 2050.93 381.2C2058.13 368.8 2067.93 359 2080.33 351.8C2092.73 344.6 2106.33 341 2121.13 341H2391.13C2405.93 341 2419.33 344.6 2431.33 351.8C2443.73 359 2453.53 368.8 2460.73 381.2C2468.33 393.6 2472.13 407.2 2472.13 422V692C2472.13 706.8 2468.33 720.4 2460.73 732.8C2453.53 745.2 2443.73 755 2431.33 762.2C2419.33 769.4 2405.93 773 2391.13 773H2121.13ZM2122.93 700.4H2388.73C2391.53 700.4 2393.93 699.4 2395.93 697.4C2398.33 695.4 2399.53 692.8 2399.53 689.6V424.4C2399.53 421.2 2398.33 418.6 2395.93 416.6C2393.93 414.6 2391.53 413.6 2388.73 413.6H2122.93C2120.13 413.6 2117.53 414.6 2115.13 416.6C2113.13 418.6 2112.13 421.2 2112.13 424.4V689.6C2112.13 692.8 2113.13 695.4 2115.13 697.4C2117.53 699.4 2120.13 700.4 2122.93 700.4Z" fill="#F5F5F5"/>
<path d="M2616.8 773C2602 773 2588.4 769.4 2576 762.2C2564 755 2554.4 745.2 2547.2 732.8C2540 720.4 2536.4 706.8 2536.4 692V663.2H2608.4V689.6C2608.4 692.8 2609.4 695.4 2611.4 697.4C2613.4 699.4 2616 700.4 2619.2 700.4H2884.4C2887.6 700.4 2890.2 699.4 2892.2 697.4C2894.6 695.4 2895.8 692.8 2895.8 689.6V603.8C2895.8 601 2894.6 598.6 2892.2 596.6C2890.2 594.2 2887.6 593 2884.4 593H2616.8C2602 593 2588.4 589.4 2576 582.2C2564 575 2554.4 565.4 2547.2 553.4C2540 541 2536.4 527.4 2536.4 512.6V422C2536.4 407.2 2540 393.6 2547.2 381.2C2554.4 368.8 2564 359 2576 351.8C2588.4 344.6 2602 341 2616.8 341H2887.4C2902.2 341 2915.6 344.6 2927.6 351.8C2940 359 2949.8 368.8 2957 381.2C2964.6 393.6 2968.4 407.2 2968.4 422V450.8H2895.8V424.4C2895.8 421.2 2894.6 418.6 2892.2 416.6C2890.2 414.6 2887.6 413.6 2884.4 413.6H2619.2C2616 413.6 2613.4 414.6 2611.4 416.6C2609.4 418.6 2608.4 421.2 2608.4 424.4V510.2C2608.4 513 2609.4 515.6 2611.4 518C2613.4 520 2616 521 2619.2 521H2887.4C2902.2 521 2915.6 524.6 2927.6 531.8C2940 539 2949.8 548.8 2957 561.2C2964.6 573.2 2968.4 586.6 2968.4 601.4V692C2968.4 706.8 2964.6 720.4 2957 732.8C2949.8 745.2 2940 755 2927.6 762.2C2915.6 769.4 2902.2 773 2887.4 773H2616.8Z" fill="#F5F5F5"/>
<path d="M3033.32 773V341.6H3384.32C3399.12 341.6 3412.52 345.4 3424.52 353C3436.92 360.2 3446.72 370 3453.92 382.4C3461.52 394.4 3465.32 407.8 3465.32 422.6V541.4C3465.32 555.8 3461.52 569.2 3453.92 581.6C3446.72 594 3436.92 603.8 3424.52 611C3412.52 618.2 3399.12 621.8 3384.32 621.8L3105.32 622.4V773H3033.32ZM3116.12 549.2H3381.92C3384.72 549.2 3387.12 548.2 3389.12 546.2C3391.52 544.2 3392.72 541.6 3392.72 538.4V424.4C3392.72 421.6 3391.52 419.2 3389.12 417.2C3387.12 414.8 3384.72 413.6 3381.92 413.6H3116.12C3113.32 413.6 3110.72 414.8 3108.32 417.2C3106.32 419.2 3105.32 421.6 3105.32 424.4V538.4C3105.32 541.6 3106.32 544.2 3108.32 546.2C3110.72 548.2 3113.32 549.2 3116.12 549.2Z" fill="#F5F5F5"/>
<path d="M3503.13 773V341H3574.53V773H3503.13Z" fill="#F5F5F5"/>
<path d="M3636.25 773V341H3718.45L3995.65 671V341H4068.25V773H3986.05L3708.25 442.4V773H3636.25Z" fill="#F5F5F5"/>
<path d="M0 175.515H446.809L0 622.279V175.515Z" fill="#E2550A"/>
<path d="M0 638.235H446.809L0 1085V638.235Z" fill="#E2550A"/>
<path d="M750 909.485H303.191L750 462.721V909.485Z" fill="#E2550A"/>
<path d="M750 446.765H303.191L750 0V446.765Z" fill="#E2550A"/>
</svg>
