<svg id="Capa_2" data-name="Capa 2" xmlns="http://www.w3.org/2000/svg" xmlns:xlink="http://www.w3.org/1999/xlink" viewBox="0 0 838.82 214.18" height="64px" width="250px">
                    <defs>
                      <style>
                        .cls-1 {
                          fill: #1a171b;
                        }

                        .cls-1, .cls-2, .cls-3, .cls-4, .cls-5, .cls-6, .cls-7, .cls-8, .cls-9, .cls-10, .cls-11, .cls-12, .cls-13 {
                          stroke-width: 0px;
                        }

                        .cls-2 {
                          fill: url(#linear-gradient);
                        }

                        .rojotat {
                          fill: #e42522;
                        }

                        .cls-4 {
                          fill: #676666;
                        }

                        .cls-5 {
                          fill: url(#linear-gradient-4);
                        }

                        .cls-6 {
                          fill: url(#linear-gradient-2);
                        }

                        .cls-7 {
                          fill: url(#linear-gradient-3);
                        }

                        .cls-8 {
                          fill: url(#linear-gradient-8);
                        }

                        .cls-9 {
                          fill: url(#linear-gradient-7);
                        }

                        .cls-10 {
                          fill: url(#linear-gradient-5);
                        }

                        .cls-11 {
                          fill: url(#linear-gradient-6);
                        }

                        .cls-12 {
                          fill: #fff;
                        }

                        .cls-13 {
                          fill: #b60f1d;
                        }
                      </style>
                      <linearGradient id="linear-gradient" x1="15.35" y1="181.57" x2="99.03" y2="2.11" gradientUnits="userSpaceOnUse">
                        <stop offset="0" stop-color="#494d4f"></stop>
                        <stop offset=".03" stop-color="#666e71"></stop>
                        <stop offset=".42" stop-color="#c8c8c8"></stop>
                        <stop offset=".47" stop-color="#c2c3c3"></stop>
                        <stop offset=".54" stop-color="#b3b5b6"></stop>
                        <stop offset=".61" stop-color="#9b9ea0"></stop>
                        <stop offset=".68" stop-color="#787f81"></stop>
                        <stop offset=".71" stop-color="#666e71"></stop>
                        <stop offset=".74" stop-color="#fff"></stop>
                        <stop offset=".77" stop-color="#71787b"></stop>
                        <stop offset=".91" stop-color="#e1e2e3"></stop>
                        <stop offset="1" stop-color="#90989f"></stop>
                      </linearGradient>
                      <linearGradient id="linear-gradient-2" x1="38.92" y1="18.1" x2="201.45" y2="180.62" gradientUnits="userSpaceOnUse">
                        <stop offset="0" stop-color="#666e71"></stop>
                        <stop offset=".02" stop-color="#798083"></stop>
                        <stop offset=".08" stop-color="#a9adaf"></stop>
                        <stop offset=".13" stop-color="#ced0d1"></stop>
                        <stop offset=".18" stop-color="#e9eaea"></stop>
                        <stop offset=".23" stop-color="#f9f9f9"></stop>
                        <stop offset=".26" stop-color="#fff"></stop>
                        <stop offset=".71" stop-color="#90989f"></stop>
                        <stop offset="1" stop-color="#221f1f"></stop>
                      </linearGradient>
                      <linearGradient id="linear-gradient-3" x1="30.08" y1="193.57" x2="99.34" y2="-19.59" gradientUnits="userSpaceOnUse">
                        <stop offset="0" stop-color="#221f1f"></stop>
                        <stop offset=".12" stop-color="#666e71"></stop>
                        <stop offset=".22" stop-color="#c8c8c8"></stop>
                        <stop offset=".43" stop-color="#c6c6c6"></stop>
                        <stop offset=".5" stop-color="#bfc0c0"></stop>
                        <stop offset=".55" stop-color="#b3b5b5"></stop>
                        <stop offset=".6" stop-color="#a2a5a6"></stop>
                        <stop offset=".63" stop-color="#8c9193"></stop>
                        <stop offset=".67" stop-color="#72797b"></stop>
                        <stop offset=".68" stop-color="#666e71"></stop>
                        <stop offset=".72" stop-color="#515557"></stop>
                        <stop offset=".74" stop-color="#fff"></stop>
                        <stop offset=".77" stop-color="#585d5f"></stop>
                        <stop offset=".77" stop-color="#71787b"></stop>
                        <stop offset=".78" stop-color="#848a8d"></stop>
                        <stop offset=".8" stop-color="#abaeb0"></stop>
                        <stop offset=".82" stop-color="#c9cbcc"></stop>
                        <stop offset=".84" stop-color="#dedfe0"></stop>
                        <stop offset=".86" stop-color="#ebebeb"></stop>
                        <stop offset=".88" stop-color="#f0f0f0"></stop>
                        <stop offset="1" stop-color="#697174"></stop>
                      </linearGradient>
                      <linearGradient id="linear-gradient-4" x1="36.28" y1="110.27" x2="214.1" y2="110.27" gradientUnits="userSpaceOnUse">
                        <stop offset="0" stop-color="#8c9293"></stop>
                        <stop offset=".24" stop-color="#fff"></stop>
                        <stop offset=".45" stop-color="#666e71"></stop>
                        <stop offset=".68" stop-color="#e6e7e8"></stop>
                        <stop offset=".86" stop-color="#90989f"></stop>
                        <stop offset="1" stop-color="#221f1f"></stop>
                      </linearGradient>
                      <linearGradient id="linear-gradient-5" x1="61.84" y1="112.56" x2="198.21" y2="112.56" xlink:href="#linear-gradient-4"></linearGradient>
                      <linearGradient id="linear-gradient-6" x1="109.5" y1="195.97" x2="139.7" y2="24.72" gradientUnits="userSpaceOnUse">
                        <stop offset="0" stop-color="#c90e1d"></stop>
                        <stop offset=".39" stop-color="#e74e4e"></stop>
                        <stop offset="1" stop-color="#e42522"></stop>
                      </linearGradient>
                      <linearGradient id="linear-gradient-7" x1="109.73" y1="190.46" x2="138.85" y2="25.31" gradientUnits="userSpaceOnUse">
                        <stop offset="0" stop-color="#a4331b"></stop>
                        <stop offset=".51" stop-color="#e42522"></stop>
                        <stop offset="1" stop-color="#c9231c"></stop>
                      </linearGradient>
                      <linearGradient id="linear-gradient-8" x1="136.04" y1="26.94" x2="117.88" y2="129.92" gradientUnits="userSpaceOnUse">
                        <stop offset="0" stop-color="#f7c6c8"></stop>
                        <stop offset=".16" stop-color="#ef8e91"></stop>
                        <stop offset=".8" stop-color="#e42522"></stop>
                        <stop offset="1" stop-color="#e3211c"></stop>
                      </linearGradient>
                    </defs>
                    <g id="Capa_1-2" data-name="Capa 1">
                      <g>
                        <g>
                          <g>
                            <path class="cls-2" d="M15.39,145.07c.2,1.77.46,3.54.83,5.29,1.44,6.72,4.39,13.13,8.82,18.41,2.3,2.75,5.04,5.07,7.69,7.47,2.77,2.52,5.54,5.04,8.3,7.57,5.54,5.04,11.07,10.08,16.6,15.12,1.77,1.61,3.54,3.23,5.31,4.84-5.03-4.57-8.72-10.48-10.94-16.89-1.41-4.05-2.22-8.28-2.58-12.54-.05-.62-.1-1.24-.16-1.87-.1-1.26-.21-2.51-.31-3.76-.08-.99-3.41-41.14-6.44-77.79L7.24,74.71c3.82,33,8.09,69.81,8.16,70.36Z"></path>
                            <path class="cls-6" d="M211.85,40.28c-1.58-6.74-4.22-12.78-7.74-17.82-3.61-5.14-8.13-9.24-13.39-11.93-5.37-2.75-11.49-4.04-18.13-3.49L39.98,18.08c-.47.04-.92.19-1.32.42-.4.24-.75.56-1.03.95-.29.38-.5.83-.64,1.31-.14.49-.19,1.01-.15,1.55l12.6,152.19c.63,7.65,2.78,14.39,6.06,20.03,3.22,5.53,7.53,9.97,12.6,13.18,4.96,3.14,10.64,5.09,16.75,5.72,5.99.61,12.4-.06,18.97-2.15l97.63-31.03c.26-.08.52-.23.76-.42.24-.19.46-.42.65-.68.19-.27.35-.55.47-.86.12-.3.2-.62.23-.93l9.72-115.44c.65-7.73.12-15.03-1.43-21.64ZM91.19,194.63c-3.87-.52-7.44-1.9-10.53-4.01-3.13-2.15-5.75-5.06-7.68-8.63-1.95-3.61-3.18-7.87-3.47-12.67l-7.68-126.51,109.75-12.42c4.14-.47,8,.2,11.42,1.79,3.37,1.56,6.31,4.03,8.68,7.18,2.34,3.11,4.12,6.89,5.23,11.14,1.09,4.21,1.53,8.89,1.18,13.88l-7.19,103.21-87.51,25.96c-4.25,1.27-8.37,1.58-12.2,1.07Z"></path>
                            <path class="cls-7" d="M157.8,3.76c-7.41-.96-14.83-1.92-22.25-2.88-2-.26-4-.52-6.01-.78-2.5-.33-5.07.23-7.57.41-1.01.07-2.02.14-3.04.21-1.75.12-106.94,7.51-109.13,7.67-1.54.11-3.08.21-4.62.32-.77.06-1.54.11-2.31.16-.48.04-.93.13-1.36.37C.39,9.9-.12,11.26.02,12.52c.06.52.12,1.03.18,1.54.14,1.24.29,2.47.43,3.71.22,1.87.43,3.73.65,5.6.12,1.07,2.9,24.99,5.96,51.35l35.29,16.2c-2.53-30.57-4.86-58.7-4.94-59.66-.13-1.6-.26-3.2-.4-4.81-.08-1.02-.17-2.04-.25-3.05-.03-.36-.06-.71-.09-1.07-.16-1.94,1.07-4.06,3.15-4.23.15-.01.3-.03.44-.04.87-.07,1.74-.14,2.61-.22,1.56-.13,122.22-10.17,124.12-10.33,1.26-.11,2.52-.21,3.79-.32.53-.04,1.07-.09,1.6-.13,2.47-.21,5.04-.73,7.5-.41-7.41-.96-14.83-1.92-22.25-2.88Z"></path>
                            <path class="cls-5" d="M84.8,213.96c-6.18-.63-11.95-2.61-16.98-5.8h0c-5.14-3.25-9.51-7.77-12.78-13.36h0c-3.33-5.71-5.5-12.54-6.14-20.26h0L36.3,22.36c-.01-.14-.02-.28-.02-.42h0c0-.46.06-.91.18-1.33h0c.15-.55.4-1.06.73-1.5h0c.33-.44.73-.81,1.19-1.08h0c.46-.28.99-.45,1.55-.5h0L172.54,6.49c1.03-.09,2.04-.13,3.05-.13h0c5.57,0,10.75,1.3,15.38,3.67h0c5.35,2.74,9.94,6.9,13.59,12.1h0c3.57,5.1,6.24,11.21,7.83,18.01h0l-.53.12.53-.12c1.12,4.8,1.72,9.96,1.72,15.37h0c0,2.11-.09,4.25-.28,6.43h0l-9.72,115.44c-.03.38-.12.75-.26,1.09h0c-.14.34-.32.67-.54.97h0c-.22.3-.47.57-.75.79h0c-.28.23-.59.4-.93.51h0l-97.63,31.03c-5.07,1.61-10.06,2.39-14.84,2.39h0c-1.47,0-2.93-.07-4.36-.22h0ZM172.63,7.58L40.03,18.62c-.39.04-.75.15-1.09.35h0c-.33.19-.63.46-.87.8h0c-.24.33-.44.72-.55,1.14h0c-.09.33-.14.68-.14,1.03h0c0,.11,0,.22.01.32h0l12.6,152.18c.63,7.57,2.75,14.24,5.99,19.8h0c3.18,5.45,7.43,9.83,12.42,12.99h0c4.89,3.09,10.49,5.02,16.51,5.63h0c1.39.14,2.81.21,4.25.21h0c4.66,0,9.53-.76,14.5-2.34h0l97.63-31.03c.19-.06.39-.17.59-.32h0c.19-.15.38-.35.55-.57h0c.16-.23.3-.48.4-.73h0c.1-.26.17-.52.19-.78h0l9.72-115.45c.18-2.15.27-4.27.27-6.34h0c0-5.33-.58-10.41-1.69-15.12h0c-1.56-6.68-4.18-12.66-7.66-17.63h0c-3.56-5.07-8.02-9.11-13.19-11.76h0c-4.48-2.29-9.47-3.55-14.88-3.55h0c-.97,0-1.96.04-2.95.12h0ZM91.12,195.17l.07-.54-.07.54c-3.95-.53-7.61-1.94-10.77-4.1h0c-3.2-2.2-5.89-5.18-7.85-8.82h0c-1.99-3.68-3.23-8.03-3.53-12.89h0l-7.71-127.03,110.27-12.48c.89-.1,1.77-.15,2.64-.15h0c3.25,0,6.3.7,9.07,1.98h0c3.46,1.61,6.47,4.13,8.89,7.35h0c2.38,3.17,4.19,7.01,5.32,11.34h0c.86,3.3,1.31,6.88,1.31,10.67h0c0,1.11-.04,2.23-.12,3.37h0l-7.22,103.59-87.87,26.08c-3.02.89-5.97,1.33-8.81,1.33h0c-1.23,0-2.43-.08-3.61-.24h0ZM94.73,194.32c2.73,0,5.58-.41,8.5-1.28h0l87.14-25.86,7.17-102.84c.08-1.12.12-2.21.12-3.3h0c0-3.7-.45-7.19-1.28-10.39h0c-1.09-4.2-2.85-7.91-5.14-10.96h0c-2.32-3.09-5.19-5.49-8.47-7.01h0c-2.63-1.22-5.52-1.88-8.61-1.88h0c-.83,0-1.66.05-2.52.14h0l-109.24,12.36,7.65,125.99c.29,4.72,1.49,8.91,3.4,12.44h0c1.89,3.49,4.45,6.34,7.51,8.44h0c3.01,2.07,6.5,3.41,10.29,3.92h0c1.13.15,2.29.23,3.47.23h0Z"></path>
                            <path class="cls-10" d="M196.91,50.51c-1.1-4.25-2.89-8.04-5.23-11.14-2.37-3.15-5.31-5.62-8.68-7.18-3.41-1.59-7.27-2.26-11.42-1.79l-109.75,12.42.05.89,7.63,125.62c.29,4.79,1.52,9.06,3.47,12.67,1.92,3.56,4.55,6.48,7.68,8.63,3.09,2.11,6.66,3.49,10.53,4.01,3.82.51,7.94.19,12.2-1.07l85.58-25.39,1.93-.57,7.19-103.21c.35-4.98-.09-9.67-1.18-13.88Z"></path>
                            <g>
                              <path class="cls-13" d="M195.07,50.4c-1.11-4.26-2.89-8.04-5.23-11.15-2.37-3.15-5.31-5.61-8.68-7.18-3.42-1.59-7.27-2.25-11.42-1.79l-107.73,12.19.08,1.21,7.55,124.41c.29,4.79,1.52,9.06,3.47,12.67,1.92,3.56,4.55,6.48,7.68,8.63,3.08,2.12,6.66,3.49,10.53,4.01,3.82.51,7.95.19,12.19-1.07l85.54-25.38h.04s7.16-102.67,7.16-102.67c.34-4.98-.09-9.66-1.18-13.87Z"></path>
                              <path class="cls-11" d="M94.85,192.98c-1.16,0-2.33-.07-3.45-.23-3.77-.51-7.21-1.82-10.24-3.91-3.1-2.13-5.62-4.95-7.48-8.4-1.97-3.65-3.11-7.82-3.39-12.4l-7.55-124.4-.04-.59,107.11-12.12c.84-.1,1.69-.14,2.51-.14,3.01,0,5.89.63,8.56,1.87,3.25,1.51,6.08,3.86,8.43,6.98,2.31,3.08,4.04,6.75,5.12,10.92,1.11,4.25,1.5,8.85,1.16,13.66l-7.13,102.21-85.14,25.27c-2.85.84-5.7,1.28-8.47,1.28h0Z"></path>
                              <path class="cls-9" d="M94.63,186.9c-1.2.1-3.08.14-4.17.11l-.96-.13c-3.18-.42-6.08-1.53-8.63-3.28-2.61-1.79-4.73-4.18-6.31-7.1-1.71-3.17-2.6-8.7-2.6-8.7-.19-1.19-.41-3.14-.48-4.34l-7.11-117.1c-.07-1.2.85-2.3,2.04-2.43l102.76-11.89c1.19-.13,2.8-.3,3.58-.36h.68c2.46,0,4.82.51,6.99,1.53,2.69,1.25,5.05,3.21,7.03,5.84,2.02,2.68,3.53,5.92,4.49,9.62,1,3.86,1.03,10.28,1.03,10.28,0,1.2-.06,3.17-.14,4.37l-6.64,95.27c-.09,1.2-1.1,2.46-2.25,2.81l-81.98,23.95c-1.15.34-3.06.84-4.24,1.1l-3.09.47Z"></path>
                              <path class="cls-8" d="M91.01,124.32c-1.21.09-2.99.14-3.99.11l-.86-.12c-2.83-.38-5.42-1.36-7.68-2.91-2.32-1.6-4.21-3.73-5.62-6.33-1.56-2.89-2.34-7.79-2.34-7.79-.19-1.18-.4-3.14-.46-4.34l-2.86-54.63c-.06-1.2.86-2.29,2.06-2.43l100.69-11.66c1.2-.13,2.73-.29,3.41-.35h.6c2.14,0,4.18.45,6.07,1.32,2.36,1.1,4.44,2.84,6.2,5.17,1.84,2.46,3.23,5.43,4.12,8.85.95,3.64.98,9.58.98,9.58,0,1.2-.07,3.16-.16,4.37l-2.93,37.24c-.09,1.2-1.14,2.4-2.31,2.67l-88.17,19.91c-1.17.27-3.09.7-4.27.96l-2.47.38Z"></path>
                            </g>
                          </g>
                          <g>
                            <path class="cls-4" d="M128.21,84.24c.36-1.27.68-2.29,1-3.27-.21-1.29-.44-2.6-.7-3.91-.32-1.59-.58-2.68-.86-3.74-.55-2.04-3.47.34-7.63,4.21-5.47,5.14-12.27,8.81-19.74,11.57-7.46,2.78-14.69,4.3-21.36,3.56-5.05-.57-8.47-.69-8.15,1.52.17,1.15.38,2.31.73,3.96,6.59,31.24,24.29,51.1,39.7,44.68,5.52-2.28,10.04-7.51,13.33-14.65-.02-.09-.04-.18-.05-.27-2.16-12.07-.87-27.62,3.72-43.66ZM93.25,111.01c-2.71,1.87-5.71,2.35-8.06,1.54-1.54-.53-1.04-1.2.63-1.94,1.65-.73,3.39-2.14,5.36-3.5,1.98-1.35,3.89-2.44,5.23-3.76,1.36-1.33,2.11-1.52,1.8.27-.48,2.74-2.26,5.54-4.97,7.4ZM119.26,126.59c-3.62-.63-7.51.17-11,1.57-3.49,1.4-7.07,3.62-9.91,6.88-1.09,1.27-1.63,1.02-1.07-.67,1.74-5.26,5.57-10.08,9.85-11.79,4.29-1.7,9.36-.46,12.79,2.65,1.1.99.74,1.59-.66,1.35ZM122.12,98.37c-1.71,2.33-4.47,4.05-7.49,4.41-3.03.35-5.61-.75-7.05-2.74-.95-1.3-.24-1.67,1.44-1.49,1.65.17,3.7-.25,5.91-.51,2.2-.25,4.24-.29,5.93-.84,1.71-.56,2.4-.36,1.27,1.17ZM179.62,87.75c-6.79,2.36-13.91,2.72-21.16,1.89-7.25-.84-13.73-2.78-18.72-6.57-3.78-2.89-6.48-4.61-7.25-2.42-.4,1.13-.77,2.29-1.26,3.98-9.17,32.21-4.26,59.69,10.75,60.96,14.96,1.19,34.82-23.41,44.57-54.55.51-1.62.84-2.76,1.13-3.87.55-2.14-2.91-1.2-8.05.58ZM136.42,101.16c2.45-1.43,5.45-1.77,8.02-.67,2.57,1.09,4.1,3.34,4.31,5.88.15,1.68-.59,1.69-1.84.75-1.22-.93-3.05-1.48-4.92-2.26-1.87-.79-3.5-1.7-5.11-1.97-1.62-.27-2.07-.79-.47-1.73ZM158.73,126.73c-3.81,4.13-9.06,6.91-13.2,6.54-4.15-.38-7.56-3.97-8.83-8.62-.41-1.49.16-1.9,1.15-.99,2.57,2.35,5.99,3.44,9.38,3.76,3.39.32,7.24-.1,10.98-1.83,1.45-.67,1.75-.18.53,1.13ZM170.89,106.5c-1.64-.08-3.68.43-5.88.79-2.19.35-4.22.49-5.89,1.1-1.7.63-2.39.46-1.29-1.07,1.67-2.33,4.39-4.12,7.41-4.59,3.02-.48,5.61.46,7.07,2.28.96,1.19.25,1.57-1.42,1.49Z"></path>
                            <path class="cls-12" d="M127.54,83.69c.36-1.26.68-2.29,1-3.27-.21-1.3-.44-2.6-.7-3.91-.32-1.59-.58-2.68-.86-3.74-.55-2.03-3.47.35-7.62,4.22-5.47,5.14-12.27,8.81-19.74,11.57-7.46,2.78-14.69,4.3-21.35,3.56-5.05-.57-8.47-.69-8.15,1.52.17,1.15.38,2.31.73,3.96,6.59,31.25,24.29,51.1,39.7,44.67,5.52-2.28,10.04-7.51,13.33-14.64-.02-.09-.03-.18-.05-.27-2.17-12.07-.86-27.62,3.72-43.66ZM92.58,110.45c-2.71,1.87-5.71,2.34-8.06,1.54-1.54-.53-1.04-1.2.63-1.94,1.65-.73,3.39-2.15,5.37-3.5,1.98-1.35,3.89-2.44,5.23-3.76,1.36-1.33,2.11-1.53,1.79.27-.48,2.74-2.26,5.54-4.97,7.4ZM118.58,126.03c-3.62-.63-7.51.16-11,1.56-3.48,1.41-7.08,3.63-9.91,6.89-1.09,1.27-1.63,1.02-1.07-.67,1.74-5.25,5.57-10.08,9.86-11.79,4.28-1.7,9.35-.46,12.79,2.65,1.1.99.74,1.59-.67,1.35ZM121.45,97.81c-1.71,2.33-4.47,4.06-7.49,4.41-3.02.36-5.61-.75-7.05-2.73-.95-1.3-.23-1.67,1.44-1.49,1.65.17,3.7-.25,5.91-.51,2.2-.25,4.24-.29,5.93-.84,1.71-.56,2.4-.36,1.27,1.17ZM178.95,87.19c-6.79,2.36-13.92,2.71-21.16,1.89-7.25-.84-13.74-2.78-18.72-6.57-3.78-2.89-6.48-4.6-7.25-2.42-.4,1.13-.77,2.29-1.26,3.98-9.17,32.2-4.27,59.68,10.75,60.96,14.96,1.19,34.82-23.41,44.57-54.55.52-1.62.84-2.76,1.13-3.87.55-2.14-2.9-1.2-8.05.58ZM135.75,100.6c2.45-1.42,5.45-1.77,8.02-.67,2.57,1.08,4.09,3.34,4.31,5.89.14,1.67-.6,1.68-1.84.75-1.22-.93-3.05-1.47-4.92-2.26-1.87-.79-3.5-1.7-5.11-1.97-1.62-.28-2.08-.79-.47-1.73ZM158.06,126.17c-3.81,4.13-9.06,6.92-13.2,6.54-4.15-.37-7.56-3.97-8.83-8.62-.41-1.49.16-1.9,1.15-.99,2.56,2.35,5.99,3.44,9.38,3.76,3.38.31,7.23-.09,10.97-1.83,1.45-.67,1.75-.19.53,1.13ZM170.22,105.95c-1.64-.08-3.68.43-5.88.78-2.19.35-4.22.49-5.89,1.11-1.7.62-2.38.46-1.29-1.07,1.67-2.33,4.4-4.11,7.41-4.59,3.02-.47,5.61.46,7.07,2.28.96,1.19.25,1.57-1.42,1.49Z"></path>
                          </g>
                        </g>
                        <g>
                          <path class="cls-1" d="M320.07,84.62h-19.05v72.79h-17.59v-72.79h-19.05v-14.41h55.69v14.41Z"></path>
                          <path class="cls-1" d="M311.16,109.66c.89-4.31,2.36-7.92,4.4-10.81,2.03-2.89,4.7-5.09,8-6.59,3.3-1.51,7.35-2.26,12.15-2.26,5.05-.08,9.24.59,12.58,2.02,3.33,1.42,5.98,3.6,7.94,6.53,1.95,2.93,3.34,6.55,4.15,10.87.81,4.32,1.22,9.36,1.22,15.14s-.45,10.58-1.34,14.9c-.89,4.32-2.36,7.92-4.4,10.81-2.04,2.89-4.7,5.03-8,6.41-3.3,1.38-7.35,2.08-12.15,2.08-5.05.08-9.24-.55-12.58-1.89-3.34-1.35-5.98-3.46-7.94-6.35-1.95-2.89-3.34-6.51-4.15-10.87-.82-4.35-1.22-9.38-1.22-15.08s.44-10.58,1.34-14.9ZM326.91,133.84c.16,2.85.55,5.29,1.16,7.33.61,2.04,1.53,3.62,2.75,4.76,1.22,1.14,2.85,1.71,4.88,1.71,3.42,0,5.78-1.79,7.08-5.37,1.3-3.58,1.96-9.48,1.96-17.71s-.65-14.12-1.96-17.71c-1.3-3.58-3.66-5.37-7.08-5.37-2.04,0-3.66.57-4.88,1.71-1.22,1.14-2.14,2.73-2.75,4.76-.61,2.04-1,4.48-1.16,7.33-.16,2.85-.24,5.95-.24,9.28s.08,6.43.24,9.28Z"></path>
                          <path class="cls-1" d="M397.98,150.45c-1.87,3.1-3.97,5.25-6.29,6.47-2.32,1.22-5.19,1.83-8.61,1.83-6.92,0-12.01-2.64-15.26-7.94-3.26-5.29-4.89-14.04-4.89-26.26s1.63-21.03,4.89-26.44c3.25-5.41,8.34-8.12,15.26-8.12,3.17,0,5.88.65,8.12,1.95,2.24,1.3,4.25,3.26,6.04,5.86h.25v-27.6h16.85v87.2h-16.12v-6.96h-.25ZM381.43,140.74c1.1,3.62,3.48,5.43,7.15,5.43s6.17-1.81,7.27-5.43c1.1-3.62,1.65-9.02,1.65-16.18s-.55-12.56-1.65-16.18c-1.1-3.62-3.52-5.43-7.27-5.43s-6.04,1.81-7.15,5.43c-1.1,3.62-1.65,9.02-1.65,16.18s.55,12.56,1.65,16.18Z"></path>
                          <path class="cls-1" d="M418.62,109.66c.89-4.31,2.36-7.92,4.39-10.81,2.04-2.89,4.7-5.09,8-6.59,3.29-1.51,7.34-2.26,12.15-2.26,5.05-.08,9.24.59,12.58,2.02,3.34,1.42,5.99,3.6,7.94,6.53,1.96,2.93,3.34,6.55,4.15,10.87.81,4.32,1.22,9.36,1.22,15.14s-.45,10.58-1.34,14.9c-.9,4.32-2.36,7.92-4.4,10.81-2.03,2.89-4.7,5.03-8,6.41-3.3,1.38-7.35,2.08-12.15,2.08-5.05.08-9.24-.55-12.58-1.89-3.34-1.35-5.98-3.46-7.94-6.35-1.96-2.89-3.34-6.51-4.15-10.87-.82-4.35-1.22-9.38-1.22-15.08s.45-10.58,1.34-14.9ZM434.38,133.84c.16,2.85.55,5.29,1.16,7.33.61,2.04,1.53,3.62,2.75,4.76,1.22,1.14,2.85,1.71,4.88,1.71,3.42,0,5.78-1.79,7.08-5.37,1.3-3.58,1.96-9.48,1.96-17.71s-.65-14.12-1.96-17.71c-1.3-3.58-3.66-5.37-7.08-5.37-2.04,0-3.66.57-4.88,1.71-1.22,1.14-2.14,2.73-2.75,4.76-.61,2.04-1,4.48-1.16,7.33-.17,2.85-.25,5.95-.25,9.28s.08,6.43.25,9.28Z"></path>
                          <path class="cls-1" d="M484.32,138.11c0,2.85.75,5.15,2.26,6.9,1.51,1.75,3.68,2.63,6.53,2.63,2.6,0,4.68-.65,6.23-1.95,1.54-1.3,2.32-3.25,2.32-5.86,0-2.12-.61-3.73-1.83-4.83-1.22-1.1-2.65-1.97-4.27-2.63l-11.85-4.27c-4.64-1.63-8.14-3.93-10.5-6.9-2.36-2.97-3.54-6.78-3.54-11.42,0-2.69.44-5.23,1.34-7.63.9-2.4,2.32-4.5,4.28-6.29,1.95-1.79,4.46-3.21,7.51-4.27,3.05-1.06,6.74-1.59,11.05-1.59,7.65,0,13.31,1.63,16.97,4.89,3.67,3.26,5.5,7.86,5.5,13.8v2.69h-15.14c0-3.42-.55-5.92-1.65-7.51-1.1-1.59-3.04-2.38-5.8-2.38-2.12,0-3.97.59-5.55,1.77-1.59,1.18-2.38,2.95-2.38,5.31,0,1.63.51,3.09,1.53,4.4,1.02,1.3,2.95,2.4,5.8,3.3l10.14,3.42c5.29,1.79,9.04,4.13,11.24,7.02,2.2,2.89,3.3,6.82,3.3,11.78,0,3.5-.61,6.53-1.83,9.1-1.22,2.57-2.91,4.7-5.07,6.41-2.16,1.71-4.72,2.93-7.69,3.66-2.97.73-6.25,1.1-9.83,1.1-4.72,0-8.65-.45-11.78-1.34-3.14-.9-5.62-2.24-7.45-4.03-1.83-1.79-3.12-3.97-3.85-6.53-.73-2.56-1.1-5.43-1.1-8.61v-2.32h15.14v2.2Z"></path>
                          <path class="rojotat" d="M525.39,121.49c0-2.92.46-5.35,1.4-7.3.93-1.95,2.19-3.54,3.77-4.75,1.58-1.21,3.44-2.08,5.58-2.61,2.14-.53,4.42-.79,6.84-.79,3.85,0,6.94.37,9.3,1.12,2.36.74,4.19,1.8,5.49,3.16,1.3,1.36,2.18,2.99,2.65,4.89.46,1.89.7,3.95.7,6.19v26.33c0,2.36.11,4.19.33,5.49.22,1.3.64,2.7,1.25,4.19h-12.28c-.43-.81-.76-1.66-.98-2.56-.22-.9-.42-1.78-.6-2.65h-.19c-1.49,2.6-3.21,4.3-5.16,5.07-1.95.77-4.48,1.16-7.58,1.16-2.23,0-4.12-.39-5.68-1.16-1.55-.78-2.79-1.85-3.72-3.21-.93-1.36-1.61-2.9-2.05-4.61-.43-1.71-.65-3.4-.65-5.07,0-2.35.25-4.39.74-6.09.5-1.7,1.26-3.16,2.28-4.37,1.02-1.21,2.33-2.22,3.91-3.02,1.58-.81,3.49-1.52,5.72-2.14l7.26-1.95c1.92-.5,3.26-1.18,4-2.05.75-.87,1.12-2.14,1.12-3.81,0-1.92-.45-3.43-1.35-4.51-.9-1.08-2.43-1.63-4.61-1.63-1.99,0-3.47.59-4.46,1.77-.99,1.18-1.49,2.76-1.49,4.75v1.4h-11.54v-1.21ZM546.05,134.01c-.99.4-1.89.7-2.7.88-2.61.56-4.46,1.49-5.58,2.79-1.12,1.3-1.68,3.07-1.68,5.3,0,1.92.37,3.57,1.12,4.93.74,1.36,1.98,2.05,3.72,2.05.87,0,1.77-.14,2.7-.42.93-.28,1.78-.73,2.56-1.35.78-.62,1.41-1.43,1.91-2.42.5-.99.75-2.17.75-3.54v-9.86c-.87.68-1.8,1.23-2.79,1.63Z"></path>
                          <path class="rojotat" d="M578.89,90.97v66.44h-12.84v-66.44h12.84Z"></path>
                          <path class="cls-1" d="M629.62,84.62h-19.05v72.79h-17.59v-72.79h-19.05v-14.41h55.69v14.41Z"></path>
                          <path class="cls-1" d="M635.98,132.37c0,1.96.14,3.85.42,5.68.29,1.83.75,3.46,1.41,4.89.65,1.43,1.51,2.56,2.57,3.42,1.06.85,2.36,1.28,3.91,1.28,2.85,0,4.92-1.02,6.23-3.05,1.3-2.03,2.2-5.13,2.69-9.28h15.14c-.33,7.66-2.36,13.48-6.11,17.47-3.75,3.99-9.65,5.98-17.71,5.98-6.11,0-10.87-1.02-14.29-3.05-3.42-2.03-5.95-4.72-7.57-8.06-1.63-3.34-2.62-7.08-2.99-11.23-.37-4.15-.55-8.3-.55-12.46,0-4.39.3-8.63.92-12.7.61-4.07,1.83-7.69,3.66-10.87,1.83-3.18,4.46-5.7,7.88-7.57,3.42-1.87,7.98-2.81,13.68-2.81,4.89,0,8.89.79,12.03,2.38,3.13,1.59,5.59,3.83,7.39,6.72,1.79,2.89,3.01,6.39,3.66,10.5.65,4.11.98,8.69.98,13.74v3.79h-33.34v5.25ZM652.71,110.45c-.24-1.91-.67-3.54-1.28-4.89-.61-1.34-1.47-2.36-2.57-3.05-1.1-.69-2.5-1.04-4.21-1.04s-3.12.39-4.21,1.16c-1.1.78-1.98,1.79-2.63,3.05-.65,1.26-1.12,2.67-1.41,4.21-.28,1.55-.42,3.1-.42,4.64v2.56h17.22c-.08-2.52-.25-4.74-.49-6.66Z"></path>
                          <path class="cls-1" d="M671.88,110.27c0-3.83.61-7.02,1.83-9.59,1.22-2.56,2.87-4.64,4.94-6.23,2.08-1.59,4.52-2.73,7.33-3.42,2.81-.69,5.8-1.04,8.98-1.04,5.05,0,9.12.49,12.21,1.47,3.1.98,5.5,2.36,7.21,4.15,1.71,1.79,2.87,3.93,3.48,6.41.61,2.48.92,5.19.92,8.12v34.56c0,3.1.14,5.5.43,7.21.29,1.71.83,3.54,1.65,5.5h-16.12c-.57-1.06-1-2.18-1.28-3.36-.29-1.18-.55-2.34-.79-3.48h-.25c-1.95,3.42-4.21,5.64-6.78,6.66-2.57,1.02-5.88,1.52-9.95,1.52-2.93,0-5.42-.51-7.45-1.52-2.04-1.02-3.66-2.42-4.88-4.21-1.22-1.79-2.12-3.81-2.69-6.04-.57-2.24-.85-4.46-.85-6.66,0-3.09.32-5.76.98-8,.65-2.24,1.65-4.15,2.99-5.74,1.34-1.59,3.05-2.91,5.13-3.97,2.08-1.06,4.58-1.99,7.51-2.81l9.52-2.57c2.52-.65,4.28-1.54,5.25-2.69.98-1.14,1.47-2.81,1.47-5.01,0-2.52-.59-4.5-1.77-5.92-1.18-1.42-3.2-2.14-6.05-2.14-2.61,0-4.56.77-5.86,2.32-1.3,1.55-1.95,3.62-1.95,6.23v1.83h-15.14v-1.59ZM698.99,126.7c-1.3.53-2.49.91-3.54,1.16-3.42.73-5.86,1.95-7.33,3.66-1.47,1.71-2.2,4.03-2.2,6.96,0,2.52.49,4.68,1.47,6.47.98,1.79,2.6,2.69,4.88,2.69,1.14,0,2.32-.18,3.54-.55,1.22-.37,2.34-.96,3.36-1.77,1.02-.81,1.85-1.87,2.5-3.17.65-1.3.98-2.85.98-4.64v-12.94c-1.14.9-2.36,1.61-3.66,2.14Z"></path>
                          <path class="cls-1" d="M745.15,72.9v18.81h9.77v11.48h-9.77v35.54c0,2.61.38,4.46,1.16,5.56.77,1.1,2.38,1.65,4.82,1.65.65,0,1.3-.02,1.96-.06.65-.04,1.26-.1,1.83-.18v11.72c-1.87,0-3.68.06-5.43.18-1.75.12-3.6.18-5.56.18-3.26,0-5.92-.23-8-.67-2.08-.45-3.66-1.34-4.76-2.69-1.1-1.34-1.85-3.11-2.26-5.31-.41-2.2-.61-4.97-.61-8.3v-37.61h-8.55v-11.48h8.55v-18.81h16.85Z"></path>
                          <path class="cls-1" d="M770.8,91.71v8.79h.24c1.71-3.17,3.79-5.72,6.23-7.63,2.44-1.91,5.41-2.87,8.91-2.87.49,0,1,.02,1.53.06.53.04,1.04.1,1.53.19v16.12c-.9-.08-1.77-.14-2.63-.18-.85-.04-1.73-.06-2.63-.06-1.46,0-2.93.2-4.39.61-1.46.41-2.81,1.08-4.03,2.01-1.22.94-2.2,2.16-2.93,3.66-.73,1.51-1.1,3.36-1.1,5.56v39.45h-16.85v-65.7h16.12Z"></path>
                          <path class="cls-1" d="M788.38,109.66c.89-4.31,2.36-7.92,4.4-10.81,2.03-2.89,4.7-5.09,8-6.59,3.3-1.51,7.35-2.26,12.15-2.26,5.04-.08,9.24.59,12.58,2.02,3.34,1.42,5.99,3.6,7.94,6.53,1.95,2.93,3.34,6.55,4.15,10.87.81,4.32,1.22,9.36,1.22,15.14s-.45,10.58-1.34,14.9c-.9,4.32-2.36,7.92-4.39,10.81-2.04,2.89-4.7,5.03-8,6.41-3.3,1.38-7.35,2.08-12.15,2.08-5.05.08-9.24-.55-12.58-1.89-3.34-1.35-5.98-3.46-7.94-6.35-1.96-2.89-3.34-6.51-4.15-10.87-.81-4.35-1.22-9.38-1.22-15.08s.45-10.58,1.34-14.9ZM804.13,133.84c.16,2.85.55,5.29,1.16,7.33.61,2.04,1.53,3.62,2.75,4.76,1.22,1.14,2.85,1.71,4.88,1.71,3.42,0,5.78-1.79,7.08-5.37,1.3-3.58,1.96-9.48,1.96-17.71s-.65-14.12-1.96-17.71c-1.3-3.58-3.66-5.37-7.08-5.37-2.04,0-3.66.57-4.88,1.71-1.22,1.14-2.14,2.73-2.75,4.76-.61,2.04-1,4.48-1.16,7.33-.17,2.85-.24,5.95-.24,9.28s.08,6.43.24,9.28Z"></path>
                        </g>
                      </g>
                    </g>
                  </svg>