<?xml version="1.0" encoding="UTF-8"?>
<svg id="Layer_2" data-name="Layer 2" xmlns="http://www.w3.org/2000/svg" viewBox="0 0 747.56 625.07">
  <defs>
    <style>
      .cls-1 {
        fill: #64cbff;
      }

      .cls-2 {
        fill: #1051c5;
      }
    </style>
  </defs>
  <g id="Layer_1-2" data-name="Layer 1">
    <g>
      <circle class="cls-1" cx="177.12" cy="581.52" r="43.55"/>
      <circle class="cls-1" cx="402.59" cy="581.52" r="43.55"/>
      <g>
        <path class="cls-1" d="M19.39,193.31l98.84-98.87c12.37-12.37,29.23-19.47,46.82-19.47h434.38l-74.9,216.07-8.99,26.2-19.09,54.66c-6.13,18.05-22.16,30.52-40.76,32.61-1.95.24-3.87.35-5.85.35H165.05c-17.59,0-34.84-7.11-47.17-19.44l-98.49-98.49c-25.85-25.85-25.85-67.8,0-93.61ZM103.73,244.48c12.09,0,23.66,2.75,33.55,8.81,10.42,6.03,19.79,15.4,26.37,26.37,6.03,9.89,9.34,21.98,8.78,34.07h9.37c0-12.65,3.27-24.74,9.34-34.63,5.5-10.42,14.84-19.23,25.82-25.26,9.34-6.06,20.9-9.37,33.55-9.37l.52-9.34c-12.61,0-24.18-3.31-34.07-9.34-10.97-6.03-19.79-14.84-25.82-25.85-6.06-9.86-8.81-21.43-8.81-33.51h-10.42c0,12.09-2.75,23.66-8.81,33.51-6.03,11.01-15.4,19.82-25.82,25.85-9.37,5.5-21.46,9.34-34.07,9.34l.52,9.34Z"/>
        <path class="cls-2" d="M103.21,235.15l.52,9.34c12.09,0,23.66,2.75,33.55,8.81,10.42,6.03,19.79,15.4,26.37,26.37,6.03,9.89,9.34,21.98,8.78,34.07h9.37c0-12.65,3.27-24.74,9.34-34.63,5.5-10.42,14.84-19.23,25.82-25.26,9.34-6.06,20.9-9.37,33.55-9.37l.52-9.34c-12.61,0-24.18-3.31-34.07-9.34-10.97-6.03-19.79-14.84-25.82-25.85-6.06-9.86-8.81-21.43-8.81-33.51h-10.42c0,12.09-2.75,23.66-8.81,33.51-6.03,11.01-15.4,19.82-25.82,25.85-9.37,5.5-21.46,9.34-34.07,9.34Z"/>
      </g>
      <path class="cls-2" d="M88.33,581.52C39.63,581.52,0,541.9,0,493.19s39.63-88.34,88.33-88.34h353.87c25.47,0,48.16-16.18,56.47-40.26l106.11-308.21c11.63-33.72,43.4-56.38,79.05-56.38h36.73c14.88,0,26.99,12.11,26.99,26.99s-12.11,26.99-26.99,26.99h-36.73c-12.63,0-23.89,8.03-28.02,19.99l-106.11,308.19c-15.79,45.86-58.99,76.67-107.5,76.67H88.33c-18.94,0-34.35,15.41-34.35,34.35s15.41,34.35,34.35,34.35h421.59c14.88,0,26.99,12.11,26.99,26.99s-12.11,26.99-26.99,26.99H88.33Z"/>
    </g>
  </g>
</svg>