<?xml version="1.0" encoding="UTF-8"?>
<svg id="Layer_2" xmlns="http://www.w3.org/2000/svg" viewBox="0 0 191.21 191.21">
  <defs>
    <style>
      .cls-1 {
        fill: #f26225;
      }

      .cls-2 {
        fill: #fff;
      }
    </style>
  </defs>
  <g id="Layer_2-2" data-name="Layer_2">
    <circle class="cls-1" cx="95.61" cy="95.61" r="95.61"/>
    <path d="M163.21,28c37.34,37.34,37.34,97.87,0,135.21s-97.87,37.34-135.21,0"/>
    <path class="cls-2" d="M97.22,57.48c-2.32-.14-3.94-.25-5.94-.37v-24.44h44.6v23.72c-.31.27-.59.68-.79.65-5.72-.98-7.66,2.54-9.65,7.07-10.86,24.82-22.05,49.5-32.98,74.29-1.34,3.05-2.8,4.65-6.42,4.31-4.07-.38-8.21-.29-12.29-.02-3.15.21-4.5-1.05-5.74-3.86-10.72-24.35-21.66-48.6-32.47-72.91-2.32-5.22-3.85-11.22-12.1-8.36v-24.86h47.29v24.17c-1.63.21-3.34.43-5.74.74,5.23,13.58,10.38,26.96,16.06,41.74,5.66-14.66,10.79-27.94,16.16-41.87Z"/>
    <path class="cls-1" d="M170.46,106.42h-57.35c-2.59,0-4.01.59-4.95,1.53-1.06,1.06-1.65,2.48-1.65,4.13,0,1.77.83,3.3,2,4.25.94.83,2.12,1.18,4.6,1.18h35.05c8.97,0,14.99,2.83,19.23,7.2,4.25,4.37,6.84,10.26,6.84,16.52,0,5.78-2.24,11.33-5.9,15.58-4.37,5.07-10.74,8.26-20.18,8.26h-61.83v-20.41h58.05c3.3,0,4.95-.71,6.02-2.01.83-.94,1.3-2.24,1.3-3.66,0-1.65-.59-3.19-1.65-4.25-1.06-1.18-2.59-1.77-5.66-1.77h-32.45c-10.62,0-16.75-2.83-21-7.2-4.25-4.37-6.73-10.15-6.73-16.64s2.59-12.27,6.84-16.64c4.25-4.37,10.26-7.2,20.88-7.2h58.53v21.12Z"/>
  </g>
</svg>