<svg id="Layer_1" data-name="Layer 1" xmlns="http://www.w3.org/2000/svg" xmlns:xlink="http://www.w3.org/1999/xlink" width="400" height="120.764" viewBox="0 0 400 120.764"><defs><clipPath id="clip-path"><rect x="52.601" y="78.456" width="29.818" height="42.308" fill="none"/></clipPath><clipPath id="clip-path-2"><rect x="71.41" y="27.535" width="17.701" height="45.416" fill="none"/></clipPath><clipPath id="clip-path-3"><rect y="67.446" width="16.819" height="53.318" fill="none"/></clipPath></defs><path d="M203.6,102.93c15.573,0,27.231-11.473,27.231-26.672S219.17,49.681,203.6,49.681s-27.231,11.375-27.231,26.577S188.024,102.93,203.6,102.93Zm0-12.871c-7.834,0-13.43-5.593-13.43-13.8,0-8.113,5.6-13.8,13.43-13.8s13.43,5.687,13.43,13.8C217.027,84.466,211.431,90.059,203.6,90.059Z" fill="#041e42"/><path d="M264.493,102.93c15.572,0,27.23-11.473,27.23-26.672s-11.658-26.577-27.23-26.577-27.231,11.375-27.231,26.577S248.92,102.93,264.493,102.93Zm0-12.871c-7.834,0-13.43-5.593-13.43-13.8,0-8.113,5.6-13.8,13.43-13.8s13.43,5.687,13.43,13.8C277.923,84.466,272.326,90.059,264.493,90.059Z" fill="#041e42"/><path d="M338.445,32.986v20.89a23.9,23.9,0,0,0-13.8-4.195c-15.3,0-26.486,11.375-26.486,26.672,0,15.2,11.189,26.671,26.486,26.671A24.128,24.128,0,0,0,340.4,97.333l1.587,4.2H352.06V32.986ZM325.763,90.153a13.407,13.407,0,0,1-13.71-13.8,13.708,13.708,0,1,1,27.416,0A13.406,13.406,0,0,1,325.763,90.153Z" fill="#041e42"/><path d="M378.831,102.93c12.776,0,21.169-6.716,21.169-16.975,0-12.308-10.539-13.986-18.743-15.478-5.223-.934-9.516-1.773-9.516-5.128,0-2.891,2.521-4.758,6.716-4.758,4.757,0,7.554,1.957,7.648,5.967h12.962c-.1-10.071-8.114-16.877-20.236-16.877S358.6,56.3,358.6,65.813c0,11.843,10.256,13.99,18.278,15.388,5.313.839,9.7,1.863,9.7,5.317,0,3.355-3.45,5.128-7.18,5.128-4.848,0-8.3-2.237-8.393-6.715H357.756C357.756,95.655,366.239,102.93,378.831,102.93Z" fill="#041e42"/><path d="M157,28.194,154.09,34.74a31.841,31.841,0,0,0-21.715-8.365A32.46,32.46,0,0,0,99.749,59.242a32.69,32.69,0,0,0,51.308,27.052v2.423c0,9.585-7.4,15.4-16.377,15.4-6.546,0-13.462-3.033-15.521-8.975H101.568c3.032,14.922,15.649,24.015,33.358,24.015,20.742,0,33.476-12.489,33.476-32.99V28.312Zm-22.56,48.029c-9.7,0-16.74-7.156-16.74-16.858,0-9.825,7.038-16.982,16.74-16.982S151.18,49.54,151.18,59.365C151.18,69.067,144.142,76.223,134.439,76.223Z" fill="#041e42"/><path d="M0,0V120.764H89.111V0ZM89.1,113.394a7.361,7.361,0,0,1-7.356,7.365H7.374a7.366,7.366,0,0,1-7.358-7.365V35.262A7.364,7.364,0,0,1,7.374,27.9H22.991V22.03a22,22,0,1,1,44,0V27.9H81.742A7.357,7.357,0,0,1,89.1,35.262Z" fill="none"/><path d="M81.742,27.9H66.987V22.03a22,22,0,1,0-44,0V27.9H7.374A7.364,7.364,0,0,0,.016,35.262v78.132a7.366,7.366,0,0,0,7.358,7.365H81.742a7.361,7.361,0,0,0,7.356-7.365V35.262A7.357,7.357,0,0,0,81.742,27.9Zm-24.544,0H32.775V23.318a12.212,12.212,0,1,1,24.423,0Z" fill="#ffbd27"/><path d="M52.437,27.894V77.015l-11.6,8.89a8.205,8.205,0,1,0,2.892,3.785l12.537-9.6a2.377,2.377,0,0,0,.937-1.893v-50.3ZM36.1,95.915a3.388,3.388,0,1,1,3.383-3.387A3.388,3.388,0,0,1,36.1,95.915Z" fill="#051e3d"/><g clip-path="url(#clip-path)"><path d="M74.021,78.737a8.131,8.131,0,0,0-7.627,10.992l-12.535,9.6a2.37,2.37,0,0,0-.937,1.891v19.532h4.76V102.4l11.6-8.884a8.146,8.146,0,1,0,4.736-14.777Zm0,11.54A3.387,3.387,0,1,1,77.4,86.891,3.386,3.386,0,0,1,74.021,90.277Z" fill="#041e42"/></g><path d="M32.852,56.459a8.089,8.089,0,0,0-4.731,1.533L16.517,49.1V27.894H11.759V50.281a2.372,2.372,0,0,0,.937,1.892l12.535,9.6a8.137,8.137,0,1,0,7.621-5.317Zm0,11.546a3.388,3.388,0,1,1,3.383-3.388A3.389,3.389,0,0,1,32.852,68.005Z" fill="#041e42"/><g clip-path="url(#clip-path-2)"><path d="M89.1,66.636v6L72.573,59.979a2.38,2.38,0,0,1-.932-1.891V27.9H76.4V56.913Z" fill="#041e42"/></g><g clip-path="url(#clip-path-3)"><path d="M16.517,81.522v39.233H11.759V82.7L.016,73.7v-6L15.588,79.624A2.4,2.4,0,0,1,16.517,81.522Z" fill="#041e42"/></g><circle cx="203.597" cy="76.305" r="7.975" fill="#ffbd27"/><circle cx="264.493" cy="76.351" r="7.975" fill="#ffbd27"/></svg>