<svg xmlns="http://www.w3.org/2000/svg" xmlns:xlink="http://www.w3.org/1999/xlink" width="1025" zoomAndPan="magnify" viewBox="0 0 768.75 599.999999" height="800" preserveAspectRatio="xMidYMid meet" version="1.0"><defs><clipPath id="258ff6c4c8"><path d="M 593 15.867188 L 714 15.867188 L 714 24 L 593 24 Z M 593 15.867188 " clip-rule="nonzero"/></clipPath><clipPath id="2b8f6cd2d7"><path d="M 597.765625 19.875 L 708.730469 19.875 L 708.730469 174.324219 L 597.765625 174.324219 Z M 597.765625 19.875 " clip-rule="nonzero"/></clipPath></defs><g clip-path="url(#258ff6c4c8)"><path fill="#545454" d="M 709.230469 15.867188 L 597.046875 15.867188 C 594.835938 15.867188 593.042969 17.660156 593.042969 19.871094 C 593.042969 22.085938 594.835938 23.878906 597.046875 23.878906 L 709.230469 23.878906 C 711.445312 23.878906 713.238281 22.085938 713.238281 19.871094 C 713.238281 17.660156 711.445312 15.867188 709.230469 15.867188 Z M 709.230469 15.867188 " fill-opacity="1" fill-rule="nonzero"/></g><g clip-path="url(#2b8f6cd2d7)"><path fill="#98bc13" d="M 597.765625 19.929688 L 597.765625 144.933594 L 653.246094 174.285156 L 708.726562 144.933594 L 708.726562 19.929688 L 597.765625 19.929688 " fill-opacity="1" fill-rule="nonzero"/></g><path fill="#ffffff" d="M 616.632812 101.710938 L 616.632812 63.503906 L 636.203125 63.503906 L 636.203125 69.925781 L 623.308594 69.925781 L 623.308594 79.5 L 634.480469 79.5 L 634.480469 85.945312 L 623.308594 85.945312 L 623.308594 95.289062 L 636.203125 95.289062 L 636.203125 101.710938 L 616.632812 101.710938 " fill-opacity="1" fill-rule="nonzero"/><path fill="#ffffff" d="M 648.503906 102.09375 L 646.128906 100.75 C 644.539062 99.851562 643.3125 98.539062 642.472656 96.851562 C 641.644531 95.1875 641.226562 93.175781 641.226562 90.875 L 641.226562 74.367188 C 641.226562 72.066406 641.644531 70.050781 642.472656 68.375 C 643.308594 66.679688 644.539062 65.363281 646.128906 64.46875 C 647.703125 63.574219 649.601562 63.121094 651.769531 63.121094 C 654.054688 63.121094 655.992188 63.574219 657.53125 64.46875 C 659.082031 65.375 660.265625 66.761719 661.050781 68.59375 C 661.816406 70.386719 662.222656 72.671875 662.257812 75.386719 L 662.265625 75.890625 L 655.484375 75.890625 L 655.480469 75.398438 C 655.464844 74.078125 655.300781 72.972656 654.996094 72.117188 C 654.707031 71.304688 654.292969 70.699219 653.761719 70.320312 C 653.234375 69.9375 652.5625 69.746094 651.769531 69.746094 C 650.996094 69.746094 650.320312 69.925781 649.761719 70.273438 C 649.199219 70.625 648.777344 71.125 648.476562 71.808594 C 648.164062 72.507812 648.003906 73.367188 648.003906 74.367188 L 648.003906 90.875 C 648.003906 91.855469 648.164062 92.710938 648.476562 93.410156 C 648.78125 94.089844 649.199219 94.59375 649.761719 94.941406 C 650.320312 95.289062 650.992188 95.46875 651.769531 95.46875 C 652.574219 95.46875 653.222656 95.28125 653.746094 94.898438 C 654.269531 94.515625 654.679688 93.914062 654.972656 93.109375 C 655.277344 92.261719 655.449219 91.148438 655.480469 89.8125 L 655.492188 89.324219 L 662.265625 89.324219 L 662.257812 89.832031 C 662.222656 92.542969 661.816406 94.828125 661.050781 96.621094 C 660.265625 98.453125 659.082031 99.839844 657.53125 100.746094 C 655.996094 101.640625 654.058594 102.09375 651.769531 102.09375 L 648.503906 102.09375 " fill-opacity="1" fill-rule="nonzero"/><path fill="#ffffff" d="M 678.851562 69.699219 C 677.96875 69.699219 677.195312 69.882812 676.558594 70.246094 C 675.917969 70.609375 675.453125 71.101562 675.125 71.75 C 674.792969 72.410156 674.625 73.210938 674.625 74.136719 L 674.625 91.054688 C 674.625 91.976562 674.796875 92.785156 675.125 93.453125 C 675.453125 94.109375 675.917969 94.601562 676.554688 94.953125 C 677.191406 95.3125 677.964844 95.492188 678.851562 95.492188 C 679.738281 95.492188 680.511719 95.3125 681.152344 94.953125 C 681.785156 94.601562 682.257812 94.109375 682.589844 93.449219 C 682.929688 92.78125 683.105469 91.972656 683.105469 91.054688 L 683.105469 74.136719 C 683.105469 73.214844 682.929688 72.414062 682.59375 71.753906 C 682.257812 71.101562 681.785156 70.609375 681.144531 70.246094 C 680.507812 69.882812 679.734375 69.699219 678.851562 69.699219 Z M 678.851562 102.09375 C 676.605469 102.09375 674.632812 101.65625 672.992188 100.792969 C 671.335938 99.925781 670.050781 98.652344 669.164062 97.007812 C 668.292969 95.382812 667.847656 93.429688 667.847656 91.207031 L 667.847656 74.007812 C 667.847656 71.785156 668.292969 69.832031 669.164062 68.195312 C 670.046875 66.542969 671.335938 65.269531 672.996094 64.40625 C 674.636719 63.554688 676.605469 63.121094 678.851562 63.121094 C 681.097656 63.121094 683.066406 63.554688 684.707031 64.40625 C 686.367188 65.269531 687.65625 66.542969 688.539062 68.195312 C 689.414062 69.832031 689.855469 71.789062 689.855469 74.007812 L 689.855469 91.207031 C 689.855469 93.429688 689.414062 95.378906 688.539062 97.007812 C 687.65625 98.652344 686.367188 99.925781 684.707031 100.792969 C 683.070312 101.65625 681.097656 102.09375 678.851562 102.09375 " fill-opacity="1" fill-rule="nonzero"/></svg>