<svg xmlns="http://www.w3.org/2000/svg" xmlns:xlink="http://www.w3.org/1999/xlink" width="1025" zoomAndPan="magnify" viewBox="0 0 768.75 599.999999" height="800" preserveAspectRatio="xMidYMid meet" version="1.0"><defs><clipPath id="5861d22573"><path d="M 573 15.207031 L 735 15.207031 L 735 25.703125 L 573 25.703125 Z M 573 15.207031 " clip-rule="nonzero"/></clipPath><clipPath id="97c33e0fa5"><path d="M 579.257812 20.597656 L 728.460938 20.597656 L 728.460938 229.777344 L 579.257812 229.777344 Z M 579.257812 20.597656 " clip-rule="nonzero"/></clipPath></defs><g clip-path="url(#5861d22573)"><path fill="#545454" d="M 729.480469 15.207031 L 578.59375 15.207031 C 575.617188 15.207031 573.203125 17.617188 573.203125 20.59375 C 573.203125 23.570312 575.617188 25.984375 578.59375 25.984375 L 729.480469 25.984375 C 732.457031 25.984375 734.871094 23.570312 734.871094 20.59375 C 734.871094 17.617188 732.457031 15.207031 729.480469 15.207031 Z M 729.480469 15.207031 " fill-opacity="1" fill-rule="nonzero"/></g><g clip-path="url(#97c33e0fa5)"><path fill="#98bc13" d="M 579.257812 20.671875 L 579.257812 189.976562 L 653.859375 229.722656 L 728.457031 189.976562 L 728.457031 20.671875 L 579.257812 20.671875 " fill-opacity="1" fill-rule="nonzero"/></g><path fill="#ffffff" d="M 604.628906 131.429688 L 604.628906 79.691406 L 630.941406 79.691406 L 630.941406 88.386719 L 613.605469 88.386719 L 613.605469 101.351562 L 628.628906 101.351562 L 628.628906 110.082031 L 613.605469 110.082031 L 613.605469 122.734375 L 630.941406 122.734375 L 630.941406 131.429688 L 604.628906 131.429688 " fill-opacity="1" fill-rule="nonzero"/><path fill="#ffffff" d="M 647.480469 131.953125 L 644.289062 130.132812 C 642.152344 128.914062 640.5 127.140625 639.371094 124.851562 C 638.261719 122.597656 637.699219 119.871094 637.699219 116.753906 L 637.699219 94.402344 C 637.699219 91.285156 638.261719 88.554688 639.371094 86.289062 C 640.5 83.992188 642.152344 82.207031 644.289062 80.992188 C 646.40625 79.78125 648.960938 79.171875 651.871094 79.171875 C 654.949219 79.171875 657.554688 79.785156 659.621094 80.996094 C 661.707031 82.21875 663.296875 84.101562 664.351562 86.582031 C 665.382812 89.007812 665.929688 92.105469 665.976562 95.78125 L 665.988281 96.464844 L 656.871094 96.464844 L 656.863281 95.796875 C 656.839844 94.007812 656.625 92.515625 656.210938 91.351562 C 655.824219 90.253906 655.265625 89.433594 654.550781 88.917969 C 653.84375 88.402344 652.941406 88.144531 651.871094 88.144531 C 650.832031 88.144531 649.925781 88.382812 649.171875 88.855469 C 648.417969 89.332031 647.851562 90.011719 647.445312 90.933594 C 647.023438 91.878906 646.8125 93.046875 646.8125 94.402344 L 646.8125 116.753906 C 646.8125 118.085938 647.023438 119.242188 647.445312 120.191406 C 647.855469 121.113281 648.421875 121.792969 649.171875 122.265625 C 649.921875 122.738281 650.832031 122.976562 651.871094 122.976562 C 652.957031 122.976562 653.828125 122.726562 654.53125 122.207031 C 655.234375 121.691406 655.789062 120.875 656.179688 119.785156 C 656.589844 118.636719 656.820312 117.132812 656.863281 115.316406 L 656.878906 114.660156 L 665.988281 114.660156 L 665.976562 115.34375 C 665.929688 119.019531 665.382812 122.113281 664.351562 124.539062 C 663.296875 127.023438 661.707031 128.902344 659.621094 130.128906 C 657.554688 131.339844 654.949219 131.953125 651.871094 131.953125 L 647.480469 131.953125 " fill-opacity="1" fill-rule="nonzero"/><path fill="#ffffff" d="M 688.289062 88.078125 C 687.101562 88.078125 686.0625 88.324219 685.203125 88.816406 C 684.347656 89.308594 683.71875 89.976562 683.277344 90.855469 C 682.832031 91.75 682.605469 92.835938 682.605469 94.089844 L 682.605469 117 C 682.605469 118.25 682.835938 119.34375 683.277344 120.25 C 683.71875 121.140625 684.34375 121.804688 685.199219 122.285156 C 686.058594 122.769531 687.097656 123.011719 688.289062 123.011719 C 689.480469 123.011719 690.519531 122.769531 691.378906 122.285156 C 692.234375 121.804688 692.867188 121.136719 693.316406 120.246094 C 693.773438 119.339844 694.003906 118.246094 694.003906 117 L 694.003906 94.089844 C 694.003906 92.839844 693.773438 91.753906 693.320312 90.863281 C 692.871094 89.980469 692.234375 89.308594 691.375 88.816406 C 690.515625 88.324219 689.476562 88.078125 688.289062 88.078125 Z M 688.289062 131.953125 C 685.265625 131.953125 682.617188 131.359375 680.410156 130.191406 C 678.183594 129.015625 676.453125 127.289062 675.265625 125.0625 C 674.089844 122.859375 673.492188 120.21875 673.492188 117.207031 L 673.492188 93.917969 C 673.492188 90.90625 674.089844 88.257812 675.265625 86.042969 C 676.449219 83.804688 678.183594 82.078125 680.414062 80.910156 C 682.621094 79.757812 685.269531 79.171875 688.289062 79.171875 C 691.308594 79.171875 693.957031 79.757812 696.160156 80.910156 C 698.390625 82.078125 700.125 83.804688 701.316406 86.042969 C 702.488281 88.257812 703.085938 90.90625 703.085938 93.917969 L 703.085938 117.207031 C 703.085938 120.214844 702.488281 122.859375 701.3125 125.0625 C 700.125 127.289062 698.390625 129.015625 696.164062 130.191406 C 693.960938 131.359375 691.308594 131.953125 688.289062 131.953125 " fill-opacity="1" fill-rule="nonzero"/></svg>