<svg xmlns="http://www.w3.org/2000/svg" xmlns:xlink="http://www.w3.org/1999/xlink" width="1025" zoomAndPan="magnify" viewBox="0 0 768.75 599.999999" height="800" preserveAspectRatio="xMidYMid meet" version="1.0"><defs><clipPath id="a7ccbe11d4"><path d="M 584.359375 40.84375 L 733.5625 40.84375 L 733.5625 250 L 584.359375 250 Z M 584.359375 40.84375 " clip-rule="nonzero"/></clipPath></defs><g clip-path="url(#a7ccbe11d4)"><path fill="#98bc13" d="M 584.359375 40.917969 L 584.359375 210.222656 L 658.960938 249.96875 L 733.558594 210.222656 L 733.558594 40.917969 L 584.359375 40.917969 " fill-opacity="1" fill-rule="nonzero"/></g><path fill="#ffffff" d="M 609.730469 151.679688 L 609.730469 99.9375 L 636.042969 99.9375 L 636.042969 108.632812 L 618.707031 108.632812 L 618.707031 121.597656 L 633.730469 121.597656 L 633.730469 130.328125 L 618.707031 130.328125 L 618.707031 142.980469 L 636.042969 142.980469 L 636.042969 151.679688 L 609.730469 151.679688 " fill-opacity="1" fill-rule="nonzero"/><path fill="#ffffff" d="M 652.582031 152.199219 L 649.390625 150.378906 C 647.253906 149.160156 645.601562 147.386719 644.472656 145.097656 C 643.363281 142.84375 642.800781 140.117188 642.800781 137.003906 L 642.800781 114.648438 C 642.800781 111.53125 643.363281 108.800781 644.472656 106.535156 C 645.601562 104.238281 647.253906 102.457031 649.390625 101.238281 C 651.507812 100.03125 654.058594 99.417969 656.972656 99.417969 C 660.050781 99.417969 662.65625 100.03125 664.722656 101.242188 C 666.808594 102.464844 668.398438 104.347656 669.453125 106.828125 C 670.484375 109.253906 671.03125 112.351562 671.078125 116.027344 L 671.085938 116.710938 L 661.972656 116.710938 L 661.964844 116.042969 C 661.941406 114.253906 661.722656 112.761719 661.3125 111.601562 C 660.925781 110.5 660.367188 109.679688 659.652344 109.164062 C 658.945312 108.648438 658.042969 108.390625 656.972656 108.390625 C 655.933594 108.390625 655.027344 108.628906 654.273438 109.101562 C 653.519531 109.578125 652.953125 110.257812 652.546875 111.179688 C 652.125 112.128906 651.914062 113.292969 651.914062 114.648438 L 651.914062 137.003906 C 651.914062 138.335938 652.125 139.488281 652.546875 140.4375 C 652.957031 141.359375 653.523438 142.039062 654.273438 142.511719 C 655.023438 142.984375 655.929688 143.226562 656.972656 143.226562 C 658.058594 143.226562 658.929688 142.972656 659.632812 142.453125 C 660.335938 141.9375 660.890625 141.121094 661.28125 140.03125 C 661.691406 138.882812 661.921875 137.378906 661.964844 135.566406 L 661.980469 134.90625 L 671.085938 134.90625 L 671.078125 135.589844 C 671.03125 139.265625 670.484375 142.359375 669.453125 144.785156 C 668.398438 147.269531 666.808594 149.148438 664.722656 150.375 C 662.65625 151.585938 660.050781 152.199219 656.972656 152.199219 L 652.582031 152.199219 " fill-opacity="1" fill-rule="nonzero"/><path fill="#ffffff" d="M 693.390625 108.324219 C 692.203125 108.324219 691.164062 108.570312 690.304688 109.0625 C 689.449219 109.554688 688.820312 110.222656 688.378906 111.105469 C 687.933594 111.996094 687.707031 113.082031 687.707031 114.335938 L 687.707031 137.246094 C 687.707031 138.496094 687.9375 139.589844 688.378906 140.496094 C 688.820312 141.386719 689.445312 142.050781 690.300781 142.53125 C 691.160156 143.015625 692.199219 143.261719 693.390625 143.261719 C 694.578125 143.261719 695.621094 143.015625 696.480469 142.53125 C 697.335938 142.050781 697.96875 141.382812 698.417969 140.492188 C 698.875 139.585938 699.105469 138.492188 699.105469 137.246094 L 699.105469 114.335938 C 699.105469 113.085938 698.875 112 698.421875 111.109375 C 697.96875 110.226562 697.332031 109.554688 696.476562 109.0625 C 695.617188 108.570312 694.578125 108.324219 693.390625 108.324219 Z M 693.390625 152.199219 C 690.367188 152.199219 687.71875 151.609375 685.511719 150.4375 C 683.285156 149.261719 681.554688 147.535156 680.367188 145.308594 C 679.191406 143.109375 678.59375 140.464844 678.59375 137.453125 L 678.59375 114.164062 C 678.59375 111.152344 679.191406 108.503906 680.367188 106.289062 C 681.550781 104.054688 683.285156 102.324219 685.515625 101.15625 C 687.722656 100.003906 690.371094 99.417969 693.390625 99.417969 C 696.410156 99.417969 699.058594 100.003906 701.261719 101.15625 C 703.492188 102.324219 705.226562 104.054688 706.414062 106.292969 C 707.589844 108.503906 708.1875 111.152344 708.1875 114.164062 L 708.1875 137.453125 C 708.1875 140.460938 707.589844 143.105469 706.414062 145.308594 C 705.226562 147.535156 703.492188 149.261719 701.265625 150.4375 C 699.0625 151.609375 696.410156 152.199219 693.390625 152.199219 " fill-opacity="1" fill-rule="nonzero"/></svg>