<svg xmlns="http://www.w3.org/2000/svg" xmlns:xlink="http://www.w3.org/1999/xlink" width="1025" zoomAndPan="magnify" viewBox="0 0 768.75 599.999999" height="800" preserveAspectRatio="xMidYMid meet" version="1.0"><defs><clipPath id="c88c4345ce"><path d="M 546.40625 180.039062 L 743.59375 180.039062 L 743.59375 419.960938 L 546.40625 419.960938 Z M 546.40625 180.039062 " clip-rule="nonzero"/></clipPath></defs><path fill="#5da30c" d="M 575.734375 380.492188 L 572.625 380.492188 L 572.625 386.980469 L 575.734375 386.980469 C 579.023438 386.980469 580.660156 385.894531 580.660156 383.746094 C 580.660156 381.601562 579.019531 380.488281 575.734375 380.488281 Z M 575.734375 380.492188 " fill-opacity="1" fill-rule="nonzero"/><path fill="#5da30c" d="M 598.382812 380.464844 L 594.691406 380.464844 L 594.691406 385.894531 L 598.382812 385.894531 C 601.277344 385.894531 602.726562 385.003906 602.726562 383.171875 C 602.726562 381.339844 601.277344 380.464844 598.382812 380.464844 Z M 598.382812 380.464844 " fill-opacity="1" fill-rule="nonzero"/><path fill="#5da30c" d="M 696.402344 325.804688 C 685.738281 325.804688 677.996094 333.597656 677.996094 344.199219 C 677.996094 354.796875 685.738281 362.59375 696.402344 362.59375 C 707.066406 362.59375 714.8125 354.792969 714.8125 344.199219 C 714.8125 333.605469 707.074219 325.804688 696.402344 325.804688 Z M 696.402344 325.804688 " fill-opacity="1" fill-rule="nonzero"/><path fill="#5da30c" d="M 643.820312 380.613281 L 641.425781 380.613281 L 641.425781 391.132812 L 643.820312 391.132812 C 647.75 391.132812 650.09375 389.179688 650.09375 385.875 C 650.09375 382.566406 647.75 380.613281 643.820312 380.613281 Z M 643.820312 380.613281 " fill-opacity="1" fill-rule="nonzero"/><path fill="#5da30c" d="M 621.558594 380.417969 C 618.398438 380.417969 616.105469 382.734375 616.105469 385.875 C 616.105469 389.011719 618.398438 391.324219 621.558594 391.324219 C 624.71875 391.324219 627.019531 389.007812 627.019531 385.875 C 627.019531 382.738281 624.726562 380.417969 621.558594 380.417969 Z M 621.558594 380.417969 " fill-opacity="1" fill-rule="nonzero"/><g clip-path="url(#c88c4345ce)"><path fill="#5da30c" d="M 718.324219 180.042969 L 571.644531 180.042969 C 557.726562 180.042969 546.398438 191.359375 546.398438 205.269531 L 546.398438 394.734375 C 546.398438 408.640625 557.726562 419.957031 571.644531 419.957031 L 718.324219 419.957031 C 732.246094 419.957031 743.566406 408.640625 743.566406 394.734375 L 743.566406 205.269531 C 743.566406 191.359375 732.246094 180.042969 718.324219 180.042969 Z M 575.6875 390.40625 L 572.625 390.40625 L 572.625 392.625 C 572.625 393.972656 571.871094 394.792969 570.621094 394.792969 C 569.371094 394.792969 568.589844 393.972656 568.589844 392.625 L 568.589844 379.867188 C 568.589844 378.027344 569.535156 377.0625 571.367188 377.0625 L 575.6875 377.0625 C 581.507812 377.0625 584.574219 379.378906 584.574219 383.71875 C 584.574219 388.0625 581.511719 390.402344 575.6875 390.402344 Z M 602.554688 340.488281 C 604.507812 340.488281 605.679688 341.59375 605.679688 343.414062 C 605.679688 345.230469 604.507812 346.335938 602.554688 346.335938 L 575.242188 346.335938 L 575.242188 361.9375 L 602.878906 361.9375 C 604.835938 361.9375 606.007812 363.039062 606.007812 364.921875 C 606.007812 366.804688 604.835938 367.914062 602.878906 367.914062 L 573.613281 367.914062 C 570.292969 367.914062 568.664062 366.289062 568.664062 362.972656 L 568.664062 325.40625 C 568.664062 322.089844 570.292969 320.464844 573.613281 320.464844 L 602.878906 320.464844 C 604.835938 320.464844 606.007812 321.570312 606.007812 323.457031 C 606.007812 325.339844 604.835938 326.441406 602.878906 326.441406 L 575.242188 326.441406 L 575.242188 340.480469 L 602.554688 340.480469 Z M 605.867188 391.371094 C 606.398438 391.707031 606.636719 392.164062 606.636719 392.746094 C 606.636719 393.851562 605.867188 394.792969 604.679688 394.792969 C 604.175781 394.792969 603.742188 394.578125 603.28125 394.289062 L 594.738281 388.933594 L 594.691406 388.933594 L 594.691406 392.625 C 594.691406 393.972656 593.941406 394.792969 592.6875 394.792969 C 591.433594 394.792969 590.65625 393.972656 590.65625 392.625 L 590.65625 379.867188 C 590.65625 378.027344 591.601562 377.0625 593.433594 377.0625 L 598.484375 377.0625 C 603.816406 377.0625 606.640625 379.113281 606.640625 383 C 606.640625 386.15625 604.804688 388.089844 601.28125 388.714844 L 605.871094 391.367188 Z M 621.558594 394.917969 C 616.152344 394.917969 612.171875 391.078125 612.171875 385.871094 C 612.171875 380.664062 616.152344 376.824219 621.558594 376.824219 C 626.964844 376.824219 630.949219 380.65625 630.949219 385.871094 C 630.949219 391.082031 626.964844 394.917969 621.558594 394.917969 Z M 643.988281 394.671875 L 640.265625 394.671875 C 638.414062 394.671875 637.441406 393.710938 637.441406 391.851562 L 637.441406 379.886719 C 637.441406 378.027344 638.414062 377.0625 640.265625 377.0625 L 643.988281 377.0625 C 650.261719 377.0625 654.003906 380.371094 654.003906 385.875 C 654.003906 391.375 650.261719 394.675781 643.988281 394.675781 Z M 643.203125 362.589844 C 647.757812 362.589844 652.050781 361.808594 655.566406 360.3125 C 656.023438 360.117188 656.347656 360.050781 656.800781 360.050781 C 658.425781 360.050781 659.726562 361.351562 659.726562 362.976562 C 659.726562 363.949219 659.269531 364.796875 658.554688 365.316406 C 655.628906 367.332031 649.90625 368.570312 643.070312 368.570312 C 628.375 368.570312 618.160156 358.621094 618.160156 344.199219 C 618.160156 329.773438 628.375 319.828125 643.070312 319.828125 C 649.90625 319.828125 655.628906 321.058594 658.554688 323.074219 C 659.269531 323.59375 659.726562 324.441406 659.726562 325.414062 C 659.726562 327.039062 658.425781 328.339844 656.800781 328.339844 C 656.34375 328.339844 656.019531 328.277344 655.566406 328.078125 C 652.054688 326.582031 647.757812 325.808594 643.203125 325.808594 C 632.210938 325.808594 624.734375 333.214844 624.734375 344.199219 C 624.734375 355.1875 632.210938 362.59375 643.203125 362.59375 Z M 676.261719 387.316406 C 676.261719 392.160156 673.371094 394.917969 668.296875 394.917969 C 663.222656 394.917969 660.328125 392.160156 660.328125 387.316406 L 660.328125 379.113281 C 660.328125 377.765625 661.082031 376.941406 662.332031 376.941406 C 663.582031 376.941406 664.335938 377.765625 664.335938 379.113281 L 664.335938 386.6875 C 664.335938 389.824219 665.617188 391.320312 668.292969 391.320312 C 670.96875 391.320312 672.230469 389.824219 672.230469 386.6875 L 672.230469 379.113281 C 672.230469 377.765625 672.976562 376.941406 674.234375 376.941406 C 675.488281 376.941406 676.257812 377.765625 676.257812 379.113281 L 676.257812 387.316406 Z M 692.050781 391.324219 C 693.285156 391.324219 694.417969 391.132812 695.839844 390.621094 C 696.058594 390.550781 696.398438 390.480469 696.6875 390.480469 C 697.699219 390.480469 698.496094 391.273438 698.496094 392.285156 C 698.496094 392.71875 698.328125 393.109375 698.0625 393.371094 C 697.078125 394.335938 694.828125 394.917969 691.957031 394.917969 C 686.429688 394.917969 682.566406 391.226562 682.566406 385.875 C 682.566406 380.519531 686.429688 376.828125 691.957031 376.828125 C 694.828125 376.828125 697.078125 377.40625 698.0625 378.367188 C 698.328125 378.632812 698.496094 379.019531 698.496094 379.453125 C 698.496094 380.464844 697.699219 381.265625 696.6875 381.265625 C 696.398438 381.265625 696.058594 381.191406 695.839844 381.117188 C 694.417969 380.613281 693.285156 380.417969 692.050781 380.417969 C 688.742188 380.417969 686.550781 382.589844 686.550781 385.875 C 686.550781 389.160156 688.746094 391.324219 692.050781 391.324219 Z M 719.261719 380.730469 L 714.671875 380.730469 L 714.671875 392.625 C 714.671875 394 713.925781 394.792969 712.648438 394.792969 C 711.375 394.792969 710.621094 394 710.621094 392.625 L 710.621094 380.730469 L 706.035156 380.730469 C 704.753906 380.730469 704.03125 380.054688 704.03125 378.898438 C 704.03125 377.738281 704.753906 377.0625 706.035156 377.0625 L 719.265625 377.0625 C 720.519531 377.0625 721.242188 377.742188 721.242188 378.898438 C 721.242188 380.050781 720.515625 380.730469 719.265625 380.730469 Z M 696.402344 368.570312 C 682.03125 368.570312 671.492188 358.230469 671.492188 344.199219 C 671.492188 330.164062 682.03125 319.828125 696.402344 319.828125 C 710.777344 319.828125 721.3125 330.160156 721.3125 344.199219 C 721.3125 358.238281 710.777344 368.570312 696.402344 368.570312 Z M 739.328125 297.003906 C 739.328125 298.804688 737.867188 300.265625 736.0625 300.265625 L 643.355469 300.265625 C 642.390625 300.265625 641.636719 299.4375 641.726562 298.480469 C 641.769531 298.023438 641.796875 297.625 641.820312 297.300781 C 641.929688 295.652344 642.117188 294.003906 642.351562 292.355469 C 642.636719 290.347656 643.003906 288.351562 643.457031 286.375 C 643.46875 286.386719 643.476562 286.390625 643.488281 286.398438 C 644.878906 280.46875 647.023438 274.699219 649.808594 269.292969 C 650.863281 267.25 652.003906 265.257812 653.234375 263.328125 C 656.496094 258.28125 660.460938 253.6875 665 249.753906 C 667.425781 247.648438 670.015625 245.734375 672.75 244.042969 L 674.558594 242.964844 C 675.289062 242.515625 676.207031 242.042969 677.066406 241.601562 C 677.085938 241.589844 677.195312 241.519531 677.246094 241.519531 C 677.261719 241.519531 677.269531 241.527344 677.269531 241.539062 C 677.269531 241.597656 677.207031 241.636719 677.167969 241.660156 C 676.328125 242.191406 675.4375 242.75 674.742188 243.253906 C 674.371094 243.515625 672.9375 244.546875 672.617188 244.773438 C 671.902344 245.308594 671.210938 245.859375 670.527344 246.421875 C 670.125 246.75 669.730469 247.089844 669.335938 247.429688 C 658.898438 256.523438 652.726562 268.679688 648.984375 282.535156 C 648.695312 283.609375 648.199219 284.796875 648.199219 285.933594 C 648.199219 287.855469 649.878906 288.292969 651.792969 288.292969 C 652.789062 288.292969 653.78125 288.183594 654.472656 288.167969 C 688.878906 287.417969 679.757812 252.070312 701.15625 232.285156 C 701.621094 231.855469 701.351562 231.078125 700.722656 231.019531 C 700.148438 230.96875 699.574219 230.949219 699 230.949219 C 672.816406 230.949219 639.558594 240.898438 639.464844 270.886719 L 639.464844 271.007812 C 639.464844 272.214844 639.515625 273.417969 639.542969 274.625 C 639.660156 276 639.714844 277.390625 639.714844 278.792969 C 639.714844 286.765625 637.730469 293.683594 636.488281 299.007812 C 636.316406 299.75 635.65625 300.269531 634.894531 300.269531 L 553.902344 300.269531 C 552.101562 300.269531 550.640625 298.8125 550.640625 297.007812 L 550.640625 205.269531 C 550.640625 193.675781 560.042969 184.277344 571.644531 184.277344 L 718.324219 184.277344 C 729.925781 184.277344 739.328125 193.675781 739.328125 205.269531 Z M 739.328125 297.003906 " fill-opacity="1" fill-rule="nonzero"/></g><path fill="#5da30c" d="M 634.96875 269.039062 C 635.835938 271.378906 636.25 273.6875 636.25 276.097656 C 636.25 279.667969 635.953125 282.480469 632.453125 282.480469 C 631.71875 282.480469 630.960938 282.363281 630.210938 282.3125 C 600.5 280.269531 607.527344 248.859375 588.980469 230.296875 C 588.132812 229.453125 588.722656 227.996094 589.917969 227.992188 L 589.953125 227.992188 C 609.800781 227.992188 633.917969 234.003906 642.9375 250.882812 C 643.152344 251.292969 643.117188 251.785156 642.84375 252.15625 C 640.375 255.5625 638.582031 259.257812 637.339844 263.164062 C 637.207031 263.582031 637.035156 263.738281 636.847656 263.738281 C 636.421875 263.738281 635.925781 262.933594 635.6875 262.507812 C 634.988281 261.246094 634.25 260.003906 633.476562 258.789062 C 630.375 253.988281 626.601562 249.621094 622.289062 245.878906 C 619.984375 243.875 617.515625 242.058594 614.917969 240.445312 L 613.195312 239.421875 C 612.46875 238.972656 611.535156 238.5 610.679688 238.054688 C 610.644531 238.035156 610.570312 237.988281 610.53125 237.988281 C 610.53125 237.988281 610.53125 237.988281 610.527344 237.988281 C 610.507812 237.988281 610.5 238.007812 610.5 238.019531 C 610.5 238.03125 610.5 238.039062 610.503906 238.046875 C 610.519531 238.078125 610.5625 238.089844 610.589844 238.105469 C 611.421875 238.628906 612.324219 239.191406 613.019531 239.695312 C 613.375 239.945312 614.738281 240.925781 615.042969 241.140625 C 615.71875 241.648438 616.382812 242.167969 617.03125 242.703125 C 617.410156 243.015625 617.789062 243.335938 618.160156 243.660156 C 626.019531 250.507812 631.335938 259.183594 634.976562 269.035156 Z M 634.96875 269.039062 " fill-opacity="1" fill-rule="nonzero"/><path fill="#5da30c" d="M 646.742188 245.199219 C 646.472656 245.441406 645.90625 246.015625 645.464844 246.015625 C 644.996094 246.015625 644.957031 245.410156 644.902344 245.167969 C 642.820312 236.554688 642.421875 227.929688 644.484375 219.320312 C 644.59375 218.882812 644.699219 218.441406 644.820312 218.007812 C 645.019531 217.261719 645.238281 216.523438 645.472656 215.785156 C 645.585938 215.457031 646.082031 214 646.210938 213.621094 C 646.453125 212.914062 646.804688 212.066406 647.128906 211.265625 C 647.148438 211.226562 647.175781 211.171875 647.148438 211.125 C 647.136719 211.121094 647.128906 211.121094 647.117188 211.125 C 647.078125 211.152344 647.03125 211.257812 647.027344 211.273438 C 646.636719 212.023438 646.226562 212.828125 645.933594 213.511719 L 645.195312 215.195312 C 644.113281 217.78125 643.238281 220.453125 642.574219 223.183594 C 641.339844 228.277344 640.851562 233.546875 641.085938 238.78125 C 641.152344 239.984375 641.417969 241.191406 641.609375 242.394531 C 641.65625 242.683594 641.332031 242.882812 641.097656 242.707031 C 636.757812 239.492188 634.09375 238.71875 629.949219 236.476562 C 629.722656 236.355469 629.582031 236.113281 629.589844 235.855469 C 630.117188 219.964844 643.671875 202.253906 657.226562 192.609375 C 657.636719 192.316406 658.054688 192.042969 658.492188 191.789062 C 658.964844 191.507812 659.550781 191.921875 659.433594 192.464844 C 656.863281 204.800781 661.558594 216.0625 664.011719 226.472656 C 664.464844 228.402344 665.332031 231.8125 665.457031 234.015625 C 665.457031 234.082031 665.460938 234.148438 665.460938 234.214844 C 665.46875 234.898438 665.027344 235.503906 664.371094 235.707031 C 659.269531 237.304688 651.1875 241.222656 646.742188 245.203125 Z M 646.742188 245.199219 " fill-opacity="1" fill-rule="nonzero"/></svg>