<svg xmlns="http://www.w3.org/2000/svg" xmlns:xlink="http://www.w3.org/1999/xlink" width="1025" zoomAndPan="magnify" viewBox="0 0 768.75 599.999999" height="800" preserveAspectRatio="xMidYMid meet" version="1.0"><defs><clipPath id="36896dcfb5"><path d="M 580 15.207031 L 743 15.207031 L 743 25.703125 L 580 25.703125 Z M 580 15.207031 " clip-rule="nonzero"/></clipPath><clipPath id="994f81496c"><path d="M 586.851562 20.597656 L 736.050781 20.597656 L 736.050781 229.777344 L 586.851562 229.777344 Z M 586.851562 20.597656 " clip-rule="nonzero"/></clipPath></defs><g clip-path="url(#36896dcfb5)"><path fill="#737373" d="M 737.070312 15.207031 L 586.183594 15.207031 C 583.207031 15.207031 580.792969 17.617188 580.792969 20.59375 C 580.792969 23.570312 583.207031 25.984375 586.183594 25.984375 L 737.070312 25.984375 C 740.046875 25.984375 742.460938 23.570312 742.460938 20.59375 C 742.460938 17.617188 740.046875 15.207031 737.070312 15.207031 Z M 737.070312 15.207031 " fill-opacity="1" fill-rule="nonzero"/></g><g clip-path="url(#994f81496c)"><path fill="#98bc13" d="M 586.851562 20.671875 L 586.851562 189.976562 L 661.449219 229.722656 L 736.046875 189.976562 L 736.046875 20.671875 L 586.851562 20.671875 " fill-opacity="1" fill-rule="nonzero"/></g><path fill="#ffffff" d="M 612.222656 131.429688 L 612.222656 79.691406 L 638.53125 79.691406 L 638.53125 88.386719 L 621.199219 88.386719 L 621.199219 101.351562 L 636.21875 101.351562 L 636.21875 110.082031 L 621.199219 110.082031 L 621.199219 122.734375 L 638.53125 122.734375 L 638.53125 131.429688 L 612.222656 131.429688 " fill-opacity="1" fill-rule="nonzero"/><path fill="#ffffff" d="M 655.074219 131.953125 L 651.878906 130.132812 C 649.746094 128.914062 648.089844 127.140625 646.960938 124.851562 C 645.851562 122.597656 645.289062 119.871094 645.289062 116.753906 L 645.289062 94.402344 C 645.289062 91.285156 645.851562 88.554688 646.960938 86.289062 C 648.089844 83.992188 649.746094 82.207031 651.878906 80.992188 C 653.996094 79.78125 656.550781 79.171875 659.464844 79.171875 C 662.539062 79.171875 665.144531 79.785156 667.210938 80.996094 C 669.296875 82.21875 670.886719 84.101562 671.941406 86.582031 C 672.972656 89.007812 673.523438 92.105469 673.566406 95.78125 L 673.578125 96.464844 L 664.460938 96.464844 L 664.453125 95.796875 C 664.433594 94.007812 664.214844 92.515625 663.804688 91.351562 C 663.414062 90.253906 662.855469 89.433594 662.144531 88.917969 C 661.433594 88.402344 660.53125 88.144531 659.464844 88.144531 C 658.421875 88.144531 657.515625 88.382812 656.765625 88.855469 C 656.007812 89.332031 655.441406 90.011719 655.035156 90.933594 C 654.617188 91.878906 654.402344 93.046875 654.402344 94.402344 L 654.402344 116.753906 C 654.402344 118.085938 654.617188 119.242188 655.035156 120.191406 C 655.445312 121.113281 656.011719 121.792969 656.765625 122.265625 C 657.515625 122.738281 658.421875 122.976562 659.464844 122.976562 C 660.546875 122.976562 661.417969 122.726562 662.121094 122.207031 C 662.824219 121.691406 663.378906 120.875 663.769531 119.785156 C 664.179688 118.636719 664.410156 117.132812 664.453125 115.316406 L 664.472656 114.660156 L 673.578125 114.660156 L 673.566406 115.34375 C 673.523438 119.019531 672.972656 122.113281 671.941406 124.539062 C 670.886719 127.023438 669.296875 128.902344 667.210938 130.128906 C 665.148438 131.339844 662.539062 131.953125 659.464844 131.953125 L 655.074219 131.953125 " fill-opacity="1" fill-rule="nonzero"/><path fill="#ffffff" d="M 695.878906 88.078125 C 694.691406 88.078125 693.652344 88.324219 692.792969 88.816406 C 691.9375 89.308594 691.308594 89.976562 690.871094 90.855469 C 690.421875 91.75 690.199219 92.835938 690.199219 94.089844 L 690.199219 117 C 690.199219 118.25 690.425781 119.34375 690.871094 120.25 C 691.308594 121.140625 691.933594 121.804688 692.789062 122.285156 C 693.648438 122.769531 694.6875 123.011719 695.878906 123.011719 C 697.070312 123.011719 698.109375 122.769531 698.96875 122.285156 C 699.824219 121.804688 700.457031 121.136719 700.90625 120.246094 C 701.363281 119.339844 701.597656 118.246094 701.597656 117 L 701.597656 94.089844 C 701.597656 92.839844 701.363281 91.753906 700.910156 90.863281 C 700.460938 89.980469 699.824219 89.308594 698.964844 88.816406 C 698.105469 88.324219 697.066406 88.078125 695.878906 88.078125 Z M 695.878906 131.953125 C 692.855469 131.953125 690.207031 131.359375 688.003906 130.191406 C 685.773438 129.015625 684.042969 127.289062 682.855469 125.0625 C 681.679688 122.859375 681.085938 120.21875 681.085938 117.207031 L 681.085938 93.917969 C 681.085938 90.90625 681.679688 88.257812 682.855469 86.042969 C 684.042969 83.804688 685.777344 82.078125 688.007812 80.910156 C 690.210938 79.757812 692.859375 79.171875 695.878906 79.171875 C 698.898438 79.171875 701.546875 79.757812 703.753906 80.910156 C 705.984375 82.078125 707.71875 83.804688 708.90625 86.042969 C 710.082031 88.257812 710.675781 90.90625 710.675781 93.917969 L 710.675781 117.207031 C 710.675781 120.214844 710.082031 122.859375 708.902344 125.0625 C 707.71875 127.289062 705.984375 129.015625 703.753906 130.191406 C 701.550781 131.359375 698.898438 131.953125 695.878906 131.953125 " fill-opacity="1" fill-rule="nonzero"/></svg>