<svg xmlns="http://www.w3.org/2000/svg" xmlns:xlink="http://www.w3.org/1999/xlink" width="1025" zoomAndPan="magnify" viewBox="0 0 768.75 599.999999" height="800" preserveAspectRatio="xMidYMid meet" version="1.0"><defs><clipPath id="c0818dc604"><path d="M 542 204.082031 L 733.929688 204.082031 L 733.929688 396.019531 L 542 396.019531 Z M 542 204.082031 " clip-rule="nonzero"/></clipPath></defs><path fill="#5da30c" d="M 632.390625 286.386719 C 632.390625 286.429688 632.390625 286.46875 632.390625 286.511719 C 632.390625 287.730469 632.445312 288.949219 632.46875 290.171875 C 632.585938 291.558594 632.644531 292.96875 632.644531 294.386719 C 632.644531 306.140625 628.910156 311.347656 628.910156 316.886719 C 628.910156 317.488281 628.976562 318.007812 629.128906 318.402344 C 629.511719 319.398438 630.378906 319.878906 631.359375 319.878906 C 634.289062 319.878906 634.589844 315.902344 634.769531 313.128906 C 634.878906 311.453125 635.066406 309.785156 635.304688 308.121094 C 635.59375 306.085938 635.96875 304.070312 636.425781 302.066406 C 636.4375 302.078125 636.449219 302.082031 636.460938 302.089844 C 637.867188 296.085938 640.035156 290.25 642.851562 284.777344 C 643.917969 282.707031 645.074219 280.691406 646.316406 278.738281 C 649.617188 273.628906 653.625 268.980469 658.214844 264.996094 C 660.671875 262.867188 663.292969 260.929688 666.054688 259.214844 L 667.886719 258.121094 C 668.625 257.667969 669.550781 257.191406 670.421875 256.742188 C 670.441406 256.734375 670.554688 256.660156 670.605469 256.660156 C 670.621094 256.660156 670.628906 256.667969 670.628906 256.683594 C 670.628906 256.738281 670.566406 256.777344 670.523438 256.804688 C 669.675781 257.339844 668.773438 257.910156 668.070312 258.417969 C 667.695312 258.683594 666.242188 259.726562 665.917969 259.953125 C 665.199219 260.496094 664.496094 261.050781 663.804688 261.621094 C 663.402344 261.953125 663 262.296875 662.605469 262.640625 C 652.046875 271.847656 645.804688 284.152344 642.019531 298.179688 C 641.722656 299.265625 641.222656 300.46875 641.222656 301.617188 C 641.222656 303.5625 642.917969 304.007812 644.859375 304.007812 C 645.867188 304.007812 646.871094 303.890625 647.566406 303.875 C 682.371094 303.117188 673.144531 267.332031 694.789062 247.304688 C 695.261719 246.871094 694.988281 246.085938 694.347656 246.03125 C 693.769531 245.980469 693.1875 245.957031 692.605469 245.957031 C 666.121094 245.957031 632.480469 256.027344 632.386719 286.386719 Z M 632.390625 286.386719 " fill-opacity="1" fill-rule="nonzero"/><path fill="#5da30c" d="M 627.839844 284.515625 C 628.714844 286.886719 629.132812 289.222656 629.132812 291.660156 C 629.132812 295.277344 628.832031 298.121094 625.292969 298.121094 C 624.550781 298.121094 623.785156 298.003906 623.023438 297.949219 C 592.972656 295.882812 600.082031 264.089844 581.316406 245.296875 C 580.464844 244.441406 581.058594 242.96875 582.269531 242.964844 L 582.300781 242.964844 C 602.375 242.964844 626.769531 249.050781 635.894531 266.136719 C 636.113281 266.550781 636.074219 267.050781 635.800781 267.425781 C 633.304688 270.871094 631.488281 274.613281 630.230469 278.566406 C 630.097656 278.988281 629.921875 279.148438 629.730469 279.148438 C 629.300781 279.148438 628.800781 278.335938 628.558594 277.902344 C 627.847656 276.621094 627.101562 275.367188 626.324219 274.136719 C 623.183594 269.277344 619.367188 264.855469 615.003906 261.070312 C 612.671875 259.042969 610.179688 257.199219 607.546875 255.570312 L 605.808594 254.53125 C 605.066406 254.078125 604.128906 253.597656 603.261719 253.148438 C 603.226562 253.128906 603.15625 253.082031 603.113281 253.082031 C 603.113281 253.082031 603.109375 253.082031 603.105469 253.082031 C 603.089844 253.082031 603.078125 253.097656 603.078125 253.113281 C 603.078125 253.125 603.082031 253.132812 603.085938 253.140625 C 603.101562 253.171875 603.144531 253.179688 603.171875 253.199219 C 604.011719 253.730469 604.925781 254.300781 605.628906 254.808594 C 605.988281 255.0625 607.367188 256.054688 607.675781 256.273438 C 608.359375 256.789062 609.03125 257.3125 609.6875 257.855469 C 610.074219 258.171875 610.453125 258.496094 610.832031 258.824219 C 618.78125 265.757812 624.15625 274.535156 627.839844 284.511719 Z M 627.839844 284.515625 " fill-opacity="1" fill-rule="nonzero"/><g clip-path="url(#c0818dc604)"><path fill="#5da30c" d="M 675.578125 334.285156 C 669.460938 334.285156 665.023438 338.765625 665.023438 344.839844 C 665.023438 350.910156 669.460938 355.390625 675.578125 355.390625 C 681.695312 355.390625 686.128906 350.910156 686.128906 344.839844 C 686.128906 338.765625 681.695312 334.285156 675.578125 334.285156 Z M 675.578125 334.285156 C 669.460938 334.285156 665.023438 338.765625 665.023438 344.839844 C 665.023438 350.910156 669.460938 355.390625 675.578125 355.390625 C 681.695312 355.390625 686.128906 350.910156 686.128906 344.839844 C 686.128906 338.765625 681.695312 334.285156 675.578125 334.285156 Z M 705.832031 232.199219 C 687.707031 214.074219 663.605469 204.09375 637.972656 204.09375 C 612.335938 204.09375 588.234375 214.078125 570.109375 232.199219 C 551.984375 250.324219 542.003906 274.425781 542.003906 300.0625 C 542.003906 325.699219 551.988281 349.796875 570.109375 367.921875 C 588.234375 386.046875 612.335938 396.03125 637.972656 396.03125 C 663.605469 396.03125 687.707031 386.046875 705.832031 367.921875 C 723.957031 349.796875 733.941406 325.699219 733.941406 300.0625 C 733.941406 274.425781 723.957031 250.324219 705.832031 232.199219 Z M 606.671875 341.242188 C 608.914062 341.242188 610.175781 342.457031 610.175781 344.511719 C 610.175781 346.566406 608.914062 347.734375 606.671875 347.734375 L 589.910156 347.734375 L 589.910156 355.15625 L 606.765625 355.15625 C 609.097656 355.15625 610.40625 356.371094 610.40625 358.519531 C 610.40625 360.667969 609.097656 361.878906 606.765625 361.878906 L 587.667969 361.878906 C 584.070312 361.878906 582.207031 360.011719 582.207031 356.417969 L 582.207031 333.261719 C 582.207031 329.664062 584.074219 327.800781 587.667969 327.800781 L 606.765625 327.800781 C 609.097656 327.800781 610.40625 329.0625 610.40625 331.160156 C 610.40625 333.261719 609.097656 334.523438 606.765625 334.523438 L 589.910156 334.523438 L 589.910156 341.246094 L 606.671875 341.246094 Z M 636.96875 355.390625 C 639.347656 355.390625 641.542969 355.015625 644.296875 354.035156 C 644.71875 353.894531 645.371094 353.753906 645.933594 353.753906 C 647.894531 353.753906 649.433594 355.296875 649.433594 357.257812 C 649.433594 358.097656 649.109375 358.84375 648.59375 359.359375 C 646.679688 361.226562 642.339844 362.347656 636.78125 362.347656 C 626.089844 362.347656 618.617188 355.199219 618.617188 344.835938 C 618.617188 334.472656 626.089844 327.328125 636.78125 327.328125 C 642.339844 327.328125 646.679688 328.449219 648.59375 330.320312 C 649.109375 330.832031 649.433594 331.582031 649.433594 332.417969 C 649.433594 334.378906 647.890625 335.917969 645.933594 335.917969 C 645.371094 335.917969 644.71875 335.777344 644.296875 335.636719 C 641.542969 334.660156 639.347656 334.285156 636.96875 334.285156 C 630.574219 334.285156 626.324219 338.488281 626.324219 344.835938 C 626.324219 351.183594 630.574219 355.390625 636.96875 355.390625 Z M 675.578125 362.347656 C 665.117188 362.347656 657.414062 354.921875 657.414062 344.839844 C 657.414062 334.753906 665.117188 327.332031 675.578125 327.332031 C 686.035156 327.332031 693.738281 334.757812 693.738281 344.839844 C 693.738281 354.921875 686.035156 362.347656 675.578125 362.347656 Z M 547.3125 313.167969 C 546.695312 308.886719 546.371094 304.511719 546.371094 300.0625 C 546.371094 249.550781 587.460938 208.460938 637.972656 208.460938 C 688.480469 208.460938 729.570312 249.550781 729.570312 300.0625 C 729.570312 304.511719 729.246094 308.886719 728.628906 313.167969 Z M 675.578125 334.285156 C 669.460938 334.285156 665.023438 338.765625 665.023438 344.839844 C 665.023438 350.910156 669.460938 355.390625 675.578125 355.390625 C 681.695312 355.390625 686.128906 350.910156 686.128906 344.839844 C 686.128906 338.765625 681.695312 334.285156 675.578125 334.285156 Z M 675.578125 334.285156 C 669.460938 334.285156 665.023438 338.765625 665.023438 344.839844 C 665.023438 350.910156 669.460938 355.390625 675.578125 355.390625 C 681.695312 355.390625 686.128906 350.910156 686.128906 344.839844 C 686.128906 338.765625 681.695312 334.285156 675.578125 334.285156 Z M 675.578125 334.285156 C 669.460938 334.285156 665.023438 338.765625 665.023438 344.839844 C 665.023438 350.910156 669.460938 355.390625 675.578125 355.390625 C 681.695312 355.390625 686.128906 350.910156 686.128906 344.839844 C 686.128906 338.765625 681.695312 334.285156 675.578125 334.285156 Z M 675.578125 334.285156 " fill-opacity="1" fill-rule="nonzero"/></g></svg>