<svg xmlns="http://www.w3.org/2000/svg" xmlns:xlink="http://www.w3.org/1999/xlink" width="1025" zoomAndPan="magnify" viewBox="0 0 768.75 599.999999" height="800" preserveAspectRatio="xMidYMid meet" version="1.0"><defs><filter x="0%" y="0%" width="100%" height="100%" id="ca214734d7"><feColorMatrix values="0 0 0 0 1 0 0 0 0 1 0 0 0 0 1 0 0 0 1 0" color-interpolation-filters="sRGB"/></filter><mask id="dd98c6b56d"><g filter="url(#ca214734d7)"><rect x="-76.875" width="922.5" fill="#000000" y="-60" height="719.999999" fill-opacity="0.9"/></g></mask><clipPath id="ccbfaafb61"><rect x="0" width="161" y="0" height="172"/></clipPath></defs><g mask="url(#dd98c6b56d)"><g transform="matrix(1, 0, 0, 1, 548, 214)"><g clip-path="url(#ccbfaafb61)"><path fill="#8dc63f" d="M 157.070312 90.65625 C 153.375 73.8125 145.375 58.253906 137.441406 42.898438 C 134.019531 36.269531 130.5625 29.570312 125.78125 23.789062 C 121.375 18.445312 115.78125 14.589844 109.679688 11.375 C 105.917969 9.414062 101.984375 8.296875 97.847656 7.316406 C 90.933594 5.691406 84.121094 3.628906 77.066406 2.511719 C 69.203125 1.261719 61.136719 0.890625 53.203125 1.835938 C 52.253906 1.9375 51.304688 2.074219 50.390625 2.242188 C 33.238281 4.949219 16.59375 14.925781 9.167969 30.585938 C 3.335938 42.730469 3.507812 56.796875 4.796875 70.226562 C 6.082031 83.652344 8.320312 97.148438 6.253906 110.476562 C 4.796875 119.878906 1.234375 129.382812 3.574219 138.582031 C 5.539062 146.394531 11.507812 152.652344 18.21875 157.046875 C 31.710938 165.875 48.355469 168.414062 64.457031 169.664062 C 80.355469 170.882812 96.558594 171.085938 111.984375 166.992188 C 127.410156 162.898438 142.054688 154.171875 150.5625 140.710938 C 159.75 126.101562 160.765625 107.5 157.070312 90.65625 Z M 148.832031 139.628906 C 141.238281 151.636719 127.984375 160.667969 111.441406 165.03125 C 102.867188 167.296875 93.304688 168.414062 82.289062 168.414062 C 77.035156 168.414062 71.238281 168.175781 64.59375 167.636719 C 49.710938 166.484375 32.726562 164.117188 19.304688 155.355469 C 14.117188 151.976562 7.539062 146.226562 5.507812 138.074219 C 3.914062 131.75 5.304688 125.222656 6.761719 118.320312 C 7.304688 115.820312 7.847656 113.28125 8.21875 110.746094 C 9.914062 99.617188 8.691406 88.355469 7.539062 77.429688 C 7.269531 74.996094 7 72.492188 6.761719 70.023438 C 5.574219 57.710938 5.167969 43.507812 10.929688 31.433594 C 17.609375 17.496094 32.828125 7.078125 50.660156 4.203125 C 51.574219 4.070312 52.492188 3.933594 53.40625 3.832031 C 56.355469 3.496094 59.339844 3.324219 62.320312 3.324219 C 67.136719 3.359375 71.949219 3.730469 76.695312 4.507812 C 81.507812 5.285156 86.390625 6.539062 91.070312 7.722656 C 93.136719 8.261719 95.238281 8.804688 97.375 9.3125 C 101.679688 10.328125 105.273438 11.375 108.730469 13.203125 C 115.511719 16.753906 120.425781 20.539062 124.222656 25.105469 C 128.867188 30.722656 132.324219 37.382812 135.644531 43.84375 C 143.410156 58.863281 151.441406 74.386719 155.105469 91.09375 C 159.171875 109.5625 156.933594 126.777344 148.832031 139.628906 Z M 147.917969 139.019531 C 140.492188 150.792969 127.441406 159.652344 111.171875 163.949219 C 102.695312 166.179688 93.238281 167.296875 82.289062 167.296875 C 77.066406 167.296875 71.269531 167.058594 64.660156 166.519531 C 49.914062 165.367188 33.101562 163.035156 19.878906 154.410156 C 14.863281 151.128906 8.488281 145.582031 6.523438 137.804688 C 5 131.714844 6.355469 125.324219 7.8125 118.558594 C 8.355469 116.054688 8.898438 113.484375 9.269531 110.914062 C 11 99.652344 9.777344 88.289062 8.589844 77.296875 C 8.320312 74.859375 8.050781 72.355469 7.8125 69.921875 C 6.691406 57.746094 6.253906 43.742188 11.914062 31.90625 C 18.421875 18.273438 33.304688 8.09375 50.832031 5.285156 C 51.710938 5.152344 52.625 5.015625 53.542969 4.914062 C 56.457031 4.578125 59.371094 4.40625 62.320312 4.40625 C 67.066406 4.441406 71.847656 4.8125 76.527344 5.589844 C 81.304688 6.371094 86.121094 7.585938 90.796875 8.804688 C 92.863281 9.347656 95 9.886719 97.101562 10.394531 C 101.339844 11.410156 104.832031 12.421875 108.1875 14.183594 C 114.832031 17.667969 119.644531 21.386719 123.339844 25.816406 C 127.917969 31.332031 131.339844 37.960938 134.628906 44.351562 C 142.324219 59.300781 150.324219 74.792969 153.984375 91.332031 C 158.019531 109.492188 155.851562 126.4375 147.917969 139.019531 Z M 147.917969 139.019531 " fill-opacity="1" fill-rule="nonzero"/><path fill="#ffffff" d="M 51.304688 135.941406 C 51.304688 136.957031 50.457031 137.734375 49.472656 137.734375 L 49.441406 137.734375 L 33.304688 137.464844 C 29 137.363281 25.574219 133.847656 25.609375 129.550781 C 25.847656 106.789062 25.371094 83.722656 24.183594 60.992188 C 23.949219 56.664062 27.269531 53.011719 31.609375 52.773438 C 31.878906 52.773438 32.152344 52.773438 32.421875 52.773438 L 37.574219 53.011719 C 41.507812 53.179688 45.609375 53.382812 49.40625 53.621094 C 50.421875 53.6875 51.203125 54.566406 51.136719 55.546875 C 51.066406 56.5625 50.1875 57.339844 49.203125 57.273438 C 45.441406 57.035156 41.371094 56.867188 37.441406 56.664062 L 32.289062 56.425781 C 29.980469 56.324219 28.050781 58.082031 27.949219 60.382812 C 27.949219 60.519531 27.949219 60.65625 27.949219 60.789062 C 28.523438 72.1875 28.964844 83.6875 29.203125 95.1875 L 41.441406 95.324219 C 42.457031 95.324219 43.269531 96.132812 43.269531 97.148438 C 43.269531 98.164062 42.457031 98.976562 41.441406 98.976562 L 29.167969 98.875 C 29.339844 109.15625 29.40625 119.402344 29.304688 129.652344 C 29.304688 131.917969 31.101562 133.777344 33.339844 133.847656 L 49.472656 134.117188 C 50.492188 134.117188 51.304688 134.929688 51.304688 135.941406 Z M 70.730469 55.109375 C 73.238281 54.328125 76.628906 55.648438 80.253906 58.828125 C 81 59.503906 82.1875 59.4375 82.832031 58.660156 C 83.507812 57.914062 83.441406 56.730469 82.660156 56.089844 C 76.761719 50.914062 72.320312 50.8125 69.644531 51.625 C 66.355469 52.636719 63.914062 55.546875 62.796875 59.84375 C 57.371094 80.441406 56.558594 102.222656 60.523438 121.09375 C 61.339844 124.949219 62.320312 128.976562 64.761719 132.359375 C 66.152344 134.285156 69.679688 137.566406 74.21875 137.734375 C 74.355469 137.734375 74.457031 137.734375 74.59375 137.734375 C 76.796875 137.734375 79.882812 136.957031 82.832031 133.507812 C 83.476562 132.730469 83.40625 131.582031 82.628906 130.9375 C 81.847656 130.292969 80.695312 130.363281 80.050781 131.140625 C 78.324219 133.167969 76.425781 134.152344 74.390625 134.082031 C 71.476562 133.980469 68.832031 131.714844 67.746094 130.226562 C 65.710938 127.421875 64.832031 123.800781 64.117188 120.351562 C 60.289062 102.019531 61.066406 80.847656 66.355469 60.789062 C 67.101562 57.746094 68.695312 55.75 70.730469 55.109375 Z M 123.308594 104.65625 C 123.070312 109.628906 122.730469 114.601562 122.324219 119.707031 C 122.085938 122.988281 121.816406 126.710938 120.359375 130.09375 C 118.628906 134.117188 115.476562 136.925781 111.847656 137.601562 C 111.273438 137.703125 110.695312 137.769531 110.085938 137.769531 C 106.457031 137.769531 102.730469 135.742188 100.222656 132.289062 C 97.78125 128.90625 96.761719 124.847656 95.984375 121.027344 C 91.441406 99.3125 91.304688 78.984375 95.578125 60.585938 C 96.085938 58.386719 96.796875 55.886719 98.660156 54.058594 C 100.96875 51.828125 104.796875 51.117188 108.425781 52.335938 C 109.070312 52.535156 109.714844 52.808594 110.324219 53.113281 C 112.1875 54.09375 113.949219 55.242188 115.578125 56.527344 C 116.796875 57.476562 117.746094 58.726562 118.324219 60.113281 C 120.253906 64.644531 121.238281 69.652344 122.019531 74.351562 C 122.832031 79.359375 123.308594 84.363281 123.441406 89.4375 C 123.644531 93.96875 123.578125 98.941406 123.308594 104.65625 Z M 119.816406 89.503906 C 119.679688 84.601562 119.203125 79.730469 118.425781 74.894531 C 117.679688 70.429688 116.730469 65.695312 114.96875 61.5 C 114.628906 60.65625 114.050781 59.945312 113.339844 59.371094 C 111.882812 58.21875 110.355469 57.203125 108.695312 56.324219 C 108.222656 56.089844 107.746094 55.917969 107.273438 55.75 C 106.492188 55.480469 105.679688 55.34375 104.832031 55.34375 C 103.507812 55.34375 102.152344 55.714844 101.203125 56.628906 C 100.050781 57.710938 99.542969 59.570312 99.136719 61.363281 C 94.96875 79.257812 95.101562 99.042969 99.542969 120.25 C 100.289062 123.699219 101.136719 127.320312 103.171875 130.125 C 104.867188 132.460938 107.984375 134.589844 111.101562 133.980469 C 113.917969 133.441406 115.949219 130.871094 116.898438 128.636719 C 118.085938 125.832031 118.355469 122.550781 118.59375 119.402344 C 118.96875 114.363281 119.339844 109.394531 119.542969 104.488281 C 119.882812 98.875 119.949219 93.96875 119.816406 89.503906 Z M 119.816406 89.503906 " fill-opacity="1" fill-rule="nonzero"/><path fill="#406325" d="M 112.050781 44.691406 C 112.085938 45.097656 112.050781 45.46875 112.019531 45.875 C 111.984375 46.144531 111.949219 46.28125 111.949219 46.28125 C 111.949219 46.28125 111.816406 46.3125 111.542969 46.382812 C 111.273438 46.449219 110.898438 46.550781 110.457031 46.652344 C 109.507812 46.890625 108.1875 47.160156 106.695312 47.496094 C 105.035156 47.871094 103.339844 48.175781 101.609375 48.34375 C 99.238281 48.546875 96.867188 48.476562 94.527344 48.105469 C 91.101562 47.597656 87.710938 46.6875 84.492188 45.46875 C 82.660156 44.792969 80.933594 43.945312 79.238281 43 C 77.609375 42.085938 76.085938 41.003906 74.695312 39.753906 C 73.476562 38.703125 72.390625 37.519531 71.441406 36.199219 C 70.695312 35.21875 70.085938 34.136719 69.578125 32.988281 C 69.269531 32.277344 69 31.535156 68.796875 30.753906 C 68.660156 30.214844 68.628906 29.945312 68.628906 29.945312 L 69.371094 30.316406 C 70.015625 30.621094 70.695312 30.890625 71.40625 31.128906 C 73.578125 31.835938 75.882812 32.210938 78.152344 32.210938 C 79.542969 32.242188 80.933594 32.210938 82.289062 32.074219 C 83.746094 31.972656 85.238281 31.835938 86.796875 31.703125 C 89.914062 31.398438 93.375 31.195312 96.933594 31.703125 C 100.1875 32.140625 103.273438 33.257812 106.019531 35.050781 C 108.050781 36.371094 109.746094 38.195312 110.933594 40.328125 C 111.578125 41.746094 111.984375 43.203125 112.050781 44.691406 Z M 119.816406 31.464844 C 119.410156 30.25 118.867188 29.0625 118.152344 27.980469 C 117.613281 27.203125 117.273438 26.796875 117.273438 26.796875 L 116.96875 28.183594 C 116.695312 29.265625 116.324219 30.347656 115.917969 31.398438 C 114.933594 33.867188 113.375 36.808594 112.796875 39.921875 C 112.664062 40.664062 112.59375 41.410156 112.59375 42.152344 C 112.59375 42.796875 112.664062 43.472656 112.765625 44.117188 C 112.933594 45.164062 113.339844 46.144531 113.882812 47.023438 C 114.085938 47.328125 114.324219 47.632812 114.5625 47.9375 C 114.765625 48.140625 114.96875 48.34375 115.203125 48.511719 C 115.40625 48.679688 115.613281 48.816406 115.847656 48.917969 C 116.050781 48.78125 116.253906 48.613281 116.425781 48.445312 C 116.59375 48.308594 116.796875 48.105469 117.035156 47.871094 C 117.304688 47.632812 117.542969 47.363281 117.78125 47.089844 C 118.355469 46.414062 118.867188 45.671875 119.304688 44.859375 C 119.882812 43.742188 120.289062 42.558594 120.492188 41.308594 C 121.035156 38.09375 120.796875 34.679688 119.816406 31.464844 Z M 119.816406 31.464844 " fill-opacity="1" fill-rule="nonzero"/><path fill="#a5ff5f" d="M 118.832031 41.578125 C 117.542969 42.492188 116.59375 43.777344 116.152344 45.300781 C 116.085938 45.941406 116.050781 46.585938 116.050781 47.226562 L 116.050781 47.871094 C 116.050781 48.074219 116.085938 48.308594 116.085938 48.511719 L 116.121094 49.15625 C 116.121094 49.359375 116.152344 49.59375 116.1875 49.796875 L 116.390625 51.050781 L 116.390625 51.082031 C 116.527344 51.386719 116.664062 51.691406 116.796875 51.996094 C 116.933594 52.335938 116.765625 52.738281 116.425781 52.875 C 116.425781 52.875 116.390625 52.875 116.390625 52.875 C 116.050781 53.011719 115.679688 52.839844 115.511719 52.503906 L 115.511719 52.46875 C 115.203125 51.65625 114.832031 50.847656 114.355469 50.101562 C 113.882812 49.359375 113.339844 48.648438 112.765625 47.972656 C 112.1875 47.292969 111.542969 46.6875 110.832031 46.109375 C 110.121094 45.535156 109.40625 44.996094 108.628906 44.519531 C 105.882812 42.796875 102.730469 41.714844 99.507812 41.003906 L 99.40625 41.003906 C 96.425781 41.308594 93.644531 42.59375 91.476562 44.65625 C 93.203125 42.761719 95.441406 41.375 97.917969 40.632812 C 94.457031 39.957031 90.933594 39.582031 87.476562 39.042969 C 87.304688 39.007812 87.101562 38.972656 86.933594 38.941406 C 85.238281 38.871094 83.578125 39.210938 82.050781 39.957031 C 83.238281 39.3125 84.492188 38.90625 85.847656 38.738281 C 82.730469 38.195312 79.644531 37.417969 76.761719 36.132812 C 80.1875 37.554688 83.847656 38.195312 87.507812 38.667969 C 88.527344 38.804688 89.542969 38.90625 90.558594 39.042969 C 89.070312 38.265625 88.050781 36.808594 87.78125 35.152344 C 88.1875 37.148438 89.710938 38.703125 91.710938 39.144531 C 93.984375 39.378906 96.289062 39.652344 98.558594 40.023438 C 100.222656 40.292969 101.847656 40.664062 103.441406 41.140625 C 102.695312 40.5625 101.984375 39.988281 101.304688 39.347656 C 99.882812 38.09375 98.59375 36.675781 97.441406 35.152344 C 98.660156 36.605469 100.019531 37.925781 101.507812 39.074219 C 102.730469 40.023438 104.019531 40.9375 105.304688 41.746094 C 106.628906 42.222656 107.917969 42.828125 109.171875 43.539062 C 109.984375 44.015625 110.765625 44.554688 111.507812 45.128906 C 112.253906 45.703125 112.96875 46.347656 113.613281 47.058594 C 114.253906 47.769531 114.867188 48.511719 115.40625 49.324219 L 115.542969 49.5625 C 115.511719 49.390625 115.511719 49.257812 115.511719 49.085938 L 115.476562 48.410156 C 115.476562 48.175781 115.441406 47.972656 115.476562 47.734375 L 115.511719 47.089844 C 115.578125 45.503906 115.78125 43.945312 116.085938 42.390625 C 116.085938 42.390625 116.085938 42.355469 116.085938 42.355469 C 115.917969 40.9375 115.339844 39.582031 114.425781 38.46875 C 115.273438 39.378906 115.882812 40.460938 116.1875 41.644531 C 116.527344 39.921875 116.898438 38.195312 117.203125 36.4375 C 117.238281 35.660156 117.035156 34.914062 116.628906 34.273438 C 117 34.78125 117.203125 35.355469 117.304688 35.964844 C 117.578125 34.507812 117.746094 33.054688 117.816406 31.566406 C 117.746094 33.800781 117.511719 36.03125 117.101562 38.230469 C 117.511719 37.554688 118.222656 37.082031 119 36.945312 C 118.050781 37.148438 117.273438 37.859375 117 38.804688 C 116.832031 39.855469 116.628906 40.902344 116.492188 41.949219 C 116.355469 42.730469 116.253906 43.472656 116.1875 44.25 C 116.832031 43.234375 117.746094 42.289062 118.832031 41.578125 Z M 118.832031 41.578125 " fill-opacity="1" fill-rule="nonzero"/></g></g></g></svg>