<svg xmlns="http://www.w3.org/2000/svg" xmlns:xlink="http://www.w3.org/1999/xlink" width="1025" zoomAndPan="magnify" viewBox="0 0 768.75 599.999999" height="800" preserveAspectRatio="xMidYMid meet" version="1.0"><defs><filter x="0%" y="0%" width="100%" height="100%" id="772a719e6b"><feColorMatrix values="0 0 0 0 1 0 0 0 0 1 0 0 0 0 1 0 0 0 1 0" color-interpolation-filters="sRGB"/></filter><clipPath id="7466e9680e"><path d="M 593 15.867188 L 714 15.867188 L 714 24 L 593 24 Z M 593 15.867188 " clip-rule="nonzero"/></clipPath><mask id="4f275feb44"><g filter="url(#772a719e6b)"><rect x="-76.875" width="922.5" fill="#000000" y="-60" height="719.999999" fill-opacity="0.67"/></g></mask><clipPath id="f7b7068b19"><path d="M 0.765625 0.875 L 111.730469 0.875 L 111.730469 155.324219 L 0.765625 155.324219 Z M 0.765625 0.875 " clip-rule="nonzero"/></clipPath><clipPath id="46e5a2dedd"><rect x="0" width="112" y="0" height="157"/></clipPath></defs><g clip-path="url(#7466e9680e)"><path fill="#545454" d="M 709.230469 15.867188 L 597.046875 15.867188 C 594.835938 15.867188 593.042969 17.660156 593.042969 19.871094 C 593.042969 22.085938 594.835938 23.878906 597.046875 23.878906 L 709.230469 23.878906 C 711.445312 23.878906 713.238281 22.085938 713.238281 19.871094 C 713.238281 17.660156 711.445312 15.867188 709.230469 15.867188 Z M 709.230469 15.867188 " fill-opacity="1" fill-rule="nonzero"/></g><g mask="url(#4f275feb44)"><g transform="matrix(1, 0, 0, 1, 597, 19)"><g clip-path="url(#46e5a2dedd)"><g clip-path="url(#f7b7068b19)"><path fill="#98bc13" d="M 0.765625 0.929688 L 0.765625 125.933594 L 56.246094 155.285156 L 111.726562 125.933594 L 111.726562 0.929688 L 0.765625 0.929688 " fill-opacity="1" fill-rule="nonzero"/></g><path fill="#ffffff" d="M 19.632812 82.710938 L 19.632812 44.503906 L 39.203125 44.503906 L 39.203125 50.925781 L 26.308594 50.925781 L 26.308594 60.5 L 37.480469 60.5 L 37.480469 66.945312 L 26.308594 66.945312 L 26.308594 76.289062 L 39.203125 76.289062 L 39.203125 82.710938 L 19.632812 82.710938 " fill-opacity="1" fill-rule="nonzero"/><path fill="#ffffff" d="M 51.503906 83.09375 L 49.128906 81.75 C 47.539062 80.851562 46.3125 79.539062 45.472656 77.851562 C 44.644531 76.1875 44.226562 74.175781 44.226562 71.875 L 44.226562 55.367188 C 44.226562 53.066406 44.644531 51.050781 45.472656 49.375 C 46.308594 47.679688 47.539062 46.363281 49.128906 45.46875 C 50.703125 44.574219 52.601562 44.121094 54.769531 44.121094 C 57.054688 44.121094 58.992188 44.574219 60.53125 45.46875 C 62.082031 46.375 63.265625 47.761719 64.050781 49.59375 C 64.816406 51.386719 65.222656 53.671875 65.257812 56.386719 L 65.265625 56.890625 L 58.484375 56.890625 L 58.480469 56.398438 C 58.464844 55.078125 58.300781 53.972656 57.996094 53.117188 C 57.707031 52.304688 57.292969 51.699219 56.761719 51.320312 C 56.234375 50.9375 55.5625 50.746094 54.769531 50.746094 C 53.996094 50.746094 53.320312 50.925781 52.761719 51.273438 C 52.199219 51.625 51.777344 52.125 51.476562 52.808594 C 51.164062 53.507812 51.003906 54.367188 51.003906 55.367188 L 51.003906 71.875 C 51.003906 72.855469 51.164062 73.710938 51.476562 74.410156 C 51.78125 75.089844 52.199219 75.59375 52.761719 75.941406 C 53.320312 76.289062 53.992188 76.46875 54.769531 76.46875 C 55.574219 76.46875 56.222656 76.28125 56.746094 75.898438 C 57.269531 75.515625 57.679688 74.914062 57.972656 74.109375 C 58.277344 73.261719 58.449219 72.148438 58.480469 70.8125 L 58.492188 70.324219 L 65.265625 70.324219 L 65.257812 70.832031 C 65.222656 73.542969 64.816406 75.828125 64.050781 77.621094 C 63.265625 79.453125 62.082031 80.839844 60.53125 81.746094 C 58.996094 82.640625 57.058594 83.09375 54.769531 83.09375 L 51.503906 83.09375 " fill-opacity="1" fill-rule="nonzero"/><path fill="#ffffff" d="M 81.851562 50.699219 C 80.96875 50.699219 80.195312 50.882812 79.558594 51.246094 C 78.917969 51.609375 78.453125 52.101562 78.125 52.75 C 77.792969 53.410156 77.625 54.210938 77.625 55.136719 L 77.625 72.054688 C 77.625 72.976562 77.796875 73.785156 78.125 74.453125 C 78.453125 75.109375 78.917969 75.601562 79.554688 75.953125 C 80.191406 76.3125 80.964844 76.492188 81.851562 76.492188 C 82.738281 76.492188 83.511719 76.3125 84.148438 75.953125 C 84.785156 75.601562 85.257812 75.109375 85.589844 74.449219 C 85.929688 73.78125 86.105469 72.972656 86.105469 72.054688 L 86.105469 55.136719 C 86.105469 54.214844 85.929688 53.414062 85.59375 52.753906 C 85.257812 52.101562 84.785156 51.609375 84.144531 51.246094 C 83.507812 50.882812 82.734375 50.699219 81.851562 50.699219 Z M 81.851562 83.09375 C 79.605469 83.09375 77.632812 82.65625 75.992188 81.792969 C 74.335938 80.925781 73.050781 79.652344 72.164062 78.007812 C 71.292969 76.382812 70.847656 74.429688 70.847656 72.207031 L 70.847656 55.007812 C 70.847656 52.785156 71.292969 50.832031 72.164062 49.195312 C 73.046875 47.542969 74.335938 46.269531 75.996094 45.40625 C 77.636719 44.554688 79.605469 44.121094 81.851562 44.121094 C 84.097656 44.121094 86.066406 44.554688 87.707031 45.40625 C 89.367188 46.269531 90.65625 47.542969 91.539062 49.195312 C 92.414062 50.832031 92.855469 52.789062 92.855469 55.007812 L 92.855469 72.207031 C 92.855469 74.429688 92.414062 76.378906 91.539062 78.007812 C 90.65625 79.652344 89.367188 80.925781 87.707031 81.792969 C 86.070312 82.65625 84.097656 83.09375 81.851562 83.09375 " fill-opacity="1" fill-rule="nonzero"/></g></g></g></svg>