<svg xmlns="http://www.w3.org/2000/svg" xmlns:xlink="http://www.w3.org/1999/xlink" width="1025" zoomAndPan="magnify" viewBox="0 0 768.75 599.999999" height="800" preserveAspectRatio="xMidYMid meet" version="1.0"><defs><clipPath id="c32db3c4f5"><path d="M 593 15.867188 L 714 15.867188 L 714 24 L 593 24 Z M 593 15.867188 " clip-rule="nonzero"/></clipPath><clipPath id="027debf17c"><path d="M 594.410156 142 L 712 142 L 712 259.796875 L 594.410156 259.796875 Z M 594.410156 142 " clip-rule="nonzero"/></clipPath></defs><g clip-path="url(#c32db3c4f5)"><path fill="#545454" d="M 709.230469 15.867188 L 597.046875 15.867188 C 594.835938 15.867188 593.042969 17.660156 593.042969 19.871094 C 593.042969 22.085938 594.835938 23.878906 597.046875 23.878906 L 709.230469 23.878906 C 711.445312 23.878906 713.238281 22.085938 713.238281 19.871094 C 713.238281 17.660156 711.445312 15.867188 709.230469 15.867188 Z M 709.230469 15.867188 " fill-opacity="1" fill-rule="nonzero"/></g><g clip-path="url(#027debf17c)"><path fill="#ffc50d" d="M 653.144531 142.183594 C 685.554688 142.183594 711.871094 168.496094 711.871094 200.90625 C 711.871094 233.316406 685.554688 259.632812 653.144531 259.632812 C 620.734375 259.632812 594.421875 233.316406 594.421875 200.90625 C 594.421875 168.496094 620.734375 142.183594 653.144531 142.183594 " fill-opacity="1" fill-rule="evenodd"/></g><path fill="#f59f0a" d="M 653.144531 154.828125 C 678.144531 154.828125 698.4375 175.476562 698.4375 200.90625 C 698.4375 226.339844 678.144531 246.988281 653.144531 246.988281 C 628.148438 246.988281 607.855469 226.339844 607.855469 200.90625 C 607.855469 175.476562 628.148438 154.828125 653.144531 154.828125 " fill-opacity="1" fill-rule="evenodd"/><path fill="#faf29f" d="M 615.363281 174.261719 C 615.429688 174.0625 615.628906 173.929688 615.851562 173.929688 C 616.074219 173.929688 616.269531 174.0625 616.335938 174.261719 L 618.207031 179.847656 L 624.253906 181.570312 C 624.46875 181.632812 624.613281 181.8125 624.613281 182.019531 C 624.613281 182.226562 624.46875 182.410156 624.253906 182.46875 L 618.207031 184.195312 L 616.335938 189.78125 C 616.269531 189.976562 616.074219 190.109375 615.851562 190.109375 C 615.628906 190.109375 615.429688 189.976562 615.363281 189.78125 L 613.496094 184.195312 L 607.445312 182.46875 C 607.234375 182.410156 607.085938 182.226562 607.085938 182.019531 C 607.085938 181.8125 607.234375 181.632812 607.445312 181.570312 L 613.496094 179.847656 L 615.363281 174.261719 " fill-opacity="1" fill-rule="evenodd"/><path fill="#faf29f" d="M 689.574219 219.195312 C 689.640625 218.996094 689.839844 218.859375 690.066406 218.859375 C 690.292969 218.859375 690.492188 218.996094 690.558594 219.195312 L 692.453125 224.867188 L 698.59375 226.617188 C 698.8125 226.675781 698.957031 226.863281 698.957031 227.070312 C 698.957031 227.28125 698.8125 227.464844 698.59375 227.527344 L 692.453125 229.277344 L 690.558594 234.945312 C 690.492188 235.148438 690.292969 235.28125 690.066406 235.28125 C 689.839844 235.28125 689.640625 235.148438 689.574219 234.945312 L 687.675781 229.277344 L 681.535156 227.527344 C 681.320312 227.464844 681.171875 227.28125 681.171875 227.070312 C 681.171875 226.863281 681.320312 226.675781 681.535156 226.617188 L 687.675781 224.867188 L 689.574219 219.195312 " fill-opacity="1" fill-rule="evenodd"/><path fill="#faf29f" d="M 606.597656 185.742188 C 606.640625 185.613281 606.773438 185.523438 606.921875 185.523438 C 607.070312 185.523438 607.203125 185.613281 607.25 185.742188 L 608.503906 189.492188 L 612.5625 190.648438 C 612.703125 190.691406 612.800781 190.8125 612.800781 190.953125 C 612.800781 191.089844 612.703125 191.210938 612.5625 191.25 L 608.503906 192.410156 L 607.25 196.160156 C 607.203125 196.289062 607.070312 196.378906 606.921875 196.378906 C 606.773438 196.378906 606.640625 196.289062 606.597656 196.160156 L 605.34375 192.410156 L 601.28125 191.25 C 601.140625 191.210938 601.042969 191.089844 601.042969 190.953125 C 601.042969 190.8125 601.140625 190.691406 601.28125 190.648438 L 605.34375 189.492188 L 606.597656 185.742188 " fill-opacity="1" fill-rule="evenodd"/><path fill="#faf29f" d="M 698.335938 209.863281 C 698.386719 209.71875 698.53125 209.617188 698.695312 209.617188 C 698.859375 209.617188 699.003906 209.71875 699.050781 209.863281 L 700.425781 213.972656 L 704.878906 215.242188 C 705.035156 215.289062 705.144531 215.421875 705.144531 215.574219 C 705.144531 215.726562 705.035156 215.859375 704.878906 215.902344 L 700.425781 217.171875 L 699.050781 221.285156 C 699.003906 221.429688 698.859375 221.527344 698.695312 221.527344 C 698.53125 221.527344 698.386719 221.429688 698.335938 221.285156 L 696.960938 217.171875 L 692.511719 215.902344 C 692.355469 215.859375 692.246094 215.726562 692.246094 215.574219 C 692.246094 215.421875 692.355469 215.289062 692.511719 215.242188 L 696.960938 213.972656 L 698.335938 209.863281 " fill-opacity="1" fill-rule="evenodd"/><path fill="#faf29f" d="M 648.984375 220.777344 C 648.984375 224.707031 652.242188 226.800781 655.652344 226.773438 C 659.054688 226.746094 662.285156 224.59375 662.285156 220.777344 L 662.285156 182.917969 C 662.285156 179.542969 661.070312 177.496094 659.527344 176.4375 C 657.878906 175.308594 655.660156 175.15625 653.332031 176.152344 C 653.335938 176.148438 643.894531 179.632812 643.894531 179.632812 C 641.207031 180.53125 639.824219 182.285156 639.3125 184.121094 C 638.089844 188.515625 642.121094 193.878906 647.800781 192.035156 C 647.84375 192.019531 647.890625 192.003906 647.9375 191.984375 L 648.984375 191.566406 L 648.984375 220.777344 " fill-opacity="1" fill-rule="nonzero"/><path fill="#00a8ec" d="M 699.683594 20.019531 L 606.605469 20.019531 L 606.605469 105.867188 L 653.359375 147.636719 L 699.683594 106.171875 L 699.683594 20.019531 " fill-opacity="1" fill-rule="evenodd"/><path fill="#0596d1" d="M 653.320312 20.019531 L 653.320312 147.605469 L 653.359375 147.636719 L 699.683594 106.171875 L 699.683594 20.019531 L 653.320312 20.019531 " fill-opacity="1" fill-rule="evenodd"/><path fill="#f59f0a" d="M 653.039062 136.933594 C 657.414062 136.933594 660.96875 140.484375 660.96875 144.859375 C 660.96875 149.234375 657.414062 152.789062 653.039062 152.789062 C 648.664062 152.789062 645.113281 149.234375 645.113281 144.859375 C 645.113281 140.484375 648.664062 136.933594 653.039062 136.933594 " fill-opacity="1" fill-rule="evenodd"/></svg>