<svg xmlns="http://www.w3.org/2000/svg" xmlns:xlink="http://www.w3.org/1999/xlink" width="1025" zoomAndPan="magnify" viewBox="0 0 768.75 599.999999" height="800" preserveAspectRatio="xMidYMid meet" version="1.0"><defs><clipPath id="6e8f222333"><path d="M 0 0.0976562 L 768.5 0.0976562 L 768.5 599.902344 L 0 599.902344 Z M 0 0.0976562 " clip-rule="nonzero"/></clipPath><clipPath id="d80f410b74"><path d="M 535 222 L 741.695312 222 L 741.695312 369 L 535 369 Z M 535 222 " clip-rule="nonzero"/></clipPath></defs><g clip-path="url(#6e8f222333)"><path fill="#ffffff" d="M 0 0.0976562 L 768.5 0.0976562 L 768.5 599.902344 L 0 599.902344 Z M 0 0.0976562 " fill-opacity="1" fill-rule="nonzero"/><path fill="#ecffc2" d="M 0 0.0976562 L 768.5 0.0976562 L 768.5 599.902344 L 0 599.902344 Z M 0 0.0976562 " fill-opacity="1" fill-rule="nonzero"/></g><g clip-path="url(#d80f410b74)"><path fill="#4b7800" d="M 730.308594 280.011719 C 728.039062 276.75 725.316406 273.449219 722.015625 269.941406 L 721.976562 269.902344 C 720.242188 268.25 718.554688 266.558594 716.78125 264.785156 L 716.695312 264.703125 C 707.128906 255.292969 696.320312 244.605469 683.824219 236.394531 C 679.949219 233.835938 676.027344 231.609375 672.152344 229.75 C 658.335938 223.316406 645.671875 221.003906 633.464844 222.738281 C 619.605469 224.800781 614.160156 234.375 612.183594 239.863281 C 610.40625 244.441406 609.335938 249.144531 608.261719 253.726562 C 605.914062 264.125 603.683594 273.988281 593.332031 281.621094 C 586.195312 287.109375 576.667969 288.71875 566.605469 290.453125 C 559.636719 291.648438 552.417969 292.886719 545.941406 295.484375 C 538.601562 298.457031 534.765625 304.441406 535.34375 311.867188 C 535.34375 314.839844 535.589844 317.890625 536.085938 320.90625 C 537.691406 330.023438 541.238281 338.605469 546.644531 346.363281 C 549.078125 349.832031 551.839844 353.132812 554.933594 356.183594 C 561.203125 363.199219 569.617188 366.75 579.929688 366.75 C 580.875 366.75 581.867188 366.707031 582.855469 366.667969 C 591.722656 366.128906 601.746094 363.199219 613.417969 357.792969 C 616.84375 356.226562 620.347656 354.410156 624.183594 352.347656 C 627.566406 350.53125 630.867188 349.375 634.332031 348.921875 C 637.464844 348.511719 640.640625 348.59375 644.023438 349.253906 C 651.53125 350.695312 658.914062 354.699219 666.089844 358.578125 C 671.367188 361.425781 676.8125 364.355469 682.296875 366.296875 C 686.464844 367.78125 690.878906 368.523438 695.332031 368.523438 C 698.136719 368.523438 700.898438 368.234375 703.664062 367.65625 C 710.46875 366.210938 716.53125 362.992188 720.820312 358.621094 C 723.875 355.855469 726.761719 352.679688 729.402344 349.171875 C 737.15625 338.6875 741.363281 326.804688 741.527344 314.757812 C 741.691406 302.707031 737.8125 290.699219 730.308594 280.011719 Z M 670.75 233.054688 C 674.460938 234.867188 678.296875 237.015625 682.050781 239.488281 C 694.257812 247.535156 704.984375 258.058594 714.429688 267.382812 C 716.242188 269.199219 717.976562 270.890625 719.707031 272.542969 C 722.882812 275.925781 725.480469 279.0625 727.667969 282.199219 C 734.804688 292.390625 738.351562 303.324219 738.1875 314.757812 C 738.019531 326.144531 734.183594 336.996094 726.800781 346.984375 C 724.328125 350.324219 721.605469 353.339844 718.636719 355.980469 L 718.59375 356.019531 C 714.757812 359.941406 709.273438 362.828125 703.085938 364.148438 C 696.488281 365.550781 689.722656 365.140625 683.453125 362.910156 C 678.214844 361.054688 672.851562 358.164062 667.699219 355.402344 C 660.316406 351.441406 652.726562 347.3125 644.722656 345.746094 C 642.457031 345.292969 640.269531 345.085938 638.167969 345.085938 C 636.765625 345.085938 635.402344 345.167969 634 345.375 C 630.207031 345.910156 626.410156 347.148438 622.742188 349.171875 C 618.945312 351.234375 615.480469 352.964844 612.140625 354.535156 C 600.796875 359.773438 591.1875 362.582031 582.734375 363.117188 C 572.089844 363.777344 563.554688 360.601562 557.40625 353.710938 L 557.367188 353.625 C 554.4375 350.695312 551.757812 347.519531 549.449219 344.21875 C 544.332031 336.914062 540.992188 328.867188 539.507812 320.285156 C 539.054688 317.480469 538.804688 314.632812 538.847656 311.785156 L 538.847656 311.660156 C 538.640625 309.019531 539.175781 306.503906 540.414062 304.398438 C 541.816406 302.003906 544.128906 300.148438 547.261719 298.871094 C 553.449219 296.394531 560.460938 295.195312 567.265625 294.042969 C 577.289062 292.347656 587.683594 290.574219 595.394531 284.59375 C 606.777344 276.214844 609.292969 265.238281 611.6875 254.59375 C 612.675781 250.175781 613.75 245.554688 615.441406 241.222656 C 617.171875 236.4375 621.914062 228.140625 634.042969 226.328125 C 645.507812 224.675781 657.550781 226.90625 670.75 233.054688 Z M 670.75 233.054688 " fill-opacity="1" fill-rule="nonzero"/></g><path fill="#71b500" d="M 557.203125 351.152344 C 560.171875 356.554688 565.574219 360.394531 573 359.320312 C 588.671875 357.050781 602.984375 345.582031 618.328125 347.808594 C 637.050781 350.160156 644.972656 365.59375 657.921875 375.703125 C 664.234375 380.859375 673.019531 383.996094 682.667969 379.871094 C 694.507812 374.710938 702.425781 365.140625 708.160156 354.90625 C 710.179688 351.191406 711.871094 347.355469 713.355469 343.351562 C 719.253906 327.507812 721.316406 310.09375 723.832031 294.90625 C 724.328125 290.535156 724.617188 286.324219 724.492188 282.15625 C 724.203125 269.652344 720.699219 257.5625 713.644531 246.957031 C 706.59375 236.355469 696.777344 228.472656 685.351562 223.398438 C 681.554688 221.707031 677.554688 220.34375 673.511719 219.394531 C 662.335938 216.050781 648.4375 220.261719 640.558594 231.359375 C 633.175781 241.757812 629.257812 256.78125 620.347656 265.734375 C 618.121094 267.960938 615.5625 269.859375 612.59375 271.179688 C 609.625 272.5 606.160156 273.285156 602.160156 273.367188 C 598.53125 273.449219 594.695312 273.617188 590.734375 273.945312 C 570.976562 275.679688 549.199219 281.910156 547.304688 303.410156 C 546.683594 307.617188 546.394531 311.828125 546.519531 315.992188 C 546.765625 325.609375 548.953125 334.6875 552.707031 342.9375 C 553.984375 345.828125 555.511719 348.550781 557.203125 351.152344 Z M 557.203125 351.152344 " fill-opacity="1" fill-rule="nonzero"/><path fill="#ffffff" d="M 639.28125 294.949219 L 652.066406 294.949219 C 653.34375 294.949219 654.292969 293.957031 654.292969 292.597656 C 654.292969 291.234375 653.386719 290.285156 652.066406 290.285156 L 640.269531 290.285156 C 640.0625 290.285156 639.980469 290.246094 639.980469 290.246094 C 639.980469 290.246094 639.980469 290.203125 639.980469 290.121094 L 639.980469 282.898438 L 650.332031 282.898438 C 651.570312 282.898438 652.519531 281.910156 652.519531 280.589844 C 652.519531 279.226562 651.613281 278.277344 650.332031 278.277344 L 639.980469 278.277344 L 639.980469 272.335938 C 639.980469 272.210938 639.980469 272.128906 639.980469 272.089844 C 640.023438 272.089844 640.0625 272.089844 640.1875 272.089844 L 651.816406 272.089844 C 653.136719 272.089844 654.046875 271.097656 654.046875 269.738281 C 654.046875 268.375 653.136719 267.425781 651.816406 267.425781 L 639.363281 267.425781 C 636.476562 267.425781 635.074219 268.871094 635.074219 271.882812 L 635.074219 290.492188 C 635.03125 293.503906 636.394531 294.949219 639.28125 294.949219 Z M 639.28125 294.949219 " fill-opacity="1" fill-rule="nonzero"/><path fill="#ffffff" d="M 680.113281 287.894531 C 680.195312 287.605469 680.277344 287.316406 680.277344 287.027344 C 680.277344 285.871094 679.328125 285.046875 678.460938 284.839844 C 676.976562 284.425781 675.699219 285.046875 675.203125 286.367188 C 674.253906 289.335938 672.316406 290.738281 669.390625 290.738281 C 664.933594 290.738281 662.089844 286.984375 662.089844 281.167969 C 662.089844 275.265625 664.894531 271.59375 669.390625 271.59375 C 672.894531 271.59375 674.171875 273.492188 674.957031 275.390625 C 675.371094 276.257812 676.195312 276.75 677.144531 276.75 C 677.554688 276.75 677.925781 276.667969 678.214844 276.585938 C 679.039062 276.296875 679.863281 275.515625 679.863281 274.398438 C 679.863281 274.027344 679.78125 273.699219 679.660156 273.410156 C 678.460938 270.4375 675.65625 266.890625 669.222656 266.890625 C 661.882812 266.890625 656.933594 272.625 656.933594 281.125 C 656.933594 289.832031 661.839844 295.445312 669.472656 295.445312 C 676.402344 295.484375 679.121094 290.738281 680.113281 287.894531 Z M 680.113281 287.894531 " fill-opacity="1" fill-rule="nonzero"/><path fill="#ffffff" d="M 695.539062 295.484375 C 703.085938 295.484375 707.910156 289.875 707.910156 281.207031 C 707.910156 272.542969 703.042969 266.929688 695.539062 266.929688 C 687.992188 266.929688 683.082031 272.542969 683.082031 281.167969 C 683.082031 289.875 687.949219 295.484375 695.539062 295.484375 Z M 695.539062 271.59375 C 699.992188 271.59375 702.839844 275.308594 702.839844 281 C 702.839844 287.148438 700.117188 290.78125 695.539062 290.78125 C 691 290.78125 688.15625 287.109375 688.15625 281.207031 C 688.15625 275.265625 690.960938 271.59375 695.539062 271.59375 Z M 695.539062 271.59375 " fill-opacity="1" fill-rule="nonzero"/><path fill="#ffffff" d="M 574.402344 305.390625 L 568.542969 305.390625 C 566.316406 305.390625 565.246094 306.503906 565.246094 308.855469 L 565.246094 325.527344 C 565.246094 326.597656 565.988281 327.257812 567.101562 327.257812 C 568.214844 327.257812 568.957031 326.558594 568.957031 325.566406 L 568.957031 318.71875 L 574.277344 318.71875 C 578.773438 318.71875 581.496094 316.160156 581.496094 311.867188 C 581.496094 307.824219 578.855469 305.390625 574.402344 305.390625 Z M 577.699219 311.910156 C 577.699219 314.136719 576.546875 315.292969 574.234375 315.292969 L 568.957031 315.292969 L 568.957031 309.144531 C 568.957031 308.8125 568.996094 308.8125 569.203125 308.8125 L 574.234375 308.8125 C 576.546875 308.855469 577.699219 309.886719 577.699219 311.910156 Z M 577.699219 311.910156 " fill-opacity="1" fill-rule="nonzero"/><path fill="#ffffff" d="M 601.085938 323.339844 C 599.601562 319.582031 598.734375 317.601562 597.621094 316.570312 C 599.765625 315.664062 600.921875 313.808594 600.921875 311.289062 C 600.921875 307.617188 598.488281 305.429688 594.40625 305.429688 L 588.257812 305.429688 C 586.03125 305.429688 584.960938 306.542969 584.960938 308.894531 L 584.960938 325.566406 C 584.960938 326.640625 585.703125 327.300781 586.816406 327.300781 C 587.886719 327.300781 588.628906 326.597656 588.628906 325.609375 L 588.628906 317.933594 L 592.878906 317.933594 C 595.023438 317.933594 595.683594 319.417969 597.582031 324.535156 L 598.242188 326.226562 C 598.488281 326.886719 599.105469 327.300781 599.847656 327.300781 C 600.097656 327.300781 600.34375 327.257812 600.589844 327.21875 C 601.417969 327.011719 601.910156 326.390625 601.910156 325.609375 C 601.910156 325.402344 601.871094 325.195312 601.789062 324.988281 Z M 594.074219 314.507812 L 588.628906 314.507812 L 588.628906 309.101562 C 588.628906 308.773438 588.671875 308.773438 588.878906 308.773438 L 594.199219 308.773438 C 596.179688 308.773438 597.128906 309.722656 597.128906 311.621094 C 597.167969 313.394531 595.972656 314.507812 594.074219 314.507812 Z M 594.074219 314.507812 " fill-opacity="1" fill-rule="nonzero"/><path fill="#ffffff" d="M 614.121094 304.976562 C 608.179688 304.976562 604.304688 309.390625 604.304688 316.199219 C 604.304688 323.050781 608.140625 327.464844 614.121094 327.464844 C 620.058594 327.464844 623.855469 323.050781 623.855469 316.199219 C 623.855469 309.351562 620.058594 304.976562 614.121094 304.976562 Z M 614.121094 324 C 610.492188 324 608.140625 320.945312 608.140625 316.242188 C 608.140625 311.453125 610.449219 308.441406 614.121094 308.441406 C 617.75 308.441406 620.058594 311.453125 620.058594 316.078125 C 620.058594 321.070312 617.875 324 614.121094 324 Z M 614.121094 324 " fill-opacity="1" fill-rule="nonzero"/><path fill="#ffffff" d="M 635.648438 305.390625 L 630.988281 305.390625 C 628.761719 305.390625 627.691406 306.503906 627.691406 308.855469 L 627.691406 323.710938 C 627.691406 326.019531 628.761719 327.136719 630.988281 327.136719 L 635.648438 327.136719 C 641.714844 327.136719 645.464844 322.886719 645.464844 316.078125 C 645.464844 309.351562 641.796875 305.390625 635.648438 305.390625 Z M 641.671875 316.035156 C 641.671875 320.820312 639.445312 323.585938 635.527344 323.585938 L 631.648438 323.585938 C 631.484375 323.585938 631.402344 323.585938 631.402344 323.296875 L 631.402344 309.144531 C 631.402344 308.980469 631.441406 308.894531 631.648438 308.894531 L 635.609375 308.894531 C 640.597656 308.855469 641.671875 312.773438 641.671875 316.035156 Z M 641.671875 316.035156 " fill-opacity="1" fill-rule="nonzero"/><path fill="#ffffff" d="M 666.417969 318.921875 L 666.417969 306.914062 C 666.417969 305.882812 665.675781 305.222656 664.5625 305.222656 C 663.449219 305.222656 662.707031 305.882812 662.707031 306.914062 L 662.707031 318.839844 C 662.707031 322.347656 661.097656 324.039062 657.796875 324.039062 C 654.539062 324.039062 652.972656 322.347656 652.972656 318.839844 L 652.972656 306.914062 C 652.972656 305.925781 652.230469 305.222656 651.117188 305.222656 C 649.960938 305.222656 649.21875 305.882812 649.21875 306.914062 L 649.21875 318.921875 C 649.21875 324.453125 652.273438 327.507812 657.796875 327.507812 C 663.367188 327.546875 666.417969 324.496094 666.417969 318.921875 Z M 666.417969 318.921875 " fill-opacity="1" fill-rule="nonzero"/><path fill="#ffffff" d="M 679.863281 308.484375 C 682.753906 308.484375 683.785156 310.050781 684.402344 311.578125 C 684.730469 312.238281 685.308594 312.609375 686.050781 312.609375 C 686.382812 312.609375 686.628906 312.570312 686.875 312.488281 C 687.496094 312.28125 688.113281 311.703125 688.113281 310.878906 C 688.113281 310.628906 688.074219 310.339844 687.949219 310.132812 C 687 307.824219 684.8125 305.019531 679.742188 305.019531 C 673.96875 305.019531 670.046875 309.515625 670.046875 316.242188 C 670.046875 323.089844 673.925781 327.507812 679.90625 327.507812 C 685.351562 327.507812 687.496094 323.792969 688.277344 321.523438 C 688.363281 321.277344 688.402344 321.109375 688.402344 320.90625 C 688.402344 320.039062 687.703125 319.417969 687.042969 319.253906 C 685.929688 318.921875 684.9375 319.378906 684.609375 320.367188 C 683.824219 322.761719 682.214844 323.957031 679.863281 323.957031 C 676.234375 323.957031 673.925781 320.90625 673.925781 316.242188 C 673.925781 311.453125 676.195312 308.484375 679.863281 308.484375 Z M 679.863281 308.484375 " fill-opacity="1" fill-rule="nonzero"/><path fill="#ffffff" d="M 706.261719 305.390625 L 691.785156 305.390625 C 690.878906 305.390625 690.175781 306.171875 690.175781 307.164062 C 690.175781 308.152344 690.878906 308.894531 691.824219 308.894531 L 697.1875 308.894531 L 697.1875 325.566406 C 697.1875 326.558594 697.972656 327.257812 699.042969 327.257812 C 700.15625 327.257812 700.898438 326.558594 700.898438 325.566406 L 700.898438 308.894531 L 706.261719 308.894531 C 707.167969 308.894531 707.871094 308.152344 707.871094 307.164062 C 707.871094 306.171875 707.167969 305.390625 706.261719 305.390625 Z M 706.261719 305.390625 " fill-opacity="1" fill-rule="nonzero"/><path fill="#ffffff" d="M 652.355469 342.691406 L 650.167969 342.734375 C 649.425781 342.773438 648.890625 343.351562 648.890625 344.09375 C 648.890625 344.835938 649.46875 345.414062 650.25 345.414062 L 651.613281 345.375 L 651.613281 355.113281 C 651.613281 355.855469 652.148438 356.390625 652.972656 356.390625 C 653.796875 356.390625 654.335938 355.855469 654.335938 355.113281 L 654.335938 344.796875 C 654.292969 343.722656 654.085938 342.691406 652.355469 342.691406 Z M 652.355469 342.691406 " fill-opacity="1" fill-rule="nonzero"/><path fill="#ffffff" d="M 663.738281 342.484375 C 661.800781 342.484375 658.542969 343.394531 658.542969 349.5 C 658.542969 355.359375 661.347656 356.597656 663.695312 356.597656 C 665.636719 356.597656 668.851562 355.691406 668.851562 349.542969 C 668.894531 343.394531 665.675781 342.484375 663.738281 342.484375 Z M 663.738281 354 C 663.121094 354 661.304688 354 661.304688 349.5 C 661.304688 345.085938 663.160156 345.085938 663.738281 345.085938 C 664.316406 345.085938 666.128906 345.085938 666.128906 349.5 C 666.128906 354 664.316406 354 663.738281 354 Z M 663.738281 354 " fill-opacity="1" fill-rule="nonzero"/><path fill="#ffffff" d="M 674.914062 342.484375 C 672.976562 342.484375 669.71875 343.394531 669.71875 349.5 C 669.71875 355.359375 672.523438 356.597656 674.875 356.597656 C 676.8125 356.597656 680.03125 355.691406 680.03125 349.542969 C 680.070312 343.394531 676.855469 342.484375 674.914062 342.484375 Z M 674.914062 354 C 674.296875 354 672.480469 354 672.480469 349.5 C 672.480469 345.085938 674.339844 345.085938 674.914062 345.085938 C 675.492188 345.085938 677.308594 345.085938 677.308594 349.5 C 677.308594 354 675.492188 354 674.914062 354 Z M 674.914062 354 " fill-opacity="1" fill-rule="nonzero"/><path fill="#ffffff" d="M 691.539062 348.425781 C 690.960938 348.425781 690.421875 348.550781 689.96875 348.800781 L 693.476562 344.261719 C 693.683594 344.011719 693.722656 343.804688 693.722656 343.640625 C 693.722656 343.269531 693.515625 342.898438 693.1875 342.691406 C 692.691406 342.320312 692.03125 342.363281 691.621094 342.855469 L 687.660156 347.972656 C 687.742188 347.5625 687.824219 347.105469 687.824219 346.613281 C 687.824219 344.054688 686.503906 342.484375 684.402344 342.484375 C 682.296875 342.484375 680.980469 344.054688 680.980469 346.570312 C 680.980469 349.085938 682.296875 350.65625 684.402344 350.65625 C 684.9375 350.65625 685.433594 350.53125 685.886719 350.367188 L 682.464844 354.824219 L 682.421875 354.863281 C 682.382812 354.949219 682.257812 355.152344 682.257812 355.402344 C 682.257812 355.730469 682.421875 356.0625 682.710938 356.308594 L 682.753906 356.351562 C 683.246094 356.722656 683.949219 356.640625 684.320312 356.226562 L 688.277344 351.070312 C 688.15625 351.523438 688.074219 352.015625 688.074219 352.554688 C 688.074219 355.070312 689.394531 356.640625 691.539062 356.640625 C 693.601562 356.640625 694.960938 355.070312 694.960938 352.636719 C 694.960938 349.953125 693.683594 348.425781 691.539062 348.425781 Z M 692.484375 352.390625 C 692.484375 354.246094 691.785156 354.246094 691.578125 354.246094 C 690.753906 354.246094 690.628906 353.171875 690.628906 352.511719 C 690.628906 351.6875 690.796875 350.695312 691.621094 350.695312 C 692.363281 350.738281 692.484375 351.769531 692.484375 352.390625 Z M 684.441406 344.796875 C 685.226562 344.796875 685.351562 345.703125 685.351562 346.488281 C 685.351562 347.191406 685.226562 348.304688 684.441406 348.304688 C 683.617188 348.304688 683.496094 347.230469 683.496094 346.613281 C 683.496094 345.414062 683.824219 344.796875 684.441406 344.796875 Z M 684.441406 344.796875 " fill-opacity="1" fill-rule="nonzero"/></svg>