<svg xmlns="http://www.w3.org/2000/svg" viewBox="0 0 490.16 328.2" xmlns:v="https://vecta.io/nano"><style><![CDATA[.H{letter-spacing:0em}.G{letter-spacing:0em}.E{letter-spacing:-.01em}.F{letter-spacing:0em}.I{letter-spacing:-.02em}.D{letter-spacing:.01em}]]></style><rect x="54.63" y="36.58" width="380.44" height="254.24" rx="43.46" fill="#231f20"/><path d="M276.77 252.07h158.76v4.28c0 19.47-15.81 35.28-35.28 35.28H254.56v-17.35c0-12.25 9.95-22.2 22.2-22.2z" fill="#fff"/><text transform="matrix(.95 0 0 1 302.28 279.55)" font-family="ApercuPro-Bold,Apercu Pro" font-size="22.31" font-weight="700"><tspan class="D" x="0" y="0">E</tspan><tspan class="E" x="13.14" y="0">a</tspan><tspan class="F" x="24.3" y="0">rn </tspan><tspan class="G" x="52.34" y="0">P</tspan><tspan class="H" x="65.64" y="0">o</tspan><tspan class="I" x="78.84" y="0">i</tspan><tspan x="84.15" y="0">nts</tspan></text><path d="m219.76,137.25c.02,3.84,3.26,6.92,7.2,6.9l2.47-.02c3.92-.02,7.14,3.02,7.2,6.85l.43,27.32c.06,3.84,3.33,6.92,7.3,6.85h.37c3.88-.08,7-3.14,7.02-6.92l.2-41.52c.02-3.94-3.33-7.1-7.37-6.98l-17.87.53c-3.88.14-6.96,3.24-6.94,7h0Z" fill="#fff"/><ellipse cx="262.74" cy="137" rx="7.2" ry="7.36" fill="#f31100"/><g fill="none" stroke-linejoin="round"><path d="M270.72 274.79h9.41v9.41h-7.86a1.55 1.55 0 0 1-1.55-1.55v-7.86h0zm1.54-12.96h7.86v9.41h-9.41v-7.86a1.55 1.55 0 0 1 1.55-1.55z" stroke="#080808" stroke-width="2.2"/><path d="M283.64 274.72h3.54v3.54h-3.54zm5.88 5.99h3.54v1.99a1.55 1.55 0 0 1-1.55 1.55h-1.99v-3.54h0zm0-5.96h3.54v3.54h-3.54zm-5.88 5.96h3.54v3.54h-3.54z" stroke="#000" stroke-width="1.47"/><g stroke="#080808" stroke-width="2.2"><path d="m283.64,261.83h7.86c.85,0,1.55.69,1.55,1.55v7.86h-9.41v-9.41h0Z"/><path d="M275.42 266.6h0m0 12.89h0m12.92-12.96h0" stroke-linecap="round"/></g></g></svg>