<svg id="Layer_1" data-name="Layer 1" xmlns="http://www.w3.org/2000/svg" xmlns:xlink="http://www.w3.org/1999/xlink" viewBox="0 0 58.21 58.21">
  <defs>
    <style>
      .cls-1 {
        fill: url(#linear-gradient);
      }

      .cls-2 {
        fill: #efa731;
      }

      .cls-3 {
        fill: #f6ca40;
      }

      .cls-4 {
        fill: #fff;
      }

      .cls-5 {
        fill: #b26916;
      }

      .cls-6 {
        fill: none;
        filter: url(#drop-shadow-1);
      }
    </style>
    <linearGradient id="linear-gradient" x1="5.42" y1="29.1" x2="52.79" y2="29.1" gradientUnits="userSpaceOnUse">
      <stop offset="0" stop-color="#f4ce0f"/>
      <stop offset=".67" stop-color="#ffde55"/>
    </linearGradient>
    <filter id="drop-shadow-1" filterUnits="userSpaceOnUse">
      <feOffset dx="-2.16" dy="1.08"/>
      <feGaussianBlur result="blur" stdDeviation="0"/>
      <feFlood flood-color="#000" flood-opacity=".2"/>
      <feComposite in2="blur" operator="in"/>
      <feComposite in="SourceGraphic"/>
    </filter>
  </defs>
  <g>
    <path class="cls-2" d="m29.1,0C13.03,0,0,13.03,0,29.1s13.03,29.1,29.1,29.1,29.1-13.03,29.1-29.1S45.18,0,29.1,0Z"/>
    <path class="cls-3" d="m29.1,0C13.03,0,0,13.03,0,29.1s13.03,29.1,29.1,29.1,29.1-13.03,29.1-29.1S45.18,0,29.1,0Zm0,5.42s0,0,0,0h0s0,0,0,0Z"/>
    <path class="cls-1" d="m52.78,28.49c-.04-1.62-.25-3.21-.6-4.74-.04-.19-.09-.38-.14-.57-.2-.79-.45-1.56-.73-2.32-.32-.87-.7-1.72-1.12-2.54-.09-.17-.18-.34-.27-.51-.98-1.8-2.18-3.46-3.58-4.94-1.22-1.29-2.58-2.45-4.06-3.44-.61-.41-1.25-.8-1.9-1.15-.17-.09-.34-.18-.51-.27-3.23-1.66-6.9-2.59-10.78-2.59,0,0,0,0,0,0-.13,0-.25,0-.38,0-.16,0-.32,0-.48.01-.03,0-.05,0-.08,0-.14,0-.28.01-.42.02-.07,0-.13,0-.2.01-.11,0-.21.01-.32.02-.18.01-.36.03-.54.05-.8.08-1.58.2-2.35.36-.77.16-1.53.35-2.27.58-.37.12-.74.24-1.1.37-.91.33-1.79.72-2.64,1.15-.17.09-.34.18-.51.27-.34.18-.67.37-.99.57-.42.26-.83.53-1.24.81-.22.15-.44.31-.65.47-2.74,2.05-5.01,4.67-6.65,7.69-.09.17-.18.34-.27.51-.3.58-.57,1.17-.82,1.78-.09.22-.17.43-.26.65-.3.79-.56,1.6-.77,2.43-.05.19-.1.38-.14.57-.35,1.53-.56,3.11-.6,4.74,0,.2,0,.41,0,.61,0,.17,0,.34,0,.51,0,.16,0,.32.02.49,0-.01,0-.02,0-.04.09,2.22.48,4.36,1.14,6.38.19.59.41,1.18.65,1.75,1.62,3.89,4.25,7.26,7.56,9.77.41.31.83.61,1.26.89,1.05.69,2.16,1.31,3.31,1.83.48.22.97.42,1.47.6,2.41.9,5,1.42,7.71,1.48.19,0,.37,0,.56,0,.46,0,.91-.01,1.36-.04,12.12-.69,21.79-10.48,22.3-22.64,0,0,0,0,0,0,0-.16.01-.32.02-.49,0-.17,0-.34,0-.51,0-.2,0-.41,0-.61Z"/>
    <path class="cls-5" d="m42.29,9.43c-.61-.41-1.25-.8-1.9-1.15-.17-.09-.34-.18-.51-.27-3.23-1.66-6.9-2.59-10.78-2.59,0,0,0,0,0,0-.13,0-.25,0-.38,0-.16,0-.32,0-.48.01-.03,0-.05,0-.08,0-.14,0-.28.01-.42.02-.07,0-.13,0-.2.01-.11,0-.21.01-.32.02-.18.01-.36.03-.54.05-.8.08-1.58.2-2.35.36-.77.16-1.53.35-2.27.58-.37.12-.74.24-1.1.37-.91.33-1.79.72-2.64,1.15-.17.09-.34.18-.51.27-.34.18-.67.37-.99.57-.42.26-.83.53-1.24.81-.22.15-.44.31-.65.47-2.74,2.05-5.01,4.67-6.65,7.69-.09.17-.18.34-.27.51-.3.58-.57,1.17-.82,1.78-.09.22-.17.43-.26.65-.3.79-.56,1.6-.77,2.43-.05.19-.1.38-.14.57-.35,1.53-.56,3.11-.6,4.74,0,.2,0,.41,0,.61,0,.17,0,.34,0,.51,0,.16,0,.32.02.49,0-.01,0-.02,0-.04.54-12.6,10.93-22.64,23.66-22.64.03,0,.06,0,.09,0,4.99.02,9.61,1.58,13.42,4.23,1.46,1.02,2.81,2.2,4.01,3.51,2.13,2.33,3.79,5.09,4.85,8.14.75,2.14,1.2,4.43,1.3,6.8,0,0,0,0,0,0,0-.16.01-.32.02-.49,0-.17,0-.34,0-.51,0-.2,0-.41,0-.61-.04-1.62-.25-3.21-.6-4.74-.04-.19-.09-.38-.14-.57-.2-.79-.45-1.56-.73-2.32-.32-.87-.7-1.72-1.12-2.54-.09-.17-.18-.34-.27-.51-.98-1.8-2.18-3.46-3.58-4.94-1.22-1.29-2.58-2.45-4.06-3.44Z"/>
    <path class="cls-2" d="m3.48,40.81c-1.63-3.56-2.54-7.53-2.54-11.7C.94,13.55,13.55.94,29.1.94c.92,0,1.83.05,2.72.13l-3.11,4.35c-.16,0-.32,0-.48.01-.03,0-.05,0-.08,0-.14,0-.28.01-.42.02-.07,0-.13,0-.2.01-.11,0-.21.01-.32.02-.18.01-.36.03-.54.05-.8.08-1.58.2-2.35.36-.77.16-1.53.35-2.27.58-.37.12-.74.24-1.1.37-.91.33-1.79.72-2.64,1.15-.17.09-.34.18-.51.27-.34.18-.67.37-.99.57-.42.26-.83.53-1.24.81-.22.15-.44.31-.65.47-2.74,2.05-5.01,4.67-6.65,7.69-.09.17-.18.34-.27.51-.3.58-.57,1.17-.82,1.78-.09.22-.17.43-.26.65-.3.79-.56,1.6-.77,2.43-.05.19-.1.38-.14.57-.35,1.53-.56,3.11-.6,4.74,0,.2,0,.41,0,.61,0,.17,0,.34,0,.51,0,.16,0,.32.02.49,0-.01,0-.02,0-.04.09,2.22.48,4.36,1.14,6.38l-3.11,4.35Z"/>
    <path class="cls-2" d="m29.1,57.27c-1.22,0-2.42-.08-3.6-.23l3.04-4.26c.19,0,.37,0,.56,0,.46,0,.91-.01,1.36-.04,12.12-.69,21.79-10.48,22.3-22.64,0,0,0,0,0,0,0-.16.01-.32.02-.49,0-.17,0-.34,0-.51,0-.2,0-.41,0-.61-.04-1.62-.25-3.21-.6-4.74-.04-.19-.09-.38-.14-.57-.2-.79-.45-1.56-.73-2.32l3.04-4.26c1.87,3.77,2.92,8.01,2.92,12.5,0,15.55-12.61,28.16-28.16,28.16Z"/>
  </g>
  <g class="cls-6">
    <path class="cls-4" d="m16.62,21.55c0,1.91,1.62,3.45,3.58,3.44h1.23c1.95-.02,3.55,1.49,3.58,3.4l.21,13.6c.03,1.91,1.66,3.45,3.63,3.41h.19c1.93-.04,3.48-1.56,3.49-3.45l.1-20.66c0-1.96-1.66-3.53-3.67-3.48l-8.89.26c-1.93.07-3.47,1.61-3.46,3.48h0Z"/>
    <ellipse class="cls-4" cx="38.01" cy="21.42" rx="3.58" ry="3.66"/>
  </g>
</svg>