<svg id="Capa_1" enable-background="new 0 0 407.641 407.641" height="512" viewBox="0 0 407.641 407.641" width="512" xmlns="http://www.w3.org/2000/svg"><g><path d="m315.821 407.641h-224c-44.161-.053-79.947-35.839-80-80v-147.68c.024-22.537 9.53-44.024 26.192-59.2l109.888-99.904c31.578-28.795 80.226-27.639 110.4 2.624l114.096 114.112c15.046 14.97 23.48 35.335 23.424 56.56v133.488c-.053 44.161-35.84 79.948-80 80zm-114.112-375.616c-11.943-.011-23.458 4.453-32.272 12.512l-109.904 99.888c-9.997 9.112-15.699 22.009-15.712 35.536v147.68c0 26.51 21.49 48 48 48h224c26.51 0 48-21.49 48-48v-133.488c-.032-12.723-5.087-24.92-14.064-33.936l-114.096-114.176c-9.004-9-21.222-14.044-33.952-14.016z"/><path d="m283.821 407.641h-160c-8.837 0-16-7.163-16-16v-96c0-53.019 42.981-96 96-96s96 42.981 96 96v96c0 8.837-7.164 16-16 16zm-144-32h128v-80c0-35.346-28.654-64-64-64s-64 28.654-64 64z"/></g></svg>