<svg fill="none" height="24" viewBox="0 0 24 24" width="24" xmlns="http://www.w3.org/2000/svg" xmlns:xlink="http://www.w3.org/1999/xlink"><clipPath id="clip0_1_3186"><path d="m0 0h24v24h-24z"/></clipPath><g clip-path="url(#clip0_1_3186)" clip-rule="evenodd" fill="#000" fill-rule="evenodd"><path d="m0 1c0-.552285.447715-1 1-1 1.60652 0 3.04169 1.2815 3.19483 2.89804l1.40028 12.50246c.14959 1.496 1.42581 2.6995 3.00489 2.6995h10.4c.5523 0 1 .4477 1 1s-.4477 1-1 1h-10.4c-2.61874 0-4.7411-1.9931-4.99441-4.4943l-1.39938-12.4944-.0021-.02076c-.05256-.57809-.61442-1.09054-1.20411-1.09054-.552285 0-1-.44772-1-1z"/><path d="m22.0676 11.0365c.5322.1478.8437.699.6959 1.2311-.6192 2.2292-2.6105 3.7324-4.8635 3.7324h-13.3c-.55228 0-1-.4477-1-1s.44772-1 1-1h13.3c1.347 0 2.5557-.8968 2.9365-2.2676.1478-.5322.699-.8437 1.2311-.6959z"/><path d="m2.4 5c0-.55228.44772-1 1-1h5.8c.55228 0 1 .44772 1 1s-.44772 1-1 1h-5.8c-.55228 0-1-.44772-1-1z"/><path d="m19 20c-.5523 0-1 .4477-1 1s.4477 1 1 1 1-.4477 1-1-.4477-1-1-1zm-3 1c0-1.6569 1.3431-3 3-3s3 1.3431 3 3-1.3431 3-3 3-3-1.3431-3-3z"/><path d="m9 20c-.55228 0-1 .4477-1 1s.44772 1 1 1 1-.4477 1-1-.44772-1-1-1zm-3 1c0-1.6569 1.34315-3 3-3 1.6569 0 3 1.3431 3 3s-1.3431 3-3 3c-1.65685 0-3-1.3431-3-3z"/><path d="m19 0c.5523 0 1 .447715 1 1v8c0 .55229-.4477 1-1 1s-1-.44771-1-1v-8c0-.552285.4477-1 1-1z"/><path d="m14 5c0-.55228.4477-1 1-1h8c.5523 0 1 .44772 1 1s-.4477 1-1 1h-8c-.5523 0-1-.44772-1-1z"/></g></svg>