<svg id="Capa_1" enable-background="new 0 0 416 416" height="512" viewBox="0 0 416 416" width="512" xmlns="http://www.w3.org/2000/svg"><g><path d="m109.716 264.64c-6.946.002-13.1-4.478-15.232-11.088-.555-1.685-.904-3.431-1.04-5.2l-22.448-202.096c-.888-8.101-7.723-14.239-15.872-14.256h-35.328c-8.837 0-16-7.163-16-16s7.163-16 16-16h35.328c24.473-.001 45.028 18.411 47.712 42.736l22.4 202.064c2.098 8.198-2.551 16.612-10.608 19.2-1.595.461-3.251.677-4.912.64z"/><path d="m304.068 320h-131.008c-40.757.006-75.004-30.63-79.52-71.136l-18.624-167.104c-.972-8.783 5.36-16.691 14.143-17.663.585-.065 1.173-.097 1.761-.097h273.392c26.51.005 47.996 21.499 47.991 48.009-.001 3.375-.357 6.74-1.063 10.039l-28.8 134.704c-8.046 36.82-40.583 63.112-78.272 63.248zm-195.36-224 16.688 149.328c2.712 24.282 23.231 42.652 47.664 42.672h131.008c22.602-.095 42.108-15.87 46.928-37.952l28.8-134.704c1.847-8.641-3.661-17.144-12.302-18.991-1.079-.231-2.178-.349-3.282-.353z"/><path d="m285.396 272c-2.593.004-5.148-.628-7.44-1.84l-34.16-17.936-34.16 17.936c-7.827 4.103-17.497 1.084-21.599-6.743-1.629-3.107-2.191-6.663-1.601-10.121l6.528-38.016-27.568-26.944c-6.284-6.212-6.343-16.343-.13-22.627 2.426-2.454 5.581-4.059 8.994-4.573l38.176-5.536 16.96-34.672c4.648-7.918 14.835-10.568 22.752-5.92 2.446 1.436 4.484 3.474 5.92 5.92l17.088 34.592 38.176 5.536c8.744 1.278 14.796 9.402 13.518 18.145-.508 3.473-2.143 6.683-4.654 9.135l-27.632 26.944 6.528 38.016c1.493 8.709-4.356 16.981-13.066 18.474-.868.149-1.748.226-2.63.23zm-41.6-53.856c2.593-.002 5.147.629 7.44 1.84l12.896 6.768-2.464-14.4c-.886-5.183.83-10.47 4.592-14.144l10.448-10.176-14.4-2.096c-5.212-.757-9.717-4.03-12.048-8.752l-6.464-13.024-6.4 13.056c-2.331 4.722-6.836 7.995-12.048 8.752l-14.4 2.096 10.448 10.176c3.762 3.674 5.478 8.961 4.592 14.144l-2.464 14.4 12.896-6.768c2.271-1.212 4.802-1.854 7.376-1.872z"/><path d="m163.796 416c-26.51 0-48-21.49-48-48s21.49-48 48-48 48 21.49 48 48-21.49 48-48 48zm0-64c-8.837 0-16 7.163-16 16s7.163 16 16 16 16-7.163 16-16-7.163-16-16-16z"/><path d="m307.796 416c-26.51 0-48-21.49-48-48s21.49-48 48-48 48 21.49 48 48-21.49 48-48 48zm0-64c-8.837 0-16 7.163-16 16s7.163 16 16 16 16-7.163 16-16-7.163-16-16-16z"/></g></svg>