<?xml version="1.0" encoding="UTF-8" standalone="no"?>
<svg
   width="479.54272"
   zoomAndPan="magnify"
   viewBox="0 0 359.65704 73.675768"
   height="98.23436"
   preserveAspectRatio="xMidYMid"
   version="1.0"
   id="svg37"
   xmlns="http://www.w3.org/2000/svg"
   xmlns:svg="http://www.w3.org/2000/svg">
  <defs
     id="defs1" />
  <g
     fill="#000000"
     fill-opacity="1"
     id="g4"
     transform="translate(-5.8242321,-149.81249)">
    <g
       transform="translate(4.507826,221.99998)"
       id="g3">
      <g
         id="g2">
        <path
           d="m 49.210938,-51.914062 c -0.429688,-0.429688 -1.242188,-1.035157 -2.4375,-1.808594 -1.195313,-0.777344 -2.660157,-1.523438 -4.386719,-2.242188 -1.742188,-0.722656 -3.628907,-1.363281 -5.667969,-1.921875 -2.007812,-0.550781 -4.046875,-0.824219 -6.121094,-0.824219 -3.582031,0 -6.261718,0.65625 -8.039062,1.964844 -1.714844,1.261719 -2.570313,3.046875 -2.570313,5.347656 0,1.734376 0.527344,3.101563 1.582031,4.101563 1.128907,1.0625 2.84375,1.976563 5.144532,2.746094 2.386718,0.792969 5.371094,1.65625 8.957031,2.585937 4.707031,1.144532 8.796875,2.542969 12.273437,4.195313 3.542969,1.683593 6.265626,3.894531 8.167969,6.628906 1.914063,2.75 2.871094,6.363281 2.871094,10.839844 0,3.914062 -0.722656,7.269531 -2.175781,10.066406 -1.453125,2.804687 -3.460938,5.070313 -6.023438,6.804687 C 48.25,-1.71875 45.375,-0.46875 42.164062,0.316406 38.976562,1.097656 35.585938,1.488281 32,1.488281 28.417969,1.488281 24.839844,1.117188 21.257812,0.375 17.683594,-0.367188 14.242188,-1.433594 10.933594,-2.816406 7.621094,-4.203125 4.578125,-5.875 1.804688,-7.839844 l -0.488282,-0.34375 6.800782,-13.269531 0.667968,0.667969 c 0.566406,0.5625 1.589844,1.316406 3.082032,2.253906 1.503906,0.949219 3.339843,1.898438 5.507812,2.851562 2.167969,0.953126 4.53125,1.757813 7.09375,2.414063 2.546875,0.652344 5.121094,0.976563 7.730469,0.976563 3.597656,0 6.304687,-0.59375 8.121093,-1.785157 1.726563,-1.132812 2.589844,-2.738281 2.589844,-4.824219 0,-1.910156 -0.675781,-3.398437 -2.035156,-4.460937 -1.46875,-1.148437 -3.535156,-2.160156 -6.191406,-3.035156 -2.722656,-0.898438 -5.949219,-1.878907 -9.671875,-2.945313 -4.511719,-1.277344 -8.289063,-2.710937 -11.332031,-4.300781 -3.109376,-1.625 -5.433594,-3.691406 -6.964844,-6.199219 -1.535156,-2.511718 -2.300782,-5.628906 -2.300782,-9.359375 0,-5.011719 1.1875,-9.222656 3.570313,-12.640625 2.375,-3.410156 5.589844,-5.988281 9.640625,-7.738281 4.023438,-1.738281 8.480469,-2.609375 13.375,-2.609375 3.386719,0 6.59375,0.375 9.613281,1.121094 3.007813,0.746094 5.835938,1.726562 8.472657,2.945312 2.636718,1.214844 5,2.53125 7.097656,3.953125 l 0.515625,0.351563 -6.835938,12.554687 z m 0.972656,-0.972657 -0.484375,0.488281 -0.605469,-0.328124 6.101562,-11.199219 0.601563,0.328125 -0.382813,0.570312 c -2.035156,-1.378906 -4.335937,-2.664062 -6.902343,-3.847656 -2.5625,-1.179688 -5.304688,-2.132812 -8.226563,-2.855469 C 37.371094,-70.449219 34.277344,-70.8125 31,-70.8125 c -4.707031,0 -8.980469,0.832031 -12.828125,2.496094 -3.8125,1.648437 -6.832031,4.066406 -9.058594,7.261718 -2.21875,3.179688 -3.324219,7.132813 -3.324219,11.855469 0,3.472657 0.699219,6.351563 2.097657,8.640625 1.398437,2.292969 3.542969,4.191406 6.429687,5.699219 2.960938,1.546875 6.648438,2.945313 11.070313,4.199219 3.742187,1.070312 6.984375,2.054687 9.726562,2.957031 2.808594,0.925781 5.011719,2.011719 6.609375,3.261719 1.710938,1.339844 2.5625,3.183594 2.5625,5.542968 0,2.578126 -1.070312,4.570313 -3.210937,5.972657 -2.046875,1.34375 -5.003907,2.011719 -8.875,2.011719 -2.722657,0 -5.414063,-0.339844 -8.070313,-1.019532 -2.636718,-0.675781 -5.070312,-1.503906 -7.304687,-2.488281 -2.230469,-0.980469 -4.128907,-1.960937 -5.691407,-2.945313 C 9.554688,-18.363281 8.449219,-19.175781 7.8125,-19.8125 l 0.488281,-0.488281 0.609375,0.316406 -6.097656,11.898437 -0.613281,-0.3125 0.398437,-0.5625 c 2.691406,1.902344 5.648438,3.53125 8.867188,4.875 3.226562,1.351563 6.585937,2.386719 10.074218,3.113282 C 25.027344,-0.25 28.511719,0.113281 32,0.113281 c 3.476562,0 6.757812,-0.378906 9.835938,-1.132812 3.054687,-0.746094 5.777343,-1.929688 8.179687,-3.550781 2.367187,-1.601563 4.226563,-3.699219 5.574219,-6.296876 1.347656,-2.601562 2.019531,-5.746093 2.019531,-9.433593 0,-4.1875 -0.875,-7.539063 -2.625,-10.054688 -1.765625,-2.535156 -4.308594,-4.589843 -7.632813,-6.171875 -3.386718,-1.613281 -7.398437,-2.980468 -12.023437,-4.105468 -3.617187,-0.9375 -6.632813,-1.808594 -9.046875,-2.613282 -2.496094,-0.832031 -4.378906,-1.851562 -5.652344,-3.054687 -1.34375,-1.265625 -2.015625,-2.96875 -2.015625,-5.097657 0,-2.765624 1.042969,-4.917968 3.128907,-6.453124 2.019531,-1.488282 4.972656,-2.234376 8.855468,-2.234376 2.195313,0 4.355469,0.292969 6.484375,0.875 2.09375,0.574219 4.039063,1.234376 5.832031,1.976563 1.804688,0.75 3.339844,1.535156 4.609376,2.359375 1.273437,0.824219 2.160156,1.488281 2.660156,1.988281 z m 0,0"
           id="path1" />
      </g>
    </g>
  </g>
  <g
     fill="#000000"
     fill-opacity="1"
     id="g7"
     transform="translate(-5.8242321,-149.81249)">
    <g
       transform="translate(56.205523,221.99998)"
       id="g6">
      <g
         id="g5">
        <path
           d="m 31.699219,-71.484375 h 13.289062 l 8.261719,23.960937 -0.652344,0.226563 -0.648437,-0.226563 8.359375,-23.960937 H 74.492188 L 61.941406,-38.257812 61.296875,-38.5 l 0.640625,-0.253906 9,22.601562 -0.640625,0.253906 -0.644531,-0.238281 L 89.917969,-71.6875 H 106.41406 L 77.464844,0.6875 H 64.640625 l -12.675781,-30.222656 0.632812,-0.265625 0.636719,0.265625 L 40.65625,0.6875 H 27.832031 L -1.015625,-71.6875 H 15.28125 L 35.644531,-16.136719 35,-15.898438 l -0.640625,-0.25 8.800781,-22.601562 0.640625,0.25 -0.644531,0.242188 -12.449219,-33.226563 z m 0,1.375 v -0.6875 l 0.644531,-0.242187 12.191406,32.542968 -9.554687,24.539063 L 14.152344,-70.761719 14.800781,-71 v 0.6875 H 0 V -71 l 0.636719,-0.253906 28.300781,71 L 28.300781,0 V -0.6875 H 40.199219 V 0 L 39.5625,-0.265625 52.597656,-31.582031 65.730469,-0.265625 65.097656,0 V -0.6875 H 77 V 0 l -0.640625,-0.253906 28.398435,-71 L 105.39844,-71 v 0.6875 H 90.398438 V -71 l 0.644531,0.238281 L 70.328125,-13.96875 60.5625,-38.492188 72.855469,-71.042969 73.5,-70.796875 v 0.6875 H 60.796875 v -0.6875 l 0.652344,0.226563 -8.855469,25.371093 -8.746094,-25.375 L 44.5,-70.796875 v 0.6875 z m 0,0"
           id="path4" />
      </g>
    </g>
  </g>
  <g
     fill="#000000"
     fill-opacity="1"
     id="g10"
     transform="translate(-5.8242321,-149.81249)">
    <g
       transform="translate(143.80173,221.99998)"
       id="g9">
      <g
         id="g8">
        <path
           d="m 41.800781,-71.6875 h 51.183594 v 13.476562 H 59 v -0.6875 h 0.6875 v 16.699219 H 59 v -0.6875 h 28.585938 v 13.476563 H 59 v -0.6875 h 0.6875 v 17.996094 H 59 v -0.6875 H 93.886719 V 0.6875 H 44.710938 v -18.386719 h 0.6875 v 0.6875 H 22.597656 v -0.6875 l 0.59375,0.351563 L 12.492188,0.6875 H -3.738281 l 45.15625,-72.375 z m 0,1.375 V -71 l 0.582031,0.367188 L -1.917969,0.363281 -2.5,0 V -0.6875 H 12.101562 V 0 l -0.59375,-0.351562 10.699219,-18.035157 H 46.085938 V 0 h -0.6875 V -0.6875 H 93.199219 V 0 h -0.6875 v -12.101562 h 0.6875 v 0.6875 H 58.3125 v -19.371094 h 28.585938 v 0.6875 h -0.6875 v -12.101563 h 0.6875 v 0.6875 H 58.3125 v -18.074219 h 33.984375 v 0.6875 h -0.6875 V -71 h 0.6875 v 0.6875 z m 1.910157,40.613281 V -55.5 h 0.6875 l 0.585937,0.363281 L 29.085938,-29.339844 28.5,-29.699219 v -0.6875 h 15.898438 v 0.6875 z m 1.375,0.6875 H 27.269531 l 17.816407,-28.914062 z m 0,0"
           id="path7" />
      </g>
    </g>
  </g>
  <g
     fill="#000000"
     fill-opacity="1"
     id="g13"
     transform="translate(-5.8242321,-149.81249)">
    <g
       transform="translate(232.39804,221.99998)"
       id="g12">
      <g
         id="g11">
        <path
           d="m 6.710938,0 v -71.6875 h 15.175781 v 59.585938 h -0.6875 v -0.6875 H 58.085938 V 0.6875 h -51.375 z m 1.375,0 h -0.6875 v -0.6875 h 50 V 0 h -0.6875 v -12.101562 h 0.6875 v 0.6875 H 20.511719 V -71 h 0.6875 v 0.6875 H 7.398438 V -71 h 0.6875 z m 0,0"
           id="path10" />
      </g>
    </g>
  </g>
  <g
     fill="#000000"
     fill-opacity="1"
     id="g16"
     transform="translate(-5.8242321,-149.81249)">
    <g
       transform="translate(281.19585,221.99998)"
       id="g15">
      <g
         id="g14">
        <path
           d="M 37.699219,1.1875 C 32.394531,1.1875 27.582031,0.164062 23.253906,-1.878906 18.9375,-3.917969 15.230469,-6.691406 12.132812,-10.195312 9.046875,-13.6875 6.65625,-17.625 4.957031,-22 3.261719,-26.378906 2.414062,-30.878906 2.414062,-35.5 c 0,-4.824219 0.898438,-9.425781 2.699219,-13.808594 1.796875,-4.378906 4.273438,-8.277344 7.429688,-11.707031 3.164062,-3.433594 6.902343,-6.152344 11.214843,-8.15625 C 28.085938,-71.179688 32.832031,-72.1875 38,-72.1875 c 5.238281,0 10.023438,1.058594 14.351562,3.171875 4.316407,2.105469 8.003907,4.929687 11.066407,8.46875 3.050781,3.523437 5.425781,7.457031 7.121093,11.796875 1.699219,4.347656 2.546876,8.832031 2.546876,13.449219 0,4.757812 -0.882813,9.324219 -2.648438,13.707031 -1.765625,4.378906 -4.226562,8.28125 -7.382812,11.710938 -3.164063,3.433593 -6.902344,6.136718 -11.21875,8.109374 C 47.511719,0.199219 42.796875,1.1875 37.699219,1.1875 Z m 0,-1.375 c 4.898437,0 9.421875,-0.945312 13.5625,-2.835938 4.152343,-1.898437 7.742187,-4.492187 10.78125,-7.792968 3.042969,-3.304688 5.414062,-7.066406 7.117187,-11.289063 1.699219,-4.21875 2.550782,-8.617187 2.550782,-13.195312 0,-4.445313 -0.816407,-8.761719 -2.453126,-12.949219 -1.636718,-4.191406 -3.929687,-7.992188 -6.878906,-11.398438 -2.9375,-3.394531 -6.484375,-6.105468 -10.632812,-8.132812 C 47.609375,-69.800781 43.027344,-70.8125 38,-70.8125 c -4.964844,0 -9.519531,0.964844 -13.660156,2.886719 -4.152344,1.929687 -7.746094,4.542969 -10.785156,7.84375 -3.042969,3.304687 -5.433594,7.070312 -7.167969,11.292969 -1.734375,4.21875 -2.597657,8.648437 -2.597657,13.289062 0,4.449219 0.816407,8.78125 2.453126,13.003906 1.636718,4.222656 3.945312,8.019532 6.921874,11.390625 2.972657,3.363281 6.53125,6.023438 10.679688,7.984375 4.140625,1.957032 8.757812,2.933594 13.855469,2.933594 z M 17.785156,-35.5 c 0,2.996094 0.457032,5.890625 1.367188,8.6875 0.910156,2.789062 2.21875,5.265625 3.9375,7.4375 1.703125,2.152344 3.792968,3.859375 6.269531,5.113281 2.46875,1.25 5.28125,1.875 8.441406,1.875 3.21875,0 6.078125,-0.65625 8.578125,-1.972656 2.507813,-1.316406 4.597656,-3.085937 6.269532,-5.304687 1.6875,-2.238282 2.96875,-4.734376 3.84375,-7.492188 0.878906,-2.765625 1.320312,-5.546875 1.320312,-8.34375 0,-2.988281 -0.472656,-5.867188 -1.414062,-8.625 -0.941407,-2.761719 -2.269532,-5.226562 -3.988282,-7.398438 -1.703125,-2.152343 -3.796875,-3.855468 -6.273437,-5.113281 -2.46875,-1.25 -5.246094,-1.875 -8.335938,-1.875 -3.289062,0 -6.164062,0.65625 -8.628906,1.96875 -2.476563,1.320313 -4.554687,3.074219 -6.226563,5.261719 -1.683593,2.203125 -2.964843,4.667969 -3.839843,7.394531 -0.878907,2.730469 -1.320313,5.527344 -1.320313,8.386719 z m -1.375,0 c 0,-3.003906 0.464844,-5.941406 1.386719,-8.808594 0.921875,-2.875 2.273437,-5.476562 4.054687,-7.808594 1.796876,-2.34375 4.019532,-4.226562 6.675782,-5.636718 2.667968,-1.421875 5.757812,-2.132813 9.273437,-2.132813 3.308594,0 6.292969,0.675781 8.957031,2.023438 2.65625,1.347656 4.902344,3.175781 6.730469,5.488281 1.816407,2.292969 3.21875,4.894531 4.210938,7.804688 0.992187,2.90625 1.488281,5.929687 1.488281,9.070312 0,2.9375 -0.460938,5.859375 -1.382812,8.757812 -0.925782,2.910157 -2.277344,5.542969 -4.058594,7.90625 -1.792969,2.382813 -4.035156,4.28125 -6.726563,5.695313 -2.699219,1.417969 -5.773437,2.128906 -9.21875,2.128906 -3.378906,0 -6.398437,-0.675781 -9.0625,-2.023437 -2.65625,-1.347656 -4.898437,-3.175782 -6.726562,-5.488282 -1.820313,-2.296874 -3.207031,-4.917968 -4.164063,-7.863281 -0.957031,-2.933593 -1.4375,-5.972656 -1.4375,-9.113281 z m 0,0"
           id="path13" />
      </g>
    </g>
  </g>
  <g
     fill="#000000"
     fill-opacity="1"
     id="g19"
     transform="translate(-5.8242321,-149.81249)">
    <g
       transform="translate(347.99297,221.99998)"
       id="g18">
      <g
         id="g17">
        <path
           d="m 5.113281,-15.085938 h 12.375 V 0.6875 h -12.375 z m 1.375,1.375 V -0.6875 h 9.625 v -13.023438 z m 0,0"
           id="path16" />
      </g>
    </g>
  </g>
  <g
     fill="#000000"
     fill-opacity="1"
     id="g22"
     transform="translate(-5.8242321,-149.81249)">
    <g
       transform="translate(4.507826,221.99998)"
       id="g21">
      <g
         id="g20">
        <path
           d="m 49.703125,-52.40625 c -0.46875,-0.457031 -1.324219,-1.085938 -2.5625,-1.890625 -1.230469,-0.800781 -2.730469,-1.566406 -4.5,-2.296875 -1.761719,-0.738281 -3.679687,-1.390625 -5.75,-1.953125 -2.0625,-0.570313 -4.164063,-0.859375 -6.296875,-0.859375 -3.730469,0 -6.546875,0.703125 -8.453125,2.109375 -1.898437,1.398437 -2.84375,3.359375 -2.84375,5.890625 0,1.9375 0.597656,3.476562 1.796875,4.609375 1.207031,1.136719 3.007812,2.105469 5.40625,2.90625 2.394531,0.792969 5.394531,1.65625 9,2.59375 4.664062,1.136719 8.710938,2.523437 12.140625,4.15625 3.4375,1.625 6.070313,3.757813 7.90625,6.390625 1.832031,2.636719 2.75,6.121094 2.75,10.453125 0,3.804687 -0.703125,7.054687 -2.109375,9.75 C 54.789062,-7.847656 52.859375,-5.664062 50.390625,-4 47.929688,-2.332031 45.132812,-1.113281 42,-0.34375 38.863281,0.414062 35.53125,0.796875 32,0.796875 c -3.53125,0 -7.070312,-0.367187 -10.609375,-1.09375 C 17.859375,-1.035156 14.457031,-2.085938 11.1875,-3.453125 7.925781,-4.816406 4.929688,-6.46875 2.203125,-8.40625 l 6.09375,-11.890625 c 0.601563,0.59375 1.671875,1.375 3.203125,2.34375 1.53125,0.96875 3.394531,1.9375 5.59375,2.90625 2.207031,0.96875 4.609375,1.789063 7.203125,2.453125 2.601563,0.667969 5.238281,1 7.90625,1 3.726563,0 6.554687,-0.632812 8.484375,-1.90625 1.9375,-1.269531 2.90625,-3.070312 2.90625,-5.40625 0,-2.125 -0.765625,-3.785156 -2.296875,-4.984375 -1.53125,-1.207031 -3.667969,-2.257813 -6.40625,-3.15625 C 32.160156,-27.953125 28.929688,-28.9375 25.203125,-30 20.734375,-31.269531 17,-32.6875 14,-34.25 c -3,-1.5625 -5.234375,-3.539062 -6.703125,-5.9375 -1.46875,-2.40625 -2.203125,-5.410156 -2.203125,-9.015625 0,-4.863281 1.148438,-8.945313 3.453125,-12.25 2.300781,-3.300781 5.414063,-5.800781 9.34375,-7.5 C 21.828125,-70.648438 26.195312,-71.5 31,-71.5 c 3.332031,0 6.484375,0.371094 9.453125,1.109375 2.96875,0.730469 5.75,1.695313 8.34375,2.890625 2.601563,1.199219 4.9375,2.5 7,3.90625 z m 0,0"
           id="path19" />
      </g>
    </g>
  </g>
  <g
     fill="#000000"
     fill-opacity="1"
     id="g25"
     transform="translate(-5.8242321,-149.81249)">
    <g
       transform="translate(56.205523,221.99998)"
       id="g24">
      <g
         id="g23">
        <path
           d="M 31.703125,-70.796875 H 44.5 l 8.09375,23.5 8.203125,-23.5 H 73.5 L 61.296875,-38.5 l 9,22.59375 L 90.40625,-71 h 15 L 77,0 H 65.09375 l -12.5,-29.796875 L 40.203125,0 H 28.296875 L 0,-71 H 14.796875 L 35,-15.90625 43.796875,-38.5 Z m 0,0"
           id="path22" />
      </g>
    </g>
  </g>
  <g
     fill="#000000"
     fill-opacity="1"
     id="g28"
     transform="translate(-5.8242321,-149.81249)">
    <g
       transform="translate(143.80173,221.99998)"
       id="g27">
      <g
         id="g26">
        <path
           d="m 41.796875,-71 h 50.5 v 12.09375 H 59 v 16.703125 H 86.90625 V -30.09375 H 59 v 18 H 93.203125 V 0 H 45.40625 V -17.703125 H 22.59375 L 12.09375,0 H -2.5 Z m 2.609375,41.296875 V -55.5 L 28.5,-29.703125 Z m 0,0"
           id="path25" />
      </g>
    </g>
  </g>
  <g
     fill="#000000"
     fill-opacity="1"
     id="g31"
     transform="translate(-5.8242321,-149.81249)">
    <g
       transform="translate(232.39804,221.99998)"
       id="g30">
      <g
         id="g29">
        <path
           d="m 7.40625,0 v -71 h 13.796875 v 58.90625 H 57.40625 V 0 Z m 0,0"
           id="path28" />
      </g>
    </g>
  </g>
  <g
     fill="#000000"
     fill-opacity="1"
     id="g34"
     transform="translate(-5.8242321,-149.81249)">
    <g
       transform="translate(281.19585,221.99998)"
       id="g33">
      <g
         id="g32">
        <path
           d="m 37.703125,0.5 c -5.199219,0 -9.917969,-1 -14.15625,-3 -4.230469,-2 -7.867187,-4.710938 -10.90625,-8.140625 -3.03125,-3.4375 -5.382813,-7.304687 -7.046875,-11.609375 -1.667969,-4.300781 -2.5,-8.71875 -2.5,-13.25 0,-4.726562 0.882812,-9.242188 2.65625,-13.546875 1.769531,-4.300781 4.203125,-8.132813 7.296875,-11.5 3.101563,-3.363281 6.769531,-6.03125 11,-8 C 28.285156,-70.515625 32.9375,-71.5 38,-71.5 c 5.132812,0 9.816406,1.039062 14.046875,3.109375 4.238281,2.0625 7.859375,4.828125 10.859375,8.296875 3,3.460938 5.332031,7.324219 7,11.59375 1.664062,4.273438 2.5,8.671875 2.5,13.203125 0,4.667969 -0.871094,9.152344 -2.609375,13.453125 -1.730469,4.292969 -4.148437,8.125 -7.25,11.5 -3.09375,3.367188 -6.761719,6.015625 -11,7.953125 C 47.316406,-0.460938 42.703125,0.5 37.703125,0.5 Z m -20.609375,-36 c 0,3.0625 0.46875,6.03125 1.40625,8.90625 0.9375,2.867188 2.285156,5.417969 4.046875,7.65625 1.769531,2.230469 3.9375,3.996094 6.5,5.296875 2.570313,1.292969 5.488281,1.9375 8.75,1.9375 3.332031,0 6.296875,-0.679687 8.890625,-2.046875 2.601562,-1.363281 4.769531,-3.195312 6.5,-5.5 1.738281,-2.300781 3.054688,-4.867188 3.953125,-7.703125 C 58.046875,-29.785156 58.5,-32.632812 58.5,-35.5 c 0,-3.0625 -0.484375,-6.007812 -1.453125,-8.84375 -0.96875,-2.832031 -2.339844,-5.363281 -4.109375,-7.59375 -1.761719,-2.238281 -3.929688,-4.007812 -6.5,-5.3125 -2.5625,-1.300781 -5.445312,-1.953125 -8.640625,-1.953125 -3.398437,0 -6.382813,0.6875 -8.953125,2.0625 -2.5625,1.367187 -4.714844,3.183594 -6.453125,5.453125 -1.730469,2.261719 -3.046875,4.792969 -3.953125,7.59375 -0.898438,2.792969 -1.34375,5.65625 -1.34375,8.59375 z m 0,0"
           id="path31" />
      </g>
    </g>
  </g>
  <g
     fill="#000000"
     fill-opacity="1"
     id="g37"
     transform="translate(-5.8242321,-149.81249)">
    <g
       transform="translate(347.99297,221.99998)"
       id="g36">
      <g
         id="g35">
        <path
           d="m 5.796875,0 v -14.40625 h 11 V 0 Z m 0,0"
           id="path34" />
      </g>
    </g>
  </g>
</svg>
