<?xml version="1.0" encoding="UTF-8" standalone="no"?>
<svg
   width="430.5697"
   zoomAndPan="magnify"
   viewBox="0 0 322.92728 72.533098"
   height="96.7108"
   preserveAspectRatio="xMidYMid"
   version="1.0"
   id="svg94"
   xmlns="http://www.w3.org/2000/svg"
   xmlns:svg="http://www.w3.org/2000/svg">
  <defs
     id="defs6">
    <clipPath
       id="c43644dd86">
      <path
         d="M 0.0390625,0.800781 H 329.07812 V 47 H 0.0390625 Z m 0,0"
         clip-rule="nonzero"
         id="path1" />
    </clipPath>
    <clipPath
       id="03647c3983">
      <rect
         x="0"
         width="330"
         y="0"
         height="47"
         id="rect1" />
    </clipPath>
    <clipPath
       id="33af9c7be5">
      <path
         d="M 70,25 H 215 V 79 H 70 Z m 0,0"
         clip-rule="nonzero"
         id="path2" />
    </clipPath>
    <clipPath
       id="04ec309ac4">
      <path
         d="m 68.609375,28.691406 145.226565,-5.027344 1.8125,52.46875 -145.222659,5.027344 z m 0,0"
         clip-rule="nonzero"
         id="path3" />
    </clipPath>
    <clipPath
       id="da2c513831">
      <path
         d="m 68.609375,28.691406 145.226565,-5.027344 1.8125,52.46875 -145.222659,5.027344 z m 0,0"
         clip-rule="nonzero"
         id="path4" />
    </clipPath>
    <clipPath
       id="2e235e9cd6">
      <path
         d="m 68.609375,28.691406 145.226565,-5.027344 1.8125,52.46875 -145.222659,5.027344 z m 0,0"
         clip-rule="nonzero"
         id="path5" />
    </clipPath>
    <clipPath
       id="5f0d2c9a92">
      <rect
         x="0"
         width="330"
         y="0"
         height="82"
         id="rect6" />
    </clipPath>
  </defs>
  <g
     transform="translate(-3.8683523,-6.4082973)"
     id="g94">
    <g
       clip-path="url(#5f0d2c9a92)"
       id="g93">
      <g
         clip-path="url(#c43644dd86)"
         id="g32"
         style="fill:#000000">
        <g
           id="g31"
           style="fill:#000000">
          <g
             clip-path="url(#03647c3983)"
             id="g30"
             style="fill:#000000">
            <g
               fill="#000000"
               fill-opacity="1"
               id="g8"
               style="fill:#000000">
              <g
                 transform="translate(0.493352,37.330171)"
                 id="g7"
                 style="fill:#000000">
                <g
                   id="g6"
                   style="fill:#000000">
                  <path
                     d="M 23.65625,0 H 3.375 v -30.3125 h 20.28125 c 8.300781,0 14.265625,1.164062 17.890625,3.484375 2.9375,1.875 4.609375,4.421875 5.015625,7.640625 0.175781,1.398438 0.265625,2.746094 0.265625,4.046875 0,1.28125 -0.08984,2.625 -0.265625,4.03125 -0.167969,1.398437 -0.632812,2.757813 -1.390625,4.078125 -0.761719,1.3125 -1.96875,2.496094 -3.625,3.546875 -1.65625,1.054687 -3.929687,1.898437 -6.8125,2.53125 C 31.859375,-0.316406 28.164062,0 23.65625,0 Z m -1.203125,-7.5 c 6.46875,0 10.125,-1.632812 10.96875,-4.90625 0.226563,-0.914062 0.34375,-1.828125 0.34375,-2.734375 0,-0.9375 -0.121094,-1.859375 -0.359375,-2.765625 -0.230469,-0.90625 -0.726562,-1.726562 -1.484375,-2.46875 -0.75,-0.738281 -1.882813,-1.328125 -3.390625,-1.765625 -1.5,-0.445313 -3.527344,-0.671875 -6.078125,-0.671875 H 16.09375 V -7.5 Z m 0,0"
                     id="path6"
                     style="fill:#000000" />
                </g>
              </g>
            </g>
            <g
               fill="#000000"
               fill-opacity="1"
               id="g11"
               style="fill:#000000">
              <g
                 transform="translate(49.010852,37.330171)"
                 id="g10"
                 style="fill:#000000">
                <g
                   id="g9"
                   style="fill:#000000">
                  <path
                     d="M 44.765625,0 H 32.75 C 32.195312,-0.757812 31.804688,-1.734375 31.578125,-2.921875 31.378906,-3.828125 31.082031,-4.71875 30.6875,-5.59375 30.300781,-6.476562 29.625,-7.210938 28.65625,-7.796875 27.6875,-8.390625 26.253906,-8.707031 24.359375,-8.75 H 16.09375 V 0 H 3.375 v -30.3125 h 20.6875 c 4.945312,0 8.9375,0.371094 11.96875,1.109375 3.03125,0.742187 5.242188,1.902344 6.640625,3.484375 1.394531,1.585938 2.09375,3.652344 2.09375,6.203125 0,2.125 -0.484375,3.914063 -1.453125,5.359375 -0.960938,1.449219 -2.480469,2.601562 -4.5625,3.453125 2.007812,0.824219 3.3125,1.820313 3.90625,2.984375 0.601562,1.15625 0.972656,2.433594 1.109375,3.828125 0.144531,1.242187 0.476563,2.539063 1,3.890625 z M 16.09375,-16.21875 23.359375,-16.25 c 2.03125,0 3.628906,-0.08594 4.796875,-0.265625 1.175781,-0.1875 2.039062,-0.4375 2.59375,-0.75 0.550781,-0.320313 0.90625,-0.675781 1.0625,-1.0625 0.15625,-0.382813 0.234375,-0.78125 0.234375,-1.1875 0,-0.414063 -0.07813,-0.816406 -0.234375,-1.203125 -0.15625,-0.394531 -0.511719,-0.75 -1.0625,-1.0625 -0.554688,-0.320312 -1.417969,-0.570312 -2.59375,-0.75 -1.167969,-0.1875 -2.765625,-0.28125 -4.796875,-0.28125 H 16.09375 Z m 0,0"
                     id="path8"
                     style="fill:#000000" />
                </g>
              </g>
            </g>
            <g
               fill="#000000"
               fill-opacity="1"
               id="g14"
               style="fill:#000000">
              <g
                 transform="translate(95.458386,37.330171)"
                 id="g13"
                 style="fill:#000000">
                <g
                   id="g12"
                   style="fill:#000000">
                  <path
                     d="M 16.09375,0 H 3.375 v -30.3125 h 12.71875 z m 0,0"
                     id="path11"
                     style="fill:#000000" />
                </g>
              </g>
            </g>
            <g
               fill="#000000"
               fill-opacity="1"
               id="g17"
               style="fill:#000000">
              <g
                 transform="translate(114.93298,37.330171)"
                 id="g16"
                 style="fill:#000000">
                <g
                   id="g15"
                   style="fill:#000000">
                  <path
                     d="M 16.09375,0 H 3.375 v -30.3125 h 20.6875 c 4.945312,0 8.9375,0.371094 11.96875,1.109375 3.03125,0.742187 5.242188,1.902344 6.640625,3.484375 1.394531,1.585938 2.09375,3.652344 2.09375,6.203125 0,2.53125 -0.699219,4.589844 -2.09375,6.171875 -1.398437,1.585938 -3.609375,2.746094 -6.640625,3.484375 C 33,-9.117188 29.007812,-8.75 24.0625,-8.75 h -7.96875 z m 0,-16.21875 7.265625,-0.03125 c 2.03125,0 3.628906,-0.07813 4.796875,-0.234375 1.175781,-0.164063 2.039062,-0.394531 2.59375,-0.6875 0.550781,-0.300781 0.90625,-0.648437 1.0625,-1.046875 0.15625,-0.40625 0.234375,-0.835938 0.234375,-1.296875 0,-0.476563 -0.07813,-0.914063 -0.234375,-1.3125 -0.15625,-0.40625 -0.511719,-0.753906 -1.0625,-1.046875 -0.554688,-0.300781 -1.417969,-0.53125 -2.59375,-0.6875 -1.167969,-0.164062 -2.765625,-0.25 -4.796875,-0.25 H 16.09375 Z m 0,0"
                     id="path14"
                     style="fill:#000000" />
                </g>
              </g>
            </g>
            <g
               fill="#000000"
               fill-opacity="1"
               id="g20"
               style="fill:#000000">
              <g
                 transform="translate(161.38051,37.330171)"
                 id="g19"
                 style="fill:#000000">
                <g
                   id="g18"
                   style="fill:#000000">
                  <path
                     d="m 20.03125,0.65625 c -4.105469,0 -7.414062,-0.4375 -9.921875,-1.3125 -2.5,-0.882812 -4.40625,-2.097656 -5.71875,-3.640625 C 3.078125,-5.835938 2.195312,-7.617188 1.75,-9.640625 h 13.5 c 1,1.4375 2.59375,2.15625 4.78125,2.15625 2.175781,0 3.765625,-0.71875 4.765625,-2.15625 0.08203,-0.132813 0.125,-0.257813 0.125,-0.375 0,-0.375 -0.507813,-0.65625 -1.515625,-0.84375 -1,-0.195313 -2.5,-0.34375 -4.5,-0.4375 -2.523438,-0.113281 -5.167969,-0.382813 -7.9375,-0.8125 -6.1875,-0.957031 -9.28125,-3.441406 -9.28125,-7.453125 0,-0.332031 0.019531,-0.691406 0.0625,-1.078125 0.445312,-2.007813 1.328125,-3.785156 2.640625,-5.328125 1.3125,-1.539062 3.21875,-2.75 5.71875,-3.625 2.507813,-0.882812 5.816406,-1.328125 9.921875,-1.328125 4.09375,0 7.394531,0.445313 9.90625,1.328125 2.507812,0.875 4.414062,2.085938 5.71875,3.625 1.3125,1.542969 2.191406,3.320312 2.640625,5.328125 h -13.5 c -1,-1.4375 -2.589844,-2.15625 -4.765625,-2.15625 -2.1875,0 -3.78125,0.71875 -4.78125,2.15625 -0.07422,0.117187 -0.109375,0.21875 -0.109375,0.3125 0,0.34375 0.484375,0.601563 1.453125,0.765625 0.96875,0.15625 2.390625,0.292969 4.265625,0.40625 1.882813,0.117188 3.890625,0.296875 6.015625,0.546875 2.125,0.25 4.113281,0.695313 5.96875,1.328125 1.851562,0.625 3.300781,1.546875 4.34375,2.765625 0.8125,0.949219 1.21875,2.148437 1.21875,3.59375 0,0.40625 -0.03906,0.835937 -0.109375,1.28125 -0.449219,2.023437 -1.328125,3.804687 -2.640625,5.34375 -1.304688,1.542969 -3.210938,2.757813 -5.71875,3.640625 -2.511719,0.875 -5.8125,1.3125 -9.90625,1.3125 z m 0,0"
                     id="path17"
                     style="fill:#000000" />
                </g>
              </g>
            </g>
            <g
               fill="#000000"
               fill-opacity="1"
               id="g23"
               style="fill:#000000">
              <g
                 transform="translate(201.47029,37.330171)"
                 id="g22"
                 style="fill:#000000">
                <g
                   id="g21"
                   style="fill:#000000">
                  <path
                     d="m 25.859375,0 h -12.71875 v -22.8125 h -11.875 v -7.5 h 36.46875 v 7.5 h -11.875 z m 0,0"
                     id="path20"
                     style="fill:#000000" />
                </g>
              </g>
            </g>
            <g
               fill="#000000"
               fill-opacity="1"
               id="g26"
               style="fill:#000000">
              <g
                 transform="translate(240.46171,37.330171)"
                 id="g25"
                 style="fill:#000000">
                <g
                   id="g24"
                   style="fill:#000000">
                  <path
                     d="M 39.890625,0 H 3.375 v -30.3125 h 34.84375 v 7.5 h -22.125 v 4.75 h 18.703125 v 5.828125 H 16.09375 V -7.5 h 23.796875 z m 0,0"
                     id="path23"
                     style="fill:#000000" />
                </g>
              </g>
            </g>
            <g
               fill="#000000"
               fill-opacity="1"
               id="g29"
               style="fill:#000000">
              <g
                 transform="translate(282.03002,37.330171)"
                 id="g28"
                 style="fill:#000000">
                <g
                   id="g27"
                   style="fill:#000000">
                  <path
                     d="M 44.765625,0 H 32.75 C 32.195312,-0.757812 31.804688,-1.734375 31.578125,-2.921875 31.378906,-3.828125 31.082031,-4.71875 30.6875,-5.59375 30.300781,-6.476562 29.625,-7.210938 28.65625,-7.796875 27.6875,-8.390625 26.253906,-8.707031 24.359375,-8.75 H 16.09375 V 0 H 3.375 v -30.3125 h 20.6875 c 4.945312,0 8.9375,0.371094 11.96875,1.109375 3.03125,0.742187 5.242188,1.902344 6.640625,3.484375 1.394531,1.585938 2.09375,3.652344 2.09375,6.203125 0,2.125 -0.484375,3.914063 -1.453125,5.359375 -0.960938,1.449219 -2.480469,2.601562 -4.5625,3.453125 2.007812,0.824219 3.3125,1.820313 3.90625,2.984375 0.601562,1.15625 0.972656,2.433594 1.109375,3.828125 0.144531,1.242187 0.476563,2.539063 1,3.890625 z M 16.09375,-16.21875 23.359375,-16.25 c 2.03125,0 3.628906,-0.08594 4.796875,-0.265625 1.175781,-0.1875 2.039062,-0.4375 2.59375,-0.75 0.550781,-0.320313 0.90625,-0.675781 1.0625,-1.0625 0.15625,-0.382813 0.234375,-0.78125 0.234375,-1.1875 0,-0.414063 -0.07813,-0.816406 -0.234375,-1.203125 -0.15625,-0.394531 -0.511719,-0.75 -1.0625,-1.0625 -0.554688,-0.320312 -1.417969,-0.570312 -2.59375,-0.75 -1.167969,-0.1875 -2.765625,-0.28125 -4.796875,-0.28125 H 16.09375 Z m 0,0"
                     id="path26"
                     style="fill:#000000" />
                </g>
              </g>
            </g>
          </g>
        </g>
      </g>
      <g
         clip-path="url(#33af9c7be5)"
         id="g36"
         style="fill:#000000">
        <g
           clip-path="url(#04ec309ac4)"
           id="g35"
           style="fill:#000000">
          <g
             clip-path="url(#da2c513831)"
             id="g34"
             style="fill:#000000">
            <g
               clip-path="url(#2e235e9cd6)"
               id="g33"
               style="fill:#000000">
              <path
                 fill="#000000"
                 d="m 213.86328,52.695312 c -23.17578,2.53125 -46.29297,4.785157 -69.62109,8.753907 1.4375,-3.011719 2.57422,-5.703125 3.98047,-8.242188 3.32031,-6.011719 6.30468,-12.234375 10.46875,-17.761719 1.38281,-1.980468 2.64453,-4.03125 3.78906,-6.15625 0.38281,-0.800781 0.70703,-1.625 0.97265,-2.472656 -0.55859,-0.53125 -0.97656,-0.917968 -1.44531,-1.355468 -1.66406,0.800781 -2.90625,2.035156 -3.72656,3.699218 -1.42188,2.355469 -2.88281,4.695313 -4.23828,7.101563 -2.92969,4.910156 -6.36328,9.433593 -10.30078,13.578125 -2.72657,-1.160156 -4.60547,0.625 -6.55469,1.9375 -0.82813,-0.371094 -1.60938,-0.824219 -2.33984,-1.363282 -0.81641,-0.875 -1.57422,-1.796874 -2.26954,-2.773437 -3.12109,-0.128906 -4.24218,2.675781 -6.23828,4.132813 -1.14453,-0.617188 -0.34765,-2.945313 -2.67578,-2.757813 -0.51172,0.625 -1.11718,1.433594 -1.82031,2.179687 -0.70312,0.746094 -0.65234,1.847657 -2.14453,1.976563 0.33594,-1.257813 0.57422,-2.253906 0.83594,-3.222656 0.25781,-0.96875 0.92578,-1.875 0.39062,-3.175781 l -1.52344,-0.269532 c -1.94921,1.433594 -2.58593,4 -5.22656,4.300782 2.36719,-6.796876 6.80078,-12.441407 9.02344,-19.308594 l -1.66016,-1.386719 C 118,34.191406 116.05859,39.066406 112.82031,43.0625 c -3.24218,4 -6.26562,8.1875 -10.10156,11.625 -3.550781,-0.972656 -6.738281,-2.636719 -9.570312,-4.996094 -4.632813,-3.640625 -9.574219,-6.773437 -15.703126,-6.105468 -4.347656,1.574218 -6.214843,4.785156 -6.976562,9 C 70.070312,54.882812 70,57.1875 70.261719,59.503906 70.523438,61.820312 71.101562,64.050781 72,66.203125 c 0.199219,0.5 0.4375,0.984375 0.71875,1.445313 0.28125,0.464843 0.597656,0.898437 0.953125,1.304687 0.355469,0.410156 0.742187,0.78125 1.160156,1.125 0.417969,0.339844 0.863281,0.644531 1.335938,0.910156 0.46875,0.261719 0.957031,0.488281 1.464843,0.667969 0.507813,0.179688 1.027344,0.316406 1.558594,0.410156 0.53125,0.08984 1.070313,0.136719 1.609375,0.136719 0.539063,0 1.074219,-0.04687 1.605469,-0.140625 2.378906,-0.414062 4.636719,-1.195312 6.769531,-2.34375 4.367188,-2.441406 8.347657,-5.410156 11.937499,-8.902344 0.82422,-0.878906 1.71094,-1.683594 2.66016,-2.421875 0.48047,-0.339843 1.25,-0.261719 2.86719,-0.554687 -1.77344,3.425781 -3.17579,5.808594 -4.5625,8.15625 -2.03516,3.414062 -3.613286,7.027344 -4.73438,10.839844 -0.07813,0.261718 0.191406,0.613281 0.328125,1.007812 l 1.59375,0.390625 L 109.64844,58.125 c 0.96484,-0.761719 1.98828,-1.429688 3.07422,-2.007812 0.93359,-0.402344 1.72656,-1.511719 3.10156,-1.101563 -0.33594,1.5 -0.67578,2.824219 -0.86719,4.179687 -0.043,0.210938 -0.0469,0.425782 -0.0156,0.636719 0.0352,0.214844 0.10547,0.414063 0.21093,0.605469 0.10547,0.1875 0.23829,0.351562 0.40625,0.488281 0.16407,0.140625 0.34766,0.246094 0.55079,0.320313 2.51953,0.378906 3.29687,-2.089844 4.76562,-3.121094 l 3.26953,0.136719 4.64063,-4.277344 2.49218,3.105469 c 0.78125,-0.496094 1.61328,-0.890625 2.49219,-1.175782 0.94922,-0.08594 1.89453,-0.07422 2.84375,0.03516 l 4.32422,-3 3.23047,0.894531 c -0.8711,2.867188 -2.20703,5.496094 -4.00781,7.890625 -1.03907,0.253906 -2.02344,0.574219 -3.03907,0.75 -4.01562,0.691406 -7.8789,2.324219 -12.125,1.835937 -1.2539,-0.148437 -2.65625,0.613282 -3.90625,1.160157 -0.47656,0.207031 -0.70312,0.976562 -0.98437,1.375 0.13672,0.253906 0.30859,0.476562 0.51562,0.675781 0.21094,0.199219 0.44532,0.355469 0.70313,0.476562 0.26172,0.121094 0.53516,0.195313 0.82031,0.226563 0.28516,0.03125 0.56641,0.01563 0.84766,-0.04687 4.38281,-0.738281 8.77734,-1.507812 13.17187,-2.257812 0.66406,-0.121094 1.33594,-0.210938 2.42578,-0.371094 -0.76172,2.003906 -1.41406,3.695312 -2.07422,5.402344 -0.73828,1.925781 -1.55078,3.851562 -2.17578,5.773437 -0.27343,0.847656 0.0586,1.699219 1.32813,2.207031 0.68359,-0.296875 1.30078,-0.699218 1.84765,-1.207031 0.60938,-0.835937 1.10547,-1.734375 1.48047,-2.699219 1.55469,-3.417968 3.17188,-6.757812 3.91016,-10.347656 22.51953,-4.125 44.94531,-6.371094 66.95703,-8.597656 1.18359,0.558594 1.74219,1.402344 2.875,0.984375 0.41797,-0.394531 0.91406,-0.839844 1.41016,-1.339844 0.23828,-0.34375 0.44531,-0.703125 0.61328,-1.085937 z M 80.0625,69.144531 c -3.144531,-0.625 -4.832031,-2.796875 -5.671875,-5.835937 -0.84375,-3.039063 -1.546875,-6.035156 -1.066406,-9.132813 0.09766,-1.023437 0.292969,-2.03125 0.578125,-3.019531 1.59375,-4.273438 3.609375,-5.121094 7.417968,-4.351562 3.308594,0.65625 6,2.453124 8.667969,4.296874 1.6875,1.15625 3.238281,2.539063 4.980469,3.628907 1.578125,0.988281 3.3125,1.71875 5,2.570312 C 93.308594,64.417969 87.496094,67.9375 80.0625,69.144531 Z m 0,0"
                 fill-opacity="1"
                 fill-rule="nonzero"
                 id="path32"
                 style="fill:#000000" />
            </g>
          </g>
        </g>
      </g>
    </g>
  </g>
</svg>
