<?xml version="1.0" encoding="UTF-8" standalone="no"?>
<svg
   width="430.5697"
   zoomAndPan="magnify"
   viewBox="0 0 322.92728 72.54096"
   height="96.721283"
   preserveAspectRatio="xMidYMid"
   version="1.0"
   id="svg60"
   xmlns="http://www.w3.org/2000/svg"
   xmlns:svg="http://www.w3.org/2000/svg">
  <defs
     id="defs5">
    <clipPath
       id="0ce21148df">
      <rect
         x="0"
         width="339"
         y="0"
         height="48"
         id="rect1" />
    </clipPath>
    <clipPath
       id="bda69acc28">
      <path
         d="m 93,173 h 145 v 54 H 93 Z m 0,0"
         clip-rule="nonzero"
         id="path2" />
    </clipPath>
    <clipPath
       id="8117db54c5">
      <path
         d="m 91.609375,176.69141 144.664065,-5.00782 1.8164,52.46875 -144.664059,5.00782 z m 0,0"
         clip-rule="nonzero"
         id="path3" />
    </clipPath>
    <clipPath
       id="ec6ad571e7">
      <path
         d="m 91.609375,176.69141 144.664065,-5.00782 1.8164,52.46875 -144.664059,5.00782 z m 0,0"
         clip-rule="nonzero"
         id="path4" />
    </clipPath>
    <clipPath
       id="9a4f7904e1">
      <path
         d="m 91.609375,176.69141 144.664065,-5.00782 1.8164,52.46875 -144.664059,5.00782 z m 0,0"
         clip-rule="nonzero"
         id="path5" />
    </clipPath>
  </defs>
  <g
     transform="translate(-6.8683523,-7.408267)"
     id="g56"
     style="fill:#ffffff">
    <g
       clip-path="url(#0ce21148df)"
       id="g55"
       style="fill:#ffffff">
      <g
         fill="#000000"
         fill-opacity="1"
         id="g33"
         style="fill:#ffffff">
        <g
           transform="translate(3.493352,38.330142)"
           id="g32"
           style="fill:#ffffff">
          <g
             id="g31"
             style="fill:#ffffff">
            <path
               d="M 23.65625,0 H 3.375 v -30.3125 h 20.28125 c 8.300781,0 14.265625,1.164062 17.890625,3.484375 2.9375,1.875 4.609375,4.421875 5.015625,7.640625 0.175781,1.398438 0.265625,2.746094 0.265625,4.046875 0,1.28125 -0.08984,2.625 -0.265625,4.03125 -0.167969,1.398437 -0.632812,2.757813 -1.390625,4.078125 -0.761719,1.3125 -1.96875,2.496094 -3.625,3.546875 -1.65625,1.054687 -3.929687,1.898437 -6.8125,2.53125 C 31.859375,-0.316406 28.164062,0 23.65625,0 Z m -1.203125,-7.5 c 6.46875,0 10.125,-1.632812 10.96875,-4.90625 0.226563,-0.914062 0.34375,-1.828125 0.34375,-2.734375 0,-0.9375 -0.121094,-1.859375 -0.359375,-2.765625 -0.230469,-0.90625 -0.726562,-1.726562 -1.484375,-2.46875 -0.75,-0.738281 -1.882813,-1.328125 -3.390625,-1.765625 -1.5,-0.445313 -3.527344,-0.671875 -6.078125,-0.671875 H 16.09375 V -7.5 Z m 0,0"
               id="path30"
               style="fill:#ffffff" />
          </g>
        </g>
      </g>
      <g
         fill="#000000"
         fill-opacity="1"
         id="g36"
         style="fill:#ffffff">
        <g
           transform="translate(52.010852,38.330142)"
           id="g35"
           style="fill:#ffffff">
          <g
             id="g34"
             style="fill:#ffffff">
            <path
               d="M 44.765625,0 H 32.75 C 32.195312,-0.757812 31.804688,-1.734375 31.578125,-2.921875 31.378906,-3.828125 31.082031,-4.71875 30.6875,-5.59375 30.300781,-6.476562 29.625,-7.210938 28.65625,-7.796875 27.6875,-8.390625 26.253906,-8.707031 24.359375,-8.75 H 16.09375 V 0 H 3.375 v -30.3125 h 20.6875 c 4.945312,0 8.9375,0.371094 11.96875,1.109375 3.03125,0.742187 5.242188,1.902344 6.640625,3.484375 1.394531,1.585938 2.09375,3.652344 2.09375,6.203125 0,2.125 -0.484375,3.914063 -1.453125,5.359375 -0.960938,1.449219 -2.480469,2.601562 -4.5625,3.453125 2.007812,0.824219 3.3125,1.820313 3.90625,2.984375 0.601562,1.15625 0.972656,2.433594 1.109375,3.828125 0.144531,1.242187 0.476563,2.539063 1,3.890625 z M 16.09375,-16.21875 23.359375,-16.25 c 2.03125,0 3.628906,-0.08594 4.796875,-0.265625 1.175781,-0.1875 2.039062,-0.4375 2.59375,-0.75 0.550781,-0.320313 0.90625,-0.675781 1.0625,-1.0625 0.15625,-0.382813 0.234375,-0.78125 0.234375,-1.1875 0,-0.414063 -0.07813,-0.816406 -0.234375,-1.203125 -0.15625,-0.394531 -0.511719,-0.75 -1.0625,-1.0625 -0.554688,-0.320312 -1.417969,-0.570312 -2.59375,-0.75 -1.167969,-0.1875 -2.765625,-0.28125 -4.796875,-0.28125 H 16.09375 Z m 0,0"
               id="path33"
               style="fill:#ffffff" />
          </g>
        </g>
      </g>
      <g
         fill="#000000"
         fill-opacity="1"
         id="g39"
         style="fill:#ffffff">
        <g
           transform="translate(98.458386,38.330142)"
           id="g38"
           style="fill:#ffffff">
          <g
             id="g37"
             style="fill:#ffffff">
            <path
               d="M 16.09375,0 H 3.375 v -30.3125 h 12.71875 z m 0,0"
               id="path36"
               style="fill:#ffffff" />
          </g>
        </g>
      </g>
      <g
         fill="#000000"
         fill-opacity="1"
         id="g42"
         style="fill:#ffffff">
        <g
           transform="translate(117.93298,38.330142)"
           id="g41"
           style="fill:#ffffff">
          <g
             id="g40"
             style="fill:#ffffff">
            <path
               d="M 16.09375,0 H 3.375 v -30.3125 h 20.6875 c 4.945312,0 8.9375,0.371094 11.96875,1.109375 3.03125,0.742187 5.242188,1.902344 6.640625,3.484375 1.394531,1.585938 2.09375,3.652344 2.09375,6.203125 0,2.53125 -0.699219,4.589844 -2.09375,6.171875 -1.398437,1.585938 -3.609375,2.746094 -6.640625,3.484375 C 33,-9.117188 29.007812,-8.75 24.0625,-8.75 h -7.96875 z m 0,-16.21875 7.265625,-0.03125 c 2.03125,0 3.628906,-0.07813 4.796875,-0.234375 1.175781,-0.164063 2.039062,-0.394531 2.59375,-0.6875 0.550781,-0.300781 0.90625,-0.648437 1.0625,-1.046875 0.15625,-0.40625 0.234375,-0.835938 0.234375,-1.296875 0,-0.476563 -0.07813,-0.914063 -0.234375,-1.3125 -0.15625,-0.40625 -0.511719,-0.753906 -1.0625,-1.046875 -0.554688,-0.300781 -1.417969,-0.53125 -2.59375,-0.6875 -1.167969,-0.164062 -2.765625,-0.25 -4.796875,-0.25 H 16.09375 Z m 0,0"
               id="path39"
               style="fill:#ffffff" />
          </g>
        </g>
      </g>
      <g
         fill="#000000"
         fill-opacity="1"
         id="g45"
         style="fill:#ffffff">
        <g
           transform="translate(164.38051,38.330142)"
           id="g44"
           style="fill:#ffffff">
          <g
             id="g43"
             style="fill:#ffffff">
            <path
               d="m 20.03125,0.65625 c -4.105469,0 -7.414062,-0.4375 -9.921875,-1.3125 -2.5,-0.882812 -4.40625,-2.097656 -5.71875,-3.640625 C 3.078125,-5.835938 2.195312,-7.617188 1.75,-9.640625 h 13.5 c 1,1.4375 2.59375,2.15625 4.78125,2.15625 2.175781,0 3.765625,-0.71875 4.765625,-2.15625 0.08203,-0.132813 0.125,-0.257813 0.125,-0.375 0,-0.375 -0.507813,-0.65625 -1.515625,-0.84375 -1,-0.195313 -2.5,-0.34375 -4.5,-0.4375 -2.523438,-0.113281 -5.167969,-0.382813 -7.9375,-0.8125 -6.1875,-0.957031 -9.28125,-3.441406 -9.28125,-7.453125 0,-0.332031 0.019531,-0.691406 0.0625,-1.078125 0.445312,-2.007813 1.328125,-3.785156 2.640625,-5.328125 1.3125,-1.539062 3.21875,-2.75 5.71875,-3.625 2.507813,-0.882812 5.816406,-1.328125 9.921875,-1.328125 4.09375,0 7.394531,0.445313 9.90625,1.328125 2.507812,0.875 4.414062,2.085938 5.71875,3.625 1.3125,1.542969 2.191406,3.320312 2.640625,5.328125 h -13.5 c -1,-1.4375 -2.589844,-2.15625 -4.765625,-2.15625 -2.1875,0 -3.78125,0.71875 -4.78125,2.15625 -0.07422,0.117187 -0.109375,0.21875 -0.109375,0.3125 0,0.34375 0.484375,0.601563 1.453125,0.765625 0.96875,0.15625 2.390625,0.292969 4.265625,0.40625 1.882813,0.117188 3.890625,0.296875 6.015625,0.546875 2.125,0.25 4.113281,0.695313 5.96875,1.328125 1.851562,0.625 3.300781,1.546875 4.34375,2.765625 0.8125,0.949219 1.21875,2.148437 1.21875,3.59375 0,0.40625 -0.03906,0.835937 -0.109375,1.28125 -0.449219,2.023437 -1.328125,3.804687 -2.640625,5.34375 -1.304688,1.542969 -3.210938,2.757813 -5.71875,3.640625 -2.511719,0.875 -5.8125,1.3125 -9.90625,1.3125 z m 0,0"
               id="path42"
               style="fill:#ffffff" />
          </g>
        </g>
      </g>
      <g
         fill="#000000"
         fill-opacity="1"
         id="g48"
         style="fill:#ffffff">
        <g
           transform="translate(204.47029,38.330142)"
           id="g47"
           style="fill:#ffffff">
          <g
             id="g46"
             style="fill:#ffffff">
            <path
               d="m 25.859375,0 h -12.71875 v -22.8125 h -11.875 v -7.5 h 36.46875 v 7.5 h -11.875 z m 0,0"
               id="path45"
               style="fill:#ffffff" />
          </g>
        </g>
      </g>
      <g
         fill="#000000"
         fill-opacity="1"
         id="g51"
         style="fill:#ffffff">
        <g
           transform="translate(243.46171,38.330142)"
           id="g50"
           style="fill:#ffffff">
          <g
             id="g49"
             style="fill:#ffffff">
            <path
               d="M 39.890625,0 H 3.375 v -30.3125 h 34.84375 v 7.5 h -22.125 v 4.75 h 18.703125 v 5.828125 H 16.09375 V -7.5 h 23.796875 z m 0,0"
               id="path48"
               style="fill:#ffffff" />
          </g>
        </g>
      </g>
      <g
         fill="#000000"
         fill-opacity="1"
         id="g54"
         style="fill:#ffffff">
        <g
           transform="translate(285.03002,38.330142)"
           id="g53"
           style="fill:#ffffff">
          <g
             id="g52"
             style="fill:#ffffff">
            <path
               d="M 44.765625,0 H 32.75 C 32.195312,-0.757812 31.804688,-1.734375 31.578125,-2.921875 31.378906,-3.828125 31.082031,-4.71875 30.6875,-5.59375 30.300781,-6.476562 29.625,-7.210938 28.65625,-7.796875 27.6875,-8.390625 26.253906,-8.707031 24.359375,-8.75 H 16.09375 V 0 H 3.375 v -30.3125 h 20.6875 c 4.945312,0 8.9375,0.371094 11.96875,1.109375 3.03125,0.742187 5.242188,1.902344 6.640625,3.484375 1.394531,1.585938 2.09375,3.652344 2.09375,6.203125 0,2.125 -0.484375,3.914063 -1.453125,5.359375 -0.960938,1.449219 -2.480469,2.601562 -4.5625,3.453125 2.007812,0.824219 3.3125,1.820313 3.90625,2.984375 0.601562,1.15625 0.972656,2.433594 1.109375,3.828125 0.144531,1.242187 0.476563,2.539063 1,3.890625 z M 16.09375,-16.21875 23.359375,-16.25 c 2.03125,0 3.628906,-0.08594 4.796875,-0.265625 1.175781,-0.1875 2.039062,-0.4375 2.59375,-0.75 0.550781,-0.320313 0.90625,-0.675781 1.0625,-1.0625 0.15625,-0.382813 0.234375,-0.78125 0.234375,-1.1875 0,-0.414063 -0.07813,-0.816406 -0.234375,-1.203125 -0.15625,-0.394531 -0.511719,-0.75 -1.0625,-1.0625 -0.554688,-0.320312 -1.417969,-0.570312 -2.59375,-0.75 -1.167969,-0.1875 -2.765625,-0.28125 -4.796875,-0.28125 H 16.09375 Z m 0,0"
               id="path51"
               style="fill:#ffffff" />
          </g>
        </g>
      </g>
    </g>
  </g>
  <g
     clip-path="url(#bda69acc28)"
     id="g60"
     style="fill:#ffffff"
     transform="translate(-26.868353,-154.40827)">
    <g
       clip-path="url(#8117db54c5)"
       id="g59"
       style="fill:#ffffff">
      <g
         clip-path="url(#ec6ad571e7)"
         id="g58"
         style="fill:#ffffff">
        <g
           clip-path="url(#9a4f7904e1)"
           id="g57"
           style="fill:#ffffff">
          <path
             fill="#000000"
             d="m 236.32422,200.71094 c -23.08985,2.53125 -46.125,4.78125 -69.3711,8.75 1.4336,-3.01563 2.56641,-5.70313 3.96875,-8.24219 3.3086,-6.01172 6.27735,-12.23438 10.42579,-17.76172 1.3789,-1.98047 2.63671,-4.03125 3.77343,-6.15625 0.38282,-0.80078 0.70703,-1.625 0.97266,-2.47266 -0.55469,-0.53125 -0.97656,-0.91796 -1.44141,-1.35546 -1.66015,0.80468 -2.89843,2.03515 -3.71093,3.69921 -1.41797,2.35547 -2.875,4.69532 -4.22266,7.09766 -2.92188,4.91016 -6.34375,9.4375 -10.26172,13.57813 -2.71875,-1.15625 -4.58984,0.625 -6.53516,1.9375 -0.82421,-0.36719 -1.60156,-0.82422 -2.32812,-1.36329 -0.81641,-0.87109 -1.57031,-1.79687 -2.26563,-2.76953 -3.10546,-0.13281 -4.22656,2.67188 -6.21093,4.12891 -1.14453,-0.61719 -0.34766,-2.94531 -2.67188,-2.75781 -0.5039,0.625 -1.10937,1.43359 -1.80859,2.17968 -0.69922,0.7461 -0.65235,1.84766 -2.13672,1.97266 0.33203,-1.25391 0.57031,-2.25 0.82812,-3.21875 0.26172,-0.96875 0.92579,-1.875 0.39063,-3.17578 l -1.51563,-0.27344 c -1.9414,1.4375 -2.57812,4.00391 -5.20703,4.30469 2.35547,-6.79688 6.77344,-12.44141 8.98438,-19.30859 l -1.64844,-1.38672 c -3.52734,4.08203 -5.46094,8.95703 -8.69141,12.95312 -3.22656,3.9961 -6.24218,8.1836 -10.06249,11.625 -3.53516,-0.97656 -6.71485,-2.64062 -9.53516,-5 -4.61719,-3.64062 -9.54297,-6.77734 -15.64844,-6.10937 -4.33203,1.57422 -6.191405,4.78515 -6.949218,9 -0.398437,2.29687 -0.464843,4.60156 -0.207031,6.91797 0.261719,2.3164 0.839844,4.55078 1.734375,6.69921 0.195313,0.50391 0.4375,0.98438 0.714844,1.44922 0.28125,0.46094 0.597656,0.89453 0.949219,1.30469 0.355469,0.40625 0.742187,0.78125 1.15625,1.12109 0.417969,0.34375 0.863281,0.64454 1.332031,0.91016 0.46875,0.26563 0.95313,0.48828 1.46094,0.66797 0.50781,0.18359 1.02344,0.31641 1.55469,0.41016 0.52734,0.0898 1.0625,0.13671 1.59765,0.13671 0.53906,0 1.07031,-0.0469 1.60156,-0.13671 2.375,-0.41797 4.6211,-1.19922 6.7461,-2.34375 4.35156,-2.44141 8.3164,-5.41016 11.89453,-8.90235 0.82031,-0.8789 1.70312,-1.68359 2.64844,-2.42187 0.48047,-0.33985 1.24609,-0.26172 2.85937,-0.55469 -1.76953,3.42578 -3.16797,5.8125 -4.54687,8.15625 -2.02735,3.41406 -3.60157,7.02734 -4.71875,10.83984 -0.0742,0.26172 0.1914,0.61328 0.32812,1.00782 l 1.58985,0.39062 10.34374,-20.10547 c 0.96094,-0.76172 1.98438,-1.42969 3.0625,-2.00781 0.92969,-0.40234 1.71875,-1.51172 3.09375,-1.10547 -0.33593,1.50391 -0.67578,2.82813 -0.86718,4.18359 -0.043,0.21094 -0.0469,0.42188 -0.0117,0.63672 0.0312,0.21485 0.10156,0.41407 0.20703,0.60157 0.10547,0.1875 0.23828,0.35156 0.40234,0.49218 0.16407,0.14063 0.34766,0.2461 0.55078,0.31641 2.51172,0.37891 3.28516,-2.08594 4.7461,-3.11719 l 3.25781,0.13281 4.625,-4.26953 2.48438,3.10547 c 0.77734,-0.5 1.60546,-0.89453 2.48437,-1.17969 0.94531,-0.0859 1.89063,-0.0742 2.83203,0.0352 l 4.3086,-3 3.21875,0.89453 c -0.86719,2.8711 -2.19532,5.5 -3.98829,7.89063 -1.03906,0.2539 -2.01953,0.57422 -3.03125,0.75 -4.0039,0.6914 -7.84765,2.32422 -12.08203,1.83593 -1.25,-0.14843 -2.64843,0.61329 -3.89062,1.16016 -0.47266,0.20703 -0.70313,0.97266 -0.98047,1.37109 0.13281,0.25391 0.30469,0.48047 0.51172,0.67969 0.21094,0.19531 0.4414,0.35547 0.70312,0.47656 0.25782,0.1211 0.53125,0.19532 0.81641,0.22657 0.28125,0.0312 0.5625,0.0156 0.84375,-0.0469 4.36719,-0.73828 8.74609,-1.50781 13.12109,-2.25781 0.66797,-0.11719 1.33203,-0.20703 2.42188,-0.37109 -0.76172,2.0039 -1.41016,3.69921 -2.06641,5.40234 -0.73437,1.92578 -1.54687,3.85156 -2.16797,5.77344 -0.27343,0.84765 0.0586,1.69922 1.32032,2.20703 0.68359,-0.29688 1.29687,-0.69922 1.84375,-1.20313 0.60937,-0.83593 1.09765,-1.73828 1.47265,-2.70312 1.55078,-3.41406 3.16016,-6.75781 3.89453,-10.34375 22.44141,-4.1211 44.78907,-6.36719 66.71875,-8.58985 1.17969,0.5586 1.73828,1.40235 2.86328,0.98438 0.41797,-0.39453 0.91407,-0.83984 1.40625,-1.33984 0.23829,-0.34375 0.44532,-0.70313 0.61329,-1.08594 z m -133.32031,16.43359 c -3.132816,-0.62109 -4.812504,-2.79687 -5.652348,-5.83594 -0.839843,-3.03906 -1.539062,-6.03515 -1.0625,-9.1289 0.09766,-1.02735 0.289063,-2.03516 0.574219,-3.02344 1.589844,-4.27344 3.597659,-5.12109 7.394529,-4.35156 3.29297,0.65625 5.97657,2.45312 8.63672,4.30078 1.67969,1.15625 3.22656,2.53906 4.96094,3.6289 1.57031,0.98829 3.30469,1.71875 4.98437,2.57032 -6.63671,7.11718 -12.42968,10.63281 -19.83593,11.83984 z m 0,0"
             fill-opacity="1"
             fill-rule="nonzero"
             id="path56"
             style="fill:#ffffff" />
        </g>
      </g>
    </g>
  </g>
</svg>
