<svg version="1.2" xmlns="http://www.w3.org/2000/svg" viewBox="0 0 200 200" width="200" height="200">
	<style>
		.s0 { fill: #624b5f } 
	</style>
	<path class="s0" d="m33 40.25v37.25h89.33v29.67h29.84v15h-44.67v-29.84h-44.67v29.84l-7.45-0.04-7.46-0.05-0.05-14.88-0.04-14.87h-14.83v44.67h44.67v-29.83h14.83v29.83h74.5v-74.5h-119.17v-44.67h15v29.84h104.17v-44.67h-14.83v29.83l-7.45-0.03-7.47-0.05-0.05-14.88-0.03-14.87h-14.84v29.83h-14.83v-29.83h-15v29.83h-14.83v-29.83h-44.67zm119.17 44.67v7.41h-15v-14.83h15z"/>
	<path class="s0" d="m13.67 163.35q-0.67 0.07-1.32 0.2-0.66 0.12-1.3 0.3-0.64 0.18-1.27 0.41-0.62 0.23-1.23 0.51c-1 0.48-1.6 0.95-2.63 1.98-1.5 1.48-2.14 2.6-2.52 4.38-0.9 4.34 0.77 8.04 4.53 9.99 0.75 0.38 2.69 1.15 4.3 1.7 3.29 1.11 4.4 1.65 5.1 2.46 1.34 1.5 0.85 3.82-0.96 4.75-2.47 1.25-6.24 0.44-8.8-1.91l-0.95-0.87-2.49 2.58c-1.35 1.42-2.46 2.62-2.46 2.69 0 0.06 0.53 0.55 1.2 1.06 1.53 1.2 3.78 2.3 5.9 2.87 1.5 0.4 1.93 0.45 4.73 0.45 2.73 0.02 3.23-0.03 4.38-0.37 4.35-1.25 7.19-4.11 7.87-7.95 0.43-2.38 0.2-4.36-0.68-6.1-0.6-1.2-2.39-2.95-3.8-3.73-0.62-0.35-2.79-1.22-4.8-1.93-2.1-0.74-3.92-1.49-4.25-1.75-1.89-1.44-1.55-3.79 0.7-4.94 0.93-0.48 3.05-0.6 4.33-0.21 1.32 0.36 2.05 0.76 3.15 1.66l0.92 0.74 2.43-2.54 2.42-2.53-0.79-0.72c-1.01-0.9-3.75-2.25-5.46-2.7-1.32-0.33-3.79-0.68-4.59-0.65-0.23 0.02-0.98 0.09-1.66 0.17z"/>
	<path class="s0" d="m49.68 164.32c-0.3 0.55-13.35 31.71-13.35 31.86 0 0.1 1.79 0.14 4.19 0.12l4.18-0.05 1.17-3.13 1.16-3.12h6.29l6.26 0.02 1.24 3.15 1.23 3.16h4.32c2.48 0 4.3-0.06 4.26-0.15-0.03-0.08-3.05-7.35-6.7-16.16l-6.66-16.02h-3.72c-3.47 0-3.72 0.02-3.87 0.32zm5.74 13.93c1.05 2.92 1.91 5.33 1.91 5.35 0 0.02-1.8 0.07-4.01 0.07-3.15 0-4-0.05-3.94-0.22 0.04-0.1 0.89-2.38 1.87-5.03 0.98-2.65 1.87-5.02 1.95-5.24 0.08-0.21 0.18-0.36 0.22-0.31 0.03 0.05 0.93 2.45 2 5.38z"/>
	<path class="s0" d="m82.5 180.17v16.16h20.17v-6.83h-12.34l-0.03-12.72-0.05-12.7-3.87-0.05-3.88-0.03z"/>
	<path class="s0" d="m115.5 180.17v16.16l3.63-0.03 3.62-0.05-0.05-11.42-0.05-11.41 2.57 7.08c1.4 3.9 3.25 9.05 4.11 11.45l1.55 4.38h2.72c2.42 0 2.72-0.03 2.82-0.3 0.05-0.15 1.91-5.2 4.11-11.2 2.2-6 4.07-11.03 4.15-11.16 0.09-0.14 0.12 4.28 0.05 11.21l-0.11 11.45 3.81-0.03 3.82-0.05v-32.17l-5.58-0.05-5.6-0.03-3.5 10.28c-1.92 5.67-3.55 10.29-3.64 10.27-0.08-0.02-1.78-4.63-3.78-10.25l-3.62-10.22-5.51-0.05-5.52-0.03z"/>
	<path class="s0" d="m170.83 180.03c-3.7 8.84-6.75 16.1-6.78 16.17-0.03 0.07 1.83 0.13 4.17 0.13h4.25l1.16-3.11 1.17-3.14h12.58l1.22 3.09 1.2 3.08 4.27 0.05c2.75 0.02 4.26-0.02 4.26-0.13 0-0.17-12.88-31.32-13.18-31.89-0.15-0.25-0.52-0.28-3.88-0.28h-3.72zm12.35-1.82l1.93 5.37-3.91 0.05c-2.15 0.02-3.95 0-3.99-0.03-0.08-0.09 3.84-10.75 3.95-10.77 0.05 0 0.95 2.42 2.02 5.38z"/>
</svg>