<svg xmlns="http://www.w3.org/2000/svg" xmlns:xlink="http://www.w3.org/1999/xlink" width="167" zoomAndPan="magnify" viewBox="0 0 125.25 38.999999" height="52" preserveAspectRatio="xMidYMid meet" version="1.0"><defs><g/><clipPath id="842836d872"><path d="M 0 0.117188 L 124.503906 0.117188 L 124.503906 38.882812 L 0 38.882812 Z M 0 0.117188 " clip-rule="nonzero"/></clipPath><clipPath id="09f2cd7882"><path d="M 13 14 L 35 14 L 35 36.199219 L 13 36.199219 Z M 13 14 " clip-rule="nonzero"/></clipPath><clipPath id="147d849eae"><path d="M 13.269531 2.652344 L 39.210938 2.652344 L 39.210938 36.199219 L 13.269531 36.199219 Z M 13.269531 2.652344 " clip-rule="nonzero"/></clipPath><clipPath id="df3ef204cf"><path d="M 5.277344 9 L 26 9 L 26 36 L 5.277344 36 Z M 5.277344 9 " clip-rule="nonzero"/></clipPath><clipPath id="c739cf0d18"><path d="M 5.277344 20 L 30 20 L 30 35 L 5.277344 35 Z M 5.277344 20 " clip-rule="nonzero"/></clipPath><clipPath id="b7e0ef29dc"><path d="M 93 29 L 101 29 L 101 35 L 93 35 Z M 93 29 " clip-rule="nonzero"/></clipPath><clipPath id="23d3eb4fca"><path d="M 102.867188 27.722656 L 97.160156 39.039062 L 90.503906 35.683594 L 96.210938 24.367188 Z M 102.867188 27.722656 " clip-rule="nonzero"/></clipPath><clipPath id="57e355e198"><path d="M 102.867188 27.722656 L 97.160156 39.039062 L 90.503906 35.683594 L 96.210938 24.367188 Z M 102.867188 27.722656 " clip-rule="nonzero"/></clipPath><clipPath id="43e1a41f34"><path d="M 94 25 L 100 25 L 100 29 L 94 29 Z M 94 25 " clip-rule="nonzero"/></clipPath><clipPath id="6300022904"><path d="M 102.867188 27.722656 L 97.160156 39.039062 L 90.503906 35.683594 L 96.210938 24.367188 Z M 102.867188 27.722656 " clip-rule="nonzero"/></clipPath><clipPath id="5cb6ae7179"><path d="M 102.867188 27.722656 L 97.160156 39.039062 L 90.503906 35.683594 L 96.210938 24.367188 Z M 102.867188 27.722656 " clip-rule="nonzero"/></clipPath><clipPath id="3b9c8d2707"><path d="M 91 31 L 95 31 L 95 37 L 91 37 Z M 91 31 " clip-rule="nonzero"/></clipPath><clipPath id="0c1b6f4406"><path d="M 102.867188 27.722656 L 97.160156 39.039062 L 90.503906 35.683594 L 96.210938 24.367188 Z M 102.867188 27.722656 " clip-rule="nonzero"/></clipPath><clipPath id="e4a975a302"><path d="M 102.867188 27.722656 L 97.160156 39.039062 L 90.503906 35.683594 L 96.210938 24.367188 Z M 102.867188 27.722656 " clip-rule="nonzero"/></clipPath></defs><g clip-path="url(#842836d872)"><path fill="#ffffff" d="M 0 0.117188 L 124.503906 0.117188 L 124.503906 38.882812 L 0 38.882812 Z M 0 0.117188 " fill-opacity="1" fill-rule="nonzero"/><path fill="#fffef8" d="M 0 0.117188 L 124.503906 0.117188 L 124.503906 38.882812 L 0 38.882812 Z M 0 0.117188 " fill-opacity="1" fill-rule="nonzero"/></g><g clip-path="url(#09f2cd7882)"><path fill="#fd7bcc" d="M 34.539062 35.046875 L 31.074219 22.402344 C 31.03125 22.246094 30.886719 22.136719 30.722656 22.136719 C 30.691406 22.136719 30.660156 22.140625 30.628906 22.148438 C 30.535156 22.175781 30.457031 22.234375 30.40625 22.320312 C 30.359375 22.40625 30.347656 22.503906 30.371094 22.597656 L 33.835938 35.238281 C 33.878906 35.394531 34.023438 35.507812 34.1875 35.507812 C 34.21875 35.507812 34.25 35.5 34.285156 35.492188 C 34.375 35.46875 34.457031 35.40625 34.503906 35.324219 C 34.550781 35.238281 34.5625 35.140625 34.539062 35.046875 Z M 17.078125 20.785156 L 17.046875 20.785156 C 15.828125 20.820312 14.472656 20.855469 14.304688 20.855469 C 14.175781 20.855469 14.054688 20.910156 13.964844 21.011719 C 13.792969 21.203125 13.738281 21.601562 13.804688 22.195312 C 13.828125 22.378906 13.980469 22.519531 14.167969 22.519531 C 14.179688 22.519531 14.195312 22.515625 14.207031 22.515625 C 14.304688 22.503906 14.390625 22.457031 14.453125 22.382812 C 14.511719 22.304688 14.539062 22.210938 14.527344 22.113281 C 14.507812 21.917969 14.503906 21.710938 14.515625 21.578125 C 15.117188 21.566406 16.734375 21.523438 17.078125 21.511719 L 17.085938 21.511719 C 17.183594 21.511719 17.273438 21.46875 17.339844 21.398438 C 17.40625 21.328125 17.445312 21.238281 17.441406 21.140625 C 17.433594 20.941406 17.277344 20.785156 17.078125 20.785156 Z M 25.777344 20.75 L 24.246094 20.714844 C 24.050781 20.714844 23.886719 20.875 23.882812 21.070312 C 23.878906 21.273438 24.039062 21.441406 24.238281 21.445312 L 25.769531 21.480469 C 25.96875 21.480469 26.128906 21.320312 26.132812 21.125 C 26.140625 20.921875 25.980469 20.757812 25.777344 20.75 Z M 22.136719 29.570312 C 20.265625 29.183594 18.867188 30.066406 18.566406 30.917969 C 18.285156 31.707031 18.382812 35.722656 18.398438 36.308594 C 18.398438 36.355469 18.402344 36.382812 18.402344 36.382812 L 22.566406 36.382812 L 24.140625 36.378906 C 24.140625 36.378906 24.304688 35.367188 24.195312 33.113281 C 24.085938 30.863281 24.039062 29.964844 22.136719 29.570312 Z M 30.0625 15.398438 C 30.097656 16.671875 30.15625 19.886719 29.863281 20.414062 C 29.496094 21.070312 23.894531 20.449219 22.648438 20.449219 C 21.402344 20.449219 14.117188 20.707031 13.675781 20.523438 C 13.339844 20.382812 13.496094 17.359375 13.589844 15.773438 C 13.617188 15.265625 14.058594 14.855469 14.566406 14.863281 C 16.503906 14.894531 20.933594 14.839844 22.722656 14.808594 C 24.550781 14.78125 28.1875 14.84375 29.53125 14.871094 C 29.820312 14.878906 30.054688 15.109375 30.0625 15.398438 " fill-opacity="1" fill-rule="nonzero"/></g><g clip-path="url(#147d849eae)"><path fill="#e42d1c" d="M 29.195312 26.703125 C 28.867188 26.675781 17.027344 26.511719 14.941406 26.511719 C 12.851562 26.511719 13.320312 27.828125 13.320312 29.285156 C 13.320312 30.742188 13.417969 33.210938 13.457031 35.027344 C 13.484375 36.375 14.832031 36.289062 14.832031 36.289062 C 14.832031 36.289062 16.6875 36.296875 18.398438 36.308594 C 18.382812 35.722656 18.285156 31.707031 18.566406 30.917969 C 18.867188 30.066406 20.265625 29.183594 22.136719 29.570312 C 24.039062 29.964844 24.085938 30.863281 24.195312 33.113281 C 24.304688 35.367188 24.140625 36.378906 24.140625 36.378906 L 22.566406 36.382812 C 24.929688 36.429688 29.339844 36.460938 29.636719 36.105469 C 30.019531 35.636719 29.773438 32.910156 29.773438 30.054688 C 29.773438 27.195312 29.523438 26.730469 29.195312 26.703125 Z M 34.382812 35.089844 L 30.917969 22.445312 C 30.890625 22.339844 30.777344 22.277344 30.671875 22.304688 C 30.5625 22.335938 30.5 22.445312 30.527344 22.554688 L 33.992188 35.195312 C 34.015625 35.285156 34.097656 35.34375 34.1875 35.34375 C 34.203125 35.34375 34.222656 35.34375 34.242188 35.335938 C 34.347656 35.308594 34.410156 35.195312 34.382812 35.089844 Z M 38.914062 34.710938 L 34.210938 35.988281 C 33.90625 36.070312 33.5 35.539062 33.300781 34.804688 L 30.199219 23.378906 C 30 22.644531 30.085938 21.980469 30.386719 21.898438 L 35.089844 20.625 C 35.394531 20.542969 35.785156 21.074219 36 21.804688 C 37.847656 28.109375 39.101562 33.230469 39.101562 33.230469 C 39.300781 33.964844 39.21875 34.628906 38.914062 34.710938 Z M 20.644531 10.324219 C 20.84375 10.324219 21.007812 10.164062 21.007812 9.960938 C 21.007812 9.761719 20.84375 9.597656 20.644531 9.597656 C 18.171875 9.597656 17.992188 9.78125 17.894531 9.878906 C 17.78125 9.992188 17.609375 10.164062 17.71875 13.265625 C 17.726562 13.460938 17.882812 13.617188 18.082031 13.617188 L 18.09375 13.617188 C 18.292969 13.609375 18.453125 13.441406 18.445312 13.238281 C 18.402344 11.996094 18.40625 10.828125 18.449219 10.421875 C 18.796875 10.367188 19.71875 10.324219 20.644531 10.324219 Z M 17.640625 9.003906 C 17.121094 8.179688 19.859375 3.96875 21.265625 2.878906 C 22.25 2.121094 23.023438 3.429688 23.492188 4.28125 C 23.957031 5.132812 25.441406 8.566406 25.140625 9.140625 C 24.835938 9.71875 18.164062 9.828125 17.640625 9.003906 " fill-opacity="1" fill-rule="nonzero"/></g><g clip-path="url(#df3ef204cf)"><path fill="#ffec0f" d="M 20.847656 9.960938 C 20.847656 9.851562 20.757812 9.761719 20.644531 9.761719 C 18.238281 9.761719 18.066406 9.933594 18.007812 9.992188 C 17.945312 10.058594 17.773438 10.226562 17.878906 13.261719 C 17.882812 13.367188 17.972656 13.453125 18.082031 13.453125 C 18.082031 13.453125 18.085938 13.453125 18.089844 13.453125 C 18.199219 13.449219 18.289062 13.355469 18.285156 13.246094 C 18.238281 11.996094 18.238281 10.597656 18.308594 10.285156 C 18.574219 10.210938 19.691406 10.164062 20.644531 10.164062 C 20.757812 10.164062 20.847656 10.074219 20.847656 9.960938 Z M 25.238281 14.835938 C 25.019531 14.945312 20.789062 15.027344 20.1875 15.027344 C 19.582031 15.027344 17.550781 15.195312 17.382812 14.78125 C 17.21875 14.371094 17.414062 11.210938 17.414062 10.800781 C 17.414062 10.386719 17.300781 9.425781 17.660156 9.289062 C 17.660156 9.289062 24.882812 9.289062 25.128906 9.425781 C 25.378906 9.5625 25.460938 14.726562 25.238281 14.835938 Z M 11.300781 30.300781 C 11.5 33.003906 11.300781 35.175781 11.300781 35.175781 C 11.300781 35.488281 11.046875 35.742188 10.734375 35.742188 L 5.859375 35.742188 C 5.546875 35.742188 5.292969 35.488281 5.292969 35.175781 L 5.292969 30.300781 C 5.292969 29.988281 5.546875 29.753906 5.859375 29.734375 C 8.398438 29.566406 10.734375 29.734375 10.734375 29.734375 C 11.046875 29.734375 11.277344 29.988281 11.300781 30.300781 " fill-opacity="1" fill-rule="nonzero"/></g><path fill="#4153c8" d="M 17.277344 21.144531 C 17.277344 21.035156 17.1875 20.949219 17.078125 20.949219 C 17.074219 20.949219 17.074219 20.949219 17.070312 20.949219 C 17.046875 20.949219 14.542969 21.015625 14.304688 21.015625 C 14.222656 21.015625 14.144531 21.054688 14.085938 21.117188 C 13.902344 21.324219 13.933594 21.867188 13.96875 22.175781 C 13.980469 22.28125 14.066406 22.355469 14.167969 22.355469 C 14.175781 22.355469 14.183594 22.355469 14.191406 22.355469 C 14.300781 22.34375 14.382812 22.242188 14.367188 22.132812 C 14.335938 21.851562 14.34375 21.539062 14.375 21.421875 C 14.839844 21.414062 16.984375 21.355469 17.082031 21.351562 C 17.195312 21.347656 17.28125 21.253906 17.277344 21.144531 Z M 19.421875 26.519531 C 19.015625 26.667969 14.367188 26.613281 14.367188 26.613281 C 13.5625 26.539062 13.585938 25.789062 13.585938 25.421875 C 13.585938 25.054688 13.421875 21.226562 13.675781 20.824219 C 13.933594 20.421875 17.1875 20.332031 18.46875 20.402344 C 19.75 20.476562 19.699219 20.917969 19.773438 22.164062 C 19.847656 23.40625 19.824219 26.375 19.421875 26.519531 Z M 14.257812 17.953125 C 14.269531 17.953125 14.277344 17.953125 14.285156 17.953125 C 14.398438 17.9375 14.472656 17.835938 14.460938 17.726562 C 14.332031 16.753906 14.402344 15.785156 14.601562 15.730469 C 15.046875 15.617188 17.371094 15.644531 18.226562 15.664062 C 18.339844 15.667969 18.433594 15.578125 18.433594 15.46875 C 18.4375 15.355469 18.347656 15.261719 18.238281 15.261719 C 17.917969 15.253906 15.082031 15.191406 14.503906 15.339844 C 13.832031 15.511719 13.96875 17.101562 14.058594 17.777344 C 14.074219 17.878906 14.160156 17.953125 14.257812 17.953125 " fill-opacity="1" fill-rule="nonzero"/><g clip-path="url(#c739cf0d18)"><path fill="#36ad42" d="M 9.9375 30.308594 C 9.925781 30.421875 9.828125 30.503906 9.71875 30.496094 C 8.132812 30.363281 6.304688 30.371094 6.082031 30.597656 C 5.976562 31.058594 5.953125 33.078125 5.953125 33.828125 C 5.953125 33.9375 5.863281 34.027344 5.75 34.027344 C 5.640625 34.027344 5.550781 33.9375 5.550781 33.828125 C 5.550781 33.714844 5.550781 31.058594 5.695312 30.488281 C 5.757812 30.226562 6.066406 29.988281 7.867188 30.003906 C 8.804688 30.011719 9.742188 30.089844 9.75 30.09375 C 9.863281 30.101562 9.945312 30.199219 9.9375 30.308594 Z M 25.769531 21.316406 C 25.769531 21.316406 25.769531 21.316406 25.765625 21.316406 L 24.242188 21.28125 C 24.128906 21.28125 24.042969 21.1875 24.042969 21.074219 C 24.046875 20.964844 24.140625 20.875 24.25 20.878906 L 25.773438 20.914062 C 25.886719 20.914062 25.976562 21.007812 25.972656 21.121094 C 25.96875 21.230469 25.878906 21.316406 25.769531 21.316406 Z M 29.679688 20.742188 C 29.277344 20.484375 25.175781 20.523438 24.808594 20.523438 C 24.445312 20.523438 23.691406 20.414062 23.621094 21.21875 C 23.621094 21.21875 23.566406 25.871094 23.710938 26.273438 C 23.859375 26.675781 26.824219 26.785156 28.070312 26.710938 C 29.316406 26.636719 29.753906 26.601562 29.828125 25.320312 C 29.902344 24.039062 30.082031 21 29.679688 20.742188 " fill-opacity="1" fill-rule="nonzero"/></g><g fill="#4153c8" fill-opacity="1"><g transform="translate(34.520996, 21.99109)"><g><path d="M 10.9375 -15.234375 C 11.382812 -15.191406 11.726562 -15.0625 11.96875 -14.84375 C 12.21875 -14.632812 12.34375 -14.28125 12.34375 -13.78125 C 12.34375 -13.269531 12.195312 -12.894531 11.90625 -12.65625 C 11.625 -12.425781 11.222656 -12.320312 10.703125 -12.34375 C 9.640625 -12.414062 8.773438 -12.453125 8.109375 -12.453125 C 7.984375 -10.796875 7.898438 -9.140625 7.859375 -7.484375 C 7.816406 -5.835938 7.796875 -3.753906 7.796875 -1.234375 C 7.796875 -0.691406 7.6875 -0.3125 7.46875 -0.09375 C 7.257812 0.113281 6.851562 0.21875 6.25 0.21875 C 5.625 0.21875 5.171875 0.109375 4.890625 -0.109375 C 4.609375 -0.328125 4.46875 -0.691406 4.46875 -1.203125 C 4.46875 -3.347656 4.519531 -5.441406 4.625 -7.484375 L 4.890625 -12.4375 C 4.242188 -12.40625 3.722656 -12.375 3.328125 -12.34375 L 2.359375 -12.28125 C 2.296875 -12.269531 2.207031 -12.265625 2.09375 -12.265625 C 1.664062 -12.265625 1.316406 -12.398438 1.046875 -12.671875 C 0.785156 -12.953125 0.65625 -13.320312 0.65625 -13.78125 C 0.65625 -14.207031 0.769531 -14.519531 1 -14.71875 C 1.226562 -14.925781 1.546875 -15.0625 1.953125 -15.125 C 2.484375 -15.195312 3.222656 -15.253906 4.171875 -15.296875 C 5.128906 -15.335938 6.015625 -15.359375 6.828125 -15.359375 C 7.484375 -15.359375 8.234375 -15.347656 9.078125 -15.328125 C 9.921875 -15.304688 10.539062 -15.273438 10.9375 -15.234375 Z M 10.9375 -15.234375 "/></g></g></g><g fill="#e42d1c" fill-opacity="1"><g transform="translate(43.035996, 21.99109)"><g><path d="M 11.75 -2.4375 C 12.03125 -2.394531 12.25 -2.289062 12.40625 -2.125 C 12.5625 -1.96875 12.640625 -1.6875 12.640625 -1.28125 C 12.640625 -0.925781 12.546875 -0.625 12.359375 -0.375 C 12.179688 -0.125 11.9375 0 11.625 0 C 10.988281 0 10.503906 -0.078125 10.171875 -0.234375 C 9.835938 -0.390625 9.53125 -0.671875 9.25 -1.078125 C 8.925781 -0.597656 8.484375 -0.257812 7.921875 -0.0625 C 7.367188 0.132812 6.71875 0.234375 5.96875 0.234375 C 4.3125 0.234375 3.046875 -0.238281 2.171875 -1.1875 C 1.304688 -2.144531 0.875 -3.472656 0.875 -5.171875 C 0.875 -6.285156 1.101562 -7.273438 1.5625 -8.140625 C 2.019531 -9.003906 2.65625 -9.675781 3.46875 -10.15625 C 4.28125 -10.644531 5.21875 -10.890625 6.28125 -10.890625 C 6.800781 -10.890625 7.289062 -10.785156 7.75 -10.578125 C 8.207031 -10.378906 8.550781 -10.113281 8.78125 -9.78125 L 8.828125 -10.0625 C 8.859375 -10.269531 8.972656 -10.441406 9.171875 -10.578125 C 9.378906 -10.710938 9.707031 -10.78125 10.15625 -10.78125 C 10.625 -10.78125 10.96875 -10.6875 11.1875 -10.5 C 11.40625 -10.3125 11.515625 -10.070312 11.515625 -9.78125 C 11.515625 -9.675781 11.503906 -9.59375 11.484375 -9.53125 C 11.398438 -9.03125 11.316406 -8.191406 11.234375 -7.015625 C 11.179688 -6.472656 11.15625 -5.78125 11.15625 -4.9375 L 11.15625 -3.828125 C 11.15625 -3.398438 11.191406 -3.070312 11.265625 -2.84375 C 11.335938 -2.625 11.5 -2.488281 11.75 -2.4375 Z M 8.078125 -3.96875 C 8.097656 -4.5625 8.109375 -5.492188 8.109375 -6.765625 C 8.109375 -7.253906 7.941406 -7.65625 7.609375 -7.96875 C 7.273438 -8.289062 6.851562 -8.453125 6.34375 -8.453125 C 5.675781 -8.453125 5.128906 -8.144531 4.703125 -7.53125 C 4.285156 -6.925781 4.078125 -6.148438 4.078125 -5.203125 C 4.078125 -4.285156 4.265625 -3.554688 4.640625 -3.015625 C 5.023438 -2.472656 5.539062 -2.203125 6.1875 -2.203125 C 6.789062 -2.203125 7.253906 -2.351562 7.578125 -2.65625 C 7.898438 -2.957031 8.066406 -3.394531 8.078125 -3.96875 Z M 8.078125 -3.96875 "/></g></g></g><g fill="#ffec0f" fill-opacity="1"><g transform="translate(56.35322, 21.99109)"><g><path d="M 7.734375 -4.375 C 8.210938 -4.375 8.5625 -4.28125 8.78125 -4.09375 C 9 -3.90625 9.109375 -3.597656 9.109375 -3.171875 C 9.109375 -2.203125 8.800781 -1.421875 8.1875 -0.828125 C 7.570312 -0.242188 6.796875 0.046875 5.859375 0.046875 C 4.578125 0.046875 3.640625 -0.46875 3.046875 -1.5 C 2.460938 -2.539062 2.171875 -4.179688 2.171875 -6.421875 C 2.171875 -7.097656 2.179688 -7.59375 2.203125 -7.90625 C 2.097656 -7.914062 1.925781 -7.921875 1.6875 -7.921875 C 0.851562 -7.941406 0.4375 -8.347656 0.4375 -9.140625 C 0.4375 -9.546875 0.539062 -9.851562 0.75 -10.0625 C 0.96875 -10.269531 1.347656 -10.363281 1.890625 -10.34375 L 2.375 -10.328125 C 2.476562 -11.234375 2.648438 -12.347656 2.890625 -13.671875 C 2.941406 -14.023438 3.101562 -14.289062 3.375 -14.46875 C 3.644531 -14.65625 3.992188 -14.75 4.421875 -14.75 C 4.921875 -14.75 5.3125 -14.628906 5.59375 -14.390625 C 5.875 -14.160156 6.015625 -13.878906 6.015625 -13.546875 L 5.984375 -13.359375 L 5.875 -12.65625 C 5.695312 -11.457031 5.582031 -10.632812 5.53125 -10.1875 C 6.03125 -10.164062 6.410156 -10.15625 6.671875 -10.15625 C 7.421875 -10.132812 7.796875 -9.742188 7.796875 -8.984375 C 7.796875 -8.597656 7.691406 -8.3125 7.484375 -8.125 C 7.273438 -7.9375 6.929688 -7.84375 6.453125 -7.84375 L 5.34375 -7.84375 C 5.332031 -7.539062 5.328125 -7.066406 5.328125 -6.421875 C 5.328125 -5.335938 5.351562 -4.503906 5.40625 -3.921875 C 5.457031 -3.347656 5.535156 -2.957031 5.640625 -2.75 C 5.742188 -2.539062 5.875 -2.4375 6.03125 -2.4375 C 6.238281 -2.4375 6.367188 -2.503906 6.421875 -2.640625 C 6.484375 -2.773438 6.515625 -3.007812 6.515625 -3.34375 C 6.515625 -4.03125 6.921875 -4.375 7.734375 -4.375 Z M 7.734375 -4.375 "/></g></g></g><g fill="#36ad42" fill-opacity="1"><g transform="translate(65.28332, 21.99109)"><g><path d="M 3 -0.203125 C 2.53125 -0.203125 2.15625 -0.328125 1.875 -0.578125 C 1.59375 -0.828125 1.453125 -1.140625 1.453125 -1.515625 L 1.328125 -16.09375 C 1.328125 -16.488281 1.476562 -16.8125 1.78125 -17.0625 C 2.09375 -17.3125 2.484375 -17.4375 2.953125 -17.4375 C 3.421875 -17.4375 3.796875 -17.3125 4.078125 -17.0625 C 4.367188 -16.820312 4.515625 -16.503906 4.515625 -16.109375 L 4.625 -1.546875 C 4.625 -1.128906 4.460938 -0.800781 4.140625 -0.5625 C 3.828125 -0.320312 3.445312 -0.203125 3 -0.203125 Z M 3 -0.203125 "/></g></g></g><g fill="#fd7bcc" fill-opacity="1"><g transform="translate(69.711685, 21.99109)"><g><path d="M 3.71875 -11.484375 C 3.132812 -11.484375 2.65625 -11.671875 2.28125 -12.046875 C 1.90625 -12.421875 1.71875 -12.894531 1.71875 -13.46875 C 1.71875 -14.039062 1.90625 -14.503906 2.28125 -14.859375 C 2.65625 -15.222656 3.144531 -15.40625 3.75 -15.40625 C 4.332031 -15.40625 4.804688 -15.222656 5.171875 -14.859375 C 5.535156 -14.503906 5.71875 -14.050781 5.71875 -13.5 C 5.71875 -12.925781 5.53125 -12.445312 5.15625 -12.0625 C 4.78125 -11.675781 4.300781 -11.484375 3.71875 -11.484375 Z M 3.40625 -0.125 C 2.9375 -0.125 2.546875 -0.242188 2.234375 -0.484375 C 1.929688 -0.722656 1.789062 -1.039062 1.8125 -1.4375 L 1.984375 -9.5625 C 1.992188 -9.957031 2.144531 -10.265625 2.4375 -10.484375 C 2.738281 -10.710938 3.125 -10.828125 3.59375 -10.828125 C 4.070312 -10.828125 4.460938 -10.707031 4.765625 -10.46875 C 5.078125 -10.238281 5.226562 -9.921875 5.21875 -9.515625 L 5.046875 -1.40625 C 5.023438 -1.007812 4.863281 -0.695312 4.5625 -0.46875 C 4.257812 -0.238281 3.875 -0.125 3.40625 -0.125 Z M 3.40625 -0.125 "/></g></g></g><g fill="#e42d1c" fill-opacity="1"><g transform="translate(76.336169, 21.99109)"><g><path d="M 5.53125 0.203125 C 4.507812 0.203125 3.601562 -0.0351562 2.8125 -0.515625 C 2.019531 -0.992188 1.457031 -1.628906 1.125 -2.421875 C 1.03125 -2.640625 0.984375 -2.820312 0.984375 -2.96875 C 0.984375 -3.28125 1.144531 -3.570312 1.46875 -3.84375 C 1.789062 -4.125 2.144531 -4.265625 2.53125 -4.265625 C 2.75 -4.265625 2.925781 -4.21875 3.0625 -4.125 C 3.195312 -4.03125 3.300781 -3.941406 3.375 -3.859375 C 3.445312 -3.785156 3.488281 -3.734375 3.5 -3.703125 C 3.925781 -3.203125 4.273438 -2.847656 4.546875 -2.640625 C 4.828125 -2.429688 5.164062 -2.328125 5.5625 -2.328125 C 5.9375 -2.328125 6.253906 -2.40625 6.515625 -2.5625 C 6.773438 -2.71875 6.90625 -2.9375 6.90625 -3.21875 C 6.90625 -3.519531 6.75 -3.757812 6.4375 -3.9375 C 6.132812 -4.113281 5.640625 -4.3125 4.953125 -4.53125 C 4.191406 -4.800781 3.570312 -5.050781 3.09375 -5.28125 C 2.613281 -5.519531 2.191406 -5.867188 1.828125 -6.328125 C 1.472656 -6.785156 1.296875 -7.378906 1.296875 -8.109375 C 1.296875 -8.828125 1.5 -9.445312 1.90625 -9.96875 C 2.320312 -10.488281 2.867188 -10.882812 3.546875 -11.15625 C 4.234375 -11.4375 4.972656 -11.578125 5.765625 -11.578125 C 6.617188 -11.578125 7.359375 -11.421875 7.984375 -11.109375 C 8.609375 -10.796875 9.082031 -10.378906 9.40625 -9.859375 C 9.726562 -9.335938 9.890625 -8.78125 9.890625 -8.1875 C 9.890625 -7.789062 9.773438 -7.488281 9.546875 -7.28125 C 9.328125 -7.082031 8.960938 -6.984375 8.453125 -6.984375 C 7.992188 -6.984375 7.679688 -7.054688 7.515625 -7.203125 C 7.347656 -7.347656 7.242188 -7.550781 7.203125 -7.8125 C 7.160156 -8.175781 7.046875 -8.46875 6.859375 -8.6875 C 6.671875 -8.914062 6.304688 -9.03125 5.765625 -9.03125 C 5.359375 -9.03125 5.039062 -8.957031 4.8125 -8.8125 C 4.582031 -8.664062 4.46875 -8.457031 4.46875 -8.1875 C 4.46875 -7.863281 4.625 -7.613281 4.9375 -7.4375 C 5.257812 -7.257812 5.769531 -7.070312 6.46875 -6.875 C 7.21875 -6.632812 7.832031 -6.398438 8.3125 -6.171875 C 8.800781 -5.941406 9.222656 -5.601562 9.578125 -5.15625 C 9.929688 -4.707031 10.109375 -4.117188 10.109375 -3.390625 C 10.109375 -2.554688 9.875 -1.863281 9.40625 -1.3125 C 8.9375 -0.769531 8.347656 -0.378906 7.640625 -0.140625 C 6.929688 0.0859375 6.226562 0.203125 5.53125 0.203125 Z M 5.53125 0.203125 "/></g></g></g><g fill="#ffec0f" fill-opacity="1"><g transform="translate(87.330208, 21.99109)"><g><path d="M 2.90625 0.171875 C 2.46875 0.171875 2.09375 0.0625 1.78125 -0.15625 C 1.476562 -0.375 1.328125 -0.644531 1.328125 -0.96875 L 1.328125 -15.015625 C 1.328125 -15.410156 1.472656 -15.722656 1.765625 -15.953125 C 2.054688 -16.191406 2.429688 -16.3125 2.890625 -16.3125 C 3.359375 -16.3125 3.738281 -16.191406 4.03125 -15.953125 C 4.332031 -15.722656 4.484375 -15.410156 4.484375 -15.015625 L 4.453125 -8.84375 L 5.75 -9.6875 C 7.1875 -10.59375 8.234375 -11.242188 8.890625 -11.640625 C 9.210938 -11.835938 9.546875 -11.910156 9.890625 -11.859375 C 10.179688 -11.816406 10.4375 -11.644531 10.65625 -11.34375 C 10.875 -11.039062 10.984375 -10.722656 10.984375 -10.390625 C 10.984375 -10.160156 10.925781 -9.976562 10.8125 -9.84375 C 10.695312 -9.707031 10.5 -9.550781 10.21875 -9.375 L 5.109375 -6.234375 L 10.40625 -2.171875 C 10.65625 -1.984375 10.78125 -1.703125 10.78125 -1.328125 C 10.78125 -0.941406 10.632812 -0.625 10.34375 -0.375 C 10.0625 -0.125 9.734375 0 9.359375 0 C 8.992188 0 8.625 -0.128906 8.25 -0.390625 C 7.738281 -0.773438 7.015625 -1.382812 6.078125 -2.21875 C 5.078125 -3.082031 4.535156 -3.550781 4.453125 -3.625 L 4.453125 -0.984375 C 4.453125 -0.648438 4.300781 -0.375 4 -0.15625 C 3.707031 0.0625 3.34375 0.171875 2.90625 0.171875 Z M 2.90625 0.171875 "/></g></g></g><g fill="#0b0e22" fill-opacity="1"><g transform="translate(54.43223, 31.288738)"><g><path d="M 3.59375 -1.75 C 3.59375 -1.175781 3.445312 -0.726562 3.15625 -0.40625 C 2.863281 -0.09375 2.46875 0.0625 1.96875 0.0625 C 1.65625 0.0625 1.378906 -0.00390625 1.140625 -0.140625 C 0.898438 -0.285156 0.707031 -0.492188 0.5625 -0.765625 C 0.425781 -1.035156 0.359375 -1.363281 0.359375 -1.75 C 0.359375 -2.332031 0.503906 -2.78125 0.796875 -3.09375 C 1.085938 -3.40625 1.484375 -3.5625 1.984375 -3.5625 C 2.296875 -3.5625 2.570312 -3.488281 2.8125 -3.34375 C 3.0625 -3.207031 3.253906 -3.003906 3.390625 -2.734375 C 3.523438 -2.472656 3.59375 -2.144531 3.59375 -1.75 Z M 0.953125 -1.75 C 0.953125 -1.34375 1.03125 -1.015625 1.1875 -0.765625 C 1.351562 -0.523438 1.617188 -0.40625 1.984375 -0.40625 C 2.335938 -0.40625 2.59375 -0.523438 2.75 -0.765625 C 2.914062 -1.015625 3 -1.34375 3 -1.75 C 3 -2.164062 2.914062 -2.488281 2.75 -2.71875 C 2.59375 -2.957031 2.332031 -3.078125 1.96875 -3.078125 C 1.613281 -3.078125 1.351562 -2.957031 1.1875 -2.71875 C 1.03125 -2.488281 0.953125 -2.164062 0.953125 -1.75 Z M 0.953125 -1.75 "/></g></g></g><g fill="#0b0e22" fill-opacity="1"><g transform="translate(59.726324, 31.288738)"><g><path d="M 0 -3.5 L 0.625 -3.5 L 1.375 -1.515625 C 1.4375 -1.328125 1.492188 -1.15625 1.546875 -1 C 1.597656 -0.84375 1.640625 -0.695312 1.671875 -0.5625 L 1.703125 -0.5625 C 1.722656 -0.664062 1.757812 -0.804688 1.8125 -0.984375 C 1.875 -1.160156 1.9375 -1.335938 2 -1.515625 L 2.703125 -3.5 L 3.328125 -3.5 L 1.828125 0.484375 C 1.691406 0.816406 1.53125 1.078125 1.34375 1.265625 C 1.15625 1.460938 0.890625 1.5625 0.546875 1.5625 C 0.441406 1.5625 0.347656 1.554688 0.265625 1.546875 C 0.191406 1.535156 0.128906 1.523438 0.078125 1.515625 L 0.078125 1.0625 C 0.117188 1.070312 0.171875 1.078125 0.234375 1.078125 C 0.304688 1.085938 0.378906 1.09375 0.453125 1.09375 C 0.648438 1.09375 0.8125 1.035156 0.9375 0.921875 C 1.0625 0.804688 1.160156 0.660156 1.234375 0.484375 L 1.421875 0.015625 Z M 0 -3.5 "/></g></g></g><g fill="#0b0e22" fill-opacity="1"><g transform="translate(64.399588, 31.288738)"><g><path d="M 3.484375 -3.5 L 3.484375 0 L 3.015625 0 L 2.921875 -0.46875 L 2.90625 -0.46875 C 2.789062 -0.28125 2.628906 -0.144531 2.421875 -0.0625 C 2.222656 0.0195312 2.015625 0.0625 1.796875 0.0625 C 1.367188 0.0625 1.046875 -0.0351562 0.828125 -0.234375 C 0.617188 -0.441406 0.515625 -0.765625 0.515625 -1.203125 L 0.515625 -3.5 L 1.09375 -3.5 L 1.09375 -1.25 C 1.09375 -0.6875 1.351562 -0.40625 1.875 -0.40625 C 2.257812 -0.40625 2.523438 -0.515625 2.671875 -0.734375 C 2.828125 -0.953125 2.90625 -1.265625 2.90625 -1.671875 L 2.90625 -3.5 Z M 3.484375 -3.5 "/></g></g></g><g fill="#0b0e22" fill-opacity="1"><g transform="translate(69.778638, 31.288738)"><g><path d="M 2.234375 -3.5625 C 2.660156 -3.5625 2.976562 -3.457031 3.1875 -3.25 C 3.394531 -3.050781 3.5 -2.726562 3.5 -2.28125 L 3.5 0 L 2.9375 0 L 2.9375 -2.234375 C 2.9375 -2.796875 2.675781 -3.078125 2.15625 -3.078125 C 1.769531 -3.078125 1.5 -2.96875 1.34375 -2.75 C 1.195312 -2.53125 1.125 -2.21875 1.125 -1.8125 L 1.125 0 L 0.5625 0 L 0.5625 -3.5 L 1.015625 -3.5 L 1.109375 -3.03125 L 1.140625 -3.03125 C 1.253906 -3.207031 1.410156 -3.335938 1.609375 -3.421875 C 1.804688 -3.515625 2.015625 -3.5625 2.234375 -3.5625 Z M 2.234375 -3.5625 "/></g></g></g><g fill="#0b0e22" fill-opacity="1"><g transform="translate(75.157686, 31.288738)"><g><path d="M 1.953125 0.0625 C 1.640625 0.0625 1.363281 0 1.125 -0.125 C 0.882812 -0.25 0.695312 -0.441406 0.5625 -0.703125 C 0.425781 -0.972656 0.359375 -1.316406 0.359375 -1.734375 C 0.359375 -2.160156 0.425781 -2.507812 0.5625 -2.78125 C 0.707031 -3.050781 0.90625 -3.25 1.15625 -3.375 C 1.40625 -3.5 1.6875 -3.5625 2 -3.5625 C 2.175781 -3.5625 2.347656 -3.539062 2.515625 -3.5 C 2.679688 -3.46875 2.816406 -3.425781 2.921875 -3.375 L 2.75 -2.90625 C 2.644531 -2.9375 2.519531 -2.96875 2.375 -3 C 2.238281 -3.039062 2.109375 -3.0625 1.984375 -3.0625 C 1.296875 -3.0625 0.953125 -2.617188 0.953125 -1.734375 C 0.953125 -1.316406 1.035156 -0.992188 1.203125 -0.765625 C 1.367188 -0.546875 1.617188 -0.4375 1.953125 -0.4375 C 2.140625 -0.4375 2.304688 -0.453125 2.453125 -0.484375 C 2.597656 -0.523438 2.734375 -0.578125 2.859375 -0.640625 L 2.859375 -0.125 C 2.742188 -0.0625 2.613281 -0.015625 2.46875 0.015625 C 2.332031 0.046875 2.160156 0.0625 1.953125 0.0625 Z M 1.953125 0.0625 "/></g></g></g><g fill="#0b0e22" fill-opacity="1"><g transform="translate(79.6349, 31.288738)"><g><path d="M 1.875 -3.5625 C 2.300781 -3.5625 2.617188 -3.46875 2.828125 -3.28125 C 3.035156 -3.09375 3.140625 -2.796875 3.140625 -2.390625 L 3.140625 0 L 2.71875 0 L 2.609375 -0.5 L 2.578125 -0.5 C 2.421875 -0.300781 2.257812 -0.15625 2.09375 -0.0625 C 1.925781 0.0195312 1.695312 0.0625 1.40625 0.0625 C 1.082031 0.0625 0.816406 -0.0195312 0.609375 -0.1875 C 0.398438 -0.351562 0.296875 -0.613281 0.296875 -0.96875 C 0.296875 -1.320312 0.429688 -1.59375 0.703125 -1.78125 C 0.984375 -1.96875 1.410156 -2.070312 1.984375 -2.09375 L 2.578125 -2.109375 L 2.578125 -2.3125 C 2.578125 -2.601562 2.507812 -2.804688 2.375 -2.921875 C 2.25 -3.035156 2.070312 -3.09375 1.84375 -3.09375 C 1.664062 -3.09375 1.492188 -3.066406 1.328125 -3.015625 C 1.160156 -2.960938 1.003906 -2.898438 0.859375 -2.828125 L 0.6875 -3.265625 C 0.84375 -3.347656 1.023438 -3.414062 1.234375 -3.46875 C 1.441406 -3.53125 1.65625 -3.5625 1.875 -3.5625 Z M 2.5625 -1.71875 L 2.046875 -1.6875 C 1.609375 -1.675781 1.304688 -1.609375 1.140625 -1.484375 C 0.972656 -1.359375 0.890625 -1.1875 0.890625 -0.96875 C 0.890625 -0.769531 0.945312 -0.625 1.0625 -0.53125 C 1.1875 -0.4375 1.34375 -0.390625 1.53125 -0.390625 C 1.820312 -0.390625 2.066406 -0.472656 2.265625 -0.640625 C 2.460938 -0.804688 2.5625 -1.054688 2.5625 -1.390625 Z M 2.5625 -1.71875 "/></g></g></g><g fill="#0b0e22" fill-opacity="1"><g transform="translate(84.64145, 31.288738)"><g><path d="M 1.125 -4.96875 L 1.125 -2.375 C 1.125 -2.300781 1.117188 -2.207031 1.109375 -2.09375 C 1.109375 -1.976562 1.101562 -1.878906 1.09375 -1.796875 L 1.125 -1.796875 C 1.144531 -1.835938 1.179688 -1.890625 1.234375 -1.953125 C 1.285156 -2.015625 1.335938 -2.078125 1.390625 -2.140625 C 1.453125 -2.210938 1.503906 -2.269531 1.546875 -2.3125 L 2.65625 -3.5 L 3.328125 -3.5 L 1.90625 -2 L 3.421875 0 L 2.734375 0 L 1.515625 -1.625 L 1.125 -1.28125 L 1.125 0 L 0.5625 0 L 0.5625 -4.96875 Z M 1.125 -4.96875 "/></g></g></g><g clip-path="url(#b7e0ef29dc)"><g clip-path="url(#23d3eb4fca)"><g clip-path="url(#57e355e198)"><path fill="#4153c8" d="M 95.992188 33.183594 C 96.535156 34.222656 98.109375 34.664062 98.898438 34.324219 C 100.167969 33.78125 100.429688 32.699219 100.058594 31.8125 C 99.378906 30.191406 96.058594 29.285156 93.453125 29.429688 C 95.570312 30.820312 94.578125 30.78125 95.992188 33.183594 " fill-opacity="1" fill-rule="nonzero"/></g></g></g><g clip-path="url(#43e1a41f34)"><g clip-path="url(#6300022904)"><g clip-path="url(#5cb6ae7179)"><path fill="#4153c8" d="M 94.53125 27.757812 C 95.734375 27.40625 96.484375 28.835938 98.386719 28.601562 C 99.90625 28.261719 100.414062 25.921875 98.550781 25.65625 C 97.4375 25.5 95.164062 27.132812 94.53125 27.757812 " fill-opacity="1" fill-rule="nonzero"/></g></g></g><g clip-path="url(#3b9c8d2707)"><g clip-path="url(#0c1b6f4406)"><g clip-path="url(#e4a975a302)"><path fill="#4153c8" d="M 92.148438 33.65625 C 91.800781 34.375 91.40625 35.273438 91.765625 35.976562 C 92.035156 36.5 92.582031 36.667969 93.21875 36.355469 C 94.902344 35.535156 94.980469 33.71875 94.289062 32.527344 C 94.066406 32.140625 93.46875 31.304688 92.773438 31.046875 C 93.277344 31.664062 92.425781 33.089844 92.148438 33.65625 " fill-opacity="1" fill-rule="nonzero"/></g></g></g><g fill="#4153c8" fill-opacity="1"><g transform="translate(100.663015, 21.99109)"><g><path d="M 6.734375 0.0625 C 4.867188 0.0625 3.390625 -0.421875 2.296875 -1.390625 C 1.203125 -2.367188 0.65625 -3.738281 0.65625 -5.5 C 0.65625 -6.644531 0.894531 -7.664062 1.375 -8.5625 C 1.863281 -9.457031 2.550781 -10.15625 3.4375 -10.65625 C 4.332031 -11.15625 5.378906 -11.40625 6.578125 -11.40625 C 7.796875 -11.40625 8.867188 -11.144531 9.796875 -10.625 C 10.722656 -10.113281 11.4375 -9.398438 11.9375 -8.484375 C 12.445312 -7.566406 12.703125 -6.519531 12.703125 -5.34375 C 12.703125 -3.632812 12.164062 -2.304688 11.09375 -1.359375 C 10.019531 -0.410156 8.566406 0.0625 6.734375 0.0625 Z M 6.6875 -2.375 C 7.582031 -2.375 8.273438 -2.625 8.765625 -3.125 C 9.265625 -3.632812 9.515625 -4.390625 9.515625 -5.390625 C 9.515625 -6.378906 9.273438 -7.21875 8.796875 -7.90625 C 8.316406 -8.601562 7.613281 -8.953125 6.6875 -8.953125 C 5.820312 -8.953125 5.132812 -8.632812 4.625 -8 C 4.113281 -7.375 3.859375 -6.535156 3.859375 -5.484375 C 3.859375 -4.453125 4.101562 -3.675781 4.59375 -3.15625 C 5.09375 -2.632812 5.789062 -2.375 6.6875 -2.375 Z M 6.6875 -2.375 "/></g></g></g></svg>