<svg xmlns="http://www.w3.org/2000/svg" xmlns:xlink="http://www.w3.org/1999/xlink" width="400" zoomAndPan="magnify" viewBox="0 0 300 74.999997" height="100" preserveAspectRatio="xMidYMid meet" version="1.0"><defs><g/><clipPath id="99cd510b64"><path d="M 47 20.183594 L 71 20.183594 L 71 56.472656 L 47 56.472656 Z M 47 20.183594 " clip-rule="nonzero"/></clipPath><clipPath id="abbb0d4194"><path d="M 6 1 L 16 1 L 16 10.238281 L 6 10.238281 Z M 6 1 " clip-rule="nonzero"/></clipPath><clipPath id="82110fd016"><rect x="0" width="23" y="0" height="11"/></clipPath><clipPath id="ae2844ad69"><path d="M 2 18 L 104.160156 18 L 104.160156 75 L 2 75 Z M 2 18 " clip-rule="nonzero"/></clipPath><clipPath id="d247c1dc35"><rect x="0" width="103" y="0" height="57"/></clipPath><clipPath id="ff09daa83f"><path d="M 0.238281 0 L 30 0 L 30 62 L 0.238281 62 Z M 0.238281 0 " clip-rule="nonzero"/></clipPath><clipPath id="71fa098a8e"><rect x="0" width="30" y="0" height="62"/></clipPath><clipPath id="a28b7de76c"><path d="M 3 12 L 25.601562 12 L 25.601562 43 L 3 43 Z M 3 12 " clip-rule="nonzero"/></clipPath><clipPath id="d6cc487c36"><rect x="0" width="26" y="0" height="57"/></clipPath><clipPath id="3521af45b1"><rect x="0" width="105" y="0" height="75"/></clipPath></defs><g transform="matrix(1, 0, 0, 1, 96, -0.000000000000001893)"><g clip-path="url(#3521af45b1)"><g clip-path="url(#99cd510b64)"><path fill="#e6164b" d="M 59.335938 20.191406 C 59.230469 20.1875 59.121094 20.1875 59.011719 20.1875 C 58.90625 20.1875 58.796875 20.1875 58.691406 20.191406 C 50.179688 20.40625 44.921875 29.601562 48.878906 37.140625 L 51.921875 42.9375 L 59.011719 56.457031 L 61.507812 51.703125 C 60.488281 49.804688 59.464844 47.910156 58.445312 46.015625 C 56.882812 43.121094 55.324219 40.226562 53.765625 37.335938 C 52.972656 35.863281 52.214844 34.367188 52.007812 32.683594 C 51.511719 28.628906 54.96875 25.019531 58.984375 25.003906 C 62.925781 24.988281 66.121094 28.175781 66.121094 32.109375 C 66.121094 36.035156 62.9375 39.21875 59.011719 39.21875 C 58.882812 39.21875 58.753906 39.214844 58.625 39.207031 L 63.355469 48.179688 L 66.105469 42.9375 L 69.148438 37.140625 C 73.105469 29.601562 67.84375 20.40625 59.332031 20.191406 " fill-opacity="1" fill-rule="nonzero"/></g><g transform="matrix(1, 0, 0, 1, 48, 26)"><g clip-path="url(#82110fd016)"><g clip-path="url(#abbb0d4194)"><g fill="#e6164b" fill-opacity="1"><g transform="translate(6.597999, 0.757653)"><g><path d="M -0.125 4.875 C -0.125 4.03125 0.0507812 3.269531 0.40625 2.59375 C 0.769531 1.925781 1.285156 1.398438 1.953125 1.015625 C 2.617188 0.628906 3.398438 0.4375 4.296875 0.4375 C 5.179688 0.4375 5.957031 0.628906 6.625 1.015625 C 7.300781 1.410156 7.816406 1.945312 8.171875 2.625 C 8.535156 3.300781 8.71875 4.0625 8.71875 4.90625 C 8.71875 5.738281 8.535156 6.492188 8.171875 7.171875 C 7.816406 7.859375 7.300781 8.394531 6.625 8.78125 C 5.957031 9.164062 5.179688 9.359375 4.296875 9.359375 C 3.410156 9.359375 2.628906 9.160156 1.953125 8.765625 C 1.285156 8.378906 0.769531 7.84375 0.40625 7.15625 C 0.0507812 6.46875 -0.125 5.707031 -0.125 4.875 Z M 2.15625 4.875 C 2.15625 5.375 2.335938 5.800781 2.703125 6.15625 C 3.078125 6.507812 3.609375 6.6875 4.296875 6.6875 C 4.984375 6.6875 5.507812 6.515625 5.875 6.171875 C 6.25 5.828125 6.4375 5.40625 6.4375 4.90625 C 6.4375 4.382812 6.253906 3.953125 5.890625 3.609375 C 5.523438 3.273438 4.992188 3.109375 4.296875 3.109375 C 3.609375 3.109375 3.078125 3.273438 2.703125 3.609375 C 2.335938 3.941406 2.15625 4.363281 2.15625 4.875 Z M 2.15625 4.875 "/></g></g></g></g></g></g><g clip-path="url(#ae2844ad69)"><g transform="matrix(1, 0, 0, 1, 2, 18)"><g clip-path="url(#d247c1dc35)"><g fill="#2b2e34" fill-opacity="1"><g transform="translate(0.620459, 55.054315)"><g><path d="M 19.6875 -29.4375 C 23.144531 -29.4375 25.9375 -28.34375 28.0625 -26.15625 C 30.195312 -23.976562 31.265625 -20.929688 31.265625 -17.015625 L 31.265625 0 L 23.9375 0 L 23.9375 -16.03125 C 23.9375 -18.332031 23.359375 -20.101562 22.203125 -21.34375 C 21.054688 -22.582031 19.488281 -23.203125 17.5 -23.203125 C 15.46875 -23.203125 13.867188 -22.582031 12.703125 -21.34375 C 11.535156 -20.101562 10.953125 -18.332031 10.953125 -16.03125 L 10.953125 0 L 3.609375 0 L 3.609375 -29.015625 L 10.953125 -29.015625 L 10.953125 -25.40625 C 11.921875 -26.65625 13.164062 -27.640625 14.6875 -28.359375 C 16.207031 -29.078125 17.875 -29.4375 19.6875 -29.4375 Z M 19.6875 -29.4375 "/></g></g></g><g fill="#e6164b" fill-opacity="1"><g transform="translate(30.839798, 55.054315)"><g><path d="M 30.21875 -15.453125 C 30.21875 -14.546875 30.164062 -13.582031 30.0625 -12.5625 L 7.125 -12.5625 C 7.300781 -9.738281 8.269531 -7.53125 10.03125 -5.9375 C 11.789062 -4.351562 13.929688 -3.5625 16.453125 -3.5625 C 18.503906 -3.5625 20.21875 -4.039062 21.59375 -5 C 22.976562 -5.957031 23.953125 -7.238281 24.515625 -8.84375 L 29.640625 -8.84375 C 28.867188 -6.09375 27.332031 -3.851562 25.03125 -2.125 C 22.726562 -0.394531 19.867188 0.46875 16.453125 0.46875 C 13.722656 0.46875 11.285156 -0.140625 9.140625 -1.359375 C 6.992188 -2.578125 5.304688 -4.3125 4.078125 -6.5625 C 2.859375 -8.820312 2.25 -11.4375 2.25 -14.40625 C 2.25 -17.375 2.84375 -19.972656 4.03125 -22.203125 C 5.21875 -24.441406 6.882812 -26.160156 9.03125 -27.359375 C 11.175781 -28.566406 13.648438 -29.171875 16.453125 -29.171875 C 19.171875 -29.171875 21.578125 -28.578125 23.671875 -27.390625 C 25.765625 -26.203125 27.378906 -24.566406 28.515625 -22.484375 C 29.648438 -20.410156 30.21875 -18.066406 30.21875 -15.453125 Z M 25.296875 -16.453125 C 25.296875 -18.265625 24.894531 -19.820312 24.09375 -21.125 C 23.289062 -22.4375 22.195312 -23.429688 20.8125 -24.109375 C 19.4375 -24.796875 17.910156 -25.140625 16.234375 -25.140625 C 13.828125 -25.140625 11.773438 -24.367188 10.078125 -22.828125 C 8.390625 -21.296875 7.421875 -19.171875 7.171875 -16.453125 Z M 25.296875 -16.453125 "/></g></g></g><g fill="#2b2e34" fill-opacity="1"><g transform="translate(58.911581, 55.054315)"><g><path d="M 14.71875 0.46875 C 12.34375 0.46875 10.210938 0.0390625 8.328125 -0.8125 C 6.441406 -1.664062 4.945312 -2.828125 3.84375 -4.296875 C 2.75 -5.765625 2.148438 -7.390625 2.046875 -9.171875 L 9.421875 -9.171875 C 9.566406 -8.046875 10.117188 -7.117188 11.078125 -6.390625 C 12.035156 -5.660156 13.234375 -5.296875 14.671875 -5.296875 C 16.066406 -5.296875 17.15625 -5.570312 17.9375 -6.125 C 18.71875 -6.6875 19.109375 -7.40625 19.109375 -8.28125 C 19.109375 -9.21875 18.628906 -9.921875 17.671875 -10.390625 C 16.710938 -10.867188 15.1875 -11.382812 13.09375 -11.9375 C 10.925781 -12.46875 9.148438 -13.007812 7.765625 -13.5625 C 6.390625 -14.125 5.203125 -14.976562 4.203125 -16.125 C 3.210938 -17.28125 2.71875 -18.835938 2.71875 -20.796875 C 2.71875 -22.398438 3.179688 -23.863281 4.109375 -25.1875 C 5.035156 -26.519531 6.363281 -27.566406 8.09375 -28.328125 C 9.820312 -29.097656 11.851562 -29.484375 14.1875 -29.484375 C 17.644531 -29.484375 20.40625 -28.617188 22.46875 -26.890625 C 24.53125 -25.160156 25.664062 -22.832031 25.875 -19.90625 L 18.859375 -19.90625 C 18.753906 -21.050781 18.269531 -21.960938 17.40625 -22.640625 C 16.550781 -23.328125 15.410156 -23.671875 13.984375 -23.671875 C 12.660156 -23.671875 11.640625 -23.425781 10.921875 -22.9375 C 10.203125 -22.445312 9.84375 -21.765625 9.84375 -20.890625 C 9.84375 -19.921875 10.332031 -19.179688 11.3125 -18.671875 C 12.289062 -18.160156 13.8125 -17.644531 15.875 -17.125 C 17.96875 -16.601562 19.691406 -16.0625 21.046875 -15.5 C 22.410156 -14.945312 23.585938 -14.082031 24.578125 -12.90625 C 25.578125 -11.738281 26.097656 -10.195312 26.140625 -8.28125 C 26.140625 -6.601562 25.675781 -5.097656 24.75 -3.765625 C 23.820312 -2.441406 22.492188 -1.40625 20.765625 -0.65625 C 19.035156 0.09375 17.019531 0.46875 14.71875 0.46875 Z M 14.71875 0.46875 "/></g></g></g><g fill="#2b2e34" fill-opacity="1"><g transform="translate(83.055039, 55.054315)"><g><path d="M 12.15625 -23 L 12.15625 -8.953125 C 12.15625 -7.972656 12.390625 -7.265625 12.859375 -6.828125 C 13.328125 -6.398438 14.117188 -6.1875 15.234375 -6.1875 L 18.640625 -6.1875 L 18.640625 0 L 14.03125 0 C 7.851562 0 4.765625 -3.003906 4.765625 -9.015625 L 4.765625 -23 L 1.3125 -23 L 1.3125 -29.015625 L 4.765625 -29.015625 L 4.765625 -36.1875 L 12.15625 -36.1875 L 12.15625 -29.015625 L 18.640625 -29.015625 L 18.640625 -23 Z M 12.15625 -23 "/></g></g></g></g></g></g><g clip-path="url(#ff09daa83f)"><g transform="matrix(1, 0, 0, 1, 0, -0.000000000000001893)"><g clip-path="url(#71fa098a8e)"><g fill="#2b2e34" fill-opacity="1"><g transform="translate(0.391791, 43.130692)"><g><path d="M 12.3125 -23.296875 L 12.3125 -9.078125 C 12.3125 -8.085938 12.550781 -7.367188 13.03125 -6.921875 C 13.507812 -6.484375 14.3125 -6.265625 15.4375 -6.265625 L 18.890625 -6.265625 L 18.890625 0 L 14.21875 0 C 7.957031 0 4.828125 -3.039062 4.828125 -9.125 L 4.828125 -23.296875 L 1.328125 -23.296875 L 1.328125 -29.390625 L 4.828125 -29.390625 L 4.828125 -36.671875 L 12.3125 -36.671875 L 12.3125 -29.390625 L 18.890625 -29.390625 L 18.890625 -23.296875 Z M 12.3125 -23.296875 "/></g></g></g><g fill="#2b2e34" fill-opacity="1"><g transform="translate(16.733629, 43.130692)"><g><path d="M 7.421875 -32.90625 C 6.117188 -32.90625 5.03125 -33.316406 4.15625 -34.140625 C 3.289062 -34.972656 2.859375 -36.007812 2.859375 -37.25 C 2.859375 -38.488281 3.289062 -39.519531 4.15625 -40.34375 C 5.03125 -41.175781 6.117188 -41.59375 7.421875 -41.59375 C 8.734375 -41.59375 9.820312 -41.175781 10.6875 -40.34375 C 11.550781 -39.519531 11.984375 -38.488281 11.984375 -37.25 C 11.984375 -36.007812 11.550781 -34.972656 10.6875 -34.140625 C 9.820312 -33.316406 8.734375 -32.90625 7.421875 -32.90625 Z M 11.09375 -29.390625 L 11.09375 0 L 3.65625 0 L 3.65625 -29.390625 Z M 11.09375 -29.390625 "/></g></g></g></g></g></g><g transform="matrix(1, 0, 0, 1, 26, 1)"><g clip-path="url(#d6cc487c36)"><g clip-path="url(#a28b7de76c)"><g fill="#2b2e34" fill-opacity="1"><g transform="translate(0.854962, 42.099889)"><g><path d="M 15.9375 0 L 9.203125 -9.25 L 9.203125 0 L 2.453125 0 L 2.453125 -29.25 L 9.203125 -29.25 L 9.203125 -13.078125 L 15.890625 -22.0625 L 24.234375 -22.0625 L 15.0625 -10.984375 L 24.3125 0 Z M 15.9375 0 "/></g></g></g></g></g></g></g></g></svg>