<svg xmlns="http://www.w3.org/2000/svg" viewBox="0 0 409.39 301.85"><defs><style>.cls-1{fill:#9484a6;}</style></defs><g id="Layer_2" data-name="Layer 2"><g id="Camada_1" data-name="Camada 1"><path class="cls-1" d="M357,93.46c-4.33,5.1-8,9.59-11.84,13.86a29.13,29.13,0,0,1-6.05,5c-.8.5-2.59,0-3.52-.58-.46-.31-.42-2.33.12-3,6.83-8.5,13.64-17,20.81-25.23,2.42-2.77,6.1-2.32,8.5.26,6.21,6.65,12.31,13.43,18,20.52,2.37,3-.85,8-4.92,7.2a23,23,0,0,1-10.66-5.29C363.62,102.84,360.86,98.35,357,93.46Z"/><path class="cls-1" d="M409,150.69c-2-3-4-1.33-5.93,1.16-13.16,16.89-29.1,31-45.53,44.52-2.61,2.15-5.85,3.56-9.26,5.23a2.41,2.41,0,0,1-3.38-1.56,4.87,4.87,0,0,1-.25-1.71q1.13-13,2.48-26.06c.7-6.84,3.66-11.24,11.41-11.57,7.3-.31,10.92-5.5,10.68-12-.28-7.3-2.09-14.61-3.91-21.74-.41-1.61-3.68-3.63-5.51-3.51-5.22.33-10.92.4-14.68,5-9.74,11.89-17.88,24.65-21,40-1.82,8.86-4.64,17.28-10.49,24.45-6,7.33-11.51,15-17.86,22-5.6,6.16-9.92,5.09-11.48-3.05A110.48,110.48,0,0,1,282,186.75a186.71,186.71,0,0,1,12-57.65c1.23-3.32,4.39-6,6.8-8.8,3.93-4.62,8.75-8.67,11.83-13.78,8.07-13.43,10.87-28.73,14-43.81.43-2.07,0-4.3.22-6.43.63-7.09-6.51-12.18-13.79-9.54A34.72,34.72,0,0,0,301.48,54c-11,10.46-16.12,24.54-21.77,38.06-3.56,8.5-5.7,17.66-7.89,26.66-3.4,14-6.25,28.09-9.49,42.11a15.58,15.58,0,0,1-2.85,6.63c-8.15,9.43-16.43,18.75-24.93,27.87-4.75,5.09-9.9,9.82-15.08,14.48a6.45,6.45,0,0,1-2.79,1.21,2.42,2.42,0,0,1-2.87-1.57,9.88,9.88,0,0,1-.6-2.83,83.25,83.25,0,0,1,5-29.72c7.23-20.75,16.22-40.65,28.37-59,1.71-2.59,2.82-5.21,0-7.46s-5-5.1-9.88-2.61c-9.57,4.88-14.8,13.43-19.63,22-7.63,13.51-16.12,26.29-26.45,37.87-1,1.13-2,2.23-3.21,3.46a2.4,2.4,0,0,1-4.07-2.26v0c3.27-10.06,6.83-20,10.11-30.09a69.68,69.68,0,0,0,3.29-12.91c.55-4.51-5.22-10.87-10.28-12-5.55-1.25-6.26,3.72-7.57,6.81-5.05,11.89-9.59,24-14.39,36a9.52,9.52,0,0,1-2.45,4c-3.12,2.43-6.49,4.55-9.83,6.69s-6.79,4.3-10.45,6.59a2.4,2.4,0,0,1-3.66-1.83,20.86,20.86,0,0,0-1.14-6.29c-1.24-3-3.18-6.71-5.81-7.88-3.74-1.66-7.11.52-10,4.17-10.32,13-23.38,22.05-39.9,25.51-6.21,1.3-9.36-.21-12.08-5.87-3.63-7.53-3.72-15.82-1.89-23.44,4.44-18.55,10.77-36.41,23.28-51.52C99,96.5,108.45,87.56,120.21,81.23c6.35-3.42,15.14-2.63,18.51,1.68,5.36,6.84,4.92,14.88-1.25,21-6.58,6.56-14.69,5.54-22.84,4.56h-.06a3.21,3.21,0,0,0-2.79,5.14,8.68,8.68,0,0,0,4.06,2.44c14.18,4.36,26.65-.81,33.65-13.91C154.94,92,148.9,76,138.16,72.71c-17.06-5.28-33.22-1.32-48,6.86C70.58,90.38,56.65,106.8,47.26,127.14c-6.87,14.87-11.55,30-8.74,46.61,4.71,27.74,21.93,36.91,43.76,31.51,7.41-1.83,14.5-5,22-8.11a2.39,2.39,0,0,1,2.85,3.64c-.52.71-1.07,1.41-1.64,2.08-1.58,1.86-3.88,3.1-5.69,4.79-11.62,10.9-23.3,21.72-34.73,32.8-9.82,9.51-20.52,18.22-27.2,30.6-5.43,10.06-3.07,20.84,6.45,26.62,0,0,7.79,6,25.51,3.63,0,0,6.65-.94,18.91-8.12l7.64-4.78a80.23,80.23,0,0,0,26.92-29.57,119.27,119.27,0,0,0,13.29-44.93c.82-8.07,1.31-16.18,2-24.26a4.08,4.08,0,0,1,1-2.65c6.67-5.21,13.42-10.32,20.51-15.72a1.58,1.58,0,0,1,2.54,1.18c.38,9.14,3.76,14.26,10.88,16.49s12.18.17,17.76-6.94c.77-1,1.56-1.94,2.34-2.87a2.39,2.39,0,0,1,4.22,1.71c-.7,9.59-1.45,19.17-1.85,28.77-.35,8.17,3.48,11.88,11.67,12.21a26.59,26.59,0,0,0,20.78-8c4.79-4.84,9.38-9.89,14-14.92,4.72-5.19,9.38-10.42,14.49-16.15a2.4,2.4,0,0,1,4.19,1.61c0,1.82,0,3.49.05,5.16.37,12.62.6,25.27,7.55,36.55a12.74,12.74,0,0,0,15.83,5.37,50.59,50.59,0,0,0,20-15c4.08-5.13,8.44-10.05,13.09-15.42a2.39,2.39,0,0,1,4,.73c3.34,8.92,10.41,12,19.84,11.83,0,0,14.38-.28,27.64-13.7,8.59-8.18,16.3-17.29,24.15-26.21,5.15-5.85,10-12,14.93-18h0S410.17,152.87,409,150.69Zm-58.8,1.38a77.52,77.52,0,0,1,4.61-13.9v0a3.51,3.51,0,0,1,.22-.48v0s2.38-5.51,6.21-1.73l.32.44c.84,1.56,5.14,10.41-1.39,17.65a10,10,0,0,1-5.21,2.94,4.06,4.06,0,0,1-4.19-1.82,1.65,1.65,0,0,1-.3-.53A4.13,4.13,0,0,1,350.24,152.07ZM302.69,90.91l.13-.5c.52-2.92,5.59-30.3,12.13-34.7a2.69,2.69,0,0,1,2-.46s5.13-1.25,2.9,13a.86.86,0,0,0,0,.16c0,.48,0,3.39-2.51,14,0,0-8.61,30-16.42,27.75C300.93,110.17,296.19,110.17,302.69,90.91ZM61.77,287.33c-7.5,2.74-15.19-4.14-13.1-11.85.81-3,2.65-6.61,6-10.89,0,0,14.61-17.28,47.29-43.55a.81.81,0,0,1,1.31.79C101.1,232.27,90.1,277,61.77,287.33Z"/><ellipse class="cls-1" cx="60.26" cy="58.52" rx="19.95" ry="3.87" transform="translate(-11.88 15.48) rotate(-13.34)"/><path class="cls-1" d="M38.28,58c4.14-2.3,21.4-11.08,40.72-9.26a1.75,1.75,0,0,0,1.73-.94L92.62,24.06a1.75,1.75,0,0,0-1.72-2.52c-3.53.31-9.23,1.79-11.65,8a1.76,1.76,0,0,0-.11.85c.22,1.88.7,9.67-5.37,13.78a1.71,1.71,0,0,1-2.5-.68c-.75-1.59-1.19-4.6,1.39-9.58a1.77,1.77,0,0,1,.21-.32c1.07-1.3,9.2-11.81-.17-20.57a1.76,1.76,0,0,0-2-.29c-2.85,1.44-10.11,6-8.43,14.38l.07.25c.35,1,2.58,8-1.36,14.27a1.75,1.75,0,0,1-1.28.78c-1.44.16-4.05-.41-4-6.77a2.42,2.42,0,0,1,.07-.47c.62-2.21,5.32-20.38-6.64-23.13a1.76,1.76,0,0,0-1.69.5c-1.95,2.07-7,8.64-1.82,16.32a1.65,1.65,0,0,0,.33.37c1.12.94,6.95,6.21,6.1,13.64A1.78,1.78,0,0,1,51,44.29h0a1.74,1.74,0,0,1-1.51-.09c-1.88-1.08-6.56-4.85-8.17-16.28a1.73,1.73,0,0,0-.6-1.09C39,25.4,33.35,21.19,27.9,23.25a1.69,1.69,0,0,0-.95,1C26,26.63,23.76,34.52,32,39.72c0,0,10.33,5.41,9.63,10.91a1.73,1.73,0,0,1-1.75,1.47c-2.22,0-6.73-.84-9.7-6.39a1.79,1.79,0,0,1-.13-.32C29.74,44.26,27.15,37.09,17,38a1.86,1.86,0,0,0-.34.06l-2.2.6a1.75,1.75,0,0,0-.55,3.1l22.54,16.1A1.74,1.74,0,0,0,38.28,58Z"/><circle class="cls-1" cx="4.97" cy="36.22" r="4.97"/><circle class="cls-1" cx="23.58" cy="16.4" r="4.97"/><circle class="cls-1" cx="47.15" cy="5.74" r="4.97"/><circle class="cls-1" cx="72.94" cy="4.97" r="4.97"/><circle class="cls-1" cx="97.29" cy="14.52" r="4.97"/><path class="cls-1" d="M164.32,239.12a82.63,82.63,0,0,1,12-.9c6.78,0,11.67,1.53,14.68,4.19a11.71,11.71,0,0,1,4.06,9.15,12.6,12.6,0,0,1-3.91,9.71c-3.46,3.35-9.26,5.1-16,5.1a26,26,0,0,1-7.22-.7v20.05h-3.69ZM168,262.67a28.08,28.08,0,0,0,7.68.84c10.08,0,15.73-4.27,15.73-11.53,0-8.1-6.93-10.9-15.13-10.9a48.23,48.23,0,0,0-8.28.63Z"/><path class="cls-1" d="M206,263c0-3.64-.08-7.2-.31-10.83H209l.15,7.26h.23c1.8-4.68,5.72-8.1,11.06-8.1a6.83,6.83,0,0,1,1.73.21v3.14a9.87,9.87,0,0,0-2.1-.14c-5,0-8.89,3.92-10.09,9.71a15,15,0,0,0-.38,3.29v18.16H206Z"/><path class="cls-1" d="M254.2,285.72l-.61-5.17h-.15a16.38,16.38,0,0,1-13.1,6c-8.2,0-11.51-5.17-11.51-9.22,0-7.62,7.6-12.58,24.46-12.37v-.76c0-2.52-.6-10.07-10.23-10A19.19,19.19,0,0,0,232.67,257l-1.21-2.45a23.12,23.12,0,0,1,11.9-3.21c12.27,0,13.62,8.8,13.62,14.11v12.16a49.08,49.08,0,0,0,.6,8.1Zm-.91-17.88c-9.56-.28-20.55,1.12-20.55,8.87,0,4.75,3.69,7.06,7.91,7.06,7,0,10.76-3.85,12.19-6.85a5.18,5.18,0,0,0,.45-2Z"/><path class="cls-1" d="M277.08,242.2v10h11.44v2.72H277.08v21.45c0,4.12,1.35,7.27,5.79,7.27a15.11,15.11,0,0,0,4.75-.63l.45,2.65a15.77,15.77,0,0,1-5.57.91c-2.86,0-5.2-.84-6.7-2.51-1.81-1.89-2.41-5-2.41-8.11v-21h-6.62v-2.72h6.62v-8.94Z"/><path class="cls-1" d="M321.57,285.72l-.61-5.17h-.15a16.37,16.37,0,0,1-13.09,6c-8.21,0-11.52-5.17-11.52-9.22,0-7.62,7.6-12.58,24.46-12.37v-.76c0-2.52-.6-10.07-10.23-10A19.19,19.19,0,0,0,300,257l-1.21-2.45a23.14,23.14,0,0,1,11.9-3.21c12.27,0,13.62,8.8,13.62,14.11v12.16a49.08,49.08,0,0,0,.6,8.1Zm-.91-17.88c-9.56-.28-20.55,1.12-20.55,8.87,0,4.75,3.69,7.06,7.91,7.06,7,0,10.76-3.85,12.19-6.85a5.18,5.18,0,0,0,.45-2Z"/><path class="cls-1" d="M337.75,281.18a18.51,18.51,0,0,0,9,2.52c6.33,0,9.11-3.08,9.11-6.5,0-3.91-2.86-5.8-8.51-7.48-6.54-2-9.78-5.1-9.78-9.08,0-4.75,4.06-9.29,11.89-9.29a16.63,16.63,0,0,1,8.73,2.24l-1.43,2.79a14.53,14.53,0,0,0-8-2.16c-5,0-7.6,2.79-7.6,6,0,3.77,3.09,5.24,8.43,6.92,6.63,2.1,9.86,4.75,9.86,9.78,0,5.45-4.81,9.64-13,9.64a21.58,21.58,0,0,1-10.09-2.44Z"/></g></g></svg>