<?xml version="1.0" ?>
<!-- Uploaded to: SVG Repo, www.svgrepo.com, Generator: SVG Repo Mixer Tools -->
<svg width="800px" height="800px" viewBox="0 0 96 96" version="1.1" xml:space="preserve" xmlns="http://www.w3.org/2000/svg" xmlns:xlink="http://www.w3.org/1999/xlink">
<style type="text/css">
	.st0{display:none;}
	.st1{fill:#FFFFFF;}
	.st2{fill:none;stroke:#000000;stroke-width:2;stroke-linecap:round;stroke-linejoin:round;stroke-miterlimit:10;}
	.st3{fill:#FFF8FA;}
	.st4{stroke:#000000;stroke-width:2;stroke-miterlimit:10;}
	.st5{fill:none;stroke:#000000;stroke-miterlimit:10;}
	.st6{fill:none;stroke:#000000;stroke-width:2;stroke-linecap:round;stroke-miterlimit:10;}
	.st7{fill:#231F20;stroke:#000000;stroke-width:0;stroke-miterlimit:10;}
	.st8{fill:#FF0D5C;}
	.st9{display:inline;}
	.st10{fill:none;stroke:#00D8E9;stroke-width:0.25;stroke-linecap:round;stroke-linejoin:round;stroke-miterlimit:10;}
	.st11{fill:none;stroke:#00D8E9;stroke-width:0.25;stroke-linejoin:round;stroke-miterlimit:10;}
	.st12{fill:none;stroke:#00D8E9;stroke-linecap:round;stroke-linejoin:round;stroke-miterlimit:10;}
	.st13{fill:none;stroke:#00D8E9;stroke-linejoin:round;stroke-miterlimit:10;}
</style>
<g id="banana"/>
<g id="Layer_12"/>
<g id="grape"/>
<g id="assasin"/>
<g id="gold"/>
<g id="mage_ass"/>
<g id="fighter"/>
<g id="SUPPORT"/>
<g id="marksman"/>
<g id="JUNGLE"/>
<g id="TANK"/>
<g class="st0" id="creditcard"/>
<g class="st0" id="CAKE"/>
<g class="st0" id="TOPI"/>
<g class="st0" id="SPATU"/>
<g class="st0" id="SETTING"/>
<g class="st0" id="CART"/>
<g class="st0" id="k3"/>
<g class="st0" id="computer"/>
<g class="st0" id="phone"/>
<g class="st0" id="location"/>
<g id="koper">
<g id="Layer_29"/>
<path d="M80.8,47.4L74.3,47l0.8-5.1l6.7,0.6L80.8,47.4z M67.1,41.2l6,0.5l-0.8,5.2l-6-0.4L67.1,41.2z M49.2,45.4l-9.7-0.6l2.5-8.5   l7.1-0.3l-0.9,2.9c0,0.2-0.1,0.3,0,0.5L49.2,45.4z M33.7,36.7l6.1-0.3l-2.4,8.2L30,44.1L33.7,36.7z M28.3,46   C28.3,46,28.3,46,28.3,46l52,3.4l-0.4,2.3l-65.5-4.4c-0.2-0.8-0.3-1.5-0.4-2.3L28.3,46z M77.6,63.9l-41.8-0.1   c-9.9,0-18-6.9-20.8-14.3l64.5,4.3L77.6,63.9z"/>
</g>
<g class="st0" id="guide"/>
<g id="MAGICAL"/>
<g id="phisical"/>
<g id="mango"/>
<g id="orange"/>
</svg>