<?xml version="1.0" ?>
<!-- Uploaded to: SVG Repo, www.svgrepo.com, Generator: SVG Repo Mixer Tools -->
<svg fill="#000000" width="800px" height="800px" viewBox="0 0 100 100" version="1.1" xml:space="preserve" xmlns="http://www.w3.org/2000/svg" xmlns:xlink="http://www.w3.org/1999/xlink">
<g id="store"/>
<g id="groceries"/>
<g id="fruits"/>
<g id="bakery"/>
<g id="hygiene_product"/>
<g id="detergent"/>
<g id="cooking_oil"/>
<g id="snacks"/>
<g id="canned_food"/>
<g id="wheat_flour"/>
<g id="milk_powder"/>
<g id="coffee_powder">
<g>
<path d="M96,23c0-0.2-0.1-0.4-0.2-0.6L88,10.7V5c0-0.6-0.4-1-1-1H35c-0.6,0-1,0.4-1,1v5.7l-7.8,11.7c0,0,0,0.1-0.1,0.1    c0,0,0,0.1,0,0.1c0,0.1-0.1,0.2-0.1,0.3c0,0,0,0,0,0v43H7c-0.6,0-1,0.4-1,1v16c0,2.8,1.3,5.3,3.4,7H5c-0.6,0-1,0.4-1,1    c0,2.8,2.2,5,5,5h22h48h16c0,0,0,0,0,0s0,0,0,0c0.1,0,0.2,0,0.3-0.1c0,0,0.1,0,0.1-0.1c0,0,0.1,0,0.1-0.1c0,0,0,0,0.1-0.1    c0.1,0,0.1-0.1,0.1-0.2c0-0.1,0.1-0.1,0.1-0.2c0-0.1,0-0.1,0.1-0.2c0-0.1,0-0.1,0-0.2c0,0,0,0,0-0.1V23z M94,91.9l-6.2-8.5    c-0.4-0.5-1.2-0.5-1.6,0L80,91.9V23.3l7-10.5l7,10.5V91.9z M93,94H81l6-8.3L93,94z M36,6h50v4H36V6z M35.5,12h49.6l-6.7,10H28.9    L35.5,12z M28,24h50v70H35c0.6-0.8,1-1.9,1-3c0-0.6-0.4-1-1-1h-4.4c2-1.7,3.4-4.2,3.4-7V67c0-0.6-0.4-1-1-1h-5V24z M8,83V68h24v15    c0,3.9-3.1,7-7,7H15C11.1,90,8,86.9,8,83z M6.2,92H15h10h8.8c-0.4,1.2-1.5,2-2.8,2H9C7.7,94,6.6,93.2,6.2,92z"/>
<path d="M53,79c11,0,20-9,20-20s-9-20-20-20s-20,9-20,20S42,79,53,79z M53,41c9.9,0,18,8.1,18,18s-8.1,18-18,18s-18-8.1-18-18    S43.1,41,53,41z"/>
<path d="M53,73C53,73,53,73,53,73C53,73,53,73,53,73C53,73,53,73,53,73c5.5,0,10-6.3,10-14s-4.5-14-10-14s-10,6.3-10,14    C43,66.7,47.5,73,53,73z M61,59c0,5.7-2.6,10.4-6.1,11.7c1.1-2.5,2.2-7.1-1-12.2c-3.4-5.4-1.2-10-0.3-11.4    C57.7,47.4,61,52.6,61,59z M51.1,47.3c-1.1,2.5-2.2,7.1,1,12.2c3.4,5.4,1.2,10,0.3,11.4c-4.2-0.4-7.5-5.6-7.5-12    C45,53.3,47.6,48.6,51.1,47.3z"/>
<path d="M21.3,64.7c0.2,0.2,0.5,0.3,0.7,0.3c0.3,0,0.5-0.1,0.7-0.3l2-2c0.2-0.2,0.3-0.4,0.3-0.7c0-0.3-0.1-0.5-0.3-0.7L23.4,60    l1.3-1.3c0.4-0.4,0.4-1,0-1.4c-0.4-0.4-1-0.4-1.4,0l-2,2C21.1,59.5,21,59.7,21,60s0.1,0.5,0.3,0.7l1.3,1.3l-1.3,1.3    C20.9,63.7,20.9,64.3,21.3,64.7z"/>
<path d="M15.3,64.7c0.2,0.2,0.5,0.3,0.7,0.3c0.3,0,0.5-0.1,0.7-0.3l2-2c0.2-0.2,0.3-0.4,0.3-0.7c0-0.3-0.1-0.5-0.3-0.7L17.4,60    l1.3-1.3c0.4-0.4,0.4-1,0-1.4c-0.4-0.4-1-0.4-1.4,0l-2,2C15.1,59.5,15,59.7,15,60s0.1,0.5,0.3,0.7l1.3,1.3l-1.3,1.3    C14.9,63.7,14.9,64.3,15.3,64.7z"/>
</g>
</g>
<g id="tea_bag"/>
<g id="meat"/>
<g id="chicken"/>
<g id="cart"/>
<g id="sausage"/>
<g id="egg"/>
<g id="drink"/>
<g id="vegetable"/>
</svg>