<?xml version="1.0" encoding="UTF-8"?>
<svg id="M_kopie" data-name="M kopie" xmlns="http://www.w3.org/2000/svg" viewBox="0 0 500.14 54.52">
  <defs>
    <style>
      .cls-1 {
        fill: #fd6900;
      }

      .cls-2 {
        fill: #191919;
      }
    </style>
  </defs>
  <path class="cls-1" d="M8,39.99c1.54,1.54,3.38,2.31,5.51,2.31s4.01-.75,5.51-2.24c1.54-1.54,2.31-3.4,2.31-5.57V3h7.96v31.48c0,4.31-1.54,8.02-4.62,11.15-3.17,3.04-6.89,4.55-11.15,4.55s-8.07-1.52-11.15-4.55l5.64-5.64Z"/>
  <path class="cls-1" d="M56.47,17.69c-3.58,0-6.68,1.28-9.28,3.85-2.53,2.57-3.79,5.64-3.79,9.22s1.26,6.68,3.79,9.28c2.6,2.53,5.7,3.79,9.28,3.79s6.66-1.26,9.23-3.79c2.56-2.6,3.85-5.7,3.85-9.28s-1.28-6.66-3.85-9.22c-2.57-2.57-5.64-3.85-9.23-3.85M56.47,11.12c5.43,0,10.06,1.93,13.87,5.77,3.89,3.85,5.83,8.47,5.83,13.87s-1.94,10.1-5.83,13.87c-3.81,3.85-8.43,5.77-13.87,5.77s-10.06-1.93-13.87-5.77c-3.85-3.81-5.77-8.43-5.77-13.87s1.92-10.02,5.77-13.87c3.77-3.85,8.39-5.77,13.87-5.77"/>
  <polygon class="cls-1" points="109.96 11.12 109.96 17.69 90.32 17.69 90.32 27.54 104.55 27.51 106.94 34.05 90.32 34.05 90.32 43.84 109.96 43.84 109.96 50.4 83.81 50.4 83.81 11.12 109.96 11.12"/>
  <polygon class="cls-2" points="170.52 50.62 196.19 50.62 196.19 44.09 176.91 44.09 176.91 34.34 196.19 34.34 196.19 27.87 176.91 27.87 176.91 18.06 196.19 18.06 196.19 11.53 170.52 11.53 170.52 50.62"/>
  <path class="cls-2" d="M230.71,29.16c-1.26,1.28-2.76,1.92-4.5,1.92l-12.89-.06v-12.96h12.89c1.74,0,3.24.64,4.5,1.92,1.26,1.28,1.89,2.8,1.89,4.56s-.63,3.34-1.89,4.62M236.76,31.92c1.52-2.22,2.28-4.68,2.28-7.38,0-3.57-1.26-6.63-3.78-9.18-2.52-2.55-5.54-3.83-9.06-3.83h-19.28v39.09h6.39v-13.01h10.89l7.45,13.01h7.39l-7.95-14.03c2.29-.94,4.19-2.5,5.67-4.68"/>
  <rect class="cls-2" x="249.96" y="11.53" width="6.39" height="39.09"/>
  <polygon class="cls-2" points="292.94 34.91 267.27 11.48 267.27 50.57 273.66 50.57 273.66 27.19 299.39 50.62 299.39 50.57 299.39 50.51 299.39 11.48 292.94 11.48 292.94 34.91"/>
  <path class="cls-2" d="M337.03,40.31c-2.52,2.52-5.54,3.77-9.06,3.77s-6.56-1.26-9.12-3.77c-2.48-2.59-3.72-5.67-3.72-9.24s1.24-6.63,3.72-9.18c2.56-2.55,5.6-3.83,9.12-3.83s6.54,1.28,9.06,3.83c2.52,2.55,3.78,5.62,3.78,9.18s-1.26,6.65-3.78,9.24M327.97,11.53c-5.37,0-9.91,1.92-13.62,5.75-3.78,3.83-5.66,8.43-5.66,13.8s1.89,10.01,5.66,13.8c3.74,3.83,8.28,5.75,13.62,5.75s9.87-1.92,13.62-5.75c3.81-3.75,5.72-8.36,5.72-13.8s-1.91-9.97-5.72-13.8c-3.74-3.83-8.28-5.75-13.62-5.75"/>
  <path class="cls-2" d="M358.15,42.2c-2.53,0-4.34,1.9-4.34,4.61s1.73,4.61,4.26,4.61c2.67,0,4.34-1.98,4.34-4.61s-1.73-4.61-4.26-4.61"/>
  <path class="cls-2" d="M388.91,18.06c3.52,0,6.54,1.28,9.06,3.83l4.56-4.62c-1.78-1.8-3.83-3.21-6.14-4.22-2.31-1.02-4.8-1.52-7.47-1.52-5.37,0-9.93,1.92-13.67,5.75-3.78,3.83-5.67,8.43-5.67,13.8s1.89,10.01,5.67,13.8c3.78,3.83,8.33,5.75,13.67,5.75,2.67,0,5.16-.51,7.47-1.52,2.32-1.02,4.36-2.42,6.14-4.22l-4.56-4.56c-2.56,2.52-5.57,3.77-9.06,3.77s-6.6-1.26-9.12-3.77c-2.52-2.59-3.78-5.67-3.78-9.24s1.26-6.63,3.78-9.18c2.52-2.55,5.56-3.83,9.12-3.83"/>
  <path class="cls-2" d="M436.81,40.31c-2.52,2.52-5.54,3.77-9.06,3.77s-6.56-1.26-9.12-3.77c-2.48-2.59-3.72-5.67-3.72-9.24s1.24-6.63,3.72-9.18c2.56-2.55,5.6-3.83,9.12-3.83s6.54,1.28,9.06,3.83c2.52,2.55,3.78,5.62,3.78,9.18s-1.26,6.65-3.78,9.24M427.75,11.53c-5.37,0-9.91,1.92-13.62,5.75-3.78,3.83-5.66,8.43-5.66,13.8s1.89,10.01,5.66,13.8c3.74,3.83,8.28,5.75,13.62,5.75s9.87-1.92,13.62-5.75c3.81-3.75,5.72-8.36,5.72-13.8s-1.91-9.97-5.72-13.8c-3.74-3.83-8.28-5.75-13.62-5.75"/>
  <polygon class="cls-2" points="487.99 11.53 487.99 11.55 487.97 11.53 475.27 24.23 462.56 11.52 462.51 11.57 462.51 11.53 455.64 11.53 455.64 50.48 462.51 50.48 462.51 21.18 470.41 29.08 470.4 29.1 475.26 33.96 475.27 33.94 475.29 33.97 480.15 29.11 480.13 29.08 487.99 21.22 487.99 50.48 494.86 50.48 494.86 11.53 487.99 11.53"/>
  <polygon class="cls-2" points="152.91 11.55 152.89 11.53 140.19 24.23 127.48 11.52 127.43 11.57 127.43 11.53 120.56 11.53 120.56 50.48 127.43 50.48 127.43 21.18 135.33 29.08 135.32 29.1 140.18 33.95 140.19 33.94 140.22 33.96 145.07 29.11 145.05 29.08 152.91 21.22 152.91 50.48 159.78 50.48 159.78 11.53 152.91 11.53 152.91 11.55"/>
</svg>