<svg xmlns="http://www.w3.org/2000/svg" width="100" height="26" fill="none" viewBox="0 0 100 26">
    <path fill="#fff" d="M.959 24.797h.717l.539.779c.031.044.09.11.09.165v.006c0 .042-.06.063-.095.067v.063h.966v-.063c-.172-.011-.268-.179-.355-.307l-.523-.733c.423-.064.727-.287.727-.74 0-.694-.525-.806-1.1-.806H.254v.066c.072.02.124.06.124.138v2.242c0 .08-.052.12-.124.14v.063h.833v-.063c-.077-.02-.127-.06-.127-.14v-.876H.959v-.001Zm0-.436v-.695h.904c.266 0 .58.004.58.349 0 .329-.322.346-.58.346H.96ZM4.727 25.478h1.391c.084 0 .127-.047.15-.122h.053v.643h-.053c-.02-.072-.066-.125-.15-.125h-2.04v-.054c.076-.02.125-.064.125-.142v-1.775c0-.085-.05-.125-.125-.144v-.055h1.98c.086 0 .126-.049.15-.123h.051v.641h-.05c-.024-.073-.065-.123-.15-.123H4.727v.474h.827c.084 0 .125-.05.15-.122h.051v.627h-.057c-.019-.076-.06-.126-.144-.126h-.827v.526ZM7.798 24.452v1.227c0 .082.052.123.128.147v.05h-.73v-.05c.076-.018.125-.064.125-.147v-1.775c0-.08-.05-.124-.126-.145v-.05h.928v.05c-.048.018-.092.054-.092.108 0 .07.032.14.068.197l.545.915.55-.898c.036-.06.084-.128.092-.2 0-.064-.028-.103-.092-.12v-.05h.9v.05c-.073.019-.126.063-.126.144v1.776c0 .082.053.122.127.146v.05h-.778v-.05c.076-.024.128-.064.128-.147v-1.228l-.847 1.357-.8-1.357ZM11.752 23.708v.05c-.072.02-.124.064-.124.145v1.775c0 .082.052.123.124.147v.05h-.775v-.05c.077-.018.125-.064.125-.147v-1.775c0-.085-.048-.125-.125-.145v-.05h.775ZM13.237 25.68c0 .081.054.122.127.146v.05h-.731v-.05c.076-.018.125-.065.125-.147v-1.775c0-.086-.05-.125-.125-.145v-.05h.843v.05c-.04.01-.087.029-.087.078 0 .042.037.079.063.11L14.63 25.1v-1.197c0-.082-.049-.125-.125-.145v-.051h.73v.05c-.078.02-.128.06-.128.146v1.775c0 .082.05.123.128.146v.05h-.785v-.05c.036-.008.085-.023.085-.068 0-.073-.085-.131-.134-.173l-1.163-1.137v1.232M16.765 25.478h1.39c.087 0 .128-.047.15-.122h.053v.643h-.053c-.02-.072-.063-.125-.15-.125h-2.038v-.054c.075-.02.121-.064.121-.142v-1.775c0-.085-.046-.125-.12-.144v-.055h1.979c.085 0 .125-.049.147-.123h.053v.641h-.053c-.021-.073-.062-.123-.147-.123h-1.332v.474h.826c.085 0 .124-.05.15-.122h.052v.627h-.057c-.02-.076-.06-.126-.145-.126h-.826v.526ZM19.884 24.988h.524l.442.617a.23.23 0 0 1 .061.141c-.005.046-.06.066-.1.08v.05h.918v-.05c-.153-.024-.248-.176-.332-.292l-.419-.572c.354-.073.619-.233.619-.619 0-.564-.47-.635-.926-.635h-1.437v.05c.076.02.124.06.124.146v1.775c0 .082-.047.128-.124.146v.05h.775v-.05c-.073-.023-.125-.064-.125-.146v-.691Zm0-.399v-.488h.79c.184 0 .402.01.402.246 0 .226-.221.242-.403.242h-.79ZM24.454 25.33c.063.123.169.24.169.378 0 .068-.06.104-.124.117v.05h.895v-.05c-.134-.029-.17-.113-.228-.22l-.829-1.557a.373.373 0 0 1-.05-.17c.003-.06.057-.1.11-.12v-.05h-.857v.05c.062.024.114.059.114.127a.34.34 0 0 1-.045.155l-.803 1.606c-.047.094-.083.16-.197.178v.05h.808v-.05c-.054-.013-.126-.052-.126-.116 0-.115.106-.273.158-.378h1.005Zm-.158-.301h-.7l.342-.698.358.698ZM28.15 25.48c.084 0 .124-.048.147-.123h.053V26h-.053c-.02-.073-.063-.125-.147-.125h-1.877v-.054c.077-.02.125-.064.125-.142v-1.775c0-.085-.048-.125-.125-.145v-.054h.774v.054c-.073.02-.124.06-.124.145v1.576h1.227M30.006 23.708v.05c-.073.02-.126.064-.126.145v1.775c0 .082.053.123.126.147v.05h-.776v-.05c.078-.018.124-.064.124-.147v-1.775c0-.085-.046-.125-.123-.145v-.05h.774ZM32.854 25.479c.08 0 .123-.048.145-.123h.052V26H33c-.022-.073-.065-.126-.145-.126H30.89v-.117l1.276-1.656h-1.063c-.083 0-.124.05-.147.122h-.053v-.641h.053c.022.072.064.123.147.123h1.932v.096L31.74 25.48l1.113-.002ZM34.705 23.708v.05c-.073.02-.126.064-.126.145v1.775c0 .082.053.123.126.147v.05h-.775v-.05c.075-.018.123-.064.123-.147v-1.775c0-.085-.049-.125-.123-.145v-.05h.775ZM36.19 25.68c0 .081.054.122.128.146v.05h-.728v-.05c.073-.018.123-.065.123-.147v-1.775c0-.086-.05-.125-.123-.145v-.05h.841v.05c-.04.01-.089.029-.089.078 0 .042.036.079.067.11l1.172 1.154v-1.197c0-.082-.047-.125-.122-.145v-.051h.728v.05c-.074.02-.128.06-.128.146v1.775c0 .082.054.123.128.146v.05h-.785v-.05c.035-.008.083-.023.083-.068 0-.073-.083-.131-.13-.173l-1.166-1.137v1.231M40.593 25.038c-.084 0-.126.053-.15.126h-.052v-.576h.052c.021.077.066.125.15.125h1.041v.056c-.079.025-.122.077-.122.157v.463c0 .08.051.124.122.142v.048c-.371.202-.8.348-1.226.348-.326 0-.654-.058-.92-.257a1.107 1.107 0 0 1-.425-.876c0-.72.658-1.132 1.325-1.132.439 0 .809.193.94.193a.138.138 0 0 0 .07-.032l.048.025-.26.547-.048-.024v-.008c0-.189-.558-.294-.747-.294-.42 0-.788.282-.788.72 0 .477.351.727.809.727.235 0 .467-.029.677-.143v-.334l-.496-.001ZM47.33 24.556c0-.5-.277-.97-.727-1.205a1.78 1.78 0 0 0-.81-.168c-.83 0-1.535.495-1.535 1.373 0 .5.274.967.728 1.201.246.128.533.17.808.17.827 0 1.535-.502 1.535-1.37Zm-.598 0c0 .535-.401.916-.938.916-.534 0-.94-.38-.94-.916 0-.541.402-.92.94-.92.542 0 .938.375.938.92ZM48.885 24.988h.524l.44.617c.033.041.06.09.06.141-.004.046-.06.066-.1.08v.05h.921v-.05c-.153-.024-.25-.176-.334-.292l-.415-.572c.352-.073.617-.233.617-.619 0-.564-.47-.635-.926-.635h-1.438v.05c.077.02.126.06.126.146v1.775c0 .082-.05.128-.126.146v.05h.777v-.05c-.073-.023-.124-.064-.124-.146v-.691h-.002Zm0-.399v-.488h.788c.187 0 .402.01.402.246 0 .226-.22.242-.402.242h-.788ZM53.455 25.33c.06.123.168.24.168.378 0 .068-.06.104-.124.117v.05h.893v-.05c-.131-.029-.168-.113-.228-.22l-.83-1.557a.38.38 0 0 1-.047-.17c.003-.06.054-.1.108-.12v-.05h-.855v.05c.06.024.111.059.111.127a.335.335 0 0 1-.043.155l-.804 1.606c-.047.094-.084.16-.195.178v.05h.807v-.05c-.058-.013-.124-.052-.124-.116 0-.115.103-.273.155-.378h1.008Zm-.16-.301h-.698l.34-.698.357.698ZM57.146 25.48c.086 0 .124-.048.15-.123h.052V26h-.053c-.02-.073-.063-.125-.15-.125H55.27v-.054c.078-.02.125-.064.125-.142v-1.775c0-.085-.047-.125-.124-.145v-.054h.775v.054c-.072.02-.125.06-.125.145v1.576h1.226M62.99 25.518l-.048.036c-.027-.022-.055-.05-.093-.05a.182.182 0 0 0-.091.037c-.373.212-.772.386-1.208.386-.844 0-1.585-.466-1.585-1.37 0-.912.742-1.373 1.585-1.373.38 0 .71.104 1.038.29.078.044.157.1.241.127.043 0 .076-.024.112-.048l.047.033-.368.55-.051-.036c0-.063 0-.114-.052-.157a1.422 1.422 0 0 0-.9-.307c-.563 0-1.053.31-1.053.919 0 .595.492.916 1.052.916.415 0 .953-.232.953-.417v-.051l.051-.032.37.547ZM65.733 25.33c.062.123.17.24.17.378 0 .068-.061.104-.124.117v.05h.895v-.05c-.132-.029-.169-.113-.23-.22l-.828-1.557a.35.35 0 0 1-.048-.17c.002-.06.055-.1.106-.12v-.05h-.854v.05c.06.024.113.059.113.127 0 .057-.02.108-.046.155l-.802 1.606c-.047.094-.082.16-.194.178v.05h.804v-.05c-.054-.013-.124-.052-.124-.116 0-.115.105-.273.156-.378h1.006Zm-.158-.301h-.699l.342-.698.357.698ZM68.203 24.988h.527l.441.617a.23.23 0 0 1 .06.141c-.003.046-.06.066-.099.08v.05h.917v-.05c-.153-.024-.247-.176-.331-.292l-.417-.572c.35-.073.617-.233.617-.619 0-.564-.47-.635-.928-.635h-1.435v.05c.077.02.125.06.125.146v1.775c0 .082-.048.128-.125.146v.05h.775v-.05c-.07-.023-.124-.064-.124-.146v-.691h-.003Zm0-.399v-.488h.792c.187 0 .4.01.4.246 0 .226-.221.242-.4.242h-.792ZM71.584 25.478h1.392c.087 0 .124-.047.148-.122h.052v.643h-.052c-.021-.072-.061-.125-.148-.125h-2.042v-.054c.077-.02.123-.064.123-.142v-1.775c0-.085-.047-.125-.123-.144v-.055h1.982c.084 0 .123-.049.15-.123h.05v.641h-.05c-.027-.073-.066-.123-.15-.123h-1.332v.474h.826c.084 0 .124-.05.149-.122h.052v.627h-.058c-.02-.076-.06-.126-.143-.126h-.826v.526M78.041 24.08l-.053-.033c0-.084-.046-.128-.114-.17a1.368 1.368 0 0 0-.761-.24c-.223 0-.65.013-.68.31 0 .2.207.243.37.263.581.057 1.553.066 1.553.86 0 .652-.698.857-1.24.857-.338 0-.69-.069-.992-.225-.056-.028-.125-.079-.185-.079a.139.139 0 0 0-.09.039l-.056-.028.29-.646.058.022c0 .338.699.46.954.46.24 0 .675-.053.693-.368 0-.547-1.898.067-1.898-1.076 0-.648.648-.843 1.192-.843.318 0 .627.089.915.212.064.028.133.063.203.075a.17.17 0 0 0 .101-.043l.056.026-.316.627ZM80.759 25.68c0 .081.051.122.127.146v.05h-.778v-.05c.077-.024.127-.065.127-.147v-.754l-.648-.887c-.088-.12-.181-.246-.333-.28v-.05h.986v.05c-.055.019-.12.042-.126.109 0 .077.05.127.093.182l.32.438.306-.438c.035-.046.094-.105.094-.17 0-.07-.064-.102-.125-.12v-.05h.94v.05c-.154.034-.246.16-.33.28l-.652.886-.001.754ZM84.344 24.407l-.049-.021c0-.224-.581-.331-.779-.331-.17 0-.553.03-.581.254 0 .441 1.714-.065 1.714.912 0 .536-.62.706-1.058.706-.323 0-.645-.058-.938-.19-.03-.01-.06-.028-.093-.036-.034 0-.055.021-.08.05l-.046-.021.222-.533.054.022c0 .248.669.313.854.313.165 0 .574-.036.574-.266 0-.465-1.664.106-1.664-.899 0-.53.567-.705 1.012-.705.481 0 .9.256.986.256.038 0 .062-.02.086-.04l.048.026-.262.503ZM86.864 25.68c0 .081.05.122.125.146v.05h-.774v-.05c.072-.018.123-.064.123-.147v-1.578h-.646c-.083 0-.126.05-.147.122h-.053v-.641h.053c.02.075.064.126.147.126h1.818c.084 0 .123-.051.143-.126h.057v.641h-.056c-.022-.072-.06-.122-.144-.122h-.648v1.578M89.24 25.478h1.39c.086 0 .125-.047.152-.122h.05v.643h-.05c-.022-.072-.066-.125-.151-.125H88.59v-.054c.076-.02.124-.064.124-.142v-1.775c0-.085-.049-.125-.124-.144v-.055h1.98c.085 0 .124-.049.15-.123h.051v.641h-.05c-.025-.073-.065-.123-.15-.123H89.24v.474h.824c.085 0 .124-.05.151-.122h.051v.627h-.053c-.023-.076-.063-.126-.148-.126h-.824v.526M92.31 24.452v1.227c0 .082.052.123.128.147v.05h-.731v-.05c.076-.018.125-.064.125-.147v-1.775c0-.08-.05-.124-.125-.145v-.05h.93v.05c-.051.018-.094.054-.094.108 0 .07.033.14.067.197l.547.915.548-.898c.036-.06.086-.128.093-.2 0-.064-.027-.103-.093-.12v-.05h.902v.05c-.076.019-.127.063-.127.144v1.776c0 .082.051.122.127.146v.05h-.777v-.05c.075-.024.128-.064.128-.147v-1.228l-.845 1.357-.802-1.357ZM97.402 24.407l-.047-.021c0-.224-.582-.331-.779-.331-.173 0-.552.03-.581.254 0 .441 1.71-.065 1.71.912 0 .536-.619.706-1.058.706-.32 0-.64-.058-.933-.19-.032-.01-.061-.028-.095-.036-.035 0-.055.021-.078.05l-.049-.021.224-.533.053.022c0 .248.67.313.854.313.165 0 .575-.036.575-.266 0-.465-1.668.106-1.668-.899 0-.53.57-.705 1.016-.705.482 0 .9.256.985.256.038 0 .062-.02.086-.04l.047.026-.262.503ZM25.735 18.198c.92 0 1.57 1.153 1.57 1.607 0 .315-.45 1.493-1.57 1.493-1.03 0-1.254-1.019-1.477-1.493v-1.038c1.477-.093.135-.57 1.477-.57ZM48.535 12.946c.042-.207.08-.35.118-.447-.083.01-.157.031-.253.059-.267 0-.452-.001-.69-.054a.117.117 0 0 0-.004-.005c-.136.052-.235.144-.394.197-.229.054-.414.145-.617.25l.028.072c.197.128.258.274.41.481.228.26.442.52.771.737.109-.014.192-.04.302-.064.129 0 .261.013.395.038.017-.052.038-.096.057-.144-.154-.3-.207-.71-.123-1.12ZM44.536 18.893a2.104 2.104 0 0 1-.867-.129.086.086 0 0 1-.054.01c-.503-.072-1.183-.352-1.296.261a4.197 4.197 0 0 0-.02.572c.042.165.07.425.132.637.7-.332 1.417-.737 2.102-1.214 0-.042 0-.088.003-.137ZM46.277 16.483c-.133-.36-.465-.564-.551-1.027-.147.082-.225.216-.39.292-.157.041-.331.084-.526.124-.133.039-.206.117-.33.168-.156.13-.291.298-.453.443-.26.39-.543.732-.84 1.036.016.117.03.236.048.357.005.02.01.04.017.06.015.055.023.114.032.17a.56.56 0 0 0 .247.31c.272.132.638.36 1.048.328.018-.017.037-.021.065-.021.094 0 .196.005.298.01.15-.109.298-.227.443-.346 0-.008-.004-.015-.004-.025-.01-.241-.07-.408-.106-.64.015-.36.235-.507.504-.604.157-.06.334-.1.495-.158.027-.01.055-.022.082-.034-.051-.092-.079-.235-.079-.443ZM47.889 15.268a2.847 2.847 0 0 1-.068-.49h-.007a1.27 1.27 0 0 1-.904.343c-.05.014-.154.01-.281.003a3.376 3.376 0 0 0-.207-.014c-.251-.011-.5-.008-.5.118 0 .04.004.077.008.11a.774.774 0 0 0 .033.196c.032.12.082.224.138.319.12.205.268.37.345.578 0 .352.098.466.244.463.094-.005.207-.059.33-.13l.043-.023c.346-.418.664-.865.944-1.34a.66.66 0 0 0-.118-.133Z"/>
    <path fill="#fff" d="M47.822 14.778c-.002-.003-.002-.005-.002-.009l-.008.01h.01ZM47.802 14.37l.001-.017c0-.005 0-.01.002-.016l-.042-.025c-.305-.191-.551-.359-.77-.609-.14-.185-.232-.383-.409-.493l-.104-.246-.01-.024a.145.145 0 0 1-.011-.038c-.006.014-.011.026-.02.037-.017.023-.04.034-.073.03-.224-.048-.464-.027-.746-.021-.004.095-.01.215-.01.312-.045.327-.095.549-.005.877l.02.2a9.845 9.845 0 0 0 .11.815c.161-.218.966-.293 1.15-.346h.175c.116-.004.225-.01.326-.028a.741.741 0 0 0 .42-.209 4.571 4.571 0 0 1-.004-.2ZM42.07 19.673a4.675 4.675 0 0 1 .017-.696.574.574 0 0 1 .022-.095l.008-.024a2.571 2.571 0 0 0-.221-.024 3.89 3.89 0 0 0-.38-.005 8.69 8.69 0 0 1-.84.43c-.004.312.076.596.09.966.013.237.017.459.02.681.475-.157.972-.35 1.475-.581-.088-.221-.143-.477-.192-.652ZM40.557 20.243a4.253 4.253 0 0 0-.039-.42c-.237-.005-.413-.178-.633-.255-.26.083-.415.115-.415.115h-.004c-.061.074-.117.155-.15.188-.343.235-.543.529-.851.777 0 .002 0 .002.003.003.133.153.324.448.526.693.48-.07 1.016-.195 1.59-.373-.01-.241-.016-.482-.027-.728ZM47.52 12.336c-.181-.27-.196-.745-.185-1.24l.003-.06c-.33-.007-.574-.021-.885-.024-.01.04-.036.072-.076.066-.258-.04-.448.02-.664-.048-.121 0-.233.005-.342.007v.623c0 .183-.004.358-.012.533.083.135.163.285.226.479.306.002.565.011.807.06.04.009.063.04.07.08a.114.114 0 0 1 .056-.057c.26-.136.465-.29.744-.356a.723.723 0 0 1 .28-.033c-.005-.012-.015-.02-.022-.03ZM46.295 10.869v-.005c-.006.003-.01.003-.01.003l.01.002ZM47.602 9.326c-.013.05-.047.09-.098.1-.333.057-.895-.057-1.227.066.149.354.197.715.202 1.271.539.013 1.127.135 1.673.137-.022-.025-.025-.064-.011-.117.055-.21.096-.302.199-.404a2.735 2.735 0 0 0 .258-.641c.024-.09.045-.187.063-.29-.402-.006-.818.098-1.059-.122Z"/>
    <path fill="#fff" d="M49.121 11.044c-.148-.027-.295-.062-.46-.078-.019.008-.037.01-.052.013-.026.004-.05.008-.072.008a5.31 5.31 0 0 1-.98.05l-.016.06c-.038.545-.102 1.069.2 1.228.225.051.38 0 .633 0 .138-.043.227-.068.371-.068l.127.067c.068 0 .151.018.259.042.068-.376.109-.77.126-1.17h.007v-.123c-.048-.011-.095-.018-.143-.029ZM46.157 5.69a1.806 1.806 0 0 0-.34.17c.157.246.276.409.373.688.04.126.027.368.008.594v.047c-.001.011-.005.02-.007.032-.011.14-.02.265-.017.343v.009c.412-.119 1.223.019 1.443.054a.114.114 0 0 1 .084.06c.302.015.563.053.792-.102.006-.005.01-.006.017-.009.016-.27.01-.52.01-.777a7.73 7.73 0 0 0-.798-1.505 1.545 1.545 0 0 0-.538-.31c-.253.375-.683.508-1.027.705ZM48.829 8.289a3.62 3.62 0 0 0-.046-.546h-.15a.128.128 0 0 1-.051.08c-.235.157-.502.115-.805.094a.183.183 0 0 1-.043-.006v.177c-.002.41-.012.685-.097 1.024.217.33.695.053 1.148.092.14.008.262.028.373.052-.129-.748-.33-.967-.33-.967ZM47.572 7.963c-.27-.046-1.251-.332-1.45-.064a.273.273 0 0 0-.027.069c-.037.2.013.697.052 1.046.01.087.022.164.03.226v.006c.344-.151.943-.085 1.296-.148h.015v-.003c.101-.367.088-.675.084-1.132ZM46.28 10.867s.01 0 .015-.004c0-.622-.065-.98-.255-1.365a.195.195 0 0 1-.022-.117.145.145 0 0 1-.043-.096 7.69 7.69 0 0 1-.024-.217c-.24.11-.377.287-.576.448v1.286c.114-.002.232-.005.359-.005.18.053.35.048.546.07Z"/>
    <path fill="#fff" d="M44.796 6.407c0 .015 0 .028.002.042.137.336.254.69.342 1.065.272.052.547.092.83.054-.005-.197.086-.702.024-.901-.101-.298-.227-.452-.407-.744-.19.015-.511.037-.785.043-.006.147-.014.262-.006.44ZM46.202 7.142a.672.672 0 0 1-.007.079c.003-.011.007-.021.007-.033v-.046ZM46.34 3.61a13.42 13.42 0 0 0-.976-.909c-.149.035-.316.076-.498.115-.133.037-.208.115-.331.166-.266.219-.47.558-.861.698-.2.065-.394.062-.584.164l.01.063c.002.001.002.002.002.005a7.92 7.92 0 0 1 1.325 1.768c.068.01.137.012.207.005a.097.097 0 0 1 .064-.02c.282 0 .64.048.858.048V5.71a1.173 1.173 0 0 1-.12-.404c-.01-.244-.07-.412-.106-.64.014-.36.233-.51.5-.605.162-.059.335-.099.498-.16.028-.01.055-.021.082-.033a.744.744 0 0 1-.07-.258Z"/>
    <path fill="#fff" d="M46.713 4.007a.377.377 0 0 1-.146-.009c-.295.155-.736.116-.935.348-.036.09-.07.19-.1.3.039.242.077.37.087.622.028.177.015.29.038.388.152-.103.248-.169.428-.242.334-.186.751-.289.975-.68a.101.101 0 0 1 .066-.05l.066-.116c-.154-.19-.313-.377-.479-.561Zm-1.182.638c.032-.11.066-.209.1-.299a.48.48 0 0 0-.1.295v.004ZM43.028 3.44a2.285 2.285 0 0 1-.22-.38c-.127-.272-.214-.596-.132-.842a4.312 4.312 0 0 0-.626-.087c-.13.03-.217.032-.35.032-.017.168-.038.37-.044.565.34.226.681.481 1.01.772.05.002.099.005.153.005.06 0 .097.048.11.106a.934.934 0 0 1 .164-.088c-.02-.023-.04-.053-.065-.083Z"/>
    <path fill="#fff" d="M42.935 2.267c-.343.319.153 1.084.307 1.185a.06.06 0 0 1 .017.022c.12-.033.242-.049.364-.09.367-.13.562-.5.817-.705.14-.053.252-.11.39-.151.091-.018.175-.043.254-.066-.48-.388-.975-.74-1.469-1.044-.085.173-.17.35-.26.557-.076.191-.324.207-.42.292ZM41.67 1.859c.14-.003.235-.011.364-.045.25.015.495.108.753.158.02.005.035.016.047.029.094-.048.278-.03.33-.167.088-.198.171-.369.253-.535A10.539 10.539 0 0 0 41.18.281c.086.321.254.697.281.816.065.272.144.484.21.762ZM43.102 3.906l.002.002v.003c0-.003 0-.004-.002-.005ZM38.272.205c-.002.002-.002.004-.002.009a3.65 3.65 0 0 0-.032.568c0 .063.008.115.025.165a.185.185 0 0 1 .027.068c.11.209.367.26.527.348.149.064.233.117.388.17a.916.916 0 0 1 .136.09c.28.084.59.197.916.34.427-.136.793.056 1.215-.132a.071.071 0 0 1 .008-.003c-.069-.227-.165-.407-.222-.647-.027-.128-.152-.548-.206-.937A5.832 5.832 0 0 0 39.468 0h-.313a2.808 2.808 0 0 1-.714.154c-.061.017-.115.037-.17.05ZM30.508 12.524c-.131.05-.235.142-.39.193a2.481 2.481 0 0 0-.618.253l.025.07c.198.127.26.274.414.483.228.258.441.52.77.736.11-.013.192-.04.304-.065.062 0 .126.005.193.01-.306-.89-.443-1.227-.688-1.38v-.297c0-.002-.002-.002-.002-.002h-.008ZM37.916 20.69v-.422l.049-.296.007-.088.009-.2h-1.732l-.1-.08c.007.044.012.092.017.142v.015c0 .193.01.339.018.507.005.067.008.133.01.21 0 .3.013.475.032.753.301-.035.635.093.909.142.328-.003.636-.132.882-.022v-.007c-.01-.243-.065-.42-.1-.653ZM36.018 20.482c-.01-.277-.028-.445-.028-.721-.023-.254-.04-.355-.211-.377-.481-.04-.649-.252-1.01-.357-.108-.028-.089-.045-.188-.072-.05.002-.094.008-.145.012-.142.292-.309.53-.475.809-.035.062-.074.12-.109.181-.128.174-.248.308-.352.494.005.01.007.025.007.036a.179.179 0 0 0 .019.01c.977.588 1.821.917 2.312.917h.002a.65.65 0 0 1 .241-.151c-.02-.295-.063-.466-.063-.78ZM34.14 18.754c-.22-.204-.719-.43-.925-.777a3.702 3.702 0 0 0-.808.431c-.31.209-.596.441-.881.639 0 .006-.003.014-.003.023.63.522 1.264.974 1.856 1.335.115-.234.218-.41.37-.62.194-.346.387-.602.558-.945a.714.714 0 0 1-.167-.086ZM33.212 17.312l-1.276-.997c-.02-.065-.044-.124-.065-.187-.304-.052-.616-.096-.821-.26a.22.22 0 0 0-.055-.092c-.034-.034-.067-.014-.095.039-.117.2-.21.884-.348 1.09-.178.328-.286.554-.458.842.054.053.106.108.158.162.401.26.71.748 1.14.947.002-.002.005-.004.006-.007.53-.36 1.097-.734 1.762-.973-.064-.162-.06-.345.053-.564ZM30.699 15.29a3.035 3.035 0 0 1-.069-.488h-.01c-.238.215-.512.34-.9.34a1.17 1.17 0 0 1-.281.002c-.066-.006-.137-.008-.207-.013-.251-.01-.498-.007-.498.118a1.129 1.129 0 0 0 .04.307c.03.12.08.224.136.318.121.203.27.37.344.575 0 .357.1.472.244.467a.826.826 0 0 0 .332-.13c.249-.148.527-.367.706-.367h.004c.131-.276.276-.633.411-.78-.09-.12-.113-.227-.252-.349ZM30.61 14.392v-.013l-.02-.015-.019-.028c-.305-.192-.552-.359-.77-.61-.137-.183-.233-.381-.41-.494l-.102-.245c-.015-.008-.028-.017-.043-.024-.016.022-.04.036-.071.028-.225-.048-.466-.025-.747-.019-.005.094-.012.213-.012.31-.045.327-.091.549-.002.878.006.068.014.135.019.2.005.024.01.046.013.072.006.036.03.272.054.492l.042.248c.16-.212.968-.292 1.148-.343l.176-.002c.118-.003.228-.008.327-.025.162-.03.3-.09.422-.21-.005-.065-.005-.135-.005-.2ZM30.627 14.791l-.01.01h.01v-.01ZM28.451 15.31c-.082-.39-.204-.675-.245-1.08-.098-.38-.052-.598 0-.977v-.049a.087.087 0 0 1-.05.01c-.262-.039-.522.034-.767.006-.02.005-.061-.006-.112-.016.22.756.56 1.489.986 2.19.06-.023.121-.046.191-.078-.002-.003-.002-.007-.002-.007"/>
    <path fill="#fff" d="M28.447 14.43c-.003-.025-.009-.048-.013-.072.021.197.041.381.068.567-.024-.221-.049-.458-.055-.494ZM27.742 9.502l.024.045.089-.087c.38-.189.525-.514.88-.66-.027-.41-.037-.882.023-1.045-.324.042-.639.012-.951-.022-.121.302-.23.606-.326.91.053.119.108.236.153.355.037.19.052.341.108.504ZM30.312 9.448c-.33.058-.893-.056-1.226.068.147.353.196.714.202 1.271.394.007.819.077 1.232.114V9.42a.437.437 0 0 1-.11-.072c-.013.048-.045.09-.098.099ZM30.329 12.357c-.181-.27-.194-.742-.186-1.239l-.007-.056c-.421 0-.472-.023-.875-.025-.007.039-.036.071-.078.062-.255-.04-.443.022-.661-.046-.353 0-.537.023-.821.015l-.007.05c0 .006-.003.008-.003.013.027.137.063.225.108.348.14.51.425.694.594 1.216.308.002.567.011.807.062.04.008.06.039.068.08a.137.137 0 0 1 .058-.062c.26-.133.467-.287.744-.354.07-.022.13-.031.189-.033h.093l-.023-.03ZM27.596 11.6c-.047-.14-.053-.276-.084-.445l.002-.037-.02-.05a2.093 2.093 0 0 1-.477-.069c-.002.04-.005.079-.006.12a6.457 6.457 0 0 0 .19 1.79c.085.007.156.015.186.01.244.027.528.02.79.06a.087.087 0 0 1 .045.022c.004-.07.01-.129.01-.168 0-.054.012-.09.036-.115-.184-.5-.533-.615-.672-1.118ZM29.094 10.89h.007l.005-.002-.012.001ZM29.012 7.163v.05l-.007.03c-.012.14-.022.266-.017.342v.01c.41-.12 1.222.02 1.443.052.037.006.065.03.082.061.053.002.106.007.154.01.132-.388.361-.984.711-1.658.004-.026.007-.054.012-.08-.5-.239-.862-.818-1.393-.974-.254.374-.681.508-1.028.703-.103.044-.18.081-.256.125a3.926 3.926 0 0 0-.053.094c.143.22.254.38.343.64.04.127.026.37.009.595ZM30.38 7.985c-.267-.048-1.252-.332-1.45-.064a.214.214 0 0 0-.025.068c-.04.2.01.697.053 1.048l.028.223v.005c.346-.146.942-.083 1.297-.144h.015V9.12c.1-.37.086-.678.083-1.134Z"/>
    <path fill="#fff" d="M28.544 10.818c.18.056.351.05.55.071a.025.025 0 0 0 .007-.001c.004-.626-.06-.983-.253-1.366a.192.192 0 0 1-.02-.12c-.021-.018-.038-.05-.044-.094-.008-.062-.015-.134-.023-.215-.324.143-.459.418-.813.601-.314.315-.496.557-.88.756-.012.104-.022.208-.033.314.52.115.93.054 1.51.054ZM36.593 1.624c.445-.106.923-.17 1.431-.186.035-.465.045-.943.012-1.428-1.429.074-1.68.8-1.903.886.209.205.264.556.46.728ZM35.072 1.557c.16-.012.295.139.487.167.115.015.247.05.393.08.15-.05.304-.095.46-.138-.12-.163-.202-.376-.364-.538-.17-.03-.267-.023-.336-.094a.097.097 0 0 1-.038.01c-.175 0-.275.038-.405.076-.18.008-.211.063-.245.266-.007.037-.02.065-.04.079a.413.413 0 0 1 .035.115.089.089 0 0 1 .053-.023ZM31.224 2.587c.005.012.012.021.019.036.278.205.726.186 1.1.283-.137-.38.062-.956-.055-1.27-.004-.013-.01-.023-.012-.034l-.1-.045a6.342 6.342 0 0 0-.985.845h.003c.05.053.054.127.03.185ZM34.268 1.371c-.676-.11-1.242-.136-1.729.269.004.212-.08.484-.117.739a.968.968 0 0 0 0 .388.385.385 0 0 0 .112.204c.043.02.083.039.124.066.26.176.454.252.725.322.344-.32.724-.619 1.146-.883.115-.114.288-.202.374-.374a.072.072 0 0 1-.01-.067c.173-.583-.236-.605-.625-.664ZM32.57 3.275c-.4-.268-1.102-.174-1.464-.466a.284.284 0 0 0-.056-.094c-.034-.033-.066-.012-.096.04-.116.202-.21.884-.346 1.092-.188.348-.3.585-.495.901.503.203.84.82 1.332 1.049.005 0 .007-.005.01-.007.036-.023.072-.05.109-.073a9.9 9.9 0 0 1 1.63-2.178 1.712 1.712 0 0 1-.623-.264ZM28.784 7.59c-.007-.198.086-.702.022-.899a2.305 2.305 0 0 0-.27-.531c-.233.443-.45.902-.642 1.364.292.057.584.107.89.066ZM29.01 7.163a1.418 1.418 0 0 1-.006.08.308.308 0 0 0 .007-.03v-.05ZM70.484 20.2c-.004.008-.007.016-.015.024.008.005.018.005.027.005l-.012-.03ZM71.868 18.47c-.141.055-.235.105-.34.174.154.244.276.404.37.686.04.127.026.367.009.594v.046c-.001.011-.005.024-.008.034-.006.1-.015.192-.016.264.686-.675.452-1.567.735-2.167 0 0 .123-.115.283-.334h-.009c-.253.372-.678.506-1.024.704ZM71.365 18.438c.152-.102.249-.17.427-.243.336-.186.752-.289.975-.678a.102.102 0 0 1 .066-.05c.226-.368.29-.67.498-1.052a.138.138 0 0 0 .01-.018c-.325.102-.786.463-1.065.386-.078.04-.167.069-.26.092-.229.25-.469.523-.735.8.02.116.037.225.046.38.027.174.014.285.038.383ZM73.503 15.15h-.472c.148.179.266.358.296.596-.362.17-.686.462-1.022.817.04.04.088.056.143.053a.78.78 0 0 0 .33-.128c.252-.148.527-.366.708-.366h.004c.004-.004.006-.005.006-.008.005-.07.007-.143.007-.22 0-.296.12 0 0-.743Z"/>
    <path fill="#fff" d="M71.678 20.351c-.006-.198.084-.701.024-.9-.1-.299-.226-.454-.408-.747-.194.014-.51.039-.783.044-.009.148-.014.26-.009.441 0 .438.063.779.164 1.054a.036.036 0 0 1 .006.02c.328.063.66.134 1.007.088ZM71.906 19.924c-.002.026-.004.053-.008.08a.092.092 0 0 0 .008-.034v-.046ZM68.48 20.308c.162-.178.662-.102.915-.1.15-.037.283-.037.42-.064.063 0 .116.037.174.05.015-.005.029-.012.048-.012.146 0 .29.018.436.042.007-.008.01-.016.015-.024a3.006 3.006 0 0 1-.177-1.003c-.01-.235-.024-.355-.016-.58l-.063.005a6.744 6.744 0 0 1-2.103 1.074c.053.3.132.615.351.612ZM67.927 19.757a8.54 8.54 0 0 1-1.396.258c.019.399.01.758.041 1.151a19.065 19.065 0 0 0 1.657.032c.044-.289.099-.55.172-.738-.255-.035-.385-.382-.474-.703ZM66.316 20.034c-.289.024-.591.037-.91.037-.244 0-.509-.025-.785-.077-.127.128-.252.257-.402.378a.023.023 0 0 1 .004.005c.117.132.274.37.444.59a26.36 26.36 0 0 0 1.695.185c-.026-.38-.03-.741-.046-1.118ZM71.953 5.395c.308.711.484 1.374.6 1.858.346.02.698.076.83.097.04.006.066.03.084.06.117.007.23.017.335.017V5.29c-.266-.236-.528-.487-.849-.583-.248.365-.657.501-1 .688ZM72.093 3.15c-.135-.36-.467-.565-.55-1.03-.149.082-.226.218-.389.298-.157.037-.332.08-.528.123-.13.038-.206.113-.328.167a1.252 1.252 0 0 0-.126.114c.411.38.753.792 1.04 1.212.091-.12.228-.192.384-.251.158-.057.334-.1.496-.158.028-.009.054-.021.083-.034-.052-.091-.082-.233-.082-.44ZM71.917 2.518a3.527 3.527 0 0 0-.14-.32c.033.12.083.225.14.32ZM72.335 3.722c-.297.156-.738.115-.938.35a.42.42 0 0 0-.073.131l.014.022c.195.307.359.615.502.919a.024.024 0 0 1 .01-.005c.332-.19.75-.29.975-.68a.13.13 0 0 1 .065-.053c.225-.364.29-.67.499-1.053.004-.005.005-.008.012-.015-.326.102-.79.463-1.066.384Z"/>
    <path fill="#fff" d="M73.7 1.933a2.774 2.774 0 0 1-.068-.487h-.01c-.237.216-.512.34-.9.34-.048.014-.158.01-.28.003l-.208-.015c-.25-.012-.5-.006-.5.12 0 .039.004.076.008.11.004.07.017.135.033.195.046.093.094.203.138.32.12.203.268.37.344.578 0 .354.099.466.243.46.096-.002.21-.055.332-.126.25-.147.526-.367.707-.367h.003c.08-.171.168-.373.255-.536v-.493a.86.86 0 0 0-.096-.102ZM73.635 1.436c-.001.001-.003.007-.006.01h.008c.001-.003-.002-.009-.002-.01ZM68.883 1.894c.402.223.761.473 1.08.745.077-.088.154-.17.235-.236.139-.055.252-.11.389-.152.193-.039.352-.103.503-.145.144-.064.241-.085.37-.145-.002-.002-.003-.005-.003-.009-.055-.257-.125-.47-.18-.701-.509-.14-1.086-.325-1.715-.51-.146.328-.295.591-.45.957-.042.104-.136.156-.23.196ZM67.341 1.263c.402.116.77.253 1.11.413.03.008.063.013.094.022.02.003.036.012.047.026.094-.046.277-.026.333-.167.143-.334.283-.586.417-.879a19.14 19.14 0 0 0-2.365-.542c.088.286.22.583.243.682.037.162.08.302.121.445ZM56.272 12.249l-.005-.004c-.132.055-.234.145-.393.198a2.618 2.618 0 0 0-.616.253l.027.07c.197.125.255.274.41.482.23.26.442.52.771.736.11-.014.192-.041.304-.065.181 0 .375.026.564.07-.24-.299-.338-.788-.24-1.283-.033-.136-.062-.275-.092-.415-.012.007-.025.009-.042.014-.265 0-.449-.002-.688-.056ZM61.75 19.486c-.023-.256-.041-.357-.21-.378-.481-.04-.652-.253-1.013-.357-.106-.028-.087-.046-.187-.072l-.145.011c-.143.294-.308.53-.474.81l-.096.169c.702.275 1.429.512 2.16.71-.003-.053-.006-.11-.006-.17-.01-.28-.028-.449-.028-.723ZM63.677 20.417v-.422l.04-.244a8.973 8.973 0 0 1-1.11-.466.797.797 0 0 1-.265-.012 2.785 2.785 0 0 0-.447-.026c.013.064.022.139.03.225v.016c0 .193.012.337.021.508l.009.207c0 .08 0 .153.003.22.602.156 1.2.287 1.792.395-.022-.132-.05-.259-.073-.401ZM59.628 19.658c-.001.005-.005.006-.007.011h.003l.096-.17-.092.16ZM59.894 18.478c-.219-.204-.72-.428-.924-.777l-.073.03a3.788 3.788 0 0 0-.737.403c-.239.16-.462.334-.683.498.615.364 1.276.685 1.966.962.02-.024.04-.056.062-.083.194-.348.386-.604.556-.946a.737.737 0 0 1-.167-.087ZM59.324 16.773c-.067.153-.114.315-.21.415a.563.563 0 0 0-.082.3c.005.152.093.27.218.365.23.178.57.29.727.432.068.046.137.068.209.019.01-.007.02-.008.032-.01.027-.216.114-.346.24-.428a10.893 10.893 0 0 1-1.134-1.093ZM58.015 14.976a8.928 8.928 0 0 1-.366-.707 3.616 3.616 0 0 0-.862-.087c-.085.019-.148.037-.223.052 0 .192-.006.378.008.527.003.041.006.08.012.115a2.834 2.834 0 0 1 .312.31c.05.053.054.126.032.187a.13.13 0 0 1 .017.031c.279.207.73.187 1.103.287-.073-.206-.051-.468-.033-.715ZM59.202 16.636c-.087-.099-.17-.199-.255-.3a1.762 1.762 0 0 1-.672-.278c-.402-.267-1.104-.175-1.466-.467a.348.348 0 0 0-.055-.094c-.034-.032-.069-.013-.097.04-.116.204-.21.885-.347 1.093-.174.321-.285.55-.45.831.423.38.894.727 1.403 1.04.5-.337 1.035-.678 1.656-.904-.065-.165-.061-.359.064-.584.085-.09.148-.235.22-.377ZM56.455 15.013a2.865 2.865 0 0 1-.067-.486h-.007a1.27 1.27 0 0 1-.903.339c-.05.014-.157.011-.281.003a3.758 3.758 0 0 0-.207-.012c-.251-.015-.498-.009-.498.117a1.037 1.037 0 0 0 .04.306c.03.119.082.225.137.318.12.206.269.373.344.577 0 .357.098.47.243.463.095-.002.21-.055.331-.126.253-.149.528-.367.708-.367h.003c.133-.276.276-.631.411-.782-.089-.119-.115-.227-.254-.35ZM56.371 14.115c0-.006 0-.01.003-.016v-.014a.38.38 0 0 1-.04-.029c-.307-.19-.554-.356-.77-.606-.138-.184-.234-.381-.408-.495l-.107-.243-.009-.025a.16.16 0 0 1-.011-.038c-.005.012-.01.025-.019.034-.017.023-.042.037-.072.03-.226-.045-.466-.022-.748-.019-.005.095-.012.213-.012.31-.045.33-.092.552-.002.88l.019.198c.006.023.01.047.015.071l.055.494c.01.083.024.165.04.25.161-.217.967-.292 1.148-.345.061 0 .12 0 .177-.003.117-.001.224-.008.325-.024.163-.03.301-.09.42-.209-.001-.068-.004-.135-.004-.2Z"/>
    <path fill="#fff" d="M54.21 14.154a.782.782 0 0 0-.015-.072c.02.199.042.382.07.566l-.055-.494ZM56.169 9.073c-.016.05-.045.09-.098.1-.333.058-.894-.059-1.227.067.15.353.196.713.203 1.27.537.014 1.128.135 1.672.136-.02-.025-.027-.065-.01-.115a.927.927 0 0 1 .128-.322c.005-.325.024-.637.03-1.003-.273.013-.529.018-.698-.133ZM56.089 12.08c-.181-.267-.195-.742-.184-1.238l-.004-.06c-.336-.004-.56-.021-.879-.022-.01.039-.035.07-.078.063-.257-.041-.445.02-.663-.045-.245 0-.454.01-.656.013v.604c.149.372.383.571.529 1.022.307.002.566.01.807.062.04.008.062.039.07.078a.122.122 0 0 1 .057-.058c.26-.136.463-.287.742-.355a.778.778 0 0 1 .285-.034c-.01-.01-.018-.018-.026-.03ZM56.874 11.274a8.98 8.98 0 0 1-.029-.432c-.003-.026-.003-.053-.003-.077a5.675 5.675 0 0 1-.709.017l-.022.06c-.039.545-.1 1.07.2 1.229.226.05.38-.002.635-.002.006-.003.012-.006.02-.006a8.189 8.189 0 0 1-.092-.79ZM54.848 10.612l.013.001v-.002l-.013.001ZM58.292 2.695c.043.018.087.04.124.066.326.22.547.282.948.376.25-.249.514-.485.793-.7.009-.036.022-.072.035-.107.087-.193.356-.277.472-.503-.015-.015-.02-.038-.01-.066.171-.586-.239-.607-.627-.665a.36.36 0 0 1-.03-.005c-.815.405-1.202.777-1.202.818 0 .029-.244.245-.615.575v.007a.43.43 0 0 0 .112.204ZM57.212 5.516c.22-.149.447-.3.684-.444a8.926 8.926 0 0 1 1.293-1.753c-.335-.074-.557-.116-.856-.32-.146-.096-.33-.145-.523-.182a34.64 34.64 0 0 0-1.798 1.726c.429.246.746.771 1.194.98l.006-.007ZM54.768 6.888v.048c-.002.01-.005.02-.006.034-.012.138-.023.264-.02.34v.004c.413-.114 1.224.023 1.444.06a.118.118 0 0 1 .085.06c.28.013.524.047.74-.072.023-.11.05-.222.078-.333.005-.427-.017-.83.057-1.324-.483-.23-.833-.775-1.331-.955-.468.505-.871 1.003-1.1 1.425.015.037.029.077.044.121.04.123.026.366.009.592ZM56.346 7.662l-.041-.002v.174c-.002.411-.01.688-.098 1.026.14.212.387.172.665.127.002-.07.002-.142.002-.218-.009-.36.019-.734.08-1.112-.184.048-.386.022-.608.005ZM56.137 7.71c-.269-.049-1.253-.332-1.45-.066a.253.253 0 0 0-.025.07c-.038.201.01.696.053 1.047.01.085.021.162.026.226 0 0 0 .003.002.004.346-.15.944-.084 1.296-.145.007-.004.01 0 .01 0l.005-.004c.103-.368.09-.677.083-1.132Z"/>
    <path fill="#fff" d="M54.85 10.614c.006 0 .009-.002.009-.002.003-.625-.06-.983-.253-1.366-.02-.047-.03-.083-.02-.119-.022-.018-.039-.049-.046-.095-.006-.06-.012-.134-.021-.215-.3.133-.439.377-.736.556a2.367 2.367 0 0 0-.158.708v.476c.209-.004.426-.014.677-.014.18.054.35.05.548.07ZM61.703.586l.044-.018c.009.006.016.016.024.023a.833.833 0 0 1 .107.015c.194.18.26.477.407.667A6.705 6.705 0 0 1 63.8.935c.014-.285.018-.575.01-.865-.862.083-1.606.235-2.237.417.031.07.073.09.13.1ZM61.806.853c-.169-.031-.263-.023-.333-.096a.081.081 0 0 1-.04.008c-.175 0-.274.038-.404.076-.178.011-.21.064-.243.27a.136.136 0 0 1-.04.077.566.566 0 0 1 .034.118.08.08 0 0 1 .052-.023c.163-.016.296.138.488.165.104.014.222.044.354.072.15-.068.302-.134.458-.19-.1-.155-.181-.334-.326-.477ZM54.768 6.888c-.002.027-.005.053-.006.082 0-.015.004-.023.006-.034v-.048ZM93.598 15.002a4.56 4.56 0 0 0-.63-.09 1.218 1.218 0 0 1-.346.034c-.013.126-.031.27-.04.415h.167c.466 0 .7.02.837.061a.817.817 0 0 1 .012-.42ZM91.465 17.906a.048.048 0 0 1 .007.003.1.1 0 0 0 .009.005v-.011a.093.093 0 0 1-.016.003ZM93.852 15.052c-.12.11-.139.28-.099.453.14.11.225.273 1.1.474a3.3 3.3 0 0 0 .156-.154 6.233 6.233 0 0 0-.407-1.763c-.108.218-.217.432-.33.695-.075.191-.321.205-.42.295ZM93.415 12.846c-.449-.027-.7-.193-1.152-.259-.142-.038-.2.025-.212.14.005.04.005.08.005.125.039.334.294.883.328 1.027.063.273.141.486.208.763.139-.002.233-.01.363-.045.248.015.497.105.754.158a.1.1 0 0 1 .046.028c.094-.046.28-.028.334-.166.135-.32.27-.565.398-.841a7.467 7.467 0 0 0-.491-.934c-.186.011-.38.017-.581.004ZM92.342 14.934a1.376 1.376 0 0 1-.459.039c.01.049-.001.105-.046.136-.205.14-.42.047-.737.047-.007 0-.017 0-.026.005.011.066.02.13.02.2v.732c.142.003.285.007.428.015.065-.492.378-.682.87-.733a4.444 4.444 0 0 1 .007-.414v-.047a.812.812 0 0 1-.057.02ZM91.676 18.344a.116.116 0 0 1 0 .033c.005.017.008.031.014.045.274-.101.676-.105 1.026-.07-.367-.429-.804-.92-1.038-1.402-.026.46-.06 1.016-.002 1.394ZM91.484 17.902v.011a.11.11 0 0 1 .03.026l-.002-.043c-.01.003-.017.006-.028.006ZM93.045 19.397a5.022 5.022 0 0 1 .011-.632c-.043-.06-.093-.12-.145-.183a.255.255 0 0 0-.02-.021c-.006 0-.012 0-.02-.003-.053-.005-.11-.007-.167-.008-.366-.007-.782.043-1.027.177-.077.42.049.753.067 1.222.008.177.013.344.015.51.608-.23 1.109-.482 1.373-.741-.034-.116-.062-.228-.087-.32ZM91.532 19.967a4.797 4.797 0 0 0-.039-.418c-.309-.01-.513-.298-.848-.298-.12 0-.284.274-.354.343-.344.235-.543.531-.853.78.002 0 .002 0 .005.004.124.143.3.409.486.644a17.96 17.96 0 0 0 1.625-.488 21.56 21.56 0 0 0-.022-.567Z"/>
    <path fill="#fff" d="M91.673 18.378c-.012.075-.102.088-.115-.003a6.499 6.499 0 0 1-.046-.436.096.096 0 0 0-.03-.026s-.002 0-.002-.005l-.014-.003c-.166.03-.39.052-.611.058-.608.681-1.185 1.136-1.714 1.435l-.02.322c.003.106.005.206.015.29.01.093.035.17.07.217.032-.003.051.018.056.047.008.002.015.007.024.008h.002c.374-.264.522-.626.906-.89.089-.095.295-.394.447-.394.327 0 .522.304.822.326a2.106 2.106 0 0 1 .02-.744.185.185 0 0 1 .055-.09.709.709 0 0 1 .149-.069.323.323 0 0 1-.014-.043ZM91.5 17.78c-.023-.403-.03-.847-.015-1.173a.67.67 0 0 0 .031-.149 1.113 1.113 0 0 1-.012-.143l.002-.028a6 6 0 0 0-.413.018v1.382c-.027.027-.049.054-.074.082.183.023.357.03.48.01ZM92.393 14.616l.01-.003c-.071-.23-.17-.41-.226-.65-.036-.174-.265-.92-.224-1.356-.073.023-.143.047-.225.047a11.28 11.28 0 0 1-.94-.18.09.09 0 0 1-.064-.054c-.114.083-.206.178-.35.246-.34.15-.66.243-1.015.27-.06.018-.114.037-.17.05v.01a1.665 1.665 0 0 0-.017.142c.861.555 1.535 1.102 1.798 1.686.01-.002.022-.002.031-.006.5-.264.912.01 1.392-.202ZM90.719 10.828h-.018c-.456.076-.903.074-1.46.074-.016.553-.062 1.052-.07 1.565 0 .082 0 .163.002.245a.292.292 0 0 0 .043-.014c.038-.01.078-.025.117-.037.343-.025.652-.116.974-.258.153-.071.267-.099.4-.15 0-.477-.01-.921.012-1.425ZM92.452 1.904l.001-.05c-.02.008-.04.014-.059.02l.058.03ZM93.651 1.943a4.449 4.449 0 0 0-.627-.088 1.41 1.41 0 0 1-.349.032c-.045.43-.12 1.084.137 1.232.201.015.372.045.543.07.098-.325.187-.645.27-.932a.786.786 0 0 1 .026-.314ZM93.402 12.525l-.013-.01c-.283-.315-.357-.612-.436-1.078-.18-.207-.368-.407-.56-.603-.269.033-.53.045-.738-.013a.656.656 0 0 1-.183-.08.08.08 0 0 1-.036.043.824.824 0 0 1-.066.038c-.128.058-.265.039-.43.023-.021.484-.03.917-.03 1.374.25.056.505.098.828.146.103 0 .185.016.278.017.057-.081.14-.118.276-.081.442.066.68.238 1.116.268-.001-.017-.006-.03-.006-.044ZM92.644 1.582c.137-.003.235-.012.364-.045.248.015.498.105.752.16.01.001.014.003.02.005l.18-.657c0-.808-.473-.895-.473-.895-.17 0-.672.41-1.089.55.019.051.031.09.038.118.064.275.143.488.208.764Z"/>
    <path fill="#fff" d="M92.204 3.017c.147.04.239.053.385.091h.004c-.147-.293-.16-.816-.138-1.204l-.056-.03c-.427.126-.822-.085-1.274.147.017.051.007.119-.044.156l-.095.07c-.03.023-.058.042-.084.063.316.237.56.498.75.743l.074.004c.119-.121.237-.083.478-.04ZM92.173 3.278c-.194-.037-.266-.14-.361-.007.364.547.463.995.463.995 0 .033-.43.604-.54 1.076a.182.182 0 0 1 .01.021c.245-.091.598-.102.922-.078.186-.476.4-1.141.6-1.8-.21-.043-.425-.087-.7-.087-.145-.04-.25-.08-.394-.12ZM91.734 5.672v.006c.051.171.209.286.544.286.073 0 .181-.178.306-.472-.316.01-.643.064-.85.18ZM90.16 9.18c-.194.287-.405.502-.712.615-.045.017-.094.04-.14.064a4.742 4.742 0 0 0-.081.859c.557.001 1.01.015 1.467-.06.284 0 .481.039.665-.085.01-.008.02-.01.029-.012.002-.222.02-.431.043-.627a23.17 23.17 0 0 0-1.12-.907.908.908 0 0 1-.15.154ZM89.241 8.244v.038c.02.239.008.472.008.763.015.129.019.22.01.32a2.152 2.152 0 0 1-.032.213l.02.056.017-.012c.045-.025.092-.053.132-.07.272-.098.48-.312.652-.572a.702.702 0 0 0 .101-.077c-.3-.229-.603-.449-.908-.659ZM91.733 5.342l-.002.027.012-.005c-.002-.007-.007-.016-.01-.022ZM89.236.672a.156.156 0 0 1 .028.067c.108.21.368.26.527.348.152.065.231.118.386.172.294.15.567.59.881.502.498-.266.91.01 1.389-.204l.01-.002c-.072-.228-.168-.408-.226-.652-.007-.033-.022-.087-.038-.159l-.039.002c-.857 0-.729-.58-2.922-.716-.016.153-.021.32-.021.477 0 .063.01.117.025.165ZM88.955 10.897c-.32-.004-.575-.034-.94-.034-.125 0-.215.016-.34.026-.195 0-.328-.014-.48-.027-.086.194.09.637.187.822l.083.094c.025.032.036.07.042.104.373-.031.827-.095 1.08-.104.153-.008.246-.016.318.014.007-.245.012-.519.035-.718a.434.434 0 0 0 .015-.177ZM88.953 19.502c-.002 0-.007.002-.008.005 0 .032 0 .067.002.102.003-.034.004-.07.006-.108Z"/>
    <path fill="#fff" d="M87.171 20.2c0 .301.014.476.03.756.3-.035.637.092.909.14.33-.003.636-.13.882-.02v-.006c-.009-.246-.065-.423-.1-.655v-.42l.047-.3.007-.087a1.895 1.895 0 0 1-.002-.102 4.216 4.216 0 0 1-1.784.474v.014c.004.063.008.131.011.207ZM86.993 20.208c-.006-.084-.008-.156-.013-.227-.291-.004-1.088-.248-1.913-.703a9.256 9.256 0 0 0-.133.222l-.1.168c-.132.18-.255.317-.363.507.009.02.01.047-.006.07a1.17 1.17 0 0 0-.108.154c-.005.015-.013.03-.017.044a1.31 1.31 0 0 0-.067.213c.001.096.006.15.006.256.045.123.066.239.075.357.588.18 1.31.329 2.125.35.02-.024.04-.047.059-.072.098-.109.188-.228.252-.385a.615.615 0 0 1 .265-.174c-.02-.298-.062-.467-.062-.78ZM83.51 18.074c-.006-.005-.01-.012-.016-.018-.039.024-.079.05-.117.079-.306.207-.593.438-.88.636a3.926 3.926 0 0 0-.034.264c-.004.048-.01.095-.015.141-.039.408-.025.763-.046 1.16.388-.006.668-.04 1.032.01.203.066.334-.025.536.012.149.026.222.02.285-.023l.058-.134c.133-.27.24-.464.407-.69.065-.116.131-.223.194-.325-.504-.295-1.01-.67-1.403-1.112ZM81.432 20.491c.304.014.565.055.794-.1a.068.068 0 0 1 .017-.008c.029-.546-.025-1.013.065-1.618-.486-.233-.84-.787-1.342-.961v.181c0 1.937-.474 1.73-.474 2.296l.001.052c.355.016.721.077.855.097.039.006.066.03.084.061Z"/>
    <path fill="#fff" d="M82.45 19.176c.003-.047.01-.095.013-.142l-.014.142ZM82.323 14.463c-.23 0-.408.004-.542.036 0 .095 0 .181.007.262.005.04.008.08.015.114.01.01.022.017.034.03.117.105.15.142.279.281.05.052.052.125.032.186l.018.032c.164.123.384.163.616.199.023-.769.03-1.14-.459-1.14ZM82.762 16.315c0-.171.004-.329.007-.477-.28-.049-.559-.096-.746-.247a.389.389 0 0 0-.055-.094c-.035-.032-.066-.013-.097.04-.114.203-.206.885-.348 1.093l-.09.169v.408s-.082-.037-.18-.064a8.637 8.637 0 0 1-.222.388c.501.203.837.818 1.332 1.05l.007-.008c.322-.216.658-.438 1.017-.637-.375-.47-.625-1.015-.625-1.62ZM87.21 11.897c-.111-.22-.23-.713-.18-1.045-.036-.002-.08-.002-.126-.002a.096.096 0 0 0-.028-.007c-.033-.009-.062-.022-.088-.033l-.07.033a.051.051 0 0 1-.014.007l.001.01-.004-.01c-.121.065-.216.122-.385.073-.08 0-.158-.002-.233-.005a.614.614 0 0 0-.185.259c.397.25.802.49 1.205.725h.11l-.003-.005Z"/>
    <path fill="#fff" d="M86.708 10.86a.029.029 0 0 0-.002-.008l-.003-.002.005.01ZM89.064 8.239c-.24-.216-.549.024-.91.024-.369-.065-.851-.337-1.174-.008a1.393 1.393 0 0 1-.278.404c-.132.15-.218.29-.353.4-.051.07-.096.134-.145.206-.002.004-.002.008-.005.01.008.05.02.09.028.125.045.144.108.213.149.36.065.243.11.49.217.672a.534.534 0 0 0 .324.247c.307 0 .452.014.753.014.125-.014.213-.027.343-.027.387 0 .65.018 1.001.018.024 0 .04.011.052.026.08-.233-.05-.735-.03-1.114.018-.542.11-.836.028-1.357ZM86.22 9.84c-.053-.192-.14-.257-.184-.48-.038.002-.078.002-.122.002-.055-.002-.114-.002-.171-.002-.065 0-.122 0-.178.002-.032 0-.06.003-.095.003-.226 0-.652-.048-.906-.095-.007.027-.023.054-.055.06-.149.04-.303.066-.458.084.008.066-.034.138-.095.11 0 0-.006 0-.007-.003-.007.085-.015.159-.015.185.35.33.747.641 1.169.94.386-.012.779.014 1.235.014a.973.973 0 0 0 .292.053c-.228-.19-.316-.518-.41-.872ZM83.767 9.234c.014-.042.04-.068.083-.07.194-.025.388.015.575-.017-.05-.102-.11-.208-.143-.316 0-.354.024-.66-.08-.936 0-.09.007-.186.007-.278a.301.301 0 0 0-.01-.025.396.396 0 0 1-.21.008c-.207-.039-.332-.001-.534-.065-.331-.046-.585-.046-.924-.046.127.594.426 1.135.843 1.633.027.01.052.017.08.028.123.016.215.044.313.084ZM83.49 7.288c.205.062.337-.03.535.01.148.026.223.021.287-.02a1.02 1.02 0 0 1 .062-.136c.129-.27.237-.464.403-.69.186-.334.368-.58.53-.901a6.29 6.29 0 0 1-.323-.275c-.244-.169-.581-.364-.741-.632-.023.009-.049.017-.073.027-.181.16-.54.315-.737.404-.307.207-.595.44-.88.638-.014.09-.027.178-.035.261a1.698 1.698 0 0 1-.016.14c-.02.247-.025.473-.03.7v.047c0 .14.011.28.03.417.367-.006.635-.04.988.01ZM87.046 7.149c-.005-.15-.013-.27-.02-.393-.606-.4-1.15-.76-1.58-1.092-.139.28-.298.507-.456.778-.034.05-.063.101-.095.155-.136.188-.262.323-.371.517a.063.063 0 0 1-.004.07c-.047.054-.078.107-.108.156a.552.552 0 0 0-.017.043c-.026.07-.047.137-.07.212 0 .097.007.15.007.255.102.275.088.515.081.836v.103a4.81 4.81 0 0 1 .07.275c.006.022.012.046.021.07.008.003.016.004.021.01a.06.06 0 0 1 .024.027c.111.022.271.037.434.047.177.01.357.015.482.015.097 0 .175.007.272.007a.814.814 0 0 0 .282-.056c.006-.013.011-.027.017-.035.07-.093.139-.175.208-.269.131-.102.224-.254.347-.394.098-.109.186-.226.25-.384a.64.64 0 0 1 .264-.175c-.02-.295-.058-.466-.059-.778ZM83.51 2.695c.043.019.086.04.123.067.34.228.564.287.997.388.211-.59.603-1.12 1.253-1.45.125-.524-.266-.548-.64-.604a6.89 6.89 0 0 0-.263-.039 16.325 16.325 0 0 0-1.55 1.53c.02.04.047.077.08.108ZM84.192 4.54c-.063-.166-.06-.359.065-.586.109-.113.182-.316.277-.491l.03-.111c-.43-.096-.671-.12-1.014-.354a1.158 1.158 0 0 0-.353-.144c-.267.31-.431.516-.431.516v.418c0 .238.297-.09.474.328h-.767v1.372c.516-.35 1.07-.712 1.719-.948Z"/>
    <path fill="#fff" d="M84.166 4.672a3.855 3.855 0 0 0-.736.404c.197-.09.555-.244.736-.404ZM82.516 5.974l-.016.14a1.59 1.59 0 0 0 .016-.14ZM86.916.586l.042-.018a.11.11 0 0 1 .025.023.789.789 0 0 1 .108.015c.219.202.276.558.469.736h.02c.442 0 .846.034 1.21.097a1.11 1.11 0 0 0 .087-.019c.036-.008.061.015.076.048 0 0 .002 0 .002.002a.042.042 0 0 1 .017-.009c.047-.468.069-.952.05-1.444A16.913 16.913 0 0 0 88.229 0h-1.24a1.36 1.36 0 0 0-.235.023c0 .097-.006.199-.007.318.04.197.086.23.17.245ZM87.022.853c-.169-.031-.265-.023-.335-.096a.094.094 0 0 1-.038.008c-.177 0-.275.038-.403.076-.18.011-.213.064-.247.27-.007.036-.02.063-.038.077a.796.796 0 0 1 .034.118.076.076 0 0 1 .05-.023c.163-.016.3.138.489.165a.145.145 0 0 0 .032.004c.24-.056.504-.092.794-.105-.108-.156-.189-.347-.338-.494ZM18.717 20.617c-.526.068-1.024-.053-1.525-.067-.005.25.046.453.113.64a5.11 5.11 0 0 0 1.379.476l.01-.005c-.027-.409-.036-.88.023-1.044ZM17.551 20.302c-.005.01-.008.019-.016.026l.028.004-.012-.03ZM18.586 18.746c.16.246.278.406.373.686.039.126.026.369.009.595v.045l-.007.034c-.01.14-.022.266-.018.341v.006c.412-.114 1.223.022 1.441.058.04.006.067.03.087.061.302.015.562.054.792-.1.006-.005.01-.007.016-.01v-.006c-.337-.257-.722-.665-1.138-1.338a14.086 14.086 0 0 0-.595-.872c-.201.125-.424.214-.62.326a1.785 1.785 0 0 0-.34.174ZM20.341 20.848c-.269-.049-1.252-.332-1.449-.065a.174.174 0 0 0-.025.071c-.034.163-.006.53.028.85.01.002.023.003.033.006.396.066.844.119 1.358.152.068-.317.06-.607.055-1.014ZM21.533 20.627h-.13a.108.108 0 0 1-.05.08c-.234.159-.502.118-.806.093h-.042v.174c0 .358-.01.615-.067.9.441.026.93.042 1.477.048.178 0 .592-.447.65-.596 0-.406-.404-.311-1.032-.699Z"/>
    <path fill="#fff" d="M17.565 19.29c0 .442.061.78.165 1.057 0 .006.003.01.005.017.328.064.66.136 1.004.09-.004-.2.087-.703.025-.9-.101-.3-.226-.455-.407-.745-.19.012-.51.036-.783.043-.01.146-.015.26-.01.438ZM18.968 20.027c-.004.026-.005.052-.007.08l.007-.035v-.045ZM16.876 20.246c.063 0 .114.036.175.052a.092.092 0 0 1 .047-.015c.145 0 .29.02.434.045.007-.008.01-.017.016-.026a2.98 2.98 0 0 1-.18-1.005c-.01-.232-.022-.352-.015-.58a2.012 2.012 0 0 1-.865-.13c-.015.008-.033.017-.055.013-.503-.072-1.182-.35-1.298.258-.003.056-.008.11-.01.158.374.507.705.93 1.04 1.277.107.008.21.017.288.018.155-.038.284-.04.423-.065ZM15.801 16.323a2.035 2.035 0 0 1-.22-.377c-.129-.272-.215-.597-.133-.845a4.396 4.396 0 0 0-.629-.084c-.126.03-.213.03-.348.03-.043.43-.121 1.087.138 1.234.364.025.617.107.983.107.06 0 .097.049.11.105a.788.788 0 0 1 .164-.085.872.872 0 0 1-.065-.085Z"/>
    <path fill="#fff" d="M15.7 15.157c-.341.315.154 1.08.307 1.181a.122.122 0 0 1 .019.018c.12-.026.24-.046.362-.087.344-.12.536-.45.77-.66a251.31 251.31 0 0 1-.968-.904c-.022.05-.044.1-.07.154-.076.192-.322.207-.42.298ZM13.898 12.828c.007.041.006.08.005.124.04.338.295.885.328 1.027.064.274.142.489.21.764.137-.002.232-.01.364-.044.245.014.494.105.751.16.02.003.035.014.047.027.094-.048.277-.028.332-.165.027-.066.055-.126.082-.183-.656-.619-1.358-1.29-1.928-1.854-.127-.026-.182.037-.19.144ZM16.039 18.265c-.178-.281-.152-.674-.31-1.09-.047-.183-.08-.3-.101-.477a.09.09 0 0 1-.04.008c-.438 0-.732-.148-1.228-.148-.147-.039-.251-.08-.396-.12-.226-.042-.283-.178-.41.08 0 .114.02.164-.017.263l-.01.193c.408.472.732.86.886 1.069l.313.43c.108.014.206.032.289.052.202-.304.614-.309 1.024-.26ZM18.097 17.549c.017-.333.203-.482.443-.581a6.86 6.86 0 0 0-.492-.535l-.66-.609c-.025.014-.054.03-.084.042-.266.218-.47.56-.859.697-.201.066-.394.062-.586.165l.012.064c.016.082.037.16.065.263.084.227.093.456.122.656.013.078.028.152.052.223a.547.547 0 0 0 .247.306c.27.135.634.364 1.047.328a.1.1 0 0 1 .066-.02c.28 0 .64.049.856.049v-.005c-.055-.096-.087-.206-.12-.404-.01-.241-.071-.409-.109-.639ZM14.245 15.065c0-.018 0-.034.002-.048-.02.005-.04.013-.059.019-.425.125-.821-.086-1.27.147.014.051.004.119-.046.154l-.095.072c-.051.037-.1.07-.141.111a.446.446 0 0 0-.1.157v.183c.103.11.2.222.302.33.23.005.452.013.68.026.116-.12.236-.083.48-.039.146.04.237.051.383.092h.005c-.147-.294-.16-.816-.141-1.204ZM11.583 14.248c.153.065.231.12.386.17.294.15.567.59.882.505.498-.267.91.007 1.389-.205.002-.003.006-.003.012-.003-.072-.228-.171-.407-.228-.65-.035-.176-.265-.92-.223-1.359a.645.645 0 0 1-.226.05 10.513 10.513 0 0 1-.936-.182.088.088 0 0 1-.066-.05c-.113.082-.206.174-.352.244-.34.149-.656.244-1.014.271-.06.017-.113.037-.171.051v.008a3.96 3.96 0 0 0-.032.569c0 .064.009.119.025.165a.167.167 0 0 1 .028.068c.11.21.366.259.526.348ZM12.568 10.93h-.018c-.458.078-.902.075-1.46.075-.017.55-.062 1.054-.07 1.565 0 .08 0 .162.002.245l.042-.014c.04-.012.077-.027.118-.037.343-.027.652-.117.974-.258.153-.073.268-.098.399-.152-.002-.476-.007-.92.013-1.423ZM17.649 8.803c.008.046.018.09.024.134.204-.404.353-.86.44-1.371-.292-.023-.579-.064-.867-.074-.006.568.255.91.403 1.311ZM16.488 5.54c-.505-.071-1.183-.348-1.299.263a4.213 4.213 0 0 0-.018.572c.084.314.106.979.421.975.161-.177.664-.098.913-.098.156-.036.287-.038.422-.066.062 0 .118.039.174.052a.096.096 0 0 1 .05-.012c.145 0 .29.018.433.042.008-.01.014-.017.018-.024a2.926 2.926 0 0 1-.18-1.004c-.01-.232-.022-.355-.015-.58-.32.026-.62-.038-.865-.13-.017.009-.035.016-.054.01ZM15.75 2.095c-.342.317.156 1.083.308 1.186.006.003.013.01.017.017.12-.03.24-.048.363-.09.257-.089.43-.295.597-.48a6.299 6.299 0 0 0-.867-.92c-.08.184-.32.2-.418.287Z"/>
    <path fill="#fff" d="M15.855 3.267a2.157 2.157 0 0 1-.221-.38c-.129-.273-.216-.597-.13-.843a4.599 4.599 0 0 0-.631-.086c-.126.03-.214.03-.347.03-.044.43-.12 1.087.137 1.233.364.027.615.109.982.109.06 0 .097.048.112.106a.777.777 0 0 1 .164-.087 1.094 1.094 0 0 1-.066-.082ZM14.3 2.007c0-.017.003-.035.003-.05-.02.008-.04.014-.06.02-.428.126-.82-.087-1.271.147.014.052.005.117-.047.156l-.092.073a3.367 3.367 0 0 0-.106.076c.42.248.678.49.847.729.116-.12.235-.083.476-.037.146.04.237.051.385.09h.004c-.147-.294-.16-.814-.14-1.204ZM14.416 3.5c-.147-.04-.25-.08-.395-.119-.173-.034-.248-.117-.33-.045.283.5.274.978.753 1.437l-.009.608c.24.014.47.045.636.088.203-.304.615-.311 1.023-.263-.179-.281-.151-.673-.309-1.09a3.052 3.052 0 0 1-.1-.479.08.08 0 0 1-.042.01c-.439 0-.732-.147-1.227-.147ZM17.75 4.505c.007-.468-.189-1.01-.55-1.55-.198.203-.39.44-.702.549-.2.066-.392.061-.584.166l.01.065c.017.083.038.158.065.262.042.113.066.225.081.335l.002.01c.008.048.013.095.019.14l.02.163a.93.93 0 0 0 .054.229.52.52 0 0 0 .245.307c.271.136.636.365 1.047.328a.11.11 0 0 1 .065-.019c.19 0 .42.023.615.038-.122-.737-.387-.96-.387-1.023ZM14.945 6.443c-.01-.25-.002-.45.02-.697a.65.65 0 0 1 .022-.093c.001-.01.005-.018.006-.024a2.016 2.016 0 0 0-.387-.033 1.751 1.751 0 0 0-.174 0l-.017 1.114s-.12.854-.708 1.724c.007.07.016.144.025.217.024.06.043.116.067.163.438-.109.917.084 1.47.01.055-.507.132-1.015.248-1.319-.36-.051-.47-.72-.572-1.062ZM17.456 8.901c-.167-.444-.425-.813-.404-1.457-.034.015-.067.03-.106.033-.133.024-.263.025-.419.065-.145 0-.41-.087-.598-.089-.047.007-.091.01-.132.017a.145.145 0 0 0-.08.066c-.02.04-.04.085-.057.135-.069.19-.124.45-.168.736-.093.592-.145 1.292-.192 1.688-.014.173-.004.3-.001.455.303.004.508.04.831.065a4.167 4.167 0 0 0 1.39-1.399c-.023-.102-.043-.204-.064-.315ZM13.767 9.054c-.042.07-.072.132-.097.194-.026.109-.06.212-.101.312-.026.1-.05.216-.086.354-.04.269-.144.484-.151.788.36.335 1.235-.022 1.784-.078.008-.203.014-.347.033-.56.032-.267.065-.672.107-1.095-.579.076-1.034-.102-1.49.085ZM11.074 10.82c.558 0 1.01.017 1.468-.06.284 0 .48.037.665-.087a.117.117 0 0 1 .028-.01c.006-.293.034-.56.07-.813.093-.382.166-.635.32-.922l-.086-.157c-.005-.03-.008-.06-.014-.09-.49.622-1.245 1.214-2.399 1.46-.03.216-.048.414-.052.678ZM11.088.772a.172.172 0 0 1 .026.068c.11.21.368.26.525.35.153.065.235.12.387.171.296.149.567.588.882.502.498-.264.91.008 1.388-.205.005 0 .007 0 .012-.002-.072-.228-.171-.41-.228-.65-.015-.079-.07-.27-.12-.495A6.898 6.898 0 0 0 11.67.09l-.582-.012a4.002 4.002 0 0 0-.025.529c0 .064.008.12.024.165ZM5.33 12.28a.304.304 0 0 1-.033-.03l.007.03h.026ZM10.806 11c-.32-.005-.576-.033-.943-.033-.125 0-.214.013-.338.027-.193 0-.328-.017-.48-.028-.082.195.094.637.187.821l.081.095a.182.182 0 0 1 .042.107c.376-.035.83-.099 1.083-.107.152-.01.244-.016.316.015.008-.246.014-.521.036-.72a.459.459 0 0 0 .016-.177ZM3.535 14.086c.108-.015.191-.04.301-.066.186 0 .376.028.567.072-.242-.303-.339-.8-.238-1.298a2.2 2.2 0 0 1 .12-.447c-.085.012-.16.033-.254.06-.27 0-.453 0-.691-.056-.004 0-.005-.001-.006-.002-.133.05-.234.142-.392.194a.432.432 0 0 0-.05.013l-.017.92c.19.217.385.43.66.61ZM1.528 20.639c-.525.068-1.026-.053-1.528-.066-.003.417.136.71.268.997a4.98 4.98 0 0 0 1.008.248.917.917 0 0 1 .229-.138c-.028-.407-.037-.878.023-1.041ZM9.053 21.057c.299-.035.635.095.908.14.066 0 .13-.005.194-.012a.577.577 0 0 0 .068-.278c.025-.405-.535-.492-1.203-.628 0 .01 0 .016.002.026 0 .3.013.473.03.752ZM8.84 20.311c0-.025-.002-.046-.003-.067-.697-.152-1.46-.386-1.777-1.093-.09.148-.185.292-.277.451-.03.053-.062.104-.092.156-.137.185-.26.326-.373.518a.063.063 0 0 1-.005.07.988.988 0 0 0-.105.155.523.523 0 0 0-.02.045 4.453 4.453 0 0 0-.067.21c0 .1.007.152.007.258.084.23.089.434.084.687.287-.024.711-.034 1.408-.019h.739l.028-.034c.099-.11.187-.226.25-.385a.607.607 0 0 1 .265-.172c-.02-.297-.062-.468-.062-.78ZM6.918 18.545c-.235-.196-.69-.411-.885-.741l-.074.03a3.718 3.718 0 0 0-.734.4c-.308.208-.595.443-.881.64-.015.089-.025.175-.036.26-.001.049-.008.096-.014.139-.035.413-.025.769-.044 1.165.385-.005.666-.04 1.032.008.202.067.334-.024.534.013.149.027.224.022.285-.021.018-.045.04-.088.062-.136.129-.27.236-.463.404-.688.141-.257.283-.461.415-.687a1.765 1.765 0 0 1-.064-.382ZM6.61 16.582c-.238.154-.26.524-.43.706a.612.612 0 0 0-.082.299c.005.152.095.269.22.367.177.137.422.238.596.341l.025-1.74c-.103 0-.213.008-.329.027ZM1.78 20.097c-.003.009-.005.019-.01.03-.01.14-.019.267-.015.344v.008c.413-.12 1.222.018 1.442.054a.12.12 0 0 1 .084.06c.302.015.565.053.794-.1.005-.007.01-.007.017-.011.03-.546-.025-1.01.066-1.619-.39-.183-.695-.575-1.06-.815-.007.536-.023.968-.023 1.367 0 .513-.594.59-1.291.605-.004.01-.004.021-.004.027v.05"/>
    <path fill="#fff" d="M4.306 19.135c-.004.047-.01.095-.013.139.005-.043.012-.09.013-.14ZM1.72 21.862h.007c.025-.322-.028-.604-.053-.987-.037.19.006.644.046.987Zm1.43-.99c-.268-.051-1.254-.332-1.451-.066a.203.203 0 0 0-.025.069c.025.383.078.665.057.987.259.014.822.02 1.362.023.072-.318.06-.607.057-1.014ZM6 21.053c0-.09.004-.184.006-.277-.005-.01-.01-.017-.013-.025a.37.37 0 0 1-.21.01c-.206-.04-.33-.002-.533-.068-.37-.049-.641-.045-1.04-.043a.137.137 0 0 1-.052.078c-.233.159-.5.117-.804.096a.37.37 0 0 0-.041-.005v.176c-.003.354-.011.611-.067.89.597.006 1.126.006 1.126.006 1.23.02 1.097-.113 1.708-.18 0-.24-.009-.456-.08-.658ZM10.73 12.21c-.073-.147-.115-.05-.29-.04-.313.012-.938.118-1.342.136.277.328.494.624.618.727.266.198.65.56 1.09 1a9.211 9.211 0 0 0-.076-1.822ZM6.232 12.765l-.015-.02a9.305 9.305 0 0 1-.702-.186c-.158 0-.343-.014-.428-.001-.505-.09-.603-.312-.728.31-.098.479-.05.988.224 1.216.021.016.03.04.03.066a2.5 2.5 0 0 1 .294.11c.057.02.11.045.16.071a.244.244 0 0 1 .022-.024c.003-.002.003-.004.007-.006.394-.369.839-.444 1.347-.409-.13-.312-.29-.787-.211-1.127ZM5.053 14.52a.219.219 0 0 0-.01-.033c-.324-.166-.787-.204-1.193-.204-.085.02-.15.038-.223.053-.001.192-.006.377.007.525a.74.74 0 0 0 .016.116c.01.008.021.018.029.027.122.108.152.146.281.284.051.053.052.127.03.186.008.01.013.019.018.03.281.21.73.188 1.103.285-.137-.377.058-.955-.058-1.27ZM6.65 15.747c0-.02.09.096.108-1.53-.554-.067-1.03-.039-1.45.31.005.21-.08.484-.118.738-.02.142-.028.274 0 .388.017.08.055.148.114.204.04.019.085.037.123.066.362.244.594.296 1.091.41a.091.091 0 0 1 .032.018c.002-.004.005-.005.005-.005.14-.025.268-.03.386-.023l.003-.096c0-.333-.295-.39-.295-.48ZM6.227 11.03c-.18.015-.383.041-.553.015-.04-.007-.062-.029-.07-.066-.127-.027-.236-.024-.37-.03a.351.351 0 0 0-.09.198c.07.6.073.985.382 1.139h.011c.269.078.465.209.765.276.007 0 .015.003.02.007.042-.06.1-.113.175-.148.122-.1.155-.23.244-.362.005-.006.006-.01.006-.016-.001-.197-.006-.403-.008-.62.294-.18.62-.297.677-.297.053 0 .105.007.16.017.02-.047.04-.095.063-.137-.495-.033-.929-.084-1.412.024ZM3.374 12.175c.225.049.38-.003.633-.005.14-.038.227-.066.372-.066l.126.067v.001c.126-.002.303.062.585.114.049-.008.126-.006.213-.005l-.007-.03c-.226-.208-.332-.567-.394-1.119a.662.662 0 0 1 .046-.153c-.05-.013-.094-.022-.15-.035H3.172c-.036.546-.1 1.068.202 1.23ZM3.362 16.245c.13-.274.274-.63.412-.778-.091-.12-.116-.228-.256-.352a3.216 3.216 0 0 1-.069-.486h-.008a1.226 1.226 0 0 1-.592.31l-.01.72c-.033.35-.04.628-.03.857.203-.132.406-.271.548-.271h.002M6.387 16.519c-.453-.102-.698-.121-1.049-.36-.401-.266-1.105-.172-1.467-.466a.31.31 0 0 0-.054-.095c-.036-.031-.067-.01-.099.043-.113.202-.207.883-.345 1.09-.137.25-.23.442-.346.646.041.047.073.061.073.069v.307c.388.263.693.734 1.111.929.002-.001.006-.006.008-.006.53-.36 1.096-.732 1.761-.977-.065-.165-.06-.357.066-.584.133-.139.21-.405.34-.596ZM.545 20.387c.329.063.66.134 1.006.089-.002-.099.019-.275.034-.452-.385.004-.787 0-1.132.047a2.328 2.328 0 0 0 .092.316ZM1.782 20.047c-.002.028-.004.056-.009.08.006-.01.007-.02.01-.03v-.05ZM3.441 14.628h.006c.003-.005.003-.007.003-.01l-.009.01ZM9.058 12c-.11-.222-.23-.71-.178-1.044-.04 0-.08-.003-.127-.003l-.027-.008-.091-.033c-.023.01-.044.021-.065.033l-.017.008-.003.002c-.118.062-.217.12-.385.07-.08 0-.158-.002-.234-.005a.539.539 0 0 0-.146.181c.377.146.737.465 1.049.804h.162l.067-.001-.005-.005ZM6.82 9.932l.013-.5a4.983 4.983 0 0 1-.425-.062.08.08 0 0 1-.055.062c-.15.04-.303.063-.456.084.006.066-.036.139-.097.111l-.006-.001c-.01.088-.019.166-.019.186.055.205.035.355.015.584.007.16.002.287-.017.437.14.013.29.012.431.003.656-.149 1.23-.073 1.976-.073.118.034.206.054.295.053-.164-.134-.254-.341-.327-.575l-1.034-.01c-.058-.061-.176-.182-.294-.3ZM10.91 10.183c-.344.056-.72.086-1.133.078l-1.416-.017h-.037c.03.108.068.206.119.291a.521.521 0 0 0 .322.247c.308 0 .453.013.752.013.128-.013.217-.027.343-.027.39 0 .654.022 1.006.022.02 0 .037.008.05.022.048-.138.02-.378-.006-.629ZM4.439 9.304c0 .008 0 .02-.004.027-.07.398-.188.724-.36 1.039a.448.448 0 0 0-.114.206c.108.023.2.04.32.003.31.026.574.117.867.129.182.01.31.04.465.088.016-.136.021-.259.014-.408a1.497 1.497 0 0 0-.047-.527c0-.027.012-.177.022-.307-.106-.03-.203-.039-.327-.055-.306-.1-.52-.166-.836-.195ZM3.231 9.174c-.013.05-.045.091-.099.102-.122.021-.278.019-.44.012.05.792.232.874.232 1.181l-.003.213c.29.034.58.066.859.068-.021-.026-.024-.066-.007-.118.052-.213.095-.302.198-.403.02-.034.035-.07.052-.103.085-.17.151-.346.204-.54.024-.092.045-.186.065-.29-.403-.004-.82.1-1.06-.122ZM6.086 4.746l-.073.027a3.791 3.791 0 0 0-.735.403c-.31.208-.595.44-.88.639-.016.09-.026.177-.038.262a3.512 3.512 0 0 1-.013.137c-.037.412-.024.767-.042 1.165.383-.005.664-.039 1.03.009.2.065.333-.026.535.013.147.028.222.02.284-.022a4.167 4.167 0 0 1 .422-.765c.014-.44.036-.897.054-1.367-.207-.14-.423-.3-.544-.501ZM3.336 7.535c.305.014.565.055.792-.1.007-.005.01-.006.02-.01.029-.545-.027-1.01.063-1.619-.5-.238-.86-.818-1.39-.973a1.958 1.958 0 0 1-.101.127L2.7 7.4c.244.024.454.059.553.075.039.005.065.029.083.06ZM4.348 6.216ZM6.132 8.93c0-.351.026-.658-.079-.935 0-.09.006-.186.007-.276-.002-.009-.007-.017-.012-.026a.375.375 0 0 1-.208.01c-.206-.042-.332-.003-.536-.067-.368-.049-.643-.044-1.04-.044a.132.132 0 0 1-.051.08c-.233.156-.502.115-.804.095a.244.244 0 0 0-.042-.004v.173c-.002.412-.01.689-.097 1.025.217.332.695.052 1.15.092.347.027.562.094.887.2.122.014.212.045.31.084a.093.093 0 0 1 .083-.07c.193-.026.388.015.575-.017v-.003c-.048-.101-.107-.206-.143-.316ZM8.594.445c.039.194.087.23.17.242L8.807.67c.008.006.017.017.027.026.03 0 .065.005.103.012.157.142.23.358.325.536.462.106.876.214 1.245.319.075-.008.147-.021.215-.038.039-.01.067.015.078.05l.016-.012h.003c.049-.481.07-.978.05-1.49L8.6.027c.002.128-.003.258-.006.418ZM6.284.123a3.256 3.256 0 0 0-.732.264L4.372.349c.014.285.095.536.265.676.021.018.03.04.03.067.104.032.202.067.295.109.055.022.11.046.162.071.004-.007.012-.014.018-.025a.016.016 0 0 0 .007-.004C5.545.873 5.99.8 6.5.834 6.414.635 6.32.374 6.283.123ZM5.11 1.458a.091.091 0 0 1-.01-.028c-.324-.167-.789-.204-1.195-.206-.085.02-.15.04-.223.054-.003.193-.005.378.008.525.002.04.006.08.013.117.012.007.02.018.031.026.12.107.151.145.28.282a.18.18 0 0 1 .032.186l.018.033c.278.206.728.187 1.103.286-.14-.38.057-.956-.058-1.275ZM5.362 1.465c.003.214-.082.488-.121.742-.021.14-.027.273 0 .39a.42.42 0 0 0 .114.2.719.719 0 0 1 .123.066c.284.193.489.265.804.342l.04-1.625c.123-.099.385-.25.68-.395-.637-.096-1.173-.104-1.64.28ZM5.397 3.101c-.402-.266-1.105-.173-1.467-.466a.343.343 0 0 0-.055-.093c-.035-.031-.066-.014-.098.041-.113.201-.207.883-.345 1.09-.188.35-.302.584-.494.901.502.203.838.821 1.332 1.05.003-.001.005-.005.009-.007.528-.36 1.095-.733 1.76-.976-.064-.165-.06-.356.064-.584a1.04 1.04 0 0 0 .169-.273l.007-.36c-.35-.073-.575-.117-.882-.323ZM3.574 2.056a2.69 2.69 0 0 1-.067-.487h-.008c-.24.217-.516.342-.903.342-.05.014-.158.01-.282 0L2.108 1.9c-.16-.008-.317-.01-.413.023.08.027.155.054.226.085.326.14.573.33.561.676v.977c.07-.023.144-.061.221-.106.252-.148.528-.37.707-.37l.006.001c.131-.275.276-.632.41-.782-.087-.117-.113-.223-.252-.348ZM3.5 1.568h.01c0-.003-.004-.006-.004-.01l-.006.01ZM1.04.348C.597.442.27.63.27.984c-.014.472.472.646.99.805-.069-.258-.142-.492-.175-.793A1.63 1.63 0 0 1 1.04.348ZM3.493 1.159v-.015l-.022-.012c-.004-.012-.012-.019-.016-.03-.308-.192-.556-.36-.776-.607-.052-.074-.1-.15-.149-.22A7.136 7.136 0 0 0 1.264.31c-.026.204-.03.384.032.615l.019.203c.02.198.042.38.069.564.007.048.013.094.021.14l.11.034c.264-.16.9-.223 1.058-.269l.177-.001c.117 0 .225-.007.326-.026.16-.03.3-.089.42-.207-.003-.07-.003-.138-.003-.203ZM51.193 18.286c.918 0 1.566 1.155 1.566 1.609 0 .316-.448 1.492-1.566 1.492-1.032 0-1.256-1.018-1.478-1.492v-1.04c1.478-.09.132-.57 1.478-.57ZM75.984 18.286c.917 0 1.57 1.155 1.57 1.609 0 .316-.448 1.492-1.57 1.492-1.032 0-1.255-1.018-1.48-1.492v-1.042c1.48-.088.136-.567 1.48-.567ZM98.21 18.286c.92 0 1.567 1.155 1.567 1.609 0 .316-.448 1.492-1.568 1.492-1.03 0-1.253-1.018-1.478-1.492v-1.042c1.478-.088.136-.567 1.478-.567ZM100 1.936c0 .988-.788 1.785-1.766 1.785a1.774 1.774 0 0 1-1.761-1.778c0-.998.79-1.785 1.786-1.785.953 0 1.74.808 1.74 1.778Zm-3.354 0c0 .89.713 1.611 1.589 1.611a1.6 1.6 0 0 0 1.593-1.604c0-.9-.707-1.61-1.608-1.61-.86 0-1.574.73-1.574 1.603Zm1.317.648c0 .17.046.227.19.227h.07v.087h-.886V2.81h.087c.142 0 .188-.057.188-.227v-1.32c0-.17-.05-.23-.188-.23h-.087V.944h.852c.253 0 .367.021.485.089a.478.478 0 0 1 .247.42c0 .247-.157.43-.453.514l.447.56c.183.232.252.283.377.283h.062v.087h-.55l-.712-.894h-.128v.58Zm0-.718h.03c.338 0 .541-.145.541-.392 0-.219-.162-.374-.407-.374a.525.525 0 0 0-.164.024v.742Z"/>
</svg>