<svg xmlns="http://www.w3.org/2000/svg" xmlns:xlink="http://www.w3.org/1999/xlink" width="1200" zoomAndPan="magnify" viewBox="0 0 900 225" height="300" preserveAspectRatio="xMidYMid meet" version="1.0"><defs><g/><clipPath id="3b9a636ea8"><rect x="0" width="452" y="0" height="225"/></clipPath><clipPath id="f617f22951"><path d="M 778.207031 176.738281 L 792.445312 176.738281 L 792.445312 190.976562 L 778.207031 190.976562 Z M 778.207031 176.738281 " clip-rule="nonzero"/></clipPath><clipPath id="4e2c56ec5f"><path d="M 785.328125 176.738281 C 781.394531 176.738281 778.207031 179.925781 778.207031 183.859375 C 778.207031 187.789062 781.394531 190.976562 785.328125 190.976562 C 789.257812 190.976562 792.445312 187.789062 792.445312 183.859375 C 792.445312 179.925781 789.257812 176.738281 785.328125 176.738281 Z M 785.328125 176.738281 " clip-rule="nonzero"/></clipPath><clipPath id="911dc98247"><path d="M 0.207031 0.738281 L 14.445312 0.738281 L 14.445312 14.976562 L 0.207031 14.976562 Z M 0.207031 0.738281 " clip-rule="nonzero"/></clipPath><clipPath id="6e31d72085"><path d="M 7.328125 0.738281 C 3.394531 0.738281 0.207031 3.925781 0.207031 7.859375 C 0.207031 11.789062 3.394531 14.976562 7.328125 14.976562 C 11.257812 14.976562 14.445312 11.789062 14.445312 7.859375 C 14.445312 3.925781 11.257812 0.738281 7.328125 0.738281 Z M 7.328125 0.738281 " clip-rule="nonzero"/></clipPath><clipPath id="5b28a4fbca"><rect x="0" width="15" y="0" height="15"/></clipPath><clipPath id="b420fe4b98"><rect x="0" width="315" y="0" height="41"/></clipPath><clipPath id="c882e82401"><rect x="0" width="425" y="0" height="182"/></clipPath></defs><g transform="matrix(1, 0, 0, 1, 19, -0.000000000000008531)"><g clip-path="url(#3b9a636ea8)"><g fill="#a38344" fill-opacity="1"><g transform="translate(0.303686, 189.907006)"><g><path d="M 73.1875 -149.453125 C 97.457031 -149.453125 115.976562 -143.179688 128.75 -130.640625 C 141.53125 -118.097656 147.921875 -99.460938 147.921875 -74.734375 C 147.921875 -50.054688 141.53125 -31.429688 128.75 -18.859375 C 115.976562 -6.285156 97.457031 0 73.1875 0 L 19.421875 0 L 19.421875 -149.453125 Z M 71.453125 -24.84375 C 86.859375 -24.84375 98.375 -28.773438 106 -36.640625 C 113.632812 -44.515625 117.453125 -57.210938 117.453125 -74.734375 C 117.453125 -92.242188 113.632812 -104.929688 106 -112.796875 C 98.375 -120.671875 86.859375 -124.609375 71.453125 -124.609375 L 48.96875 -124.609375 L 48.96875 -24.84375 Z M 71.453125 -24.84375 "/></g></g></g><g fill="#a38344" fill-opacity="1"><g transform="translate(150.218041, 189.907006)"><g><path d="M 48.96875 -149.453125 L 48.96875 -24.734375 L 116.125 -24.734375 L 116.125 0 L 19.421875 0 L 19.421875 -149.453125 Z M 48.96875 -149.453125 "/></g></g></g><g fill="#a38344" fill-opacity="1"><g transform="translate(261.3946, 189.907006)"><g><path d="M 73.1875 -149.453125 C 97.457031 -149.453125 115.976562 -143.179688 128.75 -130.640625 C 141.53125 -118.097656 147.921875 -99.460938 147.921875 -74.734375 C 147.921875 -50.054688 141.53125 -31.429688 128.75 -18.859375 C 115.976562 -6.285156 97.457031 0 73.1875 0 L 19.421875 0 L 19.421875 -149.453125 Z M 71.453125 -24.84375 C 86.859375 -24.84375 98.375 -28.773438 106 -36.640625 C 113.632812 -44.515625 117.453125 -57.210938 117.453125 -74.734375 C 117.453125 -92.242188 113.632812 -104.929688 106 -112.796875 C 98.375 -120.671875 86.859375 -124.609375 71.453125 -124.609375 L 48.96875 -124.609375 L 48.96875 -24.84375 Z M 71.453125 -24.84375 "/></g></g></g><g fill="#a38344" fill-opacity="1"><g transform="translate(411.312416, 189.907006)"><g/></g></g></g></g><g clip-path="url(#f617f22951)"><g clip-path="url(#4e2c56ec5f)"><g transform="matrix(1, 0, 0, 1, 778, 176)"><g clip-path="url(#5b28a4fbca)"><g clip-path="url(#911dc98247)"><g clip-path="url(#6e31d72085)"><path fill="#a38344" d="M 0.207031 0.738281 L 14.445312 0.738281 L 14.445312 14.976562 L 0.207031 14.976562 Z M 0.207031 0.738281 " fill-opacity="1" fill-rule="nonzero"/></g></g></g></g></g></g><g transform="matrix(1, 0, 0, 1, 466, 162)"><g clip-path="url(#b420fe4b98)"><g fill="#000000" fill-opacity="1"><g transform="translate(0.807774, 25.422661)"><g><path d="M 6.0625 -7.859375 L 6.0625 0 L 1.796875 0 L 1.796875 -21.234375 L 8.671875 -21.234375 C 11.160156 -21.234375 13.046875 -20.707031 14.328125 -19.65625 C 15.609375 -18.601562 16.25 -16.992188 16.25 -14.828125 C 16.25 -12.335938 15.609375 -10.550781 14.328125 -9.46875 C 13.046875 -8.394531 11.171875 -7.859375 8.703125 -7.859375 Z M 6.0625 -17.625 L 6.0625 -11.46875 L 8.703125 -11.46875 C 9.796875 -11.46875 10.613281 -11.691406 11.15625 -12.140625 C 11.707031 -12.597656 11.984375 -13.492188 11.984375 -14.828125 C 11.984375 -15.390625 11.910156 -15.847656 11.765625 -16.203125 C 11.628906 -16.554688 11.421875 -16.835938 11.140625 -17.046875 C 10.867188 -17.265625 10.53125 -17.414062 10.125 -17.5 C 9.71875 -17.582031 9.242188 -17.625 8.703125 -17.625 Z M 6.0625 -17.625 "/></g></g></g><g fill="#000000" fill-opacity="1"><g transform="translate(32.402427, 25.422661)"><g><path d="M 16.25 -15.1875 C 16.25 -13.46875 15.878906 -12.097656 15.140625 -11.078125 C 14.410156 -10.054688 13.328125 -9.359375 11.890625 -8.984375 L 17.140625 0 L 12.25 0 L 7.21875 -8.640625 L 6.0625 -8.640625 L 6.0625 0 L 1.796875 0 L 1.796875 -21.234375 L 9 -21.234375 C 11.394531 -21.234375 13.203125 -20.703125 14.421875 -19.640625 C 15.640625 -18.578125 16.25 -17.09375 16.25 -15.1875 Z M 6.0625 -17.625 L 6.0625 -12.25 L 9 -12.25 C 10.019531 -12.25 10.769531 -12.445312 11.25 -12.84375 C 11.738281 -13.238281 11.984375 -13.984375 11.984375 -15.078125 C 11.984375 -15.835938 11.738281 -16.453125 11.25 -16.921875 C 10.769531 -17.390625 10.019531 -17.625 9 -17.625 Z M 6.0625 -17.625 "/></g></g></g><g fill="#000000" fill-opacity="1"><g transform="translate(63.966772, 25.422661)"><g><path d="M 10.734375 0.296875 C 9.316406 0.296875 8.03125 0.117188 6.875 -0.234375 C 5.726562 -0.585938 4.742188 -1.1875 3.921875 -2.03125 C 3.109375 -2.882812 2.472656 -4.003906 2.015625 -5.390625 C 1.554688 -6.785156 1.328125 -8.523438 1.328125 -10.609375 C 1.328125 -12.691406 1.554688 -14.429688 2.015625 -15.828125 C 2.472656 -17.222656 3.109375 -18.34375 3.921875 -19.1875 C 4.742188 -20.039062 5.726562 -20.644531 6.875 -21 C 8.03125 -21.351562 9.316406 -21.53125 10.734375 -21.53125 C 12.148438 -21.53125 13.4375 -21.351562 14.59375 -21 C 15.757812 -20.644531 16.75 -20.039062 17.5625 -19.1875 C 18.382812 -18.34375 19.023438 -17.222656 19.484375 -15.828125 C 19.941406 -14.429688 20.171875 -12.691406 20.171875 -10.609375 C 20.171875 -8.523438 19.941406 -6.785156 19.484375 -5.390625 C 19.023438 -4.003906 18.382812 -2.882812 17.5625 -2.03125 C 16.75 -1.1875 15.757812 -0.585938 14.59375 -0.234375 C 13.4375 0.117188 12.148438 0.296875 10.734375 0.296875 Z M 10.734375 -3.3125 C 11.503906 -3.3125 12.207031 -3.421875 12.84375 -3.640625 C 13.476562 -3.859375 14.019531 -4.242188 14.46875 -4.796875 C 14.925781 -5.359375 15.273438 -6.109375 15.515625 -7.046875 C 15.765625 -7.992188 15.890625 -9.179688 15.890625 -10.609375 C 15.890625 -12.046875 15.765625 -13.234375 15.515625 -14.171875 C 15.273438 -15.117188 14.925781 -15.867188 14.46875 -16.421875 C 14.019531 -16.972656 13.476562 -17.359375 12.84375 -17.578125 C 12.207031 -17.804688 11.503906 -17.921875 10.734375 -17.921875 C 9.960938 -17.921875 9.265625 -17.804688 8.640625 -17.578125 C 8.015625 -17.359375 7.472656 -16.972656 7.015625 -16.421875 C 6.566406 -15.867188 6.21875 -15.117188 5.96875 -14.171875 C 5.726562 -13.234375 5.609375 -12.046875 5.609375 -10.609375 C 5.609375 -9.179688 5.726562 -7.992188 5.96875 -7.046875 C 6.21875 -6.109375 6.566406 -5.359375 7.015625 -4.796875 C 7.472656 -4.242188 8.015625 -3.859375 8.640625 -3.640625 C 9.265625 -3.421875 9.960938 -3.3125 10.734375 -3.3125 Z M 10.734375 -3.3125 "/></g></g></g><g fill="#000000" fill-opacity="1"><g transform="translate(99.350565, 25.422661)"><g><path d="M 6.0625 -7.859375 L 6.0625 0 L 1.796875 0 L 1.796875 -21.234375 L 8.671875 -21.234375 C 11.160156 -21.234375 13.046875 -20.707031 14.328125 -19.65625 C 15.609375 -18.601562 16.25 -16.992188 16.25 -14.828125 C 16.25 -12.335938 15.609375 -10.550781 14.328125 -9.46875 C 13.046875 -8.394531 11.171875 -7.859375 8.703125 -7.859375 Z M 6.0625 -17.625 L 6.0625 -11.46875 L 8.703125 -11.46875 C 9.796875 -11.46875 10.613281 -11.691406 11.15625 -12.140625 C 11.707031 -12.597656 11.984375 -13.492188 11.984375 -14.828125 C 11.984375 -15.390625 11.910156 -15.847656 11.765625 -16.203125 C 11.628906 -16.554688 11.421875 -16.835938 11.140625 -17.046875 C 10.867188 -17.265625 10.53125 -17.414062 10.125 -17.5 C 9.71875 -17.582031 9.242188 -17.625 8.703125 -17.625 Z M 6.0625 -17.625 "/></g></g></g><g fill="#000000" fill-opacity="1"><g transform="translate(130.945218, 25.422661)"><g><path d="M 6.0625 -8.828125 L 6.0625 -3.609375 L 15.890625 -3.609375 L 15.890625 0 L 1.796875 0 L 1.796875 -21.234375 L 15.59375 -21.234375 L 15.59375 -17.625 L 6.0625 -17.625 L 6.0625 -12.4375 L 15.140625 -12.4375 L 15.140625 -8.828125 Z M 6.0625 -8.828125 "/></g></g></g><g fill="#000000" fill-opacity="1"><g transform="translate(161.93363, 25.422661)"><g><path d="M 16.25 -15.1875 C 16.25 -13.46875 15.878906 -12.097656 15.140625 -11.078125 C 14.410156 -10.054688 13.328125 -9.359375 11.890625 -8.984375 L 17.140625 0 L 12.25 0 L 7.21875 -8.640625 L 6.0625 -8.640625 L 6.0625 0 L 1.796875 0 L 1.796875 -21.234375 L 9 -21.234375 C 11.394531 -21.234375 13.203125 -20.703125 14.421875 -19.640625 C 15.640625 -18.578125 16.25 -17.09375 16.25 -15.1875 Z M 6.0625 -17.625 L 6.0625 -12.25 L 9 -12.25 C 10.019531 -12.25 10.769531 -12.445312 11.25 -12.84375 C 11.738281 -13.238281 11.984375 -13.984375 11.984375 -15.078125 C 11.984375 -15.835938 11.738281 -16.453125 11.25 -16.921875 C 10.769531 -17.390625 10.019531 -17.625 9 -17.625 Z M 6.0625 -17.625 "/></g></g></g><g fill="#000000" fill-opacity="1"><g transform="translate(193.497974, 25.422661)"><g><path d="M 11.046875 -17.625 L 11.046875 0 L 6.765625 0 L 6.765625 -17.625 L 1.09375 -17.625 L 1.09375 -21.234375 L 16.703125 -21.234375 L 16.703125 -17.625 Z M 11.046875 -17.625 "/></g></g></g><g fill="#000000" fill-opacity="1"><g transform="translate(225.213898, 25.422661)"><g><path d="M 10.09375 -17.625 L 7.921875 -17.625 L 7.921875 -3.609375 L 10.09375 -3.609375 L 10.09375 0 L 1.453125 0 L 1.453125 -3.609375 L 3.640625 -3.609375 L 3.640625 -17.625 L 1.453125 -17.625 L 1.453125 -21.234375 L 10.09375 -21.234375 Z M 10.09375 -17.625 "/></g></g></g><g fill="#000000" fill-opacity="1"><g transform="translate(250.685333, 25.422661)"><g><path d="M 6.0625 -8.828125 L 6.0625 -3.609375 L 15.890625 -3.609375 L 15.890625 0 L 1.796875 0 L 1.796875 -21.234375 L 15.59375 -21.234375 L 15.59375 -17.625 L 6.0625 -17.625 L 6.0625 -12.4375 L 15.140625 -12.4375 L 15.140625 -8.828125 Z M 6.0625 -8.828125 "/></g></g></g><g fill="#000000" fill-opacity="1"><g transform="translate(281.673744, 25.422661)"><g><path d="M 16.984375 -6.1875 C 16.984375 -4.957031 16.773438 -3.925781 16.359375 -3.09375 C 15.941406 -2.257812 15.367188 -1.585938 14.640625 -1.078125 C 13.921875 -0.578125 13.070312 -0.222656 12.09375 -0.015625 C 11.125 0.191406 10.09375 0.296875 9 0.296875 C 7.488281 0.296875 6.066406 0.101562 4.734375 -0.28125 C 3.398438 -0.675781 2.21875 -1.171875 1.1875 -1.765625 L 2.84375 -5.1875 C 3.414062 -4.820312 3.9375 -4.515625 4.40625 -4.265625 C 4.882812 -4.023438 5.359375 -3.832031 5.828125 -3.6875 C 6.304688 -3.550781 6.796875 -3.453125 7.296875 -3.390625 C 7.804688 -3.335938 8.367188 -3.3125 8.984375 -3.3125 C 10.066406 -3.3125 10.957031 -3.507812 11.65625 -3.90625 C 12.351562 -4.3125 12.703125 -5.03125 12.703125 -6.0625 C 12.703125 -6.632812 12.546875 -7.085938 12.234375 -7.421875 C 11.921875 -7.753906 11.503906 -8.023438 10.984375 -8.234375 C 10.472656 -8.441406 9.890625 -8.617188 9.234375 -8.765625 C 8.578125 -8.910156 7.90625 -9.070312 7.21875 -9.25 C 6.53125 -9.425781 5.859375 -9.65625 5.203125 -9.9375 C 4.546875 -10.226562 3.957031 -10.617188 3.4375 -11.109375 C 2.925781 -11.609375 2.515625 -12.238281 2.203125 -13 C 1.890625 -13.757812 1.734375 -14.703125 1.734375 -15.828125 C 1.734375 -16.796875 1.921875 -17.640625 2.296875 -18.359375 C 2.679688 -19.078125 3.207031 -19.671875 3.875 -20.140625 C 4.550781 -20.617188 5.335938 -20.96875 6.234375 -21.1875 C 7.128906 -21.414062 8.09375 -21.53125 9.125 -21.53125 C 10.644531 -21.53125 12.007812 -21.367188 13.21875 -21.046875 C 14.4375 -20.722656 15.53125 -20.328125 16.5 -19.859375 L 15.078125 -16.46875 C 14.347656 -16.851562 13.488281 -17.191406 12.5 -17.484375 C 11.507812 -17.773438 10.382812 -17.921875 9.125 -17.921875 C 8.238281 -17.921875 7.492188 -17.75 6.890625 -17.40625 C 6.296875 -17.0625 6 -16.535156 6 -15.828125 C 6 -14.984375 6.269531 -14.351562 6.8125 -13.9375 C 7.363281 -13.519531 8.039062 -13.195312 8.84375 -12.96875 C 9.65625 -12.75 10.535156 -12.546875 11.484375 -12.359375 C 12.441406 -12.171875 13.320312 -11.863281 14.125 -11.4375 C 14.9375 -11.007812 15.613281 -10.390625 16.15625 -9.578125 C 16.707031 -8.773438 16.984375 -7.644531 16.984375 -6.1875 Z M 16.984375 -6.1875 "/></g></g></g></g></g><g transform="matrix(1, 0, 0, 1, 455, 3)"><g clip-path="url(#c882e82401)"><g fill="#000000" fill-opacity="1"><g transform="translate(0.79376, 140.725235)"><g><path d="M 29.546875 0 L 12.34375 0 L 12.34375 -94.9375 L 36.890625 -94.9375 L 60.921875 -25.125 L 62.28125 -25.125 L 86.171875 -94.9375 L 110.140625 -94.9375 L 110.140625 0 L 92.34375 0 L 92.34375 -62.734375 L 90.71875 -63 L 68.765625 0 L 53.125 0 L 31.171875 -63 L 29.546875 -62.734375 Z M 29.546875 0 "/></g></g></g><g fill="#000000" fill-opacity="1"><g transform="translate(117.071959, 140.725235)"><g><path d="M 27.921875 1.359375 C 23.335938 1.359375 19.351562 0.515625 15.96875 -1.171875 C 12.59375 -2.859375 9.992188 -5.335938 8.171875 -8.609375 C 6.359375 -11.878906 5.453125 -15.804688 5.453125 -20.390625 C 5.453125 -24.628906 6.359375 -28.1875 8.171875 -31.0625 C 9.992188 -33.945312 12.8125 -36.304688 16.625 -38.140625 C 20.4375 -39.984375 25.414062 -41.40625 31.5625 -42.40625 C 35.84375 -43.101562 39.097656 -43.859375 41.328125 -44.671875 C 43.566406 -45.492188 45.070312 -46.425781 45.84375 -47.46875 C 46.625 -48.507812 47.015625 -49.832031 47.015625 -51.4375 C 47.015625 -53.726562 46.210938 -55.476562 44.609375 -56.6875 C 43.015625 -57.90625 40.351562 -58.515625 36.625 -58.515625 C 32.644531 -58.515625 28.859375 -57.625 25.265625 -55.84375 C 21.671875 -54.070312 18.550781 -51.738281 15.90625 -48.84375 L 14.609375 -48.84375 L 7.078125 -60.203125 C 10.710938 -64.222656 15.148438 -67.359375 20.390625 -69.609375 C 25.628906 -71.867188 31.34375 -73 37.53125 -73 C 47.019531 -73 53.882812 -70.984375 58.125 -66.953125 C 62.363281 -62.929688 64.484375 -57.21875 64.484375 -49.8125 L 64.484375 -18.703125 C 64.484375 -15.492188 65.890625 -13.890625 68.703125 -13.890625 C 69.785156 -13.890625 70.847656 -14.085938 71.890625 -14.484375 L 72.796875 -14.21875 L 74.09375 -1.6875 C 73.101562 -1.039062 71.71875 -0.507812 69.9375 -0.09375 C 68.164062 0.3125 66.21875 0.515625 64.09375 0.515625 C 59.8125 0.515625 56.46875 -0.304688 54.0625 -1.953125 C 51.65625 -3.597656 49.9375 -6.171875 48.90625 -9.671875 L 47.53125 -9.8125 C 44.03125 -2.363281 37.492188 1.359375 27.921875 1.359375 Z M 33.640625 -12.078125 C 37.796875 -12.078125 41.117188 -13.472656 43.609375 -16.265625 C 46.097656 -19.054688 47.34375 -22.941406 47.34375 -27.921875 L 47.34375 -35.203125 L 46.109375 -35.453125 C 45.023438 -34.585938 43.601562 -33.863281 41.84375 -33.28125 C 40.09375 -32.695312 37.578125 -32.125 34.296875 -31.5625 C 30.390625 -30.914062 27.582031 -29.800781 25.875 -28.21875 C 24.164062 -26.632812 23.3125 -24.394531 23.3125 -21.5 C 23.3125 -18.425781 24.21875 -16.085938 26.03125 -14.484375 C 27.851562 -12.878906 30.390625 -12.078125 33.640625 -12.078125 Z M 33.640625 -12.078125 "/></g></g></g><g fill="#000000" fill-opacity="1"><g transform="translate(186.338136, 140.725235)"><g><path d="M 33.515625 1.359375 C 28.617188 1.359375 24.132812 0.785156 20.0625 -0.359375 C 16 -1.503906 12.523438 -3.082031 9.640625 -5.09375 C 6.765625 -7.113281 4.632812 -9.421875 3.25 -12.015625 L 13.25 -22.796875 L 14.609375 -22.796875 C 16.992188 -19.585938 19.804688 -17.179688 23.046875 -15.578125 C 26.296875 -13.984375 29.828125 -13.1875 33.640625 -13.1875 C 37.148438 -13.1875 39.789062 -13.8125 41.5625 -15.0625 C 43.332031 -16.320312 44.21875 -18.117188 44.21875 -20.453125 C 44.21875 -22.273438 43.578125 -23.800781 42.296875 -25.03125 C 41.023438 -26.269531 38.960938 -27.234375 36.109375 -27.921875 L 26.625 -30.203125 C 19.519531 -31.890625 14.332031 -34.472656 11.0625 -37.953125 C 7.800781 -41.441406 6.171875 -45.867188 6.171875 -51.234375 C 6.171875 -55.691406 7.304688 -59.566406 9.578125 -62.859375 C 11.847656 -66.148438 15.050781 -68.660156 19.1875 -70.390625 C 23.320312 -72.128906 28.140625 -73 33.640625 -73 C 40.085938 -73 45.429688 -72.066406 49.671875 -70.203125 C 53.921875 -68.335938 57.234375 -65.847656 59.609375 -62.734375 L 50 -52.34375 L 48.703125 -52.34375 C 46.710938 -54.59375 44.472656 -56.238281 41.984375 -57.28125 C 39.492188 -58.320312 36.710938 -58.84375 33.640625 -58.84375 C 26.535156 -58.84375 22.984375 -56.632812 22.984375 -52.21875 C 22.984375 -50.351562 23.644531 -48.832031 24.96875 -47.65625 C 26.289062 -46.488281 28.617188 -45.539062 31.953125 -44.8125 L 40.78125 -42.859375 C 48.050781 -41.304688 53.363281 -38.804688 56.71875 -35.359375 C 60.082031 -31.921875 61.765625 -27.300781 61.765625 -21.5 C 61.765625 -16.945312 60.632812 -12.9375 58.375 -9.46875 C 56.125 -6.007812 52.878906 -3.335938 48.640625 -1.453125 C 44.398438 0.421875 39.359375 1.359375 33.515625 1.359375 Z M 33.515625 1.359375 "/></g></g></g><g fill="#000000" fill-opacity="1"><g transform="translate(246.123988, 140.725235)"><g><path d="M 49.421875 -17.078125 L 54.09375 -3.765625 C 52.144531 -2.160156 49.695312 -0.90625 46.75 0 C 43.8125 0.90625 40.476562 1.359375 36.75 1.359375 C 29 1.359375 23.109375 -0.75 19.078125 -4.96875 C 15.054688 -9.1875 13.046875 -15.320312 13.046875 -23.375 L 13.046875 -57.40625 L 2.140625 -57.40625 L 2.140625 -71.703125 L 13.046875 -71.703125 L 13.046875 -85.65625 L 31.046875 -88.578125 L 31.046875 -71.703125 L 51.375 -71.703125 L 51.375 -57.40625 L 31.046875 -57.40625 L 31.046875 -24.671875 C 31.046875 -21.128906 31.78125 -18.546875 33.25 -16.921875 C 34.71875 -15.296875 36.859375 -14.484375 39.671875 -14.484375 C 42.878906 -14.484375 45.675781 -15.347656 48.0625 -17.078125 Z M 49.421875 -17.078125 "/></g></g></g><g fill="#000000" fill-opacity="1"><g transform="translate(295.520443, 140.725235)"><g><path d="M 70.78125 -31.75 L 24.75 -31.75 C 25.257812 -25.519531 27.03125 -20.984375 30.0625 -18.140625 C 33.09375 -15.304688 37.226562 -13.890625 42.46875 -13.890625 C 46.582031 -13.890625 49.914062 -14.660156 52.46875 -16.203125 C 55.019531 -17.742188 57.078125 -20.070312 58.640625 -23.1875 L 60 -23.1875 L 71.953125 -15.515625 C 69.617188 -10.492188 66.09375 -6.425781 61.375 -3.3125 C 56.65625 -0.195312 50.351562 1.359375 42.46875 1.359375 C 35.0625 1.359375 28.664062 -0.046875 23.28125 -2.859375 C 17.894531 -5.671875 13.738281 -9.859375 10.8125 -15.421875 C 7.882812 -20.984375 6.421875 -27.769531 6.421875 -35.78125 C 6.421875 -43.914062 7.957031 -50.773438 11.03125 -56.359375 C 14.113281 -61.953125 18.269531 -66.125 23.5 -68.875 C 28.738281 -71.625 34.628906 -73 41.171875 -73 C 51.304688 -73 59.066406 -70.3125 64.453125 -64.9375 C 69.847656 -59.570312 72.546875 -51.691406 72.546875 -41.296875 C 72.546875 -37.535156 72.414062 -34.613281 72.15625 -32.53125 Z M 55.328125 -43.375 C 55.160156 -48.832031 53.894531 -52.804688 51.53125 -55.296875 C 49.164062 -57.785156 45.710938 -59.03125 41.171875 -59.03125 C 32.078125 -59.03125 26.726562 -53.8125 25.125 -43.375 Z M 55.328125 -43.375 "/></g></g></g><g fill="#000000" fill-opacity="1"><g transform="translate(367.124234, 140.725235)"><g><path d="M 10.328125 0 L 10.328125 -71.625 L 27.796875 -71.625 L 27.796875 -60.984375 L 29.15625 -60.71875 C 30.882812 -64.695312 33.15625 -67.617188 35.96875 -69.484375 C 38.789062 -71.347656 42.210938 -72.28125 46.234375 -72.28125 C 50.304688 -72.28125 53.40625 -71.585938 55.53125 -70.203125 L 52.46875 -54.6875 L 51.109375 -54.421875 C 49.941406 -54.898438 48.816406 -55.242188 47.734375 -55.453125 C 46.648438 -55.671875 45.328125 -55.78125 43.765625 -55.78125 C 38.742188 -55.78125 34.910156 -54.015625 32.265625 -50.484375 C 29.628906 -46.960938 28.3125 -41.304688 28.3125 -33.515625 L 28.3125 0 Z M 10.328125 0 "/></g></g></g></g></g><g fill="#a38344" fill-opacity="1"><g transform="translate(804.763262, 190.921041)"><g><path d="M 11.34375 0 C 11.25 -0.25 11.171875 -0.507812 11.109375 -0.78125 C 11.054688 -1.050781 11.019531 -1.347656 11 -1.671875 C 10.40625 -0.984375 9.71875 -0.472656 8.9375 -0.140625 C 8.15625 0.179688 7.34375 0.34375 6.5 0.34375 C 4.664062 0.34375 3.265625 -0.125 2.296875 -1.0625 C 1.328125 -2.007812 0.84375 -3.367188 0.84375 -5.140625 C 0.84375 -6.160156 1.03125 -7.003906 1.40625 -7.671875 C 1.78125 -8.347656 2.289062 -8.878906 2.9375 -9.265625 C 3.59375 -9.648438 4.347656 -9.914062 5.203125 -10.0625 C 6.066406 -10.207031 6.976562 -10.28125 7.9375 -10.28125 C 8.457031 -10.28125 8.976562 -10.257812 9.5 -10.21875 C 10.019531 -10.175781 10.519531 -10.117188 11 -10.046875 L 11 -11.3125 C 11 -12.007812 10.800781 -12.515625 10.40625 -12.828125 C 10.007812 -13.148438 9.484375 -13.3125 8.828125 -13.3125 C 8.234375 -13.3125 7.773438 -13.171875 7.453125 -12.890625 C 7.140625 -12.609375 6.925781 -12.25 6.8125 -11.8125 L 1.59375 -12.4375 C 1.738281 -13.207031 2.023438 -13.898438 2.453125 -14.515625 C 2.878906 -15.128906 3.410156 -15.644531 4.046875 -16.0625 C 4.679688 -16.476562 5.414062 -16.800781 6.25 -17.03125 C 7.082031 -17.257812 7.953125 -17.375 8.859375 -17.375 C 9.804688 -17.375 10.703125 -17.253906 11.546875 -17.015625 C 12.390625 -16.773438 13.128906 -16.410156 13.765625 -15.921875 C 14.398438 -15.429688 14.898438 -14.816406 15.265625 -14.078125 C 15.628906 -13.347656 15.8125 -12.484375 15.8125 -11.484375 L 15.8125 -6.03125 C 15.8125 -4.894531 15.832031 -3.851562 15.875 -2.90625 C 15.914062 -1.96875 16.015625 -1 16.171875 0 Z M 8.890625 -6.953125 C 7.910156 -6.953125 7.125 -6.828125 6.53125 -6.578125 C 5.945312 -6.328125 5.65625 -5.835938 5.65625 -5.109375 C 5.65625 -4.628906 5.816406 -4.273438 6.140625 -4.046875 C 6.472656 -3.828125 6.910156 -3.71875 7.453125 -3.71875 C 7.929688 -3.71875 8.382812 -3.796875 8.8125 -3.953125 C 9.25 -4.109375 9.625 -4.328125 9.9375 -4.609375 C 10.257812 -4.898438 10.515625 -5.242188 10.703125 -5.640625 C 10.898438 -6.035156 11 -6.472656 11 -6.953125 Z M 8.890625 -6.953125 "/></g></g></g><g fill="#a38344" fill-opacity="1"><g transform="translate(838.177137, 190.921041)"><g><path d="M 17.640625 -1.328125 C 16.460938 -0.765625 15.3125 -0.34375 14.1875 -0.0625 C 13.0625 0.207031 11.96875 0.34375 10.90625 0.34375 C 9.445312 0.34375 8.140625 0.140625 6.984375 -0.265625 C 5.828125 -0.679688 4.84375 -1.269531 4.03125 -2.03125 C 3.226562 -2.789062 2.609375 -3.71875 2.171875 -4.8125 C 1.742188 -5.914062 1.53125 -7.148438 1.53125 -8.515625 C 1.53125 -9.859375 1.707031 -11.066406 2.0625 -12.140625 C 2.414062 -13.222656 2.945312 -14.15625 3.65625 -14.9375 C 4.375 -15.71875 5.257812 -16.316406 6.3125 -16.734375 C 7.375 -17.160156 8.609375 -17.375 10.015625 -17.375 C 11.359375 -17.375 12.519531 -17.164062 13.5 -16.75 C 14.488281 -16.34375 15.3125 -15.78125 15.96875 -15.0625 C 16.632812 -14.351562 17.128906 -13.503906 17.453125 -12.515625 C 17.785156 -11.523438 17.953125 -10.441406 17.953125 -9.265625 L 17.953125 -6.75 L 6.5 -6.75 C 6.75 -5.789062 7.234375 -5.046875 7.953125 -4.515625 C 8.671875 -3.984375 9.6875 -3.71875 11 -3.71875 C 12.476562 -3.71875 14.179688 -4.179688 16.109375 -5.109375 Z M 10.015625 -13.3125 C 9.109375 -13.3125 8.375 -13.078125 7.8125 -12.609375 C 7.257812 -12.148438 6.859375 -11.5 6.609375 -10.65625 L 13.109375 -10.65625 C 13.046875 -11.59375 12.726562 -12.269531 12.15625 -12.6875 C 11.59375 -13.101562 10.878906 -13.3125 10.015625 -13.3125 Z M 10.015625 -13.3125 "/></g></g></g></svg>