<svg xmlns="http://www.w3.org/2000/svg" xmlns:xlink="http://www.w3.org/1999/xlink" width="262" zoomAndPan="magnify" viewBox="0 0 196.5 36.000001" height="48" preserveAspectRatio="xMidYMid meet" version="1.0"><defs><g/><clipPath id="65f75a36e9"><path d="M 2.414062 0 L 192 0 L 192 35.027344 L 2.414062 35.027344 Z M 2.414062 0 " clip-rule="nonzero"/></clipPath><clipPath id="a1eacf0b2e"><path d="M 0.414062 0 L 99 0 L 99 35.027344 L 0.414062 35.027344 Z M 0.414062 0 " clip-rule="nonzero"/></clipPath><clipPath id="a4a8357c33"><rect x="0" width="99" y="0" height="36"/></clipPath><clipPath id="26c76870b0"><path d="M 167.230469 30.640625 L 170.402344 30.640625 L 170.402344 33.808594 L 167.230469 33.808594 Z M 167.230469 30.640625 " clip-rule="nonzero"/></clipPath><clipPath id="46045f45bf"><path d="M 168.816406 30.640625 C 167.941406 30.640625 167.230469 31.347656 167.230469 32.222656 C 167.230469 33.097656 167.941406 33.808594 168.816406 33.808594 C 169.691406 33.808594 170.402344 33.097656 170.402344 32.222656 C 170.402344 31.347656 169.691406 30.640625 168.816406 30.640625 Z M 168.816406 30.640625 " clip-rule="nonzero"/></clipPath><clipPath id="9692f3a365"><path d="M 0.230469 0.640625 L 3.402344 0.640625 L 3.402344 3.808594 L 0.230469 3.808594 Z M 0.230469 0.640625 " clip-rule="nonzero"/></clipPath><clipPath id="a376e07194"><path d="M 1.816406 0.640625 C 0.941406 0.640625 0.230469 1.347656 0.230469 2.222656 C 0.230469 3.097656 0.941406 3.808594 1.816406 3.808594 C 2.691406 3.808594 3.402344 3.097656 3.402344 2.222656 C 3.402344 1.347656 2.691406 0.640625 1.816406 0.640625 Z M 1.816406 0.640625 " clip-rule="nonzero"/></clipPath><clipPath id="d96dd75cf6"><rect x="0" width="4" y="0" height="4"/></clipPath><clipPath id="05a63ebc3e"><path d="M 97 27 L 168 27 L 168 35.027344 L 97 35.027344 Z M 97 27 " clip-rule="nonzero"/></clipPath><clipPath id="67558fd37a"><rect x="0" width="71" y="0" height="9"/></clipPath><clipPath id="581200b74c"><path d="M 95 0 L 189.792969 0 L 189.792969 33 L 95 33 Z M 95 0 " clip-rule="nonzero"/></clipPath><clipPath id="84d447f477"><path d="M 84 7 L 94.792969 7 L 94.792969 24 L 84 24 Z M 84 7 " clip-rule="nonzero"/></clipPath><clipPath id="5cdf7b554f"><rect x="0" width="95" y="0" height="33"/></clipPath><clipPath id="4a12e0b65d"><path d="M 172 26 L 189 26 L 189 35.027344 L 172 35.027344 Z M 172 26 " clip-rule="nonzero"/></clipPath><clipPath id="ca9c26ddca"><rect x="0" width="17" y="0" height="10"/></clipPath><clipPath id="0f85650bd9"><rect x="0" width="190" y="0" height="36"/></clipPath></defs><g clip-path="url(#65f75a36e9)"><g transform="matrix(1, 0, 0, 1, 2, 0.000000000000010582)"><g clip-path="url(#0f85650bd9)"><g clip-path="url(#a1eacf0b2e)"><g transform="matrix(1, 0, 0, 1, 0.000000000000000444, 0.000000000000010582)"><g clip-path="url(#a4a8357c33)"><g fill="#a38344" fill-opacity="1"><g transform="translate(-1.635212, 33.570172)"><g><path d="M 16.28125 -33.25 C 21.675781 -33.25 25.796875 -31.851562 28.640625 -29.0625 C 31.484375 -26.269531 32.90625 -22.125 32.90625 -16.625 C 32.90625 -11.132812 31.484375 -6.988281 28.640625 -4.1875 C 25.796875 -1.394531 21.675781 0 16.28125 0 L 4.328125 0 L 4.328125 -33.25 Z M 15.890625 -5.53125 C 19.316406 -5.53125 21.878906 -6.40625 23.578125 -8.15625 C 25.273438 -9.90625 26.125 -12.726562 26.125 -16.625 C 26.125 -20.519531 25.273438 -23.34375 23.578125 -25.09375 C 21.878906 -26.84375 19.316406 -27.71875 15.890625 -27.71875 L 10.890625 -27.71875 L 10.890625 -5.53125 Z M 15.890625 -5.53125 "/></g></g></g><g fill="#a38344" fill-opacity="1"><g transform="translate(31.722988, 33.570172)"><g><path d="M 10.890625 -33.25 L 10.890625 -5.5 L 25.84375 -5.5 L 25.84375 0 L 4.328125 0 L 4.328125 -33.25 Z M 10.890625 -33.25 "/></g></g></g><g fill="#a38344" fill-opacity="1"><g transform="translate(56.461445, 33.570172)"><g><path d="M 16.28125 -33.25 C 21.675781 -33.25 25.796875 -31.851562 28.640625 -29.0625 C 31.484375 -26.269531 32.90625 -22.125 32.90625 -16.625 C 32.90625 -11.132812 31.484375 -6.988281 28.640625 -4.1875 C 25.796875 -1.394531 21.675781 0 16.28125 0 L 4.328125 0 L 4.328125 -33.25 Z M 15.890625 -5.53125 C 19.316406 -5.53125 21.878906 -6.40625 23.578125 -8.15625 C 25.273438 -9.90625 26.125 -12.726562 26.125 -16.625 C 26.125 -20.519531 25.273438 -23.34375 23.578125 -25.09375 C 21.878906 -26.84375 19.316406 -27.71875 15.890625 -27.71875 L 10.890625 -27.71875 L 10.890625 -5.53125 Z M 15.890625 -5.53125 "/></g></g></g><g fill="#a38344" fill-opacity="1"><g transform="translate(89.820415, 33.570172)"><g/></g></g></g></g></g><g clip-path="url(#26c76870b0)"><g clip-path="url(#46045f45bf)"><g transform="matrix(1, 0, 0, 1, 167, 30)"><g clip-path="url(#d96dd75cf6)"><g clip-path="url(#9692f3a365)"><g clip-path="url(#a376e07194)"><path fill="#a38344" d="M 0.230469 0.640625 L 3.402344 0.640625 L 3.402344 3.808594 L 0.230469 3.808594 Z M 0.230469 0.640625 " fill-opacity="1" fill-rule="nonzero"/></g></g></g></g></g></g><g clip-path="url(#05a63ebc3e)"><g transform="matrix(1, 0, 0, 1, 97, 27)"><g clip-path="url(#67558fd37a)"><g fill="#000000" fill-opacity="1"><g transform="translate(0.941171, 6.017362)"><g><path d="M 1.34375 -1.75 L 1.34375 0 L 0.390625 0 L 0.390625 -4.71875 L 1.9375 -4.71875 C 2.488281 -4.71875 2.90625 -4.597656 3.1875 -4.359375 C 3.476562 -4.128906 3.625 -3.773438 3.625 -3.296875 C 3.625 -2.742188 3.476562 -2.347656 3.1875 -2.109375 C 2.90625 -1.867188 2.488281 -1.75 1.9375 -1.75 Z M 1.34375 -3.921875 L 1.34375 -2.546875 L 1.9375 -2.546875 C 2.175781 -2.546875 2.359375 -2.597656 2.484375 -2.703125 C 2.609375 -2.804688 2.671875 -3.003906 2.671875 -3.296875 C 2.671875 -3.421875 2.65625 -3.519531 2.625 -3.59375 C 2.59375 -3.675781 2.546875 -3.742188 2.484375 -3.796875 C 2.421875 -3.847656 2.34375 -3.878906 2.25 -3.890625 C 2.164062 -3.910156 2.0625 -3.921875 1.9375 -3.921875 Z M 1.34375 -3.921875 "/></g></g></g><g fill="#000000" fill-opacity="1"><g transform="translate(7.971456, 6.017362)"><g><path d="M 3.625 -3.375 C 3.625 -3 3.539062 -2.695312 3.375 -2.46875 C 3.207031 -2.238281 2.960938 -2.082031 2.640625 -2 L 3.8125 0 L 2.734375 0 L 1.609375 -1.921875 L 1.34375 -1.921875 L 1.34375 0 L 0.390625 0 L 0.390625 -4.71875 L 2 -4.71875 C 2.53125 -4.71875 2.929688 -4.597656 3.203125 -4.359375 C 3.484375 -4.128906 3.625 -3.800781 3.625 -3.375 Z M 1.34375 -3.921875 L 1.34375 -2.734375 L 2 -2.734375 C 2.226562 -2.734375 2.394531 -2.773438 2.5 -2.859375 C 2.613281 -2.941406 2.671875 -3.109375 2.671875 -3.359375 C 2.671875 -3.523438 2.613281 -3.660156 2.5 -3.765625 C 2.394531 -3.867188 2.226562 -3.921875 2 -3.921875 Z M 1.34375 -3.921875 "/></g></g></g><g fill="#000000" fill-opacity="1"><g transform="translate(14.994997, 6.017362)"><g><path d="M 2.390625 0.0625 C 2.078125 0.0625 1.789062 0.0234375 1.53125 -0.046875 C 1.269531 -0.128906 1.046875 -0.265625 0.859375 -0.453125 C 0.679688 -0.640625 0.539062 -0.890625 0.4375 -1.203125 C 0.34375 -1.515625 0.296875 -1.898438 0.296875 -2.359375 C 0.296875 -2.828125 0.34375 -3.210938 0.4375 -3.515625 C 0.539062 -3.828125 0.679688 -4.078125 0.859375 -4.265625 C 1.046875 -4.460938 1.269531 -4.597656 1.53125 -4.671875 C 1.789062 -4.753906 2.078125 -4.796875 2.390625 -4.796875 C 2.703125 -4.796875 2.988281 -4.753906 3.25 -4.671875 C 3.507812 -4.597656 3.726562 -4.460938 3.90625 -4.265625 C 4.09375 -4.078125 4.234375 -3.828125 4.328125 -3.515625 C 4.429688 -3.210938 4.484375 -2.828125 4.484375 -2.359375 C 4.484375 -1.898438 4.429688 -1.515625 4.328125 -1.203125 C 4.234375 -0.890625 4.09375 -0.640625 3.90625 -0.453125 C 3.726562 -0.265625 3.507812 -0.128906 3.25 -0.046875 C 2.988281 0.0234375 2.703125 0.0625 2.390625 0.0625 Z M 2.390625 -0.734375 C 2.554688 -0.734375 2.710938 -0.757812 2.859375 -0.8125 C 3.003906 -0.863281 3.125 -0.945312 3.21875 -1.0625 C 3.320312 -1.1875 3.398438 -1.351562 3.453125 -1.5625 C 3.503906 -1.78125 3.53125 -2.046875 3.53125 -2.359375 C 3.53125 -2.679688 3.503906 -2.945312 3.453125 -3.15625 C 3.398438 -3.363281 3.320312 -3.53125 3.21875 -3.65625 C 3.125 -3.78125 3.003906 -3.863281 2.859375 -3.90625 C 2.710938 -3.957031 2.554688 -3.984375 2.390625 -3.984375 C 2.222656 -3.984375 2.066406 -3.957031 1.921875 -3.90625 C 1.785156 -3.863281 1.664062 -3.78125 1.5625 -3.65625 C 1.457031 -3.53125 1.378906 -3.363281 1.328125 -3.15625 C 1.273438 -2.945312 1.25 -2.679688 1.25 -2.359375 C 1.25 -2.046875 1.273438 -1.78125 1.328125 -1.5625 C 1.378906 -1.351562 1.457031 -1.1875 1.5625 -1.0625 C 1.664062 -0.945312 1.785156 -0.863281 1.921875 -0.8125 C 2.066406 -0.757812 2.222656 -0.734375 2.390625 -0.734375 Z M 2.390625 -0.734375 "/></g></g></g><g fill="#000000" fill-opacity="1"><g transform="translate(22.868422, 6.017362)"><g><path d="M 1.34375 -1.75 L 1.34375 0 L 0.390625 0 L 0.390625 -4.71875 L 1.9375 -4.71875 C 2.488281 -4.71875 2.90625 -4.597656 3.1875 -4.359375 C 3.476562 -4.128906 3.625 -3.773438 3.625 -3.296875 C 3.625 -2.742188 3.476562 -2.347656 3.1875 -2.109375 C 2.90625 -1.867188 2.488281 -1.75 1.9375 -1.75 Z M 1.34375 -3.921875 L 1.34375 -2.546875 L 1.9375 -2.546875 C 2.175781 -2.546875 2.359375 -2.597656 2.484375 -2.703125 C 2.609375 -2.804688 2.671875 -3.003906 2.671875 -3.296875 C 2.671875 -3.421875 2.65625 -3.519531 2.625 -3.59375 C 2.59375 -3.675781 2.546875 -3.742188 2.484375 -3.796875 C 2.421875 -3.847656 2.34375 -3.878906 2.25 -3.890625 C 2.164062 -3.910156 2.0625 -3.921875 1.9375 -3.921875 Z M 1.34375 -3.921875 "/></g></g></g><g fill="#000000" fill-opacity="1"><g transform="translate(29.898707, 6.017362)"><g><path d="M 1.34375 -1.96875 L 1.34375 -0.796875 L 3.53125 -0.796875 L 3.53125 0 L 0.390625 0 L 0.390625 -4.71875 L 3.46875 -4.71875 L 3.46875 -3.921875 L 1.34375 -3.921875 L 1.34375 -2.765625 L 3.375 -2.765625 L 3.375 -1.96875 Z M 1.34375 -1.96875 "/></g></g></g><g fill="#000000" fill-opacity="1"><g transform="translate(36.794094, 6.017362)"><g><path d="M 3.625 -3.375 C 3.625 -3 3.539062 -2.695312 3.375 -2.46875 C 3.207031 -2.238281 2.960938 -2.082031 2.640625 -2 L 3.8125 0 L 2.734375 0 L 1.609375 -1.921875 L 1.34375 -1.921875 L 1.34375 0 L 0.390625 0 L 0.390625 -4.71875 L 2 -4.71875 C 2.53125 -4.71875 2.929688 -4.597656 3.203125 -4.359375 C 3.484375 -4.128906 3.625 -3.800781 3.625 -3.375 Z M 1.34375 -3.921875 L 1.34375 -2.734375 L 2 -2.734375 C 2.226562 -2.734375 2.394531 -2.773438 2.5 -2.859375 C 2.613281 -2.941406 2.671875 -3.109375 2.671875 -3.359375 C 2.671875 -3.523438 2.613281 -3.660156 2.5 -3.765625 C 2.394531 -3.867188 2.226562 -3.921875 2 -3.921875 Z M 1.34375 -3.921875 "/></g></g></g><g fill="#000000" fill-opacity="1"><g transform="translate(43.817635, 6.017362)"><g><path d="M 2.453125 -3.921875 L 2.453125 0 L 1.5 0 L 1.5 -3.921875 L 0.25 -3.921875 L 0.25 -4.71875 L 3.71875 -4.71875 L 3.71875 -3.921875 Z M 2.453125 -3.921875 "/></g></g></g><g fill="#000000" fill-opacity="1"><g transform="translate(50.874904, 6.017362)"><g><path d="M 2.25 -3.921875 L 1.765625 -3.921875 L 1.765625 -0.796875 L 2.25 -0.796875 L 2.25 0 L 0.328125 0 L 0.328125 -0.796875 L 0.8125 -0.796875 L 0.8125 -3.921875 L 0.328125 -3.921875 L 0.328125 -4.71875 L 2.25 -4.71875 Z M 2.25 -3.921875 "/></g></g></g><g fill="#000000" fill-opacity="1"><g transform="translate(56.542681, 6.017362)"><g><path d="M 1.34375 -1.96875 L 1.34375 -0.796875 L 3.53125 -0.796875 L 3.53125 0 L 0.390625 0 L 0.390625 -4.71875 L 3.46875 -4.71875 L 3.46875 -3.921875 L 1.34375 -3.921875 L 1.34375 -2.765625 L 3.375 -2.765625 L 3.375 -1.96875 Z M 1.34375 -1.96875 "/></g></g></g><g fill="#000000" fill-opacity="1"><g transform="translate(63.438068, 6.017362)"><g><path d="M 3.78125 -1.375 C 3.78125 -1.101562 3.734375 -0.875 3.640625 -0.6875 C 3.546875 -0.5 3.414062 -0.347656 3.25 -0.234375 C 3.09375 -0.128906 2.90625 -0.0507812 2.6875 0 C 2.476562 0.0390625 2.25 0.0625 2 0.0625 C 1.664062 0.0625 1.347656 0.0195312 1.046875 -0.0625 C 0.753906 -0.15625 0.492188 -0.265625 0.265625 -0.390625 L 0.640625 -1.15625 C 0.765625 -1.070312 0.878906 -1.003906 0.984375 -0.953125 C 1.085938 -0.898438 1.191406 -0.859375 1.296875 -0.828125 C 1.398438 -0.796875 1.507812 -0.769531 1.625 -0.75 C 1.738281 -0.738281 1.863281 -0.734375 2 -0.734375 C 2.238281 -0.734375 2.4375 -0.773438 2.59375 -0.859375 C 2.75 -0.953125 2.828125 -1.113281 2.828125 -1.34375 C 2.828125 -1.46875 2.789062 -1.566406 2.71875 -1.640625 C 2.65625 -1.722656 2.566406 -1.785156 2.453125 -1.828125 C 2.335938 -1.878906 2.207031 -1.921875 2.0625 -1.953125 C 1.914062 -1.984375 1.765625 -2.019531 1.609375 -2.0625 C 1.453125 -2.101562 1.300781 -2.15625 1.15625 -2.21875 C 1.007812 -2.28125 0.878906 -2.363281 0.765625 -2.46875 C 0.648438 -2.582031 0.554688 -2.722656 0.484375 -2.890625 C 0.421875 -3.054688 0.390625 -3.269531 0.390625 -3.53125 C 0.390625 -3.738281 0.429688 -3.921875 0.515625 -4.078125 C 0.597656 -4.242188 0.710938 -4.378906 0.859375 -4.484375 C 1.015625 -4.585938 1.191406 -4.664062 1.390625 -4.71875 C 1.585938 -4.769531 1.800781 -4.796875 2.03125 -4.796875 C 2.363281 -4.796875 2.664062 -4.757812 2.9375 -4.6875 C 3.207031 -4.613281 3.453125 -4.523438 3.671875 -4.421875 L 3.359375 -3.671875 C 3.191406 -3.753906 3 -3.828125 2.78125 -3.890625 C 2.5625 -3.953125 2.3125 -3.984375 2.03125 -3.984375 C 1.832031 -3.984375 1.664062 -3.945312 1.53125 -3.875 C 1.40625 -3.800781 1.34375 -3.6875 1.34375 -3.53125 C 1.34375 -3.332031 1.398438 -3.1875 1.515625 -3.09375 C 1.640625 -3.007812 1.789062 -2.941406 1.96875 -2.890625 C 2.144531 -2.835938 2.335938 -2.789062 2.546875 -2.75 C 2.765625 -2.707031 2.960938 -2.640625 3.140625 -2.546875 C 3.328125 -2.453125 3.476562 -2.3125 3.59375 -2.125 C 3.71875 -1.945312 3.78125 -1.695312 3.78125 -1.375 Z M 3.78125 -1.375 "/></g></g></g></g></g></g><g clip-path="url(#581200b74c)"><g transform="matrix(1, 0, 0, 1, 95, 0.000000000000010582)"><g clip-path="url(#5cdf7b554f)"><g fill="#000000" fill-opacity="1"><g transform="translate(0.490391, 23.294032)"><g><path d="M 6.578125 0 L 2.75 0 L 2.75 -21.125 L 8.203125 -21.125 L 13.546875 -5.59375 L 13.859375 -5.59375 L 19.171875 -21.125 L 24.5 -21.125 L 24.5 0 L 20.546875 0 L 20.546875 -13.953125 L 20.1875 -14.015625 L 15.296875 0 L 11.8125 0 L 6.9375 -14.015625 L 6.578125 -13.953125 Z M 6.578125 0 "/></g></g></g><g fill="#000000" fill-opacity="1"><g transform="translate(26.364038, 23.294032)"><g><path d="M 6.21875 0.296875 C 5.195312 0.296875 4.304688 0.109375 3.546875 -0.265625 C 2.796875 -0.640625 2.21875 -1.1875 1.8125 -1.90625 C 1.414062 -2.632812 1.21875 -3.507812 1.21875 -4.53125 C 1.21875 -5.476562 1.414062 -6.269531 1.8125 -6.90625 C 2.21875 -7.550781 2.84375 -8.078125 3.6875 -8.484375 C 4.539062 -8.898438 5.648438 -9.21875 7.015625 -9.4375 C 7.972656 -9.59375 8.695312 -9.757812 9.1875 -9.9375 C 9.6875 -10.125 10.023438 -10.332031 10.203125 -10.5625 C 10.378906 -10.789062 10.46875 -11.082031 10.46875 -11.4375 C 10.46875 -11.945312 10.285156 -12.335938 9.921875 -12.609375 C 9.566406 -12.878906 8.976562 -13.015625 8.15625 -13.015625 C 7.269531 -13.015625 6.425781 -12.816406 5.625 -12.421875 C 4.820312 -12.023438 4.128906 -11.503906 3.546875 -10.859375 L 3.25 -10.859375 L 1.578125 -13.390625 C 2.378906 -14.285156 3.363281 -14.984375 4.53125 -15.484375 C 5.695312 -15.984375 6.972656 -16.234375 8.359375 -16.234375 C 10.460938 -16.234375 11.984375 -15.785156 12.921875 -14.890625 C 13.867188 -13.992188 14.34375 -12.722656 14.34375 -11.078125 L 14.34375 -4.15625 C 14.34375 -3.445312 14.65625 -3.09375 15.28125 -3.09375 C 15.53125 -3.09375 15.769531 -3.132812 16 -3.21875 L 16.203125 -3.171875 L 16.484375 -0.375 C 16.265625 -0.226562 15.957031 -0.109375 15.5625 -0.015625 C 15.164062 0.0664062 14.734375 0.109375 14.265625 0.109375 C 13.304688 0.109375 12.5625 -0.0703125 12.03125 -0.4375 C 11.5 -0.800781 11.113281 -1.375 10.875 -2.15625 L 10.578125 -2.1875 C 9.796875 -0.53125 8.34375 0.296875 6.21875 0.296875 Z M 7.484375 -2.6875 C 8.410156 -2.6875 9.148438 -2.992188 9.703125 -3.609375 C 10.253906 -4.234375 10.53125 -5.101562 10.53125 -6.21875 L 10.53125 -7.828125 L 10.265625 -7.890625 C 10.015625 -7.691406 9.695312 -7.523438 9.3125 -7.390625 C 8.925781 -7.265625 8.363281 -7.140625 7.625 -7.015625 C 6.757812 -6.878906 6.132812 -6.632812 5.75 -6.28125 C 5.375 -5.925781 5.1875 -5.425781 5.1875 -4.78125 C 5.1875 -4.09375 5.390625 -3.570312 5.796875 -3.21875 C 6.203125 -2.863281 6.765625 -2.6875 7.484375 -2.6875 Z M 7.484375 -2.6875 "/></g></g></g><g fill="#000000" fill-opacity="1"><g transform="translate(41.776804, 23.294032)"><g><path d="M 7.453125 0.296875 C 6.367188 0.296875 5.375 0.171875 4.46875 -0.078125 C 3.5625 -0.335938 2.785156 -0.691406 2.140625 -1.140625 C 1.503906 -1.585938 1.03125 -2.097656 0.71875 -2.671875 L 2.953125 -5.078125 L 3.25 -5.078125 C 3.78125 -4.359375 4.40625 -3.820312 5.125 -3.46875 C 5.851562 -3.113281 6.640625 -2.9375 7.484375 -2.9375 C 8.265625 -2.9375 8.851562 -3.070312 9.25 -3.34375 C 9.644531 -3.625 9.84375 -4.023438 9.84375 -4.546875 C 9.84375 -4.953125 9.695312 -5.289062 9.40625 -5.5625 C 9.125 -5.84375 8.664062 -6.0625 8.03125 -6.21875 L 5.921875 -6.71875 C 4.347656 -7.09375 3.195312 -7.664062 2.46875 -8.4375 C 1.738281 -9.21875 1.375 -10.207031 1.375 -11.40625 C 1.375 -12.394531 1.625 -13.253906 2.125 -13.984375 C 2.632812 -14.710938 3.347656 -15.269531 4.265625 -15.65625 C 5.191406 -16.039062 6.265625 -16.234375 7.484375 -16.234375 C 8.921875 -16.234375 10.109375 -16.023438 11.046875 -15.609375 C 11.992188 -15.203125 12.734375 -14.648438 13.265625 -13.953125 L 11.125 -11.640625 L 10.84375 -11.640625 C 10.394531 -12.140625 9.894531 -12.503906 9.34375 -12.734375 C 8.789062 -12.972656 8.171875 -13.09375 7.484375 -13.09375 C 5.898438 -13.09375 5.109375 -12.601562 5.109375 -11.625 C 5.109375 -11.207031 5.253906 -10.867188 5.546875 -10.609375 C 5.847656 -10.347656 6.367188 -10.132812 7.109375 -9.96875 L 9.078125 -9.53125 C 10.691406 -9.1875 11.867188 -8.628906 12.609375 -7.859375 C 13.359375 -7.097656 13.734375 -6.070312 13.734375 -4.78125 C 13.734375 -3.769531 13.484375 -2.878906 12.984375 -2.109375 C 12.484375 -1.335938 11.757812 -0.742188 10.8125 -0.328125 C 9.875 0.0859375 8.753906 0.296875 7.453125 0.296875 Z M 7.453125 0.296875 "/></g></g></g><g fill="#000000" fill-opacity="1"><g transform="translate(55.080054, 23.294032)"><g><path d="M 11 -3.796875 L 12.03125 -0.84375 C 11.601562 -0.476562 11.0625 -0.195312 10.40625 0 C 9.75 0.195312 9.003906 0.296875 8.171875 0.296875 C 6.453125 0.296875 5.144531 -0.171875 4.25 -1.109375 C 3.351562 -2.046875 2.90625 -3.410156 2.90625 -5.203125 L 2.90625 -12.78125 L 0.484375 -12.78125 L 0.484375 -15.953125 L 2.90625 -15.953125 L 2.90625 -19.0625 L 6.90625 -19.703125 L 6.90625 -15.953125 L 11.4375 -15.953125 L 11.4375 -12.78125 L 6.90625 -12.78125 L 6.90625 -5.484375 C 6.90625 -4.703125 7.066406 -4.128906 7.390625 -3.765625 C 7.722656 -3.398438 8.203125 -3.21875 8.828125 -3.21875 C 9.535156 -3.21875 10.15625 -3.410156 10.6875 -3.796875 Z M 11 -3.796875 "/></g></g></g><g fill="#000000" fill-opacity="1"><g transform="translate(66.071508, 23.294032)"><g><path d="M 15.75 -7.0625 L 5.5 -7.0625 C 5.613281 -5.675781 6.007812 -4.664062 6.6875 -4.03125 C 7.363281 -3.40625 8.285156 -3.09375 9.453125 -3.09375 C 10.367188 -3.09375 11.109375 -3.265625 11.671875 -3.609375 C 12.242188 -3.953125 12.703125 -4.46875 13.046875 -5.15625 L 13.359375 -5.15625 L 16.015625 -3.453125 C 15.492188 -2.335938 14.707031 -1.429688 13.65625 -0.734375 C 12.601562 -0.046875 11.203125 0.296875 9.453125 0.296875 C 7.804688 0.296875 6.378906 -0.015625 5.171875 -0.640625 C 3.972656 -1.265625 3.050781 -2.191406 2.40625 -3.421875 C 1.757812 -4.660156 1.4375 -6.175781 1.4375 -7.96875 C 1.4375 -9.769531 1.773438 -11.289062 2.453125 -12.53125 C 3.140625 -13.78125 4.066406 -14.707031 5.234375 -15.3125 C 6.398438 -15.925781 7.707031 -16.234375 9.15625 -16.234375 C 11.414062 -16.234375 13.144531 -15.632812 14.34375 -14.4375 C 15.539062 -13.25 16.140625 -11.5 16.140625 -9.1875 C 16.140625 -8.351562 16.109375 -7.703125 16.046875 -7.234375 Z M 12.3125 -9.65625 C 12.269531 -10.863281 11.984375 -11.742188 11.453125 -12.296875 C 10.929688 -12.859375 10.164062 -13.140625 9.15625 -13.140625 C 7.132812 -13.140625 5.945312 -11.976562 5.59375 -9.65625 Z M 12.3125 -9.65625 "/></g></g></g><g clip-path="url(#84d447f477)"><g fill="#000000" fill-opacity="1"><g transform="translate(82.004428, 23.294032)"><g><path d="M 2.296875 0 L 2.296875 -15.9375 L 6.1875 -15.9375 L 6.1875 -13.5625 L 6.484375 -13.515625 C 6.867188 -14.398438 7.375 -15.046875 8 -15.453125 C 8.625 -15.867188 9.382812 -16.078125 10.28125 -16.078125 C 11.1875 -16.078125 11.878906 -15.925781 12.359375 -15.625 L 11.671875 -12.171875 L 11.375 -12.109375 C 11.113281 -12.210938 10.863281 -12.285156 10.625 -12.328125 C 10.382812 -12.378906 10.085938 -12.40625 9.734375 -12.40625 C 8.617188 -12.40625 7.765625 -12.015625 7.171875 -11.234375 C 6.585938 -10.453125 6.296875 -9.191406 6.296875 -7.453125 L 6.296875 0 Z M 2.296875 0 "/></g></g></g></g></g></g></g><g clip-path="url(#4a12e0b65d)"><g transform="matrix(1, 0, 0, 1, 172, 26)"><g clip-path="url(#ca9c26ddca)"><g fill="#a38344" fill-opacity="1"><g transform="translate(1.141336, 7.795808)"><g><path d="M 2.53125 0 C 2.507812 -0.0507812 2.488281 -0.109375 2.46875 -0.171875 C 2.457031 -0.234375 2.453125 -0.300781 2.453125 -0.375 C 2.316406 -0.21875 2.160156 -0.101562 1.984375 -0.03125 C 1.816406 0.0390625 1.640625 0.078125 1.453125 0.078125 C 1.035156 0.078125 0.71875 -0.0234375 0.5 -0.234375 C 0.289062 -0.441406 0.1875 -0.742188 0.1875 -1.140625 C 0.1875 -1.367188 0.226562 -1.554688 0.3125 -1.703125 C 0.394531 -1.859375 0.507812 -1.976562 0.65625 -2.0625 C 0.800781 -2.144531 0.96875 -2.203125 1.15625 -2.234375 C 1.351562 -2.265625 1.554688 -2.28125 1.765625 -2.28125 C 1.878906 -2.28125 1.992188 -2.273438 2.109375 -2.265625 C 2.222656 -2.265625 2.335938 -2.253906 2.453125 -2.234375 L 2.453125 -2.515625 C 2.453125 -2.671875 2.40625 -2.785156 2.3125 -2.859375 C 2.226562 -2.929688 2.113281 -2.96875 1.96875 -2.96875 C 1.832031 -2.96875 1.726562 -2.9375 1.65625 -2.875 C 1.582031 -2.8125 1.535156 -2.726562 1.515625 -2.625 L 0.359375 -2.765625 C 0.390625 -2.941406 0.453125 -3.097656 0.546875 -3.234375 C 0.640625 -3.367188 0.753906 -3.484375 0.890625 -3.578125 C 1.035156 -3.671875 1.203125 -3.738281 1.390625 -3.78125 C 1.578125 -3.832031 1.769531 -3.859375 1.96875 -3.859375 C 2.175781 -3.859375 2.375 -3.832031 2.5625 -3.78125 C 2.75 -3.726562 2.914062 -3.644531 3.0625 -3.53125 C 3.207031 -3.425781 3.316406 -3.289062 3.390625 -3.125 C 3.472656 -2.96875 3.515625 -2.773438 3.515625 -2.546875 L 3.515625 -1.34375 C 3.515625 -1.09375 3.519531 -0.859375 3.53125 -0.640625 C 3.539062 -0.429688 3.5625 -0.21875 3.59375 0 Z M 1.984375 -1.546875 C 1.765625 -1.546875 1.585938 -1.515625 1.453125 -1.453125 C 1.328125 -1.398438 1.265625 -1.296875 1.265625 -1.140625 C 1.265625 -1.035156 1.300781 -0.957031 1.375 -0.90625 C 1.445312 -0.851562 1.539062 -0.828125 1.65625 -0.828125 C 1.757812 -0.828125 1.859375 -0.84375 1.953125 -0.875 C 2.054688 -0.914062 2.140625 -0.96875 2.203125 -1.03125 C 2.273438 -1.09375 2.332031 -1.164062 2.375 -1.25 C 2.425781 -1.34375 2.453125 -1.441406 2.453125 -1.546875 Z M 1.984375 -1.546875 "/></g></g></g><g fill="#a38344" fill-opacity="1"><g transform="translate(8.576425, 7.795808)"><g><path d="M 3.921875 -0.296875 C 3.660156 -0.171875 3.40625 -0.078125 3.15625 -0.015625 C 2.90625 0.046875 2.660156 0.078125 2.421875 0.078125 C 2.097656 0.078125 1.804688 0.03125 1.546875 -0.0625 C 1.296875 -0.15625 1.078125 -0.285156 0.890625 -0.453125 C 0.710938 -0.617188 0.578125 -0.820312 0.484375 -1.0625 C 0.390625 -1.3125 0.34375 -1.585938 0.34375 -1.890625 C 0.34375 -2.191406 0.378906 -2.460938 0.453125 -2.703125 C 0.535156 -2.941406 0.65625 -3.144531 0.8125 -3.3125 C 0.96875 -3.488281 1.164062 -3.625 1.40625 -3.71875 C 1.644531 -3.8125 1.921875 -3.859375 2.234375 -3.859375 C 2.523438 -3.859375 2.78125 -3.8125 3 -3.71875 C 3.21875 -3.632812 3.398438 -3.507812 3.546875 -3.34375 C 3.703125 -3.1875 3.816406 -3 3.890625 -2.78125 C 3.960938 -2.5625 4 -2.320312 4 -2.0625 L 4 -1.5 L 1.453125 -1.5 C 1.503906 -1.289062 1.609375 -1.125 1.765625 -1 C 1.929688 -0.882812 2.160156 -0.828125 2.453125 -0.828125 C 2.773438 -0.828125 3.148438 -0.929688 3.578125 -1.140625 Z M 2.234375 -2.96875 C 2.023438 -2.96875 1.859375 -2.914062 1.734375 -2.8125 C 1.609375 -2.707031 1.519531 -2.5625 1.46875 -2.375 L 2.921875 -2.375 C 2.898438 -2.582031 2.828125 -2.734375 2.703125 -2.828125 C 2.578125 -2.921875 2.421875 -2.96875 2.234375 -2.96875 Z M 2.234375 -2.96875 "/></g></g></g></g></g></g></g></g></g></svg>