<?xml version="1.0" encoding="UTF-8"?>
<svg version="1.1" xmlns="http://www.w3.org/2000/svg" width="8000" height="1756">
<path d="M0 0 C0.80373047 -0.01224609 1.60746094 -0.02449219 2.43554688 -0.03710938 C7.19893452 -0.04879389 10.8059059 0.52139076 15.3125 2.1875 C16.87031544 2.55557902 18.43355258 2.90105475 20 3.23046875 C44.52956363 8.45762668 65.05440187 20.75496162 79.5 41.625 C80.00724609 42.33720703 80.51449219 43.04941406 81.03710938 43.78320312 C87.42029948 52.89849795 90.40633828 61.40634674 93 72.25 C93.30744141 73.49072266 93.61488281 74.73144531 93.93164062 76.00976562 C96.08181552 84.8033693 97.4625753 93.0738982 97.4511652 102.1230154 C97.45400742 103.00398151 97.45684964 103.88494761 97.45977798 104.79260966 C97.46810594 107.74728292 97.4693917 110.70191687 97.47071838 113.65660095 C97.47528502 115.79516507 97.4802852 117.9337283 97.48568195 120.07229048 C97.49926081 125.95108674 97.5066807 131.82987721 97.51310861 137.70868504 C97.52111364 144.04741476 97.53481107 150.38613245 97.54782104 156.72485352 C97.56958231 167.70786634 97.58776251 178.69087948 97.60342598 189.67390251 C97.61986829 201.19251909 97.63835159 212.71112941 97.65955925 224.22973824 C97.66087686 224.94599834 97.66219446 225.66225845 97.663552 226.40022341 C97.67025411 230.03776397 97.67699267 233.67530447 97.68374526 237.31284494 C97.73150511 263.07582611 97.77469106 288.83881311 97.81518555 314.60180664 C97.85453524 339.62980575 97.89595772 364.65780003 97.94018555 389.68579102 C97.94154808 390.45729724 97.94291061 391.22880346 97.94431442 392.02368866 C97.95799983 399.77148915 97.97172736 407.51928957 97.98548577 415.26708993 C98.01351212 431.05017561 98.04125728 446.83326179 98.0688324 462.61634827 C98.0701006 463.34202501 98.0713688 464.06770175 98.07267542 464.8153687 C98.15732771 513.27273797 98.23540458 561.73011818 98.3125 610.1875 C99.01117188 609.465625 99.70984375 608.74375 100.4296875 608 C101.79480469 606.6078125 101.79480469 606.6078125 103.1875 605.1875 C104.54488281 603.7953125 104.54488281 603.7953125 105.9296875 602.375 C108.3125 600.1875 108.3125 600.1875 110.3125 600.1875 C110.3125 599.5275 110.3125 598.8675 110.3125 598.1875 C111.86490341 596.79424046 113.48279985 595.47369872 115.125 594.1875 C119.12223201 590.99686142 122.94356857 587.74029248 126.6875 584.25 C131.98194641 579.39427879 137.56466079 575.01821462 143.30273438 570.70849609 C145.59461687 568.97399319 147.86786641 567.21651486 150.140625 565.45703125 C160.91918528 557.13511139 171.86128923 549.17581397 183.18554688 541.61328125 C185.11771294 540.31807351 187.03750928 539.00700496 188.953125 537.6875 C265.34899444 485.38793377 353.97356912 454.62036917 486.3125 434.1875 C487.72586639 434.05989792 487.72586639 434.05989792 489.16778564 433.92971802 C507.02256231 432.35289757 524.76778667 431.82261367 542.6875 431.875 C543.99266571 431.87682281 545.29783142 431.87864563 546.64254761 431.88052368 C567.99619127 431.92179326 589.1103582 432.61089128 610.3125 435.1875 C611.03600647 435.27471313 611.75951294 435.36192627 612.50494385 435.45178223 C623.47985766 436.78856857 634.40438754 438.38758386 645.3125 440.1875 C646.55467285 440.39181641 647.7968457 440.59613281 649.07666016 440.80664062 C684.3102508 446.77763245 719.43892032 455.8259981 753.3125 467.1875 C754.2003418 467.47898926 755.08818359 467.77047852 756.00292969 468.07080078 C816.46668612 487.95928094 872.34890392 519.36714712 923.3125 557.1875 C924.01439453 557.70538086 924.71628906 558.22326172 925.43945312 558.75683594 C933.91701962 565.01629942 942.24127907 571.40720922 950.3125 578.1875 C950.8290918 578.6191748 951.34568359 579.05084961 951.87792969 579.49560547 C959.15862102 585.58157208 966.29871859 591.79432184 973.3125 598.1875 C974.19502441 598.98518799 975.07754883 599.78287598 975.98681641 600.60473633 C982.85993724 606.84818229 989.53516175 613.25261696 996.0871582 619.83178711 C997.63834727 621.38839389 999.19489392 622.93950171 1000.75195312 624.49023438 C1006.14980539 629.88450078 1011.35883155 635.37884047 1016.3125 641.1875 C1017.76695517 642.79518373 1019.22470895 644.39989715 1020.6875 646 C1025.41826093 651.24930977 1029.88247052 656.68373945 1034.3125 662.1875 C1035.23788408 663.32063697 1036.16368393 664.45343449 1037.08984375 665.5859375 C1044.89425904 675.17689005 1052.15749489 685.10613911 1059.3125 695.1875 C1060.35795416 696.65242851 1061.40352535 698.11727351 1062.44921875 699.58203125 C1072.31899601 713.44458917 1081.7426235 727.48179476 1090.3125 742.1875 C1090.98901611 743.34330566 1090.98901611 743.34330566 1091.67919922 744.52246094 C1121.28801213 795.2374544 1143.37729244 849.14029653 1157.3125 906.1875 C1157.49254578 906.91948608 1157.67259155 907.65147217 1157.85809326 908.40563965 C1170.27816607 958.94930835 1177.7731339 1009.45148007 1177.63055801 1061.61856461 C1177.62489798 1063.72547736 1177.62208996 1065.832382 1177.61947632 1067.93930054 C1177.5812405 1089.16283974 1176.99944802 1110.11770187 1174.3125 1131.1875 C1174.1437124 1132.58176961 1173.97576392 1133.97614101 1173.80859375 1135.37060547 C1163.07113438 1223.92504292 1135.00249668 1311.08342458 1029.3125 1472.1875 C1028.88227539 1472.7026416 1028.45205078 1473.2177832 1028.00878906 1473.74853516 C1021.92130017 1481.03062354 1015.70679781 1488.17199034 1009.3125 1495.1875 C1008.52061279 1496.06422363 1007.72872559 1496.94094727 1006.9128418 1497.84423828 C1000.5299617 1504.87425561 993.96817972 1511.68873676 987.2409668 1518.3894043 C985.61193428 1520.01302229 983.98839272 1521.64199603 982.36523438 1523.27148438 C976.8521986 1528.78797391 971.24926156 1534.12506957 965.3125 1539.1875 C963.7676874 1540.6007355 962.22554675 1542.01690409 960.6875 1543.4375 C955.5671982 1548.06228873 950.18236885 1552.28597942 944.734375 1556.51171875 C941.81284649 1558.78178184 938.96240183 1561.12521803 936.125 1563.5 C922.78811397 1574.46718969 908.50552686 1584.36696581 894.3125 1594.1875 C893.40999512 1594.81253418 893.40999512 1594.81253418 892.48925781 1595.45019531 C874.62739079 1607.75063892 855.90315937 1618.68301353 836.77001953 1628.87060547 C834.58412114 1630.0419482 832.41278724 1631.23504409 830.24609375 1632.44140625 C766.12341522 1667.8336885 690.96524408 1687.77410348 618.75 1697.375 C617.59306641 1697.53009033 616.43613281 1697.68518066 615.24414062 1697.8449707 C592.61444922 1700.69230228 570.03815878 1701.54118495 547.2565918 1701.50317383 C544.26457622 1701.49855814 541.27296881 1701.50543048 538.28100586 1701.52368164 C447.80292026 1702.06969185 355.54916645 1680.02623174 254.28613281 1632.203125 C252.92589205 1631.50314955 251.56309598 1630.80812503 250.19824219 1630.1171875 C229.39596371 1619.58252323 209.50635193 1607.4128412 190.3125 1594.1875 C189.53132813 1593.65334473 188.75015625 1593.11918945 187.9453125 1592.56884766 C171.21694756 1581.11486136 155.10458828 1568.89693372 139.3125 1556.1875 C138.32378906 1555.39601563 137.33507813 1554.60453125 136.31640625 1553.7890625 C130.74626857 1549.27947903 125.3776155 1544.60535164 120.11328125 1539.7421875 C117.93556321 1537.75581707 115.737216 1535.81056789 113.51171875 1533.87890625 C109.1824332 1530.10269674 104.98863703 1526.19412942 100.8125 1522.25 C100.10480469 1521.58548828 99.39710937 1520.92097656 98.66796875 1520.23632812 C91.99409254 1513.94677934 85.45936953 1507.60231588 79.484375 1500.640625 C77.1361914 1497.98836007 74.71818319 1495.41274069 72.28735352 1492.83642578 C65.99592101 1486.16553113 60.03133409 1479.36011178 54.3125 1472.1875 C53.33270313 1470.99707047 52.35078832 1469.80838217 51.3671875 1468.62109375 C43.57377663 1459.18671374 36.22576816 1449.47893772 29.04443359 1439.57226562 C27.34667758 1437.23456041 25.63757282 1434.90556526 23.92578125 1432.578125 C16.67228189 1422.68000959 9.82209379 1412.58955064 3.3125 1402.1875 C2.86696777 1401.47658203 2.42143555 1400.76566406 1.96240234 1400.03320312 C-21.72534933 1362.08506694 -41.87453752 1322.43340696 -56.6875 1280.1875 C-57.05681641 1279.13852539 -57.42613281 1278.08955078 -57.80664062 1277.00878906 C-80.87894016 1210.95597923 -94.87264905 1140.27657316 -94.8273077 1070.21303368 C-94.82987673 1068.49557411 -94.83287336 1066.77811513 -94.83625141 1065.06065696 C-94.84421554 1060.38512924 -94.846142 1055.70961651 -94.84697436 1051.03408281 C-94.84896248 1045.93057834 -94.85664537 1040.82708167 -94.86354691 1035.72358191 C-94.8762991 1025.62142093 -94.88372526 1015.5192625 -94.88944569 1005.41709537 C-94.8965331 993.30864976 -94.90928977 981.20021167 -94.92199489 969.09177089 C-94.95448549 937.75499876 -94.97448463 906.41822213 -94.99247666 875.08143918 C-94.9964585 868.16444446 -95.00064326 861.24744987 -95.00483206 854.33045527 C-95.03599302 802.80369696 -95.06305104 751.27693696 -95.07977884 699.75017181 C-95.0836651 687.82048998 -95.08768529 675.89080821 -95.09176309 663.96112645 C-95.09227396 662.46375032 -95.09278269 660.96637419 -95.09328929 659.46899807 C-95.10955963 611.37846662 -95.14656048 563.28798545 -95.19744308 515.19747885 C-95.23401967 480.61852564 -95.26771286 446.03958301 -95.2799921 411.46061134 C-95.28024619 410.74884386 -95.28050029 410.03707637 -95.28076208 409.30374018 C-95.28627952 393.67551957 -95.29011948 378.04729899 -95.29238755 362.41907758 C-95.29332542 356.13044525 -95.29448155 349.84181297 -95.29570198 343.55318069 C-95.2958295 342.8649825 -95.29595703 342.1767843 -95.29608841 341.46773161 C-95.30028835 319.34404172 -95.32302129 297.22041944 -95.35545691 275.09675439 C-95.38894787 252.18142929 -95.4008291 229.26617413 -95.38802146 206.35082023 C-95.38129674 193.15423832 -95.39115149 179.95791635 -95.42514846 166.76137519 C-95.44622792 157.93243771 -95.44525451 149.10367531 -95.42681505 140.27473251 C-95.4169425 135.25357532 -95.41619536 130.23291162 -95.44247787 125.21180241 C-95.72244219 68.15993822 -95.72244219 68.15993822 -79.3125 45.5 C-78.92312256 44.96020508 -78.53374512 44.42041016 -78.13256836 43.86425781 C-76.99544327 42.29712744 -75.84185709 40.74198087 -74.6875 39.1875 C-74.09839844 38.36121094 -73.50929687 37.53492188 -72.90234375 36.68359375 C-60.43424582 19.73523368 -41.95429216 8.35226747 -21.625 3.9375 C-19.38347119 3.43515399 -17.14254688 2.93010019 -14.90234375 2.421875 C-13.92386475 2.20756836 -12.94538574 1.99326172 -11.93725586 1.77246094 C-7.80440574 0.69787506 -4.57572317 0.00358318 0 0 Z M238.67578125 731.04296875 C237.1650451 732.41386816 235.64259399 733.77203746 234.10546875 735.11328125 C228.22395547 740.27338234 222.66575588 745.7277657 217.125 751.25 C216.36445313 752.00595459 215.60390625 752.76190918 214.8203125 753.54077148 C210.11186372 758.26205963 205.65579714 763.13062863 201.3125 768.1875 C200.29088806 769.34406304 199.26749636 770.49905682 198.2421875 771.65234375 C175.00436255 797.97623626 154.24979052 828.02063544 139.38476562 859.88964844 C138.09928891 862.64440864 136.7902723 865.38767529 135.484375 868.1328125 C114.04470375 913.54568667 100.10613096 960.28388708 94.3125 1010.1875 C94.23131927 1010.81652222 94.15013855 1011.44554443 94.0664978 1012.09362793 C91.96573922 1028.50581927 91.9551222 1044.91839644 92 1061.4375 C92.00222072 1062.87798048 92.00439732 1064.31846104 92.00653076 1065.75894165 C92.04819164 1086.05048515 92.38458626 1106.06828679 95.3125 1126.1875 C95.51415618 1127.65351238 95.71478831 1129.11966588 95.91455078 1130.5859375 C98.81026981 1151.6106854 102.89055533 1171.91992207 109.3125 1192.1875 C109.68358887 1193.36151367 110.05467773 1194.53552734 110.43701172 1195.74511719 C122.46309246 1233.20373547 138.86816838 1268.57932972 159.3125 1302.1875 C159.85326172 1303.07646973 160.39402344 1303.96543945 160.95117188 1304.88134766 C166.9579506 1314.69474778 173.19271916 1324.14046814 180.3125 1333.1875 C181.1726953 1334.3027532 182.03203281 1335.41866841 182.890625 1336.53515625 C191.79058428 1348.05275061 201.22466395 1359.06166123 211.1550293 1369.7019043 C213.8607775 1372.60127238 216.49760931 1375.53813909 219.0625 1378.5625 C221.8527404 1381.789766 224.89334001 1384.51904337 228.14453125 1387.2734375 C230.64352333 1389.47975484 232.97160047 1391.81433693 235.3125 1394.1875 C239.49087941 1398.40392231 243.78818311 1402.34941106 248.3125 1406.1875 C249.19808594 1406.96222656 250.08367187 1407.73695313 250.99609375 1408.53515625 C278.90323626 1432.79607047 310.4120132 1451.56936794 343.3125 1468.1875 C344.17568848 1468.62449219 345.03887695 1469.06148437 345.92822266 1469.51171875 C392.28958347 1492.78639303 442.62795808 1506.94809519 494.3125 1511.1875 C495.72208984 1511.31668823 495.72208984 1511.31668823 497.16015625 1511.44848633 C509.23448733 1512.42035228 521.31758079 1512.37359049 533.42382812 1512.37280273 C537.14465022 1512.37497498 540.86516813 1512.39314596 544.5859375 1512.41210938 C565.29879477 1512.46149933 585.78903259 1511.20506266 606.3125 1508.375 C607.56611328 1508.20250732 608.81972656 1508.03001465 610.11132812 1507.85229492 C649.86382815 1502.20894951 687.85810332 1489.91192401 724.3125 1473.1875 C725.323125 1472.72472656 726.33375 1472.26195312 727.375 1471.78515625 C756.67666547 1458.26976305 784.96583377 1442.25012879 810.3125 1422.1875 C810.99038574 1421.65237793 811.66827148 1421.11725586 812.36669922 1420.56591797 C820.03484722 1414.48600635 827.5229396 1408.27120261 834.6875 1401.6015625 C836.70065218 1399.75018148 838.73779932 1397.97007082 840.81640625 1396.1953125 C846.28724898 1391.4222748 851.39886405 1386.28717056 856.5300293 1381.15527344 C858.23793056 1379.44955402 859.95368045 1377.75200973 861.66992188 1376.0546875 C867.60657793 1370.14763188 873.19331831 1364.17030053 878.38183594 1357.58569336 C880.36636276 1355.12059385 882.46235425 1352.80939671 884.625 1350.5 C944.19686972 1284.66281295 979.46820861 1188.46575816 985.68359375 1038.15097046 C982.30815324 972.96702902 965.8250894 909.78763615 934.48144531 852.35791016 C933.34988586 850.25691527 932.25828241 848.14031327 931.1796875 846.01171875 C918.52814372 821.17188586 902.29232474 798.41304003 884.3125 777.1875 C883.23284276 775.89993254 882.15340884 774.61217778 881.07421875 773.32421875 C875.94041421 767.23270494 870.71557604 761.37927739 864.95703125 755.859375 C863.3125 754.1875 863.3125 754.1875 862.3125 752.1875 C861.6525 752.1875 860.9925 752.1875 860.3125 752.1875 C860.3125 751.5275 860.3125 750.8675 860.3125 750.1875 C857.97916667 747.52083333 857.97916667 747.52083333 855.3125 745.1875 C854.6525 745.1875 853.9925 745.1875 853.3125 745.1875 C853.3125 744.5275 853.3125 743.8675 853.3125 743.1875 C851.7617093 741.61885918 851.7617093 741.61885918 849.75 740 C847.03767387 737.70021298 844.46283357 735.37695535 842 732.8125 C838.34782376 729.10261443 834.36407538 725.88259176 830.30859375 722.625 C827.76989095 720.55961467 825.28878238 718.4438414 822.82006836 716.29589844 C809.68500209 704.9316458 795.41536016 695.28739147 780.47558594 686.46972656 C778.42403568 685.25361573 776.38646058 684.01715581 774.3515625 682.7734375 C724.80453269 652.72263343 669.6664758 632.12916993 612.375 623.5 C611.36637405 623.34562973 611.36637405 623.34562973 610.33737183 623.18814087 C587.79412911 619.77523477 565.293325 618.83241312 542.52441406 618.87182617 C539.64372081 618.87644488 536.76345117 618.86956009 533.8828125 618.85131836 C437.72568921 618.24882021 341.79162205 649.43031774 238.67578125 731.04296875 Z " fill="#FFFFFF" transform="translate(4397.6875,17.8125)"/>
<path d="M0 0 C0.78084961 0.17692383 1.56169922 0.35384766 2.36621094 0.53613281 C30.02628152 6.86874684 48.43464265 22.9999786 63.53857422 46.63232422 C69.34575404 56.04061522 73.58589819 66.24823367 78.02734375 76.34765625 C78.50542984 77.43471359 78.98351593 78.52177094 79.47608948 79.64176941 C84.39130108 90.84769412 89.19265732 102.10123403 93.97396851 113.36480713 C95.98538461 118.10317113 98.00027689 122.84005451 100.01496887 127.57702637 C101.00568504 129.90646405 101.99623807 132.23597112 102.98661804 134.56555176 C106.54054848 142.92432087 110.1059049 151.27804655 113.6875 159.625 C114.37477173 161.22698242 114.37477173 161.22698242 115.07592773 162.86132812 C116.3834193 165.90778109 117.69157246 168.95394893 119 172 C126.13518081 188.6118809 133.23529599 205.23835018 140.3125 221.875 C140.73494995 222.86804138 141.1573999 223.86108276 141.59265137 224.88421631 C143.81075417 230.0983758 146.02868834 235.31260702 148.24658203 240.52685547 C149.16438358 242.6845722 150.08218959 244.84228704 151 247 C151.45542175 248.07066711 151.91084351 249.14133423 152.38006592 250.2444458 C168.55627974 288.27169997 184.80919684 326.26556727 201.10745239 364.24066162 C212.27969898 390.27358754 223.37438898 416.33945721 234.4697876 442.4052124 C252.68945447 485.22201891 252.68945447 485.22201891 271 528 C273.39701799 533.58282529 275.79285348 539.1661571 278.1875 544.75 C278.65728775 545.84541107 278.65728775 545.84541107 279.13656616 546.96295166 C284.58070872 559.66032008 289.98746791 572.3733783 295.38552856 585.09039307 C300.77266549 597.77982265 306.18847104 610.45665828 311.625 623.125 C318.61131561 639.40479574 325.56254188 655.69932707 332.5 672 C339.54381795 688.54970273 346.59885509 705.09444282 353.6875 721.625 C354.05922333 722.49187439 354.43094666 723.35874878 354.81393433 724.25189209 C357.75953624 731.12039965 360.70684464 737.98817425 363.65527344 744.85546875 C370.45464077 760.6930726 377.2133977 776.54746423 383.95166016 792.41113281 C399.50878944 829.03586335 415.11062325 865.64121799 430.80218506 902.20855713 C434.8485885 911.63848128 438.89378462 921.06892285 442.9375 930.5 C443.39024292 931.55589325 443.84298584 932.6117865 444.30944824 933.69967651 C449.61299061 946.07074268 454.90016031 958.44800134 460.12963867 970.85058594 C463.63782185 979.1641531 467.19071778 987.45823004 470.75 995.75 C477.36236619 1011.15433013 483.93470856 1026.57555381 490.5 1042 C497.0474673 1057.38145711 503.59833837 1072.76134984 510.1875 1088.125 C510.48819397 1088.82613922 510.78888794 1089.52727844 511.09869385 1090.24966431 C513.56873939 1096.00837458 516.04080691 1101.76621603 518.51318359 1107.52392578 C525.35793062 1123.46615022 532.16165616 1139.42534439 538.94433594 1155.39404297 C551.70852366 1185.44422733 564.47693158 1215.49289433 577.35601807 1245.49404907 C583.4324648 1259.65058459 589.46622906 1273.82523265 595.5 1288 C601.86133393 1302.94336519 608.22323808 1317.88640057 614.625 1332.8125 C614.91119202 1333.47980133 615.19738403 1334.14710266 615.49224854 1334.83462524 C617.31232629 1339.07788307 619.1332861 1343.32076211 620.9543457 1347.56359863 C632.86903236 1375.32512455 644.7571678 1403.09734591 656.56211853 1430.90571594 C660.52417685 1440.23736608 664.49348148 1449.5659285 668.46557617 1458.89331055 C670.44127235 1463.53288134 672.41379329 1468.17378353 674.3840332 1472.81567383 C678.9450857 1483.5518038 683.5388336 1494.26973432 688.2578125 1504.9375 C696.08648676 1522.68673344 703.6170482 1539.77255936 707 1559 C707.29583984 1560.38493652 707.29583984 1560.38493652 707.59765625 1561.79785156 C710.16339837 1574.67328927 708.02271378 1586.61705166 704.8125 1599.1875 C704.39387695 1600.95770508 704.39387695 1600.95770508 703.96679688 1602.76367188 C698.86479785 1623.11535453 685.14103334 1639.79954295 668.1875 1651.75 C667.56020996 1652.19811035 666.93291992 1652.6462207 666.28662109 1653.10791016 C656.68454912 1659.64120362 646.05555961 1662.79696881 634.8125 1665.25 C633.70197266 1665.50523438 632.59144531 1665.76046875 631.44726562 1666.0234375 C611.20625289 1670.57197969 588.48487945 1668.07713509 570.00390625 1657.9296875 C546.39293703 1642.76217281 533.26150521 1624.69718507 522.61669922 1598.8984375 C520.82171982 1594.55303623 518.97635943 1590.22954894 517.12890625 1585.90625 C514.2270502 1579.11094975 511.33481515 1572.31169023 508.453125 1565.5078125 C505.57302292 1558.7086683 502.68839617 1551.91148359 499.796875 1545.1171875 C492.75980133 1528.57993548 485.74448663 1512.03384663 478.76312256 1495.47299194 C478.36691711 1494.5331546 477.97071167 1493.59331726 477.5625 1492.625 C477.16565002 1491.6836319 476.76880005 1490.74226379 476.35992432 1489.77236938 C470.25347882 1475.29182587 464.08666192 1460.83817838 457.88250732 1446.39926147 C452.09798211 1432.93405132 446.37595322 1419.44355561 440.6875 1405.9375 C434.03432426 1390.14278774 427.3229732 1374.37408517 420.5625 1358.625 C413.41276732 1341.96879918 406.28370206 1325.30408591 399.1875 1308.625 C398.77879669 1307.66474915 398.37009338 1306.70449829 397.94900513 1305.71514893 C396.77151595 1302.94832275 395.59461582 1300.18124689 394.41796875 1297.4140625 C394.0885025 1296.63973877 393.75903625 1295.86541504 393.41958618 1295.06762695 C389.5897423 1286.05481189 385.8002235 1277.02553081 382 1268 C113.38 1268 -155.24 1268 -432 1268 C-437.94 1282.19 -443.88 1296.38 -450 1311 C-458.4375 1330.875 -458.4375 1330.875 -462.65234375 1340.7734375 C-467.29214966 1351.67219935 -471.89679896 1362.5857389 -476.5 1373.5 C-482.60228021 1387.96806207 -488.72567132 1402.42687275 -494.875 1416.875 C-499.78163584 1428.40358147 -504.66593139 1439.94079756 -509.5 1451.5 C-514.33406901 1463.05920339 -519.21850023 1474.59636002 -524.125 1486.125 C-530.22977226 1500.47015887 -536.31327074 1514.82409768 -542.375 1529.1875 C-542.96282761 1530.58011047 -542.96282761 1530.58011047 -543.56253052 1532.00085449 C-547.2203472 1540.66671698 -550.87669417 1549.33319748 -554.52880859 1558.00146484 C-555.15925835 1559.49780205 -555.15925835 1559.49780205 -555.80244446 1561.02436829 C-556.64690449 1563.02872351 -557.49129592 1565.03310763 -558.33561707 1567.03752136 C-560.38312314 1571.89668468 -562.43384018 1576.7544455 -564.49194336 1581.60913086 C-564.88085251 1582.52655563 -565.26976166 1583.44398041 -565.67045593 1584.38920593 C-566.42757998 1586.17515945 -567.18482974 1587.96105969 -567.94221497 1589.74690247 C-569.99505091 1594.59592016 -572.01185573 1599.45687942 -573.9921875 1604.3359375 C-584.13746332 1629.07760939 -600.2235923 1649.25985074 -624.72314453 1661.08886719 C-629.45694789 1662.98320068 -634.41650245 1664.04846566 -639.375 1665.1875 C-640.4475 1665.44724609 -641.52 1665.70699219 -642.625 1665.97460938 C-660.00446451 1670.06576069 -674.28055718 1668.18299117 -691.375 1663.6875 C-692.468125 1663.40390625 -693.56125 1663.1203125 -694.6875 1662.828125 C-705.36427009 1659.90565144 -713.97775104 1655.47609951 -722.6875 1648.6875 C-723.39455078 1648.15705078 -724.10160156 1647.62660156 -724.83007812 1647.08007812 C-731.94041608 1641.60806689 -737.47385619 1635.0552585 -742.625 1627.75 C-743.69621094 1626.25726562 -743.69621094 1626.25726562 -744.7890625 1624.734375 C-756.40945243 1606.40435879 -760.66569631 1580.79047051 -756.8125 1559.6875 C-756.37612963 1557.78208187 -755.93910357 1555.87666597 -755.47412109 1553.97802734 C-754.99216813 1551.96732552 -754.56727172 1549.94968112 -754.14453125 1547.92578125 C-750.986019 1533.69798755 -745.04395429 1520.54725024 -739.26611328 1507.23486328 C-736.60201956 1501.0917713 -733.97167953 1494.93430841 -731.33984375 1488.77734375 C-725.68293878 1475.548669 -720.01047384 1462.32673714 -714.3338623 1449.10650635 C-711.30432574 1442.05084961 -708.27615338 1434.99460844 -705.25 1427.9375 C-704.96481506 1427.27254517 -704.67963013 1426.60759033 -704.38580322 1425.92248535 C-698.46052055 1412.10364844 -692.5779697 1398.26665696 -686.6946106 1384.42993164 C-681.37713971 1371.92458044 -676.04806196 1359.42444063 -670.6875 1346.9375 C-664.32501192 1332.11655921 -658.00406383 1317.27806499 -651.6875 1302.4375 C-644.58107739 1285.74201161 -637.46368103 1269.05137114 -630.3125 1252.375 C-629.94005157 1251.50643372 -629.56760315 1250.63786743 -629.18386841 1249.74298096 C-626.25512706 1242.91377367 -623.3247782 1236.08525683 -620.39306641 1229.25732422 C-613.25047798 1212.62139197 -606.15396795 1195.96622892 -599.0697937 1179.30535889 C-593.13108765 1165.33989026 -587.17235633 1151.38325046 -581.1875 1137.4375 C-574.20104275 1121.15777163 -567.25040562 1104.86297623 -560.3125 1088.5625 C-553.77571661 1073.20450421 -547.23128006 1057.85002888 -540.64672852 1042.51245117 C-533.99177574 1027.00816898 -527.38675872 1011.48264755 -520.77832031 995.95849609 C-515.10395461 982.62902111 -509.42465858 969.30191568 -503.70751953 955.99072266 C-498.34107708 943.48426376 -493.01796786 930.95932117 -487.6875 918.4375 C-481.1394844 903.05628253 -474.58923753 887.67611166 -468 872.3125 C-467.70241791 871.61862183 -467.40483582 870.92474365 -467.09823608 870.20983887 C-464.78180727 864.8092812 -462.463725 859.40943373 -460.14550781 854.00964355 C-458.09617624 849.23595114 -456.04760186 844.46193462 -454 839.6875 C-453.70378754 838.99684448 -453.40757507 838.30618896 -453.10238647 837.59460449 C-446.30000761 821.72976112 -439.54159695 805.84619039 -432.78051758 789.9637146 C-427.10542107 776.63249928 -421.42540347 763.30365002 -415.70751953 749.99072266 C-410.34107705 737.48426369 -405.01798417 724.95931429 -399.6875 712.4375 C-393.20156077 697.20229967 -386.7142795 681.96775768 -380.1875 666.75 C-379.89674591 666.07205383 -379.60599182 665.39410767 -379.306427 664.69561768 C-377.52487224 660.54213539 -375.7424432 656.38902866 -373.95977783 652.23602295 C-370.68017141 644.59542636 -367.40182957 636.95428792 -364.125 629.3125 C-363.74736511 628.43185883 -363.36973022 627.55121765 -362.98065186 626.64389038 C-357.03949586 612.78632085 -351.13131778 598.91497097 -345.2401123 585.03610229 C-340.47315014 573.80647499 -335.68733568 562.58525582 -330.875 551.375 C-324.3874793 536.26240798 -317.94120203 521.13238539 -311.5 506 C-305.07663241 490.91059953 -298.65173486 475.82194696 -292.1875 460.75 C-291.75395203 459.73910812 -291.75395203 459.73910812 -291.31164551 458.70779419 C-289.5348139 454.56535213 -287.75709808 450.42328988 -285.97918701 446.28131104 C-282.56802747 438.33398757 -279.15831691 430.38604297 -275.75 422.4375 C-275.36269714 421.53430023 -274.97539429 420.63110046 -274.57635498 419.70053101 C-269.69512781 408.31515011 -264.83805015 396.92032409 -260.0234375 385.5065918 C-256.46319548 377.07440447 -252.86038221 368.66079341 -249.25 360.25 C-243.25770969 346.29008868 -237.29779164 332.31657004 -231.34884644 318.33813477 C-223.31717675 299.46591453 -215.27029783 280.60038447 -207.1875 261.75 C-206.75695313 260.74587067 -206.32640625 259.74174133 -205.8828125 258.70718384 C-202.50811463 250.83736237 -199.13178498 242.96824129 -195.75531006 235.09918213 C-192.96121104 228.58723872 -190.1676165 222.07507933 -187.375 215.5625 C-186.99833191 214.68411469 -186.62166382 213.80572937 -186.23358154 212.90072632 C-181.46611189 201.78082041 -176.72440357 190.65076403 -172.02197266 179.50317383 C-168.16131128 170.35931124 -164.2499148 161.23750401 -160.33428955 152.11709595 C-155.96536788 141.93927682 -151.61432656 131.75397288 -147.27734375 121.5625 C-146.77641205 120.38548523 -146.27548035 119.20847046 -145.7593689 117.99578857 C-143.27024083 112.14650913 -140.78232513 106.29671729 -138.29589844 100.44628906 C-135.9881032 95.01840082 -133.67412551 89.5931883 -131.35491943 84.17016602 C-130.44747293 82.04697256 -129.54160294 79.92310465 -128.63726807 77.79858398 C-127.32229079 74.7122854 -125.999965 71.62923287 -124.67578125 68.546875 C-124.2922197 67.64318176 -123.90865814 66.73948853 -123.51347351 65.80841064 C-119.31844941 56.08917097 -114.43183125 47.05890248 -107.9375 38.6875 C-107.43412109 38.02427734 -106.93074219 37.36105469 -106.41210938 36.67773438 C-104.95770626 34.77177013 -103.48371187 32.88320224 -102 31 C-101.37097778 30.18692383 -101.37097778 30.18692383 -100.72924805 29.35742188 C-96.48698342 24.03233255 -91.14782774 20.22450366 -85.69775391 16.24169922 C-84.12607287 15.09220688 -82.56824191 13.92384196 -81.01171875 12.75390625 C-73.49277677 7.37160543 -65.90750726 4.32948035 -57 2 C-56.13375 1.77151367 -55.2675 1.54302734 -54.375 1.30761719 C-35.46331259 -3.54506927 -19.02120834 -4.50479373 0 0 Z M-24 298 C-27.95724133 306.4188621 -31.67517091 314.88616099 -35.1875 323.5 C-36.23940207 326.0605199 -37.29238946 328.62055577 -38.34765625 331.1796875 C-38.63114929 331.86727142 -38.91464233 332.55485535 -39.20672607 333.26327515 C-43.12247331 342.74109935 -47.12906942 352.18078547 -51.125 361.625 C-57.44686337 376.57081817 -63.74249706 391.52711999 -70 406.5 C-76.53103207 422.12584429 -83.1027502 437.73406306 -89.69775391 453.33300781 C-95.49362534 467.04351886 -101.25945191 480.76623791 -107 494.5 C-113.17951305 509.28307237 -119.38844703 524.05339833 -125.625 538.8125 C-126.02314911 539.75478455 -126.42129822 540.69706909 -126.83151245 541.66790771 C-128.41628901 545.41841273 -130.0011412 549.16888578 -131.58610535 552.91931152 C-135.41722828 561.98549143 -139.24236244 571.054186 -143.0625 580.125 C-143.38513824 580.89106567 -143.70777649 581.65713135 -144.04019165 582.44641113 C-149.6958229 595.87798419 -155.3214545 609.32203715 -160.94363403 622.76763916 C-167.16177099 637.63611554 -173.42108102 652.48688879 -179.69692993 667.33108521 C-185.49307819 681.0422368 -191.25909371 694.7656316 -197 708.5 C-203.11866493 723.13653067 -209.26375241 737.76161482 -215.4375 752.375 C-215.82981812 753.30367889 -216.22213623 754.23235779 -216.62634277 755.18917847 C-220.23042968 763.7197943 -223.83675194 772.24946464 -227.44384766 780.77880859 C-229.8800588 786.53968967 -232.31547739 792.30090515 -234.75 798.0625 C-235.14822968 799.00494568 -235.54645935 799.94739136 -235.95675659 800.918396 C-241.47666544 813.98542503 -246.95722791 827.06816093 -252.40060425 840.16723633 C-258.05699864 853.77604338 -263.78406021 867.35446756 -269.52435303 880.92807007 C-275.42271851 894.87649841 -281.28723608 908.83860743 -287.125 922.8125 C-293.16775041 937.27663654 -299.2697055 951.7141519 -305.41802979 966.13369751 C-311.78335366 981.06915337 -318.03649584 996.05005997 -324.26409912 1011.043396 C-328.77243873 1021.89598039 -333.29799016 1032.74017938 -337.90625 1043.55078125 C-338.2973999 1044.46850311 -338.6885498 1045.38622498 -339.09155273 1046.33175659 C-340.92961782 1050.64069888 -342.77234727 1054.94758339 -344.62109375 1059.25195312 C-345.2786706 1060.7890519 -345.93622401 1062.32616071 -346.59375 1063.86328125 C-346.88141235 1064.52894608 -347.16907471 1065.1946109 -347.4654541 1065.88044739 C-349.87844624 1071.53082961 -351.88907976 1077.19496935 -354 1083 C-135.87 1083 82.26 1083 307 1083 C300.98535711 1068.56485706 294.9629157 1054.13582519 288.87033081 1039.73382568 C286.80254316 1034.845377 284.73718324 1029.95590286 282.671875 1025.06640625 C282.26509018 1024.103396 281.85830536 1023.14038574 281.43919373 1022.14819336 C274.90886065 1006.68449761 268.42816509 991.20001195 261.95318604 975.71307373 C253.85230485 956.33794456 245.7347028 936.97017249 237.5625 917.625 C237.17072571 916.69759003 236.77895142 915.77018005 236.37530518 914.81466675 C232.77066888 906.28276921 229.16379121 897.7518197 225.55615234 889.22119141 C223.1199412 883.46031033 220.68452261 877.69909485 218.25 871.9375 C217.85177032 870.99505432 217.45354065 870.05260864 217.04324341 869.081604 C211.52333456 856.01457497 206.04277209 842.93183907 200.59939575 829.83276367 C194.94398229 816.22631664 189.21780442 802.65029581 183.47866821 789.07897949 C177.51772039 774.98200323 171.58930198 760.87183571 165.6875 746.75 C160.21672997 733.66025028 154.71633373 720.58403664 149.16162109 707.5296936 C143.73258663 694.76748459 138.38020516 681.97374499 133.03411865 669.17660522 C127.6121663 656.20128766 122.14103135 643.24807901 116.625 630.3125 C109.9039347 614.55020086 103.29545375 598.74279307 96.7197876 582.91934204 C91.03952396 569.25369177 85.30810295 555.6117964 79.5 542 C72.81879865 526.34202125 66.25198953 510.63841324 59.71923828 494.91796875 C54.03915494 481.2527778 48.30790932 467.61134261 42.5 454 C36.25544116 439.36533111 30.10590816 424.69304197 24 410 C17.51604352 394.39793137 10.97561 378.82219851 4.34860229 363.28036499 C-1.4643387 349.64560026 -7.21665389 335.98615956 -12.9375 322.3125 C-13.3311676 321.37191742 -13.72483521 320.43133484 -14.13043213 319.46224976 C-15.24252606 316.80452036 -16.35389394 314.14648907 -17.46484375 311.48828125 C-17.95891472 310.30681015 -17.95891472 310.30681015 -18.46296692 309.10147095 C-20.00343465 305.41173912 -21.52920198 301.71824746 -23 298 C-23.33 298 -23.66 298 -24 298 Z " fill="#FFFFFF" transform="translate(2066,34)"/>
<path d="M0 0 C1.96353424 -0.00101212 1.96353424 -0.00101212 3.96673584 -0.00204468 C24.6807625 0.01487519 45.07566722 0.60622619 65.625 3.25 C66.30854553 3.33721313 66.99209106 3.42442627 67.6963501 3.51428223 C86.8510338 5.97668766 105.78856473 9.34785826 124.59307861 13.77276611 C126.77840053 14.28602892 128.96511679 14.79310219 131.15185547 15.30029297 C218.14207734 35.57962626 297.92949839 75.46653646 379.10107422 146.83935547 C380.69803688 148.31760768 382.30318258 149.78654637 383.91015625 151.25390625 C392.53621985 159.14275331 401.05074014 167.10298847 408.65625 176 C410.702771 178.33888114 412.80895043 180.61069907 414.93041992 182.88134766 C420.76830352 189.13421225 426.30768036 195.5435536 431.625 202.25 C432.46087684 203.29301736 433.29681684 204.33598412 434.1328125 205.37890625 C492.63027182 278.73046076 532.84222107 362.26171383 571.63037109 570.91357422 C571.75086271 573.64455355 571.88067465 576.37497734 572.01171875 579.10546875 C572.99463234 600.12214922 572.33112049 619.24735064 567.25 639.75 C566.95794678 640.93086182 566.66589355 642.11172363 566.36499023 643.32836914 C563.06495643 656.15397456 558.44951948 665.67385784 550.625 676.25 C549.9959375 677.14074219 549.366875 678.03148437 548.71875 678.94921875 C543.37370463 686.16276515 536.89861457 691.13185902 529.625 696.25 C528.83609375 696.83910156 528.0471875 697.42820312 527.234375 698.03515625 C519.31256864 703.45023717 509.84076956 705.13534979 500.625 707.25 C499.88523926 707.43111328 499.14547852 707.61222656 498.38330078 707.79882812 C487.77590486 710.32428764 477.23156707 710.39386911 466.37012291 710.37304783 C464.82699334 710.3737884 463.28386393 710.37496798 461.74073499 710.37654433 C457.50279138 710.3796048 453.26487187 710.37644534 449.02693006 710.37226619 C444.41555216 710.36882535 439.80417664 710.37120406 435.19279826 710.37284368 C427.11180453 710.374916 419.03081816 710.37327606 410.94982529 710.36920547 C398.93369052 710.36316949 386.9175604 710.36286976 374.9014244 710.36374746 C354.68820176 710.36506133 334.4749824 710.36172006 314.26176071 710.35573006 C294.24676879 710.34981399 274.23177822 710.3459643 254.21678543 710.34487724 C252.97253342 710.3448085 251.72828141 710.34473976 250.44632479 710.34466894 C244.12745404 710.34433061 237.8085833 710.34402923 231.48971255 710.34374207 C186.72767856 710.34164139 141.9656462 710.33490407 97.20361328 710.32543945 C86.35563152 710.32314777 75.50764975 710.3208724 64.65966797 710.31866455 C63.65046616 710.31845913 63.65046616 710.31845913 62.62087643 710.31824955 C31.33868276 710.3119044 0.05648893 710.30817954 -31.22570522 710.30512976 C-33.25679736 710.30493169 -35.2878895 710.3047325 -37.31898163 710.30453308 C-50.77923856 710.30321328 -64.2394955 710.30193864 -77.69975244 710.30069422 C-105.12009662 710.29815876 -132.54044077 710.29533672 -159.96078491 710.29234314 C-161.22154107 710.29220585 -162.48229722 710.29206856 -163.7812581 710.29192711 C-247.97917281 710.28272571 -332.17708653 710.26688042 -416.375 710.25 C-415.76007556 714.19999222 -415.13840447 718.14889551 -414.515625 722.09765625 C-414.34369629 723.20258423 -414.17176758 724.30751221 -413.99462891 725.44592285 C-407.80638823 764.53977353 -393.60786012 802.73657966 -376.375 838.25 C-375.6639209 839.7335498 -375.6639209 839.7335498 -374.93847656 841.24707031 C-361.14515606 869.94860229 -344.68546177 897.64996871 -324.375 922.25 C-323.62089844 923.19488281 -322.86679687 924.13976563 -322.08984375 925.11328125 C-317.33438995 931.04292118 -312.32612775 936.67183732 -307.1484375 942.23046875 C-305.06802997 944.46977265 -303.061793 946.76283884 -301.06640625 949.078125 C-297.20452815 953.50888422 -293.10348589 957.66901269 -288.9375 961.8125 C-287.86918945 962.88661133 -287.86918945 962.88661133 -286.77929688 963.98242188 C-282.14113538 968.61215801 -277.33917139 972.97481751 -272.375 977.25 C-271.2532687 978.24782377 -270.13340673 979.24775383 -269.015625 980.25 C-206.29030821 1035.9996858 -122.67886919 1070.82021938 -39.375 1078.25 C-38.4579126 1078.33757568 -37.5408252 1078.42515137 -36.59594727 1078.51538086 C-23.99150827 1079.54395887 -11.35729749 1079.43731789 1.28051758 1079.43530273 C5.2580535 1079.43518253 9.23540004 1079.45562315 13.21289062 1079.47460938 C35.73938323 1079.52474433 58.14755448 1078.3748929 80.5 1075.5 C81.14801575 1075.41729858 81.79603149 1075.33459717 82.46368408 1075.24938965 C106.47129054 1072.15130814 129.68864512 1067.01203079 152.625 1059.25 C153.65931152 1058.90598145 154.69362305 1058.56196289 155.75927734 1058.20751953 C193.55545275 1045.54978397 230.31722912 1027.05587059 261.625 1002.25 C263.13126953 1001.06277344 263.13126953 1001.06277344 264.66796875 999.8515625 C270.24205931 995.37027671 275.57129972 990.65730633 280.82421875 985.8046875 C282.32901044 984.432116 283.84054288 983.06600725 285.38964844 981.74365234 C290.15512141 977.67379047 294.52865296 973.33376281 298.88061523 968.82666016 C317.61122124 949.50772213 336.34797997 936.61457274 362.625 930.25 C363.87925781 929.92902344 365.13351562 929.60804688 366.42578125 929.27734375 C378.95537658 926.28083319 390.21351477 926.84437152 402.6875 929.875 C403.82856201 930.14860352 404.96962402 930.42220703 406.14526367 930.70410156 C419.95460709 934.15718076 429.7019764 940.36496336 440.625 949.25 C441.44097656 949.83523438 442.25695313 950.42046875 443.09765625 951.0234375 C460.96893023 966.76783652 468.00667417 991.83419722 469.828125 1014.8125 C469.98336226 1022.88483765 468.46141132 1030.42240873 466.625 1038.25 C466.45339355 1039.00941895 466.28178711 1039.76883789 466.10498047 1040.55126953 C461.33401887 1061.4215618 451.92097398 1076.50871876 437.625 1092.25 C436.12485174 1093.91653322 434.62486026 1095.58320757 433.125 1097.25 C432.08859375 1098.3946875 432.08859375 1098.3946875 431.03125 1099.5625 C429.72914983 1101.01679369 428.43188134 1102.47578886 427.16308594 1103.95922852 C422.44172798 1109.46071601 417.42763795 1114.6335431 412.30175781 1119.75854492 C410.88580053 1121.17668284 409.47801711 1122.60296665 408.0703125 1124.02929688 C402.64695336 1129.46398615 397.07653583 1134.51027873 391.06298828 1139.28564453 C388.71359179 1141.17861911 386.47484911 1143.15055588 384.25 1145.1875 C309.42046446 1212.23054066 210.31626001 1245.58568556 24.73046875 1269.453125 C23.55704642 1269.45736607 23.55704642 1269.45736607 22.35991859 1269.46169281 C18.20340281 1269.47656706 14.04692054 1269.48586529 9.89038086 1269.49023438 C6.5390305 1269.49457581 3.18794388 1269.50831472 -0.16333008 1269.53125 C-69.86437665 1269.99826211 -139.35058999 1257.56514934 -205.375 1235.25 C-206.45185059 1234.88696777 -207.52870117 1234.52393555 -208.63818359 1234.14990234 C-232.68372724 1225.95641859 -255.62749842 1215.51285155 -278.375 1204.25 C-279.70797119 1203.59161133 -279.70797119 1203.59161133 -281.06787109 1202.91992188 C-303.86895737 1191.56488556 -325.64027473 1178.02188761 -346.375 1163.25 C-347.14521484 1162.70359863 -347.91542969 1162.15719727 -348.70898438 1161.59423828 C-370.57444606 1146.05137403 -391.61784045 1129.41292189 -411.375 1111.25 C-411.92381836 1110.74629883 -412.47263672 1110.24259766 -413.03808594 1109.72363281 C-436.2086281 1088.41579583 -436.2086281 1088.41579583 -445.62109375 1077.28125 C-447.43290749 1075.18293565 -449.31622963 1073.16084603 -451.21166992 1071.13818359 C-456.65016659 1065.31545042 -461.63073352 1059.24708458 -466.49609375 1052.94140625 C-468.98928704 1049.71790971 -471.56705081 1046.57233725 -474.16479492 1043.43286133 C-480.83629829 1035.3537093 -486.9489296 1026.98873738 -492.89990234 1018.36914062 C-494.347824 1016.28904132 -495.81904912 1014.22799478 -497.30078125 1012.171875 C-509.74178726 994.87548965 -520.92614927 976.80949711 -531.375 958.25 C-531.82439941 957.45948242 -532.27379883 956.66896484 -532.73681641 955.85449219 C-575.52451611 880.47892754 -599.11509906 794.05591995 -611.375 692.25 C-611.55289063 690.56777344 -611.55289063 690.56777344 -611.734375 688.8515625 C-615.86690596 647.82143369 -615.01607358 605.20675638 -610.375 564.25 C-610.28778687 563.47732788 -610.20057373 562.70465576 -610.11071777 561.90856934 C-607.58665569 539.82670959 -604.06026081 517.98091326 -599.375 496.25 C-599.21580078 495.50963501 -599.05660156 494.76927002 -598.89257812 494.00646973 C-589.10954205 448.67665788 -576.27416648 404.67572382 -557.375 362.25 C-556.93333496 361.24855957 -556.49166992 360.24711914 -556.03662109 359.21533203 C-541.44210383 326.21648376 -523.88981065 294.92956598 -503.375 265.25 C-502.85454102 264.49541504 -502.33408203 263.74083008 -501.79785156 262.96337891 C-491.07506443 247.47075336 -479.74406601 232.53437622 -467.78369141 217.97900391 C-465.92646782 215.69947922 -464.1212653 213.38056567 -462.3125 211.0625 C-458.70387982 206.52878863 -454.81204528 202.28887381 -450.84936523 198.06567383 C-448.27027597 195.31687901 -445.75827215 192.53634627 -443.3125 189.66796875 C-438.5260224 184.17031606 -433.33919583 179.06488983 -428.17797852 173.92260742 C-426.441064 172.191053 -424.70956111 170.45421641 -422.97851562 168.71679688 C-417.28012533 163.0146276 -411.54486539 157.44673357 -405.375 152.25 C-404.28017218 151.30072082 -403.18639202 150.35023178 -402.09375 149.3984375 C-388.38911322 137.5620391 -374.40963776 126.30351145 -359.62304688 115.84082031 C-357.40604569 114.27196934 -355.19476702 112.69533221 -352.984375 111.1171875 C-348.7989883 108.13581615 -344.59407906 105.18347269 -340.375 102.25 C-339.78251465 101.83717773 -339.1900293 101.42435547 -338.57958984 100.99902344 C-282.41793696 62.09463291 -218.65509962 35.13991525 -152.375 19.25 C-151.58097778 19.05921875 -150.78695557 18.8684375 -149.96887207 18.671875 C-121.2027794 11.78376026 -92.48443052 6.21080532 -63.0625 3 C-62.29966705 2.91664398 -61.53683411 2.83328796 -60.75088501 2.74740601 C-40.48493292 0.56424332 -20.37678754 0.00946236 0 0 Z M-56.375 190.25 C-57.75490616 190.42039795 -57.75490616 190.42039795 -59.16268921 190.59423828 C-64.3964048 191.25599058 -69.60691037 192.02072763 -74.8125 192.875 C-75.57195923 192.99805511 -76.33141846 193.12111023 -77.1138916 193.24789429 C-93.30521055 195.91201115 -108.80603773 200.09337359 -124.375 205.25 C-125.49326172 205.6202832 -126.61152344 205.99056641 -127.76367188 206.37207031 C-142.99714218 211.49671484 -157.75665891 217.58499232 -172.375 224.25 C-173.25607422 224.64799805 -174.13714844 225.04599609 -175.04492188 225.45605469 C-195.4165467 234.70280335 -214.87922903 245.66313107 -233.375 258.25 C-233.97570312 258.65782715 -234.57640625 259.0656543 -235.1953125 259.48583984 C-245.01538434 266.20469406 -254.26375383 273.60542848 -263.375 281.25 C-264.37942139 282.08233154 -265.38384277 282.91466309 -266.41870117 283.7722168 C-275.2535169 291.16164913 -283.49174998 299.05616974 -291.60864258 307.22290039 C-293.69585192 309.32089508 -295.7936359 311.40789115 -297.89257812 313.49414062 C-305.18125833 320.77561305 -312.02460711 328.12682956 -318.375 336.25 C-319.26144628 337.31298495 -320.15347561 338.37137934 -321.0546875 339.421875 C-338.00317144 359.32578853 -351.72806225 381.4284582 -364.375 404.25 C-364.74431641 404.90742187 -365.11363281 405.56484375 -365.49414062 406.2421875 C-386.04621106 442.86652717 -404.4085524 486.48486678 -410.375 528.25 C-146.375 528.25 117.625 528.25 389.625 528.25 C387.40071744 510.84116404 387.40071744 510.84116404 383.875 493.8125 C383.61533447 492.77287109 383.35566895 491.73324219 383.08813477 490.66210938 C382.28911445 487.51845413 381.46397437 484.38320986 380.625 481.25 C380.3779834 480.32171387 380.1309668 479.39342773 379.87646484 478.43701172 C363.03861968 416.47596432 329.95815242 358.34264967 286.625 311.25 C286.07827637 310.6528418 285.53155273 310.05568359 284.96826172 309.44042969 C276.86024052 300.60205433 268.57571185 292.23175793 259.625 284.25 C258.16066512 282.87975893 256.69634752 281.50949588 255.23461914 280.13647461 C248.36724797 273.72308851 241.11618493 267.91471903 233.625 262.25 C232.9841748 261.75806152 232.34334961 261.26612305 231.68310547 260.75927734 C218.07693186 250.35611994 203.48383106 241.70945952 188.625 233.25 C187.8220752 232.79109375 187.01915039 232.3321875 186.19189453 231.859375 C143.37400682 207.6224636 96.36300134 193.4219206 47.625 188.25 C46.81669739 188.16153809 46.00839478 188.07307617 45.17559814 187.98193359 C37.7184366 187.22809166 30.31585068 187.07281983 22.82421875 187.046875 C20.85676445 187.03832489 20.85676445 187.03832489 18.8495636 187.02960205 C16.07524235 187.01916015 13.30094939 187.01327702 10.52661133 187.00976562 C7.75108294 187.00543563 4.97587504 186.99174765 2.20043945 186.96875 C-17.53611542 186.80877805 -36.76145095 187.80602306 -56.375 190.25 Z " fill="#FFFFFF" transform="translate(631.375,449.75)"/>
<path d="M0 0 C0.66249126 -0.00044186 1.32498253 -0.00088371 2.00754929 -0.00133896 C24.21691751 -0.00908595 46.18828737 0.59051817 68.25 3.25 C69.32465515 3.37728485 69.32465515 3.37728485 70.42102051 3.50714111 C92.25886283 6.1106839 113.76284329 10.04033032 135.22723389 14.80145264 C137.21749493 15.24279202 139.20853985 15.68044527 141.19970703 16.11767578 C225.14767401 34.67972783 301.50785148 69.01776255 371.25 119.25 C372.40483887 120.08168701 372.40483887 120.08168701 373.58300781 120.93017578 C384.77342179 129.01822896 395.64430979 137.41003534 406.25 146.25 C406.82975586 146.73065918 407.40951172 147.21131836 408.00683594 147.70654297 C414.94862753 153.46882671 421.69467574 159.40253721 428.30078125 165.546875 C430.43973737 167.53144694 432.63385789 169.4360899 434.8515625 171.33203125 C440.03604493 175.85196232 444.87178527 180.72192877 449.72290039 185.5925293 C451.30959946 187.18458966 452.90157742 188.7712299 454.49414062 190.35742188 C459.95703723 195.8167497 465.23917929 201.36893815 470.25 207.25 C471.70445517 208.85768373 473.16220895 210.46239715 474.625 212.0625 C492.12801195 231.48729536 507.81769823 252.88015244 522.75 274.3125 C523.39606201 275.23925537 524.04212402 276.16601074 524.70776367 277.12084961 C574.77046885 349.50277247 604.78794311 430.50443173 630.5625 571.1875 C630.64408356 571.95257874 630.72566711 572.71765747 630.8097229 573.50592041 C632.87022179 593.170426 633.39952548 612.78628667 633.39044189 632.548172 C633.39303224 634.83575782 633.39604724 637.12334319 633.3994453 639.41092795 C633.40743874 645.64185433 633.40930053 651.87276914 633.41004276 658.10370004 C633.41171467 664.15059157 633.41804133 670.19747733 633.42412117 676.24436561 C633.44009113 692.41176731 633.44607236 708.57916797 633.45086992 724.74657615 C633.45321308 732.40206363 633.45681629 740.05755036 633.4605653 747.71303726 C633.47338747 773.94941893 633.48411198 800.18580021 633.4875679 826.42218494 C633.48778953 828.06522856 633.48801131 829.70827217 633.48823325 831.35131578 C633.48845389 832.99813633 633.48867437 834.64495688 633.4888947 836.29177743 C633.48933723 839.59515305 633.48978436 842.89852868 633.49023438 846.2019043 C633.49034377 847.02093319 633.49045316 847.83996209 633.49056586 848.68381005 C633.49420003 875.26681554 633.51014047 901.84979382 633.53342474 928.43278889 C633.55803458 956.58081245 633.57174108 984.72882045 633.57293582 1012.87685508 C633.57310726 1015.96755739 633.57332268 1019.05825971 633.57357025 1022.14896202 C633.57362602 1022.90990288 633.57368179 1023.67084375 633.57373925 1024.45484342 C633.57488805 1036.67995968 633.58589444 1048.90504787 633.60045731 1061.13015466 C633.61484039 1073.41665897 633.61804887 1085.7031274 633.61001733 1097.98963783 C633.60596155 1104.64061201 633.60703179 1111.29151199 633.62107468 1117.94248009 C633.63382294 1124.03596469 633.63260782 1130.12928434 633.62048396 1136.22276875 C633.61852872 1138.42161731 633.62159735 1140.62047759 633.63032833 1142.81930969 C633.6745608 1154.71624098 633.17707176 1165.68435569 630.25 1177.25 C629.85577655 1178.99427425 629.46334413 1180.73895636 629.07421875 1182.484375 C622.71715593 1208.41230807 606.85110437 1226.8174299 584.56396484 1240.87207031 C579.37466162 1243.9622188 574.07546144 1245.80080549 568.25 1247.25 C567.40421387 1247.47123535 566.55842773 1247.6924707 565.68701172 1247.92041016 C540.69250667 1254.34781626 514.70880388 1254.42681759 491.48046875 1241.35546875 C463.01651641 1222.80399316 450.37318279 1200.94343756 442.83496094 1168.26269531 C441.62028801 1162.00682557 441.12100153 1155.91641343 441.04467773 1149.54882812 C441.03477814 1148.82589569 441.02487854 1148.10296326 441.01467896 1147.35812378 C440.98341653 1144.99919769 440.95844808 1142.64025154 440.93359375 1140.28125 C440.91299365 1138.63358068 440.89199644 1136.98591628 440.87062073 1135.33825684 C440.81571532 1131.02457695 440.76616847 1126.7108519 440.71777344 1122.39709473 C440.66732655 1117.98604362 440.61176214 1113.57505723 440.55664062 1109.1640625 C440.44944538 1100.52609656 440.34791644 1091.88807609 440.25 1083.25 C439.74662109 1083.75861572 439.24324219 1084.26723145 438.72460938 1084.79125977 C436.40248022 1087.13440728 434.0762723 1089.47346602 431.75 1091.8125 C430.95851562 1092.61236328 430.16703125 1093.41222656 429.3515625 1094.23632812 C425.01968019 1098.58596405 420.6245689 1102.78655104 415.96089172 1106.7796936 C413.3866432 1108.9919517 410.92116666 1111.31154267 408.4375 1113.625 C402.89340173 1118.74000206 397.14094098 1123.53724722 391.25 1128.25 C390.13094186 1129.16076019 389.01248112 1130.07225476 387.89453125 1130.984375 C313.56879179 1191.37530511 229.34866019 1231.58787478 41.25 1268.25 C39.67900795 1268.38269287 39.67900795 1268.38269287 38.07627869 1268.51806641 C29.21547052 1269.21049094 20.3968072 1269.4292146 11.51171875 1269.453125 C10.41779281 1269.45736607 10.41779281 1269.45736607 9.30176735 1269.46169281 C5.4252145 1269.47656957 1.54869762 1269.48586565 -2.32788086 1269.49023438 C-5.45039865 1269.49457165 -8.57263273 1269.50829334 -11.69506836 1269.53125 C-100.56483878 1270.17086257 -190.01751687 1248.98290525 -284.56689453 1205.38867188 C-287.22066906 1204.00450677 -289.88968178 1202.65161796 -292.55859375 1201.296875 C-324.68082053 1184.91584864 -355.14121601 1165.20313126 -383.75 1143.25 C-384.50764648 1142.6734668 -385.26529297 1142.09693359 -386.04589844 1141.50292969 C-398.93222781 1131.68706651 -411.29815461 1121.3888628 -423.2734375 1110.48046875 C-424.66094709 1109.23083472 -426.05455359 1107.98762651 -427.46925354 1106.76885986 C-432.34125923 1102.56854354 -436.9633467 1098.18342169 -441.50390625 1093.62890625 C-442.20845444 1092.92531479 -442.91300262 1092.22172333 -443.63890076 1091.49681091 C-445.11653367 1090.01985352 -446.59292457 1088.54165258 -448.06811523 1087.06225586 C-450.30666481 1084.81834915 -452.55050473 1082.57983296 -454.79492188 1080.34179688 C-456.23990404 1078.89615382 -457.68457592 1077.45020055 -459.12890625 1076.00390625 C-459.78951553 1075.3453212 -460.45012482 1074.68673615 -461.13075256 1074.00819397 C-465.53461988 1069.58244278 -469.68477146 1064.98733927 -473.75 1060.25 C-474.72325418 1059.13219901 -475.69709373 1058.01490703 -476.671875 1056.8984375 C-483.62388813 1048.87305877 -490.27375768 1040.66237719 -496.75 1032.25 C-497.36423828 1031.4564209 -497.97847656 1030.6628418 -498.61132812 1029.84521484 C-506.86266138 1019.17615222 -514.93278332 1008.44160477 -522.42578125 997.22460938 C-523.79184555 995.18760199 -525.17582626 993.16364902 -526.5625 991.140625 C-539.02395736 972.84947815 -550.24744366 953.72553928 -560.75 934.25 C-561.65262573 932.5956897 -561.65262573 932.5956897 -562.57348633 930.90795898 C-567.25753395 922.27640984 -571.55180177 913.52742178 -575.5625 904.5625 C-575.85992096 903.90014343 -576.15734192 903.23778687 -576.46377563 902.55535889 C-591.14518254 869.78838665 -603.00695114 836.07129059 -611.75 801.25 C-612.10050857 799.88132367 -612.45178 798.51284254 -612.80371094 797.14453125 C-620.25581863 768.1162548 -626.40422753 738.88890394 -630.0625 709.125 C-630.20985596 707.93229492 -630.35721191 706.73958984 -630.5090332 705.51074219 C-633.18069872 682.15284171 -634.13013824 658.81095055 -634.0625 635.3125 C-634.06057313 633.9727581 -634.05873296 632.63301606 -634.05697632 631.29327393 C-634.01615291 609.8285997 -633.36194306 588.56603354 -630.75 567.25 C-630.61564545 566.1486673 -630.61564545 566.1486673 -630.47857666 565.02508545 C-619.40368266 475.28257884 -592.60308054 385.49061066 -544.75 308.25 C-544.19828125 307.35023438 -543.6465625 306.45046875 -543.078125 305.5234375 C-541.33782438 302.74067958 -539.55191402 299.99336348 -537.75 297.25 C-537.03118652 296.15244385 -537.03118652 296.15244385 -536.29785156 295.03271484 C-528.09679984 282.53505713 -519.63581936 270.27037913 -510.75 258.25 C-510.22100098 257.53408691 -509.69200195 256.81817383 -509.14697266 256.08056641 C-503.16895381 248.01051527 -497.10204729 240.03093318 -490.75 232.25 C-490.06808594 231.40566406 -489.38617188 230.56132813 -488.68359375 229.69140625 C-474.73162477 212.49479333 -459.87410366 196.31716136 -444.25 180.625 C-443.52087402 179.89120117 -442.79174805 179.15740234 -442.04052734 178.40136719 C-438.01378124 174.38659722 -433.88822986 170.55228393 -429.58105469 166.84033203 C-427.03264305 164.62695158 -424.58484635 162.31097957 -422.125 160 C-417.26707417 155.49342866 -412.19796559 151.34821604 -406.95361328 147.30126953 C-403.21731066 144.41687257 -399.58889692 141.44340773 -396 138.375 C-388.9842473 132.48511743 -381.54058607 127.22482142 -374.07910156 121.91894531 C-371.82756391 120.30557934 -369.59469824 118.66977135 -367.3671875 117.0234375 C-355.8438427 108.53044433 -343.92178942 100.77982403 -331.75 93.25 C-331.04214355 92.81171875 -330.33428711 92.3734375 -329.60498047 91.921875 C-319.50714381 85.70005216 -309.17661205 79.90039255 -298.75 74.25 C-297.89970215 73.78722656 -297.0494043 73.32445312 -296.17333984 72.84765625 C-219.95667092 31.57236609 -132.05072916 8.01065795 -45.75 1.25 C-44.56583496 1.1557373 -43.38166992 1.06147461 -42.16162109 0.96435547 C-28.12335826 -0.00842114 -14.06647646 0.00642877 0 0 Z M-81.375 192.9375 C-82.13551666 193.06216644 -82.89603333 193.18683289 -83.67959595 193.3152771 C-99.03391456 195.8596573 -113.90194698 199.54851284 -128.75 204.25 C-129.83748535 204.59401855 -130.9249707 204.93803711 -132.04541016 205.29248047 C-181.70485219 221.26960709 -230.71301421 244.74854111 -271.75 277.25 C-272.77480469 278.06065918 -272.77480469 278.06065918 -273.8203125 278.88769531 C-281.18053209 284.73716872 -288.42786969 290.68072318 -295.34375 297.0546875 C-296.65017795 298.24659092 -297.96417251 299.43121261 -299.31420898 300.57348633 C-305.85705254 306.13781457 -311.87326134 312.22229616 -317.93188477 318.30151367 C-319.80829475 320.18328274 -321.68998969 322.05964738 -323.57226562 323.93554688 C-329.50873624 329.86808491 -335.37172549 335.7983846 -340.75 342.25 C-341.28133545 342.87463135 -341.8126709 343.4992627 -342.36010742 344.14282227 C-406.90726202 420.28986652 -442.82862623 515.80421907 -447.375 615.125 C-447.41512207 615.99060547 -447.45524414 616.85621094 -447.49658203 617.74804688 C-448.07347768 632.14092257 -447.77949297 646.49810869 -447 660.875 C-446.93614609 662.06388824 -446.93614609 662.06388824 -446.8710022 663.27679443 C-445.97972194 679.39858193 -444.22705355 695.28797106 -441.75 711.25 C-441.57629883 712.39581543 -441.40259766 713.54163086 -441.22363281 714.72216797 C-428.36241614 797.46424679 -384.6849566 876.88382554 -328.14746094 937.73486328 C-326.7031885 939.30075335 -325.27606162 940.88095678 -323.8515625 942.46484375 C-317.35841894 949.65291643 -310.55361198 956.32452355 -303.35253906 962.80029297 C-301.77193073 964.23016078 -300.20782648 965.67595175 -298.6484375 967.12890625 C-292.74837266 972.62000873 -286.73261846 977.91942792 -280.4140625 982.92919922 C-279.20275782 983.89063676 -277.99487681 984.8563925 -276.7890625 985.82470703 C-266.17464993 994.33713543 -255.34149001 1002.12751818 -243.75 1009.25 C-242.97962402 1009.72646973 -242.20924805 1010.20293945 -241.41552734 1010.69384766 C-180.65024427 1048.15528055 -114.22641506 1073.38717436 -42.75 1079.25 C-41.34041016 1079.37918823 -41.34041016 1079.37918823 -39.90234375 1079.51098633 C-27.82801267 1080.48285228 -15.74491921 1080.43609049 -3.63867188 1080.43530273 C0.08215022 1080.43747498 3.80266813 1080.45564596 7.5234375 1080.47460938 C28.06226999 1080.52358274 48.41098764 1079.36611087 68.75 1076.4375 C69.95664307 1076.26500732 71.16328613 1076.09251465 72.40649414 1075.91479492 C145.78816774 1065.11955036 220.05503669 1032.5880343 277.25 985.25 C278.05824219 984.58605225 278.05824219 984.58605225 278.8828125 983.90869141 C286.72313087 977.4501827 294.22927498 970.66933141 301.65039062 963.73632812 C303.76087675 961.77530255 305.8923088 959.83787076 308.02416992 957.90014648 C315.95096409 950.88750417 315.95096409 950.88750417 323.25 943.25 C323.25 942.59 323.25 941.93 323.25 941.25 C323.91 941.25 324.57 941.25 325.25 941.25 C326.75273886 939.80316948 326.75273886 939.80316948 328.3125 937.875 C331.02923786 934.67453655 333.79335219 931.53693937 336.625 928.4375 C350.92561873 912.52926138 363.77915073 895.26653829 375.0859375 877.11523438 C376.13865922 875.42840679 377.20894438 873.75257147 378.28125 872.078125 C387.9619679 856.76354668 396.4230519 840.58235805 404.25 824.25 C404.6123877 823.50540527 404.97477539 822.76081055 405.34814453 821.99365234 C424.38525279 782.65672944 440.17515694 738.0716876 442.53100586 694.22119141 C442.84292316 688.80319261 443.56048402 683.80230842 444.78125 678.51171875 C447.32489515 666.41698525 446.69947938 653.84947626 446.64111328 641.54760742 C446.62426312 637.95802132 446.63402812 634.36911464 446.65143394 630.77955341 C446.75500634 605.54334441 444.9756793 580.61813341 440.875 555.6875 C440.76950836 555.0340863 440.66401672 554.38067261 440.55532837 553.7074585 C433.34850479 509.1742682 418.09353075 466.16486418 397.25830078 426.19287109 C396.15628048 424.06941406 395.07639293 421.93536481 393.99609375 419.80078125 C387.72966061 407.5333769 380.67184293 395.84915139 373.25 384.25 C372.59281982 383.21383545 372.59281982 383.21383545 371.92236328 382.15673828 C361.74680271 366.16887814 349.81592312 351.41221726 337.25 337.25 C336.41339844 336.30125 335.57679687 335.3525 334.71484375 334.375 C327.56705125 326.45874085 320.02950011 318.92548086 312.5 311.375 C311.95638824 310.82870941 311.41277649 310.28241882 310.85269165 309.71957397 C304.83305368 303.67747001 298.7672314 297.76070196 292.25 292.25 C290.80367187 290.9815625 290.80367187 290.9815625 289.328125 289.6875 C229.51343721 238.13450942 152.15778495 203.28129865 74.25 191.5625 C73.57313141 191.45949585 72.89626282 191.3564917 72.19888306 191.25036621 C50.17753275 187.93737528 28.26797388 186.89522513 6.01953125 186.93432617 C3.18733753 186.93893702 0.35557548 186.93209075 -2.4765625 186.91381836 C-29.02173263 186.74453257 -55.15334682 188.56440942 -81.375 192.9375 Z " fill="#FFFFFF" transform="translate(6356.75,449.75)"/>
<path d="M0 0 C0.7075946 0.08721313 1.41518921 0.17442627 2.14422607 0.26428223 C22.32681191 2.77267404 42.18894911 6.37555676 62 11 C63.31060906 11.30121921 64.62132169 11.60198803 65.93212891 11.90234375 C130.68984484 26.78280703 193.23956348 50.68042855 248.12011719 88.70458984 C250.2909108 90.20046399 252.47688772 91.67271727 254.6640625 93.14453125 C269.11153103 102.89482143 282.70640045 113.48202825 296.18408203 124.52050781 C297.75844883 125.80319977 299.34496236 127.07095538 300.93359375 128.3359375 C307.78213628 133.81070107 314.14759985 139.72482453 320.515625 145.7421875 C323.83661872 148.87151654 327.255105 151.86407801 330.77734375 154.765625 C332 156 332 156 332 158 C332.57363281 158.23589844 333.14726562 158.47179687 333.73828125 158.71484375 C336.50740972 160.28832089 338.11309973 162.14803411 340.1875 164.5625 C343.23299514 168.03806506 346.32925359 171.38559114 349.625 174.625 C357.00226419 181.9256836 363.4761357 189.93931275 370 198 C370.92835983 199.13543759 371.85674628 200.27085341 372.78515625 201.40625 C380.01071314 210.28969688 386.79240292 219.44305296 393.41943359 228.77978516 C394.91117798 230.87523208 396.41626893 232.9603015 397.92578125 235.04296875 C411.80412378 254.29205583 424.18910857 274.42701644 435.51464844 295.27148438 C436.79983139 297.63230039 438.1025401 299.98189514 439.4140625 302.328125 C462.07733829 343.35978346 477.66533028 389.39959844 488.49346924 434.88214111 C489.02730072 437.11414721 489.56930803 439.34405618 490.11279297 441.57373047 C497.15022435 470.50762053 502.85576017 499.4669517 506.25 529.0625 C506.40122314 530.35953857 506.55244629 531.65657715 506.70825195 532.99291992 C510.35565362 566.00816389 510.30012519 599.11937658 510.27739317 632.28894066 C510.27294741 639.3807686 510.28036708 646.47257393 510.28786864 653.56439755 C510.3029806 668.2502376 510.3048276 682.9360602 510.30234561 697.62190641 C510.30050356 708.95915569 510.30229151 720.29639934 510.30657005 731.63364792 C510.30717248 733.26992148 510.30777368 734.90619504 510.30837366 736.5424686 C510.30928101 739.00882793 510.31018969 741.47518726 510.31110601 743.94154659 C510.31951418 766.81748489 510.32388544 789.6934211 510.31969929 812.56936073 C510.31954291 813.42875167 510.31938654 814.28814261 510.31922542 815.17357569 C510.31841978 819.52813461 510.317574 823.88269352 510.31671212 828.23725243 C510.31654103 829.1019093 510.31636994 829.96656617 510.31619367 830.85742477 C510.31584701 832.6059547 510.31549848 834.35448463 510.31514808 836.10301456 C510.3097816 863.35775164 510.31775637 890.61245643 510.33618164 917.8671875 C510.35690957 948.56313947 510.36762394 979.25907144 510.36360615 1009.9550308 C510.36321085 1013.22836582 510.3628493 1016.50170084 510.36250877 1019.77503586 C510.36237268 1020.98381019 510.36237268 1020.98381019 510.36223383 1022.2170042 C510.36107011 1034.35718834 510.36769803 1046.4973522 510.37832069 1058.63753128 C510.39038172 1072.43473354 510.39192014 1086.23189118 510.37953053 1100.02909411 C510.37291544 1107.7399798 510.37450209 1115.45075866 510.38811904 1123.16163574 C510.39736683 1128.92865673 510.39081564 1134.69557577 510.37827124 1140.46258657 C510.37562466 1142.7875461 510.37798958 1145.11251817 510.38600711 1147.43746538 C510.42637197 1160.02018239 509.91041286 1171.72608946 507 1184 C506.62994125 1185.74185487 506.26106213 1187.48396187 505.89453125 1189.2265625 C502.20218516 1204.77229504 495.1450568 1216.57976502 485 1229 C484.484375 1229.63164063 483.96875 1230.26328125 483.4375 1230.9140625 C473.25483546 1242.10438656 458.44387681 1250.13221764 444 1254 C443.14776855 1254.23122559 442.29553711 1254.46245117 441.41748047 1254.70068359 C422.98355709 1259.54808437 408.80168699 1260.20960204 390.1875 1255.875 C388.97118896 1255.59237305 387.75487793 1255.30974609 386.50170898 1255.01855469 C374.43298695 1251.98308076 364.3224182 1246.78901685 354.375 1239.375 C353.55596191 1238.76527344 352.73692383 1238.15554688 351.89306641 1237.52734375 C345.15060791 1232.36827032 339.87437818 1227.00024749 335 1220 C334.60103516 1219.42717285 334.20207031 1218.8543457 333.79101562 1218.26416016 C318.79591108 1196.48359425 315.06997788 1172.97413541 315.25396729 1146.89967346 C315.24863621 1144.47693907 315.24066915 1142.05420933 315.23033404 1139.63149112 C315.21396963 1134.41443748 315.21569878 1129.19773366 315.23430824 1123.98070145 C315.26186812 1116.22170794 315.25436817 1108.46300841 315.24018518 1100.70399272 C315.21722359 1087.6362007 315.22153958 1074.56855591 315.24155426 1061.50076485 C315.26122831 1048.55679999 315.26743363 1035.61293509 315.25643158 1022.66895866 C315.25574792 1021.86043949 315.25506426 1021.05192031 315.25435988 1020.21890056 C315.25080421 1016.11124443 315.24699129 1012.00358858 315.24306569 1007.89593279 C315.21563371 978.85093476 315.2143223 949.80599078 315.22998047 920.76098633 C315.23373725 913.73756921 315.23746541 906.71415208 315.24102783 899.69073486 C315.24146999 898.81974994 315.24191215 897.94876502 315.24236771 897.05138662 C315.2524005 876.8383748 315.25190794 856.62536706 315.24853516 836.41235352 C315.24839638 835.54676095 315.24825761 834.68116838 315.24811463 833.78934573 C315.2448851 813.98836394 315.23868233 794.18738459 315.22881699 774.38640499 C315.2281995 773.13452322 315.2281995 773.13452322 315.22756954 771.8573509 C315.22386015 764.34534768 315.22013634 756.83334447 315.21592352 749.32134151 C315.20506832 729.86594692 315.20291401 710.41059687 315.21661654 690.95520335 C315.22508364 678.73792626 315.22693893 666.52065926 315.22375378 654.30337966 C315.22217522 647.27332856 315.2239172 640.24331554 315.23503685 633.21327209 C315.36774827 546.10254732 307.03867615 461.63839835 264.1328125 383.94140625 C262.37130258 380.74869606 260.75871078 377.49602782 259.15234375 374.22265625 C256.18617903 368.26191348 252.91257308 362.55169365 249.4375 356.875 C248.83397705 355.88725586 248.2304541 354.89951172 247.60864258 353.88183594 C237.52196334 337.57392104 226.01455244 322.49766363 213.109375 308.32421875 C211.25373343 306.27957665 209.43243624 304.21215851 207.625 302.125 C206.41883411 300.7480983 205.21027481 299.37329142 204 298 C203.22398437 297.11828125 202.44796875 296.2365625 201.6484375 295.328125 C191.04304969 283.50264833 179.43021503 272.88261938 167 263 C165.89551535 262.08267627 164.79274578 261.16328488 163.69140625 260.2421875 C147.49202178 246.80714244 129.45788781 236.02908206 111 226 C109.74558105 225.31623291 109.74558105 225.31623291 108.46582031 224.61865234 C68.0414328 202.85589123 24.50887142 190.85825999 -21 186 C-21.80676178 185.91153809 -22.61352356 185.82307617 -23.44473267 185.73193359 C-30.91507145 184.97684167 -38.33108969 184.82279933 -45.8359375 184.796875 C-47.14994537 184.79117493 -48.46395325 184.78547485 -49.81777954 184.77960205 C-52.59629695 184.76916125 -55.37478612 184.76327713 -58.15332031 184.75976562 C-60.93568402 184.75543185 -63.71772869 184.74172827 -66.5 184.71875 C-90.85121222 184.52194567 -114.8544396 185.95868138 -138.875 190.3125 C-140.06802734 190.52559814 -141.26105469 190.73869629 -142.49023438 190.95825195 C-171.92951897 196.38675858 -200.08116013 206.16165338 -227.21923828 218.71679688 C-229.78206846 219.89943387 -232.35523401 221.05485488 -234.93359375 222.203125 C-248.16999543 228.18210314 -260.56956785 235.51419651 -273 243 C-273.77537109 243.46051758 -274.55074219 243.92103516 -275.34960938 244.39550781 C-294.91856426 256.02408622 -312.23537235 270.68193499 -329 286 C-330.00113974 286.90773117 -331.00244953 287.81527481 -332.00390625 288.72265625 C-339.77305827 295.77943305 -347.32432089 302.91924285 -354.16796875 310.890625 C-356.15311587 313.17629546 -358.2003983 315.39701378 -360.25 317.625 C-365.83580356 323.82618869 -370.94236555 330.36680591 -376 337 C-376.45133301 337.58910156 -376.90266602 338.17820312 -377.36767578 338.78515625 C-388.87236728 353.87599482 -398.76821082 369.96219253 -407.74365234 386.66796875 C-409.0306737 389.05693649 -410.33761005 391.43437102 -411.64453125 393.8125 C-424.15112985 416.8349886 -433.73407199 441.17036949 -442 466 C-442.54914062 467.63606201 -442.54914062 467.63606201 -443.109375 469.30517578 C-449.36622904 488.23159252 -453.00852494 507.34490093 -456 527 C-456.16870605 528.09940918 -456.33741211 529.19881836 -456.51123047 530.33154297 C-461.64385684 564.72400711 -461.2865353 599.38278457 -461.23182529 634.0609846 C-461.22109186 641.15755583 -461.22247825 648.2541134 -461.22432668 655.3506907 C-461.22733857 667.64839859 -461.22358235 679.94609225 -461.21493949 692.24379711 C-461.20128346 711.76712066 -461.20638295 731.29040609 -461.21731524 750.81372978 C-461.22147307 758.3535784 -461.22510411 765.89342732 -461.22881699 773.43327618 C-461.22923347 774.27058551 -461.22964995 775.10789484 -461.23007905 775.97057718 C-461.23990622 795.84000317 -461.24535628 815.70942932 -461.24853516 835.57885742 C-461.24875193 836.88067666 -461.24875193 836.88067666 -461.24897308 838.20879527 C-461.2522672 858.46362232 -461.25129546 878.71844159 -461.24102783 898.9732666 C-461.24058623 899.84515078 -461.24014462 900.71703495 -461.23968964 901.61533986 C-461.23609396 908.6448092 -461.23234857 915.67427846 -461.22856418 922.7037477 C-461.21304828 951.74478911 -461.21772922 980.78576922 -461.24543018 1009.82680269 C-461.2493263 1013.93424998 -461.25296504 1018.04169745 -461.25643158 1022.14914513 C-461.25746 1023.36139593 -461.25746 1023.36139593 -461.25850919 1024.59813664 C-461.26884987 1037.54552084 -461.25769167 1050.49279956 -461.23788755 1063.44016908 C-461.21834512 1076.46479396 -461.22043901 1089.48927304 -461.24418792 1102.51389215 C-461.25758223 1110.22923666 -461.25460303 1117.94415082 -461.22710307 1125.65946019 C-461.20833842 1131.44944806 -461.22149596 1137.23903867 -461.24611339 1143.02898856 C-461.25120447 1145.34882065 -461.24647828 1147.66870329 -461.23010364 1149.98848317 C-461.07385319 1173.74292857 -464.12809793 1199.46715884 -478.375 1219.25 C-478.8184375 1219.89195313 -479.261875 1220.53390625 -479.71875 1221.1953125 C-485.43445237 1229.32794045 -491.57506373 1235.91694248 -499.6875 1241.6875 C-500.41388672 1242.22955078 -501.14027344 1242.77160156 -501.88867188 1243.33007812 C-518.55688186 1255.33524413 -544.5279822 1262.05933954 -565 1259 C-586.7633836 1255.10859691 -603.98414781 1249.16892711 -621 1235 C-621.56138672 1234.55897949 -622.12277344 1234.11795898 -622.70117188 1233.66357422 C-627.53726907 1229.75533288 -631.05009071 1225.31302943 -634.625 1220.25 C-635.1715625 1219.50234375 -635.718125 1218.7546875 -636.28125 1217.984375 C-651.22649658 1197.1039348 -654.07302723 1171.93248539 -653.86196899 1146.9002533 C-653.86718753 1144.40551982 -653.87547302 1141.91079125 -653.88650739 1139.41607672 C-653.90332862 1134.05085354 -653.89901642 1128.68630835 -653.87481308 1123.32116127 C-653.83891929 1115.34201186 -653.84401296 1107.36323068 -653.85660596 1099.38402889 C-653.87663123 1085.94453847 -653.86403861 1072.50526829 -653.83180618 1059.06580925 C-653.79990811 1045.75591056 -653.78147693 1032.44610983 -653.78095627 1019.13617134 C-653.78091047 1018.30443561 -653.78086466 1017.47269989 -653.78081747 1016.61576005 C-653.78066974 1013.23848714 -653.78061383 1009.86121424 -653.78068096 1006.48394133 C-653.78124497 974.8638071 -653.74435627 943.24382103 -653.68805919 911.62374194 C-653.63834953 883.61120605 -653.61293586 855.59876147 -653.61083984 827.58618164 C-653.61076835 826.69586776 -653.61069686 825.80555389 -653.6106232 824.8882608 C-653.61047909 823.09168786 -653.61033707 821.29511492 -653.61019713 819.49854197 C-653.60984749 815.02251857 -653.60947661 810.54649517 -653.60907936 806.07047176 C-653.60900585 805.18716888 -653.60893233 804.30386601 -653.60885659 803.39379637 C-653.60629629 775.69063527 -653.58217265 747.9874905 -653.55470674 720.2843444 C-653.54564511 711.12083152 -653.53799871 701.95732182 -653.53470278 692.79380488 C-653.53440692 691.973491 -653.53411106 691.15317712 -653.53380624 690.30800524 C-653.53321796 688.65681184 -653.53263047 687.00561844 -653.53204379 685.35442503 C-653.52658183 670.33406812 -653.51045169 655.31377757 -653.47709651 640.293455 C-653.46127167 633.06478187 -653.44977673 625.83617705 -653.45182419 618.60748482 C-653.45727893 589.93455634 -653.34255422 561.50672227 -650 533 C-649.85078637 531.69165219 -649.70157275 530.38330438 -649.5478375 529.03530967 C-643.67933446 478.05335368 -631.50761093 427.2131661 -614 379 C-613.62536621 377.95489258 -613.25073242 376.90978516 -612.86474609 375.83300781 C-585.97667698 301.21262267 -540.85912349 226.67148052 -483.33984375 171.40234375 C-481.76418322 169.83447324 -481.76418322 169.83447324 -480 167 C-479.34 167 -478.68 167 -478 167 C-478 166.34 -478 165.68 -478 165 C-477.34 165 -476.68 165 -476 165 C-476 164.34 -476 163.68 -476 163 C-475.34 163 -474.68 163 -474 163 C-474 162.34 -474 161.68 -474 161 C-472.56640625 159.58984375 -472.56640625 159.58984375 -470.5625 157.9375 C-467.44304054 155.29416856 -464.53455407 152.55941855 -461.6875 149.625 C-457.61141605 145.49288741 -453.26401486 141.86074185 -448.734375 138.23828125 C-446.16706435 136.13675411 -443.73982419 133.94784384 -441.3125 131.6875 C-435.27944035 126.20462504 -428.75449682 121.43594366 -422.19042969 116.61669922 C-420.01403336 115.01035766 -417.85331985 113.38484493 -415.6953125 111.75390625 C-349.0326459 61.61778166 -274.97361103 29.66349069 -194 11 C-193.241427 10.8246875 -192.482854 10.649375 -191.70129395 10.46875 C-129.3017536 -3.88834873 -63.59273355 -7.93893658 0 0 Z " fill="#FFFFFF" transform="translate(3578,453)"/>
<path d="M0 0 C0.68288086 0.48581543 1.36576172 0.97163086 2.06933594 1.47216797 C3.99717574 2.86001076 5.90716328 4.26899409 7.8125 5.6875 C8.66972656 6.31269531 9.52695312 6.93789063 10.41015625 7.58203125 C24.26561516 18.72171963 33.19247383 36.20932069 37.0625 53.1875 C37.5659463 55.32333277 38.07106764 57.45877163 38.578125 59.59375 C38.79243164 60.52509766 39.00673828 61.45644531 39.22753906 62.41601562 C39.73061061 64.69874203 39.73061061 64.69874203 40.8125 66.6875 C41.9496808 79.59175713 40.90436379 91.42528074 36.8125 103.6875 C36.42819664 105.03586902 36.05079134 106.38621985 35.6796875 107.73828125 C29.72781513 128.9667095 16.49894452 145.55685702 -1.5625 157.9375 C-2.13822754 158.33791504 -2.71395508 158.73833008 -3.30712891 159.15087891 C-29.32510512 176.37002265 -62.42848285 174.55943484 -92.20980835 175.37364197 C-189.24371089 178.14448208 -285.19203704 203.04621182 -382.1875 271.6875 C-382.74518066 272.15043457 -383.30286133 272.61336914 -383.87744141 273.09033203 C-399.22580163 285.86552131 -414.24979417 299.44975758 -427.1875 314.6875 C-428.02152344 315.65558594 -428.85554688 316.62367188 -429.71484375 317.62109375 C-492.77943915 391.08983223 -520.84614211 486.1418995 -530.28779602 603.22792053 C-530.3302741 604.13583535 -530.37275218 605.04375016 -530.41651747 605.97917754 C-531.4514206 628.69303159 -531.45087749 651.39839272 -531.4015609 674.13116419 C-531.3906324 680.26528634 -531.39180723 686.3994086 -531.39163208 692.53353882 C-531.39015032 702.43269718 -531.38359584 712.33183916 -531.37247829 722.23099046 C-531.35381388 738.94895904 -531.35525021 755.6668835 -531.36288813 772.38485867 C-531.36546095 778.13208212 -531.36760555 783.87930576 -531.36982347 789.62652936 C-531.37038404 791.07677203 -531.37094968 792.52701469 -531.37152038 793.97725735 C-531.37818127 810.98719805 -531.38093732 827.99713812 -531.38110352 845.00708008 C-531.38112415 846.1201699 -531.38112415 846.1201699 -531.3811452 847.25574638 C-531.38145955 871.36309797 -531.36408606 895.47040587 -531.33976696 919.57774375 C-531.31478374 944.47853939 -531.3133522 969.37924274 -531.33901519 994.28003956 C-531.34262279 997.80303155 -531.34593599 1001.32602374 -531.34905434 1004.84901619 C-531.34967253 1005.54208612 -531.35029071 1006.23515606 -531.35092764 1006.94922811 C-531.36007535 1018.03152305 -531.34434909 1029.11364518 -531.31855552 1040.19590812 C-531.29306567 1051.34286581 -531.29355249 1062.48964094 -531.31818654 1073.63661306 C-531.33070561 1079.65765065 -531.33226133 1085.67812765 -531.30260277 1091.69911766 C-531.00441181 1156.41208333 -531.00441181 1156.41208333 -551.4375 1182.375 C-552.0046875 1183.10267578 -552.571875 1183.83035156 -553.15625 1184.58007812 C-570.74630586 1206.7063083 -594.83799958 1217.07681467 -622.51953125 1220.27734375 C-640.92902889 1221.08116633 -663.82595474 1215.18982884 -678.8125 1204.375 C-679.3497168 1203.98747559 -679.88693359 1203.59995117 -680.44042969 1203.20068359 C-682.03245657 1202.04280291 -683.61026969 1200.86545664 -685.1875 1199.6875 C-686.08726563 1199.03652344 -686.98703125 1198.38554688 -687.9140625 1197.71484375 C-706.83791957 1183.44871621 -718.87357109 1160.2436004 -722.62840533 1137.13363934 C-725.01839915 1120.0648803 -723.99846411 1102.31596373 -723.92787087 1085.13047409 C-723.90795056 1078.66235349 -723.9230268 1072.19429551 -723.93351746 1065.72616577 C-723.94789834 1054.53560015 -723.93831165 1043.34521439 -723.91357613 1032.15467072 C-723.88760788 1020.40251239 -723.87301853 1008.65043507 -723.87357903 996.89824677 C-723.87360196 996.163414 -723.8736249 995.42858123 -723.87364853 994.6714808 C-723.87377129 991.68742568 -723.87396817 988.70337057 -723.87426597 985.71931546 C-723.87697878 957.77309066 -723.84724344 929.82698822 -723.80097697 901.88080589 C-723.76019706 877.15814961 -723.74138991 852.43558028 -723.7434082 827.71289062 C-723.74352944 826.12802355 -723.74365052 824.54315648 -723.74377144 822.95828941 C-723.74383249 822.17469386 -723.74389355 821.39109831 -723.74395645 820.58375744 C-723.74425893 816.63759616 -723.74453065 812.69143488 -723.74476719 808.74527359 C-723.74481733 807.96642906 -723.74486747 807.18758453 -723.74491913 806.38513865 C-723.74602062 785.62554848 -723.73233301 764.865969 -723.7137875 744.10638785 C-723.71312668 743.36548816 -723.71246587 742.62458847 -723.71178503 741.86123728 C-723.70912092 738.88308796 -723.70645544 735.90493865 -723.70371216 732.92678941 C-723.69431204 722.65638734 -723.68971478 712.38599378 -723.68837769 702.1155877 C-723.68656804 688.85043279 -723.67423337 675.58534885 -723.64508332 662.32022396 C-723.63142595 655.94296298 -723.62201788 649.56578744 -723.62586594 643.18851089 C-723.65929797 571.48435526 -716.79868736 501.50894982 -700.1875 431.6875 C-699.99220703 430.86378906 -699.79691406 430.04007813 -699.59570312 429.19140625 C-691.15944138 393.72012749 -680.43401055 359.26631586 -666.1875 325.6875 C-665.60742188 324.31779053 -665.60742188 324.31779053 -665.015625 322.92041016 C-660.80703686 313.06034382 -656.21510149 303.40716713 -651.31201172 293.87451172 C-650.52374305 292.34144383 -649.73922987 290.80644187 -648.95751953 289.27001953 C-634.03140059 259.96269453 -616.06334358 232.84711543 -596.1875 206.6875 C-595.39601562 205.63820313 -594.60453125 204.58890625 -593.7890625 203.5078125 C-585.29409062 192.30031636 -576.21621717 181.68480201 -566.65625 171.375 C-564.69781068 169.24302808 -562.80495252 167.085454 -560.9375 164.875 C-553.34491873 156.12422837 -544.90505776 147.74364081 -536.05078125 140.2734375 C-533.83278815 138.38558593 -531.70507845 136.41047208 -529.5625 134.4375 C-523.98144006 129.40776057 -518.10709821 124.81342427 -512.16503906 120.22363281 C-510.09723963 118.61738663 -508.04382137 116.99402132 -505.9921875 115.3671875 C-474.95478622 90.83902379 -441.52399422 70.40341577 -406.1875 52.6875 C-405.32560059 52.25453613 -404.46370117 51.82157227 -403.57568359 51.37548828 C-334.84568945 17.1305251 -256.11667156 -1.40833763 0 0 Z " fill="#FFFFFF" transform="translate(7931.1875,482.3125)"/>
</svg>
