<?xml version="1.0" encoding="UTF-8"?>
<svg version="1.1" xmlns="http://www.w3.org/2000/svg" width="1694" height="368">
<path d="M0 0 C0.66370605 0.21962402 1.32741211 0.43924805 2.01123047 0.66552734 C18.83576775 6.423113 31.76088983 16.34187605 43 30 C43.43828125 29.52691406 43.8765625 29.05382812 44.328125 28.56640625 C58.19373369 14.1089728 75.67955386 4.13734491 95 -1 C96.18464844 -1.31839844 97.36929688 -1.63679688 98.58984375 -1.96484375 C118.33102223 -6.31391556 142.73585384 -6.50496819 162 0 C162.66225586 0.21962402 163.32451172 0.43924805 164.00683594 0.66552734 C185.09621842 7.8808536 202.18287738 22.17884266 212.26611328 42.13916016 C220.58846696 59.42464602 223.30604659 77.29368811 223.29052734 96.37792969 C223.29652813 97.8726179 223.30333717 99.36730304 223.31088257 100.86198425 C223.32837901 104.88030258 223.33323057 108.89853549 223.33451414 112.91688824 C223.33594413 115.43353581 223.34022931 117.95016223 223.34550858 120.4668045 C223.36394521 129.262877 223.37218604 138.05888928 223.37060547 146.85498047 C223.36940148 155.03094233 223.39057052 163.20664134 223.4220928 171.38253665 C223.4482823 178.42832888 223.45897185 185.47403526 223.45769465 192.51987576 C223.45718639 196.71694564 223.46279612 200.91378071 223.48405075 205.1108017 C223.50348199 209.05415625 223.50352469 212.9970528 223.48901749 216.94042397 C223.48693527 218.38151282 223.49159515 219.82263078 223.5037384 221.26366997 C223.57269462 230.01760161 223.4568223 238.02667733 217.35468102 244.83599472 C211.75366977 250.20777004 205.78054075 252.13363091 198.125 252.4375 C191.16328192 252.21802591 185.15742896 250.85867409 179.89453125 246.09375 C175.30069244 241.01684772 172.75501519 237.21742424 172.73498535 230.24250793 C172.72671219 229.06676712 172.71843903 227.89102631 172.70991516 226.67965698 C172.71089706 225.39294098 172.71187897 224.10622498 172.71289062 222.78051758 C172.70686431 221.40850926 172.69993953 220.03650464 172.69218445 218.664505 C172.67729585 215.70928171 172.66854598 212.75412597 172.66447449 209.79886818 C172.65774367 205.11012203 172.63596241 200.42151889 172.61193848 195.73283386 C172.56296281 185.75942291 172.53073395 175.78598125 172.5 165.8125 C172.46684326 155.08812066 172.43053395 144.36379724 172.37586927 133.6395027 C172.35651134 129.75064959 172.34117048 125.86187003 172.33552551 121.97297096 C173.48647611 85.73704999 173.48647611 85.73704999 158.2578125 54.03125 C146.50762849 42.91489334 130.64853598 39.26284801 114.86328125 39.65625 C99.66057798 41.00896778 86.57695039 46.29504841 75.96484375 57.6171875 C64.07459033 72.03677912 61.68615747 88.19353892 61.74462891 106.36230469 C61.74187148 107.75994571 61.73818706 109.15758516 61.73365784 110.55522156 C61.7256134 113.53925451 61.72336004 116.52321286 61.72560501 119.50725555 C61.72846254 124.23196925 61.71399839 128.95653642 61.69662476 133.68121338 C61.64982116 147.10727796 61.62564808 160.53332996 61.61914062 173.95947266 C61.61538526 181.39426988 61.59732723 188.82889852 61.56404626 196.26362348 C61.54389947 200.95479653 61.54142738 205.64553297 61.55232644 210.33673143 C61.55494172 213.25767783 61.54089174 216.17837194 61.52224541 219.0992527 C61.51442804 221.08715188 61.52632703 223.07509839 61.53892517 225.06297302 C61.46475394 233.11687137 60.61223976 238.62230944 55.359375 244.98828125 C48.36286171 250.74512107 42.1285732 252.62676776 33.02734375 252.33984375 C24.87050164 251.42417244 19.57358665 248.38344732 14.375 242.09765625 C11.55614244 237.79729685 10.74941473 234.13801667 10.73498535 229.02613831 C10.72671219 227.82785904 10.71843903 226.62957977 10.70991516 225.39498901 C10.71089706 224.08845367 10.71187897 222.78191833 10.71289062 221.43579102 C10.70686278 220.03906354 10.69993761 218.64233969 10.69218445 217.24562073 C10.67731155 214.24075318 10.66855004 211.23595189 10.66447449 208.23105049 C10.65774141 203.46743823 10.63595984 198.70396655 10.61193848 193.94041443 C10.562994 183.81447602 10.53071529 173.68850758 10.5 163.5625 C10.4668547 152.65983124 10.43065387 141.75721758 10.37586927 130.85463279 C10.35269946 126.13263897 10.33882427 121.41074192 10.33237457 116.68869698 C10.32637428 113.73037524 10.31222462 110.7721303 10.29603004 107.8138485 C10.28748906 105.81750564 10.28856329 103.82112861 10.29008484 101.82476807 C10.17682714 85.07317597 8.46010795 68.04384648 -3 55 C-14.17410357 43.98082334 -27.84631763 40.12350802 -43.1875 39.625 C-59.01647016 39.89846798 -72.63527926 44.74778794 -84.3125 55.6875 C-96.99342763 69.20296701 -100.63452191 84.85900914 -100.49829102 102.88647461 C-100.50212759 104.30426602 -100.50775793 105.72205351 -100.51501465 107.13983154 C-100.526839 110.15828135 -100.52657596 113.17638253 -100.51642036 116.19483757 C-100.50068738 120.97446286 -100.51465248 125.75373897 -100.53245544 130.53334045 C-100.56308587 139.80782335 -100.56478248 149.08219582 -100.56280518 158.35671997 C-100.56140625 170.18705129 -100.57183389 182.0172989 -100.6113829 193.84756857 C-100.62625739 198.59306908 -100.62609253 203.33825321 -100.61390507 208.08375823 C-100.60917967 211.03632873 -100.61673497 213.98877904 -100.62744904 216.94132996 C-100.63098287 218.95068617 -100.61961065 220.96005152 -100.60771179 222.96937561 C-100.66238046 232.75327544 -101.79563137 239.79563137 -109 247 C-116.36567534 252.18080086 -123.20798637 252.60048547 -132 252 C-138.62506572 250.76347232 -143.49592576 246.87768409 -148 242 C-151.74374273 235.84093938 -152.14797138 230.53628444 -152.14044189 223.45527649 C-152.14489858 222.14885477 -152.14489858 222.14885477 -152.1494453 220.81604069 C-152.15812999 217.89208059 -152.15964036 214.96816144 -152.16113281 212.04418945 C-152.16576118 209.94985364 -152.17078587 207.85551868 -152.17617798 205.76118469 C-152.18930301 200.06678431 -152.19574726 194.37239572 -152.20018864 188.67798257 C-152.20311948 185.11998285 -152.20722433 181.56198636 -152.21169281 178.00398827 C-152.22536864 166.87088451 -152.23503461 155.73778812 -152.2388947 144.60467654 C-152.24337439 131.75517508 -152.26091783 118.90578005 -152.2898953 106.05631095 C-152.31151775 96.12326093 -152.3215993 86.19024083 -152.32293582 76.25716752 C-152.32398353 70.32514906 -152.32988417 64.39323063 -152.34775543 58.46123695 C-152.36424553 52.87900633 -152.36638696 47.29695083 -152.35761642 41.71470451 C-152.35684653 39.66891638 -152.36118245 37.62311879 -152.37107468 35.57735443 C-152.38381441 32.7779095 -152.37790627 29.97908293 -152.36749268 27.17964172 C-152.37554908 26.37592284 -152.38360548 25.57220396 -152.39190602 24.74412996 C-152.3359787 18.28645707 -151.12044753 12.09669318 -147.421875 6.6953125 C-141.42986668 1.06730468 -135.34748427 -1.96576515 -126.94921875 -2.01953125 C-119.24772061 -1.53069364 -112.85007523 -0.96434687 -107.2890625 4.76171875 C-103.73186814 9.1778454 -101.7274222 13.62579759 -100 19 C-98.700625 17.7625 -98.700625 17.7625 -97.375 16.5 C-71.85325579 -5.3094905 -31.36354646 -10.50214426 0 0 Z " fill="#161723" transform="translate(464,112)"/>
<path d="M0 0 C5.40415049 4.85247679 8.05300105 9.8201709 9 17 C9.13944311 19.98469623 9.13931218 22.96489884 9.13371277 25.95245361 C9.13597833 26.8432615 9.13824388 27.73406938 9.14057809 28.65187144 C9.1468989 31.63153432 9.14608993 34.61115148 9.14526367 37.59082031 C9.14825655 39.72996072 9.15165938 41.86910059 9.15544128 44.00823975 C9.16427714 49.81882797 9.16661936 55.62940147 9.16725707 61.43999577 C9.16796836 65.07613592 9.17010429 68.71227234 9.17275429 72.34841156 C9.18200972 85.05161272 9.18608935 97.75480339 9.18530273 110.45800781 C9.18470344 122.26728806 9.19522562 134.07652241 9.2110464 145.88579106 C9.22416748 156.04492253 9.22948465 166.2040391 9.22884732 176.36317897 C9.22859347 182.42118489 9.23138152 188.4791501 9.24202538 194.53714752 C9.25178221 200.24662516 9.25173408 205.95602386 9.24450874 211.66550446 C9.24347192 213.74782427 9.24577133 215.83014919 9.2518692 217.91246033 C9.29465084 233.54953293 9.07620646 249.4586893 4.8125 264.625 C4.59964355 265.40367432 4.38678711 266.18234863 4.16748047 266.98461914 C-5.1347798 299.509473 -27.53516081 326.60066352 -56.91113281 343.02075195 C-90.68213634 361.186915 -132.87309532 364.62446884 -169.546875 353.6796875 C-194.10883152 345.83430479 -216.77594038 331.13918919 -233 311 C-233.79792969 310.01128906 -234.59585937 309.02257812 -235.41796875 308.00390625 C-245.50035655 294.96823047 -253.25499812 279.05000807 -257 263 C-257.29519531 261.85273438 -257.59039063 260.70546875 -257.89453125 259.5234375 C-265.09384875 226.71558879 -259.84617723 188.22613759 -241.625 159.75 C-221.92663841 129.95546262 -194.39833288 110.89843462 -159.4140625 103.578125 C-135.55674124 99.53821248 -111.69674621 101.86435254 -89 110 C-87.97777344 110.35707031 -86.95554687 110.71414062 -85.90234375 111.08203125 C-71.07648804 116.72902609 -57.48343904 126.45519494 -46.34204102 137.64379883 C-45.40171776 138.58718864 -45.40171776 138.58718864 -44.44239807 139.54963684 C-43.96640671 140.02825668 -43.49041534 140.50687653 -43 141 C-42.99853344 140.35377213 -42.99706688 139.70754427 -42.99555588 139.04173374 C-42.95844523 123.29103532 -42.89937442 107.54059365 -42.81609726 91.79007816 C-42.7763496 84.17311835 -42.7439355 76.55626121 -42.72900391 68.93920898 C-42.71596512 62.29734864 -42.68894404 55.65571462 -42.64538693 49.01398176 C-42.62282174 45.49973883 -42.60708632 41.98577452 -42.60811615 38.47145271 C-42.60900529 34.54071376 -42.57866682 30.61054085 -42.54589844 26.67993164 C-42.55344398 24.94715218 -42.55344398 24.94715218 -42.56114197 23.17936707 C-42.46416659 15.64476995 -41.56065366 8.9190164 -36.3241539 3.15548801 C-26.5018575 -6.02965913 -11.47353939 -7.23423531 0 0 Z M-190.46484375 172.19140625 C-206.36433887 190.92287251 -213.36999994 213.75251018 -211.78125 238.1328125 C-209.82456356 260.02640338 -200.66955057 278.72922542 -185 294 C-184.34515625 294.66386719 -183.6903125 295.32773437 -183.015625 296.01171875 C-166.99991901 311.24032808 -143.48644185 317.81415941 -121.8203125 317.28515625 C-101.12350459 315.74030249 -82.72323365 308.77754922 -67 295 C-66.31164063 294.40703125 -65.62328125 293.8140625 -64.9140625 293.203125 C-50.09559283 279.49750483 -41.06956315 257.8751794 -39.87597656 237.92724609 C-38.94862677 212.08166385 -45.70848578 188.70863949 -63.54882812 169.49414062 C-79.07764482 153.50552048 -99.84122809 144.94572528 -121.9921875 144.61914062 C-148.52999805 144.66877493 -171.88391292 152.42348721 -190.46484375 172.19140625 Z " fill="#161723" transform="translate(1273,6)"/>
<path d="M0 0 C0.67708008 0.13921875 1.35416016 0.2784375 2.05175781 0.421875 C33.27059075 7.15504316 63.64911696 27.74634154 80.984375 54.609375 C86.62863165 64.10397728 91.78363779 73.51800622 95.375 84 C95.60147217 84.6499292 95.82794434 85.2998584 96.0612793 85.96948242 C101.41556098 102.70437937 101.46648162 119.50964726 101.43590808 136.90331006 C101.43277815 139.65965692 101.43894876 142.41595435 101.44494683 145.17229408 C101.458885 151.67358136 101.45751523 158.17473685 101.44604492 164.67602539 C101.43451542 171.3581934 101.44874415 178.0399623 101.4754414 184.72207791 C101.49763238 190.49492556 101.50422989 196.26764815 101.49836498 202.04053539 C101.49500937 205.47348231 101.49731937 208.9061722 101.51461601 212.33908272 C101.52950864 216.15808054 101.51886366 219.97619567 101.50170898 223.79516602 C101.51137695 224.9178891 101.52104492 226.04061218 101.53100586 227.19735718 C101.45995986 234.75853624 100.29012035 240.01268748 95.359375 245.98828125 C87.47699437 252.47402648 80.17744429 253.98890147 70 253 C63.41619256 251.65864704 57.672411 248.02331353 53.93457031 242.39599609 C50.69104191 236.70022084 50.34799683 231.45888187 50.25 225 C50.22035156 224.03449219 50.19070313 223.06898438 50.16015625 222.07421875 C50.09011209 219.71606534 50.03709708 217.35886254 50 215 C49.45214844 215.59425781 48.90429688 216.18851563 48.33984375 216.80078125 C26.90782351 239.20856826 -2.5117039 253.42177013 -33.6875 254.3359375 C-36.45864178 254.37670615 -39.22860014 254.38284908 -42 254.375 C-42.72444305 254.37445618 -43.44888611 254.37391235 -44.19528198 254.37335205 C-78.08113393 254.25671825 -107.96320039 241.83743533 -132.25 218.1875 C-138.33431996 212.05007251 -143.28980595 205.22370567 -148 198 C-148.63679688 197.03578125 -149.27359375 196.0715625 -149.9296875 195.078125 C-167.47552951 166.84881474 -172.30102963 127.93130049 -164.90649414 95.68432617 C-164.32575298 93.43562822 -163.68349496 91.2195421 -163 89 C-162.75330566 88.19723633 -162.50661133 87.39447266 -162.25244141 86.56738281 C-157.00142218 70.08259933 -148.94828803 56.3382835 -138 43 C-137.33097656 42.17628906 -136.66195313 41.35257813 -135.97265625 40.50390625 C-130.92701448 34.55025533 -125.1674697 29.75533181 -119 25 C-118.15824219 24.33097656 -117.31648438 23.66195312 -116.44921875 22.97265625 C-83.7597467 -2.0776979 -39.65200575 -8.16623643 0 0 Z M-96 66 C-96.93779297 66.91845703 -96.93779297 66.91845703 -97.89453125 67.85546875 C-113.4209538 84.2931486 -119.80491666 107.81810811 -119.28125 129.96484375 C-118.26728821 147.26556683 -113.22422348 162.88888165 -103 177 C-102.35546875 177.90234375 -101.7109375 178.8046875 -101.046875 179.734375 C-87.66970692 197.2733287 -68.16289717 207.43681918 -46.625 211.25 C-23.55105716 214.32099239 -0.25054731 209.73650639 18.8125 195.96875 C37.95933087 180.86402787 49.4616823 160.6715381 52.6875 136.5 C52.8148344 135.00178885 52.91728867 133.50133592 53 132 C53.05285156 131.07316406 53.10570312 130.14632812 53.16015625 129.19140625 C53.56943689 114.93776311 51.0125063 100.94495893 45 88 C44.50757813 86.92234375 44.01515625 85.8446875 43.5078125 84.734375 C39.2327511 76.10243283 33.76502445 69.70841337 27 63 C26.23042969 62.19691406 25.46085937 61.39382812 24.66796875 60.56640625 C14.15655428 50.23406187 0.27712838 44.07113645 -14 41 C-14.87269531 40.80921875 -15.74539063 40.6184375 -16.64453125 40.421875 C-47.09265557 36.5937057 -73.98350814 44.36774011 -96 66 Z " fill="#161723" transform="translate(1591,111)"/>
<path d="M0 0 C22.75146105 19.99087246 36.55985154 46.79817711 40 77 C40.10957031 77.87140625 40.21914063 78.7428125 40.33203125 79.640625 C41.63036158 91.48139765 42.78994976 102.3715615 36.3125 112.6875 C30.5111619 118.4888381 23.48037542 120.10493598 15.46022099 120.12908131 C14.74717787 120.12616847 14.03413474 120.12325563 13.29948425 120.12025452 C12.14763963 120.12153615 12.14763963 120.12153615 10.97252542 120.12284368 C8.40377889 120.12448859 5.83509791 120.11899331 3.26635742 120.11352539 C1.42327882 120.11324328 -0.41979989 120.11340172 -2.26287842 120.1139679 C-7.26449878 120.11425494 -12.26609518 120.10837323 -17.26770997 120.10139394 C-22.49542256 120.09514492 -27.72313569 120.09455537 -32.95085144 120.09336853 C-42.84945309 120.09025979 -52.74804369 120.08205254 -62.64664048 120.07201904 C-73.91618986 120.06084373 -85.18573976 120.05534387 -96.4552933 120.05032361 C-119.63686832 120.03986957 -142.81843354 120.02227895 -166 120 C-165.22856849 122.53794167 -164.45176654 125.07403264 -163.671875 127.609375 C-163.45644043 128.32013184 -163.24100586 129.03088867 -163.01904297 129.76318359 C-156.00151417 152.48536792 -140.32349838 168.76353759 -119.703125 179.7578125 C-106.60361745 186.11586616 -93.37962596 188.82821962 -79 190 C-78.13117188 190.07347656 -77.26234375 190.14695312 -76.3671875 190.22265625 C-54.76648327 191.08818969 -34.34218843 182.72563731 -16.15722656 171.90332031 C-8.58718229 167.44017353 -0.26864742 166.38659402 8.3828125 168.61328125 C14.77669512 171.45918587 19.49613176 176.79610678 22.4375 183.0625 C23.61989928 189.23725182 23.54486527 193.6827021 20 199 C13.94628318 205.70516667 5.90670267 209.87135661 -2 214 C-2.59200195 214.30969727 -3.18400391 214.61939453 -3.79394531 214.93847656 C-35.82864714 231.40491208 -75.85938044 236.59030171 -111 228 C-112.06178467 227.74259033 -112.06178467 227.74259033 -113.14501953 227.47998047 C-134.11826622 222.20247585 -153.63175831 213.28643034 -170 199 C-170.96550781 198.17886719 -171.93101562 197.35773438 -172.92578125 196.51171875 C-196.81537649 175.77181317 -210.05723583 145.676476 -212.60107422 114.40869141 C-214.78808268 80.47746261 -207.20783314 44.80429393 -184.41308594 18.58447266 C-140.06155582 -31.14625133 -53.05512529 -44.96047931 0 0 Z M-147.671875 41.94140625 C-156.04666318 52.01187708 -166 68.39084787 -166 82 C-112.87 82 -59.74 82 -5 82 C-8.58377349 60.49735907 -17.31374177 41.49666765 -35 28 C-68.65040922 4.4201512 -120.39106996 11.90859017 -147.671875 41.94140625 Z " fill="#161723" transform="translate(938,134)"/>
<path d="M0 0 C2.203125 1.3984375 2.203125 1.3984375 4.0625 2.8125 C5.114375 3.575625 6.16625 4.33875 7.25 5.125 C9.30213654 7.08593047 11.01154619 8.91953757 12.8046875 11.08203125 C16.34468408 15.16442794 20.18025131 18.8650769 24.08984375 22.5859375 C25.38917362 23.83541594 26.6879929 25.08542555 27.98632812 26.3359375 C29.99787474 28.27336543 32.01522704 30.20171311 34.05688477 32.10742188 C36.05000361 33.97285319 38.00896686 35.86909016 39.96484375 37.7734375 C40.88341408 38.60988297 40.88341408 38.60988297 41.82054138 39.46322632 C45.27463413 42.89266412 46.45623947 45.1948203 46.56860352 50.12744141 C46.40436057 54.47063943 46.40436057 54.47063943 44.0625 56.8125 C41.35693359 57.03955078 41.35693359 57.03955078 37.9609375 57.0078125 C36.74921875 57.00136719 35.5375 56.99492188 34.2890625 56.98828125 C32.38253906 56.96314453 32.38253906 56.96314453 30.4375 56.9375 C29.15875 56.92847656 27.88 56.91945312 26.5625 56.91015625 C23.39564833 56.88652303 20.22916576 56.85357629 17.0625 56.8125 C17.06618717 57.56197025 17.06987434 58.31144051 17.07367325 59.08362198 C17.1624146 77.40831233 17.22839801 95.7329592 17.26974869 114.05781937 C17.29028244 122.91997292 17.31822485 131.78198213 17.36425781 140.64404297 C17.40440957 148.37763634 17.42999936 156.11112506 17.43885398 163.84481978 C17.44402134 167.93124731 17.45596888 172.01737572 17.48542023 176.10370636 C17.63103242 197.13252366 17.29728714 217.05674306 9.0625 236.8125 C8.7325 237.8025 8.4025 238.7925 8.0625 239.8125 C7.4025 239.8125 6.7425 239.8125 6.0625 239.8125 C5.97097656 240.65941406 5.87945312 241.50632812 5.78515625 242.37890625 C4.96840519 246.25957749 3.46923562 249.35614186 1.5 252.75 C0.96862427 253.67087402 0.96862427 253.67087402 0.42651367 254.61035156 C-3.16314842 260.57754089 -7.38666933 264.77077236 -13.4375 268.25 C-19.81644612 269.68526288 -25.31955356 269.26126105 -30.9375 265.8125 C-35.16811556 262.8302628 -38.30348406 260.18197442 -40.5 255.4375 C-41.76775404 244.93325226 -37.93864875 237.19601212 -32.40234375 228.36328125 C-30.70420943 225.40626335 -29.53825152 222.45532315 -28.375 219.25 C-27.96121094 218.13496094 -27.54742187 217.01992188 -27.12109375 215.87109375 C-23.70267565 205.02584063 -23.65132029 193.9705145 -23.68212891 182.72460938 C-23.67937336 181.03476798 -23.67569006 179.34492789 -23.67115784 177.65509033 C-23.66309835 174.04080957 -23.66086389 170.42659048 -23.66310501 166.81230164 C-23.66595433 161.09735113 -23.6515294 155.38252258 -23.63412476 149.66760254 C-23.58724106 133.42555526 -23.56313654 117.18351829 -23.55664062 100.94140625 C-23.55289397 91.95236358 -23.5349066 82.96346089 -23.50154626 73.97447824 C-23.48131806 68.29205079 -23.47896738 62.60998389 -23.48982644 56.92753506 C-23.49242838 53.40042077 -23.478457 49.873518 -23.45974541 46.34645844 C-23.45441216 44.70977803 -23.45593951 43.07305895 -23.46478081 41.43639374 C-23.47586693 39.20460533 -23.46251442 36.97425384 -23.44302368 34.74255371 C-23.44193415 33.49343956 -23.44084461 32.24432541 -23.43972206 30.95735931 C-22.84400455 27.2270418 -21.94584038 26.03303805 -18.9375 23.8125 C-15.85047183 23.37149598 -13.92736999 23.15868621 -11.27771568 24.90879536 C-9.2454966 27.79545379 -9.55967526 30.20751232 -9.55654907 33.70927429 C-9.5518691 34.41517018 -9.54718913 35.12106606 -9.54236734 35.84835273 C-9.53037566 38.22029911 -9.53989105 40.5916721 -9.54931641 42.96362305 C-9.54525207 44.66222471 -9.53991097 46.36082373 -9.53338623 48.05941772 C-9.51967687 52.68213335 -9.52502972 57.30464867 -9.53452349 61.92736793 C-9.54211744 66.77391587 -9.53507372 71.62044662 -9.53036499 76.46699524 C-9.52489989 84.62068757 -9.53211172 92.77429854 -9.54638672 100.92797852 C-9.56264359 110.32142145 -9.55747872 119.71466831 -9.5409075 129.10810632 C-9.52722883 137.1881971 -9.5254061 145.26822929 -9.53322351 153.34832793 C-9.53787432 158.16666064 -9.53859839 162.98490175 -9.52861404 167.80322838 C-9.5198561 172.34804532 -9.52612494 176.8926141 -9.54329681 181.43740463 C-9.54721814 183.09322895 -9.54620377 184.74907464 -9.53950882 186.40489006 C-9.48954755 200.03374991 -10.71582381 213.24823333 -15.75 226.0625 C-16.00281738 226.71597412 -16.25563477 227.36944824 -16.51611328 228.04272461 C-18.20080999 232.29494893 -20.17948751 236.32580607 -22.3125 240.375 C-24.66266349 244.86111936 -25.6221904 247.79143705 -24.9375 252.8125 C-20.92577643 254.36917348 -20.92577643 254.36917348 -16.6875 254.75 C-14.12092387 253.3750485 -13.93840073 251.49734533 -12.9375 248.8125 C-12.27002594 247.27948299 -11.59537438 245.7495737 -10.9140625 244.22265625 C-2.05993678 224.166962 2.35043382 205.87224716 2.38134766 183.81103516 C2.3906724 182.2621866 2.40084473 180.71334296 2.41178894 179.164505 C2.43881653 175.00638607 2.45415634 170.84830046 2.46721697 166.69011736 C2.48296832 162.32725787 2.50971948 157.96446531 2.5352478 153.60165405 C2.58182494 145.36085013 2.61867021 137.12003331 2.65192068 128.87916601 C2.69029196 119.48841005 2.73966222 110.09772167 2.78990483 100.70702291 C2.89291094 81.40889744 2.98188196 62.11073109 3.0625 42.8125 C13.4575 42.3175 13.4575 42.3175 24.0625 41.8125 C21.401875 39.1209375 21.401875 39.1209375 18.6875 36.375 C18.13143066 35.80982666 17.57536133 35.24465332 17.00244141 34.66235352 C14.29624024 31.89009447 14.29624024 31.89009447 11.0625 29.8125 C11.0625 29.1525 11.0625 28.4925 11.0625 27.8125 C10.4025 27.8125 9.7425 27.8125 9.0625 27.8125 C9.0625 27.1525 9.0625 26.4925 9.0625 25.8125 C8.18851562 25.43738281 8.18851562 25.43738281 7.296875 25.0546875 C4.77167178 23.65081578 3.25671577 22.06649661 1.3125 19.9375 C-4.03281274 14.523279 -8.61254734 11.68566853 -16.3125 11.1875 C-28.4777418 11.9066601 -36.6075357 21.97786151 -44.5625 30.1875 C-45.67222761 31.3173396 -46.78289883 32.44625321 -47.89453125 33.57421875 C-50.58840092 36.30823551 -53.26191594 39.06010492 -55.9375 41.8125 C-49.3375 42.1425 -42.7375 42.4725 -35.9375 42.8125 C-35.86781383 62.33721555 -35.81439428 81.86189555 -35.78206348 101.38671017 C-35.76664737 110.45405775 -35.74565939 119.52132625 -35.71118164 128.58862305 C-35.68111725 136.49907809 -35.66188689 144.40947581 -35.65523452 152.3199864 C-35.65135087 156.50183279 -35.64233584 160.68351531 -35.62030983 164.86530876 C-35.59967416 168.81581576 -35.59371971 172.76609422 -35.59817696 176.71665001 C-35.59736367 178.15276082 -35.5915614 179.58888074 -35.57988358 181.02494431 C-35.47714004 194.332775 -36.6529932 208.37786383 -42.125 220.6875 C-42.42615723 221.38818604 -42.72731445 222.08887207 -43.03759766 222.81079102 C-45.86401597 229.12196391 -49.4913828 234.5155311 -53.9375 239.8125 C-54.61425781 240.66199219 -55.29101562 241.51148438 -55.98828125 242.38671875 C-69.70635007 258.76313364 -90.40576445 267.77751984 -111.4375 269.6875 C-125.03468719 270.25345992 -139.88992137 267.93306985 -152.16796875 261.67578125 C-155.10872702 260.24110668 -157.74371853 260.51677949 -160.9375 260.8125 C-163.15223892 263.61402918 -163.15223892 263.61402918 -163.1875 266.6875 C-161.45152326 271.02744184 -159.10100649 271.81194819 -154.93359375 273.65625 C-129.70164906 283.39374104 -105.23157056 284.71959012 -80.10400391 274.15893555 C-77.00935149 272.78110836 -73.97134283 271.32046674 -70.9375 269.8125 C-69.62458984 269.16861328 -69.62458984 269.16861328 -68.28515625 268.51171875 C-66.49727029 267.62262537 -64.71641968 266.71940023 -62.9375 265.8125 C-56.75736396 263.75245465 -51.81638631 264.72784074 -46.08984375 267.46875 C-41.67412753 270.22556739 -38.57917414 273.88747759 -36.9375 278.8125 C-36.27177707 286.27732765 -36.25344228 291.8072978 -40.9375 297.8125 C-52.7903938 311.64699215 -79.79677294 319.56099096 -97.36425781 321.01309204 C-99.81895766 321.10561737 -102.26623641 321.14189498 -104.72265625 321.1484375 C-105.62261826 321.1550943 -106.52258026 321.1617511 -107.44981384 321.16860962 C-109.34306826 321.17866351 -111.23635759 321.18342891 -113.12963867 321.18310547 C-115.9692096 321.18745286 -118.80718989 321.22377937 -121.64648438 321.26171875 C-154.83814936 321.4658137 -183.36869878 307.22979604 -208.86328125 286.91796875 C-211.09396259 284.65368016 -211.98761314 282.81960041 -212.9375 279.8125 C-213.5975 279.8125 -214.2575 279.8125 -214.9375 279.8125 C-216.71307806 277.7880375 -218.36586932 275.7598408 -220 273.625 C-220.48952148 272.98933105 -220.97904297 272.35366211 -221.48339844 271.69873047 C-222.97798366 269.74393714 -224.45892968 267.77942384 -225.9375 265.8125 C-226.3607959 265.25771973 -226.7840918 264.70293945 -227.22021484 264.13134766 C-236.98426433 251.24662356 -243.01426636 236.43668677 -246.9375 220.8125 C-247.18538269 219.84690155 -247.43326538 218.8813031 -247.68865967 217.88644409 C-250.3145037 206.42013687 -250.41105842 195.20359192 -250.40625 183.48046875 C-250.41336789 181.35109766 -250.4210692 179.22172845 -250.42932129 177.09236145 C-250.44268119 172.6573043 -250.44437109 168.222425 -250.43847656 163.78735352 C-250.43255811 158.12400383 -250.46330089 152.46150478 -250.50359344 146.79831982 C-250.52950893 142.41178341 -250.53234491 138.02545166 -250.52870178 133.63884926 C-250.53038629 131.5509863 -250.53996382 129.46311321 -250.55784607 127.37532616 C-250.65179039 115.06418878 -250.51286171 106.14632459 -242.83203125 96.04296875 C-235.04314307 88.40021356 -228.44444435 84.37452574 -217.4375 84.1875 C-210.28356575 84.27812535 -204.88588858 85.65677647 -198.9375 89.8125 C-197.90625 90.4725 -196.875 91.1325 -195.8125 91.8125 C-190.62229633 96.42270957 -186.10233273 104.31800182 -183.9375 110.8125 C-183.83293133 113.42011613 -183.78341192 116.0020993 -183.77978516 118.61010742 C-183.77470444 119.40414474 -183.76962372 120.19818207 -183.76438904 121.01628113 C-183.75368364 122.74321068 -183.74506412 124.47015413 -183.73826981 126.1971035 C-183.72644699 128.94481393 -183.70697854 131.69236956 -183.68515015 134.4400177 C-183.62369749 142.25382184 -183.56980323 150.06761477 -183.53613281 157.8815918 C-183.51497417 162.66386972 -183.47949196 167.44587237 -183.43537521 172.2279911 C-183.42136545 174.03731313 -183.4125274 175.84668394 -183.40932083 177.65605736 C-183.38238207 191.41910507 -183.11323719 205.04054732 -176.75 217.5625 C-173.68394908 223.74825772 -172.62645225 228.97352703 -173.9375 235.8125 C-176.33053235 241.75616977 -180.27491086 245.64788629 -185.76171875 248.890625 C-190.5594248 250.9234053 -196.24407888 250.49851666 -201.22265625 249.23046875 C-209.34886064 245.80149233 -212.45569461 238.25096131 -215.69458008 230.56103516 C-219.35984057 221.45703205 -221.65177333 212.54446189 -222.9375 202.8125 C-223.02369598 202.16892044 -223.10989197 201.52534088 -223.19869995 200.86225891 C-224.19101587 192.39210442 -224.1207895 183.90129115 -224.140625 175.38671875 C-224.14345238 174.56365549 -224.14627975 173.74059223 -224.14919281 172.89258766 C-224.16408559 168.54907546 -224.17338138 164.20559571 -224.17773438 159.86206055 C-224.18324911 155.38542361 -224.20736786 150.90908621 -224.23570633 146.43254375 C-224.25432684 142.97613134 -224.25953767 139.51979184 -224.26107025 136.06333351 C-224.26409136 134.41233469 -224.27210159 132.76133699 -224.28525543 131.1103878 C-224.30232731 128.80602258 -224.30043492 126.50240099 -224.29394531 124.19799805 C-224.29759094 122.88913132 -224.30123657 121.58026459 -224.30499268 120.23173523 C-223.91290064 116.58362196 -223.16857813 114.69492683 -220.9375 111.8125 C-218.5625 110.8125 -218.5625 110.8125 -215.9375 110.8125 C-211.34048507 113.00652985 -211.34048507 113.00652985 -209.9375 115.8125 C-209.83066817 118.4180701 -209.78334057 120.99803037 -209.77978516 123.60424805 C-209.77470444 124.40949921 -209.76962372 125.21475037 -209.76438904 126.04440308 C-209.75366969 127.79863578 -209.74505568 129.5528823 -209.73826981 131.30713463 C-209.72646825 134.09649598 -209.70700515 136.88570338 -209.68515015 139.67500305 C-209.62362634 147.60823309 -209.56978474 155.5414526 -209.53613281 163.47485352 C-209.51499654 168.32729488 -209.4795299 173.1794638 -209.43537521 178.03174782 C-209.42134676 179.86980761 -209.41252301 181.7079157 -209.40932083 183.54602623 C-209.38228569 197.59725569 -208.41014315 210.84058019 -203 224 C-202.51660156 225.21042969 -202.03320312 226.42085937 -201.53515625 227.66796875 C-199.97201408 230.74456887 -198.59857217 232.642459 -195.9375 234.8125 C-193.39422892 235.47935938 -193.39422892 235.47935938 -190.9375 234.8125 C-188.92784226 233.21633995 -188.92784226 233.21633995 -187.9375 230.8125 C-188.37441964 227.14722965 -189.52574767 224.449911 -191.3125 221.25 C-196.73361018 210.73680655 -198.08775281 199.09583082 -198.0793457 187.41210938 C-198.08282013 186.61424515 -198.08629456 185.81638092 -198.08987427 184.99433899 C-198.09717826 183.27620628 -198.10255188 181.55806447 -198.10616493 179.83992004 C-198.11339062 177.11500592 -198.12909981 174.39026566 -198.14750671 171.66540527 C-198.19970634 163.92295637 -198.24796086 156.18060962 -198.26342773 148.43798828 C-198.27353284 143.68882181 -198.30291072 138.94010484 -198.34474754 134.19111633 C-198.3570153 132.38913884 -198.36218656 130.58709782 -198.35994911 128.78507996 C-198.35758452 126.26053114 -198.37984534 123.73726536 -198.4074707 121.21289062 C-198.40086929 120.47810989 -198.39426788 119.74332916 -198.38746643 118.98628235 C-198.49784943 112.80817789 -200.46042053 107.57119639 -204.62109375 102.9375 C-210.72405515 99.02290561 -216.85472599 98.72488302 -223.9375 99.8125 C-229.41870564 101.77811403 -232.23154648 104.68489034 -235.0727253 109.77484322 C-236.58440602 113.33679578 -236.48589115 116.79434644 -236.43920898 120.61499023 C-236.44461197 121.46813309 -236.45001495 122.32127594 -236.45558167 123.20027161 C-236.46803753 126.00757081 -236.45158636 128.81383714 -236.43359375 131.62109375 C-236.43374894 133.5905818 -236.43524122 135.56007015 -236.43800354 137.52955627 C-236.43938658 141.65778104 -236.42685535 145.78565804 -236.40405273 149.91381836 C-236.37583682 155.16187796 -236.37836091 160.4093528 -236.39114285 165.65745449 C-236.39816129 169.7285699 -236.39023835 173.79955447 -236.37788582 177.87065315 C-236.37341897 179.80281125 -236.37299202 181.73498366 -236.37695122 183.66714287 C-236.40872606 212.84671737 -229.21912107 240.14936871 -210.25341797 263.01977539 C-208.9375 264.8125 -208.9375 264.8125 -208.9375 266.8125 C-208.2775 266.8125 -207.6175 266.8125 -206.9375 266.8125 C-205.45703125 268.3515625 -205.45703125 268.3515625 -203.75 270.4375 C-200.8274337 273.90037267 -197.77919098 276.78760908 -194.22265625 279.5859375 C-193.79855469 279.99070312 -193.37445313 280.39546875 -192.9375 280.8125 C-192.9375 281.4725 -192.9375 282.1325 -192.9375 282.8125 C-192.40253906 283.05742187 -191.86757812 283.30234375 -191.31640625 283.5546875 C-188.33675866 285.13013335 -185.65710746 287.03412732 -182.875 288.9375 C-156.83589812 305.9898391 -123.69846413 311.76591848 -93.27734375 305.78515625 C-79.49273959 302.8157394 -63.48835115 298.09991365 -51.9375 289.8125 C-50.85982871 286.35274142 -50.85982871 286.35274142 -50.9375 282.8125 C-51.9275 281.3275 -51.9275 281.3275 -52.9375 279.8125 C-58.95727011 278.6837931 -62.04523855 280.91449871 -67.0390625 284.09375 C-89.54149949 297.43751318 -118.26634743 299.01056201 -143.25390625 293.0859375 C-155.79871497 289.8206014 -168.14180343 285.79405399 -175.9375 274.8125 C-178.61292283 269.57797708 -178.19221613 264.42666777 -176.9375 258.8125 C-174.04625139 253.13708607 -169.84815114 249.235485 -164.125 246.4375 C-155.99543312 244.84346728 -149.29234708 247.57724601 -141.87353516 250.55273438 C-124.41810441 257.52279986 -106.04619382 256.54306823 -88.7734375 249.52734375 C-82.12418885 246.50572316 -77.10456925 242.67535431 -71.8984375 237.5703125 C-69.9375 235.8125 -69.9375 235.8125 -67.9375 235.8125 C-67.9375 235.1525 -67.9375 234.4925 -67.9375 233.8125 C-67.2775 233.8125 -66.6175 233.8125 -65.9375 233.8125 C-65.66421875 233.23113281 -65.3909375 232.64976562 -65.109375 232.05078125 C-63.95928561 229.85411052 -62.65247598 227.99662049 -61.1875 226 C-51.52993202 211.58465956 -49.64862569 195.84907142 -49.61865234 178.85229492 C-49.60932498 177.51048701 -49.59915229 176.16868476 -49.58821106 174.82688904 C-49.5612128 171.22861193 -49.5458527 167.63037326 -49.53278303 164.03202224 C-49.51701843 160.25505333 -49.4902717 156.47816149 -49.4647522 152.70124817 C-49.41819802 145.5689346 -49.38134185 138.43660614 -49.34807932 131.30421954 C-49.30969154 123.17585063 -49.26032576 115.04755957 -49.21009517 106.91925657 C-49.10712333 90.21706051 -49.01775138 73.51482102 -48.9375 56.8125 C-49.73446289 56.83344727 -50.53142578 56.85439453 -51.35253906 56.87597656 C-54.96406434 56.95913322 -58.57538824 57.01116034 -62.1875 57.0625 C-63.44175781 57.09601563 -64.69601563 57.12953125 -65.98828125 57.1640625 C-67.79619141 57.18339844 -67.79619141 57.18339844 -69.640625 57.203125 C-70.75083008 57.22407227 -71.86103516 57.24501953 -73.00488281 57.26660156 C-76.62086472 56.70668428 -77.76566029 55.70904016 -79.9375 52.8125 C-80.4921875 49.40234375 -80.4921875 49.40234375 -79.9375 45.8125 C-77.8203125 42.94140625 -77.8203125 42.94140625 -75.0625 40.375 C-74.15757812 39.51003906 -73.25265625 38.64507812 -72.3203125 37.75390625 C-69.9375 35.8125 -69.9375 35.8125 -67.9375 35.8125 C-67.9375 35.1525 -67.9375 34.4925 -67.9375 33.8125 C-66.6796875 32.578125 -66.6796875 32.578125 -64.8125 31.0625 C-60.5025509 27.40486752 -56.49593494 23.49288073 -52.5 19.5 C-51.55906494 18.56559082 -51.55906494 18.56559082 -50.59912109 17.61230469 C-50.0108252 17.02223633 -49.4225293 16.43216797 -48.81640625 15.82421875 C-48.2860376 15.29272217 -47.75566895 14.76122559 -47.20922852 14.21362305 C-45.82806415 12.81861595 -45.82806415 12.81861595 -44.9375 10.8125 C-44.2775 10.8125 -43.6175 10.8125 -42.9375 10.8125 C-42.69644531 10.22726563 -42.45539063 9.64203125 -42.20703125 9.0390625 C-40.69391436 6.38528826 -39.04781271 5.03616718 -36.625 3.1875 C-35.86574219 2.59710938 -35.10648438 2.00671875 -34.32421875 1.3984375 C-25.48285217 -4.47651312 -9.49532722 -4.63115653 0 0 Z " fill="#161723" transform="translate(251.9375,44.1875)"/>
<path d="M0 0 C5.24897355 4.39267913 8.39098113 10.32697076 9.27888751 17.13991642 C9.38363698 19.45488047 9.40014827 21.75317283 9.38095093 24.07043457 C9.38797089 25.38916651 9.38797089 25.38916651 9.39513266 26.73453951 C9.40703997 29.66237531 9.39764213 32.58973935 9.38818359 35.51757812 C9.39225118 37.62398043 9.39759412 39.73038059 9.40411377 41.83677673 C9.41777078 47.54538916 9.41249531 53.25383863 9.40297651 58.96245384 C9.3953716 64.9418112 9.40242784 70.92115478 9.40713501 76.9005127 C9.41259012 86.94102478 9.40540731 96.98147063 9.39111328 107.02197266 C9.37478728 118.62362683 9.38007596 130.22512283 9.3965925 141.82677317 C9.41021427 151.79471899 9.41212362 161.76261724 9.40427649 171.73056936 C9.3996038 177.68092535 9.39896408 183.63120704 9.40888596 189.58155823 C9.41756334 195.17617241 9.4115194 200.77058301 9.39420319 206.36517525 C9.3902425 208.41621628 9.39136521 210.46727449 9.39799118 212.51830864 C9.40621319 215.32229081 9.39587705 218.12562436 9.38095093 220.92956543 C9.39098918 222.14125672 9.39098918 222.14125672 9.40123022 223.37742662 C9.31474994 231.77784607 6.65663951 238.15302996 0.87890625 244.3046875 C-4.4420679 249.10573278 -11.08056562 249.9793141 -18 250 C-25.35052457 249.48846576 -30.79420038 247.27521028 -36 242 C-41.21228474 235.25774113 -42.14907131 229.85629365 -42.14717102 221.42404175 C-42.15084771 220.54971595 -42.1545244 219.67539015 -42.1583125 218.77456963 C-42.1693426 215.83912773 -42.17319206 212.90372124 -42.17700195 209.96826172 C-42.18326714 207.86569608 -42.18991399 205.76313155 -42.19691467 203.66056824 C-42.21795192 196.7502825 -42.22831716 189.83999654 -42.23828125 182.9296875 C-42.24232901 180.55003981 -42.24644594 178.17039223 -42.25063133 175.79074478 C-42.26968273 164.61012068 -42.28391354 153.42950318 -42.2922433 142.24886596 C-42.30201411 129.34727295 -42.32832991 116.44585157 -42.36874419 103.54431903 C-42.39891659 93.56964087 -42.41371328 83.59501188 -42.41702431 73.62028897 C-42.41937362 67.6641695 -42.42831879 61.70823341 -42.45348549 55.75216293 C-42.47679049 50.14609054 -42.4809895 44.54032195 -42.47072411 38.93421364 C-42.47022922 36.88077724 -42.47653563 34.82732577 -42.49028015 32.77393532 C-42.632339 10.28581784 -42.632339 10.28581784 -36.35486317 3.12278557 C-26.75570852 -6.20973746 -11.22741475 -6.8950971 0 0 Z " fill="#161723" transform="translate(1371,114)"/>
<path d="M0 0 C7.29446023 5.20664652 12.563765 11.31289888 15 20 C16.14504829 30.4918378 14.45793713 39.02888534 7.8125 47.3125 C1.09033109 54.43771115 -7.58471076 57.98505688 -17.3125 58.3125 C-27.28742694 58.06687936 -34.87536839 55.07014112 -42 48 C-49.0468017 39.32353109 -51.0540784 31.10118012 -50 20 C-47.71086041 11.0079307 -41.55141734 4.34945918 -33.8125 -0.4375 C-23.78725509 -6.23161792 -9.9282732 -5.96398037 0 0 Z " fill="#161723" transform="translate(1372,12)"/>
<path d="" fill="#161723" transform="translate(0,0)"/>
<path d="" fill="#161723" transform="translate(0,0)"/>
<path d="" fill="#161723" transform="translate(0,0)"/>
<path d="" fill="#161723" transform="translate(0,0)"/>
</svg>
