<svg version="1.2" xmlns="http://www.w3.org/2000/svg" viewBox="0 0 1000 1000" width="1000" height="1000"><defs><clipPath clipPathUnits="userSpaceOnUse" id="cp1"><path d="m473.4 264.75c0 115.66-93.75 209.41-209.41 209.41-115.65 0-209.4-93.75-209.4-209.41 0-115.65 93.75-209.4 209.4-209.4 115.66 0 209.41 93.75 209.41 209.4z"/></clipPath><clipPath clipPathUnits="userSpaceOnUse" id="cp2"><path d="m473.4 741.27c0 115.65-93.75 209.4-209.41 209.4-115.65 0-209.4-93.75-209.4-209.4 0-115.66 93.75-209.41 209.4-209.41 115.66 0 209.41 93.75 209.41 209.41z"/></clipPath><clipPath clipPathUnits="userSpaceOnUse" id="cp3"><path d="m946.18 741.27c0 115.65-93.75 209.4-209.4 209.4-115.65 0-209.41-93.75-209.41-209.4 0-115.66 93.76-209.41 209.41-209.41 115.65 0 209.41 93.75 209.41 209.41z"/></clipPath><clipPath clipPathUnits="userSpaceOnUse" id="cp4"><path d="m946.18 264.75c0 115.66-93.75 209.41-209.4 209.41-115.65 0-209.41-93.75-209.41-209.41 0-115.65 93.76-209.4 209.41-209.4 115.65 0 209.41 93.75 209.41 209.4z"/></clipPath></defs><style>.a{fill:#f0c02a}.b{fill:#fff}.c{fill:none;stroke:#fff;stroke-miterlimit:10;stroke-width:4}.d{fill:#eba08c}.e{fill:#000035}.f{fill:#2847fb}.g{fill:#071882}.h{opacity:.2;mix-blend-mode:multiply;fill:#eba08c}.i{mix-blend-mode:multiply;fill:#eba08c}.j{fill:none;stroke:#000035;stroke-miterlimit:10;stroke-width:2}.k{fill:none;stroke:#fff;stroke-miterlimit:10;stroke-width:2}</style><path class="a" d="m1000 1000h-1000v-1000h1000z"/><path class="b" d="m473.4 264.8c0 115.6-93.8 209.4-209.4 209.4-115.7 0-209.4-93.8-209.4-209.4 0-115.7 93.7-209.5 209.4-209.5 115.6 0 209.4 93.8 209.4 209.5z"/><path class="c" d="m490.2 264.8c0 124.9-101.3 226.1-226.2 226.1-124.9 0-226.2-101.2-226.2-226.1 0-124.9 101.3-226.2 226.2-226.2 124.9 0 226.2 101.3 226.2 226.2z"/><g clip-path="url(#cp1)"><path class="d" d="m344.4 236.3c0 45.5-29 99.9-82.5 99.9-53.5 0-82.4-54.4-82.4-99.9 0-45.6 36.9-82.5 82.4-82.5 45.6 0 82.5 36.9 82.5 82.5z"/><path class="e" d="m188.6 241c4.2-5.9 6.4-13 7.6-20.1 1.4-7.8 1.7-16.4-2.1-23.4-1.2-2.1-2.8-4.1-5-5.3-3.9-1.9-8.9-0.7-12.2 2.1-3.3 2.9-5.2 7-6.6 11.1-4 12.1-3.7 25.2-1.4 37.6 1.1 5.9 0.8 10.4 7.7 7.8 4.9-1.9 9-5.6 12-9.8z"/><path class="e" d="m338.6 241c-4.1-5.9-6.3-13-7.6-20.1-1.4-7.8-1.7-16.4 2.2-23.4 1.2-2.1 2.8-4.1 5-5.3 3.9-1.9 8.8-0.7 12.1 2.1 3.4 2.9 5.3 7 6.6 11.1 4 12.1 3.8 25.2 1.5 37.6-1.1 5.9-0.9 10.4-7.7 7.8-4.9-1.9-9.1-5.6-12.1-9.8z"/><path class="e" d="m240.3 231.6c0 4-3.3 7.3-7.3 7.3-4.1 0-7.4-3.3-7.4-7.3 0-4.1 3.3-7.3 7.4-7.3 4 0 7.3 3.2 7.3 7.3z"/><path class="e" d="m208.1 227.1c1.4-3.8 3.6-7.3 6.2-10.5 2.6-3.2 5.8-5.9 9.4-8.2q1.4-0.8 2.7-1.6l2.9-1.6q1.4-0.6 3-1.1 1.5-0.4 3.2-0.6c4.2-0.3 8.7 0.3 12.5 2.9l-0.1 0.8c-4.1 1.7-7.5 2.7-10.9 3.9q-1.3 0.5-2.6 0.8-1.3 0.3-2.6 0.6l-2.6 0.6q-1.3 0.4-2.6 0.8c-3.4 1.4-6.6 3.2-9.7 5.5-3 2.2-5.7 4.9-8.1 8z"/><path class="e" d="m288.7 231.6c0 4 3.3 7.3 7.3 7.3 4.1 0 7.4-3.3 7.4-7.3 0-4.1-3.3-7.3-7.4-7.3-4 0-7.3 3.2-7.3 7.3z"/><path class="e" d="m320.2 227.4c-2.4-3.1-5.1-5.8-8.1-8-3-2.3-6.3-4.1-9.7-5.5q-1.3-0.4-2.6-0.8l-2.6-0.6q-1.3-0.3-2.6-0.6-1.3-0.3-2.6-0.8c-3.4-1.2-6.8-2.2-10.9-3.9v-0.8c3.7-2.6 8.2-3.2 12.5-2.9q1.6 0.2 3.1 0.6 1.6 0.5 3 1.1l2.9 1.6q1.3 0.8 2.7 1.6c3.6 2.3 6.8 5 9.4 8.2 2.7 3.2 4.8 6.7 6.2 10.5z"/><path class="e" d="m239.4 282.3c3.9 3.6 8.2 6.7 12.8 9.1 2.3 1.1 4.7 2.1 7.2 2.7 1.2 0.3 2.5 0.5 3.7 0.7 1.3 0 2.5 0.2 3.7 0 2.5-0.1 4.9-0.8 7.3-1.9 2.3-0.9 4.5-2.3 6.6-3.8 4.2-3 8-6.8 11.5-10.8-2.5 4.7-5.9 9-10.1 12.6-4.1 3.5-9.3 6.4-15.1 6.8-2.8 0.2-5.6-0.2-8.3-1-2.7-0.7-5.3-1.9-7.6-3.3-4.7-2.9-8.7-6.7-11.7-11.1z"/><path class="d" d="m267.9 396.7c21.1 0 34-16.3 40.4-27.6-8-4.1-13.8-8.5-15.7-13.4-6.8-18.6-4.1-39.7-4.1-39.7l-22.7 1.6-24.4-1.6c0 0 4.3 21.1-2.5 39.7-2 5.2-8.5 9.8-17.3 14.1 7.4 10 23.4 26.9 46.3 26.9z"/><path class="f" d="m386.5 402.2c-14.7-11-46.7-19.5-69.4-29.1-7.9 14-23.8 34.1-49.7 34.1-27.7 0-47.2-20.4-56.5-32.6-22.4 9-52 17.1-65.9 27.6-22.6 17-33.1 88.9-33.1 88.9h153.2 1.3 153.2c0 0-10.5-71.9-33.1-88.9z"/><path class="g" d="m267.4 407.2c25.9 0 41.8-20.1 49.7-34.1q-4.7-2-8.8-4c-6.4 11.3-19.3 27.6-40.4 27.6-22.9 0-38.9-16.9-46.3-26.9-3.3 1.7-6.9 3.2-10.7 4.8 9.3 12.2 28.8 32.6 56.5 32.6z"/><path class="e" d="m222.4 324.6c7.1 3.3 14.5 5.7 22 7.4 7.5 1.6 15.1 2.6 22.7 2.3 7.5-0.2 15-2.1 22-5 7.1-2.9 13.9-6.7 20.2-11.3-5.3 5.8-11.8 10.5-18.9 14.1-3.6 1.8-7.4 3.2-11.2 4.3-3.9 1-7.9 1.7-12 1.8-8 0.2-16-1-23.6-3.3-7.6-2.3-14.9-5.6-21.2-10.3z"/><path class="h" d="m325.4 263c0 7.3-7.8 13.2-17.5 13.2-9.6 0-17.4-5.9-17.4-13.2 0-7.3 7.8-13.2 17.4-13.2 9.7 0 17.5 5.9 17.5 13.2z"/><path class="h" d="m240.9 263c0 7.3-7.8 13.2-17.4 13.2-9.7 0-17.5-5.9-17.5-13.2 0-7.3 7.8-13.2 17.5-13.2 9.6 0 17.4 5.9 17.4 13.2z"/><path class="e" d="m263.5 221.1c1.1 7.8 1.7 15.7 3.8 23 1.1 3.7 2.4 7.3 4.3 10.5 1.9 3.3 4.2 6.3 7.1 8.7l0.8 0.7-0.5 0.9c-2 3.3-4.5 6.1-7.3 8.6-2.8 2.4-6 4.4-9.3 6 2.9-2.2 5.6-4.6 8.1-7.3 2.4-2.6 4.6-5.5 6.3-8.6l0.3 1.7c-3.3-2.5-6-5.7-8-9.2-2-3.6-3.5-7.4-4.4-11.3-0.9-3.9-1.3-7.9-1.5-11.9-0.1-3.9 0-7.8 0.3-11.8z"/><path class="e" d="m357.5 230.8c8.4-8 15.3-72.9 11.7-83.8-1.2 4.1-4 9.4-7.3 12.3 1.8-5 3.2-10.1 3.4-15.3 0.4-11-2.4-22.2-7-32.2-9.1 6.8-20.6 10-32.1 10.3-11.4 0.3-23-0.1-33.8-4 3.2-3.3 5.7-7.8 7.3-12.2-10.5 3-21.6 3.2-32.5 3.2-10.9 0-22-0.3-32.7 1.9-10.7 2.1-21.5 8.4-28.3 16.7 0.8-5.5 2.7-13.2 2.7-18.8-4.7 6.3-12.5 9.7-17.6 15.6-4.1 4.9-6.2 11.4-5.7 17.8-1.2-1.5-4.6-2.1-6.5-2.2-2 0-3.9 0.5-5.8 1.1-6.2 1.9-12.3 4.3-18.2 7.1 5.7 4 13.3 6.4 20.2 5.2-8.5 6.3-15.3 17-16.1 27.4-0.8 10.4 2.1 44.3 9.6 51.7 9.2-0.2 19.6-26.7 26.6-32.5 6.9-5.9 11.7-14.2 13.3-23 11 10.5 25.4 17.7 40.8 18.2-2.1-7.4-6.2-14.7-12.1-19.9 9 6.5 18.8 6.9 30 7.3 11.1 0.3 22.6-0.1 33.1 3.5 11.8 4.1 30.2 17.9 38.5 27.2"/><path class="d" d="m366.3 250.2c-1.1 5.8-4.4 11.3-8.5 15.4-2.8 2.7-6.1 4.9-9.6 5.9-3.5 0.9-7.2 0.5-10-1.6-2.6-2-4.1-5.2-4.9-8.7-1.8-8 0.6-17.2 5.5-24.2 3.4-4.8 8.2-8.8 13.4-9.4 10.5-1.3 16 12.1 14.1 22.6z"/><path class="i" d="m336.8 262.4c2.5-0.1 5-1 7.1-2.5 0.7-0.5 1.4-1.2 1.3-2 0-0.4-0.2-0.8-0.5-1.2-1.4-2.1-3.2-4-5.2-5.6 1.5-3.3 3-6.7 5.2-9.5 2.2-2.9 5.2-5.2 8.6-5.7 3.4-0.4 7.1 1.3 8.4 4.6 0 0 4.6 9.7-6.1 20.1-11.4 11-18.8 1.8-18.8 1.8z"/><path class="e" d="m361.7 240.5c-1.3-2.3-3.7-3.6-6.1-3.8-2.4-0.2-4.8 0.9-6.7 2.4-1.9 1.5-3.4 3.4-4.7 5.6-1.3 2.2-2.4 4.6-3.5 7l-0.4-1.6q1.9 1.6 3.5 3.6 0.8 0.9 1.5 2c0.2 0.4 0.4 0.7 0.6 1.2 0.3 0.5 0.3 1.3 0.1 1.8-0.5 1.2-1.4 1.6-2.1 2-0.7 0.5-1.5 0.8-2.3 1-1.5 0.6-3.2 0.8-4.8 0.7 1.6-0.3 3.1-0.8 4.4-1.6 0.7-0.4 1.3-0.8 1.9-1.3 0.6-0.4 1.2-0.9 1.2-1.3 0-0.2 0-0.3-0.1-0.5-0.1-0.2-0.4-0.5-0.6-0.8q-0.7-0.9-1.5-1.8-1.5-1.6-3.4-2.9l-0.8-0.6 0.4-1c1.1-2.4 2.1-4.9 3.6-7.3 1.4-2.3 3.3-4.5 5.6-6.1 2.4-1.6 5.4-2.7 8.3-2 2.8 0.6 5.3 2.7 5.9 5.3z"/><path class="d" d="m155.3 250.2c1.1 5.8 4.3 11.3 8.5 15.4 2.8 2.7 6 4.9 9.5 5.9 3.5 0.9 7.3 0.5 10.1-1.6 2.5-2 4.1-5.2 4.9-8.7 1.8-8-0.7-17.2-5.6-24.2-3.4-4.8-8.2-8.8-13.4-9.4-10.4-1.3-16 12.1-14 22.6z"/><path class="i" d="m184.7 262.4c-2.5-0.1-5-1-7.1-2.5-0.6-0.5-1.3-1.2-1.3-2 0-0.4 0.3-0.8 0.5-1.2 1.5-2.1 3.2-4 5.3-5.6-1.5-3.3-3-6.7-5.2-9.5-2.2-2.9-5.3-5.2-8.7-5.7-3.4-0.4-7.1 1.3-8.4 4.6 0 0-4.5 9.7 6.2 20.1 11.3 11 18.7 1.8 18.7 1.8z"/><path class="e" d="m159.8 240.5c0.6-2.6 3.2-4.7 6-5.3 2.9-0.7 5.9 0.4 8.2 1.9 2.4 1.7 4.2 3.9 5.7 6.2 1.4 2.4 2.5 4.9 3.5 7.3l0.4 1-0.8 0.6q-1.8 1.3-3.4 2.9-0.7 0.9-1.4 1.8c-0.3 0.3-0.5 0.6-0.6 0.8-0.2 0.2-0.2 0.3-0.2 0.5 0.1 0.4 0.6 0.9 1.2 1.3 0.6 0.5 1.2 0.9 1.9 1.3 1.4 0.8 2.8 1.3 4.4 1.6-1.6 0.1-3.2-0.1-4.8-0.7-0.8-0.2-1.6-0.5-2.3-1-0.7-0.4-1.5-0.8-2-2-0.3-0.5-0.2-1.3 0-1.8 0.3-0.5 0.5-0.8 0.7-1.2q0.7-1.1 1.4-2 1.6-2 3.6-3.6l-0.4 1.6c-1.1-2.4-2.2-4.8-3.5-7-1.3-2.2-2.8-4.1-4.8-5.6-1.9-1.5-4.2-2.6-6.6-2.4-2.4 0.2-4.9 1.5-6.2 3.8z"/><g style="opacity:.3"><path class="b" d="m205.3 138.1c2.9 6.1 7.9 10.9 13.5 14.3 5.7 3.5 12 5.8 18.4 7.6l-0.8 1c-2.1-3.2-4.7-6-7.3-8.8l-8.3-8.3 1.3-1.2c3.9 4 8.8 6.8 14.1 8.7 5.3 1.9 10.9 2.8 16.6 3.3 5.6 0.6 11.3 0.8 17 1.3 5.8 0.5 11.5 1.2 17.1 2.4 11.3 2.4 22.2 6.4 32.1 12.3 2.5 1.4 4.9 3.1 7.2 4.7l3.4 2.7c1.2 0.9 2.2 1.9 3.3 2.8 4.2 3.9 8 8.3 11.1 13-6.8-9.1-15.6-16.7-25.6-22.2-9.9-5.6-20.8-9.2-31.9-11.5-5.5-1.2-11.2-1.9-16.8-2.3-5.7-0.5-11.4-0.6-17.1-1.2-5.8-0.6-11.5-1.6-17-3.6-5.5-1.9-10.7-4.9-14.8-9.2l1.3-1.2c2.7 2.8 5.5 5.5 8.1 8.4 2.6 2.9 5.2 5.8 7.3 9.2l1 1.5-1.7-0.5c-6.4-2-12.8-4.4-18.4-8.2-5.6-3.7-10.5-8.8-13.1-15z"/><path class="b" d="m250.1 123.5c5.6 4.5 11.7 8.2 18.2 10.9 6.5 2.7 13.5 4.4 20.5 5.1l-0.6 1.5c-4.7-3-9.9-5.8-13.9-10.2l-6.1-6.6 7.4 5.2c2.4 1.7 5.3 2.6 8.3 3 3.1 0.4 6.2 0.3 9.3 0.1 3.1-0.2 6.3-0.4 9.5-0.5q4.8 0 9.6 0.6c6.3 0.8 12.5 2.4 18.4 4.7 5.9 2.4 11.6 5.4 16.7 9.2q-4.1-2.5-8.3-4.6c-2.9-1.4-5.8-2.5-8.7-3.6-5.9-2-12.1-3.4-18.3-4-3.1-0.3-6.2-0.5-9.4-0.5-3.1 0.1-6.2 0.3-9.4 0.6-3.1 0.2-6.4 0.3-9.6-0.1-3.2-0.3-6.5-1.4-9.2-3.4l1.2-1.4c3.7 4.1 8.7 6.9 13.4 10.1l3 2-3.5-0.4c-7.2-0.8-14.2-2.8-20.7-5.8-6.6-3-12.6-7-17.8-11.9z"/><path class="b" d="m195.3 157.3q0 1.7-0.1 3.5l-0.3 3.5-0.7 3.4-0.9 3.4c-1.3 4.6-3.4 8.9-5.9 12.8-2.6 4-5.6 7.7-9.1 10.8l-2.7 2.3-2.9 2-3 1.8q-1.5 0.9-3.1 1.6 1.4-1 2.8-2l2.7-2.2 2.7-2.2 2.4-2.4c3.2-3.3 6.1-6.9 8.5-10.7 2.5-3.9 4.5-8 6.1-12.3 1.7-4.2 2.8-8.7 3.5-13.3z"/></g></g><path class="b" d="m473.4 741.3c0 115.6-93.8 209.4-209.4 209.4-115.7 0-209.4-93.8-209.4-209.4 0-115.7 93.7-209.4 209.4-209.4 115.6 0 209.4 93.7 209.4 209.4z"/><path class="c" d="m490.2 741.3c0 124.9-101.3 226.1-226.2 226.1-124.9 0-226.2-101.2-226.2-226.1 0-124.9 101.3-226.2 226.2-226.2 124.9 0 226.2 101.3 226.2 226.2z"/><g clip-path="url(#cp2)"><path class="d" d="m283.7 803.6c-2.7-14.8-1-28.1-1-28.1l-22.8 1.5-24.4-1.5c0 0 2.9 13.8 0.3 29 15.8 3.3 32.3 3 47.9-0.9z"/><path class="d" d="m338.6 695.7c0 45.6-29 99.9-82.5 99.9-53.5 0-82.5-54.3-82.5-99.9 0-45.5 14-97.2 82.5-97.2 68.5 0 82.5 51.7 82.5 97.2z"/><path class="e" d="m202.3 686.5c1.3-3.8 3.5-7.3 6.2-10.5 2.6-3.1 5.8-5.9 9.4-8.1q1.4-0.8 2.7-1.7l2.9-1.5q1.4-0.7 3-1.2 1.5-0.3 3.1-0.5c4.3-0.4 8.8 0.3 12.5 2.8v0.8c-4.1 1.7-7.5 2.8-10.9 4q-1.3 0.4-2.6 0.7-1.3 0.4-2.6 0.6l-2.6 0.6q-1.3 0.4-2.6 0.9c-3.4 1.4-6.7 3.2-9.7 5.4-3 2.2-5.7 5-8.1 8.1z"/><path class="e" d="m282.9 693c0 4.1 3.3 7.4 7.3 7.4 4.1 0 7.4-3.3 7.4-7.4 0-4-3.3-7.3-7.4-7.3-4 0-7.3 3.3-7.3 7.3z"/><path class="e" d="m314.4 686.9c-2.4-3.1-5.1-5.9-8.1-8.1-3.1-2.2-6.3-4-9.7-5.4q-1.3-0.5-2.6-0.9l-2.6-0.6q-1.4-0.2-2.6-0.6-1.3-0.3-2.6-0.7c-3.4-1.2-6.8-2.3-10.9-4l-0.1-0.8c3.8-2.5 8.3-3.2 12.5-2.8q1.6 0.2 3.2 0.5 1.6 0.5 3 1.2l2.9 1.5q1.3 0.9 2.7 1.7c3.6 2.2 6.8 5 9.4 8.1 2.6 3.2 4.8 6.7 6.2 10.5z"/><path class="e" d="m233.6 741.7c3.9 3.7 8.2 6.8 12.8 9.1 2.3 1.2 4.7 2.2 7.2 2.7 1.2 0.4 2.5 0.5 3.7 0.7 1.3 0 2.5 0.2 3.7 0 2.5-0.1 4.9-0.8 7.2-1.8 2.4-0.9 4.6-2.4 6.7-3.8 4.2-3.1 8-6.8 11.5-10.9-2.5 4.8-5.9 9.1-10.1 12.6-4.1 3.6-9.3 6.4-15.1 6.8-2.8 0.2-5.6-0.2-8.3-0.9-2.7-0.8-5.3-1.9-7.6-3.4-4.7-2.8-8.7-6.6-11.7-11.1z"/><path class="e" d="m216.6 784c7.1 3.3 14.5 5.7 22 7.5 7.4 1.6 15.1 2.5 22.7 2.3 7.5-0.2 14.9-2.2 22-5 7.1-3 13.9-6.8 20.2-11.4-5.3 5.8-11.8 10.5-18.9 14.1-3.6 1.8-7.4 3.2-11.2 4.3-3.9 1-7.9 1.7-12 1.9-8 0.1-16-1-23.6-3.3-7.6-2.4-14.9-5.7-21.2-10.4z"/><path class="h" d="m319.6 722.5c0 7.3-7.8 13.2-17.5 13.2-9.6 0-17.4-5.9-17.4-13.2 0-7.3 7.8-13.2 17.4-13.2 9.7 0 17.5 5.9 17.5 13.2z"/><path class="h" d="m235.1 722.5c0 7.3-7.8 13.2-17.4 13.2-9.7 0-17.5-5.9-17.5-13.2 0-7.3 7.8-13.2 17.5-13.2 9.6 0 17.4 5.9 17.4 13.2z"/><path class="e" d="m340.8 708.3c-16.6-16.4-24.4-40.1-26-63.4-19.2 11-41.7 16.2-63.8 14.8-22.1-1.4-42.3-8-60.1-21.3 0 14.2-0.1 28.5-3.7 42.2-3.6 13.7-11.2 27-23.3 34.3-8.8-33.9-2.1-81.6 19-109.6 0.4-8.2 6.6-20.1 15.3-24.1 0.4-0.2 0.9-0.4 1.3-0.2 0.4 0.3 0.4 1 0.4 1.5-0.4 3.8-1.6 7.6-3.5 11 2.9-4 6.7-7.3 11-9.7 1.9-1.1 4.1-2 6.3-1.6-0.8 3-2.3 5.8-4.3 8 22.3-9.2 47.1-11.2 70.7-6.3 17.8 3.7 35.2 12 46 26.5 4.4 5.9 7.6 12.6 10.2 19.4 10.2 26.6 10.3 50.5 4.5 78.5z"/><path class="d" d="m360.5 709.6c-1.1 5.9-4.4 11.3-8.5 15.4-2.8 2.8-6.1 5-9.6 5.9-3.5 1-7.2 0.6-10-1.6-2.6-1.9-4.2-5.2-4.9-8.6-1.8-8 0.6-17.3 5.5-24.2 3.4-4.9 8.2-8.8 13.4-9.5 10.5-1.3 16 12.2 14.1 22.6z"/><path class="i" d="m331 721.9c2.5-0.2 5-1.1 7.1-2.6 0.7-0.5 1.3-1.1 1.3-1.9 0-0.5-0.2-0.9-0.5-1.2-1.4-2.2-3.2-4.1-5.2-5.6 1.5-3.3 3-6.7 5.2-9.6 2.2-2.8 5.2-5.1 8.6-5.6 3.4-0.5 7.1 1.2 8.4 4.6 0 0 4.6 9.6-6.2 20-11.3 11-18.7 1.9-18.7 1.9z"/><path class="e" d="m355.9 700c-1.3-2.4-3.7-3.7-6.1-3.8-2.5-0.2-4.8 0.8-6.7 2.3-1.9 1.5-3.5 3.5-4.8 5.7-1.2 2.2-2.3 4.5-3.5 6.9l-0.4-1.5q2 1.6 3.6 3.5 0.8 1 1.5 2c0.2 0.4 0.4 0.7 0.6 1.2 0.2 0.5 0.3 1.3 0.1 1.9-0.5 1.1-1.4 1.6-2.1 2-0.7 0.4-1.5 0.7-2.3 1-1.5 0.5-3.2 0.8-4.8 0.7 1.6-0.4 3.1-0.9 4.4-1.6 0.7-0.4 1.3-0.9 1.9-1.3 0.6-0.5 1.1-1 1.2-1.4 0-0.2 0-0.2-0.1-0.5-0.1-0.2-0.4-0.5-0.6-0.8q-0.7-0.9-1.5-1.7-1.5-1.7-3.4-3l-0.8-0.6 0.4-0.9c1.1-2.5 2.1-5 3.6-7.3 1.4-2.4 3.3-4.6 5.6-6.2 2.4-1.6 5.4-2.6 8.3-2 2.8 0.6 5.3 2.7 5.9 5.4z"/><path class="d" d="m149.5 709.6c1.1 5.9 4.3 11.3 8.4 15.4 2.8 2.8 6.1 5 9.6 5.9 3.5 1 7.3 0.6 10.1-1.6 2.5-1.9 4.1-5.2 4.9-8.6 1.8-8-0.7-17.3-5.6-24.2-3.4-4.9-8.2-8.8-13.4-9.5-10.5-1.3-16 12.2-14 22.6z"/><path class="i" d="m178.9 721.9c-2.5-0.2-5-1.1-7.1-2.6-0.6-0.5-1.3-1.1-1.3-1.9 0-0.5 0.3-0.9 0.5-1.2 1.4-2.2 3.2-4.1 5.2-5.6-1.4-3.3-2.9-6.7-5.2-9.6-2.2-2.8-5.2-5.1-8.6-5.6-3.4-0.5-7.1 1.2-8.4 4.6 0 0-4.5 9.6 6.2 20 11.3 11 18.7 1.9 18.7 1.9z"/><path class="e" d="m154 700c0.6-2.7 3.1-4.8 6-5.4 2.8-0.6 5.9 0.4 8.2 2 2.4 1.6 4.2 3.8 5.7 6.2 1.4 2.3 2.5 4.8 3.5 7.3l0.4 0.9-0.8 0.6q-1.8 1.3-3.4 3-0.8 0.8-1.5 1.7c-0.2 0.3-0.4 0.6-0.6 0.8-0.1 0.3-0.1 0.3-0.1 0.5 0.1 0.4 0.6 0.9 1.2 1.4 0.6 0.4 1.2 0.9 1.9 1.3 1.3 0.7 2.8 1.2 4.4 1.6-1.6 0.1-3.2-0.2-4.8-0.7-0.8-0.3-1.6-0.6-2.3-1-0.7-0.4-1.6-0.9-2-2-0.3-0.6-0.2-1.4 0-1.9 0.2-0.5 0.5-0.8 0.7-1.2q0.6-1 1.4-2 1.6-1.9 3.6-3.5l-0.4 1.5c-1.1-2.4-2.2-4.7-3.5-6.9-1.3-2.2-2.9-4.2-4.8-5.7-1.9-1.5-4.2-2.5-6.6-2.3-2.4 0.1-4.9 1.4-6.2 3.8z"/><path class="e" d="m215.8 829.3c-3.3 1.6-6.9 3.2-10.7 4.7-22.4 9-52 17.2-65.9 27.6-22.6 17-33.1 89-33.1 89h138.2c-5-42.1-12.2-83.8-21.6-125.1q-3.1 1.9-6.9 3.8z"/><path class="d" d="m263.5 851.6c0.8-0.1 1.4-0.7 1.8-1.4 8.1-10.6 15.5-21.8 22.4-33.2q-0.5-0.9-0.9-1.9c-1.4-3.8-2.4-7.7-3.1-11.5-15.6 3.9-32.1 4.2-47.9 0.9-0.6 3.5-1.5 7.1-2.8 10.6-0.3 0.9-0.8 1.8-1.5 2.7q15.1 16.3 30.2 32.7c0.5 0.5 1.1 1.1 1.8 1.1z"/><path class="e" d="m380.6 861.6c-14.6-11-46.6-19.4-69.3-29q-4.7-2-8.8-4.1-0.3-0.2-0.6-0.3c-10.3 40.2-17.7 81.1-22.1 122.4h134c0 0-10.5-72-33.2-89z"/><path class="b" d="m287.7 817c-6.9 11.4-14.3 22.6-22.4 33.2-0.4 0.7-1 1.3-1.8 1.4-0.7 0-1.3-0.6-1.8-1.1q-15.1-16.4-30.2-32.7c-1.8 2.7-4.9 5.3-8.8 7.7 9.4 41.3 16.6 83 21.6 125.1h15 1.2 19.3c4.4-41.3 11.8-82.2 22.1-122.4-6.7-3.5-11.8-7.2-14.2-11.2z"/><path class="e" d="m286.8 816.4c3.1 2.5 6 4.9 9.1 7.1 3 2.3 6.2 4.3 9.5 6.5-3.9-0.7-7.5-2.5-10.7-4.9-3.2-2.3-6-5.2-7.9-8.7z"/><path class="e" d="m221.4 826.6c2.4-2.7 5.2-4.8 7.7-7.2 2.5-2.3 4.7-4.9 6.6-7.9-0.2 1.8-0.9 3.5-1.8 5.1-0.9 1.6-2.2 3-3.5 4.3-2.6 2.4-5.7 4.4-9 5.7z"/><path class="f" d="m246.7 863l10.5 16.3-14.1 60.7 1.2 10.6h35.5l1.3-9.8-11.9-60.4 10.8-16.7-16.5-12.1z"/><path class="j" d="m229 874.6c0.8-1.1 34.5-23 34.5-23l35.3 26.6"/><path class="k" d="m187.2 839.1l39.5 111"/><path class="k" d="m334.2 839.1l-39.5 111"/><g style="opacity:.3"><path class="b" d="m183.3 606.5c7.7 11 18.4 19.8 30.3 25.8 11.9 5.9 25.2 9.2 38.5 9.2 13.3 0.2 26.7-2.8 38.2-9.7 5.7-3.4 10.8-7.8 15-13 4.2-5.1 7.5-11.1 9.3-17.6-1.4 6.6-4.5 12.8-8.5 18.2-4.1 5.4-9.3 10.1-15 13.7-11.6 7.3-25.4 10.4-39 10.4-13.6-0.2-27.2-3.5-39.2-9.9-6-3.2-11.6-7-16.7-11.6-5-4.5-9.4-9.7-12.9-15.5z"/><path class="b" d="m203.4 598.5c3 2.2 6.2 4.1 9.6 5.7 3.3 1.6 6.8 2.8 10.4 3.6 7.1 1.8 14.6 2.1 21.7 0.8 7.3-1.3 14.2-4.1 20.3-8 3.1-2 6-4.4 8.6-7 2.6-2.6 4.8-5.7 5.6-9.3-0.4 3.7-2.5 7.1-4.9 10-2.5 2.8-5.3 5.3-8.4 7.5-6.1 4.4-13.3 7.4-20.8 8.7-7.5 1.4-15.3 1-22.5-1.2-7.3-2-14.1-5.8-19.6-10.8z"/><path class="b" d="m332.5 625.1c-1.3 5.4-2.5 10.9-3.2 16.3-0.8 5.5-1.1 11-0.5 16.4 0.5 5.5 2 10.8 4.3 15.7 2.4 4.9 5.8 9.4 10.1 12.9-2.4-1.4-4.6-3.2-6.5-5.3-1.9-2.1-3.6-4.4-4.9-6.9-2.8-4.9-4.4-10.5-5-16.2-0.5-5.6-0.1-11.3 0.9-16.8 1.1-5.5 2.7-10.9 4.8-16.1z"/><path class="b" d="m173.2 623.5c1.5 2.3 2.7 4.8 3.7 7.3q1.5 3.9 2.2 8.1c1 5.5 0.9 11.2-0.3 16.6-1.2 5.5-3.4 10.8-6.6 15.4q-2.4 3.4-5.3 6.4c-2 1.9-4.1 3.7-6.5 5.1 2.1-1.8 4-3.7 5.8-5.8q2.6-3.1 4.7-6.6c2.8-4.6 4.9-9.6 6-14.9 1.1-5.2 1.3-10.7 0.7-16-0.6-5.4-2.1-10.6-4.4-15.6z"/></g><path class="e" d="m260.5 686.9c0.8 5.6 1.8 11.1 3.2 16.5 0.4 1.3 0.8 2.5 1.5 3.4 0.6 0.8 1.7 1.6 2.9 2.4 2.5 1.6 4.6 4.2 5.8 7 1.2 2.8 1.6 6.1 1 9.1-0.6 3-2 5.9-4.1 8.1-2.2 2.2-4.9 3.6-7.8 4.3-2.8 0.7-5.7 0.8-8.5 0.4 5.6-0.4 11.2-2.2 14.5-6.3 3.3-4 4.3-9.8 2.1-14.4-0.9-2.4-2.5-4.4-4.7-5.9-1.1-0.9-2.4-1.8-3.4-3.2-0.9-1.4-1.3-3-1.5-4.4-1-5.7-1.4-11.4-1-17z"/><path class="e" d="m219.2 698.7c3.2-1.5 6.5-2.4 9.9-3 3.4-0.6 6.9-0.8 10.4-0.6l-1.2 2.4c-2.3-2.6-5.4-4.6-8.8-5.9-3.4-1.4-7.1-2.2-10.9-2.1 3.6-1.4 7.8-1.3 11.7-0.2 1.9 0.5 3.8 1.3 5.5 2.3 1.7 1.1 3.4 2.4 4.7 4l2.3 2.7-3.4-0.3c-3.4-0.2-6.7-0.2-10-0.1-3.4 0.1-6.7 0.5-10.2 0.8z"/></g><path class="b" d="m946.2 741.3c0 115.6-93.8 209.4-209.4 209.4-115.7 0-209.4-93.8-209.4-209.4 0-115.7 93.7-209.4 209.4-209.4 115.6 0 209.4 93.7 209.4 209.4z"/><path class="c" d="m962.9 741.3c0 124.9-101.2 226.1-226.1 226.1-124.9 0-226.2-101.2-226.2-226.1 0-124.9 101.3-226.2 226.2-226.2 124.9 0 226.1 101.3 226.1 226.2z"/><g clip-path="url(#cp3)"><path class="e" d="m689.2 933.6c-38-0.4-75.9-12.4-107-34.2-31.2-21.7-54.1-53.9-67.5-89.4 6.7-12.1 14.1-24.9 26.4-31.3 5.7-2.9 12.1-4.3 17.5-7.8 8.8-5.6 13.5-15.7 16.6-25.7 3-10 4.9-20.5 10.1-29.5 5-8.7 12.8-15.6 21.4-20.8 8.4-4.9 17.8-8.6 24.4-15.8 6.5-7.2 9.2-16.9 11.7-26.2 3.3 2.5 7.7 0.7 11.8 0.9 22.5 1.1 45.1-0.9 67-5.8 10.6 59.7 6.4 121.2 0.2 181.5-2.2 21.2-4.3 42.4-8.4 63.2-3 15.6-11.9 31-24.2 40.9z"/><path class="e" d="m781.3 933.6c38-0.4 75.8-12.4 107-34.2 31.2-21.7 54-53.9 67.5-89.4-6.7-12.1-14.1-24.9-26.4-31.3-5.7-2.9-12.1-4.3-17.5-7.8-8.8-5.6-13.5-15.7-16.6-25.7-3-10-4.9-20.5-10.1-29.5-5-8.7-12.8-15.6-21.4-20.8-8.4-4.9-17.8-8.6-24.4-15.8-6.5-7.2-9.2-16.9-11.7-26.2-3.3 2.5-7.7 0.7-11.9 0.9-22.4 1.1-45-0.9-66.9-5.8-10.6 59.7-6.4 121.2-0.2 181.5 2.2 21.2 4.3 42.4 8.4 63.2 3 15.6 11.8 31 24.2 40.9z"/><path class="d" d="m795.6 837.1q-2.1-0.8-4-1.7-0.5-0.2-1-0.4-3.3-1.4-6.3-2.9c-0.5-0.2-1-0.5-1.5-0.7q-1.6-0.9-3.1-1.7c-5.1-2.9-9-5.9-11.2-9.1-0.6-0.9-1.1-1.7-1.4-2.6-6.9-18.7-4.2-39.7-4.2-39.7l-22.7 1.6-24.4-1.6c0 0 4.4 21-2.5 39.7q-0.3 0.7-0.7 1.5c-2.2 4-7.1 7.6-13.5 11q-0.4 0.3-0.9 0.5-1 0.6-2.2 1.1-3.2 1.6-6.7 3.1-2 0.8-4 1.6-1.5 0.6-3 1.2l57.4 86.1z"/><path class="f" d="m860.9 864.5c-13.8-10.4-43-18.5-65.3-27.4l-55.9 87-57.4-86.1c-21.9 8.6-49.6 16.5-62.8 26.5-22.7 16.9-33.2 88.9-33.2 88.9h100.2 15 38.1 1.2 56.2 23.2 73.8c0 0-10.5-72-33.1-88.9z"/><path class="e" d="m831.7 679.4c0 51.4-43.2 93.1-96.4 93.1-53.3 0-96.5-41.7-96.5-93.1 0-51.4 43.2-93.1 96.5-93.1 53.2 0 96.4 41.7 96.4 93.1z"/><path class="d" d="m818.8 698.6c0 45.5-29 99.9-82.5 99.9-53.5 0-82.4-54.4-82.4-99.9 0-45.6 36.9-82.5 82.4-82.5 45.6 0 82.5 36.9 82.5 82.5z"/><path class="e" d="m663.1 701.4c8.5-14.3 15.4-48.9 11.5-57.2-1.2-2.6-8.9 0.6-11.1-0.7-3.9-2.4-8.8-0.9-12.1 2.5-3.4 3.3-5.3 8.2-6.6 13.1-4 14.4-3.8 29.9-1.5 44.6 1.1 7 0.9 12.4 7.7 9.2 4.9-2.2 9.1-6.5 12.1-11.5z"/><path class="e" d="m809 702.5c-4.2-7-6.4-15.4-7.6-23.9-1.4-9.3-1.7-19.4 2.1-27.7 1.2-2.6 2.8-5 5-6.3 3.9-2.4 8.9-0.9 12.2 2.5 3.3 3.3 5.2 8.2 6.6 13.1 4 14.4 3.7 29.9 1.4 44.6-1.1 7.1-0.8 12.4-7.7 9.2-4.9-2.2-9-6.5-12-11.5z"/><path class="d" d="m840.7 712.4c-1.1 5.9-4.3 11.4-8.5 15.4-2.8 2.8-6.1 5-9.6 6-3.5 0.9-7.2 0.5-10-1.6-2.5-2-4.1-5.2-4.9-8.7-1.8-8 0.6-17.3 5.5-24.2 3.4-4.8 8.3-8.8 13.5-9.4 10.4-1.3 16 12.1 14 22.5z"/><path class="i" d="m811.3 724.7c2.5-0.1 5-1 7.1-2.6 0.6-0.4 1.3-1.1 1.2-1.9 0-0.4-0.2-0.8-0.5-1.2-1.4-2.2-3.2-4-5.2-5.6 1.5-3.3 3-6.7 5.2-9.5 2.2-2.9 5.3-5.2 8.7-5.7 3.4-0.4 7.1 1.3 8.3 4.6 0 0 4.6 9.6-6.1 20.1-11.3 11-18.7 1.8-18.7 1.8z"/><path class="e" d="m836.1 702.8c-1.2-2.4-3.7-3.6-6.1-3.8-2.4-0.2-4.7 0.9-6.7 2.3-1.9 1.6-3.4 3.5-4.7 5.7-1.3 2.2-2.4 4.5-3.5 7l-0.4-1.6q2 1.6 3.5 3.5 0.8 1 1.5 2.1c0.2 0.3 0.4 0.7 0.6 1.2 0.3 0.5 0.4 1.2 0.1 1.8-0.5 1.2-1.4 1.6-2.1 2-0.7 0.4-1.5 0.8-2.2 1-1.6 0.6-3.2 0.8-4.8 0.7 1.5-0.3 3-0.8 4.4-1.6 0.6-0.4 1.2-0.8 1.9-1.3 0.6-0.4 1.1-1 1.1-1.3 0.1-0.2 0-0.3-0.1-0.5-0.1-0.2-0.3-0.6-0.6-0.9q-0.7-0.9-1.5-1.7-1.5-1.6-3.3-2.9l-0.9-0.6 0.5-1c1-2.4 2-4.9 3.5-7.3 1.4-2.3 3.3-4.6 5.7-6.2 2.3-1.6 5.3-2.6 8.2-1.9 2.8 0.6 5.3 2.7 5.9 5.3z"/><path class="d" d="m629.7 712.4c1.1 5.9 4.3 11.4 8.5 15.4 2.8 2.8 6.1 5 9.6 6 3.5 0.9 7.2 0.5 10-1.6 2.5-2 4.1-5.2 4.9-8.7 1.8-8-0.6-17.3-5.5-24.2-3.4-4.8-8.3-8.8-13.5-9.4-10.4-1.3-16 12.1-14 22.5z"/><path class="i" d="m659.1 724.7c-2.5-0.1-5-1-7.1-2.6-0.6-0.4-1.3-1.1-1.3-1.9 0.1-0.4 0.3-0.8 0.5-1.2 1.5-2.2 3.3-4 5.3-5.6-1.5-3.3-3-6.7-5.2-9.5-2.2-2.9-5.3-5.2-8.7-5.7-3.4-0.4-7.1 1.3-8.4 4.6 0 0-4.5 9.6 6.2 20.1 11.3 11 18.7 1.8 18.7 1.8z"/><path class="e" d="m634.2 702.8c0.7-2.6 3.2-4.7 6-5.3 2.9-0.7 5.9 0.3 8.2 1.9 2.4 1.6 4.3 3.9 5.7 6.2 1.5 2.4 2.5 4.9 3.5 7.3l0.5 1-0.9 0.6q-1.8 1.3-3.3 2.9-0.8 0.8-1.5 1.7c-0.3 0.3-0.5 0.7-0.6 0.9-0.1 0.2-0.2 0.3-0.1 0.5 0 0.3 0.5 0.9 1.1 1.3 0.6 0.5 1.3 0.9 1.9 1.3 1.4 0.8 2.9 1.3 4.4 1.6-1.6 0.1-3.2-0.1-4.8-0.7-0.8-0.2-1.5-0.6-2.3-1-0.6-0.4-1.5-0.8-2-2-0.3-0.6-0.2-1.3 0-1.8 0.3-0.5 0.5-0.9 0.7-1.2q0.7-1.1 1.4-2.1 1.6-1.9 3.6-3.5l-0.4 1.6c-1.1-2.5-2.2-4.8-3.5-7-1.3-2.2-2.8-4.1-4.7-5.7-2-1.4-4.3-2.5-6.7-2.3-2.4 0.2-4.9 1.4-6.2 3.8z"/><path class="e" d="m714.7 693.9c0 4-3.3 7.3-7.3 7.3-4.1 0-7.3-3.3-7.3-7.3 0-4.1 3.2-7.4 7.3-7.4 4 0 7.3 3.3 7.3 7.4z"/><path class="e" d="m682.5 689.3c1.4-3.7 3.6-7.2 6.2-10.4 2.7-3.2 5.9-5.9 9.4-8.2q1.4-0.8 2.8-1.6l2.8-1.6q1.5-0.6 3-1.1 1.6-0.4 3.2-0.6c4.3-0.4 8.7 0.3 12.5 2.9l-0.1 0.7c-4.1 1.8-7.5 2.8-10.9 4q-1.3 0.5-2.6 0.8-1.2 0.3-2.6 0.6l-2.6 0.6q-1.3 0.4-2.6 0.8c-3.4 1.4-6.6 3.2-9.6 5.5-3.1 2.2-5.8 4.9-8.2 8z"/><path class="e" d="m763.1 693.9c0 4 3.3 7.3 7.4 7.3 4 0 7.3-3.3 7.3-7.3 0-4.1-3.3-7.4-7.3-7.4-4.1 0-7.4 3.3-7.4 7.4z"/><path class="e" d="m794.7 689.7c-2.4-3.1-5.1-5.8-8.2-8-3-2.3-6.3-4.1-9.7-5.5q-1.2-0.4-2.5-0.8l-2.7-0.6q-1.3-0.3-2.6-0.6-1.3-0.3-2.5-0.8c-3.4-1.2-6.9-2.2-10.9-4l-0.1-0.7c3.7-2.6 8.2-3.3 12.5-2.9q1.6 0.2 3.1 0.6 1.6 0.5 3.1 1.1l2.8 1.6q1.3 0.8 2.7 1.6c3.6 2.3 6.8 5 9.5 8.2 2.6 3.2 4.8 6.7 6.1 10.4z"/><path class="e" d="m713.8 744.6c3.9 3.6 8.2 6.7 12.8 9.1 2.4 1.1 4.7 2.1 7.2 2.7 1.2 0.3 2.5 0.4 3.7 0.6 1.3 0.1 2.6 0.2 3.8 0.1 2.4-0.1 4.9-0.9 7.2-1.9 2.3-0.9 4.5-2.3 6.6-3.8 4.2-3 8-6.8 11.5-10.8-2.5 4.7-5.9 9-10.1 12.6-4.1 3.5-9.3 6.4-15 6.8-2.9 0.2-5.7-0.2-8.4-1-2.7-0.8-5.2-1.9-7.6-3.4-4.6-2.8-8.7-6.6-11.7-11z"/><path class="e" d="m696.8 786.9c6.9 4.1 14.3 7.2 21.8 9.4 7.5 2.2 15.3 3.4 23.1 3.1 7.6-0.3 15.2-2.7 22.2-6.1 7.1-3.4 13.7-7.8 19.9-13-5.1 6.3-11.4 11.6-18.5 15.7-7 4.1-15.1 6.8-23.5 7.3-8.3 0.2-16.5-1.3-24.2-4.1-7.6-2.9-14.8-6.9-20.8-12.3z"/><path class="h" d="m799.8 725.3c0 7.3-7.8 13.2-17.4 13.2-9.7 0-17.5-5.9-17.5-13.2 0-7.3 7.8-13.2 17.5-13.2 9.6 0 17.4 5.9 17.4 13.2z"/><path class="h" d="m715.3 725.3c0 7.3-7.8 13.2-17.4 13.2-9.6 0-17.4-5.9-17.4-13.2 0-7.3 7.8-13.2 17.4-13.2 9.6 0 17.4 5.9 17.4 13.2z"/><path class="e" d="m654.1 675.6c7.6 7.1 20.2 6.3 27-1.7 4.2-5 6.1-11.9 9.1-18 2.9-6 8-11.8 14.2-11.5 5 0.2 9.3 4.5 14.3 4.9 6.6 0.6 12.3-5.9 14.1-13 1.7-7.1 6.9-18.3 5.6-25.5-6.3-3.8-21.7-0.8-28.6 1.1-26.5 7.1-47.6 34.8-55.7 63.7z"/><path class="e" d="m819.8 675.6c-7.5 7.1-20.1 6.3-26.9-1.7-4.3-5-6.2-11.9-9.1-18-3-6-8.1-11.8-14.3-11.5-5 0.2-9.3 4.5-14.3 4.9-6.6 0.6-12.3-5.9-14-13-1.7-7.1-4.1-18.3-2.8-25.5 6.3-3.8 18.8-0.8 25.8 1.1 26.4 7.1 47.5 34.8 55.6 63.7z"/><path class="e" d="m737.7 689.2c3.2 2.4 5.9 5.4 8.1 8.8 2.3 3.3 4.1 7 5.2 11q0.8 3 1.2 6 0.4 3 0.6 6c0.3 4 0.4 8-0.3 12.2l-0.2 1.1-1.1-0.1q-5.4-0.1-10.7-0.4c-3.6-0.2-7.1-0.5-10.7-0.9 3.6-0.4 7.1-0.6 10.7-0.8q5.3-0.3 10.7-0.5l-1.3 1.1c0.4-3.7 0.3-7.7 0-11.5-0.3-3.9-0.8-7.8-1.6-11.5-0.8-3.7-2.2-7.4-4-10.8-1.9-3.4-4-6.7-6.6-9.7z"/><path class="j" d="m673.2 841.1l65.8 98.2 65.8-98.2"/><g style="opacity:.4"><path class="b" d="m723.9 626.8c-8.2-2.6-17-2.2-24.9 0.5-7.9 2.7-15.1 7.7-19.8 14.5-2.4 3.4-4.1 7.3-5.8 11.2-1.7 3.9-3.5 8-6.5 11.3-2.9 3.3-6.5 5.9-10.5 7.6-4 1.7-8.3 2.6-12.6 2.3 8.5-0.3 16.7-4.4 21.9-10.9 5.4-6.5 6.8-15.3 11.8-22.6 5.1-7.2 12.7-12.4 21-14.9 4.2-1.2 8.5-1.8 12.8-1.7 4.3 0.1 8.6 1 12.6 2.7z"/><path class="b" d="m724.8 604.6c-3.3-2.2-7.3-3-11.2-2.9-3.9 0.1-7.8 1-11.5 2.3-7.4 2.6-14.3 6.7-19.7 12.4-5.7 5.4-9.5 12.5-14 19.1-2.3 3.3-4.8 6.5-7.7 9.3-2.9 2.7-6.3 5.1-10 6.5 3.5-1.8 6.7-4.3 9.3-7.2 2.7-2.9 5-6.1 7.1-9.5 4.2-6.6 8.1-13.8 13.8-19.7 5.8-5.7 12.9-10 20.7-12.4 3.9-1.1 7.9-1.8 12-1.7 4 0.1 8.2 1.2 11.2 3.8z"/><path class="b" d="m746.5 634.1c2.4-3.2 5.9-5.5 9.7-7 3.9-1.5 8.1-1.9 12.2-1.5 8.3 1 15.6 6.1 20.5 12.7 2.4 3.3 4 7.2 5.4 11 1.3 3.8 2.6 7.5 4.9 10.7 4.4 6.4 11.9 10.7 19.9 11.3-4 0.1-8-0.9-11.7-2.6-3.7-1.8-6.9-4.5-9.5-7.8-2.6-3.3-3.9-7.3-5.3-11-1.4-3.7-3-7.3-5.4-10.4-4.4-6.4-11.3-11.2-19-12.4-7.7-1.2-16.1 1.2-21.7 7z"/><path class="b" d="m746.9 608.6c3.2-2.2 6.9-3.8 10.8-4.7 3.9-0.9 7.9-1.1 11.8-0.7 4 0.4 7.9 1.7 11.5 3.5 3.6 1.8 6.8 4.3 9.6 7.2 5.5 5.8 9.4 12.8 12.7 19.9 1.7 3.5 3.3 7.1 5.4 10.4 2 3.3 4.5 6.3 7.9 8.4-3.6-1.7-6.4-4.7-8.7-7.9-2.3-3.2-4.1-6.8-5.9-10.2-3.6-6.9-7.5-13.7-12.9-19.2-2.6-2.8-5.6-5.2-8.9-7-3.4-1.8-7.1-2.9-10.9-3.6-7.5-1.1-15.5 0.2-22.4 3.9z"/><path class="b" d="m855.4 723.4c5.2 3.4 9.7 8 13.2 13.2 3.6 5.2 5.8 11.3 7.3 17.3 1.6 6.1 2.4 12.3 3.7 18.4 1.3 6 2.9 12 5.9 17.3 0.4 0.7 0.8 1.3 1.2 1.9 0.5 0.6 0.8 1.3 1.3 1.9 1 1.2 1.9 2.3 3 3.4 2.2 2.1 4.7 3.9 7.3 5.5 5.2 3.3 10.9 6 15.9 9.9 5 3.9 9.3 8.6 12.8 13.9 3.3 5.3 5.9 11.1 7.4 17.1-1.9-5.9-4.6-11.6-8.3-16.6-3.5-5-7.9-9.5-12.8-13.1-5-3.6-10.6-6.3-16-9.6-2.7-1.7-5.3-3.5-7.6-5.7-2.3-2.3-4.3-4.8-5.9-7.6-3.1-5.6-4.8-11.8-6-18-1.2-6.1-2.1-12.3-3.4-18.3-1.3-6-3.3-11.9-6.6-17.2-3.2-5.3-7.5-9.9-12.4-13.7z"/><path class="b" d="m820.4 751c6.2 1.2 11.4 5.7 14.9 10.8 3.6 5.3 5.6 11.4 7.5 17.3 3.8 11.9 8.2 23.5 13.6 34.7 1.3 2.8 2.8 5.5 4.9 7.5 2.2 2.1 4.8 3.6 7.5 5.2 5.5 3 10.9 6.5 15.5 10.9 4.6 4.2 8.7 9.1 12.1 14.4 3.4 5.3 6.1 11 7.9 16.9-2.3-5.8-5.1-11.3-8.7-16.4-3.6-5.1-7.7-9.8-12.4-13.8q-7-6.1-15.2-10.4c-2.8-1.6-5.6-3.1-8-5.4-2.4-2.3-4-5.2-5.4-8-5.3-11.4-9.8-23.1-13.3-35.1-1.7-6-3.5-12-6.8-17.2-3.2-5.2-8-9.8-14.1-11.4z"/><path class="b" d="m797.5 780.2c-0.2 2.9 0.4 5.8 1.5 8.5 1 2.6 2.4 5.2 4.1 7.6 3.2 4.8 6.9 9.2 10.8 13.6 3.9 4.4 7.9 8.7 11.4 13.4 3.6 4.7 6.7 9.8 8.7 15.3-1.4-2.5-2.8-5.1-4.6-7.4-1.6-2.4-3.4-4.7-5.3-6.9-3.8-4.5-7.8-8.7-11.7-13.1-3.8-4.4-7.7-9-10.6-14.1-1.5-2.6-2.9-5.3-3.7-8.1-0.9-2.9-1.2-5.9-0.6-8.8z"/><path class="b" d="m618.5 720.6q-3.8 1.2-7.2 3.1c-2.2 1.3-4.4 2.8-6.3 4.6-3.9 3.4-7.2 7.5-9.6 12.1-2.4 4.6-4 9.5-4.8 14.6-0.9 5.1-1.2 10.3-1.9 15.6-0.7 5.2-2 10.5-4.5 15.3-2.6 4.7-6 9-10 12.4-4.1 3.5-8.5 6.5-13.1 9.1q-6.9 3.8-14.1 7c4.6-2.6 9.2-5.1 13.6-7.9 4.5-2.7 8.7-5.8 12.5-9.3 3.8-3.5 7.1-7.6 9.4-12.1 2.4-4.6 3.6-9.7 4.2-14.8 0.8-5.1 1.2-10.4 2.1-15.6 0.9-5.3 2.6-10.5 5.3-15.1 2.7-4.6 6.1-8.7 10.3-12.1 2-1.6 4.3-3 6.7-4.2 2.3-1.2 4.8-2.1 7.4-2.7z"/><path class="b" d="m643.4 745.3c-11.2 5.2-20.3 14.6-25.1 25.7-2.4 5.6-3.6 11.7-4.2 17.7-0.7 6.1-0.9 12.3-1.5 18.5-0.7 6.2-1.8 12.4-4.1 18.3-1.2 2.9-2.6 5.7-4.5 8.3-1.8 2.6-4.1 4.8-6.6 6.8-5 3.8-10.6 6.6-15.8 9.8-5.3 3.1-10.3 6.8-13.5 12.3 2.8-5.7 7.8-9.8 13-13.2 5.2-3.4 10.6-6.3 15.3-10.1 2.4-2 4.5-4.2 6.2-6.6 1.8-2.4 3.1-5.2 4.2-8 2.2-5.6 3.2-11.7 3.8-17.8 0.7-6.1 0.9-12.3 1.7-18.5 0.7-6.1 1.9-12.4 4.6-18.1 2.7-5.7 6.4-10.9 10.9-15.2 4.5-4.2 9.8-7.7 15.6-9.9z"/><path class="b" d="m670.3 775c-2.3 1.6-4.5 3.3-6.4 5.4-2 2-3.7 4.2-5.1 6.6-2.8 4.8-4.1 10.2-5 15.8-0.5 2.7-1 5.6-1.7 8.3-0.8 2.8-1.8 5.6-3 8.1-2.5 5.2-5.9 9.9-10.1 13.8 1.7-2.3 3.4-4.5 4.9-6.9q2.2-3.6 3.7-7.5c2.2-5.2 3.3-10.6 4.2-16.2 0.5-2.8 1.1-5.6 2-8.4 0.9-2.7 2.1-5.4 3.7-7.8 1.7-2.4 3.5-4.6 5.7-6.5 2.2-1.9 4.5-3.5 7.1-4.7z"/></g></g><path class="b" d="m946.2 264.8c0 115.6-93.8 209.4-209.4 209.4-115.7 0-209.4-93.8-209.4-209.4 0-115.7 93.7-209.5 209.4-209.5 115.6 0 209.4 93.8 209.4 209.5z"/><path class="c" d="m962.9 264.8c0 124.9-101.2 226.1-226.1 226.1-124.9 0-226.2-101.2-226.2-226.1 0-124.9 101.3-226.2 226.2-226.2 124.9 0 226.1 101.3 226.1 226.2z"/><g clip-path="url(#cp4)"><path class="e" d="m861.9 391.8c-0.4-1.3-12.2-102.6-21.5-183.2-6.4-55.5-50.8-97-103.1-96.4-52.6 0.6-96.3 43.6-101.2 99.7l-16.3 185.5z"/><path class="a" d="m860.9 384.4c-14.7-11-46.7-19.4-69.3-29q-0.5-0.2-1-0.5c-2.8-1.1-5.4-2.4-7.8-3.6q-1.6-0.8-3.1-1.6c-6.4-3.7-11.1-7.5-12.6-11.8q-0.3-0.7-0.5-1.3c-17.3 3.8-35.4 3.5-52.6-0.8q-0.3 1-0.7 2.1c-1.8 4.8-7.4 9.1-15.1 13.1q-1 0.5-2.2 1.1-3.2 1.6-6.7 3.1-2 0.8-4 1.6c-22.3 9-51.9 17.2-65.8 27.6-22.7 17-33.2 89-33.2 89h100.2 15 38.1 1.2 56.2 23.2 73.8c0 0-10.5-72-33.1-89z"/><path class="d" d="m766.6 336.6c-6.3-18.3-3.7-38.3-3.7-38.3l-22.7 1.6-24.4-1.6c0 0 4 19.4-1.8 37.5 17.2 4.3 35.3 4.6 52.6 0.8z"/><path class="d" d="m818.8 218.5c0 45.6-29 99.9-82.5 99.9-53.5 0-82.4-54.3-82.4-99.9 0-45.5 36.9-82.4 82.4-82.4 45.6 0 82.5 36.9 82.5 82.4z"/><path class="e" d="m663.1 223.3c4.1-5.9 6.3-13 7.6-20.1 1.4-7.9 1.7-16.4-2.2-23.4-1.2-2.2-2.8-4.2-5-5.3-3.9-2-8.8-0.7-12.1 2.1-3.4 2.8-5.3 6.9-6.6 11.1-4 12.1-3.8 25.1-1.5 37.6 1.1 5.9 0.9 10.4 7.7 7.7 4.9-1.9 9.1-5.5 12.1-9.7z"/><path class="e" d="m813.1 223.3c-4.2-5.9-6.4-13-7.6-20.1-1.4-7.9-1.7-16.4 2.1-23.4 1.2-2.2 2.8-4.2 5-5.3 3.9-2 8.9-0.7 12.2 2.1 3.3 2.8 5.2 6.9 6.6 11.1 4 12.1 3.7 25.1 1.4 37.6-1.1 5.9-0.8 10.4-7.7 7.7-4.9-1.9-9-5.5-12-9.7z"/><path class="d" d="m840.7 232.4c-1.1 5.9-4.3 11.3-8.5 15.4-2.8 2.8-6.1 5-9.6 5.9-3.5 1-7.2 0.6-10-1.6-2.5-1.9-4.1-5.2-4.9-8.6-1.8-8 0.6-17.3 5.5-24.2 3.4-4.9 8.3-8.8 13.5-9.5 10.4-1.3 16 12.2 14 22.6z"/><path class="i" d="m811.3 244.7c2.5-0.2 5-1.1 7.1-2.6 0.6-0.5 1.3-1.1 1.2-1.9 0-0.5-0.2-0.9-0.5-1.2-1.4-2.2-3.2-4.1-5.2-5.6 1.5-3.3 3-6.7 5.2-9.6 2.2-2.8 5.3-5.1 8.7-5.6 3.4-0.5 7.1 1.2 8.3 4.6 0 0 4.6 9.6-6.1 20-11.3 11-18.7 1.9-18.7 1.9z"/><path class="e" d="m836.1 222.8c-1.2-2.4-3.7-3.7-6.1-3.8-2.4-0.2-4.7 0.8-6.7 2.3-1.9 1.5-3.4 3.5-4.7 5.7-1.3 2.2-2.4 4.5-3.5 6.9l-0.4-1.5q2 1.6 3.5 3.5 0.8 1 1.5 2.1c0.2 0.3 0.4 0.6 0.6 1.1 0.3 0.5 0.4 1.3 0.1 1.9-0.5 1.1-1.4 1.6-2.1 2-0.7 0.4-1.5 0.7-2.2 1-1.6 0.5-3.2 0.8-4.8 0.7 1.5-0.4 3-0.9 4.4-1.6 0.6-0.4 1.2-0.9 1.9-1.3 0.6-0.5 1.1-1 1.1-1.4 0.1-0.2 0-0.2-0.1-0.5-0.1-0.2-0.3-0.5-0.6-0.8q-0.7-0.9-1.5-1.7-1.5-1.7-3.3-3l-0.9-0.5 0.5-1c1-2.4 2-5 3.5-7.3 1.4-2.4 3.3-4.6 5.7-6.2 2.3-1.6 5.3-2.6 8.2-2 2.8 0.6 5.3 2.7 5.9 5.4z"/><path class="d" d="m629.7 232.4c1.1 5.9 4.3 11.3 8.5 15.4 2.8 2.8 6.1 5 9.6 5.9 3.5 1 7.2 0.6 10-1.6 2.5-1.9 4.1-5.2 4.9-8.6 1.8-8-0.6-17.3-5.5-24.2-3.4-4.9-8.3-8.8-13.5-9.5-10.4-1.3-16 12.2-14 22.6z"/><path class="i" d="m659.1 244.7c-2.5-0.2-5-1.1-7.1-2.6-0.6-0.5-1.3-1.1-1.3-1.9 0.1-0.5 0.3-0.9 0.5-1.2 1.5-2.2 3.3-4.1 5.3-5.6-1.5-3.3-3-6.7-5.2-9.6-2.2-2.8-5.3-5.1-8.7-5.6-3.4-0.5-7.1 1.2-8.4 4.6 0 0-4.5 9.6 6.2 20 11.3 11 18.7 1.9 18.7 1.9z"/><path class="e" d="m634.2 222.8c0.7-2.7 3.2-4.8 6-5.4 2.9-0.6 5.9 0.4 8.2 2 2.4 1.6 4.3 3.8 5.7 6.2 1.5 2.3 2.5 4.9 3.5 7.3l0.5 1-0.9 0.5q-1.8 1.3-3.3 3-0.8 0.8-1.5 1.7c-0.3 0.3-0.5 0.6-0.6 0.8-0.1 0.3-0.2 0.3-0.1 0.5 0 0.4 0.5 0.9 1.1 1.4 0.6 0.4 1.3 0.9 1.9 1.3 1.4 0.7 2.9 1.2 4.4 1.6-1.6 0.1-3.2-0.2-4.8-0.7-0.8-0.3-1.5-0.6-2.3-1-0.6-0.4-1.5-0.9-2-2-0.3-0.6-0.2-1.4 0-1.9 0.3-0.5 0.5-0.8 0.7-1.1q0.7-1.1 1.4-2.1 1.6-1.9 3.6-3.5l-0.4 1.5c-1.1-2.4-2.2-4.7-3.5-6.9-1.3-2.2-2.8-4.2-4.7-5.7-2-1.5-4.3-2.5-6.7-2.3-2.4 0.1-4.9 1.4-6.2 3.8z"/><path class="e" d="m682.7 213.4c1.6-3.6 3.9-6.9 6.6-9.9 2.8-2.9 6-5.4 9.5-7.5 3.5-2 7.3-3.9 11.4-4.4 4.1-0.5 8.3-0.3 12.1 1.2v0.4c-4 0.7-7.7 1.3-11.3 2.3-3.6 1-7.2 1.8-10.7 3.4-3.4 1.5-6.7 3.6-9.6 6.1-2.9 2.4-5.5 5.3-7.7 8.6z"/><path class="e" d="m794.8 213.6c-2.1-3.3-4.7-6.2-7.7-8.6-2.9-2.5-6.1-4.6-9.6-6.1-3.4-1.6-7.1-2.4-10.7-3.4-3.6-1-7.3-1.6-11.3-2.3v-0.4c3.8-1.5 8-1.7 12.1-1.2 4.1 0.5 7.9 2.4 11.4 4.4 3.5 2.1 6.7 4.6 9.5 7.5 2.7 3 5.1 6.3 6.7 9.9z"/><path class="e" d="m715.8 268.5c3.9 3.7 8.2 6.8 12.8 9.1 2.4 1.2 4.7 2.2 7.2 2.7 1.2 0.4 2.5 0.5 3.7 0.7 1.3 0 2.6 0.2 3.8 0 2.4-0.1 4.9-0.8 7.2-1.8 2.3-0.9 4.5-2.4 6.6-3.8 4.2-3.1 8-6.8 11.5-10.8-2.5 4.7-5.9 9-10.1 12.5-4.1 3.6-9.3 6.4-15 6.8-2.9 0.2-5.7-0.2-8.4-0.9-2.7-0.8-5.2-1.9-7.6-3.4-4.6-2.8-8.7-6.6-11.7-11.1z"/><path class="e" d="m696.8 306.8c6.9 4.1 14.3 7.3 21.8 9.5 7.5 2.1 15.3 3.3 23.1 3.1 7.6-0.4 15.2-2.7 22.2-6.1 7.1-3.5 13.7-7.9 19.9-13.1-5.1 6.4-11.4 11.6-18.5 15.8-7 4.1-15.1 6.8-23.5 7.2-8.3 0.3-16.5-1.2-24.2-4-7.6-2.9-14.8-6.9-20.8-12.4z"/><path class="h" d="m799.8 249.3c0 7.3-7.8 13.2-17.4 13.2-9.7 0-17.5-5.9-17.5-13.2 0-7.3 7.8-13.2 17.5-13.2 9.6 0 17.4 5.9 17.4 13.2z"/><path class="h" d="m715.3 249.3c0 7.3-7.8 13.2-17.4 13.2-9.6 0-17.4-5.9-17.4-13.2 0-7.3 7.8-13.2 17.4-13.2 9.6 0 17.4 5.9 17.4 13.2z"/><path class="e" d="m738.4 215.1c0.7 4 1.9 7.8 2.9 11.7l3.1 11.7c2 7.8 3.9 15.6 5.7 23.5l0.3 1.4-1.4 0.1q-3.4 0.1-6.8 0.1-3.5-0.1-6.9-0.3 3.4-0.8 6.7-1.3 3.4-0.5 6.8-0.9l-1 1.5c-1.1-3.9-2.1-7.8-3.1-11.7-0.9-4-1.9-7.9-2.7-11.8q-1.3-5.9-2.3-11.9-0.5-3-0.8-6c-0.3-2-0.6-4.1-0.5-6.1z"/><path class="e" d="m657.2 169.6c5.8 8.5 13.7 16.7 23.9 18.1 2.1 0.3 4.9-0.1 5.5-2.1 0.3-0.9 0.1-1.8-0.1-2.7-1.4-6.7-3.5-13.3-6.2-19.6 3.7 5.3 9.6 8.5 15.4 11.3 8.7 4.2 17.7 7.7 27 10.5 7.2 2.2 14.8 4 22.4 3.4 1.8-0.1 4.2-1 4.1-2.9 0-0.7-0.5-1.4-1-2q-4.7-6.2-9.5-12.4c5.3 4.3 12.1 6.5 18.7 8.4 19.7 5.9 40.9 11 60.7 5.3-9.6-25.6-28.9-49.4-54.1-60-9.6-4.1-20-6.7-30.5-6.7-11.3 0-22.4 3.1-33.1 6.9-9.8 3.4-19.5 7.5-27.7 13.9-11.6 9-19.6 22.3-23.4 36.6"/><path class="e" d="m696.4 225c-0.7-3.2 0.6-6.6 2.9-9.1 2.2-2.5 5.6-4.2 9.3-4.2 3.6 0.1 6.9 1.9 9.1 4.5 2.2 2.5 3.3 6.1 2.6 9.1-1-2.9-2.7-5.2-4.8-6.9-2.1-1.7-4.6-2.6-7-2.7-2.4 0-5 0.9-7.1 2.5-2.2 1.6-4 3.8-5 6.8z"/><path class="e" d="m761.1 225c-0.7-3.2 0.6-6.6 2.9-9.1 2.2-2.5 5.6-4.2 9.3-4.2 3.6 0.1 7 1.9 9.1 4.5 2.2 2.5 3.4 6.1 2.6 9.1-0.9-2.9-2.7-5.2-4.8-6.9-2.1-1.7-4.6-2.6-7-2.7-2.4 0-5 0.9-7.1 2.5-2.2 1.6-4 3.8-5 6.8z"/><g style="opacity:.4"><path class="b" d="m689.3 140.9c4.8 6.7 10.8 12.5 17.6 17 6.8 4.6 14.3 8.1 22.2 10.1l-0.8 1.2c-3.5-5.1-7-10.2-10.6-15.1q-5.4-7.5-11.2-14.7l1.5-1.3c5.5 6 11.8 11.4 18.7 15.7 6.9 4.4 14.3 7.8 22.1 10.2 7.8 2.5 15.9 4 24.1 4.4 8.2 0.5 16.4-0.2 24.5-1.9-8 2.2-16.3 3.1-24.6 3-8.2-0.3-16.5-1.6-24.4-3.9-8-2.4-15.6-5.9-22.7-10.2-7.1-4.4-13.6-9.7-19.1-16l1.5-1.2q5.7 7.3 11.1 14.8c3.5 5 7.1 10.1 10.4 15.3l1.1 1.8-2-0.6c-8-2.2-15.6-5.9-22.4-10.7-6.7-4.9-12.5-11-17-17.9z"/><path class="b" d="m724.4 124.9c4.7 4.5 9.9 8.4 15.5 11.6 5.7 3.2 11.7 5.8 17.9 7.5 6.2 1.8 12.6 2.8 19.1 3l4.8 0.1 4.9-0.3 4.9-0.6q2.3-0.5 4.8-0.9-2.4 0.8-4.7 1.4l-4.9 1.1-4.9 0.5-4.9 0.3c-6.7 0.1-13.3-0.9-19.7-2.7-6.3-1.8-12.5-4.5-18-8.1l-4.1-2.8-3.9-3.1-3.6-3.4q-1.6-1.8-3.2-3.6z"/><path class="b" d="m828 258.7c1.2 9.5 2.2 19 3.3 28.5l3.2 28.4 3.2 28.5 1.6 14.2 1.5 14.2c-0.9-4.7-1.7-9.4-2.5-14.1l-2.2-14.1c-1.4-9.5-2.5-19-3.6-28.5-1-9.4-2-18.9-2.8-28.5-0.7-9.5-1.4-19-1.7-28.6z"/><path class="b" d="m806.9 288.4c0.7 5.3 1.2 10.5 1.7 15.7 0.5 5.2 0.9 10.5 1.2 15.7 0.4 5.2 0.7 10.5 0.8 15.7l0.2 7.9c0 2.6 0.1 5.2 0 7.8-0.4-2.6-0.6-5.2-0.9-7.8l-0.8-7.8c-0.5-5.2-0.9-10.5-1.3-15.7-0.3-5.2-0.6-10.5-0.7-15.7-0.2-5.2-0.3-10.5-0.2-15.8z"/><path class="b" d="m790.1 308.6c0.9 5.6 1.3 11.2 1.7 16.8 0.4 5.6 0.7 11.2 0.6 16.9-1.5-5.5-2.1-11.1-2.6-16.8-0.3-5.6-0.4-11.2 0.3-16.9z"/><path class="b" d="m692.6 317c0.8 4.1 0.9 8.1 1 12.1-0.1 4-0.2 8-1 12-0.8-4-1-8-1-12 0-4 0.2-8 1-12.1z"/><path class="b" d="m662.3 281.7c0.3 7 0.3 14 0.2 20.9-0.1 7-0.3 14-0.6 21-0.4 6.9-0.8 13.9-1.3 20.8l-1 10.5c-0.3 3.4-0.7 6.9-1.1 10.4 0-3.5 0.1-7 0.2-10.5l0.3-10.4c0.2-7 0.6-14 0.9-20.9l1.1-20.9c0.4-7 0.8-13.9 1.3-20.9z"/><path class="b" d="m644.3 272.7c0 7.9-0.2 15.8-0.5 23.6-0.2 7.9-0.7 15.7-1 23.6-0.5 7.8-0.9 15.7-1.5 23.5l-0.9 11.8c-0.4 3.9-0.7 7.8-1.2 11.7 0-3.9 0.1-7.8 0.2-11.8l0.3-11.8c0.3-7.8 0.7-15.7 1.1-23.5 0.5-7.9 0.9-15.7 1.5-23.6 0.6-7.8 1.2-15.6 2-23.5z"/></g><path class="j" d="m711.6 342.2c18.8 4.8 38.9 4.4 57.5-1.2"/><path class="e" d="m648 389.4c-3.3 6.5-5.7 13.3-7.3 20.3-1.5 7-2.3 14.2-2.1 21.3 0.2 7.2 1.3 14.3 3.2 21.3l1.5 5.1 2 5 2.2 5q1.3 2.4 2.5 4.8-1.5-2.3-3-4.6l-2.6-4.7-2.2-5-1.9-5.2c-2.3-7-3.4-14.3-3.7-21.6-0.1-7.3 0.7-14.7 2.6-21.8l1.6-5.2 2-5.1 2.4-4.9q1.4-2.4 2.8-4.7z"/><path class="e" d="m837.2 389.4q1.4 2.3 2.7 4.7l2.4 4.9 2 5.1 1.6 5.2c2 7.1 2.8 14.5 2.6 21.8-0.2 7.3-1.4 14.6-3.6 21.6l-1.9 5.2-2.2 5-2.7 4.7q-1.5 2.3-3 4.6 1.3-2.4 2.6-4.8l2.2-5 1.9-5 1.6-5.1c1.9-7 2.9-14.1 3.1-21.3 0.2-7.1-0.5-14.3-2-21.3-1.6-7-4.1-13.8-7.3-20.3z"/></g></svg>