<?xml version="1.0" encoding="UTF-8" standalone="no"?>
<svg xmlns:dc="http://purl.org/dc/elements/1.1/" xmlns:cc="http://creativecommons.org/ns#" xmlns:rdf="http://www.w3.org/1999/02/22-rdf-syntax-ns#" xmlns:svg="http://www.w3.org/2000/svg" xmlns="http://www.w3.org/2000/svg" viewBox="0 0 216 66.666664" height="66.666664" width="216" xml:space="preserve" id="svg2" version="1.1">
  <metadata id="metadata8"></metadata>
  <defs id="defs6">
    <clipPath id="clipPath18">
      <path id="path16" d="M 0,0 H 162 V 50 H 0 Z"></path>
    </clipPath>
    <linearGradient id="linearGradient40" spreadMethod="pad" gradientTransform="matrix(0,-31.25,-31.25,0,35.889381,31.25)" gradientUnits="userSpaceOnUse" y2="0" x2="1" y1="0" x1="0">
      <stop id="stop36" offset="0" style="stop-opacity:1;stop-color:#e92020"></stop>
      <stop id="stop38" offset="1" style="stop-opacity:1;stop-color:#981313"></stop>
    </linearGradient>
    <clipPath id="clipPath50">
      <path id="path48" d="M 0,0 H 162 V 50 H 0 Z"></path>
    </clipPath>
    <linearGradient id="linearGradient68" spreadMethod="pad" gradientTransform="matrix(0,19.659643,19.659643,0,109.03153,28.125011)" gradientUnits="userSpaceOnUse" y2="0" x2="1" y1="0" x1="0">
      <stop id="stop64" offset="0" style="stop-opacity:1;stop-color:#e92020"></stop>
      <stop id="stop66" offset="1" style="stop-opacity:1;stop-color:#981313"></stop>
    </linearGradient>
    <clipPath id="clipPath78">
      <path id="path76" d="M 0,0 H 162 V 50 H 0 Z"></path>
    </clipPath>
    <clipPath id="clipPath92">
      <path id="path90" d="M 0,0 H 162 V 50 H 0 Z"></path>
    </clipPath>
    <linearGradient id="linearGradient114" spreadMethod="pad" gradientTransform="matrix(0,19.097143,19.097143,0,89.437505,28.687498)" gradientUnits="userSpaceOnUse" y2="0" x2="1" y1="0" x1="0">
      <stop id="stop110" offset="0" style="stop-opacity:1;stop-color:#e92020"></stop>
      <stop id="stop112" offset="1" style="stop-opacity:1;stop-color:#981313"></stop>
    </linearGradient>
  </defs>
  <g transform="matrix(1.3333333,0,0,-1.3333333,0,66.666667)" id="g10">
    <g id="g12">
      <g clip-path="url(#clipPath18)" id="g14">
        <g transform="translate(15.7258,26.2761)" id="g20">
          <path id="path22" style="fill:#333333;fill-opacity:1;fill-rule:nonzero;stroke:none" d="m 0,0 h -15.745 v -21.318 h 4.995 v 7.644 h 10.141 v 4.233 H -10.75 v 5.086 H 0 Z M 53.751,0 H 47.842 L 45.528,-3.594 43.427,-7.065 41.417,-3.594 39.163,0 h -5.877 l 6.821,-10.659 -7.217,-10.659 h 6.121 l 2.467,3.746 2.04,3.411 2.101,-3.441 2.467,-3.716 h 6.06 l -7.339,10.872 z M 68.276,-10.446 77.26,0 H 71.109 L 64.104,-8.344 V 0 H 59.14 v -21.318 h 4.964 v 8.466 l 7.492,-8.466 h 6.487 z m 19.277,-2.071 h 10.811 v 4.02 H 87.553 v 4.325 H 98.974 V 0 H 82.711 v -21.318 h 16.598 v 4.203 H 87.553 Z M 119.316,0 114.139,-8.283 109.084,0 h -5.847 l 8.374,-12.973 v -8.345 h 4.964 v 8.345 L 125.255,0 Z m 17.907,-21.805 c 1.766,0 3.329,0.279 4.69,0.838 1.36,0.558 2.416,1.35 3.167,2.375 0.751,1.025 1.127,2.208 1.127,3.548 0,1.928 -0.711,3.446 -2.132,4.553 -1.421,1.106 -3.574,1.822 -6.456,2.147 -1.503,0.182 -2.574,0.456 -3.213,0.822 -0.64,0.365 -0.959,0.883 -0.959,1.553 0,0.69 0.37,1.238 1.111,1.645 0.741,0.405 1.731,0.609 2.969,0.609 2.01,0 3.848,-0.579 5.513,-1.736 l 2.345,3.502 c -1.077,0.771 -2.32,1.37 -3.731,1.797 -1.411,0.426 -2.858,0.639 -4.34,0.639 -1.726,0 -3.248,-0.274 -4.568,-0.822 -1.32,-0.548 -2.345,-1.32 -3.076,-2.314 -0.731,-0.995 -1.096,-2.143 -1.096,-3.442 0,-1.929 0.675,-3.411 2.025,-4.446 1.35,-1.035 3.477,-1.716 6.38,-2.04 1.503,-0.163 2.599,-0.437 3.289,-0.823 0.69,-0.386 1.036,-0.924 1.036,-1.614 0,-0.731 -0.371,-1.309 -1.112,-1.736 -0.741,-0.426 -1.741,-0.639 -3,-0.639 -2.517,0 -4.72,0.741 -6.608,2.223 l -2.589,-3.624 c 1.178,-0.955 2.574,-1.695 4.188,-2.223 1.614,-0.528 3.294,-0.792 5.04,-0.792"></path>
        </g>
      </g>
    </g>
    <g id="g24">
      <g id="g26">
        <g id="g32">
          <g id="g34">
            <path id="path42" style="fill:url(#linearGradient40);stroke:none" d="m 34.465,31.781 c -0.686,-0.152 -1.379,-0.279 -2.058,-0.46 v 0 c -4.846,-1.292 -7.671,-4.654 -9.28,-9.199 v 0 c -0.48,-1.356 -0.775,-2.779 -1.146,-4.144 v 0 c -0.853,1.185 -1.032,4.093 -0.633,6.089 v 0 c 0.42,2.104 1.292,4.02 2.388,5.854 v 0 c -2.288,-2.14 -3.829,-4.715 -4.599,-7.75 v 0 c -0.772,-3.038 -0.475,-6.025 0.564,-9.183 v 0 c -2.31,1.842 -2.297,4.353 -2.887,6.736 v 0 C 16.543,19.009 16.271,18.292 16,17.577 v 0 -1.953 c 0.842,-4.169 3.115,-7.477 6.239,-10.246 v 0 c 3.138,-2.784 6.724,-4.67 10.936,-5.227 v 0 C 33.314,0.132 33.443,0.051 33.577,0 v 0 h 3.196 c 0.688,0.149 1.38,0.282 2.063,0.45 v 0 c 4.33,1.071 7.604,3.695 10.34,7.088 v 0 c 0.735,0.914 1.394,1.89 1.984,2.945 v 0 C 50.793,10.215 50.431,9.942 50.06,9.68 v 0 C 47.088,7.581 43.851,6.287 40.144,6.399 v 0 c -5.49,0.165 -10.47,4.199 -11.459,9.295 v 0 c -0.778,4.008 1.741,8.26 5.414,9.068 v 0 c 1.817,0.4 3.537,0.08 5.068,-1.006 v 0 c 1.949,-1.38 2.421,-3.547 1.241,-5.627 v 0 c -0.856,-1.51 -2.172,-2.556 -3.595,-3.487 v 0 c -0.244,-0.159 -0.494,-0.311 -0.774,-0.488 v 0 c 4.025,-0.332 7.422,3.107 7.339,7.375 v 0 c 1.355,-1.257 1.421,-3.486 0.226,-7.588 v 0 c 2.78,1.561 4.118,5.621 1.262,11.344 v 0 c 1.436,-0.211 2.395,-1.697 3.805,-5.9 v 0 c 0.558,1.106 0.582,2.845 0.055,4.401 v 0 c -0.742,2.193 -2.215,3.818 -4.063,5.127 v 0 c -2.063,1.463 -4.366,2.333 -6.868,2.689 v 0 c -0.226,0.032 -0.445,0.118 -0.667,0.179 v 0 z"></path>
          </g>
        </g>
      </g>
    </g>
    <g id="g44">
      <g clip-path="url(#clipPath50)" id="g46"></g>
    </g>
    <g id="g52">
      <g id="g54">
        <g id="g60">
          <g id="g62">
            <path id="path70" style="fill:url(#linearGradient68);stroke:none" d="m 120.113,44.586 v -7.318 c 0,-0.155 -0.06,-0.232 -0.181,-0.232 v 0 h -1.293 v 6.774 h -3.646 v -6.774 h -1.292 v 5.818 h -3.672 v -5.793 h -2.999 -4.318 -4.319 v -3.464 h 4.707 4.318 17.97 v 3.464 h -1.629 v 7.525 z"></path>
          </g>
        </g>
      </g>
    </g>
    <g id="g72">
      <g clip-path="url(#clipPath78)" id="g74">
        <g transform="translate(135.8853,33.6006)" id="g80">
          <path id="path82" style="fill:#333333;fill-opacity:1;fill-rule:nonzero;stroke:none" d="m 0,0 c -0.138,5.688 -1.827,9.076 -5.068,10.162 l 5.197,2.947 -0.853,3.568 -9.179,-5.3 V 8.093 c 3.62,-0.741 5.576,-2.284 5.869,-4.628 h -6.464 V 0 Z m 9.179,3.465 c -2.206,0 -3.31,0.905 -3.31,2.715 0,0.879 0.285,1.637 0.854,2.275 0.362,0.362 0.81,0.543 1.344,0.543 0.483,0 0.853,-0.086 1.112,-0.258 z m -1.629,-8.3 c 3.448,0.017 5.214,1.629 5.301,4.835 h 1.706 v 3.465 h -1.706 v 7.265 c -1.5,1.035 -3.06,1.552 -4.68,1.552 -1.379,0 -2.612,-0.422 -3.698,-1.267 C 2.904,9.774 2.12,8.11 2.12,6.025 2.137,3.956 2.999,2.31 4.706,1.086 5.671,0.362 7.205,0 9.308,0 9.274,-0.914 8.636,-1.37 7.395,-1.37 H 5.378 v -3.465 z m 14.893,8.3 c -2.223,0 -3.335,0.905 -3.335,2.715 0,0.879 0.293,1.637 0.879,2.275 0.362,0.362 0.81,0.543 1.344,0.543 0.483,0 0.854,-0.086 1.112,-0.258 z M 26.115,0 v 10.73 c -1.5,1.035 -3.06,1.552 -4.68,1.552 -1.379,0 -2.612,-0.422 -3.698,-1.267 C 16.169,9.774 15.384,8.11 15.384,6.025 15.402,4.783 15.565,3.93 15.876,3.465 H 14.169 V 0 Z m -8.714,12.256 c 0.552,0 1.03,0.203 1.435,0.608 0.405,0.405 0.608,0.883 0.608,1.435 0,0.586 -0.203,1.077 -0.608,1.473 -0.405,0.397 -0.883,0.595 -1.435,0.595 -0.569,0 -1.056,-0.198 -1.461,-0.595 -0.405,-0.396 -0.607,-0.887 -0.607,-1.473 0,-0.569 0.202,-1.052 0.607,-1.448 0.405,-0.397 0.892,-0.595 1.461,-0.595"></path>
        </g>
      </g>
    </g>
    <path id="path84" style="fill:#333333;fill-opacity:1;fill-rule:nonzero;stroke:none" d="m 125,33.597 h 3.569 v 3.462 H 125 Z"></path>
    <g id="g86">
      <g clip-path="url(#clipPath92)" id="g88">
        <g transform="translate(5.3654,28.8581)" id="g94">
          <path id="path96" style="fill:#333333;fill-opacity:1;fill-rule:nonzero;stroke:none" d="M 0,0 C 1.482,0.034 2.905,0.19 4.266,0.465 V 4.059 C 2.801,3.611 1.465,3.387 0.259,3.387 c -1.397,0 -2.095,0.44 -2.095,1.319 V 4.861 H 9.231 V 8.326 H 7.576 c -0.017,2.241 -0.646,4.111 -1.888,5.611 -1.379,1.568 -3.12,2.353 -5.223,2.353 -2.258,0 -4.171,-1 -5.74,-3 l 2.095,-2.611 c 1.172,1.413 2.396,2.12 3.671,2.12 1.052,0 1.888,-0.362 2.508,-1.086 C 3.62,10.989 3.93,10.058 3.93,8.921 V 8.3 H -5.378 V 5.042 C -5.344,1.681 -3.551,0 0,0 m 11.222,-0.026 c 0.551,0 1.03,0.203 1.435,0.608 0.405,0.405 0.607,0.883 0.607,1.435 0,0.586 -0.202,1.077 -0.607,1.474 -0.405,0.396 -0.884,0.594 -1.435,0.594 -0.569,0 -1.056,-0.198 -1.461,-0.594 C 9.356,3.094 9.153,2.603 9.153,2.017 c 0,-0.552 0.203,-1.03 0.608,-1.435 0.405,-0.405 0.892,-0.608 1.461,-0.608 m 4.395,0 c 0.552,0 1.03,0.203 1.435,0.608 0.405,0.405 0.608,0.883 0.608,1.435 0,0.586 -0.203,1.077 -0.608,1.474 -0.405,0.396 -0.883,0.594 -1.435,0.594 -0.569,0 -1.056,-0.198 -1.461,-0.594 -0.405,-0.397 -0.607,-0.888 -0.607,-1.474 0,-0.552 0.202,-1.03 0.607,-1.435 0.405,-0.405 0.892,-0.608 1.461,-0.608 m -0.207,8.352 -0.025,7.55 H 11.79 V 8.326 H 8.843 V 4.861 h 9.644 v 3.465 z m 7.343,-3.465 c 2.017,0 3.06,1.336 3.129,4.008 v 7.007 H 22.184 V 8.559 c 0,-0.156 -0.069,-0.233 -0.206,-0.233 H 18.099 V 4.861 Z M 20.4,16.6 c 0.552,0 1.026,0.202 1.422,0.608 0.397,0.405 0.595,0.883 0.595,1.435 0,0.586 -0.198,1.077 -0.595,1.473 -0.396,0.397 -0.87,0.595 -1.422,0.595 -0.569,0 -1.055,-0.198 -1.461,-0.595 -0.405,-0.396 -0.607,-0.887 -0.607,-1.473 0,-0.552 0.202,-1.03 0.607,-1.435 C 19.345,16.802 19.831,16.6 20.4,16.6 m 4.293,0 c 0.568,0 1.051,0.202 1.447,0.608 0.397,0.405 0.595,0.883 0.595,1.435 0,0.586 -0.198,1.077 -0.595,1.473 -0.396,0.397 -0.879,0.595 -1.447,0.595 -0.552,0 -1.03,-0.198 -1.436,-0.595 -0.405,-0.396 -0.607,-0.887 -0.607,-1.473 0,-0.552 0.202,-1.03 0.607,-1.435 0.406,-0.406 0.884,-0.608 1.436,-0.608 M 33.664,4.861 v 3.465 h -1.913 c -0.121,0 -0.181,0.077 -0.181,0.233 V 21.151 H 27.873 V 8.869 c 0.069,-2.672 1.111,-4.008 3.128,-4.008 z m 7.886,3.465 c -2.206,0 -3.309,0.905 -3.309,2.715 0,0.879 0.293,1.637 0.879,2.275 0.345,0.362 0.793,0.543 1.344,0.543 0.466,0 0.828,-0.086 1.086,-0.258 z m 5.378,-3.465 v 3.465 h -1.68 v 7.265 c -1.5,1.035 -3.06,1.552 -4.68,1.552 -1.396,0 -2.638,-0.422 -3.724,-1.267 -1.568,-1.241 -2.352,-2.905 -2.352,-4.99 0.017,-1.242 0.181,-2.095 0.491,-2.56 H 33.276 V 4.861 Z m -10.42,12.256 c 0.569,0 1.052,0.203 1.448,0.608 0.397,0.405 0.595,0.883 0.595,1.435 0,0.586 -0.198,1.077 -0.595,1.473 -0.396,0.397 -0.879,0.595 -1.448,0.595 -0.551,0 -1.03,-0.198 -1.435,-0.595 -0.405,-0.396 -0.607,-0.887 -0.607,-1.473 0,-0.569 0.202,-1.052 0.607,-1.448 0.405,-0.397 0.884,-0.595 1.435,-0.595 M 54.737,7.24 c -1.328,0 -1.991,1.017 -1.991,3.051 0,1.982 0.62,2.982 1.861,2.999 1.328,0 1.991,-1.103 1.991,-3.309 0,-1.828 -0.62,-2.741 -1.861,-2.741 m 0.336,-3.336 c 1.241,0.018 2.215,0.336 2.922,0.957 h 3.801 v 3.465 h -1.81 c 0.086,0.293 0.129,0.896 0.129,1.81 0,2.051 -0.496,3.65 -1.487,4.796 -0.991,1.146 -2.34,1.72 -4.046,1.72 -1.741,0 -3.069,-0.556 -3.982,-1.668 -0.914,-1.112 -1.371,-2.616 -1.371,-4.512 v -0.388 c 0,-1.172 -0.319,-1.758 -0.956,-1.758 H 46.54 V 4.861 h 1.939 c 1.207,0.017 1.94,0.276 2.198,0.776 0.81,-1.155 2.276,-1.733 4.396,-1.733 M 68.104,4.861 V 8.326 H 66.45 V 21.151 H 62.752 V 8.326 H 61.408 V 4.861 Z m 0.362,0 c 1.672,0 2.905,0.621 3.698,1.862 0.637,0.965 0.956,2.146 0.956,3.542 L 73.094,21.151 H 69.423 V 10.032 c 0,-1.137 -0.336,-1.706 -1.009,-1.706 H 67.716 V 4.861 Z"></path>
        </g>
      </g>
    </g>
    <g id="g98">
      <g id="g100">
        <g id="g106">
          <g id="g108">
            <path id="path116" style="fill:url(#linearGradient114);stroke:none" d="m 89.435,47.664 c -1.486,-0.253 -2.824,-0.857 -4.028,-1.761 v 0 C 85.298,45.821 85.17,45.765 85.051,45.697 v 0 l -1.122,-1.123 c -0.225,-0.353 -0.464,-0.698 -0.674,-1.06 v 0 C 81.757,40.926 81.984,38.318 83.22,35.725 v 0 c 0.37,-0.773 0.845,-1.497 1.264,-2.23 v 0 c -0.859,0.141 -2.159,1.291 -2.833,2.301 v 0 c -0.71,1.063 -1.15,2.238 -1.46,3.473 v 0 c -0.063,-1.866 0.373,-3.601 1.327,-5.205 v 0 c 0.956,-1.606 2.339,-2.739 4.109,-3.632 v 0 c -1.751,-0.197 -2.804,0.866 -4.056,1.622 v 0 c 0.187,-0.416 0.374,-0.832 0.561,-1.248 v 0 c 0.275,-0.274 0.549,-0.549 0.824,-0.823 v 0 c 2.112,-1.403 4.464,-1.838 6.948,-1.69 v 0 c 2.496,0.151 4.801,0.867 6.812,2.407 v 0 c 0.066,0.05 0.155,0.071 0.233,0.106 v 0 c 0.449,0.449 0.898,0.897 1.346,1.346 v 0 c 0.228,0.353 0.464,0.701 0.681,1.06 v 0 c 1.373,2.277 1.647,4.763 1.37,7.346 v 0 c -0.075,0.694 -0.208,1.383 -0.405,2.077 v 0 c -0.042,-0.267 -0.079,-0.536 -0.125,-0.802 v 0 C 99.448,39.695 98.628,37.786 97.019,36.27 v 0 c -2.382,-2.244 -6.182,-2.642 -8.746,-0.912 v 0 c -2.017,1.362 -2.748,4.215 -1.54,6.104 v 0 c 0.597,0.934 1.457,1.525 2.56,1.713 v 0 c 1.403,0.239 2.515,-0.475 2.894,-1.849 v 0 c 0.275,-0.997 0.162,-1.993 -0.046,-2.985 v 0 c -0.035,-0.17 -0.076,-0.339 -0.12,-0.532 v 0 c 1.836,1.556 1.819,4.438 -0.015,6.201 v 0 c 1.101,0.041 2.068,-0.869 3.293,-3.102 v 0 c 0.514,1.829 -0.633,4.105 -4.249,5.312 v 0 c 0.694,0.517 1.725,0.295 4.09,-0.883 v 0 c -0.23,0.702 -0.953,1.445 -1.832,1.879 v 0 c -0.817,0.404 -1.664,0.568 -2.529,0.568 v 0 c -0.444,0 -0.893,-0.043 -1.344,-0.12"></path>
          </g>
        </g>
      </g>
    </g>
  </g>
</svg>
