<?xml version="1.0" encoding="UTF-8" standalone="no"?>
<svg
   xmlns:dc="http://purl.org/dc/elements/1.1/"
   xmlns:cc="http://creativecommons.org/ns#"
   xmlns:rdf="http://www.w3.org/1999/02/22-rdf-syntax-ns#"
   xmlns:svg="http://www.w3.org/2000/svg"
   xmlns="http://www.w3.org/2000/svg"
   viewBox="0 0 325.33334 106.66667"
   height="106.66667"
   width="325.33334"
   xml:space="preserve"
   id="svg2"
   version="1.1"><metadata
     id="metadata8"><rdf:RDF><cc:Work
         rdf:about=""><dc:format>image/svg+xml</dc:format><dc:type
           rdf:resource="http://purl.org/dc/dcmitype/StillImage" /></cc:Work></rdf:RDF></metadata><defs
     id="defs6"><clipPath
       id="clipPath18"
       clipPathUnits="userSpaceOnUse"><path
         id="path16"
         d="M 0,0 H 244 V 80 H 0 Z" /></clipPath></defs><g
     transform="matrix(1.3333333,0,0,-1.3333333,0,106.66667)"
     id="g10"><g
       id="g12"><g
         clip-path="url(#clipPath18)"
         id="g14"><g
           transform="translate(191.1689,80)"
           id="g20"><path
             id="path22"
             style="fill:#193662;fill-opacity:1;fill-rule:nonzero;stroke:none"
             d="m 0,0 c 0,0 2.874,-17.61 17.316,-17.61 h 27.557 c 6.055,0 7.958,-5.748 7.958,-5.748 0,0 -2.579,16.874 -16.026,16.874 H 12.158 C 4.126,-6.484 0,0 0,0" /></g><g
           transform="translate(190.3953,1.4534)"
           id="g24"><path
             id="path26"
             style="fill:#193662;fill-opacity:1;fill-rule:nonzero;stroke:none"
             d="m 0,0 c 0,0 2.874,17.61 17.316,17.61 h 27.557 c 6.055,0 7.958,5.748 7.958,5.748 0,0 -2.579,-16.874 -16.026,-16.874 H 12.158 C 4.126,6.484 0,0 0,0" /></g><g
           transform="translate(191.1689,29.0479)"
           id="g28"><path
             id="path30"
             style="fill:#193662;fill-opacity:1;fill-rule:nonzero;stroke:none"
             d="m 0,0 c 0,0 2.874,17.61 17.316,17.61 h 27.557 c 6.055,0 7.958,5.748 7.958,5.748 0,0 -2.579,-16.874 -16.026,-16.874 H 12.158 C 4.126,6.484 0,0 0,0" /></g><g
           transform="translate(16.6928,58.2221)"
           id="g32"><path
             id="path34"
             style="fill:#1d3362;fill-opacity:1;fill-rule:nonzero;stroke:none"
             d="m 0,0 c 0,1.513 -0.554,2.72 -1.662,3.621 -1.108,0.9 -2.588,1.35 -4.441,1.35 -0.625,0 -1.456,-0.044 -2.493,-0.133 -1.752,-0.155 -3.635,-0.232 -5.65,-0.232 -1.097,0 -1.765,-0.028 -2.001,-0.084 -0.237,-0.055 -0.355,-0.199 -0.355,-0.432 0,-0.177 0.058,-0.304 0.174,-0.382 0.115,-0.077 0.375,-0.127 0.778,-0.149 0.453,-0.034 0.793,-0.133 1.019,-0.299 0.227,-0.166 0.403,-0.459 0.529,-0.88 0.126,-0.421 0.214,-1.353 0.264,-2.798 0.051,-1.445 0.076,-3.373 0.076,-5.786 l -0.121,-7.754 c 0,-0.797 -0.088,-1.373 -0.264,-1.727 -0.177,-0.354 -0.408,-0.606 -0.695,-0.755 -0.287,-0.15 -0.748,-0.269 -1.383,-0.358 -0.312,-0.044 -0.468,-0.188 -0.468,-0.432 0,-0.321 0.197,-0.481 0.589,-0.481 0.192,0 0.524,0.022 0.997,0.066 1.158,0.1 2.08,0.15 2.765,0.15 0.513,0 1.224,-0.026 2.13,-0.076 1.097,-0.06 1.903,-0.091 2.417,-0.091 2.105,0 3.709,0.175 4.811,0.524 1.103,0.349 2.035,1.032 2.795,2.051 0.76,1.019 1.141,2.165 1.141,3.439 0,1.529 -0.519,2.794 -1.556,3.796 -1.038,1.003 -2.599,1.747 -4.683,2.235 C -1.763,-4.479 0,-2.607 0,0 m -9.563,-0.099 c 0,1.214 0.041,2.378 0.121,3.493 0.836,0.309 1.546,0.464 2.13,0.464 0.816,0 1.531,-0.356 2.146,-1.068 0.614,-0.712 0.921,-1.791 0.921,-3.237 0,-3.279 -1.732,-4.918 -5.197,-4.918 -0.08,2.484 -0.121,4.239 -0.121,5.266 m 1.481,-6.479 c 1.521,0 2.654,-0.478 3.399,-1.435 0.745,-0.957 1.118,-2.181 1.118,-3.674 0,-1.494 -0.36,-2.666 -1.08,-3.518 -0.72,-0.851 -1.806,-1.277 -3.256,-1.277 -0.806,0 -1.284,0.15 -1.435,0.448 -0.151,0.299 -0.227,1.476 -0.227,3.534 0,1.559 0.041,3.505 0.121,5.839 0.574,0.055 1.028,0.083 1.36,0.083 M 7.893,4.319 4.252,4.439 C 3.88,4.439 3.693,4.273 3.693,3.941 3.693,3.675 3.854,3.52 4.177,3.476 4.952,3.354 5.481,3.174 5.763,2.936 6.045,2.698 6.218,2.244 6.284,1.574 6.349,0.905 6.382,-0.891 6.382,-3.813 l -0.09,-8.551 c 0,-1.794 -0.169,-2.981 -0.506,-3.562 -0.338,-0.581 -0.995,-0.872 -1.972,-0.872 -0.383,0 -0.574,-0.155 -0.574,-0.465 0,-0.343 0.237,-0.515 0.71,-0.515 0.101,0 0.257,0.011 0.468,0.033 1.702,0.111 2.976,0.166 3.822,0.166 0.756,0 1.8,-0.033 3.135,-0.099 1.334,-0.067 2.772,-0.105 4.313,-0.117 l 5.469,-0.016 0.981,4.769 c 0.061,0.277 0.091,0.504 0.091,0.681 0,0.266 -0.145,0.399 -0.436,0.399 -0.201,0 -0.386,-0.188 -0.556,-0.565 -1.209,-2.681 -3.733,-4.021 -7.572,-4.021 -1.058,0 -1.809,0.146 -2.252,0.44 -0.443,0.294 -0.7,0.679 -0.771,1.155 -0.07,0.476 -0.105,1.977 -0.105,4.503 0,0.587 0.025,1.812 0.075,3.673 1.546,-0.023 2.678,-0.302 3.395,-0.839 0.717,-0.538 1.177,-1.322 1.379,-2.352 0.121,-0.587 0.292,-0.881 0.513,-0.881 0.323,0 0.484,0.156 0.484,0.466 0,0.077 -0.011,0.171 -0.034,0.282 -0.078,0.388 -0.117,0.82 -0.117,1.296 0,3.424 0.06,5.478 0.181,6.165 0.02,0.1 0.03,0.189 0.03,0.266 0,0.266 -0.141,0.399 -0.423,0.399 -0.221,0 -0.377,-0.177 -0.468,-0.532 C 15.501,-2.706 15.295,-3.158 14.933,-3.861 14.57,-4.565 14.129,-5.024 13.611,-5.24 13.092,-5.456 12.475,-5.564 11.76,-5.564 l -1.148,0.016 c -0.02,0.94 -0.03,1.609 -0.03,2.007 0,2.333 0.091,4.478 0.272,6.436 0.846,0.165 1.723,0.248 2.63,0.248 1.622,0 2.864,-0.265 3.725,-0.795 0.862,-0.529 1.812,-1.622 2.849,-3.278 0.201,-0.309 0.381,-0.463 0.542,-0.463 0.29,0 0.436,0.16 0.436,0.482 -0.313,1.728 -0.63,3.456 -0.952,5.184 z m 34.314,-15.051 c 0,0.321 -0.135,0.482 -0.405,0.482 -0.181,0 -0.356,-0.178 -0.527,-0.532 -0.836,-1.751 -1.619,-2.997 -2.35,-3.739 -0.73,-0.742 -1.499,-1.255 -2.305,-1.537 -0.806,-0.283 -2.035,-0.424 -3.687,-0.424 -0.676,0 -1.134,0.147 -1.376,0.441 -0.242,0.294 -0.368,1.218 -0.378,2.772 v 10.103 c 0,2.397 0.048,3.939 0.144,4.627 0.096,0.688 0.282,1.171 0.559,1.448 0.277,0.278 0.753,0.466 1.428,0.566 0.543,0.089 0.883,0.169 1.019,0.242 0.136,0.071 0.204,0.196 0.204,0.373 0,0.322 -0.211,0.482 -0.634,0.482 -0.182,0 -0.524,-0.012 -1.028,-0.037 C 31.482,4.449 30.399,4.406 29.624,4.406 l -5.016,0.166 c -0.493,0 -0.74,-0.166 -0.74,-0.498 0,-0.333 0.216,-0.51 0.649,-0.532 0.615,-0.033 1.09,-0.191 1.428,-0.474 0.337,-0.283 0.597,-0.733 0.778,-1.349 0.181,-0.616 0.272,-1.606 0.272,-2.97 0,-3.418 -0.01,-6.367 -0.03,-8.847 -0.021,-2.48 -0.098,-4.023 -0.234,-4.627 -0.136,-0.605 -0.371,-1.06 -0.703,-1.365 -0.332,-0.305 -0.811,-0.508 -1.435,-0.608 -0.393,-0.066 -0.64,-0.13 -0.74,-0.191 -0.101,-0.061 -0.151,-0.169 -0.151,-0.324 0,-0.332 0.191,-0.498 0.574,-0.498 0.131,0 0.337,0.011 0.619,0.033 1.158,0.122 2.664,0.183 4.517,0.183 5.318,0 9.235,-0.072 11.753,-0.216 0.695,3.932 1.042,6.259 1.042,6.979 m 19.646,0 c 0,0.321 -0.135,0.482 -0.406,0.482 -0.18,0 -0.355,-0.178 -0.526,-0.532 -0.836,-1.751 -1.619,-2.997 -2.35,-3.739 -0.731,-0.742 -1.499,-1.255 -2.305,-1.537 -0.806,-0.283 -2.035,-0.424 -3.688,-0.424 -0.675,0 -1.133,0.147 -1.375,0.441 -0.242,0.294 -0.368,1.218 -0.378,2.772 v 10.103 c 0,2.397 0.048,3.939 0.144,4.627 0.095,0.688 0.282,1.171 0.559,1.448 0.277,0.278 0.753,0.466 1.427,0.566 0.544,0.089 0.884,0.169 1.02,0.242 0.136,0.071 0.204,0.196 0.204,0.373 0,0.322 -0.211,0.482 -0.634,0.482 -0.182,0 -0.524,-0.012 -1.028,-0.037 C 51.128,4.449 50.045,4.406 49.269,4.406 l -5.015,0.166 c -0.494,0 -0.74,-0.166 -0.74,-0.498 0,-0.333 0.216,-0.51 0.649,-0.532 0.615,-0.033 1.09,-0.191 1.428,-0.474 0.337,-0.283 0.597,-0.733 0.778,-1.349 0.181,-0.616 0.272,-1.606 0.272,-2.97 0,-3.418 -0.01,-6.367 -0.03,-8.847 -0.021,-2.48 -0.099,-4.023 -0.235,-4.627 -0.136,-0.605 -0.37,-1.06 -0.702,-1.365 -0.332,-0.305 -0.811,-0.508 -1.435,-0.608 -0.393,-0.066 -0.64,-0.13 -0.74,-0.191 -0.101,-0.061 -0.151,-0.169 -0.151,-0.324 0,-0.332 0.191,-0.498 0.574,-0.498 0.13,0 0.337,0.011 0.619,0.033 1.158,0.122 2.664,0.183 4.517,0.183 5.317,0 9.235,-0.072 11.753,-0.216 0.695,3.932 1.042,6.259 1.042,6.979 m 5.131,0.05 c -0.556,-1.729 -1.032,-2.984 -1.43,-3.767 -0.398,-0.783 -0.768,-1.312 -1.11,-1.587 -0.343,-0.276 -0.816,-0.508 -1.42,-0.695 -0.242,-0.078 -0.363,-0.238 -0.363,-0.482 0,-0.332 0.186,-0.498 0.559,-0.498 0.121,0 0.272,0.016 0.453,0.049 0.715,0.111 1.471,0.167 2.266,0.167 0.403,0 1.048,-0.039 1.934,-0.117 0.685,-0.055 1.108,-0.083 1.269,-0.083 0.413,0 0.619,0.15 0.619,0.449 0,0.299 -0.191,0.471 -0.574,0.515 -0.504,0.055 -0.972,0.251 -1.405,0.587 -0.433,0.336 -0.649,0.807 -0.649,1.414 0,0.848 0.434,2.58 1.302,5.194 1.131,0.011 2.711,0.017 4.741,0.017 0.363,0 0.873,-0.006 1.53,-0.017 0.411,-0.971 0.798,-2.051 1.16,-3.238 0.361,-1.187 0.542,-2.003 0.542,-2.45 0,-0.949 -0.619,-1.484 -1.858,-1.607 -0.322,-0.033 -0.483,-0.172 -0.483,-0.415 0,-0.321 0.231,-0.482 0.695,-0.482 0.261,0 0.81,0.033 1.646,0.1 1.118,0.088 2.024,0.133 2.719,0.133 0.715,0 1.596,-0.05 2.644,-0.15 0.886,-0.077 1.435,-0.116 1.647,-0.116 0.392,0 0.589,0.172 0.589,0.515 0,0.243 -0.151,0.387 -0.453,0.432 -0.917,0.145 -1.587,0.55 -2.01,1.214 -0.423,0.664 -1.193,2.558 -2.31,5.682 -2.426,6.802 -4.302,11.787 -5.63,14.956 h -1.032 c -2.473,-6.603 -4.336,-11.843 -5.588,-15.72 m 5.943,6.151 c 0.583,-1.515 1.015,-2.706 1.297,-3.575 l -5.341,-0.084 2.623,7.428 c 0.312,-0.874 0.786,-2.13 1.421,-3.769 m 14.185,9.037 c -0.605,0 -1.023,0.011 -1.255,0.033 -0.191,0.022 -0.337,0.033 -0.438,0.033 -0.413,0 -0.619,-0.182 -0.619,-0.548 0,-0.266 0.196,-0.438 0.589,-0.515 0.946,-0.2 1.754,-0.814 2.424,-1.845 0.67,-1.03 1.033,-2.182 1.088,-3.456 0.055,-1.274 0.083,-4.769 0.083,-10.486 0,-1.318 -0.143,-2.359 -0.43,-3.124 -0.287,-0.764 -1,-1.196 -2.138,-1.296 -0.634,-0.055 -0.952,-0.216 -0.952,-0.482 0,-0.365 0.197,-0.548 0.589,-0.548 0.182,0 0.484,0.028 0.907,0.083 0.674,0.1 1.762,0.15 3.263,0.15 0.936,0 1.707,-0.045 2.311,-0.133 0.353,-0.045 0.645,-0.067 0.876,-0.067 0.363,0 0.544,0.166 0.544,0.499 0,0.288 -0.171,0.432 -0.513,0.432 -0.534,0 -1.131,0.207 -1.791,0.623 -0.659,0.415 -1.052,1.085 -1.178,2.011 -0.126,0.924 -0.189,2.201 -0.189,3.83 0,5.273 0.01,8.059 0.031,8.358 1.006,-1.34 2.756,-3.553 5.249,-6.638 2.493,-3.086 4.371,-5.362 5.635,-6.83 1.264,-1.468 1.956,-2.235 2.077,-2.301 0.121,-0.067 0.227,-0.1 0.317,-0.1 0.342,0 0.514,0.304 0.514,0.913 l 0.106,7.074 -0.076,9.398 c 0,1.527 0.274,2.551 0.823,3.072 0.549,0.52 1.141,0.813 1.775,0.879 0.514,0.056 0.771,0.239 0.771,0.549 0,0.321 -0.192,0.482 -0.574,0.482 -0.212,0 -0.469,-0.016 -0.771,-0.046 -0.725,-0.08 -1.782,-0.12 -3.172,-0.12 -1.108,0 -1.949,0.035 -2.523,0.105 -0.302,0.04 -0.549,0.061 -0.74,0.061 -0.343,0 -0.514,-0.161 -0.514,-0.482 0,-0.299 0.187,-0.471 0.559,-0.515 0.695,-0.067 1.304,-0.293 1.828,-0.681 0.524,-0.387 0.866,-0.915 1.027,-1.585 0.161,-0.669 0.242,-1.779 0.242,-3.328 l -0.015,-6.572 c 0,-0.221 -0.005,-0.708 -0.015,-1.46 -3.223,3.644 -7.245,8.485 -12.069,14.523 -1.128,0.033 -2.347,0.05 -3.656,0.05 m 21.979,-3.282 c -0.126,-1.357 -0.189,-2.086 -0.189,-2.185 0,-0.333 0.171,-0.499 0.514,-0.499 0.221,0 0.417,0.211 0.589,0.632 0.433,1.063 0.992,1.93 1.677,2.6 0.684,0.67 1.397,1.08 2.137,1.23 0.74,0.15 1.941,0.224 3.603,0.224 0.262,-2.958 0.393,-6.791 0.393,-11.499 0,-2.98 -0.053,-4.916 -0.159,-5.808 -0.106,-0.891 -0.385,-1.542 -0.838,-1.952 -0.453,-0.41 -1.128,-0.615 -2.025,-0.615 -0.382,0 -0.574,-0.161 -0.574,-0.482 0,-0.222 0.116,-0.36 0.348,-0.415 0.474,-0.022 0.787,-0.034 0.938,-0.034 l 1.906,0.084 c 0.524,0.022 2.007,0.033 4.447,0.033 l 3.131,-0.083 0.424,-0.017 c 0.342,0 0.514,0.155 0.514,0.465 0,0.277 -0.196,0.432 -0.589,0.466 -1.158,0.088 -1.894,0.249 -2.206,0.482 -0.312,0.232 -0.534,0.598 -0.664,1.096 -0.131,0.499 -0.242,1.958 -0.333,4.379 -0.09,2.42 -0.136,4.932 -0.136,7.536 0,2.548 0.081,4.669 0.242,6.364 1.824,0 3.131,-0.105 3.923,-0.315 0.791,-0.211 1.486,-0.638 2.085,-1.28 0.6,-0.643 1.091,-1.412 1.474,-2.31 0.232,-0.531 0.473,-0.797 0.724,-0.797 0.33,0 0.495,0.216 0.495,0.648 l -0.226,2.625 c -0.111,1.418 -0.202,2.354 -0.272,2.809 -0.474,0.01 -0.812,0.016 -1.013,0.016 -0.524,0 -1.194,-0.022 -2.011,-0.066 -2.287,-0.122 -4.384,-0.183 -6.288,-0.183 -2.51,0 -6.38,0.077 -11.61,0.233 -0.162,-0.898 -0.305,-2.025 -0.431,-3.382 m 27.947,3.095 -3.641,0.12 c -0.373,0 -0.559,-0.166 -0.559,-0.498 0,-0.266 0.161,-0.421 0.483,-0.465 0.776,-0.122 1.305,-0.302 1.587,-0.54 0.282,-0.238 0.455,-0.692 0.521,-1.362 0.065,-0.669 0.098,-2.465 0.098,-5.387 l -0.091,-8.551 c 0,-1.794 -0.168,-2.981 -0.506,-3.562 -0.337,-0.581 -0.994,-0.872 -1.971,-0.872 -0.383,0 -0.574,-0.155 -0.574,-0.465 0,-0.343 0.236,-0.515 0.71,-0.515 0.1,0 0.257,0.011 0.468,0.033 1.702,0.111 2.976,0.166 3.822,0.166 0.755,0 1.8,-0.033 3.135,-0.099 1.334,-0.067 2.772,-0.105 4.313,-0.117 l 5.468,-0.016 0.982,4.769 c 0.061,0.277 0.091,0.504 0.091,0.681 0,0.266 -0.145,0.399 -0.436,0.399 -0.201,0 -0.386,-0.188 -0.556,-0.565 -1.209,-2.681 -3.733,-4.021 -7.572,-4.021 -1.058,0 -1.809,0.146 -2.252,0.44 -0.443,0.294 -0.701,0.679 -0.771,1.155 -0.07,0.476 -0.106,1.977 -0.106,4.503 0,0.587 0.026,1.812 0.076,3.673 1.546,-0.023 2.677,-0.302 3.395,-0.839 0.717,-0.538 1.177,-1.322 1.379,-2.352 0.12,-0.587 0.292,-0.881 0.513,-0.881 0.322,0 0.484,0.156 0.484,0.466 0,0.077 -0.012,0.171 -0.034,0.282 -0.078,0.388 -0.117,0.82 -0.117,1.296 0,3.424 0.06,5.478 0.181,6.165 0.02,0.1 0.03,0.189 0.03,0.266 0,0.266 -0.141,0.399 -0.423,0.399 -0.222,0 -0.378,-0.177 -0.468,-0.532 -0.051,-0.199 -0.257,-0.651 -0.62,-1.354 -0.362,-0.704 -0.803,-1.163 -1.321,-1.379 -0.519,-0.216 -1.136,-0.324 -1.851,-0.324 l -1.148,0.016 c -0.02,0.94 -0.03,1.609 -0.03,2.007 0,2.333 0.09,4.478 0.272,6.436 0.846,0.165 1.723,0.248 2.63,0.248 1.622,0 2.864,-0.265 3.725,-0.795 0.862,-0.529 1.811,-1.622 2.849,-3.278 0.201,-0.309 0.381,-0.463 0.542,-0.463 0.29,0 0.435,0.16 0.435,0.482 -0.312,1.728 -0.629,3.456 -0.951,5.184 z" /></g><g
           transform="translate(12.7217,19.8792)"
           id="g36"><path
             id="path38"
             style="fill:#1a3562;fill-opacity:1;fill-rule:nonzero;stroke:none"
             d="m 0,0 -1.21,-4.115 c 0.318,0 0.709,0.005 1.173,0.016 0.465,0.01 0.929,-0.006 1.394,-0.048 C 1.821,-4.19 2.255,-4.272 2.659,-4.395 3.062,-4.517 3.367,-4.711 3.575,-4.977 3.392,-5.572 3.019,-6.104 2.457,-6.572 1.894,-7.04 1.247,-7.417 0.513,-7.704 -0.22,-7.991 -0.993,-8.18 -1.806,-8.271 c -0.813,-0.09 -1.568,-0.055 -2.264,0.104 -0.954,0.245 -1.736,0.598 -2.347,1.061 -0.611,0.462 -1.091,0.997 -1.439,1.603 -0.349,0.606 -0.584,1.263 -0.706,1.97 -0.123,0.707 -0.168,1.43 -0.138,2.169 0.031,0.739 0.119,1.473 0.266,2.201 0.147,0.729 0.312,1.423 0.495,2.082 C -8.098,2.823 -8.275,2.746 -8.471,2.688 -8.666,2.629 -8.862,2.568 -9.057,2.504 -9.253,2.441 -9.442,2.371 -9.626,2.297 -9.809,2.222 -9.962,2.122 -10.084,1.994 -10.28,1.813 -10.469,1.568 -10.652,1.26 c -0.184,-0.308 -0.355,-0.651 -0.514,-1.029 -0.159,-0.377 -0.305,-0.771 -0.44,-1.18 -0.134,-0.41 -0.247,-0.808 -0.339,-1.196 -0.092,-0.389 -0.162,-0.753 -0.211,-1.093 -0.049,-0.341 -0.067,-0.622 -0.055,-0.845 0.086,-1.457 0.434,-2.717 1.045,-3.781 0.611,-1.063 1.387,-1.94 2.329,-2.632 0.941,-0.691 1.995,-1.196 3.162,-1.515 1.168,-0.319 2.356,-0.463 3.567,-0.431 1.21,0.032 2.389,0.237 3.538,0.614 1.149,0.378 2.166,0.917 3.053,1.619 0.886,0.702 1.598,1.564 2.136,2.584 0.537,1.021 0.8,2.191 0.788,3.51 h 3.172 V 0 Z m -2.292,-16.669 -2.768,2.425 -3.356,-2.919 3.356,-2.919 2.768,2.408 2.805,-2.408 3.356,2.919 -3.356,2.919 z M 9.277,-4.115 h 9.241 V 0 H 9.277 Z m 8.177,0 h 9.241 V 0 h -9.241 z m 8.178,0 h 9.241 V 0 h -9.241 z m 8.177,0 H 43.05 V 0 h -9.241 z m 8.177,0 h 9.241 V 0 h -9.241 z m 7.994,0 H 62.723 V 0 h -3.741 c 0.025,1.265 -0.07,2.528 -0.284,3.788 -0.214,1.261 -0.632,2.465 -1.256,3.613 L 53.61,5.12 C 53.916,4.652 54.16,4.176 54.344,3.693 54.527,3.209 54.655,2.738 54.729,2.281 54.802,1.824 54.83,1.398 54.811,1.005 54.793,0.611 54.741,0.276 54.655,0 H 49.98 Z m 5.684,17.307 -2.769,2.44 -3.355,-2.935 3.355,-2.919 2.769,2.425 2.787,-2.425 3.355,2.919 -3.355,2.935 z M 61.219,-4.115 H 72.33 c 0.159,0.893 0.284,1.829 0.376,2.807 0.091,0.978 0.11,1.964 0.055,2.959 -0.055,0.994 -0.199,1.98 -0.431,2.959 -0.232,0.978 -0.593,1.909 -1.082,2.791 L 67.398,5.12 C 67.703,4.652 67.948,4.176 68.131,3.693 68.315,3.209 68.443,2.738 68.516,2.281 68.59,1.824 68.617,1.398 68.599,1.005 68.58,0.611 68.528,0.276 68.443,0 h -7.224 z m 2.897,16.046 3.374,-2.935 3.355,2.935 -3.355,2.919 z M 88.373,4.147 c -0.343,0.691 -0.764,1.398 -1.266,2.122 -0.501,0.723 -1.057,1.435 -1.668,2.137 -0.611,0.702 -1.262,1.38 -1.953,2.034 -0.69,0.654 -1.396,1.257 -2.117,1.81 -0.722,0.553 -1.446,1.042 -2.173,1.468 -0.727,0.425 -1.427,0.766 -2.099,1.021 l -2.53,-4.514 5.06,-3.781 c 0.147,0.277 0.278,0.511 0.394,0.702 0.116,0.191 0.211,0.356 0.284,0.495 0.599,-0.309 1.167,-0.67 1.705,-1.085 0.538,-0.415 1.046,-0.861 1.522,-1.34 0.477,-0.479 0.92,-0.978 1.33,-1.499 C 85.271,3.195 85.653,2.664 86.007,2.122 86.129,1.866 86.062,1.592 85.806,1.3 85.549,1.007 85.173,0.71 84.678,0.407 84.183,0.104 83.602,-0.199 82.936,-0.502 82.27,-0.806 81.586,-1.095 80.883,-1.372 80.18,-1.648 79.492,-1.904 78.82,-2.137 c -0.672,-0.234 -1.262,-0.437 -1.769,-0.607 -0.507,-0.17 -0.896,-0.3 -1.164,-0.39 -0.269,-0.091 -0.355,-0.131 -0.257,-0.12 0,-0.021 0.021,-0.075 0.064,-0.16 0.043,-0.085 0.101,-0.191 0.174,-0.319 0.074,-0.127 0.159,-0.271 0.257,-0.43 0.098,-0.16 0.195,-0.319 0.293,-0.479 0.232,-0.383 0.495,-0.808 0.789,-1.276 0.953,0.181 1.995,0.393 3.126,0.638 1.13,0.245 2.237,0.558 3.318,0.941 1.082,0.383 2.069,0.864 2.961,1.444 0.893,0.579 1.577,1.294 2.054,2.145 l 0.642,-3.365 H 96.11 V 0 H 92.406 L 92.7,15.313 88.134,13.686 Z m 6.343,-8.262 h 9.241 V 0 h -9.241 z m 8.178,0 h 9.241 V 0 h -9.241 z m 8.177,0 h 9.241 V 0 h -9.241 z m 8.177,0 h 9.241 V 0 h -9.241 z m 8.177,0 h 9.241 V 0 h -9.241 z m 8.177,0 h 9.241 V 0 h -9.241 z m 7.884,0 h 11.111 c 0.159,0.893 0.284,1.829 0.376,2.807 0.092,0.978 0.11,1.964 0.055,2.959 -0.055,0.994 -0.199,1.98 -0.431,2.959 -0.232,0.978 -0.593,1.909 -1.082,2.791 l -3.85,-2.281 c 0.305,-0.468 0.55,-0.944 0.733,-1.427 0.184,-0.484 0.312,-0.955 0.385,-1.412 0.074,-0.457 0.101,-0.883 0.083,-1.276 C 150.848,0.611 150.795,0.276 150.71,0 h -7.224 z m 2.989,-5.519 3.373,-2.935 3.356,2.935 -3.356,2.919 z" /></g></g></g></g></svg>