<svg id="Cafe_L" height="100" viewBox="0 0 100 100" width="100" xmlns="http://www.w3.org/2000/svg" data-name="Cafe L"><path d="m18.97 29.13c0 .83.67 1.5 1.5 1.5h1.85l1.05 12.51c-.39.02-.76.18-1.03.47-.28.3-.43.71-.4 1.13l2.08 30.07c.05.79.71 1.4 1.5 1.4h.63l1.72 20.45c.06.78.71 1.37 1.49 1.37h41.28c.78 0 1.43-.6 1.49-1.37l1.72-20.45h.63c.79 0 1.44-.61 1.5-1.4l2.08-30.07c.03-.42-.12-.82-.4-1.13-.27-.29-.64-.45-1.03-.47l1.05-12.51h1.85c.83 0 1.5-.67 1.5-1.5v-9.44c0-.83-.67-1.5-1.5-1.5h-3.33l-1.85-4.84c-.2-.53-.68-.89-1.24-.96l-45.89-4.99c-.75-.08-1.44.4-1.62 1.13l-2.42 9.67h-2.71c-.83 0-1.5.67-1.5 1.5v9.44zm50.29 65.9h-38.52l-1.58-18.83h41.68zm3.82-21.83h-46.16l-1.87-27.07h49.91l-1.87 27.07zm-47.74-42.57h49.33l-1.05 12.5h-47.24l-1.05-12.5zm2.86-20.11 43.68 4.76 1.11 2.91h-46.72l1.92-7.67zm-6.22 10.67h56.06v6.44h-56.07v-6.44z"/><path d="m47.18 70.6c-1.66 0-3.18-.49-4.44-1.45-.65-.5-1.21-1.13-1.67-1.87-2.15-3.5-1.39-8.72 1.88-13 4-5.23 10.42-7.06 14.3-4.09 3.89 2.97 3.79 9.65-.21 14.88-1.88 2.46-4.35 4.26-6.95 5.07-1 .31-1.98.47-2.92.47zm-2.57-3.79c1.16.86 2.79 1.03 4.59.46 2.01-.63 3.95-2.06 5.46-4.03 2.45-3.2 3.1-7.11 1.81-9.45-1.32.57-3.81 2.11-5.75 6.12-1.6 3.3-4.37 5.66-6.1 6.9zm8.2-15.06c-2.44 0-5.39 1.61-7.48 4.35-2 2.61-2.84 5.78-2.29 8.14 1.46-1.07 3.71-3.02 4.98-5.65 1.76-3.63 3.97-5.65 5.74-6.76-.3-.06-.62-.09-.94-.09z"/></svg>