<svg id="Layer_1" height="512" viewBox="0 0 512 512" width="512" xmlns="http://www.w3.org/2000/svg"><path d="m508.9630737 185.6826172c-.0041504-.0046387-.0081177-.0095215-.0122681-.0142822-.2530518-.2823486-1.6448059-1.4550476-1.9507141-1.6928711-46.7720032-36.3609314-92.3495789-64.666481-138.0189514-85.65979.6586914-3.5078126 1.0188599-7.119629 1.0188599-10.8156739 0-22.6950684-12.9996338-42.3984375-31.9356689-52.0942383 14.8638306-16.0527344 33.2362061-19.0810547 60.7393799-18.4082031 4.4145508.090332 8.0854492-3.3842773 8.1938477-7.8012695s-3.3842773-8.0854492-7.8012695-8.1938477c-25.7822266-.6313477-42.6938477 2.4575195-56.5507812 10.3330078-7.878479 4.4777832-14.7363281 10.517334-20.9737549 18.5681152-3.3061525-.5823974-6.701172-.9035644-10.1717531-.9035644-32.2568359 0-58.5 26.2431641-58.5 58.5 0 3.5655518.3381348 7.0515137.9520874 10.4428711l-248.5264893 173.7946777c.0440063.0148926.088501.0253906.1325684.0401611-2.7285156 1.2996827-4.5581665 4.0772706-4.5581665 7.2222901v224c0 2.3671875 1.0483398 4.612793 2.8632812 6.1328125 1.4511719 1.2158203 3.2729493 1.8671875 5.1367188 1.8671875.4667969 0 .9360352-.0410156 1.402832-.1240234l494-88c3.8173828-.6796875 6.597168-3.9990235 6.597168-7.8759766v-113-.222168-110.777832c0-1.9765625-.7391357-3.8620605-2.0369263-5.3173828zm-197.4630737-140.6826172c.1442261 0 .2862549.0095215.4301758.0109863-2.1325073 3.9194336-4.2085571 8.1529541-6.2446289 12.7487793-1.7895508 4.0395508.0341797 8.7651367 4.0742188 10.5546875 1.0532227.4667969 2.1533203.6875 3.2358398.6875 3.0683594 0 5.9956055-1.7753906 7.3188477-4.7617188 2.630127-5.9370117 5.309021-11.1386719 8.0778809-15.7297363 15.052307 6.546875 25.6076659 21.5556641 25.6076659 38.989502 0 23.4345703-19.0654297 42.5-42.5 42.5s-42.5-19.0654297-42.5-42.5 19.0654297-42.5 42.5-42.5zm0 101c22.8944092 0 42.7472534-13.2271729 52.3500366-32.4343262 5.4523315 2.5269775 10.9047852 5.1568604 16.3596191 7.9012451 2.4963989 2.4046631 4.2999878 5.4361572 5.1843872 8.8616943 1.1586914 4.4868164.5302734 8.9599609-1.6411133 11.6738281-2.6572266 3.3227539-3.4018555 3.2197266-9.375 1.2724609-5.9394531-1.9365234-15.8789062-5.1762695-25.7592773 3.8056641-5.7075195 5.1884766-7.2436523 12.590332-8.5991211 19.1206055-.9736328 4.6923828-1.980957 9.5449219-4.2026367 10.9755859-1.081543.6953125-3.9550781 1.6230469-11.0546875.0195312-19.7607422-4.4624023-32.3583984.7060547-43.4746094 5.2646484-1.7001953.6977539-3.4101562 1.3994141-5.159668 2.0722656-3.2260742 1.2416992-4.8095703.2285156-5.7192383-.640625-1.6474609-1.574707-2.4638672-4.4287109-1.8193359-6.362793 4.4541016-13.3613281.9790039-31.0932617-16.824707-40.5883789-2.465332-1.3149414-3.1142578-2.6777344-3.4042969-3.7182617-1.0703125-3.8393555 1.6160278-9.3623047 2.4868164-11.0859375.7288818-1.442749 1.3312988-2.6894531 1.8300781-3.7785645l6.5733032-4.5968018c9.6398927 19.1004642 29.4334718 32.2381595 52.2494508 32.2381595zm-79.3381348-13.2950439c.0906982 1.5469971.3236084 3.1207275.7526855 4.6949463 1.5908203 5.8339844 5.5053711 10.5571289 11.3208008 13.6586914 12.8510742 6.8544922 10.2719727 18.121582 9.175293 21.4116211-2.6176758 7.8520508-.2285156 17.0913086 5.9443359 22.9902344 3.8764648 3.7041016 8.8251953 5.625 14.0776367 5.6245117 2.7661133 0 5.6171875-.5327148 8.4394531-1.6181641 1.8598633-.715332 3.6787109-1.4609375 5.4873047-2.2026367 10.6386719-4.3637695 19.0419922-7.8125 33.878418-4.4604492 9.8955078 2.2338867 17.4975586 1.5229492 23.2407227-2.1743164 7.8632812-5.0625 9.7172852-13.9975586 11.2075195-21.1772461.9018555-4.3466797 1.8349609-8.8413086 3.6953125-10.5327148 2.7402344-2.4921875 4.2421875-2.3222656 10.0375977-.4326172 6.418457 2.0932617 17.1606445 5.5947266 26.828125-6.4892578 4.0769043-5.0961914 6.0422974-11.9042969 5.6617432-19.0297852 27.0313721 15.0180664 54.1952515 32.7385254 81.7718506 53.3476562h.0009766l-440.3586427 78.444458c.000061-.0001221.0001831-.0001221.0002441-.0001221zm-150.2346801 272.4283447-64.9271851 11.565918v-24.0864258l18.956543-25.9262695c8.956543-12.2490234 25.8696289-15.2626953 38.5175781-6.8510742 1.1376953.7563477 2.3149414 1.4619141 3.5258789 2.112793v30.0517577c0 4.845459 1.447937 9.3568115 3.9271851 13.1333008zm193.0728149-34.3935547-149.6184082 26.6525879c.3999634-1.7346192.6184082-3.5378418.6184082-5.392334v-33.9213867c3.3149414-2.5449219 6.2373047-5.5380859 8.6987305-8.9057617.0195312-.0258789.0419922-.0561523.0610352-.0825195 8.956543-12.2514648 25.871582-15.265625 38.5083008-6.8598633.0180664.012207.0366211.0239258.0546875.0361328 19.7768555 13.1162109 46.2241211 8.3886719 60.2353516-10.7749023 8.9570312-12.2514648 25.8706055-15.2661133 38.5083008-6.859375.9521484.6333008 1.9316406 1.230957 2.9335938 1.7905273v44.3168945zm-258 122.7089844v-60.4976807l261.446106-46.5733643c4.206665 6.9594727 11.8453369 11.6223145 20.553894 11.6223145 11.689209 0 21.4475098-8.4014893 23.5675659-19.4819336l172.4324341-30.7167969v60.4980469zm359.0758057-140.7143555-53.0758057 9.454834v-38.8708496c3.5537109-2.6323242 6.6772461-5.7744141 9.3212891-9.3813477.0112305-.0151367.0224609-.0302734.0336914-.0458984 8.9555664-12.2509766 25.871582-15.2646484 38.5102539-6.8574219.6948242.4624023 1.4072266.90625 2.1347656 1.331543v32.6347656c0 4.2606201 1.1209106 8.262207 3.0758057 11.734375zm118.9241943-21.1848145-74.3012695 13.2358398c.1963501-1.2336425.3012695-2.4973144.3012695-3.7854003v-34.6933594c3.8779297-2.7407227 7.2695312-6.0805664 10.1206055-9.9726562.0107422-.0136719.0209961-.0283203.03125-.0424805 8.9575195-12.2519531 25.8735352-15.2631836 38.5083008-6.859375l25.3398437 16.8548584zm-16.4785156-55.4396972c-19.7734375-13.1513672-46.234375-8.4477539-60.262207 10.706543-.0083008.0117188-.0170898.0234375-.0258789.0351562-2.4453125 3.3452148-5.5102539 6.0522461-9.109375 8.0454102-2.5449219 1.4096679-4.1240235 4.0893554-4.1240235 6.9985351v39.1044922c0 3.4725342-2.2281494 6.427002-5.3265991 7.5307617l-2.6185913.4664307c-.0184937.0001221-.0363159.0028076-.0548096.0028076-4.4111328 0-8-3.5888672-8-8v-37.5356445c0-3.1884766-1.8935547-6.0727539-4.8193359-7.3408203-1.574707-.6816406-3.0742188-1.4941406-4.456543-2.4135742-19.7695312-13.1494141-46.2270508-8.4492188-60.2568359 10.6987305-.0102539.0141602-.0205078.027832-.0307617.0419922-2.2910156 3.1337891-5.1474609 5.71875-8.4902344 7.6831055-2.4448243 1.4370116-3.9462891 4.061035-3.9462891 6.8969725v54.9692383c0 4.4111328-3.5888672 8-8 8s-8-3.5888672-8-8v-52.5961914c0-3.2587891-1.9765625-6.1918945-4.9970703-7.4150391-1.7783203-.7202148-3.4858398-1.6210938-5.0751953-2.6787109-19.7832031-13.1577148-46.2641602-8.440918-60.2871094 10.7402344-8.9570312 12.2509766-25.871582 15.265625-38.5078125 6.8598633-.0195312-.0131836-.0390625-.0258789-.059082-.0385742-19.777832-13.1147461-46.2211914-8.3862305-60.171875 10.6977539-.0195312.0258789-.0419922.0561523-.0610352.0825195-2.190918 2.996582-4.890625 5.4912109-8.0253906 7.4145508-2.3706055 1.4545898-3.8154297 4.036621-3.8154297 6.8183593v38.1152344c0 4.4111328-3.5888672 8-8 8s-8-3.5888672-8-8v-35.1665039c0-3.3100586-2.0385742-6.2788086-5.128418-7.4667969-1.9599609-.7539062-3.8232422-1.7143555-5.5493164-2.8623047-7.5566406-5.0253906-16.0874023-7.4418945-24.53125-7.4418945-13.6591797 0-27.0854492 6.3295898-35.7504883 18.1806641l-6.0405273 8.2612304v-79.8037109l478-85.1494141v86.5195312z"/></svg>