<?xml version="1.0" encoding="utf-8"?>
<!-- Generator: Adobe Illustrator 24.0.1, SVG Export Plug-In . SVG Version: 6.00 Build 0)  -->
<svg version="1.1" id="Warstwa_1" xmlns="http://www.w3.org/2000/svg" xmlns:xlink="http://www.w3.org/1999/xlink" x="0px" y="0px"
	 viewBox="0 0 283.5 283.5" style="enable-background:new 0 0 283.5 283.5;" xml:space="preserve">
<style type="text/css">
	.st0{fill:#1EA451;}
</style>
<g>
	<g>
		<g>
			<g>
				<g>
					<g>
						<path class="st0" d="M204.7,176c-4.7-3.2-4.9-5.4-0.2-8.3c4.6-2.9,8.4,0.3,13.4,3.1c5,2.8,11.5,0,11.5,0s-14.1-10.5-19.5-16.5
							c-5.4-6-10.1-5.9-10.1-5.9s-7.2,0.5-8.3-2.1c-1.1-2.6,10.8-3.3,10.8-3.3s17.3,0.5,18-2.4c0.7-2.8-16-6.6-16-6.6
							s-13.8-2.7-12.8-5.5c1-2.8,10.9-0.8,16.3,0.2c5.5,1,6.2,0.4,5.7-0.9c-0.5-1.2-13.6-9.1-17.4-11.3c-3.7-2.2-11.7-9.5-11.7-9.5
							s-3.8-4.4-9.9-7c-6.1-2.6-4.3-5-4.3-5c3.4-3.7,10.6,0.5,10.6,0.5c8,2.6,15.5,1.6,15.5,1.6c-13.7-5.5-20.6-13.4-20.6-13.4
							c1.6-0.9,12.5,0,12.5,0c-12.5-11-16.8-13.5-30.4-16.8c-13.6-3.3-18.2-19.2-18.2-19.2s-4.8,9.1-12,14.6
							c-7.3,5.6-12,11.6-12,11.6s2.3-1.1,7.2-2.3c4.9-1.2,2.3,0.5,1.2,2.5c-1.2,2-12.3,7.7-12.3,7.7s-7.4,4.6-6.6,5.9
							c0.7,1.2,2.2,0.5,2.2,0.5s3.6-2,5.6,1.4c2,3.5-1.3,3.8-1.3,3.8s-8.3,0.2-10.2,5.8c-1.9,5.5-7.2,7-7.2,7s-13.3,7-16,10
							c-2.6,3,0.5,3.3,4.3,3.2c3.8-0.1,9.8-4.7,13-0.1c3.2,4.6,0.5,7.6-3.6,12.5c-4,4.9-9.1,5.2-11.6,6c-2.6,0.9-11.4,9.3-13.3,11.7
							c-1.9,2.4-6.9,2.3-1.3,5.4c5.6,3.1,10.5-2.3,10.5-2.3s4.9-6.9,10.1-1c5.2,5.9-4.5,9.8-10.6,13.1c-6.2,3.3-14,11-17.7,14.9
							c-3.7,3.9-9.4,2.5-9.4,2.5s3.6,4.8,13.5,2.9c9.9-2,15.6-7.8,23.6-10.7c8-2.9,9.8,3,6.3,7.1c-3.4,4.1-24.1,8.8-31,12.4
							c-7,3.6,5.2,5.1,5.2,5.1c7.7,1.7,25.2-6.5,33.3-10.1c8.1-3.6,10-3.1,13.1-1.6c3,1.4,7.1,4.6,6.2,11.5c-1,6.9-9,16.6-9,16.6
							S102,224.1,96,225c-6,0.9-9.2,4.6-9.2,4.6s-5.1,5.6-3.5,5.9c1.6,0.2,2.2-0.9,6.3-4.4c4.1-3.5,9.8-2.8,15.6-3.9
							c5.9-1.1,11-6.1,12.9-7.8c1.9-1.7,7-3.8,9-3.3c2,0.5,2,1.8,5,1.8c3,0,5.2-1.1,5.2-1.1s3.9-1.7,4.2,1.8c0.3,3.5,3,4.9,3,4.9
							s1.6,0.9,8,6.3c6.4,5.4,3.4-0.2,1.8-3.4c-1.6-3.2,0.1-2.2,8.3-2.1c8.2,0.1,10.5,4.2,10.5,4.2s4.4,6.9,10.1,6.9
							c5.7-0.1-6.1-8.7-6.1-8.7s-10-9.1-14.4-16.3c-4.4-7.2-0.5-23.5-0.5-23.5c4.6-8.5,11.9-1.9,11.9-1.9c4.5,4.5,19.5,3.7,25,3.3
							c5.5-0.4,13.2,0.5,23.5,8.2c10.3,7.8,12.6,4,12.6,4C238.7,192.7,209.4,179.2,204.7,176z M154.1,109.5c-1.6,4.9-5,3-6.5,2.4
							c-1.5-0.6,1.9-5.1,4.4-6.3C154.5,104.4,154.1,109.5,154.1,109.5z M149.9,86.7c3.4-0.1,3,3.4,3,3.4s-1.7,1.2-5,0.6
							C144.6,90.1,146.5,86.8,149.9,86.7z M140.2,111.3l-6-2.1c0,0,6.5-4.7,9.5-2.6C146.8,108.7,140.2,111.3,140.2,111.3z
							 M116.2,85.8c0.4-3.3,3.4-2.4,3.4-2.4s3.7,0.3,0,3.8C115.9,90.8,115.8,89.1,116.2,85.8z M120.2,97.1c0,0,4.9-5.6,7-3.3
							c2.1,2.3-2.6,7-2.6,7s-0.7,1.2-6.6,2.8C112.3,105.3,120.2,97.1,120.2,97.1z M108.7,146c-0.9,4.8-14.9,8-16.4,6.7
							c-1.4-1.3-3.9-7.7-3.9-7.7S109.6,141.2,108.7,146z M99.8,118.8c0,0-4.5-4.4,0.9-6.4c5.4-2,8.7,7.7,8.7,7.7
							C103,124.4,99.8,118.8,99.8,118.8z M116.6,175.2c-2.3,0.5-5.5-6.9-5-10.5c0.5-3.5,5.9,1,5.9,1
							C119.3,169.1,118.9,174.6,116.6,175.2z M115.9,116.4c-3.3,4.2-4.1,0.5-4.1,0.5s-0.4-0.5-1.3-3.6c-0.9-3.1,2-2.9,6.4-3.1
							C121.3,110.1,119.1,112.3,115.9,116.4z M119.4,134.1c-0.5-2.6,4.9,0.3,4.9,0.3s2.8,3.4,1.1,3.9
							C123.9,138.9,120,136.7,119.4,134.1z M129.8,172.8c-0.5,3.3-3.2-0.6-3.2-0.6s-3.1-3.5-1.6-4.9c1.5-1.3,4.2,1.8,4.2,1.8
							S130.2,169.5,129.8,172.8z M131.6,94.9c-2.3-2.9,3.8-5.5,8.1-7.3c4.2-1.8,2.7,4.4,2.7,4.4S133.9,97.8,131.6,94.9z
							 M133.2,134.7c0,0-1.6-2.4,0.9-4.2c2.4-1.9,2.8,1.9,2.8,1.9C136,140.2,133.2,134.7,133.2,134.7L133.2,134.7z M143.7,167
							c-0.5,2-5.4,8.1-5.4,8.1s-4.4-8.9-2.3-9.8C138.1,164.4,144.2,165.1,143.7,167z M143.1,142.2c-3.2-2.5-2.4-4.1-0.6-7.4
							c1.8-3.4,4.8,3.1,4.8,3.1C150.1,143.7,146.2,144.7,143.1,142.2z M152.7,144.2c0,0-3.4-1.6-1.9-4.8c1.6-3.2,3.1,2.5,3.1,2.5
							C154.9,145.5,152.7,144.2,152.7,144.2L152.7,144.2z M174.6,127.5c1-4.6,6.3-2.8,6.3-2.8s2.3,0.1,1.9,3.6c-0.4,3.5-3,3.4-3,3.4
							S173.6,132,174.6,127.5L174.6,127.5z M156.8,90.7c0.1-3.7,5.9-3.2,5.9-3.2c2.1,4.1-1,5.4-2,5.9
							C159.7,93.9,156.7,94.3,156.8,90.7z M162.8,116.8c0,0-5-0.7-3.8-4.5c1.3-3.8,7.6-2.9,7.6-2.9s4.7-0.3,3.9,5.2
							C169.9,120,162.8,116.8,162.8,116.8L162.8,116.8z M182,161.4c-4.7,3.2-7.4,2.2-10.5,0.8c-3-1.5-1.6-3.1-1.6-3.1
							s8-5.8,12.7-3.8C187.1,157.2,182,161.4,182,161.4L182,161.4z M196.1,168.4c0,0-3.7-0.5-6.9-1.2c-3.1-0.7-1.1-4.3,2.9-6.9
							c4-2.6,4.3-2.3,8.1,0.3C204.1,163,196.1,168.4,196.1,168.4L196.1,168.4z"/>
					</g>
				</g>
			</g>
		</g>
	</g>
</g>
</svg>
