<?xml version="1.0" encoding="utf-8"?>
<!-- Generator: Adobe Illustrator 24.0.1, SVG Export Plug-In . SVG Version: 6.00 Build 0)  -->
<svg version="1.1" id="Warstwa_1" xmlns="http://www.w3.org/2000/svg" xmlns:xlink="http://www.w3.org/1999/xlink" x="0px" y="0px"
	 viewBox="0 0 283.5 283.5" style="enable-background:new 0 0 283.5 283.5;" xml:space="preserve">
<style type="text/css">
	.st0{fill:#1EA451;}
</style>
<g>
	<g>
		<g>
			<g>
				<g>
					<g>
						<path class="st0" d="M209.5,178.7c-5.1-3.4-5.2-5.8-0.3-8.9c4.9-3.1,9.1,0.3,14.5,3.4c5.4,3,12.4,0,12.4,0s-15.2-11.3-21-17.8
							c-5.8-6.5-10.9-6.3-10.9-6.3s-7.7,0.5-8.9-2.3c-1.2-2.8,11.6-3.5,11.6-3.5s18.6,0.5,19.4-2.5c0.7-3-17.2-7.2-17.2-7.2
							s-14.9-3-13.8-6c1.1-3,11.7-0.9,17.6,0.3c5.9,1.1,6.7,0.4,6.2-0.9c-0.5-1.3-14.6-9.8-18.7-12.2c-4-2.3-12.6-10.3-12.6-10.3
							s-4.1-4.7-10.7-7.6c-6.6-2.9-4.6-5.4-4.6-5.4c3.6-4,11.4,0.5,11.4,0.5c8.6,2.9,16.6,1.7,16.6,1.7
							c-14.8-5.9-22.2-14.5-22.2-14.5c1.8-1,13.5,0,13.5,0c-13.5-11.9-18.1-14.5-32.7-18.1c-14.6-3.5-19.6-20.6-19.6-20.6
							s-5.1,9.8-12.9,15.7c-7.8,6-13,12.5-13,12.5s2.4-1.2,7.7-2.4c5.3-1.3,2.5,0.5,1.3,2.7c-1.3,2.2-13.3,8.3-13.3,8.3
							s-7.9,5-7.2,6.3c0.8,1.3,2.3,0.6,2.3,0.6s3.9-2.2,6,1.5c2.2,3.7-1.4,4.1-1.4,4.1S100,90,98,96c-2,6-7.7,7.5-7.7,7.5
							s-14.3,7.6-17.2,10.8c-2.8,3.2,0.5,3.5,4.7,3.5c4.1-0.1,10.6-5.1,14-0.1c3.5,5,0.5,8.2-3.9,13.5c-4.4,5.3-9.8,5.6-12.5,6.5
							c-2.8,0.9-12.3,10-14.3,12.6c-2,2.6-7.4,2.5-1.4,5.8c6,3.4,11.4-2.5,11.4-2.5s5.3-7.4,10.9-1.1c5.6,6.3-4.8,10.6-11.4,14.2
							c-6.6,3.6-15.1,11.9-19.1,16c-4,4.2-10.1,2.7-10.1,2.7s3.9,5.2,14.6,3.1c10.7-2.1,16.8-8.4,25.4-11.6
							c8.6-3.1,10.5,3.3,6.8,7.7C84.2,189,62,194,54.5,197.9c-7.5,3.9,5.6,5.5,5.6,5.5c8.2,1.9,27.2-7,35.9-10.9
							c8.7-3.9,10.8-3.3,14.1-1.8c3.3,1.5,7.7,4.9,6.6,12.4c-1,7.4-9.7,17.9-9.7,17.9s-8.1,9.3-14.5,10.3c-6.5,0.9-9.9,5-9.9,5
							s-5.5,6.1-3.8,6.3c1.7,0.3,2.4-0.9,6.7-4.7c4.4-3.8,10.5-3,16.8-4.2c6.3-1.2,11.9-6.6,13.9-8.4c2-1.8,7.5-4.1,9.7-3.5
							c2.2,0.6,2.2,1.9,5.4,1.9s5.6-1.2,5.6-1.2s4.2-1.8,4.5,1.9c0.3,3.8,3.2,5.3,3.2,5.3s1.8,1,8.7,6.8c6.9,5.8,3.7-0.2,1.9-3.6
							c-1.8-3.4,0.1-2.3,8.9-2.3c8.8,0.1,11.3,4.5,11.3,4.5s4.7,7.5,10.9,7.4c6.2-0.1-6.6-9.3-6.6-9.3s-10.8-9.8-15.5-17.5
							c-4.7-7.7-0.5-25.3-0.5-25.3c5-9.2,12.8-2,12.8-2c4.9,4.9,21,4,27,3.5c5.9-0.4,14.2,0.5,25.3,8.8c11.1,8.4,13.5,4.3,13.5,4.3
							C246.2,196.6,214.6,182.1,209.5,178.7z M155,107c-1.8,5.3-5.4,3.2-7,2.5c-1.6-0.7,2-5.5,4.7-6.7C155.4,101.6,155,107,155,107z
							 M150.5,82.4c3.6-0.1,3.3,3.7,3.3,3.7s-1.9,1.3-5.4,0.7C144.8,86.2,146.9,82.5,150.5,82.4z M140.1,108.9l-6.5-2.3
							c0,0,7-5.1,10.3-2.8C147.2,106.2,140.1,108.9,140.1,108.9z M114.2,81.5c0.4-3.5,3.7-2.5,3.7-2.5s4,0.3,0,4.1
							C113.9,86.9,113.8,85.1,114.2,81.5z M118.6,93.6c0,0,5.3-6.1,7.6-3.5c2.3,2.5-2.8,7.6-2.8,7.6s-0.8,1.3-7.1,3
							C110,102.5,118.6,93.6,118.6,93.6z M106.1,146.3c-1,5.1-16.1,8.6-17.6,7.2c-1.5-1.4-4.2-8.2-4.2-8.2S107.1,141.2,106.1,146.3z
							 M96.5,117c0,0-4.9-4.7,0.9-6.9c5.8-2.2,9.3,8.3,9.3,8.3C100.1,123,96.5,117,96.5,117z M114.7,177.7c-2.4,0.6-6-7.5-5.4-11.3
							c0.6-3.8,6.3,1.1,6.3,1.1C117.6,171.2,117.1,177.1,114.7,177.7z M113.9,114.5c-3.5,4.5-4.5,0.5-4.5,0.5s-0.4-0.5-1.4-3.9
							c-0.9-3.4,2.1-3.1,6.9-3.3C119.7,107.7,117.4,110.1,113.9,114.5z M117.7,133.5c-0.6-2.8,5.3,0.3,5.3,0.3s3,3.6,1.2,4.2
							C122.5,138.7,118.3,136.3,117.7,133.5z M128.8,175.2c-0.5,3.6-3.4-0.7-3.4-0.7s-3.4-3.8-1.8-5.2c1.6-1.4,4.5,1.9,4.5,1.9
							S129.3,171.7,128.8,175.2z M130.8,91.3c-2.5-3.1,4.1-6,8.7-7.9c4.5-2,3,4.8,3,4.8S133.3,94.4,130.8,91.3z M132.5,134.2
							c0,0-1.7-2.5,0.9-4.5c2.6-2,3,2.1,3,2.1C135.5,140.1,132.5,134.2,132.5,134.2L132.5,134.2z M143.8,169
							c-0.5,2.1-5.8,8.7-5.8,8.7s-4.7-9.5-2.4-10.5C137.8,166.1,144.3,166.9,143.8,169z M143.2,142.2c-3.4-2.7-2.5-4.4-0.6-8
							c1.9-3.6,5.2,3.4,5.2,3.4C150.7,143.9,146.5,144.9,143.2,142.2z M153.6,144.4c0,0-3.7-1.8-2-5.2c1.7-3.5,3.3,2.7,3.3,2.7
							C155.9,145.8,153.6,144.4,153.6,144.4L153.6,144.4z M177.2,126.4c1.1-4.9,6.8-3,6.8-3s2.5,0.1,2,3.9c-0.4,3.8-3.2,3.6-3.2,3.6
							S176.1,131.3,177.2,126.4L177.2,126.4z M158,86.7c0.1-4,6.3-3.5,6.3-3.5c2.3,4.5-1,5.8-2.1,6.4
							C161.1,90.3,157.8,90.7,158,86.7z M164.4,114.9c0,0-5.4-0.8-4.1-4.9c1.4-4.1,8.2-3.1,8.2-3.1s5.1-0.3,4.2,5.6
							C172,118.4,164.4,114.9,164.4,114.9L164.4,114.9z M185.1,162.9c-5.1,3.4-8,2.4-11.3,0.8c-3.3-1.6-1.8-3.3-1.8-3.3
							s8.7-6.2,13.6-4.1C190.6,158.4,185.1,162.9,185.1,162.9L185.1,162.9z M200.3,170.5c0,0-4-0.5-7.4-1.3
							c-3.4-0.7-1.2-4.6,3.1-7.5c4.3-2.8,4.6-2.5,8.8,0.3C208.9,164.7,200.3,170.5,200.3,170.5L200.3,170.5z"/>
					</g>
				</g>
			</g>
		</g>
	</g>
</g>
</svg>
