<svg height="511pt" viewBox="-2 1 511 511.99896" width="511pt" xmlns="http://www.w3.org/2000/svg"><path d="m493.738281 372.492188c-8.335937-8.515626-19.59375-12.257813-30.410156-15.363282-7.429687-2.128906-14.992187-3.847656-22.488281-5.410156 36.277344-50.839844 48.527344-117.667969 32.726562-179.273438-15.554687-60.644531-58.480468-114.726562-114.828125-144.664062-55.59375-29.539062-122.753906-35.859375-184.269531-17.34375-37.6875 11.339844-72.90625 32.34375-101.839844 60.738281-29.152344 28.605469-50.625 63.464844-62.097656 100.808594-23.71875 77.203125-4.558594 165.167969 48.816406 224.101563 42.125 46.511718 104.828125 73.007812 166.804688 73.003906 16.828125 0 33.609375-1.976563 49.902344-6.015625.609374 5.875 1.882812 12.289062 5.746093 17.734375 5.519531 7.773437 14.871094 11.300781 21.699219 13.878906 20.894531 7.882812 45.886719 17.3125 71.332031 17.3125 6.222657-.003906 12.472657-.566406 18.695313-1.855469 11.398437-2.359375 21.972656-6.996093 32.199218-11.476562l47.839844-20.96875c8.484375-3.71875 19.046875-8.347657 25.648438-17.382813 7.734375-10.585937 8.015625-24.613281 8.21875-34.851562.382812-19.332032-.355469-39.347656-13.695313-52.972656zm-197.441406 78.007812c.617187-.167969 1.226563-.339844 1.835937-.515625 7.300782-2.125 15.011719-4.558594 21.988282-8.867187.539062-.332032 1.066406-.675782 1.585937-1.023438 3.691407 3.890625 5.207031 9.097656 5.828125 12.890625.574219 3.519531.632813 7.199219.472656 10.855469-10.789062-3.898438-21.382812-8.347656-31.710937-13.339844zm192.289063-68.816406c1.71875 2.195312 3.117187 4.613281 4.246093 7.164062-21.742187 13.136719-44.242187 25.625-66.886719 37.117188-9.65625 4.898437-18.410156 9.058594-27.789062 10.300781-19.496094 2.574219-38.53125-7.835937-56.941406-17.910156l-.515625-.285157c-12.574219-6.878906-26.222657-14.054687-40.808594-19.917968-4.953125-1.992188-10.539063-4.039063-16.507813-4.523438.042969-.171875.078126-.339844.128907-.511718.449219-1.621094 1.191406-3.128907 2.125-4.527344 29.183593 1.328125 56.070312 17.171875 78.636719 32.613281 4.433593 3.03125 9.453124 6.46875 15.621093 7.257813.917969.117187 1.832031.171874 2.738281.171874 4.363282 0 8.519532-1.238281 12.164063-2.445312 21.152344-7.015625 41.097656-17.308594 60.386719-27.265625zm8.394531 24.3125c.484375 4.964844.910156 10.042968 1.191406 14.992187.007813.113281.007813.234375.015625.347657-.386719-.15625-.792969-.285157-1.226562-.339844-5.464844-.710938-11.109376-1.445313-15.886719-3.625-3.863281-1.761719-6.316407-3.507813-7.703125-5.535156 7.578125-4.300782 15.089844-8.699219 22.523437-13.164063.5 2.4375.851563 4.898437 1.085938 7.324219zm-182.113281 26.617187c-5.910157 3.648438-12.886719 5.835938-19.527344 7.769531-3.785156 1.101563-7.226563 1.980469-10.335938 1.765626-.964844-11.195313-2.011718-22.382813-2.796875-33.59375-.121093-1.722657-.171875-3.367188-.152343-4.984376 4.824218.296876 9.738281 2.105469 14.105468 3.859376 10.289063 4.140624 20.164063 8.992187 29.53125 13.929687-2.105468 4.261719-5.859375 8.183594-10.824218 11.253906zm-33.515626-55.488281c-2.402343 2.097656-4.480468 4.535156-6.027343 7.398438-3.09375 5.722656-3.59375 12.425781-3.398438 18.9375-6.976562-6.894532-13.941406-13.808594-20.878906-20.769532 26.882813-23.660156 54.121094-47.03125 81.632813-70.046875 11.902343 11.234375 24.535156 22.308594 37.917968 32.308594-.789062.210937-1.578125.414063-2.367187.613281-11.027344 2.765625-21.960938 5.914063-32.808594 9.304688-12.515625 3.910156-25.058594 8.265625-37.28125 12.949218-5.832031 2.234376-11.96875 5.089844-16.789063 9.304688zm-21.535156-151.78125c-21.316406-21.722656-42.613281-43.550781-63.832031-65.421875l73.113281-65.5625c20.914063 19.785156 40.539063 41.484375 59.59375 62.550781 1.730469 1.914063 3.46875 3.835938 5.207032 5.753906-24.703126 20.820313-49.402344 41.71875-74.082032 62.679688zm80.808594-55.269531c21.378906 23.480469 43.550781 46.964843 68.074219 67.691406-25.363281 20.15625-50.566407 40.667969-75.558594 61.480469-8.230469-7.960938-16.121094-15.917969-23.65625-23.523438-14.203125-14.339844-28.421875-28.761718-42.640625-43.230468 24.578125-20.871094 49.179688-41.683594 73.78125-62.417969zm-88.449219 61.757812c-26.925781 22.886719-53.804687 45.824219-80.585937 68.789063-20.21875-21.488282-40.210938-43.195313-59.914063-65.097656l76.855469-68.917969c21.15625 21.804687 42.390625 43.570312 63.644531 65.226562zm7.027344 7.152344c14.394531 14.648437 28.792969 29.253906 43.179687 43.777344 7.339844 7.410156 15.019532 15.15625 23.03125 22.921875-27.441406 22.964844-54.605468 46.289062-81.421874 69.894531-22.074219-22.257813-43.941407-44.828125-65.539063-67.671875 26.839844-23.007812 53.769531-45.992188 80.75-68.921875zm124.148437 102.9375c-.109374-.09375-.203124-.195313-.324218-.28125-15.074219-10.632813-29.273438-22.914063-42.601563-35.449219 25.183594-20.964844 50.59375-41.621094 76.15625-61.917968 4.671875 3.746093 9.425781 7.390624 14.285157 10.90625-3.648438 30.847656-12.753907 60.902343-27.609376 88.4375-1.542968-.402344-3.082031-.816407-4.609374-1.253907-5.132813-1.460937-10.234376-1.289062-15.296876-.441406zm48.640626-98.359375c-2.476563-1.863281-4.933594-3.75-7.359376-5.675781 2.648438-2.097657 5.304688-4.175781 7.960938-6.265625-.113281 3.988281-.3125 7.96875-.601562 11.941406zm1.144531-25.089844c-5.492188 4.296875-10.976563 8.617188-16.453125 12.949219-24.589844-20.578125-46.890625-44.171875-68.402344-67.792969 17.984375-15.144531 35.96875-30.25 53.925781-45.285156 8.519531 12.746094 15.269531 26.671875 20.195313 41.195312 4.472656 13.191407 7.886718 26.8125 9.589844 40.648438.742187 6.015625 1.289062 12.195312 1.144531 18.285156zm-91.585938-62.25c-1.816406-2.007812-3.632812-4.015625-5.441406-6.019531-19.011719-21.015625-38.585937-42.652344-59.546875-62.542969l38.445312-34.472656c.082032-.074219.144532-.160156.21875-.238281 29.066407 10.210937 55.339844 26.582031 75.675782 50.417969 1.894531 2.214843 3.71875 4.492187 5.480468 6.808593-18.257812 15.285157-36.542968 30.644531-54.832031 46.046875zm-72.339843-75.398437c-.746094-.683594-1.488282-1.367188-2.238282-2.046875-3.0625-2.761719-6.207031-5.527344-9.246094-8.203125-10.222656-8.992188-20.742187-18.253907-29.566406-28.667969 19.035156-1.800781 38.3125-1.03125 57.046875 2.464844 6.117188 1.144531 11.847657 2.980468 17.742188 4.667968.429687.121094.851562.261719 1.28125.386719zm-52.738282-37.472657c10.085938 13.117188 22.570313 24.105469 34.648438 34.730469 3.015625 2.65625 6.136718 5.402344 9.152344 8.121094.488281.441406.96875.890625 1.457031 1.332031l-72.71875 65.203125c-22.632813-23.355469-45.160157-46.753906-67.503907-70.101562 7.132813-5.066407 14.726563-9.824219 22.234376-14.121094 12.824218-7.351563 26.460937-13.28125 40.554687-17.730469 10.488281-3.3125 21.265625-5.789062 32.175781-7.433594zm-102.996094 45.355469c22.535157 23.554688 45.257813 47.152344 68.085938 70.714844l-76.558594 68.648437c-15.992187-17.867187-31.808594-35.84375-47.40625-53.925781-.476562-.550781-1.050781-.964843-1.667968-1.253906 8.339843-22.523437 20.710937-43.578125 36.417968-61.851563 6.65625-7.742187 13.25-15.773437 21.128906-22.332031zm-61.105468 94.675781c14.878906 17.21875 29.953125 34.34375 45.1875 51.363282l-49.679688 44.550781c-3.128906-14.941406-4.585937-30.25-4.101562-45.125.5625-17.257813 3.519531-34.34375 8.59375-50.789063zm-1.664063 106.8125 53.523438-47.996093c19.65625 21.847656 39.59375 43.503906 59.757812 64.941406-23.9375 20.539063-47.792969 41.085937-71.535156 61.613281-4.148437-4.699218-8.0625-9.5625-11.601563-14.464844-7.992187-11.066406-14.8125-22.976562-20.335937-35.457031-4.015625-9.082031-7.363281-18.664062-10-28.496093.0625-.050782.128906-.089844.191406-.140626zm120.144531 24.230469c21.628907 22.878907 43.527344 45.484375 65.628907 67.78125-16.195313 14.328125-32.265625 28.753907-48.179688 43.269531-.1875.171876-.339843.363282-.496093.554688-4.59375-1.132812-9.167969-2.421875-13.742188-3.910156-7.523438-2.453125-14.902344-5.367188-22.066406-8.730469-14.347656-6.734375-27.859375-15.269531-40.003906-25.457031-4.34375-3.644532-8.621094-7.632813-12.734376-11.839844 23.757813-20.546875 47.636719-41.113281 71.59375-61.667969zm72.6875 74.894531c9.738282 9.773438 19.519532 19.488282 29.335938 29.132813.304688 4.347656.601562 8.601563.601562 8.601563.085938 1.277343-23.132812 3.738281-25.34375 3.917968-8.796874.714844-17.652343.789063-26.460937.242188-7.453125-.460938-14.726563-1.351563-21.90625-2.636719 14.46875-13.164063 29.066406-26.253906 43.773437-39.257813zm93.863282 62.054688c-.832032-5.105469-2.929688-12.136719-8.113282-17.800781 2.117188-2.332031 3.867188-4.847657 5.210938-7.488281.460938.253906.933594.507812 1.394531.757812l.519531.285156c8.390626 4.589844 17.277344 9.453125 26.558594 13.179688-2.726562 11.113281-1.828125 22.945312 2.589844 33.519531.125.292969.289062.621094.472656.964844-3.792968-.601563-7.5-1.535157-10.828125-2.425781-5.839843-1.554688-11.632812-3.28125-17.378906-5.15625.351563-5.136719.449219-10.480469-.425781-15.835938zm42.449218 23.695312c-.246093-.121093-.5-.230468-.769531-.304687-1.140625-.542969-3.714843-3.414063-4.289062-4.792969-3.472657-8.3125-4.273438-17.578125-2.328125-26.351562 6.398437 1.882812 12.953125 3.035156 19.640625 3.035156 2.4375 0 4.894531-.152344 7.363281-.476562 10.925781-1.449219 20.898438-6.167969 31-11.296876 4.085938 4.738282 5.933594 11.367188 4.738281 17.527344-.121093.625-.105469 1.242188 0 1.832032-13.347656 6.832031-27.113281 13.601562-41.398437 17.832031-5.152344 1.527343-9.726563 2.503906-13.957032 2.996093zm59.667969-44.839843c8.410157-4.371094 16.789063-8.875 25.101563-13.488281 3.015625 4.925781 7.976562 7.753906 12.304687 9.726562 2.742188 1.25 5.59375 2.105469 8.441407 2.75-13.34375 6.414062-26.679688 13.019531-39.824219 19.734375.054687-6.667969-2.09375-13.339844-6.023438-18.722656zm21.050781-63.492188c6.644532 1.90625 13.875 4.042969 19.96875 7.84375l-29.941406 15.457031c-18.949218 9.777344-38.539062 19.890626-58.949218 26.65625-3.511719 1.164063-7.210938 2.265626-10.488282 1.847657-3.773437-.484375-7.402344-2.964844-11.308594-5.636719-21.082031-14.425781-45.925781-29.234375-73.492187-33.316406 1.804687-.957032 3.625-1.769532 5.359375-2.433594 12.027344-4.605469 24.367188-8.894531 36.683594-12.742188 10.855468-3.390624 21.949218-6.523437 32.976562-9.308593 1.480469-.375 2.957032-.777344 4.433594-1.179688 5.019531-1.371093 9.839844-2.6875 14.488281-2.6875 1.894531 0 3.765625.21875 5.609375.746094 10.71875 3.054687 21.773438 5.265625 32.460938 7.402344 10.65625 2.128906 21.671875 4.332031 32.199218 7.351562zm-393.8125 22.636719c-51.054687-56.371094-69.375-140.550781-46.667968-214.453125 10.988281-35.757813 31.574218-69.164063 59.542968-96.609375 27.785157-27.261719 61.574219-47.425781 97.71875-58.300781 59.007813-17.761719 123.414063-11.710938 176.699219 16.601562 53.902344 28.640625 94.960938 80.347657 109.832031 138.316407 7.410157 28.894531 8.382813 60.03125 2.804688 90.042968-5.613281 30.230469-17.792969 58.820313-35.214844 82.675782-.449218.613281-.71875 1.292968-.855468 1.988281-.09375-.019531-.1875-.039063-.28125-.054688-5.621094-1.125-11.339844-2.273437-17.03125-3.546875 19.59375-37.277344 29.496093-78.679687 29.425781-123.136718-.074219-47.933594-15.777344-92.691407-44.222657-126.023438-27.175781-31.851562-66.765624-53.988281-111.464843-62.332031-60.230469-11.246094-124.71875 4.289062-172.515625 41.550781-48.570313 37.863281-78.753906 96.835938-80.742188 157.75-.980468 30.019531 5.101563 60.804688 17.589844 89.03125 12.542969 28.355469 31.28125 53.503906 54.191406 72.71875 35.503906 29.78125 81.777344 45.988281 127.753906 45.984375 13.742188 0 27.464844-1.46875 40.859376-4.4375l1.105468 15.835937c-73.203125 18.847657-156.988281-6.695312-208.527344-63.601562zm424.386719 65.042969c-5.011719 6.859375-13.820312 10.71875-21.589843 14.125l-47.839844 20.96875c-9.753906 4.273437-19.839844 8.695312-30.214844 10.84375-28.824219 5.972656-59.675781-5.671875-84.46875-15.023438-7.289062-2.75-13.605469-5.425781-17.074219-10.308593-3.597656-5.074219-4.257812-11.949219-4.429687-18.710938 14.359375 7.3125 29.238281 13.609375 44.484375 18.828125.574219.335937 1.214843.5625 1.914062.648437 6.835938 2.292969 13.738281 4.382813 20.703125 6.242188 5.3125 1.414062 11.519532 2.957031 18.007813 3.328125 1.050781.058594 2.109375.085937 3.179687.085937 6.84375 0 14.191406-1.222656 22.835938-3.785156 16.75-4.960937 32.386718-12.996094 47.507812-20.769531l3.253906-1.671875c16.574219-8.5 33.496094-16.839844 50.347657-24.835938-.863281 7.382813-2.863281 14.898438-6.617188 20.035157zm0 0"/></svg>