<svg id="Capa_1" enable-background="new 0 0 512.056 512.056" height="512" viewBox="0 0 512.056 512.056" width="512" xmlns="http://www.w3.org/2000/svg"><g><path d="m503.594 172.246c11.93-18.08 7.445-42.601-10.566-55.274 9.483-13.548 12.777-30.814 8.615-47.104-.967-3.785-4.531-6.476-8.397-5.917-4.52.654-7.34 5.051-6.212 9.338 3.814 14.49-.387 30.066-10.965 40.65-3.842 3.845-2.446 10.41 2.677 12.326 16.594 6.208 22.04 27.406 9.945 40.794-2.471 2.736-2.588 6.862-.275 9.732 12.514 15.535 11.295 37.905-2.835 52.035-9.663 9.664-23.797 13.509-36.926 10.303-3.465-3.605-11.076-10.664-18.29-16.546 8.567-14.104 11.497-30.553 8.994-46.233 0 0 23.637-63.582 21.155-68.61-2.238-4.539-6.518-3.973-17.283-8.143 17.8-18.611 16.264-41.469-1.595-57.527 10.296-1.132 20.804 1.56 29.461 7.896 3.575 2.619 8.703 1.602 10.964-2.368 1.929-3.386.742-7.683-2.418-9.963-15.253-11.009-34.666-13.737-52.168-7.65-18.304-27.35-57.123-32.327-81.6-9.711-8.607-5.89-19.368-8.341-30.053-6.397-7.162-5.8-16.023-8.952-25.368-8.952-29.703 0-49.231 31.315-36.432 57.903l-40.852 50.718c-2.599 3.226-2.09 7.947 1.136 10.545 3.227 2.598 7.948 2.09 10.546-1.136l38.553-47.863c25.842 25.842 54.862 50.32 70.124 100.39-57.129-12.919-119.472-4.398-172.775 27.048l43.475-53.973c2.599-3.226 2.09-7.947-1.136-10.545-3.228-2.599-7.949-2.09-10.546 1.136-.15.187-172.952 214.723-186.765 231.863-8.371 10.393-7.568 25.346 1.867 34.782l93.691 93.691c9.438 9.437 24.391 10.238 34.783 1.868 6.937-5.588 78.272-63.047 98.271-79.157 3.198-2.576 3.996-7.281 1.518-10.556-2.564-3.389-7.401-3.967-10.688-1.319l-30.919 24.905c-13.348-19.224-41.558-22.529-58.866-5.222-15.012 15.013-14.727 38.699-1.005 53.448l-7.721 6.219c-4.412 3.554-10.761 3.213-14.766-.793l-93.691-93.691c-4.006-4.006-4.347-10.354-.793-14.767l91.098-113.095c80.827-100.344 229.579-110.686 323.361-23.5l-181.376 145.98c-3.226 2.598-3.735 7.32-1.136 10.546 2.598 3.226 7.32 3.734 10.546 1.136l183.984-148.081c18.485 4.946 38.588-.314 52.247-13.972 18.131-18.13 20.9-46.066 7.407-67.187zm-357.549 268.363c11.192-11.19 28.902-8.031 36.525 4.068l-36.403 29.322c-9.153-8.997-9.485-24.025-.122-33.39zm250.692-240.904c1.953-3.844 2.987-8.121 2.987-12.557 0-27.577-36.684-38.481-51.404-14.568-2.714-9.159-6.086-18.086-10.081-26.719 20.916-17.107 51.902-15.911 71.408 3.596 17.094 17.094 20.329 43.452 8.709 63.958-6.961-4.97-14.172-9.542-21.619-13.71zm34.613-46.272c-6.875-12.146-17.41-21.966-30.038-27.962 1.82-9.548-.271-18.594-5.433-25.964l48.368 16.258zm-82.742-115.711c2.964-.87 3.537-2.563 6.319-5.347 17.432-17.434 48.526-15.725 62.767 10.64.084.105 1.017 2.159 3.564 3.279 9.348 4.241 19.279 13.631 19.555 24.631.198 7.877-5.178 16.707-13.92 23.181l-34.586-11.625c-.359-7.207-3.034-14.07-7.746-19.7-14.785-17.669-42.626-15.378-54.328 4.342-15.504-6.081-32.917-2.395-44.634 8.95l-15.341-15.341c-4.303-5.616-5.955-12.625-4.893-19.4 3.239-20.303 28.374-28.642 43.107-13.91 1.975 1.937 4.801 2.607 7.381 1.845 15.316-4.519 25.238 6.505 25.34 6.562 1.966 1.966 4.799 2.66 7.415 1.893zm-52.401 48.959c9.182-8.732 23.13-9.899 33.596-2.971 4.266 2.822 10.053.636 11.382-4.306 3.892-14.459 22.411-18.3 31.872-6.997 5.031 6.012 5.504 14.164 2.124 20.479-1.893 3.538-.666 7.938 2.783 9.986 6.108 3.628 9.629 10.569 8.927 17.645-18.951-4.216-39.362-.301-55.6 11.744-15.168-27.057-34.056-44.413-35.084-45.58zm63.653 96.388c3.028-8.977 14.456-11.619 21.124-4.948 3.965 3.964 4.772 9.908 2.422 14.679-7.374-3.525-15.214-6.8-23.546-9.731z"/><path d="m283.62 324.343c9.143-9.144 9.143-24.02 0-33.163-9.146-9.144-24.02-9.142-33.163 0-9.143 9.143-9.143 24.019 0 33.163 9.145 9.143 24.019 9.144 33.163 0zm-22.555-22.556c3.293-3.294 8.655-3.294 11.948 0 3.295 3.294 3.295 8.655 0 11.95-3.292 3.294-8.654 3.294-11.948 0-3.295-3.295-3.295-8.656 0-11.95z"/><path d="m107.051 299.25c-9.143 9.143-9.143 24.019 0 33.163 9.141 9.141 24.018 9.146 33.162 0 9.164-9.163 9.167-23.997.001-33.163-9.144-9.141-24.018-9.143-33.163 0zm22.556 22.556c-3.293 3.294-8.655 3.295-11.948 0-3.295-3.294-3.295-8.655 0-11.95 3.293-3.294 8.654-3.295 11.949 0 3.301 3.302 3.303 8.647-.001 11.95z"/><path d="m348.702 246.57c4.09 0 7.5-3.361 7.5-7.5 0-4.262-3.477-7.5-7.505-7.5-4.095 0-7.505 3.322-7.505 7.5.001 4.445 3.689 7.5 7.51 7.5z"/><path d="m197.923 242.481c0-4.084-3.318-7.496-7.478-7.496-4.143 0-7.522 3.335-7.522 7.496 0 4.141 3.37 7.5 7.5 7.5 4.205 0 7.5-3.43 7.5-7.5z"/><path d="m202.582 379.72c4.195 0 7.5-3.442 7.5-7.5 0-4.288-3.526-7.5-7.505-7.5-4.266 0-7.505 3.503-7.505 7.5 0 4.008 3.253 7.5 7.51 7.5z"/><path d="m72.44 382.073c-4.109 0-7.487 3.323-7.487 7.497 0 4.389 3.599 7.5 7.5 7.5 4.106 0 7.5-3.337 7.5-7.5-.001-3.976-3.178-7.497-7.513-7.497z"/><path d="m261.173 140.671c4.168 0 7.51-3.4 7.51-7.5 0-4.028-3.295-7.5-7.505-7.5-4.071 0-7.505 3.328-7.505 7.5 0 4.054 3.287 7.5 7.5 7.5z"/></g></svg>