<?xml version="1.0" encoding="UTF-8"?>
<svg xmlns="http://www.w3.org/2000/svg" viewBox="0 0 64 64" width="512" height="512"><g id="Layer_25" data-name="Layer 25"><path d="M62.142,23.01l-6.482-.926L51.9,14.553a.979.979,0,0,0-.966-.55,1,1,0,0,0-.877.681l-.614,1.84a8.531,8.531,0,0,0,.231,6.01l-5.43,2.633.731-2.925a1,1,0,0,0-1.485-1.1,15.835,15.835,0,0,0-6.455,7.519l-.379.184A40.975,40.975,0,0,0,28,34.494V31a1,1,0,0,0-1.6-.8l-1.825,1.37c-.014.011-.025.023-.039.034l-5.847-1.462-2.211-4.423c.093-.084.181-.172.277-.252l3.477,4.174a1,1,0,0,0,.933.345l6-1-.328-1.972-5.435.905-3-3.6L18.951,24a7.793,7.793,0,0,0,8.451-.6,91.516,91.516,0,0,1,15.217-9.589l1.828-.914a1,1,0,0,0-.557-1.889l-4.915.547,2.58-1.721a1,1,0,0,0-.413-1.822l-2.695-.385.03-.021A3.642,3.642,0,0,0,36.359,1,75.2,75.2,0,0,0,1.307,9.706l-.775.41.936,1.768.774-.41A73.187,73.187,0,0,1,36.359,3a1.642,1.642,0,0,1,.954,2.977l-1.764,1.26a35.35,35.35,0,0,0-13.225,1l-2.847.778a30.428,30.428,0,0,0-7.329,3.073A18.5,18.5,0,0,0,3,28.017,20.531,20.531,0,0,0,15.059,46.7l2.079,2.339A40.89,40.89,0,0,0,14.01,59.858a1,1,0,0,0,1.384,1.061l2.227-.954-1.328,1.328A1,1,0,0,0,17,63a1.02,1.02,0,0,0,.135-.009A41.661,41.661,0,0,0,39.212,52.855a18.045,18.045,0,0,0,9.1-3.823l.314-.252A1,1,0,0,0,48,47H44.65a41.977,41.977,0,0,0,3.883-6.111,15.86,15.86,0,0,0,7.324-6.374,1,1,0,0,0-1.1-1.485l-2.809.7L54.636,28h.122a11.169,11.169,0,0,0,7.949-3.293,1,1,0,0,0-.565-1.7ZM42.354,24.465l-.46,1.839-1.841.892A13.862,13.862,0,0,1,42.354,24.465ZM25.774,33.17,26,33v3.317q-.91.883-1.761,1.821a4.411,4.411,0,0,1,1.535-4.968ZM19.026,45.294l-.371-.531.729-.066C19.265,44.9,19.142,45.092,19.026,45.294Zm1.721-2.73-3.414.31L14.87,39.355a10.3,10.3,0,0,1-1.623-3.693L16.2,39.6a1,1,0,0,0,.8.4,1.046,1.046,0,0,0,.124-.008l5.435-.679c.041.094.075.191.121.283l.109.218C22.067,40.7,21.392,41.621,20.747,42.564ZM11.014,33.8a12.277,12.277,0,0,0,1.328,5.212l-3.317.51a18.5,18.5,0,0,1-3.747-8.37Zm11.024,3.562-4.586.573-4.366-5.82a10.332,10.332,0,0,1,.222-1.137l2.844,4.551A1,1,0,0,0,17,36h5.043a5.757,5.757,0,0,0,0,1.363Zm-4.28-5.393L23,33.281a6.566,6.566,0,0,0-.39.719H17.555L14.2,28.635a10.494,10.494,0,0,1,.826-1.343l2.078,4.155A1,1,0,0,0,17.758,31.97Zm.8-19.25L18.8,11.3c.4-.128.8-.247,1.206-.358l2.848-.777a33.3,33.3,0,0,1,13.41-.835l2.007.286-3.553,2.369a2,2,0,1,0,.028,1.972,1,1,0,0,0,.367.034l3.607-.4A93.473,93.473,0,0,0,26.174,21.82,5.631,5.631,0,0,1,22.734,23a5.566,5.566,0,0,1-3.961-1.641A2.622,2.622,0,0,1,18,19.492,41.22,41.22,0,0,1,18.561,12.72Zm-5.4,1.1a28.37,28.37,0,0,1,3.482-1.723l-.05.3a43.327,43.327,0,0,0-.588,7.1,4.6,4.6,0,0,0,1.264,3.183l-.27.162a12.2,12.2,0,0,0-2.21,1.723L9.032,17.241A16.373,16.373,0,0,1,13.156,13.816ZM7.781,18.885l5.654,7.2a12.428,12.428,0,0,0-2.3,5.574L5.031,28.836C5.019,28.563,5,28.292,5,28.017A16.456,16.456,0,0,1,7.781,18.885ZM10.637,41.3l2.845-.437,2.99,4.27A18.44,18.44,0,0,1,10.637,41.3ZM44.775,49a16.012,16.012,0,0,1-2.827,1.216c.369-.394.72-.807,1.075-1.216Zm7.76-13.354a13.879,13.879,0,0,1-2.491,2.15l.81-1.73ZM54.758,26H54a1,1,0,0,0-.905.575l-5.576,11.9A39.681,39.681,0,0,1,31.87,55.763a14.573,14.573,0,0,0-4.163-8.47l-1.414,1.414a12.583,12.583,0,0,1,3.666,8.124,39.8,39.8,0,0,1-10.012,3.636l2.76-2.76A1,1,0,0,0,22,56a.989.989,0,0,0-.394.081l-5.32,2.279A38.839,38.839,0,0,1,37.524,30.645L51.437,23.9a1,1,0,0,0,.458-1.346l-.206-.41A6.534,6.534,0,0,1,51.2,17.63l2.908,5.817a1,1,0,0,0,.753.543l4.7.671A9.182,9.182,0,0,1,54.758,26Z"/><circle cx="22" cy="52" r="2"/></g></svg>
