<svg height="512" viewBox="0 0 64 64" width="512" xmlns="http://www.w3.org/2000/svg"><g id="pharmacy-drug-drugstore-shop-store"><path d="m29 16v3a1 1 0 0 0 1 1h4a1 1 0 0 0 1-1v-3h3a1 1 0 0 0 1-1v-4a1 1 0 0 0 -1-1h-3v-3a1 1 0 0 0 -1-1h-4a1 1 0 0 0 -1 1v3h-3a1 1 0 0 0 -1 1v4a1 1 0 0 0 1 1zm-2-4h3a1 1 0 0 0 1-1v-3h2v3a1 1 0 0 0 1 1h3v2h-3a1 1 0 0 0 -1 1v3h-2v-3a1 1 0 0 0 -1-1h-3z"/><path d="m61 17a1 1 0 0 0 1-1v-6a1 1 0 0 0 -1-1h-18.76a10.99 10.99 0 0 0 -20.48 0h-18.76a1 1 0 0 0 -1 1v6a1 1 0 0 0 1 1h1v39h-1a1 1 0 0 0 -1 1v4a1 1 0 0 0 1 1h58a1 1 0 0 0 1-1v-4a1 1 0 0 0 -1-1h-1v-39zm-29-13a9 9 0 1 1 -9 9 9.014 9.014 0 0 1 9-9zm0 20a11.025 11.025 0 0 0 10.24-7h15.76v39h-12v-27a1 1 0 0 0 -1-1h-26a1 1 0 0 0 -1 1v27h-12v-39h15.76a11.025 11.025 0 0 0 10.24 7zm12 6v26h-11v-26zm-13 0v26h-11v-26zm-27-19h17.19a10.621 10.621 0 0 0 0 4h-17.19zm56 49h-56v-2h56zm-17.19-45a10.621 10.621 0 0 0 0-4h17.19v4z"/><path d="m27 42h2v2h-2z"/><path d="m35 42h2v2h-2z"/></g></svg>