<svg id="Layer_1" enable-background="new 0 0 512 512" viewBox="0 0 512 512" xmlns="http://www.w3.org/2000/svg"><path d="m410.166 462.97c0 3.822-3.099 6.919-6.919 6.919h-294.6c-3.822 0-6.919-3.097-6.919-6.919s3.097-6.919 6.919-6.919h294.601c3.819 0 6.918 3.097 6.918 6.919zm101.42-226.975c-13.55 37.478-44.446 61.694-78.708 61.694-34.266 0-65.158-24.216-78.703-61.696-.635-1.746-.536-3.673.27-5.349l64.317-133.835c-5.03 1.255-9.997 1.823-14.902 1.823-14.5 0-28.496-4.676-42.225-9.261-21.866-7.301-42.573-14.162-64.603-1.801-1.863 18.521-16.029 33.427-34.168 36.506v216.491c46.873 2.541 88.615 30.654 107.595 73.172.955 2.14.761 4.619-.514 6.586-1.279 1.966-3.464 3.153-5.806 3.153h-216.386c-2.345 0-4.529-1.187-5.804-3.153-1.277-1.966-1.468-4.446-.514-6.586 18.977-42.517 60.722-70.63 107.593-73.171v-216.493c-18.16-3.083-32.331-18.019-34.169-36.568-21.995-12.28-42.662-5.427-64.494 1.864-13.728 4.586-27.728 9.261-42.225 9.261-4.907 0-9.873-.567-14.902-1.823l64.319 133.835c.804 1.676.901 3.604.27 5.349-13.55 37.48-44.444 61.696-78.708 61.696-34.266 0-65.16-24.216-78.708-61.696-.631-1.746-.534-3.673.27-5.349l72.201-150.235c.961-1.996 2.89-3.444 5.075-3.817 2.322-.396 4.107.557 6.045 1.667 20.579 11.823 39.797 5.395 61.979-2.012 21.179-7.078 44.888-14.939 70.137-3.583 4.746-17.57 20.778-30.553 39.828-30.553 19.063 0 35.108 13.005 39.84 30.597 25.282-11.418 49.024-3.548 70.231 3.538 21.962 7.337 41.034 13.712 61.399 2.352 2.177-1.214 4.362-2.489 6.955-1.959 2.068.422 3.833 1.875 4.741 3.769 0 0 72.203 150.235 72.203 150.235.807 1.677.906 3.605.271 5.352zm-493.667-9.272h122.401l-61.201-127.343zm122.964 13.838h-123.529c12.853 26.584 36.255 43.291 61.765 43.291 25.508 0 48.909-16.707 61.764-43.291zm115.064 113.593c-40.464 0-77.399 21.457-96.924 55.485h193.846c-19.523-34.028-56.456-55.485-96.922-55.485zm27.457-270.747c0-15.14-12.315-27.457-27.457-27.457-15.14 0-27.457 12.318-27.457 27.457s12.318 27.457 27.457 27.457c15.142 0 27.457-12.318 27.457-27.457zm149.474 15.973-61.198 127.343h122.402zm61.766 141.181h-123.528c12.854 26.584 36.254 43.291 61.762 43.291s48.911-16.707 61.766-43.291z"/></svg>