<svg height="512pt" viewBox="0 -54 512 511" width="512pt" xmlns="http://www.w3.org/2000/svg"><path d="m319.820312 283.09375c0-.304688.101563-.863281.304688-1.679688l28.40625-93.160156c.8125-2.546875 2.671875-4.507812 5.574219-5.882812 2.902343-1.375 6.234375-2.0625 10.003906-2.0625 3.765625 0 7.101563.6875 10.003906 2.0625 2.902344 1.375 4.757813 3.335937 5.574219 5.882812l28.558594 93.160156c.203125.816407.308594 1.375.308594 1.679688 0 2.648438-1.65625 4.941406-4.964844 6.875s-6.746094 2.898438-10.308594 2.898438c-4.378906 0-6.976562-1.472657-7.789062-4.425782l-5.191407-19.089844h-32.226562l-5.191407 19.089844c-.816406 2.953125-3.414062 4.425782-7.789062 4.425782-3.566406 0-7.003906-.964844-10.3125-2.898438s-4.960938-4.226562-4.960938-6.875zm33.140626-32.070312h22.296874l-11.148437-40.929688zm0 0"/><path d="m439.285156 123.328125h-102.105468v-50.113281c0-40.09375-32.617188-72.714844-72.714844-72.714844h-191.75c-40.09375 0-72.714844 32.621094-72.714844 72.714844v85.367187c0 39.546875 31.730469 71.820313 71.074219 72.699219-.261719 8.292969-1.1875 17.53125-2.769531 27.59375-1.070313 6.792969 1.457031 13.46875 6.753906 17.859375 3.554687 2.945313 7.886718 4.476563 12.3125 4.476563 2.203125 0 4.429687-.382813 6.597656-1.15625 14.414062-5.152344 39.488281-18.183594 52.417969-48.757813h72.0625v50.117187c0 40.09375 32.621093 72.714844 72.714843 72.714844h74.449219c12.933594 30.574219 38.003907 43.601563 52.421875 48.757813 2.164063.773437 4.390625 1.152343 6.59375 1.152343 4.425782 0 8.757813-1.53125 12.3125-4.476562 5.300782-4.386719 7.824219-11.066406 6.753906-17.859375-1.582031-10.058594-2.507812-19.300781-2.769531-27.59375 39.34375-.875 71.074219-33.148437 71.074219-72.695313v-85.367187c0-40.097656-32.621094-72.71875-72.714844-72.71875zm52.714844 158.082031c0 29.070313-23.648438 52.71875-52.714844 52.71875h-8.339844c-5.375 0-9.789062 4.25-9.992187 9.625-.433594 11.546875.511719 24.976563 2.8125 39.933594-14.558594-5.425781-33.230469-17.214844-41.765625-42.730469-1.363281-4.078125-5.183594-6.828125-9.480469-6.828125h-81.355469c-29.066406 0-52.714843-23.648437-52.714843-52.71875v-60.101562c0-.003906 0-.007813 0-.011719s0-.007813 0-.011719v-25.242187c0-8.964844 2.289062-17.816407 6.617187-25.59375 2.6875-4.828125.953125-10.914063-3.875-13.601563-4.824218-2.6875-10.914062-.949218-13.601562 3.875-5.980469 10.746094-9.140625 22.957032-9.140625 35.320313v15.253906h-78.96875c-4.300781 0-8.121094 2.75-9.484375 6.828125-8.53125 25.515625-27.203125 37.308594-41.761719 42.730469 2.296875-14.957031 3.242187-28.386719 2.8125-39.933594-.203125-5.375-4.617187-9.625-9.996094-9.625h-8.335937c-29.066406 0-52.714844-23.648437-52.714844-52.714844v-85.367187c0-29.066406 23.648438-52.714844 52.714844-52.714844h191.75c29.066406 0 52.714844 23.648438 52.714844 52.714844v50.117187h-14.179688c-5.523438 0-10 4.476563-10 10 0 5.523438 4.476562 10 10 10h136.285156c29.066406 0 52.714844 23.648438 52.714844 52.714844zm0 0"/><path d="m207.601562 82.984375c5.523438 0 10-4.476563 10-10s-4.476562-10-10-10h-38.148437v-14.964844c0-5.523437-4.476563-10-10-10-5.519531 0-10 4.476563-10 10v14.964844h-38.144531c-5.523438 0-10 4.476563-10 10s4.476562 10 10 10h66.28125c-1.894532 8.324219-6.570313 21.765625-18.09375 36.902344-5.546875-7.285157-9.449219-14.078125-12.179688-19.929688-2.335937-5.003906-8.289062-7.167969-13.292968-4.828125-5.003907 2.335938-7.167969 8.285156-4.832032 13.289063 3.617188 7.746093 8.953125 16.890625 16.78125 26.617187-9.613281 9.304688-22.027344 18.804688-38.074218 27.816406-4.816407 2.703126-6.527344 8.796876-3.824219 13.613282 1.832031 3.269531 5.230469 5.105468 8.730469 5.105468 1.65625 0 3.335937-.410156 4.882812-1.28125 17.402344-9.769531 31.070312-20.171874 41.8125-30.503906 10.652344 10.265625 24.28125 20.71875 41.71875 30.503906 1.550781.871094 3.230469 1.28125 4.886719 1.28125 3.496093 0 6.894531-1.835937 8.730469-5.105468 2.703124-4.816406.988281-10.910156-3.824219-13.613282-16.0625-9.015624-28.4375-18.542968-37.992188-27.804687 17.308594-21.535156 23.039063-41.183594 24.925781-52.0625zm0 0"/><path d="m262.734375 130.140625h-.023437c-5.519532 0-9.988282 4.476563-9.988282 10s4.492188 10 10.011719 10c5.523437 0 10-4.476563 10-10s-4.476563-10-10-10zm0 0"/></svg>