<?xml version="1.0" encoding="UTF-8"?>
<svg xmlns="http://www.w3.org/2000/svg" xmlns:xlink="http://www.w3.org/1999/xlink" version="1.1" id="Capa_1" x="0px" y="0px" viewBox="0 0 512 512" style="enable-background:new 0 0 512 512;" xml:space="preserve" width="512" height="512">
<g>
	<path style="fill:none;stroke:#000000;stroke-width:15;stroke-linecap:round;stroke-linejoin:round;stroke-miterlimit:10;" d="&#10;&#9;&#9;M44.117,54.647L18.296,71.164C7.413,78.125,4.228,92.6,11.182,103.494L42.398,152.4c6.954,10.894,21.413,14.083,32.295,7.122&#10;&#9;&#9;l43.129-27.588V310.64c0,12.928,10.469,23.409,23.384,23.409h229.59c12.914,0,23.384-10.481,23.384-23.409V131.934l43.128,27.588&#10;&#9;&#9;c10.883,6.961,25.342,3.773,32.295-7.122l31.216-48.906c6.954-10.894,3.769-25.369-7.114-32.33L418.1,22.802&#10;&#9;&#9;C402.479,12.81,384.329,7.5,365.791,7.5H146.209c-18.537,0-36.688,5.309-52.309,15.302L73.631,35.768"/>
	<path style="fill:none;stroke:#000000;stroke-width:15;stroke-linecap:round;stroke-linejoin:round;stroke-miterlimit:10;" d="&#10;&#9;&#9;M330.609,226.815c0,41.25-33.404,59.917-74.609,59.917s-74.609-18.666-74.609-59.917s33.404-74.69,74.609-74.69&#10;&#9;&#9;S330.609,185.565,330.609,226.815z"/>
	
		<line style="fill:none;stroke:#000000;stroke-width:15;stroke-linecap:round;stroke-linejoin:round;stroke-miterlimit:10;" x1="215.101" y1="218.805" x2="215.101" y2="226.672"/>
	
		<line style="fill:none;stroke:#000000;stroke-width:15;stroke-linecap:round;stroke-linejoin:round;stroke-miterlimit:10;" x1="296.899" y1="218.805" x2="296.899" y2="226.672"/>
	<path style="fill:none;stroke:#000000;stroke-width:15;stroke-linecap:round;stroke-linejoin:round;stroke-miterlimit:10;" d="&#10;&#9;&#9;M245.217,226.438c2.622,3.012,6.479,4.918,10.783,4.918s8.161-1.906,10.783-4.918"/>
	<path style="fill:none;stroke:#000000;stroke-width:15;stroke-linecap:round;stroke-linejoin:round;stroke-miterlimit:10;" d="&#10;&#9;&#9;M195.573,7.5c0,33.409,27.054,60.493,60.427,60.493c33.373,0,60.427-27.083,60.427-60.493"/>
	<path style="fill:none;stroke:#000000;stroke-width:15;stroke-linecap:round;stroke-linejoin:round;stroke-miterlimit:10;" d="&#10;&#9;&#9;M199.886,334.049l-35.314,114.943c-3.604,11.73,2.974,24.164,14.691,27.772l86.872,26.748c11.718,3.608,24.138-2.977,27.742-14.707&#10;&#9;&#9;l32.128-104.574c2.435-7.925,13.64-7.925,16.075,0l32.128,104.574c3.604,11.73,16.024,18.315,27.742,14.707l86.872-26.748&#10;&#9;&#9;c11.718-3.608,18.295-16.042,14.691-27.772l-9.494-30.901"/>
	
		<line style="fill:none;stroke:#000000;stroke-width:15;stroke-linecap:round;stroke-linejoin:round;stroke-miterlimit:10;" x1="483.741" y1="384.634" x2="444.116" y2="255.662"/>
	<path style="fill:none;stroke:#000000;stroke-width:15;stroke-linecap:round;stroke-linejoin:round;stroke-miterlimit:10;" d="&#10;&#9;&#9;M393.504,316.225c9.58,10.346,23.265,16.827,38.468,16.827h35.92"/>
	<path style="fill:none;stroke:#000000;stroke-width:15;stroke-linecap:round;stroke-linejoin:round;stroke-miterlimit:10;" d="&#10;&#9;&#9;M394.179,255.662h49.938v-29.11c0-9.268-7.513-16.782-16.782-16.782h-33.156"/>
	<path style="fill:none;stroke:#000000;stroke-width:15;stroke-linecap:round;stroke-linejoin:round;stroke-miterlimit:10;" d="&#10;&#9;&#9;M234.886,155.178c-1.941-18.885-17.881-33.616-37.259-33.616c-20.688,0-37.458,16.789-37.458,37.499&#10;&#9;&#9;c0,17.492,11.964,32.186,28.147,36.33"/>
	<path style="fill:none;stroke:#000000;stroke-width:15;stroke-linecap:round;stroke-linejoin:round;stroke-miterlimit:10;" d="&#10;&#9;&#9;M323.684,195.391c16.183-4.144,28.147-18.838,28.147-36.33c0-20.71-16.771-37.499-37.458-37.499&#10;&#9;&#9;c-19.378,0-35.318,14.731-37.258,33.616"/>
</g>















</svg>
