<svg id="Layer_1" enable-background="new 0 0 512 512" height="512" viewBox="0 0 512 512" width="512" xmlns="http://www.w3.org/2000/svg"><path d="m434.814 453.901c-19.826-70.214-45.604-134.647-72.897-202.864-6.203-15.505-12.613-31.527-18.877-47.453l-4.591-29.51 4.83-44.438 17.851 21.483c1.497 1.801 3.708 2.855 6.049 2.886.035.001.07.001.104.001 2.304 0 4.498-.993 6.018-2.729l38.879-44.384c2.523-2.881 2.651-7.146.305-10.173l-72.288-93.24c-1.5-1.935-3.803-3.076-6.251-3.099h-155.891c-2.448.022-4.751 1.164-6.251 3.099l-72.288 93.24c-2.347 3.026-2.219 7.292.305 10.173l38.885 44.391c1.52 1.735 3.714 2.729 6.018 2.729.034 0 .07 0 .104-.001 2.342-.03 4.553-1.086 6.05-2.888l17.845-21.482 4.829 44.432-4.591 29.51c-6.263 15.923-12.672 31.942-18.874 47.444-27.294 68.22-53.073 132.656-72.9 202.873-.604 2.141-.29 4.437.867 6.336s3.053 3.231 5.232 3.676l56.914 11.617-2.299 8.926c-.547 2.123-.198 4.378.964 6.236 1.161 1.859 3.035 3.16 5.184 3.599l6.463 1.319c52.253 10.672 78.87 16.008 105.49 16.008 26.62-.001 53.244-5.337 105.502-16.011l6.449-1.316c2.148-.438 4.022-1.739 5.184-3.599 1.162-1.858 1.511-4.113.964-6.236l-2.299-8.926 56.915-11.616c2.18-.444 4.075-1.776 5.232-3.676s1.47-4.196.865-6.337zm-246.344-271.641h135.06l2.4 15.429h-139.86zm105.586-166.234c-3.883 5.2-7.157 10.259-9.753 15.132-11.251 2.271-20.194 6.707-26.736 13.249-6.541-6.542-15.485-10.978-26.736-13.249-2.602-4.883-5.883-9.951-9.774-15.16zm-125.577 88.867-23.919 28.796-28.359-32.376 65.872-84.965 18.557-.167c8.011 9.168 13.939 17.762 17.627 25.578 1.142 2.419 3.417 4.107 6.063 4.499 13.169 1.952 21.74 6.934 26.201 15.23 1.395 2.594 4.102 4.211 7.046 4.211s5.651-1.617 7.046-4.211c4.461-8.296 13.032-13.278 26.202-15.23 2.646-.392 4.921-2.08 6.063-4.5 3.682-7.804 9.601-16.389 17.602-25.549l15.448.139 65.872 84.965-28.355 32.37-23.924-28.792c-2.053-2.471-5.384-3.475-8.46-2.547-3.076.927-5.3 3.603-5.646 6.796l-6.209 57.12h-134.41l-6.209-57.12c-.347-3.193-2.571-5.87-5.646-6.796-3.077-.928-6.41.078-8.462 2.549zm199.325 355.123-52.935-205.481c-1.103-4.278-5.462-6.855-9.743-5.751-4.278 1.103-6.854 5.464-5.751 9.743l57.131 221.771c-99.919 20.408-101.097 20.405-201.012 0l57.131-221.771c1.103-4.279-1.473-8.641-5.751-9.743-4.281-1.104-8.641 1.473-9.743 5.751l-52.935 205.481-49.238-10.05c19.271-66.238 43.934-127.885 69.983-192.994 5.66-14.147 11.488-28.725 17.23-43.283h147.657c5.744 14.561 11.572 29.143 17.234 43.292 26.048 65.107 50.71 126.75 69.979 192.985z"/></svg>