<?xml version="1.0" encoding="iso-8859-1"?>
<!-- Generator: Adobe Illustrator 19.0.0, SVG Export Plug-In . SVG Version: 6.00 Build 0)  -->
<svg version="1.1" id="Capa_1" xmlns="http://www.w3.org/2000/svg" xmlns:xlink="http://www.w3.org/1999/xlink" x="0px" y="0px"
	 viewBox="0 0 511.92 511.92" style="enable-background:new 0 0 511.92 511.92;" xml:space="preserve">
<g>
	<g>
		<g>
			<path d="M477.792,76.549c-0.014-0.667-0.222-1.283-0.387-1.919c-0.116-0.446-0.136-0.922-0.319-1.337
				c-0.214-0.487-0.585-0.875-0.886-1.315c-0.317-0.46-0.565-0.966-0.964-1.355c-0.32-0.314-0.754-0.497-1.127-0.76
				c-0.54-0.38-1.044-0.793-1.665-1.041c-0.057-0.023-0.093-0.072-0.151-0.094l-66.547-24.955L364.393,2.42
				c-0.299-0.299-0.684-0.428-1.013-0.673c-0.472-0.353-0.917-0.713-1.441-0.957c-0.485-0.227-0.981-0.334-1.493-0.464
				c-0.552-0.141-1.079-0.291-1.646-0.32c-0.527-0.027-1.027,0.061-1.549,0.131c-0.562,0.074-1.104,0.133-1.647,0.321
				c-0.523,0.179-0.982,0.479-1.469,0.763c-0.369,0.215-0.781,0.307-1.124,0.584c-53.517,43.033-140.583,43.033-194.1,0
				c-0.34-0.273-0.747-0.364-1.112-0.576c-0.495-0.289-0.962-0.592-1.493-0.773c-0.524-0.18-1.046-0.235-1.587-0.309
				c-0.546-0.076-1.069-0.166-1.619-0.136c-0.543,0.03-1.046,0.175-1.575,0.307c-0.534,0.132-1.051,0.245-1.557,0.482
				c-0.513,0.24-0.947,0.593-1.41,0.937c-0.335,0.249-0.727,0.38-1.031,0.684l-41.353,41.353L39.626,68.728
				c-0.058,0.022-0.094,0.071-0.151,0.094c-0.62,0.247-1.123,0.66-1.661,1.039c-0.373,0.263-0.809,0.448-1.13,0.762
				c-0.397,0.387-0.643,0.89-0.959,1.348c-0.303,0.442-0.676,0.833-0.891,1.323c-0.182,0.412-0.202,0.884-0.317,1.327
				c-0.166,0.64-0.375,1.258-0.389,1.928c-0.001,0.06-0.034,0.11-0.034,0.17v426.667c0,4.713,3.817,8.533,8.533,8.533h426.667
				c4.717,0,8.533-3.821,8.533-8.533V76.72C477.827,76.659,477.793,76.61,477.792,76.549z M366.156,28.316l24.229,24.229
				L330.568,157.22l-61.232-54.427L366.156,28.316z M145.763,28.316l96.82,74.477l-61.232,54.427L121.535,52.545L145.763,28.316z
				 M247.426,494.853H51.16V82.636l55.93-20.974l64.661,113.157c1.275,2.233,3.492,3.771,6.025,4.188
				c0.467,0.075,0.925,0.113,1.383,0.113c2.075,0,4.092-0.758,5.667-2.154l62.6-55.644V494.853z M184.77,36.794
				c22.196,9.417,46.691,14.138,71.19,14.138c24.498,0,48.993-4.721,71.19-14.138l-71.19,54.759L184.77,36.794z M460.76,494.853
				H264.493V121.321l62.6,55.644c1.575,1.396,3.592,2.154,5.667,2.154c0.458,0,0.917-0.037,1.383-0.112
				c2.533-0.417,4.75-1.954,6.025-4.187L404.83,61.662l55.93,20.974V494.853z"/>
			<path d="M307.16,247.386v76.8c0,2.854,1.425,5.517,3.8,7.1l51.2,34.133c1.433,0.954,3.083,1.433,4.733,1.433
				s3.3-0.479,4.733-1.433l51.2-34.133c2.375-1.583,3.8-4.246,3.8-7.1v-76.8c0-4.713-3.817-8.533-8.533-8.533h-102.4
				C310.977,238.853,307.16,242.674,307.16,247.386z M324.226,255.92h85.333v63.7l-42.667,28.446l-42.667-28.446V255.92z"/>
			<path d="M204.76,230.32c2.217,0,4.433-0.942,6.058-2.475c1.533-1.621,2.475-3.842,2.475-6.058c0-2.304-0.942-4.438-2.475-6.058
				c-3.158-3.158-8.958-3.158-12.117,0c-1.542,1.621-2.475,3.754-2.475,6.058c0,2.217,0.933,4.438,2.475,6.058
				C200.318,229.465,202.543,230.32,204.76,230.32z"/>
			<path d="M204.76,298.586c2.3,0,4.433-0.942,6.058-2.475c1.533-1.621,2.475-3.842,2.475-6.058c0-2.304-0.942-4.438-2.475-6.058
				c-3.158-3.158-8.958-3.158-12.117,0c-1.542,1.621-2.475,3.754-2.475,6.058c0,2.217,0.933,4.438,2.475,6.058
				C200.318,297.645,202.543,298.586,204.76,298.586z"/>
			<path d="M204.76,366.853c2.3,0,4.433-0.942,6.058-2.475c1.533-1.621,2.475-3.842,2.475-6.058c0-2.304-0.942-4.438-2.475-6.058
				c-3.158-3.158-8.958-3.158-12.117,0c-1.542,1.621-2.475,3.754-2.475,6.058c0,2.217,0.933,4.438,2.475,6.058
				C200.318,365.911,202.543,366.853,204.76,366.853z"/>
			<path d="M204.76,435.12c2.3,0,4.433-0.942,6.058-2.475c1.533-1.621,2.475-3.842,2.475-6.058c0-2.221-0.942-4.438-2.475-6.058
				c-3.158-3.158-8.875-3.158-12.117,0c-1.542,1.621-2.475,3.838-2.475,6.058c0,2.217,0.933,4.438,2.475,6.058
				C200.318,434.178,202.543,435.12,204.76,435.12z"/>
		</g>
	</g>
</g>
<g>
</g>
<g>
</g>
<g>
</g>
<g>
</g>
<g>
</g>
<g>
</g>
<g>
</g>
<g>
</g>
<g>
</g>
<g>
</g>
<g>
</g>
<g>
</g>
<g>
</g>
<g>
</g>
<g>
</g>
</svg>
