<svg height="512" viewBox="0 0 61 60" width="512" xmlns="http://www.w3.org/2000/svg"><g id="Page-1" fill="none" fill-rule="evenodd"><g id="023---Bag-and-Shoe-Shopping" fill="rgb(0,0,0)" fill-rule="nonzero"><path id="Shape" d="m1.859 11.854c-.54449067.3707993-.8699398.9872426-.869 1.646.01 7.969.919 26.5 9.01 26.5h20.34c.5522847 0 1-.4477153 1-1s-.4477153-1-1-1h-20.34c-5.143 0-6.99-13.2-7.015-24.489 4.83358537 1.7596463 9.8856505 2.8481199 15.015 3.235v8.254c0 2.209139 1.790861 4 4 4h4c2.209139 0 4-1.790861 4-4v-8.254c5.1310854-.375355 10.1838935-1.4704106 15.01-3.253-.01 1.519-.044 3.841-.218 6.461-.0235796.3572656.145231.6999722.4428423.8990255.2976113.1990532.6788092.2242123 1 .066.3211909-.1582124.5335782-.4757599.5571577-.8330255.177-2.672.212-5.035.222-6.586.000567-.6598569-.325989-1.2770849-.8718286-1.6478552s-1.2399717-.4468611-1.8531714-.2031448c-2.2786918.866167-4.6245455 1.5441034-7.014 2.027-1.875-8.098-7.228-13.676-13.275-13.676s-11.4 5.578-13.271 13.676c-2.38868003-.4829513-4.73383792-1.1605454-7.012-2.026-.61496679-.2433944-1.31049409-.1670287-1.858.204zm22.141-9.854c2.194 0 4.861 4.758 5.721 12.764-1.774.148-3.681.236-5.721.236s-3.947-.088-5.721-.236c.86-8.006 3.527-12.764 5.721-12.764zm4 23c0 1.1045695-.8954305 2-2 2h-4c-1.1045695 0-2-.8954305-2-2v-8.111c1.275.071 2.608.111 4 .111s2.725-.04 4-.111zm7.308-10.95c-1.114.194-2.312.37-3.595.516-.461-4.254-1.526-8.412-3.16-11.193 3.104 1.927 5.606 5.775 6.755 10.677zm-15.861-10.677c-1.634 2.781-2.7 6.939-3.16 11.193-1.283-.146-2.481-.322-3.6-.516 1.154-4.902 3.656-8.75 6.76-10.677z"/><path id="Shape" d="m13 34.006h-2.647c-.58030841-.8188376-1.00846979-1.7354552-1.264-2.706-.09919432-.3534809-.38410864-.6241836-.74219838-.7051774-.35808975-.0809937-.73176796.0407467-.97342726.3171324s-.31243673.662969-.18437436 1.007045c1.119 3.444 2.121 3.873 2.449 4.014.12463711.0528267.25862988.0800334.394.08h2.97c.5522847 0 1-.4477153 1-1s-.4477153-1-1-1z"/><path id="Shape" d="m22 23c0 .5522847.4477153 1 1 1h2c.5522847 0 1-.4477153 1-1s-.4477153-1-1-1h-2c-.5522847 0-1 .4477153-1 1z"/><path id="Shape" d="m51.989 18.38c-8.943 7.676-15.201 16.62-19.771 23.153-.713 1.02-1.389 1.986-2.032 2.886-4.346 6.085-10.353 1.945-10.6 1.768-.51-.366-1.389-.584-4.029.576-1.8122185.8084902-3.4589982 1.9456735-4.857 3.354-1.395 1.385-3.667 4.061-3.21 6.414.26348478 1.1777497 1.12554979 2.130918 2.271 2.511 1.9965867.7259053 4.1166035 1.0514344 6.239.958h14c4.928 0 6.383-2.552 9.025-7.184.969-1.7 2.174-3.811 3.807-6.261 1.4278754-2.1032641 3.1295004-4.006999 5.06-5.661 1.3843821 2.7755237 2.1059657 5.8343808 2.108 8.936v8.17c0 1.1045695.8954305 2 2 2h3c1.1045695 0 2-.8954305 2-2v-11.18c-.000709-1.7821931.2346717-3.5566273.7-5.277.894-3.29 2.277-8.3 2.291-8.453.719-7.91-2.082-12.423-3.816-14.409-1.0792276-1.2261835-2.9424417-1.3601604-4.186-.301zm3.786 22.639c-.5132025 1.8909924-.7737998 3.8416053-.775 5.801v11.18h-3v-8.17c-.0044398-3.5645655-.8732693-7.0748836-2.532-10.23 2.4881797-1.9118651 5.1786092-3.5449689 8.023-4.87zm2.278-8.719c-2.442.993-11.517 5.1-16.885 13.149-1.672 2.509-2.9 4.655-3.88 6.38-2.563 4.489-3.522 6.171-7.288 6.171h-14c-1.8545385.0874854-3.7085129-.1841592-5.46-.8-.959-.4-1.053-.889-1.084-1.049-.2-1.006.847-2.817 2.656-4.614 1.2214783-1.2340405 2.6606904-2.2314874 4.245-2.942.6830751-.3545529 1.4211176-.5912134 2.183-.7 1.3446805.8666424 2.8515408 1.4508102 4.429 1.717 2.445.387 5.966 0 8.844-4.032.647-.905 1.327-1.876 2.044-2.9 4.509-6.445 10.684-15.271 19.435-22.78.410066-.3504094 1.0256943-.3058309 1.381.1 1.48 1.691 3.842 5.511 3.38 12.3z"/><path id="Shape" d="m17.162 50.425c-1.3592139.6117394-2.5936233 1.4694862-3.641 2.53-.399628.3958106-.77403.8163032-1.121 1.259-.2193611.2822398-.2714859.6600679-.1367396.9911601.1347463.3310921.4358926.5651476.79.614.3541074.0488523.7073785-.0949203.9267396-.3771601.2946866-.375858.6129967-.7325791.953-1.068.8725764-.8869095 1.9015141-1.6049622 3.035-2.118.4810155-.2353671.6912394-.8078883.476835-1.2986065-.2144045-.4907182-.7773271-.7254364-1.276835-.5323935z"/></g></g></svg>