<?xml version="1.0" encoding="UTF-8"?>
<svg xmlns="http://www.w3.org/2000/svg" id="OBJECT" viewBox="0 0 512 512" width="512" height="512"><path d="M256,77.57a22.5,22.5,0,1,0-22.5-22.5A22.52,22.52,0,0,0,256,77.57Zm0-30a7.5,7.5,0,1,1-7.5,7.5A7.5,7.5,0,0,1,256,47.57Z"/><path d="M290.83,83a7.5,7.5,0,0,0-12.1.53l-22.08,33.12-23.5-33.29a7.5,7.5,0,0,0-12-.36l-38.41,48a19.35,19.35,0,0,0,15.12,31.44H314.12A19.35,19.35,0,0,0,329.24,131Zm27.22,62a4.23,4.23,0,0,1-3.93,2.47H197.88a4.35,4.35,0,0,1-3.4-7.07l32.17-40.22L247.73,130l-2.1,3.15a7.5,7.5,0,1,0,12.48,8.32l27.42-41.12,32,40A4.23,4.23,0,0,1,318.05,145Z"/><path d="M438.5,282.5v-55A7.5,7.5,0,0,0,431,220H333.5V195H366a27.54,27.54,0,0,0,27.5-27.5V27.5A27.54,27.54,0,0,0,366,0H146a27.54,27.54,0,0,0-27.5,27.5v140A27.54,27.54,0,0,0,146,195h32.5v25H81a7.5,7.5,0,0,0-7.5,7.5v55a42.53,42.53,0,0,0,25,38.71V497H81a7.5,7.5,0,0,0,0,15H431a7.5,7.5,0,0,0,0-15H413.5V321.21A42.53,42.53,0,0,0,438.5,282.5ZM396,310a27.54,27.54,0,0,1-27.5-27.5V265h55v17.5A27.54,27.54,0,0,1,396,310ZM158.5,265h55v17.5a27.5,27.5,0,0,1-55,0Zm70,0h55v17.5a27.5,27.5,0,0,1-55,0Zm70,0h55v17.5a27.5,27.5,0,0,1-55,0Zm20-45h-15V195h15Zm-30-25v25h-65V195Zm-155-27.5V27.5A12.52,12.52,0,0,1,146,15H366a12.52,12.52,0,0,1,12.5,12.5v140A12.52,12.52,0,0,1,366,180H146A12.52,12.52,0,0,1,133.5,167.5Zm60,27.5h15v25h-15Zm230,40v15H88.5V235Zm-335,47.5V265h55v17.5a27.5,27.5,0,0,1-55,0ZM218.5,497h-65V372h65Zm180,0h-165V364.5A7.5,7.5,0,0,0,226,357H146a7.5,7.5,0,0,0-7.5,7.5V497h-25V324.92c.83.05,1.66.08,2.5.08a42.48,42.48,0,0,0,35-18.42,42.46,42.46,0,0,0,70,0,42.46,42.46,0,0,0,70,0,42.46,42.46,0,0,0,70,0A42.48,42.48,0,0,0,396,325c.84,0,1.67,0,2.5-.08Z"/><path d="M376,357H266a7.5,7.5,0,0,0-7.5,7.5v80A7.5,7.5,0,0,0,266,452H376a7.5,7.5,0,0,0,7.5-7.5v-80A7.5,7.5,0,0,0,376,357Zm-7.5,15v35h-95V372Zm-95,65V422h95v15Z"/><path d="M356,30H346a7.5,7.5,0,0,0,0,15h10a7.5,7.5,0,0,0,0-15Z"/><path d="M166,30H156a7.5,7.5,0,0,0,0,15h10a7.5,7.5,0,0,0,0-15Z"/><path d="M206,457a7.5,7.5,0,0,0,7.5-7.5v-30a7.5,7.5,0,0,0-15,0v30A7.5,7.5,0,0,0,206,457Z"/></svg>
