<?xml version="1.0" encoding="UTF-8"?>
<svg xmlns="http://www.w3.org/2000/svg" version="1.1" viewBox="0 0 48 48">
  <defs>
    <style>
      .cls-1 {
        fill-rule: evenodd;
      }

      .cls-1, .cls-2 {
        fill: #fff;
      }

      .cls-3 {
        fill: #4b5d9e;
      }

      .cls-4 {
        fill: #21438f;
      }

      .cls-5 {
        fill: #f68e20;
      }
    </style>
  </defs>
  <!-- Generator: Adobe Illustrator 28.7.1, SVG Export Plug-In . SVG Version: 1.2.0 Build 142)  -->
  <g>
    <g id="Layer_1">
      <g>
        <rect class="cls-4" y="14.72" width="48" height="18.56"/>
        <g>
          <path class="cls-5" d="M24.59,23.19l.4,3.7.37.48h.76l.58-4.27v4.08h1.38v-6.05h-2.06l-.36,2.82-.22-1.54c-.06-.49-.13-.92-.19-1.29h-2.04v3.5l1.38,1.75v-3.19Z"/>
          <path class="cls-5" d="M31.65,26.71c.15-.2.24-.39.27-.57.03-.19.05-.51.05-.97v-4.04h-1.58v4.45c0,.3-.01.49-.04.57-.03.08-.09.12-.19.12-.09,0-.15-.04-.17-.11-.03-.07-.04-.24-.04-.51v-4.53h-1.58v3.58c0,.68.01,1.13.04,1.34.02.21.11.42.24.61.14.19.35.35.62.47.28.12.6.18.96.18.33,0,.61-.05.85-.15.24-.1.44-.25.58-.44"/>
          <path class="cls-5" d="M35.7,25.63c0-.59-.09-1.02-.27-1.29-.18-.27-.63-.61-1.33-1.02-.25-.14-.39-.27-.45-.37-.05-.1-.08-.25-.08-.46,0-.16.02-.27.07-.35.05-.08.12-.12.22-.12.09,0,.15.03.19.09.04.06.06.19.06.4v.45h1.47v-.24c0-.48-.05-.82-.14-1.02-.09-.2-.29-.37-.57-.5-.29-.13-.64-.2-1.05-.2-.38,0-.7.06-.96.18-.27.12-.46.29-.58.5-.12.21-.18.55-.18,1.02,0,.32.04.59.13.79.08.21.19.37.32.49.13.12.39.3.78.56.39.26.64.44.74.55.1.11.15.34.15.7,0,.16-.03.28-.08.37-.05.08-.13.12-.23.12s-.18-.03-.22-.1c-.04-.06-.06-.21-.06-.44v-.74h-1.47v.4c0,.45.05.8.14,1.05.09.25.29.45.59.61.3.16.66.24,1.08.24.39,0,.72-.07,1.01-.21.29-.14.49-.31.59-.51.1-.2.15-.52.15-.95"/>
          <path class="cls-5" d="M38.82,27.01c.3-.2.5-.43.59-.69.09-.26.13-.71.13-1.33v-.24h-1.58v.76c0,.33-.02.54-.05.63-.04.09-.11.13-.23.13s-.2-.04-.24-.13c-.04-.09-.05-.28-.05-.58v-2.81c0-.31.02-.51.05-.6.03-.09.12-.14.25-.14.12,0,.19.04.22.11.03.08.05.27.05.57v1.05h1.58v-.57c0-.56-.05-.98-.14-1.25-.1-.27-.29-.49-.6-.67-.3-.18-.69-.27-1.15-.27-.34,0-.65.06-.91.17-.26.12-.47.27-.62.48-.15.2-.24.41-.27.63-.03.22-.05.54-.05.98v1.77c0,.59.05,1.04.15,1.33.1.3.3.53.6.69.3.17.68.25,1.14.25s.82-.1,1.12-.3"/>
          <polygon class="cls-5" points="42.3 25.97 41.34 25.97 41.34 21.13 39.76 21.13 39.76 27.18 42.3 27.18 42.3 25.97"/>
          <polygon class="cls-5" points="45.16 25.97 44 25.97 44 24.64 44.99 24.64 44.99 23.49 44 23.49 44 22.34 45.06 22.34 45.06 21.13 42.42 21.13 42.42 27.18 45.16 27.18 45.16 25.97"/>
          <path class="cls-3" d="M6.7,18.51c-.03.23-.08.67-.14,1.17,0,.05-.01.1-.02.15-.12.99-.27,2.11-.34,2.11h0c-.1,0-.2-.29-.23-.29,0,0-.01.02-.02.06,0,.22-.56.35-.56.35-.34-.05-.48-.57-.52-1.22-.14,2.34-.19,5.36.39,5.54,0,0,.56-.26.57-.72,0-.09,0-.13.02-.13.04,0,.12.59.22.59h0c.1,0,.4-4.22.55-6.28,0-.05,0-.11.01-.16.04-.49.06-.83.07-.92,0-.08,0-.16-.01-.24"/>
          <path class="cls-3" d="M9.04,18.54c0,.21-.02.55-.03.94,0,.12,0,.24-.01.36-.03.99-.08,2.09-.15,2.09,0,0,0,0,0,0-.05,0-.1-.07-.15-.14-.05-.07-.08-.14-.1-.14,0,0-.01.02-.01.06.01.22-.52.36-.52.36-.5-.06-.66-1.16-.69-2.19-.03,2.37.02,6.34.69,6.51,0,0,.53-.28.52-.74,0-.09,0-.13.01-.13.02,0,.06.15.1.29.05.15.1.29.15.29h0c.1,0,.15-4.19.18-6.27,0-.13,0-.25,0-.36,0-.4.01-.67.02-.76,0-.06,0-.12-.01-.18"/>
          <path class="cls-3" d="M11.4,18.5c0,.18,0,.45.01.78,0,.18,0,.36,0,.56.02.98.02,2.06-.05,2.06,0,0,0,0,0,0-.05,0-.11-.07-.16-.14-.05-.07-.09-.14-.11-.14,0,0-.01.02,0,.06.03.22-.53.37-.53.37-.53-.05-.75-1.12-.84-2.14.06,1.43.17,3.43.41,4.83.04.24.09.46.14.66.14.56.31.93.52.97,0,0,.54-.29.51-.76,0-.09,0-.13,0-.13.02,0,.07.14.12.29.06.14.12.29.17.29,0,0,0,0,0,0,.03,0,.03-.27.03-.7,0-.53-.02-1.3-.05-2.13-.04-1.18-.09-2.48-.12-3.4,0-.21-.01-.4-.02-.56-.01-.31-.02-.52-.02-.59,0-.06,0-.12-.02-.18"/>
          <path class="cls-2" d="M19.94,24.97l.83,2.36v.03h3.86l-.15-.19-1.27-1.62-.88-1.12-.42-.53-.18-.25.74-3.82h-2.11c-.03.17-.07.36-.12.57-.09.4-.16.76-.22,1.1l-.65-.82-.29-.38s0,0,0,.01l-.38-.48-.88-1.12-.12-.15.05.15.39,1.12.62,1.79-.29,1.33-.68,2.73-.87-5.85h-3.08l-.98,7.38,2.13.03.08-1.47h.7s.15,1.49.15,1.49l1.49.02h.64s1.39.03,1.39.03l.5-2.34ZM15.12,24.26c.07-.69.19-1.64.35-2.84.09,1.08.17,2.03.26,2.83h-.61Z"/>
          <path class="cls-2" d="M4.49,23.14h-1.15s-.08.08-.1.13c-.12.21-.22,1.12-.19,1.88h1.39s.06-2.01.06-2.01Z"/>
          <path class="cls-2" d="M3,23.14h-.16l.02,2h.19c-.02-.44-.07-1.57-.04-2"/>
          <path class="cls-2" d="M11.58,19.81l-.03-.56-.1-1.54-1.99.07.07,1.64.02.39.08,1.91s0,.12,0,.22c-.03,1.69-.36-.5-.36-.5,0,0,0,.02,0,.05v-1.68s-.01-.37-.01-.37v-1.67s-2.25.08-2.25.08l.05,1.78v.19s.06,2.04.06,2.04c-.07,1.3-.25.21-.32-.29l.02-1.75v-.17s.03-1.88.03-1.88h-1.99s-.07,2.05-.07,2.05h0s-.22,6.59-.22,6.59h0s-.13,3.81-.13,3.81l2.24.07.05-3.68v-.17s.01-.7.01-.7c0,0,0,0,0,0,.22-.57.38-.31.48.06l.02.65v.21s.05,1.73.05,1.73c.02-.29.08-.51.08-.51-.04,1.57.21,1.61,1.04,1.73.79.12.86-.32.87-.37l-.08.7-.91-.04c-.66,0-.9-.44-.97-.91l.03,1.3h1.99l-.02-3.45v-.37s0-.77,0-.77c.2-.4.38-.15.52.18l.03.6.02.41.14,3.41,2.23-.16-.19-3.05-.04-.58-.08-1.29h.46c.05-.71.12-1.4.17-2.09h-.76s-.21-3.31-.21-3.31ZM6.39,29.95l-.91-.06c-1.41-.03-.87-2.04-.87-2.04-.07,1.57.18,1.61,1,1.75.78.13.87-.3.88-.35l-.1.7ZM4.91,19.79c.02-.36.06-.71.09-1-.17-.3.11-.79.11-.79.2,0,.37,0,.53,0,.09,0,.18,0,.25,0h0c.1,0,.18,0,.26.02.44.02.6.06.57.1,0,.01-.02.05-.04.1.04.05.05.1.04.15,0,.02-.01.07-.02.15.02.08.02.15.01.23-.01.1-.04.43-.07.91,0,.05,0,.1-.01.16-.15,2.02-.44,6.16-.54,6.15-.12,0-.22-.91-.24-.45-.01.45-.56.71-.56.71-.58-.17-.52-3.13-.39-5.42-.02-.31-.01-.65,0-.99,0,0,0,0,0-.01M7.36,19.59c0-.39,0-.76.02-1.04-.06-.26.03-.53.03-.53.21,0,.4-.01.56-.02.19-.01.34-.01.48,0,.45,0,.61.05.6.09,0,.01-.01.07-.02.14.02.04.03.07.02.11,0,.03,0,.1-.01.19.01.06.01.12.01.17,0,.08-.01.35-.02.74,0,.11,0,.23,0,.35-.03,2.04-.09,6.13-.18,6.13-.12,0-.27-.9-.26-.45.01.45-.52.73-.52.73-.67-.17-.72-4.06-.69-6.38,0-.01,0-.03,0-.04,0-.07,0-.14,0-.22M11.91,29.87h-.91c-1.41.04-.98-2-.98-2,.01,1.57.26,1.6,1.1,1.7.79.09.85-.35.86-.4l-.06.7ZM11.52,25.91c-.12,0-.32-.89-.28-.44.04.45-.48.74-.48.74-.2-.04-.36-.41-.49-.95-.05-.19-.09-.41-.13-.65-.23-1.37-.34-3.32-.39-4.72,0-.03,0-.05,0-.08-.01-.14-.02-.28-.03-.41-.02-.3-.02-.58-.02-.8-.08-.27,0-.56,0-.56.27-.02.5-.03.69-.04.03,0,.05,0,.08,0,.01,0,.02,0,.04,0,0,0,.02,0,.03,0,.6-.02.82.02.81.06,0,.01-.01.07-.02.15.02.04.04.08.03.12,0,.03,0,.09,0,.19.01.06.02.12.02.18,0,.07,0,.28.02.58,0,.16.01.34.02.55.03.9.08,2.17.11,3.33.02.82.04,1.57.05,2.09,0,.42,0,.68-.03.68"/>
          <polygon class="cls-1" points="13.86 29.35 13.43 29.35 13.43 29.8 13.91 29.8 13.91 30.08 13.07 30.08 13.07 28.43 13.88 28.43 13.88 28.71 13.43 28.71 13.43 29.09 13.86 29.09 13.86 29.35"/>
          <polygon class="cls-1" points="15.18 30.04 15.11 30.06 15.01 30.08 14.9 30.09 14.8 30.09 14.72 30.09 14.65 30.08 14.58 30.07 14.52 30.05 14.46 30.03 14.4 30 14.35 29.97 14.3 29.93 14.25 29.87 14.2 29.81 14.16 29.73 14.12 29.65 14.1 29.56 14.08 29.47 14.07 29.37 14.07 29.26 14.07 29.15 14.09 29.05 14.11 28.96 14.14 28.88 14.17 28.8 14.21 28.73 14.26 28.67 14.31 28.61 14.37 28.56 14.43 28.52 14.5 28.49 14.56 28.46 14.63 28.44 14.7 28.42 14.78 28.41 14.85 28.41 14.95 28.42 15.03 28.43 15.1 28.44 15.15 28.46 15.09 28.74 15.05 28.72 15 28.71 14.94 28.7 14.88 28.7 14.83 28.7 14.79 28.71 14.75 28.72 14.71 28.73 14.67 28.75 14.63 28.77 14.6 28.8 14.57 28.83 14.54 28.87 14.51 28.91 14.49 28.96 14.47 29.01 14.46 29.07 14.45 29.13 14.44 29.2 14.44 29.28 14.44 29.35 14.45 29.42 14.46 29.48 14.47 29.53 14.48 29.58 14.5 29.63 14.52 29.67 14.55 29.7 14.57 29.73 14.6 29.76 14.63 29.78 14.65 29.79 14.69 29.81 14.72 29.82 14.75 29.82 14.78 29.82 14.82 29.82 14.85 29.82 14.85 29.42 14.69 29.42 14.69 29.15 15.18 29.15 15.18 30.04"/>
          <polygon class="cls-1" points="15.66 30.08 15.66 29.45 15.25 28.43 15.64 28.43 15.76 28.82 15.81 28.99 15.86 29.17 15.86 29.17 15.9 28.99 15.95 28.81 16.06 28.43 16.43 28.43 16.02 29.43 16.02 30.08 15.66 30.08"/>
          <path class="cls-1" d="M17.59,28.86v-.05s-.02-.05-.02-.05l-.02-.05-.02-.05-.03-.04-.03-.04-.04-.03-.05-.03-.05-.03-.06-.02-.06-.02h-.06s-.07-.02-.07-.02h-.15s-.1,0-.1,0h-.1s-.09.02-.09.02h-.08v1.64h.36v-.62h.13s.06,0,.06,0h.06s.06-.03.06-.03l.06-.02.06-.03.05-.03.05-.04.03-.04.03-.04.03-.04.02-.05.02-.05v-.06s.02-.06.02-.06v-.06s0-.05,0-.05ZM17.23,28.96v.03s0,.03,0,.03v.02s-.02.02-.02.02v.02s-.02.02-.02.02v.02s-.03.02-.03.02h-.02s-.02.03-.02.03h-.02s-.03.02-.03.02h-.03s-.03.01-.03.01h-.03s-.03,0-.03,0h-.01s-.01,0-.01,0v-.51h.02s.02,0,.02,0h.02s.03,0,.03,0h.03s.03,0,.03,0h.03s.02.01.02.01h.02s.02.02.02.02l.02.02v.02s.03.02.03.02v.02s.02.02.02.02v.02s.01.02.01.02v.02s0,.03,0,.03v.03s0,.03,0,.03Z"/>
          <polygon class="cls-1" points="18.01 28.72 17.68 28.72 17.68 28.43 18.7 28.43 18.7 28.72 18.37 28.72 18.37 30.08 18.01 30.08 18.01 28.72"/>
          <path class="cls-1" d="M19.32,28.41c-.08.22-.19.44-.31.62l-.18.02.08-.2c.07-.22.1-.42.1-.42"/>
          <line class="cls-2" x1="19.01" y1="28.43" x2="19.32" y2="28.41"/>
          <polygon class="cls-1" points="19.46 29.75 19.52 29.78 19.6 29.8 19.68 29.81 19.76 29.82 19.82 29.81 19.87 29.8 19.91 29.78 19.95 29.76 19.98 29.73 20 29.7 20.01 29.67 20.01 29.63 20.01 29.59 20 29.55 19.98 29.51 19.95 29.48 19.92 29.45 19.88 29.42 19.77 29.36 19.69 29.31 19.61 29.25 19.55 29.19 19.5 29.13 19.47 29.07 19.44 29.01 19.43 28.95 19.42 28.9 19.43 28.85 19.43 28.8 19.45 28.75 19.46 28.71 19.48 28.67 19.51 28.63 19.54 28.59 19.57 28.56 19.61 28.52 19.65 28.5 19.7 28.47 19.75 28.45 19.81 28.43 19.87 28.42 19.94 28.41 20.01 28.41 20.1 28.42 20.18 28.43 20.25 28.45 20.3 28.47 20.24 28.75 20.2 28.73 20.14 28.71 20.08 28.7 20.01 28.69 19.95 28.69 19.91 28.71 19.87 28.72 19.84 28.74 19.81 28.77 19.79 28.8 19.78 28.83 19.78 28.86 19.78 28.9 19.79 28.93 19.81 28.96 19.83 28.99 19.87 29.02 19.91 29.05 20.03 29.12 20.12 29.17 20.19 29.23 20.25 29.28 20.29 29.34 20.33 29.4 20.35 29.46 20.36 29.53 20.37 29.59 20.37 29.65 20.36 29.7 20.34 29.75 20.32 29.8 20.3 29.84 20.27 29.89 20.24 29.92 20.2 29.96 20.16 29.99 20.11 30.02 20.06 30.04 20.01 30.06 19.95 30.07 19.89 30.09 19.82 30.09 19.76 30.09 19.65 30.09 19.55 30.07 19.46 30.05 19.4 30.03 19.46 29.75"/>
          <path class="cls-1" d="M22.95,28.41s0,0,0,0c0,0,0,0,0,0-.35,0-.6.25-.6.88,0,.38.13.82.57.82,0,0,0,0,0,0,0,0,0,0,0,0,.35,0,.6-.25.6-.88,0-.38-.13-.82-.57-.82M23.15,29.57c-.06.25-.21.25-.21.25,0,0,0,0,0,0,0,0,0,0,0,0,0,0-.16,0-.21-.26v-.63c.06-.25.21-.25.21-.25,0,0,0,0,0,0,0,0,0,0,0,0,0,0,.16,0,.21.26v.63Z"/>
          <path class="cls-1" d="M41.1,28.41s0,0,0,0c0,0,0,0,0,0-.35,0-.6.25-.6.88,0,.38.13.82.57.82,0,0,0,0,0,0,0,0,0,0,0,0,.35,0,.6-.25.6-.88,0-.38-.13-.82-.57-.82M41.3,29.57c-.06.25-.21.25-.21.25,0,0,0,0,0,0,0,0,0,0,0,0,0,0-.16,0-.21-.26v-.63c.06-.25.21-.25.21-.25,0,0,0,0,0,0,0,0,0,0,0,0,0,0,.16,0,.21.26v.63Z"/>
          <polygon class="cls-1" points="25.55 29.75 25.62 29.78 25.7 29.8 25.78 29.81 25.86 29.82 25.92 29.81 25.97 29.8 26.01 29.78 26.05 29.76 26.08 29.73 26.1 29.7 26.11 29.67 26.11 29.63 26.11 29.59 26.1 29.55 26.08 29.51 26.05 29.48 26.02 29.45 25.98 29.42 25.87 29.36 25.79 29.31 25.71 29.25 25.65 29.19 25.6 29.13 25.57 29.07 25.54 29.01 25.53 28.95 25.52 28.9 25.53 28.85 25.53 28.8 25.55 28.75 25.56 28.71 25.58 28.67 25.61 28.63 25.64 28.59 25.67 28.56 25.71 28.52 25.75 28.5 25.8 28.47 25.85 28.45 25.91 28.43 25.97 28.42 26.04 28.41 26.11 28.41 26.2 28.42 26.28 28.43 26.35 28.45 26.4 28.47 26.34 28.75 26.3 28.73 26.24 28.71 26.18 28.7 26.11 28.69 26.05 28.69 26.01 28.71 25.97 28.72 25.93 28.74 25.91 28.77 25.89 28.8 25.88 28.83 25.88 28.86 25.88 28.9 25.89 28.93 25.91 28.96 25.93 28.99 25.97 29.02 26.01 29.05 26.13 29.12 26.22 29.17 26.29 29.23 26.35 29.28 26.39 29.34 26.43 29.4 26.45 29.46 26.46 29.53 26.47 29.59 26.47 29.65 26.46 29.7 26.44 29.75 26.42 29.8 26.4 29.84 26.37 29.89 26.34 29.92 26.3 29.96 26.26 29.99 26.21 30.02 26.16 30.04 26.11 30.06 26.05 30.07 25.99 30.09 25.92 30.09 25.86 30.09 25.75 30.09 25.65 30.07 25.56 30.05 25.5 30.03 25.55 29.75"/>
          <path class="cls-1" d="M27.04,29.5v-1.08h-.36v1.02c0,.42.18.65.53.66,0,0,0,0,0,0h0c.35,0,.53-.23.53-.66v-1.02h-.36v1.08s0,.21-.04.26c-.03.05-.04.06-.07.06h-.14s-.03.01-.05-.03c-.01-.03-.05-.11-.05-.29"/>
          <path class="cls-1" d="M29.08,28.86v-.05s-.02-.05-.02-.05l-.02-.05-.02-.05-.03-.04-.03-.04-.04-.03-.05-.03-.05-.03-.06-.02-.06-.02h-.07s-.07-.02-.07-.02h-.15s-.1,0-.1,0h-.1s-.09.02-.09.02h-.08v1.64h.36v-.62h.13s.06,0,.06,0h.06s.06-.03.06-.03l.06-.02.06-.03.05-.03.05-.04.03-.04.03-.04.03-.04.02-.05.02-.05v-.06s.02-.06.02-.06v-.06s0-.05,0-.05ZM28.73,28.96v.03s0,.03,0,.03v.02s-.02.02-.02.02v.02s-.02.02-.02.02v.02s-.03.02-.03.02h-.02s-.02.03-.02.03h-.02s-.03.02-.03.02h-.03s-.03.01-.03.01h-.03s-.03,0-.03,0h-.01s-.01,0-.01,0v-.51h.02s.02,0,.02,0h.02s.02,0,.02,0h.03s.03,0,.03,0h.03s.02.01.02.01h.02s.02.02.02.02l.02.02v.02s.03.02.03.02v.02s.02.02.02.02v.02s.01.02.01.02v.02s0,.03,0,.03v.03s0,.03,0,.03Z"/>
          <path class="cls-1" d="M30.34,28.86v-.05s-.02-.05-.02-.05l-.02-.05-.02-.05-.03-.04-.03-.04-.04-.03-.05-.03-.05-.03-.06-.02-.06-.02h-.06s-.07-.02-.07-.02h-.15s-.1,0-.1,0h-.1s-.09.02-.09.02h-.08v1.64h.36v-.62h.13s.06,0,.06,0h.06s.06-.03.06-.03l.06-.02.06-.03.05-.03.05-.04.03-.04.03-.04.03-.04.02-.05.02-.05v-.06s.02-.06.02-.06v-.06s0-.05,0-.05ZM29.98,28.96v.03s0,.03,0,.03v.02s-.02.02-.02.02v.02s-.02.02-.02.02l-.02.02-.02.02h-.02s-.02.03-.02.03h-.02s-.03.02-.03.02h-.03s-.03.01-.03.01h-.03s-.03,0-.03,0h-.01s-.01,0-.01,0v-.51h.02s.02,0,.02,0h.02s.02,0,.02,0h.03s.03,0,.03,0h.03s.02.01.02.01h.02s.02.02.02.02l.02.02v.02s.03.02.03.02v.02s.02.02.02.02v.02s.01.02.01.02v.02s0,.03,0,.03v.03s0,.03,0,.03Z"/>
          <polygon class="cls-1" points="30.56 28.43 30.92 28.43 30.92 29.81 31.39 29.81 31.39 30.08 30.56 30.08 30.56 28.43"/>
          <polygon class="cls-1" points="32.38 29.35 31.96 29.35 31.96 29.8 32.44 29.8 32.44 30.08 31.6 30.08 31.6 28.43 32.4 28.43 32.4 28.71 31.96 28.71 31.96 29.09 32.38 29.09 32.38 29.35"/>
          <polygon class="cls-1" points="35.21 29.35 34.79 29.35 34.79 29.8 35.27 29.8 35.27 30.08 34.43 30.08 34.43 28.43 35.23 28.43 35.23 28.71 34.79 28.71 34.79 29.09 35.21 29.09 35.21 29.35"/>
          <polygon class="cls-1" points="37.13 28.72 36.8 28.72 36.8 28.43 37.82 28.43 37.82 28.72 37.49 28.72 37.49 30.08 37.13 30.08 37.13 28.72"/>
          <polygon class="cls-1" points="38.4 29.75 38.47 29.78 38.54 29.8 38.62 29.81 38.71 29.82 38.77 29.81 38.82 29.8 38.86 29.78 38.9 29.76 38.92 29.73 38.94 29.7 38.95 29.67 38.96 29.63 38.95 29.59 38.94 29.55 38.92 29.51 38.9 29.48 38.86 29.45 38.82 29.42 38.72 29.36 38.63 29.31 38.56 29.25 38.5 29.19 38.45 29.13 38.41 29.07 38.39 29.01 38.38 28.95 38.37 28.9 38.37 28.85 38.38 28.8 38.39 28.75 38.41 28.71 38.43 28.67 38.45 28.63 38.48 28.59 38.52 28.56 38.56 28.52 38.6 28.5 38.65 28.47 38.7 28.45 38.76 28.43 38.82 28.42 38.89 28.41 38.96 28.41 39.04 28.42 39.13 28.43 39.19 28.45 39.25 28.47 39.19 28.75 39.14 28.73 39.09 28.71 39.03 28.7 38.95 28.69 38.9 28.69 38.85 28.71 38.81 28.72 38.78 28.74 38.76 28.77 38.74 28.8 38.73 28.83 38.73 28.86 38.73 28.9 38.74 28.93 38.75 28.96 38.78 28.99 38.81 29.02 38.86 29.05 38.98 29.12 39.06 29.17 39.14 29.23 39.19 29.28 39.24 29.34 39.27 29.4 39.3 29.46 39.31 29.53 39.31 29.59 39.31 29.65 39.3 29.7 39.29 29.75 39.27 29.8 39.25 29.84 39.22 29.89 39.18 29.92 39.14 29.96 39.1 29.99 39.06 30.02 39.01 30.04 38.95 30.06 38.89 30.07 38.83 30.09 38.77 30.09 38.7 30.09 38.59 30.09 38.49 30.07 38.41 30.05 38.35 30.03 38.4 29.75"/>
          <polygon class="cls-1" points="39.72 28.72 39.4 28.72 39.4 28.43 40.41 28.43 40.41 28.72 40.08 28.72 40.08 30.08 39.72 30.08 39.72 28.72"/>
          <path class="cls-1" d="M42.95,30.01l-.03-.11-.03-.13-.03-.14v-.06s-.03-.06-.03-.06l-.02-.05-.02-.04-.03-.04-.03-.03-.04-.03-.04-.02h0s.07-.04.07-.04l.06-.04.05-.05.04-.05.03-.06.02-.06v-.06s.02-.06.02-.06v-.05s0-.05,0-.05v-.05s-.02-.04-.02-.04l-.02-.04-.03-.04-.03-.04-.04-.03-.05-.03-.05-.03-.06-.02-.06-.02h-.06s-.07-.02-.07-.02h-.14s-.1,0-.1,0h-.1s-.1.02-.1.02h-.09v1.64h.36v-.66h.09s.04.01.04.01l.03.02.03.03.02.04.02.05.02.06v.07s.04.13.04.13l.02.12.02.09.02.06h.38l-.03-.07ZM42.55,28.94v.03s0,.02,0,.02v.02s-.02.02-.02.02v.02s-.02.02-.02.02l-.02.02-.02.02h-.02s-.02.03-.02.03h-.02s-.02.02-.02.02h-.03s-.03,0-.03,0h-.03s-.06,0-.06,0v-.49h.02s.02,0,.02,0h.02s.02,0,.02,0h.03s.03,0,.03,0h.02s.02.01.02.01h.02s.02.02.02.02h.02s.01.03.01.03v.02s.02.02.02.02v.02s.02.02.02.02v.02s0,.02,0,.02v.02s0,.03,0,.03v.03Z"/>
          <polygon class="cls-1" points="43.96 29.35 43.54 29.35 43.54 29.8 44.01 29.8 44.01 30.08 43.18 30.08 43.18 28.43 43.98 28.43 43.98 28.71 43.54 28.71 43.54 29.09 43.96 29.09 43.96 29.35"/>
          <polygon class="cls-1" points="44.22 29.75 44.28 29.78 44.36 29.8 44.44 29.81 44.52 29.82 44.58 29.81 44.63 29.8 44.68 29.78 44.71 29.76 44.74 29.73 44.76 29.7 44.77 29.67 44.77 29.63 44.77 29.59 44.76 29.55 44.74 29.51 44.71 29.48 44.68 29.45 44.64 29.42 44.53 29.36 44.45 29.31 44.37 29.25 44.31 29.19 44.27 29.13 44.23 29.07 44.21 29.01 44.19 28.95 44.19 28.9 44.19 28.85 44.2 28.8 44.21 28.75 44.22 28.71 44.24 28.67 44.27 28.63 44.3 28.59 44.33 28.56 44.37 28.52 44.42 28.5 44.46 28.47 44.52 28.45 44.57 28.43 44.63 28.42 44.7 28.41 44.77 28.41 44.86 28.42 44.94 28.43 45.01 28.45 45.06 28.47 45 28.75 44.96 28.73 44.91 28.71 44.84 28.7 44.77 28.69 44.71 28.69 44.67 28.71 44.63 28.72 44.6 28.74 44.57 28.77 44.55 28.8 44.54 28.83 44.54 28.86 44.54 28.9 44.55 28.93 44.57 28.96 44.59 28.99 44.63 29.02 44.67 29.05 44.8 29.12 44.88 29.17 44.95 29.23 45.01 29.28 45.05 29.34 45.09 29.4 45.11 29.46 45.13 29.53 45.13 29.59 45.13 29.65 45.12 29.7 45.1 29.75 45.09 29.8 45.06 29.84 45.03 29.89 45 29.92 44.96 29.96 44.92 29.99 44.87 30.02 44.82 30.04 44.77 30.06 44.71 30.07 44.65 30.09 44.58 30.09 44.52 30.09 44.41 30.09 44.31 30.07 44.22 30.05 44.16 30.03 44.22 29.75"/>
          <polygon class="cls-1" points="35.83 30.08 35.53 30.08 35.53 28.43 35.86 28.43 36.34 29.57 36.34 28.43 36.64 28.43 36.64 30.08 36.3 30.08 35.83 28.96 35.83 30.08"/>
          <polygon class="cls-1" points="21.33 30.08 21.03 30.08 21.03 28.43 21.36 28.43 21.83 29.57 21.83 28.43 22.13 28.43 22.13 30.08 21.8 30.08 21.33 28.96 21.33 30.08"/>
          <polygon class="cls-1" points="33.84 30.08 34.16 30.08 34.05 28.43 33.67 28.43 33.41 29.61 33.12 28.43 32.74 28.43 32.62 30.08 32.92 30.08 32.99 28.94 33.26 30.06 33.51 30.06 33.8 28.94 33.84 30.08"/>
          <line class="cls-2" x1="24.01" y1="28.25" x2="24.08" y2="28.57"/>
          <polygon class="cls-1" points="24.49 28.01 24.86 28.01 24.86 30.04 24.44 30.04 24.44 29.03 24.44 28.39 24.08 28.57 24.01 28.25 24.49 28.01"/>
          <path class="cls-1" d="M24.49,28.01l-.48.24.48-.24Z"/>
        </g>
      </g>
    </g>
  </g>
</svg>