<?xml version="1.0" encoding="UTF-8"?>
<svg xmlns="http://www.w3.org/2000/svg" version="1.1" viewBox="0 0 48 48">
  <defs>
    <style>
      .cls-1 {
        fill-rule: evenodd;
      }

      .cls-1, .cls-2 {
        fill: #fff;
      }

      .cls-3 {
        fill: #4b5d9e;
      }

      .cls-4 {
        fill: #214490;
      }

      .cls-5 {
        fill: #f68e20;
      }
    </style>
  </defs>
  <!-- Generator: Adobe Illustrator 28.7.1, SVG Export Plug-In . SVG Version: 1.2.0 Build 142)  -->
  <g>
    <g id="Layer_1">
      <g>
        <rect class="cls-4" y="0" width="48" height="48"/>
        <g>
          <path class="cls-2" d="M35.3,21.17l1.12-5.69h-3.19c-.05.25-.11.53-.18.85-.13.59-.24,1.14-.33,1.64l-.98-1.22-.44-.57s0,.01,0,.02l-.57-.72-1.33-1.67-.18-.22.08.23.59,1.66.94,2.66-.43,1.98-1.02,4.06-1.32-8.7h-4.66l-1.49,10.99,3.21.05.12-2.19,1.06-.02.23,2.23,2.25.03h.96s2.1.04,2.1.04c.26-.95.36-1.57.62-3.12,0,.07.06-.1.14-.37l1.25,3.52.02.04h5.82l-4.1-5.13-.28-.38ZM25.85,17.83c.13,1.61.26,3.02.39,4.21h-.18s0-.03,0-.03l-.68-.48"/>
          <path class="cls-5" d="M24.57,27.42l-.04.3-.28,2.18-.2-1.35c-.04-.33-.09-.62-.13-.88-.01-.08-.03-.17-.04-.24h-1.82v5.3h1.23v-3.5s.52,3.5.52,3.5h.87l.49-3.58v3.58h1.23v-5.3h-1.83Z"/>
          <path class="cls-5" d="M28.44,27.42v3.9c0,.26-.01.43-.04.5-.03.07-.08.11-.17.11-.08,0-.13-.03-.16-.1-.03-.06-.04-.21-.04-.44v-3.97h-1.41v3.14c0,.6.01.99.03,1.18.02.19.09.36.22.53.12.17.31.3.55.41.25.1.53.16.85.16.29,0,.54-.04.76-.13.21-.09.39-.22.52-.39.13-.17.21-.34.24-.5.03-.16.04-.44.04-.85v-3.54h-1.41Z"/>
          <path class="cls-5" d="M32.94,30.24c-.16-.23-.56-.53-1.18-.9-.22-.13-.35-.23-.4-.32-.05-.09-.07-.22-.07-.4,0-.12.02-.22.05-.28,0,0,0-.02.01-.02.04-.07.11-.1.19-.1.08,0,.13.03.17.08.01.02.02.05.03.09.01.06.02.15.02.26v.39h1.31v-.21c0-.13,0-.25-.01-.36-.02-.24-.05-.41-.11-.54-.08-.18-.25-.32-.51-.44-.26-.12-.57-.17-.93-.17-.33,0-.62.05-.85.16-.24.11-.41.25-.51.44-.05.08-.08.18-.11.31-.03.16-.05.35-.05.59,0,.28.04.51.11.69.07.18.17.32.28.43.11.1.35.27.69.49.35.22.57.39.66.48.09.1.13.3.13.61,0,.14-.02.25-.07.32-.05.07-.12.11-.21.11s-.16-.03-.19-.09c-.04-.06-.06-.18-.06-.38v-.64h-1.31v.35c0,.4.04.7.12.92.08.22.26.39.52.53.27.14.59.21.96.21.34,0,.64-.06.9-.18.26-.12.43-.27.52-.45.09-.18.13-.46.13-.83,0-.52-.08-.9-.24-1.13"/>
          <path class="cls-5" d="M36.59,30.81v-.21h-1.41v.67c0,.29-.02.48-.05.56-.03.08-.1.12-.21.12s-.18-.04-.21-.12c-.03-.08-.05-.25-.05-.5v-2.46c0-.27.02-.44.05-.52.03-.08.1-.12.22-.12.1,0,.17.03.2.1.03.07.05.23.05.5v.92h1.41v-.5c0-.49-.04-.86-.13-1.09-.08-.23-.26-.43-.53-.59-.27-.16-.61-.24-1.03-.24-.3,0-.57.05-.81.15-.24.1-.42.24-.55.42-.13.18-.21.36-.24.55-.03.19-.04.48-.04.86v1.55c0,.52.04.91.13,1.17.09.26.26.46.53.61.27.15.61.22,1.02.22s.73-.09,1-.26c.27-.17.44-.37.52-.6.08-.23.12-.62.12-1.17"/>
          <polygon class="cls-5" points="36.79 27.42 36.79 32.72 39.05 32.72 39.05 31.66 38.19 31.66 38.19 27.42 36.79 27.42"/>
          <polygon class="cls-5" points="40.49 31.66 40.49 30.5 41.36 30.5 41.36 29.49 40.49 29.49 40.49 28.48 41.42 28.48 41.42 27.42 39.08 27.42 39.08 32.72 41.52 32.72 41.52 31.66 40.49 31.66"/>
          <g>
            <polygon class="cls-1" points="6.66 35.11 6.18 35.11 6.18 35.62 6.72 35.62 6.72 35.94 5.77 35.94 5.77 34.05 6.68 34.05 6.68 34.37 6.18 34.37 6.18 34.8 6.66 34.8 6.66 35.11"/>
            <polygon class="cls-1" points="8.17 35.89 8.08 35.91 7.97 35.93 7.85 35.95 7.73 35.95 7.64 35.95 7.56 35.94 7.48 35.93 7.41 35.91 7.34 35.88 7.28 35.85 7.22 35.81 7.17 35.77 7.1 35.7 7.05 35.63 7 35.54 6.96 35.45 6.93 35.35 6.91 35.24 6.9 35.12 6.9 35.01 6.9 34.88 6.92 34.77 6.94 34.66 6.98 34.57 7.02 34.48 7.06 34.4 7.12 34.33 7.18 34.26 7.24 34.21 7.31 34.16 7.39 34.12 7.46 34.09 7.54 34.07 7.62 34.05 7.71 34.04 7.79 34.04 7.9 34.04 8 34.05 8.07 34.07 8.13 34.09 8.06 34.41 8.01 34.39 7.96 34.38 7.89 34.37 7.82 34.37 7.77 34.37 7.72 34.37 7.67 34.38 7.62 34.4 7.58 34.42 7.54 34.45 7.5 34.48 7.47 34.51 7.43 34.55 7.41 34.6 7.38 34.66 7.36 34.72 7.34 34.78 7.33 34.86 7.32 34.94 7.32 35.03 7.32 35.11 7.33 35.18 7.34 35.25 7.35 35.31 7.37 35.37 7.39 35.42 7.42 35.47 7.44 35.5 7.47 35.54 7.5 35.57 7.53 35.59 7.57 35.61 7.6 35.62 7.64 35.63 7.67 35.64 7.71 35.64 7.76 35.64 7.79 35.63 7.79 35.18 7.6 35.18 7.6 34.88 8.17 34.88 8.17 35.89"/>
            <polygon class="cls-1" points="8.71 35.94 8.71 35.22 8.25 34.05 8.68 34.05 8.83 34.5 8.88 34.7 8.94 34.9 8.94 34.9 8.99 34.7 9.04 34.49 9.16 34.05 9.59 34.05 9.12 35.2 9.12 35.94 8.71 35.94"/>
            <path class="cls-1" d="M10.91,34.54v-.06s-.02-.06-.02-.06l-.02-.06-.03-.05-.03-.05-.04-.04-.04-.04-.05-.04-.06-.03-.06-.03-.07-.02h-.07s-.08-.02-.08-.02h-.17s-.12,0-.12,0h-.11s-.11.02-.11.02l-.09.02v1.85h.41v-.7h.15s.07-.01.07-.01h.07s.07-.03.07-.03l.07-.03.06-.03.06-.04.05-.04.04-.04.03-.05.03-.05.03-.05.02-.06.02-.06v-.07s.01-.07.01-.07v-.06ZM10.5,34.67v.03s0,.03,0,.03v.03s-.02.03-.02.03v.02s-.03.02-.03.02l-.02.02-.02.02-.02.02-.02.02h-.03s-.03.02-.03.02h-.03s-.03.01-.03.01h-.04s-.04,0-.04,0h-.02s-.01,0-.01,0v-.58h.02s.02-.01.02-.01h.03s.03,0,.03,0h.03s.03,0,.03,0h.03s.03.02.03.02h.02s.02.03.02.03l.02.02.02.02.02.02v.02s.02.02.02.02v.03s.02.03.02.03v.03s0,.03,0,.03v.03s0,.03,0,.03Z"/>
            <polygon class="cls-1" points="11.38 34.39 11.01 34.39 11.01 34.05 12.17 34.05 12.17 34.39 11.79 34.39 11.79 35.94 11.38 35.94 11.38 34.39"/>
            <path class="cls-1" d="M12.88,34.03c-.09.25-.22.5-.35.7l-.21.03.09-.23c.08-.25.12-.47.12-.47"/>
            <line class="cls-2" x1="12.52" y1="34.05" x2="12.88" y2="34.03"/>
            <polygon class="cls-1" points="13.03 35.56 13.1 35.59 13.19 35.61 13.28 35.63 13.38 35.63 13.45 35.63 13.5 35.62 13.55 35.6 13.59 35.57 13.62 35.54 13.65 35.51 13.66 35.47 13.66 35.42 13.66 35.37 13.65 35.33 13.62 35.29 13.6 35.26 13.56 35.22 13.51 35.19 13.39 35.11 13.29 35.05 13.21 34.99 13.14 34.92 13.09 34.86 13.05 34.79 13.02 34.72 13 34.65 13 34.59 13 34.53 13.01 34.48 13.02 34.43 13.04 34.38 13.06 34.33 13.09 34.28 13.12 34.24 13.16 34.2 13.21 34.16 13.26 34.13 13.31 34.1 13.37 34.08 13.44 34.06 13.51 34.05 13.58 34.04 13.66 34.04 13.76 34.04 13.85 34.06 13.93 34.08 13.99 34.1 13.93 34.42 13.88 34.39 13.81 34.37 13.74 34.36 13.66 34.35 13.6 34.36 13.54 34.37 13.5 34.39 13.46 34.41 13.43 34.44 13.41 34.48 13.4 34.51 13.4 34.55 13.4 34.59 13.41 34.63 13.43 34.66 13.46 34.69 13.5 34.73 13.55 34.76 13.69 34.84 13.79 34.9 13.87 34.96 13.93 35.03 13.98 35.09 14.02 35.16 14.05 35.24 14.07 35.31 14.07 35.38 14.07 35.45 14.06 35.51 14.04 35.56 14.02 35.62 13.99 35.67 13.96 35.71 13.92 35.76 13.88 35.8 13.83 35.83 13.78 35.86 13.72 35.89 13.66 35.91 13.59 35.93 13.52 35.94 13.45 35.95 13.37 35.95 13.25 35.95 13.13 35.93 13.04 35.9 12.97 35.88 13.03 35.56"/>
            <path class="cls-1" d="M17.01,34.03s0,0,0,0c0,0,0,0,0,0-.4,0-.68.29-.68,1,0,.43.14.93.65.93,0,0,0,0,0,0,0,0,0,0,0,0,.4,0,.68-.29.68-1,0-.43-.14-.93-.65-.93M17.23,35.36c-.07.28-.24.28-.24.28,0,0,0,0,0,0,0,0,0,0,0,0,0,0-.18,0-.24-.3v-.71c.07-.28.24-.28.24-.28,0,0,0,0,0,0,0,0,0,0,0,0,0,0,.18,0,.24.3v.71Z"/>
            <path class="cls-1" d="M37.67,34.03s0,0,0,0c0,0,0,0,0,0-.4,0-.68.29-.68,1,0,.43.14.93.65.93,0,0,0,0,0,0,0,0,0,0,0,0,.4,0,.68-.29.68-1,0-.43-.14-.93-.65-.93M37.89,35.36c-.07.28-.24.28-.24.28,0,0,0,0,0,0,0,0,0,0,0,0,0,0-.18,0-.24-.3v-.71c.07-.28.24-.28.24-.28,0,0,0,0,0,0,0,0,0,0,0,0,0,0,.18,0,.24.3v.71Z"/>
            <polygon class="cls-1" points="19.97 35.56 20.05 35.59 20.13 35.61 20.23 35.63 20.32 35.63 20.39 35.63 20.45 35.62 20.5 35.6 20.54 35.57 20.57 35.54 20.59 35.51 20.6 35.47 20.61 35.42 20.6 35.37 20.59 35.33 20.57 35.29 20.54 35.26 20.5 35.22 20.45 35.19 20.34 35.11 20.24 35.05 20.15 34.99 20.08 34.92 20.03 34.86 19.99 34.79 19.96 34.72 19.94 34.65 19.94 34.59 19.94 34.53 19.95 34.48 19.96 34.43 19.98 34.38 20 34.33 20.03 34.28 20.07 34.24 20.11 34.2 20.15 34.16 20.2 34.13 20.25 34.1 20.31 34.08 20.38 34.06 20.45 34.05 20.52 34.04 20.6 34.04 20.71 34.04 20.8 34.06 20.88 34.08 20.93 34.1 20.87 34.42 20.82 34.39 20.76 34.37 20.68 34.36 20.6 34.35 20.54 34.36 20.49 34.37 20.44 34.39 20.41 34.41 20.38 34.44 20.36 34.48 20.35 34.51 20.34 34.55 20.35 34.59 20.36 34.63 20.37 34.66 20.4 34.69 20.44 34.73 20.49 34.76 20.63 34.84 20.73 34.9 20.81 34.96 20.87 35.03 20.93 35.09 20.97 35.16 20.99 35.24 21.01 35.31 21.01 35.38 21.01 35.45 21 35.51 20.98 35.56 20.96 35.62 20.93 35.67 20.9 35.71 20.86 35.76 20.82 35.8 20.77 35.83 20.72 35.86 20.66 35.89 20.6 35.91 20.53 35.93 20.47 35.94 20.39 35.95 20.32 35.95 20.19 35.95 20.08 35.93 19.98 35.9 19.91 35.88 19.97 35.56"/>
            <path class="cls-1" d="M21.66,35.28v-1.22h-.41v1.16c0,.48.2.74.6.75,0,0,0,0,0,0h0c.4,0,.6-.27.6-.75v-1.16h-.41v1.22s0,.24-.04.29c-.03.06-.04.07-.08.07h-.16s-.04.01-.05-.03c-.01-.04-.06-.13-.06-.33"/>
            <path class="cls-1" d="M23.99,34.54v-.06s-.02-.06-.02-.06l-.02-.06-.02-.05-.03-.05-.04-.04-.04-.04-.05-.04-.06-.03-.06-.03-.07-.02h-.07s-.08-.02-.08-.02h-.17s-.12,0-.12,0h-.11s-.1.02-.1.02l-.09.02v1.85h.41v-.7h.15s.07-.01.07-.01h.07s.07-.03.07-.03l.07-.03.06-.03.06-.04.05-.04.04-.04.04-.05.03-.05.03-.05.02-.06.02-.06v-.07s.01-.07.01-.07v-.06ZM23.59,34.67v.03s0,.03,0,.03v.03s-.02.03-.02.03v.02s-.03.02-.03.02l-.02.02-.02.02-.02.02-.03.02h-.03s-.03.02-.03.02h-.03s-.04.01-.04.01h-.04s-.04,0-.04,0h-.02s-.02,0-.02,0v-.58h.02s.02-.01.02-.01h.03s.03,0,.03,0h.03s.03,0,.03,0h.03s.03.02.03.02h.02s.02.03.02.03l.02.02.02.02.02.02v.02s.02.02.02.02v.03s.01.03.01.03v.03s0,.03,0,.03v.03s0,.03,0,.03Z"/>
            <path class="cls-1" d="M25.42,34.54v-.06s-.02-.06-.02-.06l-.02-.06-.03-.05-.03-.05-.04-.04-.04-.04-.05-.04-.06-.03-.06-.03-.07-.02h-.07s-.08-.02-.08-.02h-.17s-.12,0-.12,0h-.11s-.1.02-.1.02l-.09.02v1.85h.41v-.7h.15s.07-.01.07-.01h.07s.07-.03.07-.03l.07-.03.06-.03.06-.04.05-.04.04-.04.04-.05.03-.05.03-.05.02-.06.02-.06v-.07s.01-.07.01-.07v-.06ZM25.01,34.67v.03s0,.03,0,.03v.03s-.02.03-.02.03v.02s-.03.02-.03.02l-.02.02-.02.02-.02.02-.02.02h-.03s-.03.02-.03.02h-.03s-.03.01-.03.01h-.04s-.04,0-.04,0h-.02s-.02,0-.02,0v-.58h.02s.02-.01.02-.01h.03s.03,0,.03,0h.03s.03,0,.03,0h.03s.03.02.03.02h.02s.02.03.02.03l.02.02.02.02v.02s.03.02.03.02v.02s.02.03.02.03v.03s.01.03.01.03v.03s0,.03,0,.03v.03Z"/>
            <polygon class="cls-1" points="25.67 34.05 26.08 34.05 26.08 35.63 26.62 35.63 26.62 35.94 25.67 35.94 25.67 34.05"/>
            <polygon class="cls-1" points="27.74 35.11 27.26 35.11 27.26 35.62 27.81 35.62 27.81 35.94 26.85 35.94 26.85 34.05 27.77 34.05 27.77 34.37 27.26 34.37 27.26 34.8 27.74 34.8 27.74 35.11"/>
            <polygon class="cls-1" points="30.96 35.11 30.48 35.11 30.48 35.62 31.03 35.62 31.03 35.94 30.07 35.94 30.07 34.05 30.99 34.05 30.99 34.37 30.48 34.37 30.48 34.8 30.96 34.8 30.96 35.11"/>
            <polygon class="cls-1" points="33.15 34.39 32.77 34.39 32.77 34.05 33.93 34.05 33.93 34.39 33.55 34.39 33.55 35.94 33.15 35.94 33.15 34.39"/>
            <polygon class="cls-1" points="34.59 35.56 34.67 35.59 34.75 35.61 34.85 35.63 34.94 35.63 35.01 35.63 35.07 35.62 35.12 35.6 35.16 35.57 35.19 35.54 35.21 35.51 35.22 35.47 35.23 35.42 35.22 35.37 35.21 35.33 35.19 35.29 35.16 35.26 35.12 35.22 35.07 35.19 34.96 35.11 34.86 35.05 34.77 34.99 34.71 34.92 34.65 34.86 34.61 34.79 34.58 34.72 34.56 34.65 34.56 34.59 34.56 34.53 34.57 34.48 34.58 34.43 34.6 34.38 34.63 34.33 34.65 34.28 34.69 34.24 34.73 34.2 34.77 34.16 34.82 34.13 34.88 34.1 34.94 34.08 35 34.06 35.07 34.05 35.15 34.04 35.23 34.04 35.33 34.04 35.42 34.06 35.5 34.08 35.56 34.1 35.49 34.42 35.44 34.39 35.38 34.37 35.31 34.36 35.22 34.35 35.16 34.36 35.11 34.37 35.06 34.39 35.03 34.41 35 34.44 34.98 34.48 34.97 34.51 34.96 34.55 34.97 34.59 34.98 34.63 35 34.66 35.02 34.69 35.06 34.73 35.11 34.76 35.25 34.84 35.35 34.9 35.43 34.96 35.5 35.03 35.55 35.09 35.59 35.16 35.61 35.24 35.63 35.31 35.63 35.38 35.63 35.45 35.62 35.51 35.61 35.56 35.58 35.62 35.56 35.67 35.52 35.71 35.48 35.76 35.44 35.8 35.39 35.83 35.34 35.86 35.28 35.89 35.22 35.91 35.16 35.93 35.09 35.94 35.01 35.95 34.94 35.95 34.81 35.95 34.7 35.93 34.6 35.9 34.54 35.88 34.59 35.56"/>
            <polygon class="cls-1" points="36.1 34.39 35.73 34.39 35.73 34.05 36.88 34.05 36.88 34.39 36.51 34.39 36.51 35.94 36.1 35.94 36.1 34.39"/>
            <path class="cls-1" d="M39.77,35.86l-.03-.12-.04-.15-.03-.16-.02-.07-.02-.06-.02-.06-.03-.05-.03-.04-.04-.04-.04-.03-.05-.02h0s.08-.04.08-.04l.07-.04.06-.05.05-.06.04-.06.03-.07.02-.07v-.07s0-.06,0-.06v-.06s-.02-.05-.02-.05l-.02-.05-.02-.05-.03-.04-.04-.04-.04-.04-.05-.04-.06-.03-.06-.02-.07-.02h-.07s-.08-.02-.08-.02h-.16s-.12,0-.12,0h-.12s-.11.02-.11.02l-.1.02v1.85h.41v-.75h.11s.04.01.04.01l.04.02.03.03.03.04.02.05.02.07v.08s.04.15.04.15l.03.13.03.1.02.06h.43l-.03-.08ZM39.32,34.64v.03s0,.03,0,.03v.03s-.02.03-.02.03v.02s-.03.02-.03.02l-.02.02-.02.02-.02.02-.02.02h-.03s-.03.02-.03.02h-.03s-.03.01-.03.01h-.03s-.07,0-.07,0v-.56h.02s.02,0,.02,0h.03s.03,0,.03,0h.03s.03,0,.03,0h.03s.03.02.03.02h.02s.02.03.02.03l.02.02.02.02.02.02v.02s.02.02.02.02v.02s.01.03.01.03v.03s0,.03,0,.03v.03s0,.03,0,.03Z"/>
            <polygon class="cls-1" points="40.92 35.11 40.44 35.11 40.44 35.62 40.98 35.62 40.98 35.94 40.03 35.94 40.03 34.05 40.94 34.05 40.94 34.37 40.44 34.37 40.44 34.8 40.92 34.8 40.92 35.11"/>
            <polygon class="cls-1" points="41.21 35.56 41.29 35.59 41.37 35.61 41.47 35.63 41.56 35.63 41.63 35.63 41.69 35.62 41.74 35.6 41.78 35.57 41.81 35.54 41.83 35.51 41.84 35.47 41.85 35.42 41.84 35.37 41.83 35.33 41.81 35.29 41.78 35.26 41.74 35.22 41.69 35.19 41.58 35.11 41.48 35.05 41.39 34.99 41.32 34.92 41.27 34.86 41.23 34.79 41.2 34.72 41.18 34.65 41.18 34.59 41.18 34.53 41.19 34.48 41.2 34.43 41.22 34.38 41.24 34.33 41.27 34.28 41.31 34.24 41.35 34.2 41.39 34.16 41.44 34.13 41.49 34.1 41.55 34.08 41.62 34.06 41.69 34.05 41.76 34.04 41.84 34.04 41.94 34.04 42.04 34.06 42.12 34.08 42.17 34.1 42.11 34.42 42.06 34.39 42 34.37 41.92 34.36 41.84 34.35 41.78 34.36 41.73 34.37 41.68 34.39 41.65 34.41 41.62 34.44 41.6 34.48 41.59 34.51 41.58 34.55 41.58 34.59 41.6 34.63 41.61 34.66 41.64 34.69 41.68 34.73 41.73 34.76 41.87 34.84 41.97 34.9 42.05 34.96 42.12 35.03 42.17 35.09 42.21 35.16 42.23 35.24 42.25 35.31 42.25 35.38 42.25 35.45 42.24 35.51 42.22 35.56 42.2 35.62 42.17 35.67 42.14 35.71 42.1 35.76 42.06 35.8 42.01 35.83 41.96 35.86 41.9 35.89 41.84 35.91 41.77 35.93 41.71 35.94 41.63 35.95 41.56 35.95 41.43 35.95 41.32 35.93 41.22 35.9 41.15 35.88 41.21 35.56"/>
            <polygon class="cls-1" points="31.67 35.94 31.33 35.94 31.33 34.06 31.71 34.06 32.25 35.35 32.25 34.06 32.59 34.06 32.59 35.94 32.2 35.94 31.67 34.66 31.67 35.94"/>
            <polygon class="cls-1" points="15.16 35.94 14.82 35.94 14.82 34.06 15.2 34.06 15.74 35.35 15.74 34.06 16.08 34.06 16.08 35.94 15.7 35.94 15.16 34.66 15.16 35.94"/>
            <polygon class="cls-1" points="29.4 35.93 29.77 35.93 29.64 34.05 29.21 34.05 28.91 35.4 28.59 34.05 28.16 34.05 28.01 35.93 28.35 35.93 28.43 34.64 28.74 35.91 29.03 35.91 29.36 34.64 29.4 35.93"/>
            <line class="cls-2" x1="18.22" y1="33.85" x2="18.3" y2="34.22"/>
            <polygon class="cls-1" points="18.76 33.58 19.18 33.58 19.18 35.89 18.71 35.89 18.71 34.74 18.71 34.01 18.3 34.22 18.22 33.85 18.76 33.58"/>
            <path class="cls-1" d="M18.76,33.58l-.54.27.54-.27Z"/>
          </g>
          <path class="cls-3" d="M12.17,13.25c-.05.38-.14,1.12-.23,1.94-.01.08-.02.17-.03.25-.2,1.64-.44,3.49-.57,3.49h0c-.17,0-.32-.48-.38-.48-.02,0-.02.03-.03.1-.01.37-.93.57-.93.57-.57-.08-.8-.95-.86-2.02-.23,3.88-.32,8.89.65,9.17,0,0,.92-.43.95-1.2,0-.15.01-.21.03-.21.06,0,.2.98.37.98h0c.16,0,.66-6.99.91-10.41,0-.09.01-.18.02-.26.06-.8.1-1.37.12-1.53.02-.13,0-.27-.02-.39"/>
          <path class="cls-3" d="M16.04,13.3c-.01.34-.03.91-.05,1.55,0,.19-.01.39-.02.6-.06,1.63-.14,3.47-.25,3.47,0,0,0,0,0,0-.08,0-.17-.12-.25-.24-.08-.12-.14-.24-.17-.24-.01,0-.02.03-.02.1.02.37-.86.6-.86.6-.84-.1-1.09-1.93-1.14-3.63-.05,3.92.03,10.5,1.14,10.79,0,0,.88-.47.86-1.23,0-.15,0-.21.02-.21.03,0,.09.24.17.48.08.24.16.48.25.48h0c.16,0,.25-6.93.3-10.38,0-.21,0-.41,0-.6.01-.66.02-1.11.03-1.25,0-.1,0-.2-.02-.29"/>
          <path class="cls-3" d="M19.96,13.23c0,.29.01.75.02,1.28,0,.29.01.6.02.92.03,1.62.03,3.41-.09,3.41,0,0,0,0,0,0-.09,0-.19-.11-.27-.23-.09-.11-.16-.23-.19-.23-.02,0-.02.03-.01.1.04.37-.87.62-.87.62-.88-.08-1.24-1.86-1.39-3.55.09,2.37.29,5.68.69,7.99.07.4.14.76.22,1.09.23.92.51,1.53.86,1.61,0,0,.9-.49.84-1.25-.01-.15,0-.21,0-.21.03,0,.11.24.2.48.09.24.2.48.29.48,0,0,0,0,0,0,.04,0,.06-.44.05-1.16,0-.87-.04-2.15-.08-3.53-.06-1.95-.14-4.12-.2-5.63-.01-.35-.02-.66-.03-.93-.02-.51-.03-.86-.03-.98,0-.1-.01-.2-.03-.3"/>
          <path class="cls-2" d="M8.52,20.91h-1.9c-.07.06-.13.13-.17.21-.19.36-.36,1.85-.32,3.11l2.3.02.1-3.34Z"/>
          <path class="cls-2" d="M6.05,20.91h-.27l.03,3.32h.31c-.03-.73-.11-2.6-.07-3.32"/>
          <path class="cls-2" d="M20.25,15.4l-.06-.93-.16-2.55-3.3.12.11,2.71.03.65.13,3.17c0,.08-.01.19-.01.36-.04,2.8-.59-.83-.59-.83,0,0,0,.03,0,.09l-.02-2.78v-.61s-.02-2.77-.02-2.77l-3.71.13.08,2.95v.31s.1,3.37.1,3.37c-.12,2.15-.41.34-.52-.47l.04-2.9v-.28s.05-3.11.05-3.11h-3.3s-.11,3.39-.11,3.39h0s-.37,10.92-.37,10.92h0s-.21,6.31-.21,6.31l3.71.12.08-6.1v-.28s.02-1.16.02-1.16c0,0,0,0,0,0,.36-.95.63-.51.79.1l.03,1.08v.35s.09,2.87.09,2.87c.04-.48.12-.84.12-.84-.07,2.6.34,2.67,1.72,2.87,1.3.19,1.43-.53,1.44-.61l-.14,1.16-1.51-.07c-1.09,0-1.49-.73-1.61-1.5l.06,2.15h3.3l-.04-5.72v-.61s-.01-1.28-.01-1.28c.32-.66.63-.26.86.3l.04,1,.03.68.24,5.64,3.7-.26-.31-5.05-.06-.96-.13-2.14.77-.02c.09-1.15.19-2.3.29-3.45l-1.27.02-.34-5.51ZM11.67,32.2l-1.51-.1c-2.34-.05-1.44-3.38-1.44-3.38-.12,2.6.29,2.67,1.66,2.91,1.3.22,1.44-.51,1.45-.58l-.16,1.15ZM9.22,15.38c.03-.59.09-1.17.15-1.65-.28-.5.18-1.31.18-1.31.32,0,.61,0,.87,0,.15,0,.29,0,.42,0h0c.16,0,.3.01.43.03.73.03.99.1.94.17-.01.02-.04.08-.07.17.06.08.08.16.06.25,0,.04-.02.12-.04.24.03.12.03.25.02.38-.02.16-.06.71-.12,1.5,0,.08-.01.17-.02.26-.25,3.35-.73,10.2-.89,10.19-.21,0-.37-1.5-.39-.75-.02.75-.93,1.17-.93,1.17-.95-.28-.86-5.18-.64-8.98-.03-.52-.02-1.08.01-1.63,0,0,0-.01,0-.02M13.28,15.04c0-.65,0-1.26.03-1.72-.09-.43.05-.88.05-.88.35-.01.65-.02.93-.03.31-.02.57-.02.79,0,.74.02,1.02.08.99.15-.01.02-.02.11-.04.23.03.06.04.12.04.18,0,.05-.01.16-.02.32.02.09.02.19.02.29,0,.14-.02.59-.03,1.23,0,.18,0,.38,0,.59-.05,3.37-.14,10.16-.3,10.16-.21,0-.46-1.49-.43-.74.02.75-.86,1.2-.86,1.2-1.12-.28-1.2-6.72-1.14-10.56,0-.02,0-.04,0-.07,0-.12,0-.24,0-.36M20.8,32.07l-1.51-.02c-2.34.08-1.63-3.3-1.63-3.3.02,2.6.44,2.65,1.82,2.81,1.31.15,1.41-.59,1.42-.66l-.1,1.16ZM20.17,25.5c-.21,0-.53-1.47-.47-.73.06.75-.8,1.23-.8,1.23-.33-.07-.6-.67-.81-1.58-.08-.32-.15-.68-.21-1.07-.38-2.26-.56-5.5-.65-7.83,0-.04,0-.09-.01-.13-.02-.23-.03-.46-.04-.68-.03-.5-.03-.96-.04-1.33-.13-.45,0-.94,0-.94.44-.03.82-.06,1.14-.07.04,0,.09,0,.13,0,.02,0,.04,0,.06,0,.02,0,.03,0,.05,0,.99-.03,1.36.03,1.33.1,0,.02-.02.12-.03.25.04.06.06.13.05.19,0,.05,0,.16,0,.32.02.1.03.19.03.29,0,.12,0,.46.03.96,0,.26.02.57.03.91.05,1.48.13,3.6.19,5.51.04,1.35.07,2.61.08,3.46,0,.7-.01,1.13-.05,1.13"/>
        </g>
      </g>
    </g>
  </g>
</svg>