<svg version="1.2" xmlns="http://www.w3.org/2000/svg" viewBox="0 0 1000 1000" width="256" height="256">
	<style>
		.s0 { fill: #013079 } 
		.s1 { fill: #f5f0e8 } 
	</style>
	<path class="s0" d="m991.49 499.76c0 158.15-25.93 272.48-85.6 350.81-75.78 99.36-205.86 140.94-406.14 140.94-260.62 0-402.13-70.41-460.01-246.55-21.8-66.16-31.74-147.3-31.74-245.2 0-97.9 9.94-178.94 31.74-245.1 57.9-176.25 199.39-246.66 460.01-246.66 200.39 0 330.36 41.68 406.14 141.05 59.69 78.46 85.6 192.68 85.6 350.71z"/>
	<g>
		<path class="s1" d="m344.81 374.36v42.8h-175.84l-0.78-36.18 117.48-118.26c5.84-6.22 9.73-12.06 12.44-18.28 2.33-6.22 3.9-12.84 3.9-20.23 0-14.38-5.84-27.61-15.55-37.34-9.34-9.33-22.58-15.17-37.35-15.17-9.33 0-18.68 2.33-26.44 7-6.22 3.51-12.06 8.57-16.34 14.79v32.29h-42.79v-44.35l3.11-5.05c8.56-14.39 20.62-26.45 34.63-34.63h0.38c14.39-8.17 30.74-12.85 47.45-12.85 26.45 0 50.19 10.5 67.68 28.01 17.12 17.12 28.02 41.24 28.02 67.3 0 12.84-2.73 24.9-7.39 36.58-4.67 11.68-11.68 22.17-20.63 31.12l-82.08 82.47c0 0 110.1 0 110.1-0.02z"/>
		<path class="s1" d="m500.41 382.53h-134.6l-0.38-45.51 3.49-4.67 134.98-203.46 39.29 11.27v199.57h39.29v42.8h-39.29v34.61h-42.8c0 0 0-34.61 0.02-34.61zm0-168.83l-85.98 126.03h85.98z"/>
	</g>
	<path class="s1" d="m242.34 699.7c-11.51 0-21.01 9.43-21.01 20.94 0 11.5 9.5 21.35 21.01 21.35 11.5 0 20.94-9.9 20.94-21.35 0-11.45-9.51-20.94-20.94-20.94zm-46.29 0c-11.44 0-20.94 9.43-20.94 20.94 0 11.5 9.5 21.35 20.94 21.35 11.43 0 21.35-9.9 21.35-21.35 0-11.45-9.5-20.94-21.35-20.94z"/>
	<path class="s1" d="m268.78 481.07v145.47l-6.69 6.35c-7.92 8.27-17.42 14.61-28.09 18.94-10.67 4.39-21.76 6.74-33.21 6.74h-14.2v-0.42c-11.9 0-22.93-2.76-32.84-7.92-2.34 11.08-5.51 22.17-9.85 32.44-8.69 20.94-21.36 40.3-37.53 56.54l-30.86-30.86c12.26-12.27 21.75-26.44 28.44-42.29 6.34-15.43 9.91-32.44 9.91-49.8v-102.77h43.06v71.93c0 7.92 3.57 15.43 8.68 21 5.58 5.11 13.09 8.69 21.01 8.69h14.2c5.92 0 11.43-1.16 16.59-3.16 2.76-1.18 5.51-2.76 7.93-4.35v-126.51c0 0 43.45 0 43.45-0.02z"/>
	<path class="s1" d="m321.36 481.11h47.44c27.67 0 52.57 11.46 70.76 29.24 18.17 18.18 29.24 43.47 29.24 70.76 0 13.43-2.36 26.48-7.5 38.33-5.15 12.25-12.25 23.32-21.74 32.4l-6.33 6.33h-123.32v-43.08h104.35c3.16-3.94 5.14-7.9 7.11-11.85 2.76-7.1 4.34-14.23 4.34-22.13 0-15.42-6.33-29.65-16.6-39.92-10.26-10.27-24.5-16.59-40.31-16.59h-47.44c0 0 0-43.48 0-43.49z"/>
	<path class="s1" d="m819.39 575.65c0 22.94-9.09 43.46-24.1 58.49-15.02 15.01-35.61 24.52-58.49 24.52v-0.42h-171.99l-64.42-29.63v-221.37h43.46v193.69l30.44 14.25h162.49c10.67 0 20.54-4.34 27.63-11.5 7.16-7.51 11.85-16.96 11.85-28.05 0-5.51-1.18-10.67-3.11-15.01-0.82-2.4-2-4.34-3.16-6.34h-166.83l-5.93-42.71c38.37-10.27 73.9-28.05 104.76-51.73 30.79-23.76 57.31-53.38 77.08-87.75l37.54 21.7c-22.94 39.13-52.97 73.15-88.17 100.42-7.51 5.92-15.43 11.43-23.28 16.59h83.77l6.34 6.34c7.51 7.51 13.85 16.96 17.77 26.87 4.35 9.85 6.35 20.94 6.35 31.64z"/>
	<path class="s1" d="m900.81 386.32l-6.32-5.93c-0.78-1.18-1.98-1.98-3.16-2.36-1.19-0.38-2.37-0.78-3.95-0.78-2.76 0-5.14 1.18-7.11 3.16-1.98 1.58-3.16 4.34-3.16 7.11 0 2.76 1.18 5.52 3.16 7.1 1.59 1.98 3.95 2.77 6.33 3.17h27.66v18.97h-26.88v0.4c-0.4 0-0.78 0-1.18-0.4h-35.17v-18.97h8.69c-1.18-3.17-1.58-6.73-1.58-10.27 0-7.91 3.16-15.42 8.3-20.96h0.4c5.15-5.14 12.65-8.31 20.56-8.31 3.94 0 7.5 0.79 11.07 1.99h0.4c3.56 1.58 6.72 3.56 9.48 6.32l5.93 6.33-13.43 13.43zm6.32 245.46c1.58 6.72 4.35 13.43 7.91 19.37l-37.55 21.74c-5.53-9.49-9.49-19.38-12.25-29.65-2.76-10.67-4.35-21.33-4.35-32v-173.91h43.48v173.91c0 7.1 0.78 14.23 2.76 20.55z"/>
	<g>
		<path class="s1" d="m314.92 783.75q-1.02-0.01-1.77-0.77-0.76-0.76-0.77-1.75 0.01-0.63 0.12-1.39l31.21-81.41q0.5-1.25 1.39-2.01 0.88-0.77 2.64-0.77h8.57q1.64 0 2.57 0.77 0.94 0.76 1.44 2.01l31.09 81.41q0.26 0.76 0.26 1.39-0.01 1.02-0.77 1.75-0.76 0.76-1.75 0.77h-6.43q-1.51-0.01-2.21-0.77-0.7-0.74-0.93-1.39l-6.92-17.86h-41.29l-6.91 17.86q-0.13 0.63-0.89 1.39-0.75 0.76-2.26 0.77h-6.41zm20.14-30.84h33.97l-16.99-44.68z"/>
		<path class="s1" d="m435.47 785q-11.07 0-18.81-4.15-7.74-4.16-11.84-11.7-4.09-7.55-4.58-17.74-0.13-5.53-0.13-11.76 0-6.23 0.13-11.89 0.49-10.19 4.58-17.62 4.1-7.43 11.89-11.57 7.8-4.15 18.75-4.15 8.94-0.01 15.48 2.52 6.54 2.52 10.76 6.36 4.22 3.84 6.29 7.99 2.06 4.14 2.2 7.3 0.13 1.14-0.62 1.82-0.76 0.7-2.02 0.7h-7.42q-1.25-0.01-1.82-0.51-0.57-0.5-1.08-1.75-1.13-3.27-3.72-6.41-2.58-3.15-6.91-5.23-4.34-2.09-11.14-2.09-9.94 0-16.04 5.4-6.1 5.43-6.6 17.87-0.39 11.2 0 22.4 0.49 12.58 6.67 18.05 6.16 5.47 16.11 5.47 6.67 0 11.88-2.45 5.21-2.45 8.24-7.61 3.02-5.16 3.02-13.08v-5.28h-18.87q-1.25 0-2.08-0.82-0.82-0.82-0.82-2.21v-4.03q-0.01-1.38 0.82-2.21 0.82-0.81 2.08-0.81h28.45q1.38 0 2.13 0.81 0.76 0.82 0.77 2.21v12.08q0 10.31-4.22 18-4.22 7.69-12.27 11.88-8.05 4.22-19.26 4.21z"/>
		<path class="s1" d="m481.54 783.75q-1.02-0.01-1.77-0.77-0.76-0.76-0.77-1.75 0.01-0.63 0.12-1.39l31.21-81.41q0.5-1.25 1.39-2.01 0.88-0.77 2.64-0.77h8.57q1.64 0 2.57 0.77 0.94 0.76 1.44 2.01l31.09 81.41q0.26 0.76 0.26 1.39 0 1.02-0.76 1.75-0.76 0.76-1.76 0.77h-6.43q-1.51-0.01-2.2-0.77-0.71-0.74-0.94-1.39l-6.92-17.86h-41.29l-6.91 17.86q-0.13 0.63-0.89 1.39-0.75 0.76-2.26 0.77h-6.41zm20.14-30.84h33.97l-16.99-44.68z"/>
		<path class="s1" d="m574.64 783.75q-1.38-0.01-2.14-0.82-0.76-0.81-0.76-2.08v-82.18q0-1.37 0.76-2.2 0.76-0.83 2.14-0.82h28.57q12.96 0 20.88 3.89 7.93 3.91 11.58 11.52 3.64 7.62 3.77 18.7 0.12 5.66 0.12 9.94-0.01 4.27-0.12 9.82-0.25 11.57-3.84 19.18-3.59 7.61-11.33 11.33-7.74 3.71-20.45 3.72c0 0-29.2 0-29.18 0zm9.45-10.71h19.14q8.68 0 13.84-2.38 5.17-2.39 7.49-7.68 2.32-5.29 2.45-13.97 0.26-3.78 0.26-6.6v-5.66q0-2.84-0.26-6.49-0.26-12.2-5.78-18.05-5.55-5.85-18.63-5.86h-18.49c0 0 0 66.69-0.02 66.69z"/>
		<path class="s1" d="m661.35 783.75q-1.38-0.01-2.14-0.82-0.76-0.81-0.76-2.08v-82.3q0-1.25 0.76-2.08 0.76-0.83 2.14-0.82h6.67q1.26 0 2.07 0.82 0.81 0.81 0.82 2.08v82.3q-0.01 1.25-0.82 2.08-0.81 0.81-2.07 0.82z"/>
		<path class="s1" d="m695.7 783.75q-1.38-0.01-2.13-0.82-0.76-0.81-0.77-2.08v-82.18q0.01-1.37 0.77-2.2 0.75-0.83 2.13-0.82h30.71q14.2 0 22.52 6.67 8.29 6.68 8.3 19.76 0 9.7-4.85 15.79-4.84 6.1-13.15 8.5l19.37 33.47q0.39 0.76 0.39 1.39 0.01 1.02-0.82 1.75-0.81 0.76-1.82 0.77h-6.05q-2.13-0.01-3.15-1.13-1-1.14-1.75-2.26l-18.25-31.97h-22.01v32.46q-0.01 1.25-0.82 2.08-0.82 0.81-2.21 0.82c0 0-6.42 0-6.41 0zm9.44-46.07h20.76q9.43 0 14.09-3.96 4.67-3.96 4.66-11.76c0-5.2-1.53-9.02-4.59-11.7q-4.59-4.02-14.16-4.03h-20.76z"/>
		<path class="s1" d="m773.36 783.75q-1.25-0.01-2.09-0.82-0.81-0.81-0.81-2.08v-4.03q0-1.15 0.62-2.52 0.64-1.39 2.52-3.03l26.67-26.67q6.41-5.42 10.13-9.24 3.71-3.83 5.29-7.37 1.56-3.52 1.56-7.3 0-7.18-4.03-11.38-4.02-4.22-11.96-4.22-5.03 0-8.68 2.08-3.65 2.08-5.74 5.67-2.07 3.58-2.71 8.11-0.26 1.64-1.32 2.26-1.06 0.62-1.95 0.62h-6.55q-1.12 0.01-1.87-0.69-0.76-0.7-0.77-1.7 0.14-4.78 2.02-9.63 1.88-4.85 5.59-8.74 3.71-3.9 9.19-6.36 5.48-2.45 12.78-2.45 9.93 0 16.3 3.58 6.36 3.59 9.38 9.5 3.02 5.93 3.02 12.97 0 5.54-1.87 10.13-1.91 4.59-5.48 8.93-3.58 4.34-8.88 8.86l-24.15 24.54h39.25q1.38-0.01 2.21 0.74 0.81 0.76 0.82 2.14v5.16q-0.01 1.25-0.82 2.09-0.83 0.81-2.21 0.81h-55.48z"/>
		<path class="s1" d="m887.36 783.75q-1.25-0.01-2.06-0.82-0.83-0.81-0.82-2.08v-18.13h-40.78q-1.26 0-2.07-0.81-0.83-0.81-0.82-2.09v-5.04q0-0.49 0.32-1.56 0.31-1.07 1.07-2.21l37.74-53.22q1.51-2.14 4.66-2.14h9.05q1.25 0 2.09 0.82 0.82 0.81 0.82 2.08v53.23h11.32q1.38 0 2.21 0.81 0.81 0.81 0.82 2.09v5.16q-0.01 1.25-0.82 2.08-0.81 0.82-2.07 0.82h-11.45v18.12q0 1.26-0.81 2.09-0.81 0.81-2.09 0.82h-6.29zm-33.1-31.72h30.32v-43.16z"/>
	</g>
</svg>