<svg version="1.2" xmlns="http://www.w3.org/2000/svg" viewBox="0 0 1000 1000" width="1000" height="1000">
	<style>
		.s0 { fill: #013079 } 
		.s1 { fill: #f5f0e8 } 
	</style>
	<path class="s0" d="m783 521.01c0 91.01-14.93 156.81-49.27 201.89-43.61 57.17-118.47 81.1-233.73 81.1-149.99 0-231.42-40.52-264.73-141.88-12.55-38.08-18.27-84.77-18.27-141.11 0-56.35 5.72-102.98 18.27-141.06 33.32-101.43 114.74-141.95 264.73-141.95 115.32 0 190.12 23.99 233.73 81.17 34.35 45.16 49.27 110.89 49.27 201.84z"/>
	<g>
		<path class="s1" d="m410.83 448.84v24.63h-101.19l-0.45-20.82 67.61-68.06c3.36-3.58 5.6-6.94 7.16-10.52 1.34-3.58 2.24-7.39 2.24-11.64 0-8.28-3.36-15.89-8.95-21.49-5.37-5.37-12.99-8.73-21.49-8.73-5.37 0-10.75 1.34-15.22 4.03-3.58 2.02-6.94 4.93-9.4 8.51v18.58h-24.63v-25.52l1.79-2.91c4.93-8.28 11.87-15.22 19.93-19.93h0.22c8.28-4.7 17.69-7.39 27.31-7.39 15.22 0 28.88 6.04 38.95 16.12 9.85 9.85 16.12 23.73 16.12 38.73 0 7.39-1.57 14.33-4.25 21.05-2.69 6.72-6.72 12.76-11.87 17.91l-47.24 47.46c0 0 63.36 0 63.36-0.01z"/>
		<path class="s1" d="m500.38 453.54h-77.46l-0.22-26.19 2.01-2.69 77.68-117.09 22.61 6.49v114.85h22.61v24.63h-22.61v19.92h-24.63c0 0 0-19.92 0.01-19.92zm0-97.16l-49.48 72.53h49.48z"/>
	</g>
	<path class="s1" d="m351.86 636.07c-6.62 0-12.09 5.43-12.09 12.05 0 6.62 5.47 12.29 12.09 12.29 6.62 0 12.05-5.7 12.05-12.29 0-6.59-5.47-12.05-12.05-12.05zm-26.64 0c-6.58 0-12.05 5.43-12.05 12.05 0 6.62 5.47 12.29 12.05 12.29 6.58 0 12.29-5.7 12.29-12.29 0-6.59-5.47-12.05-12.29-12.05z"/>
	<path class="s1" d="m367.08 510.25v83.72l-3.85 3.65c-4.56 4.76-10.03 8.41-16.17 10.9-6.14 2.53-12.52 3.88-19.11 3.88h-8.17v-0.24c-6.85 0-13.2-1.59-18.9-4.56-1.35 6.38-3.17 12.76-5.67 18.67-5 12.05-12.29 23.19-21.6 32.54l-17.76-17.76c7.06-7.06 12.52-15.22 16.37-24.34 3.65-8.88 5.7-18.67 5.7-28.66v-59.14h24.78v41.39c0 4.56 2.06 8.88 5 12.09 3.21 2.94 7.53 5 12.09 5h8.17c3.41 0 6.58-0.67 9.55-1.82 1.59-0.68 3.17-1.59 4.56-2.5v-72.81c0 0 25.01 0 25.01-0.01z"/>
	<path class="s1" d="m397.34 510.27h27.3c15.92 0 30.25 6.6 40.72 16.83 10.46 10.46 16.83 25.02 16.83 40.72 0 7.73-1.36 15.24-4.32 22.06-2.96 7.05-7.05 13.42-12.51 18.65l-3.64 3.64h-70.97v-24.79h60.05c1.82-2.27 2.96-4.55 4.09-6.82 1.59-4.09 2.5-8.19 2.5-12.74 0-8.87-3.64-17.06-9.55-22.97-5.91-5.91-14.1-9.55-23.2-9.55h-27.3c0 0 0-25.02 0-25.03z"/>
	<path class="s1" d="m683.95 564.68c0 13.2-5.23 25.01-13.87 33.66-8.64 8.64-20.49 14.11-33.66 14.11v-0.24h-98.98l-37.07-17.05v-127.4h25.01v111.47l17.52 8.2h93.51c6.14 0 11.82-2.5 15.9-6.62 4.12-4.32 6.82-9.76 6.82-16.14 0-3.17-0.68-6.14-1.79-8.64-0.47-1.38-1.15-2.5-1.82-3.65h-96.01l-3.41-24.58c22.08-5.91 42.53-16.14 60.29-29.77 17.72-13.67 32.98-30.72 44.36-50.5l21.6 12.49c-13.2 22.52-30.48 42.1-50.74 57.79-4.32 3.41-8.88 6.58-13.4 9.55h48.21l3.65 3.65c4.32 4.32 7.97 9.76 10.23 15.46 2.5 5.67 3.65 12.05 3.65 18.21z"/>
	<path class="s1" d="m730.81 455.72l-3.64-3.41c-0.45-0.68-1.14-1.14-1.82-1.36-0.68-0.22-1.36-0.45-2.27-0.45-1.59 0-2.96 0.68-4.09 1.82-1.14 0.91-1.82 2.5-1.82 4.09 0 1.59 0.68 3.18 1.82 4.09 0.91 1.14 2.27 1.59 3.64 1.82h15.92v10.92h-15.47v0.23c-0.23 0-0.45 0-0.68-0.23h-20.24v-10.92h5c-0.68-1.82-0.91-3.87-0.91-5.91 0-4.55 1.82-8.87 4.78-12.06h0.23c2.96-2.96 7.28-4.78 11.83-4.78 2.27 0 4.32 0.45 6.37 1.14h0.23c2.05 0.91 3.87 2.05 5.46 3.64l3.41 3.64-7.73 7.73zm3.64 141.26c0.91 3.87 2.5 7.73 4.55 11.15l-21.61 12.51c-3.18-5.46-5.46-11.15-7.05-17.06-1.59-6.14-2.5-12.28-2.5-18.42v-100.08h25.02v100.08c0 4.09 0.45 8.19 1.59 11.83z"/>
	<g>
		<path class="s1" d="m393.63 684.44q-0.59 0-1.02-0.44-0.44-0.44-0.44-1.01 0-0.36 0.07-0.8l17.96-46.85q0.29-0.72 0.8-1.16 0.5-0.44 1.52-0.44h4.93q0.94 0 1.48 0.44 0.54 0.44 0.83 1.16l17.89 46.85q0.15 0.44 0.15 0.8 0 0.59-0.44 1.01-0.44 0.44-1.01 0.44h-3.7q-0.87 0-1.27-0.44-0.41-0.43-0.54-0.8l-3.98-10.28h-23.76l-3.98 10.28q-0.08 0.36-0.51 0.8-0.43 0.44-1.3 0.44h-3.69zm11.59-17.75h19.55l-9.78-25.71z"/>
		<path class="s1" d="m463.01 685.16q-6.38 0-10.83-2.39-4.46-2.39-6.81-6.73-2.36-4.35-2.64-10.21-0.07-3.18-0.07-6.77 0-3.59 0.07-6.84 0.28-5.87 2.64-10.14 2.35-4.28 6.84-6.66 4.49-2.39 10.79-2.39 5.14 0 8.91 1.45 3.76 1.45 6.19 3.66 2.43 2.21 3.62 4.6 1.19 2.38 1.27 4.2 0.07 0.66-0.36 1.05-0.44 0.4-1.16 0.4h-4.27q-0.72 0-1.05-0.29-0.33-0.29-0.62-1.01-0.65-1.88-2.14-3.69-1.49-1.81-3.98-3.01-2.49-1.2-6.41-1.2-5.72 0-9.23 3.11-3.51 3.12-3.8 10.28-0.23 6.44 0 12.89 0.28 7.24 3.84 10.39 3.55 3.15 9.27 3.15 3.84 0 6.84-1.41 3-1.41 4.74-4.38 1.74-2.97 1.74-7.53v-3.04h-10.86q-0.72 0-1.2-0.47-0.47-0.47-0.47-1.27v-2.32q-0.01-0.79 0.47-1.27 0.47-0.47 1.2-0.47h16.37q0.79 0 1.23 0.47 0.44 0.47 0.44 1.27v6.95q0 5.94-2.43 10.36-2.43 4.43-7.06 6.84-4.63 2.42-11.08 2.42z"/>
		<path class="s1" d="m489.52 684.44q-0.59 0-1.02-0.44-0.44-0.44-0.44-1.01 0-0.36 0.07-0.8l17.96-46.85q0.29-0.72 0.8-1.16 0.5-0.44 1.52-0.44h4.93q0.94 0 1.48 0.44 0.54 0.44 0.83 1.16l17.89 46.85q0.15 0.44 0.15 0.8 0 0.59-0.44 1.01-0.44 0.44-1.01 0.44h-3.7q-0.87 0-1.27-0.44-0.41-0.43-0.54-0.8l-3.98-10.28h-23.76l-3.98 10.28q-0.08 0.36-0.51 0.8-0.43 0.44-1.3 0.44h-3.69zm11.59-17.75h19.55l-9.78-25.71z"/>
		<path class="s1" d="m543.1 684.44q-0.8 0-1.23-0.47-0.44-0.47-0.44-1.2v-47.29q0-0.79 0.44-1.27 0.43-0.48 1.23-0.47h16.44q7.46 0 12.02 2.24 4.56 2.25 6.66 6.63 2.1 4.38 2.17 10.76 0.07 3.26 0.07 5.72-0.01 2.46-0.07 5.65-0.15 6.66-2.21 11.04-2.07 4.38-6.52 6.52-4.45 2.13-11.77 2.14c0 0-16.8 0-16.79 0zm5.44-6.16h11.01q5 0 7.97-1.37 2.97-1.38 4.31-4.42 1.33-3.05 1.41-8.04 0.15-2.18 0.15-3.8v-3.26q0-1.63-0.15-3.73-0.15-7.03-3.33-10.39-3.19-3.37-10.72-3.37h-10.64c0 0 0 38.38-0.01 38.38z"/>
		<path class="s1" d="m593 684.44q-0.8 0-1.23-0.47-0.44-0.47-0.44-1.2v-47.36q0-0.72 0.44-1.2 0.43-0.48 1.23-0.47h3.84q0.72 0 1.19 0.47 0.47 0.46 0.47 1.2v47.36q0 0.72-0.47 1.2-0.47 0.47-1.19 0.47z"/>
		<path class="s1" d="m612.77 684.44q-0.8 0-1.23-0.47-0.44-0.47-0.44-1.2v-47.29q0-0.79 0.44-1.27 0.43-0.48 1.23-0.47h17.67q8.17 0 12.96 3.84 4.77 3.84 4.78 11.37 0 5.58-2.79 9.09-2.79 3.51-7.57 4.89l11.15 19.26q0.22 0.44 0.22 0.8 0 0.59-0.47 1.01-0.47 0.44-1.05 0.44h-3.48q-1.23 0-1.81-0.65-0.58-0.66-1.01-1.3l-10.5-18.4h-12.67v18.68q0 0.72-0.47 1.2-0.47 0.47-1.27 0.47c0 0-3.7 0-3.69 0zm5.43-26.51h11.95q5.43 0 8.11-2.28 2.68-2.28 2.68-6.77c0-2.99-0.88-5.19-2.64-6.73q-2.64-2.32-8.15-2.32h-11.95z"/>
		<path class="s1" d="m657.46 684.44q-0.72 0-1.2-0.47-0.47-0.47-0.47-1.2v-2.32q0-0.66 0.36-1.45 0.36-0.8 1.45-1.74l15.35-15.35q3.69-3.12 5.83-5.32 2.13-2.2 3.04-4.24 0.9-2.03 0.9-4.2 0-4.13-2.32-6.55-2.32-2.43-6.88-2.43-2.9 0-5 1.2-2.1 1.19-3.3 3.26-1.19 2.06-1.56 4.67-0.15 0.94-0.76 1.3-0.61 0.36-1.12 0.36h-3.77q-0.65 0-1.08-0.4-0.44-0.4-0.44-0.98 0.08-2.75 1.16-5.54 1.08-2.79 3.22-5.03 2.13-2.24 5.29-3.66 3.15-1.41 7.35-1.41 5.72 0 9.38 2.06 3.66 2.07 5.4 5.47 1.74 3.41 1.74 7.46 0 3.19-1.08 5.83-1.1 2.64-3.15 5.14-2.06 2.5-5.11 5.1l-13.9 14.12h22.59q0.79 0 1.27 0.43 0.47 0.43 0.47 1.23v2.97q0 0.72-0.47 1.2-0.48 0.47-1.27 0.47h-31.93z"/>
		<path class="s1" d="m723.07 684.44q-0.72 0-1.19-0.47-0.48-0.47-0.47-1.2v-10.43h-23.47q-0.72 0-1.19-0.47-0.48-0.47-0.47-1.2v-2.9q0-0.29 0.18-0.9 0.18-0.61 0.62-1.27l21.72-30.63q0.87-1.23 2.68-1.23h5.21q0.72 0 1.2 0.47 0.47 0.46 0.47 1.2v30.63h6.52q0.79 0 1.27 0.47 0.47 0.47 0.47 1.2v2.97q0 0.72-0.47 1.2-0.47 0.47-1.19 0.47h-6.59v10.43q0 0.72-0.47 1.2-0.47 0.47-1.2 0.47h-3.62zm-19.05-18.25h17.45v-24.84z"/>
	</g>
</svg>