<svg xmlns="http://www.w3.org/2000/svg" viewBox="0 0 512 512" width="512" height="512" role="img" aria-label="Notification bell with one unread badge">
  <defs>
    <linearGradient id="bellGradient" x1="115" y1="45" x2="320" y2="438" gradientUnits="userSpaceOnUse">
      <stop offset="0" stop-color="#FFD21A"/>
      <stop offset="1" stop-color="#FFB300"/>
    </linearGradient>
    <linearGradient id="clapperGradient" x1="210" y1="398" x2="210" y2="512" gradientUnits="userSpaceOnUse">
      <stop offset="0" stop-color="#FFB300"/>
      <stop offset="1" stop-color="#FF9800"/>
    </linearGradient>
    <linearGradient id="badgeGradient" x1="268" y1="0" x2="512" y2="245" gradientUnits="userSpaceOnUse">
      <stop offset="0" stop-color="#FF4038"/>
      <stop offset="1" stop-color="#F8322B"/>
    </linearGradient>
  </defs>

  <path fill="url(#clapperGradient)" d="M143.6 394.8h147.8v37.6C291.4 476.4 258.3 512 217.5 512s-73.9-35.6-73.9-79.6v-37.6z"/>

  <path fill="url(#bellGradient)" d="M215.9 41.7c-48.4 0-90.3 25.9-113.5 64.6C88.5 129.5 81 156.6 81 184.7v65.5c0 46.3-18.7 90.5-51.7 122.6L13.6 388.1C-13 414 5.3 459.1 42.4 459.1h359.4c37.1 0 55.4-45.1 28.8-71l-15.7-15.3c-33-32.1-51.7-76.3-51.7-122.6v-65.5C363.2 105.7 297.2 41.7 215.9 41.7z"/>

  <circle cx="379.2" cy="134.1" r="134.1" fill="url(#badgeGradient)"/>

  <path fill="#000000" d="M390.7 206.6c-10.4 0-18.8-8.4-18.8-18.8v-73.4h-24.4c-10.4 0-18.8-8.4-18.8-18.8s8.4-18.8 18.8-18.8h43.2c10.4 0 18.8 8.4 18.8 18.8v92.2c0 10.4-8.4 18.8-18.8 18.8z"/>
</svg>
