<svg version="1.2" xmlns="http://www.w3.org/2000/svg" viewBox="0 0 394 107" width="394" height="107">
	<style>
		.s0 { fill: #f5f0e8 } 
	</style>
	<g>
		<g>
			<path class="s0" d="m94.99 68.73v9.59h-39.43l-0.17-8.11 26.34-26.52c1.31-1.4 2.18-2.7 2.8-4.1 0.52-1.4 0.87-2.88 0.87-4.54 0-3.23-1.31-6.19-3.49-8.37-2.09-2.09-5.06-3.4-8.38-3.4-2.09 0-4.19 0.52-5.93 1.57-1.4 0.78-2.71 1.92-3.67 3.31v7.24h-9.59v-9.94l0.7-1.13c1.91-3.23 4.62-5.94 7.76-7.77h0.09c3.23-1.83 6.89-2.88 10.64-2.88 5.93 0 11.26 2.36 15.18 6.29 3.84 3.83 6.28 9.24 6.28 15.09 0 2.88-0.61 5.58-1.66 8.2-1.04 2.61-2.62 4.97-4.62 6.98l-18.41 18.49z"/>
			<path class="s0" d="m129.88 70.56h-30.18l-0.09-10.21 0.79-1.05 30.27-45.62 8.81 2.53v44.75h8.81v9.6h-8.81v7.76h-9.6zm0-37.86l-19.28 28.27h19.28z"/>
		</g>
		<path class="s0" d="m187.62 80c-2.58 0-4.71 2.12-4.71 4.7 0 2.58 2.13 4.79 4.71 4.79 2.58 0 4.69-2.23 4.69-4.79 0-2.56-2.12-4.7-4.69-4.7zm-10.38 0c-2.57 0-4.7 2.12-4.7 4.7 0 2.58 2.13 4.79 4.7 4.79 2.56 0 4.78-2.23 4.78-4.79 0-2.56-2.13-4.7-4.78-4.7z"/>
		<path class="s0" d="m193.55 30.98v32.62l-1.5 1.42c-1.78 1.86-3.91 3.28-6.31 4.25q-3.59 1.5-7.44 1.52h-3.19v-0.09c-2.67 0-5.14-0.62-7.36-1.78-0.53 2.49-1.24 4.98-2.21 7.27-1.95 4.7-4.79 9.04-8.42 12.69l-6.92-6.92q4.13-4.14 6.38-9.49c1.42-3.46 2.23-7.27 2.23-11.16v-23.05h9.65v16.12c0 1.78 0.8 3.46 1.95 4.71 1.25 1.15 2.93 1.95 4.71 1.95h3.18c1.33 0 2.57-0.26 3.72-0.71 0.62-0.27 1.24-0.62 1.78-0.97v-28.38c0 0 9.74 0 9.75 0z"/>
		<path class="s0" d="m205.34 30.98h10.63c6.21 0 11.79 2.57 15.87 6.56 4.08 4.08 6.56 9.75 6.56 15.86 0 3.02-0.54 5.94-1.69 8.6-1.15 2.75-2.75 5.23-4.87 7.27l-1.42 1.42h-27.65v-9.67h23.4c0.7-0.88 1.15-1.77 1.59-2.65 0.62-1.6 0.98-3.2 0.98-4.97 0-3.45-1.42-6.65-3.72-8.95-2.31-2.3-5.5-3.72-9.05-3.72h-10.63z"/>
		<path class="s0" d="m319.24 52.17c0 5.14-2.04 9.74-5.41 13.11-3.37 3.37-7.99 5.5-13.12 5.5v-0.09h-38.57l-14.44-6.64v-49.65h9.75v43.44l6.82 3.19h36.44c2.39 0 4.6-0.97 6.19-2.58 1.61-1.68 2.66-3.8 2.66-6.29 0-1.23-0.26-2.39-0.7-3.36-0.18-0.54-0.44-0.97-0.71-1.42h-37.41l-1.33-9.58c8.61-2.3 16.58-6.29 23.5-11.6 6.9-5.33 12.85-11.97 17.28-19.68l8.42 4.87c-5.15 8.77-11.88 16.4-19.78 22.52-1.68 1.33-3.46 2.56-5.22 3.72h18.79l1.42 1.42c1.68 1.68 3.1 3.8 3.99 6.03 0.97 2.2 1.42 4.69 1.43 7.09z"/>
		<path class="s0" d="m337.5 9.71l-1.42-1.33c-0.18-0.27-0.44-0.45-0.71-0.54-0.26-0.09-0.53-0.18-0.88-0.18-0.62 0-1.15 0.27-1.6 0.71-0.44 0.36-0.7 0.98-0.7 1.6 0 0.62 0.26 1.24 0.7 1.59 0.36 0.45 0.89 0.62 1.42 0.71h6.21v4.26h-6.03v0.08c-0.09 0-0.18 0-0.27-0.08h-7.88v-4.26h1.95c-0.27-0.71-0.36-1.5-0.36-2.3 0-1.78 0.71-3.46 1.86-4.7h0.09c1.15-1.15 2.84-1.86 4.61-1.86 0.88 0 1.68 0.18 2.48 0.44h0.09c0.79 0.36 1.5 0.8 2.12 1.42l1.33 1.42c0 0-3.01 3.01-3.01 3.02zm1.42 55.05c0.35 1.5 0.97 3.01 1.77 4.34l-8.42 4.88c-1.24-2.13-2.13-4.35-2.75-6.65-0.62-2.4-0.98-4.79-0.98-7.18v-39h9.75v39c0 1.6 0.18 3.19 0.63 4.61z"/>
		<g>
			<path class="s0" d="m198.7 103.66q-0.23 0-0.41-0.18-0.18-0.18-0.18-0.42 0-0.15 0.03-0.32l7.38-19.27q0.12-0.29 0.33-0.47 0.2-0.18 0.62-0.18h2.03q0.38 0 0.61 0.18 0.22 0.18 0.34 0.47l7.36 19.27q0.06 0.17 0.06 0.32 0 0.24-0.18 0.42-0.18 0.18-0.42 0.18h-1.52q-0.36 0-0.52-0.18-0.16-0.18-0.22-0.33l-1.64-4.23h-9.76l-1.64 4.23q-0.03 0.15-0.21 0.33-0.17 0.18-0.54 0.18h-1.51zm4.76-7.3h8.04l-4.02-10.56z"/>
			<path class="s0" d="m227.22 103.96q-2.61 0-4.45-0.99-1.83-0.98-2.8-2.77-0.97-1.78-1.09-4.2-0.03-1.31-0.02-2.78-0.01-1.47 0.02-2.81 0.12-2.41 1.09-4.17 0.97-1.75 2.81-2.74 1.85-0.98 4.44-0.98 2.11 0 3.66 0.6 1.55 0.59 2.55 1.5 1 0.91 1.49 1.89 0.49 0.98 0.52 1.73 0.03 0.27-0.15 0.43-0.18 0.16-0.47 0.16h-1.76q-0.3 0-0.43-0.12-0.14-0.11-0.25-0.41-0.27-0.78-0.88-1.52-0.61-0.75-1.64-1.24-1.03-0.49-2.63-0.49-2.35 0-3.8 1.28-1.44 1.28-1.56 4.23-0.09 2.65 0 5.3 0.12 2.98 1.58 4.27 1.46 1.3 3.81 1.3 1.58 0 2.81-0.58 1.24-0.58 1.96-1.8 0.71-1.22 0.71-3.1v-1.25h-4.47q-0.29 0-0.49-0.19-0.19-0.19-0.19-0.52v-0.95q0-0.33 0.19-0.53 0.2-0.19 0.49-0.19h6.73q0.33 0 0.51 0.19 0.18 0.2 0.17 0.53v2.85q0.01 2.45-0.99 4.26-1 1.82-2.9 2.81-1.91 1-4.56 1z"/>
			<path class="s0" d="m238.12 103.66q-0.24 0-0.42-0.18-0.18-0.18-0.18-0.42 0-0.15 0.03-0.32l7.39-19.27q0.12-0.29 0.32-0.47 0.21-0.18 0.63-0.18h2.03q0.38 0 0.61 0.18 0.22 0.18 0.34 0.47l7.36 19.27q0.06 0.17 0.05 0.32 0 0.24-0.17 0.42-0.18 0.18-0.42 0.18h-1.52q-0.36 0-0.52-0.18-0.16-0.18-0.22-0.33l-1.64-4.23h-9.77l-1.63 4.23q-0.04 0.15-0.21 0.33-0.18 0.18-0.54 0.18zm4.77-7.3h8.04l-4.02-10.56z"/>
			<path class="s0" d="m260.15 103.66q-0.33 0-0.5-0.2-0.18-0.19-0.18-0.49v-19.44q0-0.33 0.18-0.52 0.18-0.19 0.5-0.2h6.76q3.07 0.01 4.95 0.93 1.87 0.92 2.73 2.72 0.86 1.81 0.9 4.42 0.03 1.34 0.02 2.35 0.01 1.01-0.02 2.33-0.07 2.74-0.91 4.54-0.85 1.8-2.68 2.68-1.83 0.88-4.84 0.87c0 0-6.91 0-6.91 0.01zm2.23-2.53h4.53q2.05 0 3.28-0.56 1.22-0.57 1.76-1.82 0.56-1.25 0.58-3.3 0.06-0.9 0.06-1.57v-1.33q0-0.68-0.06-1.54-0.06-2.89-1.37-4.27-1.31-1.38-4.4-1.39h-4.38z"/>
			<path class="s0" d="m280.67 103.66q-0.33 0-0.51-0.2-0.18-0.19-0.18-0.49v-19.47q0-0.3 0.18-0.49 0.18-0.19 0.51-0.2h1.58q0.29 0.01 0.49 0.2 0.19 0.19 0.19 0.49v19.47q0 0.3-0.19 0.49-0.2 0.2-0.49 0.2z"/>
			<path class="s0" d="m288.8 103.66q-0.33 0-0.51-0.2-0.18-0.19-0.18-0.49v-19.44q0-0.33 0.18-0.52 0.18-0.19 0.51-0.2h7.26q3.36 0 5.33 1.58 1.97 1.58 1.96 4.68 0.01 2.29-1.14 3.74-1.15 1.44-3.11 2.01l4.58 7.92q0.09 0.17 0.09 0.32 0 0.24-0.19 0.42-0.2 0.18-0.43 0.18h-1.43q-0.51 0-0.75-0.27-0.23-0.27-0.41-0.54l-4.32-7.56h-5.21v7.68q0 0.3-0.2 0.49-0.19 0.2-0.52 0.2zm2.24-10.9h4.91q2.23 0 3.33-0.94 1.11-0.94 1.1-2.78 0-1.84-1.08-2.77-1.09-0.96-3.35-0.95h-4.91z"/>
			<path class="s0" d="m307.17 103.66q-0.3 0-0.5-0.2-0.19-0.19-0.19-0.49v-0.95q0-0.27 0.15-0.59 0.15-0.33 0.59-0.72l6.32-6.31q1.52-1.28 2.4-2.19 0.88-0.91 1.25-1.74 0.37-0.84 0.37-1.73 0-1.7-0.95-2.7-0.96-0.99-2.83-0.99-1.19 0-2.06 0.49-0.86 0.49-1.35 1.34-0.49 0.85-0.64 1.92-0.07 0.38-0.32 0.53-0.25 0.15-0.46 0.15h-1.55q-0.26 0-0.44-0.16-0.18-0.17-0.18-0.4 0.03-1.13 0.47-2.28 0.45-1.15 1.33-2.07 0.88-0.92 2.17-1.5 1.3-0.58 3.02-0.58 2.35 0 3.86 0.85 1.5 0.84 2.22 2.24 0.71 1.41 0.71 3.07 0 1.31-0.44 2.4-0.45 1.09-1.3 2.11-0.85 1.03-2.1 2.1l-5.72 5.81h9.29q0.33 0 0.53 0.18 0.19 0.18 0.19 0.5v1.22q0 0.3-0.19 0.49-0.2 0.2-0.53 0.2z"/>
			<path class="s0" d="m334.14 103.66q-0.3 0-0.49-0.2-0.19-0.19-0.19-0.49v-4.29h-9.65q-0.3 0-0.49-0.19-0.2-0.19-0.2-0.49v-1.19q0-0.12 0.08-0.38 0.07-0.25 0.25-0.52l8.93-12.59q0.36-0.51 1.1-0.51h2.15q0.29 0.01 0.49 0.2 0.19 0.19 0.19 0.49v12.6h2.68q0.33 0 0.52 0.19 0.2 0.19 0.2 0.49v1.22q0 0.3-0.2 0.49-0.19 0.2-0.49 0.2h-2.71v4.29q0 0.29-0.19 0.49-0.2 0.19-0.49 0.19zm-7.83-7.5h7.17v-10.22z"/>
		</g>
	</g>
</svg>