<svg version="1.2" xmlns="http://www.w3.org/2000/svg" viewBox="0 0 500 500" width="500" height="500">
	<style>
		.s0 { fill: #f5f0e8 } 
	</style>
	<g>
		<path class="s0" d="m162.44 214.6v24.86h-102.8l-0.45-21.01 68.68-68.71c3.41-3.61 5.69-7 7.27-10.61 1.37-3.62 2.28-7.46 2.28-11.75 0-8.36-3.41-16.04-9.09-21.7-5.46-5.42-13.2-8.81-21.83-8.81-5.46 0-10.92 1.35-15.47 4.07-3.63 2.04-7.05 4.98-9.54 8.59v18.75h-25.03v-25.76l1.82-2.93c5.01-8.36 12.06-15.37 20.25-20.12h0.22c8.41-4.74 17.97-7.46 27.75-7.46 15.46 0 29.33 6.1 39.56 16.27 10.01 9.94 16.38 23.96 16.38 39.1 0 7.46-1.59 14.46-4.32 21.24-2.73 6.79-6.82 12.88-12.06 18.08l-47.99 47.91c0 0 64.37 0 64.37-0.01z"/>
		<path class="s0" d="m253.41 219.34h-78.69l-0.22-26.43 2.04-2.72 78.91-118.19 22.97 6.55v115.93h22.97v24.86h-22.97v20.11h-25.02c0 0 0-20.11 0.01-20.11zm0-98.07l-50.26 73.21h50.26z"/>
	</g>
	<path class="s0" d="m102.53 403.59c-6.72 0-12.28 5.48-12.28 12.17 0 6.68 5.56 12.4 12.28 12.4 6.73 0 12.25-5.75 12.25-12.4 0-6.66-5.56-12.17-12.25-12.17zm-27.06 0c-6.68 0-12.24 5.48-12.24 12.17 0 6.68 5.56 12.4 12.24 12.4 6.69 0 12.49-5.75 12.49-12.4 0-6.66-5.56-12.17-12.49-12.17z"/>
	<path class="s0" d="m118 276.59v84.51l-3.91 3.68c-4.64 4.8-10.19 8.49-16.43 11-6.24 2.56-12.72 3.92-19.42 3.92h-8.29v-0.24c-6.96 0-13.41-1.61-19.21-4.61-1.37 6.44-3.22 12.88-5.76 18.85-5.07 12.16-12.48 23.41-21.94 32.85l-18.04-17.93c7.17-7.13 12.72-15.36 16.63-24.57 3.71-8.96 5.79-18.85 5.79-28.93v-59.7h25.17v41.78c0 4.61 2.1 8.97 5.08 12.21 3.26 2.96 7.65 5.04 12.29 5.04h8.29c3.47 0 6.69-0.67 9.71-1.83 1.61-0.69 3.22-1.61 4.63-2.53v-73.49c0 0 25.41 0 25.41-0.01z"/>
	<path class="s0" d="m148.74 276.61h27.73c16.17 0 30.73 6.66 41.37 16.99 10.62 10.55 17.09 25.25 17.09 41.1 0 7.8-1.38 15.38-4.38 22.27-3.01 7.11-7.17 13.54-12.71 18.82l-3.7 3.68h-72.1v-25.03h61.01c1.84-2.29 3-4.59 4.15-6.88 1.62-4.13 2.54-8.27 2.54-12.86 0-8.95-3.7-17.22-9.7-23.19-6.01-5.96-14.33-9.64-23.57-9.64h-27.73c0 0 0-25.25 0-25.26z"/>
	<path class="s0" d="m439.9 331.53c0 13.32-5.32 25.25-14.09 33.98-8.78 8.72-20.82 14.24-34.2 14.24v-0.24h-100.55l-37.66-17.21v-128.6h25.41v112.52l17.8 8.27h94.99c6.24 0 12.01-2.52 16.16-6.68 4.18-4.36 6.92-9.85 6.92-16.29 0-3.2-0.69-6.2-1.82-8.72-0.47-1.39-1.16-2.52-1.84-3.69h-97.54l-3.46-24.81c22.43-5.96 43.2-16.29 61.24-30.05 18.01-13.8 33.51-31.01 45.07-50.97l21.94 12.6c-13.41 22.74-30.96 42.5-51.54 58.34-4.39 3.44-9.02 6.64-13.62 9.64h48.98l3.71 3.68c4.39 4.36 8.09 9.85 10.39 15.61 2.54 5.72 3.71 12.16 3.71 18.38z"/>
	<path class="s0" d="m487.5 221.54l-3.7-3.44c-0.45-0.68-1.15-1.15-1.85-1.37-0.69-0.22-1.38-0.45-2.3-0.45-1.62 0-3.01 0.68-4.16 1.83-1.15 0.92-1.85 2.53-1.85 4.13 0 1.61 0.7 3.21 1.85 4.13 0.93 1.15 2.31 1.6 3.7 1.84h16.17v11.02h-15.71v0.23c-0.23 0-0.46 0-0.69-0.23h-20.56v-11.02h5.08c-0.69-1.84-0.93-3.91-0.93-5.97 0-4.59 1.85-8.95 4.86-12.17h0.23c3.01-2.99 7.4-4.83 12.02-4.83 2.3 0 4.39 0.46 6.47 1.15h0.23c2.09 0.92 3.94 2.07 5.55 3.68l3.46 3.67-7.85 7.8zm3.7 142.59c0.92 3.91 2.54 7.81 4.62 11.26l-21.95 12.63c-3.23-5.51-5.55-11.26-7.16-17.22-1.62-6.2-2.54-12.4-2.54-18.6v-101.02h25.41v101.02c0 4.13 0.46 8.27 1.62 11.94z"/>
</svg>