<svg version="1.2" xmlns="http://www.w3.org/2000/svg" viewBox="0 0 800 800" width="200" height="200">
	<style>
		.s0 { fill: #696c75 } 
		.s1 { fill: #013079 } 
		.s2 { fill: #0046b3 } 
		.s3 { fill: #004bbf } 
	</style>
	<path class="s0" d="m9 186.79c0-53.59 0-80.38 8.63-101.57 11.86-29.12 34.97-52.22 64.09-64.09 21.18-8.63 47.98-8.63 101.57-8.63 53.59 0 80.39 0 101.57 8.63 29.12 11.87 52.23 34.97 64.09 64.09 8.63 21.19 8.63 47.98 8.63 101.57 0 53.6 0 80.39-8.63 101.57-11.86 29.13-34.97 52.23-64.09 64.1-21.18 8.62-47.98 8.62-101.57 8.62-53.59 0-80.39 0-101.57-8.62-29.12-11.87-52.23-34.97-64.09-64.1-8.63-21.18-8.63-47.97-8.63-101.57z"/>
	<path class="s1" d="m9 616.71c0-53.59 0-80.39 8.63-101.57 11.86-29.12 34.97-52.23 64.09-64.09 21.18-8.63 47.98-8.63 101.57-8.63 53.59 0 80.39 0 101.57 8.63 29.12 11.86 52.23 34.97 64.09 64.09 8.63 21.18 8.63 47.98 8.63 101.57 0 53.59 0 80.39-8.63 101.57-11.86 29.12-34.97 52.23-64.09 64.09-21.18 8.63-47.98 8.63-101.57 8.63-53.59 0-80.39 0-101.57-8.63-29.12-11.86-52.23-34.97-64.09-64.09-8.63-21.18-8.63-47.98-8.63-101.57z"/>
	<path class="s2" d="m438.92 616.71c0-53.59 0-80.39 8.63-101.57 11.86-29.12 34.97-52.23 64.09-64.09 21.18-8.63 47.98-8.63 101.57-8.63 53.6 0 80.39 0 101.57 8.63 29.12 11.86 52.23 34.97 64.09 64.09 8.63 21.18 8.63 47.98 8.63 101.57 0 53.59 0 80.39-8.63 101.57-11.86 29.12-34.97 52.23-64.09 64.09-21.18 8.63-47.97 8.63-101.57 8.63-53.59 0-80.39 0-101.57-8.63-29.12-11.86-52.23-34.97-64.09-64.09-8.63-21.18-8.63-47.98-8.63-101.57z"/>
	<path fill-rule="evenodd" class="s3" d="m578.35 326.23c0 19.25 15.61 34.86 34.86 34.86 19.25 0 34.86-15.61 34.86-34.86v-104.57h104.58c19.25 0 34.85-15.61 34.85-34.86 0-19.25-15.6-34.86-34.85-34.86h-104.58v-104.58c0-19.25-15.61-34.85-34.86-34.85-19.25 0-34.86 15.6-34.86 34.85v104.58h-104.57c-19.26 0-34.86 15.61-34.86 34.86 0 19.25 15.6 34.86 34.86 34.86h104.57z"/>
</svg>