<svg xmlns="http://www.w3.org/2000/svg" viewBox="67.1577 63.4921 353.3456 142.5565"><g id="Layer_1_00000183955523784219831140000008923730615748816825_" transform="matrix(1, 0, 0, 1, 25.05766868591309, 31.692090988159183)"><g><path class="st2" d="M386.3,129.5c2.4-0.1,4.9-0.1,7.3,0c1.1,0,1.4-0.2,1.4-1.4c0-22.8,0-45.6,0-68.4c0-4.3,0-8.7,0-13.1   c0-0.7-0.1-1-0.9-1c-3.1,0-6.1,0-9.2,0c-0.7,0-1,0.1-1,0.9c0,0.9,0,1.8-0.1,2.6c-0.5,14.4,0.1,28.8,0,43.1c0,0.3,0.2,0.6-0.3,0.9   c-0.7-1.2-1.3-2.3-1.8-3.6c-3.9-10.4-7.7-20.8-11.5-31.2c-1.4-3.8-2.7-7.7-4.3-11.4c-0.4-1-0.9-1.4-2-1.3c-2.5,0.1-5,0.1-7.4,0   c-1.1,0-1.5,0.2-1.5,1.4c0.1,21.5,0.1,43,0.1,64.5c0,5.6-0.2,11.2,0.2,16.8c0,0.8,0.2,1.2,1.1,1.2c2.8-0.1,5.7-0.1,8.5,0   c0.8,0,1-0.2,1-1c0-4.2,0.1-8.5,0.1-12.7c0-9.8-0.2-19.6,0.1-29.4c0-1.7,0.2-3.3,0.2-5c0.6,0.1,0.7,0.6,0.9,0.9   c0.9,1.6,1.7,3.3,2.4,5.1c2,5.4,4,10.7,5.9,16.1c3.1,8.3,5.9,16.7,9.1,25C385.1,129.2,385.5,129.5,386.3,129.5z" style="fill: rgb(7, 7, 7);"></path><path class="st2" d="M339.1,120c-2.9-9.1-6.1-18-9.2-27c-0.3-0.8-0.1-1.1,0.7-1.3c1.9-0.3,3.7-0.7,5.5-1.1   c2.8-0.6,4.3-2.4,4.4-5.3c0.1-3.1,0.2-6.2,0.3-9.3c0.1-5.8-0.3-11.7,0-17.5c0.1-3.1,0.2-6.2-0.6-9.2c-0.6-2.3-2.4-3.7-4.7-3.7   c-10.8,0-21.7,0-32.5,0c-1,0-1.3,0.2-1.3,1.3c0,13.5,0,27.1,0,40.6c0,0,0,0,0,0c0,13.6,0,27.2,0,40.7c0,0.8,0.1,1.1,1,1.1   c3.2-0.1,6.3,0,9.5,0c0.7,0,0.9-0.2,0.9-0.9c0-4.4,0.2-8.9,0.2-13.3c0-17.3,0-34.5,0-51.8c0-2.2,0.1-4.4,0.4-6.6   c0.1-0.8,0.3-1.1,1.2-1.1c4.1,0,8.1,0,12.2,0c0.9,0,1.2,0.3,1.3,1.1c0.3,2.1,0.4,4.3,0.4,6.5c-0.1,6.1,0.2,12.1-0.2,18.2   c-0.1,1.1-0.5,1.3-1.5,1.3c-3.1,0-6.1,0.1-9.2,0.2c-0.5,0-1,0-1,0.7c-0.1,3.1-0.3,6.3,0.8,9.3c1.7,5,3.6,9.9,5.4,14.9   c2.4,6.8,4.5,13.6,7.1,20.3c0.4,1,0.9,1.2,1.9,1.2c2.4-0.1,4.9,0,7.3,0c2.7,0,2.7,0,2.1-2.7C340.9,124.4,339.8,122.3,339.1,120z" style="fill: rgb(7, 7, 7);"></path><path class="st2" d="M173.9,78.8c0-10.7,0-21.5,0-32.2c0-0.9-0.2-1.2-1.2-1.2c-3.1,0.1-6.2,0-9.4,0c-0.7,0-1,0.2-1.2,0.8   c-0.9,2.1-1.9,4.2-2.8,6.2c-0.2,0.5-0.3,1-0.3,1.5c0.3,4.1,0.6,8.2,0.9,12.3c1,13.2,1.9,26.4,2.9,39.7c0.1,1.4,0,2.8-0.8,4.2   c-1.6,2.8-3.5,5.5-5.4,8.2c-0.3,0.4-0.5,0.5-0.9,0.1c-2.2-2.3-4.1-4.7-5.5-7.5c-0.9-1.9-1.4-3.9-1.1-6c0.2-1.7,0.3-3.5,0.4-5.2   c1.1-15.2,2.2-30.4,3.4-45.6c0-0.5,0-1-0.2-1.5c-0.9-2-1.9-4-2.8-6.1c-0.3-0.7-0.7-0.9-1.4-0.9c-3.2,0-6.4,0.1-9.6,0   c-1,0-1.2,0.3-1.1,1.2c0.1,2.2,0.1,4.4,0.1,6.6c0,17.4,0,34.7,0,52.1c0,3.2,0,6.4,0.5,9.6c1,5.3,3.2,9.9,8.1,12.6   c3.8,2.1,7.9,2.5,12.1,1.9c3.1-0.5,6.2-1.4,8.6-3.6c4.6-4.2,6.4-9.6,6.5-15.6C174.1,99.8,173.9,89.3,173.9,78.8z" style="fill: rgb(7, 7, 7);"></path><path class="st2" d="M285.5,46.7c0-1.1-0.3-1.3-1.3-1.3c-3,0.1-6.1,0.1-9.1,0c-0.8,0-1.1,0.2-1.4,0.9c-0.9,2-1.8,4-2.7,6   c-0.2,0.5-0.3,1-0.3,1.6c0.4,5.2,0.7,10.4,1.1,15.6c0.9,12.1,1.8,24.2,2.7,36.3c0.1,1.6-0.1,3.1-1,4.5c-1.6,2.7-3.4,5.2-5.1,7.8   c-0.4,0.6-0.6,0.5-1,0.1c-1.3-1.4-2.6-2.8-3.6-4.4c-1.6-2.6-3.1-5.2-2.9-8.5c1.4-17.1,2.6-34.2,3.9-51.3c0-0.5,0-1-0.2-1.5   c-0.9-2-1.9-4-2.7-6.1c-0.3-0.7-0.7-0.9-1.5-0.9c-3.2,0-6.3,0.1-9.5,0c-1,0-1.2,0.2-1.2,1.2c0,10.7,0,21.5,0,32.2c0,0,0,0,0.1,0   c0,9.4,0,18.8,0,28.3c0,3.8,0.2,7.6,1.4,11.2c1.7,5.2,5.2,8.8,10.5,10.5c2.8,0.9,5.6,1,8.4,0.6c3.3-0.4,6.5-1.4,9.1-3.7   c4.5-4.1,6.3-9.5,6.5-15.4c0.2-6.3,0-12.7,0-19.1C285.4,76.4,285.4,61.6,285.5,46.7z" style="fill: rgb(7, 7, 7);"></path><path class="st2" d="M221.1,129.4c1,0,1.3-0.2,1.3-1.2c0-11.8,0-23.6,0-35.3c0,0,0,0,0.1,0c0-11.7,0-23.5,0-35.2   c0-1,0.2-1.4,1.3-1.4c3.8,0.1,7.7,0,11.5,0c0.8,0,1-0.2,1-1c-0.1-2.9,0-5.8,0-8.6c0-0.7-0.1-1-0.9-1c-12.1,0-24.2,0-36.3,0   c-0.7,0-1,0.1-0.9,0.9c0.1,2.9,0.1,5.8,0,8.7c0,0.8,0.3,1,1,1c3.8,0,7.7,0,11.5,0c0.8,0,1.1,0.2,1.1,1.1   c-0.1,4.6-0.1,9.3-0.1,13.9c0,19,0,37.9,0,56.9c0,1.1,0.3,1.3,1.3,1.3C215.5,129.3,218.3,129.3,221.1,129.4z" style="fill: rgb(7, 7, 7);"></path><path class="st2" d="M122.4,31.9c-1.1,0-0.8,0.8-0.8,1.3c0,46.4,0,92.7,0,139.1c0,0.4,0,0.9,0,1.3c0,0.2,0,0.4,0.3,0.6   c1,0.4,1.7-0.1,1.7-1.2c0-23.3,0-46.7,0-70c0-23.3,0-46.6,0-69.9C123.6,32.1,123.4,31.8,122.4,31.9z" style="fill: rgb(7, 7, 7);"></path><path class="st2" d="M209.1,145.8c-0.6-0.6-2.1-0.1-3.1-0.2c-0.9-0.1-1.1,0.2-1.1,1c0,5.6,0,11.1,0,16.6c0,0.3,0.2,0.6-0.2,0.9   c-3.6-5.2-7.3-10.2-10.7-15.5c-1.5-2.4-3.2-3.6-6-3.1c-0.9,0.1-1.1,0.3-1.1,1.1c0,6.8,0,13.5,0,20.2c0,1.1-0.5,2.6,0.2,3.2   c0.7,0.6,2.1,0.1,3.2,0.2c0.8,0.1,0.9-0.2,0.9-0.9c0-4.9,0-9.8,0-14.7c0-0.9,0-1.9,0-2.8c0.1,0,0.2,0,0.2,0   c3.6,5.2,7.4,10.2,10.8,15.5c1.5,2.4,3.2,3.5,5.9,3.1c0.8-0.1,1-0.3,1-1.1c0-6.8,0-13.6,0-20.4   C209.3,147.9,209.7,146.4,209.1,145.8z" style="fill: rgb(7, 7, 7);"></path><path class="st2" d="M164.2,158c-1-0.6-2.1-1-3.2-1.4c-2.3-0.9-4.6-1.7-6.9-2.6c-1-0.4-1.9-1-1.9-2.3c0-1.4,0.9-2.1,2-2.6   c2-0.9,4-0.8,6,0.1c0.7,0.3,1.4,0.8,1.6,1.6c0.3,1.8,1.5,1.8,2.8,1.7c0.4,0,0.8-0.1,1.2,0c0.9,0.1,1-0.4,0.9-1.1   c-0.5-2.5-1.9-4.3-4.3-5.2c-3.6-1.5-7.3-1.4-10.8,0.1c-2.4,1.1-3.9,2.9-3.9,5.6c-0.1,2.6,1.5,4.2,3.6,5.4c1.2,0.7,2.6,1.2,3.9,1.7   c2.1,0.8,4.2,1.3,6.1,2.5c1,0.6,1.7,1.4,1.6,2.6c0,1.3-0.8,2.1-1.9,2.6c-2.5,1.1-5,1.1-7.4-0.1c-1-0.5-1.6-1.3-2.1-2.3   c-0.3-0.6,0-1.6-0.7-1.9c-0.6-0.2-1.4-0.1-2.1-0.1c-0.5,0-1,0-1.4,0c-0.5,0-0.6,0.1-0.6,0.6c0.2,2.4,1.1,4.4,3.2,5.8   c2.3,1.6,4.8,2.1,7.5,2.1c3,0,5.5-0.6,7.4-1.9C168.7,166.1,168.4,160.5,164.2,158z" style="fill: rgb(7, 7, 7);"></path><path class="st2" d="M261.5,167.1c-3.8,0.1-7.5,0-11.3,0c-0.9,0-1.1-0.2-1.1-1.1c0.1-2,0.1-3.9,0-5.9c0-0.8,0.2-1,1-1   c2.9,0,5.8,0,8.8,0c2.2,0,2.1,0,2.2-2.2c0-1-0.3-1.1-1.1-1.1c-3.3,0.1-6.6,0-9.8,0c-0.8,0-1-0.2-1-1c0.1-1.7,0.1-3.4,0-5.1   c0-0.7,0.2-0.9,0.9-0.9c3.3,0,6.6,0,9.8,0c2.3,0,2.2,0,2.2-2.3c0-0.8-0.2-1-1-1c-5.2,0-10.4,0-15.6,0c-0.9,0-1.1,0.2-1.1,1.1   c0,3.8,0,7.5,0,11.3s0,7.5,0,11.3c0,1,0.3,1.2,1.2,1.1c4.9,0,9.8,0,14.6,0c2.1,0,2.1,0,2.1-2.2C262.6,167.3,262.4,167,261.5,167.1   z" style="fill: rgb(7, 7, 7);"></path><path class="st2" d="M237.5,161.5c-0.8,0.1-1.5,0-2.3,0c-0.7-0.1-0.9,0.1-1.1,0.9c-0.4,2.2-1.5,3.9-3.7,4.7   c-3.6,1.3-7.5-0.3-9.2-3.7c-0.6-1.2-0.9-2.4-1-3.7c-0.3-3.1,0-6,2-8.5c2.9-3.6,9.2-3.7,11,0.1c0.8,1.8,1.8,1.9,3.4,1.8   c0.3,0,0.6,0,0.8,0c0.7,0.1,0.7-0.2,0.6-0.8c-0.5-2.8-2-5-4.7-6.1c-4-1.7-8-1.6-11.8,0.4c-4.6,2.4-6.1,6.5-6.2,10.2   c0,6.8,2.5,10.9,7.2,12.9c2.6,1.1,5.4,1.3,8.2,0.8c4.3-0.7,7.1-3.6,7.7-8C238.5,161.8,238.4,161.4,237.5,161.5z" style="fill: rgb(7, 7, 7);"></path><path class="st2" d="M326.9,145.9c-3.3,0.2-5.9,2.2-6.8,5.3c-1,3.7,0.1,7.6,2.7,9.4c0.5,0.4,1.1,0.7,1.7,0.9   c3.1,1,5.9,0.6,8.3-2.1c-0.1,3.4-1.1,5.9-2.8,7.1c-2.8,2-5.8,1.2-8.7,0.1c0,0.8,0,1.5,0,2.2c0,0.4,0.2,0.6,0.6,0.8   c5.8,1.9,11.3,0.4,13.4-6c1.4-4.1,1.2-8.4-0.3-12.5C333.6,147.4,330.9,145.6,326.9,145.9z M326.8,159.3c-0.1,0-0.2,0-0.4-0.1   c-2.7-0.6-4.1-4-3.1-7.4c0.8-2.7,3.2-4,5.9-3.2c2,0.6,3.2,2.6,3.1,5.4C332.3,157.7,330.1,159.8,326.8,159.3z" style="fill: rgb(7, 7, 7);"></path><path class="st2" d="M394.2,151.1c-1.6-4.4-5.6-6.2-10-4.9c-3.7,1.2-5.7,4.8-5,9.2c0.4,2.9,1.8,5.1,4.8,6c3,0.9,5.8,0.6,8-1.9   c0,0,0.1,0,0.2,0.1c-0.2,7-3.5,9-11.5,7c0,0.7,0,1.4,0,2.1c0,0.4,0.1,0.7,0.5,0.8c5.7,1.9,11.1,0.5,13.3-5.8   C395.9,159.6,395.7,155.3,394.2,151.1z M386,159.3c-0.1,0-0.2,0-0.2,0c-2.7-0.6-4.2-3.9-3.2-7.4c0.7-2.8,3.3-4.1,6-3.3   c2,0.6,3.1,2.6,3.1,5.4C391.5,157.7,389.3,159.9,386,159.3z" style="fill: rgb(7, 7, 7);"></path><path class="st2" d="M359.3,146.1c-5.9-1.3-10.4,2.6-9.8,8.8c0.3,3.1,1.6,5.5,4.6,6.6c3.1,1.1,6,0.7,8.5-2.2   c-0.3,2.8-0.6,5.4-2.7,7.1c-2.8,2.3-5.8,1.4-8.9,0.3c0,0.8,0,1.5,0,2.1c0,0.4,0,0.7,0.5,0.8c4.8,1.6,10.3,1.2,12.9-4.8   c2.1-4.8,1.9-9.8-0.2-14.7C363.3,148,361.6,146.6,359.3,146.1z M356.4,159.3c0,0-0.1,0-0.1,0c-2.8-0.5-4.3-3.8-3.4-7.4   c0.7-2.8,3.3-4.2,6-3.3c1.9,0.7,3,2.6,3.1,5.2C362,157.6,359.7,159.8,356.4,159.3z" style="fill: rgb(7, 7, 7);"></path><path class="st2" d="M192.4,89.4c3,0,6.1,0,9.1,0c0.6,0,0.9-0.1,0.9-0.8c-0.1-1.8-0.1-3.5,0-5.3c0-0.7-0.2-0.8-0.9-0.8   c-6,0-12,0-18,0c-0.7,0-1,0.1-1,0.9c0.1,1.7,0.1,3.4,0,5.1c0,0.8,0.2,0.9,1,0.9C186.4,89.4,189.4,89.4,192.4,89.4z" style="fill: rgb(7, 7, 7);"></path><path class="st2" d="M304.8,167.2c-1,0.1-2.1-0.1-3.1,0c-1,0.1-1.3-0.2-1.3-1.2c0.1-3.1,0-6.1,0-9.2c0-3.2,0-6.5,0-9.7   c0-0.7-0.2-0.9-0.9-0.9c-2.1-0.1-4,0.3-6,0.7c-2,0.4-2,0.4-2,2.4c0,0.6,0.1,0.9,0.8,0.7c1.4-0.3,2.7-0.5,4.1-0.8   c0.6-0.1,0.8,0,0.8,0.7c0,5.5,0,10.9,0,16.4c0,0.7-0.1,0.9-0.9,0.9c-1.2-0.1-2.3,0-3.5,0c-0.7,0-1,0.2-0.9,0.9c0,0.4,0,0.8,0,1.2   c0,0.4,0.2,0.6,0.6,0.6c4.1,0,8.3,0,12.5,0c0.5,0,0.6-0.2,0.6-0.6c0-0.4,0-0.8,0-1.2C305.8,167.3,305.4,167.2,304.8,167.2z" style="fill: rgb(7, 7, 7);"></path><path class="st2" d="M178.4,145.8c-0.7-0.6-2.1-0.1-3.2-0.2c-0.9-0.1-1.2,0.2-1.2,1.1c0.1,6.7,0,13.3,0,20c0,1.1-0.4,2.7,0.2,3.3   c0.7,0.7,2.3,0.1,3.4,0.2c0.8,0.1,1-0.2,1-1c0-3.8,0-7.7,0-11.5c0-2.9,0-5.9,0-8.9C178.6,147.9,179.1,146.4,178.4,145.8z" style="fill: rgb(7, 7, 7);"></path></g></g><g id="Layer_2_00000098192520161005881340000005184238143509899938_" transform="matrix(1, 0, 0, 1, 25.05766868591309, 31.692090988159183)"><linearGradient id="SVGID_1_" gradientUnits="userSpaceOnUse" x1="74.4596" y1="183.4737" x2="74.4596" y2="34.5474" gradientTransform="matrix(1 0 0 -1 0 207)"><stop offset="0" style="stop-color:#C29B28"></stop><stop offset="0.23" style="stop-color:#C79F2E"></stop><stop offset="0.5222" style="stop-color:#D7AC3D"></stop><stop offset="0.8467" style="stop-color:#F0C057"></stop><stop offset="1" style="stop-color:#FFCC66"></stop></linearGradient><path class="st3" d="M105.8,31.9c-6.1,0-12.2,0-18.3,0c-0.8,0-1.2,0.2-1.6,0.9c-1.8,3.8-3.6,7.5-5.4,11.2c-0.3,0.7-0.4,1.3-0.4,2.1  c0.6,8.1,1.2,16.2,1.8,24.2c0.8,11.1,1.7,22.2,2.6,33.3c0.8,9.8,1.6,19.6,2.4,29.4c0.2,2.8,0.3,5.5-1.2,8.1c-3.1,5-6.6,9.7-10,14.4  c-0.3,0.4-0.6,0.5-1,0.1c-5.1-4.9-9.4-10.3-11.9-17c-0.3-0.7-0.4-1.4-0.4-2.1c0-3,0.5-6.1,0.7-9.1c1.2-15.3,2.4-30.7,3.6-46  c0.9-12,1.9-24,2.8-35.9c0-0.5,0-0.9-0.3-1.4c-1.8-3.8-3.7-7.6-5.5-11.4c-0.3-0.6-0.7-0.9-1.4-0.9c-6.4,0-12.9,0-19.3,0  c-0.8,0-0.9,0.2-0.9,0.9c0.1,2.5,0.1,5,0.1,7.4c0,16.1,0,32.3,0,48.4c0,15.1,0,30.2,0,45.3c0,6.5,0.1,12.9,1.8,19.2  c2.6,9.1,8,15.7,17,19.1c7.8,2.9,15.9,2.9,23.9,0.6c3.5-1,6.9-2.2,9.8-4.6c8.2-6.8,12.1-15.8,12.1-26.1  c0.3-36.4,0.1-72.8,0.1-109.3C106.9,32.2,106.7,31.9,105.8,31.9z" style="fill: url('#SVGID_1_');"></path></g></svg>