<svg width="1082" height="103" viewBox="0 0 1082 103" fill="none" xmlns="http://www.w3.org/2000/svg">
<path d="M58 100.035V0.0351562H107.558L122.176 60.9167L137.982 0.0351562H186.827V100.035H155.809V21.936L135.368 100.035H109.222L89.0183 21.936V100.035H58ZM203.488 100.035L240.805 0.0351562H283.232L318.054 100.035H281.925L279.073 90.1178H242.35L239.26 100.035H203.488ZM250.312 65.5999H271.586L261.246 30.3382L250.312 65.5999ZM334.837 0.0351562H421V24.9663H368.352V100.035H334.837V0.0351562Z" fill="#E65909"/>
<path d="M57.31 2.00013C35.5611 4.00152 23.2149 6.29049 0.999999 13.8441C22.6898 20.8298 34.8916 23.8096 57.31 26.0078L57.31 22.3916C40.8843 20.1752 31.6295 18.5279 15.0775 13.8441C31.1357 8.95468 40.475 6.9406 57.31 5.29666L57.31 2.00013Z" fill="#E65909" stroke="#E65909" stroke-width="0.5"/>
<path d="M58 10L58 19C49.7751 17.3668 45.4622 16.2834 38 14.5C45.6261 12.401 50.0992 11.1878 58 10Z" fill="#E65909" stroke="#E65909" stroke-width="0.5"/>
<path d="M57.31 25.9962C35.5611 27.9976 23.2149 30.2866 0.999999 37.8402C22.6898 44.8259 34.8916 47.8057 57.31 50.0039L57.31 46.3877C40.8843 44.1712 31.6295 42.524 15.0775 37.8402C31.1357 32.9508 40.475 30.9367 57.31 29.2928L57.31 25.9962Z" fill="#E65909" stroke="#E65909" stroke-width="0.5"/>
<path d="M58 34L58 43C49.7751 41.3668 45.4622 40.2834 38 38.5C45.6261 36.401 50.0992 35.1878 58 34Z" fill="#E65909" stroke="#E65909" stroke-width="0.5"/>
<path d="M57.31 49.9923C35.5611 51.9937 23.2149 54.2827 0.999999 61.8363C22.6898 68.822 34.8916 71.8018 57.31 74L57.31 70.3838C40.8843 68.1673 31.6295 66.52 15.0775 61.8363C31.1357 56.9469 40.475 54.9328 57.31 53.2888L57.31 49.9923Z" fill="#E65909" stroke="#E65909" stroke-width="0.5"/>
<path d="M58 58L58 67C49.7751 65.3668 45.4622 64.2834 38 62.5C45.6261 60.401 50.0992 59.1878 58 58Z" fill="#E65909" stroke="#E65909" stroke-width="0.5"/>
<path d="M57.31 73.9923C35.5611 75.9937 23.2149 78.2827 0.999999 85.8363C22.6898 92.822 34.8916 95.8018 57.31 98L57.31 94.3838C40.8843 92.1673 31.6295 90.52 15.0775 85.8363C31.1357 80.9469 40.475 78.9328 57.31 77.2888L57.31 73.9923Z" fill="#E65909" stroke="#E65909" stroke-width="0.5"/>
<path d="M58 82L58 91C49.7751 89.3668 45.4622 88.2834 38 86.5C45.6261 84.401 50.0992 83.1878 58 82Z" fill="#E65909" stroke="#E65909" stroke-width="0.5"/>
<path d="M54.9844 0.0351562L54.9845 100.035H70.9844V0.0351562H54.9844Z" fill="#E65909"/>
<path d="M539.497 99.6001L576.84 0.0352364H619.297L654.143 99.6001H617.989L615.135 89.7259H578.386L575.294 99.6001H539.497ZM586.354 65.3147H607.642L597.296 30.2064L586.354 65.3147ZM664.873 66.6861H699.48C701.265 73.6803 707.449 76.6974 718.51 76.6974C730.046 76.6974 735.636 74.0917 735.636 68.0575C735.636 61.3376 730.641 59.6919 719.699 59.6919H704.001V36.7892H718.272C728.262 36.7892 733.376 36.1035 733.376 30.4807C733.376 25.5436 728.142 23.075 717.796 23.075C709.709 23.075 705.19 24.5836 704.358 28.2864H667.965C669.273 8.12659 685.21 0.0352364 717.32 0.0352364C752.167 0.0352364 768.816 7.85231 768.816 27.0522C768.816 37.7492 763.821 44.4691 754.069 46.8006C765.605 49.4062 771.314 56.949 771.314 69.4289C771.314 91.5088 754.069 101.932 718.985 101.932C683.187 101.932 665.824 92.0573 664.873 66.6861ZM799.257 99.6001V67.6461H830.654V99.6001H799.257ZM863.771 99.6001V0.0352364H928.349C953.086 0.0352364 966.525 12.1037 966.525 32.2635C966.525 52.5605 953.086 64.629 928.349 64.629H897.19V99.6001H863.771ZM915.505 21.4293H897.19V42.9606H915.505C925.495 42.9606 930.014 40.7663 930.014 32.1264C930.014 23.6236 925.495 21.4293 915.505 21.4293ZM993.688 99.6001V75.8746C1003.8 79.7146 1009.86 77.7946 1012.72 69.7032L971.806 0.0352364H1011.05L1027.82 43.7834L1043.16 0.0352364H1081.58L1045.9 72.1718C1039 86.0231 1036.26 89.4516 1033.53 92.8802C1028.18 99.7373 1019.61 102.206 1011.53 102.206C1005.22 102.206 999.873 101.109 993.688 99.6001Z" fill="white"/>
<path d="M529.722 0H443.5V100H477.038V24.4984H529.722V0Z" fill="white"/>
<path d="M516.047 100.037H502.047C504.587 91.3389 506.273 86.778 509.047 78.8867C512.312 86.9514 514.199 91.6816 516.047 100.037Z" fill="#E65909" stroke="#E65909" stroke-width="0.5"/>
<path d="M527.547 100.035C524.503 75.7023 520.535 61.8894 509.047 37.0352C498.422 61.3018 493.89 74.9533 490.547 100.035H496.047C499.418 81.658 501.923 71.3036 509.047 52.7852C516.483 70.7512 519.547 81.2 522.047 100.035H527.547Z" fill="#E65909" stroke="#E65909" stroke-width="0.5"/>
</svg>
