<?xml version="1.0" encoding="UTF-8" standalone="no"?>
<svg
   xmlns:dc="http://purl.org/dc/elements/1.1/"
   xmlns:cc="http://creativecommons.org/ns#"
   xmlns:rdf="http://www.w3.org/1999/02/22-rdf-syntax-ns#"
   xmlns:svg="http://www.w3.org/2000/svg"
   xmlns="http://www.w3.org/2000/svg"
   id="svg27"
   xml:space="preserve"
   viewBox="0 0 1024 768"
   y="0px"
   x="0px"
   version="1.1"><metadata
     id="metadata33"><rdf:RDF><cc:Work
         rdf:about=""><dc:format>image/svg+xml</dc:format><dc:type
           rdf:resource="http://purl.org/dc/dcmitype/StillImage" /></cc:Work></rdf:RDF></metadata><defs
     id="defs31" /><g
     transform="translate(-11.369)"
     id="logo-group"><path
       stroke-miterlimit="2"
       d="m 416.14,446.91 v 3.2614 h -16.451 v -25.016 h 3.2614 v 21.76 z"
       style="font-variant-ligatures:none;fill:#5886c5;stroke-width:0;stroke-miterlimit:2"
       id="path97685" /><path
       stroke-miterlimit="2"
       d="m 440.23,441.04 v 1.1469 h -13.834 q 0.28672,2.5088 1.8637,3.9066 1.57698,1.3978 4.7667,1.3978 3.2256,0 5.9494,-1.792 h 0.1792 v 3.1539 q -3.0106,1.6845 -7.0963,1.6845 -4.0499,0 -6.5229,-2.473 -2.4371,-2.5088 -2.4371,-6.7379 0,-4.265 2.1862,-7.0246 2.1862,-2.7597 6.3795,-2.7597 4.1933,0 6.3795,2.7597 2.1862,2.7597 2.1862,6.7379 z m -13.834,-1.5053 h 10.573 q -0.14336,-2.5805 -1.7562,-3.9066 -1.577,-1.3261 -3.5482,-1.3261 -1.9712,0 -3.5482,1.3261 -1.577,1.3261 -1.7203,3.9066 z"
       style="font-variant-ligatures:none;fill:#5886c5;stroke-width:0;stroke-miterlimit:2"
       id="path97687" /><path
       stroke-miterlimit="2"
       d="m 449.41,432.9 q 3.1181,-1.3619 6.6662,-1.3619 3.584,0 5.4835,2.0787 1.8995,2.0787 1.8995,4.9818 v 11.576 h -2.8672 l -0.39424,-2.2938 h -0.10752 q -2.5805,2.6522 -6.6304,2.6522 -2.4371,0 -4.1574,-1.4694 -1.6845,-1.4694 -1.6845,-4.0141 0,-2.5446 2.0787,-4.1216 2.1146,-1.577 6.1645,-1.577 h 4.3366 v -0.28672 q 0,-2.3654 -1.1827,-3.4048 -1.1469,-1.0394 -4.0141,-1.0394 -2.8672,0 -5.376,1.2186 h -0.21504 z m 10.788,12.078 v -3.0106 h -3.9066 q -5.4118,0 -5.4118,2.8672 0,2.8314 3.799,2.8314 1.577,0 3.0464,-0.75264 1.4694,-0.78848 2.473,-1.9354 z"
       style="font-variant-ligatures:none;fill:#5886c5;stroke-width:0;stroke-miterlimit:2"
       id="path97689" /><path
       stroke-miterlimit="2"
       d="m 483.52,431.54 h 0.28672 v 3.1181 H 483.52 q -2.1146,0 -3.9424,0.82432 -1.8278,0.82432 -2.8672,2.2938 v 12.401 h -3.2614 v -18.278 h 2.8672 l 0.39424,2.2938 v 0.5376 h 0.0717 q 2.5805,-3.1898 6.7379,-3.1898 z"
       style="font-variant-ligatures:none;fill:#5886c5;stroke-width:0;stroke-miterlimit:2"
       id="path97691" /><path
       stroke-miterlimit="2"
       d="m 501.72,431.54 q 2.9747,0 4.695,2.007 1.7203,2.007 1.7203,5.0176 v 11.612 h -3.2614 v -11.254 q 0,-4.3725 -3.9424,-4.3725 -3.1181,0 -5.8778,3.4406 v 12.186 h -3.2614 v -18.278 h 2.8672 l 0.39424,2.2938 v 0.5376 h 0.0717 q 2.903,-3.1898 6.5946,-3.1898 z"
       style="font-variant-ligatures:none;fill:#5886c5;stroke-width:0;stroke-miterlimit:2"
       id="path97693" /><path
       stroke-miterlimit="2"
       d="m 518.25,450.17 v -18.278 h 3.2614 v 18.278 z m 3.4048,-25.661 v 3.5123 h -3.5 v -3.51 z"
       style="font-variant-ligatures:none;fill:#5886c5;stroke-width:0;stroke-miterlimit:2"
       id="path97695" /><path
       stroke-miterlimit="2"
       d="m 541.76,431.54 q 2.9747,0 4.695,2.007 1.7203,2.007 1.7203,5.0176 v 11.612 h -3.2614 v -11.254 q 0,-4.3725 -3.9424,-4.3725 -3.1181,0 -5.8778,3.4406 v 12.186 h -3.2614 v -18.278 h 2.8672 l 0.39424,2.2938 v 0.5376 h 0.0717 q 2.903,-3.1898 6.5946,-3.1898 z"
       style="font-variant-ligatures:none;fill:#5886c5;stroke-width:0;stroke-miterlimit:2"
       id="path97697" /><path
       stroke-miterlimit="2"
       d="m 572.23,431.9 h 2.8672 v 17.49 q 0,4.5158 -2.1862,6.953 -2.1862,2.4371 -6.3437,2.4371 -4.1216,0 -7.5264,-1.8278 v -3.2256 h 0.1792 q 3.0464,1.9712 7.1322,1.9712 5.4835,0 5.4835,-5.8419 v -2.3296 h -0.10752 q -2.473,2.6522 -5.9136,2.6522 -3.4406,0 -6.1286,-2.4371 -2.6522,-2.473 -2.6522,-6.8813 0,-4.4083 2.6522,-6.8454 2.688,-2.473 6.1286,-2.473 3.4406,0 5.9136,2.6522 h 0.10752 z m -0.39424,12.652 v -7.383 q -2.5805,-2.6522 -5.376,-2.6522 -2.7597,0 -4.48,1.6486 -1.6845,1.6128 -1.6845,4.695 0,3.0822 1.6845,4.7309 1.7203,1.6128 4.48,1.6128 2.7955,0 5.376,-2.6522 z"
       style="font-variant-ligatures:none;fill:#5886c5;stroke-width:0;stroke-miterlimit:2"
       id="path97699" /><path
       stroke-miterlimit="2"
       d="m 604.98,425.16 q 2.5805,0 4.5158,0.7168 1.9354,0.68096 2.9747,1.8637 1.0752,1.1827 1.577,2.5446 0.50176,1.3261 0.50176,2.8314 0,1.5053 -0.50176,2.8672 -0.50176,1.3261 -1.577,2.5088 -1.0394,1.1827 -2.9747,1.8995 -1.9354,0.68096 -4.5158,0.68096 h -6.5229 v 9.1034 h -3.2614 v -25.016 z m -0.32256,12.831 q 3.6557,0 5.1251,-1.3978 1.5053,-1.3978 1.5053,-3.4765 0,-2.0787 -1.5053,-3.4765 -1.4694,-1.3978 -5.1251,-1.3978 h -6.2003 v 9.7485 z"
       style="font-variant-ligatures:none;fill:#5886c5;stroke-width:0;stroke-miterlimit:2"
       id="path97701" /><path
       stroke-miterlimit="2"
       d="m 639.1,441.04 v 1.1469 h -13.834 q 0.28672,2.5088 1.8637,3.9066 1.57698,1.3978 4.7667,1.3978 3.2256,0 5.9494,-1.792 h 0.1792 v 3.1539 q -3.0106,1.6845 -7.0963,1.6845 -4.0499,0 -6.5229,-2.473 -2.4371,-2.5088 -2.4371,-6.7379 0,-4.265 2.1862,-7.0246 2.1862,-2.7597 6.3795,-2.7597 4.1933,0 6.3795,2.7597 2.1862,2.7597 2.1862,6.7379 z m -13.834,-1.5053 h 10.573 q -0.14336,-2.5805 -1.7562,-3.9066 -1.577,-1.3261 -3.5482,-1.3261 -1.9712,0 -3.5482,1.3261 -1.577,1.3261 -1.7203,3.9066 z"
       style="font-variant-ligatures:none;fill:#5886c5;stroke-width:0;stroke-miterlimit:2"
       id="path97703" /><path
       stroke-miterlimit="2"
       d="m 658.03,431.54 h 0.28672 v 3.1181 H 658.03 q -2.1146,0 -3.9424,0.82432 -1.8278,0.82432 -2.8672,2.2938 v 12.401 h -3.2614 v -18.278 h 2.8672 l 0.39424,2.2938 v 0.5376 h 0.0717 q 2.5805,-3.1898 6.7379,-3.1898 z"
       style="font-variant-ligatures:none;fill:#5886c5;stroke-width:0;stroke-miterlimit:2"
       id="path97705" /><path
       stroke-miterlimit="2"
       d="m 676.26,427.24 q -1.3261,-0.46592 -2.6163,-0.46592 -1.2544,0 -2.007,0.68096 -0.7168,0.68096 -0.7168,2.473 v 1.9712 h 5.591 v 2.7955 h -5.591 v 15.483 h -3.2614 v -15.483 h -3.3331 v -2.7955 h 3.3331 v -2.0787 q 0,-3.1181 1.577,-4.6234 1.6128,-1.5411 3.6198,-1.5411 2.0429,0 3.6557,0.896 v 2.688 z"
       style="font-variant-ligatures:none;fill:#5886c5;stroke-width:0;stroke-miterlimit:2"
       id="path97707" /><path
       stroke-miterlimit="2"
       d="m 700.49,441.04 v 1.1469 h -13.834 q 0.28672,2.5088 1.8637,3.9066 1.57698,1.3978 4.7667,1.3978 3.2256,0 5.9494,-1.792 h 0.1792 v 3.1539 q -3.0106,1.6845 -7.0963,1.6845 -4.0499,0 -6.5229,-2.473 -2.4371,-2.5088 -2.4371,-6.7379 0,-4.265 2.1862,-7.0246 2.1862,-2.7597 6.3795,-2.7597 4.1933,0 6.3795,2.7597 2.1862,2.7597 2.1862,6.7379 z m -13.834,-1.5053 h 10.573 q -0.14336,-2.5805 -1.7562,-3.9066 -1.577,-1.3261 -3.5482,-1.3261 -1.9712,0 -3.5482,1.3261 -1.577,1.3261 -1.7203,3.9066 z"
       style="font-variant-ligatures:none;fill:#5886c5;stroke-width:0;stroke-miterlimit:2"
       id="path97709" /><path
       stroke-miterlimit="2"
       d="m 723.79,436.38 q -2.6522,-1.792 -5.7702,-1.792 -3.0822,0 -4.8384,1.792 -1.7562,1.7562 -1.7562,4.6592 0,2.903 1.7562,4.695 1.7562,1.7562 4.8384,1.7562 3.1181,0 5.7702,-1.792 h 0.14336 v 3.0822 q -2.9747,1.7562 -6.2003,1.7562 -3.9782,0 -6.7738,-2.5805 -2.7955,-2.5805 -2.7955,-6.9171 0,-4.3366 2.7955,-6.9171 2.7955,-2.5805 6.7738,-2.5805 3.2256,0 6.2003,1.7562 v 3.0822 z"
       style="font-variant-ligatures:none;fill:#5886c5;stroke-width:0;stroke-miterlimit:2"
       id="path97711" /><path
       stroke-miterlimit="2"
       d="m 742.65,434.69 h -5.1968 v 10.824 q 0,1.5053 0.82432,1.8637 0.68096,0.28672 1.7562,0.28672 1.07524,0 2.3654,-0.57344 H 742.65 v 2.6522 q -1.5053,0.78848 -3.2256,0.78848 -5.2326,0 -5.2326,-4.7309 v -11.11 h -3.4048 v -0.21504 l 6.6662,-6.5229 v 3.9424 h 5.1968 z"
       style="font-variant-ligatures:none;fill:#5886c5;stroke-width:0;stroke-miterlimit:2"
       id="path97713" /><path
       stroke-miterlimit="2"
       d="m 767.34,441.04 v 1.1469 h -13.834 q 0.28672,2.5088 1.8637,3.9066 1.57698,1.3978 4.7667,1.3978 3.2256,0 5.9494,-1.792 h 0.1792 v 3.1539 q -3.0106,1.6845 -7.0963,1.6845 -4.0499,0 -6.5229,-2.473 -2.4371,-2.5088 -2.4371,-6.7379 0,-4.265 2.1862,-7.0246 2.1862,-2.7597 6.3795,-2.7597 4.1933,0 6.3795,2.7597 2.1862,2.7597 2.1862,6.7379 z m -13.834,-1.5053 h 10.573 q -0.14336,-2.5805 -1.7562,-3.9066 -1.577,-1.3261 -3.5482,-1.3261 -1.9712,0 -3.5482,1.3261 -1.577,1.3261 -1.7203,3.9066 z"
       style="font-variant-ligatures:none;fill:#5886c5;stroke-width:0;stroke-miterlimit:2"
       id="path97715" /><path
       stroke-miterlimit="2"
       d="m 777.67,434.12 q 2.6163,-2.5805 6.0928,-2.5805 3.4765,0 6.0211,2.6522 h 0.10752 v -10.179 h 3.2614 v 26.163 h -2.8672 l -0.39424,-2.2938 h -0.10752 q -2.5446,2.6522 -6.0211,2.6522 -3.4765,0 -6.0928,-2.5805 -2.5805,-2.5805 -2.5805,-6.9171 0,-4.3366 2.5805,-6.9171 z m 6.5587,13.368 q 3.2256,0 5.6627,-2.688 v -7.5264 q -2.4371,-2.688 -5.6627,-2.688 -2.6522,0 -4.265,1.6845 -1.6128,1.6845 -1.6128,4.7667 0,3.0822 1.6128,4.7667 1.6128,1.6845 4.265,1.6845 z"
       style="font-variant-ligatures:none;fill:#5886c5;stroke-width:0;stroke-miterlimit:2"
       id="path97717" /><path
       stroke-miterlimit="2"
       d="m 469.78,311.03 c -1.2024,1.2024 -1.8036,2.6453 -1.8036,4.4489 v 34.509 h -55.791 v -34.509 c 0,-1.8036 -0.6012,-3.2465 -1.8036,-4.4489 -1.2024,-1.2024 -2.6453,-1.8036 -4.4489,-1.8036 -1.8036,0 -3.2465,0.6012 -4.4489,1.8036 -1.2024,1.2024 -1.8036,2.6453 -1.8036,4.4489 v 81.402 c 0,1.8036 0.6012,3.2465 1.8036,4.4489 1.2024,1.2024 2.6453,1.8036 4.4489,1.8036 1.8036,0 3.2465,-0.6012 4.4489,-1.8036 1.2024,-1.2024 1.8036,-2.6453 1.8036,-4.4489 v -35.83 h 55.791 v 35.832 c 0,1.8036 0.60122,3.2465 1.8036,4.4489 1.20238,1.2024 2.6453,1.8036 4.4489,1.8036 1.6834,0 3.1262,-0.48096 4.3287,-1.6834 1.2024,-1.2024 1.8036,-2.6453 1.8036,-4.5691 v -81.402 c 0,-1.8036 -0.6012,-3.2465 -1.8036,-4.4489 -1.2024,-1.2024 -2.6453,-1.8036 -4.3287,-1.8036 -1.8036,0 -3.2465,0.6012 -4.4489,1.8036 z"
       style="font-variant-ligatures:none;fill:#3866ad;stroke-width:0;stroke-miterlimit:2"
       id="path97720" /><path
       stroke-miterlimit="2"
       d="m 532.92,403.61 c 9.2585,0 17.074,-3.2465 23.567,-9.7394 6.493,-6.493 9.8597,-14.309 9.8597,-23.567 0,-9.2585 -3.3667,-17.074 -9.8597,-23.567 -6.493,-6.493 -14.309,-9.8597 -23.567,-9.8597 -9.2585,0 -17.074,3.3667 -23.567,9.8597 -6.493,6.493 -9.7394,14.309 -9.7394,23.567 0,9.2585 3.2465,17.074 9.7394,23.567 6.493,6.493 14.309,9.7394 23.567,9.7394 z m 0,-55.19 c 6.012,0 11.182,2.1643 15.511,6.3727 4.2084,4.3286 6.3727,9.499 6.3727,15.511 0,6.012 -2.1643,11.182 -6.3727,15.391 -4.3286,4.3286 -9.499,6.3727 -15.511,6.3727 -6.012,0 -11.182,-2.0441 -15.391,-6.3727 -4.3286,-4.2084 -6.3727,-9.3787 -6.3727,-15.391 0,-6.012 2.0441,-11.182 6.3727,-15.511 4.2084,-4.2084 9.3787,-6.3727 15.391,-6.3727 z"
       style="font-variant-ligatures:none;fill:#3866ad;stroke-width:0;stroke-miterlimit:2"
       id="path97722" /><path
       stroke-miterlimit="2"
       d="m 638.71,337.12 c -1.6834,0 -3.1262,0.6012 -4.3286,1.8036 -1.2024,1.2024 -1.6834,2.525 -1.6834,4.2084 v 29.94 c 0,5.1703 -1.9238,9.6192 -5.531,13.226 -3.7274,3.7274 -8.0561,5.531 -13.226,5.531 -5.1703,0 -9.4989,-1.8036 -13.226,-5.531 -3.6072,-3.6072 -5.4108,-8.0561 -5.4108,-13.226 v -29.94 c 0,-1.6834 -0.60118,-3.006 -1.8036,-4.2084 -1.20242,-1.2024 -2.525,-1.8036 -4.2084,-1.8036 -1.6834,0 -3.1263,0.6012 -4.3287,1.8036 -1.2024,1.2024 -1.6834,2.525 -1.6834,4.2084 v 29.94 c 0,8.537 2.8858,15.751 8.8978,21.763 6.012,6.012 13.226,9.018 21.763,9.018 8.4168,0 15.751,-3.006 21.763,-9.018 6.012,-6.012 9.018,-13.226 9.018,-21.763 v -29.94 c 0,-1.6834 -0.60122,-3.006 -1.8036,-4.2084 -1.20238,-1.2024 -2.525,-1.8036 -4.2084,-1.8036 z"
       style="font-variant-ligatures:none;fill:#3866ad;stroke-width:0;stroke-miterlimit:2"
       id="path97724" /><path
       stroke-miterlimit="2"
       d="m 693.85,391.11 c -3.487,0 -6.493,-1.2024 -8.8978,-3.7274 -2.525,-2.4048 -3.7274,-5.4108 -3.7274,-8.8978 v -28.256 h 10.701 c 1.4429,0 2.7655,-0.48096 3.8477,-1.5631 0.96192,-0.96192 1.5631,-2.2846 1.5631,-3.8477 0,-1.4429 -0.6012,-2.7655 -1.5631,-3.8477 -1.0822,-0.96192 -2.4048,-1.5631 -3.8477,-1.5631 h -10.701 v -16.954 c 0,-1.6834 -0.6012,-3.006 -1.8036,-4.2084 -1.2024,-1.2024 -2.525,-1.8036 -4.2084,-1.8036 -1.6834,0 -3.1262,0.6012 -4.3286,1.8036 -1.2024,1.2024 -1.6834,2.525 -1.6834,4.2084 v 56.032 c 0,6.8537 2.4048,12.625 7.2144,17.435 4.8096,4.8096 10.581,7.2144 17.435,7.2144 1.6834,0 3.006,-0.48096 4.2084,-1.6834 1.2024,-1.20244 1.8036,-2.6453 1.8036,-4.3286 0,-1.6834 -0.6012,-3.006 -1.8036,-4.2084 -1.2024,-1.2024 -2.525,-1.8036 -4.2084,-1.8036 z"
       style="font-variant-ligatures:none;fill:#3866ad;stroke-width:0;stroke-miterlimit:2"
       id="path97726" /><path
       stroke-miterlimit="2"
       d="m 717.47,339.04 c -1.2024,1.2024 -1.6833,2.6453 -1.6833,4.4489 v 53.507 c 0,1.8036 0.48096,3.2465 1.6833,4.4489 1.2024,1.2024 2.6453,1.6834 4.4489,1.6834 1.8036,0 3.2465,-0.48096 4.4489,-1.6834 1.0822,-1.2024 1.6834,-2.6453 1.6834,-4.4489 v -53.507 c 0,-1.8036 -0.6012,-3.2465 -1.6834,-4.4489 -1.2024,-1.0822 -2.6453,-1.6834 -4.4489,-1.6834 -1.8036,0 -3.2465,0.6012 -4.4489,1.6834 z m 9.9799,-25.852 c -1.5631,-1.5631 -3.3667,-2.4048 -5.531,-2.4048 -2.1643,0 -4.0882,0.84168 -5.6513,2.4048 -1.5631,1.56312 -2.2846,3.3667 -2.2846,5.531 0,2.1643 0.72146,4.0882 2.2846,5.6513 1.56314,1.5631 3.487,2.2846 5.6513,2.2846 2.1643,0 3.9679,-0.72144 5.531,-2.2846 1.5631,-1.5631 2.4048,-3.487 2.4048,-5.6513 0,-2.1643 -0.8417,-3.9679 -2.4048,-5.531 z"
       style="font-variant-ligatures:none;fill:#3866ad;stroke-width:0;stroke-miterlimit:2"
       id="path97728" /><path
       stroke-miterlimit="2"
       d="m 802.57,398.08 c 0,-1.5631 -0.6012,-3.006 -1.6834,-4.2084 l -19.118,-22.846 18.156,-23.687 c 1.0822,-1.4429 1.6834,-3.006 1.6834,-4.8096 0,-1.4429 -0.48096,-2.6453 -1.4429,-3.6072 -0.96192,-0.96192 -2.1643,-1.5631 -3.7274,-1.5631 -1.9238,0 -3.487,0.72144 -4.4489,2.0441 l -17.675,23.567 -19.719,-23.567 c -1.2024,-1.3226 -2.6453,-2.0441 -4.5691,-2.0441 -1.6834,0 -3.006,0.48096 -3.9679,1.4429 -0.96192,0.96192 -1.3226,2.1643 -1.3226,3.487 0,1.6834 0.6012,3.1262 1.8036,4.5691 l 19.84,23.447 -18.637,23.327 c -1.2024,1.4429 -1.6834,2.8858 -1.6834,4.4489 0,1.4429 0.36072,2.6453 1.3226,3.6072 0.96192,0.96192 2.1643,1.4429 3.8477,1.4429 1.6834,0 3.1262,-0.6012 4.3286,-1.9238 l 18.156,-22.846 19.118,22.846 c 0.96192,1.3226 2.4048,1.9238 4.3286,1.9238 1.5631,0 2.8858,-0.48096 3.8477,-1.4429 0.96192,-0.96192 1.5631,-2.1643 1.5631,-3.6072 z"
       style="font-variant-ligatures:none;fill:#3866ad;stroke-width:0;stroke-miterlimit:2"
       id="path97730" /><path
       style="fill:#3866ad;stroke-width:0.75"
       d="m 283.46,312.11 c -0.321,-0.01 -0.7245,-8.2e-4 -0.89625,0.0205 -0.17175,0.0212 -0.507,0.0875 -0.74475,0.14677 -0.23775,0.0592 -0.87525,0.25815 -1.4175,0.44115 -0.54225,0.18353 -1.4025,0.49208 -1.9118,0.68603 -0.50925,0.19343 -1.2975,0.5091 -1.752,0.7014 -0.45375,0.19222 -1.1632,0.5037 -1.5758,0.69218 -0.41325,0.18809 -1.1542,0.54547 -1.647,0.79395 -0.4935,0.24854 -1.263,0.65219 -1.71,0.89699 -0.44702,0.24478 -1.0855,0.60591 -1.4178,0.80228 -0.33235,0.19641 -0.93285,0.56212 -1.3344,0.81315 -0.40115,0.25062 -1.07,0.68638 -1.4854,0.9687 -0.41574,0.28189 -0.9975,0.68596 -1.2927,0.8982 -0.29564,0.21225 -0.7623,0.55544 -1.0375,0.76267 -0.27522,0.20767 -0.8382,0.64844 -1.251,0.9804 -0.41283,0.33152 -1.0721,0.8811 -1.4654,1.221 -0.39323,0.33986 -0.98415,0.86528 -1.3136,1.168 -0.32943,0.30275 -1.04,0.99248 -1.5792,1.5333 -0.5396,0.54044 -1.2543,1.2827 -1.5884,1.6496 -0.33443,0.36696 -0.85733,0.95782 -1.1626,1.3136 -0.30482,0.35528 -0.80227,0.9558 -1.1055,1.3344 -0.30315,0.37822 -0.7581,0.9633 -1.0112,1.2998 -0.25312,0.33651 -0.63759,0.86197 -0.8544,1.1676 -0.21684,0.30566 -0.61967,0.89362 -0.89528,1.3064 -0.27605,0.41283 -0.67053,1.0225 -0.87652,1.3552 -0.20642,0.33235 -0.49748,0.81105 -0.64635,1.0634 -0.14929,0.25229 -0.40283,0.69305 -0.56337,0.97995 -0.16055,0.28648 -0.42326,0.76522 -0.58422,1.0634 -0.16055,0.29815 -0.4145,0.78607 -0.56337,1.0842 -0.14929,0.29815 -0.41658,0.85155 -0.59381,1.2302 -0.17722,0.37822 -0.45369,0.98827 -0.61424,1.3552 -0.16054,0.36696 -0.43827,1.0329 -0.61758,1.4804 -0.17931,0.44702 -0.43242,1.1038 -0.56295,1.4595 -0.13052,0.35528 -0.37696,1.0684 -0.54793,1.5846 -0.17097,0.51583 -0.43034,1.351 -0.57629,1.8556 -0.14595,0.50457 -0.35946,1.2927 -0.47538,1.7514 -0.11551,0.4587 -0.2748,1.1246 -0.35404,1.4804 -0.0792,0.35528 -0.21016,0.98415 -0.29106,1.397 -0.0809,0.41283 -0.20391,1.0976 -0.27356,1.522 -0.0692,0.42451 -0.17263,1.1184 -0.22977,1.5429 -0.0571,0.42451 -0.14136,1.1372 -0.18723,1.5846 -0.0463,0.44702 -0.11217,1.2072 -0.1472,1.6888 -0.0346,0.48163 -0.0838,1.495 -0.10884,2.2518 -0.0254,0.75683 -0.0342,1.8452 -0.02,2.4186 0.0142,0.57337 0.0446,1.4178 0.0667,1.8765 0.0225,0.4587 0.0696,1.181 0.10467,1.6054 0.0346,0.42451 0.1005,1.1092 0.14595,1.522 0.0459,0.41283 0.14762,1.201 0.22601,1.7514 0.0788,0.55044 0.20976,1.3665 0.29107,1.814 0.0813,0.44702 0.21434,1.1321 0.29565,1.522 0.0813,0.38989 0.26855,1.1968 0.41534,1.7931 0.1472,0.59631 0.3532,1.3844 0.45787,1.7514 0.10467,0.36696 0.30482,1.0329 0.4441,1.4804 0.13969,0.44702 0.41366,1.2635 0.60924,1.814 0.19557,0.55044 0.52834,1.4324 0.73975,1.9599 0.21142,0.5275 0.55044,1.3344 0.7527,1.7931 0.20267,0.4587 0.67304,1.4437 1.045,2.1892 0.37238,0.74518 0.84982,1.6647 1.0612,2.0433 0.211,0.37822 0.63718,1.1101 0.94658,1.6263 0.30941,0.51583 0.81607,1.3227 1.1254,1.7931 0.30983,0.46996 0.74225,1.108 0.96119,1.4178 0.21935,0.30941 0.70348,0.96615 1.0759,1.4595 0.37279,0.49289 0.87697,1.1405 1.1213,1.4386 0.24395,0.29815 0.69306,0.83273 0.99788,1.1884 0.30483,0.35528 0.80482,0.91822 1.1109,1.251 0.30566,0.33235 0.88568,0.93952 1.2881,1.3486 0.40241,0.40908 1.0696,1.0592 1.4825,1.4445 0.41283,0.38573 1.0229,0.9387 1.3552,1.2297 0.33277,0.29064 0.89573,0.7677 1.251,1.0596 0.3557,0.2919 0.94155,0.75811 1.3023,1.0363 0.3607,0.27814 0.88612,0.67262 1.1676,0.87698 0.28147,0.20432 0.81187,0.57837 1.1788,0.83189 0.36695,0.25312 0.95782,0.64719 1.3135,0.8757 0.35571,0.2281 0.97493,0.61299 1.3761,0.8553 0.40158,0.24228 1.105,0.65011 1.5638,0.9066 0.45869,0.25646 1.4061,0.75188 2.1058,1.1005 0.69973,0.34903 1.6472,0.80062 2.1059,1.0037 0.45869,0.2035 1.2694,0.54419 1.8014,0.7581 0.53209,0.21393 1.3577,0.52793 1.8348,0.69806 0.47704,0.17056 1.1584,0.40449 1.5137,0.52084 0.3557,0.11592 1.0029,0.31608 1.4386,0.44451 0.43576,0.12844 1.1864,0.33569 1.668,0.45996 0.48163,0.12426 1.1292,0.28481 1.4386,0.35612 0.30983,0.0717 0.96825,0.21183 1.4637,0.3115 0.49497,0.0997 1.2456,0.23852 1.668,0.30816 0.422,0.0696 1.03,0.16388 1.351,0.20933 0.32108,0.0455 1.0062,0.12969 1.522,0.18682 0.51624,0.0575 1.1026,0.11718 1.3031,0.1326 l 0.36488,0.0283 v 16.917 c 0,11.95 0.0133,17.051 0.0455,17.373 0.0254,0.2502 0.098,0.66261 0.1622,0.91613 0.0638,0.25312 0.19225,0.64301 0.28523,0.86572 0.093,0.22268 0.25687,0.55253 0.36404,0.73225 0.10717,0.18014 0.28982,0.45495 0.40658,0.61049 0.11634,0.15554 0.36487,0.43618 0.5521,0.62342 0.18723,0.18723 0.46788,0.43576 0.62342,0.5521 0.15554,0.11676 0.43034,0.29941 0.61048,0.40658 0.17973,0.10717 0.50958,0.27105 0.73226,0.36404 0.22267,0.093 0.61506,0.22226 0.8715,0.2869 0.25645,0.065 0.70431,0.13927 0.9954,0.16596 0.39823,0.0358 0.65218,0.0358 1.025,0 0.27272,-0.0263 0.68096,-0.0926 0.90697,-0.14762 0.22602,-0.0546 0.53168,-0.14469 0.67888,-0.20016 0.14762,-0.0554 0.42784,-0.18056 0.62258,-0.27813 0.19516,-0.0972 0.51166,-0.28107 0.7039,-0.40825 0.19223,-0.12719 0.53751,-0.41116 0.76688,-0.63134 0.22976,-0.22017 0.52375,-0.54126 0.65385,-0.71307 0.1301,-0.17222 0.30358,-0.42534 0.38573,-0.56295 0.0821,-0.13761 0.2085,-0.36904 0.28105,-0.51416 0.0726,-0.14512 0.19558,-0.45453 0.27314,-0.68805 0.0771,-0.2331 0.17431,-0.56503 0.21559,-0.73684 l 0.0746,-0.31275 0.0221,-17.534 0.0217,-17.534 0.3336,-0.0542 c 0.18348,-0.0296 0.65261,-0.11135 1.0425,-0.18098 0.3899,-0.07 1.0187,-0.19308 1.397,-0.27355 0.37822,-0.0801 1.143,-0.2573 1.6988,-0.39323 0.55628,-0.13595 1.4382,-0.36988 1.9599,-0.51959 0.52209,-0.1497 1.3528,-0.40449 1.8457,-0.56629 0.49289,-0.16179 1.2344,-0.41658 1.6472,-0.56586 0.41283,-0.14929 1.1697,-0.43994 1.6822,-0.64593 0.51249,-0.20601 1.2723,-0.52501 1.6888,-0.7089 0.41658,-0.1839 1.2827,-0.59214 1.9249,-0.90698 0.64218,-0.31483 1.5054,-0.75645 1.9182,-0.9816 0.41283,-0.22518 1.0417,-0.57838 1.397,-0.78517 0.3557,-0.20684 0.91868,-0.54503 1.251,-0.75188 0.33277,-0.20641 0.9516,-0.60465 1.3761,-0.8853 0.42451,-0.28022 1.0725,-0.72433 1.4408,-0.98617 0.36821,-0.26229 0.90278,-0.65303 1.1884,-0.86865 0.28565,-0.21559 0.8478,-0.65511 1.2489,-0.9762 0.40158,-0.32151 1.0021,-0.81818 1.3344,-1.1038 0.33277,-0.28564 0.88613,-0.7731 1.2302,-1.0838 0.34403,-0.31066 1.1238,-1.0629 1.7326,-1.6713 0.60882,-0.60798 1.3782,-1.4061 1.7102,-1.7731 0.33152,-0.36696 0.726,-0.80813 0.87653,-0.97995 0.15053,-0.17223 0.50749,-0.59465 0.79357,-0.93908 0.28565,-0.34444 0.77393,-0.95407 1.085,-1.3552 0.31107,-0.40074 0.81607,-1.0762 1.1222,-1.5004 0.30608,-0.42451 0.86025,-1.2314 1.231,-1.7931 0.37071,-0.56212 0.89948,-1.397 1.1746,-1.8556 0.27522,-0.4587 0.69431,-1.1814 0.93121,-1.6054 0.23644,-0.42451 0.68596,-1.2781 0.99832,-1.8974 0.31275,-0.61925 0.7335,-1.492 0.93533,-1.939 0.20182,-0.44745 0.52291,-1.1914 0.71348,-1.6538 0.19057,-0.46245 0.46246,-1.1472 0.60465,-1.522 0.14178,-0.37488 0.36946,-1.0004 0.50582,-1.3903 0.13636,-0.3899 0.36696,-1.0938 0.51291,-1.5638 0.14554,-0.47038 0.37697,-1.2585 0.51416,-1.7514 0.13678,-0.49331 0.34403,-1.3002 0.45996,-1.7931 0.11634,-0.49332 0.28605,-1.2627 0.37738,-1.7097 0.0913,-0.44745 0.24103,-1.2635 0.33318,-1.814 0.0922,-0.55044 0.21518,-1.367 0.27356,-1.814 0.0584,-0.44744 0.13385,-1.0759 0.16805,-1.397 0.0337,-0.32109 0.0809,-0.80895 0.10425,-1.0842 0.0233,-0.27522 0.0617,-0.78188 0.0855,-1.1259 0.0238,-0.34403 0.0604,-1.2448 0.0813,-2.0016 0.0233,-0.8319 0.0238,-1.9132 7.5e-4,-2.7343 -0.0204,-0.74685 -0.058,-1.6571 -0.0826,-2.0224 -0.0246,-0.36529 -0.0817,-1.0708 -0.12718,-1.568 -0.0455,-0.49665 -0.12969,-1.2727 -0.18723,-1.7247 -0.0575,-0.45161 -0.16139,-1.1801 -0.23102,-1.6192 -0.0696,-0.43911 -0.19183,-1.1451 -0.27147,-1.5696 -0.0801,-0.42451 -0.23019,-1.1564 -0.33402,-1.6263 -0.10425,-0.47038 -0.25479,-1.1176 -0.33443,-1.4386 -0.0801,-0.32109 -0.24853,-0.94995 -0.37447,-1.397 -0.12593,-0.44745 -0.34277,-1.1793 -0.48205,-1.6263 -0.13928,-0.44744 -0.40282,-1.2356 -0.58505,-1.7514 -0.18265,-0.51625 -0.50833,-1.3828 -0.72433,-1.9262 -0.21559,-0.54294 -0.55544,-1.3594 -0.75518,-1.814 -0.19932,-0.45411 -0.64926,-1.3986 -0.99952,-2.0979 -0.35028,-0.69973 -0.8307,-1.6192 -1.0676,-2.0433 -0.23728,-0.42451 -0.54169,-0.9591 -0.6768,-1.1884 -0.13511,-0.22935 -0.42701,-0.70807 -0.64927,-1.0634 -0.22185,-0.35571 -0.53126,-0.8436 -0.68763,-1.0842 -0.15596,-0.24103 -0.51792,-0.77565 -0.80438,-1.1884 -0.28606,-0.41283 -0.76312,-1.0759 -1.06,-1.4732 -0.29649,-0.3974 -0.79815,-1.0462 -1.1142,-1.442 -0.31608,-0.39615 -0.80647,-0.99037 -1.09,-1.321 -0.28314,-0.33026 -0.7677,-0.88237 -1.0767,-1.2264 -0.309,-0.34402 -1.1254,-1.1897 -1.8148,-1.879 -0.68931,-0.6893 -1.61,-1.5712 -2.0458,-1.9599 -0.43576,-0.38865 -1.0174,-0.8949 -1.2927,-1.1254 -0.27522,-0.23019 -0.68805,-0.56879 -0.9174,-0.75188 -0.22935,-0.18348 -0.61382,-0.48372 -0.85485,-0.66762 -0.24061,-0.18348 -0.66303,-0.49497 -0.93825,-0.69139 -0.27522,-0.19682 -0.88485,-0.61048 -1.3552,-0.91905 -0.46996,-0.30816 -1.0946,-0.70515 -1.3878,-0.88192 -0.29315,-0.17639 -0.85065,-0.49874 -1.2389,-0.71599 -0.38865,-0.21684 -1.1355,-0.60965 -1.6597,-0.87195 -0.52417,-0.26229 -1.3085,-0.6355 -1.7426,-0.8286 -0.43368,-0.19348 -1.1171,-0.48372 -1.5188,-0.6451 -0.40116,-0.16096 -1.0676,-0.41491 -1.4804,-0.56336 -0.41283,-0.14887 -1.0484,-0.36655 -1.412,-0.48415 -0.36363,-0.11759 -0.98288,-0.30607 -1.3761,-0.41908 -0.39323,-0.11301 -1.0525,-0.29024 -1.4654,-0.39407 -0.41283,-0.10383 -1.0508,-0.25353 -1.4178,-0.33276 -0.36696,-0.0792 -0.92033,-0.19224 -1.2302,-0.25062 -0.30984,-0.0584 -0.79853,-0.14387 -1.0867,-0.18974 -0.28814,-0.0459 -0.79477,-0.12093 -1.1259,-0.1668 -0.33109,-0.0454 -0.8553,-0.11134 -1.1651,-0.14595 -0.30984,-0.0346 -0.9099,-0.0913 -1.3344,-0.12635 -0.42409,-0.0346 -1.1935,-0.0813 -1.7097,-0.10342 -0.51583,-0.0221 -1.4261,-0.0525 -2.0224,-0.0671 -0.71391,-0.0179 -1.2552,-0.0104 -1.5846,0.0213 -0.27522,0.0267 -0.73476,0.0955 -1.0216,0.15221 -0.28648,0.0571 -0.77438,0.18807 -1.0842,0.29107 -0.30942,0.10341 -0.80693,0.30649 -1.105,0.45244 -0.29816,0.14553 -0.73893,0.3949 -0.97995,0.55419 -0.24061,0.15929 -0.5813,0.40532 -0.75683,0.5471 -0.17556,0.14136 -0.48372,0.42117 -0.6843,0.62175 -0.20099,0.20058 -0.50082,0.53376 -0.66678,0.74018 -0.16597,0.20641 -0.41742,0.55336 -0.55961,0.77145 -0.14178,0.21767 -0.37655,0.64009 -0.52125,0.93825 -0.14512,0.29815 -0.32943,0.72975 -0.40949,0.9591 -0.0801,0.22935 -0.19349,0.61382 -0.25187,0.85485 -0.0588,0.2406 -0.14011,0.63467 -0.18139,0.8757 l -0.0751,0.43785 -0.0108,41.606 c -0.007,26.678 -0.0258,41.606 -0.0517,41.606 -0.0221,0 -0.41117,-0.0471 -0.86483,-0.10467 -0.4537,-0.0575 -1.1155,-0.15221 -1.4712,-0.21059 -0.35528,-0.0588 -0.97455,-0.17221 -1.3761,-0.25186 -0.40115,-0.0801 -1.0487,-0.22101 -1.4386,-0.31317 -0.38989,-0.0922 -1.0467,-0.26063 -1.4595,-0.37446 -0.41283,-0.11427 -1.0788,-0.31192 -1.4804,-0.43952 -0.40115,-0.12802 -1.0676,-0.35446 -1.4804,-0.50332 -0.41283,-0.14846 -1.0884,-0.40783 -1.5012,-0.57546 -0.41283,-0.16764 -1.0508,-0.43994 -1.4178,-0.60465 -0.36696,-0.16514 -1.1267,-0.53251 -1.6888,-0.81645 -0.5617,-0.28398 -1.3123,-0.68263 -1.668,-0.88568 -0.3557,-0.20307 -0.8715,-0.50582 -1.1468,-0.67304 -0.27522,-0.1668 -0.77273,-0.48163 -1.105,-0.69972 -0.33235,-0.21809 -0.9141,-0.61675 -1.2927,-0.88575 -0.37822,-0.26938 -0.95077,-0.69139 -1.2718,-0.93825 -0.32109,-0.24728 -0.85567,-0.67679 -1.1884,-0.9549 -0.33235,-0.27772 -0.88612,-0.75727 -1.2302,-1.065 -0.34402,-0.30733 -1.0475,-0.98325 -1.5638,-1.5012 -0.51583,-0.51833 -1.1559,-1.186 -1.422,-1.4841 -0.26646,-0.29774 -0.74226,-0.85155 -1.058,-1.2297 -0.31567,-0.37864 -0.87487,-1.0884 -1.2422,-1.5779 -0.3678,-0.48914 -0.93495,-1.2885 -1.261,-1.7756 -0.32609,-0.48747 -0.82732,-1.2785 -1.1134,-1.7581 -0.28125,-0.50325 -0.6585,-1.158 -0.83325,-1.4798 -0.174,-0.321 -0.55125,-1.062 -0.83775,-1.647 -0.28575,-0.585 -0.66,-1.392 -0.83025,-1.7932 -0.17025,-0.40125 -0.43575,-1.0582 -0.59025,-1.4595 -0.1545,-0.40125 -0.41925,-1.1422 -0.588,-1.647 -0.16889,-0.50457 -0.39365,-1.2176 -0.49915,-1.5842 -0.1055,-0.36696 -0.27439,-0.9954 -0.3753,-1.397 -0.10091,-0.40157 -0.24854,-1.0304 -0.32777,-1.3974 -0.0792,-0.36696 -0.1914,-0.92993 -0.24936,-1.251 -0.058,-0.32109 -0.15304,-0.89363 -0.21059,-1.2718 -0.058,-0.37822 -0.14303,-1.0258 -0.18931,-1.4386 -0.0463,-0.41283 -0.11385,-1.1072 -0.1497,-1.5429 -0.0363,-0.4391 -0.0759,-1.5454 -0.0892,-2.4812 -0.015,-1.0575 -0.006,-2.0162 0.0242,-2.5646 0.0263,-0.48164 0.0763,-1.2043 0.11133,-1.6054 0.0346,-0.40157 0.10926,-1.0938 0.16555,-1.5383 0.0567,-0.44494 0.15929,-1.1489 0.22893,-1.5638 0.0692,-0.41533 0.19265,-1.0838 0.27397,-1.4849 0.0817,-0.40157 0.27647,-1.2364 0.43326,-1.8556 0.15679,-0.61925 0.40741,-1.522 0.55753,-2.0062 0.15012,-0.48455 0.37863,-1.1788 0.50832,-1.5429 0.12927,-0.36445 0.37155,-1.01 0.53835,-1.4341 0.1668,-0.42451 0.44869,-1.1 0.62633,-1.5012 0.17806,-0.40157 0.49873,-1.0863 0.71265,-1.522 0.21433,-0.43577 0.58463,-1.1488 0.82312,-1.5846 0.23853,-0.43577 0.62676,-1.1113 0.8628,-1.5012 0.23644,-0.3899 0.67346,-1.075 0.97163,-1.522 0.29815,-0.44744 0.77602,-1.1321 1.0625,-1.522 0.28648,-0.3899 0.73184,-0.97163 0.98955,-1.2927 0.25771,-0.32109 0.66971,-0.81855 0.91575,-1.105 0.24561,-0.2869 0.69639,-0.79358 1.0012,-1.1259 0.30483,-0.33277 0.91823,-0.9612 1.3628,-1.397 0.44453,-0.43577 1.0609,-1.0179 1.3702,-1.294 0.309,-0.27605 0.8436,-0.736 1.1876,-1.0221 0.34402,-0.28606 0.86025,-0.70014 1.1468,-0.92032 0.2869,-0.22018 0.79477,-0.59673 1.1292,-0.83693 0.33443,-0.2406 0.90697,-0.63467 1.2718,-0.87615 0.36529,-0.24144 0.97372,-0.62633 1.352,-0.85485 0.37864,-0.22809 0.96037,-0.56628 1.2927,-0.75105 0.33277,-0.18473 0.8394,-0.4587 1.1259,-0.60965 0.2869,-0.15054 0.85987,-0.43201 1.2735,-0.62592 0.41408,-0.19348 1.0708,-0.48789 1.4595,-0.65427 0.38906,-0.16638 1.0638,-0.43785 1.4996,-0.6034 0.43576,-0.16554 1.2334,-0.44619 1.7722,-0.62383 0.60298,-0.1985 1.1726,-0.41742 1.4808,-0.56837 0.29941,-0.14721 0.67804,-0.37947 0.94327,-0.57838 0.24353,-0.18306 0.59757,-0.49748 0.78608,-0.6989 0.1889,-0.20182 0.47246,-0.55961 0.63009,-0.7956 0.15804,-0.23602 0.3607,-0.58296 0.44994,-0.77145 0.0897,-0.18807 0.22267,-0.52041 0.29524,-0.73809 0.0726,-0.21809 0.17054,-0.62133 0.21726,-0.89655 0.0717,-0.4195 0.0822,-0.61632 0.0638,-1.2098 -0.0167,-0.55669 -0.0438,-0.80272 -0.12594,-1.1468 -0.0585,-0.24075 -0.16425,-0.59572 -0.2355,-0.78885 -0.072,-0.19305 -0.2055,-0.49537 -0.29775,-0.67177 -0.0915,-0.1764 -0.25875,-0.45908 -0.372,-0.6288 -0.1125,-0.16935 -0.33225,-0.4491 -0.48825,-0.62093 -0.15525,-0.1722 -0.402,-0.4212 -0.54825,-0.55335 -0.14625,-0.13222 -0.42075,-0.3432 -0.609,-0.46875 -0.189,-0.12547 -0.513,-0.31275 -0.72,-0.41527 -0.207,-0.10305 -0.54975,-0.24525 -0.76275,-0.3165 -0.21225,-0.0713 -0.567,-0.1656 -0.7875,-0.20933 -0.22425,-0.0446 -0.65625,-0.0876 -0.984,-0.0985 z m 22.16,12.466 c 0.14971,0.0142 0.5446,0.0534 0.87698,0.0876 0.33276,0.0338 0.93322,0.10883 1.3344,0.16679 0.40158,0.0575 1.0676,0.17097 1.4804,0.25146 0.41282,0.0805 1.0521,0.21892 1.4207,0.30732 0.36863,0.0884 0.91283,0.22893 1.2093,0.31234 0.29649,0.0834 0.88612,0.26521 1.3106,0.40448 0.4245,0.13887 1.0904,0.37488 1.4804,0.52459 0.38989,0.14929 1.0654,0.42951 1.5012,0.623 0.43577,0.19307 1.1301,0.52542 1.5429,0.73851 0.41283,0.21309 1.0037,0.53376 1.3135,0.71265 0.30984,0.17889 0.85321,0.51165 1.2077,0.73934 0.35486,0.22769 0.87112,0.57546 1.1468,0.7731 0.27605,0.19766 0.7385,0.54335 1.0279,0.76852 0.28897,0.22518 0.76688,0.61091 1.0612,0.85733 0.29482,0.24603 0.82732,0.70973 1.1839,1.0304 0.35653,0.32068 1.0054,0.9399 1.4416,1.3761 0.43619,0.43618 1.0629,1.0933 1.3932,1.4603 0.33026,0.36696 0.84315,0.95782 1.1397,1.3136 0.2969,0.35528 0.8469,1.0546 1.2222,1.5538 0.37572,0.49915 0.972,1.3436 1.3248,1.8765 0.35321,0.53293 0.81023,1.2506 1.0162,1.5946 0.20557,0.34402 0.53,0.90697 0.72057,1.251 0.19058,0.34402 0.58339,1.1038 0.87277,1.6888 0.28982,0.58463 0.70056,1.4716 0.91365,1.9708 0.21309,0.49874 0.51792,1.2548 0.67721,1.6797 0.15929,0.42491 0.40283,1.113 0.54085,1.5292 0.13803,0.41617 0.34319,1.0767 0.45578,1.4683 0.11259,0.39199 0.29149,1.0588 0.3974,1.4824 0.10634,0.42368 0.25854,1.0804 0.33861,1.4595 0.0801,0.37905 0.21851,1.1209 0.30774,1.6484 0.0892,0.5275 0.20976,1.3628 0.26814,1.8556 0.0584,0.49289 0.13593,1.2435 0.17263,1.668 0.0404,0.4687 0.0755,1.4686 0.0892,2.5491 0.0142,1.1205 0.005,2.1075 -0.0259,2.6688 -0.0267,0.48997 -0.0763,1.2193 -0.1105,1.6209 -0.0342,0.40115 -0.10884,1.105 -0.16596,1.5638 -0.0572,0.4587 -0.16848,1.2184 -0.24729,1.6888 -0.0792,0.46996 -0.20183,1.1363 -0.27313,1.4804 -0.0717,0.34402 -0.20433,0.93532 -0.29482,1.3136 -0.0909,0.37822 -0.28606,1.1101 -0.43327,1.6263 -0.14761,0.51583 -0.41115,1.3603 -0.58629,1.8765 -0.17473,0.51583 -0.47372,1.3323 -0.66429,1.814 -0.19056,0.48163 -0.47454,1.1663 -0.63092,1.522 -0.15637,0.35528 -0.5029,1.0871 -0.7698,1.6263 -0.26729,0.53876 -0.63091,1.2427 -0.80857,1.5638 -0.17765,0.32109 -0.50916,0.89655 -0.73684,1.2785 -0.22727,0.38197 -0.65386,1.058 -0.9474,1.502 -0.29399,0.44452 -0.73726,1.0888 -0.9858,1.4324 -0.24853,0.3432 -0.61216,0.83071 -0.80858,1.0829 -0.19599,0.25228 -0.5813,0.73058 -0.85567,1.0634 -0.27439,0.33235 -0.71432,0.84862 -0.97785,1.1468 -0.26355,0.29815 -1.0062,1.0684 -1.6501,1.7118 -0.64426,0.64343 -1.4846,1.4428 -1.8674,1.7773 -0.38239,0.33402 -0.97372,0.8319 -1.3136,1.1063 -0.33944,0.2748 -0.95535,0.7506 -1.3682,1.058 -0.41283,0.30691 -1.1446,0.82192 -1.6263,1.1438 -0.48163,0.32235 -1.2226,0.79395 -1.6472,1.0484 -0.4245,0.25437 -1.0904,0.6376 -1.4804,0.8511 -0.38989,0.21393 -1.1217,0.58923 -1.6263,0.83445 -0.50457,0.24519 -1.1614,0.55336 -1.4595,0.68472 -0.29815,0.13135 -0.86107,0.36612 -1.251,0.52166 -0.38989,0.15596 -1.0467,0.40533 -1.4595,0.55461 -0.41283,0.14887 -1.0225,0.35612 -1.3552,0.46037 -0.33235,0.10425 -0.86902,0.26521 -1.1918,0.35779 -0.32317,0.0926 -0.93322,0.25312 -1.3552,0.35653 -0.42242,0.10383 -0.9783,0.23352 -1.2352,0.28815 -0.25688,0.055 -0.47747,0.0897 -0.48998,0.0771 -0.0125,-0.0129 -0.0229,-17.656 -0.0229,-39.207 0,-21.551 0.0137,-39.197 0.03,-39.214 0.0167,-0.0167 0.15263,-0.0183 0.30233,-0.005 z"
       id="icon" /></g></svg>