<?xml version="1.0" encoding="UTF-8" standalone="no"?>
<svg
   xmlns:dc="http://purl.org/dc/elements/1.1/"
   xmlns:cc="http://creativecommons.org/ns#"
   xmlns:rdf="http://www.w3.org/1999/02/22-rdf-syntax-ns#"
   xmlns:svg="http://www.w3.org/2000/svg"
   xmlns="http://www.w3.org/2000/svg"
   id="svg4"
   xml:space="preserve"
   viewBox="0 0 1024 768"
   y="0px"
   x="0px"
   version="1.1"><metadata
     id="metadata10"><rdf:RDF><cc:Work
         rdf:about=""><dc:format>image/svg+xml</dc:format><dc:type
           rdf:resource="http://purl.org/dc/dcmitype/StillImage" /></cc:Work></rdf:RDF></metadata><defs
     id="defs8" /><path
     id="path2"
     d="m394.57 309.22c-1.81 0-3.25 0.6-4.45 1.81-1.2 1.2-1.81 2.64-1.81 4.45v81.4c0 1.8 0.61 3.25 1.81 4.45s2.64 1.8 4.45 1.8c1.8 0 3.25-0.6 4.45-1.8s1.8-2.65 1.8-4.45v-35.83h55.79v35.83c0 1.8 0.6 3.25 1.81 4.45 1.2 1.2 2.64 1.8 4.44 1.8 1.69 0 3.13-0.48 4.33-1.68 1.21-1.21 1.81-2.65 1.81-4.57v-81.4c0-1.81-0.6-3.25-1.81-4.45-1.2-1.21-2.64-1.81-4.33-1.81-1.8 0-3.24 0.6-4.44 1.81-1.21 1.2-1.81 2.64-1.81 4.45v34.5h-55.79v-34.5c0-1.81-0.6-3.25-1.8-4.45-1.2-1.21-2.65-1.81-4.45-1.81zm315.98 1.57c-2.17 0-4.09 0.84-5.65 2.4-1.57 1.56-2.29 3.37-2.29 5.53 0 2.17 0.72 4.09 2.29 5.66 1.56 1.56 3.48 2.28 5.65 2.28 2.16 0 3.97-0.72 5.53-2.28 1.56-1.57 2.4-3.49 2.4-5.66 0-2.16-0.84-3.97-2.4-5.53s-3.37-2.4-5.53-2.4zm-438.45 1.3l-0.01 0.02c-0.32-0.01-0.72 0-0.89 0.02-0.17 0.03-0.51 0.09-0.75 0.15-0.23 0.06-0.87 0.26-1.41 0.44-0.55 0.19-1.41 0.49-1.92 0.69-0.51 0.19-1.29 0.51-1.75 0.7-0.45 0.19-1.16 0.5-1.58 0.69-0.41 0.19-1.15 0.55-1.64 0.8-0.5 0.24-1.27 0.65-1.71 0.89-0.45 0.25-1.09 0.61-1.42 0.8-0.33 0.2-0.93 0.57-1.33 0.82-0.41 0.25-1.07 0.69-1.49 0.97-0.41 0.28-1 0.68-1.29 0.89-0.3 0.22-0.76 0.56-1.04 0.77-0.27 0.21-0.84 0.65-1.25 0.98s-1.07 0.88-1.47 1.22c-0.39 0.34-0.98 0.86-1.31 1.17-0.33 0.3-1.04 0.99-1.58 1.53s-1.25 1.28-1.59 1.65c-0.33 0.37-0.85 0.96-1.16 1.31-0.31 0.36-0.8 0.96-1.11 1.34-0.3 0.38-0.75 0.96-1.01 1.3-0.25 0.33-0.63 0.86-0.85 1.17-0.22 0.3-0.62 0.89-0.9 1.3-0.27 0.42-0.67 1.03-0.87 1.36-0.21 0.33-0.5 0.81-0.65 1.06s-0.4 0.69-0.56 0.98-0.42 0.77-0.59 1.06c-0.16 0.3-0.41 0.79-0.56 1.09s-0.42 0.85-0.59 1.23c-0.18 0.38-0.46 0.99-0.62 1.35-0.16 0.37-0.44 1.04-0.62 1.48-0.18 0.45-0.43 1.11-0.56 1.46-0.13 0.36-0.37 1.07-0.55 1.59-0.17 0.51-0.43 1.35-0.57 1.85-0.15 0.51-0.36 1.3-0.48 1.75-0.11 0.46-0.27 1.13-0.35 1.49-0.08 0.35-0.21 0.98-0.29 1.39-0.08 0.42-0.21 1.1-0.28 1.53-0.07 0.42-0.17 1.11-0.23 1.54-0.05 0.42-0.14 1.13-0.18 1.58-0.05 0.45-0.12 1.21-0.15 1.69-0.04 0.48-0.08 1.5-0.11 2.25-0.03 0.76-0.03 1.85-0.02 2.42s0.04 1.42 0.07 1.88c0.02 0.46 0.07 1.18 0.1 1.6 0.04 0.43 0.1 1.11 0.15 1.53 0.04 0.41 0.15 1.2 0.22 1.75 0.08 0.55 0.21 1.36 0.29 1.81 0.09 0.45 0.22 1.13 0.3 1.52s0.27 1.2 0.42 1.8c0.14 0.59 0.35 1.38 0.45 1.75 0.11 0.37 0.31 1.03 0.45 1.48s0.41 1.26 0.61 1.81c0.19 0.55 0.53 1.43 0.74 1.96s0.55 1.34 0.75 1.79c0.2 0.46 0.67 1.45 1.04 2.19 0.38 0.75 0.85 1.67 1.06 2.05 0.22 0.38 0.64 1.11 0.95 1.62 0.31 0.52 0.82 1.33 1.13 1.8s0.74 1.11 0.96 1.42c0.22 0.3 0.7 0.96 1.07 1.45 0.38 0.5 0.88 1.14 1.13 1.44 0.24 0.3 0.69 0.84 0.99 1.19 0.31 0.36 0.81 0.92 1.11 1.25 0.31 0.33 0.89 0.94 1.29 1.35 0.41 0.41 1.07 1.06 1.49 1.44 0.41 0.39 1.02 0.94 1.35 1.23 0.33 0.3 0.9 0.77 1.25 1.07 0.36 0.29 0.94 0.75 1.3 1.03 0.37 0.28 0.89 0.67 1.17 0.88 0.28 0.2 0.81 0.58 1.18 0.83s0.96 0.65 1.31 0.87c0.36 0.23 0.98 0.62 1.38 0.86s1.11 0.65 1.56 0.91c0.46 0.25 1.41 0.75 2.11 1.1s1.65 0.8 2.1 1c0.46 0.2 1.28 0.55 1.81 0.76s1.35 0.53 1.83 0.7 1.16 0.4 1.52 0.52c0.35 0.11 1 0.31 1.43 0.44 0.44 0.13 1.19 0.34 1.67 0.46 0.48 0.13 1.13 0.29 1.44 0.36s0.97 0.21 1.47 0.31c0.49 0.1 1.24 0.24 1.66 0.31 0.43 0.07 1.03 0.16 1.35 0.21 0.32 0.04 1.01 0.13 1.53 0.19 0.51 0.05 1.1 0.11 1.3 0.13l0.36 0.03v16.91c0 11.95 0.02 17.05 0.05 17.38 0.02 0.25 0.1 0.66 0.16 0.91 0.06 0.26 0.19 0.65 0.29 0.87 0.09 0.22 0.25 0.55 0.36 0.73s0.29 0.45 0.41 0.61c0.11 0.16 0.36 0.44 0.55 0.62 0.19 0.19 0.47 0.44 0.62 0.56 0.16 0.11 0.43 0.29 0.61 0.4s0.51 0.27 0.74 0.37c0.22 0.09 0.61 0.22 0.87 0.28 0.25 0.07 0.7 0.14 0.99 0.17 0.4 0.04 0.66 0.04 1.03 0 0.27-0.03 0.68-0.09 0.9-0.15 0.23-0.05 0.54-0.14 0.68-0.2 0.15-0.05 0.43-0.18 0.62-0.28 0.2-0.09 0.52-0.28 0.71-0.41 0.19-0.12 0.54-0.41 0.77-0.63s0.52-0.54 0.65-0.71 0.3-0.42 0.39-0.56c0.08-0.14 0.21-0.37 0.28-0.52 0.07-0.14 0.19-0.45 0.27-0.68 0.08-0.24 0.17-0.57 0.22-0.74l0.07-0.31 0.02-17.54 0.02-17.53 0.34-0.05c0.18-0.03 0.65-0.12 1.04-0.19s1.02-0.19 1.4-0.27 1.14-0.26 1.7-0.39c0.55-0.14 1.44-0.37 1.96-0.52s1.35-0.41 1.84-0.57c0.5-0.16 1.24-0.42 1.65-0.56 0.41-0.15 1.17-0.44 1.68-0.65s1.27-0.53 1.69-0.71 1.28-0.59 1.92-0.91c0.65-0.31 1.51-0.75 1.92-0.98 0.41-0.22 1.05-0.58 1.4-0.78 0.36-0.21 0.92-0.55 1.25-0.76 0.33-0.2 0.95-0.6 1.38-0.88 0.42-0.28 1.07-0.72 1.44-0.99 0.37-0.26 0.9-0.65 1.19-0.87 0.28-0.21 0.84-0.65 1.24-0.97 0.41-0.32 1.01-0.82 1.34-1.11 0.33-0.28 0.88-0.77 1.23-1.08 0.34-0.31 1.12-1.06 1.73-1.67s1.38-1.41 1.71-1.77c0.33-0.37 0.73-0.81 0.88-0.98 0.15-0.18 0.51-0.6 0.79-0.94 0.29-0.35 0.78-0.96 1.09-1.36s0.81-1.07 1.12-1.5c0.31-0.42 0.86-1.23 1.23-1.79s0.9-1.4 1.18-1.86c0.27-0.46 0.69-1.18 0.93-1.6 0.23-0.43 0.68-1.28 1-1.9 0.31-0.62 0.73-1.49 0.93-1.94s0.52-1.19 0.71-1.65c0.19-0.47 0.47-1.15 0.61-1.52 0.14-0.38 0.37-1.01 0.5-1.39 0.14-0.39 0.37-1.1 0.52-1.57 0.14-0.47 0.38-1.26 0.51-1.75 0.14-0.49 0.35-1.3 0.46-1.79 0.12-0.5 0.29-1.27 0.38-1.71 0.09-0.45 0.24-1.27 0.33-1.82s0.22-1.36 0.28-1.81c0.05-0.45 0.13-1.08 0.16-1.4 0.04-0.32 0.08-0.81 0.11-1.08 0.02-0.28 0.06-0.78 0.08-1.13 0.03-0.34 0.06-1.24 0.09-2 0.02-0.83 0.02-1.91 0-2.73-0.03-0.75-0.06-1.66-0.09-2.03-0.02-0.36-0.08-1.07-0.12-1.56-0.05-0.5-0.13-1.28-0.19-1.73s-0.16-1.18-0.23-1.62-0.19-1.14-0.27-1.57c-0.08-0.42-0.23-1.15-0.34-1.62-0.1-0.47-0.25-1.12-0.33-1.44s-0.25-0.95-0.38-1.4c-0.12-0.45-0.34-1.18-0.48-1.63-0.14-0.44-0.4-1.23-0.58-1.75-0.19-0.51-0.51-1.38-0.73-1.92-0.21-0.55-0.55-1.36-0.75-1.82-0.2-0.45-0.65-1.4-1-2.1s-0.83-1.61-1.07-2.04c-0.24-0.42-0.54-0.96-0.68-1.19-0.13-0.23-0.43-0.71-0.65-1.06-0.22-0.36-0.53-0.84-0.69-1.08-0.15-0.25-0.51-0.78-0.8-1.19-0.28-0.41-0.76-1.08-1.06-1.48-0.3-0.39-0.8-1.04-1.11-1.44-0.32-0.39-0.81-0.99-1.09-1.32-0.29-0.33-0.77-0.88-1.08-1.22-0.31-0.35-1.12-1.19-1.81-1.88s-1.62-1.58-2.05-1.96c-0.44-0.39-1.02-0.9-1.29-1.13-0.28-0.23-0.69-0.57-0.92-0.75-0.23-0.19-0.61-0.49-0.86-0.67-0.24-0.18-0.66-0.49-0.93-0.69-0.28-0.2-0.89-0.61-1.36-0.92s-1.09-0.71-1.39-0.88c-0.29-0.18-0.85-0.5-1.24-0.72-0.38-0.21-1.13-0.61-1.66-0.87-0.52-0.26-1.3-0.63-1.74-0.83-0.43-0.19-1.12-0.48-1.52-0.64s-1.07-0.42-1.48-0.57-1.05-0.36-1.41-0.48-0.98-0.31-1.38-0.42c-0.39-0.11-1.05-0.29-1.46-0.39-0.41-0.11-1.05-0.26-1.42-0.34-0.36-0.08-0.92-0.19-1.23-0.25s-0.8-0.14-1.08-0.19c-0.29-0.04-0.8-0.12-1.13-0.16-0.33-0.05-0.86-0.12-1.17-0.15s-0.91-0.09-1.33-0.13c-0.43-0.03-1.19-0.08-1.71-0.1s-1.43-0.05-2.02-0.07c-0.72-0.01-1.26-0.01-1.59 0.02-0.27 0.03-0.73 0.1-1.02 0.16-0.29 0.05-0.77 0.19-1.08 0.29s-0.81 0.3-1.11 0.45c-0.3 0.14-0.74 0.39-0.98 0.55s-0.58 0.41-0.75 0.55c-0.18 0.14-0.49 0.42-0.69 0.62s-0.5 0.54-0.67 0.74c-0.16 0.21-0.41 0.56-0.56 0.78-0.14 0.21-0.37 0.64-0.52 0.93-0.14 0.3-0.33 0.73-0.41 0.96s-0.19 0.62-0.25 0.86-0.14 0.63-0.18 0.87l-0.07 0.44-0.02 41.61c0 26.68-0.02 41.6-0.05 41.6-0.02 0-0.41-0.04-0.86-0.1-0.46-0.06-1.12-0.15-1.47-0.21-0.36-0.06-0.98-0.17-1.38-0.25s-1.05-0.23-1.44-0.32-1.05-0.26-1.46-0.37c-0.41-0.12-1.08-0.31-1.48-0.44s-1.07-0.36-1.48-0.5c-0.41-0.15-1.09-0.41-1.5-0.58s-1.05-0.44-1.42-0.6c-0.36-0.17-1.12-0.54-1.69-0.82-0.56-0.28-1.31-0.68-1.66-0.89-0.36-0.2-0.88-0.5-1.15-0.67-0.28-0.17-0.77-0.48-1.11-0.7-0.33-0.22-0.91-0.62-1.29-0.88-0.38-0.27-0.95-0.7-1.27-0.94-0.32-0.25-0.86-0.68-1.19-0.96s-0.88-0.76-1.23-1.06c-0.34-0.31-1.05-0.99-1.56-1.5-0.52-0.52-1.16-1.19-1.43-1.49-0.26-0.3-0.74-0.85-1.05-1.23-0.32-0.38-0.88-1.09-1.24-1.58-0.37-0.49-0.94-1.29-1.27-1.77-0.32-0.49-0.82-1.28-1.11-1.76-0.28-0.5-0.66-1.16-0.83-1.48-0.18-0.32-0.55-1.06-0.84-1.65-0.29-0.58-0.66-1.39-0.83-1.79s-0.44-1.06-0.59-1.46c-0.16-0.4-0.42-1.14-0.59-1.65-0.17-0.5-0.39-1.21-0.5-1.58-0.1-0.37-0.27-1-0.37-1.4s-0.25-1.03-0.33-1.39c-0.08-0.37-0.19-0.94-0.25-1.26s-0.15-0.89-0.21-1.27-0.14-1.02-0.19-1.44c-0.05-0.41-0.11-1.1-0.15-1.54s-0.08-1.54-0.09-2.48c-0.01-1.06-0.01-2.02 0.02-2.57 0.03-0.48 0.08-1.2 0.12-1.6 0.03-0.4 0.11-1.1 0.16-1.54 0.06-0.44 0.16-1.15 0.23-1.56 0.07-0.42 0.19-1.09 0.27-1.49 0.09-0.4 0.28-1.23 0.44-1.85 0.15-0.62 0.41-1.53 0.56-2.01s0.37-1.18 0.5-1.54c0.13-0.37 0.37-1.01 0.54-1.44 0.17-0.42 0.45-1.1 0.63-1.5s0.5-1.08 0.71-1.52c0.22-0.44 0.58-1.15 0.82-1.58 0.24-0.44 0.63-1.12 0.87-1.51 0.23-0.39 0.67-1.07 0.97-1.52 0.3-0.44 0.78-1.13 1.06-1.52 0.29-0.39 0.73-0.97 0.99-1.29s0.67-0.82 0.92-1.11c0.24-0.28 0.69-0.79 1-1.12 0.3-0.33 0.92-0.96 1.36-1.4 0.45-0.44 1.06-1.02 1.37-1.29 0.31-0.28 0.84-0.74 1.19-1.03 0.34-0.28 0.86-0.7 1.14-0.92 0.29-0.22 0.8-0.59 1.14-0.83 0.33-0.24 0.9-0.64 1.27-0.88 0.36-0.24 0.97-0.62 1.35-0.85s0.96-0.57 1.29-0.76c0.33-0.18 0.84-0.45 1.13-0.6 0.28-0.16 0.86-0.44 1.27-0.63 0.41-0.2 1.07-0.49 1.46-0.66 0.39-0.16 1.06-0.43 1.5-0.6 0.43-0.16 1.23-0.44 1.77-0.62 0.61-0.2 1.17-0.42 1.48-0.57 0.3-0.15 0.68-0.38 0.95-0.58 0.24-0.18 0.59-0.5 0.78-0.7s0.47-0.56 0.63-0.79c0.16-0.24 0.36-0.59 0.45-0.77 0.09-0.19 0.22-0.53 0.3-0.74 0.07-0.22 0.17-0.62 0.21-0.9 0.08-0.42 0.09-0.62 0.07-1.21-0.02-0.56-0.05-0.8-0.13-1.15-0.06-0.24-0.16-0.59-0.23-0.79-0.08-0.19-0.21-0.49-0.3-0.67-0.09-0.17-0.26-0.46-0.37-0.63-0.12-0.17-0.34-0.44-0.49-0.62-0.16-0.17-0.4-0.42-0.55-0.55s-0.42-0.34-0.61-0.47c-0.19-0.12-0.51-0.31-0.72-0.41-0.21-0.11-0.55-0.25-0.76-0.32s-0.57-0.17-0.79-0.21c-0.22-0.05-0.65-0.09-0.98-0.1zm391.75 4.35c-1.69 0-3.13 0.6-4.33 1.8s-1.68 2.53-1.68 4.21v56.03c0 6.86 2.4 12.63 7.21 17.44s10.58 7.21 17.43 7.21c1.69 0 3.01-0.48 4.21-1.68 1.21-1.21 1.81-2.65 1.81-4.33s-0.6-3.01-1.81-4.21c-1.2-1.2-2.52-1.8-4.21-1.8-3.48 0-6.49-1.2-8.89-3.73-2.53-2.4-3.73-5.41-3.73-8.9v-28.25h10.7c1.44 0 2.77-0.49 3.85-1.57 0.96-0.96 1.56-2.28 1.56-3.85 0-1.44-0.6-2.76-1.56-3.84-1.08-0.97-2.41-1.57-3.85-1.57h-10.7v-16.95c0-1.68-0.6-3.01-1.81-4.21-1.2-1.2-2.52-1.8-4.2-1.8zm-369.6 8.14c0.15 0.01 0.55 0.05 0.88 0.09 0.33 0.03 0.93 0.11 1.33 0.16 0.41 0.06 1.07 0.18 1.49 0.26 0.41 0.08 1.05 0.21 1.42 0.3 0.36 0.09 0.91 0.23 1.2 0.32 0.3 0.08 0.89 0.26 1.31 0.4 0.43 0.14 1.1 0.38 1.49 0.52 0.39 0.15 1.06 0.43 1.5 0.63 0.43 0.19 1.13 0.52 1.54 0.74 0.41 0.21 1 0.53 1.31 0.71s0.86 0.51 1.21 0.74c0.36 0.22 0.87 0.57 1.15 0.77 0.27 0.2 0.74 0.55 1.03 0.77 0.28 0.23 0.76 0.61 1.06 0.86 0.29 0.24 0.83 0.71 1.18 1.03 0.36 0.32 1.01 0.94 1.44 1.37 0.44 0.44 1.07 1.1 1.4 1.46 0.33 0.37 0.84 0.96 1.13 1.32 0.3 0.35 0.85 1.05 1.23 1.55 0.37 0.5 0.97 1.34 1.32 1.88 0.36 0.53 0.81 1.25 1.02 1.59 0.2 0.35 0.53 0.91 0.72 1.25 0.19 0.35 0.58 1.11 0.87 1.69 0.29 0.59 0.7 1.47 0.91 1.97 0.22 0.5 0.52 1.26 0.68 1.68 0.16 0.43 0.41 1.12 0.54 1.53 0.14 0.42 0.35 1.08 0.46 1.47s0.29 1.06 0.4 1.48c0.1 0.43 0.25 1.08 0.33 1.46s0.22 1.12 0.31 1.65 0.21 1.36 0.27 1.86c0.06 0.49 0.14 1.24 0.17 1.66 0.04 0.47 0.08 1.47 0.09 2.55 0.02 1.12 0.01 2.11-0.02 2.67-0.03 0.49-0.08 1.22-0.11 1.62-0.04 0.4-0.11 1.11-0.17 1.57-0.06 0.45-0.17 1.22-0.25 1.69s-0.2 1.13-0.27 1.48c-0.07 0.34-0.2 0.93-0.29 1.31-0.1 0.38-0.29 1.11-0.44 1.63-0.15 0.51-0.41 1.36-0.58 1.87-0.18 0.52-0.48 1.34-0.67 1.82s-0.47 1.16-0.63 1.52c-0.16 0.35-0.5 1.08-0.77 1.62s-0.63 1.25-0.81 1.57c-0.17 0.32-0.51 0.9-0.74 1.28-0.22 0.38-0.65 1.06-0.94 1.5-0.3 0.44-0.74 1.09-0.99 1.43s-0.61 0.83-0.81 1.08c-0.19 0.26-0.58 0.73-0.85 1.07-0.28 0.33-0.72 0.85-0.98 1.14-0.26 0.3-1.01 1.07-1.65 1.72-0.64 0.64-1.48 1.44-1.87 1.77-0.38 0.34-0.97 0.84-1.31 1.11s-0.96 0.75-1.37 1.06-1.14 0.82-1.63 1.14c-0.48 0.32-1.22 0.8-1.64 1.05-0.43 0.25-1.09 0.64-1.48 0.85-0.39 0.22-1.13 0.59-1.63 0.84-0.5 0.24-1.16 0.55-1.46 0.68s-0.86 0.37-1.25 0.52c-0.39 0.16-1.05 0.41-1.46 0.56s-1.02 0.35-1.36 0.46c-0.33 0.1-0.86 0.26-1.19 0.36-0.32 0.09-0.93 0.25-1.35 0.35s-0.98 0.24-1.24 0.29c-0.25 0.05-0.47 0.09-0.49 0.08-0.01-0.02-0.02-17.66-0.02-39.21s0.01-39.2 0.03-39.22c0.02-0.01 0.15-0.01 0.3 0zm227.3 12.3c-9.26 0-17.07 3.37-23.56 9.86-6.5 6.49-9.74 14.31-9.74 23.57s3.24 17.07 9.74 23.56c6.49 6.5 14.3 9.74 23.56 9.74s17.08-3.24 23.57-9.74c6.49-6.49 9.86-14.3 9.86-23.56s-3.37-17.08-9.86-23.57-14.31-9.86-23.57-9.86zm56.37 0.24c-1.69 0-3.13 0.6-4.33 1.8-1.2 1.21-1.68 2.53-1.68 4.21v29.94c0 8.54 2.88 15.75 8.89 21.76 6.02 6.02 13.23 9.02 21.77 9.02 8.42 0 15.75-3 21.76-9.02 6.01-6.01 9.02-13.22 9.02-21.76v-29.94c0-1.68-0.6-3-1.81-4.21-1.2-1.2-2.52-1.8-4.2-1.8-1.69 0-3.13 0.6-4.33 1.8-1.2 1.21-1.68 2.53-1.68 4.21v29.94c0 5.17-1.93 9.62-5.54 13.23-3.72 3.72-8.05 5.53-13.22 5.53s-9.5-1.81-13.23-5.53c-3.61-3.61-5.41-8.06-5.41-13.23v-29.94c0-1.68-0.6-3-1.8-4.21-1.21-1.2-2.53-1.8-4.21-1.8zm132.63 0.24c-1.81 0-3.25 0.6-4.45 1.68-1.2 1.21-1.69 2.65-1.69 4.45v53.51c0 1.8 0.49 3.24 1.69 4.45 1.2 1.2 2.64 1.68 4.45 1.68 1.8 0 3.24-0.48 4.45-1.68 1.08-1.21 1.68-2.65 1.68-4.45v-53.51c0-1.8-0.6-3.24-1.68-4.45-1.21-1.08-2.65-1.68-4.45-1.68zm28.1 0c-1.68 0-3 0.48-3.97 1.44-0.96 0.96-1.32 2.17-1.32 3.49 0 1.68 0.6 3.13 1.8 4.57l19.84 23.45-18.63 23.32c-1.21 1.45-1.69 2.89-1.69 4.45 0 1.44 0.36 2.65 1.33 3.61 0.96 0.96 2.16 1.44 3.84 1.44 1.69 0 3.13-0.6 4.33-1.92l18.16-22.85 19.12 22.85c0.96 1.32 2.4 1.92 4.33 1.92 1.56 0 2.88-0.48 3.84-1.44s1.57-2.17 1.57-3.61c0-1.56-0.6-3-1.69-4.21l-19.12-22.84 18.16-23.69c1.08-1.44 1.68-3.01 1.68-4.81 0-1.44-0.48-2.64-1.44-3.61-0.96-0.96-2.16-1.56-3.73-1.56-1.92 0-3.48 0.72-4.44 2.04l-17.68 23.57-19.72-23.57c-1.2-1.32-2.64-2.04-4.57-2.04zm-217.1 11.06c6.01 0 11.19 2.17 15.51 6.37 4.21 4.33 6.38 9.5 6.38 15.52 0 6.01-2.17 11.18-6.38 15.39-4.32 4.33-9.5 6.37-15.51 6.37s-11.18-2.04-15.39-6.37c-4.33-4.21-6.37-9.38-6.37-15.39 0-6.02 2.04-11.19 6.37-15.52 4.21-4.2 9.38-6.37 15.39-6.37zm139.94 75.23c-1.34 0-2.55 0.52-3.62 1.54-1.05 1.01-1.58 2.55-1.58 4.63v2.08h-3.33v2.79h3.33v15.48h3.26v-15.48h5.59v-2.79h-5.59v-1.97c0-1.2 0.24-2.02 0.72-2.48 0.5-0.45 1.17-0.68 2.01-0.68 0.86 0 1.73 0.16 2.61 0.47h0.25v-2.69c-1.07-0.6-2.29-0.9-3.65-0.9zm117.03 0.36v10.18h-0.11c-1.69-1.77-3.7-2.65-6.02-2.65s-4.35 0.86-6.09 2.58c-1.72 1.72-2.58 4.02-2.58 6.92 0 2.89 0.86 5.19 2.58 6.91 1.74 1.72 3.77 2.58 6.09 2.58s4.33-0.88 6.02-2.65h0.11l0.4 2.29h2.86v-26.16h-3.26zm-271.74 0.5v3.52h3.51v-3.52h-3.51zm-118.47 0.65v25.01h16.46v-3.26h-13.19v-21.75h-3.27zm195.52 0v25.01h3.26v-9.1h6.52c1.72 0 3.22-0.23 4.51-0.68 1.3-0.48 2.29-1.11 2.98-1.9 0.72-0.79 1.24-1.62 1.58-2.51 0.33-0.91 0.5-1.86 0.5-2.86 0-1.01-0.17-1.95-0.5-2.84-0.34-0.9-0.86-1.75-1.58-2.54-0.69-0.79-1.68-1.41-2.98-1.86-1.29-0.48-2.79-0.72-4.51-0.72h-9.78zm142.25 2.79l-6.66 6.53v0.21h3.4v11.11c0 3.16 1.75 4.73 5.23 4.73 1.15 0 2.23-0.26 3.23-0.79v-2.65h-0.25c-0.86 0.38-1.65 0.58-2.37 0.58-0.71 0-1.3-0.1-1.75-0.29-0.55-0.24-0.83-0.86-0.83-1.86v-10.83h5.2v-2.79h-5.2v-3.95zm-138.99 0.29h6.2c2.43 0 4.14 0.47 5.12 1.4 1.01 0.93 1.51 2.09 1.51 3.48 0 1.38-0.5 2.54-1.51 3.47-0.98 0.93-2.69 1.4-5.12 1.4h-6.2v-9.75zm-166.8 3.3c-2.79 0-4.92 0.92-6.38 2.76s-2.19 4.18-2.19 7.02c0 2.82 0.82 5.07 2.44 6.74 1.65 1.65 3.83 2.47 6.53 2.47 2.72 0 5.08-0.56 7.09-1.68v-3.15h-0.18c-1.81 1.19-3.8 1.79-5.95 1.79-2.12 0-3.71-0.47-4.76-1.4s-1.68-2.24-1.87-3.91h13.84v-1.14c0-2.66-0.73-4.9-2.19-6.74s-3.58-2.76-6.38-2.76zm24.42 0c-2.37 0-4.59 0.45-6.67 1.36v2.94h0.22c1.67-0.81 3.46-1.22 5.37-1.22 1.92 0 3.25 0.35 4.02 1.04 0.79 0.69 1.18 1.83 1.18 3.4v0.29h-4.34c-2.7 0-4.75 0.53-6.16 1.58-1.39 1.05-2.08 2.42-2.08 4.12s0.56 3.03 1.69 4.01c1.14 0.98 2.53 1.47 4.15 1.47 2.7 0 4.91-0.88 6.63-2.65h0.11l0.39 2.29h2.87v-11.57c0-1.94-0.63-3.6-1.9-4.98-1.26-1.39-3.09-2.08-5.48-2.08zm27.44 0c-2.77 0-5.02 1.06-6.74 3.19h-0.07v-0.54l-0.39-2.29h-2.87v18.27h3.26v-12.4c0.69-0.98 1.65-1.74 2.87-2.29s2.53-0.82 3.94-0.82h0.29v-3.12h-0.29zm18.2 0c-2.46 0-4.66 1.06-6.6 3.19h-0.07v-0.54l-0.39-2.29h-2.87v18.27h3.26v-12.18c1.84-2.3 3.8-3.44 5.88-3.44 2.63 0 3.94 1.45 3.94 4.37v11.25h3.26v-11.61c0-2-0.57-3.68-1.72-5.02-1.14-1.33-2.71-2-4.69-2zm40.04 0c-2.46 0-4.66 1.06-6.6 3.19h-0.07v-0.54l-0.39-2.29h-2.87v18.27h3.26v-12.18c1.84-2.3 3.8-3.44 5.88-3.44 2.63 0 3.94 1.45 3.94 4.37v11.25h3.26v-11.61c0-2-0.57-3.68-1.72-5.02-1.14-1.33-2.71-2-4.69-2zm24.06 0c-2.29 0-4.34 0.82-6.13 2.47-1.77 1.62-2.65 3.91-2.65 6.85 0 2.93 0.88 5.23 2.65 6.88 1.79 1.62 3.84 2.43 6.13 2.43s4.26-0.88 5.91-2.65h0.11v2.33c0 3.9-1.83 5.84-5.48 5.84-2.73 0-5.1-0.65-7.13-1.97h-0.18v3.23c2.27 1.22 4.78 1.83 7.52 1.83 2.77 0 4.89-0.82 6.35-2.44 1.45-1.62 2.18-3.94 2.18-6.95v-17.49h-2.86l-0.4 2.29h-0.11c-1.65-1.77-3.62-2.65-5.91-2.65zm64.71 0c-2.8 0-4.92 0.92-6.38 2.76s-2.18 4.18-2.18 7.02c0 2.82 0.81 5.07 2.43 6.74 1.65 1.65 3.82 2.47 6.52 2.47 2.73 0 5.09-0.56 7.1-1.68v-3.15h-0.18c-1.81 1.19-3.8 1.79-5.95 1.79-2.12 0-3.71-0.47-4.76-1.4-1.06-0.93-1.68-2.24-1.87-3.91h13.84v-1.14c0-2.66-0.73-4.9-2.19-6.74s-3.58-2.76-6.38-2.76zm27.5 0c-2.77 0-5.02 1.06-6.74 3.19h-0.07v-0.54l-0.39-2.29h-2.87v18.27h3.26v-12.4c0.69-0.98 1.65-1.74 2.87-2.29s2.53-0.82 3.94-0.82h0.29v-3.12h-0.29zm33.89 0c-2.79 0-4.92 0.92-6.38 2.76s-2.19 4.18-2.19 7.02c0 2.82 0.82 5.07 2.44 6.74 1.65 1.65 3.83 2.47 6.53 2.47 2.72 0 5.08-0.56 7.09-1.68v-3.15h-0.18c-1.81 1.19-3.8 1.79-5.95 1.79-2.12 0-3.71-0.47-4.76-1.4s-1.68-2.24-1.87-3.91h13.84v-1.14c0-2.66-0.73-4.9-2.19-6.74s-3.58-2.76-6.38-2.76zm25.82 0c-2.65 0-4.91 0.86-6.78 2.58-1.86 1.72-2.79 4.02-2.79 6.92 0 2.89 0.93 5.19 2.79 6.91 1.87 1.72 4.13 2.58 6.78 2.58 2.15 0 4.21-0.58 6.2-1.75v-3.08h-0.15c-1.76 1.19-3.69 1.79-5.77 1.79-2.05 0-3.66-0.59-4.84-1.76-1.17-1.19-1.75-2.76-1.75-4.69 0-1.94 0.58-3.49 1.75-4.66 1.18-1.2 2.79-1.8 4.84-1.8 2.08 0 4.01 0.6 5.77 1.8h0.15v-3.09c-1.99-1.17-4.05-1.75-6.2-1.75zm41.03 0c-2.8 0-4.92 0.92-6.38 2.76s-2.18 4.18-2.18 7.02c0 2.82 0.81 5.07 2.43 6.74 1.65 1.65 3.82 2.47 6.52 2.47 2.73 0 5.09-0.56 7.1-1.68v-3.15h-0.18c-1.81 1.19-3.8 1.79-5.95 1.79-2.12 0-3.71-0.47-4.76-1.4-1.06-0.93-1.68-2.24-1.87-3.91h13.84v-1.14c0-2.66-0.73-4.9-2.19-6.74s-3.58-2.76-6.38-2.76zm-240.52 0.36v18.27h3.26v-18.27h-3.26zm-86.59 2.4c1.32 0 2.5 0.44 3.55 1.32 1.08 0.89 1.66 2.19 1.76 3.91h-10.58c0.1-1.72 0.67-3.02 1.72-3.91 1.05-0.88 2.24-1.32 3.55-1.32zm198.87 0c1.31 0 2.5 0.44 3.55 1.32 1.07 0.89 1.66 2.19 1.75 3.91h-10.57c0.1-1.72 0.67-3.02 1.72-3.91 1.05-0.88 2.24-1.32 3.55-1.32zm61.39 0c1.31 0 2.5 0.44 3.55 1.32 1.07 0.89 1.66 2.19 1.76 3.91h-10.58c0.1-1.72 0.67-3.02 1.72-3.91 1.05-0.88 2.24-1.32 3.55-1.32zm66.85 0c1.31 0 2.5 0.44 3.55 1.32 1.07 0.89 1.66 2.19 1.76 3.91h-10.58c0.1-1.72 0.67-3.02 1.72-3.91 1.05-0.88 2.24-1.32 3.55-1.32zm-192.3 0.21c1.86 0 3.65 0.89 5.37 2.65v7.39c-1.72 1.76-3.51 2.65-5.37 2.65-1.84 0-3.34-0.54-4.48-1.61-1.13-1.1-1.69-2.68-1.69-4.73 0-2.06 0.56-3.62 1.69-4.7 1.14-1.1 2.64-1.65 4.48-1.65zm217.76 0.07c2.15 0 4.04 0.9 5.66 2.69v7.53c-1.62 1.79-3.51 2.69-5.66 2.69-1.77 0-3.19-0.56-4.27-1.69-1.07-1.12-1.61-2.71-1.61-4.76 0-2.06 0.54-3.65 1.61-4.77 1.08-1.13 2.5-1.69 4.27-1.69zm-327.94 7.39h3.91v3.01c-0.67 0.76-1.49 1.41-2.47 1.93-0.98 0.5-2 0.76-3.05 0.76-2.53 0-3.8-0.95-3.8-2.84 0-1.91 1.81-2.86 5.41-2.86z"
     fill="#ffffff" /></svg>