<?xml version="1.0" encoding="UTF-8"?>
<svg id="Layer_2" data-name="Layer 2" xmlns="http://www.w3.org/2000/svg" viewBox="0 0 168.1 28.81">
  <defs>
    <style>
      .cls-1 {
        fill: #fff;
      }
    </style>
  </defs>
  <g id="Layer_1-2" data-name="Layer 1">
    <g>
      <g>
        <path class="cls-1" d="M12.16,15.17h-3.1v-3.65H3.12v3.65H0v-5.34C0,3.57,3.44.21,9.83.21h2.33v14.95ZM9.06,8.67V3.14h-.41c-3.2,0-5.19,2.07-5.49,5.53h5.9Z"/>
        <path class="cls-1" d="M16.69,12.33h7.58v2.84h-8.05c-1.62,0-2.65-1.03-2.65-2.65V.21h3.12v12.11Z"/>
        <path class="cls-1" d="M34.49,6.41v2.56h-8.84v-2.56h8.84Z"/>
        <path class="cls-1" d="M42.07,0c2.33,0,3.7.23,5.3.83v3.1c-1.05-.36-2.37-.98-5.23-.98-2.29,0-3.2.64-3.2,1.58,0,3.08,9.06,0,9.06,6.15,0,3.23-2.56,4.72-6.22,4.72-2.33,0-3.7-.24-5.3-.83v-3.1c1.05.36,2.35,1,5.21,1,2.31,0,3.23-.66,3.23-1.6,0-3.05-9.08-.02-9.08-6.17,0-3.2,2.56-4.7,6.24-4.7Z"/>
        <path class="cls-1" d="M49.36.21h3.1v5.68h6.81V.21h3.12v14.95h-3.12v-6.43h-6.81v6.43h-3.1V.21Z"/>
        <path class="cls-1" d="M75.94,15.17h-3.1v-3.65h-5.94v3.65h-3.12v-5.34c0-6.26,3.44-9.61,9.83-9.61h2.33v14.95ZM72.84,8.67V3.14h-.41c-3.2,0-5.19,2.07-5.49,5.53h5.9Z"/>
        <path class="cls-1" d="M83.44,11.3v-2.86h.34c2.05,0,3.38-1.05,3.38-2.75s-1.24-2.78-3.29-2.78-3.38,1.17-3.38,3.01v9.25h-3.12V5.92c0-3.55,2.58-5.92,6.49-5.92s6.39,2.24,6.39,5.43-2.48,4.42-3.8,4.42v.21c1.11,0,2.22.75,2.71,1.67l1.96,3.44h-3.52l-1.45-2.52c-.43-.9-1.24-1.35-2.35-1.35h-.36Z"/>
        <path class="cls-1" d="M99.32,0c4.68,0,7.78,3.08,7.78,7.69s-3.1,7.69-7.78,7.69-7.78-3.08-7.78-7.69,3.12-7.69,7.78-7.69ZM99.32,12.5c2.82,0,4.68-1.92,4.68-4.81s-1.86-4.81-4.68-4.81-4.66,1.9-4.66,4.81,1.86,4.81,4.66,4.81ZM104.91,15.19c1.09,0,1.82.64,1.82,1.62s-.73,1.62-1.82,1.62-1.79-.64-1.79-1.62.71-1.62,1.79-1.62Z"/>
        <path class="cls-1" d="M121.41,3.05v12.11h-3.08V3.05h-5.17V.21h13.42v2.84h-5.17Z"/>
        <path class="cls-1" d="M127.87.21h3.12v14.95h-3.12V.21Z"/>
        <path class="cls-1" d="M135.49,15.17h-3.1V6.24c0-3.99,2.58-6.24,6.39-6.24,2.71,0,4.91,1.41,4.98,3.63h.21c.04-2.22,2.29-3.63,5.06-3.63,3.72,0,6.28,2.22,6.28,6.24v8.93h-3.1V6.24c0-2.16-1.52-3.31-3.44-3.31s-3.38,1.13-3.38,3.31v8.93h-3.12V6.24c0-2.16-1.5-3.31-3.42-3.31s-3.38,1.13-3.38,3.31v8.93Z"/>
        <path class="cls-1" d="M166.86,9.1h-7.03v3.23h8.27v2.84h-8.72c-1.6,0-2.65-1.07-2.65-2.67v-2.65c0-1.22.6-2.07,1.84-2.05h.15l-.02-.21h-.13c-1.24,0-1.84-.83-1.84-2.05v-2.65c0-1.6,1.05-2.67,2.65-2.67h8.72v2.84h-8.27v3.23h7.03v2.82Z"/>
      </g>
      <g>
        <path class="cls-1" d="M63.48,27.76c1.01,0,1.72-.59,1.72-1.64v-3.87h1.12v3.87c0,1.05.69,1.64,1.69,1.64s1.72-.59,1.72-1.64v-3.87h1.11v3.86c0,1.7-1.1,2.7-2.74,2.7-1.22,0-2.23-.62-2.28-1.52h-.09c-.05.9-1.04,1.52-2.23,1.52-1.67,0-2.8-1.01-2.8-2.7v-3.86h1.11v3.87c0,1.05.69,1.64,1.69,1.64Z"/>
        <path class="cls-1" d="M76.76,28.71h-1.12v-1.68h-3.03v1.68h-1.11v-2.31c0-2.71,1.49-4.15,4.24-4.15h1.02v6.46ZM75.64,26v-2.71h-.23c-1.72,0-2.69.99-2.79,2.71h3.02Z"/>
        <path class="cls-1" d="M80.81,23.26v5.45h-1.11v-5.45h-2.3v-1.02h5.71v1.02h-2.3Z"/>
        <path class="cls-1" d="M86.57,27.78c1,0,1.65-.5,1.97-1.33h1.18c-.31,1.42-1.49,2.35-3.15,2.35-2.02,0-3.37-1.33-3.37-3.32s1.35-3.32,3.37-3.32c1.66,0,2.83.92,3.15,2.34h-1.18c-.31-.83-.97-1.33-1.97-1.33-1.36,0-2.25.91-2.25,2.31s.9,2.31,2.25,2.31Z"/>
        <path class="cls-1" d="M90.4,22.25h1.11v2.56h3.42v-2.56h1.11v6.46h-1.11v-2.88h-3.42v2.88h-1.11v-6.46Z"/>
        <path class="cls-1" d="M101.06,25.98h-3.22v1.71h3.76v1.02h-3.85c-.61,0-1.02-.41-1.02-1.02v-1.28c0-.53.17-.9.71-.89h.05v-.09h-.05c-.54,0-.71-.36-.71-.89v-1.28c0-.61.41-1.02,1.02-1.02h3.85v1.02h-3.76v1.71h3.22v1.02Z"/>
        <path class="cls-1" d="M104.91,22.15c.98,0,1.57.1,2.26.36v1.11c-.45-.16-1.02-.43-2.22-.43s-1.65.32-1.65.88c0,1.54,4.15.12,4.15,2.77,0,1.33-1.06,1.98-2.72,1.98-.98,0-1.57-.1-2.26-.36v-1.11c.45.16,1.02.43,2.22.43s1.65-.32,1.65-.88c0-1.54-4.15-.13-4.15-2.78,0-1.32,1.06-1.97,2.72-1.97Z"/>
      </g>
    </g>
  </g>
</svg>