<?xml version="1.0" encoding="UTF-8"?>
<svg id="Layer_1" data-name="Layer 1" xmlns="http://www.w3.org/2000/svg" viewBox="0 0 1000 1000">
  <defs>
    <style>
      .cls-1 {
        fill: #db3e1d;
      }
    </style>
  </defs>
  <path class="cls-1" d="M634.16,355.27c1.43,0,2.76,.26,4,.78,1.23,.52,2.3,1.23,3.21,2.15,.91,.92,1.62,1.99,2.13,3.22,.52,1.23,.78,2.56,.78,3.97s-.26,2.74-.78,3.97c-.52,1.23-1.23,2.31-2.13,3.22-.91,.92-1.98,1.63-3.21,2.15-1.23,.52-2.56,.77-4,.77s-2.76-.26-4-.77c-1.23-.52-2.3-1.23-3.21-2.15-.91-.91-1.62-1.99-2.13-3.22-.52-1.23-.78-2.56-.78-3.97s.26-2.74,.78-3.97c.52-1.23,1.23-2.31,2.13-3.22,.91-.91,1.97-1.63,3.21-2.15,1.23-.52,2.56-.78,4-.78Zm0,1.44c-1.23,0-2.37,.23-3.41,.68-1.04,.45-1.94,1.07-2.7,1.85-.76,.78-1.35,1.69-1.78,2.75-.43,1.05-.64,2.18-.64,3.4s.21,2.35,.64,3.4c.43,1.05,1.02,1.97,1.78,2.75,.76,.78,1.66,1.4,2.7,1.85,1.04,.45,2.18,.68,3.41,.68s2.34-.23,3.38-.68c1.04-.45,1.94-1.07,2.7-1.85,.76-.78,1.36-1.69,1.79-2.75,.44-1.05,.65-2.18,.65-3.4s-.22-2.35-.65-3.4c-.44-1.05-1.03-1.97-1.79-2.75-.76-.78-1.66-1.4-2.7-1.85-1.04-.45-2.17-.68-3.38-.68Zm-2.23,14.52h-1.44v-11.69h4.49c1.32,0,2.29,.28,2.9,.83,.61,.55,.91,1.36,.91,2.41,0,.53-.08,.97-.23,1.35-.15,.37-.37,.69-.64,.95-.27,.26-.58,.47-.94,.63-.35,.15-.73,.27-1.13,.34l3.48,5.19h-1.69l-3.29-5.19h-2.42v5.19Zm1.9-6.42c.44,0,.87-.01,1.29-.04,.43-.03,.8-.1,1.13-.23,.33-.13,.59-.33,.79-.61,.2-.28,.3-.67,.3-1.16,0-.4-.08-.73-.23-.99-.15-.26-.36-.47-.63-.63-.26-.15-.56-.26-.9-.31-.34-.05-.68-.08-1.02-.08h-2.64v4.05h1.9Z"/>
  <g>
    <path class="cls-1" d="M366.42,644.73c-3.35,0-5.96-.76-7.83-2.27-1.88-1.51-2.83-3.77-2.86-6.78h3.14c.08,4.21,2.59,6.31,7.54,6.31,2.09,0,3.7-.41,4.81-1.22,1.12-.82,1.68-2.01,1.68-3.57,0-1.22-.46-2.18-1.39-2.86-.93-.69-2.54-1.28-4.85-1.79l-2.28-.51c-2.6-.6-4.55-1.47-5.84-2.61-1.3-1.14-1.95-2.75-1.95-4.82s.79-3.67,2.38-4.89c1.59-1.21,3.72-1.82,6.38-1.82,1.81,0,3.38,.22,4.71,.65,1.33,.43,2.37,1.04,3.12,1.82,.75,.78,1.3,1.63,1.65,2.54,.35,.91,.53,1.92,.56,3.03h-3.1c-.15-1.83-.75-3.17-1.79-4.02-1.05-.86-2.76-1.28-5.14-1.28-1.81,0-3.2,.35-4.17,1.04-.97,.7-1.46,1.67-1.46,2.92s.42,2.23,1.26,2.92c.82,.7,2.41,1.31,4.77,1.84l2.27,.51c2.85,.63,4.89,1.52,6.14,2.69,1.25,1.17,1.87,2.71,1.87,4.63,0,2.34-.85,4.17-2.55,5.52-1.71,1.35-4.07,2.02-7.07,2.02Z"/>
    <path class="cls-1" d="M396.28,629.51v-11.04h3.03v25.68h-3.03v-11.83h-14.32v11.83h-3.03v-25.68h3.03v11.04h14.32Z"/>
    <path class="cls-1" d="M423.8,641.01c-2.26,2.48-5.25,3.72-8.94,3.72s-6.67-1.24-8.92-3.72c-2.26-2.43-3.38-5.66-3.38-9.71s1.13-7.26,3.38-9.74c2.24-2.45,5.21-3.68,8.92-3.68s6.68,1.22,8.94,3.68c2.23,2.5,3.36,5.75,3.36,9.74s-1.13,7.25-3.36,9.71Zm-15.58-1.95c1.65,1.92,3.87,2.89,6.64,2.89s4.97-.96,6.64-2.89c1.65-1.9,2.49-4.49,2.49-7.76s-.83-5.85-2.49-7.75c-1.66-1.92-3.88-2.89-6.64-2.89s-4.98,.96-6.64,2.89c-1.66,1.9-2.5,4.49-2.5,7.75s.83,5.86,2.5,7.76Z"/>
    <path class="cls-1" d="M448.26,618.47v2.74h-14.83v8.19h13.39v2.74h-13.39v9.27h14.68v2.74h-17.71v-25.68h17.86Z"/>
    <path class="cls-1" d="M460.38,644.73c-3.35,0-5.96-.76-7.83-2.27-1.88-1.51-2.83-3.77-2.86-6.78h3.14c.08,4.21,2.59,6.31,7.54,6.31,2.09,0,3.7-.41,4.81-1.22,1.12-.82,1.68-2.01,1.68-3.57,0-1.22-.46-2.18-1.39-2.86-.93-.69-2.54-1.28-4.85-1.79l-2.28-.51c-2.6-.6-4.55-1.47-5.84-2.61-1.3-1.14-1.95-2.75-1.95-4.82s.79-3.67,2.38-4.89c1.59-1.21,3.72-1.82,6.38-1.82,1.81,0,3.38,.22,4.71,.65,1.33,.43,2.37,1.04,3.12,1.82,.75,.78,1.3,1.63,1.65,2.54,.35,.91,.53,1.92,.56,3.03h-3.1c-.15-1.83-.75-3.17-1.79-4.02-1.05-.86-2.76-1.28-5.14-1.28-1.81,0-3.2,.35-4.17,1.04-.97,.7-1.46,1.67-1.46,2.92s.42,2.23,1.26,2.92c.82,.7,2.41,1.31,4.77,1.84l2.27,.51c2.85,.63,4.89,1.52,6.14,2.69,1.25,1.17,1.87,2.71,1.87,4.63,0,2.34-.85,4.17-2.55,5.52-1.71,1.35-4.07,2.02-7.07,2.02Z"/>
    <path class="cls-1" d="M495.8,638.6l4.97,5.55h-3.9l-2.7-3.03c-2.04,2.41-4.8,3.61-8.29,3.61-2.36,0-4.24-.69-5.63-2.09-1.43-1.37-2.14-3.05-2.14-5.05,0-1.68,.46-3.1,1.39-4.25,.93-1.15,2.46-2.34,4.6-3.54-1.11-1.25-1.9-2.35-2.36-3.32-.47-.96-.7-1.93-.7-2.92,0-1.56,.58-2.91,1.73-4.04,1.13-1.08,2.66-1.62,4.58-1.62,1.71,0,3.19,.49,4.43,1.48,1.23,.98,1.84,2.34,1.84,4.07,0,2.55-1.76,4.84-5.27,6.85l5.34,5.95c.48-1.39,.72-2.9,.72-4.51h2.92c-.08,2.57-.59,4.86-1.55,6.85Zm-9.74,3.39c2.67,0,4.74-1.01,6.2-3.03l-6.46-7.25c-1.65,.89-2.85,1.76-3.55,2.6-.71,.84-1.06,1.89-1.06,3.14s.44,2.35,1.33,3.23c.89,.87,2.07,1.31,3.54,1.31Zm1.26-21.5c-.95,0-1.74,.28-2.34,.85-.6,.56-.9,1.3-.9,2.22,0,1.28,.87,2.88,2.6,4.83,1.37-.74,2.36-1.5,2.99-2.27,.62-.77,.95-1.63,.95-2.56s-.32-1.62-.95-2.2c-.62-.58-1.4-.87-2.34-.87Z"/>
    <path class="cls-1" d="M525.13,632.64l5.73-14.18h3.97v25.68h-2.96v-8.23c0-5.41,.04-9.78,.11-13.09-.58,1.59-1.34,3.54-2.28,5.84l-6.34,15.48h-2.6l-6.38-15.48c-.94-2.31-1.7-4.25-2.28-5.84,.08,3.32,.11,7.69,.11,13.09v8.23h-2.96v-25.68h3.97l5.95,14.61c.89,2.19,1.86,4.66,2.92,7.4,1.47-3.9,2.48-6.5,3.03-7.83Z"/>
    <path class="cls-1" d="M559.33,641.01c-2.26,2.48-5.25,3.72-8.94,3.72s-6.67-1.24-8.92-3.72c-2.26-2.43-3.38-5.66-3.38-9.71s1.13-7.26,3.38-9.74c2.24-2.45,5.21-3.68,8.92-3.68s6.68,1.22,8.94,3.68c2.23,2.5,3.36,5.75,3.36,9.74s-1.13,7.25-3.36,9.71Zm-15.58-1.95c1.65,1.92,3.87,2.89,6.64,2.89s4.97-.96,6.64-2.89c1.65-1.9,2.49-4.49,2.49-7.76s-.83-5.85-2.49-7.75c-1.66-1.92-3.88-2.89-6.64-2.89s-4.98,.96-6.64,2.89c-1.66,1.9-2.5,4.49-2.5,7.75s.83,5.86,2.5,7.76Z"/>
    <path class="cls-1" d="M584.79,636.72l.26,4.15c.12,1.44,.43,2.53,.94,3.28h-3.14c-.53-.77-.8-1.91-.82-3.43l-.11-2.74c-.07-1.73-.45-2.96-1.15-3.7-.7-.73-1.83-1.1-3.42-1.1h-8.38v10.97h-3.03v-25.68h10.85c2.65,0,4.76,.61,6.33,1.84,1.58,1.23,2.36,2.95,2.36,5.16,0,1.56-.38,2.88-1.13,3.95-.76,1.07-1.79,1.82-3.08,2.25,2.16,.67,3.34,2.35,3.53,5.05Zm-15.84-6.28h8.2c1.61,0,2.87-.41,3.8-1.24,.93-.83,1.39-2.01,1.39-3.55s-.49-2.57-1.47-3.32c-.97-.74-2.34-1.12-4.09-1.12h-7.83v9.23Z"/>
    <path class="cls-1" d="M606.73,618.47v2.74h-14.83v8.19h13.39v2.74h-13.39v9.27h14.68v2.74h-17.71v-25.68h17.86Z"/>
  </g>
  <path class="cls-1" d="M356.23,597.68v-241.39h48.97l57.07,146.39c8.1,20.52,12.76,33.97,17.76,50h3.45c5.52-16.03,10.52-29.66,18.62-50l57.76-146.39h46.38v241.39h-51.03v-157.94c0-17.42,.69-32.24,2.41-53.45l-3.45-.52-83.11,211.91h-25.69l-81.73-212.08-3.62,.52c1.04,21.38,1.38,36.21,1.38,53.62v157.94h-5.17Z"/>
</svg>