<?xml version="1.0" encoding="UTF-8"?>
<svg id="Layer_1" data-name="Layer 1" xmlns="http://www.w3.org/2000/svg" viewBox="0 0 1000 1000">
  <g>
    <path d="M392.45,590.25v-116.55s-40.82,0-40.82,0c-24.46,0-31.2,11.13-38.12,39.47l-6.92,28.17c-6.92,28.33-10.96,40.14-17.03,48.91h-56.33s-.51-4.22-.51-4.22c8.77-5.91,15.86-17.88,24.12-44.7l8.26-26.65c8.44-26.82,18.22-37.61,61.56-39.97v-3.37c-57.18-3.2-79.94-23.44-79.94-57.85v-.67c0-38.79,26.82-58.69,81.8-58.69h113.68v236.13h-49.76Zm0-231.07h-49.08c-30.87,0-46.21,16.02-46.21,50.09v9.95c0,33.9,15.69,49.42,47.06,49.42h48.24s0-109.46,0-109.46Z"/>
    <path d="M503.88,454.19v116.55s40.82,0,40.82,0c24.46,0,31.2-11.13,38.12-39.47l6.92-28.17c6.92-28.33,10.96-40.14,17.03-48.91h56.33s.51,4.22,.51,4.22c-8.77,5.91-15.86,17.88-24.12,44.7l-8.26,26.65c-8.44,26.82-18.22,37.61-61.56,39.97v3.37c57.18,3.2,79.94,23.44,79.94,57.85v.67c0,38.79-26.82,58.69-81.8,58.69h-113.68v-236.13h49.76Zm0,231.07h49.08c30.87,0,46.21-16.02,46.21-50.09v-9.95c0-33.9-15.69-49.42-47.06-49.42h-48.24s0,109.46,0,109.46Z"/>
  </g>
  <g>
    <path d="M596.15,379.96c-1.18-.39-2.14-1-2.88-1.84-.74-.83-1.18-1.84-1.33-3.02l3.02-.32c.21,1,.72,1.82,1.53,2.43,.81,.62,1.92,.85,3.33,.7,1.35-.14,2.37-.59,3.08-1.35,.71-.76,1-1.66,.89-2.72-.09-.83-.39-1.48-.9-1.95-.51-.47-1.12-.8-1.84-1-.71-.2-1.67-.39-2.86-.58-1.47-.22-2.66-.47-3.56-.76-.9-.28-1.7-.79-2.39-1.52s-1.11-1.77-1.26-3.12c-.12-1.18,.07-2.26,.57-3.24,.51-.98,1.27-1.77,2.31-2.38,1.04-.61,2.26-.99,3.67-1.14,2.03-.21,3.75,.12,5.15,1,1.4,.88,2.28,2.15,2.62,3.81l-3.11,.33c-.19-.82-.7-1.5-1.54-2.05-.83-.55-1.88-.76-3.15-.63-1.18,.12-2.11,.53-2.8,1.22-.68,.69-.96,1.59-.85,2.69,.08,.79,.37,1.41,.87,1.86s1.09,.77,1.77,.96c.68,.19,1.63,.39,2.85,.6,1.47,.24,2.66,.51,3.58,.8,.91,.29,1.72,.8,2.43,1.54,.71,.73,1.13,1.78,1.28,3.15,.11,1.06-.06,2.08-.53,3.07-.46,.99-1.21,1.84-2.25,2.53-1.04,.7-2.3,1.12-3.8,1.28-1.43,.15-2.74,.03-3.92-.36Z"/>
    <path d="M629.35,359.26l-2.23,21.69-2.83-.29,1.01-9.83-11.05-1.13-1.01,9.83-2.83-.29,2.23-21.69,2.83,.29-.98,9.52,11.05,1.13,.98-9.52,2.83,.29Z"/>
    <path d="M635.25,381.9c-1.26-1.45-2.06-3.14-2.4-5.06s-.17-3.89,.54-5.9c.71-2,1.81-3.65,3.29-4.92,1.48-1.28,3.17-2.09,5.06-2.42,1.89-.34,3.79-.17,5.69,.51,1.93,.68,3.52,1.75,4.77,3.2,1.26,1.45,2.05,3.13,2.4,5.05,.34,1.91,.15,3.88-.56,5.91-.72,2.02-1.81,3.67-3.28,4.95-1.47,1.27-3.15,2.08-5.04,2.42-1.89,.34-3.8,.16-5.72-.52-1.91-.68-3.49-1.74-4.74-3.19Zm9.8,1.23c1.39-.26,2.63-.89,3.73-1.9s1.93-2.32,2.51-3.96c.58-1.65,.76-3.21,.54-4.67-.22-1.46-.79-2.73-1.69-3.8-.9-1.07-2.08-1.87-3.54-2.38-1.45-.51-2.87-.64-4.25-.37-1.38,.26-2.61,.89-3.71,1.89s-1.93,2.32-2.52,3.97c-.58,1.63-.76,3.18-.54,4.66s.79,2.75,1.7,3.82c.91,1.08,2.09,1.87,3.52,2.37,1.43,.51,2.84,.63,4.23,.37Z"/>
    <path d="M665.19,375.06l-3.81,6.22,6.78,4.15-1.23,2-6.78-4.15-3.92,6.4,7.58,4.64-1.23,2-10-6.13,11.4-18.62,10,6.13-1.23,2-7.58-4.64Z"/>
    <path d="M667.99,399.92c-.51-1.14-.7-2.26-.58-3.37,.12-1.11,.57-2.11,1.34-3.01l2.27,2.02c-.6,.83-.86,1.76-.77,2.77,.09,1.01,.66,1.99,1.72,2.94,1.01,.9,2.04,1.36,3.07,1.37,1.03,.01,1.9-.38,2.61-1.17,.55-.62,.83-1.28,.84-1.98,0-.69-.16-1.37-.49-2.03-.33-.66-.83-1.5-1.5-2.51-.82-1.24-1.43-2.28-1.83-3.14-.4-.86-.56-1.79-.48-2.8s.56-2.02,1.47-3.03c.79-.89,1.72-1.47,2.78-1.75,1.06-.28,2.17-.25,3.32,.11,1.15,.35,2.26,1,3.31,1.95,1.53,1.36,2.43,2.85,2.73,4.48,.29,1.63-.06,3.13-1.06,4.5l-2.34-2.08c.48-.69,.64-1.53,.49-2.52-.15-.99-.7-1.91-1.65-2.75-.89-.79-1.82-1.21-2.79-1.25-.97-.04-1.82,.35-2.56,1.18-.53,.59-.79,1.22-.79,1.89,0,.67,.16,1.32,.48,1.96,.32,.63,.81,1.47,1.47,2.51,.81,1.25,1.41,2.32,1.81,3.19,.4,.87,.56,1.81,.5,2.83-.07,1.02-.56,2.04-1.47,3.06-.71,.8-1.58,1.35-2.63,1.68-1.05,.33-2.17,.34-3.39,.04-1.21-.3-2.38-.95-3.5-1.95-1.07-.96-1.87-2-2.37-3.14Z"/>
    <path d="M691.77,430.37l1-3.92c-1.5-.34-2.78-.89-3.86-1.66-1.08-.76-2.01-1.8-2.8-3.1-.77-1.29-1.23-2.57-1.36-3.84-.13-1.27,.07-2.44,.6-3.5s1.37-1.93,2.51-2.62c1.3-.78,2.68-1.1,4.11-.96,1.44,.15,2.88,.77,4.32,1.87,.34-.98,.71-1.77,1.13-2.36,.42-.59,.97-1.1,1.65-1.5,.79-.47,1.62-.7,2.49-.68,.88,.02,1.72,.3,2.53,.83,.81,.54,1.51,1.3,2.1,2.28,.58,.97,.9,1.92,.95,2.86,.06,.94-.15,1.79-.6,2.55-.45,.76-1.1,1.37-1.95,1.83l-1.47-2.44c.74-.42,1.2-.98,1.36-1.66,.16-.68,.04-1.36-.37-2.04-.43-.71-.98-1.17-1.64-1.37-.67-.2-1.31-.1-1.94,.27-.54,.32-.97,.78-1.29,1.38-.32,.6-.64,1.46-.95,2.6l-2.25,8.94,1.04,.03,4.15-.02,1.58,2.63-5.13,.09c-.72,.02-1.5,0-2.33-.06l-1.68,6.74-1.92-3.19Zm-1.43-7.66c.84,.55,1.87,.94,3.07,1.16l2.22-8.82c-2.25-1.76-4.32-2.07-6.22-.93-1.05,.63-1.7,1.54-1.94,2.72-.24,1.18,0,2.37,.74,3.59,.58,.97,1.29,1.72,2.13,2.28Z"/>
    <path d="M722.63,459.74l-21.22,4.25-.56-2.79,15.82-3.17-17.24-3.88-.39-1.96,14.44-10.26-15.86,3.18-.56-2.79,21.22-4.26,.6,3.01-15.97,11.37,19.12,4.33,.6,2.98Z"/>
    <path d="M702.37,471.95c1.06-1.6,2.48-2.82,4.24-3.67,1.76-.85,3.71-1.2,5.83-1.05,2.12,.15,4,.77,5.62,1.85,1.63,1.09,2.86,2.49,3.69,4.22,.83,1.73,1.17,3.6,1.03,5.62-.14,2.04-.75,3.86-1.81,5.46-1.06,1.6-2.47,2.82-4.22,3.65-1.75,.84-3.7,1.18-5.84,1.03-2.14-.15-4.02-.76-5.64-1.84-1.62-1.08-2.84-2.48-3.67-4.21-.83-1.73-1.17-3.61-1.03-5.65,.14-2.02,.74-3.83,1.81-5.42Zm1.43,9.77c.62,1.27,1.56,2.29,2.83,3.08,1.26,.79,2.76,1.24,4.48,1.37,1.75,.12,3.29-.12,4.64-.73,1.35-.61,2.42-1.49,3.21-2.64,.79-1.16,1.24-2.51,1.35-4.05,.11-1.54-.15-2.94-.77-4.19-.62-1.26-1.56-2.28-2.81-3.07-1.25-.79-2.75-1.24-4.5-1.36-1.73-.12-3.27,.12-4.63,.73-1.36,.6-2.43,1.49-3.23,2.66-.79,1.17-1.24,2.51-1.35,4.03-.11,1.52,.15,2.91,.77,4.18Z"/>
    <path d="M695.79,501.8l10.04-2.38,1-3.29-8.53-2.59,.83-2.72,20.86,6.32-2.04,6.74c-.48,1.58-1.15,2.83-2.02,3.75-.87,.92-1.84,1.52-2.92,1.78-1.08,.26-2.21,.21-3.39-.15-1.44-.43-2.58-1.23-3.43-2.39-.85-1.16-1.2-2.62-1.06-4.39l-10.33,2.59,.99-3.26Zm13.22-5.01l-1.22,4.01c-.45,1.48-.42,2.69,.09,3.65,.51,.96,1.37,1.62,2.58,1.99,1.24,.38,2.31,.3,3.21-.22,.9-.52,1.58-1.53,2.03-3.03l1.22-4.01-7.9-2.4Z"/>
    <path d="M709.45,519.4l-6.48-3.33-3.63,7.07-2.09-1.07,3.63-7.07-6.68-3.43-4.06,7.9-2.09-1.07,5.36-10.43,19.42,9.98-5.36,10.43-2.09-1.07,4.06-7.9Z"/>
  </g>
  <path d="M688.51,656.95c2.02,0,3.91,.37,5.65,1.1,1.74,.73,3.25,1.74,4.54,3.04,1.28,1.29,2.29,2.81,3.02,4.56,.73,1.74,1.1,3.61,1.1,5.61s-.36,3.87-1.1,5.61c-.73,1.74-1.74,3.26-3.02,4.56-1.28,1.29-2.79,2.31-4.54,3.04-1.74,.73-3.63,1.1-5.65,1.1s-3.91-.36-5.65-1.1c-1.74-.73-3.26-1.74-4.54-3.04-1.28-1.29-2.29-2.81-3.02-4.56-.73-1.74-1.1-3.61-1.1-5.61s.36-3.87,1.1-5.61c.73-1.74,1.74-3.26,3.02-4.56,1.28-1.29,2.79-2.31,4.54-3.04,1.74-.73,3.63-1.1,5.65-1.1Zm0,2.04c-1.74,0-3.35,.32-4.82,.96-1.47,.64-2.75,1.51-3.82,2.61-1.08,1.1-1.92,2.4-2.52,3.88-.6,1.49-.9,3.09-.9,4.81s.3,3.32,.9,4.81c.6,1.49,1.44,2.78,2.52,3.88,1.08,1.1,2.35,1.97,3.82,2.61,1.47,.64,3.08,.96,4.82,.96s3.31-.32,4.79-.96c1.47-.64,2.75-1.51,3.82-2.61,1.08-1.1,1.92-2.4,2.54-3.88,.62-1.49,.92-3.09,.92-4.81s-.31-3.32-.92-4.81c-.62-1.49-1.46-2.78-2.54-3.88-1.08-1.1-2.35-1.97-3.82-2.61-1.47-.64-3.07-.96-4.79-.96Zm-3.15,20.53h-2.04v-16.53h6.34c1.87,0,3.23,.39,4.09,1.17,.86,.78,1.29,1.92,1.29,3.4,0,.74-.11,1.38-.33,1.9-.22,.53-.52,.97-.9,1.35-.38,.37-.83,.67-1.33,.88-.5,.22-1.03,.38-1.6,.48l4.92,7.34h-2.38l-4.65-7.34h-3.42v7.34Zm2.69-9.07c.62,0,1.22-.02,1.83-.06,.6-.04,1.13-.15,1.6-.33,.46-.18,.83-.47,1.11-.86,.28-.4,.42-.94,.42-1.63,0-.56-.11-1.03-.33-1.4-.22-.37-.51-.67-.88-.88-.37-.22-.79-.36-1.27-.44-.47-.08-.96-.12-1.44-.12h-3.73v5.73h2.69Z"/>
</svg>