<?xml version="1.0" encoding="UTF-8"?>
<svg id="Layer_1" data-name="Layer 1" xmlns="http://www.w3.org/2000/svg" viewBox="0 0 1000 1000">
  <defs>
    <style>
      .cls-1 {
        fill: #db3e1d;
      }
    </style>
  </defs>
  <g>
    <path class="cls-1" d="M161.61,543.9v-133.45h27.07l31.55,80.93c4.48,11.34,7.05,18.78,9.82,27.64h1.91c3.05-8.86,5.82-16.39,10.29-27.64l31.93-80.93h25.64v133.45h-28.21v-87.31c0-9.63,.38-17.82,1.33-29.55l-1.91-.29-45.94,117.15h-14.2l-45.18-117.24-2,.29c.57,11.82,.76,20.02,.76,29.64v87.31h-2.86Z"/>
    <path class="cls-1" d="M310.56,543.9l46.99-133.45h23.64l47.18,133.45h-29.74l-13.06-36.79h-58.72l-13.25,36.79h-3.05Zm17.25-39.65h56.81l-16.2-46.8c-4.76-13.63-7.91-23.74-10.67-34.41h-1.91c-3.34,10.67-6.77,20.78-11.63,34.41l-16.39,46.8Z"/>
    <path class="cls-1" d="M529.37,543.9v-65.87s-23.07,0-23.07,0c-13.82,0-17.63,6.29-21.54,22.3l-3.91,15.92c-3.91,16.01-6.19,22.69-9.63,27.64h-31.84s-.29-2.38-.29-2.38c4.96-3.34,8.96-10.1,13.63-25.26l4.67-15.06c4.77-15.16,10.3-21.26,34.79-22.59v-1.91c-32.31-1.81-45.18-13.25-45.18-32.69v-.38c0-21.92,15.16-33.17,46.23-33.17h64.25v133.45h-28.12Zm0-130.59h-27.74c-17.44,0-26.12,9.05-26.12,28.31v5.62c0,19.16,8.87,27.93,26.59,27.93h27.26s0-61.86,0-61.86Z"/>
    <path class="cls-1" d="M568.32,543.9v-133.45h28.12v133.45h-28.12Z"/>
    <path class="cls-1" d="M607.47,543.9v-133.45h29.07l58.24,91.79c5.81,9.15,8.1,12.87,11.06,17.92l1.91-.38c-.57-7.72-.67-13.82-.67-21.73v-87.6h2.86v133.45h-22.02l-64.15-101.32c-6.86-10.77-9.34-14.87-12.2-19.83l-1.91,.48c.48,8.77,.67,16.11,.67,23.64v97.03h-2.86Z"/>
    <path class="cls-1" d="M720.58,543.9l46.99-133.45h23.64l47.18,133.45h-29.74l-13.06-36.79h-58.72l-13.25,36.79h-3.05Zm17.25-39.65h56.81l-16.2-46.8c-4.76-13.63-7.91-23.74-10.67-34.41h-1.91c-3.34,10.67-6.77,20.78-11.63,34.41l-16.39,46.8Z"/>
    <path class="cls-1" d="M823.48,409.8c1.14,0,2.21,.21,3.19,.62,.98,.41,1.84,.99,2.56,1.72,.72,.73,1.29,1.59,1.7,2.57,.41,.99,.62,2.04,.62,3.17s-.21,2.19-.62,3.17c-.41,.99-.98,1.84-1.7,2.57-.72,.73-1.58,1.3-2.56,1.72-.99,.41-2.05,.62-3.19,.62s-2.21-.21-3.19-.62c-.99-.41-1.84-.98-2.56-1.72-.72-.73-1.29-1.59-1.71-2.57-.41-.98-.62-2.04-.62-3.17s.21-2.19,.62-3.17c.41-.98,.98-1.84,1.71-2.57,.72-.73,1.58-1.3,2.56-1.72,.98-.41,2.05-.62,3.19-.62Zm0,1.15c-.99,0-1.89,.18-2.73,.54-.83,.36-1.55,.85-2.16,1.48s-1.08,1.35-1.42,2.19c-.34,.84-.51,1.75-.51,2.72s.17,1.88,.51,2.72c.34,.84,.81,1.57,1.42,2.19,.61,.62,1.33,1.12,2.16,1.48,.83,.36,1.74,.54,2.73,.54s1.87-.18,2.7-.54c.83-.36,1.55-.85,2.16-1.48,.61-.62,1.09-1.35,1.43-2.19,.35-.84,.52-1.74,.52-2.72s-.17-1.88-.52-2.72c-.35-.84-.83-1.57-1.43-2.19-.61-.62-1.33-1.12-2.16-1.48-.83-.36-1.73-.54-2.7-.54Zm-1.78,11.6h-1.15v-9.34h3.58c1.06,0,1.83,.22,2.31,.66,.49,.44,.73,1.08,.73,1.92,0,.42-.06,.78-.18,1.08-.12,.3-.29,.55-.51,.76-.22,.21-.47,.38-.75,.5-.28,.12-.58,.21-.9,.27l2.78,4.15h-1.35l-2.63-4.15h-1.93v4.15Zm1.52-5.13c.35,0,.69-.01,1.03-.03s.64-.08,.9-.18c.26-.1,.47-.26,.63-.49,.16-.22,.24-.53,.24-.92,0-.32-.06-.58-.19-.79-.12-.21-.29-.38-.5-.5-.21-.12-.45-.21-.72-.25-.27-.04-.54-.07-.81-.07h-2.11v3.24h1.52Z"/>
  </g>
  <g>
    <path class="cls-1" d="M618.57,590.2c-3.06,0-5.44-.69-7.15-2.08-1.72-1.38-2.58-3.44-2.61-6.19h2.87c.07,3.84,2.37,5.76,6.89,5.76,1.91,0,3.38-.37,4.39-1.12,1.02-.75,1.54-1.83,1.54-3.26,0-1.12-.42-1.99-1.27-2.62-.85-.63-2.32-1.17-4.43-1.63l-2.08-.46c-2.37-.55-4.15-1.34-5.34-2.39-1.18-1.04-1.78-2.51-1.78-4.4s.73-3.35,2.18-4.46c1.45-1.11,3.39-1.66,5.83-1.66,1.65,0,3.08,.2,4.3,.59,1.22,.4,2.17,.95,2.85,1.67,.68,.71,1.18,1.48,1.5,2.32,.32,.83,.48,1.76,.51,2.77h-2.83c-.14-1.67-.68-2.9-1.63-3.67-.96-.78-2.52-1.17-4.7-1.17-1.65,0-2.92,.32-3.81,.95-.89,.64-1.33,1.53-1.33,2.67s.38,2.03,1.15,2.67c.75,.64,2.2,1.2,4.35,1.68l2.07,.46c2.6,.57,4.46,1.39,5.6,2.46,1.14,1.07,1.71,2.47,1.71,4.23,0,2.13-.78,3.81-2.33,5.04-1.56,1.23-3.71,1.84-6.46,1.84Z"/>
    <path class="cls-1" d="M645.84,576.3v-10.08h2.77v23.45h-2.77v-10.8h-13.08v10.8h-2.76v-23.45h2.76v10.08h13.08Z"/>
    <path class="cls-1" d="M670.98,586.8c-2.06,2.26-4.79,3.39-8.17,3.39s-6.1-1.13-8.14-3.39c-2.06-2.22-3.09-5.17-3.09-8.86s1.03-6.63,3.09-8.89c2.05-2.24,4.76-3.36,8.14-3.36s6.1,1.12,8.17,3.36c2.04,2.28,3.06,5.25,3.06,8.89s-1.03,6.62-3.06,8.86Zm-14.23-1.78c1.51,1.76,3.53,2.64,6.06,2.64s4.54-.88,6.06-2.64c1.51-1.74,2.27-4.1,2.27-7.08s-.76-5.34-2.27-7.08c-1.52-1.76-3.54-2.64-6.06-2.64s-4.55,.88-6.06,2.64c-1.52,1.74-2.28,4.1-2.28,7.08s.76,5.35,2.28,7.08Z"/>
    <path class="cls-1" d="M693.31,566.22v2.5h-13.55v7.48h12.23v2.5h-12.23v8.47h13.41v2.5h-16.17v-23.45h16.31Z"/>
    <path class="cls-1" d="M704.38,590.2c-3.06,0-5.44-.69-7.15-2.08-1.72-1.38-2.58-3.44-2.61-6.19h2.87c.07,3.84,2.37,5.76,6.89,5.76,1.91,0,3.38-.37,4.39-1.12,1.02-.75,1.54-1.83,1.54-3.26,0-1.12-.42-1.99-1.27-2.62-.85-.63-2.32-1.17-4.43-1.63l-2.08-.46c-2.37-.55-4.15-1.34-5.34-2.39-1.18-1.04-1.78-2.51-1.78-4.4s.73-3.35,2.18-4.46c1.45-1.11,3.39-1.66,5.83-1.66,1.65,0,3.08,.2,4.3,.59,1.22,.4,2.17,.95,2.85,1.67,.68,.71,1.18,1.48,1.5,2.32,.32,.83,.48,1.76,.51,2.77h-2.83c-.14-1.67-.68-2.9-1.63-3.67-.96-.78-2.52-1.17-4.7-1.17-1.65,0-2.92,.32-3.81,.95-.89,.64-1.33,1.53-1.33,2.67s.38,2.03,1.15,2.67c.75,.64,2.2,1.2,4.35,1.68l2.07,.46c2.6,.57,4.46,1.39,5.6,2.46,1.14,1.07,1.71,2.47,1.71,4.23,0,2.13-.78,3.81-2.33,5.04-1.56,1.23-3.71,1.84-6.46,1.84Z"/>
    <path class="cls-1" d="M736.72,584.6l4.54,5.07h-3.56l-2.47-2.77c-1.86,2.2-4.39,3.29-7.57,3.29-2.16,0-3.87-.63-5.14-1.91-1.3-1.25-1.95-2.79-1.95-4.61,0-1.54,.42-2.83,1.27-3.89,.85-1.05,2.24-2.13,4.2-3.23-1.01-1.14-1.74-2.15-2.16-3.03-.43-.88-.64-1.77-.64-2.67,0-1.43,.53-2.66,1.58-3.69,1.03-.99,2.43-1.48,4.18-1.48,1.56,0,2.91,.45,4.05,1.35,1.12,.9,1.68,2.14,1.68,3.72,0,2.33-1.61,4.42-4.81,6.26l4.88,5.43c.44-1.27,.66-2.65,.66-4.12h2.67c-.07,2.35-.54,4.44-1.42,6.26Zm-8.89,3.1c2.43,0,4.33-.92,5.66-2.77l-5.9-6.62c-1.51,.82-2.6,1.61-3.25,2.37-.65,.77-.97,1.72-.97,2.87s.41,2.15,1.22,2.95c.81,.8,1.89,1.2,3.23,1.2Zm1.15-19.63c-.87,0-1.59,.26-2.14,.78-.54,.51-.82,1.19-.82,2.02,0,1.17,.79,2.63,2.37,4.41,1.25-.68,2.16-1.37,2.73-2.07,.57-.7,.86-1.48,.86-2.34s-.29-1.48-.86-2.01c-.57-.53-1.28-.79-2.14-.79Z"/>
    <path class="cls-1" d="M763.5,579.16l5.23-12.95h3.63v23.45h-2.7v-7.51c0-4.94,.03-8.93,.1-11.96-.53,1.45-1.23,3.23-2.08,5.34l-5.79,14.13h-2.37l-5.83-14.13c-.85-2.11-1.55-3.89-2.08-5.34,.07,3.03,.1,7.02,.1,11.96v7.51h-2.7v-23.45h3.63l5.43,13.34c.81,2,1.7,4.25,2.67,6.76,1.34-3.56,2.26-5.94,2.77-7.15Z"/>
    <path class="cls-1" d="M794.73,586.8c-2.06,2.26-4.79,3.39-8.17,3.39s-6.1-1.13-8.14-3.39c-2.06-2.22-3.09-5.17-3.09-8.86s1.03-6.63,3.09-8.89c2.05-2.24,4.76-3.36,8.14-3.36s6.1,1.12,8.17,3.36c2.04,2.28,3.06,5.25,3.06,8.89s-1.03,6.62-3.06,8.86Zm-14.23-1.78c1.51,1.76,3.53,2.64,6.06,2.64s4.54-.88,6.06-2.64c1.51-1.74,2.27-4.1,2.27-7.08s-.76-5.34-2.27-7.08c-1.52-1.76-3.54-2.64-6.06-2.64s-4.55,.88-6.06,2.64c-1.52,1.74-2.28,4.1-2.28,7.08s.76,5.35,2.28,7.08Z"/>
    <path class="cls-1" d="M817.98,582.88l.23,3.79c.11,1.32,.4,2.31,.85,3h-2.87c-.48-.7-.73-1.74-.75-3.13l-.1-2.5c-.06-1.58-.41-2.71-1.05-3.38-.64-.67-1.67-1.01-3.13-1.01h-7.65v10.01h-2.76v-23.45h9.91c2.42,0,4.34,.56,5.78,1.68,1.44,1.12,2.16,2.69,2.16,4.71,0,1.43-.35,2.63-1.04,3.61-.69,.98-1.63,1.66-2.81,2.06,1.97,.61,3.05,2.15,3.22,4.61Zm-14.46-5.73h7.49c1.47,0,2.62-.38,3.47-1.14,.85-.76,1.27-1.84,1.27-3.25s-.45-2.35-1.34-3.03c-.89-.68-2.13-1.02-3.74-1.02h-7.15v8.43Z"/>
    <path class="cls-1" d="M838.02,566.22v2.5h-13.55v7.48h12.23v2.5h-12.23v8.47h13.41v2.5h-16.17v-23.45h16.31Z"/>
  </g>
</svg>