<svg id="Stickers" height="512" viewBox="0 0 512 512" width="512" xmlns="http://www.w3.org/2000/svg"><path d="m471.818 245.493v-28.312c6.546-8.979 9.59-18.6 9.066-28.683a44.443 44.443 0 0 0 -9.066-24.156v-60.705a14.826 14.826 0 0 0 -14.805-14.805h-170.53v-7.507h-32.054v7.507h-22.072a14.816 14.816 0 0 0 -14.794 14.805v24.537a18.047 18.047 0 0 0 -10.311-1.593l-23.479 3.319a18.191 18.191 0 0 0 -15.165 13.856 14.923 14.923 0 0 0 -1.964-3.851 14.653 14.653 0 0 0 -9.568-6.044c-12.524-2.089-12.774-2.368-15.035-2.368a14.751 14.751 0 0 0 -14.576 12.285l-13.31 77.344-24.582-174.284-80.409 11.346 29.736 210.777-32.9 86.007v110.194h500v-109.834z" fill="#fff"/><path d="m437.406 171.65h-167.612l16.301 71.675h-225.712l-43.471 113.657h478.176z" fill="#a369f7"/><rect fill="#ff605b" height="327.008" rx="3.564" width="232.432" x="228.473" y="99.743"/><path d="m265.334 92.235h10.239v340.628h-10.239z" fill="#ffb020"/><g fill="#fff"><path d="m323.054 157.739c-1.3 0-3.04-.546-3.04-1.964v-30.309c0-1.927 3.231-2.217 4.887-1.684 1.291.417 2.086 1.785 2.69 2.993l9.027 17.447v-18.756c0-1.448 1.69-1.918 3.04-1.918 1.436 0 3.04.481 3.04 1.918v30.309c0 2.181-4.935 3.049-6.5.047l-10.1-18.8v18.756c-.004 1.44-1.731 1.961-3.044 1.961z"/><path d="m358.975 158.02c-6.762 0-10.992-3.481-10.992-10.758v-12.956c0-7.254 4.2-10.758 10.992-10.758 6.875 0 10.992 3.5 10.992 10.758v12.956c0 7.231-4.085 10.758-10.992 10.758zm0-5.332c3.375 0 4.911-2.037 4.911-5.426v-12.956c0-3.736-1.85-5.426-4.911-5.426s-4.865 1.7-4.865 5.426v12.956c0 3.738 1.803 5.426 4.865 5.426z"/><path d="m384 157.739c-1.34 0-3.041-.532-3.041-1.964v-26.754h-6.875c-1.293 0-1.918-1.484-1.918-2.76 0-1.2.545-2.713 1.918-2.713h19.785c1.387 0 1.917 1.43 1.917 2.713 0 1.264-.554 2.76-1.917 2.76h-6.829v26.754c-.001 1.419-1.748 1.964-3.04 1.964z"/><path d="m401.679 157.739c-1.213 0-2.666-.593-2.666-1.964v-30.263c0-1.371 1.453-1.964 2.666-1.964h16.651c1.372 0 1.917 1.372 1.917 2.619 0 1.313-.546 2.713-1.917 2.713h-13.237v9.355h7.107c1.333 0 1.918 1.244 1.918 2.432 0 1.1-.569 2.339-1.918 2.339h-7.109v9.4h13.239c1.37 0 1.917 1.4 1.917 2.713 0 1.191-.512 2.619-1.917 2.619z"/><path d="m423.545 155.05c-1.57-1.467-1.7-2.75-1.075-4.116.762-1.68 2.331-2.446 3.718-1.31q.654.539 1.5 1.263c3.582 3.087 10.29 2.219 10.29-2.268 0-3.117-2.8-4.389-5.894-5.754-5.3-2.339-9.12-4.318-9.12-10.2 0-6.368 5.248-9.355 11.365-9.355 2.359 0 6.036.464 7.929 1.894a2.525 2.525 0 0 1 .7 3.158 2.494 2.494 0 0 1 -2.175 1.964c-1.612 0-2.419-1.777-6.455-1.777-2.664 0-5.285.841-5.285 3.554 0 2.606 3.215 3.763 5.894 4.865 5.676 2.341 9.121 5.016 9.121 11.038-.002 11.664-14.818 12.365-20.513 7.044z"/></g><path d="m287.857 248.431a94.211 94.211 0 1 0 94.2 94.225 94.218 94.218 0 0 0 -94.2-94.225zm0 132.6a38.394 38.394 0 1 1 38.408-38.379 38.374 38.374 0 0 1 -38.408 38.383z" fill="#eae5db"/><path d="m164.849 172.161h13.351a3.564 3.564 0 0 1 3.564 3.564v260.61a0 0 0 0 1 0 0h-20.48a0 0 0 0 1 0 0v-260.61a3.564 3.564 0 0 1 3.564-3.564z" fill="#ff605b"/><path d="m119.9 141.62h13.35a3.564 3.564 0 0 1 3.564 3.564v260.61a0 0 0 0 1 0 0h-20.478a0 0 0 0 1 0 0v-260.61a3.564 3.564 0 0 1 3.564-3.564z" fill="#ffb020" transform="matrix(.986 .169 -.169 .986 48.223 -17.494)"/><path d="m202.072 137.815h24.92a6.653 6.653 0 0 1 6.653 6.653v243.869a0 0 0 0 1 0 0h-38.227a0 0 0 0 1 0 0v-243.869a6.653 6.653 0 0 1 6.653-6.653z" fill="#7ad001" transform="matrix(.99 -.14 .14 .99 -34.645 32.546)"/><path d="m345.446 449.032 67.52-203.491-8.961-2.437s-7.456 26.268-20.728 34.515-27.54 70.686-34.284 95.147-3.547 76.266-3.547 76.266z" fill="#b2aca3"/><path d="m430.091 157.138c-27.446 10.28-28.447 42.174-29.024 58.908s-6.045 41.145-6.045 41.145l17.121 5.358s4.053-21.374 20.811-29.023 38.151-23.1 37.03-44.458-24.984-37.498-39.893-31.93zm24.377 44c-5.143 11.993-27.419 23.384-35.147 24.524-7.747 1.127-8.159-15.457-7.244-20.512 0 0 5.033-37.212 24.553-38.358s23 22.366 17.838 34.347z" fill="#00abfe"/><path d="m421.925 451.554-52.292-207.925 9.116-1.767s5.494 26.746 18.12 35.952 22.24 72.529 27.157 97.421-2.101 76.319-2.101 76.319z" fill="#eae5db"/><circle cx="390.575" cy="284.871" fill="#0038a6" r="4.447"/><path d="m317.223 181.784c-2.808 22.091 18.22 39.787 35.035 49.021s19.378 31.744 19.378 31.744l18.193-4.246s-3.8-25.773-3.11-43.2 2.1-50.624-25.608-63.413c-15.058-6.927-41.08 8.002-43.888 30.094zm36.354-20.566c20.184 2.692 22.546 41.726 22.546 41.726.562 5.32-1.143 22.512-9.1 20.744-7.938-1.778-30.2-15.323-34.613-28.174-4.442-12.84.983-36.988 21.167-34.296z" fill="#00abfe"/><path d="m160.387 314.733a66.3 66.3 0 1 0 66.292 66.312 66.307 66.307 0 0 0 -66.292-66.312zm0 93.322a27.02 27.02 0 1 1 27.031-27.01 27.006 27.006 0 0 1 -27.031 27.01z" fill="#1d1d3d"/><path d="m47.871 61.439h59.388v381.926h-59.388z" fill="#eae5db" transform="matrix(.99 -.14 .14 .99 -34.496 13.309)"/><path d="m84.853 427.117-52.563-354.763a2.5 2.5 0 1 1 4.945-.733l52.565 354.764a2.5 2.5 0 1 1 -4.945.732z" fill="#b2aca3"/><path d="m16.912 356.982h478.176v97.273h-478.176z" fill="#00abfe"/></svg>