<svg id="Capa_1" enable-background="new 0 0 512 512" height="512" viewBox="0 0 512 512" width="512" xmlns="http://www.w3.org/2000/svg"><g><g><g><path d="m240.602 88.096h76.898c2.761 0 5 2.239 5 5v141.244l35.96 62.285 14.289-24.75-16.067-16.067c-1.997-1.997-1.997-5.235 0-7.232l18.004-18.004c1.997-1.997 1.997-5.235 0-7.232l-18.139-18.139c-1.997-1.997-1.997-5.235 0-7.232l18.004-18.004c1.997-1.997 1.997-5.235 0-7.232l-18.139-18.139c-1.997-1.997-1.997-5.235 0-7.232l18.004-18.004c1.997-1.997 1.997-5.235 0-7.232l-17.801-17.801c-1.997-1.997-1.997-5.235 0-7.232l18.342-18.342c1.997-1.997 1.997-5.235 0-7.232l-30.948-30.949-.338.338-.338-.338-21.417 21.417c-1.997 1.997-5.235 1.997-7.232 0l-17.666-17.666c-1.997-1.997-5.235-1.997-7.232 0l-18.139 18.139c-1.997 1.997-5.235 1.997-7.232 0l-18.005-18.003c-1.573-1.573-3.908-1.887-5.808-.982z" fill="#6e61b6"/></g><g><path d="m317.5 88.096h-76.898v117.096c0 2.761-2.239 5-5 5h-183.135c-2.761 0-5-2.239-5-5v-117.096h-34.967c-2.761 0-5 2.239-5 5v305c0 2.761 2.239 5 5 5h28v-70.484c0-47.153 38.362-85.516 85.516-85.516s85.517 38.362 85.517 85.516c0 29.22-14.739 55.052-37.164 70.484h49.061c14.579-20.192 40.346-28.598 63.695-21.55 7.97 2.406 16.599-.175 21.739-6.724l13.636-17.372v-264.354c0-2.761-2.239-5-5-5z" fill="#ffd15b"/></g><g><path d="m39.5 332.612c0-18.986 6.132-36.53 16.5-50.797v-71.623h-3.533c-2.761 0-5-2.239-5-5v-117.096h-34.967c-2.761 0-5 2.239-5 5v305c0 2.761 2.239 5 5 5h27z" fill="#fdb441"/></g><g><path d="m235.601 210.193h-183.134c-2.761 0-5-2.239-5-5v-183.135c0-2.761 2.239-5 5-5h183.135c2.761 0 5 2.239 5 5v183.135c-.001 2.761-2.239 5-5.001 5z" fill="#97d729"/></g><g><path d="m81 205.193v-183.135c0-2.761 2.239-5 5-5h-33.533c-2.761 0-5 2.239-5 5v183.135c0 2.761 2.239 5 5 5h33.533c-2.762 0-5-2.239-5-5z" fill="#8bc727"/></g><g><path d="m39.5 332.612v154.065c0 2.546 2.971 3.935 4.924 2.301l32.987-27.583v-57.208c-22.88-15.567-37.911-41.813-37.911-71.575z" fill="#fe646f"/><path d="m39.5 332.612v154.065c0 2.546 2.971 3.935 4.924 2.301l11.664-9.753v-95.692c-10.423-14.288-16.588-31.88-16.588-50.921z" fill="#fd4755"/><g><circle cx="126.016" cy="332.612" fill="#fd4755" r="86.516"/></g><g><path d="m73 332.612c0-42.049 30.003-77.078 69.766-84.881-5.421-1.064-11.018-1.635-16.75-1.635-47.781 0-86.516 38.735-86.516 86.516s38.735 86.516 86.516 86.516c5.732 0 11.329-.571 16.75-1.635-39.763-7.803-69.766-42.831-69.766-84.881z" fill="#fb2b3a"/></g><g><circle cx="126.016" cy="332.612" fill="#d8ecfe" r="41.984"/></g><g><path d="m110 332.612c0-18.654 12.17-34.458 29-39.927-4.09-1.329-8.451-2.056-12.984-2.056-23.187 0-41.984 18.797-41.984 41.984s18.797 41.984 41.984 41.984c4.533 0 8.894-.727 12.984-2.056-16.83-5.471-29-21.274-29-39.929z" fill="#c4e2ff"/></g><circle cx="126.016" cy="332.612" fill="#fff" r="16.984"/></g></g><g><g><g><g><path d="m358.438 296.626-74.166-128.459c-21.568 24.893-24.988 60.72-8.52 89.243l52.663 91.216z" fill="#d8ecfe"/></g><g><path d="m341.206 326.473-39.874-69.063c-12.154-21.051-13.462-46.075-4.651-67.75l-12.409-21.493c-21.568 24.893-24.988 60.72-8.52 89.243l52.664 91.216z" fill="#c4e2ff"/></g><path d="m496.698 408.098c-13.728-23.778-41.75-34.158-66.946-26.552-7.97 2.406-16.599-.175-21.739-6.724l-16.74-21.327-8.436 4.87-24.398 42.26 37.368 64.724c15.938 27.605 51.182 37.938 78.992 22.359 28.257-15.828 38.043-51.647 21.899-79.61zm-33.73 57.579c-15.758 9.098-35.981 3.68-45.079-12.079-9.098-15.758-3.68-35.981 12.079-45.079s35.981-3.68 45.079 12.079 3.68 35.981-12.079 45.079z" fill="#0593fc"/><path d="m414.061 449.631-41.958-72.673-13.665 23.668 37.368 64.724c15.938 27.605 51.182 37.938 78.992 22.359 7.187-4.026 13.172-9.35 17.847-15.505-27.746 15.254-62.723 4.899-78.584-22.573z" fill="#0182fc"/></g><g><g><path d="m432.604 168.167c21.568 24.893 24.988 60.72 8.52 89.243l-70.486 122.086-45.033-26z" fill="#d8ecfe"/></g><g><path d="m362.604 335.192 83.52-144.661c-3.146-8.017-7.657-15.597-13.52-22.364l-107 185.329 45.033 26 12.176-21.089-16.549-9.555c-4.783-2.761-6.421-8.877-3.66-13.66z" fill="#c4e2ff"/></g><g><path d="m287.125 381.546c-25.196-7.605-53.218 2.774-66.946 26.552-16.144 27.963-6.358 63.781 21.899 79.61 27.81 15.579 63.054 5.246 78.992-22.359l49.568-85.854-45.033-26-16.74 21.327c-5.141 6.549-13.77 9.13-21.74 6.724zm-45.296 39.052c9.098-15.758 29.32-21.177 45.079-12.079 15.758 9.098 21.177 29.32 12.079 45.079s-29.32 21.177-45.079 12.079-21.177-29.32-12.079-45.079z" fill="#0593fc"/></g><g><g><path d="m275.657 487.709c-9.757-5.465-17.308-13.316-22.354-22.401-15.286-9.263-20.454-29.156-11.474-44.709 2.884-4.995 6.888-8.947 11.511-11.732.142-.255.271-.514.418-.768 7.682-13.306 19.842-22.413 33.476-26.524-.036-.011-.073-.018-.11-.029-25.196-7.606-53.218 2.774-66.946 26.552-16.144 27.963-6.358 63.781 21.899 79.61 14.163 7.934 30.25 9.134 44.736 4.769-3.804-1.168-7.543-2.745-11.156-4.768z" fill="#0182fc"/></g></g></g></g></g><g><path d="m126.016 283.128c-27.285 0-49.483 22.198-49.483 49.484 0 27.285 22.198 49.483 49.483 49.483 27.286 0 49.484-22.198 49.484-49.483s-22.198-49.484-49.484-49.484zm0 83.968c-19.015 0-34.483-15.469-34.483-34.483s15.469-34.484 34.483-34.484 34.484 15.47 34.484 34.484-15.47 34.483-34.484 34.483z"/><path d="m126.016 308.128c-13.5 0-24.483 10.983-24.483 24.484 0 13.5 10.983 24.483 24.483 24.483 13.501 0 24.484-10.983 24.484-24.483s-10.983-24.484-24.484-24.484zm0 33.968c-5.229 0-9.483-4.254-9.483-9.483s4.254-9.484 9.483-9.484 9.484 4.255 9.484 9.484-4.255 9.483-9.484 9.483z"/><path d="m426.218 402.025c-9.356 5.401-16.053 14.137-18.855 24.596s-1.37 21.371 4.031 30.728c5.402 9.356 14.137 16.053 24.596 18.855 3.498.938 7.046 1.401 10.57 1.401 7.014 0 13.932-1.837 20.158-5.433 19.34-11.165 25.99-35.983 14.824-55.324-11.167-19.338-35.983-25.991-55.324-14.823zm44.866 41.67c-1.766 6.589-5.979 12.089-11.866 15.487-12.175 7.029-27.803 2.844-34.834-9.334-3.398-5.887-4.298-12.757-2.532-19.346s5.979-12.089 11.866-15.487c4.006-2.312 8.384-3.411 12.707-3.411 8.819 0 17.409 4.573 22.127 12.744 3.399 5.887 4.298 12.758 2.532 19.347z"/><path d="m290.658 402.025c-9.355-5.403-20.271-6.835-30.728-4.031-10.459 2.802-19.194 9.498-24.596 18.854s-6.834 20.27-4.031 30.729c2.802 10.459 9.498 19.194 18.854 24.596 6.228 3.596 13.145 5.433 20.158 5.433 3.524 0 7.073-.464 10.57-1.401 10.459-2.803 19.194-9.499 24.596-18.855 5.402-9.355 6.834-20.269 4.031-30.728s-9.498-19.196-18.854-24.597zm1.834 47.823c-3.398 5.887-8.898 10.102-15.487 11.866-6.589 1.768-13.46.866-19.347-2.532s-10.101-8.898-11.866-15.487-.865-13.46 2.533-19.347 8.898-10.101 15.487-11.866c2.206-.591 4.442-.883 6.663-.883 4.414 0 8.767 1.155 12.683 3.416 5.887 3.398 10.102 8.898 11.866 15.487 1.766 6.589.866 13.459-2.532 19.346z"/><path d="m503.193 404.348c-15.286-26.476-46.373-38.809-75.608-29.981-5.107 1.538-10.474-.1-13.673-4.176v.001l-16.74-21.327c-.036-.046-.079-.083-.115-.128l23.009-39.853c2.071-3.587.842-8.174-2.745-10.245-3.59-2.07-8.175-.843-10.245 2.745l-39.183 67.866-32.043-18.5 97.537-168.939c13.5 21.615 14.27 49.286 1.242 71.849l-10.022 17.359c-2.071 3.587-.842 8.174 2.745 10.245 3.587 2.068 8.174.843 10.245-2.745l10.022-17.359c18.055-31.27 14.299-70.614-9.347-97.904-1.589-1.834-3.97-2.793-6.381-2.555-2.415.23-4.569 1.615-5.782 3.716l-54.99 95.244-7.469-7.468 16.317-16.316c2.382-2.383 3.694-5.551 3.694-8.92s-1.312-6.537-3.694-8.92l-16.452-16.451 16.317-16.316c4.918-4.918 4.918-12.921 0-17.839l-16.452-16.452 16.32-16.319c4.915-4.917 4.915-12.918-.001-17.837l-16.114-16.114 16.654-16.654c4.918-4.918 4.918-12.921 0-17.839l-30.948-30.948c-1.551-1.55-3.619-2.28-5.642-2.188-2.04-.092-4.091.639-5.641 2.188l-19.73 19.729-15.979-15.979c-4.92-4.918-12.92-4.918-17.84 0l-16.451 16.452-16.316-16.317c-1.071-1.07-2.292-1.895-3.59-2.498v-14.597c0-6.893-5.607-12.5-12.5-12.5h-183.135c-6.893 0-12.5 5.607-12.5 12.5v58.538h-27.467c-6.893 0-12.5 5.607-12.5 12.5v305c0 6.893 5.607 12.5 12.5 12.5h19.5v76.081c0 4.122 2.319 7.767 6.054 9.513 1.441.673 2.964 1.004 4.474 1.004 2.4 0 4.767-.838 6.708-2.461l32.987-27.583c1.705-1.425 2.689-3.532 2.689-5.754v-44.242c12.424 6.065 26.373 9.474 41.104 9.474 19.184 0 37.307-5.854 52.439-16.032h32.055c-6.131 13.78-7.314 29.112-3.258 43.867 4.681 17.023 15.747 31.154 31.16 39.788 9.917 5.556 20.732 8.191 31.459 8.19 22.909-.002 45.391-12.032 57.694-33.342l30.873-53.474 30.873 53.474c12.305 21.312 34.784 33.342 57.695 33.342 10.725 0 21.544-2.636 31.458-8.19 15.414-8.634 26.48-22.765 31.16-39.788 4.681-17.026 2.397-34.824-6.431-50.115zm-174.777-70.723-46.168-79.966c-13.026-22.562-12.257-50.233 1.242-71.849l66.288 114.814zm-69.326-265.859c4.918 4.916 12.919 4.915 17.837-.001l16.452-16.453 15.979 15.979c2.383 2.382 5.551 3.694 8.92 3.694 3.37 0 6.538-1.312 8.918-3.694l16.453-16.452 24.295 24.296-16.654 16.655c-4.918 4.918-4.918 12.921 0 17.839l16.114 16.114-16.317 16.316c-2.382 2.383-3.694 5.551-3.694 8.92 0 3.368 1.312 6.536 3.694 8.919l16.452 16.451-16.316 16.316c-4.918 4.919-4.918 12.921 0 17.84l16.452 16.451-16.317 16.316c-4.918 4.919-4.918 12.921.001 17.84l11.997 11.996-4.917 8.516-28.439-49.254v-139.274c0-6.893-5.607-12.5-12.5-12.5h-69.398v-23.82zm-204.123-43.208h38.145l-38.145 38.145zm0 59.358 59.358-59.358h28.149l-87.508 87.507v-28.149zm0 49.363 108.721-108.721h31.112l-139.833 139.833zm0 52.327 161.048-161.048h17.087v17.087l-99.365 99.365c-2.929 2.93-2.929 7.678 0 10.607 1.465 1.464 3.385 2.196 5.304 2.196s3.839-.732 5.304-2.196l88.758-88.758v31.111l-108.723 108.723h-31.111l26.326-26.326c2.929-2.93 2.929-7.678 0-10.607-2.93-2.928-7.678-2.928-10.607 0l-36.934 36.934h-17.087zm118.776 17.087h-28.149l87.508-87.508v28.149zm59.359-38.145v38.144h-38.145zm-163.19 293.343-22.912 19.158v-93.544c6.121 9.47 13.894 17.776 22.912 24.503zm-22.912-125.278c0-43.57 35.446-79.017 79.016-79.017 19.095 0 37.524 6.902 51.895 19.436 14.235 12.415 23.567 29.488 26.277 48.073.599 4.1 4.418 6.93 8.504 6.34 4.099-.598 6.938-4.405 6.34-8.504-3.228-22.127-14.329-42.446-31.262-57.213-17.103-14.917-39.034-23.132-61.754-23.132-51.841 0-94.016 42.176-94.016 94.017v62.983h-17v-300h24.967v109.597c0 6.893 5.607 12.5 12.5 12.5h183.135c6.893 0 12.5-5.607 12.5-12.5v-109.597h66.898v110.793l-24.233-41.972c-1.213-2.101-3.367-3.485-5.782-3.716-2.408-.236-4.792.722-6.381 2.555-23.645 27.289-27.4 66.634-9.347 97.904l45.743 79.228v14.47l-12.036 15.333c-3.2 4.076-8.565 5.712-13.673 4.175-25.783-7.783-53.01.901-69.567 21.229h-23.948c9.758-10.785 17.112-23.906 21.052-38.635 1.07-4.002-1.306-8.113-5.307-9.184-4-1.071-8.113 1.307-9.184 5.307-9.221 34.47-40.606 58.544-76.323 58.544-43.568.001-79.014-35.445-79.014-79.014zm267.575 128.987c-13.981 24.218-44.856 32.995-68.832 19.565-11.886-6.658-20.419-17.554-24.027-30.678-3.609-13.128-1.849-26.851 4.958-38.64 9.239-16.001 25.957-25.301 43.604-25.301 4.867 0 9.809.709 14.68 2.179 11.062 3.339 22.764-.3 29.806-9.272l12.725-16.21 32.904 18.997zm180.586-11.112c-3.607 13.124-12.141 24.02-24.026 30.678-23.973 13.429-54.852 4.652-68.833-19.565l-35.203-60.974 21.229-36.769 1.061-.613 12.725 16.21v.001c7.043 8.971 18.745 12.611 29.806 9.271 22.533-6.801 46.497 2.708 58.284 23.122 6.805 11.788 8.566 25.511 4.957 38.639z"/><circle cx="361.938" cy="339.666" r="7.5"/></g></g></svg>