<?xml version="1.0" encoding="UTF-8"?>
<!-- Generator: Adobe Illustrator 27.2.0, SVG Export Plug-In . SVG Version: 6.00 Build 0)  -->
<svg xmlns="http://www.w3.org/2000/svg" xmlns:xlink="http://www.w3.org/1999/xlink" version="1.1" id="Capa_1" x="0px" y="0px" viewBox="0 0 512 512" style="enable-background:new 0 0 512 512;" xml:space="preserve" width="512" height="512">
<g>
	<g>
		<rect y="401.552" width="511.939" height="0.999"/>
	</g>
	<g>
		<g>
			<g>
				<g>
					<rect x="144.172" y="0.514" style="fill:#FFB200;" width="358.64" height="246.243"/>
					<path d="M503.311,247.257h-359.64V0.015h359.64V247.257z M144.672,246.258h357.64V1.014h-357.64V246.258z"/>
				</g>
				<g>
					<rect x="160.361" y="15.713" style="fill:#008B96;" width="326.261" height="225.846"/>
					<path d="M487.122,242.059H159.861V15.213h327.261V242.059z M160.861,241.059h325.261V16.212H160.861V241.059z"/>
				</g>
				<g>
					<rect x="137.066" y="240.974" style="fill:#FFB200;" width="374.434" height="14.298"/>
					<path d="M512,255.771H136.566v-15.297H512V255.771z M137.566,254.772H511v-13.298H137.566V254.772z"/>
				</g>
				<g>
					<path style="fill:#FFFFFF;" d="M470.727,241.036h-33.713c-1.688,0-3.057-1.369-3.057-3.057v-2.195       c0-1.688,1.369-3.057,3.057-3.057h33.713c1.688,0,3.057,1.369,3.057,3.057v2.195       C473.784,239.668,472.416,241.036,470.727,241.036z"/>
					<path d="M470.728,241.536h-33.714c-1.961,0-3.557-1.594-3.557-3.554v-2.199c0-1.96,1.596-3.554,3.557-3.554h33.714       c1.961,0,3.557,1.594,3.557,3.554v2.199C474.284,239.942,472.689,241.536,470.728,241.536z M437.014,233.228       c-1.41,0-2.557,1.146-2.557,2.555v2.199c0,1.409,1.146,2.555,2.557,2.555h33.714c1.41,0,2.557-1.146,2.557-2.555v-2.199       c0-1.409-1.147-2.555-2.557-2.555H437.014z"/>
				</g>
			</g>
			<g>
				<g>
					<g>
						<path style="fill:#FFFFFF;" d="M229.2,133.298c-0.307,0.428-0.459,0.825-0.459,1.19c0,0.886,0.832,1.626,2.497,2.22        c1.665,0.596,3.688,0.969,6.07,1.122c0.396,4.394,0.824,6.897,1.283,7.506c-0.582,1.13-2.185,2.267-4.811,3.41        c-2.626,1.145-5.589,1.717-8.887,1.717c-4.368,0-8.108-0.938-11.224-2.815c-3.114-1.876-4.672-4.295-4.672-7.255        c0-0.793,0.076-1.495,0.23-2.106l9.757-43.575c2.444-1.557,5.361-2.777,8.75-3.662c3.391-0.885,6.919-1.327,10.583-1.327        c5.254,0,9.742,0.885,13.469,2.655c4.246,2.014,6.827,4.928,7.743,8.743l10.445,43.163c-3.177,4.121-8.354,6.18-15.531,6.18        c-3.481,0-6.429-0.625-8.842-1.876c-2.413-1.252-3.817-3.036-4.213-5.355l-1.008-5.586c1.833-0.029,3.604-0.381,5.314-1.053        c1.71-0.67,2.566-1.373,2.566-2.106c0-0.488-0.2-0.883-0.596-1.19c-1.16,0.825-2.581,1.45-4.26,1.878        c-1.681,0.426-3.237,0.639-4.672,0.639C234.604,135.816,231.428,134.978,229.2,133.298z M239.415,119.933        c0.519,0,0.962-0.107,1.328-0.32c-0.795-4.638-1.328-7.384-1.603-8.239c-0.336-0.885-0.84-1.327-1.513-1.327        c-0.305,0-0.672,0.09-1.099,0.275l1.741,9.246C238.513,119.812,238.895,119.933,239.415,119.933z"/>
						<path d="M254.441,150.963c-3.548,0-6.601-0.65-9.073-1.932c-2.549-1.322-4.054-3.245-4.476-5.714l-1.112-6.16l0.589-0.009        c1.762-0.028,3.491-0.371,5.14-1.018c2.03-0.796,2.249-1.412,2.249-1.641c0-0.209-0.052-0.387-0.159-0.544        c-1.137,0.74-2.505,1.316-4.073,1.716c-1.715,0.435-3.328,0.655-4.797,0.655c-3.947,0-7.098-0.772-9.375-2.296        c-0.074,0.168-0.112,0.326-0.112,0.469c0,0.807,1.178,1.397,2.165,1.75c1.61,0.576,3.606,0.944,5.934,1.094l0.428,0.027        l0.038,0.426c0.523,5.821,1.003,7.009,1.185,7.25l0.188,0.25l-0.143,0.279c-0.642,1.247-2.296,2.438-5.056,3.641        c-2.676,1.167-5.733,1.758-9.088,1.758c-4.438,0-8.301-0.971-11.481-2.886c-3.262-1.965-4.915-4.55-4.915-7.683        c0-0.832,0.082-1.581,0.244-2.227l9.8-43.764l0.174-0.111c2.476-1.577,5.468-2.831,8.893-3.725        c3.416-0.891,7.018-1.344,10.709-1.344c5.303,0,9.906,0.909,13.684,2.703c4.368,2.072,7.064,5.126,8.015,9.077l10.501,43.395        l-0.145,0.19C267.107,148.818,261.748,150.963,254.441,150.963z M240.971,138.126l0.906,5.018        c0.371,2.179,1.664,3.813,3.951,5c2.329,1.208,5.227,1.82,8.612,1.82c6.87,0,11.911-1.951,14.988-5.798l-10.389-42.928        c-0.876-3.644-3.39-6.473-7.472-8.409c-3.642-1.729-8.101-2.607-13.254-2.607c-3.605,0-7.123,0.441-10.457,1.311        c-3.243,0.847-6.079,2.021-8.434,3.491l-9.711,43.373c-0.146,0.579-0.218,1.247-0.218,1.996c0,2.797,1.449,5.031,4.431,6.827        c3.022,1.82,6.712,2.743,10.966,2.743c3.217,0,6.14-0.563,8.687-1.675c2.319-1.01,3.809-2.002,4.434-2.954        c-0.326-0.684-0.727-2.33-1.164-7.036c-2.24-0.172-4.183-0.548-5.78-1.12c-1.876-0.67-2.828-1.575-2.828-2.691        c0-0.473,0.186-0.971,0.553-1.482l0.299-0.416l0.408,0.308c2.128,1.603,5.232,2.416,9.227,2.416        c1.386,0,2.917-0.21,4.55-0.624c1.614-0.411,2.991-1.017,4.093-1.801l0.303-0.215l0.294,0.227        c0.517,0.401,0.79,0.949,0.79,1.586c0,0.969-0.943,1.81-2.884,2.571C244.297,137.679,242.651,138.037,240.971,138.126z         M239.415,120.432c-0.656,0-1.16-0.172-1.5-0.511l-0.109-0.109l-1.843-9.791l0.367-0.158c0.493-0.212,0.917-0.316,1.297-0.316        c0.617,0,1.463,0.286,1.98,1.65c0.29,0.9,0.82,3.617,1.629,8.331l0.059,0.342l-0.301,0.174        C240.552,120.302,240.021,120.432,239.415,120.432z M238.726,119.294c0.191,0.113,0.472,0.139,0.689,0.139        c0.287,0,0.545-0.038,0.771-0.114c-0.754-4.375-1.266-6.995-1.521-7.791c-0.334-0.877-0.752-0.981-1.037-0.981        c-0.151,0-0.328,0.032-0.529,0.095L238.726,119.294z"/>
					</g>
				</g>
				<g>
					<g>
						<path style="fill:#FFFFFF;" d="M308.853,96.864c0-0.702,0.58-1.495,1.741-2.38c2.444-1.862,6.749-3.31,12.919-4.349        c3.207-0.518,6.734-0.778,10.583-0.778c9.162,0,16.095,1.77,20.798,5.309c4.123,3.113,6.185,7.202,6.185,12.268        c0,1.831-0.322,3.624-0.962,5.379c-0.642,1.755-1.558,3.075-2.749,3.959c-1.619-0.825-3.177-1.237-4.674-1.237        c-0.703,0-1.236,0.137-1.603,0.412c-0.365,0.274-0.549,0.778-0.549,1.511c4.49,0.183,7.987,1.8,10.49,4.851        c2.23,2.777,3.345,6.227,3.345,10.346c0,6.378-2.673,11.016-8.018,13.915c-5.009,2.716-12.553,4.074-22.631,4.074        c-7.054,0-12.231-0.221-15.53-0.664c-3.298-0.442-5.681-1.487-7.147-3.136c-1.466-1.647-2.2-4.15-2.2-7.507V96.864z         M333.729,114.486c0.121,0.092,0.474,0.137,1.054,0.137s1.023-0.229,1.328-0.686c0.306-0.459,0.459-1.205,0.459-2.243v-0.274        c0-1.098-0.131-1.884-0.389-2.358c-0.26-0.473-0.688-0.709-1.283-0.709c-0.596,0-1,0.061-1.214,0.182        c0.029,0.153,0.045,0.412,0.045,0.778V114.486z M333.729,131.743c0.121,0.09,0.474,0.137,1.054,0.137s1.023-0.199,1.328-0.596        c0.306-0.396,0.459-1.098,0.459-2.106v-0.869c0-1.129-0.131-1.938-0.389-2.427c-0.26-0.488-0.688-0.731-1.283-0.731        c-0.596,0-1,0.061-1.214,0.182c0.029,0.153,0.045,0.412,0.045,0.778V131.743z"/>
						<path d="M333.729,150.643c-7.042,0-12.289-0.225-15.596-0.668c-3.406-0.457-5.914-1.567-7.455-3.299        c-1.543-1.734-2.325-4.371-2.325-7.839V96.864c0-0.874,0.634-1.783,1.937-2.777c2.532-1.929,6.831-3.383,13.141-4.445        c3.225-0.521,6.812-0.785,10.666-0.785c9.23,0,16.329,1.82,21.099,5.41c4.236,3.198,6.384,7.46,6.384,12.667        c0,1.878-0.333,3.745-0.991,5.55c-0.672,1.839-1.654,3.249-2.92,4.19l-0.249,0.185l-0.276-0.141        c-1.541-0.785-3.037-1.182-4.447-1.182c-0.588,0-1.027,0.105-1.304,0.312c-0.179,0.134-0.271,0.38-0.314,0.64        c4.375,0.289,7.852,1.971,10.342,5.006c2.296,2.859,3.459,6.446,3.459,10.663c0,6.545-2.785,11.375-8.279,14.354        C351.538,149.253,343.844,150.643,333.729,150.643z M334.096,89.856c-3.801,0-7.334,0.26-10.503,0.772        c-6.058,1.019-10.33,2.45-12.697,4.253c-1.275,0.973-1.543,1.615-1.543,1.983v41.973c0,3.215,0.697,5.63,2.073,7.176        c1.377,1.548,3.678,2.549,6.84,2.973c3.263,0.437,8.466,0.659,15.463,0.659c9.947,0,17.48-1.35,22.393-4.014        c5.219-2.83,7.756-7.238,7.756-13.475c0-3.984-1.089-7.36-3.235-10.033c-2.395-2.918-5.801-4.488-10.121-4.664l-0.48-0.02        v-0.48c0-0.895,0.252-1.537,0.749-1.911c0.461-0.344,1.084-0.512,1.904-0.512c1.479,0,3.03,0.386,4.613,1.149        c0.993-0.821,1.78-2.011,2.34-3.543c0.617-1.694,0.931-3.447,0.931-5.208c0-4.877-2.014-8.87-5.986-11.869        C350.001,91.609,343.105,89.856,334.096,89.856z M334.783,132.38c-0.859,0-1.162-0.095-1.353-0.236l-0.201-0.15v-5.882        c0-0.426-0.022-0.613-0.036-0.687l-0.065-0.349l0.31-0.176c0.297-0.169,0.762-0.248,1.46-0.248        c0.781,0,1.377,0.344,1.725,0.996c0.302,0.571,0.448,1.441,0.448,2.662v0.869c0,1.132-0.185,1.92-0.563,2.411        C336.111,132.106,335.514,132.38,334.783,132.38z M333.729,131.743h0.01H333.729z M334.229,131.36        c0.121,0.012,0.298,0.021,0.554,0.021c0.426,0,0.722-0.127,0.932-0.4c0.162-0.211,0.355-0.693,0.355-1.802v-0.869        c0-1.295-0.181-1.907-0.332-2.194c-0.171-0.321-0.431-0.465-0.841-0.465c-0.312,0-0.528,0.018-0.677,0.041        c0.006,0.123,0.009,0.263,0.009,0.42V131.36z M334.783,115.123c-0.865,0-1.168-0.096-1.356-0.24l-0.197-0.15v-5.419        c0-0.426-0.023-0.614-0.037-0.688l-0.064-0.349l0.309-0.176c0.297-0.169,0.762-0.248,1.46-0.248        c0.778,0,1.374,0.335,1.722,0.968c0.304,0.555,0.451,1.405,0.451,2.598v0.274c0,1.148-0.178,1.972-0.543,2.52        C336.13,114.809,335.527,115.123,334.783,115.123z M333.729,114.486h0.01H333.729z M334.229,114.103        c0.121,0.011,0.298,0.021,0.554,0.021c0.411,0,0.701-0.147,0.912-0.463c0.171-0.257,0.375-0.806,0.375-1.966v-0.274        c0-1.254-0.179-1.844-0.328-2.118c-0.171-0.31-0.431-0.449-0.845-0.449c-0.312,0-0.528,0.018-0.677,0.04        c0.006,0.124,0.009,0.264,0.009,0.421V114.103z"/>
					</g>
				</g>
				<g>
					<g>
						<path style="fill:#FFFFFF;" d="M431.078,131.422c0.305,0,0.58-0.076,0.826-0.229v-4.164c2.077-1.403,4.986-2.548,8.727-3.433        c3.74-0.885,7.383-1.327,10.925-1.327c1.619,1.647,2.97,4.113,4.055,7.392c1.083,3.28,1.656,6.248,1.718,8.902        c-0.611,1.221-1.642,2.534-3.093,3.937c-1.45,1.403-3.198,2.7-5.244,3.89c-5.07,2.992-10.888,4.486-17.454,4.486        c-9.408,0-16.813-2.731-22.219-8.193c-5.589-5.523-8.383-13.174-8.383-22.954c0-9.781,3.053-17.462,9.162-23.048        c2.688-2.501,5.818-4.386,9.392-5.652s7.329-1.901,11.269-1.901c7.696,0,14.002,1.862,18.92,5.585        c4.916,3.722,7.376,8.315,7.376,13.777c0,4.119-1.269,7.163-3.803,9.132c-2.536,1.968-5.972,2.952-10.308,2.952        c-2.382,0-4.781-0.586-7.192-1.762c-2.413-1.174-3.848-2.282-4.307-3.318c0-2.503,0.047-4.47,0.137-5.905        c-0.061-0.031-0.168-0.045-0.32-0.045h-0.322c-0.457,0-0.816,0.129-1.076,0.389c-0.26,0.258-0.488,0.801-0.687,1.625        c-0.199,0.824-0.297,3.066-0.297,6.729C428.879,127.044,429.612,131.422,431.078,131.422z"/>
						<path d="M431.536,151.375c-9.501,0-17.097-2.807-22.574-8.342c-5.657-5.59-8.527-13.433-8.527-23.306        c0-9.881,3.138-17.759,9.324-23.416c2.723-2.534,5.941-4.471,9.562-5.754c3.613-1.28,7.461-1.93,11.435-1.93        c7.771,0,14.239,1.913,19.223,5.687c5.026,3.805,7.574,8.574,7.574,14.175c0,4.261-1.345,7.466-3.996,9.526        c-2.613,2.029-6.185,3.057-10.614,3.057c-2.452,0-4.945-0.61-7.412-1.812c-2.543-1.237-4.029-2.403-4.544-3.565l-0.043-0.202        c0-2.218,0.037-4.049,0.11-5.451h-0.115c-0.322,0-0.56,0.08-0.723,0.243c-0.107,0.107-0.322,0.429-0.554,1.389        c-0.189,0.779-0.284,3.003-0.284,6.611c0,12.027,1.415,12.637,1.698,12.637c0.117,0,0.225-0.015,0.326-0.046v-4.114        l0.22-0.148c2.118-1.432,5.11-2.611,8.892-3.505c3.76-0.89,7.474-1.341,11.04-1.341h0.21l0.147,0.15        c1.665,1.694,3.069,4.246,4.173,7.586c1.095,3.313,1.681,6.357,1.743,9.047l0.003,0.124l-0.056,0.111        c-0.633,1.266-1.707,2.636-3.192,4.073c-1.473,1.425-3.27,2.758-5.34,3.962C444.124,149.842,438.166,151.375,431.536,151.375z         M430.757,89.627c-3.86,0-7.596,0.63-11.102,1.872c-3.491,1.237-6.593,3.103-9.218,5.546        c-5.975,5.463-9.003,13.094-9.003,22.683c0,9.596,2.77,17.2,8.234,22.599c5.287,5.342,12.643,8.049,21.867,8.049        c6.448,0,12.235-1.486,17.201-4.417c2.003-1.165,3.735-2.45,5.15-3.818c1.36-1.315,2.348-2.556,2.938-3.692        c-0.075-2.561-0.644-5.464-1.689-8.632c-1.022-3.093-2.298-5.464-3.792-7.049c-3.424,0.018-6.988,0.459-10.598,1.313        c-3.533,0.836-6.338,1.917-8.343,3.216v4.173l-0.235,0.146c-0.324,0.202-0.691,0.305-1.091,0.305        c-1.334,0-2.698-1.62-2.698-13.636c0-3.739,0.102-5.979,0.312-6.846c0.228-0.939,0.488-1.53,0.82-1.861        c0.355-0.355,0.836-0.535,1.429-0.535h0.322c0.241,0,0.409,0.03,0.544,0.098l0.296,0.148l-0.021,0.33        c-0.089,1.412-0.136,3.35-0.137,5.761c0.328,0.642,1.303,1.657,4.025,2.981c2.329,1.136,4.675,1.711,6.974,1.711        c4.203,0,7.567-0.958,10.001-2.847c2.395-1.86,3.609-4.8,3.609-8.737c0-5.272-2.415-9.773-7.178-13.379        C444.57,91.472,438.306,89.627,430.757,89.627z"/>
					</g>
				</g>
			</g>
		</g>
		<g>
			<g>
				<g>
					<g>
						<path d="M94.441,362.288c-9.408,34.893-16.005,70.78-11.319,106.857c1.406,10.826,19.34,10.961,17.916,0        c-4.505-34.684,1.633-68.738,10.679-102.29C114.605,356.145,97.329,351.576,94.441,362.288z"/>
					</g>
					<g>
						<path d="M104.255,491.58c-0.355,2.702-3.63,14.951-6.561,14.78c-2.881-0.168-6.624-11.584-5.927-12.136        c-5.068,3.651-45.419,22.969-52.729,15.65c-6.296-6.322,20.011-18.844,21.888-26.236c2.503-9.858,7.326-21.76,17.135-26.227        c2.68-1.22,5.691-1.544,8.58-1.348c6.276,0.426,12.978,3.406,15.906,8.785C106.421,471.963,105.256,483.962,104.255,491.58z"/>
						<path d="M44.686,512c-2.666,0-4.761-0.53-6.002-1.773c-0.801-0.804-1.175-1.745-1.11-2.798        c0.228-3.756,5.932-8.242,11.972-12.991c4.989-3.924,10.149-7.982,10.896-10.922c3.549-13.978,9.407-22.913,17.412-26.558        c2.523-1.149,5.486-1.618,8.822-1.392c7.183,0.488,13.585,4.038,16.311,9.045c3.838,7.052,2.845,18.807,1.764,27.036        c-0.164,1.247-3.268,15.216-6.999,15.216c-0.029,0-0.058,0-0.087-0.002c-2.875-0.168-5.48-8.157-5.769-9.068        c-0.385-1.219-0.581-2.049-0.663-2.62C85.012,499,57.883,511.997,44.686,512z M85.079,456.509        c-2.544,0-4.829,0.454-6.811,1.357c-7.715,3.513-13.387,12.225-16.857,25.895c-0.83,3.27-5.89,7.249-11.247,11.462        c-5.601,4.404-11.392,8.958-11.592,12.266c-0.047,0.767,0.222,1.432,0.82,2.033c6.77,6.781,46.341-11.567,52.083-15.703        l0.603,0.797c0.076-0.06,0.106-0.131,0.111-0.153c-0.178,0.75,1.642,7.011,3.947,10.105c0.813,1.092,1.344,1.279,1.587,1.293        c0.013,0,0.026,0.001,0.039,0.001c2.221,0.001,5.544-10.899,5.996-14.347l0,0c1.063-8.091,2.049-19.633-1.65-26.429        c-2.565-4.714-8.649-8.06-15.5-8.525C86.09,456.527,85.579,456.509,85.079,456.509z"/>
					</g>
				</g>
				<g>
					<g>
						<path d="M164.739,362.288c9.408,34.893,16.005,70.78,11.319,106.857c-1.406,10.826-19.34,10.961-17.917,0        c4.505-34.684-1.633-68.738-10.679-102.29C144.575,356.145,161.851,351.576,164.739,362.288z"/>
					</g>
					<g>
						<path d="M156.632,464.848c2.928-5.379,9.63-8.359,15.906-8.785c2.889-0.196,5.901,0.128,8.58,1.348        c9.81,4.467,14.633,16.369,17.135,26.227c1.877,7.392,28.185,19.914,21.888,26.236c-7.31,7.32-47.662-11.998-52.729-15.65        c0.697,0.552-3.046,11.967-5.927,12.136c-2.931,0.171-6.206-12.078-6.561-14.78        C153.924,483.962,152.759,471.963,156.632,464.848z"/>
						<path d="M214.492,512c-13.196,0.001-40.324-12.999-46.545-16.829c-0.083,0.573-0.28,1.406-0.667,2.631        c-0.288,0.909-2.893,8.889-5.765,9.057c-0.029,0.002-0.059,0.002-0.087,0.002c-3.728,0.001-6.836-13.969-7-15.216        c-1.081-8.228-2.074-19.983,1.765-27.036l0,0c2.726-5.007,9.128-8.557,16.311-9.045c3.33-0.225,6.298,0.243,8.821,1.392        c8.006,3.645,13.864,12.581,17.413,26.558c0.747,2.941,5.907,6.998,10.896,10.922c6.04,4.749,11.744,9.235,11.972,12.991        c0.064,1.053-0.31,1.994-1.109,2.797C219.255,511.469,217.157,512,214.492,512z M167.705,493.819        c5.74,4.136,45.304,22.486,52.084,15.702c0.598-0.601,0.866-1.266,0.819-2.033c-0.2-3.308-5.991-7.862-11.592-12.266        c-5.357-4.213-10.417-8.192-11.247-11.462c-3.471-13.669-9.143-22.382-16.858-25.895c-2.37-1.079-5.176-1.516-8.339-1.304        c-6.851,0.465-12.935,3.811-15.5,8.525l0,0c-3.7,6.797-2.715,18.339-1.651,26.429c0.453,3.447,3.778,14.347,5.997,14.347        c0.014,0,0.026,0,0.039-0.001c0.243-0.014,0.772-0.201,1.586-1.292c2.306-3.093,4.125-9.355,3.948-10.106        c0.005,0.022,0.035,0.092,0.111,0.152L167.705,493.819z M156.633,464.848h0.01H156.633z"/>
					</g>
				</g>
			</g>
			<g>
				<g>
					<g>
						<path style="fill:#FFB200;" d="M195.05,362.94l-125.53-2.844L66.323,74.957l36.13-43.626l25.26-30.549        c8.901,10.251,17.803,20.481,26.704,30.753c0.024,0.001,0.024,0.001,0.024,0.001l37.195,42.884L195.05,362.94z"/>
						<path d="M195.555,363.451l-126.53-2.867l-0.006-0.483L65.82,74.779l0.117-0.141l36.131-43.626l25.635-31.004l9.219,10.611        c5.909,6.8,11.818,13.601,17.729,20.42l0.168,0.167l37.315,43.022l0.002,0.183L195.555,363.451z M70.014,359.607l124.53,2.821        l-3.406-287.821l-37.098-42.746c-5.958-6.875-11.915-13.73-17.872-20.586l-8.444-9.72l-24.884,30.094L66.824,75.134        L70.014,359.607z"/>
					</g>
					<g>
						<g>
							<polygon style="fill:#FFFFFF;" points="66.325,74.974 87.559,97.457 110.064,73.657 130.778,101.082 151.551,74.101          171.602,96.009 191.628,74.413 127.72,0.774        "/>
							<path d="M130.774,101.906L110.02,74.43L87.559,98.185L65.658,74.995L127.711,0l64.588,74.424L171.6,96.746l-20.017-21.869         L130.774,101.906z M110.106,72.884l20.676,27.373l20.735-26.932l20.087,21.946l19.352-20.87L127.728,1.547L66.992,74.951         l20.567,21.777L110.106,72.884z"/>
						</g>
						<g>
							<path d="M102.44,31.326c1.19,1.296,9.574,10.112,24.293,10.789c16.695,0.768,26.795-9.613,27.692-10.568         c-8.902-10.257-17.804-20.515-26.706-30.772L102.44,31.326z"/>
							<path d="M128.497,42.654c-0.588,0-1.182-0.013-1.787-0.041c-14.487-0.665-23.065-9.238-24.638-10.95l-0.295-0.321L127.711,0         l27.388,31.558l-0.309,0.328C153.723,33.024,144.215,42.654,128.497,42.654z M103.106,31.304         c2.123,2.201,10.298,9.697,23.65,10.311c15.297,0.706,24.939-8.03,26.991-10.088l-26.02-29.98L103.106,31.304z"/>
						</g>
					</g>
					<g>
						<path d="M91.554,360.542c-0.272,0-0.496-0.219-0.5-0.492L87.263,96.921c-0.004-0.276,0.217-0.503,0.493-0.507        c0.284,0.043,0.503,0.217,0.507,0.492l3.791,263.129c0.004,0.276-0.217,0.503-0.493,0.507        C91.559,360.542,91.557,360.542,91.554,360.542z"/>
					</g>
					<g>
						<path d="M130.862,361.335c-0.275,0-0.5-0.224-0.5-0.499l-0.347-261.018c0-0.276,0.224-0.5,0.499-0.5c0.001,0,0.001,0,0.001,0        c0.275,0,0.5,0.223,0.5,0.499l0.347,261.018c0,0.276-0.224,0.5-0.499,0.5C130.862,361.335,130.862,361.335,130.862,361.335z"/>
					</g>
					<g>
						<path d="M171.442,363.029C171.442,363.029,171.442,363.029,171.442,363.029c-0.276,0-0.5-0.224-0.5-0.5l0.371-267.259        c0-0.276,0.225-0.499,0.5-0.499c0,0,0,0,0.001,0c0.275,0,0.499,0.224,0.499,0.5l-0.371,267.259        C171.942,362.805,171.717,363.029,171.442,363.029z"/>
					</g>
				</g>
				<g>
					<g>
						<g>
							<path style="fill:#FF7B00;" d="M69.045,353.447c0,0-13.147,61.49,60.267,64.649c72.587,3.124,66.044-63.969,66.044-63.969         L69.045,353.447z"/>
							<path d="M134.143,418.702c-1.591,0-3.206-0.036-4.853-0.106c-23.78-1.023-41.029-8.245-51.268-21.464         c-14.587-18.832-9.519-43.541-9.467-43.789l0.085-0.397l0.407,0.002l126.762,0.682l0.044,0.449         c0.027,0.285,2.578,28.794-15.371,47.725C169.842,413.026,154.266,418.702,134.143,418.702z M69.458,353.949         c-0.579,3.23-3.938,25.417,9.361,42.578c10.052,12.971,27.047,20.06,50.514,21.07c22.185,0.953,39.145-4.589,50.418-16.475         c16.411-17.302,15.385-42.809,15.141-46.498L69.458,353.949z"/>
						</g>
						<g>
							<g>
								<path style="fill:#FFFFFF;" d="M113.661,402.42c-14.323-1.53-28.256-13.114-29.565-28.284          c-0.276-3.196-5.106-2.766-4.832,0.422c1.487,17.232,17.382,30.996,33.764,32.746          C116.149,407.637,116.799,402.755,113.661,402.42z"/>
							</g>
							<g>
								<path style="fill:#FFFFFF;" d="M122.038,402.624c-3.109,0.271-2.438,5.22,0.676,4.948          C125.823,407.3,125.152,402.352,122.038,402.624z"/>
							</g>
						</g>
					</g>
					<g>
						<polygon points="69.199,336.654 195.239,339.185 195.564,355.214 69.225,353.525       "/>
						<path d="M196.075,355.721l-127.348-1.703l-0.029-17.874l127.032,2.551L196.075,355.721z M69.725,353.032l125.329,1.676        l-0.305-15.034l-125.049-2.511L69.725,353.032z"/>
					</g>
				</g>
			</g>
			<g>
				<g>
					<g>
						<g>
							<g>
								<path d="M62.652,159.039c-9.836,0-16.292-7.467-16.358-7.546c-0.179-0.21-0.153-0.525,0.058-0.704          c0.21-0.178,0.526-0.152,0.704,0.057c0.068,0.08,6.843,7.879,16.948,7.144c0.239-0.018,0.515,0.186,0.535,0.462          c0.02,0.275-0.188,0.515-0.463,0.535C63.595,159.022,63.119,159.039,62.652,159.039z"/>
							</g>
							<g>
								<path d="M65.903,137.258c-0.022,0-0.044-0.001-0.065-0.004c-11.166-1.46-13.587-12.15-13.61-12.258          c-0.058-0.27,0.114-0.535,0.384-0.593c0.272-0.057,0.536,0.114,0.595,0.383c0.089,0.412,2.308,10.111,12.761,11.478          c0.274,0.036,0.467,0.286,0.432,0.56C66.365,137.075,66.15,137.258,65.903,137.258z"/>
							</g>
							<g>
								<path d="M64.017,148.423c-0.013,0-0.026-0.001-0.039-0.001c-11.238-0.852-17.03-10.653-17.087-10.752          c-0.139-0.239-0.057-0.544,0.183-0.682c0.234-0.138,0.544-0.058,0.683,0.182c0.055,0.095,5.596,9.444,16.298,10.256          c0.275,0.021,0.482,0.261,0.461,0.536C64.494,148.223,64.275,148.423,64.017,148.423z"/>
							</g>
						</g>
						<g>
							<path style="fill:#FFFFFF;" d="M115.103,155.506c0.032,8.168-1.026,15.846-2.886,22.575         c-6.881-2.931-15.69-4.699-25.214-4.683c-8.78,0.002-16.788,1.507-23.157,4.019c-2.162-7.252-3.404-15.533-3.429-24.272         c-0.06-27.717,12.117-49.643,27.219-49.005C102.742,104.798,115.047,127.81,115.103,155.506z"/>
							<path d="M112.547,178.764l-0.526-0.224c-7.032-2.995-15.867-4.643-24.892-4.643c-0.042,0-0.083,0-0.125,0         c-8.427,0.002-16.371,1.379-22.975,3.983l-0.507,0.2l-0.156-0.522c-2.231-7.486-3.425-15.928-3.449-24.413         c-0.04-18.52,5.448-35.316,14.322-43.834c4.073-3.909,8.693-5.877,13.419-5.672c15.353,0.67,27.889,23.936,27.944,51.864         v-0.001c0.031,7.874-0.973,15.727-2.903,22.71L112.547,178.764z M87.13,172.898c8.931,0,17.689,1.595,24.754,4.502         c1.81-6.758,2.749-14.314,2.719-21.892v-0.001c-0.055-27.402-12.162-50.221-26.987-50.868         c-4.442-0.184-8.812,1.679-12.683,5.393c-8.684,8.335-14.054,24.854-14.015,43.111c0.023,8.194,1.148,16.344,3.255,23.61         c6.616-2.521,14.495-3.853,22.831-3.855C87.045,172.898,87.088,172.898,87.13,172.898z"/>
						</g>
						<g>
							<path d="M86.093,114.922c-7.501-0.673-13.497,9.526-15.55,24.53l18.857,6.986l-19.621,4.474         c-0.002,1.233,0.011,2.478,0.058,3.745c0.272,7.201,1.322,14.054,2.939,20.079c6.242-1.41,12.332-1.622,15.529-1.329         c9.789,0.897,8.5,0.756,15.978,2.036c1.012-5.5,1.424-10.821,1.164-17.552C104.6,135.071,95.929,115.821,86.093,114.922z"/>
							<path d="M104.686,176.02l-2.373-0.407c-5.21-0.897-5.21-0.897-13.025-1.612l-1.028-0.094         c-3.378-0.31-9.439-0.022-15.373,1.318l-0.469,0.106l-0.125-0.464c-1.669-6.216-2.691-13.198-2.956-20.19         c-0.041-1.131-0.06-2.327-0.058-3.765l0.001-0.398l18.374-4.19l-17.661-6.543l0.055-0.397         c2.168-15.845,8.497-25.638,16.09-24.96h0.001c10.067,0.92,18.953,20.411,19.809,43.45c0.249,6.455-0.112,11.903-1.171,17.66         L104.686,176.02z M85.447,172.794c1.099,0,2.079,0.041,2.904,0.117l1.027,0.094c7.855,0.719,7.855,0.719,13.104,1.623         l1.396,0.24c0.978-5.505,1.307-10.758,1.067-16.956c-0.836-22.555-9.315-41.616-18.9-42.492         c-6.835-0.617-12.845,8.894-14.953,23.704l20.053,7.429l-20.867,4.759c0.001,1.25,0.02,2.316,0.058,3.328         c0.255,6.745,1.222,13.478,2.8,19.507C77.582,173.183,82.067,172.794,85.447,172.794z"/>
						</g>
					</g>
					<g>
						<g>
							<g>
								<path d="M194.102,159.048c-0.447,0-0.902-0.017-1.364-0.052c-0.275-0.021-0.481-0.261-0.461-0.536          c0.021-0.276,0.289-0.473,0.537-0.46c9.679,0.732,16.115-7.06,16.179-7.139c0.177-0.214,0.49-0.247,0.704-0.073          c0.214,0.174,0.247,0.488,0.073,0.702C209.706,151.569,203.524,159.048,194.102,159.048z"/>
							</g>
							<g>
								<path d="M190.994,137.257c-0.246,0-0.46-0.181-0.494-0.432c-0.038-0.273,0.153-0.525,0.428-0.563          c9.981-1.366,12.102-11.067,12.188-11.479c0.056-0.269,0.315-0.444,0.59-0.388c0.271,0.056,0.444,0.32,0.39,0.59          c-0.023,0.108-2.339,10.805-13.032,12.268C191.04,137.256,191.016,137.257,190.994,137.257z"/>
							</g>
							<g>
								<path d="M192.798,148.427c-0.258,0-0.477-0.199-0.497-0.46c-0.023-0.275,0.184-0.516,0.458-0.538          c10.219-0.81,15.514-10.158,15.566-10.252c0.133-0.242,0.438-0.329,0.68-0.195c0.241,0.134,0.329,0.437,0.195,0.679          c-0.055,0.099-5.598,9.911-16.361,10.765C192.825,148.426,192.811,148.427,192.798,148.427z"/>
							</g>
						</g>
						<g>
							<path style="fill:#FFFFFF;" d="M145.066,155.513c-0.03,8.171,0.964,15.853,2.713,22.585         c6.469-2.933,14.75-4.701,23.704-4.685c8.254,0.002,15.783,1.507,21.77,4.02c2.033-7.255,3.2-15.54,3.223-24.283         c0.056-27.729-11.391-49.666-25.589-49.027C156.686,104.782,145.119,127.804,145.066,155.513z"/>
							<path d="M147.444,178.798l-0.15-0.575c-1.813-6.983-2.758-14.838-2.729-22.712l0,0c0.053-27.94,11.851-51.217,26.298-51.888         c4.209-0.189,8.375,1.574,12.059,5.1c8.707,8.333,14.092,25.357,14.054,44.427c-0.022,8.487-1.144,16.93-3.242,24.417         l-0.152,0.545l-0.522-0.219c-6.202-2.603-13.662-3.98-21.576-3.981c-0.039,0-0.079,0-0.118,0         c-8.477,0-16.775,1.646-23.379,4.641L147.444,178.798z M171.503,104.609c-0.197,0-0.395,0.004-0.593,0.013         c-13.922,0.647-25.292,23.477-25.344,50.892v0.001c-0.028,7.576,0.854,15.129,2.551,21.886         c6.64-2.898,14.863-4.488,23.248-4.488c0.04,0,0.079,0,0.119,0c7.823,0.002,15.221,1.329,21.436,3.843         c1.979-7.266,3.034-15.415,3.056-23.608c0.038-18.806-5.229-35.552-13.746-43.703         C178.875,106.234,175.268,104.609,171.503,104.609z M145.066,155.513h0.01H145.066z"/>
						</g>
						<g>
							<path d="M172.338,114.91c7.051-0.673,12.689,9.53,14.619,24.541l-17.728,6.99l18.446,4.476         c0.002,1.234-0.01,2.479-0.055,3.747c-0.256,7.204-1.242,14.06-2.763,20.089c-5.868-1.41-11.594-1.622-14.599-1.329         c-9.203,0.897-7.991,0.757-15.021,2.037c-0.951-5.503-1.338-10.826-1.094-17.56         C154.94,135.069,163.091,115.81,172.338,114.91z"/>
							<path d="M154.83,176.042l-0.086-0.497c-0.995-5.758-1.334-11.206-1.101-17.663c0.804-23.048,9.169-42.548,18.646-43.469         h0.001c7.173-0.684,13.124,9.119,15.163,24.975l0.05,0.386l-16.624,6.554l17.296,4.197v0.392         c0.001,1.453-0.017,2.65-0.055,3.764c-0.249,6.993-1.209,13.975-2.779,20.194l-0.12,0.48l-0.481-0.116         c-5.569-1.34-11.262-1.628-14.433-1.318l-0.964,0.094c-7.348,0.715-7.348,0.715-12.242,1.612L154.83,176.042z          M172.387,115.408c-8.998,0.875-16.958,19.945-17.744,42.511c-0.225,6.199,0.084,11.454,1.002,16.96l1.275-0.233         c4.937-0.905,4.937-0.905,12.326-1.625l0.963-0.094c3.164-0.308,8.753-0.042,14.281,1.228         c1.482-6.031,2.391-12.763,2.63-19.508c0.039-1.126,0.053-2.236,0.055-3.336l-19.597-4.755l18.832-7.425         C184.431,124.312,178.801,114.802,172.387,115.408L172.387,115.408z"/>
						</g>
					</g>
				</g>
				<g>
					<g>
						<path d="M152.146,210.054c-0.027,0.025-0.054,0.037-0.081,0.062c-9.079,6.318-21.011,7.727-31.699,4.839        c-3.809-1.027-7.961-2.733-11.596-5.091c-5.675-3.655-10.072-8.899-9.851-15.63c0.224-6.235,5.216-7.93,10.968-7.883        c5.075,0.047,10.758,1.453,14.252,2.321c3.033,0.732,6.083,1.261,9.215,1.093c5.055-0.245,9.661-2.469,14.641-2.945        c0.983-0.096,2.097-0.137,3.275-0.064c3.39,0.167,7.215,1.041,9.386,3.066C167.116,195.907,157.244,206.492,152.146,210.054z"/>
						<path d="M131.111,216.885c-3.613,0-7.28-0.476-10.876-1.447c-4.183-1.128-8.352-2.958-11.737-5.154        c-4.737-3.05-10.332-8.314-10.078-16.065c0.199-5.553,3.979-8.367,11.237-8.367c0.078,0,0.156,0,0.234,0.001        c5.158,0.048,10.924,1.48,14.369,2.336c2.622,0.633,5.759,1.254,9.066,1.079c2.637-0.128,5.213-0.822,7.703-1.492        c2.234-0.602,4.544-1.224,6.918-1.45c1.142-0.112,2.269-0.133,3.354-0.065c1.984,0.098,6.914,0.606,9.695,3.199        c1.667,1.57,2.426,3.523,2.26,5.807c-0.428,5.85-6.838,12.405-10.797,15.18l-0.069,0.051        C146.357,214.695,138.856,216.885,131.111,216.885z M109.65,186.85c-6.705,0-10.052,2.423-10.23,7.402        c-0.239,7.281,5.101,12.28,9.621,15.191c3.302,2.142,7.37,3.927,11.455,5.029c11.02,2.978,22.716,1.195,31.283-4.767        l0.081-0.061c4.088-2.857,10.018-9.229,10.398-14.453c0.145-1.97-0.511-3.654-1.945-5.006        c-1.787-1.666-5.093-2.734-9.067-2.93c-1.039-0.066-2.113-0.043-3.201,0.062c-2.292,0.219-4.561,0.83-6.754,1.421        c-2.542,0.685-5.171,1.393-7.912,1.526c-3.459,0.182-6.817-0.494-9.356-1.107c-3.405-0.845-9.101-2.26-14.14-2.307        C109.804,186.851,109.726,186.85,109.65,186.85z"/>
					</g>
					<g>
						<path style="fill:#FF7B00;" d="M152.146,210.054c-0.027,0.025-0.054,0.037-0.081,0.062        c-9.079,6.318-21.011,7.727-31.699,4.839c-3.809-1.027-7.961-2.733-11.596-5.091c4.376-5.786,12.463-9.671,21.7-9.632        C139.747,200.258,147.816,204.201,152.146,210.054z"/>
						<path d="M131.111,216.885c-3.613,0-7.28-0.476-10.876-1.448c-4.183-1.128-8.352-2.958-11.737-5.154l-0.45-0.292l0.324-0.428        c4.591-6.071,13-9.831,21.967-9.831c0.045,0,0.089,0,0.134,0c9.062,0.026,17.521,3.867,22.076,10.025l0.268,0.363        l-0.426,0.376C146.357,214.695,138.856,216.885,131.111,216.885z M109.503,209.738c3.214,2.011,7.096,3.684,10.993,4.735        c10.874,2.938,22.403,1.243,30.937-4.529c-4.439-5.67-12.415-9.187-20.964-9.212c-0.044,0-0.088,0-0.131,0        C121.891,200.731,113.976,204.162,109.503,209.738z"/>
					</g>
				</g>
				<g>
					<ellipse style="fill:#C64CFF;" cx="130.759" cy="170.194" rx="7.847" ry="7.523"/>
					<path d="M130.758,178.217c-4.602,0-8.347-3.599-8.347-8.023c0-4.423,3.744-8.022,8.347-8.022c4.603,0,8.347,3.599,8.347,8.022       C139.105,174.617,135.361,178.217,130.758,178.217z M130.758,163.171c-4.051,0-7.347,3.151-7.347,7.023       c0,3.873,3.296,7.023,7.347,7.023c4.051,0,7.347-3.151,7.347-7.023C138.105,166.321,134.809,163.171,130.758,163.171z"/>
				</g>
			</g>
			<g>
				<g>
					<g>
						<path d="M272.221,222.225c-2.261,12.889-4.533,26.058-8.441,38.607c-2.97,9.542-9.754,25.172-20.756,26.03        c-14.855,1.159-48.029-36.017-50.29-39.084l0.232-25.425c5.503,8.003,41.636,45.883,48.124,45.883        c2.85,0,6.094-13.1,7.183-17.465c2.616-10.471,4.679-21.112,6.545-31.743C256.704,208.237,274.107,211.434,272.221,222.225z"/>
					</g>
					<g>
						<g>
							<path style="fill:#FFFFFF;" d="M269.843,194.089c0,0,4.81-25.19-5.138-24.723c-8.519,0.4-7.579,24.471-7.579,24.471         s-18.875,3.342-4.675,22.863c0.209,0.288-3.581,0.202-4.058,4.584c-0.734,6.749,17.418,9.62,22.584,9.198         c7.69-0.628,7.175-7.346,3.529-7.916l0.692-0.116c0,0,13.462-1.828,10.568-17.176c0,0,6.156-8.896-3.995-8.992         c0.05-0.786,0.061-2.751-1.22-4.684c-0.27-0.408-2.482-3.629-6.094-3.477C271.569,188.243,270.62,190.934,269.843,194.089z"/>
							<path d="M269.78,231.024c-5.25,0.001-16.4-1.92-20.399-6.024c-1.131-1.161-1.63-2.429-1.484-3.77         c0.376-3.454,2.662-4.387,3.787-4.742c-4.582-6.467-6.041-11.881-4.338-16.1c1.997-4.946,7.652-6.581,9.269-6.954         c-0.09-3.358-0.303-24.173,8.067-24.567c1.671-0.078,3.084,0.512,4.166,1.758c3.346,3.853,2.851,13.247,2.175,18.947         c0.759-1.123,1.82-1.883,3.414-1.95c3.775-0.16,6.104,3.055,6.532,3.7c1.062,1.604,1.322,3.244,1.319,4.473         c2.791,0.113,4.604,0.941,5.395,2.464c1.349,2.599-0.837,6.27-1.388,7.123c0.896,4.949,0.208,9.04-2.044,12.159         c-2.541,3.521-6.343,4.803-8.074,5.222c0.898,0.705,1.439,1.852,1.391,3.145c-0.077,2.099-1.839,4.687-6.548,5.072         C270.658,231.009,270.242,231.024,269.78,231.024z M264.979,169.859c-0.083,0-0.166,0.002-0.251,0.006         c-7.932,0.372-7.111,23.716-7.102,23.951l0.017,0.435l-0.429,0.077c-0.068,0.012-6.866,1.281-8.944,6.439         c-1.606,3.987-0.063,9.249,4.585,15.639l0.152,0.209l-0.076,0.277c-0.099,0.294-0.356,0.371-0.714,0.478         c-0.896,0.268-2.993,0.895-3.327,3.969c-0.113,1.045,0.281,2.015,1.207,2.965c4.075,4.183,16.621,6.032,20.84,5.681         c4.057-0.331,5.568-2.422,5.631-4.113c0.053-1.427-0.847-2.609-2.139-2.811l-3.046-0.477l3.732-0.626         c0.067-0.009,5.279-0.772,8.331-5.009c2.109-2.93,2.725-6.826,1.828-11.581l-0.039-0.205l0.119-0.172         c0.026-0.039,2.666-3.91,1.439-6.273c-0.654-1.259-2.346-1.911-5.027-1.936l-0.527-0.005l0.033-0.526         c0.07-1.108-0.07-2.767-1.138-4.376c-0.376-0.568-2.394-3.381-5.657-3.254c-2.344,0.098-3.296,2.123-4.148,5.588         l-0.977-0.213c0.033-0.174,3.274-17.493-1.261-22.715C267.263,170.325,266.243,169.859,264.979,169.859z"/>
						</g>
						<g>
							<path style="fill:#FFFFFF;" d="M285.277,192.721c-5.669-1.721-10.198,12.096-5.336,14.077         c0.103,0.042,0.197,0.105,0.298,0.151c6.475,2.939,10.754-9.365,6.805-13.17         C286.477,193.233,285.878,192.903,285.277,192.721z"/>
							<path d="M282.214,207.901c-0.716,0-1.448-0.164-2.182-0.498c-0.056-0.025-0.109-0.054-0.163-0.083         c-0.038-0.02-0.075-0.042-0.115-0.058c-2.871-1.17-2.819-5.526-1.558-9.077c1.3-3.655,4.042-6.91,7.228-5.941         c0.722,0.219,1.384,0.615,1.968,1.176c2.572,2.478,1.921,8.115-0.38,11.499C285.678,206.878,283.999,207.901,282.214,207.901         z M284.313,193.075c-2.22,0-4.191,2.676-5.175,5.443c-1.115,3.139-1.147,6.946,0.991,7.818         c0.074,0.03,0.147,0.068,0.218,0.107l0.1,0.051c2.845,1.294,4.815-0.785,5.737-2.137c2.035-2.994,2.703-8.109,0.514-10.218         c-0.469-0.451-0.995-0.767-1.565-0.94l0,0C284.857,193.115,284.582,193.075,284.313,193.075z"/>
						</g>
						<g>
							<path style="fill:#FFFFFF;" d="M274.976,222.498c0,0-2.478,0.537-7.301-0.096"/>
							<path d="M272.074,223.211c-1.157,0-2.646-0.076-4.464-0.314c-0.273-0.036-0.466-0.287-0.431-0.56         c0.036-0.275,0.291-0.464,0.561-0.43c4.653,0.61,7.107,0.107,7.13,0.103c0.268-0.055,0.535,0.114,0.594,0.383         c0.059,0.269-0.112,0.535-0.382,0.593C275.016,223.001,274.008,223.211,272.074,223.211z"/>
						</g>
						<g>
							<path style="fill:#FFFFFF;" d="M259.14,220.808c0,0-3.968-1.308-6.77-4.219"/>
							<path d="M259.14,221.308c-0.052,0-0.104-0.008-0.156-0.025c-0.167-0.055-4.119-1.381-6.975-4.346         c-0.191-0.199-0.186-0.515,0.014-0.706c0.198-0.19,0.515-0.185,0.707,0.014c2.686,2.789,6.528,4.078,6.566,4.091         c0.263,0.086,0.405,0.369,0.318,0.631C259.545,221.174,259.35,221.308,259.14,221.308z"/>
						</g>
						<g>
							<path style="fill:#FFFFFF;" d="M277.577,202.775c1.891-1.399,2.762-3.763,3.47-5.891c0.791-2.379,1.54-4.892,1.106-7.409         c-0.509-2.953-3.522-5.139-6.658-4.053c-3.848,1.331-5.251,6.543-5.895,9.956c-0.392,2.079-0.558,4.518,0.582,6.42         c1.372,2.288,4.316,2.674,6.626,1.461C277.082,203.114,277.337,202.952,277.577,202.775z"/>
							<path d="M274.128,204.44c-1.795,0-3.448-0.84-4.375-2.387c-1.31-2.185-0.996-4.909-0.645-6.769         c1.11-5.89,3.146-9.271,6.222-10.336c1.545-0.533,3.164-0.375,4.559,0.447c1.441,0.851,2.472,2.344,2.757,3.994         c0.447,2.597-0.277,5.101-1.125,7.651c-0.768,2.306-1.681,4.68-3.646,6.135c-0.265,0.196-0.546,0.372-0.834,0.523         C276.088,204.2,275.088,204.44,274.128,204.44z M277.145,185.639c-0.495,0-0.995,0.084-1.486,0.255         c-2.708,0.937-4.529,4.069-5.567,9.576c-0.51,2.7-0.345,4.629,0.52,6.07c1.305,2.178,4.046,2.283,5.965,1.275         c0.243-0.128,0.479-0.277,0.703-0.442l0,0c1.732-1.281,2.576-3.492,3.293-5.647c0.807-2.425,1.496-4.798,1.088-7.166         c-0.234-1.365-1.087-2.6-2.279-3.303C278.686,185.847,277.922,185.639,277.145,185.639z"/>
						</g>
						<g>
							<path style="fill:#FFFFFF;" d="M257.126,193.836c2.22-0.228,4.476-0.266,6.704-0.153c4.523,0.23,16.354,1.217,16.431,6.924         c0.076,5.597-13.032,5.187-19.173,4.902c0,0,8.448,1.193,7.127,10.229"/>
							<path d="M268.217,216.239c-0.024,0-0.049-0.001-0.073-0.005c-0.273-0.04-0.462-0.293-0.423-0.566         c0.386-2.636-0.058-4.825-1.315-6.504c-1.987-2.651-5.353-3.154-5.387-3.159l0.094-0.994         c3.996,0.186,14.613,0.679,17.782-2.385c0.594-0.574,0.878-1.232,0.867-2.012c-0.048-3.576-5.864-5.919-15.957-6.431         c-2.292-0.118-4.522-0.067-6.628,0.15c-0.256,0.018-0.521-0.171-0.548-0.446c-0.028-0.275,0.171-0.52,0.446-0.548         c2.156-0.221,4.435-0.272,6.78-0.154c7.672,0.389,16.833,1.992,16.906,7.416c0.014,1.055-0.38,1.978-1.172,2.743         c-2.616,2.529-9.079,2.921-15.262,2.78c0.985,0.534,2.033,1.313,2.877,2.44c1.424,1.9,1.931,4.338,1.506,7.247         C268.674,216.059,268.461,216.239,268.217,216.239z"/>
						</g>
					</g>
				</g>
				<g>
					<g>
						<path d="M51.307,304.697c-12.391-5.006-27.148-9.352-37.506-17.795C3.619,278.599-4.791,266.939,3.14,254.409        c6.628-10.471,19.561-16.096,30.951-20.433c11.078-4.246,22.385-7.174,33.911-9.712l0.188,17.295        c-7.045,1.519-14.037,3.227-20.811,5.625c-8.879,3.147-18.675,6.455-25.887,12.549c-2.595,2.198-5.044,4.386-2.928,7.474        c2.543,3.677,6.367,6.884,10.286,9.122c8.879,5.086,18.894,8.513,28.398,12.37C67.71,292.937,61.822,308.963,51.307,304.697z"/>
					</g>
					<g>
						<g>
							<path style="fill:#FFFFFF;" d="M127.007,269.848c0,0,8.87-36.659,53.524-45.255l-1.374,90.786L127.007,269.848z"/>
							<path d="M179.64,316.465l-53.191-46.44l0.071-0.295c0.09-0.369,9.46-37.07,53.916-45.628l0.604-0.116l-0.009,0.614         L179.64,316.465z M127.57,269.676l51.104,44.618l1.348-89.092c-22.518,4.499-35.572,16.331-42.572,25.508         C130.553,259.749,128.022,268.043,127.57,269.676z"/>
						</g>
						<g>
							<path style="fill:#FFFFFF;" d="M195.669,293.639l0.978-64.619c-10.808,3.06-23.785,7.762-37.837,15.165         c-12.141,6.396-24.389,15.109-31.536,25.673c-3.556-8.937-17.954-19.788-30.486-26.456         c-12.162-6.471-22.058-10.988-33.539-11.771c0.515,20.846,1.309,39.42,1.824,60.267l62.038,26.146L195.669,293.639z"/>
							<path d="M127.095,318.579l-0.179-0.076l-62.336-26.272l-0.008-0.322c-0.258-10.421-0.59-20.44-0.912-30.129         c-0.321-9.691-0.654-19.712-0.912-30.137l-0.014-0.548l0.548,0.037c11.043,0.753,20.733,4.908,33.74,11.828         c12.293,6.541,26.216,16.962,30.353,25.871c7.997-11.347,21.325-19.885,31.202-25.089         c12.154-6.403,24.916-11.519,37.933-15.204l0.646-0.183l-0.992,65.637L127.095,318.579z M65.565,291.563l61.561,25.945         l68.048-24.224l0.963-63.6c-12.726,3.652-25.202,8.678-37.093,14.942c-9.992,5.264-23.543,13.963-31.356,25.511l-0.529,0.783         l-0.35-0.878c-3.522-8.852-17.734-19.537-30.257-26.2c-12.67-6.742-22.149-10.833-32.79-11.673         c0.256,10.223,0.582,20.06,0.899,29.578C64.979,271.339,65.309,281.253,65.565,291.563z M195.669,293.639h0.01H195.669z"/>
						</g>
						<g>
							<path style="fill:#FFFFFF;" d="M197.389,298.457l0.768-65.538c-10.808,3.06-25.526,7.962-39.578,15.365         c-12.141,6.396-23.626,14.347-31.171,23.033c-7.757-8.337-18.065-17.012-30.852-23.816         c-12.162-6.471-26.581-10.492-36.342-13.609c0.515,20.846-0.428,41.349-1.137,62.024l67.803,26.226L197.389,298.457z"/>
							<path d="M126.869,322.674l-68.303-26.42l0.012-0.355c0.1-2.906,0.204-5.808,0.309-8.708         c0.625-17.396,1.271-35.385,0.828-53.287l-0.018-0.702l0.67,0.214c1.439,0.46,2.98,0.939,4.601,1.443         c9.541,2.968,21.416,6.662,31.825,12.2c11.151,5.935,21.724,14.058,30.604,23.513c8.794-9.937,21.65-17.832,30.949-22.731         c11.358-5.984,24.707-11.167,39.675-15.404l0.645-0.182l-0.78,66.562L126.869,322.674z M59.59,295.579l67.303,26.033         l70.001-23.515l0.757-64.514c-14.641,4.184-27.703,9.277-38.837,15.143c-9.354,4.927-22.328,12.903-31.026,22.919         l-0.365,0.42l-0.379-0.407c-8.884-9.548-19.507-17.748-30.721-23.715c-10.326-5.494-22.15-9.173-31.651-12.129         c-1.375-0.427-2.692-0.838-3.939-1.233c0.41,17.701-0.229,35.462-0.846,52.646C59.786,290.009,59.686,292.792,59.59,295.579z          M197.389,298.457h0.01H197.389z"/>
						</g>
						<g>
							<path style="fill:#FF95FF;" d="M57.248,325.077c9.198,2.948,19.879,7.196,31.299,13.422         c14.026,7.647,25.324,16.183,34,23.778c2.193,0.131,4.386,0.261,6.579,0.392c9.146-8.201,21.478-17.708,37.09-26.011         c12.128-6.451,23.38-10.657,32.891-13.46c0.15-27.773,0.3-55.545,0.449-83.318c-8.276,1.277-17.953,3.508-28.476,7.412         c-17.418,6.462-31.071,15.251-40.8,22.744c-2.083,0.003-4.166,0.006-6.249,0.009c-7.339-6.309-17.4-13.717-30.242-20.045         c-13.589-6.695-25.985-10.059-35.517-11.829C57.931,267.139,57.589,296.108,57.248,325.077z"/>
							<path d="M129.304,363.181l-6.959-0.415l-0.128-0.113c-10.503-9.194-21.911-17.174-33.91-23.715         c-9.983-5.443-20.484-9.947-31.212-13.385l-0.352-0.113l0.004-0.369l1.03-87.5l0.585,0.108         c12.301,2.285,24.294,6.279,35.645,11.872c10.748,5.295,20.909,12.02,30.206,19.992l5.893-0.008         c12.65-9.721,26.376-17.362,40.798-22.713c9.272-3.44,18.886-5.942,28.574-7.437l0.579-0.089l-0.455,84.275l-0.356,0.105         c-11.256,3.318-22.29,7.833-32.797,13.422c-13.147,6.993-25.594,15.721-36.991,25.942L129.304,363.181z M122.747,361.789         l6.2,0.369c11.416-10.214,23.875-18.942,37.033-25.941c10.456-5.562,21.432-10.067,32.628-13.393l0.445-82.36         c-9.426,1.494-18.775,3.948-27.8,7.296c-14.378,5.334-28.062,12.962-40.669,22.671l-0.135,0.104l-6.605,0.008l-0.141-0.121         c-9.271-7.97-19.411-14.69-30.137-19.975c-11.091-5.464-22.796-9.391-34.803-11.676l-1.013,85.943         c10.666,3.443,21.105,7.932,31.034,13.346C100.801,344.61,112.225,352.593,122.747,361.789z"/>
						</g>
						<g>
							<path style="fill:#FFFFFF;" d="M139.766,277.896l0.115,33.369c7.613-4.884,16.783-9.979,27.462-14.464         c8.299-3.485,16.08-6.003,23.082-7.841c-0.237-10.484-0.475-20.969-0.712-31.453c-7.707,2.249-16.026,5.068-24.799,8.624         C155.677,269.876,147.284,273.89,139.766,277.896z"/>
							<path d="M139.383,312.178l-0.119-34.581l0.266-0.142c8.19-4.364,16.667-8.329,25.196-11.786         c8.126-3.294,16.485-6.201,24.846-8.641l0.626-0.183l0.735,32.499l-0.382,0.1c-7.785,2.044-15.529,4.674-23.016,7.818         c-9.422,3.958-18.636,8.81-27.385,14.423L139.383,312.178z M140.266,278.196l0.111,32.16         c8.568-5.437,17.57-10.15,26.771-14.014c7.407-3.111,15.064-5.722,22.767-7.763l-0.688-30.408         c-8.119,2.392-16.232,5.225-24.126,8.424C156.697,270.002,148.344,273.904,140.266,278.196z"/>
						</g>
						<g>
							<path d="M122.464,362.599c-0.002,0-0.005,0-0.008,0c-0.275-0.004-0.496-0.231-0.492-0.507l1.394-92.055         c0.004-0.274,0.228-0.492,0.5-0.492c0.002,0,0.005,0,0.008,0c0.275,0.004,0.496,0.231,0.492,0.507l-1.394,92.055         C122.96,362.38,122.736,362.599,122.464,362.599z"/>
						</g>
						<g>
							<path d="M129.059,362.59c-0.002,0-0.005,0-0.008,0c-0.275-0.004-0.496-0.231-0.492-0.507l1.394-92.055         c0.004-0.274,0.228-0.492,0.5-0.492c0.002,0,0.005,0,0.008,0c0.275,0.004,0.496,0.231,0.492,0.507l-1.394,92.055         C129.555,362.371,129.332,362.59,129.059,362.59z"/>
						</g>
					</g>
					<g>
						<g>
							<path style="fill:#FFFFFF;" d="M88.441,310.622c-0.238-0.758-0.488-1.171-0.488-1.171c6.131-5.563,1.12-9.602,1.12-9.602         c3.069-2.572,3.003-4.858,2.223-6.468c-0.726-1.497-2.392-2.179-3.991-1.787c-9.774,2.392-21.913-5.53-21.913-5.53         s3.768-15.288-2.947-15.065c-2.467,0.082-7.217,6.601-9.948,12.948c0,0-1.066-4.969-5.383-0.483         c-4.418,4.592-6.734,21.603-1.771,24.896c2.319,1.539,5.199,0.086,5.199,0.086C69.258,325.285,90.616,317.533,88.441,310.622         z"/>
							<path d="M74.84,319.036c-7.195,0-16.12-2.666-24.39-10.003c-0.86,0.352-3.293,1.129-5.383-0.257         c-1.529-1.014-2.523-3.241-2.875-6.439c-0.734-6.679,1.483-16.019,4.562-19.219c1.562-1.624,2.949-2.279,4.128-1.945         c0.807,0.229,1.327,0.874,1.649,1.473c2.78-5.989,7.217-12.058,9.897-12.146c1.284-0.047,2.297,0.407,3.051,1.337         c2.71,3.34,0.913,12.094,0.481,13.994c1.903,1.167,12.609,7.39,21.225,5.278c1.879-0.458,3.751,0.386,4.561,2.055         c0.767,1.582,1.022,4.003-1.933,6.702c0.603,0.638,1.631,1.999,1.687,3.889c0.057,1.949-0.93,3.901-2.932,5.806         c0.1,0.216,0.227,0.523,0.349,0.912l0,0c0.646,2.049-0.469,4.177-3.056,5.837C83.302,317.955,79.422,319.035,74.84,319.036z          M50.623,307.846l0.255,0.227c13.201,11.88,28.091,11.477,34.444,7.396c2.179-1.399,3.142-3.111,2.643-4.697l0,0         c-0.215-0.681-0.438-1.061-0.44-1.064l-0.209-0.351l0.302-0.276c1.96-1.778,2.93-3.556,2.884-5.285         c-0.057-2.161-1.725-3.545-1.742-3.559l-0.468-0.382l0.462-0.389c2.33-1.952,3.034-3.927,2.094-5.867         c-0.601-1.24-2.007-1.868-3.422-1.52c-9.873,2.411-21.803-5.27-22.305-5.597l-0.297-0.194l0.085-0.344         c0.024-0.102,2.468-10.187-0.204-13.48c-0.555-0.681-1.273-0.99-2.241-0.967c-2.119,0.071-6.738,6.216-9.506,12.646         l-0.614,1.429l-0.333-1.52c-0.1-0.452-0.544-1.677-1.402-1.919c-0.783-0.224-1.865,0.36-3.132,1.677         c-2.913,3.027-4.997,11.977-4.289,18.418c0.318,2.893,1.16,4.87,2.434,5.715c2.042,1.354,4.671,0.069,4.698,0.056         L50.623,307.846z"/>
						</g>
						<g>
							<path d="M81.936,301.29c-7.044,0-11.747-2.69-12.003-2.839l0.505-0.863c0.079,0.046,8.011,4.566,18.507,1.777l0.258,0.966         C86.594,301.025,84.149,301.29,81.936,301.29z"/>
						</g>
						<g>
							<path d="M81.057,310.583c-8.023,0-13.176-2.564-13.445-2.701l0.453-0.89c0.081,0.041,8.23,4.082,19.799,1.969l0.18,0.983         C85.537,310.401,83.195,310.583,81.057,310.583z"/>
						</g>
						<g>
							
								<rect x="48.355" y="287.065" transform="matrix(0.1386 -0.9903 0.9903 0.1386 -239.9762 299.2281)" width="7.338" height="1"/>
						</g>
						<g>
							<line style="fill:#FFFFFF;" x1="50.45" y1="302.919" x2="50.543" y2="308.445"/>
							<rect x="49.996" y="302.919" transform="matrix(0.9999 -0.0168 0.0168 0.9999 -5.1255 0.891)" width="1" height="5.527"/>
						</g>
					</g>
				</g>
			</g>
		</g>
		<g>
			<g>
				<g>
					<g>
						
							<rect x="405.229" y="415.565" transform="matrix(6.123234e-17 -1 1 6.123234e-17 68.8757 916.1349)" style="fill:#C64CFF;" width="174.553" height="16.128"/>
						<path d="M501.069,511.406h-17.128V335.853h17.128V511.406z M484.941,510.407h15.128V336.853h-15.128V510.407z"/>
					</g>
					<g>
						
							<rect x="166.288" y="415.565" transform="matrix(6.123234e-17 -1 1 6.123234e-17 -170.0654 677.1938)" style="fill:#C64CFF;" width="174.553" height="16.128"/>
						<path d="M262.128,511.406h-17.128V335.853h17.128V511.406z M246.001,510.407h15.128V336.853h-15.128V510.407z"/>
					</g>
				</g>
				<g>
					<rect x="224.673" y="336.418" style="fill:#C64CFF;" width="286.827" height="140.564"/>
					<path d="M512,477.482H224.173V335.919H512V477.482z M225.173,476.483H511V336.918H225.173V476.483z"/>
				</g>
				<g>
					<path style="fill:#C64CFF;" d="M498.485,355.711c-4.442,0-8.043-3.598-8.043-8.036c0-0.337,0.027-0.667,0.068-0.993H246.193       c0.04,0.326,0.068,0.656,0.068,0.993c0,4.438-3.601,8.036-8.043,8.036c-0.307,0-0.609-0.021-0.908-0.054v100.078       c0.298-0.033,0.6-0.055,0.908-0.055c4.442,0,8.043,3.598,8.043,8.036c0,0.943-0.171,1.844-0.47,2.685h245.121       c-0.299-0.841-0.47-1.742-0.47-2.685c0-4.438,3.601-8.036,8.043-8.036c0.127,0,0.251,0.013,0.377,0.019V355.693       C498.736,355.698,498.612,355.711,498.485,355.711z"/>
					<path d="M491.62,466.901H245.083l0.237-0.667c0.292-0.823,0.441-1.67,0.441-2.517c0-4.156-3.384-7.537-7.543-7.537       c-0.288,0-0.571,0.02-0.851,0.052l-0.557,0.062V355.099l0.556,0.061c0.279,0.031,0.563,0.051,0.852,0.051       c4.159,0,7.543-3.38,7.543-7.536c0-0.317-0.026-0.626-0.064-0.932l-0.069-0.561h245.448l-0.069,0.561       c-0.037,0.306-0.063,0.615-0.063,0.932c0,4.156,3.384,7.536,7.543,7.536c0.07,0,0.14-0.005,0.208-0.01l0.669-0.033v101.054       l-0.669-0.033c-0.068-0.005-0.138-0.01-0.208-0.01c-4.159,0-7.543,3.381-7.543,7.537c0,0.848,0.148,1.694,0.44,2.517       L491.62,466.901z M246.469,465.902h243.764c-0.193-0.719-0.291-1.451-0.291-2.185c0-4.665,3.766-8.469,8.42-8.535V356.21       c-4.654-0.066-8.42-3.869-8.42-8.534c0-0.166,0.006-0.33,0.017-0.493H246.744c0.011,0.163,0.017,0.327,0.017,0.493       c0,4.707-3.832,8.535-8.543,8.535c-0.137,0-0.273-0.004-0.407-0.011v98.992c0.135-0.007,0.27-0.011,0.407-0.011       c4.711,0,8.543,3.829,8.543,8.536C246.76,464.451,246.663,465.183,246.469,465.902z"/>
				</g>
			</g>
			<g>
				<g>
					<g>
						<path style="fill:#FF7B00;" d="M439.721,318.888c10.892,26.638,24.023,14.815,24.905,14.863        c0.784,0.042,16.863,13.045,25.513-19.829c1.496-5.686,3.226-29.581-19.994-19.62c-2.883,1.237-5.473,2.789-5.406,2.861        c-0.329-0.355-10.596-11.354-21.014-4.991C441.226,293.698,432.579,301.422,439.721,318.888z"/>
						<path d="M456.799,336.831c-1.149,0-2.384-0.177-3.681-0.621c-5.29-1.812-9.953-7.577-13.86-17.133        c-3.095-7.569-3.64-14.197-1.62-19.697c1.838-5.003,5.175-7.238,5.825-7.635c9.816-5.993,19.481,2.903,21.338,4.763        c1.425-0.999,5.102-2.646,5.146-2.666c7.534-3.232,13.23-3.257,16.927-0.074c6.15,5.294,4.521,17.343,3.747,20.28        c-3.176,12.072-7.732,19.434-13.543,21.881c-5.477,2.309-10.46-0.514-12.098-1.442c-0.156-0.088-0.28-0.161-0.37-0.208        c-0.122,0.061-0.321,0.176-0.503,0.28C462.792,335.318,460.16,336.831,456.799,336.831z M464.618,333.251        c0.011,0,0.022,0,0.033,0.001c0.191,0.011,0.363,0.108,0.822,0.368c1.693,0.959,6.188,3.507,11.217,1.39        c5.509-2.321,9.87-9.459,12.964-21.215c1.097-4.166,1.755-14.803-3.432-19.27c-3.385-2.912-8.727-2.833-15.88,0.236        c-2.625,1.126-4.977,2.503-5.242,2.734l-0.354-0.337l-0.37,0.346l-0.1-0.105c-1.126-1.172-10.697-10.663-20.291-4.802        c-0.473,0.289-11.493,7.289-3.801,26.101l0,0c3.793,9.277,8.254,14.851,13.259,16.566c4.664,1.597,8.518-0.622,10.166-1.57        C464.145,333.387,464.381,333.251,464.618,333.251z"/>
					</g>
				</g>
				<g>
					<g>
						<g>
							<path style="fill:#00DB9A;" d="M463.959,298.392c0.074,0.186,1.293,0.186,1.445,0.091c0.462-5.091,0.919-10.837,1.382-15.927         l-5.329-0.258L463.959,298.392z"/>
							<path d="M464.835,299.046c-0.364,0-0.737-0.044-0.916-0.103c-0.213-0.07-0.355-0.194-0.425-0.366l-0.029-0.108l-2.597-16.7         l6.462,0.313l-0.047,0.519c-0.231,2.545-0.461,5.253-0.69,7.961c-0.229,2.71-0.46,5.42-0.69,7.966l-0.022,0.249l-0.213,0.131         C465.506,299.008,465.174,299.046,464.835,299.046z M464.408,298.027c0.153,0.017,0.365,0.021,0.533,0.018         c0.22-2.43,0.438-4.999,0.655-7.568c0.214-2.527,0.429-5.054,0.643-7.448l-4.196-0.203L464.408,298.027z"/>
						</g>
						<g>
							<g>
								<g>
									<path style="fill:#00DB9A;" d="M465.83,292.22c0,0,10.163,3.221,17.605-9.242           C483.435,282.978,471.486,280.572,465.83,292.22z"/>
									<path d="M468.854,293.095c-1.885,0-3.101-0.376-3.175-0.399l-0.551-0.175l0.252-0.52           c5.76-11.859,18.031-9.538,18.154-9.514l0.692,0.14l-0.361,0.606c-3.936,6.592-8.653,8.819-11.917,9.527           C470.8,293.01,469.751,293.095,468.854,293.095z M466.558,291.887c2.168,0.45,9.894,1.225,16.057-8.528           C480.031,283.056,471.318,282.786,466.558,291.887z"/>
								</g>
							</g>
						</g>
					</g>
					<g>
						<path d="M464.764,299.063c-0.184,0-0.375-0.015-0.573-0.048c-0.395-0.066-0.774-0.2-1.128-0.398        c-0.241-0.135-0.327-0.439-0.192-0.68c0.135-0.242,0.44-0.326,0.681-0.191c0.254,0.142,0.524,0.237,0.805,0.284        c0.709,0.119,1.311-0.111,1.605-0.258c0.248-0.122,0.547-0.024,0.671,0.224c0.123,0.247,0.023,0.547-0.224,0.67        C466.019,298.86,465.448,299.063,464.764,299.063z"/>
					</g>
				</g>
				<g>
					<path style="fill:#FFFFFF;" d="M486.883,297.194c2.335,3.467-0.065,7.64-0.584,7.473c-0.37-0.119,0.265-2.424-1.157-5.002       c-1.854-3.363-5.546-4.176-5.473-4.781C479.753,294.205,484.569,293.759,486.883,297.194z"/>
				</g>
			</g>
			<g>
				<g>
					<path style="fill:#00DB9A;" d="M309.084,312.101c-1.044,2.75-2.397,7.359-2.238,13.164c0.132,4.849,1.269,8.742,2.238,11.289       c26.247,0,52.494,0,78.741,0c0.881-2.888,1.82-7.079,1.825-12.186c0.005-5.146-0.94-9.367-1.825-12.267       C361.578,312.101,335.331,312.101,309.084,312.101z"/>
					<path d="M388.194,337.053h-79.456l-0.123-0.322c-1.399-3.68-2.163-7.533-2.271-11.453c-0.124-4.565,0.64-9.058,2.271-13.354       l0.123-0.323h79.456l0.108,0.354c1.23,4.025,1.851,8.201,1.847,12.413c-0.004,4.182-0.625,8.331-1.847,12.331L388.194,337.053z        M309.43,336.054h78.022c1.123-3.796,1.693-7.726,1.697-11.687c0.004-3.989-0.567-7.946-1.697-11.766H309.43       c-1.502,4.076-2.203,8.33-2.085,12.65C307.446,328.944,308.148,332.578,309.43,336.054z"/>
				</g>
				<g>
					<path style="fill:#FFB200;" d="M280.169,292.54c-0.735,2.178-1.554,5.419-1.598,9.406c-0.048,4.322,0.835,7.814,1.598,10.078       c32.273,0,64.545,0,96.818,0c0.841-2.082,1.99-5.699,1.891-10.302c-0.087-4.02-1.092-7.204-1.891-9.182       C344.714,292.54,312.442,292.54,280.169,292.54z"/>
					<path d="M377.326,312.524H279.81l-0.114-0.34c-1.117-3.31-1.663-6.757-1.625-10.243c0.036-3.257,0.583-6.474,1.625-9.56       l0.114-0.34h97.515l0.126,0.313c1.209,2.994,1.857,6.143,1.927,9.358c0.078,3.605-0.57,7.138-1.927,10.5L377.326,312.524z        M280.531,311.525h96.117c1.221-3.142,1.804-6.435,1.73-9.792c-0.064-2.982-0.647-5.905-1.73-8.693h-96.117       c-0.936,2.883-1.427,5.879-1.46,8.912C279.035,305.207,279.526,308.426,280.531,311.525z"/>
				</g>
				<g>
					<path style="fill:#FF95FF;" d="M297.949,273.056c-0.823,2.058-1.929,5.58-1.875,10.056c0.05,4.149,1.075,7.427,1.875,9.428       c29.958,0,59.916,0,89.875,0c0.78-2.305,1.686-5.889,1.601-10.325c-0.074-3.858-0.872-7.007-1.601-9.16       C357.866,273.056,327.908,273.056,297.949,273.056z"/>
					<path d="M388.183,293.04h-90.572l-0.125-0.314c-1.229-3.073-1.871-6.305-1.911-9.607c-0.042-3.524,0.601-6.972,1.911-10.248       l0.125-0.314h90.572l0.115,0.34c1.018,3.01,1.566,6.142,1.627,9.309c0.068,3.569-0.479,7.1-1.627,10.495L388.183,293.04z        M298.29,292.041h89.173c1.034-3.181,1.525-6.481,1.462-9.815c-0.057-2.947-0.548-5.861-1.462-8.669H298.29       c-1.178,3.059-1.755,6.271-1.716,9.551C296.612,286.173,297.189,289.177,298.29,292.041z"/>
				</g>
			</g>
		</g>
	</g>
</g>















</svg>
