<svg id="svg8" height="512" viewBox="0 0 135.46666 135.46666" width="512" xmlns="http://www.w3.org/2000/svg" xmlns:svg="http://www.w3.org/2000/svg"><clipPath id="clipPath5136"><rect id="rect5138" height="89.013" rx="7.858" width="87.501" x="-68.036" y="22.301"/></clipPath><clipPath id="clipPath3786"><path id="rect3788" d="m84.667 15.119h79.375v72.571h-79.375z" paint-order="fill markers stroke"/></clipPath><g id="layer1"><g id="g4582" transform="matrix(1.02 0 0 1.02 -11.216 .017)"><g id="g7740" transform="matrix(.985 0 0 .985 5.218 -2.994)"><g id="g8710" stroke-linecap="round" stroke-linejoin="round"><g stroke-width="2.86"><path id="path8273" d="m129.44295 66.983934c-.6653 15.456972 2.39506 54.099396-.13306 58.490586-2.52813 4.39117-35.393729-.87824-35.792907-1.58084-.399177-.70259-1.862825-66.57035-1.862825-66.57035s33.064852 11.41708 37.788792 9.660604z" fill="#ffc517" paint-order="stroke fill markers"/><path id="path8275" d="m91.654181 57.323517s4.49848 1.551612 10.401389 3.420587c.11065 1.401134.19419 2.784443.24338 4.131732.53224 14.578735-2.26209 38.642744 4.9231 47.073804 5.20315 6.10535 16.96965 5.48571 23.08219 4.67987-.0784 4.49539-.36133 7.74495-.9946 8.8449-2.52812 4.39117-35.39365-.87798-35.792828-1.58055-.399177-.70259-1.862631-66.570343-1.862631-66.570343z" fill="#ffa817" paint-order="stroke fill markers"/><path id="path8277" d="m94.714517 36.772587s27.676293.702587 29.273003 1.229531c1.59671.526941 10.17936 23.888045 10.17936 28.454875 0 4.566831-3.77238 3.738193-10.56847 3.738193-6.79608 0-31.012839 0-31.012839 0z" fill="#7738c7" paint-order="stroke fill markers"/></g><path id="path8279" d="m94.714656 50.593998s1.714165.02647 3.710335.05895c1.37941 3.892444 3.517899 10.702737 3.873959 16.422488.0605.972599.0744 2.024549.0684 3.119426h-9.781887z" fill="#171d8f" stroke-width="2.19" paint-order="stroke fill markers"/><path id="path8281" d="m115.1068 75.902987c-2.32635 0-4.19919 2.472281-4.19919 5.543233v6.52418h8.39839v-6.52418c0-3.070952-1.87284-5.543233-4.1992-5.543233z" fill="#171d8f" stroke-width="1.378" paint-order="stroke fill markers"/><path id="path8283" d="m115.1068 97.141438c-2.32635 0-4.19919 2.47227-4.19919 5.543232v6.52418h8.39839v-6.52418c0-3.070962-1.87284-5.543232-4.1992-5.543232z" fill="#171d8f" stroke-width="1.378" paint-order="stroke fill markers"/><path id="path8261" d="m74.665205 12.457386s4.886409-2.238925 8.406724-.327648c3.520318 1.911278 7.72368-1.583629 7.881305.218432.157627 1.802061 1.155925 7.535893-.367793 9.283347-1.52372 1.747453-5.832167 3.276475-9.037229 1.255982-3.205065-2.020493-6.988092 1.474415-7.145717.05461s.26271-10.48472.26271-10.484721z" fill="#ffc517" stroke-width="2.004" paint-order="stroke fill markers"/><path id="path8311" d="m76.616985 11.792839c-1.163477.307551-1.951645.664784-1.951645.664784.000002.000001-.420554 9.064428-.262928 10.484233.157624 1.419805 3.940843-2.075034 7.145909-.05454 3.20506 2.020493 7.513631.491465 9.037352-1.255988.409149-.469227.632428-1.230144.742993-2.120927-1.466952-.370539-3.288876-.393678-4.692076 1.009524-2.794242 2.794242-1.863161.265961-6.52023-.598923-2.989037-.555107-3.508569-4.642163-3.499375-8.128162z" fill="#ffa817" stroke-width="2.004" paint-order="stroke fill markers"/><path id="path8263" d="m74.207489 9.6086208c-1.14595.0004193-2.074513 1.1844642-2.074423 1.8324412-.000132.347089.27142 1.523194.741692 1.746261l-1.685146 13.24035 4.404238-1.294171c.06281-2.866483-.189744-9.967303-.24629-11.864376.584625-.217001.936714-1.432656.936662-1.828091.000082-.648315-.929421-1.8324886-2.07597-1.8324142z" fill="#ff4b3d" stroke-width="3.008" paint-order="stroke fill markers"/><path id="path8237" d="m17.179532 66.983934c.665296 15.456972-2.395064 54.099396.133059 58.490586 2.528124 4.39117 35.393729-.87824 35.792907-1.58084.399177-.70259 1.862825-66.57035 1.862825-66.57035s-33.064854 11.41708-37.788791 9.660604z" fill="#ffc517" stroke-width="2.86" paint-order="stroke fill markers"/><path id="path8239" d="m54.9683 57.323517s-4.49848 1.551612-10.401395 3.420587c-.110646 1.401134-.19419 2.784443-.243375 4.131732-.532237 14.578736 2.262091 38.642744-4.923102 47.073804-5.203149 6.10535-16.969645 5.48569-23.082191 4.67987.07836 4.49539.361336 7.74495.994602 8.8449 2.528124 4.39117 35.393652-.87797 35.79283-1.58057.399177-.70257 1.862631-66.570323 1.862631-66.570323z" fill="#ffa817" stroke-width="2.86" paint-order="stroke fill markers"/><path id="path8235" d="m51.907964 36.772587s-27.676298.702587-29.273007 1.229531c-1.59671.526941-10.179361 23.888045-10.179361 28.454875 0 4.566831 3.772388 3.738193 10.568471 3.738193h31.012843z" fill="#7738c7" stroke-width="2.86" paint-order="stroke fill markers"/><path id="path8241" d="m51.907825 50.593998s-1.714165.02647-3.710335.05896c-1.379415 3.892444-3.517902 10.702738-3.87396 16.422487-.06054.972599-.07439 2.02455-.06843 3.119427h9.781888z" fill="#171d8f" stroke-width="2.19" paint-order="stroke fill markers"/><path id="path8233" d="m47.497606 44.803998v79.102372h51.62694v-81.315026l-25.281234-14.451395z" fill="#ffc517" stroke-width="2.538" paint-order="stroke fill markers"/><path id="rect8254" d="m73.263956 89.633316c8.735199 0 15.767507 5.144904 15.767507 11.535664v21.83851c-10.798028-2.11679-23.752703-1.52561-31.535014 0v-21.83851c0-6.39076 7.032309-11.535664 15.767507-11.535664z" fill="#ffa817" stroke-width="3.852" paint-order="stroke fill markers"/><path id="path8271" d="m73.311076 106.40949c4.242938 0 7.658734 3.5501 7.658734 7.95987v9.36846h-15.317467v-9.36846c0-4.40977 3.415796-7.95987 7.658733-7.95987z" fill="#171d8f" stroke-width="2.23" paint-order="stroke fill markers"/><path id="path8223" d="m51.139174 121.65575c-10.65889.18477-38.683577-.0923-38.683577 4.61947 0 4.7118 4.283557 5.04439 4.283557 5.04439h56.581842 56.581844s4.28301-.33259 4.28301-5.04439c0-4.71179-28.55692-4.4347-39.215808-4.61947-10.124349-.17551-16.994364.0833-21.782105-.0155-4.787741-.0989-14.318044-.11637-22.048763.0155z" fill="#ff4b3d" stroke-width="2.538" paint-order="stroke fill markers"/><path id="path8228" d="m71.291321 23.989039c-6.48468 3.730597-26.838602 15.704442-27.941365 19.649102-1.312177 4.693748-.43782 11.661655 3.280011 10.097071 3.71783-1.564583 26.681409-16.428116 26.681409-16.428116s22.962976 14.863533 26.680806 16.428116c3.717838 1.564584 4.592188-5.403322 3.280018-10.097071-1.1069-3.959375-21.608829-16.00795-28.013376-19.690505-1.319578-.791815-1.313984-1.484601-3.967503.04141z" fill="#171d8f" stroke-width="2.736" paint-order="stroke fill markers"/><path id="path8249" d="m86.581284 62.825428a13.239383 12.446825 0 0 1 -13.239383 12.446826 13.239383 12.446825 0 0 1 -13.239383-12.446826 13.239383 12.446825 0 0 1 13.239383-12.446824 13.239383 12.446825 0 0 1 13.239383 12.446824z" fill="#fff" stroke-width="2.414" paint-order="stroke fill markers"/><path id="path8252" d="m73.474958 64.204127c-.06653-2.251686.931415-10.445323-.399178-10.445323-1.330591 0-2.727711 10.320232-1.995886 11.633715.731825 1.313484 7.717428 3.56517 8.648844 2.56442.931413-1.00075-6.25378-3.752812-6.25378-3.752812z" fill="#171d8f" stroke-width="2.414" paint-order="stroke fill markers"/><path id="path8257" d="m31.515676 75.902987c2.326355 0 4.199197 2.472281 4.199197 5.543233v6.52418h-8.398393v-6.52418c0-3.070952 1.872842-5.543233 4.199196-5.543233z" fill="#171d8f" stroke-width="1.378" paint-order="stroke fill markers"/><path id="path8259" d="m31.515676 97.141438c2.326355 0 4.199197 2.47227 4.199197 5.543232v6.52418h-8.398393v-6.52418c0-3.070962 1.872842-5.543232 4.199196-5.543232z" fill="#171d8f" stroke-width="1.378" paint-order="stroke fill markers"/><path id="path8269" d="m71.907409 84.844439c-4.506653 2.59265-18.652 10.914102-19.418386 13.655519-.911923 3.262012-.304272 8.104492 2.279506 7.017152 2.583777-1.08733 18.542756-11.417033 18.542756-11.417033s15.958559 10.329703 18.542336 11.417033c2.583783 1.08734 3.191429-3.75514 2.279511-7.017152-.769261-2.751643-15.017469-11.125031-19.468431-13.684293-.917066-.550286-.913178-1.031752-2.757292.02878z" fill="#7738c7" stroke-width="1.901" paint-order="stroke fill markers"/></g></g></g></g></svg>