<?xml version="1.0" encoding="UTF-8"?>
<!-- Generator: Adobe Illustrator 26.0.1, SVG Export Plug-In . SVG Version: 6.00 Build 0)  -->
<svg xmlns="http://www.w3.org/2000/svg" xmlns:xlink="http://www.w3.org/1999/xlink" version="1.1" id="Capa_1" x="0px" y="0px" viewBox="0 0 512 512" style="enable-background:new 0 0 512 512;" xml:space="preserve" width="512" height="512">
<g>
	<path style="fill-rule:evenodd;clip-rule:evenodd;fill:#A089E4;" d="M255.999,12.896c-34.455,0-67.279,6.983-97.134,19.612   c-21.696,9.177-22.261,39.916-40.308,54.542c-14.947,12.114-48.031,7.34-59.83,22.548c-32.767,42.23-52.274,95.264-52.274,152.853   c0,7.734,0.352,15.385,1.04,22.939c2.246,24.64,30.074,41.246,38.959,63.291c7.981,19.802-3.572,45.345,8.961,62.249   c37.679,50.819,94.211,86.821,159.256,97.663c13.444,2.241,30.139-18.595,44.218-18.595c19.719,0,36.016,19.715,54.415,15.392   c55.198-12.97,103.331-44.266,137.629-87.115c4.847-6.056,0.418-18.343,4.694-24.842c4.394-6.679,17.476-7.581,21.225-14.686   c18.325-34.728,28.699-74.301,28.699-116.296c0-23.935-3.37-47.084-9.661-68.997c-5.75-20.03-29.812-27.414-40.101-45.037   c-12.468-21.355-12.146-52.304-30.167-69.012C381.1,38.129,321.497,12.896,255.999,12.896z M255.999,300.517   c-21.735,0-39.353-17.049-39.353-38.067c0-21.028,17.619-38.067,39.353-38.067c21.737,0,39.356,17.038,39.356,38.067   C295.355,283.469,277.736,300.517,255.999,300.517z"/>
	<path style="fill-rule:evenodd;clip-rule:evenodd;fill:#7BEFE5;" d="M58.733,109.603l146.284,124.22l33.541-24.151l-79.721-177.15   C119.185,49.299,84.776,76.044,58.733,109.603z"/>
	<path style="fill-rule:evenodd;clip-rule:evenodd;fill:#FFA4AC;" d="M425.607,79.417L320.399,209.673l21.468,52.778l154.014-68.995   C483.165,149.15,458.499,109.912,425.607,79.417z"/>
	<path style="fill-rule:evenodd;clip-rule:evenodd;fill:#7BEFE5;" d="M255.999,512c19.847,0,39.144-2.327,57.655-6.71   l-34.845-170.838h-46.957l-17.179,174.117C228.111,510.808,241.918,512,255.999,512z"/>
	<path style="fill-rule:evenodd;clip-rule:evenodd;fill:#FFA4AC;" d="M55.417,410.926l138.866-92.576l-20.126-55.9L7.699,287.543   C12.288,333.48,29.339,375.751,55.417,410.926z"/>
	<path style="fill-rule:evenodd;clip-rule:evenodd;fill:#7BEFE5;" d="M476.832,378.738l-144.451-81.991l-8.313,22.712   l126.848,98.804C460.745,405.984,469.435,392.758,476.832,378.738z"/>
	<path style="fill-rule:evenodd;clip-rule:evenodd;fill:#074785;" d="M469.1,132.535L333.013,223.96l-1.083,7.981l145.968-83.759   C475.151,142.853,472.217,137.634,469.1,132.535z"/>
	<path style="fill-rule:evenodd;clip-rule:evenodd;fill:#074785;" d="M16.21,193.147l165.182,55.095l0.402-8.038L20.491,179.769   C18.943,184.173,17.51,188.634,16.21,193.147z"/>
	<path style="fill-rule:evenodd;clip-rule:evenodd;fill:#074785;" d="M119.784,471.653l99.978-148.015l-7.962-1.171L109.487,463.887   C112.847,466.554,116.275,469.153,119.784,471.653z"/>
	<path style="fill-rule:evenodd;clip-rule:evenodd;fill:#074785;" d="M255.999,171.005c-51.651,0-93.522,41.34-93.522,92.335   c0,51,41.871,92.341,93.522,92.341c51.653,0,93.522-41.341,93.522-92.341C349.521,212.345,307.652,171.005,255.999,171.005z    M255.999,296.145c-19.177,0-34.728-15.041-34.728-33.595c0-18.544,15.55-33.585,34.728-33.585c19.183,0,34.73,15.041,34.73,33.585   C290.729,281.105,275.181,296.145,255.999,296.145z"/>
	<g>
		<path style="fill-rule:evenodd;clip-rule:evenodd;fill:#FFFFFF;" d="M105.128,80.275c-22.174,14.099-42.899,31.885-51.06,57.751    c-3.135,9.936,12.224,14.915,15.365,4.973c6.809-21.583,24.53-36.576,43.04-48.343C121.183,89.124,113.916,74.69,105.128,80.275z"/>
		<path style="fill-rule:evenodd;clip-rule:evenodd;fill:#FFFFFF;" d="M129.077,65.627c-9.278,4.738-1.927,19.12,7.342,14.382    C145.694,75.27,138.349,60.889,129.077,65.627z"/>
		<path style="fill-rule:evenodd;clip-rule:evenodd;fill:#FFFFFF;" d="M50.588,158.103c-9.272,4.738-1.93,19.115,7.345,14.382    C67.21,167.746,59.86,153.365,50.588,158.103z"/>
	</g>
	<g>
		<path style="fill-rule:evenodd;clip-rule:evenodd;fill:#FFFFFF;" d="M475.124,242.98c-0.002,19.789-0.204,39.489-4.735,58.855    c-2.372,10.135,13.2,14.434,15.571,4.294c4.861-20.772,5.313-41.916,5.313-63.148C491.274,232.563,475.127,232.563,475.124,242.98    z"/>
		<path style="fill-rule:evenodd;clip-rule:evenodd;fill:#FFFFFF;" d="M472.434,321.744c-10.415,0-10.415,16.149,0,16.149    C482.846,337.894,482.846,321.744,472.434,321.744z"/>
		<path style="fill-rule:evenodd;clip-rule:evenodd;fill:#FFFFFF;" d="M480.328,205.479c-10.415,0-10.415,16.144,0,16.144    C490.743,221.623,490.743,205.479,480.328,205.479z"/>
	</g>
	<path style="fill-rule:evenodd;clip-rule:evenodd;fill:#FFFFFF;" d="M94.873,402.799c-18.607-17.179-30.058-38.417-40.101-61.349   c-4.179-9.544-18.607-2.285-14.439,7.238c10.533,24.051,22.906,46.769,42.413,64.775c3.232,2.981,7.837,3.865,11.395,0.732   C97.184,411.512,98.112,405.786,94.873,402.799z"/>
	<path style="fill-rule:evenodd;clip-rule:evenodd;fill:#FFFFFF;" d="M108.232,419.267c-10.391-0.669-11.429,15.448-1.035,16.118   C117.587,436.05,118.62,419.937,108.232,419.267z"/>
	<path style="fill-rule:evenodd;clip-rule:evenodd;fill:#FFFFFF;" d="M41.851,310.715c-10.394-0.664-11.43,15.448-1.035,16.118   C51.21,327.502,52.243,311.385,41.851,310.715z"/>
	<path style="fill:#FFFFFF;" d="M429.883,290.231c-0.86-0.91-2.586-13.691-4.155-13.587c-1.577,0.105-2.944,12.776-3.676,13.613   c-1.475,1.673-12.253,2.86-12.167,4.487c0.089,1.616,10.674,2.385,12.172,3.969c0.832,0.879,2.589,13.696,4.16,13.597   c1.572-0.105,2.913-12.745,3.677-13.608c1.422-1.616,12.287-2.866,12.198-4.492C442.005,292.579,431.326,291.758,429.883,290.231z"/>
	<path style="fill:#074785;" d="M406.783,114.226c-0.865-0.915-2.591-13.691-4.158-13.587c-1.574,0.104-2.944,12.776-3.679,13.613   c-1.472,1.673-12.256,2.855-12.164,4.482c0.089,1.621,10.676,2.39,12.169,3.969c0.837,0.884,2.591,13.696,4.16,13.597   c1.574-0.099,2.918-12.739,3.679-13.602c1.425-1.616,12.287-2.866,12.198-4.497C418.9,116.574,408.224,115.758,406.783,114.226z"/>
	<path style="fill:#074785;" d="M115.423,305.533c-0.863-0.915-2.591-13.691-4.158-13.592c-1.574,0.104-2.944,12.776-3.676,13.613   c-1.475,1.673-12.256,2.86-12.169,4.487c0.091,1.621,10.679,2.385,12.172,3.964c0.837,0.884,2.591,13.696,4.16,13.602   c1.571-0.105,2.915-12.739,3.679-13.608c1.425-1.616,12.287-2.866,12.198-4.492C127.542,307.876,116.863,307.06,115.423,305.533z"/>
	<path style="fill:#074785;" d="M191.472,439.067c-0.863-0.915-2.589-13.691-4.16-13.592c-1.569,0.11-2.939,12.781-3.674,13.618   c-1.472,1.673-12.256,2.861-12.169,4.487c0.094,1.616,10.679,2.385,12.172,3.964c0.837,0.884,2.589,13.696,4.16,13.597   c1.574-0.099,2.916-12.739,3.679-13.602c1.425-1.616,12.287-2.866,12.198-4.498C203.592,441.415,192.913,440.594,191.472,439.067z"/>
	<path style="fill:#FFFFFF;" d="M336.719,422.29c-0.863-0.91-2.586-13.696-4.158-13.587c-1.577,0.105-2.942,12.776-3.677,13.608   c-1.477,1.679-12.253,2.861-12.167,4.487c0.092,1.621,10.674,2.39,12.172,3.969c0.831,0.879,2.589,13.697,4.16,13.597   c1.572-0.105,2.913-12.745,3.676-13.608c1.423-1.616,12.29-2.866,12.201-4.492C348.838,424.633,338.159,423.817,336.719,422.29z"/>
	<path style="fill:#FFFFFF;" d="M60.401,237.359c-0.863-0.91-2.591-13.691-4.157-13.587c-1.574,0.105-2.944,12.776-3.679,13.613   c-1.472,1.673-12.253,2.86-12.164,4.487c0.089,1.616,10.676,2.385,12.169,3.969c0.837,0.879,2.591,13.691,4.16,13.597   c1.574-0.105,2.918-12.745,3.682-13.608c1.423-1.616,12.285-2.866,12.196-4.498C72.521,239.707,61.842,238.886,60.401,237.359z"/>
	<g>
		<g>
			<g>
				<g>
					<path style="fill-rule:evenodd;clip-rule:evenodd;fill:#FFFFFF;" d="M244.996,73.956c1.11,6.878,0.753,14.121-1.313,21.291       c-7.455,25.845-34.304,40.954-59.966,33.737c-25.667-7.212-40.433-34.019-32.978-59.869c2.041-7.08,5.537-13.354,10.066-18.584       C172.809,36.668,242.103,56.033,244.996,73.956z"/>
					<path style="fill-rule:evenodd;clip-rule:evenodd;fill:#074785;" d="M160.808,50.534c-2.565,14.758,2.332,30.452,14.292,41.006       c18.226,16.086,45.958,14.162,61.943-4.304c3.491-4.037,6.14-8.54,7.944-13.278c-2.889-17.922-15.744-33.371-34.294-38.579       C192.063,30.138,172.818,36.67,160.808,50.534z"/>
				</g>
				<g>
					<path style="fill-rule:evenodd;clip-rule:evenodd;fill:#FFFFFF;" d="M363.007,73.345c0.615,6.937-0.259,14.133-2.831,21.134       c-9.28,25.249-37.133,38.412-62.22,29.375c-25.087-9.026-37.897-36.812-28.627-62.066c2.542-6.919,6.477-12.929,11.368-17.824       C293.66,30.987,361.404,55.258,363.007,73.345z"/>
					<path style="fill-rule:evenodd;clip-rule:evenodd;fill:#074785;" d="M280.704,43.97c-3.609,14.539,0.152,30.536,11.33,41.921       c17.028,17.347,44.826,17.404,62.084,0.12c3.781-3.776,6.736-8.08,8.88-12.666c-1.605-18.09-13.323-34.411-31.457-40.943       C313.329,25.85,293.668,31.001,280.704,43.97z"/>
				</g>
				<path style="fill-rule:evenodd;clip-rule:evenodd;fill:#074785;" d="M326.568,5.334c-10.815-6.616-23.345-7.206-34.479-1.046      c-5.583,3.101-0.35,11.484,5.209,8.409c8.135-4.508,16.784-3.42,24.532,1.313C327.282,17.341,331.978,8.639,326.568,5.334z"/>
				<path style="fill-rule:evenodd;clip-rule:evenodd;fill:#074785;" d="M213.22,6.871c-11.662-4.963-24.143-3.718-34.252,4.001      c-5.078,3.88,1.32,11.411,6.367,7.552c7.397-5.638,16.11-5.831,24.464-2.275C215.683,18.654,219.059,9.36,213.22,6.871z"/>
			</g>
		</g>
		<path style="fill:#29AEFD;" d="M201.009,146.885c-0.078,7.573-8.872,13.613-19.65,13.508    c-10.778-0.099-19.452-6.323-19.379-13.895c0.073-7.572,8.872-13.623,19.65-13.519    C192.406,133.089,201.084,139.313,201.009,146.885z"/>
		<path style="fill:#7BEFE5;" d="M355.972,144.694c-0.073,7.572-8.87,13.618-19.648,13.508c-10.781-0.104-19.455-6.323-19.384-13.9    c0.081-7.572,8.877-13.618,19.656-13.514C347.371,130.898,356.05,137.116,355.972,144.694z"/>
		<g>
			<path style="fill:#FFFFFF;" d="M232.784,60.46c-4.087-5.784-9.068-10.533-15.775-13.069c-3.015-1.14-4.445,3.645-1.462,4.775     c5.389,2.04,9.578,6.045,12.86,10.695C230.237,65.449,234.641,63.095,232.784,60.46z"/>
			<path style="fill:#FFFFFF;" d="M209.115,44.18c-0.779-0.178-1.546-0.376-2.317-0.56c-1.326-0.308-2.698,0.288-3.122,1.658     c-0.371,1.234,0.335,2.803,1.663,3.112c0.771,0.183,1.54,0.387,2.312,0.565c1.331,0.309,2.701-0.288,3.122-1.658     C211.141,46.062,210.435,44.488,209.115,44.18z"/>
			<g>
				<path style="fill:#FFFFFF;" d="M236.199,69.204c-0.541-1.245-2.275-1.6-3.386-0.988c-1.266,0.696-1.532,2.134-0.991,3.378      c0-0.031,0-0.047,0-0.078c0.034,1.355,1.009,2.521,2.424,2.557c1.302,0.037,2.602-1.067,2.562-2.432      C236.78,70.741,236.56,70.025,236.199,69.204z"/>
				<path style="fill:#FFFFFF;" d="M231.804,71.589c0.008,0.036,0.016,0.078,0.024,0.12c0-0.037-0.003-0.078-0.005-0.115      C231.54,70.945,231.754,71.421,231.804,71.589z"/>
				<path style="fill:#FFFFFF;" d="M231.827,71.709C231.843,72.069,231.856,71.892,231.827,71.709L231.827,71.709z"/>
				<path style="fill:#FFFFFF;" d="M231.827,71.604l-0.005-0.01l0,0C231.827,71.599,231.827,71.599,231.827,71.604z"/>
			</g>
		</g>
		<g>
			<path style="fill:#FFFFFF;" d="M348.501,53.373c-4.087-5.779-9.074-10.533-15.78-13.069c-3.012-1.14-4.443,3.64-1.457,4.78     c5.389,2.034,9.576,6.04,12.857,10.684C345.952,58.368,350.355,56.004,348.501,53.373z"/>
			<path style="fill:#FFFFFF;" d="M324.826,37.093c-0.771-0.178-1.54-0.382-2.314-0.559c-1.326-0.314-2.701,0.288-3.12,1.652     c-0.374,1.234,0.335,2.809,1.658,3.117c0.774,0.188,1.54,0.387,2.314,0.565c1.328,0.314,2.701-0.288,3.122-1.658     C326.855,38.976,326.15,37.402,324.826,37.093z"/>
			<g>
				<path style="fill:#FFFFFF;" d="M351.916,62.117c-0.547-1.25-2.28-1.6-3.389-0.988c-1.266,0.696-1.532,2.134-0.991,3.378      c-0.003-0.026,0-0.047,0-0.084c0.036,1.36,1.007,2.521,2.424,2.568c1.302,0.031,2.599-1.067,2.563-2.432      C352.494,63.66,352.277,62.939,351.916,62.117z"/>
				<path style="fill:#FFFFFF;" d="M347.515,64.502c0.01,0.036,0.021,0.078,0.024,0.115c0.003-0.031-0.002-0.068-0.002-0.11      C347.257,63.859,347.468,64.335,347.515,64.502z"/>
				<path style="fill:#FFFFFF;" d="M347.539,64.617C347.56,64.983,347.573,64.806,347.539,64.617L347.539,64.617z"/>
				<path style="fill:#FFFFFF;" d="M347.539,64.518l-0.002-0.01c-0.003,0,0,0,0,0C347.539,64.518,347.539,64.518,347.539,64.518z"/>
			</g>
		</g>
		<path style="fill-rule:evenodd;clip-rule:evenodd;fill:#074785;" d="M278.068,134.93c-1.645-7.473-13.662-6.527-11.997,1.041    c1.326,6.009,1.378,12.661-6.103,13.226c-7.131,0.544-8.302-5.972-8.87-11.615c-0.764-7.729-12.763-6.694-11.994,1.041    c1.315,13.257,7.711,22.592,21.907,22.571C275.137,161.173,280.706,146.896,278.068,134.93z"/>
	</g>
	<g>
		<path style="fill-rule:evenodd;clip-rule:evenodd;fill:#7BEFE5;" d="M306.342,206.854c-5.664,4.163,1.281,12.237,7.086,8.179    C319.254,210.818,312.032,202.534,306.342,206.854z"/>
		<path style="fill-rule:evenodd;clip-rule:evenodd;fill:#7BEFE5;" d="M317.696,302.996c-6.636,2.803-2.178,12.441,4.571,9.769    C329.075,309.946,324.4,300.047,317.696,302.996z"/>
		<path style="fill-rule:evenodd;clip-rule:evenodd;fill:#7BEFE5;" d="M316.801,226.183c11.96,18.701,17.522,44.295,6.799,64.984    c-2.463,4.728,5.381,8.237,7.905,3.41c11.965-23,6.139-51.763-7.228-72.53C321.375,217.501,313.972,221.732,316.801,226.183z"/>
	</g>
	<path style="fill-rule:evenodd;clip-rule:evenodd;fill:#FFFFFF;" d="M338.371,374.857c-2.675-0.512-4.385-2.976-3.901-5.627   c0.484-2.678,3.057-4.424,5.739-3.907c2.662,0.512,4.375,3.007,3.883,5.653C343.583,373.701,341.104,375.385,338.371,374.857z"/>
	<path style="fill-rule:evenodd;clip-rule:evenodd;fill:#FFFFFF;" d="M385.872,443.402c-2.678-0.513-4.387-2.976-3.904-5.632   c0.487-2.678,3.057-4.424,5.737-3.902c2.664,0.512,4.377,3.002,3.886,5.653C391.086,442.241,388.602,443.931,385.872,443.402z"/>
	<path style="fill-rule:evenodd;clip-rule:evenodd;fill:#FFFFFF;" d="M441.181,246.369c-2.675-0.512-4.382-2.981-3.901-5.627   c0.486-2.678,3.057-4.43,5.739-3.912c2.662,0.518,4.377,3.007,3.883,5.653C446.398,245.208,443.914,246.897,441.181,246.369z"/>
	<path style="fill-rule:evenodd;clip-rule:evenodd;fill:#FFFFFF;" d="M117.645,197.817c-2.678-0.512-4.382-2.981-3.901-5.632   c0.484-2.678,3.057-4.43,5.737-3.907c2.664,0.518,4.377,3.007,3.886,5.653C122.862,196.656,120.377,198.34,117.645,197.817z"/>
</g>















</svg>
