<svg xmlns="http://www.w3.org/2000/svg" xmlns:xlink="http://www.w3.org/1999/xlink" width="500" zoomAndPan="magnify" viewBox="0 0 375 374.999991" height="500" preserveAspectRatio="xMidYMid meet" version="1.0"><defs><clipPath id="5d13e4bbe8"><path d="M 37.5 223 L 322 223 L 322 272 L 37.5 272 Z M 37.5 223 " clip-rule="nonzero"/></clipPath><clipPath id="f57d9fc1b5"><path d="M 251 256 L 337.5 256 L 337.5 281 L 251 281 Z M 251 256 " clip-rule="nonzero"/></clipPath></defs><g clip-path="url(#5d13e4bbe8)"><path fill="#345935" d="M 37.5 257.828125 C 61.722656 251.351562 88.671875 253.542969 118.238281 263.964844 C 149.242188 274.902344 153.085938 275.246094 181.171875 260.167969 C 197.957031 251.148438 215.261719 244.101562 235.382812 247.75 C 253.011719 250.945312 257.910156 258.746094 274.085938 244.367188 C 305.347656 216.597656 325.480469 238.097656 315.660156 270.515625 C 333.898438 243.371094 309.128906 199.171875 268.882812 239.722656 C 257.566406 251.121094 248.929688 243.90625 235.957031 240.710938 C 215.519531 235.683594 194.855469 241.644531 174.09375 251.648438 C 148.085938 264.1875 148.390625 264.84375 119.179688 256.257812 C 84.699219 246.144531 58.453125 248.109375 37.5 257.828125 " fill-opacity="1" fill-rule="nonzero"/></g><g clip-path="url(#f57d9fc1b5)"><path fill="#345935" d="M 251.914062 257.285156 C 284.191406 263.714844 310.734375 291.328125 337.5 274.929688 C 307.316406 281.285156 283.859375 253.902344 251.914062 257.285156 " fill-opacity="1" fill-rule="nonzero"/></g><path fill="#345935" d="M 171.027344 194.5 C 181.164062 211.996094 192.554688 226.34375 205.082031 237.152344 C 186.058594 231.867188 175.914062 216.285156 171.027344 194.5 " fill-opacity="1" fill-rule="nonzero"/><path fill="#345935" d="M 127.578125 254.929688 C 144.734375 239.824219 142.292969 203.886719 142.664062 190.257812 C 142.941406 179.882812 144.632812 170.488281 154.316406 164.886719 C 170.933594 155.28125 171.589844 160.222656 176.359375 139.453125 C 177.734375 133.449219 178.824219 127.054688 180.394531 121.308594 C 188.597656 91.292969 227.144531 107.617188 214.78125 138.648438 C 208.425781 154.585938 191.695312 173.804688 179.34375 152.460938 C 184.027344 179.28125 212.351562 163.085938 220.59375 141.023438 C 233.757812 105.796875 186.253906 83.671875 175.765625 120.734375 C 174.167969 126.390625 172.957031 132.367188 171.453125 138.085938 C 167.683594 152.34375 167.3125 150.558594 155.070312 155.898438 C 138.644531 163.058594 136.355469 174.433594 135.800781 190.597656 C 135.292969 205.613281 136.863281 234.492188 127.578125 254.929688 " fill-opacity="1" fill-rule="nonzero"/><path fill="#345935" d="M 253.324219 238.511719 C 241.34375 224.523438 221.101562 223.195312 210.828125 201.945312 C 201.8125 183.300781 202.394531 171.613281 177.292969 165.839844 C 196.238281 174.820312 197.839844 185.695312 203.675781 203.070312 C 209.636719 220.808594 241.703125 230.484375 253.324219 238.511719 " fill-opacity="1" fill-rule="nonzero"/><path fill="#345935" d="M 182.078125 107.089844 C 175.878906 87.449219 200.121094 84.039062 197.746094 101.039062 C 193.238281 90.046875 181.863281 94.007812 182.078125 107.089844 " fill-opacity="1" fill-rule="nonzero"/></svg>