<svg xmlns="http://www.w3.org/2000/svg" xmlns:xlink="http://www.w3.org/1999/xlink" width="500" zoomAndPan="magnify" viewBox="0 0 375 374.999991" height="500" preserveAspectRatio="xMidYMid meet" version="1.0"><defs><clipPath id="323196fca4"><path d="M 50 259 L 197 259 L 197 297.375 L 50 297.375 Z M 50 259 " clip-rule="nonzero"/></clipPath><clipPath id="8a6002b1d6"><path d="M 194 197 L 313 197 L 313 297.375 L 194 297.375 Z M 194 197 " clip-rule="nonzero"/></clipPath><clipPath id="503d5a01a4"><path d="M 37.5 290 L 328 290 L 328 297.375 L 37.5 297.375 Z M 37.5 290 " clip-rule="nonzero"/></clipPath><clipPath id="d6235837f5"><path d="M 197 77.625 L 277 77.625 L 277 127 L 197 127 Z M 197 77.625 " clip-rule="nonzero"/></clipPath><clipPath id="1f6c7577e1"><path d="M 307 166 L 337.5 166 L 337.5 214 L 307 214 Z M 307 166 " clip-rule="nonzero"/></clipPath></defs><g clip-path="url(#323196fca4)"><path fill="#345935" d="M 188.816406 297.367188 C 186.945312 297.367188 185.425781 295.847656 185.425781 293.976562 C 185.425781 292.105469 186.945312 290.589844 188.816406 290.589844 C 189.039062 290.589844 189.324219 290.480469 189.539062 290.355469 L 180.144531 265.878906 L 67.164062 265.878906 L 57.765625 290.355469 C 57.984375 290.480469 58.265625 290.589844 58.492188 290.589844 C 60.363281 290.589844 61.882812 292.105469 61.882812 293.976562 C 61.882812 295.847656 60.363281 297.367188 58.492188 297.367188 C 55.933594 297.367188 53.269531 296 51.867188 293.957031 C 50.746094 292.324219 50.488281 290.378906 51.167969 288.609375 L 61.664062 261.277344 C 62.164062 259.96875 63.425781 259.101562 64.832031 259.101562 L 182.46875 259.101562 C 183.871094 259.101562 185.132812 259.96875 185.636719 261.277344 L 196.132812 288.609375 C 196.808594 290.378906 196.558594 292.324219 195.433594 293.957031 C 194.035156 296 191.371094 297.367188 188.816406 297.367188 Z M 188.816406 297.367188 " fill-opacity="1" fill-rule="nonzero"/></g><path fill="#345935" d="M 182.46875 265.878906 C 180.597656 265.878906 179.078125 264.363281 179.078125 262.492188 L 179.078125 254.644531 C 179.078125 252.191406 177.078125 250.191406 174.625 250.191406 L 72.675781 250.191406 C 70.222656 250.191406 68.222656 252.191406 68.222656 254.644531 L 68.222656 262.492188 C 68.222656 264.363281 66.703125 265.878906 64.832031 265.878906 C 62.960938 265.878906 61.441406 264.363281 61.441406 262.492188 L 61.441406 254.644531 C 61.441406 248.449219 66.476562 243.410156 72.675781 243.410156 L 174.625 243.410156 C 180.820312 243.410156 185.859375 248.449219 185.859375 254.644531 L 185.859375 262.492188 C 185.859375 264.363281 184.347656 265.878906 182.46875 265.878906 Z M 182.46875 265.878906 " fill-opacity="1" fill-rule="nonzero"/><path fill="#345935" d="M 143.535156 250.191406 C 141.664062 250.191406 140.144531 248.671875 140.144531 246.800781 L 140.144531 240.679688 C 140.144531 239.171875 138.917969 237.945312 137.414062 237.945312 L 109.886719 237.945312 C 108.378906 237.945312 107.152344 239.171875 107.152344 240.679688 L 107.152344 246.800781 C 107.152344 248.671875 105.632812 250.191406 103.761719 250.191406 C 101.890625 250.191406 100.371094 248.671875 100.371094 246.800781 L 100.371094 240.679688 C 100.371094 235.429688 104.636719 231.164062 109.886719 231.164062 L 137.414062 231.164062 C 142.660156 231.164062 146.925781 235.429688 146.925781 240.679688 L 146.925781 246.800781 C 146.925781 248.671875 145.40625 250.191406 143.535156 250.191406 Z M 143.535156 250.191406 " fill-opacity="1" fill-rule="nonzero"/><path fill="#345935" d="M 135.238281 237.945312 C 133.367188 237.945312 131.847656 236.425781 131.847656 234.554688 L 131.847656 111.226562 C 131.847656 106.707031 128.171875 103.03125 123.648438 103.03125 C 119.128906 103.03125 115.453125 106.707031 115.453125 111.226562 L 115.453125 234.554688 C 115.453125 236.425781 113.933594 237.945312 112.0625 237.945312 C 110.191406 237.945312 108.671875 236.425781 108.671875 234.554688 L 108.671875 111.226562 C 108.671875 102.96875 115.390625 96.25 123.648438 96.25 C 131.90625 96.25 138.628906 102.96875 138.628906 111.226562 L 138.628906 234.554688 C 138.628906 236.425781 137.117188 237.945312 135.238281 237.945312 Z M 135.238281 237.945312 " fill-opacity="1" fill-rule="nonzero"/><path fill="#345935" d="M 135.238281 150.84375 L 112.054688 150.84375 C 110.183594 150.84375 108.664062 149.328125 108.664062 147.457031 C 108.664062 145.585938 110.183594 144.066406 112.054688 144.066406 L 135.238281 144.066406 C 137.109375 144.066406 138.628906 145.585938 138.628906 147.457031 C 138.628906 149.328125 137.117188 150.84375 135.238281 150.84375 Z M 135.238281 150.84375 " fill-opacity="1" fill-rule="nonzero"/><path fill="#345935" d="M 135.238281 170.488281 L 112.054688 170.488281 C 110.183594 170.488281 108.664062 168.96875 108.664062 167.097656 C 108.664062 165.226562 110.183594 163.707031 112.054688 163.707031 L 135.238281 163.707031 C 137.109375 163.707031 138.628906 165.226562 138.628906 167.097656 C 138.628906 168.96875 137.117188 170.488281 135.238281 170.488281 Z M 135.238281 170.488281 " fill-opacity="1" fill-rule="nonzero"/><path fill="#345935" d="M 74.417969 279.644531 C 72.546875 279.644531 71.027344 278.125 71.027344 276.253906 L 71.027344 262.492188 C 71.027344 260.617188 72.546875 259.101562 74.417969 259.101562 C 76.289062 259.101562 77.808594 260.617188 77.808594 262.492188 L 77.808594 276.253906 C 77.808594 278.125 76.289062 279.644531 74.417969 279.644531 Z M 74.417969 279.644531 " fill-opacity="1" fill-rule="nonzero"/><path fill="#345935" d="M 85.363281 279.644531 C 83.488281 279.644531 81.972656 278.125 81.972656 276.253906 L 81.972656 262.492188 C 81.972656 260.617188 83.488281 259.101562 85.363281 259.101562 C 87.234375 259.101562 88.75 260.617188 88.75 262.492188 L 88.75 276.253906 C 88.75 278.125 87.234375 279.644531 85.363281 279.644531 Z M 85.363281 279.644531 " fill-opacity="1" fill-rule="nonzero"/><path fill="#345935" d="M 96.296875 279.644531 C 94.425781 279.644531 92.90625 278.125 92.90625 276.253906 L 92.90625 262.492188 C 92.90625 260.617188 94.425781 259.101562 96.296875 259.101562 C 98.167969 259.101562 99.6875 260.617188 99.6875 262.492188 L 99.6875 276.253906 C 99.6875 278.125 98.167969 279.644531 96.296875 279.644531 Z M 96.296875 279.644531 " fill-opacity="1" fill-rule="nonzero"/><path fill="#345935" d="M 107.242188 279.644531 C 105.371094 279.644531 103.851562 278.125 103.851562 276.253906 L 103.851562 262.492188 C 103.851562 260.617188 105.371094 259.101562 107.242188 259.101562 C 109.113281 259.101562 110.632812 260.617188 110.632812 262.492188 L 110.632812 276.253906 C 110.632812 278.125 109.113281 279.644531 107.242188 279.644531 Z M 107.242188 279.644531 " fill-opacity="1" fill-rule="nonzero"/><path fill="#345935" d="M 118.179688 279.644531 C 116.308594 279.644531 114.789062 278.125 114.789062 276.253906 L 114.789062 262.492188 C 114.789062 260.617188 116.308594 259.101562 118.179688 259.101562 C 120.050781 259.101562 121.566406 260.617188 121.566406 262.492188 L 121.566406 276.253906 C 121.566406 278.125 120.050781 279.644531 118.179688 279.644531 Z M 118.179688 279.644531 " fill-opacity="1" fill-rule="nonzero"/><path fill="#345935" d="M 129.121094 279.644531 C 127.25 279.644531 125.730469 278.125 125.730469 276.253906 L 125.730469 262.492188 C 125.730469 260.617188 127.25 259.101562 129.121094 259.101562 C 130.992188 259.101562 132.511719 260.617188 132.511719 262.492188 L 132.511719 276.253906 C 132.511719 278.125 130.992188 279.644531 129.121094 279.644531 Z M 129.121094 279.644531 " fill-opacity="1" fill-rule="nonzero"/><path fill="#345935" d="M 140.066406 279.644531 C 138.195312 279.644531 136.675781 278.125 136.675781 276.253906 L 136.675781 262.492188 C 136.675781 260.617188 138.195312 259.101562 140.066406 259.101562 C 141.9375 259.101562 143.453125 260.617188 143.453125 262.492188 L 143.453125 276.253906 C 143.453125 278.125 141.9375 279.644531 140.066406 279.644531 Z M 140.066406 279.644531 " fill-opacity="1" fill-rule="nonzero"/><path fill="#345935" d="M 151 279.644531 C 149.128906 279.644531 147.613281 278.125 147.613281 276.253906 L 147.613281 262.492188 C 147.613281 260.617188 149.128906 259.101562 151 259.101562 C 152.871094 259.101562 154.390625 260.617188 154.390625 262.492188 L 154.390625 276.253906 C 154.390625 278.125 152.871094 279.644531 151 279.644531 Z M 151 279.644531 " fill-opacity="1" fill-rule="nonzero"/><path fill="#345935" d="M 161.945312 279.644531 C 160.074219 279.644531 158.554688 278.125 158.554688 276.253906 L 158.554688 262.492188 C 158.554688 260.617188 160.074219 259.101562 161.945312 259.101562 C 163.816406 259.101562 165.335938 260.617188 165.335938 262.492188 L 165.335938 276.253906 C 165.335938 278.125 163.816406 279.644531 161.945312 279.644531 Z M 161.945312 279.644531 " fill-opacity="1" fill-rule="nonzero"/><path fill="#345935" d="M 172.882812 279.644531 C 171.011719 279.644531 169.492188 278.125 169.492188 276.253906 L 169.492188 262.492188 C 169.492188 260.617188 171.011719 259.101562 172.882812 259.101562 C 174.753906 259.101562 176.273438 260.617188 176.273438 262.492188 L 176.273438 276.253906 C 176.273438 278.125 174.753906 279.644531 172.882812 279.644531 Z M 172.882812 279.644531 " fill-opacity="1" fill-rule="nonzero"/><path fill="#345935" d="M 264.742188 203.859375 L 198.828125 203.859375 C 188.484375 203.859375 180.070312 195.445312 180.070312 185.101562 C 180.070312 174.753906 188.484375 166.339844 198.828125 166.339844 L 311.226562 166.339844 C 321.574219 166.339844 329.988281 174.753906 329.988281 185.101562 C 329.988281 187.90625 329.378906 190.605469 328.171875 193.132812 C 327.363281 194.824219 325.34375 195.535156 323.648438 194.734375 C 321.960938 193.929688 321.242188 191.90625 322.046875 190.210938 C 322.816406 188.605469 323.207031 186.882812 323.207031 185.101562 C 323.207031 178.496094 317.832031 173.117188 311.226562 173.117188 L 198.828125 173.117188 C 192.226562 173.117188 186.847656 178.496094 186.847656 185.101562 C 186.847656 191.703125 192.226562 197.082031 198.828125 197.082031 L 264.742188 197.082031 C 266.613281 197.082031 268.132812 198.597656 268.132812 200.472656 C 268.132812 202.34375 266.613281 203.859375 264.742188 203.859375 Z M 264.742188 203.859375 " fill-opacity="1" fill-rule="nonzero"/><g clip-path="url(#8a6002b1d6)"><path fill="#345935" d="M 294.832031 297.367188 L 215.230469 297.367188 C 207.609375 297.367188 201.40625 291.273438 200.804688 283.183594 L 194.652344 200.726562 C 194.511719 198.863281 195.914062 197.238281 197.777344 197.09375 C 199.65625 196.957031 201.269531 198.355469 201.414062 200.21875 L 207.5625 282.675781 C 207.902344 287.183594 211.195312 290.589844 215.230469 290.589844 L 294.832031 290.589844 C 298.867188 290.589844 302.160156 287.183594 302.5 282.675781 L 305.476562 242.746094 C 305.621094 240.882812 307.226562 239.484375 309.113281 239.621094 C 310.976562 239.761719 312.378906 241.382812 312.238281 243.253906 L 309.261719 283.183594 C 308.664062 291.273438 302.460938 297.367188 294.832031 297.367188 Z M 294.832031 297.367188 " fill-opacity="1" fill-rule="nonzero"/></g><g clip-path="url(#503d5a01a4)"><path fill="#345935" d="M 324.515625 297.367188 L 40.949219 297.367188 C 39.078125 297.367188 37.558594 295.847656 37.558594 293.976562 C 37.558594 292.105469 39.078125 290.589844 40.949219 290.589844 L 324.515625 290.589844 C 326.386719 290.589844 327.90625 292.105469 327.90625 293.976562 C 327.90625 295.847656 326.394531 297.367188 324.515625 297.367188 Z M 324.515625 297.367188 " fill-opacity="1" fill-rule="nonzero"/></g><path fill="#345935" d="M 265.398438 173.117188 C 263.527344 173.117188 262.007812 171.601562 262.007812 169.730469 C 261.875 168.371094 258.597656 164.039062 256.203125 160.878906 C 251.039062 154.046875 244.746094 145.726562 243.03125 137.027344 L 225.753906 137.027344 C 223.890625 145.535156 217.035156 155.082031 211.867188 162.269531 C 209.773438 165.1875 207.175781 168.800781 206.769531 170 C 206.628906 171.742188 205.167969 173.117188 203.394531 173.117188 C 201.523438 173.117188 200.003906 171.601562 200.003906 169.730469 C 200.003906 167.265625 201.839844 164.609375 206.363281 158.316406 C 211.402344 151.308594 219.007812 140.714844 219.441406 133.441406 C 219.550781 131.652344 221.027344 130.246094 222.824219 130.246094 L 246 130.246094 C 247.796875 130.246094 249.28125 131.644531 249.382812 133.441406 C 249.84375 141.230469 256.367188 149.863281 261.609375 156.792969 C 265.773438 162.304688 268.78125 166.285156 268.78125 169.730469 C 268.789062 171.605469 267.269531 173.117188 265.398438 173.117188 Z M 206.785156 169.730469 C 206.785156 169.734375 206.785156 169.734375 206.785156 169.730469 C 206.785156 169.734375 206.785156 169.734375 206.785156 169.730469 Z M 206.785156 169.730469 " fill-opacity="1" fill-rule="nonzero"/><path fill="#345935" d="M 246.007812 137.027344 C 244.136719 137.027344 242.617188 135.507812 242.617188 133.636719 L 242.617188 122.671875 C 242.617188 120.800781 244.136719 119.285156 246.007812 119.285156 C 247.878906 119.285156 249.398438 120.800781 249.398438 122.671875 L 249.398438 133.636719 C 249.398438 135.507812 247.878906 137.027344 246.007812 137.027344 Z M 222.824219 137.027344 C 220.953125 137.027344 219.433594 135.507812 219.433594 133.636719 L 219.433594 122.671875 C 219.433594 120.800781 220.953125 119.285156 222.824219 119.285156 C 224.695312 119.285156 226.214844 120.800781 226.214844 122.671875 L 226.214844 133.636719 C 226.214844 135.507812 224.695312 137.027344 222.824219 137.027344 Z M 222.824219 137.027344 " fill-opacity="1" fill-rule="nonzero"/><path fill="#345935" d="M 238.550781 150.84375 L 230.285156 150.84375 C 227.753906 150.84375 225.699219 148.792969 225.699219 146.261719 L 225.699219 133.644531 C 225.699219 131.773438 227.21875 130.253906 229.089844 130.253906 C 230.960938 130.253906 232.480469 131.773438 232.480469 133.644531 L 232.480469 144.070312 L 236.359375 144.070312 L 236.359375 133.644531 C 236.359375 131.773438 237.878906 130.253906 239.75 130.253906 C 241.621094 130.253906 243.140625 131.773438 243.140625 133.644531 L 243.140625 146.261719 C 243.132812 148.792969 241.078125 150.84375 238.550781 150.84375 Z M 238.550781 150.84375 " fill-opacity="1" fill-rule="nonzero"/><g clip-path="url(#d6235837f5)"><path fill="#345935" d="M 246.890625 126.070312 L 221.945312 126.070312 C 220.074219 126.070312 218.554688 124.550781 218.554688 122.679688 L 218.554688 104.273438 L 201.242188 104.273438 C 199.371094 104.273438 197.855469 102.753906 197.855469 100.882812 L 197.855469 81.007812 C 197.855469 79.136719 199.371094 77.617188 201.242188 77.617188 L 251.105469 77.617188 C 252.042969 77.617188 260.109375 77.699219 267.027344 84.410156 C 273.554688 90.746094 276.863281 100.664062 276.863281 113.90625 C 276.863281 115.777344 275.347656 117.296875 273.472656 117.296875 L 267.582031 117.296875 C 265.839844 117.296875 264.382812 115.972656 264.207031 114.246094 C 264.207031 114.226562 263.757812 110.347656 261.332031 106.609375 C 258.816406 102.738281 255.105469 100.425781 250.273438 99.714844 L 250.273438 122.679688 C 250.277344 124.550781 248.761719 126.070312 246.890625 126.070312 Z M 225.335938 119.289062 L 243.5 119.289062 L 243.5 96.085938 C 243.5 94.214844 245.015625 92.699219 246.890625 92.699219 C 260.882812 92.699219 267.480469 101.546875 269.894531 108.761719 C 269.203125 100.101562 266.699219 93.597656 262.414062 89.382812 C 257.316406 84.363281 251.457031 84.398438 251.214844 84.398438 C 251.195312 84.398438 251.152344 84.398438 251.132812 84.398438 L 204.632812 84.398438 L 204.632812 97.492188 L 221.945312 97.492188 C 223.816406 97.492188 225.335938 99.011719 225.335938 100.882812 Z M 225.335938 119.289062 " fill-opacity="1" fill-rule="nonzero"/></g><path fill="#345935" d="M 201.242188 100.09375 L 188.21875 100.09375 C 186.347656 100.09375 184.828125 98.574219 184.828125 96.703125 L 184.828125 85.191406 C 184.828125 83.320312 186.347656 81.800781 188.21875 81.800781 L 201.242188 81.800781 C 203.113281 81.800781 204.632812 83.320312 204.632812 85.191406 C 204.632812 87.0625 203.113281 88.582031 201.242188 88.582031 L 191.609375 88.582031 L 191.609375 93.316406 L 201.242188 93.316406 C 203.113281 93.316406 204.632812 94.832031 204.632812 96.703125 C 204.632812 98.578125 203.113281 100.09375 201.242188 100.09375 Z M 201.242188 100.09375 " fill-opacity="1" fill-rule="nonzero"/><path fill="#345935" d="M 201.378906 132.917969 C 199.90625 132.917969 198.570312 131.957031 198.136719 130.503906 C 197.644531 128.863281 198.449219 127.109375 200.023438 126.421875 C 208.632812 122.652344 209.21875 108.917969 208.804688 101.058594 C 208.703125 99.1875 210.140625 97.59375 212.011719 97.492188 C 213.902344 97.394531 215.476562 98.828125 215.578125 100.699219 C 215.910156 106.984375 215.460938 112.515625 214.28125 117.179688 C 215.875 115.5 217.523438 113.519531 219.175781 111.175781 C 220.253906 109.640625 222.371094 109.28125 223.902344 110.359375 C 225.429688 111.4375 225.796875 113.554688 224.71875 115.085938 C 213.71875 130.652344 202.445312 132.78125 201.96875 132.863281 C 201.765625 132.90625 201.570312 132.917969 201.378906 132.917969 Z M 201.378906 132.917969 " fill-opacity="1" fill-rule="nonzero"/><path fill="#345935" d="M 270.484375 240.617188 C 265.445312 240.617188 261.351562 236.523438 261.351562 231.484375 L 261.351562 199.96875 C 261.351562 198.097656 262.871094 196.578125 264.742188 196.578125 C 266.613281 196.578125 268.132812 198.097656 268.132812 199.96875 L 268.132812 231.484375 C 268.132812 232.785156 269.1875 233.835938 270.484375 233.835938 C 271.757812 233.835938 272.835938 232.757812 272.835938 231.484375 L 272.835938 210.417969 C 272.835938 208.546875 274.355469 207.027344 276.226562 207.027344 C 278.097656 207.027344 279.617188 208.546875 279.617188 210.417969 L 279.617188 231.484375 C 279.625 236.515625 275.523438 240.617188 270.484375 240.617188 Z M 270.484375 240.617188 " fill-opacity="1" fill-rule="nonzero"/><path fill="#345935" d="M 281.976562 246.191406 C 276.9375 246.191406 272.84375 242.09375 272.84375 237.058594 L 272.84375 214.945312 C 272.84375 213.074219 274.363281 211.554688 276.234375 211.554688 C 278.105469 211.554688 279.625 213.074219 279.625 214.945312 L 279.625 237.058594 C 279.625 238.359375 280.683594 239.410156 281.976562 239.410156 C 283.273438 239.410156 284.328125 238.351562 284.328125 237.058594 L 284.328125 205.542969 C 284.328125 203.671875 285.847656 202.152344 287.71875 202.152344 C 289.589844 202.152344 291.109375 203.671875 291.109375 205.542969 L 291.109375 237.058594 C 291.109375 242.089844 287.015625 246.191406 281.976562 246.191406 Z M 281.976562 246.191406 " fill-opacity="1" fill-rule="nonzero"/><path fill="#345935" d="M 293.46875 253.242188 C 288.433594 253.242188 284.335938 249.148438 284.335938 244.109375 L 284.335938 212.601562 C 284.335938 210.730469 285.855469 209.210938 287.726562 209.210938 C 289.597656 209.210938 291.117188 210.730469 291.117188 212.601562 L 291.117188 244.109375 C 291.117188 245.410156 292.175781 246.460938 293.46875 246.460938 C 294.765625 246.460938 295.824219 245.402344 295.824219 244.109375 L 295.824219 212.601562 C 295.824219 210.730469 297.339844 209.210938 299.210938 209.210938 C 301.082031 209.210938 302.601562 210.730469 302.601562 212.601562 L 302.601562 244.109375 C 302.601562 249.140625 298.507812 253.242188 293.46875 253.242188 Z M 293.46875 253.242188 " fill-opacity="1" fill-rule="nonzero"/><path fill="#345935" d="M 304.957031 247.925781 C 299.917969 247.925781 295.824219 243.832031 295.824219 238.792969 L 295.824219 207.277344 C 295.824219 205.40625 297.339844 203.886719 299.210938 203.886719 C 301.082031 203.886719 302.601562 205.40625 302.601562 207.277344 L 302.601562 238.792969 C 302.601562 240.066406 303.679688 241.144531 304.957031 241.144531 C 306.230469 241.144531 307.308594 240.066406 307.308594 238.792969 L 307.308594 196.207031 C 307.308594 194.335938 308.828125 192.816406 310.699219 192.816406 C 312.570312 192.816406 314.089844 194.335938 314.089844 196.207031 L 314.089844 238.792969 C 314.09375 243.832031 309.992188 247.925781 304.957031 247.925781 Z M 304.957031 247.925781 " fill-opacity="1" fill-rule="nonzero"/><path fill="#345935" d="M 264.742188 205.191406 C 262.871094 205.191406 261.351562 203.671875 261.351562 201.800781 L 261.351562 169.734375 C 261.351562 167.863281 262.871094 166.34375 264.742188 166.34375 C 266.613281 166.34375 268.132812 167.863281 268.132812 169.734375 L 268.132812 201.800781 C 268.132812 203.671875 266.613281 205.191406 264.742188 205.191406 Z M 264.742188 205.191406 " fill-opacity="1" fill-rule="nonzero"/><g clip-path="url(#1f6c7577e1)"><path fill="#345935" d="M 327.546875 213.605469 C 323.28125 213.605469 319.511719 211.015625 319.003906 210.648438 C 318.792969 210.5 318.605469 210.324219 318.433594 210.132812 L 308.148438 198.4375 C 306.914062 197.03125 307.050781 194.890625 308.453125 193.648438 C 309.859375 192.414062 312 192.550781 313.242188 193.953125 L 323.234375 205.320312 C 324.457031 206.089844 326.9375 207.222656 328.449219 206.675781 C 329.1875 206.402344 329.722656 205.636719 330.097656 204.777344 C 324.347656 196.625 315.714844 184.203125 314.683594 181.613281 C 314.664062 181.558594 312.625 176.378906 310.046875 171.398438 C 309.1875 169.734375 309.835938 167.6875 311.5 166.828125 C 313.160156 165.964844 315.207031 166.617188 316.066406 168.277344 C 318.820312 173.585938 320.917969 178.921875 321.003906 179.148438 C 321.011719 179.160156 321.011719 179.167969 321.019531 179.179688 C 321.832031 180.96875 329.582031 192.308594 336.632812 202.273438 C 337.214844 203.09375 337.398438 204.140625 337.140625 205.109375 C 335.75 210.28125 332.890625 212.289062 330.726562 213.0625 C 329.664062 213.449219 328.589844 213.605469 327.546875 213.605469 Z M 327.546875 213.605469 " fill-opacity="1" fill-rule="nonzero"/></g></svg>