<svg xmlns="http://www.w3.org/2000/svg" width="1536" height="303" viewBox="0 0 1536 303" fill="none"><path fill-rule="evenodd" clip-rule="evenodd" d="M166.231 0.158269C176.538 0.448625 185.249 1.61005 190.911 3.35219C195.702 4.94915 202.671 8.14307 206.591 10.7563C210.365 13.3695 215.011 17.5797 216.898 20.1929C218.931 22.6609 222.27 28.7584 224.448 33.5493C227.206 39.6467 228.513 45.4539 228.948 53.1483C229.384 60.262 228.948 67.3758 227.351 73.9088C226.045 79.2804 222.996 87.7007 220.383 92.6368C217.915 97.718 212.253 105.703 207.752 110.349C203.251 114.994 195.702 121.527 190.911 124.576C186.12 127.625 177.264 132.125 171.312 134.448C165.36 136.626 149.39 141.271 135.743 144.611C122.096 147.804 106.852 151.869 101.626 153.612C96.3992 155.209 86.3819 159.564 79.1229 163.339C69.2507 168.42 63.2983 172.775 54.2972 181.631C47.0382 188.745 39.634 198.036 35.1335 205.585C31.0684 212.409 28.0197 218.071 28.31 218.361C28.7456 218.506 35.4238 214.151 43.2635 208.634C50.958 202.972 64.1694 194.987 72.5898 190.777C82.3168 185.696 93.3505 181.486 103.077 179.018C111.498 176.84 128.484 172.92 140.824 170.162C153.164 167.549 168.553 163.193 174.941 160.725C181.329 158.257 190.766 153.757 195.847 150.853C200.929 147.805 208.623 141.852 212.833 137.642C217.189 133.577 223.286 126.028 226.48 120.947C229.674 116.01 234.029 106.719 236.207 100.331C238.24 93.9434 242.45 83.4906 245.644 77.1027C248.838 70.7149 254.209 61.5686 257.694 56.7778C261.033 51.9869 266.985 45.1635 270.905 41.5341C274.825 37.9046 281.213 32.6782 285.278 29.9198C289.198 27.1614 298.344 22.2254 305.603 18.8863C312.862 15.402 323.896 11.1918 330.284 9.3045C340.156 6.40093 345.237 5.9654 364.401 5.9654C383.419 5.9654 388.791 6.54611 399.244 9.3045C406.067 11.1918 416.085 14.6761 421.747 16.9989C427.409 19.3218 436.845 24.403 442.798 28.1777C448.75 32.0975 457.896 39.066 462.978 43.8569C468.059 48.5026 475.028 56.3422 478.367 61.1331C481.851 65.924 486.787 74.3443 489.691 80.0063C492.449 85.6682 496.369 95.3952 498.401 101.783C500.434 108.171 502.902 118.624 503.773 125.012C504.935 132.27 505.37 142.868 504.789 153.321C504.354 162.467 502.612 175.534 500.87 182.357C499.273 189.18 494.627 201.23 490.852 209.215C486.642 217.78 480.254 227.943 475.173 233.895C470.527 239.557 462.687 247.252 457.896 251.026C453.251 254.946 444.395 261.043 438.442 264.528C432.49 268.012 422.618 272.803 416.665 275.126C410.713 277.449 400.26 280.352 393.437 281.659C386.178 283.111 373.692 283.982 362.949 283.982C350.609 283.982 340.882 282.965 332.461 281.223C325.638 279.626 315.04 276.432 308.797 273.964C302.699 271.496 292.827 266.705 287.165 263.221C281.358 259.882 272.067 252.623 266.405 246.961C260.888 241.299 254.355 233.169 252.032 228.814C249.709 224.459 247.096 217.055 246.225 212.409C245.354 207.763 244.192 203.988 243.611 204.134C242.885 204.134 238.966 207.908 234.755 212.409C230.545 217.055 221.98 228.669 215.737 238.251C209.349 247.832 200.203 259.592 195.412 264.528C189.605 270.335 182.926 275.126 175.667 278.61C169.715 281.659 159.843 284.998 153.89 286.305C145.615 288.047 138.211 288.482 122.677 287.756C111.498 287.321 95.2378 285.579 86.3819 283.982C76.0741 281.949 61.7013 280.643 45.7316 280.207C28.4552 279.626 17.8571 280.062 0 283.256V275.561C0 271.496 0.725898 261.624 1.59698 253.785C2.32287 246.09 4.35539 234.186 5.95236 227.362C7.54934 220.539 11.1788 209.505 13.9372 202.682C16.6957 195.858 22.0673 185.406 25.6968 179.453C29.6166 173.356 38.9081 162.177 47.1834 153.902C55.749 145.191 66.7826 135.9 74.0416 131.109C80.865 126.754 91.8987 120.366 98.7221 117.172C105.546 113.833 124.274 106.864 140.534 101.783C165.65 93.653 170.15 91.7657 171.602 88.717C173.344 85.3779 173.054 84.652 169.134 80.7322C166.811 78.2641 162.746 75.6509 160.423 74.6347C157.084 73.4733 153.455 73.4733 145.18 74.925C139.227 75.9413 125.145 78.99 113.966 81.7484C102.787 84.3616 86.0915 87.9911 76.9452 89.588C66.3471 91.6205 56.7652 92.3464 50.8129 92.0561C45.5864 91.6205 38.4726 90.0236 34.8431 88.5718C31.2136 86.9748 25.5516 82.9098 22.2125 79.5707C18.7282 76.2316 14.6631 70.8601 13.0662 67.6661C11.4692 64.4722 9.14631 57.5037 7.8397 51.9869C6.24272 45.4539 5.80718 38.9208 6.3879 32.0975C6.82344 26.4355 8.13006 19.6121 9.29149 16.8538C10.4529 14.0954 11.7595 11.337 12.1951 10.6111C12.6306 10.0304 16.8408 11.337 21.4866 13.5147C29.1811 17.2893 31.0684 17.5797 47.9093 17.4345C64.1694 17.4345 68.6699 16.7086 90.7372 11.337C104.384 7.99789 121.37 4.36844 128.484 3.20701C135.598 2.04559 143.583 0.738982 145.905 0.303447C148.228 0.0130907 157.375 -0.132087 166.231 0.158269ZM328.977 71.7311C322.444 75.2154 315.766 80.587 309.378 87.2652C303.861 93.0723 297.473 101.928 294.279 107.88C290.214 116.01 286.875 120.075 280.632 125.012C275.986 128.641 265.969 135.319 258.42 139.82C250.87 144.32 240.708 150.708 235.917 154.192C231.126 157.531 223.722 161.887 219.657 164.064C215.447 166.097 207.171 169.146 201.509 170.597C195.702 172.194 179.152 175.243 164.779 177.276C150.406 179.453 134.146 181.921 128.484 182.938C122.822 184.099 115.998 185.986 113.24 187.438C110.482 188.89 105.981 191.503 103.513 193.39C100.9 195.278 97.7059 198.907 96.5444 201.23C95.383 203.553 94.3667 208.489 94.3667 212.118C94.3667 217.49 95.2378 219.668 99.1577 223.878L103.803 229.104C115.127 223.442 124.854 219.232 132.839 216.038C140.824 212.699 153.89 208.344 161.875 206.311C169.86 204.279 182.636 201.666 190.185 200.504C197.735 199.343 209.204 198.327 215.592 198.327C225.464 198.472 227.932 197.891 231.852 195.133C234.32 193.245 242.16 187.438 249.273 182.067C256.242 176.55 270.615 167.839 280.922 162.613C291.23 157.386 301.974 150.998 304.587 148.53C307.2 145.917 311.555 140.11 314.023 135.319C316.637 130.673 322.589 122.834 327.38 118.188C332.897 112.671 339.865 107.735 346.253 104.541C351.915 101.783 361.933 98.1536 368.756 96.5566C377.757 94.2337 384 93.653 391.985 94.0886C399.389 94.5241 405.341 95.8307 410.858 98.2987C415.214 100.331 421.311 104.251 424.505 107.009C427.554 109.768 432.054 115.139 434.232 119.204C436.555 123.124 438.442 126.899 438.442 127.48C438.442 128.205 435.684 126.899 432.345 124.576C427.409 121.382 424.65 120.656 417.536 120.656C412.6 120.656 404.47 121.963 399.389 123.56C393.582 125.302 387.775 128.496 384.145 131.69C380.806 134.738 375.58 141.997 372.095 148.385C368.756 154.773 363.094 163.919 359.465 168.855C355.835 173.937 349.302 180.615 345.237 183.809C341.027 187.003 333.042 191.358 327.38 193.681C320.411 196.584 317.072 198.762 316.782 200.649C316.491 202.391 319.105 206.021 324.041 210.812C329.122 215.748 334.639 219.377 340.156 221.41C346.544 223.733 351.625 224.459 362.659 224.459C372.24 224.459 380.08 223.588 387.339 221.555C393.001 219.958 401.857 216.619 406.938 214.006C411.874 211.538 419.424 206.166 423.634 202.101C427.989 198.036 433.361 191.794 435.539 188.164C437.862 184.535 441.201 177.711 442.943 172.92C445.701 165.516 446.282 161.306 446.282 144.611C446.282 130.093 445.556 122.834 443.669 116.301C442.217 111.51 438.007 103.09 434.377 97.5728C430.603 92.0561 424.215 84.5068 420.15 80.8773C415.939 77.2479 409.116 72.457 404.906 70.1342C400.55 67.9565 393.437 65.1981 389.081 64.0367C384.726 62.8753 375.289 61.859 368.03 62.0042C360.771 62.0042 351.335 63.0204 346.979 64.1819C342.624 65.3433 334.494 68.8276 328.977 71.7311ZM801.391 6.11057C813.49 6.40093 823.41 7.56236 831.153 9.59485C837.541 11.337 846.542 14.6761 851.333 17.2893C855.979 19.9025 862.657 24.9837 866.141 28.9036C869.626 32.6782 874.126 39.2112 876.014 43.4214C878.046 47.4864 880.369 55.1808 881.24 60.4072C882.401 67.2306 882.401 71.7311 881.385 76.8124C880.514 80.587 878.627 86.1038 877.03 89.1525C875.578 92.0561 871.368 97.2825 867.593 100.767C863.964 104.106 856.124 109.042 850.462 111.8C844.655 114.414 834.928 118.333 828.975 120.366C823.023 122.543 816.345 125.592 814.167 127.189C811.844 128.786 810.102 131.109 810.102 132.27C810.102 133.432 811.409 135.174 813.006 135.9C814.603 136.626 824.039 137.352 834.057 137.352C849.301 137.352 853.511 137.932 860.625 140.546C865.125 142.288 871.803 146.062 875.433 148.966C879.062 151.869 883.273 156.66 884.87 159.564C886.467 162.613 888.063 164.936 888.499 164.936C888.935 165.081 891.257 160.58 893.871 155.209C896.484 149.837 899.533 141.417 900.839 136.626C902.001 131.835 903.017 121.818 903.017 114.123C903.017 105.558 904.178 95.5403 905.921 87.9911C907.518 81.1677 909.26 69.4083 909.695 61.859C910.421 51.4062 910.131 45.8894 908.243 39.066C906.937 33.9848 903.743 25.8548 901.275 20.9188C898.662 15.8375 896.339 11.337 896.194 10.7563C895.903 10.0304 909.986 9.59485 927.407 9.74003C944.684 9.74003 962.541 10.3207 967.186 10.7563C971.687 11.337 975.752 12.0629 976.188 12.4984C976.768 12.934 975.752 23.9675 974.155 37.1787C972.558 50.3899 971.251 63.6011 971.251 66.6499C971.251 69.5534 970.235 77.1027 968.929 83.2002C967.767 89.4429 964.863 98.4439 962.686 103.235C960.508 108.026 955.862 115.139 952.378 119.059C948.749 122.979 938.586 131.545 929.875 138.078C919.858 145.482 911.147 153.466 906.501 159.274C902.436 164.355 897.645 170.888 895.758 173.646C893 177.566 892.419 180.324 892.709 185.986C892.854 189.906 891.983 197.601 890.822 202.972C889.515 208.489 886.757 216.329 884.724 220.394C882.547 224.604 877.756 232.008 874.126 236.799C870.497 241.444 863.238 248.849 858.011 253.059C852.785 257.414 843.639 263.366 837.686 266.415C831.734 269.609 821.571 273.674 815.183 275.706C808.795 277.739 798.052 280.207 791.229 281.078C782.808 282.385 770.323 282.675 752.03 281.949C737.222 281.514 714.574 280.643 677.989 278.9V268.738C677.989 263.076 678.86 254.365 680.021 249.139C681.037 243.912 683.796 236.073 685.974 231.717C688.296 227.362 693.087 220.829 696.717 217.2C700.637 213.425 709.638 207.473 717.913 203.263C725.898 199.198 736.641 194.407 741.868 192.665C747.094 191.068 761.467 187.438 773.807 184.68C786.147 182.067 797.471 179.453 798.923 178.873C800.23 178.437 801.391 178.727 801.391 179.453C801.391 180.179 789.777 186.712 775.694 193.971C761.467 201.085 747.384 208.925 744.481 211.393C739.69 215.167 738.964 216.619 738.964 221.555C738.964 225.426 739.69 227.604 741.142 228.088C742.303 228.524 747.675 228.814 753.192 228.814C758.563 228.814 769.016 227.798 776.42 226.636C783.679 225.475 793.552 223.152 798.197 221.555C802.698 219.958 808.795 216.764 811.554 214.441C814.312 212.264 818.087 207.908 819.829 204.714C822.297 200.359 823.168 196.73 823.168 188.89C823.168 180.615 822.587 177.856 819.974 173.791C818.087 171.033 814.748 167.404 812.57 165.807C808.941 163.193 806.473 162.758 792.971 162.903C784.405 162.903 769.887 164.064 760.741 165.516C751.595 166.823 739.835 169.001 734.609 170.307C729.382 171.469 720.671 174.662 715.009 177.276C709.493 179.889 700.782 184.97 695.846 188.745C690.764 192.374 683.941 198.907 680.747 202.972C677.408 207.182 673.633 212.99 672.181 215.748C670.73 218.506 668.842 223.442 667.971 226.636C667.1 229.83 665.794 240.283 664.922 249.865C663.906 262.931 662.745 268.883 660.277 273.674C657.954 278.175 655.05 281.078 651.13 283.111C646.049 285.724 642.71 286.159 626.45 286.014C608.302 286.014 606.705 285.724 584.348 279.046C571.572 275.271 556.764 271.206 551.392 270.045C545.875 268.883 536.148 268.012 529.615 268.012C522.211 268.012 513.065 269.173 505.951 270.916C499.563 272.658 492.449 275.271 489.981 276.723C487.658 278.32 484.755 279.626 483.884 279.626C482.432 279.626 482.722 276.432 484.9 266.851C486.642 259.882 489.546 248.703 491.578 241.88C493.611 235.057 498.401 223.007 502.321 215.022C506.386 207.037 512.919 196.004 517.13 190.487C521.34 184.97 531.938 173.791 540.794 165.807C549.505 157.677 560.538 146.933 565.474 141.852C570.265 136.771 576.798 129.367 579.847 125.157C582.896 121.092 587.542 113.252 590.155 107.59C592.768 101.928 595.962 93.7982 597.269 89.4429C598.721 85.0875 599.592 81.3129 599.301 81.0225C599.011 80.8773 596.978 83.7809 594.656 87.5555C592.333 91.3302 587.397 98.7343 583.622 103.961C579.847 109.187 572.588 117.317 567.507 121.963C562.426 126.754 549.36 137.061 538.616 145.046C527.873 153.031 516.839 161.596 514.371 164.064C511.758 166.532 509.29 168.129 508.854 167.404C508.419 166.823 511.032 161.306 514.662 155.063C518.291 148.966 523.227 138.368 525.55 131.545C529.615 120.075 529.905 117.753 529.905 98.1535C529.905 80.587 529.325 74.7799 526.421 63.3108C524.534 55.7615 521.34 45.8894 519.453 41.5341C517.565 37.1787 512.484 28.468 508.419 22.2254C504.209 16.1279 501.305 10.6111 501.741 9.88521C502.176 9.3045 518.001 8.86896 536.874 8.86896C569.104 8.86896 571.572 9.01414 577.089 11.9177C580.283 13.6598 585.074 17.4345 587.687 20.338C590.155 23.2416 594.22 29.3391 596.543 33.8396C598.721 38.4853 601.479 45.8894 602.64 50.2447C603.947 55.0356 604.528 64.9077 604.528 74.925C604.383 84.3616 602.931 99.6053 601.189 109.768C599.592 119.785 596.398 133.722 594.365 140.981C592.333 148.24 587.687 160.58 584.203 168.565C580.573 176.55 575.201 187.438 572.008 192.81C568.814 198.327 566.2 203.988 566.2 205.585C566.2 207.763 567.943 209.215 573.169 210.957C578.105 212.844 584.348 213.425 595.962 213.425C605.399 213.425 617.013 212.264 624.272 210.812C631.096 209.36 640.532 206.456 645.323 204.279C650.695 201.811 656.357 197.601 660.277 193.536C663.616 189.761 667.536 183.954 669.133 180.47C670.584 177.13 672.617 170.452 673.633 165.661C674.65 160.871 676.392 151.144 677.553 143.885C678.86 136.19 680.021 115.865 680.457 94.5241C681.183 63.6011 680.892 56.7778 678.86 48.793C677.553 43.5666 674.94 36.7432 673.053 33.5493C671.165 30.3553 666.229 24.403 662.164 20.4832C658.099 16.4182 655.341 12.7888 655.921 12.3532C656.502 11.7725 665.068 12.0629 675.085 12.7888C687.861 13.805 699.911 13.805 715.735 12.6436C728.076 11.7725 746.078 10.0304 755.66 8.86896C765.242 7.70754 775.404 6.40093 778.163 6.11057C780.921 5.82022 791.374 5.67504 801.391 6.11057ZM745.207 62.5849C743.755 63.1656 743.319 71.0052 743.319 94.8144V126.463C756.24 124.866 765.242 122.979 771.629 121.382C778.017 119.785 787.019 116.591 791.809 114.414C796.455 112.236 802.698 107.88 805.747 104.687C809.376 100.622 811.554 96.4114 812.861 90.8946C814.312 84.7972 814.457 81.4581 813.151 76.6672C812.28 73.3281 810.392 68.8276 809.086 66.7951C807.634 64.7626 803.859 61.859 800.665 60.262C796.165 58.2295 791.809 57.5037 781.792 57.6488C774.533 57.6488 763.79 58.6651 757.837 59.8265C751.885 60.8428 746.078 62.1494 745.207 62.5849ZM1117.88 5.9654C1130.22 6.25575 1142.71 7.41718 1148.08 8.72378C1153.02 10.0304 1162.16 12.934 1168.41 15.402C1174.5 17.7248 1184.81 22.9512 1191.2 27.1614C1197.59 31.3716 1207.02 38.6305 1212.1 43.5666C1217.19 48.5026 1224.15 56.3422 1227.49 61.1331C1230.98 65.924 1236.49 75.3606 1239.69 82.184C1242.88 89.0073 1246.95 99.7505 1248.69 106.138C1251.16 115.139 1251.88 122.253 1252.03 137.642C1252.03 148.676 1252.46 157.677 1252.9 157.677C1253.34 157.677 1255.22 152.595 1256.96 146.498C1258.85 140.255 1260.88 128.931 1261.61 121.382C1262.19 113.833 1263.79 104.251 1265.24 100.331C1266.55 96.2662 1269.89 88.5718 1272.35 82.9098C1274.97 77.2479 1279.61 68.8276 1282.66 64.0367C1285.71 59.2458 1291.81 51.5514 1296.31 46.7605C1300.81 42.1148 1308.36 35.4366 1313.15 32.0975C1317.94 28.7584 1327.23 23.2416 1333.91 19.9025C1340.44 16.7086 1351.48 12.2081 1358.59 10.1756C1368.03 7.272 1375.72 6.25575 1389.37 5.67504C1400.11 5.09433 1411.58 5.52986 1417.68 6.54611C1423.2 7.41718 1434.08 10.1756 1441.63 12.4984C1449.18 14.9664 1460.36 19.6121 1466.31 23.0964C1472.41 26.4355 1481.85 32.8234 1487.36 37.1787C1492.88 41.5341 1500.87 49.3737 1505.08 54.6001C1509.43 59.8265 1515.67 69.5534 1519.16 76.3768C1522.64 83.2002 1526.85 92.9271 1528.45 98.1535C1530.19 103.38 1532.52 113.107 1533.82 119.93C1534.98 126.754 1536 138.803 1536 146.788C1536 154.773 1534.98 166.823 1533.68 173.646C1532.37 180.47 1529.47 191.213 1527.14 197.601C1524.82 203.988 1520.18 213.715 1516.69 219.377C1513.35 225.039 1506.67 233.75 1501.88 238.831C1497.09 243.912 1488.96 251.171 1483.74 254.946C1478.51 258.721 1470.09 264.092 1464.86 266.996C1459.64 269.754 1450.49 273.819 1444.54 275.997C1438.58 278.029 1428.13 280.788 1421.31 281.949C1414.48 283.111 1401.42 283.982 1392.27 283.982C1383.13 283.982 1369.91 282.965 1362.95 281.804C1355.83 280.643 1344.8 277.739 1338.27 275.271C1331.59 272.948 1320.99 267.867 1314.6 264.092C1308.21 260.318 1298.78 253.059 1293.55 247.832C1287.6 241.88 1282.23 234.621 1279.32 228.814C1276.71 223.588 1274.1 216.909 1273.52 213.861C1272.93 210.957 1272.35 208.489 1272.21 208.489C1271.92 208.489 1269.89 209.505 1267.42 210.667C1264.95 211.828 1263.06 212.554 1263.06 212.118C1263.06 211.683 1267.85 205.731 1273.66 198.762C1279.32 191.793 1287.45 183.809 1291.37 180.905C1295.44 177.856 1304.15 172.63 1310.83 169.146C1317.5 165.661 1326.94 159.128 1331.88 154.628C1337.54 149.547 1342.33 143.304 1345.09 137.932C1347.56 132.851 1353.51 125.157 1359.61 119.059C1366.29 112.236 1372.96 107.3 1379.21 104.251C1384.43 101.638 1394.16 98.1536 1400.98 96.5566C1410.13 94.2337 1416.23 93.653 1424.21 94.0886C1431.04 94.5241 1437.71 95.9759 1442.07 97.8632C1445.84 99.6053 1452.23 104.106 1456.3 107.88C1460.36 111.8 1465.44 117.607 1467.62 121.092C1469.65 124.431 1470.96 127.77 1470.38 128.351C1469.8 128.931 1467.33 127.625 1464.86 125.302C1462.54 123.124 1458.04 120.947 1455.13 120.511C1452.09 119.93 1446.71 119.93 1443.09 120.511C1439.46 120.947 1432.92 122.543 1428.57 123.995C1422.91 125.737 1418.69 128.351 1414.05 132.996C1410.42 136.626 1403.89 146.062 1399.53 154.047C1394.3 163.484 1388.5 171.614 1382.84 177.276C1377.32 182.938 1370.64 187.729 1364.69 190.632C1359.46 192.955 1353.51 195.713 1351.33 196.73C1349.01 197.601 1347.27 199.343 1347.27 200.504C1347.27 201.666 1350.17 205.731 1353.65 209.505C1357.28 213.57 1363.24 217.926 1367.74 219.958C1373.83 222.716 1378.77 223.733 1390.09 224.168C1400.69 224.604 1407.81 224.168 1416.23 222.281C1422.61 220.829 1432.78 217.2 1438.73 214.151C1445.84 210.521 1452.38 205.876 1457.75 200.214C1462.97 194.987 1467.91 187.729 1471.25 180.905C1474.44 174.082 1477.06 165.952 1478.07 159.128C1479.23 151.289 1479.23 143.885 1478.07 132.27C1476.77 118.479 1475.9 114.849 1471.1 105.412C1467.48 97.8632 1462.54 91.3302 1455.57 84.2164C1449.18 77.8286 1441.92 72.1667 1436.55 69.5534C1431.76 67.0854 1424.21 64.327 1419.86 63.3108C1415.5 62.1494 1406.65 61.4235 1400.26 61.4235C1393.87 61.4235 1384.58 62.5849 1379.64 63.8915C1374.56 65.1981 1368.03 67.521 1365.12 68.9727C1362.07 70.4245 1355.69 74.6347 1350.9 78.2641C1346.11 81.8936 1339.43 88.4266 1336.23 92.6368C1332.89 96.8469 1327.52 105.848 1324.04 112.671C1320.7 119.495 1316.49 126.608 1314.75 128.496C1313.15 130.238 1307.05 134.158 1301.53 136.916C1296.02 139.82 1287.16 144.611 1281.94 147.659C1276.71 150.708 1271.05 154.628 1269.31 156.515C1267.42 158.402 1263.06 167.113 1259.43 175.824C1255.8 184.535 1250.72 195.423 1248.25 199.778C1245.79 204.134 1241.29 210.957 1238.24 215.022C1235.33 218.942 1228.95 226.201 1224.01 230.992C1219.07 235.783 1215.15 240.428 1215.15 241.154C1215.15 241.88 1216.75 244.638 1218.64 246.961C1220.38 249.284 1225.75 253.349 1230.54 255.962C1235.19 258.43 1243.03 261.479 1247.82 262.64C1252.61 263.802 1264.37 265.254 1273.95 265.689C1283.53 266.27 1291.66 266.996 1292.1 267.431C1292.53 267.867 1287.89 272.948 1281.94 278.61C1275.98 284.417 1267.13 291.095 1262.34 293.709C1257.55 296.177 1249.71 299.371 1244.91 300.677C1239.83 302.129 1230.69 303 1223.14 303C1214.14 303 1207.17 302.129 1200.64 300.096C1195.41 298.499 1184.08 292.838 1175.23 287.466C1166.52 282.24 1150.11 273.238 1138.93 267.722C1127.76 262.06 1113.09 253.93 1106.27 249.284C1099.44 244.784 1089.28 236.508 1083.77 230.992C1078.25 225.33 1070.99 216.909 1067.94 212.118C1064.46 206.892 1061.99 201.085 1061.55 197.601C1061.26 194.407 1061.7 184.97 1062.71 176.55C1063.59 168.129 1065.62 154.773 1067.22 146.788C1068.81 138.803 1072.15 128.06 1074.62 122.834C1077.52 116.591 1081.73 110.784 1087.25 105.703C1092.33 100.767 1099.74 95.8307 1106.99 92.3464C1113.38 89.2977 1122.24 85.9586 1126.59 85.0875C1130.95 84.0713 1138.5 83.4906 1143.29 83.9261C1148.08 84.3616 1154.61 85.9586 1157.81 87.5555C1161 89.2977 1166.52 93.7982 1170 97.5728C1173.63 101.493 1177.84 107.59 1179.29 111.22C1180.89 114.849 1182.49 121.672 1182.78 126.463C1183.36 135.029 1183.36 135.174 1180.75 131.835C1179.29 130.093 1175.52 127.915 1172.33 127.044C1167.68 125.883 1164.92 126.028 1158.53 128.06C1152.44 129.802 1148.66 132.416 1142.42 138.658C1135.3 145.772 1134 147.95 1132.4 155.499C1131.38 160.29 1130.95 168.42 1131.38 173.646C1131.67 178.873 1133.42 186.277 1135.16 190.342C1136.9 194.262 1140.39 199.778 1143 202.391C1145.61 205.15 1150.11 208.489 1153.16 210.086C1156.06 211.538 1160.71 212.844 1163.32 212.844C1165.79 212.844 1170.29 211.393 1173.05 209.505C1175.81 207.618 1180.16 202.827 1182.78 198.907C1185.39 194.987 1188.88 187.874 1190.47 183.083C1192.21 178.292 1194.25 167.839 1195.12 159.854C1196.28 149.692 1196.42 140.836 1195.41 130.093C1194.39 118.624 1193.09 112.817 1190.18 106.864C1188 102.509 1182.49 94.6693 1177.7 89.4429C1172.91 84.2164 1164.92 77.5382 1159.84 74.4895C1154.76 71.4408 1146.34 67.6661 1141.11 66.0692C1134.29 63.8915 1127.61 63.0204 1117.16 62.8753C1107.28 62.8753 1099.88 63.6011 1093.93 65.3433C1089.14 66.7951 1081.3 69.989 1076.51 72.457C1071.57 75.0702 1063.44 81.4581 1057.63 87.2652C1052.12 92.9271 1045.29 101.057 1042.82 105.412C1040.21 109.768 1036.29 118.333 1034.26 124.286C1031.5 132.125 1030.34 138.078 1030.34 145.336C1030.34 152.886 1031.5 158.983 1034.99 168.855C1037.45 176.259 1041.66 186.712 1044.42 192.084C1047.04 197.601 1055.17 210.812 1062.42 221.555C1069.54 232.298 1079.27 245.509 1084.06 250.881C1088.7 256.253 1095.82 263.076 1099.74 265.98C1103.8 268.883 1111.64 273.529 1127.32 281.223L1100.46 280.497C1082.17 280.062 1070.84 279.191 1064.89 277.594C1060.1 276.287 1050.66 272.513 1043.84 269.173C1034.69 264.673 1028.45 260.172 1020.03 252.188C1013.79 246.09 1004.93 235.637 1000.43 228.814C995.787 221.991 990.125 211.247 987.657 204.86C985.189 198.472 982.285 189.035 981.414 183.809C980.398 178.582 979.236 172.34 977.639 165.661L974.3 172.92C972.558 176.84 969.945 184.389 968.348 189.616C966.896 194.842 964.864 203.553 963.847 209.215C962.686 216.183 962.396 227.217 963.121 244.058C963.557 257.704 964.718 271.206 965.444 274.11C966.315 277.158 966.46 279.771 965.88 279.917C965.154 280.207 948.603 280.062 928.859 279.626C897.065 279.046 892.709 278.61 890.386 276.287C887.918 273.819 887.918 272.948 891.112 253.785C893 242.896 895.903 228.959 897.5 223.007C899.097 217.055 902.146 208.199 904.324 203.408C906.501 198.617 911.728 190.922 916.083 186.132C920.439 181.486 931.908 172.049 941.49 165.371C951.071 158.548 961.67 150.273 965.154 146.933C968.638 143.74 972.703 138.513 974.3 135.464C975.897 132.416 977.639 124.431 978.51 116.591C979.236 109.332 980.978 99.6053 982.285 95.25C983.592 90.8946 986.786 83.055 989.399 77.8286C992.012 72.6022 997.093 64.4722 1000.72 59.6813C1004.35 54.8904 1010.74 47.6315 1014.95 43.5666C1019.31 39.6467 1026.71 33.6944 1031.5 30.3553C1036.29 27.1614 1044.13 22.5157 1048.92 20.0477C1053.71 17.7248 1061.84 14.2406 1067.07 12.4984C1072.3 10.7563 1081.15 8.43343 1086.67 7.272C1093.49 5.9654 1103.8 5.52986 1117.88 5.9654Z" fill="black" fill-opacity="0.99"></path></svg>