<svg version="1.2" xmlns="http://www.w3.org/2000/svg" viewBox="0 0 512 256" width="512" height="256">
	<style>
		.s0 { fill: #000000 } 
	</style>
	<path id="netu.ro" class="s0" aria-label="netu.ro"  d="m47.8 168h-31.9v-2.4h7.1v-59.3h-7v-2.4h24.7v11.9q3.2-5.9 10-9 6.9-3.3 14.5-3.3 9.6 0 16.3 4.8 6.9 4.8 6.9 13.7v43.6h7v2.4h-31.8v-2.4h7.1v-44.9q0-6.3-3.6-9.6-3.4-3.3-8.6-3.3-5.4 0-10.5 3.2-5 3.2-7.3 8.7v45.9h7.1zm64.9-55.9q9.8-9.2 25.1-9.2 15.4 0 24.2 8.5 8.9 8.4 8.9 23.4 0 3.1-0.3 4.8h-50q0.4 12.2 5.2 20.1 4.9 7.9 12.5 7.9 7.8 0 12-5.9 4.3-6.1 4.8-13.7h15.3q-1.4 9.4-9.1 15.7-7.7 6.2-23.2 6.2-17.1 0-26.2-9.8-9-9.9-9-24 0-14.7 9.8-24zm7.8 24.8h32.5q0.5-4.3 0.5-6.7 0-10.3-3.9-17.6-3.7-7.3-11.2-7.3-8.4 0-13.2 8.2-4.7 8.2-4.7 23.4zm56.4-30.6v-2.3h11q5.4-1.7 10.4-7.5 4.9-5.9 6.2-11.3h2.4l0.1 18.8h22.4v2.3h-22.4v46.8q0 6.7 2.7 9.9 2.7 3.2 7.2 3.2 5.7 0 10.5-5.7 4.8-5.7 4.8-14.2h2.3q0 11.6-7 17.8-6.9 6.3-16.5 6.3-8.7 0-15.2-5.2-6.5-5.2-6.5-13.9v-45zm64-2.3h31.8v2.3h-7v43.1q0 9.4 8.5 12.5 3 1.1 6 1.1 3.9 0 7.8-1.9 5.9-2.7 5.9-7.7v-47.1h-7.1v-2.3h31.9v2.3h-7.1v59.5h7.1v2.4h-24.8v-9.7q-1.8 3.6-6 6.1-4.2 2.5-8.3 3.3-4 0.7-7.2 0.7-2.1 0-5.9-0.3-3.8-0.5-8.3-2.5-4.4-2.1-7.4-6.3-2.8-4.2-2.8-9.9v-43.3h-7.1zm93.1 55.6q1-2.1 3.2-3.1 1.1-0.6 2.4-0.6 0.9 0 2.7 0.8 1.7 0.5 2.6 3.1 0.4 1.3 0.4 2.5 0 1.3-0.8 3-0.7 1.5-2.9 2.4-1.1 0.6-2.4 0.6-0.9 0-2.7-0.6-1.8-0.7-2.7-3.4-0.4-1.2-0.4-2.1 0-1.4 0.6-2.6zm58.7 8.5h-31.8v-2.4h7.1v-59.3h-7v-2.4h24.7v15.5q3.7-8.9 9.5-12.6 5.9-3.9 12.1-3.9 8.1 0 10.5 7.3l-5.5 8.1q-1.9-3.2-5.2-4.9-3.3-1.8-6.9-1.8-4.5 0-8.6 3.4-4.2 3.4-5.9 9v41.6h7zm29.8-43.7q2-5.7 6.2-10.5 4.4-5 12-7.8 7.6-3 17.7-3 10.1 0 17.7 3 7.6 2.8 11.9 7.8 4.3 4.8 6.5 10.6 2.1 5.6 2.1 12 0 6.4-2.1 12.2-2.2 5.8-6.5 10.7-4.3 4.8-11.9 7.8-7.6 2.8-17.7 2.8-10.1 0-17.7-2.8-7.6-3-12-7.8-4.2-4.9-6.3-10.7-2-5.8-2-12.2 0-6.4 2.1-12.1zm21 34.1q5.3 9.2 14.9 9.2 6.6 0 11.3-4.5 4.8-4.5 6.9-11.5 2.3-6.9 2.3-15.2 0-8.2-2.3-15.1-2.1-7-6.9-11.4-4.7-4.5-11.3-4.5-9.6 0-15 9.1-5.3 9.1-5.3 21.9 0 12.9 5.4 22z"/>
</svg>