<?xml version="1.0" encoding="UTF-8"?>
<svg id="Layer_1" data-name="Layer 1" xmlns="http://www.w3.org/2000/svg" xmlns:xlink="http://www.w3.org/1999/xlink" viewBox="0 0 1390.45 334.45">
  <defs>
    <style>
      .cls-1 {
        fill: url(#linear-gradient-8);
      }

      .cls-2 {
        fill: url(#linear-gradient-7);
      }

      .cls-3 {
        fill: url(#linear-gradient-5);
      }

      .cls-4 {
        fill: url(#linear-gradient-6);
      }

      .cls-5 {
        fill: url(#linear-gradient-9);
      }

      .cls-6 {
        fill: url(#linear-gradient-4);
      }

      .cls-7 {
        fill: url(#linear-gradient-3);
      }

      .cls-8 {
        fill: url(#linear-gradient-2);
      }

      .cls-9 {
        fill: url(#linear-gradient);
      }

      .cls-10 {
        fill: url(#linear-gradient-10);
      }
    </style>
    <linearGradient id="linear-gradient" x1="99.84" y1="300.39" x2="493.43" y2="73.15" gradientUnits="userSpaceOnUse">
      <stop offset="0" stop-color="#a47d24"/>
      <stop offset=".15" stop-color="#a47d24"/>
      <stop offset=".45" stop-color="#d6bb61"/>
      <stop offset=".61" stop-color="#efdb80"/>
      <stop offset=".72" stop-color="#faf0a6"/>
      <stop offset=".84" stop-color="#efdb80"/>
      <stop offset="1" stop-color="#a47d24"/>
    </linearGradient>
    <linearGradient id="linear-gradient-2" x1="-94.27" y1="310.77" x2="293.36" y2="86.98" xlink:href="#linear-gradient"/>
    <linearGradient id="linear-gradient-3" x1="250.58" y1="266.11" x2="1412.43" y2="-404.69" xlink:href="#linear-gradient"/>
    <linearGradient id="linear-gradient-4" x1="154.88" y1="390.59" x2="1842.97" y2="-584.02" xlink:href="#linear-gradient"/>
    <linearGradient id="linear-gradient-5" x1="113.89" y1="505.36" x2="1851.89" y2="-498.08" xlink:href="#linear-gradient"/>
    <linearGradient id="linear-gradient-6" x1="285.63" y1="503.26" x2="1585.74" y2="-247.36" xlink:href="#linear-gradient"/>
    <linearGradient id="linear-gradient-7" x1="372.22" y1="522.66" x2="1534.07" y2="-148.14" xlink:href="#linear-gradient"/>
    <linearGradient id="linear-gradient-8" x1="75.26" y1="763.35" x2="1763.35" y2="-211.27" xlink:href="#linear-gradient"/>
    <linearGradient id="linear-gradient-9" x1="10.66" y1="890.11" x2="1754.82" y2="-116.88" xlink:href="#linear-gradient"/>
    <linearGradient id="linear-gradient-10" x1="655.76" y1="373.81" x2="1151.76" y2="87.45" xlink:href="#linear-gradient"/>
  </defs>
  <g>
    <path class="cls-9" d="M397.86,102.88c-5.57-5.39-11.77-10.14-17.37-15.51-1.94-1.86-3.89-4.58-4.18-7.1-.42-3.58.08-7.55,1.27-10.98,2.74-7.91,4.94-16.42,14.75-19.14,3.02-.84,5.32-3.1,4.84-6.8-.36-2.74-4.57-5.92-7.58-5.18-2.04.5-4,2.06-5.55,3.59-3.26,3.22-6.23,6.75-9.33,10.13-5.28,5.75-10.68,11.41-15.83,17.27-2.1,2.38-3.7,5.2-5.53,7.82l-1.41-.31c0-4.07-.67-8.28.13-12.19,2.16-10.58,7.67-19.46,15.08-27.29,2.87-3.02,5.83-6.23,7.63-9.9,1.21-2.47,1.7-6.87.29-8.64-1.66-2.09-5.76-3.19-8.73-3.06-4.79.21-6.9,3.93-6.13,9.61.33,2.43-.25,3.87-2.03,5.58-5.92,5.66-11.74,11.46-17.29,17.49-11.47,12.48-21.57,25.99-29.19,41.21-16.62,33.21-11.51,71.89-16.45,107.87-5.2,37.96-27.98,69.51-57.61,92.69-7.39,5.78-15.21,10.99-23.46,15.46-6.68,3.62-18.98,11.71-26.76,11.49,33.82.98,67.94,1.94,101.22-4.13,20.16-3.67,40.41-10.21,56.1-23.39,18.8-15.78,29.32-39.91,32.17-64.28,2.1-17.92.35-36.28-5.08-53.48-.54-1.7-1.13-3.42-2.23-4.82-1.27-1.62-3.12-2.66-4.92-3.66-10.3-5.75-24.07-10.34-30.32-20.7,4.75.76,9.56,1.87,14.24,3.04,13.96,3.27,27.62,2.74,40.71-3.51,14.51-6.93,20.9-27.28,8.58-39.2Z"/>
    <path class="cls-8" d="M103.36,310.41c2.39-1.28,4.53-2.38,6.54-3.7,10.89-7.15,19.15-16.7,25.5-27.98,4.52-8.03,7.82-16.52,9.19-25.68.24-1.63,1.07-1.96,2.46-2.06,7.38-.53,14.53-2.1,21.47-4.65,11.26-4.13,21.14-10.47,29.89-18.62,13.21-12.3,22.71-26.81,25.12-44.68,5.04-37.3-16.09-75.4-53.2-86.28,28.89.22,55.55,22.08,63.86,49.75,9.55,31.83-3.85,68.77-30.51,88.18-8.48,6.18-18.07,10.83-28.14,13.77-2.55.74-29.81,6.22-30.15,3.5,2.61,20.77-4.39,42.54-18.62,57.89,36.24-.56,72.39-13.96,99.3-38.23,26.91-24.27,44.09-59.41,45.32-95.64,1.23-36.22-13.91-72.96-41.22-96.79-27.31-23.83-66.46-33.83-101.54-24.71-24.91,6.48-47.61,22.64-59.89,45.26-12.28,22.62-13.21,51.58-.45,73.92,12.76,22.35,39.56,36.48,64.96,32.32,10.16-1.66,20.14-6.27,26.67-14.23,6.53-7.96,9.04-19.55,4.78-28.93-.81-1.78-2.13-3.65-4.08-3.78-2.13-.15-3.73,1.82-5.05,3.49-2.53,3.22-5.52,6.12-9.05,8.19-12.68,7.45-30.69,1.59-38.15-11.09-7.46-12.68-4.76-29.9,4.82-41.06,9.58-11.16,24.91-16.47,39.6-15.74,19.59.97,38.22,12.26,48.76,28.8,15.63,24.5,13.05,58.74-5.59,80.9-10.99,13.07-24.93,21.57-41.18,26.4-15.67,4.66-31.57,5.37-47.56,1.92-22.59-4.87-40.84-16.73-55.12-34.83-8.27-10.48-14.45-22.1-18.6-34.75-5.19-15.81-6.44-31.96-3.54-48.4,3.66-20.73,13.1-38.57,27.05-54.14,8.92-9.96,19.27-18.16,30.88-24.8,13.88-7.94,28.72-13.02,44.52-15.41,14.7-2.22,29.3-1.68,43.83,1.28,11.13,2.27,21.76,6.02,31.93,11.09,3.54,1.77,7.04,3.61,10.43,5.64,15.13,9.05,29.75,21.28,41.36,36.25,10.59,13.65,18.28,28.77,22.98,45.38,5.57,19.68,6.58,39.66,3.45,59.86-1.33,8.6-3.37,17.03-6.2,25.26-6.21,18.02-15.42,34.35-27.75,48.91-11.79,13.92-25.68,25.25-41.64,34.07-14.99,8.29-30.96,13.73-47.82,16.63-18.03,3.1-36.02,2.62-53.94-.89-1.8-.35-3.65-.6-5.68-1.59Z"/>
  </g>
  <g>
    <g>
      <path class="cls-7" d="M512.85,175.82h-63.39v-85.68h10.28v80.54h53.12v5.14Z"/>
      <path class="cls-6" d="M611.48,177.33c-10.78,0-19.37-2.87-25.76-8.62-6.4-5.69-9.6-13.67-9.6-23.95v-54.85h10.28v54.85c0,5.89,1.16,10.88,3.48,14.96,2.37,4.08,5.62,7.18,9.75,9.29,4.13,2.12,8.99,3.17,14.58,3.17,3.43,0,6.83-.6,10.2-1.81,3.43-1.21,6.52-2.97,9.29-5.29,2.77-2.37,5.01-5.24,6.72-8.62,1.66-3.42,2.49-7.33,2.49-11.71v-54.85h5.21v54.85c0,6.65-1.56,12.42-4.69,17.3-3.12,4.84-7.4,8.59-12.84,11.26-5.54,2.67-11.91,4.01-19.12,4.01Z"/>
      <path class="cls-3" d="M802.58,175.82h-10.35v-72.76l-33.4,72.76h-5.14l-33.4-71.63v71.63h-5.14v-85.68h10.28l33.77,72.76,33.02-72.76h10.35v85.68Z"/>
      <path class="cls-4" d="M905.51,90.14h6.95l35.96,85.68h-10.88l-31.81-73.89-30.98,73.89h-5.14l35.89-85.68Z"/>
      <path class="cls-2" d="M1078.86,175.82h-63.39v-85.68h10.28v80.54h53.12v5.14Z"/>
      <path class="cls-1" d="M1177.48,177.33c-10.78,0-19.37-2.87-25.76-8.62-6.4-5.69-9.6-13.67-9.6-23.95v-54.85h10.28v54.85c0,5.89,1.16,10.88,3.48,14.96,2.37,4.08,5.62,7.18,9.75,9.29,4.13,2.12,8.99,3.17,14.58,3.17,3.43,0,6.83-.6,10.2-1.81,3.43-1.21,6.52-2.97,9.29-5.29,2.77-2.37,5.01-5.24,6.72-8.62,1.66-3.42,2.49-7.33,2.49-11.71v-54.85h5.21v54.85c0,6.65-1.56,12.42-4.69,17.3-3.12,4.84-7.4,8.59-12.84,11.26-5.54,2.67-11.91,4.01-19.12,4.01Z"/>
      <path class="cls-5" d="M1361.86,175.82h-11.94l-30.75-38.91-33.32,38.91h-6.2l36.57-42.61-34-43.07h11.94l28.26,35.81,30.75-35.81h6.2l-33.92,39.51,36.42,46.17Z"/>
    </g>
    <path class="cls-10" d="M583.59,243.77h-2.92v-24.8h2.92v24.8ZM621.37,243.77h-12.23v-24.8h3.08v22.12h9.15v2.68ZM654.88,243.77h-12.23v-24.8h3.08v22.12h9.15v2.68ZM692.96,218.96l-.07,16.89c0,1.47-.41,2.89-1.24,4.24-.83,1.35-1.9,2.37-3.22,3.07-1.83.83-3.73,1.24-5.7,1.24s-3.73-.44-5.3-1.31-2.6-1.89-3.12-3.07c-.51-1.17-.84-2.06-.99-2.67-.15-.6-.22-1.15-.22-1.64v-16.76h2.98v16.76c.16,1.16.49,2.21,1.01,3.13.51.93,1.25,1.63,2.21,2.1,1.25.54,2.51.8,3.79.8,1.01,0,1.93-.16,2.78-.49.85-.32,1.57-.82,2.16-1.49s1.05-1.34,1.37-1.99.49-1.35.49-2.06v-16.76h3.05ZM730.77,243.77h-3.25l-2.71-18.74-7.89,19.42h-.86s-7.72-19.51-7.72-19.51l-2.96,18.84h-3.07s4.93-25.51,4.93-25.51h1.04l8.48,20.65,8.31-20.65h1.04l4.66,25.51ZM751.18,243.77h-2.92v-24.8h2.92v24.8ZM794.48,244.3h-.6l-18.1-19.91v19.37h-2.78v-25.41h.7s17.94,19.94,17.94,19.94v-19.33h2.85v25.34ZM828,243.77h-3.48s-3.17-7.71-3.17-7.71h-9.88l-3.18,7.71h-3.21s10.89-25.5,10.89-25.5h.8l11.23,25.51ZM820.4,233.81l-4.16-10.71-4.03,10.71h8.19ZM885.25,243.77h-2.92v-24.8h2.92v24.8ZM923.02,243.77h-12.23v-24.8h3.08v22.12h9.15v2.68ZM993.04,221.58h-7.14v22.19h-3.08v-22.19h-7.14v-2.61h17.36v2.61ZM1028.14,218.96l-.07,16.89c0,1.47-.41,2.89-1.24,4.24-.83,1.35-1.9,2.37-3.22,3.07-1.83.83-3.73,1.24-5.7,1.24s-3.73-.44-5.3-1.31-2.6-1.89-3.12-3.07c-.51-1.17-.84-2.06-.99-2.67-.15-.6-.22-1.15-.22-1.64v-16.76h2.98v16.76c.16,1.16.49,2.21,1.01,3.13.51.93,1.25,1.63,2.21,2.1,1.25.54,2.51.8,3.79.8,1.01,0,1.93-.16,2.78-.49.85-.32,1.57-.82,2.16-1.49s1.05-1.34,1.37-1.99.49-1.35.49-2.06v-16.76h3.05ZM1065.17,231.18c0,3.67-1.29,6.8-3.87,9.38s-5.7,3.88-9.37,3.88-6.9-1.25-9.57-3.74c-2.67-2.49-4.01-5.55-4.01-9.18s1.29-6.8,3.87-9.38c2.58-2.58,5.7-3.88,9.37-3.88s6.9,1.25,9.57,3.74c2.67,2.5,4.01,5.55,4.01,9.18ZM1062.09,231.11c0-2.84-1.03-5.25-3.08-7.22-2.06-1.97-4.53-2.95-7.41-2.95s-5.24,1.03-7.21,3.09c-1.97,2.06-2.95,4.53-2.95,7.42s1.02,5.24,3.07,7.2c2.04,1.96,4.52,2.94,7.42,2.94s5.24-1.03,7.21-3.09c1.97-2.06,2.95-4.52,2.95-7.39ZM1128.92,218.96l-10.32,25.57h-.9l-10.26-25.57h3.42l7.41,20.35,7.34-20.35h3.32ZM1153.39,243.77h-2.92v-24.8h2.92v24.8ZM1192.77,223.29l-2.65,1.24c-.25-1.03-.84-1.86-1.78-2.5-.94-.64-1.97-.96-3.08-.96-.83,0-1.55.16-2.18.49-.63.32-1.14.85-1.54,1.59-.27.6-.4,1.22-.4,1.84,0,1.5.7,2.63,2.11,3.39l6.37,2.35c1.16.65,2.05,1.52,2.67,2.62.61,1.1.92,2.28.92,3.53,0,1.07-.22,2.1-.65,3.08-.44.98-1.09,1.85-1.96,2.61-1.56,1.09-3.32,1.64-5.26,1.64-1.74,0-3.34-.44-4.79-1.31-.78-.58-1.38-1.23-1.79-1.96-.41-.73-.79-1.67-1.12-2.83l2.71-1.37c0,1.41.5,2.58,1.51,3.52s2.19,1.41,3.55,1.41c.54,0,1.07-.08,1.59-.25.52-.17,1.04-.44,1.54-.82s.91-.89,1.21-1.54c.3-.65.45-1.32.45-2.04,0-1.07-.24-1.86-.72-2.37-.48-.51-.86-.86-1.14-1.04-.28-.18-.84-.46-1.69-.83l-4.29-1.51c-1.27-.6-2.3-1.42-3.08-2.46-.78-1.04-1.17-2.22-1.17-3.54,0-.34.08-.94.25-1.83.17-.88.7-1.82,1.59-2.8.89-.98,1.87-1.58,2.93-1.79,1.06-.21,2.01-.32,2.83-.32.36,0,.64.01.84.03.2.02.72.12,1.56.28.84.17,1.73.65,2.68,1.46.95.8,1.61,1.8,1.99,2.98ZM1232.76,231.18c0,3.67-1.29,6.8-3.87,9.38s-5.7,3.88-9.37,3.88-6.9-1.25-9.57-3.74c-2.67-2.49-4.01-5.55-4.01-9.18s1.29-6.8,3.87-9.38c2.58-2.58,5.7-3.88,9.37-3.88s6.9,1.25,9.57,3.74c2.67,2.5,4.01,5.55,4.01,9.18ZM1229.68,231.11c0-2.84-1.03-5.25-3.08-7.22-2.06-1.97-4.53-2.95-7.41-2.95s-5.24,1.03-7.21,3.09c-1.97,2.06-2.95,4.53-2.95,7.42s1.02,5.24,3.07,7.2c2.04,1.96,4.52,2.94,7.42,2.94s5.24-1.03,7.21-3.09c1.97-2.06,2.95-4.52,2.95-7.39Z"/>
  </g>
</svg>