<svg xmlns="http://www.w3.org/2000/svg" xmlns:xlink="http://www.w3.org/1999/xlink" width="512" zoomAndPan="magnify" viewBox="0 0 384 383.999986" height="512" preserveAspectRatio="xMidYMid meet" version="1.0"><defs><clipPath id="8d526f4bcc"><path d="M 0 0 L 199 0 L 199 383 L 0 383 Z M 0 0 " clip-rule="nonzero"/></clipPath><clipPath id="e4473c69f5"><path d="M 23 5 L 384 5 L 384 384 L 23 384 Z M 23 5 " clip-rule="nonzero"/></clipPath><clipPath id="8993ff5944"><rect x="0" width="384" y="0" height="384"/></clipPath></defs><rect x="-38.4" width="460.8" fill="#ffffff" y="-38.399999" height="460.799983" fill-opacity="1"/><rect x="-38.4" width="460.8" fill="#ffffff" y="-38.399999" height="460.799983" fill-opacity="1"/><g><g clip-path="url(#8993ff5944)"><g clip-path="url(#8d526f4bcc)"><path fill="#3152f4" d="M 33.921875 0 L 198.542969 0 L 104.523438 194.925781 C 103.320312 197.339844 103.492188 200.09375 104.867188 202.332031 C 106.417969 204.742188 108.828125 206.121094 111.582031 206.121094 L 120.195312 206.121094 C 122.949219 206.121094 125.53125 207.496094 126.910156 210.082031 C 128.285156 212.492188 128.285156 215.417969 126.738281 217.828125 L 23.761719 382.621094 C 9.988281 378.316406 -0.171875 365.230469 -0.171875 350.078125 L -0.171875 34.265625 C -0.171875 15.324219 15.152344 0 33.921875 0 Z M 33.921875 0 " fill-opacity="1" fill-rule="evenodd"/></g><g clip-path="url(#e4473c69f5)"><path fill="#3152f4" d="M 23.761719 382.621094 L 276.550781 152.566406 C 278.960938 150.328125 279.820312 147.054688 278.613281 143.957031 C 277.410156 140.855469 274.65625 138.964844 271.382812 138.964844 L 240.214844 138.792969 C 236.945312 138.792969 234.1875 136.898438 233.15625 133.796875 C 231.949219 130.699219 232.636719 127.425781 235.222656 125.1875 L 368.15625 5.511719 C 377.628906 11.539062 384 22.214844 384 34.265625 L 384 350.078125 C 384 368.847656 368.675781 384.171875 349.734375 384.171875 L 33.921875 384.171875 C 30.480469 384.171875 27.035156 383.65625 23.761719 382.621094 Z M 23.761719 382.621094 " fill-opacity="1" fill-rule="evenodd"/></g></g></g></svg>